<?xml version="1.0" encoding="utf-8" standalone="no"?>
<!DOCTYPE svg PUBLIC "-//W3C//DTD SVG 1.1//EN"
  "http://www.w3.org/Graphics/SVG/1.1/DTD/svg11.dtd">
<svg xmlns:xlink="http://www.w3.org/1999/xlink" width="1800pt" height="144pt" viewBox="0 0 1800 144" xmlns="http://www.w3.org/2000/svg" version="1.1">
 <metadata>
  <rdf:RDF xmlns:dc="http://purl.org/dc/elements/1.1/" xmlns:cc="http://creativecommons.org/ns#" xmlns:rdf="http://www.w3.org/1999/02/22-rdf-syntax-ns#">
   <cc:Work>
    <dc:type rdf:resource="http://purl.org/dc/dcmitype/StillImage"/>
    <dc:date>2025-05-09T21:09:10.512293</dc:date>
    <dc:format>image/svg+xml</dc:format>
    <dc:creator>
     <cc:Agent>
      <dc:title>Matplotlib v3.8.0, https://matplotlib.org/</dc:title>
     </cc:Agent>
    </dc:creator>
   </cc:Work>
  </rdf:RDF>
 </metadata>
 <defs>
  <style type="text/css">*{stroke-linejoin: round; stroke-linecap: butt}</style>
 </defs>
 <g id="figure_1">
  <g id="patch_1">
   <path d="M 0 144 
L 1800 144 
L 1800 0 
L 0 0 
z
" style="fill: #ffffff"/>
  </g>
  <g id="axes_1">
   <g id="patch_2">
    <path d="M 225 128.16 
L 1620 128.16 
L 1620 17.28 
L 225 17.28 
z
" style="fill: #ffffff"/>
   </g>
   <g id="line2d_1">
    <path d="M 225 128.16 
L 1620 128.16 
" clip-path="url(#p9e57154730)" style="fill: none; stroke: #000000; stroke-width: 1.5; stroke-linecap: square"/>
   </g>
   <g id="patch_3">
    <path d="M 225 17.28 
L 231.210262 17.28 
L 235.518099 76.617197 
L 239.85433 17.28 
L 246.052423 17.28 
L 246.052423 128.16 
L 241.44036 128.16 
L 241.44036 47.055534 
L 237.079791 106.844235 
L 233.984801 106.844235 
L 229.624232 47.055534 
L 229.624232 128.16 
L 225 128.16 
L 225 17.28 
z
" clip-path="url(#p9e57154730)" style="fill: #21599c"/>
   </g>
   <g id="patch_4">
    <path d="M 247.160445 17.28 
L 252.708323 17.28 
L 252.708323 57.749061 
L 260.705015 17.28 
L 267.147564 17.28 
L 256.785068 69.797102 
L 268.212867 128.16 
L 261.267643 128.16 
L 252.708323 84.48288 
L 252.708323 128.16 
L 247.160445 128.16 
L 247.160445 17.28 
z
" clip-path="url(#p9e57154730)" style="fill: #bd2e1f"/>
   </g>
   <g id="patch_5">
    <path d="M 269.32089 17.28 
L 274.868768 17.28 
L 274.868768 57.749061 
L 282.86546 17.28 
L 289.308009 17.28 
L 278.945513 69.797102 
L 290.373312 128.16 
L 283.428088 128.16 
L 274.868768 84.48288 
L 274.868768 128.16 
L 269.32089 128.16 
L 269.32089 17.28 
z
" clip-path="url(#p9e57154730)" style="fill: #bd2e1f"/>
   </g>
   <g id="patch_6">
    <path d="M 291.481334 17.28 
L 297.029213 17.28 
L 297.029213 57.749061 
L 305.025905 17.28 
L 311.468454 17.28 
L 301.105958 69.797102 
L 312.533757 128.16 
L 305.588533 128.16 
L 297.029213 84.48288 
L 297.029213 128.16 
L 291.481334 128.16 
L 291.481334 17.28 
z
" clip-path="url(#p9e57154730)" style="fill: #bd2e1f"/>
   </g>
   <g id="patch_7">
    <path d="M 320.348071 17.28 
L 327.98791 17.28 
L 327.98791 128.16 
L 320.348071 128.16 
L 320.348071 17.28 
z
" clip-path="url(#p9e57154730)" style="fill: #21599c"/>
   </g>
   <g id="patch_8">
    <path d="M 335.802224 17.28 
L 341.350102 17.28 
L 341.350102 57.749061 
L 349.346795 17.28 
L 355.789343 17.28 
L 345.426847 69.797102 
L 356.854647 128.16 
L 349.909422 128.16 
L 341.350102 84.48288 
L 341.350102 128.16 
L 335.802224 128.16 
L 335.802224 17.28 
z
" clip-path="url(#p9e57154730)" style="fill: #bd2e1f"/>
   </g>
   <g id="patch_9">
    <path d="M 364.668961 17.28 
L 372.308799 17.28 
L 372.308799 128.16 
L 364.668961 128.16 
L 364.668961 17.28 
z
" clip-path="url(#p9e57154730)" style="fill: #21599c"/>
   </g>
   <g id="patch_10">
    <path d="M 380.123114 17.28 
L 386.885468 17.28 
L 395.430304 93.322863 
L 395.430304 17.28 
L 401.175536 17.28 
L 401.175536 128.16 
L 394.408147 128.16 
L 385.86331 52.117137 
L 385.86331 128.16 
L 380.123114 128.16 
L 380.123114 17.28 
z
" clip-path="url(#p9e57154730)" style="fill: #40ba47"/>
   </g>
   <g id="patch_11">
    <path d="M 402.283558 17.28 
L 413.226432 17.28 
Q 418.111252 17.28 420.720875 26.690304 
Q 423.335981 36.076845 423.335981 53.447887 
Q 423.335981 70.913982 420.720875 80.300523 
Q 418.111252 89.687064 413.226432 89.687064 
L 408.878888 89.687064 
L 408.878888 128.16 
L 402.283558 128.16 
L 402.283558 17.28 
z
M 408.878888 38.00168 
L 408.878888 68.965384 
L 412.524685 68.965384 
Q 414.443525 68.965384 415.490664 64.925607 
Q 416.537803 60.885829 416.537803 53.447887 
Q 416.537803 46.033708 415.490664 42.017694 
Q 414.443525 38.00168 412.524685 38.00168 
L 408.878888 38.00168 
z
" clip-path="url(#p9e57154730)" style="fill: #787800"/>
   </g>
   <g id="patch_12">
    <path d="M 424.444003 17.28 
L 445.496426 17.28 
L 445.496426 38.904689 
L 437.92245 38.904689 
L 437.92245 128.16 
L 432.032667 128.16 
L 432.032667 38.904689 
L 424.444003 38.904689 
L 424.444003 17.28 
z
" clip-path="url(#p9e57154730)" style="fill: #40ba47"/>
   </g>
   <g id="patch_13">
    <path d="M 446.823546 17.28 
L 467.437773 17.28 
L 467.437773 38.904689 
L 454.463384 38.904689 
L 454.463384 59.531316 
L 466.669344 59.531316 
L 466.669344 81.156005 
L 454.463384 81.156005 
L 454.463384 128.16 
L 446.823546 128.16 
L 446.823546 17.28 
z
" clip-path="url(#p9e57154730)" style="fill: #21599c"/>
   </g>
   <g id="patch_14">
    <path d="M 474.533928 38.904689 
L 474.533928 106.559074 
L 476.600806 106.559074 
Q 480.135119 106.559074 482.000584 97.861672 
Q 483.870845 89.164269 483.870845 72.601183 
Q 483.870845 56.13315 482.010175 47.530802 
Q 480.154301 38.904689 476.600806 38.904689 
L 474.533928 38.904689 
z
M 468.764893 17.28 
L 474.845638 17.28 
Q 479.943298 17.28 482.436979 20.892036 
Q 484.93066 24.480309 486.714601 33.106421 
Q 488.287538 40.615654 489.050029 50.429936 
Q 489.817315 60.220454 489.817315 72.601183 
Q 489.817315 85.172019 489.050029 95.010064 
Q 488.287538 104.84811 486.714601 112.333579 
Q 484.916273 120.959691 482.398614 124.571727 
Q 479.880956 128.16 474.845638 128.16 
L 468.764893 128.16 
L 468.764893 17.28 
z
" clip-path="url(#p9e57154730)" style="fill: #6b296b"/>
   </g>
   <g id="patch_15">
    <path d="M 490.925338 17.28 
L 496.133563 17.28 
L 501.458005 99.121132 
L 506.773839 17.28 
L 511.97776 17.28 
L 504.539897 128.16 
L 498.3632 128.16 
L 490.925338 17.28 
z
" clip-path="url(#p9e57154730)" style="fill: #21599c"/>
   </g>
   <g id="patch_16">
    <path d="M 518.854818 38.904689 
L 518.854818 106.559074 
L 520.921695 106.559074 
Q 524.456009 106.559074 526.321474 97.861672 
Q 528.191735 89.164269 528.191735 72.601183 
Q 528.191735 56.13315 526.331065 47.530802 
Q 524.475191 38.904689 520.921695 38.904689 
L 518.854818 38.904689 
z
M 513.085782 17.28 
L 519.166528 17.28 
Q 524.264187 17.28 526.757868 20.892036 
Q 529.251549 24.480309 531.03549 33.106421 
Q 532.608428 40.615654 533.370918 50.429936 
Q 534.138205 60.220454 534.138205 72.601183 
Q 534.138205 85.172019 533.370918 95.010064 
Q 532.608428 104.84811 531.03549 112.333579 
Q 529.237163 120.959691 526.719504 124.571727 
Q 524.201845 128.16 519.166528 128.16 
L 513.085782 128.16 
L 513.085782 17.28 
z
" clip-path="url(#p9e57154730)" style="fill: #6b296b"/>
   </g>
   <g id="patch_17">
    <path d="M 535.246227 17.28 
L 540.794105 17.28 
L 540.794105 57.749061 
L 548.790798 17.28 
L 555.233346 17.28 
L 544.870851 69.797102 
L 556.29865 128.16 
L 549.353426 128.16 
L 540.794105 84.48288 
L 540.794105 128.16 
L 535.246227 128.16 
L 535.246227 17.28 
z
" clip-path="url(#p9e57154730)" style="fill: #bd2e1f"/>
   </g>
   <g id="patch_18">
    <path d="M 557.406672 17.28 
L 565.04651 17.28 
L 565.04651 106.559074 
L 578.459095 106.559074 
L 578.459095 128.16 
L 557.406672 128.16 
L 557.406672 17.28 
z
" clip-path="url(#p9e57154730)" style="fill: #21599c"/>
   </g>
   <g id="patch_19">
    <path d="M 579.567117 17.28 
L 584.775342 17.28 
L 590.099785 99.121132 
L 595.415618 17.28 
L 600.619539 17.28 
L 593.181677 128.16 
L 587.004979 128.16 
L 579.567117 17.28 
z
" clip-path="url(#p9e57154730)" style="fill: #21599c"/>
   </g>
   <g id="patch_20">
    <path d="M 621.024663 22.570907 
L 621.024663 45.200413 
Q 618.829081 41.260863 616.736418 39.268184 
Q 614.649472 37.252601 612.791233 37.252601 
Q 610.326922 37.252601 609.143366 39.978219 
Q 607.965528 42.680934 607.965528 48.407023 
Q 607.965528 52.713043 608.760283 55.118 
Q 609.555038 57.500054 611.647701 59.217881 
L 614.575143 61.57703 
Q 619.023482 65.173014 620.898874 72.479504 
Q 622.779984 79.76309 622.779984 93.230853 
Q 622.779984 110.890114 620.161296 119.525057 
Q 617.542608 128.16 612.16229 128.16 
Q 609.629367 128.16 607.073573 126.21313 
Q 604.517779 124.289163 601.961986 120.48704 
L 601.961986 97.239116 
Q 604.517779 102.667449 606.902043 105.438876 
Q 609.286308 108.187399 611.504759 108.187399 
Q 613.757517 108.187399 614.952508 105.186928 
Q 616.147499 102.163553 616.147499 96.574889 
Q 616.147499 91.581739 615.335591 88.856121 
Q 614.523684 86.130502 612.093678 83.977492 
L 609.429249 81.618343 
Q 605.426887 78.18269 603.574366 70.67006 
Q 601.727562 63.15743 601.727562 50.422607 
Q 601.727562 34.458269 604.300508 25.869134 
Q 606.873455 17.28 611.69916 17.28 
Q 613.900459 17.28 616.221829 18.608453 
Q 618.543198 19.936906 621.024663 22.570907 
z
" clip-path="url(#p9e57154730)" style="fill: #40ba47"/>
   </g>
   <g id="patch_21">
    <path d="M 623.888006 17.28 
L 631.527845 17.28 
L 631.527845 106.559074 
L 644.940429 106.559074 
L 644.940429 128.16 
L 623.888006 128.16 
L 623.888006 17.28 
z
" clip-path="url(#p9e57154730)" style="fill: #21599c"/>
   </g>
   <g id="patch_22">
    <path d="M 665.345552 22.570907 
L 665.345552 45.200413 
Q 663.149971 41.260863 661.057308 39.268184 
Q 658.970362 37.252601 657.112122 37.252601 
Q 654.647811 37.252601 653.464256 39.978219 
Q 652.286418 42.680934 652.286418 48.407023 
Q 652.286418 52.713043 653.081172 55.118 
Q 653.875927 57.500054 655.968591 59.217881 
L 658.896032 61.57703 
Q 663.344371 65.173014 665.219764 72.479504 
Q 667.100874 79.76309 667.100874 93.230853 
Q 667.100874 110.890114 664.482186 119.525057 
Q 661.863498 128.16 656.48318 128.16 
Q 653.950257 128.16 651.394463 126.21313 
Q 648.838669 124.289163 646.282875 120.48704 
L 646.282875 97.239116 
Q 648.838669 102.667449 651.222933 105.438876 
Q 653.607197 108.187399 655.825649 108.187399 
Q 658.078407 108.187399 659.273398 105.186928 
Q 660.468389 102.163553 660.468389 96.574889 
Q 660.468389 91.581739 659.656481 88.856121 
Q 658.844573 86.130502 656.414568 83.977492 
L 653.750139 81.618343 
Q 649.747777 78.18269 647.895255 70.67006 
Q 646.048451 63.15743 646.048451 50.422607 
Q 646.048451 34.458269 648.621398 25.869134 
Q 651.194345 17.28 656.020049 17.28 
Q 658.221348 17.28 660.542718 18.608453 
Q 662.864088 19.936906 665.345552 22.570907 
z
" clip-path="url(#p9e57154730)" style="fill: #40ba47"/>
   </g>
   <g id="patch_23">
    <path d="M 679.296505 111.578719 
L 678.884229 111.578719 
Q 673.827261 111.578719 671.015886 99.152512 
Q 668.208896 86.706798 668.208896 64.526897 
Q 668.208896 42.38601 671.0115 29.842759 
Q 673.814103 17.28 678.735107 17.28 
Q 683.708742 17.28 686.48503 29.725714 
Q 689.261319 42.151921 689.261319 64.526897 
Q 689.261319 79.879212 687.787649 90.978916 
Q 686.313979 102.078621 683.546463 107.677241 
L 687.669229 128.16 
L 682.638577 128.16 
L 679.296505 111.578719 
z
M 678.735107 34.290443 
Q 676.32285 34.290443 674.993916 42.210443 
Q 673.664982 50.130443 673.664982 64.526897 
Q 673.664982 79.157438 674.963215 86.940887 
Q 676.265833 94.704828 678.735107 94.704828 
Q 681.160522 94.704828 682.489456 86.784828 
Q 683.81839 78.84532 683.81839 64.526897 
Q 683.81839 50.130443 682.489456 42.210443 
Q 681.160522 34.290443 678.735107 34.290443 
z
" clip-path="url(#p9e57154730)" style="fill: #40ba47"/>
   </g>
   <g id="patch_24">
    <path d="M 690.369341 17.28 
L 695.917219 17.28 
L 695.917219 57.749061 
L 703.913911 17.28 
L 710.35646 17.28 
L 699.993964 69.797102 
L 711.421763 128.16 
L 704.476539 128.16 
L 695.917219 84.48288 
L 695.917219 128.16 
L 690.369341 128.16 
L 690.369341 17.28 
z
" clip-path="url(#p9e57154730)" style="fill: #bd2e1f"/>
   </g>
   <g id="patch_25">
    <path d="M 731.826887 22.570907 
L 731.826887 45.200413 
Q 729.631305 41.260863 727.538642 39.268184 
Q 725.451696 37.252601 723.593457 37.252601 
Q 721.129146 37.252601 719.94559 39.978219 
Q 718.767752 42.680934 718.767752 48.407023 
Q 718.767752 52.713043 719.562507 55.118 
Q 720.357262 57.500054 722.449925 59.217881 
L 725.377367 61.57703 
Q 729.825706 65.173014 731.701098 72.479504 
Q 733.582208 79.76309 733.582208 93.230853 
Q 733.582208 110.890114 730.96352 119.525057 
Q 728.344832 128.16 722.964514 128.16 
Q 720.431591 128.16 717.875797 126.21313 
Q 715.320003 124.289163 712.76421 120.48704 
L 712.76421 97.239116 
Q 715.320003 102.667449 717.704267 105.438876 
Q 720.088532 108.187399 722.306983 108.187399 
Q 724.559741 108.187399 725.754732 105.186928 
Q 726.949723 102.163553 726.949723 96.574889 
Q 726.949723 91.581739 726.137815 88.856121 
Q 725.325908 86.130502 722.895902 83.977492 
L 720.231473 81.618343 
Q 716.229111 78.18269 714.37659 70.67006 
Q 712.529786 63.15743 712.529786 50.422607 
Q 712.529786 34.458269 715.102732 25.869134 
Q 717.675679 17.28 722.501384 17.28 
Q 724.702683 17.28 727.024053 18.608453 
Q 729.345422 19.936906 731.826887 22.570907 
z
" clip-path="url(#p9e57154730)" style="fill: #40ba47"/>
   </g>
   <g id="patch_26">
    <path d="M 734.69023 17.28 
L 740.900492 17.28 
L 745.208329 76.617197 
L 749.54456 17.28 
L 755.742653 17.28 
L 755.742653 128.16 
L 751.13059 128.16 
L 751.13059 47.055534 
L 746.770021 106.844235 
L 743.675031 106.844235 
L 739.314462 47.055534 
L 739.314462 128.16 
L 734.69023 128.16 
L 734.69023 17.28 
z
" clip-path="url(#p9e57154730)" style="fill: #21599c"/>
   </g>
   <g id="patch_27">
    <path d="M 756.850675 17.28 
L 762.398553 17.28 
L 762.398553 57.749061 
L 770.395246 17.28 
L 776.837794 17.28 
L 766.475299 69.797102 
L 777.903098 128.16 
L 770.957874 128.16 
L 762.398553 84.48288 
L 762.398553 128.16 
L 756.850675 128.16 
L 756.850675 17.28 
z
" clip-path="url(#p9e57154730)" style="fill: #bd2e1f"/>
   </g>
   <g id="patch_28">
    <path d="M 779.01112 17.28 
L 785.773474 17.28 
L 794.318311 93.322863 
L 794.318311 17.28 
L 800.063542 17.28 
L 800.063542 128.16 
L 793.296153 128.16 
L 784.751316 52.117137 
L 784.751316 128.16 
L 779.01112 128.16 
L 779.01112 17.28 
z
" clip-path="url(#p9e57154730)" style="fill: #40ba47"/>
   </g>
   <g id="patch_29">
    <path d="M 801.171565 17.28 
L 806.37979 17.28 
L 811.704232 99.121132 
L 817.020066 17.28 
L 822.223987 17.28 
L 814.786125 128.16 
L 808.609427 128.16 
L 801.171565 17.28 
z
" clip-path="url(#p9e57154730)" style="fill: #21599c"/>
   </g>
   <g id="patch_30">
    <path d="M 830.038302 17.28 
L 837.67814 17.28 
L 837.67814 128.16 
L 830.038302 128.16 
L 830.038302 17.28 
z
" clip-path="url(#p9e57154730)" style="fill: #21599c"/>
   </g>
   <g id="patch_31">
    <path d="M 866.544877 118.127891 
Q 864.421706 123.143945 862.138117 125.663425 
Q 859.854528 128.16 857.419959 128.16 
Q 851.918586 128.16 848.70552 113.226358 
Q 845.492454 98.292716 845.492454 72.754357 
Q 845.492454 46.91824 848.762138 32.09912 
Q 852.03654 17.28 857.731357 17.28 
Q 859.925301 17.28 861.935236 19.295584 
Q 863.94989 21.288263 865.733354 25.227812 
L 865.733354 47.330518 
Q 863.893272 42.268655 862.072063 39.77208 
Q 860.250854 37.252601 858.420208 37.252601 
Q 855.032571 37.252601 853.197207 46.460153 
Q 851.361843 55.644801 851.361843 72.754357 
Q 851.361843 89.703582 853.131153 98.956943 
Q 854.900462 108.187399 858.155991 108.187399 
Q 859.043005 108.187399 859.802629 107.660599 
Q 860.562252 107.110894 861.166176 105.965677 
L 861.166176 85.214328 
L 857.69833 85.214328 
L 857.69833 66.73051 
L 866.544877 66.73051 
L 866.544877 118.127891 
z
" clip-path="url(#p9e57154730)" style="fill: #787800"/>
   </g>
   <g id="patch_32">
    <path d="M 888.705322 118.127891 
Q 886.58215 123.143945 884.298562 125.663425 
Q 882.014973 128.16 879.580403 128.16 
Q 874.079031 128.16 870.865965 113.226358 
Q 867.652899 98.292716 867.652899 72.754357 
Q 867.652899 46.91824 870.922583 32.09912 
Q 874.196985 17.28 879.891802 17.28 
Q 882.085746 17.28 884.095681 19.295584 
Q 886.110335 21.288263 887.893798 25.227812 
L 887.893798 47.330518 
Q 886.053717 42.268655 884.232508 39.77208 
Q 882.411298 37.252601 880.580653 37.252601 
Q 877.193015 37.252601 875.357652 46.460153 
Q 873.522288 55.644801 873.522288 72.754357 
Q 873.522288 89.703582 875.291597 98.956943 
Q 877.060907 108.187399 880.316436 108.187399 
Q 881.20345 108.187399 881.963073 107.660599 
Q 882.722697 107.110894 883.326621 105.965677 
L 883.326621 85.214328 
L 879.858775 85.214328 
L 879.858775 66.73051 
L 888.705322 66.73051 
L 888.705322 118.127891 
z
" clip-path="url(#p9e57154730)" style="fill: #787800"/>
   </g>
   <g id="patch_33">
    <path d="M 904.396376 107.961114 
L 896.299952 107.961114 
L 895.02157 128.16 
L 889.813344 128.16 
L 897.251207 17.28 
L 903.427904 17.28 
L 910.865766 128.16 
L 905.661845 128.16 
L 904.396376 107.961114 
z
M 897.591248 87.382015 
L 903.092167 87.382015 
L 900.346012 43.277154 
L 897.591248 87.382015 
z
" clip-path="url(#p9e57154730)" style="fill: #21599c"/>
   </g>
   <g id="patch_34">
    <path d="M 917.742824 38.904689 
L 917.742824 106.559074 
L 919.809702 106.559074 
Q 923.344015 106.559074 925.20948 97.861672 
Q 927.079741 89.164269 927.079741 72.601183 
Q 927.079741 56.13315 925.219071 47.530802 
Q 923.363197 38.904689 919.809702 38.904689 
L 917.742824 38.904689 
z
M 911.973789 17.28 
L 918.054534 17.28 
Q 923.152194 17.28 925.645875 20.892036 
Q 928.139556 24.480309 929.923497 33.106421 
Q 931.496434 40.615654 932.258925 50.429936 
Q 933.026211 60.220454 933.026211 72.601183 
Q 933.026211 85.172019 932.258925 95.010064 
Q 931.496434 104.84811 929.923497 112.333579 
Q 928.125169 120.959691 925.60751 124.571727 
Q 923.089851 128.16 918.054534 128.16 
L 911.973789 128.16 
L 911.973789 17.28 
z
" clip-path="url(#p9e57154730)" style="fill: #6b296b"/>
   </g>
   <g id="patch_35">
    <path d="M 948.717265 107.961114 
L 940.620842 107.961114 
L 939.342459 128.16 
L 934.134234 128.16 
L 941.572096 17.28 
L 947.748793 17.28 
L 955.186656 128.16 
L 949.982735 128.16 
L 948.717265 107.961114 
z
M 941.912137 87.382015 
L 947.413057 87.382015 
L 944.666901 43.277154 
L 941.912137 87.382015 
z
" clip-path="url(#p9e57154730)" style="fill: #21599c"/>
   </g>
   <g id="patch_36">
    <path d="M 956.294678 17.28 
L 977.347101 17.28 
L 977.347101 38.904689 
L 969.773125 38.904689 
L 969.773125 128.16 
L 963.883342 128.16 
L 963.883342 38.904689 
L 956.294678 38.904689 
L 956.294678 17.28 
z
" clip-path="url(#p9e57154730)" style="fill: #40ba47"/>
   </g>
   <g id="patch_37">
    <path d="M 978.674221 17.28 
L 999.288448 17.28 
L 999.288448 38.904689 
L 986.314059 38.904689 
L 986.314059 59.531316 
L 998.520019 59.531316 
L 998.520019 81.156005 
L 986.314059 81.156005 
L 986.314059 128.16 
L 978.674221 128.16 
L 978.674221 17.28 
z
" clip-path="url(#p9e57154730)" style="fill: #21599c"/>
   </g>
   <g id="patch_38">
    <path d="M 1000.615568 17.28 
L 1011.558442 17.28 
Q 1016.443262 17.28 1019.052885 26.690304 
Q 1021.66799 36.076845 1021.66799 53.447887 
Q 1021.66799 70.913982 1019.052885 80.300523 
Q 1016.443262 89.687064 1011.558442 89.687064 
L 1007.210897 89.687064 
L 1007.210897 128.16 
L 1000.615568 128.16 
L 1000.615568 17.28 
z
M 1007.210897 38.00168 
L 1007.210897 68.965384 
L 1010.856694 68.965384 
Q 1012.775535 68.965384 1013.822674 64.925607 
Q 1014.869812 60.885829 1014.869812 53.447887 
Q 1014.869812 46.033708 1013.822674 42.017694 
Q 1012.775535 38.00168 1010.856694 38.00168 
L 1007.210897 38.00168 
z
" clip-path="url(#p9e57154730)" style="fill: #787800"/>
   </g>
   <g id="patch_39">
    <path d="M 1043.828435 118.127891 
Q 1041.705264 123.143945 1039.421675 125.663425 
Q 1037.138087 128.16 1034.703517 128.16 
Q 1029.202144 128.16 1025.989079 113.226358 
Q 1022.776013 98.292716 1022.776013 72.754357 
Q 1022.776013 46.91824 1026.045696 32.09912 
Q 1029.320098 17.28 1035.014915 17.28 
Q 1037.208859 17.28 1039.218795 19.295584 
Q 1041.233448 21.288263 1043.016912 25.227812 
L 1043.016912 47.330518 
Q 1041.17683 42.268655 1039.355621 39.77208 
Q 1037.534412 37.252601 1035.703767 37.252601 
Q 1032.316129 37.252601 1030.480765 46.460153 
Q 1028.645402 55.644801 1028.645402 72.754357 
Q 1028.645402 89.703582 1030.414711 98.956943 
Q 1032.18402 108.187399 1035.43955 108.187399 
Q 1036.326563 108.187399 1037.086187 107.660599 
Q 1037.84581 107.110894 1038.449735 105.965677 
L 1038.449735 85.214328 
L 1034.981888 85.214328 
L 1034.981888 66.73051 
L 1043.828435 66.73051 
L 1043.828435 118.127891 
z
" clip-path="url(#p9e57154730)" style="fill: #787800"/>
   </g>
   <g id="patch_40">
    <path d="M 1065.98888 118.127891 
Q 1063.865709 123.143945 1061.58212 125.663425 
Q 1059.298532 128.16 1056.863962 128.16 
Q 1051.362589 128.16 1048.149523 113.226358 
Q 1044.936458 98.292716 1044.936458 72.754357 
Q 1044.936458 46.91824 1048.206141 32.09912 
Q 1051.480543 17.28 1057.17536 17.28 
Q 1059.369304 17.28 1061.379239 19.295584 
Q 1063.393893 21.288263 1065.177357 25.227812 
L 1065.177357 47.330518 
Q 1063.337275 42.268655 1061.516066 39.77208 
Q 1059.694857 37.252601 1057.864211 37.252601 
Q 1054.476574 37.252601 1052.64121 46.460153 
Q 1050.805846 55.644801 1050.805846 72.754357 
Q 1050.805846 89.703582 1052.575156 98.956943 
Q 1054.344465 108.187399 1057.599995 108.187399 
Q 1058.487008 108.187399 1059.246632 107.660599 
Q 1060.006255 107.110894 1060.61018 105.965677 
L 1060.61018 85.214328 
L 1057.142333 85.214328 
L 1057.142333 66.73051 
L 1065.98888 66.73051 
L 1065.98888 118.127891 
z
" clip-path="url(#p9e57154730)" style="fill: #787800"/>
   </g>
   <g id="patch_41">
    <path d="M 1067.096902 17.28 
L 1088.149325 17.28 
L 1088.149325 38.904689 
L 1080.575349 38.904689 
L 1080.575349 128.16 
L 1074.685566 128.16 
L 1074.685566 38.904689 
L 1067.096902 38.904689 
L 1067.096902 17.28 
z
" clip-path="url(#p9e57154730)" style="fill: #40ba47"/>
   </g>
   <g id="patch_42">
    <path d="M 1089.257347 17.28 
L 1096.897186 17.28 
L 1096.897186 106.559074 
L 1110.30977 106.559074 
L 1110.30977 128.16 
L 1089.257347 128.16 
L 1089.257347 17.28 
z
" clip-path="url(#p9e57154730)" style="fill: #21599c"/>
   </g>
   <g id="patch_43">
    <path d="M 1111.417792 17.28 
L 1122.360666 17.28 
Q 1127.245486 17.28 1129.855109 26.690304 
Q 1132.470214 36.076845 1132.470214 53.447887 
Q 1132.470214 70.913982 1129.855109 80.300523 
Q 1127.245486 89.687064 1122.360666 89.687064 
L 1118.013121 89.687064 
L 1118.013121 128.16 
L 1111.417792 128.16 
L 1111.417792 17.28 
z
M 1118.013121 38.00168 
L 1118.013121 68.965384 
L 1121.658918 68.965384 
Q 1123.577759 68.965384 1124.624898 64.925607 
Q 1125.672036 60.885829 1125.672036 53.447887 
Q 1125.672036 46.033708 1124.624898 42.017694 
Q 1123.577759 38.00168 1121.658918 38.00168 
L 1118.013121 38.00168 
z
" clip-path="url(#p9e57154730)" style="fill: #787800"/>
   </g>
   <g id="patch_44">
    <path d="M 1133.578237 17.28 
L 1144.521111 17.28 
Q 1149.40593 17.28 1152.015554 26.690304 
Q 1154.630659 36.076845 1154.630659 53.447887 
Q 1154.630659 70.913982 1152.015554 80.300523 
Q 1149.40593 89.687064 1144.521111 89.687064 
L 1140.173566 89.687064 
L 1140.173566 128.16 
L 1133.578237 128.16 
L 1133.578237 17.28 
z
M 1140.173566 38.00168 
L 1140.173566 68.965384 
L 1143.819363 68.965384 
Q 1145.738204 68.965384 1146.785342 64.925607 
Q 1147.832481 60.885829 1147.832481 53.447887 
Q 1147.832481 46.033708 1146.785342 42.017694 
Q 1145.738204 38.00168 1143.819363 38.00168 
L 1140.173566 38.00168 
z
" clip-path="url(#p9e57154730)" style="fill: #787800"/>
   </g>
   <g id="patch_45">
    <path d="M 1155.738681 17.28 
L 1176.352909 17.28 
L 1176.352909 38.904689 
L 1163.37852 38.904689 
L 1163.37852 59.531316 
L 1175.58448 59.531316 
L 1175.58448 81.156005 
L 1163.37852 81.156005 
L 1163.37852 106.559074 
L 1176.791104 106.559074 
L 1176.791104 128.16 
L 1155.738681 128.16 
L 1155.738681 17.28 
z
" clip-path="url(#p9e57154730)" style="fill: #6b296b"/>
   </g>
   <g id="patch_46">
    <path d="M 1177.899126 17.28 
L 1198.951549 17.28 
L 1198.951549 38.904689 
L 1191.377573 38.904689 
L 1191.377573 128.16 
L 1185.48779 128.16 
L 1185.48779 38.904689 
L 1177.899126 38.904689 
L 1177.899126 17.28 
z
" clip-path="url(#p9e57154730)" style="fill: #40ba47"/>
   </g>
   <g id="patch_47">
    <path d="M 1200.059571 17.28 
L 1206.821925 17.28 
L 1215.366762 93.322863 
L 1215.366762 17.28 
L 1221.111994 17.28 
L 1221.111994 128.16 
L 1214.344604 128.16 
L 1205.799768 52.117137 
L 1205.799768 128.16 
L 1200.059571 128.16 
L 1200.059571 17.28 
z
" clip-path="url(#p9e57154730)" style="fill: #40ba47"/>
   </g>
   <g id="patch_48">
    <path d="M 1222.220016 17.28 
L 1228.040392 17.28 
L 1232.741804 56.798526 
L 1237.438794 17.28 
L 1243.272438 17.28 
L 1235.408739 81.441166 
L 1235.408739 128.16 
L 1230.088138 128.16 
L 1230.088138 81.441166 
L 1222.220016 17.28 
z
" clip-path="url(#p9e57154730)" style="fill: #177875"/>
   </g>
   <g id="patch_49">
    <path d="M 1263.677562 22.570907 
L 1263.677562 45.200413 
Q 1261.48198 41.260863 1259.389317 39.268184 
Q 1257.302371 37.252601 1255.444132 37.252601 
Q 1252.979821 37.252601 1251.796265 39.978219 
Q 1250.618427 42.680934 1250.618427 48.407023 
Q 1250.618427 52.713043 1251.413182 55.118 
Q 1252.207937 57.500054 1254.3006 59.217881 
L 1257.228042 61.57703 
Q 1261.676381 65.173014 1263.551773 72.479504 
Q 1265.432883 79.76309 1265.432883 93.230853 
Q 1265.432883 110.890114 1262.814195 119.525057 
Q 1260.195507 128.16 1254.815189 128.16 
Q 1252.282266 128.16 1249.726472 126.21313 
Q 1247.170679 124.289163 1244.614885 120.48704 
L 1244.614885 97.239116 
Q 1247.170679 102.667449 1249.554943 105.438876 
Q 1251.939207 108.187399 1254.157659 108.187399 
Q 1256.410416 108.187399 1257.605407 105.186928 
Q 1258.800398 102.163553 1258.800398 96.574889 
Q 1258.800398 91.581739 1257.98849 88.856121 
Q 1257.176583 86.130502 1254.746577 83.977492 
L 1252.082148 81.618343 
Q 1248.079786 78.18269 1246.227265 70.67006 
Q 1244.380461 63.15743 1244.380461 50.422607 
Q 1244.380461 34.458269 1246.953407 25.869134 
Q 1249.526354 17.28 1254.352059 17.28 
Q 1256.553358 17.28 1258.874728 18.608453 
Q 1261.196097 19.936906 1263.677562 22.570907 
z
" clip-path="url(#p9e57154730)" style="fill: #40ba47"/>
   </g>
   <g id="patch_50">
    <path d="M 1266.540905 17.28 
L 1271.749131 17.28 
L 1277.073573 99.121132 
L 1282.389407 17.28 
L 1287.593328 17.28 
L 1280.155465 128.16 
L 1273.978768 128.16 
L 1266.540905 17.28 
z
" clip-path="url(#p9e57154730)" style="fill: #21599c"/>
   </g>
   <g id="patch_51">
    <path d="M 1309.753773 118.127891 
Q 1307.630602 123.143945 1305.347013 125.663425 
Q 1303.063424 128.16 1300.628855 128.16 
Q 1295.127482 128.16 1291.914416 113.226358 
Q 1288.70135 98.292716 1288.70135 72.754357 
Q 1288.70135 46.91824 1291.971034 32.09912 
Q 1295.245436 17.28 1300.940253 17.28 
Q 1303.134197 17.28 1305.144132 19.295584 
Q 1307.158786 21.288263 1308.94225 25.227812 
L 1308.94225 47.330518 
Q 1307.102168 42.268655 1305.280959 39.77208 
Q 1303.45975 37.252601 1301.629104 37.252601 
Q 1298.241466 37.252601 1296.406103 46.460153 
Q 1294.570739 55.644801 1294.570739 72.754357 
Q 1294.570739 89.703582 1296.340049 98.956943 
Q 1298.109358 108.187399 1301.364887 108.187399 
Q 1302.251901 108.187399 1303.011525 107.660599 
Q 1303.771148 107.110894 1304.375072 105.965677 
L 1304.375072 85.214328 
L 1300.907226 85.214328 
L 1300.907226 66.73051 
L 1309.753773 66.73051 
L 1309.753773 118.127891 
z
" clip-path="url(#p9e57154730)" style="fill: #787800"/>
   </g>
   <g id="patch_52">
    <path d="M 1331.914218 120.212188 
Q 1330.153219 124.151737 1328.249006 126.144416 
Q 1326.344794 128.16 1324.270846 128.16 
Q 1318.086134 128.16 1314.473964 113.226358 
Q 1310.861795 98.292716 1310.861795 72.754357 
Q 1310.861795 47.124379 1314.473964 32.213642 
Q 1318.086134 17.28 1324.270846 17.28 
Q 1326.344794 17.28 1328.249006 19.295584 
Q 1330.153219 21.288263 1331.914218 25.227812 
L 1331.914218 47.330518 
Q 1330.137306 42.108325 1328.413437 39.680463 
Q 1326.689568 37.252601 1324.785355 37.252601 
Q 1321.369442 37.252601 1319.412187 46.712101 
Q 1317.460236 56.148697 1317.460236 72.754357 
Q 1317.460236 89.291303 1319.412187 98.750804 
Q 1321.369442 108.187399 1324.785355 108.187399 
Q 1326.689568 108.187399 1328.413437 105.759537 
Q 1330.137306 103.308771 1331.914218 98.086577 
L 1331.914218 120.212188 
z
" clip-path="url(#p9e57154730)" style="fill: #6b296b"/>
   </g>
   <g id="patch_53">
    <path d="M 1338.791275 38.904689 
L 1338.791275 106.559074 
L 1340.858153 106.559074 
Q 1344.392466 106.559074 1346.257932 97.861672 
Q 1348.128192 89.164269 1348.128192 72.601183 
Q 1348.128192 56.13315 1346.267523 47.530802 
Q 1344.411648 38.904689 1340.858153 38.904689 
L 1338.791275 38.904689 
z
M 1333.02224 17.28 
L 1339.102985 17.28 
Q 1344.200645 17.28 1346.694326 20.892036 
Q 1349.188007 24.480309 1350.971948 33.106421 
Q 1352.544885 40.615654 1353.307376 50.429936 
Q 1354.074662 60.220454 1354.074662 72.601183 
Q 1354.074662 85.172019 1353.307376 95.010064 
Q 1352.544885 104.84811 1350.971948 112.333579 
Q 1349.17362 120.959691 1346.655961 124.571727 
Q 1344.138303 128.16 1339.102985 128.16 
L 1333.02224 128.16 
L 1333.02224 17.28 
z
" clip-path="url(#p9e57154730)" style="fill: #6b296b"/>
   </g>
   <g id="patch_54">
    <path d="M 1363.72461 66.446464 
Q 1365.61393 66.446464 1366.433635 63.119589 
Q 1367.25334 59.76895 1367.25334 52.117137 
Q 1367.25334 44.536614 1366.433635 41.281029 
Q 1365.61393 38.00168 1363.72461 38.00168 
L 1361.19552 38.00168 
L 1361.19552 66.446464 
L 1363.72461 66.446464 
z
M 1361.19552 86.193845 
L 1361.19552 128.16 
L 1355.182685 128.16 
L 1355.182685 17.28 
L 1364.36438 17.28 
Q 1368.972721 17.28 1371.116949 24.646652 
Q 1373.266176 31.989541 1373.266176 47.887252 
Q 1373.266176 58.865941 1372.146579 65.923669 
Q 1371.03198 72.981397 1368.78279 76.332036 
Q 1370.017345 77.662786 1370.991994 82.391702 
Q 1371.971642 87.096854 1372.971282 96.673502 
L 1376.235107 128.16 
L 1369.832412 128.16 
L 1366.988435 100.618225 
Q 1366.128745 92.301037 1365.244063 89.259323 
Q 1364.36438 86.193845 1362.894909 86.193845 
L 1361.19552 86.193845 
z
" clip-path="url(#p9e57154730)" style="fill: #bd2e1f"/>
   </g>
   <g id="patch_55">
    <path d="M 1377.343129 17.28 
L 1384.982968 17.28 
L 1384.982968 106.559074 
L 1398.395552 106.559074 
L 1398.395552 128.16 
L 1377.343129 128.16 
L 1377.343129 17.28 
z
" clip-path="url(#p9e57154730)" style="fill: #21599c"/>
   </g>
   <g id="patch_56">
    <path d="M 1399.503574 17.28 
L 1420.555997 17.28 
L 1420.555997 38.904689 
L 1412.982021 38.904689 
L 1412.982021 128.16 
L 1407.092238 128.16 
L 1407.092238 38.904689 
L 1399.503574 38.904689 
L 1399.503574 17.28 
z
" clip-path="url(#p9e57154730)" style="fill: #40ba47"/>
   </g>
   <g id="patch_57">
    <path d="M 1442.716442 118.127891 
Q 1440.59327 123.143945 1438.309682 125.663425 
Q 1436.026093 128.16 1433.591523 128.16 
Q 1428.090151 128.16 1424.877085 113.226358 
Q 1421.664019 98.292716 1421.664019 72.754357 
Q 1421.664019 46.91824 1424.933703 32.09912 
Q 1428.208105 17.28 1433.902922 17.28 
Q 1436.096865 17.28 1438.106801 19.295584 
Q 1440.121455 21.288263 1441.904918 25.227812 
L 1441.904918 47.330518 
Q 1440.064837 42.268655 1438.243628 39.77208 
Q 1436.422418 37.252601 1434.591773 37.252601 
Q 1431.204135 37.252601 1429.368772 46.460153 
Q 1427.533408 55.644801 1427.533408 72.754357 
Q 1427.533408 89.703582 1429.302717 98.956943 
Q 1431.072027 108.187399 1434.327556 108.187399 
Q 1435.21457 108.187399 1435.974193 107.660599 
Q 1436.733817 107.110894 1437.337741 105.965677 
L 1437.337741 85.214328 
L 1433.869895 85.214328 
L 1433.869895 66.73051 
L 1442.716442 66.73051 
L 1442.716442 118.127891 
z
" clip-path="url(#p9e57154730)" style="fill: #787800"/>
   </g>
   <g id="patch_58">
    <path d="M 1443.824464 17.28 
L 1464.876886 17.28 
L 1464.876886 38.904689 
L 1457.30291 38.904689 
L 1457.30291 128.16 
L 1451.413128 128.16 
L 1451.413128 38.904689 
L 1443.824464 38.904689 
L 1443.824464 17.28 
z
" clip-path="url(#p9e57154730)" style="fill: #40ba47"/>
   </g>
   <g id="patch_59">
    <path d="M 1487.037331 120.212188 
Q 1485.276332 124.151737 1483.37212 126.144416 
Q 1481.467907 128.16 1479.39396 128.16 
Q 1473.209247 128.16 1469.597078 113.226358 
Q 1465.984909 98.292716 1465.984909 72.754357 
Q 1465.984909 47.124379 1469.597078 32.213642 
Q 1473.209247 17.28 1479.39396 17.28 
Q 1481.467907 17.28 1483.37212 19.295584 
Q 1485.276332 21.288263 1487.037331 25.227812 
L 1487.037331 47.330518 
Q 1485.26042 42.108325 1483.53655 39.680463 
Q 1481.812681 37.252601 1479.908469 37.252601 
Q 1476.492555 37.252601 1474.5353 46.712101 
Q 1472.58335 56.148697 1472.58335 72.754357 
Q 1472.58335 89.291303 1474.5353 98.750804 
Q 1476.492555 108.187399 1479.908469 108.187399 
Q 1481.812681 108.187399 1483.53655 105.759537 
Q 1485.26042 103.308771 1487.037331 98.086577 
L 1487.037331 120.212188 
z
" clip-path="url(#p9e57154730)" style="fill: #6b296b"/>
   </g>
   <g id="patch_60">
    <path d="M 1509.197776 118.127891 
Q 1507.074605 123.143945 1504.791016 125.663425 
Q 1502.507427 128.16 1500.072858 128.16 
Q 1494.571485 128.16 1491.358419 113.226358 
Q 1488.145353 98.292716 1488.145353 72.754357 
Q 1488.145353 46.91824 1491.415037 32.09912 
Q 1494.689439 17.28 1500.384256 17.28 
Q 1502.5782 17.28 1504.588135 19.295584 
Q 1506.602789 21.288263 1508.386253 25.227812 
L 1508.386253 47.330518 
Q 1506.546171 42.268655 1504.724962 39.77208 
Q 1502.903753 37.252601 1501.073107 37.252601 
Q 1497.68547 37.252601 1495.850106 46.460153 
Q 1494.014742 55.644801 1494.014742 72.754357 
Q 1494.014742 89.703582 1495.784052 98.956943 
Q 1497.553361 108.187399 1500.80889 108.187399 
Q 1501.695904 108.187399 1502.455528 107.660599 
Q 1503.215151 107.110894 1503.819075 105.965677 
L 1503.819075 85.214328 
L 1500.351229 85.214328 
L 1500.351229 66.73051 
L 1509.197776 66.73051 
L 1509.197776 118.127891 
z
" clip-path="url(#p9e57154730)" style="fill: #787800"/>
   </g>
   <g id="patch_61">
    <path d="M 1518.847724 66.446464 
Q 1520.737044 66.446464 1521.556749 63.119589 
Q 1522.376454 59.76895 1522.376454 52.117137 
Q 1522.376454 44.536614 1521.556749 41.281029 
Q 1520.737044 38.00168 1518.847724 38.00168 
L 1516.318634 38.00168 
L 1516.318634 66.446464 
L 1518.847724 66.446464 
z
M 1516.318634 86.193845 
L 1516.318634 128.16 
L 1510.305798 128.16 
L 1510.305798 17.28 
L 1519.487493 17.28 
Q 1524.095835 17.28 1526.240063 24.646652 
Q 1528.389289 31.989541 1528.389289 47.887252 
Q 1528.389289 58.865941 1527.269692 65.923669 
Q 1526.155094 72.981397 1523.905903 76.332036 
Q 1525.140459 77.662786 1526.115108 82.391702 
Q 1527.094755 87.096854 1528.094396 96.673502 
L 1531.358221 128.16 
L 1524.955525 128.16 
L 1522.111549 100.618225 
Q 1521.251858 92.301037 1520.367177 89.259323 
Q 1519.487493 86.193845 1518.018022 86.193845 
L 1516.318634 86.193845 
z
" clip-path="url(#p9e57154730)" style="fill: #bd2e1f"/>
   </g>
   <g id="patch_62">
    <path d="M 1539.172535 17.28 
L 1546.812374 17.28 
L 1546.812374 128.16 
L 1539.172535 128.16 
L 1539.172535 17.28 
z
" clip-path="url(#p9e57154730)" style="fill: #21599c"/>
   </g>
   <g id="patch_63">
    <path d="M 1573.923789 22.570907 
L 1573.923789 45.200413 
Q 1571.728208 41.260863 1569.635544 39.268184 
Q 1567.548598 37.252601 1565.690359 37.252601 
Q 1563.226048 37.252601 1562.042492 39.978219 
Q 1560.864654 42.680934 1560.864654 48.407023 
Q 1560.864654 52.713043 1561.659409 55.118 
Q 1562.454164 57.500054 1564.546827 59.217881 
L 1567.474269 61.57703 
Q 1571.922608 65.173014 1573.798 72.479504 
Q 1575.67911 79.76309 1575.67911 93.230853 
Q 1575.67911 110.890114 1573.060422 119.525057 
Q 1570.441734 128.16 1565.061417 128.16 
Q 1562.528493 128.16 1559.9727 126.21313 
Q 1557.416906 124.289163 1554.861112 120.48704 
L 1554.861112 97.239116 
Q 1557.416906 102.667449 1559.80117 105.438876 
Q 1562.185434 108.187399 1564.403886 108.187399 
Q 1566.656644 108.187399 1567.851634 105.186928 
Q 1569.046625 102.163553 1569.046625 96.574889 
Q 1569.046625 91.581739 1568.234718 88.856121 
Q 1567.42281 86.130502 1564.992805 83.977492 
L 1562.328375 81.618343 
Q 1558.326014 78.18269 1556.473492 70.67006 
Q 1554.626688 63.15743 1554.626688 50.422607 
Q 1554.626688 34.458269 1557.199635 25.869134 
Q 1559.772581 17.28 1564.598286 17.28 
Q 1566.799585 17.28 1569.120955 18.608453 
Q 1571.442325 19.936906 1573.923789 22.570907 
z
" clip-path="url(#p9e57154730)" style="fill: #40ba47"/>
   </g>
   <g id="patch_64">
    <path d="M 1597.839555 118.127891 
Q 1595.716384 123.143945 1593.432795 125.663425 
Q 1591.149207 128.16 1588.714637 128.16 
Q 1583.213264 128.16 1580.000198 113.226358 
Q 1576.787133 98.292716 1576.787133 72.754357 
Q 1576.787133 46.91824 1580.056816 32.09912 
Q 1583.331218 17.28 1589.026035 17.28 
Q 1591.219979 17.28 1593.229914 19.295584 
Q 1595.244568 21.288263 1597.028032 25.227812 
L 1597.028032 47.330518 
Q 1595.18795 42.268655 1593.366741 39.77208 
Q 1591.545532 37.252601 1589.714887 37.252601 
Q 1586.327249 37.252601 1584.491885 46.460153 
Q 1582.656522 55.644801 1582.656522 72.754357 
Q 1582.656522 89.703582 1584.425831 98.956943 
Q 1586.19514 108.187399 1589.45067 108.187399 
Q 1590.337683 108.187399 1591.097307 107.660599 
Q 1591.85693 107.110894 1592.460855 105.965677 
L 1592.460855 85.214328 
L 1588.993008 85.214328 
L 1588.993008 66.73051 
L 1597.839555 66.73051 
L 1597.839555 118.127891 
z
" clip-path="url(#p9e57154730)" style="fill: #787800"/>
   </g>
   <g id="patch_65">
    <path d="M 1618.244679 22.570907 
L 1618.244679 45.200413 
Q 1616.049097 41.260863 1613.956434 39.268184 
Q 1611.869488 37.252601 1610.011249 37.252601 
Q 1607.546937 37.252601 1606.363382 39.978219 
Q 1605.185544 42.680934 1605.185544 48.407023 
Q 1605.185544 52.713043 1605.980299 55.118 
Q 1606.775053 57.500054 1608.867717 59.217881 
L 1611.795159 61.57703 
Q 1616.243498 65.173014 1618.11889 72.479504 
Q 1620 79.76309 1620 93.230853 
Q 1620 110.890114 1617.381312 119.525057 
Q 1614.762624 128.16 1609.382306 128.16 
Q 1606.849383 128.16 1604.293589 126.21313 
Q 1601.737795 124.289163 1599.182001 120.48704 
L 1599.182001 97.239116 
Q 1601.737795 102.667449 1604.122059 105.438876 
Q 1606.506323 108.187399 1608.724775 108.187399 
Q 1610.977533 108.187399 1612.172524 105.186928 
Q 1613.367515 102.163553 1613.367515 96.574889 
Q 1613.367515 91.581739 1612.555607 88.856121 
Q 1611.7437 86.130502 1609.313694 83.977492 
L 1606.649265 81.618343 
Q 1602.646903 78.18269 1600.794381 70.67006 
Q 1598.947577 63.15743 1598.947577 50.422607 
Q 1598.947577 34.458269 1601.520524 25.869134 
Q 1604.093471 17.28 1608.919176 17.28 
Q 1611.120475 17.28 1613.441844 18.608453 
Q 1615.763214 19.936906 1618.244679 22.570907 
z
" clip-path="url(#p9e57154730)" style="fill: #40ba47"/>
   </g>
   <g id="matplotlib.axis_1">
    <g id="xtick_1">
     <g id="line2d_2">
      <defs>
       <path id="mbb67e0fc55" d="M 0 0 
L 0 3.5 
" style="stroke: #000000; stroke-width: 0.8"/>
      </defs>
      <g>
       <use xlink:href="#mbb67e0fc55" x="235.526211" y="128.16" style="stroke: #000000; stroke-width: 0.8"/>
      </g>
     </g>
     <g id="text_1">
      <!-- 0 -->
      <g transform="translate(232.344961 142.758438) scale(0.1 -0.1)">
       <defs>
        <path id="DejaVuSans-30" d="M 2034 4250 
Q 1547 4250 1301 3770 
Q 1056 3291 1056 2328 
Q 1056 1369 1301 889 
Q 1547 409 2034 409 
Q 2525 409 2770 889 
Q 3016 1369 3016 2328 
Q 3016 3291 2770 3770 
Q 2525 4250 2034 4250 
z
M 2034 4750 
Q 2819 4750 3233 4129 
Q 3647 3509 3647 2328 
Q 3647 1150 3233 529 
Q 2819 -91 2034 -91 
Q 1250 -91 836 529 
Q 422 1150 422 2328 
Q 422 3509 836 4129 
Q 1250 4750 2034 4750 
z
" transform="scale(0.015625)"/>
       </defs>
       <use xlink:href="#DejaVuSans-30"/>
      </g>
     </g>
    </g>
    <g id="xtick_2">
     <g id="line2d_3">
      <g>
       <use xlink:href="#mbb67e0fc55" x="457.130659" y="128.16" style="stroke: #000000; stroke-width: 0.8"/>
      </g>
     </g>
     <g id="text_2">
      <!-- 10 -->
      <g transform="translate(450.768159 142.758438) scale(0.1 -0.1)">
       <defs>
        <path id="DejaVuSans-31" d="M 794 531 
L 1825 531 
L 1825 4091 
L 703 3866 
L 703 4441 
L 1819 4666 
L 2450 4666 
L 2450 531 
L 3481 531 
L 3481 0 
L 794 0 
L 794 531 
z
" transform="scale(0.015625)"/>
       </defs>
       <use xlink:href="#DejaVuSans-31"/>
       <use xlink:href="#DejaVuSans-30" x="63.623047"/>
      </g>
     </g>
    </g>
    <g id="xtick_3">
     <g id="line2d_4">
      <g>
       <use xlink:href="#mbb67e0fc55" x="678.735107" y="128.16" style="stroke: #000000; stroke-width: 0.8"/>
      </g>
     </g>
     <g id="text_3">
      <!-- 20 -->
      <g transform="translate(672.372607 142.758438) scale(0.1 -0.1)">
       <defs>
        <path id="DejaVuSans-32" d="M 1228 531 
L 3431 531 
L 3431 0 
L 469 0 
L 469 531 
Q 828 903 1448 1529 
Q 2069 2156 2228 2338 
Q 2531 2678 2651 2914 
Q 2772 3150 2772 3378 
Q 2772 3750 2511 3984 
Q 2250 4219 1831 4219 
Q 1534 4219 1204 4116 
Q 875 4013 500 3803 
L 500 4441 
Q 881 4594 1212 4672 
Q 1544 4750 1819 4750 
Q 2544 4750 2975 4387 
Q 3406 4025 3406 3419 
Q 3406 3131 3298 2873 
Q 3191 2616 2906 2266 
Q 2828 2175 2409 1742 
Q 1991 1309 1228 531 
z
" transform="scale(0.015625)"/>
       </defs>
       <use xlink:href="#DejaVuSans-32"/>
       <use xlink:href="#DejaVuSans-30" x="63.623047"/>
      </g>
     </g>
    </g>
    <g id="xtick_4">
     <g id="line2d_5">
      <g>
       <use xlink:href="#mbb67e0fc55" x="900.339555" y="128.16" style="stroke: #000000; stroke-width: 0.8"/>
      </g>
     </g>
     <g id="text_4">
      <!-- 30 -->
      <g transform="translate(893.977055 142.758438) scale(0.1 -0.1)">
       <defs>
        <path id="DejaVuSans-33" d="M 2597 2516 
Q 3050 2419 3304 2112 
Q 3559 1806 3559 1356 
Q 3559 666 3084 287 
Q 2609 -91 1734 -91 
Q 1441 -91 1130 -33 
Q 819 25 488 141 
L 488 750 
Q 750 597 1062 519 
Q 1375 441 1716 441 
Q 2309 441 2620 675 
Q 2931 909 2931 1356 
Q 2931 1769 2642 2001 
Q 2353 2234 1838 2234 
L 1294 2234 
L 1294 2753 
L 1863 2753 
Q 2328 2753 2575 2939 
Q 2822 3125 2822 3475 
Q 2822 3834 2567 4026 
Q 2313 4219 1838 4219 
Q 1578 4219 1281 4162 
Q 984 4106 628 3988 
L 628 4550 
Q 988 4650 1302 4700 
Q 1616 4750 1894 4750 
Q 2613 4750 3031 4423 
Q 3450 4097 3450 3541 
Q 3450 3153 3228 2886 
Q 3006 2619 2597 2516 
z
" transform="scale(0.015625)"/>
       </defs>
       <use xlink:href="#DejaVuSans-33"/>
       <use xlink:href="#DejaVuSans-30" x="63.623047"/>
      </g>
     </g>
    </g>
    <g id="xtick_5">
     <g id="line2d_6">
      <g>
       <use xlink:href="#mbb67e0fc55" x="1121.944003" y="128.16" style="stroke: #000000; stroke-width: 0.8"/>
      </g>
     </g>
     <g id="text_5">
      <!-- 40 -->
      <g transform="translate(1115.581503 142.758438) scale(0.1 -0.1)">
       <defs>
        <path id="DejaVuSans-34" d="M 2419 4116 
L 825 1625 
L 2419 1625 
L 2419 4116 
z
M 2253 4666 
L 3047 4666 
L 3047 1625 
L 3713 1625 
L 3713 1100 
L 3047 1100 
L 3047 0 
L 2419 0 
L 2419 1100 
L 313 1100 
L 313 1709 
L 2253 4666 
z
" transform="scale(0.015625)"/>
       </defs>
       <use xlink:href="#DejaVuSans-34"/>
       <use xlink:href="#DejaVuSans-30" x="63.623047"/>
      </g>
     </g>
    </g>
    <g id="xtick_6">
     <g id="line2d_7">
      <g>
       <use xlink:href="#mbb67e0fc55" x="1343.548451" y="128.16" style="stroke: #000000; stroke-width: 0.8"/>
      </g>
     </g>
     <g id="text_6">
      <!-- 50 -->
      <g transform="translate(1337.185951 142.758438) scale(0.1 -0.1)">
       <defs>
        <path id="DejaVuSans-35" d="M 691 4666 
L 3169 4666 
L 3169 4134 
L 1269 4134 
L 1269 2991 
Q 1406 3038 1543 3061 
Q 1681 3084 1819 3084 
Q 2600 3084 3056 2656 
Q 3513 2228 3513 1497 
Q 3513 744 3044 326 
Q 2575 -91 1722 -91 
Q 1428 -91 1123 -41 
Q 819 9 494 109 
L 494 744 
Q 775 591 1075 516 
Q 1375 441 1709 441 
Q 2250 441 2565 725 
Q 2881 1009 2881 1497 
Q 2881 1984 2565 2268 
Q 2250 2553 1709 2553 
Q 1456 2553 1204 2497 
Q 953 2441 691 2322 
L 691 4666 
z
" transform="scale(0.015625)"/>
       </defs>
       <use xlink:href="#DejaVuSans-35"/>
       <use xlink:href="#DejaVuSans-30" x="63.623047"/>
      </g>
     </g>
    </g>
    <g id="xtick_7">
     <g id="line2d_8">
      <g>
       <use xlink:href="#mbb67e0fc55" x="1565.152899" y="128.16" style="stroke: #000000; stroke-width: 0.8"/>
      </g>
     </g>
     <g id="text_7">
      <!-- 60 -->
      <g transform="translate(1558.790399 142.758438) scale(0.1 -0.1)">
       <defs>
        <path id="DejaVuSans-36" d="M 2113 2584 
Q 1688 2584 1439 2293 
Q 1191 2003 1191 1497 
Q 1191 994 1439 701 
Q 1688 409 2113 409 
Q 2538 409 2786 701 
Q 3034 994 3034 1497 
Q 3034 2003 2786 2293 
Q 2538 2584 2113 2584 
z
M 3366 4563 
L 3366 3988 
Q 3128 4100 2886 4159 
Q 2644 4219 2406 4219 
Q 1781 4219 1451 3797 
Q 1122 3375 1075 2522 
Q 1259 2794 1537 2939 
Q 1816 3084 2150 3084 
Q 2853 3084 3261 2657 
Q 3669 2231 3669 1497 
Q 3669 778 3244 343 
Q 2819 -91 2113 -91 
Q 1303 -91 875 529 
Q 447 1150 447 2328 
Q 447 3434 972 4092 
Q 1497 4750 2381 4750 
Q 2619 4750 2861 4703 
Q 3103 4656 3366 4563 
z
" transform="scale(0.015625)"/>
       </defs>
       <use xlink:href="#DejaVuSans-36"/>
       <use xlink:href="#DejaVuSans-30" x="63.623047"/>
      </g>
     </g>
    </g>
   </g>
   <g id="matplotlib.axis_2">
    <g id="ytick_1">
     <g id="line2d_9">
      <defs>
       <path id="m0f04658e02" d="M 0 0 
L -3.5 0 
" style="stroke: #000000; stroke-width: 0.8"/>
      </defs>
      <g>
       <use xlink:href="#m0f04658e02" x="225" y="128.16" style="stroke: #000000; stroke-width: 0.8"/>
      </g>
     </g>
     <g id="text_8">
      <!-- 0.0 -->
      <g transform="translate(202.096875 131.959219) scale(0.1 -0.1)">
       <defs>
        <path id="DejaVuSans-2e" d="M 684 794 
L 1344 794 
L 1344 0 
L 684 0 
L 684 794 
z
" transform="scale(0.015625)"/>
       </defs>
       <use xlink:href="#DejaVuSans-30"/>
       <use xlink:href="#DejaVuSans-2e" x="63.623047"/>
       <use xlink:href="#DejaVuSans-30" x="95.410156"/>
      </g>
     </g>
    </g>
    <g id="ytick_2">
     <g id="line2d_10">
      <g>
       <use xlink:href="#m0f04658e02" x="225" y="100.44" style="stroke: #000000; stroke-width: 0.8"/>
      </g>
     </g>
     <g id="text_9">
      <!-- 0.5 -->
      <g transform="translate(202.096875 104.239219) scale(0.1 -0.1)">
       <use xlink:href="#DejaVuSans-30"/>
       <use xlink:href="#DejaVuSans-2e" x="63.623047"/>
       <use xlink:href="#DejaVuSans-35" x="95.410156"/>
      </g>
     </g>
    </g>
    <g id="ytick_3">
     <g id="line2d_11">
      <g>
       <use xlink:href="#m0f04658e02" x="225" y="72.72" style="stroke: #000000; stroke-width: 0.8"/>
      </g>
     </g>
     <g id="text_10">
      <!-- 1.0 -->
      <g transform="translate(202.096875 76.519219) scale(0.1 -0.1)">
       <use xlink:href="#DejaVuSans-31"/>
       <use xlink:href="#DejaVuSans-2e" x="63.623047"/>
       <use xlink:href="#DejaVuSans-30" x="95.410156"/>
      </g>
     </g>
    </g>
    <g id="ytick_4">
     <g id="line2d_12">
      <g>
       <use xlink:href="#m0f04658e02" x="225" y="45" style="stroke: #000000; stroke-width: 0.8"/>
      </g>
     </g>
     <g id="text_11">
      <!-- 1.5 -->
      <g transform="translate(202.096875 48.799219) scale(0.1 -0.1)">
       <use xlink:href="#DejaVuSans-31"/>
       <use xlink:href="#DejaVuSans-2e" x="63.623047"/>
       <use xlink:href="#DejaVuSans-35" x="95.410156"/>
      </g>
     </g>
    </g>
    <g id="ytick_5">
     <g id="line2d_13">
      <g>
       <use xlink:href="#m0f04658e02" x="225" y="17.28" style="stroke: #000000; stroke-width: 0.8"/>
      </g>
     </g>
     <g id="text_12">
      <!-- 2.0 -->
      <g transform="translate(202.096875 21.079219) scale(0.1 -0.1)">
       <use xlink:href="#DejaVuSans-32"/>
       <use xlink:href="#DejaVuSans-2e" x="63.623047"/>
       <use xlink:href="#DejaVuSans-30" x="95.410156"/>
      </g>
     </g>
    </g>
   </g>
  </g>
 </g>
 <defs>
  <clipPath id="p9e57154730">
   <rect x="225" y="17.28" width="1395" height="110.88"/>
  </clipPath>
 </defs>
</svg>
