<?xml version="1.0" encoding="utf-8" standalone="no"?>
<!DOCTYPE svg PUBLIC "-//W3C//DTD SVG 1.1//EN"
  "http://www.w3.org/Graphics/SVG/1.1/DTD/svg11.dtd">
<svg xmlns:xlink="http://www.w3.org/1999/xlink" width="1800pt" height="144pt" viewBox="0 0 1800 144" xmlns="http://www.w3.org/2000/svg" version="1.1">
 <metadata>
  <rdf:RDF xmlns:dc="http://purl.org/dc/elements/1.1/" xmlns:cc="http://creativecommons.org/ns#" xmlns:rdf="http://www.w3.org/1999/02/22-rdf-syntax-ns#">
   <cc:Work>
    <dc:type rdf:resource="http://purl.org/dc/dcmitype/StillImage"/>
    <dc:date>2025-05-09T21:09:14.298620</dc:date>
    <dc:format>image/svg+xml</dc:format>
    <dc:creator>
     <cc:Agent>
      <dc:title>Matplotlib v3.8.0, https://matplotlib.org/</dc:title>
     </cc:Agent>
    </dc:creator>
   </cc:Work>
  </rdf:RDF>
 </metadata>
 <defs>
  <style type="text/css">*{stroke-linejoin: round; stroke-linecap: butt}</style>
 </defs>
 <g id="figure_1">
  <g id="patch_1">
   <path d="M 0 144 
L 1800 144 
L 1800 0 
L 0 0 
z
" style="fill: #ffffff"/>
  </g>
  <g id="axes_1">
   <g id="patch_2">
    <path d="M 225 128.16 
L 1620 128.16 
L 1620 17.28 
L 225 17.28 
z
" style="fill: #ffffff"/>
   </g>
   <g id="line2d_1">
    <path d="M 225 128.16 
L 1620 128.16 
" clip-path="url(#pcda6e61b8d)" style="fill: none; stroke: #000000; stroke-width: 1.5; stroke-linecap: square"/>
   </g>
   <g id="patch_3">
    <path d="M 225 17.28 
L 228.400922 17.28 
L 230.76002 76.617197 
L 233.134668 17.28 
L 236.528926 17.28 
L 236.528926 128.16 
L 234.003225 128.16 
L 234.003225 47.055534 
L 231.615249 106.844235 
L 229.920341 106.844235 
L 227.532365 47.055534 
L 227.532365 128.16 
L 225 128.16 
L 225 17.28 
z
" clip-path="url(#pcda6e61b8d)" style="fill: #21599c"/>
   </g>
   <g id="patch_4">
    <path d="M 237.135711 17.28 
L 240.32312 17.28 
L 242.897752 56.798526 
L 245.469962 17.28 
L 248.664637 17.28 
L 244.358244 81.441166 
L 244.358244 128.16 
L 241.444526 128.16 
L 241.444526 81.441166 
L 237.135711 17.28 
z
" clip-path="url(#pcda6e61b8d)" style="fill: #177875"/>
   </g>
   <g id="patch_5">
    <path d="M 249.271422 17.28 
L 253.455223 17.28 
L 253.455223 106.559074 
L 260.800348 106.559074 
L 260.800348 128.16 
L 249.271422 128.16 
L 249.271422 17.28 
z
" clip-path="url(#pcda6e61b8d)" style="fill: #21599c"/>
   </g>
   <g id="patch_6">
    <path d="M 272.936059 120.212188 
Q 271.971684 124.151737 270.928882 126.144416 
Q 269.886079 128.16 268.750324 128.16 
Q 265.363394 128.16 263.385264 113.226358 
Q 261.407134 98.292716 261.407134 72.754357 
Q 261.407134 47.124379 263.385264 32.213642 
Q 265.363394 17.28 268.750324 17.28 
Q 269.886079 17.28 270.928882 19.295584 
Q 271.971684 21.288263 272.936059 25.227812 
L 272.936059 47.330518 
Q 271.96297 42.108325 271.018929 39.680463 
Q 270.074887 37.252601 269.032084 37.252601 
Q 267.16143 37.252601 266.08958 46.712101 
Q 265.020634 56.148697 265.020634 72.754357 
Q 265.020634 89.291303 266.08958 98.750804 
Q 267.16143 108.187399 269.032084 108.187399 
Q 270.074887 108.187399 271.018929 105.759537 
Q 271.96297 103.308771 272.936059 98.086577 
L 272.936059 120.212188 
z
" clip-path="url(#pcda6e61b8d)" style="fill: #6b296b"/>
   </g>
   <g id="patch_7">
    <path d="M 273.542845 17.28 
L 279.535484 17.28 
Q 282.210555 17.28 283.639662 26.690304 
Q 285.07177 36.076845 285.07177 53.447887 
Q 285.07177 70.913982 283.639662 80.300523 
Q 282.210555 89.687064 279.535484 89.687064 
L 277.154641 89.687064 
L 277.154641 128.16 
L 273.542845 128.16 
L 273.542845 17.28 
z
M 277.154641 38.00168 
L 277.154641 68.965384 
L 279.151187 68.965384 
Q 280.202 68.965384 280.775444 64.925607 
Q 281.348888 60.885829 281.348888 53.447887 
Q 281.348888 46.033708 280.775444 42.017694 
Q 280.202 38.00168 279.151187 38.00168 
L 277.154641 38.00168 
z
" clip-path="url(#pcda6e61b8d)" style="fill: #787800"/>
   </g>
   <g id="patch_8">
    <path d="M 289.351119 17.28 
L 293.534919 17.28 
L 293.534919 128.16 
L 289.351119 128.16 
L 289.351119 17.28 
z
" clip-path="url(#pcda6e61b8d)" style="fill: #21599c"/>
   </g>
   <g id="patch_9">
    <path d="M 297.814267 17.28 
L 309.343193 17.28 
L 309.343193 38.904689 
L 305.195461 38.904689 
L 305.195461 128.16 
L 301.970043 128.16 
L 301.970043 38.904689 
L 297.814267 38.904689 
L 297.814267 17.28 
z
" clip-path="url(#pcda6e61b8d)" style="fill: #40ba47"/>
   </g>
   <g id="patch_10">
    <path d="M 313.109272 38.904689 
L 313.109272 106.559074 
L 314.241155 106.559074 
Q 316.176649 106.559074 317.198232 97.861672 
Q 318.222442 89.164269 318.222442 72.601183 
Q 318.222442 56.13315 317.203485 47.530802 
Q 316.187153 38.904689 314.241155 38.904689 
L 313.109272 38.904689 
z
M 309.949978 17.28 
L 313.279973 17.28 
Q 316.071601 17.28 317.437214 20.892036 
Q 318.802828 24.480309 319.779766 33.106421 
Q 320.641153 40.615654 321.058715 50.429936 
Q 321.478904 60.220454 321.478904 72.601183 
Q 321.478904 85.172019 321.058715 95.010064 
Q 320.641153 104.84811 319.779766 112.333579 
Q 318.794949 120.959691 317.416205 124.571727 
Q 316.037461 128.16 313.279973 128.16 
L 309.949978 128.16 
L 309.949978 17.28 
z
" clip-path="url(#pcda6e61b8d)" style="fill: #6b296b"/>
   </g>
   <g id="patch_11">
    <path d="M 322.085689 17.28 
L 326.26949 17.28 
L 326.26949 106.559074 
L 333.614615 106.559074 
L 333.614615 128.16 
L 322.085689 128.16 
L 322.085689 17.28 
z
" clip-path="url(#pcda6e61b8d)" style="fill: #21599c"/>
   </g>
   <g id="patch_12">
    <path d="M 334.221401 17.28 
L 338.405201 17.28 
L 338.405201 106.559074 
L 345.750326 106.559074 
L 345.750326 128.16 
L 334.221401 128.16 
L 334.221401 17.28 
z
" clip-path="url(#pcda6e61b8d)" style="fill: #21599c"/>
   </g>
   <g id="patch_13">
    <path d="M 346.357112 17.28 
L 349.758034 17.28 
L 352.117132 76.617197 
L 354.49178 17.28 
L 357.886037 17.28 
L 357.886037 128.16 
L 355.360336 128.16 
L 355.360336 47.055534 
L 352.97236 106.844235 
L 351.277453 106.844235 
L 348.889477 47.055534 
L 348.889477 128.16 
L 346.357112 128.16 
L 346.357112 17.28 
z
" clip-path="url(#pcda6e61b8d)" style="fill: #21599c"/>
   </g>
   <g id="patch_14">
    <path d="M 358.492823 17.28 
L 370.021749 17.28 
L 370.021749 38.904689 
L 365.874017 38.904689 
L 365.874017 128.16 
L 362.648598 128.16 
L 362.648598 38.904689 
L 358.492823 38.904689 
L 358.492823 17.28 
z
" clip-path="url(#pcda6e61b8d)" style="fill: #40ba47"/>
   </g>
   <g id="patch_15">
    <path d="M 370.628534 17.28 
L 376.621174 17.28 
Q 379.296245 17.28 380.725351 26.690304 
Q 382.15746 36.076845 382.15746 53.447887 
Q 382.15746 70.913982 380.725351 80.300523 
Q 379.296245 89.687064 376.621174 89.687064 
L 374.24033 89.687064 
L 374.24033 128.16 
L 370.628534 128.16 
L 370.628534 17.28 
z
M 374.24033 38.00168 
L 374.24033 68.965384 
L 376.236876 68.965384 
Q 377.28769 68.965384 377.861134 64.925607 
Q 378.434578 60.885829 378.434578 53.447887 
Q 378.434578 46.033708 377.861134 42.017694 
Q 377.28769 38.00168 376.236876 38.00168 
L 374.24033 38.00168 
z
" clip-path="url(#pcda6e61b8d)" style="fill: #787800"/>
   </g>
   <g id="patch_16">
    <path d="M 382.764245 17.28 
L 386.467509 17.28 
L 391.146913 93.322863 
L 391.146913 17.28 
L 394.293171 17.28 
L 394.293171 128.16 
L 390.587149 128.16 
L 385.907746 52.117137 
L 385.907746 128.16 
L 382.764245 128.16 
L 382.764245 17.28 
z
" clip-path="url(#pcda6e61b8d)" style="fill: #40ba47"/>
   </g>
   <g id="patch_17">
    <path d="M 405.467616 22.570907 
L 405.467616 45.200413 
Q 404.265252 41.260863 403.119248 39.268184 
Q 401.976375 37.252601 400.958748 37.252601 
Q 399.609219 37.252601 398.961069 39.978219 
Q 398.31605 42.680934 398.31605 48.407023 
Q 398.31605 52.713043 398.751281 55.118 
Q 399.186512 57.500054 400.332517 59.217881 
L 401.93567 61.57703 
Q 404.371711 65.173014 405.398731 72.479504 
Q 406.428882 79.76309 406.428882 93.230853 
Q 406.428882 110.890114 404.994812 119.525057 
Q 403.560741 128.16 400.614321 128.16 
Q 399.227218 128.16 397.82759 126.21313 
Q 396.427962 124.289163 395.028334 120.48704 
L 395.028334 97.239116 
Q 396.427962 102.667449 397.733655 105.438876 
Q 399.039348 108.187399 400.254238 108.187399 
Q 401.487914 108.187399 402.142326 105.186928 
Q 402.796738 102.163553 402.796738 96.574889 
Q 402.796738 91.581739 402.352114 88.856121 
Q 401.907489 86.130502 400.576747 83.977492 
L 399.117627 81.618343 
Q 396.925816 78.18269 395.911321 70.67006 
Q 394.899957 63.15743 394.899957 50.422607 
Q 394.899957 34.458269 396.308978 25.869134 
Q 397.717999 17.28 400.360697 17.28 
Q 401.566193 17.28 402.837443 18.608453 
Q 404.108694 19.936906 405.467616 22.570907 
z
" clip-path="url(#pcda6e61b8d)" style="fill: #40ba47"/>
   </g>
   <g id="patch_18">
    <path d="M 407.035668 17.28 
L 410.073849 17.28 
L 410.073849 57.749061 
L 414.453073 17.28 
L 417.981202 17.28 
L 412.306394 69.797102 
L 418.564593 128.16 
L 414.761184 128.16 
L 410.073849 84.48288 
L 410.073849 128.16 
L 407.035668 128.16 
L 407.035668 17.28 
z
" clip-path="url(#pcda6e61b8d)" style="fill: #bd2e1f"/>
   </g>
   <g id="patch_19">
    <path d="M 419.171379 17.28 
L 423.355179 17.28 
L 423.355179 106.559074 
L 430.700304 106.559074 
L 430.700304 128.16 
L 419.171379 128.16 
L 419.171379 17.28 
z
" clip-path="url(#pcda6e61b8d)" style="fill: #21599c"/>
   </g>
   <g id="patch_20">
    <path d="M 431.30709 17.28 
L 442.836016 17.28 
L 442.836016 38.904689 
L 438.688284 38.904689 
L 438.688284 128.16 
L 435.462866 128.16 
L 435.462866 38.904689 
L 431.30709 38.904689 
L 431.30709 17.28 
z
" clip-path="url(#pcda6e61b8d)" style="fill: #40ba47"/>
   </g>
   <g id="patch_21">
    <path d="M 443.442801 17.28 
L 454.971727 17.28 
L 454.971727 38.904689 
L 450.823995 38.904689 
L 450.823995 128.16 
L 447.598577 128.16 
L 447.598577 38.904689 
L 443.442801 38.904689 
L 443.442801 17.28 
z
" clip-path="url(#pcda6e61b8d)" style="fill: #40ba47"/>
   </g>
   <g id="patch_22">
    <path d="M 455.578512 17.28 
L 459.281776 17.28 
L 463.96118 93.322863 
L 463.96118 17.28 
L 467.107438 17.28 
L 467.107438 128.16 
L 463.401416 128.16 
L 458.722013 52.117137 
L 458.722013 128.16 
L 455.578512 128.16 
L 455.578512 17.28 
z
" clip-path="url(#pcda6e61b8d)" style="fill: #40ba47"/>
   </g>
   <g id="patch_23">
    <path d="M 467.714224 17.28 
L 473.706863 17.28 
Q 476.381934 17.28 477.81104 26.690304 
Q 479.243149 36.076845 479.243149 53.447887 
Q 479.243149 70.913982 477.81104 80.300523 
Q 476.381934 89.687064 473.706863 89.687064 
L 471.32602 89.687064 
L 471.32602 128.16 
L 467.714224 128.16 
L 467.714224 17.28 
z
M 471.32602 38.00168 
L 471.32602 68.965384 
L 473.322566 68.965384 
Q 474.373379 68.965384 474.946823 64.925607 
Q 475.520267 60.885829 475.520267 53.447887 
Q 475.520267 46.033708 474.946823 42.017694 
Q 474.373379 38.00168 473.322566 38.00168 
L 471.32602 38.00168 
z
" clip-path="url(#pcda6e61b8d)" style="fill: #787800"/>
   </g>
   <g id="patch_24">
    <path d="M 483.522497 17.28 
L 487.706298 17.28 
L 487.706298 128.16 
L 483.522497 128.16 
L 483.522497 17.28 
z
" clip-path="url(#pcda6e61b8d)" style="fill: #21599c"/>
   </g>
   <g id="patch_25">
    <path d="M 495.144939 38.904689 
L 495.144939 106.559074 
L 496.276822 106.559074 
Q 498.212316 106.559074 499.2339 97.861672 
Q 500.25811 89.164269 500.25811 72.601183 
Q 500.25811 56.13315 499.239152 47.530802 
Q 498.222821 38.904689 496.276822 38.904689 
L 495.144939 38.904689 
z
M 491.985646 17.28 
L 495.315641 17.28 
Q 498.107269 17.28 499.472882 20.892036 
Q 500.838495 24.480309 501.815434 33.106421 
Q 502.67682 40.615654 503.094383 50.429936 
Q 503.514572 60.220454 503.514572 72.601183 
Q 503.514572 85.172019 503.094383 95.010064 
Q 502.67682 104.84811 501.815434 112.333579 
Q 500.830617 120.959691 499.451873 124.571727 
Q 498.073129 128.16 495.315641 128.16 
L 491.985646 128.16 
L 491.985646 17.28 
z
" clip-path="url(#pcda6e61b8d)" style="fill: #6b296b"/>
   </g>
   <g id="patch_26">
    <path d="M 512.107454 107.961114 
L 507.673615 107.961114 
L 506.973535 128.16 
L 504.121357 128.16 
L 508.194549 17.28 
L 511.57709 17.28 
L 515.650283 128.16 
L 512.800462 128.16 
L 512.107454 107.961114 
z
M 508.380766 87.382015 
L 511.393231 87.382015 
L 509.889356 43.277154 
L 508.380766 87.382015 
z
" clip-path="url(#pcda6e61b8d)" style="fill: #21599c"/>
   </g>
   <g id="patch_27">
    <path d="M 526.824728 22.570907 
L 526.824728 45.200413 
Q 525.622363 41.260863 524.476359 39.268184 
Q 523.333487 37.252601 522.31586 37.252601 
Q 520.966331 37.252601 520.318181 39.978219 
Q 519.673162 42.680934 519.673162 48.407023 
Q 519.673162 52.713043 520.108393 55.118 
Q 520.543624 57.500054 521.689628 59.217881 
L 523.292781 61.57703 
Q 525.728823 65.173014 526.755843 72.479504 
Q 527.785994 79.76309 527.785994 93.230853 
Q 527.785994 110.890114 526.351923 119.525057 
Q 524.917853 128.16 521.971433 128.16 
Q 520.584329 128.16 519.184701 126.21313 
Q 517.785074 124.289163 516.385446 120.48704 
L 516.385446 97.239116 
Q 517.785074 102.667449 519.090767 105.438876 
Q 520.39646 108.187399 521.611349 108.187399 
Q 522.845026 108.187399 523.499438 105.186928 
Q 524.15385 102.163553 524.15385 96.574889 
Q 524.15385 91.581739 523.709226 88.856121 
Q 523.264601 86.130502 521.933859 83.977492 
L 520.474739 81.618343 
Q 518.282928 78.18269 517.268432 70.67006 
Q 516.257068 63.15743 516.257068 50.422607 
Q 516.257068 34.458269 517.66609 25.869134 
Q 519.075111 17.28 521.717809 17.28 
Q 522.923305 17.28 524.194555 18.608453 
Q 525.465805 19.936906 526.824728 22.570907 
z
" clip-path="url(#pcda6e61b8d)" style="fill: #40ba47"/>
   </g>
   <g id="patch_28">
    <path d="M 528.392779 17.28 
L 539.681737 17.28 
L 539.681737 38.904689 
L 532.57658 38.904689 
L 532.57658 59.531316 
L 539.260922 59.531316 
L 539.260922 81.156005 
L 532.57658 81.156005 
L 532.57658 106.559074 
L 539.921705 106.559074 
L 539.921705 128.16 
L 528.392779 128.16 
L 528.392779 17.28 
z
" clip-path="url(#pcda6e61b8d)" style="fill: #6b296b"/>
   </g>
   <g id="patch_29">
    <path d="M 540.528491 17.28 
L 544.712291 17.28 
L 544.712291 106.559074 
L 552.057416 106.559074 
L 552.057416 128.16 
L 540.528491 128.16 
L 540.528491 17.28 
z
" clip-path="url(#pcda6e61b8d)" style="fill: #21599c"/>
   </g>
   <g id="patch_30">
    <path d="M 563.231862 22.570907 
L 563.231862 45.200413 
Q 562.029497 41.260863 560.883493 39.268184 
Q 559.74062 37.252601 558.722994 37.252601 
Q 557.373464 37.252601 556.725314 39.978219 
Q 556.080296 42.680934 556.080296 48.407023 
Q 556.080296 52.713043 556.515527 55.118 
Q 556.950758 57.500054 558.096762 59.217881 
L 559.699915 61.57703 
Q 562.135956 65.173014 563.162976 72.479504 
Q 564.193127 79.76309 564.193127 93.230853 
Q 564.193127 110.890114 562.759057 119.525057 
Q 561.324986 128.16 558.378566 128.16 
Q 556.991463 128.16 555.591835 126.21313 
Q 554.192207 124.289163 552.792579 120.48704 
L 552.792579 97.239116 
Q 554.192207 102.667449 555.4979 105.438876 
Q 556.803593 108.187399 558.018483 108.187399 
Q 559.252159 108.187399 559.906571 105.186928 
Q 560.560984 102.163553 560.560984 96.574889 
Q 560.560984 91.581739 560.116359 88.856121 
Q 559.671735 86.130502 558.340992 83.977492 
L 556.881872 81.618343 
Q 554.690061 78.18269 553.675566 70.67006 
Q 552.664202 63.15743 552.664202 50.422607 
Q 552.664202 34.458269 554.073223 25.869134 
Q 555.482244 17.28 558.124942 17.28 
Q 559.330438 17.28 560.601689 18.608453 
Q 561.872939 19.936906 563.231862 22.570907 
z
" clip-path="url(#pcda6e61b8d)" style="fill: #40ba47"/>
   </g>
   <g id="patch_31">
    <path d="M 564.919897 17.28 
L 576.208854 17.28 
L 576.208854 38.904689 
L 569.103697 38.904689 
L 569.103697 59.531316 
L 575.78804 59.531316 
L 575.78804 81.156005 
L 569.103697 81.156005 
L 569.103697 128.16 
L 564.919897 128.16 
L 564.919897 17.28 
z
" clip-path="url(#pcda6e61b8d)" style="fill: #21599c"/>
   </g>
   <g id="patch_32">
    <path d="M 580.094917 38.904689 
L 580.094917 106.559074 
L 581.226801 106.559074 
Q 583.162294 106.559074 584.183878 97.861672 
Q 585.208088 89.164269 585.208088 72.601183 
Q 585.208088 56.13315 584.18913 47.530802 
Q 583.172799 38.904689 581.226801 38.904689 
L 580.094917 38.904689 
z
M 576.935624 17.28 
L 580.265619 17.28 
Q 583.057247 17.28 584.42286 20.892036 
Q 585.788473 24.480309 586.765412 33.106421 
Q 587.626799 40.615654 588.044361 50.429936 
Q 588.46455 60.220454 588.46455 72.601183 
Q 588.46455 85.172019 588.044361 95.010064 
Q 587.626799 104.84811 586.765412 112.333579 
Q 585.780595 120.959691 584.401851 124.571727 
Q 583.023107 128.16 580.265619 128.16 
L 576.935624 128.16 
L 576.935624 17.28 
z
" clip-path="url(#pcda6e61b8d)" style="fill: #6b296b"/>
   </g>
   <g id="patch_33">
    <path d="M 592.230629 38.904689 
L 592.230629 106.559074 
L 593.362512 106.559074 
Q 595.298006 106.559074 596.319589 97.861672 
Q 597.343799 89.164269 597.343799 72.601183 
Q 597.343799 56.13315 596.324842 47.530802 
Q 595.30851 38.904689 593.362512 38.904689 
L 592.230629 38.904689 
z
M 589.071335 17.28 
L 592.40133 17.28 
Q 595.192959 17.28 596.558572 20.892036 
Q 597.924185 24.480309 598.901123 33.106421 
Q 599.76251 40.615654 600.180072 50.429936 
Q 600.600261 60.220454 600.600261 72.601183 
Q 600.600261 85.172019 600.180072 95.010064 
Q 599.76251 104.84811 598.901123 112.333579 
Q 597.916306 120.959691 596.537562 124.571727 
Q 595.158818 128.16 592.40133 128.16 
L 589.071335 128.16 
L 589.071335 17.28 
z
" clip-path="url(#pcda6e61b8d)" style="fill: #6b296b"/>
   </g>
   <g id="patch_34">
    <path d="M 601.327031 17.28 
L 612.615988 17.28 
L 612.615988 38.904689 
L 605.510831 38.904689 
L 605.510831 59.531316 
L 612.195173 59.531316 
L 612.195173 81.156005 
L 605.510831 81.156005 
L 605.510831 128.16 
L 601.327031 128.16 
L 601.327031 17.28 
z
" clip-path="url(#pcda6e61b8d)" style="fill: #21599c"/>
   </g>
   <g id="patch_35">
    <path d="M 613.342758 17.28 
L 616.380939 17.28 
L 616.380939 57.749061 
L 620.760163 17.28 
L 624.288292 17.28 
L 618.613485 69.797102 
L 624.871683 128.16 
L 621.068274 128.16 
L 616.380939 84.48288 
L 616.380939 128.16 
L 613.342758 128.16 
L 613.342758 17.28 
z
" clip-path="url(#pcda6e61b8d)" style="fill: #bd2e1f"/>
   </g>
   <g id="patch_36">
    <path d="M 625.478469 17.28 
L 637.007395 17.28 
L 637.007395 38.904689 
L 632.859662 38.904689 
L 632.859662 128.16 
L 629.634244 128.16 
L 629.634244 38.904689 
L 625.478469 38.904689 
L 625.478469 17.28 
z
" clip-path="url(#pcda6e61b8d)" style="fill: #40ba47"/>
   </g>
   <g id="patch_37">
    <path d="M 641.286743 17.28 
L 645.470543 17.28 
L 645.470543 128.16 
L 641.286743 128.16 
L 641.286743 17.28 
z
" clip-path="url(#pcda6e61b8d)" style="fill: #21599c"/>
   </g>
   <g id="patch_38">
    <path d="M 649.749891 17.28 
L 652.602069 17.28 
L 655.51789 99.121132 
L 658.428997 17.28 
L 661.278817 17.28 
L 657.205625 128.16 
L 653.823084 128.16 
L 649.749891 17.28 
z
" clip-path="url(#pcda6e61b8d)" style="fill: #21599c"/>
   </g>
   <g id="patch_39">
    <path d="M 665.558165 17.28 
L 669.741965 17.28 
L 669.741965 128.16 
L 665.558165 128.16 
L 665.558165 17.28 
z
" clip-path="url(#pcda6e61b8d)" style="fill: #21599c"/>
   </g>
   <g id="patch_40">
    <path d="M 674.021314 17.28 
L 677.724578 17.28 
L 682.403981 93.322863 
L 682.403981 17.28 
L 685.550239 17.28 
L 685.550239 128.16 
L 681.844218 128.16 
L 677.164814 52.117137 
L 677.164814 128.16 
L 674.021314 128.16 
L 674.021314 17.28 
z
" clip-path="url(#pcda6e61b8d)" style="fill: #40ba47"/>
   </g>
   <g id="patch_41">
    <path d="M 689.316318 38.904689 
L 689.316318 106.559074 
L 690.448201 106.559074 
Q 692.383695 106.559074 693.405279 97.861672 
Q 694.429489 89.164269 694.429489 72.601183 
Q 694.429489 56.13315 693.410531 47.530802 
Q 692.3942 38.904689 690.448201 38.904689 
L 689.316318 38.904689 
z
M 686.157025 17.28 
L 689.48702 17.28 
Q 692.278648 17.28 693.644261 20.892036 
Q 695.009874 24.480309 695.986813 33.106421 
Q 696.848199 40.615654 697.265762 50.429936 
Q 697.68595 60.220454 697.68595 72.601183 
Q 697.68595 85.172019 697.265762 95.010064 
Q 696.848199 104.84811 695.986813 112.333579 
Q 695.001996 120.959691 693.623252 124.571727 
Q 692.244508 128.16 689.48702 128.16 
L 686.157025 128.16 
L 686.157025 17.28 
z
" clip-path="url(#pcda6e61b8d)" style="fill: #6b296b"/>
   </g>
   <g id="patch_42">
    <path d="M 698.292736 17.28 
L 701.480145 17.28 
L 704.054777 56.798526 
L 706.626987 17.28 
L 709.821662 17.28 
L 705.515269 81.441166 
L 705.515269 128.16 
L 702.601551 128.16 
L 702.601551 81.441166 
L 698.292736 17.28 
z
" clip-path="url(#pcda6e61b8d)" style="fill: #177875"/>
   </g>
   <g id="patch_43">
    <path d="M 710.428447 17.28 
L 713.466628 17.28 
L 713.466628 57.749061 
L 717.845852 17.28 
L 721.373981 17.28 
L 715.699174 69.797102 
L 721.957373 128.16 
L 718.153964 128.16 
L 713.466628 84.48288 
L 713.466628 128.16 
L 710.428447 128.16 
L 710.428447 17.28 
z
" clip-path="url(#pcda6e61b8d)" style="fill: #bd2e1f"/>
   </g>
   <g id="patch_44">
    <path d="M 726.236721 17.28 
L 730.420521 17.28 
L 730.420521 128.16 
L 726.236721 128.16 
L 726.236721 17.28 
z
" clip-path="url(#pcda6e61b8d)" style="fill: #21599c"/>
   </g>
   <g id="patch_45">
    <path d="M 742.685966 107.961114 
L 738.252127 107.961114 
L 737.552047 128.16 
L 734.69987 128.16 
L 738.773062 17.28 
L 742.155603 17.28 
L 746.228795 128.16 
L 743.378975 128.16 
L 742.685966 107.961114 
z
M 738.959278 87.382015 
L 741.971743 87.382015 
L 740.467868 43.277154 
L 738.959278 87.382015 
z
" clip-path="url(#pcda6e61b8d)" style="fill: #21599c"/>
   </g>
   <g id="patch_46">
    <path d="M 746.835581 17.28 
L 750.02299 17.28 
L 752.597621 56.798526 
L 755.169831 17.28 
L 758.364506 17.28 
L 754.058114 81.441166 
L 754.058114 128.16 
L 751.144396 128.16 
L 751.144396 81.441166 
L 746.835581 17.28 
z
" clip-path="url(#pcda6e61b8d)" style="fill: #177875"/>
   </g>
   <g id="patch_47">
    <path d="M 758.971292 17.28 
L 770.260249 17.28 
L 770.260249 38.904689 
L 763.155092 38.904689 
L 763.155092 59.531316 
L 769.839434 59.531316 
L 769.839434 81.156005 
L 763.155092 81.156005 
L 763.155092 106.559074 
L 770.500217 106.559074 
L 770.500217 128.16 
L 758.971292 128.16 
L 758.971292 17.28 
z
" clip-path="url(#pcda6e61b8d)" style="fill: #6b296b"/>
   </g>
   <g id="patch_48">
    <path d="M 781.674663 22.570907 
L 781.674663 45.200413 
Q 780.472298 41.260863 779.326294 39.268184 
Q 778.183421 37.252601 777.165795 37.252601 
Q 775.816265 37.252601 775.168116 39.978219 
Q 774.523097 42.680934 774.523097 48.407023 
Q 774.523097 52.713043 774.958328 55.118 
Q 775.393559 57.500054 776.539563 59.217881 
L 778.142716 61.57703 
Q 780.578758 65.173014 781.605778 72.479504 
Q 782.635929 79.76309 782.635929 93.230853 
Q 782.635929 110.890114 781.201858 119.525057 
Q 779.767787 128.16 776.821367 128.16 
Q 775.434264 128.16 774.034636 126.21313 
Q 772.635008 124.289163 771.235381 120.48704 
L 771.235381 97.239116 
Q 772.635008 102.667449 773.940701 105.438876 
Q 775.246395 108.187399 776.461284 108.187399 
Q 777.694961 108.187399 778.349373 105.186928 
Q 779.003785 102.163553 779.003785 96.574889 
Q 779.003785 91.581739 778.55916 88.856121 
Q 778.114536 86.130502 776.783793 83.977492 
L 775.324674 81.618343 
Q 773.132863 78.18269 772.118367 70.67006 
Q 771.107003 63.15743 771.107003 50.422607 
Q 771.107003 34.458269 772.516024 25.869134 
Q 773.925046 17.28 776.567743 17.28 
Q 777.77324 17.28 779.04449 18.608453 
Q 780.31574 19.936906 781.674663 22.570907 
z
" clip-path="url(#pcda6e61b8d)" style="fill: #40ba47"/>
   </g>
   <g id="patch_49">
    <path d="M 787.920524 66.446464 
Q 788.955171 66.446464 789.404065 63.119589 
Q 789.85296 59.76895 789.85296 52.117137 
Q 789.85296 44.536614 789.404065 41.281029 
Q 788.955171 38.00168 787.920524 38.00168 
L 786.53552 38.00168 
L 786.53552 66.446464 
L 787.920524 66.446464 
z
M 786.53552 86.193845 
L 786.53552 128.16 
L 783.242714 128.16 
L 783.242714 17.28 
L 788.270881 17.28 
Q 790.794544 17.28 791.968786 24.646652 
Q 793.145766 31.989541 793.145766 47.887252 
Q 793.145766 58.865941 792.532641 65.923669 
Q 791.922254 72.981397 790.690532 76.332036 
Q 791.366611 77.662786 791.900357 82.391702 
Q 792.436841 87.096854 792.984273 96.673502 
L 794.77164 128.16 
L 791.265336 128.16 
L 789.70789 100.618225 
Q 789.237099 92.301037 788.752621 89.259323 
Q 788.270881 86.193845 787.466155 86.193845 
L 786.53552 86.193845 
z
" clip-path="url(#pcda6e61b8d)" style="fill: #bd2e1f"/>
   </g>
   <g id="patch_50">
    <path d="M 801.450326 111.578719 
L 801.224551 111.578719 
Q 798.455207 111.578719 796.915615 99.152512 
Q 795.378425 86.706798 795.378425 64.526897 
Q 795.378425 42.38601 796.913214 29.842759 
Q 798.448002 17.28 801.142888 17.28 
Q 803.866597 17.28 805.386974 29.725714 
Q 806.907351 42.151921 806.907351 64.526897 
Q 806.907351 79.879212 806.100326 90.978916 
Q 805.293301 102.078621 803.777728 107.677241 
L 806.035476 128.16 
L 803.280543 128.16 
L 801.450326 111.578719 
z
M 801.142888 34.290443 
Q 799.821865 34.290443 799.094102 42.210443 
Q 798.366339 50.130443 798.366339 64.526897 
Q 798.366339 79.157438 799.077289 86.940887 
Q 799.790641 94.704828 801.142888 94.704828 
Q 802.471117 94.704828 803.19888 86.784828 
Q 803.926643 78.84532 803.926643 64.526897 
Q 803.926643 50.130443 803.19888 42.210443 
Q 802.471117 34.290443 801.142888 34.290443 
z
" clip-path="url(#pcda6e61b8d)" style="fill: #40ba47"/>
   </g>
   <g id="patch_51">
    <path d="M 815.500233 107.961114 
L 811.066394 107.961114 
L 810.366314 128.16 
L 807.514137 128.16 
L 811.587329 17.28 
L 814.96987 17.28 
L 819.043062 128.16 
L 816.193242 128.16 
L 815.500233 107.961114 
z
M 811.773545 87.382015 
L 814.786011 87.382015 
L 813.282135 43.277154 
L 811.773545 87.382015 
z
" clip-path="url(#pcda6e61b8d)" style="fill: #21599c"/>
   </g>
   <g id="patch_52">
    <path d="M 830.217508 22.570907 
L 830.217508 45.200413 
Q 829.015143 41.260863 827.869139 39.268184 
Q 826.726266 37.252601 825.708639 37.252601 
Q 824.35911 37.252601 823.71096 39.978219 
Q 823.065942 42.680934 823.065942 48.407023 
Q 823.065942 52.713043 823.501173 55.118 
Q 823.936404 57.500054 825.082408 59.217881 
L 826.685561 61.57703 
Q 829.121602 65.173014 830.148622 72.479504 
Q 831.178773 79.76309 831.178773 93.230853 
Q 831.178773 110.890114 829.744703 119.525057 
Q 828.310632 128.16 825.364212 128.16 
Q 823.977109 128.16 822.577481 126.21313 
Q 821.177853 124.289163 819.778225 120.48704 
L 819.778225 97.239116 
Q 821.177853 102.667449 822.483546 105.438876 
Q 823.789239 108.187399 825.004129 108.187399 
Q 826.237805 108.187399 826.892217 105.186928 
Q 827.54663 102.163553 827.54663 96.574889 
Q 827.54663 91.581739 827.102005 88.856121 
Q 826.65738 86.130502 825.326638 83.977492 
L 823.867518 81.618343 
Q 821.675707 78.18269 820.661212 70.67006 
Q 819.649848 63.15743 819.649848 50.422607 
Q 819.649848 34.458269 821.058869 25.869134 
Q 822.46789 17.28 825.110588 17.28 
Q 826.316084 17.28 827.587335 18.608453 
Q 828.858585 19.936906 830.217508 22.570907 
z
" clip-path="url(#pcda6e61b8d)" style="fill: #40ba47"/>
   </g>
   <g id="patch_53">
    <path d="M 831.785559 17.28 
L 835.969359 17.28 
L 835.969359 106.559074 
L 843.314485 106.559074 
L 843.314485 128.16 
L 831.785559 128.16 
L 831.785559 17.28 
z
" clip-path="url(#pcda6e61b8d)" style="fill: #21599c"/>
   </g>
   <g id="patch_54">
    <path d="M 843.92127 17.28 
L 848.10507 17.28 
L 848.10507 106.559074 
L 855.450196 106.559074 
L 855.450196 128.16 
L 843.92127 128.16 
L 843.92127 17.28 
z
" clip-path="url(#pcda6e61b8d)" style="fill: #21599c"/>
   </g>
   <g id="patch_55">
    <path d="M 867.585907 118.127891 
Q 866.423196 123.143945 865.172636 125.663425 
Q 863.922075 128.16 862.588833 128.16 
Q 859.57612 128.16 857.816551 113.226358 
Q 856.056981 98.292716 856.056981 72.754357 
Q 856.056981 46.91824 857.847556 32.09912 
Q 859.640715 17.28 862.759364 17.28 
Q 863.960832 17.28 865.061532 19.295584 
Q 866.164816 21.288263 867.141493 25.227812 
L 867.141493 47.330518 
Q 866.13381 42.268655 865.136462 39.77208 
Q 864.139115 37.252601 863.136599 37.252601 
Q 861.281429 37.252601 860.27633 46.460153 
Q 859.271231 55.644801 859.271231 72.754357 
Q 859.271231 89.703582 860.240157 98.956943 
Q 861.209083 108.187399 862.991907 108.187399 
Q 863.477661 108.187399 863.893654 107.660599 
Q 864.309646 107.110894 864.640372 105.965677 
L 864.640372 85.214328 
L 862.741278 85.214328 
L 862.741278 66.73051 
L 867.585907 66.73051 
L 867.585907 118.127891 
z
" clip-path="url(#pcda6e61b8d)" style="fill: #787800"/>
   </g>
   <g id="patch_56">
    <path d="M 872.870502 66.446464 
Q 873.905149 66.446464 874.354044 63.119589 
Q 874.802938 59.76895 874.802938 52.117137 
Q 874.802938 44.536614 874.354044 41.281029 
Q 873.905149 38.00168 872.870502 38.00168 
L 871.485498 38.00168 
L 871.485498 66.446464 
L 872.870502 66.446464 
z
M 871.485498 86.193845 
L 871.485498 128.16 
L 868.192692 128.16 
L 868.192692 17.28 
L 873.220859 17.28 
Q 875.744522 17.28 876.918764 24.646652 
Q 878.095744 31.989541 878.095744 47.887252 
Q 878.095744 58.865941 877.48262 65.923669 
Q 876.872233 72.981397 875.64051 76.332036 
Q 876.316589 77.662786 876.850335 82.391702 
Q 877.386819 87.096854 877.934251 96.673502 
L 879.721618 128.16 
L 876.215314 128.16 
L 874.657869 100.618225 
Q 874.187077 92.301037 873.702599 89.259323 
Q 873.220859 86.193845 872.416133 86.193845 
L 871.485498 86.193845 
z
" clip-path="url(#pcda6e61b8d)" style="fill: #bd2e1f"/>
   </g>
   <g id="patch_57">
    <path d="M 880.328404 17.28 
L 883.366585 17.28 
L 883.366585 57.749061 
L 887.745809 17.28 
L 891.273938 17.28 
L 885.59913 69.797102 
L 891.857329 128.16 
L 888.05392 128.16 
L 883.366585 84.48288 
L 883.366585 128.16 
L 880.328404 128.16 
L 880.328404 17.28 
z
" clip-path="url(#pcda6e61b8d)" style="fill: #bd2e1f"/>
   </g>
   <g id="patch_58">
    <path d="M 892.464115 17.28 
L 903.753072 17.28 
L 903.753072 38.904689 
L 896.647915 38.904689 
L 896.647915 59.531316 
L 903.332257 59.531316 
L 903.332257 81.156005 
L 896.647915 81.156005 
L 896.647915 106.559074 
L 903.99304 106.559074 
L 903.99304 128.16 
L 892.464115 128.16 
L 892.464115 17.28 
z
" clip-path="url(#pcda6e61b8d)" style="fill: #6b296b"/>
   </g>
   <g id="patch_59">
    <path d="M 904.599826 17.28 
L 907.452003 17.28 
L 910.367825 99.121132 
L 913.278931 17.28 
L 916.128752 17.28 
L 912.055559 128.16 
L 908.673018 128.16 
L 904.599826 17.28 
z
" clip-path="url(#pcda6e61b8d)" style="fill: #21599c"/>
   </g>
   <g id="patch_60">
    <path d="M 916.735537 17.28 
L 920.919337 17.28 
L 920.919337 106.559074 
L 928.264463 106.559074 
L 928.264463 128.16 
L 916.735537 128.16 
L 916.735537 17.28 
z
" clip-path="url(#pcda6e61b8d)" style="fill: #21599c"/>
   </g>
   <g id="patch_61">
    <path d="M 928.871248 17.28 
L 940.400174 17.28 
L 940.400174 38.904689 
L 936.252442 38.904689 
L 936.252442 128.16 
L 933.027024 128.16 
L 933.027024 38.904689 
L 928.871248 38.904689 
L 928.871248 17.28 
z
" clip-path="url(#pcda6e61b8d)" style="fill: #40ba47"/>
   </g>
   <g id="patch_62">
    <path d="M 952.535885 118.127891 
Q 951.373174 123.143945 950.122614 125.663425 
Q 948.872054 128.16 947.538812 128.16 
Q 944.526098 128.16 942.766529 113.226358 
Q 941.00696 98.292716 941.00696 72.754357 
Q 941.00696 46.91824 942.797535 32.09912 
Q 944.590693 17.28 947.709343 17.28 
Q 948.910811 17.28 950.01151 19.295584 
Q 951.114794 21.288263 952.091471 25.227812 
L 952.091471 47.330518 
Q 951.083788 42.268655 950.086441 39.77208 
Q 949.089093 37.252601 948.086578 37.252601 
Q 946.231408 37.252601 945.226309 46.460153 
Q 944.22121 55.644801 944.22121 72.754357 
Q 944.22121 89.703582 945.190135 98.956943 
Q 946.159061 108.187399 947.941885 108.187399 
Q 948.42764 108.187399 948.843632 107.660599 
Q 949.259624 107.110894 949.590351 105.965677 
L 949.590351 85.214328 
L 947.691256 85.214328 
L 947.691256 66.73051 
L 952.535885 66.73051 
L 952.535885 118.127891 
z
" clip-path="url(#pcda6e61b8d)" style="fill: #787800"/>
   </g>
   <g id="patch_63">
    <path d="M 953.142671 17.28 
L 956.180852 17.28 
L 956.180852 57.749061 
L 960.560076 17.28 
L 964.088205 17.28 
L 958.413398 69.797102 
L 964.671596 128.16 
L 960.868187 128.16 
L 956.180852 84.48288 
L 956.180852 128.16 
L 953.142671 128.16 
L 953.142671 17.28 
z
" clip-path="url(#pcda6e61b8d)" style="fill: #bd2e1f"/>
   </g>
   <g id="patch_64">
    <path d="M 973.264479 107.961114 
L 968.830639 107.961114 
L 968.130559 128.16 
L 965.278382 128.16 
L 969.351574 17.28 
L 972.734115 17.28 
L 976.807308 128.16 
L 973.957487 128.16 
L 973.264479 107.961114 
z
M 969.537791 87.382015 
L 972.550256 87.382015 
L 971.04638 43.277154 
L 969.537791 87.382015 
z
" clip-path="url(#pcda6e61b8d)" style="fill: #21599c"/>
   </g>
   <g id="patch_65">
    <path d="M 977.414093 17.28 
L 980.452274 17.28 
L 980.452274 57.749061 
L 984.831498 17.28 
L 988.359627 17.28 
L 982.68482 69.797102 
L 988.943019 128.16 
L 985.13961 128.16 
L 980.452274 84.48288 
L 980.452274 128.16 
L 977.414093 128.16 
L 977.414093 17.28 
z
" clip-path="url(#pcda6e61b8d)" style="fill: #bd2e1f"/>
   </g>
   <g id="patch_66">
    <path d="M 989.669789 17.28 
L 1000.958746 17.28 
L 1000.958746 38.904689 
L 993.853589 38.904689 
L 993.853589 59.531316 
L 1000.537931 59.531316 
L 1000.537931 81.156005 
L 993.853589 81.156005 
L 993.853589 128.16 
L 989.669789 128.16 
L 989.669789 17.28 
z
" clip-path="url(#pcda6e61b8d)" style="fill: #21599c"/>
   </g>
   <g id="patch_67">
    <path d="M 1013.214441 118.127891 
Q 1012.05173 123.143945 1010.80117 125.663425 
Q 1009.550609 128.16 1008.217368 128.16 
Q 1005.204654 128.16 1003.445085 113.226358 
Q 1001.685515 98.292716 1001.685515 72.754357 
Q 1001.685515 46.91824 1003.47609 32.09912 
Q 1005.269249 17.28 1008.387898 17.28 
Q 1009.589367 17.28 1010.690066 19.295584 
Q 1011.79335 21.288263 1012.770027 25.227812 
L 1012.770027 47.330518 
Q 1011.762344 42.268655 1010.764997 39.77208 
Q 1009.767649 37.252601 1008.765134 37.252601 
Q 1006.909964 37.252601 1005.904865 46.460153 
Q 1004.899765 55.644801 1004.899765 72.754357 
Q 1004.899765 89.703582 1005.868691 98.956943 
Q 1006.837617 108.187399 1008.620441 108.187399 
Q 1009.106195 108.187399 1009.522188 107.660599 
Q 1009.93818 107.110894 1010.268907 105.965677 
L 1010.268907 85.214328 
L 1008.369812 85.214328 
L 1008.369812 66.73051 
L 1013.214441 66.73051 
L 1013.214441 118.127891 
z
" clip-path="url(#pcda6e61b8d)" style="fill: #787800"/>
   </g>
   <g id="patch_68">
    <path d="M 1017.493789 17.28 
L 1021.67759 17.28 
L 1021.67759 128.16 
L 1017.493789 128.16 
L 1017.493789 17.28 
z
" clip-path="url(#pcda6e61b8d)" style="fill: #21599c"/>
   </g>
   <g id="patch_69">
    <path d="M 1026.076922 17.28 
L 1037.365879 17.28 
L 1037.365879 38.904689 
L 1030.260722 38.904689 
L 1030.260722 59.531316 
L 1036.945065 59.531316 
L 1036.945065 81.156005 
L 1030.260722 81.156005 
L 1030.260722 128.16 
L 1026.076922 128.16 
L 1026.076922 17.28 
z
" clip-path="url(#pcda6e61b8d)" style="fill: #21599c"/>
   </g>
   <g id="patch_70">
    <path d="M 1049.621575 118.127891 
Q 1048.458864 123.143945 1047.208303 125.663425 
Q 1045.957743 128.16 1044.624501 128.16 
Q 1041.611788 128.16 1039.852218 113.226358 
Q 1038.092649 98.292716 1038.092649 72.754357 
Q 1038.092649 46.91824 1039.883224 32.09912 
Q 1041.676383 17.28 1044.795032 17.28 
Q 1045.9965 17.28 1047.0972 19.295584 
Q 1048.200483 21.288263 1049.177161 25.227812 
L 1049.177161 47.330518 
Q 1048.169478 42.268655 1047.17213 39.77208 
Q 1046.174782 37.252601 1045.172267 37.252601 
Q 1043.317097 37.252601 1042.311998 46.460153 
Q 1041.306899 55.644801 1041.306899 72.754357 
Q 1041.306899 89.703582 1042.275825 98.956943 
Q 1043.244751 108.187399 1045.027574 108.187399 
Q 1045.513329 108.187399 1045.929321 107.660599 
Q 1046.345313 107.110894 1046.67604 105.965677 
L 1046.67604 85.214328 
L 1044.776945 85.214328 
L 1044.776945 66.73051 
L 1049.621575 66.73051 
L 1049.621575 118.127891 
z
" clip-path="url(#pcda6e61b8d)" style="fill: #787800"/>
   </g>
   <g id="patch_71">
    <path d="M 1053.387653 38.904689 
L 1053.387653 106.559074 
L 1054.519537 106.559074 
Q 1056.45503 106.559074 1057.476614 97.861672 
Q 1058.500824 89.164269 1058.500824 72.601183 
Q 1058.500824 56.13315 1057.481866 47.530802 
Q 1056.465535 38.904689 1054.519537 38.904689 
L 1053.387653 38.904689 
z
M 1050.22836 17.28 
L 1053.558355 17.28 
Q 1056.349983 17.28 1057.715596 20.892036 
Q 1059.081209 24.480309 1060.058148 33.106421 
Q 1060.919535 40.615654 1061.337097 50.429936 
Q 1061.757286 60.220454 1061.757286 72.601183 
Q 1061.757286 85.172019 1061.337097 95.010064 
Q 1060.919535 104.84811 1060.058148 112.333579 
Q 1059.073331 120.959691 1057.694587 124.571727 
Q 1056.315843 128.16 1053.558355 128.16 
L 1050.22836 128.16 
L 1050.22836 17.28 
z
" clip-path="url(#pcda6e61b8d)" style="fill: #6b296b"/>
   </g>
   <g id="patch_72">
    <path d="M 1073.892997 118.127891 
Q 1072.730286 123.143945 1071.479726 125.663425 
Q 1070.229165 128.16 1068.895923 128.16 
Q 1065.88321 128.16 1064.123641 113.226358 
Q 1062.364071 98.292716 1062.364071 72.754357 
Q 1062.364071 46.91824 1064.154646 32.09912 
Q 1065.947805 17.28 1069.066454 17.28 
Q 1070.267922 17.28 1071.368622 19.295584 
Q 1072.471906 21.288263 1073.448583 25.227812 
L 1073.448583 47.330518 
Q 1072.4409 42.268655 1071.443552 39.77208 
Q 1070.446205 37.252601 1069.443689 37.252601 
Q 1067.588519 37.252601 1066.58342 46.460153 
Q 1065.578321 55.644801 1065.578321 72.754357 
Q 1065.578321 89.703582 1066.547247 98.956943 
Q 1067.516173 108.187399 1069.298997 108.187399 
Q 1069.784751 108.187399 1070.200744 107.660599 
Q 1070.616736 107.110894 1070.947462 105.965677 
L 1070.947462 85.214328 
L 1069.048368 85.214328 
L 1069.048368 66.73051 
L 1073.892997 66.73051 
L 1073.892997 118.127891 
z
" clip-path="url(#pcda6e61b8d)" style="fill: #787800"/>
   </g>
   <g id="patch_73">
    <path d="M 1074.499783 17.28 
L 1077.537964 17.28 
L 1077.537964 57.749061 
L 1081.917188 17.28 
L 1085.445317 17.28 
L 1079.770509 69.797102 
L 1086.028708 128.16 
L 1082.225299 128.16 
L 1077.537964 84.48288 
L 1077.537964 128.16 
L 1074.499783 128.16 
L 1074.499783 17.28 
z
" clip-path="url(#pcda6e61b8d)" style="fill: #bd2e1f"/>
   </g>
   <g id="patch_74">
    <path d="M 1086.635494 17.28 
L 1097.924451 17.28 
L 1097.924451 38.904689 
L 1090.819294 38.904689 
L 1090.819294 59.531316 
L 1097.503636 59.531316 
L 1097.503636 81.156005 
L 1090.819294 81.156005 
L 1090.819294 106.559074 
L 1098.164419 106.559074 
L 1098.164419 128.16 
L 1086.635494 128.16 
L 1086.635494 17.28 
z
" clip-path="url(#pcda6e61b8d)" style="fill: #6b296b"/>
   </g>
   <g id="patch_75">
    <path d="M 1102.443768 17.28 
L 1106.627568 17.28 
L 1106.627568 128.16 
L 1102.443768 128.16 
L 1102.443768 17.28 
z
" clip-path="url(#pcda6e61b8d)" style="fill: #21599c"/>
   </g>
   <g id="patch_76">
    <path d="M 1110.906916 17.28 
L 1116.899556 17.28 
Q 1119.574627 17.28 1121.003733 26.690304 
Q 1122.435842 36.076845 1122.435842 53.447887 
Q 1122.435842 70.913982 1121.003733 80.300523 
Q 1119.574627 89.687064 1116.899556 89.687064 
L 1114.518712 89.687064 
L 1114.518712 128.16 
L 1110.906916 128.16 
L 1110.906916 17.28 
z
M 1114.518712 38.00168 
L 1114.518712 68.965384 
L 1116.515258 68.965384 
Q 1117.566072 68.965384 1118.139515 64.925607 
Q 1118.712959 60.885829 1118.712959 53.447887 
Q 1118.712959 46.033708 1118.139515 42.017694 
Q 1117.566072 38.00168 1116.515258 38.00168 
L 1114.518712 38.00168 
z
" clip-path="url(#pcda6e61b8d)" style="fill: #787800"/>
   </g>
   <g id="patch_77">
    <path d="M 1129.114528 111.578719 
L 1128.888753 111.578719 
Q 1126.119409 111.578719 1124.579817 99.152512 
Q 1123.042627 86.706798 1123.042627 64.526897 
Q 1123.042627 42.38601 1124.577415 29.842759 
Q 1126.112204 17.28 1128.80709 17.28 
Q 1131.530799 17.28 1133.051176 29.725714 
Q 1134.571553 42.151921 1134.571553 64.526897 
Q 1134.571553 79.879212 1133.764528 90.978916 
Q 1132.957503 102.078621 1131.44193 107.677241 
L 1133.699678 128.16 
L 1130.944745 128.16 
L 1129.114528 111.578719 
z
M 1128.80709 34.290443 
Q 1127.486067 34.290443 1126.758304 42.210443 
Q 1126.03054 50.130443 1126.03054 64.526897 
Q 1126.03054 79.157438 1126.741491 86.940887 
Q 1127.454843 94.704828 1128.80709 94.704828 
Q 1130.135318 94.704828 1130.863082 86.784828 
Q 1131.590845 78.84532 1131.590845 64.526897 
Q 1131.590845 50.130443 1130.863082 42.210443 
Q 1130.135318 34.290443 1128.80709 34.290443 
z
" clip-path="url(#pcda6e61b8d)" style="fill: #40ba47"/>
   </g>
   <g id="patch_78">
    <path d="M 1138.850901 17.28 
L 1143.034701 17.28 
L 1143.034701 128.16 
L 1138.850901 128.16 
L 1138.850901 17.28 
z
" clip-path="url(#pcda6e61b8d)" style="fill: #21599c"/>
   </g>
   <g id="patch_79">
    <path d="M 1155.300146 107.961114 
L 1150.866307 107.961114 
L 1150.166227 128.16 
L 1147.31405 128.16 
L 1151.387242 17.28 
L 1154.769783 17.28 
L 1158.842975 128.16 
L 1155.993155 128.16 
L 1155.300146 107.961114 
z
M 1151.573458 87.382015 
L 1154.585924 87.382015 
L 1153.082048 43.277154 
L 1151.573458 87.382015 
z
" clip-path="url(#pcda6e61b8d)" style="fill: #21599c"/>
   </g>
   <g id="patch_80">
    <path d="M 1159.449761 17.28 
L 1162.850683 17.28 
L 1165.209781 76.617197 
L 1167.584429 17.28 
L 1170.978686 17.28 
L 1170.978686 128.16 
L 1168.452985 128.16 
L 1168.452985 47.055534 
L 1166.065009 106.844235 
L 1164.370102 106.844235 
L 1161.982126 47.055534 
L 1161.982126 128.16 
L 1159.449761 128.16 
L 1159.449761 17.28 
z
" clip-path="url(#pcda6e61b8d)" style="fill: #21599c"/>
   </g>
   <g id="patch_81">
    <path d="M 1179.571569 107.961114 
L 1175.137729 107.961114 
L 1174.437649 128.16 
L 1171.585472 128.16 
L 1175.658664 17.28 
L 1179.041205 17.28 
L 1183.114398 128.16 
L 1180.264577 128.16 
L 1179.571569 107.961114 
z
M 1175.844881 87.382015 
L 1178.857346 87.382015 
L 1177.353471 43.277154 
L 1175.844881 87.382015 
z
" clip-path="url(#pcda6e61b8d)" style="fill: #21599c"/>
   </g>
   <g id="patch_82">
    <path d="M 1183.721183 17.28 
L 1186.759364 17.28 
L 1186.759364 57.749061 
L 1191.138588 17.28 
L 1194.666717 17.28 
L 1188.99191 69.797102 
L 1195.250109 128.16 
L 1191.4467 128.16 
L 1186.759364 84.48288 
L 1186.759364 128.16 
L 1183.721183 128.16 
L 1183.721183 17.28 
z
" clip-path="url(#pcda6e61b8d)" style="fill: #bd2e1f"/>
   </g>
   <g id="patch_83">
    <path d="M 1203.842991 107.961114 
L 1199.409152 107.961114 
L 1198.709072 128.16 
L 1195.856894 128.16 
L 1199.930087 17.28 
L 1203.312628 17.28 
L 1207.38582 128.16 
L 1204.536 128.16 
L 1203.842991 107.961114 
z
M 1200.116303 87.382015 
L 1203.128768 87.382015 
L 1201.624893 43.277154 
L 1200.116303 87.382015 
z
" clip-path="url(#pcda6e61b8d)" style="fill: #21599c"/>
   </g>
   <g id="patch_84">
    <path d="M 1208.11259 17.28 
L 1219.401547 17.28 
L 1219.401547 38.904689 
L 1212.29639 38.904689 
L 1212.29639 59.531316 
L 1218.980732 59.531316 
L 1218.980732 81.156005 
L 1212.29639 81.156005 
L 1212.29639 128.16 
L 1208.11259 128.16 
L 1208.11259 17.28 
z
" clip-path="url(#pcda6e61b8d)" style="fill: #21599c"/>
   </g>
   <g id="patch_85">
    <path d="M 1220.128317 17.28 
L 1223.166498 17.28 
L 1223.166498 57.749061 
L 1227.545722 17.28 
L 1231.073851 17.28 
L 1225.399043 69.797102 
L 1231.657242 128.16 
L 1227.853833 128.16 
L 1223.166498 84.48288 
L 1223.166498 128.16 
L 1220.128317 128.16 
L 1220.128317 17.28 
z
" clip-path="url(#pcda6e61b8d)" style="fill: #bd2e1f"/>
   </g>
   <g id="patch_86">
    <path d="M 1232.264028 17.28 
L 1235.967292 17.28 
L 1240.646696 93.322863 
L 1240.646696 17.28 
L 1243.792953 17.28 
L 1243.792953 128.16 
L 1240.086932 128.16 
L 1235.407528 52.117137 
L 1235.407528 128.16 
L 1232.264028 128.16 
L 1232.264028 17.28 
z
" clip-path="url(#pcda6e61b8d)" style="fill: #40ba47"/>
   </g>
   <g id="patch_87">
    <path d="M 1255.928665 118.127891 
Q 1254.765954 123.143945 1253.515393 125.663425 
Q 1252.264833 128.16 1250.931591 128.16 
Q 1247.918878 128.16 1246.159308 113.226358 
Q 1244.399739 98.292716 1244.399739 72.754357 
Q 1244.399739 46.91824 1246.190314 32.09912 
Q 1247.983473 17.28 1251.102122 17.28 
Q 1252.30359 17.28 1253.40429 19.295584 
Q 1254.507573 21.288263 1255.484251 25.227812 
L 1255.484251 47.330518 
Q 1254.476568 42.268655 1253.47922 39.77208 
Q 1252.481872 37.252601 1251.479357 37.252601 
Q 1249.624187 37.252601 1248.619088 46.460153 
Q 1247.613989 55.644801 1247.613989 72.754357 
Q 1247.613989 89.703582 1248.582915 98.956943 
Q 1249.551841 108.187399 1251.334664 108.187399 
Q 1251.820419 108.187399 1252.236411 107.660599 
Q 1252.652403 107.110894 1252.98313 105.965677 
L 1252.98313 85.214328 
L 1251.084035 85.214328 
L 1251.084035 66.73051 
L 1255.928665 66.73051 
L 1255.928665 118.127891 
z
" clip-path="url(#pcda6e61b8d)" style="fill: #787800"/>
   </g>
   <g id="patch_88">
    <path d="M 1259.694743 38.904689 
L 1259.694743 106.559074 
L 1260.826627 106.559074 
Q 1262.762121 106.559074 1263.783704 97.861672 
Q 1264.807914 89.164269 1264.807914 72.601183 
Q 1264.807914 56.13315 1263.788956 47.530802 
Q 1262.772625 38.904689 1260.826627 38.904689 
L 1259.694743 38.904689 
z
M 1256.53545 17.28 
L 1259.865445 17.28 
Q 1262.657073 17.28 1264.022686 20.892036 
Q 1265.388299 24.480309 1266.365238 33.106421 
Q 1267.226625 40.615654 1267.644187 50.429936 
Q 1268.064376 60.220454 1268.064376 72.601183 
Q 1268.064376 85.172019 1267.644187 95.010064 
Q 1267.226625 104.84811 1266.365238 112.333579 
Q 1265.380421 120.959691 1264.001677 124.571727 
Q 1262.622933 128.16 1259.865445 128.16 
L 1256.53545 128.16 
L 1256.53545 17.28 
z
" clip-path="url(#pcda6e61b8d)" style="fill: #6b296b"/>
   </g>
   <g id="patch_89">
    <path d="M 1268.671161 17.28 
L 1270.66469 17.28 
L 1272.058259 97.861672 
L 1273.441453 17.28 
L 1275.445356 17.28 
L 1276.828551 97.861672 
L 1278.223848 17.28 
L 1280.200087 17.28 
L 1278.298195 128.16 
L 1275.900081 128.16 
L 1274.435624 43.871239 
L 1272.988457 128.16 
L 1270.588615 128.16 
L 1268.671161 17.28 
z
" clip-path="url(#pcda6e61b8d)" style="fill: #21599c"/>
   </g>
   <g id="patch_90">
    <path d="M 1285.484682 66.446464 
Q 1286.519329 66.446464 1286.968224 63.119589 
Q 1287.417118 59.76895 1287.417118 52.117137 
Q 1287.417118 44.536614 1286.968224 41.281029 
Q 1286.519329 38.00168 1285.484682 38.00168 
L 1284.099678 38.00168 
L 1284.099678 66.446464 
L 1285.484682 66.446464 
z
M 1284.099678 86.193845 
L 1284.099678 128.16 
L 1280.806873 128.16 
L 1280.806873 17.28 
L 1285.835039 17.28 
Q 1288.358702 17.28 1289.532944 24.646652 
Q 1290.709924 31.989541 1290.709924 47.887252 
Q 1290.709924 58.865941 1290.0968 65.923669 
Q 1289.486413 72.981397 1288.25469 76.332036 
Q 1288.930769 77.662786 1289.464515 82.391702 
Q 1290.000999 87.096854 1290.548431 96.673502 
L 1292.335798 128.16 
L 1288.829494 128.16 
L 1287.272049 100.618225 
Q 1286.801257 92.301037 1286.316779 89.259323 
Q 1285.835039 86.193845 1285.030313 86.193845 
L 1284.099678 86.193845 
z
" clip-path="url(#pcda6e61b8d)" style="fill: #bd2e1f"/>
   </g>
   <g id="patch_91">
    <path d="M 1303.510244 22.570907 
L 1303.510244 45.200413 
Q 1302.307879 41.260863 1301.161875 39.268184 
Q 1300.019002 37.252601 1299.001375 37.252601 
Q 1297.651846 37.252601 1297.003696 39.978219 
Q 1296.358678 42.680934 1296.358678 48.407023 
Q 1296.358678 52.713043 1296.793909 55.118 
Q 1297.22914 57.500054 1298.375144 59.217881 
L 1299.978297 61.57703 
Q 1302.414338 65.173014 1303.441358 72.479504 
Q 1304.471509 79.76309 1304.471509 93.230853 
Q 1304.471509 110.890114 1303.037439 119.525057 
Q 1301.603368 128.16 1298.656948 128.16 
Q 1297.269845 128.16 1295.870217 126.21313 
Q 1294.470589 124.289163 1293.070961 120.48704 
L 1293.070961 97.239116 
Q 1294.470589 102.667449 1295.776282 105.438876 
Q 1297.081975 108.187399 1298.296865 108.187399 
Q 1299.530541 108.187399 1300.184953 105.186928 
Q 1300.839365 102.163553 1300.839365 96.574889 
Q 1300.839365 91.581739 1300.394741 88.856121 
Q 1299.950116 86.130502 1298.619374 83.977492 
L 1297.160254 81.618343 
Q 1294.968443 78.18269 1293.953948 70.67006 
Q 1292.942584 63.15743 1292.942584 50.422607 
Q 1292.942584 34.458269 1294.351605 25.869134 
Q 1295.760626 17.28 1298.403324 17.28 
Q 1299.60882 17.28 1300.880071 18.608453 
Q 1302.151321 19.936906 1303.510244 22.570907 
z
" clip-path="url(#pcda6e61b8d)" style="fill: #40ba47"/>
   </g>
   <g id="patch_92">
    <path d="M 1316.607221 118.127891 
Q 1315.44451 123.143945 1314.193949 125.663425 
Q 1312.943389 128.16 1311.610147 128.16 
Q 1308.597434 128.16 1306.837864 113.226358 
Q 1305.078295 98.292716 1305.078295 72.754357 
Q 1305.078295 46.91824 1306.86887 32.09912 
Q 1308.662029 17.28 1311.780678 17.28 
Q 1312.982146 17.28 1314.082846 19.295584 
Q 1315.186129 21.288263 1316.162807 25.227812 
L 1316.162807 47.330518 
Q 1315.155124 42.268655 1314.157776 39.77208 
Q 1313.160428 37.252601 1312.157913 37.252601 
Q 1310.302743 37.252601 1309.297644 46.460153 
Q 1308.292545 55.644801 1308.292545 72.754357 
Q 1308.292545 89.703582 1309.261471 98.956943 
Q 1310.230397 108.187399 1312.01322 108.187399 
Q 1312.498975 108.187399 1312.914967 107.660599 
Q 1313.330959 107.110894 1313.661686 105.965677 
L 1313.661686 85.214328 
L 1311.762591 85.214328 
L 1311.762591 66.73051 
L 1316.607221 66.73051 
L 1316.607221 118.127891 
z
" clip-path="url(#pcda6e61b8d)" style="fill: #787800"/>
   </g>
   <g id="patch_93">
    <path d="M 1317.214006 17.28 
L 1320.401415 17.28 
L 1322.976047 56.798526 
L 1325.548257 17.28 
L 1328.742932 17.28 
L 1324.436539 81.441166 
L 1324.436539 128.16 
L 1321.522821 128.16 
L 1321.522821 81.441166 
L 1317.214006 17.28 
z
" clip-path="url(#pcda6e61b8d)" style="fill: #177875"/>
   </g>
   <g id="patch_94">
    <path d="M 1329.349717 17.28 
L 1332.537126 17.28 
L 1335.111758 56.798526 
L 1337.683968 17.28 
L 1340.878643 17.28 
L 1336.57225 81.441166 
L 1336.57225 128.16 
L 1333.658532 128.16 
L 1333.658532 81.441166 
L 1329.349717 17.28 
z
" clip-path="url(#pcda6e61b8d)" style="fill: #177875"/>
   </g>
   <g id="patch_95">
    <path d="M 1346.163238 66.446464 
Q 1347.197885 66.446464 1347.64678 63.119589 
Q 1348.095674 59.76895 1348.095674 52.117137 
Q 1348.095674 44.536614 1347.64678 41.281029 
Q 1347.197885 38.00168 1346.163238 38.00168 
L 1344.778234 38.00168 
L 1344.778234 66.446464 
L 1346.163238 66.446464 
z
M 1344.778234 86.193845 
L 1344.778234 128.16 
L 1341.485428 128.16 
L 1341.485428 17.28 
L 1346.513595 17.28 
Q 1349.037258 17.28 1350.2115 24.646652 
Q 1351.38848 31.989541 1351.38848 47.887252 
Q 1351.38848 58.865941 1350.775356 65.923669 
Q 1350.164969 72.981397 1348.933246 76.332036 
Q 1349.609325 77.662786 1350.143071 82.391702 
Q 1350.679555 87.096854 1351.226987 96.673502 
L 1353.014354 128.16 
L 1349.50805 128.16 
L 1347.950605 100.618225 
Q 1347.479813 92.301037 1346.995335 89.259323 
Q 1346.513595 86.193845 1345.708869 86.193845 
L 1344.778234 86.193845 
z
" clip-path="url(#pcda6e61b8d)" style="fill: #bd2e1f"/>
   </g>
   <g id="patch_96">
    <path d="M 1356.780433 38.904689 
L 1356.780433 106.559074 
L 1357.912316 106.559074 
Q 1359.84781 106.559074 1360.869394 97.861672 
Q 1361.893603 89.164269 1361.893603 72.601183 
Q 1361.893603 56.13315 1360.874646 47.530802 
Q 1359.858315 38.904689 1357.912316 38.904689 
L 1356.780433 38.904689 
z
M 1353.62114 17.28 
L 1356.951135 17.28 
Q 1359.742763 17.28 1361.108376 20.892036 
Q 1362.473989 24.480309 1363.450927 33.106421 
Q 1364.312314 40.615654 1364.729877 50.429936 
Q 1365.150065 60.220454 1365.150065 72.601183 
Q 1365.150065 85.172019 1364.729877 95.010064 
Q 1364.312314 104.84811 1363.450927 112.333579 
Q 1362.46611 120.959691 1361.087366 124.571727 
Q 1359.708622 128.16 1356.951135 128.16 
L 1353.62114 128.16 
L 1353.62114 17.28 
z
" clip-path="url(#pcda6e61b8d)" style="fill: #6b296b"/>
   </g>
   <g id="patch_97">
    <path d="M 1371.828752 111.578719 
L 1371.602977 111.578719 
Q 1368.833633 111.578719 1367.294041 99.152512 
Q 1365.756851 86.706798 1365.756851 64.526897 
Q 1365.756851 42.38601 1367.291639 29.842759 
Q 1368.826427 17.28 1371.521314 17.28 
Q 1374.245022 17.28 1375.765399 29.725714 
Q 1377.285776 42.151921 1377.285776 64.526897 
Q 1377.285776 79.879212 1376.478752 90.978916 
Q 1375.671727 102.078621 1374.156153 107.677241 
L 1376.413901 128.16 
L 1373.658969 128.16 
L 1371.828752 111.578719 
z
M 1371.521314 34.290443 
Q 1370.200291 34.290443 1369.472527 42.210443 
Q 1368.744764 50.130443 1368.744764 64.526897 
Q 1368.744764 79.157438 1369.455714 86.940887 
Q 1370.169067 94.704828 1371.521314 94.704828 
Q 1372.849542 94.704828 1373.577305 86.784828 
Q 1374.305069 78.84532 1374.305069 64.526897 
Q 1374.305069 50.130443 1373.577305 42.210443 
Q 1372.849542 34.290443 1371.521314 34.290443 
z
" clip-path="url(#pcda6e61b8d)" style="fill: #40ba47"/>
   </g>
   <g id="patch_98">
    <path d="M 1377.892562 17.28 
L 1389.421488 17.28 
L 1389.421488 38.904689 
L 1385.273756 38.904689 
L 1385.273756 128.16 
L 1382.048337 128.16 
L 1382.048337 38.904689 
L 1377.892562 38.904689 
L 1377.892562 17.28 
z
" clip-path="url(#pcda6e61b8d)" style="fill: #40ba47"/>
   </g>
   <g id="patch_99">
    <path d="M 1390.148257 17.28 
L 1401.437214 17.28 
L 1401.437214 38.904689 
L 1394.332058 38.904689 
L 1394.332058 59.531316 
L 1401.0164 59.531316 
L 1401.0164 81.156005 
L 1394.332058 81.156005 
L 1394.332058 128.16 
L 1390.148257 128.16 
L 1390.148257 17.28 
z
" clip-path="url(#pcda6e61b8d)" style="fill: #21599c"/>
   </g>
   <g id="patch_100">
    <path d="M 1410.150081 107.961114 
L 1405.716242 107.961114 
L 1405.016162 128.16 
L 1402.163984 128.16 
L 1406.237177 17.28 
L 1409.619718 17.28 
L 1413.69291 128.16 
L 1410.84309 128.16 
L 1410.150081 107.961114 
z
M 1406.423393 87.382015 
L 1409.435858 87.382015 
L 1407.931983 43.277154 
L 1406.423393 87.382015 
z
" clip-path="url(#pcda6e61b8d)" style="fill: #21599c"/>
   </g>
   <g id="patch_101">
    <path d="M 1414.41968 17.28 
L 1425.708637 17.28 
L 1425.708637 38.904689 
L 1418.60348 38.904689 
L 1418.60348 59.531316 
L 1425.287822 59.531316 
L 1425.287822 81.156005 
L 1418.60348 81.156005 
L 1418.60348 128.16 
L 1414.41968 128.16 
L 1414.41968 17.28 
z
" clip-path="url(#pcda6e61b8d)" style="fill: #21599c"/>
   </g>
   <g id="patch_102">
    <path d="M 1434.421504 107.961114 
L 1429.987664 107.961114 
L 1429.287584 128.16 
L 1426.435407 128.16 
L 1430.508599 17.28 
L 1433.89114 17.28 
L 1437.964332 128.16 
L 1435.114512 128.16 
L 1434.421504 107.961114 
z
M 1430.694816 87.382015 
L 1433.707281 87.382015 
L 1432.203405 43.277154 
L 1430.694816 87.382015 
z
" clip-path="url(#pcda6e61b8d)" style="fill: #21599c"/>
   </g>
   <g id="patch_103">
    <path d="M 1438.571118 17.28 
L 1450.100043 17.28 
L 1450.100043 38.904689 
L 1445.952311 38.904689 
L 1445.952311 128.16 
L 1442.726893 128.16 
L 1442.726893 38.904689 
L 1438.571118 38.904689 
L 1438.571118 17.28 
z
" clip-path="url(#pcda6e61b8d)" style="fill: #40ba47"/>
   </g>
   <g id="patch_104">
    <path d="M 1462.235755 118.127891 
Q 1461.073044 123.143945 1459.822483 125.663425 
Q 1458.571923 128.16 1457.238681 128.16 
Q 1454.225968 128.16 1452.466398 113.226358 
Q 1450.706829 98.292716 1450.706829 72.754357 
Q 1450.706829 46.91824 1452.497404 32.09912 
Q 1454.290563 17.28 1457.409212 17.28 
Q 1458.61068 17.28 1459.71138 19.295584 
Q 1460.814663 21.288263 1461.791341 25.227812 
L 1461.791341 47.330518 
Q 1460.783658 42.268655 1459.78631 39.77208 
Q 1458.788962 37.252601 1457.786447 37.252601 
Q 1455.931277 37.252601 1454.926178 46.460153 
Q 1453.921079 55.644801 1453.921079 72.754357 
Q 1453.921079 89.703582 1454.890005 98.956943 
Q 1455.858931 108.187399 1457.641754 108.187399 
Q 1458.127509 108.187399 1458.543501 107.660599 
Q 1458.959493 107.110894 1459.29022 105.965677 
L 1459.29022 85.214328 
L 1457.391125 85.214328 
L 1457.391125 66.73051 
L 1462.235755 66.73051 
L 1462.235755 118.127891 
z
" clip-path="url(#pcda6e61b8d)" style="fill: #787800"/>
   </g>
   <g id="patch_105">
    <path d="M 1466.515103 17.28 
L 1470.698903 17.28 
L 1470.698903 128.16 
L 1466.515103 128.16 
L 1466.515103 17.28 
z
" clip-path="url(#pcda6e61b8d)" style="fill: #21599c"/>
   </g>
   <g id="patch_106">
    <path d="M 1486.507177 120.212188 
Q 1485.542802 124.151737 1484.5 126.144416 
Q 1483.457197 128.16 1482.321442 128.16 
Q 1478.934512 128.16 1476.956382 113.226358 
Q 1474.978251 98.292716 1474.978251 72.754357 
Q 1474.978251 47.124379 1476.956382 32.213642 
Q 1478.934512 17.28 1482.321442 17.28 
Q 1483.457197 17.28 1484.5 19.295584 
Q 1485.542802 21.288263 1486.507177 25.227812 
L 1486.507177 47.330518 
Q 1485.534088 42.108325 1484.590047 39.680463 
Q 1483.646005 37.252601 1482.603202 37.252601 
Q 1480.732548 37.252601 1479.660697 46.712101 
Q 1478.591752 56.148697 1478.591752 72.754357 
Q 1478.591752 89.291303 1479.660697 98.750804 
Q 1480.732548 108.187399 1482.603202 108.187399 
Q 1483.646005 108.187399 1484.590047 105.759537 
Q 1485.534088 103.308771 1486.507177 98.086577 
L 1486.507177 120.212188 
z
" clip-path="url(#pcda6e61b8d)" style="fill: #6b296b"/>
   </g>
   <g id="patch_107">
    <path d="M 1487.113963 17.28 
L 1498.642888 17.28 
L 1498.642888 38.904689 
L 1494.495156 38.904689 
L 1494.495156 128.16 
L 1491.269738 128.16 
L 1491.269738 38.904689 
L 1487.113963 38.904689 
L 1487.113963 17.28 
z
" clip-path="url(#pcda6e61b8d)" style="fill: #40ba47"/>
   </g>
   <g id="patch_108">
    <path d="M 1499.249674 17.28 
L 1503.433474 17.28 
L 1503.433474 106.559074 
L 1510.778599 106.559074 
L 1510.778599 128.16 
L 1499.249674 128.16 
L 1499.249674 17.28 
z
" clip-path="url(#pcda6e61b8d)" style="fill: #21599c"/>
   </g>
   <g id="patch_109">
    <path d="M 1511.385385 17.28 
L 1514.423566 17.28 
L 1514.423566 57.749061 
L 1518.80279 17.28 
L 1522.330919 17.28 
L 1516.656112 69.797102 
L 1522.914311 128.16 
L 1519.110902 128.16 
L 1514.423566 84.48288 
L 1514.423566 128.16 
L 1511.385385 128.16 
L 1511.385385 17.28 
z
" clip-path="url(#pcda6e61b8d)" style="fill: #bd2e1f"/>
   </g>
   <g id="patch_110">
    <path d="M 1523.521096 17.28 
L 1534.810053 17.28 
L 1534.810053 38.904689 
L 1527.704896 38.904689 
L 1527.704896 59.531316 
L 1534.389239 59.531316 
L 1534.389239 81.156005 
L 1527.704896 81.156005 
L 1527.704896 106.559074 
L 1535.050022 106.559074 
L 1535.050022 128.16 
L 1523.521096 128.16 
L 1523.521096 17.28 
z
" clip-path="url(#pcda6e61b8d)" style="fill: #6b296b"/>
   </g>
   <g id="patch_111">
    <path d="M 1535.776792 17.28 
L 1547.065749 17.28 
L 1547.065749 38.904689 
L 1539.960592 38.904689 
L 1539.960592 59.531316 
L 1546.644934 59.531316 
L 1546.644934 81.156005 
L 1539.960592 81.156005 
L 1539.960592 128.16 
L 1535.776792 128.16 
L 1535.776792 17.28 
z
" clip-path="url(#pcda6e61b8d)" style="fill: #21599c"/>
   </g>
   <g id="patch_112">
    <path d="M 1547.912503 17.28 
L 1559.20146 17.28 
L 1559.20146 38.904689 
L 1552.096303 38.904689 
L 1552.096303 59.531316 
L 1558.780645 59.531316 
L 1558.780645 81.156005 
L 1552.096303 81.156005 
L 1552.096303 128.16 
L 1547.912503 128.16 
L 1547.912503 17.28 
z
" clip-path="url(#pcda6e61b8d)" style="fill: #21599c"/>
   </g>
   <g id="patch_113">
    <path d="M 1567.914327 107.961114 
L 1563.480487 107.961114 
L 1562.780407 128.16 
L 1559.92823 128.16 
L 1564.001422 17.28 
L 1567.383963 17.28 
L 1571.457155 128.16 
L 1568.607335 128.16 
L 1567.914327 107.961114 
z
M 1564.187638 87.382015 
L 1567.200104 87.382015 
L 1565.696228 43.277154 
L 1564.187638 87.382015 
z
" clip-path="url(#pcda6e61b8d)" style="fill: #21599c"/>
   </g>
   <g id="patch_114">
    <path d="M 1578.135842 111.578719 
L 1577.910067 111.578719 
Q 1575.140723 111.578719 1573.601131 99.152512 
Q 1572.063941 86.706798 1572.063941 64.526897 
Q 1572.063941 42.38601 1573.598729 29.842759 
Q 1575.133517 17.28 1577.828404 17.28 
Q 1580.552112 17.28 1582.072489 29.725714 
Q 1583.592866 42.151921 1583.592866 64.526897 
Q 1583.592866 79.879212 1582.785842 90.978916 
Q 1581.978817 102.078621 1580.463244 107.677241 
L 1582.720991 128.16 
L 1579.966059 128.16 
L 1578.135842 111.578719 
z
M 1577.828404 34.290443 
Q 1576.507381 34.290443 1575.779617 42.210443 
Q 1575.051854 50.130443 1575.051854 64.526897 
Q 1575.051854 79.157438 1575.762804 86.940887 
Q 1576.476157 94.704828 1577.828404 94.704828 
Q 1579.156632 94.704828 1579.884395 86.784828 
Q 1580.612159 78.84532 1580.612159 64.526897 
Q 1580.612159 50.130443 1579.884395 42.210443 
Q 1579.156632 34.290443 1577.828404 34.290443 
z
" clip-path="url(#pcda6e61b8d)" style="fill: #40ba47"/>
   </g>
   <g id="patch_115">
    <path d="M 1584.199652 17.28 
L 1588.383452 17.28 
L 1588.383452 106.559074 
L 1595.728578 106.559074 
L 1595.728578 128.16 
L 1584.199652 128.16 
L 1584.199652 17.28 
z
" clip-path="url(#pcda6e61b8d)" style="fill: #21599c"/>
   </g>
   <g id="patch_116">
    <path d="M 1596.335363 17.28 
L 1599.522772 17.28 
L 1602.097404 56.798526 
L 1604.669614 17.28 
L 1607.864289 17.28 
L 1603.557896 81.441166 
L 1603.557896 128.16 
L 1600.644178 128.16 
L 1600.644178 81.441166 
L 1596.335363 17.28 
z
" clip-path="url(#pcda6e61b8d)" style="fill: #177875"/>
   </g>
   <g id="patch_117">
    <path d="M 1616.457171 107.961114 
L 1612.023332 107.961114 
L 1611.323252 128.16 
L 1608.471074 128.16 
L 1612.544267 17.28 
L 1615.926808 17.28 
L 1620 128.16 
L 1617.15018 128.16 
L 1616.457171 107.961114 
z
M 1612.730483 87.382015 
L 1615.742948 87.382015 
L 1614.239073 43.277154 
L 1612.730483 87.382015 
z
" clip-path="url(#pcda6e61b8d)" style="fill: #21599c"/>
   </g>
   <g id="matplotlib.axis_1">
    <g id="xtick_1">
     <g id="line2d_2">
      <defs>
       <path id="m1ebe71a9e6" d="M 0 0 
L 0 3.5 
" style="stroke: #000000; stroke-width: 0.8"/>
      </defs>
      <g>
       <use xlink:href="#m1ebe71a9e6" x="230.764463" y="128.16" style="stroke: #000000; stroke-width: 0.8"/>
      </g>
     </g>
     <g id="text_1">
      <!-- 0 -->
      <g transform="translate(227.583213 142.758438) scale(0.1 -0.1)">
       <defs>
        <path id="DejaVuSans-30" d="M 2034 4250 
Q 1547 4250 1301 3770 
Q 1056 3291 1056 2328 
Q 1056 1369 1301 889 
Q 1547 409 2034 409 
Q 2525 409 2770 889 
Q 3016 1369 3016 2328 
Q 3016 3291 2770 3770 
Q 2525 4250 2034 4250 
z
M 2034 4750 
Q 2819 4750 3233 4129 
Q 3647 3509 3647 2328 
Q 3647 1150 3233 529 
Q 2819 -91 2034 -91 
Q 1250 -91 836 529 
Q 422 1150 422 2328 
Q 422 3509 836 4129 
Q 1250 4750 2034 4750 
z
" transform="scale(0.015625)"/>
       </defs>
       <use xlink:href="#DejaVuSans-30"/>
      </g>
     </g>
    </g>
    <g id="xtick_2">
     <g id="line2d_3">
      <g>
       <use xlink:href="#m1ebe71a9e6" x="473.478686" y="128.16" style="stroke: #000000; stroke-width: 0.8"/>
      </g>
     </g>
     <g id="text_2">
      <!-- 20 -->
      <g transform="translate(467.116186 142.758438) scale(0.1 -0.1)">
       <defs>
        <path id="DejaVuSans-32" d="M 1228 531 
L 3431 531 
L 3431 0 
L 469 0 
L 469 531 
Q 828 903 1448 1529 
Q 2069 2156 2228 2338 
Q 2531 2678 2651 2914 
Q 2772 3150 2772 3378 
Q 2772 3750 2511 3984 
Q 2250 4219 1831 4219 
Q 1534 4219 1204 4116 
Q 875 4013 500 3803 
L 500 4441 
Q 881 4594 1212 4672 
Q 1544 4750 1819 4750 
Q 2544 4750 2975 4387 
Q 3406 4025 3406 3419 
Q 3406 3131 3298 2873 
Q 3191 2616 2906 2266 
Q 2828 2175 2409 1742 
Q 1991 1309 1228 531 
z
" transform="scale(0.015625)"/>
       </defs>
       <use xlink:href="#DejaVuSans-32"/>
       <use xlink:href="#DejaVuSans-30" x="63.623047"/>
      </g>
     </g>
    </g>
    <g id="xtick_3">
     <g id="line2d_4">
      <g>
       <use xlink:href="#m1ebe71a9e6" x="716.19291" y="128.16" style="stroke: #000000; stroke-width: 0.8"/>
      </g>
     </g>
     <g id="text_3">
      <!-- 40 -->
      <g transform="translate(709.83041 142.758438) scale(0.1 -0.1)">
       <defs>
        <path id="DejaVuSans-34" d="M 2419 4116 
L 825 1625 
L 2419 1625 
L 2419 4116 
z
M 2253 4666 
L 3047 4666 
L 3047 1625 
L 3713 1625 
L 3713 1100 
L 3047 1100 
L 3047 0 
L 2419 0 
L 2419 1100 
L 313 1100 
L 313 1709 
L 2253 4666 
z
" transform="scale(0.015625)"/>
       </defs>
       <use xlink:href="#DejaVuSans-34"/>
       <use xlink:href="#DejaVuSans-30" x="63.623047"/>
      </g>
     </g>
    </g>
    <g id="xtick_4">
     <g id="line2d_5">
      <g>
       <use xlink:href="#m1ebe71a9e6" x="958.907134" y="128.16" style="stroke: #000000; stroke-width: 0.8"/>
      </g>
     </g>
     <g id="text_4">
      <!-- 60 -->
      <g transform="translate(952.544634 142.758438) scale(0.1 -0.1)">
       <defs>
        <path id="DejaVuSans-36" d="M 2113 2584 
Q 1688 2584 1439 2293 
Q 1191 2003 1191 1497 
Q 1191 994 1439 701 
Q 1688 409 2113 409 
Q 2538 409 2786 701 
Q 3034 994 3034 1497 
Q 3034 2003 2786 2293 
Q 2538 2584 2113 2584 
z
M 3366 4563 
L 3366 3988 
Q 3128 4100 2886 4159 
Q 2644 4219 2406 4219 
Q 1781 4219 1451 3797 
Q 1122 3375 1075 2522 
Q 1259 2794 1537 2939 
Q 1816 3084 2150 3084 
Q 2853 3084 3261 2657 
Q 3669 2231 3669 1497 
Q 3669 778 3244 343 
Q 2819 -91 2113 -91 
Q 1303 -91 875 529 
Q 447 1150 447 2328 
Q 447 3434 972 4092 
Q 1497 4750 2381 4750 
Q 2619 4750 2861 4703 
Q 3103 4656 3366 4563 
z
" transform="scale(0.015625)"/>
       </defs>
       <use xlink:href="#DejaVuSans-36"/>
       <use xlink:href="#DejaVuSans-30" x="63.623047"/>
      </g>
     </g>
    </g>
    <g id="xtick_5">
     <g id="line2d_6">
      <g>
       <use xlink:href="#m1ebe71a9e6" x="1201.621357" y="128.16" style="stroke: #000000; stroke-width: 0.8"/>
      </g>
     </g>
     <g id="text_5">
      <!-- 80 -->
      <g transform="translate(1195.258857 142.758438) scale(0.1 -0.1)">
       <defs>
        <path id="DejaVuSans-38" d="M 2034 2216 
Q 1584 2216 1326 1975 
Q 1069 1734 1069 1313 
Q 1069 891 1326 650 
Q 1584 409 2034 409 
Q 2484 409 2743 651 
Q 3003 894 3003 1313 
Q 3003 1734 2745 1975 
Q 2488 2216 2034 2216 
z
M 1403 2484 
Q 997 2584 770 2862 
Q 544 3141 544 3541 
Q 544 4100 942 4425 
Q 1341 4750 2034 4750 
Q 2731 4750 3128 4425 
Q 3525 4100 3525 3541 
Q 3525 3141 3298 2862 
Q 3072 2584 2669 2484 
Q 3125 2378 3379 2068 
Q 3634 1759 3634 1313 
Q 3634 634 3220 271 
Q 2806 -91 2034 -91 
Q 1263 -91 848 271 
Q 434 634 434 1313 
Q 434 1759 690 2068 
Q 947 2378 1403 2484 
z
M 1172 3481 
Q 1172 3119 1398 2916 
Q 1625 2713 2034 2713 
Q 2441 2713 2670 2916 
Q 2900 3119 2900 3481 
Q 2900 3844 2670 4047 
Q 2441 4250 2034 4250 
Q 1625 4250 1398 4047 
Q 1172 3844 1172 3481 
z
" transform="scale(0.015625)"/>
       </defs>
       <use xlink:href="#DejaVuSans-38"/>
       <use xlink:href="#DejaVuSans-30" x="63.623047"/>
      </g>
     </g>
    </g>
    <g id="xtick_6">
     <g id="line2d_7">
      <g>
       <use xlink:href="#m1ebe71a9e6" x="1444.335581" y="128.16" style="stroke: #000000; stroke-width: 0.8"/>
      </g>
     </g>
     <g id="text_6">
      <!-- 100 -->
      <g transform="translate(1434.791831 142.758438) scale(0.1 -0.1)">
       <defs>
        <path id="DejaVuSans-31" d="M 794 531 
L 1825 531 
L 1825 4091 
L 703 3866 
L 703 4441 
L 1819 4666 
L 2450 4666 
L 2450 531 
L 3481 531 
L 3481 0 
L 794 0 
L 794 531 
z
" transform="scale(0.015625)"/>
       </defs>
       <use xlink:href="#DejaVuSans-31"/>
       <use xlink:href="#DejaVuSans-30" x="63.623047"/>
       <use xlink:href="#DejaVuSans-30" x="127.246094"/>
      </g>
     </g>
    </g>
   </g>
   <g id="matplotlib.axis_2">
    <g id="ytick_1">
     <g id="line2d_8">
      <defs>
       <path id="mcb04c95197" d="M 0 0 
L -3.5 0 
" style="stroke: #000000; stroke-width: 0.8"/>
      </defs>
      <g>
       <use xlink:href="#mcb04c95197" x="225" y="128.16" style="stroke: #000000; stroke-width: 0.8"/>
      </g>
     </g>
     <g id="text_7">
      <!-- 0.0 -->
      <g transform="translate(202.096875 131.959219) scale(0.1 -0.1)">
       <defs>
        <path id="DejaVuSans-2e" d="M 684 794 
L 1344 794 
L 1344 0 
L 684 0 
L 684 794 
z
" transform="scale(0.015625)"/>
       </defs>
       <use xlink:href="#DejaVuSans-30"/>
       <use xlink:href="#DejaVuSans-2e" x="63.623047"/>
       <use xlink:href="#DejaVuSans-30" x="95.410156"/>
      </g>
     </g>
    </g>
    <g id="ytick_2">
     <g id="line2d_9">
      <g>
       <use xlink:href="#mcb04c95197" x="225" y="100.44" style="stroke: #000000; stroke-width: 0.8"/>
      </g>
     </g>
     <g id="text_8">
      <!-- 0.5 -->
      <g transform="translate(202.096875 104.239219) scale(0.1 -0.1)">
       <defs>
        <path id="DejaVuSans-35" d="M 691 4666 
L 3169 4666 
L 3169 4134 
L 1269 4134 
L 1269 2991 
Q 1406 3038 1543 3061 
Q 1681 3084 1819 3084 
Q 2600 3084 3056 2656 
Q 3513 2228 3513 1497 
Q 3513 744 3044 326 
Q 2575 -91 1722 -91 
Q 1428 -91 1123 -41 
Q 819 9 494 109 
L 494 744 
Q 775 591 1075 516 
Q 1375 441 1709 441 
Q 2250 441 2565 725 
Q 2881 1009 2881 1497 
Q 2881 1984 2565 2268 
Q 2250 2553 1709 2553 
Q 1456 2553 1204 2497 
Q 953 2441 691 2322 
L 691 4666 
z
" transform="scale(0.015625)"/>
       </defs>
       <use xlink:href="#DejaVuSans-30"/>
       <use xlink:href="#DejaVuSans-2e" x="63.623047"/>
       <use xlink:href="#DejaVuSans-35" x="95.410156"/>
      </g>
     </g>
    </g>
    <g id="ytick_3">
     <g id="line2d_10">
      <g>
       <use xlink:href="#mcb04c95197" x="225" y="72.72" style="stroke: #000000; stroke-width: 0.8"/>
      </g>
     </g>
     <g id="text_9">
      <!-- 1.0 -->
      <g transform="translate(202.096875 76.519219) scale(0.1 -0.1)">
       <use xlink:href="#DejaVuSans-31"/>
       <use xlink:href="#DejaVuSans-2e" x="63.623047"/>
       <use xlink:href="#DejaVuSans-30" x="95.410156"/>
      </g>
     </g>
    </g>
    <g id="ytick_4">
     <g id="line2d_11">
      <g>
       <use xlink:href="#mcb04c95197" x="225" y="45" style="stroke: #000000; stroke-width: 0.8"/>
      </g>
     </g>
     <g id="text_10">
      <!-- 1.5 -->
      <g transform="translate(202.096875 48.799219) scale(0.1 -0.1)">
       <use xlink:href="#DejaVuSans-31"/>
       <use xlink:href="#DejaVuSans-2e" x="63.623047"/>
       <use xlink:href="#DejaVuSans-35" x="95.410156"/>
      </g>
     </g>
    </g>
    <g id="ytick_5">
     <g id="line2d_12">
      <g>
       <use xlink:href="#mcb04c95197" x="225" y="17.28" style="stroke: #000000; stroke-width: 0.8"/>
      </g>
     </g>
     <g id="text_11">
      <!-- 2.0 -->
      <g transform="translate(202.096875 21.079219) scale(0.1 -0.1)">
       <use xlink:href="#DejaVuSans-32"/>
       <use xlink:href="#DejaVuSans-2e" x="63.623047"/>
       <use xlink:href="#DejaVuSans-30" x="95.410156"/>
      </g>
     </g>
    </g>
   </g>
  </g>
 </g>
 <defs>
  <clipPath id="pcda6e61b8d">
   <rect x="225" y="17.28" width="1395" height="110.88"/>
  </clipPath>
 </defs>
</svg>
