<?xml version="1.0" encoding="utf-8" standalone="no"?>
<!DOCTYPE svg PUBLIC "-//W3C//DTD SVG 1.1//EN"
  "http://www.w3.org/Graphics/SVG/1.1/DTD/svg11.dtd">
<svg xmlns:xlink="http://www.w3.org/1999/xlink" width="1800pt" height="144pt" viewBox="0 0 1800 144" xmlns="http://www.w3.org/2000/svg" version="1.1">
 <metadata>
  <rdf:RDF xmlns:dc="http://purl.org/dc/elements/1.1/" xmlns:cc="http://creativecommons.org/ns#" xmlns:rdf="http://www.w3.org/1999/02/22-rdf-syntax-ns#">
   <cc:Work>
    <dc:type rdf:resource="http://purl.org/dc/dcmitype/StillImage"/>
    <dc:date>2025-05-09T21:09:12.143386</dc:date>
    <dc:format>image/svg+xml</dc:format>
    <dc:creator>
     <cc:Agent>
      <dc:title>Matplotlib v3.8.0, https://matplotlib.org/</dc:title>
     </cc:Agent>
    </dc:creator>
   </cc:Work>
  </rdf:RDF>
 </metadata>
 <defs>
  <style type="text/css">*{stroke-linejoin: round; stroke-linecap: butt}</style>
 </defs>
 <g id="figure_1">
  <g id="patch_1">
   <path d="M 0 144 
L 1800 144 
L 1800 0 
L 0 0 
z
" style="fill: #ffffff"/>
  </g>
  <g id="axes_1">
   <g id="patch_2">
    <path d="M 225 128.16 
L 1620 128.16 
L 1620 17.28 
L 225 17.28 
z
" style="fill: #ffffff"/>
   </g>
   <g id="line2d_1">
    <path d="M 225 128.16 
L 1620 128.16 
" clip-path="url(#p94cde8c3cf)" style="fill: none; stroke: #000000; stroke-width: 1.5; stroke-linecap: square"/>
   </g>
   <g id="patch_3">
    <path d="M 225 17.28 
L 230.753289 17.28 
L 234.74414 76.617197 
L 238.761296 17.28 
L 244.503311 17.28 
L 244.503311 128.16 
L 240.230621 128.16 
L 240.230621 47.055534 
L 236.190917 106.844235 
L 233.323668 106.844235 
L 229.283964 47.055534 
L 229.283964 128.16 
L 225 128.16 
L 225 17.28 
z
" clip-path="url(#p94cde8c3cf)" style="fill: #21599c"/>
   </g>
   <g id="patch_4">
    <path d="M 245.529801 17.28 
L 250.669447 17.28 
L 250.669447 57.749061 
L 258.077715 17.28 
L 264.046198 17.28 
L 254.446211 69.797102 
L 265.033113 128.16 
L 258.598942 128.16 
L 250.669447 84.48288 
L 250.669447 128.16 
L 245.529801 128.16 
L 245.529801 17.28 
z
" clip-path="url(#p94cde8c3cf)" style="fill: #bd2e1f"/>
   </g>
   <g id="patch_5">
    <path d="M 266.059603 17.28 
L 271.199249 17.28 
L 271.199249 57.749061 
L 278.607516 17.28 
L 284.575999 17.28 
L 274.976012 69.797102 
L 285.562914 128.16 
L 279.128744 128.16 
L 271.199249 84.48288 
L 271.199249 128.16 
L 266.059603 128.16 
L 266.059603 17.28 
z
" clip-path="url(#p94cde8c3cf)" style="fill: #bd2e1f"/>
   </g>
   <g id="patch_6">
    <path d="M 294.502785 66.446464 
Q 296.253082 66.446464 297.01247 63.119589 
Q 297.771858 59.76895 297.771858 52.117137 
Q 297.771858 44.536614 297.01247 41.281029 
Q 296.253082 38.00168 294.502785 38.00168 
L 292.159794 38.00168 
L 292.159794 66.446464 
L 294.502785 66.446464 
z
M 292.159794 86.193845 
L 292.159794 128.16 
L 286.589404 128.16 
L 286.589404 17.28 
L 295.095478 17.28 
Q 299.364721 17.28 301.351169 24.646652 
Q 303.342248 31.989541 303.342248 47.887252 
Q 303.342248 58.865941 302.305035 65.923669 
Q 301.272452 72.981397 299.188765 76.332036 
Q 300.332478 77.662786 301.235409 82.391702 
Q 302.142971 87.096854 303.069054 96.673502 
L 306.092715 128.16 
L 300.161153 128.16 
L 297.526446 100.618225 
Q 296.730015 92.301037 295.910431 89.259323 
Q 295.095478 86.193845 293.734136 86.193845 
L 292.159794 86.193845 
z
" clip-path="url(#p94cde8c3cf)" style="fill: #bd2e1f"/>
   </g>
   <g id="patch_7">
    <path d="M 307.119205 17.28 
L 312.258851 17.28 
L 312.258851 57.749061 
L 319.667119 17.28 
L 325.635602 17.28 
L 316.035615 69.797102 
L 326.622517 128.16 
L 320.188346 128.16 
L 312.258851 84.48288 
L 312.258851 128.16 
L 307.119205 128.16 
L 307.119205 17.28 
z
" clip-path="url(#p94cde8c3cf)" style="fill: #bd2e1f"/>
   </g>
   <g id="patch_8">
    <path d="M 341.158967 107.961114 
L 333.658307 107.961114 
L 332.473993 128.16 
L 327.649007 128.16 
L 334.539565 17.28 
L 340.261759 17.28 
L 347.152318 128.16 
L 342.331319 128.16 
L 341.158967 107.961114 
z
M 334.854585 87.382015 
L 339.950727 87.382015 
L 337.406644 43.277154 
L 334.854585 87.382015 
z
" clip-path="url(#p94cde8c3cf)" style="fill: #21599c"/>
   </g>
   <g id="patch_9">
    <path d="M 356.092189 66.446464 
Q 357.842486 66.446464 358.601874 63.119589 
Q 359.361262 59.76895 359.361262 52.117137 
Q 359.361262 44.536614 358.601874 41.281029 
Q 357.842486 38.00168 356.092189 38.00168 
L 353.749198 38.00168 
L 353.749198 66.446464 
L 356.092189 66.446464 
z
M 353.749198 86.193845 
L 353.749198 128.16 
L 348.178808 128.16 
L 348.178808 17.28 
L 356.684882 17.28 
Q 360.954125 17.28 362.940573 24.646652 
Q 364.931652 31.989541 364.931652 47.887252 
Q 364.931652 58.865941 363.894439 65.923669 
Q 362.861856 72.981397 360.778169 76.332036 
Q 361.921882 77.662786 362.824813 82.391702 
Q 363.732375 87.096854 364.658458 96.673502 
L 367.682119 128.16 
L 361.750557 128.16 
L 359.11585 100.618225 
Q 358.319419 92.301037 357.499835 89.259323 
Q 356.684882 86.193845 355.323539 86.193845 
L 353.749198 86.193845 
z
" clip-path="url(#p94cde8c3cf)" style="fill: #bd2e1f"/>
   </g>
   <g id="patch_10">
    <path d="M 376.62199 66.446464 
Q 378.372287 66.446464 379.131675 63.119589 
Q 379.891063 59.76895 379.891063 52.117137 
Q 379.891063 44.536614 379.131675 41.281029 
Q 378.372287 38.00168 376.62199 38.00168 
L 374.278999 38.00168 
L 374.278999 66.446464 
L 376.62199 66.446464 
z
M 374.278999 86.193845 
L 374.278999 128.16 
L 368.708609 128.16 
L 368.708609 17.28 
L 377.214683 17.28 
Q 381.483926 17.28 383.470375 24.646652 
Q 385.461454 31.989541 385.461454 47.887252 
Q 385.461454 58.865941 384.42424 65.923669 
Q 383.391658 72.981397 381.307971 76.332036 
Q 382.451683 77.662786 383.354614 82.391702 
Q 384.262176 87.096854 385.188259 96.673502 
L 388.211921 128.16 
L 382.280358 128.16 
L 379.645651 100.618225 
Q 378.84922 92.301037 378.029636 89.259323 
Q 377.214683 86.193845 375.853341 86.193845 
L 374.278999 86.193845 
z
" clip-path="url(#p94cde8c3cf)" style="fill: #bd2e1f"/>
   </g>
   <g id="patch_11">
    <path d="M 395.45123 17.28 
L 402.528902 17.28 
L 402.528902 128.16 
L 395.45123 128.16 
L 395.45123 17.28 
z
" clip-path="url(#p94cde8c3cf)" style="fill: #21599c"/>
   </g>
   <g id="patch_12">
    <path d="M 409.768212 17.28 
L 428.865572 17.28 
L 428.865572 38.904689 
L 416.845884 38.904689 
L 416.845884 59.531316 
L 428.153686 59.531316 
L 428.153686 81.156005 
L 416.845884 81.156005 
L 416.845884 106.559074 
L 429.271523 106.559074 
L 429.271523 128.16 
L 409.768212 128.16 
L 409.768212 17.28 
z
" clip-path="url(#p94cde8c3cf)" style="fill: #6b296b"/>
   </g>
   <g id="patch_13">
    <path d="M 448.175166 22.570907 
L 448.175166 45.200413 
Q 446.141143 41.260863 444.202465 39.268184 
Q 442.269084 37.252601 440.547581 37.252601 
Q 438.264602 37.252601 437.168137 39.978219 
Q 436.076968 42.680934 436.076968 48.407023 
Q 436.076968 52.713043 436.813242 55.118 
Q 437.549516 57.500054 439.488194 59.217881 
L 442.200224 61.57703 
Q 446.321239 65.173014 448.058633 72.479504 
Q 449.801325 79.76309 449.801325 93.230853 
Q 449.801325 110.890114 447.375329 119.525057 
Q 444.949333 128.16 439.964918 128.16 
Q 437.618376 128.16 435.250647 126.21313 
Q 432.882917 124.289163 430.515188 120.48704 
L 430.515188 97.239116 
Q 432.882917 102.667449 435.091739 105.438876 
Q 437.30056 108.187399 439.355771 108.187399 
Q 441.442763 108.187399 442.549822 105.186928 
Q 443.656881 102.163553 443.656881 96.574889 
Q 443.656881 91.581739 442.904716 88.856121 
Q 442.152552 86.130502 439.901355 83.977492 
L 437.432983 81.618343 
Q 433.72513 78.18269 432.008923 70.67006 
Q 430.298013 63.15743 430.298013 50.422607 
Q 430.298013 34.458269 432.681634 25.869134 
Q 435.065254 17.28 439.535866 17.28 
Q 441.575186 17.28 443.725741 18.608453 
Q 445.876296 19.936906 448.175166 22.570907 
z
" clip-path="url(#p94cde8c3cf)" style="fill: #40ba47"/>
   </g>
   <g id="patch_14">
    <path d="M 450.827815 17.28 
L 470.331126 17.28 
L 470.331126 38.904689 
L 463.314469 38.904689 
L 463.314469 128.16 
L 457.858078 128.16 
L 457.858078 38.904689 
L 450.827815 38.904689 
L 450.827815 17.28 
z
" clip-path="url(#p94cde8c3cf)" style="fill: #40ba47"/>
   </g>
   <g id="patch_15">
    <path d="M 471.357616 17.28 
L 476.182602 17.28 
L 481.115253 99.121132 
L 486.039929 17.28 
L 490.860927 17.28 
L 483.970369 128.16 
L 478.248174 128.16 
L 471.357616 17.28 
z
" clip-path="url(#p94cde8c3cf)" style="fill: #21599c"/>
   </g>
   <g id="patch_16">
    <path d="M 497.231946 38.904689 
L 497.231946 106.559074 
L 499.146736 106.559074 
Q 502.420982 106.559074 504.14918 97.861672 
Q 505.881821 89.164269 505.881821 72.601183 
Q 505.881821 56.13315 504.158065 47.530802 
Q 502.438753 38.904689 499.146736 38.904689 
L 497.231946 38.904689 
z
M 491.887417 17.28 
L 497.52072 17.28 
Q 502.243276 17.28 504.553463 20.892036 
Q 506.86365 24.480309 508.516322 33.106421 
Q 509.973517 40.615654 510.679902 50.429936 
Q 511.390728 60.220454 511.390728 72.601183 
Q 511.390728 85.172019 510.679902 95.010064 
Q 509.973517 104.84811 508.516322 112.333579 
Q 506.850322 120.959691 504.517922 124.571727 
Q 502.185521 128.16 497.52072 128.16 
L 491.887417 128.16 
L 491.887417 17.28 
z
" clip-path="url(#p94cde8c3cf)" style="fill: #6b296b"/>
   </g>
   <g id="patch_17">
    <path d="M 518.630038 17.28 
L 525.70771 17.28 
L 525.70771 128.16 
L 518.630038 128.16 
L 518.630038 17.28 
z
" clip-path="url(#p94cde8c3cf)" style="fill: #21599c"/>
   </g>
   <g id="patch_18">
    <path d="M 538.291549 38.904689 
L 538.291549 106.559074 
L 540.206339 106.559074 
Q 543.480585 106.559074 545.208783 97.861672 
Q 546.941423 89.164269 546.941423 72.601183 
Q 546.941423 56.13315 545.217668 47.530802 
Q 543.498356 38.904689 540.206339 38.904689 
L 538.291549 38.904689 
z
M 532.94702 17.28 
L 538.580323 17.28 
Q 543.302878 17.28 545.613066 20.892036 
Q 547.923253 24.480309 549.575925 33.106421 
Q 551.03312 40.615654 551.739504 50.429936 
Q 552.450331 60.220454 552.450331 72.601183 
Q 552.450331 85.172019 551.739504 95.010064 
Q 551.03312 104.84811 549.575925 112.333579 
Q 547.909925 120.959691 545.577524 124.571727 
Q 543.245124 128.16 538.580323 128.16 
L 532.94702 128.16 
L 532.94702 17.28 
z
" clip-path="url(#p94cde8c3cf)" style="fill: #6b296b"/>
   </g>
   <g id="patch_19">
    <path d="M 553.476821 17.28 
L 560.554493 17.28 
L 560.554493 106.559074 
L 572.980132 106.559074 
L 572.980132 128.16 
L 553.476821 128.16 
L 553.476821 17.28 
z
" clip-path="url(#p94cde8c3cf)" style="fill: #21599c"/>
   </g>
   <g id="patch_20">
    <path d="M 584.278366 111.578719 
L 583.896427 111.578719 
Q 579.211569 111.578719 576.607064 99.152512 
Q 574.006623 86.706798 574.006623 64.526897 
Q 574.006623 42.38601 576.603001 29.842759 
Q 579.199379 17.28 583.758278 17.28 
Q 588.365935 17.28 590.937935 29.725714 
Q 593.509934 42.151921 593.509934 64.526897 
Q 593.509934 79.879212 592.144702 90.978916 
Q 590.77947 102.078621 588.215597 107.677241 
L 592.034996 128.16 
L 587.374517 128.16 
L 584.278366 111.578719 
z
M 583.758278 34.290443 
Q 581.523524 34.290443 580.292377 42.210443 
Q 579.061231 50.130443 579.061231 64.526897 
Q 579.061231 79.157438 580.263935 86.940887 
Q 581.470702 94.704828 583.758278 94.704828 
Q 586.005222 94.704828 587.236369 86.784828 
Q 588.467515 78.84532 588.467515 64.526897 
Q 588.467515 50.130443 587.236369 42.210443 
Q 586.005222 34.290443 583.758278 34.290443 
z
" clip-path="url(#p94cde8c3cf)" style="fill: #40ba47"/>
   </g>
   <g id="patch_21">
    <path d="M 600.749243 17.28 
L 607.826916 17.28 
L 607.826916 128.16 
L 600.749243 128.16 
L 600.749243 17.28 
z
" clip-path="url(#p94cde8c3cf)" style="fill: #21599c"/>
   </g>
   <g id="patch_22">
    <path d="M 615.066225 17.28 
L 621.330982 17.28 
L 629.247059 93.322863 
L 629.247059 17.28 
L 634.569536 17.28 
L 634.569536 128.16 
L 628.300115 128.16 
L 620.384038 52.117137 
L 620.384038 128.16 
L 615.066225 128.16 
L 615.066225 17.28 
z
" clip-path="url(#p94cde8c3cf)" style="fill: #40ba47"/>
   </g>
   <g id="patch_23">
    <path d="M 640.940556 38.904689 
L 640.940556 106.559074 
L 642.855346 106.559074 
Q 646.129592 106.559074 647.857789 97.861672 
Q 649.59043 89.164269 649.59043 72.601183 
Q 649.59043 56.13315 647.866675 47.530802 
Q 646.147362 38.904689 642.855346 38.904689 
L 640.940556 38.904689 
z
M 635.596026 17.28 
L 641.229329 17.28 
Q 645.951885 17.28 648.262072 20.892036 
Q 650.572259 24.480309 652.224932 33.106421 
Q 653.682127 40.615654 654.388511 50.429936 
Q 655.099338 60.220454 655.099338 72.601183 
Q 655.099338 85.172019 654.388511 95.010064 
Q 653.682127 104.84811 652.224932 112.333579 
Q 650.558931 120.959691 648.226531 124.571727 
Q 645.89413 128.16 641.229329 128.16 
L 635.596026 128.16 
L 635.596026 17.28 
z
" clip-path="url(#p94cde8c3cf)" style="fill: #6b296b"/>
   </g>
   <g id="patch_24">
    <path d="M 662.338647 17.28 
L 669.41632 17.28 
L 669.41632 128.16 
L 662.338647 128.16 
L 662.338647 17.28 
z
" clip-path="url(#p94cde8c3cf)" style="fill: #21599c"/>
   </g>
   <g id="patch_25">
    <path d="M 676.655629 17.28 
L 682.920386 17.28 
L 690.836463 93.322863 
L 690.836463 17.28 
L 696.15894 17.28 
L 696.15894 128.16 
L 689.889519 128.16 
L 681.973442 52.117137 
L 681.973442 128.16 
L 676.655629 128.16 
L 676.655629 17.28 
z
" clip-path="url(#p94cde8c3cf)" style="fill: #40ba47"/>
   </g>
   <g id="patch_26">
    <path d="M 697.18543 17.28 
L 704.263103 17.28 
L 704.263103 106.559074 
L 716.688742 106.559074 
L 716.688742 128.16 
L 697.18543 128.16 
L 697.18543 17.28 
z
" clip-path="url(#p94cde8c3cf)" style="fill: #21599c"/>
   </g>
   <g id="patch_27">
    <path d="M 727.986976 111.578719 
L 727.605036 111.578719 
Q 722.920178 111.578719 720.315673 99.152512 
Q 717.715232 86.706798 717.715232 64.526897 
Q 717.715232 42.38601 720.31161 29.842759 
Q 722.907988 17.28 727.466887 17.28 
Q 732.074545 17.28 734.646544 29.725714 
Q 737.218543 42.151921 737.218543 64.526897 
Q 737.218543 79.879212 735.853311 90.978916 
Q 734.488079 102.078621 731.924207 107.677241 
L 735.743605 128.16 
L 731.083126 128.16 
L 727.986976 111.578719 
z
M 727.466887 34.290443 
Q 725.232133 34.290443 724.000986 42.210443 
Q 722.76984 50.130443 722.76984 64.526897 
Q 722.76984 79.157438 723.972544 86.940887 
Q 725.179312 94.704828 727.466887 94.704828 
Q 729.713831 94.704828 730.944978 86.784828 
Q 732.176124 78.84532 732.176124 64.526897 
Q 732.176124 50.130443 730.944978 42.210443 
Q 729.713831 34.290443 727.466887 34.290443 
z
" clip-path="url(#p94cde8c3cf)" style="fill: #40ba47"/>
   </g>
   <g id="patch_28">
    <path d="M 744.457853 17.28 
L 751.535525 17.28 
L 751.535525 128.16 
L 744.457853 128.16 
L 744.457853 17.28 
z
" clip-path="url(#p94cde8c3cf)" style="fill: #21599c"/>
   </g>
   <g id="patch_29">
    <path d="M 764.119364 38.904689 
L 764.119364 106.559074 
L 766.034153 106.559074 
Q 769.3084 106.559074 771.036597 97.861672 
Q 772.769238 89.164269 772.769238 72.601183 
Q 772.769238 56.13315 771.045483 47.530802 
Q 769.32617 38.904689 766.034153 38.904689 
L 764.119364 38.904689 
z
M 758.774834 17.28 
L 764.408137 17.28 
Q 769.130693 17.28 771.44088 20.892036 
Q 773.751067 24.480309 775.40374 33.106421 
Q 776.860935 40.615654 777.567319 50.429936 
Q 778.278146 60.220454 778.278146 72.601183 
Q 778.278146 85.172019 777.567319 95.010064 
Q 776.860935 104.84811 775.40374 112.333579 
Q 773.737739 120.959691 771.405339 124.571727 
Q 769.072938 128.16 764.408137 128.16 
L 758.774834 128.16 
L 758.774834 17.28 
z
" clip-path="url(#p94cde8c3cf)" style="fill: #6b296b"/>
   </g>
   <g id="patch_30">
    <path d="M 779.304636 17.28 
L 784.444282 17.28 
L 784.444282 57.749061 
L 791.852549 17.28 
L 797.821032 17.28 
L 788.221046 69.797102 
L 798.807947 128.16 
L 792.373777 128.16 
L 784.444282 84.48288 
L 784.444282 128.16 
L 779.304636 128.16 
L 779.304636 17.28 
z
" clip-path="url(#p94cde8c3cf)" style="fill: #bd2e1f"/>
   </g>
   <g id="patch_31">
    <path d="M 799.834437 17.28 
L 804.659423 17.28 
L 809.592074 99.121132 
L 814.51675 17.28 
L 819.337748 17.28 
L 812.44719 128.16 
L 806.724996 128.16 
L 799.834437 17.28 
z
" clip-path="url(#p94cde8c3cf)" style="fill: #21599c"/>
   </g>
   <g id="patch_32">
    <path d="M 838.241391 22.570907 
L 838.241391 45.200413 
Q 836.207368 41.260863 834.26869 39.268184 
Q 832.335309 37.252601 830.613806 37.252601 
Q 828.330827 37.252601 827.234362 39.978219 
Q 826.143193 42.680934 826.143193 48.407023 
Q 826.143193 52.713043 826.879467 55.118 
Q 827.615741 57.500054 829.554419 59.217881 
L 832.266449 61.57703 
Q 836.387464 65.173014 838.124858 72.479504 
Q 839.86755 79.76309 839.86755 93.230853 
Q 839.86755 110.890114 837.441554 119.525057 
Q 835.015558 128.16 830.031143 128.16 
Q 827.684601 128.16 825.316872 126.21313 
Q 822.949142 124.289163 820.581413 120.48704 
L 820.581413 97.239116 
Q 822.949142 102.667449 825.157964 105.438876 
Q 827.366785 108.187399 829.421996 108.187399 
Q 831.508988 108.187399 832.616047 105.186928 
Q 833.723106 102.163553 833.723106 96.574889 
Q 833.723106 91.581739 832.970942 88.856121 
Q 832.218777 86.130502 829.96758 83.977492 
L 827.499209 81.618343 
Q 823.791355 78.18269 822.075148 70.67006 
Q 820.364238 63.15743 820.364238 50.422607 
Q 820.364238 34.458269 822.747859 25.869134 
Q 825.131479 17.28 829.602091 17.28 
Q 831.641411 17.28 833.791966 18.608453 
Q 835.942522 19.936906 838.241391 22.570907 
z
" clip-path="url(#p94cde8c3cf)" style="fill: #40ba47"/>
   </g>
   <g id="patch_33">
    <path d="M 858.771192 22.570907 
L 858.771192 45.200413 
Q 856.73717 41.260863 854.798492 39.268184 
Q 852.865111 37.252601 851.143607 37.252601 
Q 848.860629 37.252601 847.764163 39.978219 
Q 846.672995 42.680934 846.672995 48.407023 
Q 846.672995 52.713043 847.409269 55.118 
Q 848.145542 57.500054 850.08422 59.217881 
L 852.796251 61.57703 
Q 856.917265 65.173014 858.65466 72.479504 
Q 860.397351 79.76309 860.397351 93.230853 
Q 860.397351 110.890114 857.971355 119.525057 
Q 855.545359 128.16 850.560944 128.16 
Q 848.214403 128.16 845.846673 126.21313 
Q 843.478944 124.289163 841.111214 120.48704 
L 841.111214 97.239116 
Q 843.478944 102.667449 845.687765 105.438876 
Q 847.896587 108.187399 849.951797 108.187399 
Q 852.038789 108.187399 853.145848 105.186928 
Q 854.252907 102.163553 854.252907 96.574889 
Q 854.252907 91.581739 853.500743 88.856121 
Q 852.748578 86.130502 850.497381 83.977492 
L 848.02901 81.618343 
Q 844.321156 78.18269 842.604949 70.67006 
Q 840.89404 63.15743 840.89404 50.422607 
Q 840.89404 34.458269 843.27766 25.869134 
Q 845.66128 17.28 850.131893 17.28 
Q 852.171212 17.28 854.321768 18.608453 
Q 856.472323 19.936906 858.771192 22.570907 
z
" clip-path="url(#p94cde8c3cf)" style="fill: #40ba47"/>
   </g>
   <g id="patch_34">
    <path d="M 866.76837 38.904689 
L 866.76837 106.559074 
L 868.68316 106.559074 
Q 871.957406 106.559074 873.685604 97.861672 
Q 875.418244 89.164269 875.418244 72.601183 
Q 875.418244 56.13315 873.694489 47.530802 
Q 871.975177 38.904689 868.68316 38.904689 
L 866.76837 38.904689 
z
M 861.423841 17.28 
L 867.057144 17.28 
Q 871.779699 17.28 874.089887 20.892036 
Q 876.400074 24.480309 878.052746 33.106421 
Q 879.509941 40.615654 880.216325 50.429936 
Q 880.927152 60.220454 880.927152 72.601183 
Q 880.927152 85.172019 880.216325 95.010064 
Q 879.509941 104.84811 878.052746 112.333579 
Q 876.386746 120.959691 874.054345 124.571727 
Q 871.721945 128.16 867.057144 128.16 
L 861.423841 128.16 
L 861.423841 17.28 
z
" clip-path="url(#p94cde8c3cf)" style="fill: #6b296b"/>
   </g>
   <g id="patch_35">
    <path d="M 899.830795 22.570907 
L 899.830795 45.200413 
Q 897.796772 41.260863 895.858094 39.268184 
Q 893.924713 37.252601 892.20321 37.252601 
Q 889.920231 37.252601 888.823766 39.978219 
Q 887.732597 42.680934 887.732597 48.407023 
Q 887.732597 52.713043 888.468871 55.118 
Q 889.205145 57.500054 891.143823 59.217881 
L 893.855853 61.57703 
Q 897.976868 65.173014 899.714262 72.479504 
Q 901.456954 79.76309 901.456954 93.230853 
Q 901.456954 110.890114 899.030958 119.525057 
Q 896.604962 128.16 891.620547 128.16 
Q 889.274005 128.16 886.906276 126.21313 
Q 884.538546 124.289163 882.170817 120.48704 
L 882.170817 97.239116 
Q 884.538546 102.667449 886.747368 105.438876 
Q 888.956189 108.187399 891.0114 108.187399 
Q 893.098392 108.187399 894.205451 105.186928 
Q 895.31251 102.163553 895.31251 96.574889 
Q 895.31251 91.581739 894.560345 88.856121 
Q 893.808181 86.130502 891.556984 83.977492 
L 889.088613 81.618343 
Q 885.380759 78.18269 883.664552 70.67006 
Q 881.953642 63.15743 881.953642 50.422607 
Q 881.953642 34.458269 884.337263 25.869134 
Q 886.720883 17.28 891.191495 17.28 
Q 893.230815 17.28 895.38137 18.608453 
Q 897.531925 19.936906 899.830795 22.570907 
z
" clip-path="url(#p94cde8c3cf)" style="fill: #40ba47"/>
   </g>
   <g id="patch_36">
    <path d="M 902.483444 17.28 
L 921.580804 17.28 
L 921.580804 38.904689 
L 909.561116 38.904689 
L 909.561116 59.531316 
L 920.868918 59.531316 
L 920.868918 81.156005 
L 909.561116 81.156005 
L 909.561116 106.559074 
L 921.986755 106.559074 
L 921.986755 128.16 
L 902.483444 128.16 
L 902.483444 17.28 
z
" clip-path="url(#p94cde8c3cf)" style="fill: #6b296b"/>
   </g>
   <g id="patch_37">
    <path d="M 923.013245 17.28 
L 928.152891 17.28 
L 928.152891 57.749061 
L 935.561159 17.28 
L 941.529642 17.28 
L 931.929655 69.797102 
L 942.516556 128.16 
L 936.082386 128.16 
L 928.152891 84.48288 
L 928.152891 128.16 
L 923.013245 128.16 
L 923.013245 17.28 
z
" clip-path="url(#p94cde8c3cf)" style="fill: #bd2e1f"/>
   </g>
   <g id="patch_38">
    <path d="M 943.543046 17.28 
L 949.296335 17.28 
L 953.287186 76.617197 
L 957.304342 17.28 
L 963.046358 17.28 
L 963.046358 128.16 
L 958.773667 128.16 
L 958.773667 47.055534 
L 954.733964 106.844235 
L 951.866714 106.844235 
L 947.827011 47.055534 
L 947.827011 128.16 
L 943.543046 128.16 
L 943.543046 17.28 
z
" clip-path="url(#p94cde8c3cf)" style="fill: #21599c"/>
   </g>
   <g id="patch_39">
    <path d="M 964.072848 17.28 
L 969.212494 17.28 
L 969.212494 57.749061 
L 976.620761 17.28 
L 982.589244 17.28 
L 972.989257 69.797102 
L 983.576159 128.16 
L 977.141989 128.16 
L 969.212494 84.48288 
L 969.212494 128.16 
L 964.072848 128.16 
L 964.072848 17.28 
z
" clip-path="url(#p94cde8c3cf)" style="fill: #bd2e1f"/>
   </g>
   <g id="patch_40">
    <path d="M 984.602649 17.28 
L 990.867406 17.28 
L 998.783483 93.322863 
L 998.783483 17.28 
L 1004.10596 17.28 
L 1004.10596 128.16 
L 997.836539 128.16 
L 989.920462 52.117137 
L 989.920462 128.16 
L 984.602649 128.16 
L 984.602649 17.28 
z
" clip-path="url(#p94cde8c3cf)" style="fill: #40ba47"/>
   </g>
   <g id="patch_41">
    <path d="M 1005.13245 17.28 
L 1024.22981 17.28 
L 1024.22981 38.904689 
L 1012.210123 38.904689 
L 1012.210123 59.531316 
L 1023.517925 59.531316 
L 1023.517925 81.156005 
L 1012.210123 81.156005 
L 1012.210123 106.559074 
L 1024.635762 106.559074 
L 1024.635762 128.16 
L 1005.13245 128.16 
L 1005.13245 17.28 
z
" clip-path="url(#p94cde8c3cf)" style="fill: #6b296b"/>
   </g>
   <g id="patch_42">
    <path d="M 1039.172213 107.961114 
L 1031.671552 107.961114 
L 1030.487238 128.16 
L 1025.662252 128.16 
L 1032.55281 17.28 
L 1038.275004 17.28 
L 1045.165563 128.16 
L 1040.344564 128.16 
L 1039.172213 107.961114 
z
M 1032.86783 87.382015 
L 1037.963972 87.382015 
L 1035.419889 43.277154 
L 1032.86783 87.382015 
z
" clip-path="url(#p94cde8c3cf)" style="fill: #21599c"/>
   </g>
   <g id="patch_43">
    <path d="M 1046.192053 17.28 
L 1051.017039 17.28 
L 1055.94969 99.121132 
L 1060.874366 17.28 
L 1065.695364 17.28 
L 1058.804806 128.16 
L 1053.082612 128.16 
L 1046.192053 17.28 
z
" clip-path="url(#p94cde8c3cf)" style="fill: #21599c"/>
   </g>
   <g id="patch_44">
    <path d="M 1066.721854 17.28 
L 1073.799527 17.28 
L 1073.799527 106.559074 
L 1086.225166 106.559074 
L 1086.225166 128.16 
L 1066.721854 128.16 
L 1066.721854 17.28 
z
" clip-path="url(#p94cde8c3cf)" style="fill: #21599c"/>
   </g>
   <g id="patch_45">
    <path d="M 1087.251656 17.28 
L 1093.516412 17.28 
L 1101.432489 93.322863 
L 1101.432489 17.28 
L 1106.754967 17.28 
L 1106.754967 128.16 
L 1100.485546 128.16 
L 1092.569468 52.117137 
L 1092.569468 128.16 
L 1087.251656 128.16 
L 1087.251656 17.28 
z
" clip-path="url(#p94cde8c3cf)" style="fill: #40ba47"/>
   </g>
   <g id="patch_46">
    <path d="M 1107.781457 17.28 
L 1114.859129 17.28 
L 1114.859129 106.559074 
L 1127.284768 106.559074 
L 1127.284768 128.16 
L 1107.781457 128.16 
L 1107.781457 17.28 
z
" clip-path="url(#p94cde8c3cf)" style="fill: #21599c"/>
   </g>
   <g id="patch_47">
    <path d="M 1134.524078 17.28 
L 1141.60175 17.28 
L 1141.60175 128.16 
L 1134.524078 128.16 
L 1134.524078 17.28 
z
" clip-path="url(#p94cde8c3cf)" style="fill: #21599c"/>
   </g>
   <g id="patch_48">
    <path d="M 1162.35102 107.961114 
L 1154.85036 107.961114 
L 1153.666046 128.16 
L 1148.84106 128.16 
L 1155.731618 17.28 
L 1161.453812 17.28 
L 1168.344371 128.16 
L 1163.523372 128.16 
L 1162.35102 107.961114 
z
M 1156.046638 87.382015 
L 1161.14278 87.382015 
L 1158.598697 43.277154 
L 1156.046638 87.382015 
z
" clip-path="url(#p94cde8c3cf)" style="fill: #21599c"/>
   </g>
   <g id="patch_49">
    <path d="M 1169.370861 17.28 
L 1174.510507 17.28 
L 1174.510507 57.749061 
L 1181.918774 17.28 
L 1187.887258 17.28 
L 1178.287271 69.797102 
L 1188.874172 128.16 
L 1182.440002 128.16 
L 1174.510507 84.48288 
L 1174.510507 128.16 
L 1169.370861 128.16 
L 1169.370861 17.28 
z
" clip-path="url(#p94cde8c3cf)" style="fill: #bd2e1f"/>
   </g>
   <g id="patch_50">
    <path d="M 1189.900662 17.28 
L 1195.653951 17.28 
L 1199.644802 76.617197 
L 1203.661958 17.28 
L 1209.403974 17.28 
L 1209.403974 128.16 
L 1205.131283 128.16 
L 1205.131283 47.055534 
L 1201.09158 106.844235 
L 1198.22433 106.844235 
L 1194.184627 47.055534 
L 1194.184627 128.16 
L 1189.900662 128.16 
L 1189.900662 17.28 
z
" clip-path="url(#p94cde8c3cf)" style="fill: #21599c"/>
   </g>
   <g id="patch_51">
    <path d="M 1216.643283 17.28 
L 1223.720955 17.28 
L 1223.720955 128.16 
L 1216.643283 128.16 
L 1216.643283 17.28 
z
" clip-path="url(#p94cde8c3cf)" style="fill: #21599c"/>
   </g>
   <g id="patch_52">
    <path d="M 1230.960265 17.28 
L 1250.463576 17.28 
L 1250.463576 38.904689 
L 1243.44692 38.904689 
L 1243.44692 128.16 
L 1237.990528 128.16 
L 1237.990528 38.904689 
L 1230.960265 38.904689 
L 1230.960265 17.28 
z
" clip-path="url(#p94cde8c3cf)" style="fill: #40ba47"/>
   </g>
   <g id="patch_53">
    <path d="M 1256.834595 38.904689 
L 1256.834595 106.559074 
L 1258.749385 106.559074 
Q 1262.023631 106.559074 1263.751829 97.861672 
Q 1265.48447 89.164269 1265.48447 72.601183 
Q 1265.48447 56.13315 1263.760714 47.530802 
Q 1262.041402 38.904689 1258.749385 38.904689 
L 1256.834595 38.904689 
z
M 1251.490066 17.28 
L 1257.123369 17.28 
Q 1261.845925 17.28 1264.156112 20.892036 
Q 1266.466299 24.480309 1268.118971 33.106421 
Q 1269.576166 40.615654 1270.282551 50.429936 
Q 1270.993377 60.220454 1270.993377 72.601183 
Q 1270.993377 85.172019 1270.282551 95.010064 
Q 1269.576166 104.84811 1268.118971 112.333579 
Q 1266.452971 120.959691 1264.120571 124.571727 
Q 1261.78817 128.16 1257.123369 128.16 
L 1251.490066 128.16 
L 1251.490066 17.28 
z
" clip-path="url(#p94cde8c3cf)" style="fill: #6b296b"/>
   </g>
   <g id="patch_54">
    <path d="M 1278.232687 17.28 
L 1285.310359 17.28 
L 1285.310359 128.16 
L 1278.232687 128.16 
L 1278.232687 17.28 
z
" clip-path="url(#p94cde8c3cf)" style="fill: #21599c"/>
   </g>
   <g id="patch_55">
    <path d="M 1298.762488 17.28 
L 1305.840161 17.28 
L 1305.840161 128.16 
L 1298.762488 128.16 
L 1298.762488 17.28 
z
" clip-path="url(#p94cde8c3cf)" style="fill: #21599c"/>
   </g>
   <g id="patch_56">
    <path d="M 1313.07947 17.28 
L 1320.157142 17.28 
L 1320.157142 106.559074 
L 1332.582781 106.559074 
L 1332.582781 128.16 
L 1313.07947 128.16 
L 1313.07947 17.28 
z
" clip-path="url(#p94cde8c3cf)" style="fill: #21599c"/>
   </g>
   <g id="patch_57">
    <path d="M 1333.609272 17.28 
L 1338.748917 17.28 
L 1338.748917 57.749061 
L 1346.157185 17.28 
L 1352.125668 17.28 
L 1342.525681 69.797102 
L 1353.112583 128.16 
L 1346.678413 128.16 
L 1338.748917 84.48288 
L 1338.748917 128.16 
L 1333.609272 128.16 
L 1333.609272 17.28 
z
" clip-path="url(#p94cde8c3cf)" style="fill: #bd2e1f"/>
   </g>
   <g id="patch_58">
    <path d="M 1354.139073 17.28 
L 1373.236433 17.28 
L 1373.236433 38.904689 
L 1361.216745 38.904689 
L 1361.216745 59.531316 
L 1372.524547 59.531316 
L 1372.524547 81.156005 
L 1361.216745 81.156005 
L 1361.216745 106.559074 
L 1373.642384 106.559074 
L 1373.642384 128.16 
L 1354.139073 128.16 
L 1354.139073 17.28 
z
" clip-path="url(#p94cde8c3cf)" style="fill: #6b296b"/>
   </g>
   <g id="patch_59">
    <path d="M 1374.668874 17.28 
L 1381.746546 17.28 
L 1381.746546 106.559074 
L 1394.172185 106.559074 
L 1394.172185 128.16 
L 1374.668874 128.16 
L 1374.668874 17.28 
z
" clip-path="url(#p94cde8c3cf)" style="fill: #21599c"/>
   </g>
   <g id="patch_60">
    <path d="M 1395.198675 17.28 
L 1400.590767 17.28 
L 1404.946234 56.798526 
L 1409.297603 17.28 
L 1414.701987 17.28 
L 1407.416926 81.441166 
L 1407.416926 128.16 
L 1402.487833 128.16 
L 1402.487833 81.441166 
L 1395.198675 17.28 
z
" clip-path="url(#p94cde8c3cf)" style="fill: #177875"/>
   </g>
   <g id="patch_61">
    <path d="M 1415.728477 17.28 
L 1434.825837 17.28 
L 1434.825837 38.904689 
L 1422.806149 38.904689 
L 1422.806149 59.531316 
L 1434.113951 59.531316 
L 1434.113951 81.156005 
L 1422.806149 81.156005 
L 1422.806149 106.559074 
L 1435.231788 106.559074 
L 1435.231788 128.16 
L 1415.728477 128.16 
L 1415.728477 17.28 
z
" clip-path="url(#p94cde8c3cf)" style="fill: #6b296b"/>
   </g>
   <g id="patch_62">
    <path d="M 1441.602807 38.904689 
L 1441.602807 106.559074 
L 1443.517597 106.559074 
Q 1446.791843 106.559074 1448.520041 97.861672 
Q 1450.252681 89.164269 1450.252681 72.601183 
Q 1450.252681 56.13315 1448.528926 47.530802 
Q 1446.809614 38.904689 1443.517597 38.904689 
L 1441.602807 38.904689 
z
M 1436.258278 17.28 
L 1441.891581 17.28 
Q 1446.614137 17.28 1448.924324 20.892036 
Q 1451.234511 24.480309 1452.887183 33.106421 
Q 1454.344378 40.615654 1455.050763 50.429936 
Q 1455.761589 60.220454 1455.761589 72.601183 
Q 1455.761589 85.172019 1455.050763 95.010064 
Q 1454.344378 104.84811 1452.887183 112.333579 
Q 1451.221183 120.959691 1448.888782 124.571727 
Q 1446.556382 128.16 1441.891581 128.16 
L 1436.258278 128.16 
L 1436.258278 17.28 
z
" clip-path="url(#p94cde8c3cf)" style="fill: #6b296b"/>
   </g>
   <g id="patch_63">
    <path d="M 1456.788079 17.28 
L 1461.927725 17.28 
L 1461.927725 57.749061 
L 1469.335993 17.28 
L 1475.304476 17.28 
L 1465.704489 69.797102 
L 1476.291391 128.16 
L 1469.857221 128.16 
L 1461.927725 84.48288 
L 1461.927725 128.16 
L 1456.788079 128.16 
L 1456.788079 17.28 
z
" clip-path="url(#p94cde8c3cf)" style="fill: #bd2e1f"/>
   </g>
   <g id="patch_64">
    <path d="M 1482.66241 38.904689 
L 1482.66241 106.559074 
L 1484.5772 106.559074 
Q 1487.851446 106.559074 1489.579644 97.861672 
Q 1491.312284 89.164269 1491.312284 72.601183 
Q 1491.312284 56.13315 1489.588529 47.530802 
Q 1487.869217 38.904689 1484.5772 38.904689 
L 1482.66241 38.904689 
z
M 1477.317881 17.28 
L 1482.951183 17.28 
Q 1487.673739 17.28 1489.983926 20.892036 
Q 1492.294114 24.480309 1493.946786 33.106421 
Q 1495.403981 40.615654 1496.110365 50.429936 
Q 1496.821192 60.220454 1496.821192 72.601183 
Q 1496.821192 85.172019 1496.110365 95.010064 
Q 1495.403981 104.84811 1493.946786 112.333579 
Q 1492.280786 120.959691 1489.948385 124.571727 
Q 1487.615985 128.16 1482.951183 128.16 
L 1477.317881 128.16 
L 1477.317881 17.28 
z
" clip-path="url(#p94cde8c3cf)" style="fill: #6b296b"/>
   </g>
   <g id="patch_65">
    <path d="M 1515.724835 22.570907 
L 1515.724835 45.200413 
Q 1513.690812 41.260863 1511.752134 39.268184 
Q 1509.818753 37.252601 1508.09725 37.252601 
Q 1505.814271 37.252601 1504.717806 39.978219 
Q 1503.626637 42.680934 1503.626637 48.407023 
Q 1503.626637 52.713043 1504.362911 55.118 
Q 1505.099185 57.500054 1507.037863 59.217881 
L 1509.749893 61.57703 
Q 1513.870908 65.173014 1515.608302 72.479504 
Q 1517.350993 79.76309 1517.350993 93.230853 
Q 1517.350993 110.890114 1514.924998 119.525057 
Q 1512.499002 128.16 1507.514587 128.16 
Q 1505.168045 128.16 1502.800315 126.21313 
Q 1500.432586 124.289163 1498.064856 120.48704 
L 1498.064856 97.239116 
Q 1500.432586 102.667449 1502.641407 105.438876 
Q 1504.850229 108.187399 1506.905439 108.187399 
Q 1508.992431 108.187399 1510.099491 105.186928 
Q 1511.20655 102.163553 1511.20655 96.574889 
Q 1511.20655 91.581739 1510.454385 88.856121 
Q 1509.702221 86.130502 1507.451024 83.977492 
L 1504.982652 81.618343 
Q 1501.274798 78.18269 1499.558592 70.67006 
Q 1497.847682 63.15743 1497.847682 50.422607 
Q 1497.847682 34.458269 1500.231302 25.869134 
Q 1502.614923 17.28 1507.085535 17.28 
Q 1509.124855 17.28 1511.27541 18.608453 
Q 1513.425965 19.936906 1515.724835 22.570907 
z
" clip-path="url(#p94cde8c3cf)" style="fill: #40ba47"/>
   </g>
   <g id="patch_66">
    <path d="M 1518.377483 17.28 
L 1525.455156 17.28 
L 1525.455156 106.559074 
L 1537.880795 106.559074 
L 1537.880795 128.16 
L 1518.377483 128.16 
L 1518.377483 17.28 
z
" clip-path="url(#p94cde8c3cf)" style="fill: #21599c"/>
   </g>
   <g id="patch_67">
    <path d="M 1544.251814 38.904689 
L 1544.251814 106.559074 
L 1546.166604 106.559074 
Q 1549.44085 106.559074 1551.169048 97.861672 
Q 1552.901688 89.164269 1552.901688 72.601183 
Q 1552.901688 56.13315 1551.177933 47.530802 
Q 1549.458621 38.904689 1546.166604 38.904689 
L 1544.251814 38.904689 
z
M 1538.907285 17.28 
L 1544.540587 17.28 
Q 1549.263143 17.28 1551.57333 20.892036 
Q 1553.883518 24.480309 1555.53619 33.106421 
Q 1556.993385 40.615654 1557.699769 50.429936 
Q 1558.410596 60.220454 1558.410596 72.601183 
Q 1558.410596 85.172019 1557.699769 95.010064 
Q 1556.993385 104.84811 1555.53619 112.333579 
Q 1553.87019 120.959691 1551.537789 124.571727 
Q 1549.205389 128.16 1544.540587 128.16 
L 1538.907285 128.16 
L 1538.907285 17.28 
z
" clip-path="url(#p94cde8c3cf)" style="fill: #6b296b"/>
   </g>
   <g id="patch_68">
    <path d="M 1559.437086 17.28 
L 1578.534446 17.28 
L 1578.534446 38.904689 
L 1566.514758 38.904689 
L 1566.514758 59.531316 
L 1577.822561 59.531316 
L 1577.822561 81.156005 
L 1566.514758 81.156005 
L 1566.514758 106.559074 
L 1578.940397 106.559074 
L 1578.940397 128.16 
L 1559.437086 128.16 
L 1559.437086 17.28 
z
" clip-path="url(#p94cde8c3cf)" style="fill: #6b296b"/>
   </g>
   <g id="patch_69">
    <path d="M 1599.470199 118.127891 
Q 1597.503258 123.143945 1595.387704 125.663425 
Q 1593.27215 128.16 1591.016724 128.16 
Q 1585.920162 128.16 1582.943525 113.226358 
Q 1579.966887 98.292716 1579.966887 72.754357 
Q 1579.966887 46.91824 1582.995976 32.09912 
Q 1586.029436 17.28 1591.305209 17.28 
Q 1593.337714 17.28 1595.199752 19.295584 
Q 1597.06616 21.288263 1598.71839 25.227812 
L 1598.71839 47.330518 
Q 1597.013708 42.268655 1595.32651 39.77208 
Q 1593.639312 37.252601 1591.943372 37.252601 
Q 1588.805008 37.252601 1587.104697 46.460153 
Q 1585.404386 55.644801 1585.404386 72.754357 
Q 1585.404386 89.703582 1587.043503 98.956943 
Q 1588.682621 108.187399 1591.698597 108.187399 
Q 1592.520341 108.187399 1593.224069 107.660599 
Q 1593.927796 107.110894 1594.487282 105.965677 
L 1594.487282 85.214328 
L 1591.274612 85.214328 
L 1591.274612 66.73051 
L 1599.470199 66.73051 
L 1599.470199 118.127891 
z
" clip-path="url(#p94cde8c3cf)" style="fill: #787800"/>
   </g>
   <g id="patch_70">
    <path d="M 1600.496689 17.28 
L 1605.888781 17.28 
L 1610.244247 56.798526 
L 1614.595616 17.28 
L 1620 17.28 
L 1612.71494 81.441166 
L 1612.71494 128.16 
L 1607.785846 128.16 
L 1607.785846 81.441166 
L 1600.496689 17.28 
z
" clip-path="url(#p94cde8c3cf)" style="fill: #177875"/>
   </g>
   <g id="matplotlib.axis_1">
    <g id="xtick_1">
     <g id="line2d_2">
      <defs>
       <path id="me56e9874ea" d="M 0 0 
L 0 3.5 
" style="stroke: #000000; stroke-width: 0.8"/>
      </defs>
      <g>
       <use xlink:href="#me56e9874ea" x="234.751656" y="128.16" style="stroke: #000000; stroke-width: 0.8"/>
      </g>
     </g>
     <g id="text_1">
      <!-- 0 -->
      <g transform="translate(231.570406 142.758438) scale(0.1 -0.1)">
       <defs>
        <path id="DejaVuSans-30" d="M 2034 4250 
Q 1547 4250 1301 3770 
Q 1056 3291 1056 2328 
Q 1056 1369 1301 889 
Q 1547 409 2034 409 
Q 2525 409 2770 889 
Q 3016 1369 3016 2328 
Q 3016 3291 2770 3770 
Q 2525 4250 2034 4250 
z
M 2034 4750 
Q 2819 4750 3233 4129 
Q 3647 3509 3647 2328 
Q 3647 1150 3233 529 
Q 2819 -91 2034 -91 
Q 1250 -91 836 529 
Q 422 1150 422 2328 
Q 422 3509 836 4129 
Q 1250 4750 2034 4750 
z
" transform="scale(0.015625)"/>
       </defs>
       <use xlink:href="#DejaVuSans-30"/>
      </g>
     </g>
    </g>
    <g id="xtick_2">
     <g id="line2d_3">
      <g>
       <use xlink:href="#me56e9874ea" x="440.049669" y="128.16" style="stroke: #000000; stroke-width: 0.8"/>
      </g>
     </g>
     <g id="text_2">
      <!-- 10 -->
      <g transform="translate(433.687169 142.758438) scale(0.1 -0.1)">
       <defs>
        <path id="DejaVuSans-31" d="M 794 531 
L 1825 531 
L 1825 4091 
L 703 3866 
L 703 4441 
L 1819 4666 
L 2450 4666 
L 2450 531 
L 3481 531 
L 3481 0 
L 794 0 
L 794 531 
z
" transform="scale(0.015625)"/>
       </defs>
       <use xlink:href="#DejaVuSans-31"/>
       <use xlink:href="#DejaVuSans-30" x="63.623047"/>
      </g>
     </g>
    </g>
    <g id="xtick_3">
     <g id="line2d_4">
      <g>
       <use xlink:href="#me56e9874ea" x="645.347682" y="128.16" style="stroke: #000000; stroke-width: 0.8"/>
      </g>
     </g>
     <g id="text_3">
      <!-- 20 -->
      <g transform="translate(638.985182 142.758438) scale(0.1 -0.1)">
       <defs>
        <path id="DejaVuSans-32" d="M 1228 531 
L 3431 531 
L 3431 0 
L 469 0 
L 469 531 
Q 828 903 1448 1529 
Q 2069 2156 2228 2338 
Q 2531 2678 2651 2914 
Q 2772 3150 2772 3378 
Q 2772 3750 2511 3984 
Q 2250 4219 1831 4219 
Q 1534 4219 1204 4116 
Q 875 4013 500 3803 
L 500 4441 
Q 881 4594 1212 4672 
Q 1544 4750 1819 4750 
Q 2544 4750 2975 4387 
Q 3406 4025 3406 3419 
Q 3406 3131 3298 2873 
Q 3191 2616 2906 2266 
Q 2828 2175 2409 1742 
Q 1991 1309 1228 531 
z
" transform="scale(0.015625)"/>
       </defs>
       <use xlink:href="#DejaVuSans-32"/>
       <use xlink:href="#DejaVuSans-30" x="63.623047"/>
      </g>
     </g>
    </g>
    <g id="xtick_4">
     <g id="line2d_5">
      <g>
       <use xlink:href="#me56e9874ea" x="850.645695" y="128.16" style="stroke: #000000; stroke-width: 0.8"/>
      </g>
     </g>
     <g id="text_4">
      <!-- 30 -->
      <g transform="translate(844.283195 142.758438) scale(0.1 -0.1)">
       <defs>
        <path id="DejaVuSans-33" d="M 2597 2516 
Q 3050 2419 3304 2112 
Q 3559 1806 3559 1356 
Q 3559 666 3084 287 
Q 2609 -91 1734 -91 
Q 1441 -91 1130 -33 
Q 819 25 488 141 
L 488 750 
Q 750 597 1062 519 
Q 1375 441 1716 441 
Q 2309 441 2620 675 
Q 2931 909 2931 1356 
Q 2931 1769 2642 2001 
Q 2353 2234 1838 2234 
L 1294 2234 
L 1294 2753 
L 1863 2753 
Q 2328 2753 2575 2939 
Q 2822 3125 2822 3475 
Q 2822 3834 2567 4026 
Q 2313 4219 1838 4219 
Q 1578 4219 1281 4162 
Q 984 4106 628 3988 
L 628 4550 
Q 988 4650 1302 4700 
Q 1616 4750 1894 4750 
Q 2613 4750 3031 4423 
Q 3450 4097 3450 3541 
Q 3450 3153 3228 2886 
Q 3006 2619 2597 2516 
z
" transform="scale(0.015625)"/>
       </defs>
       <use xlink:href="#DejaVuSans-33"/>
       <use xlink:href="#DejaVuSans-30" x="63.623047"/>
      </g>
     </g>
    </g>
    <g id="xtick_5">
     <g id="line2d_6">
      <g>
       <use xlink:href="#me56e9874ea" x="1055.943709" y="128.16" style="stroke: #000000; stroke-width: 0.8"/>
      </g>
     </g>
     <g id="text_5">
      <!-- 40 -->
      <g transform="translate(1049.581209 142.758438) scale(0.1 -0.1)">
       <defs>
        <path id="DejaVuSans-34" d="M 2419 4116 
L 825 1625 
L 2419 1625 
L 2419 4116 
z
M 2253 4666 
L 3047 4666 
L 3047 1625 
L 3713 1625 
L 3713 1100 
L 3047 1100 
L 3047 0 
L 2419 0 
L 2419 1100 
L 313 1100 
L 313 1709 
L 2253 4666 
z
" transform="scale(0.015625)"/>
       </defs>
       <use xlink:href="#DejaVuSans-34"/>
       <use xlink:href="#DejaVuSans-30" x="63.623047"/>
      </g>
     </g>
    </g>
    <g id="xtick_6">
     <g id="line2d_7">
      <g>
       <use xlink:href="#me56e9874ea" x="1261.241722" y="128.16" style="stroke: #000000; stroke-width: 0.8"/>
      </g>
     </g>
     <g id="text_6">
      <!-- 50 -->
      <g transform="translate(1254.879222 142.758438) scale(0.1 -0.1)">
       <defs>
        <path id="DejaVuSans-35" d="M 691 4666 
L 3169 4666 
L 3169 4134 
L 1269 4134 
L 1269 2991 
Q 1406 3038 1543 3061 
Q 1681 3084 1819 3084 
Q 2600 3084 3056 2656 
Q 3513 2228 3513 1497 
Q 3513 744 3044 326 
Q 2575 -91 1722 -91 
Q 1428 -91 1123 -41 
Q 819 9 494 109 
L 494 744 
Q 775 591 1075 516 
Q 1375 441 1709 441 
Q 2250 441 2565 725 
Q 2881 1009 2881 1497 
Q 2881 1984 2565 2268 
Q 2250 2553 1709 2553 
Q 1456 2553 1204 2497 
Q 953 2441 691 2322 
L 691 4666 
z
" transform="scale(0.015625)"/>
       </defs>
       <use xlink:href="#DejaVuSans-35"/>
       <use xlink:href="#DejaVuSans-30" x="63.623047"/>
      </g>
     </g>
    </g>
    <g id="xtick_7">
     <g id="line2d_8">
      <g>
       <use xlink:href="#me56e9874ea" x="1466.539735" y="128.16" style="stroke: #000000; stroke-width: 0.8"/>
      </g>
     </g>
     <g id="text_7">
      <!-- 60 -->
      <g transform="translate(1460.177235 142.758438) scale(0.1 -0.1)">
       <defs>
        <path id="DejaVuSans-36" d="M 2113 2584 
Q 1688 2584 1439 2293 
Q 1191 2003 1191 1497 
Q 1191 994 1439 701 
Q 1688 409 2113 409 
Q 2538 409 2786 701 
Q 3034 994 3034 1497 
Q 3034 2003 2786 2293 
Q 2538 2584 2113 2584 
z
M 3366 4563 
L 3366 3988 
Q 3128 4100 2886 4159 
Q 2644 4219 2406 4219 
Q 1781 4219 1451 3797 
Q 1122 3375 1075 2522 
Q 1259 2794 1537 2939 
Q 1816 3084 2150 3084 
Q 2853 3084 3261 2657 
Q 3669 2231 3669 1497 
Q 3669 778 3244 343 
Q 2819 -91 2113 -91 
Q 1303 -91 875 529 
Q 447 1150 447 2328 
Q 447 3434 972 4092 
Q 1497 4750 2381 4750 
Q 2619 4750 2861 4703 
Q 3103 4656 3366 4563 
z
" transform="scale(0.015625)"/>
       </defs>
       <use xlink:href="#DejaVuSans-36"/>
       <use xlink:href="#DejaVuSans-30" x="63.623047"/>
      </g>
     </g>
    </g>
   </g>
   <g id="matplotlib.axis_2">
    <g id="ytick_1">
     <g id="line2d_9">
      <defs>
       <path id="m4e3767b8d3" d="M 0 0 
L -3.5 0 
" style="stroke: #000000; stroke-width: 0.8"/>
      </defs>
      <g>
       <use xlink:href="#m4e3767b8d3" x="225" y="128.16" style="stroke: #000000; stroke-width: 0.8"/>
      </g>
     </g>
     <g id="text_8">
      <!-- 0.0 -->
      <g transform="translate(202.096875 131.959219) scale(0.1 -0.1)">
       <defs>
        <path id="DejaVuSans-2e" d="M 684 794 
L 1344 794 
L 1344 0 
L 684 0 
L 684 794 
z
" transform="scale(0.015625)"/>
       </defs>
       <use xlink:href="#DejaVuSans-30"/>
       <use xlink:href="#DejaVuSans-2e" x="63.623047"/>
       <use xlink:href="#DejaVuSans-30" x="95.410156"/>
      </g>
     </g>
    </g>
    <g id="ytick_2">
     <g id="line2d_10">
      <g>
       <use xlink:href="#m4e3767b8d3" x="225" y="100.44" style="stroke: #000000; stroke-width: 0.8"/>
      </g>
     </g>
     <g id="text_9">
      <!-- 0.5 -->
      <g transform="translate(202.096875 104.239219) scale(0.1 -0.1)">
       <use xlink:href="#DejaVuSans-30"/>
       <use xlink:href="#DejaVuSans-2e" x="63.623047"/>
       <use xlink:href="#DejaVuSans-35" x="95.410156"/>
      </g>
     </g>
    </g>
    <g id="ytick_3">
     <g id="line2d_11">
      <g>
       <use xlink:href="#m4e3767b8d3" x="225" y="72.72" style="stroke: #000000; stroke-width: 0.8"/>
      </g>
     </g>
     <g id="text_10">
      <!-- 1.0 -->
      <g transform="translate(202.096875 76.519219) scale(0.1 -0.1)">
       <use xlink:href="#DejaVuSans-31"/>
       <use xlink:href="#DejaVuSans-2e" x="63.623047"/>
       <use xlink:href="#DejaVuSans-30" x="95.410156"/>
      </g>
     </g>
    </g>
    <g id="ytick_4">
     <g id="line2d_12">
      <g>
       <use xlink:href="#m4e3767b8d3" x="225" y="45" style="stroke: #000000; stroke-width: 0.8"/>
      </g>
     </g>
     <g id="text_11">
      <!-- 1.5 -->
      <g transform="translate(202.096875 48.799219) scale(0.1 -0.1)">
       <use xlink:href="#DejaVuSans-31"/>
       <use xlink:href="#DejaVuSans-2e" x="63.623047"/>
       <use xlink:href="#DejaVuSans-35" x="95.410156"/>
      </g>
     </g>
    </g>
    <g id="ytick_5">
     <g id="line2d_13">
      <g>
       <use xlink:href="#m4e3767b8d3" x="225" y="17.28" style="stroke: #000000; stroke-width: 0.8"/>
      </g>
     </g>
     <g id="text_12">
      <!-- 2.0 -->
      <g transform="translate(202.096875 21.079219) scale(0.1 -0.1)">
       <use xlink:href="#DejaVuSans-32"/>
       <use xlink:href="#DejaVuSans-2e" x="63.623047"/>
       <use xlink:href="#DejaVuSans-30" x="95.410156"/>
      </g>
     </g>
    </g>
   </g>
  </g>
 </g>
 <defs>
  <clipPath id="p94cde8c3cf">
   <rect x="225" y="17.28" width="1395" height="110.88"/>
  </clipPath>
 </defs>
</svg>
