<?xml version="1.0" encoding="utf-8" standalone="no"?>
<!DOCTYPE svg PUBLIC "-//W3C//DTD SVG 1.1//EN"
  "http://www.w3.org/Graphics/SVG/1.1/DTD/svg11.dtd">
<svg xmlns:xlink="http://www.w3.org/1999/xlink" width="1800pt" height="144pt" viewBox="0 0 1800 144" xmlns="http://www.w3.org/2000/svg" version="1.1">
 <metadata>
  <rdf:RDF xmlns:dc="http://purl.org/dc/elements/1.1/" xmlns:cc="http://creativecommons.org/ns#" xmlns:rdf="http://www.w3.org/1999/02/22-rdf-syntax-ns#">
   <cc:Work>
    <dc:type rdf:resource="http://purl.org/dc/dcmitype/StillImage"/>
    <dc:date>2025-05-09T21:09:15.145833</dc:date>
    <dc:format>image/svg+xml</dc:format>
    <dc:creator>
     <cc:Agent>
      <dc:title>Matplotlib v3.8.0, https://matplotlib.org/</dc:title>
     </cc:Agent>
    </dc:creator>
   </cc:Work>
  </rdf:RDF>
 </metadata>
 <defs>
  <style type="text/css">*{stroke-linejoin: round; stroke-linecap: butt}</style>
 </defs>
 <g id="figure_1">
  <g id="patch_1">
   <path d="M 0 144 
L 1800 144 
L 1800 0 
L 0 0 
z
" style="fill: #ffffff"/>
  </g>
  <g id="axes_1">
   <g id="patch_2">
    <path d="M 225 128.16 
L 1620 128.16 
L 1620 17.28 
L 225 17.28 
z
" style="fill: #ffffff"/>
   </g>
   <g id="line2d_1">
    <path d="M 225 128.16 
L 1620 128.16 
" clip-path="url(#pa20adda945)" style="fill: none; stroke: #000000; stroke-width: 1.5; stroke-linecap: square"/>
   </g>
   <g id="patch_3">
    <path d="M 238.068881 22.570907 
L 238.068881 45.200413 
Q 236.581933 41.260863 235.164685 39.268184 
Q 233.75131 37.252601 232.492825 37.252601 
Q 230.823881 37.252601 230.022323 39.978219 
Q 229.224637 42.680934 229.224637 48.407023 
Q 229.224637 52.713043 229.762881 55.118 
Q 230.301125 57.500054 231.718373 59.217881 
L 233.700971 61.57703 
Q 236.71359 65.173014 237.983692 72.479504 
Q 239.257665 79.76309 239.257665 93.230853 
Q 239.257665 110.890114 237.48417 119.525057 
Q 235.710674 128.16 232.066877 128.16 
Q 230.351465 128.16 228.620564 126.21313 
Q 226.889663 124.289163 225.158763 120.48704 
L 225.158763 97.239116 
Q 226.889663 102.667449 228.504396 105.438876 
Q 230.119129 108.187399 231.621567 108.187399 
Q 233.147237 108.187399 233.95654 105.186928 
Q 234.765843 102.163553 234.765843 96.574889 
Q 234.765843 91.581739 234.215981 88.856121 
Q 233.66612 86.130502 232.020409 83.977492 
L 230.215936 81.618343 
Q 227.505353 78.18269 226.25074 70.67006 
Q 225 63.15743 225 50.422607 
Q 225 34.458269 226.742518 25.869134 
Q 228.485035 17.28 231.753223 17.28 
Q 233.244044 17.28 234.816182 18.608453 
Q 236.38832 19.936906 238.068881 22.570907 
z
" clip-path="url(#pa20adda945)" style="fill: #40ba47"/>
   </g>
   <g id="patch_4">
    <path d="M 249.884366 107.961114 
L 244.401097 107.961114 
L 243.535318 128.16 
L 240.008069 128.16 
L 245.04533 17.28 
L 249.228473 17.28 
L 254.265734 128.16 
L 250.7414 128.16 
L 249.884366 107.961114 
z
M 245.275622 87.382015 
L 249.001096 87.382015 
L 247.141274 43.277154 
L 245.275622 87.382015 
z
" clip-path="url(#pa20adda945)" style="fill: #21599c"/>
   </g>
   <g id="patch_5">
    <path d="M 255.016138 17.28 
L 260.190186 17.28 
L 260.190186 106.559074 
L 269.273803 106.559074 
L 269.273803 128.16 
L 255.016138 128.16 
L 255.016138 17.28 
z
" clip-path="url(#pa20adda945)" style="fill: #21599c"/>
   </g>
   <g id="patch_6">
    <path d="M 283.093088 22.570907 
L 283.093088 45.200413 
Q 281.60614 41.260863 280.188892 39.268184 
Q 278.775517 37.252601 277.517032 37.252601 
Q 275.848087 37.252601 275.046529 39.978219 
Q 274.248843 42.680934 274.248843 48.407023 
Q 274.248843 52.713043 274.787088 55.118 
Q 275.325332 57.500054 276.74258 59.217881 
L 278.725177 61.57703 
Q 281.737796 65.173014 283.007898 72.479504 
Q 284.281872 79.76309 284.281872 93.230853 
Q 284.281872 110.890114 282.508376 119.525057 
Q 280.734881 128.16 277.091083 128.16 
Q 275.375671 128.16 273.644771 126.21313 
Q 271.91387 124.289163 270.182969 120.48704 
L 270.182969 97.239116 
Q 271.91387 102.667449 273.528603 105.438876 
Q 275.143336 108.187399 276.645773 108.187399 
Q 278.171444 108.187399 278.980747 105.186928 
Q 279.790049 102.163553 279.790049 96.574889 
Q 279.790049 91.581739 279.240188 88.856121 
Q 278.690327 86.130502 277.044616 83.977492 
L 275.240142 81.618343 
Q 272.52956 78.18269 271.274947 70.67006 
Q 270.024207 63.15743 270.024207 50.422607 
Q 270.024207 34.458269 271.766724 25.869134 
Q 273.509242 17.28 276.77743 17.28 
Q 278.26825 17.28 279.840388 18.608453 
Q 281.412526 19.936906 283.093088 22.570907 
z
" clip-path="url(#pa20adda945)" style="fill: #40ba47"/>
   </g>
   <g id="patch_7">
    <path d="M 285.032275 17.28 
L 288.789553 17.28 
L 288.789553 57.749061 
L 294.205279 17.28 
L 298.568469 17.28 
L 291.550511 69.797102 
L 299.289941 128.16 
L 294.586317 128.16 
L 288.789553 84.48288 
L 288.789553 128.16 
L 285.032275 128.16 
L 285.032275 17.28 
z
" clip-path="url(#pa20adda945)" style="fill: #bd2e1f"/>
   </g>
   <g id="patch_8">
    <path d="M 300.040344 17.28 
L 303.567593 17.28 
L 307.17355 99.121132 
L 310.773676 17.28 
L 314.29801 17.28 
L 309.260748 128.16 
L 305.077606 128.16 
L 300.040344 17.28 
z
" clip-path="url(#pa20adda945)" style="fill: #21599c"/>
   </g>
   <g id="patch_9">
    <path d="M 315.048413 17.28 
L 329.306079 17.28 
L 329.306079 38.904689 
L 324.176635 38.904689 
L 324.176635 128.16 
L 320.187804 128.16 
L 320.187804 38.904689 
L 315.048413 38.904689 
L 315.048413 17.28 
z
" clip-path="url(#pa20adda945)" style="fill: #40ba47"/>
   </g>
   <g id="patch_10">
    <path d="M 334.59829 17.28 
L 339.772339 17.28 
L 339.772339 128.16 
L 334.59829 128.16 
L 334.59829 17.28 
z
" clip-path="url(#pa20adda945)" style="fill: #21599c"/>
   </g>
   <g id="patch_11">
    <path d="M 359.322216 118.127891 
Q 357.884307 123.143945 356.337756 125.663425 
Q 354.791206 128.16 353.142403 128.16 
Q 349.416622 128.16 347.240586 113.226358 
Q 345.064551 98.292716 345.064551 72.754357 
Q 345.064551 46.91824 347.278931 32.09912 
Q 349.496506 17.28 353.353297 17.28 
Q 354.839136 17.28 356.200356 19.295584 
Q 357.564772 21.288263 358.772616 25.227812 
L 358.772616 47.330518 
Q 357.526428 42.268655 356.293022 39.77208 
Q 355.059615 37.252601 353.819818 37.252601 
Q 351.525555 37.252601 350.282562 46.460153 
Q 349.03957 55.644801 349.03957 72.754357 
Q 349.03957 89.703582 350.237827 98.956943 
Q 351.436085 108.187399 353.640878 108.187399 
Q 354.241605 108.187399 354.756057 107.660599 
Q 355.270509 107.110894 355.679514 105.965677 
L 355.679514 85.214328 
L 353.330929 85.214328 
L 353.330929 66.73051 
L 359.322216 66.73051 
L 359.322216 118.127891 
z
" clip-path="url(#pa20adda945)" style="fill: #787800"/>
   </g>
   <g id="patch_12">
    <path d="M 363.979675 38.904689 
L 363.979675 106.559074 
L 365.379459 106.559074 
Q 367.773058 106.559074 369.036437 97.861672 
Q 370.303063 89.164269 370.303063 72.601183 
Q 370.303063 56.13315 369.042932 47.530802 
Q 367.786049 38.904689 365.379459 38.904689 
L 363.979675 38.904689 
z
M 360.07262 17.28 
L 364.190779 17.28 
Q 367.643148 17.28 369.331983 20.892036 
Q 371.020818 24.480309 372.228985 33.106421 
Q 373.29425 40.615654 373.810644 50.429936 
Q 374.330285 60.220454 374.330285 72.601183 
Q 374.330285 85.172019 373.810644 95.010064 
Q 373.29425 104.84811 372.228985 112.333579 
Q 371.011075 120.959691 369.306001 124.571727 
Q 367.600927 128.16 364.190779 128.16 
L 360.07262 128.16 
L 360.07262 17.28 
z
" clip-path="url(#pa20adda945)" style="fill: #6b296b"/>
   </g>
   <g id="patch_13">
    <path d="M 380.865672 66.446464 
Q 382.145206 66.446464 382.700348 63.119589 
Q 383.25549 59.76895 383.25549 52.117137 
Q 383.25549 44.536614 382.700348 41.281029 
Q 382.145206 38.00168 380.865672 38.00168 
L 379.152857 38.00168 
L 379.152857 66.446464 
L 380.865672 66.446464 
z
M 379.152857 86.193845 
L 379.152857 128.16 
L 375.080689 128.16 
L 375.080689 17.28 
L 381.298953 17.28 
Q 384.419933 17.28 385.872103 24.646652 
Q 387.327658 31.989541 387.327658 47.887252 
Q 387.327658 58.865941 386.569415 65.923669 
Q 385.814558 72.981397 384.291303 76.332036 
Q 385.127401 77.662786 385.787478 82.391702 
Q 386.45094 87.096854 387.127942 96.673502 
L 389.338354 128.16 
L 385.002155 128.16 
L 383.076084 100.618225 
Q 382.493862 92.301037 381.894715 89.259323 
Q 381.298953 86.193845 380.30376 86.193845 
L 379.152857 86.193845 
z
" clip-path="url(#pa20adda945)" style="fill: #bd2e1f"/>
   </g>
   <g id="patch_14">
    <path d="M 390.088757 17.28 
L 393.616006 17.28 
L 397.221963 99.121132 
L 400.822089 17.28 
L 404.346423 17.28 
L 399.309161 128.16 
L 395.126019 128.16 
L 390.088757 17.28 
z
" clip-path="url(#pa20adda945)" style="fill: #21599c"/>
   </g>
   <g id="patch_15">
    <path d="M 409.003881 38.904689 
L 409.003881 106.559074 
L 410.403666 106.559074 
Q 412.797265 106.559074 414.060643 97.861672 
Q 415.32727 89.164269 415.32727 72.601183 
Q 415.32727 56.13315 414.067139 47.530802 
Q 412.810256 38.904689 410.403666 38.904689 
L 409.003881 38.904689 
z
M 405.096826 17.28 
L 409.214986 17.28 
Q 412.667354 17.28 414.356189 20.892036 
Q 416.045024 24.480309 417.253191 33.106421 
Q 418.318456 40.615654 418.83485 50.429936 
Q 419.354492 60.220454 419.354492 72.601183 
Q 419.354492 85.172019 418.83485 95.010064 
Q 418.318456 104.84811 417.253191 112.333579 
Q 416.035281 120.959691 414.330207 124.571727 
Q 412.625133 128.16 409.214986 128.16 
L 405.096826 128.16 
L 405.096826 17.28 
z
" clip-path="url(#pa20adda945)" style="fill: #6b296b"/>
   </g>
   <g id="patch_16">
    <path d="M 424.646703 17.28 
L 429.820752 17.28 
L 429.820752 128.16 
L 424.646703 128.16 
L 424.646703 17.28 
z
" clip-path="url(#pa20adda945)" style="fill: #21599c"/>
   </g>
   <g id="patch_17">
    <path d="M 440.897947 66.446464 
Q 442.177481 66.446464 442.732623 63.119589 
Q 443.287765 59.76895 443.287765 52.117137 
Q 443.287765 44.536614 442.732623 41.281029 
Q 442.177481 38.00168 440.897947 38.00168 
L 439.185132 38.00168 
L 439.185132 66.446464 
L 440.897947 66.446464 
z
M 439.185132 86.193845 
L 439.185132 128.16 
L 435.112964 128.16 
L 435.112964 17.28 
L 441.331229 17.28 
Q 444.452209 17.28 445.904378 24.646652 
Q 447.359933 31.989541 447.359933 47.887252 
Q 447.359933 58.865941 446.601691 65.923669 
Q 445.846833 72.981397 444.323578 76.332036 
Q 445.159676 77.662786 445.819753 82.391702 
Q 446.483215 87.096854 447.160217 96.673502 
L 449.370629 128.16 
L 445.034431 128.16 
L 443.108359 100.618225 
Q 442.526138 92.301037 441.926991 89.259323 
Q 441.331229 86.193845 440.336036 86.193845 
L 439.185132 86.193845 
z
" clip-path="url(#pa20adda945)" style="fill: #bd2e1f"/>
   </g>
   <g id="patch_18">
    <path d="M 450.121033 17.28 
L 455.295082 17.28 
L 455.295082 106.559074 
L 464.378698 106.559074 
L 464.378698 128.16 
L 450.121033 128.16 
L 450.121033 17.28 
z
" clip-path="url(#pa20adda945)" style="fill: #21599c"/>
   </g>
   <g id="patch_19">
    <path d="M 465.129102 17.28 
L 468.656351 17.28 
L 472.262307 99.121132 
L 475.862433 17.28 
L 479.386767 17.28 
L 474.349506 128.16 
L 470.166363 128.16 
L 465.129102 17.28 
z
" clip-path="url(#pa20adda945)" style="fill: #21599c"/>
   </g>
   <g id="patch_20">
    <path d="M 493.206052 22.570907 
L 493.206052 45.200413 
Q 491.719104 41.260863 490.301856 39.268184 
Q 488.888481 37.252601 487.629996 37.252601 
Q 485.961051 37.252601 485.159493 39.978219 
Q 484.361807 42.680934 484.361807 48.407023 
Q 484.361807 52.713043 484.900052 55.118 
Q 485.438296 57.500054 486.855544 59.217881 
L 488.838141 61.57703 
Q 491.85076 65.173014 493.120862 72.479504 
Q 494.394836 79.76309 494.394836 93.230853 
Q 494.394836 110.890114 492.62134 119.525057 
Q 490.847845 128.16 487.204047 128.16 
Q 485.488635 128.16 483.757735 126.21313 
Q 482.026834 124.289163 480.295933 120.48704 
L 480.295933 97.239116 
Q 482.026834 102.667449 483.641567 105.438876 
Q 485.2563 108.187399 486.758737 108.187399 
Q 488.284408 108.187399 489.09371 105.186928 
Q 489.903013 102.163553 489.903013 96.574889 
Q 489.903013 91.581739 489.353152 88.856121 
Q 488.803291 86.130502 487.15758 83.977492 
L 485.353106 81.618343 
Q 482.642523 78.18269 481.387911 70.67006 
Q 480.137171 63.15743 480.137171 50.422607 
Q 480.137171 34.458269 481.879688 25.869134 
Q 483.622206 17.28 486.890394 17.28 
Q 488.381214 17.28 489.953352 18.608453 
Q 491.52549 19.936906 493.206052 22.570907 
z
" clip-path="url(#pa20adda945)" style="fill: #40ba47"/>
   </g>
   <g id="patch_21">
    <path d="M 495.145239 17.28 
L 499.087065 17.28 
L 502.271077 56.798526 
L 505.452094 17.28 
L 509.402905 17.28 
L 504.077247 81.441166 
L 504.077247 128.16 
L 500.473892 128.16 
L 500.473892 81.441166 
L 495.145239 17.28 
z
" clip-path="url(#pa20adda945)" style="fill: #177875"/>
   </g>
   <g id="patch_22">
    <path d="M 510.153308 17.28 
L 517.564324 17.28 
Q 520.872548 17.28 522.639904 26.690304 
Q 524.410974 36.076845 524.410974 53.447887 
Q 524.410974 70.913982 522.639904 80.300523 
Q 520.872548 89.687064 517.564324 89.687064 
L 514.619967 89.687064 
L 514.619967 128.16 
L 510.153308 128.16 
L 510.153308 17.28 
z
M 514.619967 38.00168 
L 514.619967 68.965384 
L 517.089068 68.965384 
Q 518.388595 68.965384 519.097766 64.925607 
Q 519.806936 60.885829 519.806936 53.447887 
Q 519.806936 46.033708 519.097766 42.017694 
Q 518.388595 38.00168 517.089068 38.00168 
L 514.619967 38.00168 
z
" clip-path="url(#pa20adda945)" style="fill: #787800"/>
   </g>
   <g id="patch_23">
    <path d="M 525.161377 17.28 
L 529.103202 17.28 
L 532.287214 56.798526 
L 535.468231 17.28 
L 539.419042 17.28 
L 534.093385 81.441166 
L 534.093385 128.16 
L 530.49003 128.16 
L 530.49003 81.441166 
L 525.161377 17.28 
z
" clip-path="url(#pa20adda945)" style="fill: #177875"/>
   </g>
   <g id="patch_24">
    <path d="M 540.169446 17.28 
L 543.926723 17.28 
L 543.926723 57.749061 
L 549.34245 17.28 
L 553.705639 17.28 
L 546.687682 69.797102 
L 554.427111 128.16 
L 549.723487 128.16 
L 543.926723 84.48288 
L 543.926723 128.16 
L 540.169446 128.16 
L 540.169446 17.28 
z
" clip-path="url(#pa20adda945)" style="fill: #bd2e1f"/>
   </g>
   <g id="patch_25">
    <path d="M 555.177515 17.28 
L 569.138414 17.28 
L 569.138414 38.904689 
L 560.351564 38.904689 
L 560.351564 59.531316 
L 568.617999 59.531316 
L 568.617999 81.156005 
L 560.351564 81.156005 
L 560.351564 106.559074 
L 569.43518 106.559074 
L 569.43518 128.16 
L 555.177515 128.16 
L 555.177515 17.28 
z
" clip-path="url(#pa20adda945)" style="fill: #6b296b"/>
   </g>
   <g id="patch_26">
    <path d="M 570.333967 17.28 
L 584.294866 17.28 
L 584.294866 38.904689 
L 575.508015 38.904689 
L 575.508015 59.531316 
L 583.774451 59.531316 
L 583.774451 81.156005 
L 575.508015 81.156005 
L 575.508015 128.16 
L 570.333967 128.16 
L 570.333967 17.28 
z
" clip-path="url(#pa20adda945)" style="fill: #21599c"/>
   </g>
   <g id="patch_27">
    <path d="M 599.451318 118.127891 
Q 598.013409 123.143945 596.466858 125.663425 
Q 594.920307 128.16 593.271505 128.16 
Q 589.545723 128.16 587.369688 113.226358 
Q 585.193653 98.292716 585.193653 72.754357 
Q 585.193653 46.91824 587.408032 32.09912 
Q 589.625607 17.28 593.482398 17.28 
Q 594.968238 17.28 596.329458 19.295584 
Q 597.693874 21.288263 598.901717 25.227812 
L 598.901717 47.330518 
Q 597.655529 42.268655 596.422123 39.77208 
Q 595.188717 37.252601 593.94892 37.252601 
Q 591.654656 37.252601 590.411664 46.460153 
Q 589.168672 55.644801 589.168672 72.754357 
Q 589.168672 89.703582 590.366929 98.956943 
Q 591.565187 108.187399 593.76998 108.187399 
Q 594.370707 108.187399 594.885158 107.660599 
Q 595.39961 107.110894 595.808615 105.965677 
L 595.808615 85.214328 
L 593.460031 85.214328 
L 593.460031 66.73051 
L 599.451318 66.73051 
L 599.451318 118.127891 
z
" clip-path="url(#pa20adda945)" style="fill: #787800"/>
   </g>
   <g id="patch_28">
    <path d="M 600.201721 17.28 
L 604.304082 17.28 
L 604.304082 59.531316 
L 610.357026 59.531316 
L 610.357026 17.28 
L 614.459387 17.28 
L 614.459387 128.16 
L 610.357026 128.16 
L 610.357026 81.156005 
L 604.304082 81.156005 
L 604.304082 128.16 
L 600.201721 128.16 
L 600.201721 17.28 
z
" clip-path="url(#pa20adda945)" style="fill: #177875"/>
   </g>
   <g id="patch_29">
    <path d="M 615.20979 17.28 
L 620.383839 17.28 
L 620.383839 106.559074 
L 629.467456 106.559074 
L 629.467456 128.16 
L 615.20979 128.16 
L 615.20979 17.28 
z
" clip-path="url(#pa20adda945)" style="fill: #21599c"/>
   </g>
   <g id="patch_30">
    <path d="M 643.28674 22.570907 
L 643.28674 45.200413 
Q 641.799792 41.260863 640.382544 39.268184 
Q 638.969169 37.252601 637.710684 37.252601 
Q 636.04174 37.252601 635.240182 39.978219 
Q 634.442496 42.680934 634.442496 48.407023 
Q 634.442496 52.713043 634.98074 55.118 
Q 635.518985 57.500054 636.936232 59.217881 
L 638.91883 61.57703 
Q 641.931449 65.173014 643.201551 72.479504 
Q 644.475524 79.76309 644.475524 93.230853 
Q 644.475524 110.890114 642.702029 119.525057 
Q 640.928533 128.16 637.284736 128.16 
Q 635.569324 128.16 633.838423 126.21313 
Q 632.107522 124.289163 630.376622 120.48704 
L 630.376622 97.239116 
Q 632.107522 102.667449 633.722255 105.438876 
Q 635.336988 108.187399 636.839426 108.187399 
Q 638.365096 108.187399 639.174399 105.186928 
Q 639.983702 102.163553 639.983702 96.574889 
Q 639.983702 91.581739 639.433841 88.856121 
Q 638.883979 86.130502 637.238268 83.977492 
L 635.433795 81.618343 
Q 632.723212 78.18269 631.468599 70.67006 
Q 630.217859 63.15743 630.217859 50.422607 
Q 630.217859 34.458269 631.960377 25.869134 
Q 633.702894 17.28 636.971082 17.28 
Q 638.461903 17.28 640.034041 18.608453 
Q 641.606179 19.936906 643.28674 22.570907 
z
" clip-path="url(#pa20adda945)" style="fill: #40ba47"/>
   </g>
   <g id="patch_31">
    <path d="M 659.483593 118.127891 
Q 658.045684 123.143945 656.499134 125.663425 
Q 654.952583 128.16 653.30378 128.16 
Q 649.577999 128.16 647.401963 113.226358 
Q 645.225928 98.292716 645.225928 72.754357 
Q 645.225928 46.91824 647.440308 32.09912 
Q 649.657883 17.28 653.514674 17.28 
Q 655.000513 17.28 656.361733 19.295584 
Q 657.726149 21.288263 658.933993 25.227812 
L 658.933993 47.330518 
Q 657.687805 42.268655 656.454399 39.77208 
Q 655.220992 37.252601 653.981195 37.252601 
Q 651.686932 37.252601 650.443939 46.460153 
Q 649.200947 55.644801 649.200947 72.754357 
Q 649.200947 89.703582 650.399205 98.956943 
Q 651.597462 108.187399 653.802256 108.187399 
Q 654.402982 108.187399 654.917434 107.660599 
Q 655.431886 107.110894 655.840891 105.965677 
L 655.840891 85.214328 
L 653.492306 85.214328 
L 653.492306 66.73051 
L 659.483593 66.73051 
L 659.483593 118.127891 
z
" clip-path="url(#pa20adda945)" style="fill: #787800"/>
   </g>
   <g id="patch_32">
    <path d="M 660.233997 17.28 
L 663.991274 17.28 
L 663.991274 57.749061 
L 669.407001 17.28 
L 673.77019 17.28 
L 666.752233 69.797102 
L 674.491662 128.16 
L 669.788038 128.16 
L 663.991274 84.48288 
L 663.991274 128.16 
L 660.233997 128.16 
L 660.233997 17.28 
z
" clip-path="url(#pa20adda945)" style="fill: #bd2e1f"/>
   </g>
   <g id="patch_33">
    <path d="M 675.242066 17.28 
L 678.769315 17.28 
L 682.375271 99.121132 
L 685.975397 17.28 
L 689.499731 17.28 
L 684.46247 128.16 
L 680.279327 128.16 
L 675.242066 17.28 
z
" clip-path="url(#pa20adda945)" style="fill: #21599c"/>
   </g>
   <g id="patch_34">
    <path d="M 700.126432 107.961114 
L 694.643163 107.961114 
L 693.777384 128.16 
L 690.250134 128.16 
L 695.287396 17.28 
L 699.470538 17.28 
L 704.5078 128.16 
L 700.983466 128.16 
L 700.126432 107.961114 
z
M 695.517687 87.382015 
L 699.243162 87.382015 
L 697.38334 43.277154 
L 695.517687 87.382015 
z
" clip-path="url(#pa20adda945)" style="fill: #21599c"/>
   </g>
   <g id="patch_35">
    <path d="M 718.327085 22.570907 
L 718.327085 45.200413 
Q 716.840136 41.260863 715.422889 39.268184 
Q 714.009513 37.252601 712.751029 37.252601 
Q 711.082084 37.252601 710.280526 39.978219 
Q 709.48284 42.680934 709.48284 48.407023 
Q 709.48284 52.713043 710.021085 55.118 
Q 710.559329 57.500054 711.976576 59.217881 
L 713.959174 61.57703 
Q 716.971793 65.173014 718.241895 72.479504 
Q 719.515869 79.76309 719.515869 93.230853 
Q 719.515869 110.890114 717.742373 119.525057 
Q 715.968878 128.16 712.32508 128.16 
Q 710.609668 128.16 708.878767 126.21313 
Q 707.147867 124.289163 705.416966 120.48704 
L 705.416966 97.239116 
Q 707.147867 102.667449 708.7626 105.438876 
Q 710.377333 108.187399 711.87977 108.187399 
Q 713.405441 108.187399 714.214743 105.186928 
Q 715.024046 102.163553 715.024046 96.574889 
Q 715.024046 91.581739 714.474185 88.856121 
Q 713.924324 86.130502 712.278613 83.977492 
L 710.474139 81.618343 
Q 707.763556 78.18269 706.508944 70.67006 
Q 705.258203 63.15743 705.258203 50.422607 
Q 705.258203 34.458269 707.000721 25.869134 
Q 708.743238 17.28 712.011427 17.28 
Q 713.502247 17.28 715.074385 18.608453 
Q 716.646523 19.936906 718.327085 22.570907 
z
" clip-path="url(#pa20adda945)" style="fill: #40ba47"/>
   </g>
   <g id="patch_36">
    <path d="M 724.808081 17.28 
L 729.982129 17.28 
L 729.982129 128.16 
L 724.808081 128.16 
L 724.808081 17.28 
z
" clip-path="url(#pa20adda945)" style="fill: #21599c"/>
   </g>
   <g id="patch_37">
    <path d="M 748.343222 22.570907 
L 748.343222 45.200413 
Q 746.856274 41.260863 745.439026 39.268184 
Q 744.025651 37.252601 742.767166 37.252601 
Q 741.098222 37.252601 740.296664 39.978219 
Q 739.498978 42.680934 739.498978 48.407023 
Q 739.498978 52.713043 740.037222 55.118 
Q 740.575467 57.500054 741.992714 59.217881 
L 743.975312 61.57703 
Q 746.987931 65.173014 748.258033 72.479504 
Q 749.532006 79.76309 749.532006 93.230853 
Q 749.532006 110.890114 747.758511 119.525057 
Q 745.985015 128.16 742.341218 128.16 
Q 740.625806 128.16 738.894905 126.21313 
Q 737.164004 124.289163 735.433104 120.48704 
L 735.433104 97.239116 
Q 737.164004 102.667449 738.778737 105.438876 
Q 740.39347 108.187399 741.895908 108.187399 
Q 743.421578 108.187399 744.230881 105.186928 
Q 745.040184 102.163553 745.040184 96.574889 
Q 745.040184 91.581739 744.490322 88.856121 
Q 743.940461 86.130502 742.29475 83.977492 
L 740.490277 81.618343 
Q 737.779694 78.18269 736.525081 70.67006 
Q 735.274341 63.15743 735.274341 50.422607 
Q 735.274341 34.458269 737.016859 25.869134 
Q 738.759376 17.28 742.027564 17.28 
Q 743.518385 17.28 745.090523 18.608453 
Q 746.662661 19.936906 748.343222 22.570907 
z
" clip-path="url(#pa20adda945)" style="fill: #40ba47"/>
   </g>
   <g id="patch_38">
    <path d="M 750.28241 17.28 
L 754.039687 17.28 
L 754.039687 57.749061 
L 759.455414 17.28 
L 763.818603 17.28 
L 756.800646 69.797102 
L 764.540075 128.16 
L 759.836451 128.16 
L 754.039687 84.48288 
L 754.039687 128.16 
L 750.28241 128.16 
L 750.28241 17.28 
z
" clip-path="url(#pa20adda945)" style="fill: #bd2e1f"/>
   </g>
   <g id="patch_39">
    <path d="M 765.290479 17.28 
L 768.817728 17.28 
L 772.423684 99.121132 
L 776.02381 17.28 
L 779.548144 17.28 
L 774.510883 128.16 
L 770.32774 128.16 
L 765.290479 17.28 
z
" clip-path="url(#pa20adda945)" style="fill: #21599c"/>
   </g>
   <g id="patch_40">
    <path d="M 790.174845 107.961114 
L 784.691576 107.961114 
L 783.825797 128.16 
L 780.298548 128.16 
L 785.335809 17.28 
L 789.518952 17.28 
L 794.556213 128.16 
L 791.031879 128.16 
L 790.174845 107.961114 
z
M 785.566101 87.382015 
L 789.291575 87.382015 
L 787.431753 43.277154 
L 785.566101 87.382015 
z
" clip-path="url(#pa20adda945)" style="fill: #21599c"/>
   </g>
   <g id="patch_41">
    <path d="M 795.306616 17.28 
L 800.480665 17.28 
L 800.480665 106.559074 
L 809.564282 106.559074 
L 809.564282 128.16 
L 795.306616 128.16 
L 795.306616 17.28 
z
" clip-path="url(#pa20adda945)" style="fill: #21599c"/>
   </g>
   <g id="patch_42">
    <path d="M 814.22174 38.904689 
L 814.22174 106.559074 
L 815.621525 106.559074 
Q 818.015124 106.559074 819.278502 97.861672 
Q 820.545129 89.164269 820.545129 72.601183 
Q 820.545129 56.13315 819.284998 47.530802 
Q 818.028115 38.904689 815.621525 38.904689 
L 814.22174 38.904689 
z
M 810.314685 17.28 
L 814.432845 17.28 
Q 817.885213 17.28 819.574048 20.892036 
Q 821.262884 24.480309 822.47105 33.106421 
Q 823.536315 40.615654 824.052709 50.429936 
Q 824.572351 60.220454 824.572351 72.601183 
Q 824.572351 85.172019 824.052709 95.010064 
Q 823.536315 104.84811 822.47105 112.333579 
Q 821.25314 120.959691 819.548066 124.571727 
Q 817.842992 128.16 814.432845 128.16 
L 810.314685 128.16 
L 810.314685 17.28 
z
" clip-path="url(#pa20adda945)" style="fill: #6b296b"/>
   </g>
   <g id="patch_43">
    <path d="M 838.391635 22.570907 
L 838.391635 45.200413 
Q 836.904687 41.260863 835.48744 39.268184 
Q 834.074064 37.252601 832.815579 37.252601 
Q 831.146635 37.252601 830.345077 39.978219 
Q 829.547391 42.680934 829.547391 48.407023 
Q 829.547391 52.713043 830.085635 55.118 
Q 830.62388 57.500054 832.041127 59.217881 
L 834.023725 61.57703 
Q 837.036344 65.173014 838.306446 72.479504 
Q 839.58042 79.76309 839.58042 93.230853 
Q 839.58042 110.890114 837.806924 119.525057 
Q 836.033428 128.16 832.389631 128.16 
Q 830.674219 128.16 828.943318 126.21313 
Q 827.212418 124.289163 825.481517 120.48704 
L 825.481517 97.239116 
Q 827.212418 102.667449 828.82715 105.438876 
Q 830.441883 108.187399 831.944321 108.187399 
Q 833.469992 108.187399 834.279294 105.186928 
Q 835.088597 102.163553 835.088597 96.574889 
Q 835.088597 91.581739 834.538736 88.856121 
Q 833.988875 86.130502 832.343164 83.977492 
L 830.53869 81.618343 
Q 827.828107 78.18269 826.573495 70.67006 
Q 825.322754 63.15743 825.322754 50.422607 
Q 825.322754 34.458269 827.065272 25.869134 
Q 828.807789 17.28 832.075978 17.28 
Q 833.566798 17.28 835.138936 18.608453 
Q 836.711074 19.936906 838.391635 22.570907 
z
" clip-path="url(#pa20adda945)" style="fill: #40ba47"/>
   </g>
   <g id="patch_44">
    <path d="M 854.588488 118.127891 
Q 853.15058 123.143945 851.604029 125.663425 
Q 850.057478 128.16 848.408676 128.16 
Q 844.682894 128.16 842.506858 113.226358 
Q 840.330823 98.292716 840.330823 72.754357 
Q 840.330823 46.91824 842.545203 32.09912 
Q 844.762778 17.28 848.619569 17.28 
Q 850.105408 17.28 851.466628 19.295584 
Q 852.831044 21.288263 854.038888 25.227812 
L 854.038888 47.330518 
Q 852.7927 42.268655 851.559294 39.77208 
Q 850.325887 37.252601 849.08609 37.252601 
Q 846.791827 37.252601 845.548835 46.460153 
Q 844.305842 55.644801 844.305842 72.754357 
Q 844.305842 89.703582 845.5041 98.956943 
Q 846.702357 108.187399 848.907151 108.187399 
Q 849.507877 108.187399 850.022329 107.660599 
Q 850.536781 107.110894 850.945786 105.965677 
L 850.945786 85.214328 
L 848.597201 85.214328 
L 848.597201 66.73051 
L 854.588488 66.73051 
L 854.588488 118.127891 
z
" clip-path="url(#pa20adda945)" style="fill: #787800"/>
   </g>
   <g id="patch_45">
    <path d="M 855.338892 17.28 
L 859.280717 17.28 
L 862.464729 56.798526 
L 865.645746 17.28 
L 869.596557 17.28 
L 864.2709 81.441166 
L 864.2709 128.16 
L 860.667545 128.16 
L 860.667545 81.441166 
L 855.338892 17.28 
z
" clip-path="url(#pa20adda945)" style="fill: #177875"/>
   </g>
   <g id="patch_46">
    <path d="M 880.223258 107.961114 
L 874.739989 107.961114 
L 873.87421 128.16 
L 870.346961 128.16 
L 875.384222 17.28 
L 879.567365 17.28 
L 884.604626 128.16 
L 881.080292 128.16 
L 880.223258 107.961114 
z
M 875.614514 87.382015 
L 879.339988 87.382015 
L 877.480166 43.277154 
L 875.614514 87.382015 
z
" clip-path="url(#pa20adda945)" style="fill: #21599c"/>
   </g>
   <g id="patch_47">
    <path d="M 899.612695 120.212188 
Q 898.420066 124.151737 897.130446 126.144416 
Q 895.840826 128.16 894.436254 128.16 
Q 890.247683 128.16 887.801356 113.226358 
Q 885.35503 98.292716 885.35503 72.754357 
Q 885.35503 47.124379 887.801356 32.213642 
Q 890.247683 17.28 894.436254 17.28 
Q 895.840826 17.28 897.130446 19.295584 
Q 898.420066 21.288263 899.612695 25.227812 
L 899.612695 47.330518 
Q 898.409289 42.108325 897.241806 39.680463 
Q 896.074323 37.252601 894.784702 37.252601 
Q 892.471289 37.252601 891.145747 46.712101 
Q 889.823796 56.148697 889.823796 72.754357 
Q 889.823796 89.291303 891.145747 98.750804 
Q 892.471289 108.187399 894.784702 108.187399 
Q 896.074323 108.187399 897.241806 105.759537 
Q 898.409289 103.308771 899.612695 98.086577 
L 899.612695 120.212188 
z
" clip-path="url(#pa20adda945)" style="fill: #6b296b"/>
   </g>
   <g id="patch_48">
    <path d="M 900.363098 17.28 
L 904.120376 17.28 
L 904.120376 57.749061 
L 909.536102 17.28 
L 913.899292 17.28 
L 906.881335 69.797102 
L 914.620764 128.16 
L 909.91714 128.16 
L 904.120376 84.48288 
L 904.120376 128.16 
L 900.363098 128.16 
L 900.363098 17.28 
z
" clip-path="url(#pa20adda945)" style="fill: #bd2e1f"/>
   </g>
   <g id="patch_49">
    <path d="M 919.912976 17.28 
L 925.087024 17.28 
L 925.087024 128.16 
L 919.912976 128.16 
L 919.912976 17.28 
z
" clip-path="url(#pa20adda945)" style="fill: #21599c"/>
   </g>
   <g id="patch_50">
    <path d="M 930.379236 17.28 
L 934.136514 17.28 
L 934.136514 57.749061 
L 939.55224 17.28 
L 943.915429 17.28 
L 936.897472 69.797102 
L 944.636902 128.16 
L 939.933277 128.16 
L 934.136514 84.48288 
L 934.136514 128.16 
L 930.379236 128.16 
L 930.379236 17.28 
z
" clip-path="url(#pa20adda945)" style="fill: #bd2e1f"/>
   </g>
   <g id="patch_51">
    <path d="M 945.387305 17.28 
L 950.561354 17.28 
L 950.561354 106.559074 
L 959.64497 106.559074 
L 959.64497 128.16 
L 945.387305 128.16 
L 945.387305 17.28 
z
" clip-path="url(#pa20adda945)" style="fill: #21599c"/>
   </g>
   <g id="patch_52">
    <path d="M 967.904411 111.578719 
L 967.625198 111.578719 
Q 964.200388 111.578719 962.296396 99.152512 
Q 960.395374 86.706798 960.395374 64.526897 
Q 960.395374 42.38601 962.293426 29.842759 
Q 964.191477 17.28 967.524207 17.28 
Q 970.89258 17.28 972.77281 29.725714 
Q 974.653039 42.151921 974.653039 64.526897 
Q 974.653039 79.879212 973.655003 90.978916 
Q 972.656966 102.078621 970.782677 107.677241 
L 973.574803 128.16 
L 970.167815 128.16 
L 967.904411 111.578719 
z
M 967.524207 34.290443 
Q 965.890516 34.290443 964.990501 42.210443 
Q 964.090485 50.130443 964.090485 64.526897 
Q 964.090485 79.157438 964.969708 86.940887 
Q 965.851901 94.704828 967.524207 94.704828 
Q 969.166808 94.704828 970.066824 86.784828 
Q 970.966839 78.84532 970.966839 64.526897 
Q 970.966839 50.130443 970.066824 42.210443 
Q 969.166808 34.290443 967.524207 34.290443 
z
" clip-path="url(#pa20adda945)" style="fill: #40ba47"/>
   </g>
   <g id="patch_53">
    <path d="M 975.403443 17.28 
L 979.983219 17.28 
L 985.770174 93.322863 
L 985.770174 17.28 
L 989.661108 17.28 
L 989.661108 128.16 
L 985.077922 128.16 
L 979.290967 52.117137 
L 979.290967 128.16 
L 975.403443 128.16 
L 975.403443 17.28 
z
" clip-path="url(#pa20adda945)" style="fill: #40ba47"/>
   </g>
   <g id="patch_54">
    <path d="M 1003.480393 22.570907 
L 1003.480393 45.200413 
Q 1001.993445 41.260863 1000.576197 39.268184 
Q 999.162822 37.252601 997.904337 37.252601 
Q 996.235392 37.252601 995.433834 39.978219 
Q 994.636148 42.680934 994.636148 48.407023 
Q 994.636148 52.713043 995.174393 55.118 
Q 995.712637 57.500054 997.129885 59.217881 
L 999.112482 61.57703 
Q 1002.125101 65.173014 1003.395203 72.479504 
Q 1004.669177 79.76309 1004.669177 93.230853 
Q 1004.669177 110.890114 1002.895681 119.525057 
Q 1001.122186 128.16 997.478388 128.16 
Q 995.762976 128.16 994.032076 126.21313 
Q 992.301175 124.289163 990.570274 120.48704 
L 990.570274 97.239116 
Q 992.301175 102.667449 993.915908 105.438876 
Q 995.530641 108.187399 997.033078 108.187399 
Q 998.558749 108.187399 999.368052 105.186928 
Q 1000.177354 102.163553 1000.177354 96.574889 
Q 1000.177354 91.581739 999.627493 88.856121 
Q 999.077632 86.130502 997.431921 83.977492 
L 995.627447 81.618343 
Q 992.916865 78.18269 991.662252 70.67006 
Q 990.411512 63.15743 990.411512 50.422607 
Q 990.411512 34.458269 992.154029 25.869134 
Q 993.896547 17.28 997.164735 17.28 
Q 998.655555 17.28 1000.227693 18.608453 
Q 1001.799831 19.936906 1003.480393 22.570907 
z
" clip-path="url(#pa20adda945)" style="fill: #40ba47"/>
   </g>
   <g id="patch_55">
    <path d="M 1005.41958 17.28 
L 1010.593629 17.28 
L 1010.593629 106.559074 
L 1019.677246 106.559074 
L 1019.677246 128.16 
L 1005.41958 128.16 
L 1005.41958 17.28 
z
" clip-path="url(#pa20adda945)" style="fill: #21599c"/>
   </g>
   <g id="patch_56">
    <path d="M 1033.496531 22.570907 
L 1033.496531 45.200413 
Q 1032.009582 41.260863 1030.592335 39.268184 
Q 1029.178959 37.252601 1027.920475 37.252601 
Q 1026.25153 37.252601 1025.449972 39.978219 
Q 1024.652286 42.680934 1024.652286 48.407023 
Q 1024.652286 52.713043 1025.19053 55.118 
Q 1025.728775 57.500054 1027.146022 59.217881 
L 1029.12862 61.57703 
Q 1032.141239 65.173014 1033.411341 72.479504 
Q 1034.685315 79.76309 1034.685315 93.230853 
Q 1034.685315 110.890114 1032.911819 119.525057 
Q 1031.138324 128.16 1027.494526 128.16 
Q 1025.779114 128.16 1024.048213 126.21313 
Q 1022.317313 124.289163 1020.586412 120.48704 
L 1020.586412 97.239116 
Q 1022.317313 102.667449 1023.932046 105.438876 
Q 1025.546778 108.187399 1027.049216 108.187399 
Q 1028.574887 108.187399 1029.384189 105.186928 
Q 1030.193492 102.163553 1030.193492 96.574889 
Q 1030.193492 91.581739 1029.643631 88.856121 
Q 1029.09377 86.130502 1027.448059 83.977492 
L 1025.643585 81.618343 
Q 1022.933002 78.18269 1021.67839 70.67006 
Q 1020.427649 63.15743 1020.427649 50.422607 
Q 1020.427649 34.458269 1022.170167 25.869134 
Q 1023.912684 17.28 1027.180873 17.28 
Q 1028.671693 17.28 1030.243831 18.608453 
Q 1031.815969 19.936906 1033.496531 22.570907 
z
" clip-path="url(#pa20adda945)" style="fill: #40ba47"/>
   </g>
   <g id="patch_57">
    <path d="M 1035.435718 17.28 
L 1049.693384 17.28 
L 1049.693384 38.904689 
L 1044.56394 38.904689 
L 1044.56394 128.16 
L 1040.575109 128.16 
L 1040.575109 38.904689 
L 1035.435718 38.904689 
L 1035.435718 17.28 
z
" clip-path="url(#pa20adda945)" style="fill: #40ba47"/>
   </g>
   <g id="patch_58">
    <path d="M 1050.443787 17.28 
L 1055.023563 17.28 
L 1060.810518 93.322863 
L 1060.810518 17.28 
L 1064.701452 17.28 
L 1064.701452 128.16 
L 1060.118266 128.16 
L 1054.331311 52.117137 
L 1054.331311 128.16 
L 1050.443787 128.16 
L 1050.443787 17.28 
z
" clip-path="url(#pa20adda945)" style="fill: #40ba47"/>
   </g>
   <g id="patch_59">
    <path d="M 1065.451856 17.28 
L 1079.709521 17.28 
L 1079.709521 38.904689 
L 1074.580077 38.904689 
L 1074.580077 128.16 
L 1070.591247 128.16 
L 1070.591247 38.904689 
L 1065.451856 38.904689 
L 1065.451856 17.28 
z
" clip-path="url(#pa20adda945)" style="fill: #40ba47"/>
   </g>
   <g id="patch_60">
    <path d="M 1080.459925 17.28 
L 1085.039701 17.28 
L 1090.826656 93.322863 
L 1090.826656 17.28 
L 1094.71759 17.28 
L 1094.71759 128.16 
L 1090.134404 128.16 
L 1084.347449 52.117137 
L 1084.347449 128.16 
L 1080.459925 128.16 
L 1080.459925 17.28 
z
" clip-path="url(#pa20adda945)" style="fill: #40ba47"/>
   </g>
   <g id="patch_61">
    <path d="M 1095.467994 17.28 
L 1099.225271 17.28 
L 1099.225271 57.749061 
L 1104.640998 17.28 
L 1109.004187 17.28 
L 1101.98623 69.797102 
L 1109.725659 128.16 
L 1105.022035 128.16 
L 1099.225271 84.48288 
L 1099.225271 128.16 
L 1095.467994 128.16 
L 1095.467994 17.28 
z
" clip-path="url(#pa20adda945)" style="fill: #bd2e1f"/>
   </g>
   <g id="patch_62">
    <path d="M 1110.476062 17.28 
L 1114.23334 17.28 
L 1114.23334 57.749061 
L 1119.649066 17.28 
L 1124.012256 17.28 
L 1116.994298 69.797102 
L 1124.733728 128.16 
L 1120.030104 128.16 
L 1114.23334 84.48288 
L 1114.23334 128.16 
L 1110.476062 128.16 
L 1110.476062 17.28 
z
" clip-path="url(#pa20adda945)" style="fill: #bd2e1f"/>
   </g>
   <g id="patch_63">
    <path d="M 1130.02594 17.28 
L 1135.199988 17.28 
L 1135.199988 128.16 
L 1130.02594 128.16 
L 1130.02594 17.28 
z
" clip-path="url(#pa20adda945)" style="fill: #21599c"/>
   </g>
   <g id="patch_64">
    <path d="M 1140.4922 17.28 
L 1147.903216 17.28 
Q 1151.21144 17.28 1152.978796 26.690304 
Q 1154.749866 36.076845 1154.749866 53.447887 
Q 1154.749866 70.913982 1152.978796 80.300523 
Q 1151.21144 89.687064 1147.903216 89.687064 
L 1144.958859 89.687064 
L 1144.958859 128.16 
L 1140.4922 128.16 
L 1140.4922 17.28 
z
M 1144.958859 38.00168 
L 1144.958859 68.965384 
L 1147.42796 68.965384 
Q 1148.727487 68.965384 1149.436657 64.925607 
Q 1150.145828 60.885829 1150.145828 53.447887 
Q 1150.145828 46.033708 1149.436657 42.017694 
Q 1148.727487 38.00168 1147.42796 38.00168 
L 1144.958859 38.00168 
z
" clip-path="url(#pa20adda945)" style="fill: #787800"/>
   </g>
   <g id="patch_65">
    <path d="M 1155.500269 17.28 
L 1159.442094 17.28 
L 1162.626106 56.798526 
L 1165.807123 17.28 
L 1169.757934 17.28 
L 1164.432277 81.441166 
L 1164.432277 128.16 
L 1160.828922 128.16 
L 1160.828922 81.441166 
L 1155.500269 17.28 
z
" clip-path="url(#pa20adda945)" style="fill: #177875"/>
   </g>
   <g id="patch_66">
    <path d="M 1176.293321 66.446464 
Q 1177.572855 66.446464 1178.127997 63.119589 
Q 1178.683139 59.76895 1178.683139 52.117137 
Q 1178.683139 44.536614 1178.127997 41.281029 
Q 1177.572855 38.00168 1176.293321 38.00168 
L 1174.580506 38.00168 
L 1174.580506 66.446464 
L 1176.293321 66.446464 
z
M 1174.580506 86.193845 
L 1174.580506 128.16 
L 1170.508338 128.16 
L 1170.508338 17.28 
L 1176.726603 17.28 
Q 1179.847583 17.28 1181.299752 24.646652 
Q 1182.755307 31.989541 1182.755307 47.887252 
Q 1182.755307 58.865941 1181.997064 65.923669 
Q 1181.242207 72.981397 1179.718952 76.332036 
Q 1180.55505 77.662786 1181.215127 82.391702 
Q 1181.878589 87.096854 1182.555591 96.673502 
L 1184.766003 128.16 
L 1180.429804 128.16 
L 1178.503733 100.618225 
Q 1177.921511 92.301037 1177.322365 89.259323 
Q 1176.726603 86.193845 1175.731409 86.193845 
L 1174.580506 86.193845 
z
" clip-path="url(#pa20adda945)" style="fill: #bd2e1f"/>
   </g>
   <g id="patch_67">
    <path d="M 1185.516407 17.28 
L 1199.477306 17.28 
L 1199.477306 38.904689 
L 1190.690455 38.904689 
L 1190.690455 59.531316 
L 1198.956891 59.531316 
L 1198.956891 81.156005 
L 1190.690455 81.156005 
L 1190.690455 106.559074 
L 1199.774072 106.559074 
L 1199.774072 128.16 
L 1185.516407 128.16 
L 1185.516407 17.28 
z
" clip-path="url(#pa20adda945)" style="fill: #6b296b"/>
   </g>
   <g id="patch_68">
    <path d="M 1200.524476 17.28 
L 1205.104252 17.28 
L 1210.891207 93.322863 
L 1210.891207 17.28 
L 1214.782141 17.28 
L 1214.782141 128.16 
L 1210.198955 128.16 
L 1204.412 52.117137 
L 1204.412 128.16 
L 1200.524476 128.16 
L 1200.524476 17.28 
z
" clip-path="url(#pa20adda945)" style="fill: #40ba47"/>
   </g>
   <g id="patch_69">
    <path d="M 1215.532544 17.28 
L 1220.706593 17.28 
L 1220.706593 106.559074 
L 1229.79021 106.559074 
L 1229.79021 128.16 
L 1215.532544 128.16 
L 1215.532544 17.28 
z
" clip-path="url(#pa20adda945)" style="fill: #21599c"/>
   </g>
   <g id="patch_70">
    <path d="M 1230.540613 17.28 
L 1234.067862 17.28 
L 1237.673819 99.121132 
L 1241.273945 17.28 
L 1244.798279 17.28 
L 1239.761017 128.16 
L 1235.577875 128.16 
L 1230.540613 17.28 
z
" clip-path="url(#pa20adda945)" style="fill: #21599c"/>
   </g>
   <g id="patch_71">
    <path d="M 1259.806347 118.127891 
Q 1258.368439 123.143945 1256.821888 125.663425 
Q 1255.275337 128.16 1253.626535 128.16 
Q 1249.900753 128.16 1247.724718 113.226358 
Q 1245.548682 98.292716 1245.548682 72.754357 
Q 1245.548682 46.91824 1247.763062 32.09912 
Q 1249.980637 17.28 1253.837428 17.28 
Q 1255.323267 17.28 1256.684488 19.295584 
Q 1258.048903 21.288263 1259.256747 25.227812 
L 1259.256747 47.330518 
Q 1258.010559 42.268655 1256.777153 39.77208 
Q 1255.543746 37.252601 1254.30395 37.252601 
Q 1252.009686 37.252601 1250.766694 46.460153 
Q 1249.523701 55.644801 1249.523701 72.754357 
Q 1249.523701 89.703582 1250.721959 98.956943 
Q 1251.920216 108.187399 1254.12501 108.187399 
Q 1254.725736 108.187399 1255.240188 107.660599 
Q 1255.75464 107.110894 1256.163645 105.965677 
L 1256.163645 85.214328 
L 1253.81506 85.214328 
L 1253.81506 66.73051 
L 1259.806347 66.73051 
L 1259.806347 118.127891 
z
" clip-path="url(#pa20adda945)" style="fill: #787800"/>
   </g>
   <g id="patch_72">
    <path d="M 1260.556751 17.28 
L 1274.51765 17.28 
L 1274.51765 38.904689 
L 1265.7308 38.904689 
L 1265.7308 59.531316 
L 1273.997235 59.531316 
L 1273.997235 81.156005 
L 1265.7308 81.156005 
L 1265.7308 106.559074 
L 1274.814416 106.559074 
L 1274.814416 128.16 
L 1260.556751 128.16 
L 1260.556751 17.28 
z
" clip-path="url(#pa20adda945)" style="fill: #6b296b"/>
   </g>
   <g id="patch_73">
    <path d="M 1285.441117 107.961114 
L 1279.957848 107.961114 
L 1279.092069 128.16 
L 1275.56482 128.16 
L 1280.602081 17.28 
L 1284.785224 17.28 
L 1289.822485 128.16 
L 1286.298151 128.16 
L 1285.441117 107.961114 
z
M 1280.832373 87.382015 
L 1284.557847 87.382015 
L 1282.698025 43.277154 
L 1280.832373 87.382015 
z
" clip-path="url(#pa20adda945)" style="fill: #21599c"/>
   </g>
   <g id="patch_74">
    <path d="M 1290.572889 17.28 
L 1294.100138 17.28 
L 1297.706094 99.121132 
L 1301.30622 17.28 
L 1304.830554 17.28 
L 1299.793293 128.16 
L 1295.61015 128.16 
L 1290.572889 17.28 
z
" clip-path="url(#pa20adda945)" style="fill: #21599c"/>
   </g>
   <g id="patch_75">
    <path d="M 1305.72934 17.28 
L 1319.69024 17.28 
L 1319.69024 38.904689 
L 1310.903389 38.904689 
L 1310.903389 59.531316 
L 1319.169824 59.531316 
L 1319.169824 81.156005 
L 1310.903389 81.156005 
L 1310.903389 128.16 
L 1305.72934 128.16 
L 1305.72934 17.28 
z
" clip-path="url(#pa20adda945)" style="fill: #21599c"/>
   </g>
   <g id="patch_76">
    <path d="M 1320.589026 17.28 
L 1334.846692 17.28 
L 1334.846692 38.904689 
L 1329.717248 38.904689 
L 1329.717248 128.16 
L 1325.728417 128.16 
L 1325.728417 38.904689 
L 1320.589026 38.904689 
L 1320.589026 17.28 
z
" clip-path="url(#pa20adda945)" style="fill: #40ba47"/>
   </g>
   <g id="patch_77">
    <path d="M 1335.597095 17.28 
L 1349.854761 17.28 
L 1349.854761 38.904689 
L 1344.725317 38.904689 
L 1344.725317 128.16 
L 1340.736486 128.16 
L 1340.736486 38.904689 
L 1335.597095 38.904689 
L 1335.597095 17.28 
z
" clip-path="url(#pa20adda945)" style="fill: #40ba47"/>
   </g>
   <g id="patch_78">
    <path d="M 1350.605164 17.28 
L 1354.362442 17.28 
L 1354.362442 57.749061 
L 1359.778168 17.28 
L 1364.141357 17.28 
L 1357.1234 69.797102 
L 1364.862829 128.16 
L 1360.159205 128.16 
L 1354.362442 84.48288 
L 1354.362442 128.16 
L 1350.605164 128.16 
L 1350.605164 17.28 
z
" clip-path="url(#pa20adda945)" style="fill: #bd2e1f"/>
   </g>
   <g id="patch_79">
    <path d="M 1365.613233 17.28 
L 1379.574132 17.28 
L 1379.574132 38.904689 
L 1370.787282 38.904689 
L 1370.787282 59.531316 
L 1379.053717 59.531316 
L 1379.053717 81.156005 
L 1370.787282 81.156005 
L 1370.787282 106.559074 
L 1379.870898 106.559074 
L 1379.870898 128.16 
L 1365.613233 128.16 
L 1365.613233 17.28 
z
" clip-path="url(#pa20adda945)" style="fill: #6b296b"/>
   </g>
   <g id="patch_80">
    <path d="M 1380.621302 17.28 
L 1394.878967 17.28 
L 1394.878967 38.904689 
L 1389.749523 38.904689 
L 1389.749523 128.16 
L 1385.760693 128.16 
L 1385.760693 38.904689 
L 1380.621302 38.904689 
L 1380.621302 17.28 
z
" clip-path="url(#pa20adda945)" style="fill: #40ba47"/>
   </g>
   <g id="patch_81">
    <path d="M 1395.629371 17.28 
L 1409.887036 17.28 
L 1409.887036 38.904689 
L 1404.757592 38.904689 
L 1404.757592 128.16 
L 1400.768762 128.16 
L 1400.768762 38.904689 
L 1395.629371 38.904689 
L 1395.629371 17.28 
z
" clip-path="url(#pa20adda945)" style="fill: #40ba47"/>
   </g>
   <g id="patch_82">
    <path d="M 1410.637439 17.28 
L 1415.811488 17.28 
L 1415.811488 106.559074 
L 1424.895105 106.559074 
L 1424.895105 128.16 
L 1410.637439 128.16 
L 1410.637439 17.28 
z
" clip-path="url(#pa20adda945)" style="fill: #21599c"/>
   </g>
   <g id="patch_83">
    <path d="M 1425.793891 17.28 
L 1439.754791 17.28 
L 1439.754791 38.904689 
L 1430.96794 38.904689 
L 1430.96794 59.531316 
L 1439.234375 59.531316 
L 1439.234375 81.156005 
L 1430.96794 81.156005 
L 1430.96794 128.16 
L 1425.793891 128.16 
L 1425.793891 17.28 
z
" clip-path="url(#pa20adda945)" style="fill: #21599c"/>
   </g>
   <g id="patch_84">
    <path d="M 1440.653577 17.28 
L 1444.410855 17.28 
L 1444.410855 57.749061 
L 1449.826581 17.28 
L 1454.18977 17.28 
L 1447.171813 69.797102 
L 1454.911243 128.16 
L 1450.207618 128.16 
L 1444.410855 84.48288 
L 1444.410855 128.16 
L 1440.653577 128.16 
L 1440.653577 17.28 
z
" clip-path="url(#pa20adda945)" style="fill: #bd2e1f"/>
   </g>
   <g id="patch_85">
    <path d="M 1455.661646 17.28 
L 1459.418923 17.28 
L 1459.418923 57.749061 
L 1464.83465 17.28 
L 1469.197839 17.28 
L 1462.179882 69.797102 
L 1469.919311 128.16 
L 1465.215687 128.16 
L 1459.418923 84.48288 
L 1459.418923 128.16 
L 1455.661646 128.16 
L 1455.661646 17.28 
z
" clip-path="url(#pa20adda945)" style="fill: #bd2e1f"/>
   </g>
   <g id="patch_86">
    <path d="M 1470.669715 17.28 
L 1475.843764 17.28 
L 1475.843764 106.559074 
L 1484.92738 106.559074 
L 1484.92738 128.16 
L 1470.669715 128.16 
L 1470.669715 17.28 
z
" clip-path="url(#pa20adda945)" style="fill: #21599c"/>
   </g>
   <g id="patch_87">
    <path d="M 1485.677784 17.28 
L 1499.935449 17.28 
L 1499.935449 38.904689 
L 1494.806005 38.904689 
L 1494.806005 128.16 
L 1490.817175 128.16 
L 1490.817175 38.904689 
L 1485.677784 38.904689 
L 1485.677784 17.28 
z
" clip-path="url(#pa20adda945)" style="fill: #40ba47"/>
   </g>
   <g id="patch_88">
    <path d="M 1508.19489 111.578719 
L 1507.915677 111.578719 
Q 1504.490867 111.578719 1502.586875 99.152512 
Q 1500.685853 86.706798 1500.685853 64.526897 
Q 1500.685853 42.38601 1502.583904 29.842759 
Q 1504.481956 17.28 1507.814685 17.28 
Q 1511.183059 17.28 1513.063288 29.725714 
Q 1514.943518 42.151921 1514.943518 64.526897 
Q 1514.943518 79.879212 1513.945481 90.978916 
Q 1512.947445 102.078621 1511.073156 107.677241 
L 1513.865282 128.16 
L 1510.458294 128.16 
L 1508.19489 111.578719 
z
M 1507.814685 34.290443 
Q 1506.180994 34.290443 1505.280979 42.210443 
Q 1504.380964 50.130443 1504.380964 64.526897 
Q 1504.380964 79.157438 1505.260187 86.940887 
Q 1506.14238 94.704828 1507.814685 94.704828 
Q 1509.457287 94.704828 1510.357302 86.784828 
Q 1511.257317 78.84532 1511.257317 64.526897 
Q 1511.257317 50.130443 1510.357302 42.210443 
Q 1509.457287 34.290443 1507.814685 34.290443 
z
" clip-path="url(#pa20adda945)" style="fill: #40ba47"/>
   </g>
   <g id="patch_89">
    <path d="M 1529.951587 118.127891 
Q 1528.513678 123.143945 1526.967127 125.663425 
Q 1525.420576 128.16 1523.771774 128.16 
Q 1520.045992 128.16 1517.869957 113.226358 
Q 1515.693921 98.292716 1515.693921 72.754357 
Q 1515.693921 46.91824 1517.908301 32.09912 
Q 1520.125876 17.28 1523.982667 17.28 
Q 1525.468507 17.28 1526.829727 19.295584 
Q 1528.194143 21.288263 1529.401986 25.227812 
L 1529.401986 47.330518 
Q 1528.155798 42.268655 1526.922392 39.77208 
Q 1525.688986 37.252601 1524.449189 37.252601 
Q 1522.154925 37.252601 1520.911933 46.460153 
Q 1519.668941 55.644801 1519.668941 72.754357 
Q 1519.668941 89.703582 1520.867198 98.956943 
Q 1522.065455 108.187399 1524.270249 108.187399 
Q 1524.870975 108.187399 1525.385427 107.660599 
Q 1525.899879 107.110894 1526.308884 105.965677 
L 1526.308884 85.214328 
L 1523.9603 85.214328 
L 1523.9603 66.73051 
L 1529.951587 66.73051 
L 1529.951587 118.127891 
z
" clip-path="url(#pa20adda945)" style="fill: #787800"/>
   </g>
   <g id="patch_90">
    <path d="M 1530.850373 17.28 
L 1544.811273 17.28 
L 1544.811273 38.904689 
L 1536.024422 38.904689 
L 1536.024422 59.531316 
L 1544.290857 59.531316 
L 1544.290857 81.156005 
L 1536.024422 81.156005 
L 1536.024422 128.16 
L 1530.850373 128.16 
L 1530.850373 17.28 
z
" clip-path="url(#pa20adda945)" style="fill: #21599c"/>
   </g>
   <g id="patch_91">
    <path d="M 1545.710059 17.28 
L 1550.884108 17.28 
L 1550.884108 106.559074 
L 1559.967725 106.559074 
L 1559.967725 128.16 
L 1545.710059 128.16 
L 1545.710059 17.28 
z
" clip-path="url(#pa20adda945)" style="fill: #21599c"/>
   </g>
   <g id="patch_92">
    <path d="M 1560.718128 17.28 
L 1564.475405 17.28 
L 1564.475405 57.749061 
L 1569.891132 17.28 
L 1574.254321 17.28 
L 1567.236364 69.797102 
L 1574.975793 128.16 
L 1570.272169 128.16 
L 1564.475405 84.48288 
L 1564.475405 128.16 
L 1560.718128 128.16 
L 1560.718128 17.28 
z
" clip-path="url(#pa20adda945)" style="fill: #bd2e1f"/>
   </g>
   <g id="patch_93">
    <path d="M 1575.726197 17.28 
L 1589.983862 17.28 
L 1589.983862 38.904689 
L 1584.854418 38.904689 
L 1584.854418 128.16 
L 1580.865588 128.16 
L 1580.865588 38.904689 
L 1575.726197 38.904689 
L 1575.726197 17.28 
z
" clip-path="url(#pa20adda945)" style="fill: #40ba47"/>
   </g>
   <g id="patch_94">
    <path d="M 1590.734266 17.28 
L 1604.695165 17.28 
L 1604.695165 38.904689 
L 1595.908314 38.904689 
L 1595.908314 59.531316 
L 1604.17475 59.531316 
L 1604.17475 81.156005 
L 1595.908314 81.156005 
L 1595.908314 106.559074 
L 1604.991931 106.559074 
L 1604.991931 128.16 
L 1590.734266 128.16 
L 1590.734266 17.28 
z
" clip-path="url(#pa20adda945)" style="fill: #6b296b"/>
   </g>
   <g id="patch_95">
    <path d="M 1605.742335 17.28 
L 1609.499612 17.28 
L 1609.499612 57.749061 
L 1614.915339 17.28 
L 1619.278528 17.28 
L 1612.260571 69.797102 
L 1620 128.16 
L 1615.296376 128.16 
L 1609.499612 84.48288 
L 1609.499612 128.16 
L 1605.742335 128.16 
L 1605.742335 17.28 
z
" clip-path="url(#pa20adda945)" style="fill: #bd2e1f"/>
   </g>
   <g id="matplotlib.axis_1">
    <g id="xtick_1">
     <g id="line2d_2">
      <defs>
       <path id="mbae671c9c7" d="M 0 0 
L 0 3.5 
" style="stroke: #000000; stroke-width: 0.8"/>
      </defs>
      <g>
       <use xlink:href="#mbae671c9c7" x="232.128833" y="128.16" style="stroke: #000000; stroke-width: 0.8"/>
      </g>
     </g>
     <g id="text_1">
      <!-- 0 -->
      <g transform="translate(228.947583 142.758438) scale(0.1 -0.1)">
       <defs>
        <path id="DejaVuSans-30" d="M 2034 4250 
Q 1547 4250 1301 3770 
Q 1056 3291 1056 2328 
Q 1056 1369 1301 889 
Q 1547 409 2034 409 
Q 2525 409 2770 889 
Q 3016 1369 3016 2328 
Q 3016 3291 2770 3770 
Q 2525 4250 2034 4250 
z
M 2034 4750 
Q 2819 4750 3233 4129 
Q 3647 3509 3647 2328 
Q 3647 1150 3233 529 
Q 2819 -91 2034 -91 
Q 1250 -91 836 529 
Q 422 1150 422 2328 
Q 422 3509 836 4129 
Q 1250 4750 2034 4750 
z
" transform="scale(0.015625)"/>
       </defs>
       <use xlink:href="#DejaVuSans-30"/>
      </g>
     </g>
    </g>
    <g id="xtick_2">
     <g id="line2d_3">
      <g>
       <use xlink:href="#mbae671c9c7" x="532.29021" y="128.16" style="stroke: #000000; stroke-width: 0.8"/>
      </g>
     </g>
     <g id="text_2">
      <!-- 20 -->
      <g transform="translate(525.92771 142.758438) scale(0.1 -0.1)">
       <defs>
        <path id="DejaVuSans-32" d="M 1228 531 
L 3431 531 
L 3431 0 
L 469 0 
L 469 531 
Q 828 903 1448 1529 
Q 2069 2156 2228 2338 
Q 2531 2678 2651 2914 
Q 2772 3150 2772 3378 
Q 2772 3750 2511 3984 
Q 2250 4219 1831 4219 
Q 1534 4219 1204 4116 
Q 875 4013 500 3803 
L 500 4441 
Q 881 4594 1212 4672 
Q 1544 4750 1819 4750 
Q 2544 4750 2975 4387 
Q 3406 4025 3406 3419 
Q 3406 3131 3298 2873 
Q 3191 2616 2906 2266 
Q 2828 2175 2409 1742 
Q 1991 1309 1228 531 
z
" transform="scale(0.015625)"/>
       </defs>
       <use xlink:href="#DejaVuSans-32"/>
       <use xlink:href="#DejaVuSans-30" x="63.623047"/>
      </g>
     </g>
    </g>
    <g id="xtick_3">
     <g id="line2d_4">
      <g>
       <use xlink:href="#mbae671c9c7" x="832.451587" y="128.16" style="stroke: #000000; stroke-width: 0.8"/>
      </g>
     </g>
     <g id="text_3">
      <!-- 40 -->
      <g transform="translate(826.089087 142.758438) scale(0.1 -0.1)">
       <defs>
        <path id="DejaVuSans-34" d="M 2419 4116 
L 825 1625 
L 2419 1625 
L 2419 4116 
z
M 2253 4666 
L 3047 4666 
L 3047 1625 
L 3713 1625 
L 3713 1100 
L 3047 1100 
L 3047 0 
L 2419 0 
L 2419 1100 
L 313 1100 
L 313 1709 
L 2253 4666 
z
" transform="scale(0.015625)"/>
       </defs>
       <use xlink:href="#DejaVuSans-34"/>
       <use xlink:href="#DejaVuSans-30" x="63.623047"/>
      </g>
     </g>
    </g>
    <g id="xtick_4">
     <g id="line2d_5">
      <g>
       <use xlink:href="#mbae671c9c7" x="1132.612964" y="128.16" style="stroke: #000000; stroke-width: 0.8"/>
      </g>
     </g>
     <g id="text_4">
      <!-- 60 -->
      <g transform="translate(1126.250464 142.758438) scale(0.1 -0.1)">
       <defs>
        <path id="DejaVuSans-36" d="M 2113 2584 
Q 1688 2584 1439 2293 
Q 1191 2003 1191 1497 
Q 1191 994 1439 701 
Q 1688 409 2113 409 
Q 2538 409 2786 701 
Q 3034 994 3034 1497 
Q 3034 2003 2786 2293 
Q 2538 2584 2113 2584 
z
M 3366 4563 
L 3366 3988 
Q 3128 4100 2886 4159 
Q 2644 4219 2406 4219 
Q 1781 4219 1451 3797 
Q 1122 3375 1075 2522 
Q 1259 2794 1537 2939 
Q 1816 3084 2150 3084 
Q 2853 3084 3261 2657 
Q 3669 2231 3669 1497 
Q 3669 778 3244 343 
Q 2819 -91 2113 -91 
Q 1303 -91 875 529 
Q 447 1150 447 2328 
Q 447 3434 972 4092 
Q 1497 4750 2381 4750 
Q 2619 4750 2861 4703 
Q 3103 4656 3366 4563 
z
" transform="scale(0.015625)"/>
       </defs>
       <use xlink:href="#DejaVuSans-36"/>
       <use xlink:href="#DejaVuSans-30" x="63.623047"/>
      </g>
     </g>
    </g>
    <g id="xtick_5">
     <g id="line2d_6">
      <g>
       <use xlink:href="#mbae671c9c7" x="1432.774341" y="128.16" style="stroke: #000000; stroke-width: 0.8"/>
      </g>
     </g>
     <g id="text_5">
      <!-- 80 -->
      <g transform="translate(1426.411841 142.758438) scale(0.1 -0.1)">
       <defs>
        <path id="DejaVuSans-38" d="M 2034 2216 
Q 1584 2216 1326 1975 
Q 1069 1734 1069 1313 
Q 1069 891 1326 650 
Q 1584 409 2034 409 
Q 2484 409 2743 651 
Q 3003 894 3003 1313 
Q 3003 1734 2745 1975 
Q 2488 2216 2034 2216 
z
M 1403 2484 
Q 997 2584 770 2862 
Q 544 3141 544 3541 
Q 544 4100 942 4425 
Q 1341 4750 2034 4750 
Q 2731 4750 3128 4425 
Q 3525 4100 3525 3541 
Q 3525 3141 3298 2862 
Q 3072 2584 2669 2484 
Q 3125 2378 3379 2068 
Q 3634 1759 3634 1313 
Q 3634 634 3220 271 
Q 2806 -91 2034 -91 
Q 1263 -91 848 271 
Q 434 634 434 1313 
Q 434 1759 690 2068 
Q 947 2378 1403 2484 
z
M 1172 3481 
Q 1172 3119 1398 2916 
Q 1625 2713 2034 2713 
Q 2441 2713 2670 2916 
Q 2900 3119 2900 3481 
Q 2900 3844 2670 4047 
Q 2441 4250 2034 4250 
Q 1625 4250 1398 4047 
Q 1172 3844 1172 3481 
z
" transform="scale(0.015625)"/>
       </defs>
       <use xlink:href="#DejaVuSans-38"/>
       <use xlink:href="#DejaVuSans-30" x="63.623047"/>
      </g>
     </g>
    </g>
   </g>
   <g id="matplotlib.axis_2">
    <g id="ytick_1">
     <g id="line2d_7">
      <defs>
       <path id="mc3cb33f2dd" d="M 0 0 
L -3.5 0 
" style="stroke: #000000; stroke-width: 0.8"/>
      </defs>
      <g>
       <use xlink:href="#mc3cb33f2dd" x="225" y="128.16" style="stroke: #000000; stroke-width: 0.8"/>
      </g>
     </g>
     <g id="text_6">
      <!-- 0.0 -->
      <g transform="translate(202.096875 131.959219) scale(0.1 -0.1)">
       <defs>
        <path id="DejaVuSans-2e" d="M 684 794 
L 1344 794 
L 1344 0 
L 684 0 
L 684 794 
z
" transform="scale(0.015625)"/>
       </defs>
       <use xlink:href="#DejaVuSans-30"/>
       <use xlink:href="#DejaVuSans-2e" x="63.623047"/>
       <use xlink:href="#DejaVuSans-30" x="95.410156"/>
      </g>
     </g>
    </g>
    <g id="ytick_2">
     <g id="line2d_8">
      <g>
       <use xlink:href="#mc3cb33f2dd" x="225" y="100.44" style="stroke: #000000; stroke-width: 0.8"/>
      </g>
     </g>
     <g id="text_7">
      <!-- 0.5 -->
      <g transform="translate(202.096875 104.239219) scale(0.1 -0.1)">
       <defs>
        <path id="DejaVuSans-35" d="M 691 4666 
L 3169 4666 
L 3169 4134 
L 1269 4134 
L 1269 2991 
Q 1406 3038 1543 3061 
Q 1681 3084 1819 3084 
Q 2600 3084 3056 2656 
Q 3513 2228 3513 1497 
Q 3513 744 3044 326 
Q 2575 -91 1722 -91 
Q 1428 -91 1123 -41 
Q 819 9 494 109 
L 494 744 
Q 775 591 1075 516 
Q 1375 441 1709 441 
Q 2250 441 2565 725 
Q 2881 1009 2881 1497 
Q 2881 1984 2565 2268 
Q 2250 2553 1709 2553 
Q 1456 2553 1204 2497 
Q 953 2441 691 2322 
L 691 4666 
z
" transform="scale(0.015625)"/>
       </defs>
       <use xlink:href="#DejaVuSans-30"/>
       <use xlink:href="#DejaVuSans-2e" x="63.623047"/>
       <use xlink:href="#DejaVuSans-35" x="95.410156"/>
      </g>
     </g>
    </g>
    <g id="ytick_3">
     <g id="line2d_9">
      <g>
       <use xlink:href="#mc3cb33f2dd" x="225" y="72.72" style="stroke: #000000; stroke-width: 0.8"/>
      </g>
     </g>
     <g id="text_8">
      <!-- 1.0 -->
      <g transform="translate(202.096875 76.519219) scale(0.1 -0.1)">
       <defs>
        <path id="DejaVuSans-31" d="M 794 531 
L 1825 531 
L 1825 4091 
L 703 3866 
L 703 4441 
L 1819 4666 
L 2450 4666 
L 2450 531 
L 3481 531 
L 3481 0 
L 794 0 
L 794 531 
z
" transform="scale(0.015625)"/>
       </defs>
       <use xlink:href="#DejaVuSans-31"/>
       <use xlink:href="#DejaVuSans-2e" x="63.623047"/>
       <use xlink:href="#DejaVuSans-30" x="95.410156"/>
      </g>
     </g>
    </g>
    <g id="ytick_4">
     <g id="line2d_10">
      <g>
       <use xlink:href="#mc3cb33f2dd" x="225" y="45" style="stroke: #000000; stroke-width: 0.8"/>
      </g>
     </g>
     <g id="text_9">
      <!-- 1.5 -->
      <g transform="translate(202.096875 48.799219) scale(0.1 -0.1)">
       <use xlink:href="#DejaVuSans-31"/>
       <use xlink:href="#DejaVuSans-2e" x="63.623047"/>
       <use xlink:href="#DejaVuSans-35" x="95.410156"/>
      </g>
     </g>
    </g>
    <g id="ytick_5">
     <g id="line2d_11">
      <g>
       <use xlink:href="#mc3cb33f2dd" x="225" y="17.28" style="stroke: #000000; stroke-width: 0.8"/>
      </g>
     </g>
     <g id="text_10">
      <!-- 2.0 -->
      <g transform="translate(202.096875 21.079219) scale(0.1 -0.1)">
       <use xlink:href="#DejaVuSans-32"/>
       <use xlink:href="#DejaVuSans-2e" x="63.623047"/>
       <use xlink:href="#DejaVuSans-30" x="95.410156"/>
      </g>
     </g>
    </g>
   </g>
  </g>
 </g>
 <defs>
  <clipPath id="pa20adda945">
   <rect x="225" y="17.28" width="1395" height="110.88"/>
  </clipPath>
 </defs>
</svg>
