<?xml version="1.0" encoding="utf-8" standalone="no"?>
<!DOCTYPE svg PUBLIC "-//W3C//DTD SVG 1.1//EN"
  "http://www.w3.org/Graphics/SVG/1.1/DTD/svg11.dtd">
<svg xmlns:xlink="http://www.w3.org/1999/xlink" width="1800pt" height="144pt" viewBox="0 0 1800 144" xmlns="http://www.w3.org/2000/svg" version="1.1">
 <metadata>
  <rdf:RDF xmlns:dc="http://purl.org/dc/elements/1.1/" xmlns:cc="http://creativecommons.org/ns#" xmlns:rdf="http://www.w3.org/1999/02/22-rdf-syntax-ns#">
   <cc:Work>
    <dc:type rdf:resource="http://purl.org/dc/dcmitype/StillImage"/>
    <dc:date>2025-05-09T21:11:04.967511</dc:date>
    <dc:format>image/svg+xml</dc:format>
    <dc:creator>
     <cc:Agent>
      <dc:title>Matplotlib v3.8.0, https://matplotlib.org/</dc:title>
     </cc:Agent>
    </dc:creator>
   </cc:Work>
  </rdf:RDF>
 </metadata>
 <defs>
  <style type="text/css">*{stroke-linejoin: round; stroke-linecap: butt}</style>
 </defs>
 <g id="figure_1">
  <g id="patch_1">
   <path d="M 0 144 
L 1800 144 
L 1800 0 
L 0 0 
z
" style="fill: #ffffff"/>
  </g>
  <g id="axes_1">
   <g id="patch_2">
    <path d="M 225 128.16 
L 1620 128.16 
L 1620 17.28 
L 225 17.28 
z
" style="fill: #ffffff"/>
   </g>
   <g id="line2d_1">
    <path d="M 225 128.16 
L 1620 128.16 
" clip-path="url(#p4c969cbc05)" style="fill: none; stroke: #000000; stroke-width: 1.5; stroke-linecap: square"/>
   </g>
   <g id="patch_3">
    <path d="M 225 17.28 
L 229.44498 17.28 
L 232.528304 76.617197 
L 235.631951 17.28 
L 240.068221 17.28 
L 240.068221 128.16 
L 236.767148 128.16 
L 236.767148 47.055534 
L 233.646081 106.844235 
L 231.430849 106.844235 
L 228.309783 47.055534 
L 228.309783 128.16 
L 225 128.16 
L 225 17.28 
z
" clip-path="url(#p4c969cbc05)" style="fill: #21599c"/>
   </g>
   <g id="patch_4">
    <path d="M 240.861285 17.28 
L 255.929505 17.28 
L 255.929505 38.904689 
L 250.50845 38.904689 
L 250.50845 128.16 
L 246.292853 128.16 
L 246.292853 38.904689 
L 240.861285 38.904689 
L 240.861285 17.28 
z
" clip-path="url(#p4c969cbc05)" style="fill: #40ba47"/>
   </g>
   <g id="patch_5">
    <path d="M 264.658499 111.578719 
L 264.363413 111.578719 
Q 260.743901 111.578719 258.731666 99.152512 
Q 256.72257 86.706798 256.72257 64.526897 
Q 256.72257 42.38601 258.728527 29.842759 
Q 260.734483 17.28 264.25668 17.28 
Q 267.816547 17.28 269.803669 29.725714 
Q 271.79079 42.151921 271.79079 64.526897 
Q 271.79079 79.879212 270.736015 90.978916 
Q 269.681239 102.078621 267.700396 107.677241 
L 270.651256 128.16 
L 267.050579 128.16 
L 264.658499 111.578719 
z
M 264.25668 34.290443 
Q 262.530113 34.290443 261.578932 42.210443 
Q 260.62775 50.130443 260.62775 64.526897 
Q 260.62775 79.157438 261.556957 86.940887 
Q 262.489303 94.704828 264.25668 94.704828 
Q 265.992665 94.704828 266.943846 86.784828 
Q 267.895027 78.84532 267.895027 64.526897 
Q 267.895027 50.130443 266.943846 42.210443 
Q 265.992665 34.290443 264.25668 34.290443 
z
" clip-path="url(#p4c969cbc05)" style="fill: #40ba47"/>
   </g>
   <g id="patch_6">
    <path d="M 272.583854 17.28 
L 287.652075 17.28 
L 287.652075 38.904689 
L 282.23102 38.904689 
L 282.23102 128.16 
L 278.015422 128.16 
L 278.015422 38.904689 
L 272.583854 38.904689 
L 272.583854 17.28 
z
" clip-path="url(#p4c969cbc05)" style="fill: #40ba47"/>
   </g>
   <g id="patch_7">
    <path d="M 288.445139 17.28 
L 303.199723 17.28 
L 303.199723 38.904689 
L 293.913335 38.904689 
L 293.913335 59.531316 
L 302.649721 59.531316 
L 302.649721 81.156005 
L 293.913335 81.156005 
L 293.913335 106.559074 
L 303.51336 106.559074 
L 303.51336 128.16 
L 288.445139 128.16 
L 288.445139 17.28 
z
" clip-path="url(#p4c969cbc05)" style="fill: #6b296b"/>
   </g>
   <g id="patch_8">
    <path d="M 304.463243 17.28 
L 319.217826 17.28 
L 319.217826 38.904689 
L 309.931439 38.904689 
L 309.931439 59.531316 
L 318.667825 59.531316 
L 318.667825 81.156005 
L 309.931439 81.156005 
L 309.931439 128.16 
L 304.463243 128.16 
L 304.463243 17.28 
z
" clip-path="url(#p4c969cbc05)" style="fill: #21599c"/>
   </g>
   <g id="patch_9">
    <path d="M 328.103638 111.578719 
L 327.808552 111.578719 
Q 324.18904 111.578719 322.176805 99.152512 
Q 320.167709 86.706798 320.167709 64.526897 
Q 320.167709 42.38601 322.173666 29.842759 
Q 324.179623 17.28 327.701819 17.28 
Q 331.261686 17.28 333.248808 29.725714 
Q 335.23593 42.151921 335.23593 64.526897 
Q 335.23593 79.879212 334.181154 90.978916 
Q 333.126379 102.078621 331.145535 107.677241 
L 334.096395 128.16 
L 330.495718 128.16 
L 328.103638 111.578719 
z
M 327.701819 34.290443 
Q 325.975252 34.290443 325.024071 42.210443 
Q 324.072889 50.130443 324.072889 64.526897 
Q 324.072889 79.157438 325.002096 86.940887 
Q 325.934443 94.704828 327.701819 94.704828 
Q 329.437804 94.704828 330.388985 86.784828 
Q 331.340167 78.84532 331.340167 64.526897 
Q 331.340167 50.130443 330.388985 42.210443 
Q 329.437804 34.290443 327.701819 34.290443 
z
" clip-path="url(#p4c969cbc05)" style="fill: #40ba47"/>
   </g>
   <g id="patch_10">
    <path d="M 340.158167 38.904689 
L 340.158167 106.559074 
L 341.63753 106.559074 
Q 344.167206 106.559074 345.502408 97.861672 
Q 346.841043 89.164269 346.841043 72.601183 
Q 346.841043 56.13315 345.509273 47.530802 
Q 344.180935 38.904689 341.63753 38.904689 
L 340.158167 38.904689 
z
M 336.028994 17.28 
L 340.381272 17.28 
Q 344.02991 17.28 345.814756 20.892036 
Q 347.599602 24.480309 348.876454 33.106421 
Q 350.00228 40.615654 350.548031 50.429936 
Q 351.097214 60.220454 351.097214 72.601183 
Q 351.097214 85.172019 350.548031 95.010064 
Q 350.00228 104.84811 348.876454 112.333579 
Q 347.589305 120.959691 345.787297 124.571727 
Q 343.985289 128.16 340.381272 128.16 
L 336.028994 128.16 
L 336.028994 17.28 
z
" clip-path="url(#p4c969cbc05)" style="fill: #6b296b"/>
   </g>
   <g id="patch_11">
    <path d="M 351.890279 17.28 
L 357.358474 17.28 
L 357.358474 106.559074 
L 366.958499 106.559074 
L 366.958499 128.16 
L 351.890279 128.16 
L 351.890279 17.28 
z
" clip-path="url(#p4c969cbc05)" style="fill: #21599c"/>
   </g>
   <g id="patch_12">
    <path d="M 367.751563 17.28 
L 371.479338 17.28 
L 375.290295 99.121132 
L 379.09509 17.28 
L 382.819784 17.28 
L 377.496152 128.16 
L 373.075196 128.16 
L 367.751563 17.28 
z
" clip-path="url(#p4c969cbc05)" style="fill: #21599c"/>
   </g>
   <g id="patch_13">
    <path d="M 383.612848 17.28 
L 389.081044 17.28 
L 389.081044 106.559074 
L 398.681069 106.559074 
L 398.681069 128.16 
L 383.612848 128.16 
L 383.612848 17.28 
z
" clip-path="url(#p4c969cbc05)" style="fill: #21599c"/>
   </g>
   <g id="patch_14">
    <path d="M 399.474133 17.28 
L 403.201908 17.28 
L 407.012865 99.121132 
L 410.81766 17.28 
L 414.542354 17.28 
L 409.218721 128.16 
L 404.797765 128.16 
L 399.474133 17.28 
z
" clip-path="url(#p4c969cbc05)" style="fill: #21599c"/>
   </g>
   <g id="patch_15">
    <path d="M 430.403638 120.212188 
Q 429.143208 124.151737 427.780272 126.144416 
Q 426.417337 128.16 424.932914 128.16 
Q 420.506221 128.16 417.920819 113.226358 
Q 415.335418 98.292716 415.335418 72.754357 
Q 415.335418 47.124379 417.920819 32.213642 
Q 420.506221 17.28 424.932914 17.28 
Q 426.417337 17.28 427.780272 19.295584 
Q 429.143208 21.288263 430.403638 25.227812 
L 430.403638 47.330518 
Q 429.131818 42.108325 427.897963 39.680463 
Q 426.664108 37.252601 425.301172 37.252601 
Q 422.85624 37.252601 421.45534 46.712101 
Q 420.058236 56.148697 420.058236 72.754357 
Q 420.058236 89.291303 421.45534 98.750804 
Q 422.85624 108.187399 425.301172 108.187399 
Q 426.664108 108.187399 427.897963 105.759537 
Q 429.131818 103.308771 430.403638 98.086577 
L 430.403638 120.212188 
z
" clip-path="url(#p4c969cbc05)" style="fill: #6b296b"/>
   </g>
   <g id="patch_16">
    <path d="M 437.310565 66.446464 
Q 438.662841 66.446464 439.249543 63.119589 
Q 439.836245 59.76895 439.836245 52.117137 
Q 439.836245 44.536614 439.249543 41.281029 
Q 438.662841 38.00168 437.310565 38.00168 
L 435.500375 38.00168 
L 435.500375 66.446464 
L 437.310565 66.446464 
z
M 435.500375 86.193845 
L 435.500375 128.16 
L 431.196703 128.16 
L 431.196703 17.28 
L 437.768479 17.28 
Q 441.066888 17.28 442.601614 24.646652 
Q 444.139918 31.989541 444.139918 47.887252 
Q 444.139918 58.865941 443.338569 65.923669 
Q 442.540798 72.981397 440.930945 76.332036 
Q 441.814575 77.662786 442.512178 82.391702 
Q 443.213358 87.096854 443.928848 96.673502 
L 446.264923 128.16 
L 441.682209 128.16 
L 439.64664 100.618225 
Q 439.031319 92.301037 438.39811 89.259323 
Q 437.768479 86.193845 436.716708 86.193845 
L 435.500375 86.193845 
z
" clip-path="url(#p4c969cbc05)" style="fill: #bd2e1f"/>
   </g>
   <g id="patch_17">
    <path d="M 453.17185 66.446464 
Q 454.524126 66.446464 455.110828 63.119589 
Q 455.69753 59.76895 455.69753 52.117137 
Q 455.69753 44.536614 455.110828 41.281029 
Q 454.524126 38.00168 453.17185 38.00168 
L 451.36166 38.00168 
L 451.36166 66.446464 
L 453.17185 66.446464 
z
M 451.36166 86.193845 
L 451.36166 128.16 
L 447.057987 128.16 
L 447.057987 17.28 
L 453.629764 17.28 
Q 456.928173 17.28 458.462899 24.646652 
Q 460.001203 31.989541 460.001203 47.887252 
Q 460.001203 58.865941 459.199854 65.923669 
Q 458.402082 72.981397 456.79223 76.332036 
Q 457.67586 77.662786 458.373463 82.391702 
Q 459.074643 87.096854 459.790133 96.673502 
L 462.126208 128.16 
L 457.543494 128.16 
L 455.507925 100.618225 
Q 454.892604 92.301037 454.259395 89.259323 
Q 453.629764 86.193845 452.577993 86.193845 
L 451.36166 86.193845 
z
" clip-path="url(#p4c969cbc05)" style="fill: #bd2e1f"/>
   </g>
   <g id="patch_18">
    <path d="M 462.919272 17.28 
L 470.751608 17.28 
Q 474.247906 17.28 476.115737 26.690304 
Q 477.987493 36.076845 477.987493 53.447887 
Q 477.987493 70.913982 476.115737 80.300523 
Q 474.247906 89.687064 470.751608 89.687064 
L 467.639863 89.687064 
L 467.639863 128.16 
L 462.919272 128.16 
L 462.919272 17.28 
z
M 467.639863 38.00168 
L 467.639863 68.965384 
L 470.249334 68.965384 
Q 471.622739 68.965384 472.372226 64.925607 
Q 473.121713 60.885829 473.121713 53.447887 
Q 473.121713 46.033708 472.372226 42.017694 
Q 471.622739 38.00168 470.249334 38.00168 
L 467.639863 38.00168 
z
" clip-path="url(#p4c969cbc05)" style="fill: #787800"/>
   </g>
   <g id="patch_19">
    <path d="M 493.848778 118.127891 
Q 492.329123 123.143945 490.69465 125.663425 
Q 489.060177 128.16 487.31764 128.16 
Q 483.380045 128.16 481.080301 113.226358 
Q 478.780557 98.292716 478.780557 72.754357 
Q 478.780557 46.91824 481.120825 32.09912 
Q 483.464471 17.28 487.540522 17.28 
Q 489.110832 17.28 490.549439 19.295584 
Q 491.991422 21.288263 493.267932 25.227812 
L 493.267932 47.330518 
Q 491.950898 42.268655 490.647372 39.77208 
Q 489.343846 37.252601 488.033566 37.252601 
Q 485.608872 37.252601 484.295215 46.460153 
Q 482.981558 55.644801 482.981558 72.754357 
Q 482.981558 89.703582 484.247937 98.956943 
Q 485.514316 108.187399 487.844453 108.187399 
Q 488.479331 108.187399 489.02303 107.660599 
Q 489.566728 107.110894 489.998986 105.965677 
L 489.998986 85.214328 
L 487.516883 85.214328 
L 487.516883 66.73051 
L 493.848778 66.73051 
L 493.848778 118.127891 
z
" clip-path="url(#p4c969cbc05)" style="fill: #787800"/>
   </g>
   <g id="patch_20">
    <path d="M 494.641842 17.28 
L 509.710063 17.28 
L 509.710063 38.904689 
L 504.289007 38.904689 
L 504.289007 128.16 
L 500.07341 128.16 
L 500.07341 38.904689 
L 494.641842 38.904689 
L 494.641842 17.28 
z
" clip-path="url(#p4c969cbc05)" style="fill: #40ba47"/>
   </g>
   <g id="patch_21">
    <path d="M 520.940896 107.961114 
L 515.145901 107.961114 
L 514.230902 128.16 
L 510.503127 128.16 
L 515.826759 17.28 
L 520.247715 17.28 
L 525.571347 128.16 
L 521.846653 128.16 
L 520.940896 107.961114 
z
M 516.070143 87.382015 
L 520.007412 87.382015 
L 518.041858 43.277154 
L 516.070143 87.382015 
z
" clip-path="url(#p4c969cbc05)" style="fill: #21599c"/>
   </g>
   <g id="patch_22">
    <path d="M 526.364412 17.28 
L 534.196747 17.28 
Q 537.693045 17.28 539.560877 26.690304 
Q 541.432632 36.076845 541.432632 53.447887 
Q 541.432632 70.913982 539.560877 80.300523 
Q 537.693045 89.687064 534.196747 89.687064 
L 531.085003 89.687064 
L 531.085003 128.16 
L 526.364412 128.16 
L 526.364412 17.28 
z
M 531.085003 38.00168 
L 531.085003 68.965384 
L 533.694473 68.965384 
Q 535.067879 68.965384 535.817366 64.925607 
Q 536.566853 60.885829 536.566853 53.447887 
Q 536.566853 46.033708 535.817366 42.017694 
Q 535.067879 38.00168 533.694473 38.00168 
L 531.085003 38.00168 
z
" clip-path="url(#p4c969cbc05)" style="fill: #787800"/>
   </g>
   <g id="patch_23">
    <path d="M 552.663466 107.961114 
L 546.868471 107.961114 
L 545.953471 128.16 
L 542.225696 128.16 
L 547.549329 17.28 
L 551.970285 17.28 
L 557.293917 128.16 
L 553.569223 128.16 
L 552.663466 107.961114 
z
M 547.792712 87.382015 
L 551.729982 87.382015 
L 549.764428 43.277154 
L 547.792712 87.382015 
z
" clip-path="url(#p4c969cbc05)" style="fill: #21599c"/>
   </g>
   <g id="patch_24">
    <path d="M 568.524751 107.961114 
L 562.729755 107.961114 
L 561.814756 128.16 
L 558.086981 128.16 
L 563.410613 17.28 
L 567.83157 17.28 
L 573.155202 128.16 
L 569.430508 128.16 
L 568.524751 107.961114 
z
M 563.653997 87.382015 
L 567.591267 87.382015 
L 565.625713 43.277154 
L 563.653997 87.382015 
z
" clip-path="url(#p4c969cbc05)" style="fill: #21599c"/>
   </g>
   <g id="patch_25">
    <path d="M 573.948266 17.28 
L 589.016487 17.28 
L 589.016487 38.904689 
L 583.595431 38.904689 
L 583.595431 128.16 
L 579.379834 128.16 
L 579.379834 38.904689 
L 573.948266 38.904689 
L 573.948266 17.28 
z
" clip-path="url(#p4c969cbc05)" style="fill: #40ba47"/>
   </g>
   <g id="patch_26">
    <path d="M 600.247321 107.961114 
L 594.452325 107.961114 
L 593.537326 128.16 
L 589.809551 128.16 
L 595.133183 17.28 
L 599.554139 17.28 
L 604.877771 128.16 
L 601.153077 128.16 
L 600.247321 107.961114 
z
M 595.376567 87.382015 
L 599.313836 87.382015 
L 597.348282 43.277154 
L 595.376567 87.382015 
z
" clip-path="url(#p4c969cbc05)" style="fill: #21599c"/>
   </g>
   <g id="patch_27">
    <path d="M 605.670836 17.28 
L 609.398611 17.28 
L 613.209567 99.121132 
L 617.014362 17.28 
L 620.739056 17.28 
L 615.415424 128.16 
L 610.994468 128.16 
L 605.670836 17.28 
z
" clip-path="url(#p4c969cbc05)" style="fill: #21599c"/>
   </g>
   <g id="patch_28">
    <path d="M 621.532121 17.28 
L 625.259895 17.28 
L 629.070852 99.121132 
L 632.875647 17.28 
L 636.600341 17.28 
L 631.276709 128.16 
L 626.855753 128.16 
L 621.532121 17.28 
z
" clip-path="url(#p4c969cbc05)" style="fill: #21599c"/>
   </g>
   <g id="patch_29">
    <path d="M 643.507268 66.446464 
Q 644.859544 66.446464 645.446246 63.119589 
Q 646.032948 59.76895 646.032948 52.117137 
Q 646.032948 44.536614 645.446246 41.281029 
Q 644.859544 38.00168 643.507268 38.00168 
L 641.697078 38.00168 
L 641.697078 66.446464 
L 643.507268 66.446464 
z
M 641.697078 86.193845 
L 641.697078 128.16 
L 637.393405 128.16 
L 637.393405 17.28 
L 643.965182 17.28 
Q 647.263591 17.28 648.798317 24.646652 
Q 650.33662 31.989541 650.33662 47.887252 
Q 650.33662 58.865941 649.535272 65.923669 
Q 648.7375 72.981397 647.127648 76.332036 
Q 648.011278 77.662786 648.708881 82.391702 
Q 649.410061 87.096854 650.125551 96.673502 
L 652.461626 128.16 
L 647.878912 128.16 
L 645.843343 100.618225 
Q 645.228021 92.301037 644.594813 89.259323 
Q 643.965182 86.193845 642.913411 86.193845 
L 641.697078 86.193845 
z
" clip-path="url(#p4c969cbc05)" style="fill: #bd2e1f"/>
   </g>
   <g id="patch_30">
    <path d="M 653.25469 17.28 
L 658.722886 17.28 
L 658.722886 106.559074 
L 668.322911 106.559074 
L 668.322911 128.16 
L 653.25469 128.16 
L 653.25469 17.28 
z
" clip-path="url(#p4c969cbc05)" style="fill: #21599c"/>
   </g>
   <g id="patch_31">
    <path d="M 669.115975 17.28 
L 674.584171 17.28 
L 674.584171 106.559074 
L 684.184196 106.559074 
L 684.184196 128.16 
L 669.115975 128.16 
L 669.115975 17.28 
z
" clip-path="url(#p4c969cbc05)" style="fill: #21599c"/>
   </g>
   <g id="patch_32">
    <path d="M 700.04548 118.127891 
Q 698.525826 123.143945 696.891353 125.663425 
Q 695.25688 128.16 693.514342 128.16 
Q 689.576748 128.16 687.277004 113.226358 
Q 684.97726 98.292716 684.97726 72.754357 
Q 684.97726 46.91824 687.317528 32.09912 
Q 689.661173 17.28 693.737225 17.28 
Q 695.307535 17.28 696.746141 19.295584 
Q 698.188125 21.288263 699.464635 25.227812 
L 699.464635 47.330518 
Q 698.147601 42.268655 696.844074 39.77208 
Q 695.540548 37.252601 694.230268 37.252601 
Q 691.805575 37.252601 690.491918 46.460153 
Q 689.178261 55.644801 689.178261 72.754357 
Q 689.178261 89.703582 690.44464 98.956943 
Q 691.711019 108.187399 694.041156 108.187399 
Q 694.676034 108.187399 695.219732 107.660599 
Q 695.763431 107.110894 696.195688 105.965677 
L 696.195688 85.214328 
L 693.713586 85.214328 
L 693.713586 66.73051 
L 700.04548 66.73051 
L 700.04548 118.127891 
z
" clip-path="url(#p4c969cbc05)" style="fill: #787800"/>
   </g>
   <g id="patch_33">
    <path d="M 700.838545 17.28 
L 704.809425 17.28 
L 704.809425 57.749061 
L 710.533038 17.28 
L 715.144277 17.28 
L 707.727346 69.797102 
L 715.906765 128.16 
L 710.935738 128.16 
L 704.809425 84.48288 
L 704.809425 128.16 
L 700.838545 128.16 
L 700.838545 17.28 
z
" clip-path="url(#p4c969cbc05)" style="fill: #bd2e1f"/>
   </g>
   <g id="patch_34">
    <path d="M 716.699829 17.28 
L 722.168025 17.28 
L 722.168025 106.559074 
L 731.76805 106.559074 
L 731.76805 128.16 
L 716.699829 128.16 
L 716.699829 17.28 
z
" clip-path="url(#p4c969cbc05)" style="fill: #21599c"/>
   </g>
   <g id="patch_35">
    <path d="M 732.561114 17.28 
L 740.39345 17.28 
Q 743.889748 17.28 745.757579 26.690304 
Q 747.629335 36.076845 747.629335 53.447887 
Q 747.629335 70.913982 745.757579 80.300523 
Q 743.889748 89.687064 740.39345 89.687064 
L 737.281705 89.687064 
L 737.281705 128.16 
L 732.561114 128.16 
L 732.561114 17.28 
z
M 737.281705 38.00168 
L 737.281705 68.965384 
L 739.891176 68.965384 
Q 741.264581 68.965384 742.014068 64.925607 
Q 742.763555 60.885829 742.763555 53.447887 
Q 742.763555 46.033708 742.014068 42.017694 
Q 741.264581 38.00168 739.891176 38.00168 
L 737.281705 38.00168 
z
" clip-path="url(#p4c969cbc05)" style="fill: #787800"/>
   </g>
   <g id="patch_36">
    <path d="M 763.49062 118.127891 
Q 761.970965 123.143945 760.336492 125.663425 
Q 758.702019 128.16 756.959481 128.16 
Q 753.021887 128.16 750.722143 113.226358 
Q 748.422399 98.292716 748.422399 72.754357 
Q 748.422399 46.91824 750.762667 32.09912 
Q 753.106313 17.28 757.182364 17.28 
Q 758.752674 17.28 760.19128 19.295584 
Q 761.633264 21.288263 762.909774 25.227812 
L 762.909774 47.330518 
Q 761.59274 42.268655 760.289214 39.77208 
Q 758.985688 37.252601 757.675408 37.252601 
Q 755.250714 37.252601 753.937057 46.460153 
Q 752.6234 55.644801 752.6234 72.754357 
Q 752.6234 89.703582 753.889779 98.956943 
Q 755.156158 108.187399 757.486295 108.187399 
Q 758.121173 108.187399 758.664872 107.660599 
Q 759.20857 107.110894 759.640828 105.965677 
L 759.640828 85.214328 
L 757.158725 85.214328 
L 757.158725 66.73051 
L 763.49062 66.73051 
L 763.49062 118.127891 
z
" clip-path="url(#p4c969cbc05)" style="fill: #787800"/>
   </g>
   <g id="patch_37">
    <path d="M 764.283684 17.28 
L 779.038267 17.28 
L 779.038267 38.904689 
L 769.75188 38.904689 
L 769.75188 59.531316 
L 778.488266 59.531316 
L 778.488266 81.156005 
L 769.75188 81.156005 
L 769.75188 106.559074 
L 779.351904 106.559074 
L 779.351904 128.16 
L 764.283684 128.16 
L 764.283684 17.28 
z
" clip-path="url(#p4c969cbc05)" style="fill: #6b296b"/>
   </g>
   <g id="patch_38">
    <path d="M 780.144969 17.28 
L 782.750496 17.28 
L 784.57188 97.861672 
L 786.379705 17.28 
L 788.998791 17.28 
L 790.806616 97.861672 
L 792.630259 17.28 
L 795.213189 17.28 
L 792.72743 128.16 
L 789.593114 128.16 
L 787.679079 43.871239 
L 785.787642 128.16 
L 782.651066 128.16 
L 780.144969 17.28 
z
" clip-path="url(#p4c969cbc05)" style="fill: #21599c"/>
   </g>
   <g id="patch_39">
    <path d="M 796.006254 17.28 
L 810.760837 17.28 
L 810.760837 38.904689 
L 801.474449 38.904689 
L 801.474449 59.531316 
L 810.210836 59.531316 
L 810.210836 81.156005 
L 801.474449 81.156005 
L 801.474449 106.559074 
L 811.074474 106.559074 
L 811.074474 128.16 
L 796.006254 128.16 
L 796.006254 17.28 
z
" clip-path="url(#p4c969cbc05)" style="fill: #6b296b"/>
   </g>
   <g id="patch_40">
    <path d="M 817.981401 66.446464 
Q 819.333677 66.446464 819.920379 63.119589 
Q 820.507081 59.76895 820.507081 52.117137 
Q 820.507081 44.536614 819.920379 41.281029 
Q 819.333677 38.00168 817.981401 38.00168 
L 816.171211 38.00168 
L 816.171211 66.446464 
L 817.981401 66.446464 
z
M 816.171211 86.193845 
L 816.171211 128.16 
L 811.867538 128.16 
L 811.867538 17.28 
L 818.439315 17.28 
Q 821.737724 17.28 823.27245 24.646652 
Q 824.810753 31.989541 824.810753 47.887252 
Q 824.810753 58.865941 824.009405 65.923669 
Q 823.211633 72.981397 821.601781 76.332036 
Q 822.485411 77.662786 823.183014 82.391702 
Q 823.884194 87.096854 824.599684 96.673502 
L 826.935759 128.16 
L 822.353045 128.16 
L 820.317476 100.618225 
Q 819.702154 92.301037 819.068946 89.259323 
Q 818.439315 86.193845 817.387544 86.193845 
L 816.171211 86.193845 
z
" clip-path="url(#p4c969cbc05)" style="fill: #bd2e1f"/>
   </g>
   <g id="patch_41">
    <path d="M 841.540677 22.570907 
L 841.540677 45.200413 
Q 839.969195 41.260863 838.471376 39.268184 
Q 836.97765 37.252601 835.647619 37.252601 
Q 833.883794 37.252601 833.036667 39.978219 
Q 832.193633 42.680934 832.193633 48.407023 
Q 832.193633 52.713043 832.762476 55.118 
Q 833.33132 57.500054 834.829139 59.217881 
L 836.924448 61.57703 
Q 840.108336 65.173014 841.450644 72.479504 
Q 842.797044 79.76309 842.797044 93.230853 
Q 842.797044 110.890114 840.922724 119.525057 
Q 839.048404 128.16 835.197455 128.16 
Q 833.384521 128.16 831.555218 126.21313 
Q 829.725915 124.289163 827.896612 120.48704 
L 827.896612 97.239116 
Q 829.725915 102.667449 831.432446 105.438876 
Q 833.138977 108.187399 834.726829 108.187399 
Q 836.339235 108.187399 837.194547 105.186928 
Q 838.049859 102.163553 838.049859 96.574889 
Q 838.049859 91.581739 837.468738 88.856121 
Q 836.887617 86.130502 835.148346 83.977492 
L 833.241287 81.618343 
Q 830.376607 78.18269 829.050669 70.67006 
Q 827.728823 63.15743 827.728823 50.422607 
Q 827.728823 34.458269 829.570404 25.869134 
Q 831.411984 17.28 834.865971 17.28 
Q 836.441545 17.28 838.10306 18.608453 
Q 839.764575 19.936906 841.540677 22.570907 
z
" clip-path="url(#p4c969cbc05)" style="fill: #40ba47"/>
   </g>
   <g id="patch_42">
    <path d="M 843.590108 17.28 
L 846.195636 17.28 
L 848.017019 97.861672 
L 849.824844 17.28 
L 852.44393 17.28 
L 854.251755 97.861672 
L 856.075399 17.28 
L 858.658329 17.28 
L 856.172569 128.16 
L 853.038253 128.16 
L 851.124218 43.871239 
L 849.232781 128.16 
L 846.096205 128.16 
L 843.590108 17.28 
z
" clip-path="url(#p4c969cbc05)" style="fill: #21599c"/>
   </g>
   <g id="patch_43">
    <path d="M 865.565255 66.446464 
Q 866.917532 66.446464 867.504233 63.119589 
Q 868.090935 59.76895 868.090935 52.117137 
Q 868.090935 44.536614 867.504233 41.281029 
Q 866.917532 38.00168 865.565255 38.00168 
L 863.755066 38.00168 
L 863.755066 66.446464 
L 865.565255 66.446464 
z
M 863.755066 86.193845 
L 863.755066 128.16 
L 859.451393 128.16 
L 859.451393 17.28 
L 866.023169 17.28 
Q 869.321578 17.28 870.856304 24.646652 
Q 872.394608 31.989541 872.394608 47.887252 
Q 872.394608 58.865941 871.593259 65.923669 
Q 870.795488 72.981397 869.185635 76.332036 
Q 870.069265 77.662786 870.766868 82.391702 
Q 871.468048 87.096854 872.183538 96.673502 
L 874.519613 128.16 
L 869.9369 128.16 
L 867.90133 100.618225 
Q 867.286009 92.301037 866.6528 89.259323 
Q 866.023169 86.193845 864.971399 86.193845 
L 863.755066 86.193845 
z
" clip-path="url(#p4c969cbc05)" style="fill: #bd2e1f"/>
   </g>
   <g id="patch_44">
    <path d="M 875.312678 17.28 
L 880.780874 17.28 
L 880.780874 106.559074 
L 890.380898 106.559074 
L 890.380898 128.16 
L 875.312678 128.16 
L 875.312678 17.28 
z
" clip-path="url(#p4c969cbc05)" style="fill: #21599c"/>
   </g>
   <g id="patch_45">
    <path d="M 895.303135 38.904689 
L 895.303135 106.559074 
L 896.782498 106.559074 
Q 899.312175 106.559074 900.647377 97.861672 
Q 901.986011 89.164269 901.986011 72.601183 
Q 901.986011 56.13315 900.654242 47.530802 
Q 899.325904 38.904689 896.782498 38.904689 
L 895.303135 38.904689 
z
M 891.173962 17.28 
L 895.526241 17.28 
Q 899.174879 17.28 900.959725 20.892036 
Q 902.744571 24.480309 904.021423 33.106421 
Q 905.147249 40.615654 905.693 50.429936 
Q 906.242183 60.220454 906.242183 72.601183 
Q 906.242183 85.172019 905.693 95.010064 
Q 905.147249 104.84811 904.021423 112.333579 
Q 902.734274 120.959691 900.932266 124.571727 
Q 899.130258 128.16 895.526241 128.16 
L 891.173962 128.16 
L 891.173962 17.28 
z
" clip-path="url(#p4c969cbc05)" style="fill: #6b296b"/>
   </g>
   <g id="patch_46">
    <path d="M 907.035247 17.28 
L 921.789831 17.28 
L 921.789831 38.904689 
L 912.503443 38.904689 
L 912.503443 59.531316 
L 921.239829 59.531316 
L 921.239829 81.156005 
L 912.503443 81.156005 
L 912.503443 106.559074 
L 922.103468 106.559074 
L 922.103468 128.16 
L 907.035247 128.16 
L 907.035247 17.28 
z
" clip-path="url(#p4c969cbc05)" style="fill: #6b296b"/>
   </g>
   <g id="patch_47">
    <path d="M 922.896532 17.28 
L 937.964753 17.28 
L 937.964753 38.904689 
L 932.543698 38.904689 
L 932.543698 128.16 
L 928.3281 128.16 
L 928.3281 38.904689 
L 922.896532 38.904689 
L 922.896532 17.28 
z
" clip-path="url(#p4c969cbc05)" style="fill: #40ba47"/>
   </g>
   <g id="patch_48">
    <path d="M 953.826038 118.127891 
Q 952.306383 123.143945 950.67191 125.663425 
Q 949.037437 128.16 947.294899 128.16 
Q 943.357305 128.16 941.057561 113.226358 
Q 938.757817 98.292716 938.757817 72.754357 
Q 938.757817 46.91824 941.098085 32.09912 
Q 943.44173 17.28 947.517782 17.28 
Q 949.088092 17.28 950.526698 19.295584 
Q 951.968682 21.288263 953.245192 25.227812 
L 953.245192 47.330518 
Q 951.928158 42.268655 950.624632 39.77208 
Q 949.321106 37.252601 948.010826 37.252601 
Q 945.586132 37.252601 944.272475 46.460153 
Q 942.958818 55.644801 942.958818 72.754357 
Q 942.958818 89.703582 944.225197 98.956943 
Q 945.491576 108.187399 947.821713 108.187399 
Q 948.456591 108.187399 949.00029 107.660599 
Q 949.543988 107.110894 949.976246 105.965677 
L 949.976246 85.214328 
L 947.494143 85.214328 
L 947.494143 66.73051 
L 953.826038 66.73051 
L 953.826038 118.127891 
z
" clip-path="url(#p4c969cbc05)" style="fill: #787800"/>
   </g>
   <g id="patch_49">
    <path d="M 969.687322 118.127891 
Q 968.167668 123.143945 966.533195 125.663425 
Q 964.898722 128.16 963.156184 128.16 
Q 959.21859 128.16 956.918846 113.226358 
Q 954.619102 98.292716 954.619102 72.754357 
Q 954.619102 46.91824 956.95937 32.09912 
Q 959.303015 17.28 963.379067 17.28 
Q 964.949377 17.28 966.387983 19.295584 
Q 967.829967 21.288263 969.106477 25.227812 
L 969.106477 47.330518 
Q 967.789442 42.268655 966.485916 39.77208 
Q 965.18239 37.252601 963.87211 37.252601 
Q 961.447417 37.252601 960.13376 46.460153 
Q 958.820103 55.644801 958.820103 72.754357 
Q 958.820103 89.703582 960.086482 98.956943 
Q 961.352861 108.187399 963.682998 108.187399 
Q 964.317876 108.187399 964.861574 107.660599 
Q 965.405273 107.110894 965.83753 105.965677 
L 965.83753 85.214328 
L 963.355428 85.214328 
L 963.355428 66.73051 
L 969.687322 66.73051 
L 969.687322 118.127891 
z
" clip-path="url(#p4c969cbc05)" style="fill: #787800"/>
   </g>
   <g id="patch_50">
    <path d="M 976.594249 66.446464 
Q 977.946525 66.446464 978.533227 63.119589 
Q 979.119929 59.76895 979.119929 52.117137 
Q 979.119929 44.536614 978.533227 41.281029 
Q 977.946525 38.00168 976.594249 38.00168 
L 974.784059 38.00168 
L 974.784059 66.446464 
L 976.594249 66.446464 
z
M 974.784059 86.193845 
L 974.784059 128.16 
L 970.480387 128.16 
L 970.480387 17.28 
L 977.052163 17.28 
Q 980.350572 17.28 981.885298 24.646652 
Q 983.423602 31.989541 983.423602 47.887252 
Q 983.423602 58.865941 982.622253 65.923669 
Q 981.824481 72.981397 980.214629 76.332036 
Q 981.098259 77.662786 981.795862 82.391702 
Q 982.497042 87.096854 983.212532 96.673502 
L 985.548607 128.16 
L 980.965893 128.16 
L 978.930324 100.618225 
Q 978.315003 92.301037 977.681794 89.259323 
Q 977.052163 86.193845 976.000392 86.193845 
L 974.784059 86.193845 
z
" clip-path="url(#p4c969cbc05)" style="fill: #bd2e1f"/>
   </g>
   <g id="patch_51">
    <path d="M 991.141684 17.28 
L 996.60988 17.28 
L 996.60988 128.16 
L 991.141684 128.16 
L 991.141684 17.28 
z
" clip-path="url(#p4c969cbc05)" style="fill: #21599c"/>
   </g>
   <g id="patch_52">
    <path d="M 1008.316819 66.446464 
Q 1009.669095 66.446464 1010.255797 63.119589 
Q 1010.842499 59.76895 1010.842499 52.117137 
Q 1010.842499 44.536614 1010.255797 41.281029 
Q 1009.669095 38.00168 1008.316819 38.00168 
L 1006.506629 38.00168 
L 1006.506629 66.446464 
L 1008.316819 66.446464 
z
M 1006.506629 86.193845 
L 1006.506629 128.16 
L 1002.202956 128.16 
L 1002.202956 17.28 
L 1008.774732 17.28 
Q 1012.073142 17.28 1013.607868 24.646652 
Q 1015.146171 31.989541 1015.146171 47.887252 
Q 1015.146171 58.865941 1014.344822 65.923669 
Q 1013.547051 72.981397 1011.937198 76.332036 
Q 1012.820829 77.662786 1013.518431 82.391702 
Q 1014.219612 87.096854 1014.935102 96.673502 
L 1017.271177 128.16 
L 1012.688463 128.16 
L 1010.652894 100.618225 
Q 1010.037572 92.301037 1009.404364 89.259323 
Q 1008.774732 86.193845 1007.722962 86.193845 
L 1006.506629 86.193845 
z
" clip-path="url(#p4c969cbc05)" style="fill: #bd2e1f"/>
   </g>
   <g id="patch_53">
    <path d="M 1018.064241 17.28 
L 1023.532437 17.28 
L 1023.532437 106.559074 
L 1033.132462 106.559074 
L 1033.132462 128.16 
L 1018.064241 128.16 
L 1018.064241 17.28 
z
" clip-path="url(#p4c969cbc05)" style="fill: #21599c"/>
   </g>
   <g id="patch_54">
    <path d="M 1040.039388 66.446464 
Q 1041.391665 66.446464 1041.978366 63.119589 
Q 1042.565068 59.76895 1042.565068 52.117137 
Q 1042.565068 44.536614 1041.978366 41.281029 
Q 1041.391665 38.00168 1040.039388 38.00168 
L 1038.229199 38.00168 
L 1038.229199 66.446464 
L 1040.039388 66.446464 
z
M 1038.229199 86.193845 
L 1038.229199 128.16 
L 1033.925526 128.16 
L 1033.925526 17.28 
L 1040.497302 17.28 
Q 1043.795711 17.28 1045.330437 24.646652 
Q 1046.868741 31.989541 1046.868741 47.887252 
Q 1046.868741 58.865941 1046.067392 65.923669 
Q 1045.269621 72.981397 1043.659768 76.332036 
Q 1044.543398 77.662786 1045.241001 82.391702 
Q 1045.942181 87.096854 1046.657671 96.673502 
L 1048.993746 128.16 
L 1044.411033 128.16 
L 1042.375463 100.618225 
Q 1041.760142 92.301037 1041.126933 89.259323 
Q 1040.497302 86.193845 1039.445532 86.193845 
L 1038.229199 86.193845 
z
" clip-path="url(#p4c969cbc05)" style="fill: #bd2e1f"/>
   </g>
   <g id="patch_55">
    <path d="M 1054.586823 17.28 
L 1060.055019 17.28 
L 1060.055019 128.16 
L 1054.586823 128.16 
L 1054.586823 17.28 
z
" clip-path="url(#p4c969cbc05)" style="fill: #21599c"/>
   </g>
   <g id="patch_56">
    <path d="M 1071.761958 66.446464 
Q 1073.114234 66.446464 1073.700936 63.119589 
Q 1074.287638 59.76895 1074.287638 52.117137 
Q 1074.287638 44.536614 1073.700936 41.281029 
Q 1073.114234 38.00168 1071.761958 38.00168 
L 1069.951768 38.00168 
L 1069.951768 66.446464 
L 1071.761958 66.446464 
z
M 1069.951768 86.193845 
L 1069.951768 128.16 
L 1065.648096 128.16 
L 1065.648096 17.28 
L 1072.219872 17.28 
Q 1075.518281 17.28 1077.053007 24.646652 
Q 1078.591311 31.989541 1078.591311 47.887252 
Q 1078.591311 58.865941 1077.789962 65.923669 
Q 1076.99219 72.981397 1075.382338 76.332036 
Q 1076.265968 77.662786 1076.963571 82.391702 
Q 1077.664751 87.096854 1078.380241 96.673502 
L 1080.716316 128.16 
L 1076.133602 128.16 
L 1074.098033 100.618225 
Q 1073.482712 92.301037 1072.849503 89.259323 
Q 1072.219872 86.193845 1071.168101 86.193845 
L 1069.951768 86.193845 
z
" clip-path="url(#p4c969cbc05)" style="fill: #bd2e1f"/>
   </g>
   <g id="patch_57">
    <path d="M 1081.50938 17.28 
L 1089.341716 17.28 
Q 1092.838014 17.28 1094.705845 26.690304 
Q 1096.577601 36.076845 1096.577601 53.447887 
Q 1096.577601 70.913982 1094.705845 80.300523 
Q 1092.838014 89.687064 1089.341716 89.687064 
L 1086.229971 89.687064 
L 1086.229971 128.16 
L 1081.50938 128.16 
L 1081.50938 17.28 
z
M 1086.229971 38.00168 
L 1086.229971 68.965384 
L 1088.839442 68.965384 
Q 1090.212847 68.965384 1090.962334 64.925607 
Q 1091.711821 60.885829 1091.711821 53.447887 
Q 1091.711821 46.033708 1090.962334 42.017694 
Q 1090.212847 38.00168 1088.839442 38.00168 
L 1086.229971 38.00168 
z
" clip-path="url(#p4c969cbc05)" style="fill: #787800"/>
   </g>
   <g id="patch_58">
    <path d="M 1097.370665 17.28 
L 1105.203001 17.28 
Q 1108.699299 17.28 1110.56713 26.690304 
Q 1112.438886 36.076845 1112.438886 53.447887 
Q 1112.438886 70.913982 1110.56713 80.300523 
Q 1108.699299 89.687064 1105.203001 89.687064 
L 1102.091256 89.687064 
L 1102.091256 128.16 
L 1097.370665 128.16 
L 1097.370665 17.28 
z
M 1102.091256 38.00168 
L 1102.091256 68.965384 
L 1104.700727 68.965384 
Q 1106.074132 68.965384 1106.823619 64.925607 
Q 1107.573106 60.885829 1107.573106 53.447887 
Q 1107.573106 46.033708 1106.823619 42.017694 
Q 1106.074132 38.00168 1104.700727 38.00168 
L 1102.091256 38.00168 
z
" clip-path="url(#p4c969cbc05)" style="fill: #787800"/>
   </g>
   <g id="patch_59">
    <path d="M 1123.66972 107.961114 
L 1117.874724 107.961114 
L 1116.959725 128.16 
L 1113.23195 128.16 
L 1118.555582 17.28 
L 1122.976538 17.28 
L 1128.300171 128.16 
L 1124.575476 128.16 
L 1123.66972 107.961114 
z
M 1118.798966 87.382015 
L 1122.736235 87.382015 
L 1120.770681 43.277154 
L 1118.798966 87.382015 
z
" clip-path="url(#p4c969cbc05)" style="fill: #21599c"/>
   </g>
   <g id="patch_60">
    <path d="M 1144.161455 118.127891 
Q 1142.641801 123.143945 1141.007328 125.663425 
Q 1139.372855 128.16 1137.630317 128.16 
Q 1133.692723 128.16 1131.392979 113.226358 
Q 1129.093235 98.292716 1129.093235 72.754357 
Q 1129.093235 46.91824 1131.433503 32.09912 
Q 1133.777148 17.28 1137.8532 17.28 
Q 1139.42351 17.28 1140.862116 19.295584 
Q 1142.3041 21.288263 1143.58061 25.227812 
L 1143.58061 47.330518 
Q 1142.263576 42.268655 1140.960049 39.77208 
Q 1139.656523 37.252601 1138.346243 37.252601 
Q 1135.92155 37.252601 1134.607893 46.460153 
Q 1133.294236 55.644801 1133.294236 72.754357 
Q 1133.294236 89.703582 1134.560615 98.956943 
Q 1135.826994 108.187399 1138.157131 108.187399 
Q 1138.792009 108.187399 1139.335707 107.660599 
Q 1139.879406 107.110894 1140.311663 105.965677 
L 1140.311663 85.214328 
L 1137.829561 85.214328 
L 1137.829561 66.73051 
L 1144.161455 66.73051 
L 1144.161455 118.127891 
z
" clip-path="url(#p4c969cbc05)" style="fill: #787800"/>
   </g>
   <g id="patch_61">
    <path d="M 1158.766373 22.570907 
L 1158.766373 45.200413 
Q 1157.194891 41.260863 1155.697072 39.268184 
Q 1154.203346 37.252601 1152.873316 37.252601 
Q 1151.109491 37.252601 1150.262364 39.978219 
Q 1149.419329 42.680934 1149.419329 48.407023 
Q 1149.419329 52.713043 1149.988173 55.118 
Q 1150.557017 57.500054 1152.054835 59.217881 
L 1154.150145 61.57703 
Q 1157.334033 65.173014 1158.67634 72.479504 
Q 1160.02274 79.76309 1160.02274 93.230853 
Q 1160.02274 110.890114 1158.148421 119.525057 
Q 1156.274101 128.16 1152.423151 128.16 
Q 1150.610218 128.16 1148.780915 126.21313 
Q 1146.951611 124.289163 1145.122308 120.48704 
L 1145.122308 97.239116 
Q 1146.951611 102.667449 1148.658143 105.438876 
Q 1150.364674 108.187399 1151.952525 108.187399 
Q 1153.564931 108.187399 1154.420243 105.186928 
Q 1155.275555 102.163553 1155.275555 96.574889 
Q 1155.275555 91.581739 1154.694434 88.856121 
Q 1154.113313 86.130502 1152.374043 83.977492 
L 1150.466984 81.618343 
Q 1147.602303 78.18269 1146.276365 70.67006 
Q 1144.95452 63.15743 1144.95452 50.422607 
Q 1144.95452 34.458269 1146.7961 25.869134 
Q 1148.637681 17.28 1152.091667 17.28 
Q 1153.667241 17.28 1155.328756 18.608453 
Q 1156.990271 19.936906 1158.766373 22.570907 
z
" clip-path="url(#p4c969cbc05)" style="fill: #40ba47"/>
   </g>
   <g id="patch_62">
    <path d="M 1160.815804 17.28 
L 1168.64814 17.28 
Q 1172.144438 17.28 1174.012269 26.690304 
Q 1175.884025 36.076845 1175.884025 53.447887 
Q 1175.884025 70.913982 1174.012269 80.300523 
Q 1172.144438 89.687064 1168.64814 89.687064 
L 1165.536395 89.687064 
L 1165.536395 128.16 
L 1160.815804 128.16 
L 1160.815804 17.28 
z
M 1165.536395 38.00168 
L 1165.536395 68.965384 
L 1168.145866 68.965384 
Q 1169.519271 68.965384 1170.268758 64.925607 
Q 1171.018245 60.885829 1171.018245 53.447887 
Q 1171.018245 46.033708 1170.268758 42.017694 
Q 1169.519271 38.00168 1168.145866 38.00168 
L 1165.536395 38.00168 
z
" clip-path="url(#p4c969cbc05)" style="fill: #787800"/>
   </g>
   <g id="patch_63">
    <path d="M 1176.677089 17.28 
L 1184.509425 17.28 
Q 1188.005723 17.28 1189.873554 26.690304 
Q 1191.74531 36.076845 1191.74531 53.447887 
Q 1191.74531 70.913982 1189.873554 80.300523 
Q 1188.005723 89.687064 1184.509425 89.687064 
L 1181.39768 89.687064 
L 1181.39768 128.16 
L 1176.677089 128.16 
L 1176.677089 17.28 
z
M 1181.39768 38.00168 
L 1181.39768 68.965384 
L 1184.007151 68.965384 
Q 1185.380556 68.965384 1186.130043 64.925607 
Q 1186.87953 60.885829 1186.87953 53.447887 
Q 1186.87953 46.033708 1186.130043 42.017694 
Q 1185.380556 38.00168 1184.007151 38.00168 
L 1181.39768 38.00168 
z
" clip-path="url(#p4c969cbc05)" style="fill: #787800"/>
   </g>
   <g id="patch_64">
    <path d="M 1202.976144 107.961114 
L 1197.181148 107.961114 
L 1196.266149 128.16 
L 1192.538374 128.16 
L 1197.862006 17.28 
L 1202.282962 17.28 
L 1207.606595 128.16 
L 1203.881901 128.16 
L 1202.976144 107.961114 
z
M 1198.10539 87.382015 
L 1202.04266 87.382015 
L 1200.077106 43.277154 
L 1198.10539 87.382015 
z
" clip-path="url(#p4c969cbc05)" style="fill: #21599c"/>
   </g>
   <g id="patch_65">
    <path d="M 1218.837429 107.961114 
L 1213.042433 107.961114 
L 1212.127434 128.16 
L 1208.399659 128.16 
L 1213.723291 17.28 
L 1218.144247 17.28 
L 1223.467879 128.16 
L 1219.743185 128.16 
L 1218.837429 107.961114 
z
M 1213.966675 87.382015 
L 1217.903944 87.382015 
L 1215.93839 43.277154 
L 1213.966675 87.382015 
z
" clip-path="url(#p4c969cbc05)" style="fill: #21599c"/>
   </g>
   <g id="patch_66">
    <path d="M 1224.260944 17.28 
L 1227.988719 17.28 
L 1231.799675 99.121132 
L 1235.60447 17.28 
L 1239.329164 17.28 
L 1234.005532 128.16 
L 1229.584576 128.16 
L 1224.260944 17.28 
z
" clip-path="url(#p4c969cbc05)" style="fill: #21599c"/>
   </g>
   <g id="patch_67">
    <path d="M 1246.236091 66.446464 
Q 1247.588367 66.446464 1248.175069 63.119589 
Q 1248.761771 59.76895 1248.761771 52.117137 
Q 1248.761771 44.536614 1248.175069 41.281029 
Q 1247.588367 38.00168 1246.236091 38.00168 
L 1244.425901 38.00168 
L 1244.425901 66.446464 
L 1246.236091 66.446464 
z
M 1244.425901 86.193845 
L 1244.425901 128.16 
L 1240.122229 128.16 
L 1240.122229 17.28 
L 1246.694005 17.28 
Q 1249.992414 17.28 1251.52714 24.646652 
Q 1253.065444 31.989541 1253.065444 47.887252 
Q 1253.065444 58.865941 1252.264095 65.923669 
Q 1251.466323 72.981397 1249.856471 76.332036 
Q 1250.740101 77.662786 1251.437704 82.391702 
Q 1252.138884 87.096854 1252.854374 96.673502 
L 1255.190449 128.16 
L 1250.607735 128.16 
L 1248.572166 100.618225 
Q 1247.956845 92.301037 1247.323636 89.259323 
Q 1246.694005 86.193845 1245.642234 86.193845 
L 1244.425901 86.193845 
z
" clip-path="url(#p4c969cbc05)" style="fill: #bd2e1f"/>
   </g>
   <g id="patch_68">
    <path d="M 1266.421283 107.961114 
L 1260.626288 107.961114 
L 1259.711288 128.16 
L 1255.983513 128.16 
L 1261.307146 17.28 
L 1265.728102 17.28 
L 1271.051734 128.16 
L 1267.32704 128.16 
L 1266.421283 107.961114 
z
M 1261.550529 87.382015 
L 1265.487799 87.382015 
L 1263.522245 43.277154 
L 1261.550529 87.382015 
z
" clip-path="url(#p4c969cbc05)" style="fill: #21599c"/>
   </g>
   <g id="patch_69">
    <path d="M 1271.844798 17.28 
L 1274.450326 17.28 
L 1276.271709 97.861672 
L 1278.079534 17.28 
L 1280.698621 17.28 
L 1282.506446 97.861672 
L 1284.330089 17.28 
L 1286.913019 17.28 
L 1284.42726 128.16 
L 1281.292943 128.16 
L 1279.378908 43.871239 
L 1277.487472 128.16 
L 1274.350895 128.16 
L 1271.844798 17.28 
z
" clip-path="url(#p4c969cbc05)" style="fill: #21599c"/>
   </g>
   <g id="patch_70">
    <path d="M 1298.143853 107.961114 
L 1292.348857 107.961114 
L 1291.433858 128.16 
L 1287.706083 128.16 
L 1293.029715 17.28 
L 1297.450671 17.28 
L 1302.774304 128.16 
L 1299.04961 128.16 
L 1298.143853 107.961114 
z
M 1293.273099 87.382015 
L 1297.210369 87.382015 
L 1295.244815 43.277154 
L 1293.273099 87.382015 
z
" clip-path="url(#p4c969cbc05)" style="fill: #21599c"/>
   </g>
   <g id="patch_71">
    <path d="M 1307.696541 38.904689 
L 1307.696541 106.559074 
L 1309.175904 106.559074 
Q 1311.70558 106.559074 1313.040782 97.861672 
Q 1314.379417 89.164269 1314.379417 72.601183 
Q 1314.379417 56.13315 1313.047647 47.530802 
Q 1311.719309 38.904689 1309.175904 38.904689 
L 1307.696541 38.904689 
z
M 1303.567368 17.28 
L 1307.919647 17.28 
Q 1311.568284 17.28 1313.35313 20.892036 
Q 1315.137976 24.480309 1316.414828 33.106421 
Q 1317.540654 40.615654 1318.086405 50.429936 
Q 1318.635588 60.220454 1318.635588 72.601183 
Q 1318.635588 85.172019 1318.086405 95.010064 
Q 1317.540654 104.84811 1316.414828 112.333579 
Q 1315.127679 120.959691 1313.325671 124.571727 
Q 1311.523663 128.16 1307.919647 128.16 
L 1303.567368 128.16 
L 1303.567368 17.28 
z
" clip-path="url(#p4c969cbc05)" style="fill: #6b296b"/>
   </g>
   <g id="patch_72">
    <path d="M 1334.496873 118.127891 
Q 1332.977219 123.143945 1331.342745 125.663425 
Q 1329.708272 128.16 1327.965735 128.16 
Q 1324.028141 128.16 1321.728397 113.226358 
Q 1319.428653 98.292716 1319.428653 72.754357 
Q 1319.428653 46.91824 1321.768921 32.09912 
Q 1324.112566 17.28 1328.188618 17.28 
Q 1329.758928 17.28 1331.197534 19.295584 
Q 1332.639517 21.288263 1333.916027 25.227812 
L 1333.916027 47.330518 
Q 1332.598993 42.268655 1331.295467 39.77208 
Q 1329.991941 37.252601 1328.681661 37.252601 
Q 1326.256968 37.252601 1324.943311 46.460153 
Q 1323.629654 55.644801 1323.629654 72.754357 
Q 1323.629654 89.703582 1324.896033 98.956943 
Q 1326.162411 108.187399 1328.492549 108.187399 
Q 1329.127427 108.187399 1329.671125 107.660599 
Q 1330.214824 107.110894 1330.647081 105.965677 
L 1330.647081 85.214328 
L 1328.164979 85.214328 
L 1328.164979 66.73051 
L 1334.496873 66.73051 
L 1334.496873 118.127891 
z
" clip-path="url(#p4c969cbc05)" style="fill: #787800"/>
   </g>
   <g id="patch_73">
    <path d="M 1345.727707 107.961114 
L 1339.932712 107.961114 
L 1339.017712 128.16 
L 1335.289937 128.16 
L 1340.61357 17.28 
L 1345.034526 17.28 
L 1350.358158 128.16 
L 1346.633464 128.16 
L 1345.727707 107.961114 
z
M 1340.856953 87.382015 
L 1344.794223 87.382015 
L 1342.828669 43.277154 
L 1340.856953 87.382015 
z
" clip-path="url(#p4c969cbc05)" style="fill: #21599c"/>
   </g>
   <g id="patch_74">
    <path d="M 1351.151222 17.28 
L 1356.619418 17.28 
L 1356.619418 106.559074 
L 1366.219443 106.559074 
L 1366.219443 128.16 
L 1351.151222 128.16 
L 1351.151222 17.28 
z
" clip-path="url(#p4c969cbc05)" style="fill: #21599c"/>
   </g>
   <g id="patch_75">
    <path d="M 1374.948437 111.578719 
L 1374.653351 111.578719 
Q 1371.033838 111.578719 1369.021603 99.152512 
Q 1367.012507 86.706798 1367.012507 64.526897 
Q 1367.012507 42.38601 1369.018464 29.842759 
Q 1371.024421 17.28 1374.546617 17.28 
Q 1378.106485 17.28 1380.093606 29.725714 
Q 1382.080728 42.151921 1382.080728 64.526897 
Q 1382.080728 79.879212 1381.025952 90.978916 
Q 1379.971177 102.078621 1377.990334 107.677241 
L 1380.941194 128.16 
L 1377.340517 128.16 
L 1374.948437 111.578719 
z
M 1374.546617 34.290443 
Q 1372.82005 34.290443 1371.868869 42.210443 
Q 1370.917688 50.130443 1370.917688 64.526897 
Q 1370.917688 79.157438 1371.846895 86.940887 
Q 1372.779241 94.704828 1374.546617 94.704828 
Q 1376.282602 94.704828 1377.233783 86.784828 
Q 1378.184965 78.84532 1378.184965 64.526897 
Q 1378.184965 50.130443 1377.233783 42.210443 
Q 1376.282602 34.290443 1374.546617 34.290443 
z
" clip-path="url(#p4c969cbc05)" style="fill: #40ba47"/>
   </g>
   <g id="patch_76">
    <path d="M 1387.002965 38.904689 
L 1387.002965 106.559074 
L 1388.482328 106.559074 
Q 1391.012004 106.559074 1392.347206 97.861672 
Q 1393.685841 89.164269 1393.685841 72.601183 
Q 1393.685841 56.13315 1392.354071 47.530802 
Q 1391.025734 38.904689 1388.482328 38.904689 
L 1387.002965 38.904689 
z
M 1382.873792 17.28 
L 1387.226071 17.28 
Q 1390.874708 17.28 1392.659554 20.892036 
Q 1394.4444 24.480309 1395.721252 33.106421 
Q 1396.847078 40.615654 1397.392829 50.429936 
Q 1397.942013 60.220454 1397.942013 72.601183 
Q 1397.942013 85.172019 1397.392829 95.010064 
Q 1396.847078 104.84811 1395.721252 112.333579 
Q 1394.434103 120.959691 1392.632095 124.571727 
Q 1390.830087 128.16 1387.226071 128.16 
L 1382.873792 128.16 
L 1382.873792 17.28 
z
" clip-path="url(#p4c969cbc05)" style="fill: #6b296b"/>
   </g>
   <g id="patch_77">
    <path d="M 1398.735077 17.28 
L 1406.567412 17.28 
Q 1410.06371 17.28 1411.931542 26.690304 
Q 1413.803297 36.076845 1413.803297 53.447887 
Q 1413.803297 70.913982 1411.931542 80.300523 
Q 1410.06371 89.687064 1406.567412 89.687064 
L 1403.455668 89.687064 
L 1403.455668 128.16 
L 1398.735077 128.16 
L 1398.735077 17.28 
z
M 1403.455668 38.00168 
L 1403.455668 68.965384 
L 1406.065138 68.965384 
Q 1407.438544 68.965384 1408.188031 64.925607 
Q 1408.937518 60.885829 1408.937518 53.447887 
Q 1408.937518 46.033708 1408.188031 42.017694 
Q 1407.438544 38.00168 1406.065138 38.00168 
L 1403.455668 38.00168 
z
" clip-path="url(#p4c969cbc05)" style="fill: #787800"/>
   </g>
   <g id="patch_78">
    <path d="M 1425.034131 107.961114 
L 1419.239136 107.961114 
L 1418.324136 128.16 
L 1414.596362 128.16 
L 1419.919994 17.28 
L 1424.34095 17.28 
L 1429.664582 128.16 
L 1425.939888 128.16 
L 1425.034131 107.961114 
z
M 1420.163377 87.382015 
L 1424.100647 87.382015 
L 1422.135093 43.277154 
L 1420.163377 87.382015 
z
" clip-path="url(#p4c969cbc05)" style="fill: #21599c"/>
   </g>
   <g id="patch_79">
    <path d="M 1430.457646 17.28 
L 1435.925842 17.28 
L 1435.925842 106.559074 
L 1445.525867 106.559074 
L 1445.525867 128.16 
L 1430.457646 128.16 
L 1430.457646 17.28 
z
" clip-path="url(#p4c969cbc05)" style="fill: #21599c"/>
   </g>
   <g id="patch_80">
    <path d="M 1452.432794 66.446464 
Q 1453.78507 66.446464 1454.371772 63.119589 
Q 1454.958474 59.76895 1454.958474 52.117137 
Q 1454.958474 44.536614 1454.371772 41.281029 
Q 1453.78507 38.00168 1452.432794 38.00168 
L 1450.622604 38.00168 
L 1450.622604 66.446464 
L 1452.432794 66.446464 
z
M 1450.622604 86.193845 
L 1450.622604 128.16 
L 1446.318931 128.16 
L 1446.318931 17.28 
L 1452.890707 17.28 
Q 1456.189117 17.28 1457.723843 24.646652 
Q 1459.262146 31.989541 1459.262146 47.887252 
Q 1459.262146 58.865941 1458.460797 65.923669 
Q 1457.663026 72.981397 1456.053173 76.332036 
Q 1456.936804 77.662786 1457.634406 82.391702 
Q 1458.335587 87.096854 1459.051077 96.673502 
L 1461.387152 128.16 
L 1456.804438 128.16 
L 1454.768869 100.618225 
Q 1454.153547 92.301037 1453.520339 89.259323 
Q 1452.890707 86.193845 1451.838937 86.193845 
L 1450.622604 86.193845 
z
" clip-path="url(#p4c969cbc05)" style="fill: #bd2e1f"/>
   </g>
   <g id="patch_81">
    <path d="M 1472.617986 107.961114 
L 1466.82299 107.961114 
L 1465.907991 128.16 
L 1462.180216 128.16 
L 1467.503848 17.28 
L 1471.924804 17.28 
L 1477.248437 128.16 
L 1473.523743 128.16 
L 1472.617986 107.961114 
z
M 1467.747232 87.382015 
L 1471.684502 87.382015 
L 1469.718948 43.277154 
L 1467.747232 87.382015 
z
" clip-path="url(#p4c969cbc05)" style="fill: #21599c"/>
   </g>
   <g id="patch_82">
    <path d="M 1478.041501 17.28 
L 1480.647028 17.28 
L 1482.468412 97.861672 
L 1484.276237 17.28 
L 1486.895323 17.28 
L 1488.703148 97.861672 
L 1490.526792 17.28 
L 1493.109721 17.28 
L 1490.623962 128.16 
L 1487.489646 128.16 
L 1485.575611 43.871239 
L 1483.684174 128.16 
L 1480.547598 128.16 
L 1478.041501 17.28 
z
" clip-path="url(#p4c969cbc05)" style="fill: #21599c"/>
   </g>
   <g id="patch_83">
    <path d="M 1508.971006 120.212188 
Q 1507.710576 124.151737 1506.34764 126.144416 
Q 1504.984705 128.16 1503.500282 128.16 
Q 1499.073589 128.16 1496.488187 113.226358 
Q 1493.902786 98.292716 1493.902786 72.754357 
Q 1493.902786 47.124379 1496.488187 32.213642 
Q 1499.073589 17.28 1503.500282 17.28 
Q 1504.984705 17.28 1506.34764 19.295584 
Q 1507.710576 21.288263 1508.971006 25.227812 
L 1508.971006 47.330518 
Q 1507.699186 42.108325 1506.465331 39.680463 
Q 1505.231476 37.252601 1503.86854 37.252601 
Q 1501.423608 37.252601 1500.022708 46.712101 
Q 1498.625604 56.148697 1498.625604 72.754357 
Q 1498.625604 89.291303 1500.022708 98.750804 
Q 1501.423608 108.187399 1503.86854 108.187399 
Q 1505.231476 108.187399 1506.465331 105.759537 
Q 1507.699186 103.308771 1508.971006 98.086577 
L 1508.971006 120.212188 
z
" clip-path="url(#p4c969cbc05)" style="fill: #6b296b"/>
   </g>
   <g id="patch_84">
    <path d="M 1520.20184 107.961114 
L 1514.406845 107.961114 
L 1513.491845 128.16 
L 1509.76407 128.16 
L 1515.087703 17.28 
L 1519.508659 17.28 
L 1524.832291 128.16 
L 1521.107597 128.16 
L 1520.20184 107.961114 
z
M 1515.331086 87.382015 
L 1519.268356 87.382015 
L 1517.302802 43.277154 
L 1515.331086 87.382015 
z
" clip-path="url(#p4c969cbc05)" style="fill: #21599c"/>
   </g>
   <g id="patch_85">
    <path d="M 1525.625355 17.28 
L 1540.379939 17.28 
L 1540.379939 38.904689 
L 1531.093551 38.904689 
L 1531.093551 59.531316 
L 1539.829937 59.531316 
L 1539.829937 81.156005 
L 1531.093551 81.156005 
L 1531.093551 106.559074 
L 1540.693576 106.559074 
L 1540.693576 128.16 
L 1525.625355 128.16 
L 1525.625355 17.28 
z
" clip-path="url(#p4c969cbc05)" style="fill: #6b296b"/>
   </g>
   <g id="patch_86">
    <path d="M 1541.48664 17.28 
L 1556.241224 17.28 
L 1556.241224 38.904689 
L 1546.954836 38.904689 
L 1546.954836 59.531316 
L 1555.691222 59.531316 
L 1555.691222 81.156005 
L 1546.954836 81.156005 
L 1546.954836 106.559074 
L 1556.554861 106.559074 
L 1556.554861 128.16 
L 1541.48664 128.16 
L 1541.48664 17.28 
z
" clip-path="url(#p4c969cbc05)" style="fill: #6b296b"/>
   </g>
   <g id="patch_87">
    <path d="M 1571.159778 22.570907 
L 1571.159778 45.200413 
Q 1569.588296 41.260863 1568.090478 39.268184 
Q 1566.596751 37.252601 1565.266721 37.252601 
Q 1563.502896 37.252601 1562.655769 39.978219 
Q 1561.812734 42.680934 1561.812734 48.407023 
Q 1561.812734 52.713043 1562.381578 55.118 
Q 1562.950422 57.500054 1564.448241 59.217881 
L 1566.54355 61.57703 
Q 1569.727438 65.173014 1571.069746 72.479504 
Q 1572.416146 79.76309 1572.416146 93.230853 
Q 1572.416146 110.890114 1570.541826 119.525057 
Q 1568.667506 128.16 1564.816557 128.16 
Q 1563.003623 128.16 1561.17432 126.21313 
Q 1559.345017 124.289163 1557.515713 120.48704 
L 1557.515713 97.239116 
Q 1559.345017 102.667449 1561.051548 105.438876 
Q 1562.758079 108.187399 1564.345931 108.187399 
Q 1565.958337 108.187399 1566.813649 105.186928 
Q 1567.66896 102.163553 1567.66896 96.574889 
Q 1567.66896 91.581739 1567.087839 88.856121 
Q 1566.506718 86.130502 1564.767448 83.977492 
L 1562.860389 81.618343 
Q 1559.995708 78.18269 1558.66977 70.67006 
Q 1557.347925 63.15743 1557.347925 50.422607 
Q 1557.347925 34.458269 1559.189505 25.869134 
Q 1561.031086 17.28 1564.485072 17.28 
Q 1566.060647 17.28 1567.722162 18.608453 
Q 1569.383676 19.936906 1571.159778 22.570907 
z
" clip-path="url(#p4c969cbc05)" style="fill: #40ba47"/>
   </g>
   <g id="patch_88">
    <path d="M 1588.27743 118.127891 
Q 1586.757776 123.143945 1585.123303 125.663425 
Q 1583.48883 128.16 1581.746292 128.16 
Q 1577.808698 128.16 1575.508954 113.226358 
Q 1573.20921 98.292716 1573.20921 72.754357 
Q 1573.20921 46.91824 1575.549478 32.09912 
Q 1577.893123 17.28 1581.969175 17.28 
Q 1583.539485 17.28 1584.978091 19.295584 
Q 1586.420075 21.288263 1587.696585 25.227812 
L 1587.696585 47.330518 
Q 1586.37955 42.268655 1585.076024 39.77208 
Q 1583.772498 37.252601 1582.462218 37.252601 
Q 1580.037525 37.252601 1578.723868 46.460153 
Q 1577.410211 55.644801 1577.410211 72.754357 
Q 1577.410211 89.703582 1578.67659 98.956943 
Q 1579.942969 108.187399 1582.273106 108.187399 
Q 1582.907984 108.187399 1583.451682 107.660599 
Q 1583.995381 107.110894 1584.427638 105.965677 
L 1584.427638 85.214328 
L 1581.945536 85.214328 
L 1581.945536 66.73051 
L 1588.27743 66.73051 
L 1588.27743 118.127891 
z
" clip-path="url(#p4c969cbc05)" style="fill: #787800"/>
   </g>
   <g id="patch_89">
    <path d="M 1599.508264 107.961114 
L 1593.713269 107.961114 
L 1592.798269 128.16 
L 1589.070495 128.16 
L 1594.394127 17.28 
L 1598.815083 17.28 
L 1604.138715 128.16 
L 1600.414021 128.16 
L 1599.508264 107.961114 
z
M 1594.63751 87.382015 
L 1598.57478 87.382015 
L 1596.609226 43.277154 
L 1594.63751 87.382015 
z
" clip-path="url(#p4c969cbc05)" style="fill: #21599c"/>
   </g>
   <g id="patch_90">
    <path d="M 1604.931779 17.28 
L 1620 17.28 
L 1620 38.904689 
L 1614.578945 38.904689 
L 1614.578945 128.16 
L 1610.363347 128.16 
L 1610.363347 38.904689 
L 1604.931779 38.904689 
L 1604.931779 17.28 
z
" clip-path="url(#p4c969cbc05)" style="fill: #40ba47"/>
   </g>
   <g id="matplotlib.axis_1">
    <g id="xtick_1">
     <g id="line2d_2">
      <defs>
       <path id="m41d4acae83" d="M 0 0 
L 0 3.5 
" style="stroke: #000000; stroke-width: 0.8"/>
      </defs>
      <g>
       <use xlink:href="#m41d4acae83" x="232.53411" y="128.16" style="stroke: #000000; stroke-width: 0.8"/>
      </g>
     </g>
     <g id="text_1">
      <!-- 0 -->
      <g transform="translate(229.35286 142.758438) scale(0.1 -0.1)">
       <defs>
        <path id="DejaVuSans-30" d="M 2034 4250 
Q 1547 4250 1301 3770 
Q 1056 3291 1056 2328 
Q 1056 1369 1301 889 
Q 1547 409 2034 409 
Q 2525 409 2770 889 
Q 3016 1369 3016 2328 
Q 3016 3291 2770 3770 
Q 2525 4250 2034 4250 
z
M 2034 4750 
Q 2819 4750 3233 4129 
Q 3647 3509 3647 2328 
Q 3647 1150 3233 529 
Q 2819 -91 2034 -91 
Q 1250 -91 836 529 
Q 422 1150 422 2328 
Q 422 3509 836 4129 
Q 1250 4750 2034 4750 
z
" transform="scale(0.015625)"/>
       </defs>
       <use xlink:href="#DejaVuSans-30"/>
      </g>
     </g>
    </g>
    <g id="xtick_2">
     <g id="line2d_3">
      <g>
       <use xlink:href="#m41d4acae83" x="391.146958" y="128.16" style="stroke: #000000; stroke-width: 0.8"/>
      </g>
     </g>
     <g id="text_2">
      <!-- 10 -->
      <g transform="translate(384.784458 142.758438) scale(0.1 -0.1)">
       <defs>
        <path id="DejaVuSans-31" d="M 794 531 
L 1825 531 
L 1825 4091 
L 703 3866 
L 703 4441 
L 1819 4666 
L 2450 4666 
L 2450 531 
L 3481 531 
L 3481 0 
L 794 0 
L 794 531 
z
" transform="scale(0.015625)"/>
       </defs>
       <use xlink:href="#DejaVuSans-31"/>
       <use xlink:href="#DejaVuSans-30" x="63.623047"/>
      </g>
     </g>
    </g>
    <g id="xtick_3">
     <g id="line2d_4">
      <g>
       <use xlink:href="#m41d4acae83" x="549.759807" y="128.16" style="stroke: #000000; stroke-width: 0.8"/>
      </g>
     </g>
     <g id="text_3">
      <!-- 20 -->
      <g transform="translate(543.397307 142.758438) scale(0.1 -0.1)">
       <defs>
        <path id="DejaVuSans-32" d="M 1228 531 
L 3431 531 
L 3431 0 
L 469 0 
L 469 531 
Q 828 903 1448 1529 
Q 2069 2156 2228 2338 
Q 2531 2678 2651 2914 
Q 2772 3150 2772 3378 
Q 2772 3750 2511 3984 
Q 2250 4219 1831 4219 
Q 1534 4219 1204 4116 
Q 875 4013 500 3803 
L 500 4441 
Q 881 4594 1212 4672 
Q 1544 4750 1819 4750 
Q 2544 4750 2975 4387 
Q 3406 4025 3406 3419 
Q 3406 3131 3298 2873 
Q 3191 2616 2906 2266 
Q 2828 2175 2409 1742 
Q 1991 1309 1228 531 
z
" transform="scale(0.015625)"/>
       </defs>
       <use xlink:href="#DejaVuSans-32"/>
       <use xlink:href="#DejaVuSans-30" x="63.623047"/>
      </g>
     </g>
    </g>
    <g id="xtick_4">
     <g id="line2d_5">
      <g>
       <use xlink:href="#m41d4acae83" x="708.372655" y="128.16" style="stroke: #000000; stroke-width: 0.8"/>
      </g>
     </g>
     <g id="text_4">
      <!-- 30 -->
      <g transform="translate(702.010155 142.758438) scale(0.1 -0.1)">
       <defs>
        <path id="DejaVuSans-33" d="M 2597 2516 
Q 3050 2419 3304 2112 
Q 3559 1806 3559 1356 
Q 3559 666 3084 287 
Q 2609 -91 1734 -91 
Q 1441 -91 1130 -33 
Q 819 25 488 141 
L 488 750 
Q 750 597 1062 519 
Q 1375 441 1716 441 
Q 2309 441 2620 675 
Q 2931 909 2931 1356 
Q 2931 1769 2642 2001 
Q 2353 2234 1838 2234 
L 1294 2234 
L 1294 2753 
L 1863 2753 
Q 2328 2753 2575 2939 
Q 2822 3125 2822 3475 
Q 2822 3834 2567 4026 
Q 2313 4219 1838 4219 
Q 1578 4219 1281 4162 
Q 984 4106 628 3988 
L 628 4550 
Q 988 4650 1302 4700 
Q 1616 4750 1894 4750 
Q 2613 4750 3031 4423 
Q 3450 4097 3450 3541 
Q 3450 3153 3228 2886 
Q 3006 2619 2597 2516 
z
" transform="scale(0.015625)"/>
       </defs>
       <use xlink:href="#DejaVuSans-33"/>
       <use xlink:href="#DejaVuSans-30" x="63.623047"/>
      </g>
     </g>
    </g>
    <g id="xtick_5">
     <g id="line2d_6">
      <g>
       <use xlink:href="#m41d4acae83" x="866.985503" y="128.16" style="stroke: #000000; stroke-width: 0.8"/>
      </g>
     </g>
     <g id="text_5">
      <!-- 40 -->
      <g transform="translate(860.623003 142.758438) scale(0.1 -0.1)">
       <defs>
        <path id="DejaVuSans-34" d="M 2419 4116 
L 825 1625 
L 2419 1625 
L 2419 4116 
z
M 2253 4666 
L 3047 4666 
L 3047 1625 
L 3713 1625 
L 3713 1100 
L 3047 1100 
L 3047 0 
L 2419 0 
L 2419 1100 
L 313 1100 
L 313 1709 
L 2253 4666 
z
" transform="scale(0.015625)"/>
       </defs>
       <use xlink:href="#DejaVuSans-34"/>
       <use xlink:href="#DejaVuSans-30" x="63.623047"/>
      </g>
     </g>
    </g>
    <g id="xtick_6">
     <g id="line2d_7">
      <g>
       <use xlink:href="#m41d4acae83" x="1025.598351" y="128.16" style="stroke: #000000; stroke-width: 0.8"/>
      </g>
     </g>
     <g id="text_6">
      <!-- 50 -->
      <g transform="translate(1019.235851 142.758438) scale(0.1 -0.1)">
       <defs>
        <path id="DejaVuSans-35" d="M 691 4666 
L 3169 4666 
L 3169 4134 
L 1269 4134 
L 1269 2991 
Q 1406 3038 1543 3061 
Q 1681 3084 1819 3084 
Q 2600 3084 3056 2656 
Q 3513 2228 3513 1497 
Q 3513 744 3044 326 
Q 2575 -91 1722 -91 
Q 1428 -91 1123 -41 
Q 819 9 494 109 
L 494 744 
Q 775 591 1075 516 
Q 1375 441 1709 441 
Q 2250 441 2565 725 
Q 2881 1009 2881 1497 
Q 2881 1984 2565 2268 
Q 2250 2553 1709 2553 
Q 1456 2553 1204 2497 
Q 953 2441 691 2322 
L 691 4666 
z
" transform="scale(0.015625)"/>
       </defs>
       <use xlink:href="#DejaVuSans-35"/>
       <use xlink:href="#DejaVuSans-30" x="63.623047"/>
      </g>
     </g>
    </g>
    <g id="xtick_7">
     <g id="line2d_8">
      <g>
       <use xlink:href="#m41d4acae83" x="1184.2112" y="128.16" style="stroke: #000000; stroke-width: 0.8"/>
      </g>
     </g>
     <g id="text_7">
      <!-- 60 -->
      <g transform="translate(1177.8487 142.758438) scale(0.1 -0.1)">
       <defs>
        <path id="DejaVuSans-36" d="M 2113 2584 
Q 1688 2584 1439 2293 
Q 1191 2003 1191 1497 
Q 1191 994 1439 701 
Q 1688 409 2113 409 
Q 2538 409 2786 701 
Q 3034 994 3034 1497 
Q 3034 2003 2786 2293 
Q 2538 2584 2113 2584 
z
M 3366 4563 
L 3366 3988 
Q 3128 4100 2886 4159 
Q 2644 4219 2406 4219 
Q 1781 4219 1451 3797 
Q 1122 3375 1075 2522 
Q 1259 2794 1537 2939 
Q 1816 3084 2150 3084 
Q 2853 3084 3261 2657 
Q 3669 2231 3669 1497 
Q 3669 778 3244 343 
Q 2819 -91 2113 -91 
Q 1303 -91 875 529 
Q 447 1150 447 2328 
Q 447 3434 972 4092 
Q 1497 4750 2381 4750 
Q 2619 4750 2861 4703 
Q 3103 4656 3366 4563 
z
" transform="scale(0.015625)"/>
       </defs>
       <use xlink:href="#DejaVuSans-36"/>
       <use xlink:href="#DejaVuSans-30" x="63.623047"/>
      </g>
     </g>
    </g>
    <g id="xtick_8">
     <g id="line2d_9">
      <g>
       <use xlink:href="#m41d4acae83" x="1342.824048" y="128.16" style="stroke: #000000; stroke-width: 0.8"/>
      </g>
     </g>
     <g id="text_8">
      <!-- 70 -->
      <g transform="translate(1336.461548 142.758438) scale(0.1 -0.1)">
       <defs>
        <path id="DejaVuSans-37" d="M 525 4666 
L 3525 4666 
L 3525 4397 
L 1831 0 
L 1172 0 
L 2766 4134 
L 525 4134 
L 525 4666 
z
" transform="scale(0.015625)"/>
       </defs>
       <use xlink:href="#DejaVuSans-37"/>
       <use xlink:href="#DejaVuSans-30" x="63.623047"/>
      </g>
     </g>
    </g>
    <g id="xtick_9">
     <g id="line2d_10">
      <g>
       <use xlink:href="#m41d4acae83" x="1501.436896" y="128.16" style="stroke: #000000; stroke-width: 0.8"/>
      </g>
     </g>
     <g id="text_9">
      <!-- 80 -->
      <g transform="translate(1495.074396 142.758438) scale(0.1 -0.1)">
       <defs>
        <path id="DejaVuSans-38" d="M 2034 2216 
Q 1584 2216 1326 1975 
Q 1069 1734 1069 1313 
Q 1069 891 1326 650 
Q 1584 409 2034 409 
Q 2484 409 2743 651 
Q 3003 894 3003 1313 
Q 3003 1734 2745 1975 
Q 2488 2216 2034 2216 
z
M 1403 2484 
Q 997 2584 770 2862 
Q 544 3141 544 3541 
Q 544 4100 942 4425 
Q 1341 4750 2034 4750 
Q 2731 4750 3128 4425 
Q 3525 4100 3525 3541 
Q 3525 3141 3298 2862 
Q 3072 2584 2669 2484 
Q 3125 2378 3379 2068 
Q 3634 1759 3634 1313 
Q 3634 634 3220 271 
Q 2806 -91 2034 -91 
Q 1263 -91 848 271 
Q 434 634 434 1313 
Q 434 1759 690 2068 
Q 947 2378 1403 2484 
z
M 1172 3481 
Q 1172 3119 1398 2916 
Q 1625 2713 2034 2713 
Q 2441 2713 2670 2916 
Q 2900 3119 2900 3481 
Q 2900 3844 2670 4047 
Q 2441 4250 2034 4250 
Q 1625 4250 1398 4047 
Q 1172 3844 1172 3481 
z
" transform="scale(0.015625)"/>
       </defs>
       <use xlink:href="#DejaVuSans-38"/>
       <use xlink:href="#DejaVuSans-30" x="63.623047"/>
      </g>
     </g>
    </g>
   </g>
   <g id="matplotlib.axis_2">
    <g id="ytick_1">
     <g id="line2d_11">
      <defs>
       <path id="me313dd169d" d="M 0 0 
L -3.5 0 
" style="stroke: #000000; stroke-width: 0.8"/>
      </defs>
      <g>
       <use xlink:href="#me313dd169d" x="225" y="128.16" style="stroke: #000000; stroke-width: 0.8"/>
      </g>
     </g>
     <g id="text_10">
      <!-- 0 -->
      <g transform="translate(211.6375 131.959219) scale(0.1 -0.1)">
       <use xlink:href="#DejaVuSans-30"/>
      </g>
     </g>
    </g>
    <g id="ytick_2">
     <g id="line2d_12">
      <g>
       <use xlink:href="#me313dd169d" x="225" y="105.984" style="stroke: #000000; stroke-width: 0.8"/>
      </g>
     </g>
     <g id="text_11">
      <!-- 1 -->
      <g transform="translate(211.6375 109.783219) scale(0.1 -0.1)">
       <use xlink:href="#DejaVuSans-31"/>
      </g>
     </g>
    </g>
    <g id="ytick_3">
     <g id="line2d_13">
      <g>
       <use xlink:href="#me313dd169d" x="225" y="83.808" style="stroke: #000000; stroke-width: 0.8"/>
      </g>
     </g>
     <g id="text_12">
      <!-- 2 -->
      <g transform="translate(211.6375 87.607219) scale(0.1 -0.1)">
       <use xlink:href="#DejaVuSans-32"/>
      </g>
     </g>
    </g>
    <g id="ytick_4">
     <g id="line2d_14">
      <g>
       <use xlink:href="#me313dd169d" x="225" y="61.632" style="stroke: #000000; stroke-width: 0.8"/>
      </g>
     </g>
     <g id="text_13">
      <!-- 3 -->
      <g transform="translate(211.6375 65.431219) scale(0.1 -0.1)">
       <use xlink:href="#DejaVuSans-33"/>
      </g>
     </g>
    </g>
    <g id="ytick_5">
     <g id="line2d_15">
      <g>
       <use xlink:href="#me313dd169d" x="225" y="39.456" style="stroke: #000000; stroke-width: 0.8"/>
      </g>
     </g>
     <g id="text_14">
      <!-- 4 -->
      <g transform="translate(211.6375 43.255219) scale(0.1 -0.1)">
       <use xlink:href="#DejaVuSans-34"/>
      </g>
     </g>
    </g>
    <g id="ytick_6">
     <g id="line2d_16">
      <g>
       <use xlink:href="#me313dd169d" x="225" y="17.28" style="stroke: #000000; stroke-width: 0.8"/>
      </g>
     </g>
     <g id="text_15">
      <!-- 5 -->
      <g transform="translate(211.6375 21.079219) scale(0.1 -0.1)">
       <use xlink:href="#DejaVuSans-35"/>
      </g>
     </g>
    </g>
   </g>
  </g>
 </g>
 <defs>
  <clipPath id="p4c969cbc05">
   <rect x="225" y="17.28" width="1395" height="110.88"/>
  </clipPath>
 </defs>
</svg>
