<?xml version="1.0" encoding="utf-8" standalone="no"?>
<!DOCTYPE svg PUBLIC "-//W3C//DTD SVG 1.1//EN"
  "http://www.w3.org/Graphics/SVG/1.1/DTD/svg11.dtd">
<svg xmlns:xlink="http://www.w3.org/1999/xlink" width="1800pt" height="144pt" viewBox="0 0 1800 144" xmlns="http://www.w3.org/2000/svg" version="1.1">
 <metadata>
  <rdf:RDF xmlns:dc="http://purl.org/dc/elements/1.1/" xmlns:cc="http://creativecommons.org/ns#" xmlns:rdf="http://www.w3.org/1999/02/22-rdf-syntax-ns#">
   <cc:Work>
    <dc:type rdf:resource="http://purl.org/dc/dcmitype/StillImage"/>
    <dc:date>2025-05-09T21:11:09.097641</dc:date>
    <dc:format>image/svg+xml</dc:format>
    <dc:creator>
     <cc:Agent>
      <dc:title>Matplotlib v3.8.0, https://matplotlib.org/</dc:title>
     </cc:Agent>
    </dc:creator>
   </cc:Work>
  </rdf:RDF>
 </metadata>
 <defs>
  <style type="text/css">*{stroke-linejoin: round; stroke-linecap: butt}</style>
 </defs>
 <g id="figure_1">
  <g id="patch_1">
   <path d="M 0 144 
L 1800 144 
L 1800 0 
L 0 0 
z
" style="fill: #ffffff"/>
  </g>
  <g id="axes_1">
   <g id="patch_2">
    <path d="M 225 128.16 
L 1620 128.16 
L 1620 17.28 
L 225 17.28 
z
" style="fill: #ffffff"/>
   </g>
   <g id="line2d_1">
    <path d="M 225 128.16 
L 1620 128.16 
" clip-path="url(#pc5d7ebe1eb)" style="fill: none; stroke: #000000; stroke-width: 1.5; stroke-linecap: square"/>
   </g>
   <g id="patch_3">
    <path d="M 225 17.28 
L 238.052954 17.28 
L 247.107322 76.617197 
L 256.221371 17.28 
L 269.248748 17.28 
L 269.248748 128.16 
L 259.554947 128.16 
L 259.554947 47.055534 
L 250.389744 106.844235 
L 243.884581 106.844235 
L 234.719378 47.055534 
L 234.719378 128.16 
L 225 128.16 
L 225 17.28 
z
" clip-path="url(#pc5d7ebe1eb)" style="fill: #21599c"/>
   </g>
   <g id="patch_4">
    <path d="M 283.703197 38.904689 
L 283.703197 106.559074 
L 288.047437 106.559074 
Q 295.475985 106.559074 299.396888 97.861672 
Q 303.32787 89.164269 303.32787 72.601183 
Q 303.32787 56.13315 299.417047 47.530802 
Q 295.516303 38.904689 288.047437 38.904689 
L 283.703197 38.904689 
z
M 271.577629 17.28 
L 284.358361 17.28 
Q 295.072807 17.28 300.314117 20.892036 
Q 305.555426 24.480309 309.304979 33.106421 
Q 312.611035 40.615654 314.213667 50.429936 
Q 315.826377 60.220454 315.826377 72.601183 
Q 315.826377 85.172019 314.213667 95.010064 
Q 312.611035 104.84811 309.304979 112.333579 
Q 305.525188 120.959691 300.233481 124.571727 
Q 294.941775 128.16 284.358361 128.16 
L 271.577629 128.16 
L 271.577629 17.28 
z
" clip-path="url(#pc5d7ebe1eb)" style="fill: #6b296b"/>
   </g>
   <g id="patch_5">
    <path d="M 348.806405 107.961114 
L 331.789048 107.961114 
L 329.102097 128.16 
L 318.155259 128.16 
L 333.788429 17.28 
L 346.770836 17.28 
L 362.404007 128.16 
L 351.466216 128.16 
L 348.806405 107.961114 
z
M 334.50314 87.382015 
L 346.065172 87.382015 
L 340.293203 43.277154 
L 334.50314 87.382015 
z
" clip-path="url(#pc5d7ebe1eb)" style="fill: #21599c"/>
   </g>
   <g id="patch_6">
    <path d="M 364.732888 17.28 
L 408.060621 17.28 
L 408.060621 38.904689 
L 380.790579 38.904689 
L 380.790579 59.531316 
L 406.445509 59.531316 
L 406.445509 81.156005 
L 380.790579 81.156005 
L 380.790579 106.559074 
L 408.981636 106.559074 
L 408.981636 128.16 
L 364.732888 128.16 
L 364.732888 17.28 
z
" clip-path="url(#pc5d7ebe1eb)" style="fill: #6b296b"/>
   </g>
   <g id="patch_7">
    <path d="M 411.310518 17.28 
L 427.368208 17.28 
L 427.368208 106.559074 
L 455.559265 106.559074 
L 455.559265 128.16 
L 411.310518 128.16 
L 411.310518 17.28 
z
" clip-path="url(#pc5d7ebe1eb)" style="fill: #21599c"/>
   </g>
   <g id="patch_8">
    <path d="M 457.888147 17.28 
L 502.136895 17.28 
L 502.136895 38.904689 
L 486.217636 38.904689 
L 486.217636 128.16 
L 473.838277 128.16 
L 473.838277 38.904689 
L 457.888147 38.904689 
L 457.888147 17.28 
z
" clip-path="url(#pc5d7ebe1eb)" style="fill: #40ba47"/>
   </g>
   <g id="patch_9">
    <path d="M 504.465776 17.28 
L 518.679139 17.28 
L 536.638987 93.322863 
L 536.638987 17.28 
L 548.714524 17.28 
L 548.714524 128.16 
L 534.490578 128.16 
L 516.53073 52.117137 
L 516.53073 128.16 
L 504.465776 128.16 
L 504.465776 17.28 
z
" clip-path="url(#pc5d7ebe1eb)" style="fill: #40ba47"/>
   </g>
   <g id="patch_10">
    <path d="M 568.997136 66.446464 
Q 572.968177 66.446464 574.691063 63.119589 
Q 576.413948 59.76895 576.413948 52.117137 
Q 576.413948 44.536614 574.691063 41.281029 
Q 572.968177 38.00168 568.997136 38.00168 
L 563.681403 38.00168 
L 563.681403 66.446464 
L 568.997136 66.446464 
z
M 563.681403 86.193845 
L 563.681403 128.16 
L 551.043406 128.16 
L 551.043406 17.28 
L 570.341827 17.28 
Q 580.027806 17.28 584.534623 24.646652 
Q 589.051946 31.989541 589.051946 47.887252 
Q 589.051946 58.865941 586.698736 65.923669 
Q 584.356031 72.981397 579.628601 76.332036 
Q 582.223435 77.662786 584.271988 82.391702 
Q 586.331047 87.096854 588.432127 96.673502 
L 595.292154 128.16 
L 581.834735 128.16 
L 575.857162 100.618225 
Q 574.050233 92.301037 572.190777 89.259323 
Q 570.341827 86.193845 567.253239 86.193845 
L 563.681403 86.193845 
z
" clip-path="url(#pc5d7ebe1eb)" style="fill: #bd2e1f"/>
   </g>
   <g id="patch_11">
    <path d="M 638.180384 22.570907 
L 638.180384 45.200413 
Q 633.565632 41.260863 629.167196 39.268184 
Q 624.780777 37.252601 620.875062 37.252601 
Q 615.695483 37.252601 613.207843 39.978219 
Q 610.73222 42.680934 610.73222 48.407023 
Q 610.73222 52.713043 612.402665 55.118 
Q 614.073109 57.500054 618.471545 59.217881 
L 624.624549 61.57703 
Q 633.97423 65.173014 637.915998 72.479504 
Q 641.869783 79.76309 641.869783 93.230853 
Q 641.869783 110.890114 636.365729 119.525057 
Q 630.861675 128.16 619.553128 128.16 
Q 614.229338 128.16 608.857477 126.21313 
Q 603.485617 124.289163 598.113756 120.48704 
L 598.113756 97.239116 
Q 603.485617 102.667449 608.496949 105.438876 
Q 613.508282 108.187399 618.171105 108.187399 
Q 622.906034 108.187399 625.417709 105.186928 
Q 627.929384 102.163553 627.929384 96.574889 
Q 627.929384 91.581739 626.222887 88.856121 
Q 624.51639 86.130502 619.408917 83.977492 
L 613.808722 81.618343 
Q 605.396413 78.18269 601.502715 70.67006 
Q 597.621035 63.15743 597.621035 50.422607 
Q 597.621035 34.458269 603.028948 25.869134 
Q 608.436862 17.28 618.579703 17.28 
Q 623.206473 17.28 628.085613 18.608453 
Q 632.964752 19.936906 638.180384 22.570907 
z
" clip-path="url(#pc5d7ebe1eb)" style="fill: #40ba47"/>
   </g>
   <g id="patch_12">
    <path d="M 662.152394 66.446464 
Q 666.123436 66.446464 667.846322 63.119589 
Q 669.569207 59.76895 669.569207 52.117137 
Q 669.569207 44.536614 667.846322 41.281029 
Q 666.123436 38.00168 662.152394 38.00168 
L 656.836662 38.00168 
L 656.836662 66.446464 
L 662.152394 66.446464 
z
M 656.836662 86.193845 
L 656.836662 128.16 
L 644.198664 128.16 
L 644.198664 17.28 
L 663.497086 17.28 
Q 673.183065 17.28 677.689882 24.646652 
Q 682.207204 31.989541 682.207204 47.887252 
Q 682.207204 58.865941 679.853995 65.923669 
Q 677.51129 72.981397 672.78386 76.332036 
Q 675.378694 77.662786 677.427247 82.391702 
Q 679.486306 87.096854 681.587386 96.673502 
L 688.447412 128.16 
L 674.989994 128.16 
L 669.012421 100.618225 
Q 667.205492 92.301037 665.346036 89.259323 
Q 663.497086 86.193845 660.408498 86.193845 
L 656.836662 86.193845 
z
" clip-path="url(#pc5d7ebe1eb)" style="fill: #bd2e1f"/>
   </g>
   <g id="patch_13">
    <path d="M 702.901862 38.904689 
L 702.901862 106.559074 
L 707.246101 106.559074 
Q 714.674649 106.559074 718.595552 97.861672 
Q 722.526534 89.164269 722.526534 72.601183 
Q 722.526534 56.13315 718.615711 47.530802 
Q 714.714967 38.904689 707.246101 38.904689 
L 702.901862 38.904689 
z
M 690.776294 17.28 
L 703.557026 17.28 
Q 714.271472 17.28 719.512781 20.892036 
Q 724.754091 24.480309 728.503643 33.106421 
Q 731.8097 40.615654 733.412331 50.429936 
Q 735.025042 60.220454 735.025042 72.601183 
Q 735.025042 85.172019 733.412331 95.010064 
Q 731.8097 104.84811 728.503643 112.333579 
Q 724.723853 120.959691 719.432146 124.571727 
Q 714.140439 128.16 703.557026 128.16 
L 690.776294 128.16 
L 690.776294 17.28 
z
" clip-path="url(#pc5d7ebe1eb)" style="fill: #6b296b"/>
   </g>
   <g id="patch_14">
    <path d="M 768.00507 107.961114 
L 750.987712 107.961114 
L 748.300761 128.16 
L 737.353923 128.16 
L 752.987094 17.28 
L 765.969501 17.28 
L 781.602671 128.16 
L 770.66488 128.16 
L 768.00507 107.961114 
z
M 753.701805 87.382015 
L 765.263837 87.382015 
L 759.491868 43.277154 
L 753.701805 87.382015 
z
" clip-path="url(#pc5d7ebe1eb)" style="fill: #21599c"/>
   </g>
   <g id="patch_15">
    <path d="M 798.027081 17.28 
L 814.084772 17.28 
L 814.084772 128.16 
L 798.027081 128.16 
L 798.027081 17.28 
z
" clip-path="url(#pc5d7ebe1eb)" style="fill: #21599c"/>
   </g>
   <g id="patch_16">
    <path d="M 830.509182 17.28 
L 844.722544 17.28 
L 862.682393 93.322863 
L 862.682393 17.28 
L 874.75793 17.28 
L 874.75793 128.16 
L 860.533984 128.16 
L 842.574136 52.117137 
L 842.574136 128.16 
L 830.509182 128.16 
L 830.509182 17.28 
z
" clip-path="url(#pc5d7ebe1eb)" style="fill: #40ba47"/>
   </g>
   <g id="patch_17">
    <path d="M 907.737958 107.961114 
L 890.720601 107.961114 
L 888.033649 128.16 
L 877.086811 128.16 
L 892.719982 17.28 
L 905.702389 17.28 
L 921.335559 128.16 
L 910.397768 128.16 
L 907.737958 107.961114 
z
M 893.434693 87.382015 
L 904.996725 87.382015 
L 899.224756 43.277154 
L 893.434693 87.382015 
z
" clip-path="url(#pc5d7ebe1eb)" style="fill: #21599c"/>
   </g>
   <g id="patch_18">
    <path d="M 954.315587 107.961114 
L 937.29823 107.961114 
L 934.611279 128.16 
L 923.664441 128.16 
L 939.297611 17.28 
L 952.280018 17.28 
L 967.913189 128.16 
L 956.975398 128.16 
L 954.315587 107.961114 
z
M 940.012322 87.382015 
L 951.574354 87.382015 
L 945.802385 43.277154 
L 940.012322 87.382015 
z
" clip-path="url(#pc5d7ebe1eb)" style="fill: #21599c"/>
   </g>
   <g id="patch_19">
    <path d="M 1010.801419 22.570907 
L 1010.801419 45.200413 
Q 1006.186667 41.260863 1001.788231 39.268184 
Q 997.401812 37.252601 993.496097 37.252601 
Q 988.316518 37.252601 985.828878 39.978219 
Q 983.353255 42.680934 983.353255 48.407023 
Q 983.353255 52.713043 985.0237 55.118 
Q 986.694144 57.500054 991.09258 59.217881 
L 997.245584 61.57703 
Q 1006.595265 65.173014 1010.537033 72.479504 
Q 1014.490818 79.76309 1014.490818 93.230853 
Q 1014.490818 110.890114 1008.986764 119.525057 
Q 1003.48271 128.16 992.174163 128.16 
Q 986.850373 128.16 981.478512 126.21313 
Q 976.106652 124.289163 970.734791 120.48704 
L 970.734791 97.239116 
Q 976.106652 102.667449 981.117985 105.438876 
Q 986.129317 108.187399 990.79214 108.187399 
Q 995.527069 108.187399 998.038744 105.186928 
Q 1000.550419 102.163553 1000.550419 96.574889 
Q 1000.550419 91.581739 998.843922 88.856121 
Q 997.137425 86.130502 992.029952 83.977492 
L 986.429757 81.618343 
Q 978.017448 78.18269 974.12375 70.67006 
Q 970.24207 63.15743 970.24207 50.422607 
Q 970.24207 34.458269 975.649983 25.869134 
Q 981.057897 17.28 991.200738 17.28 
Q 995.827509 17.28 1000.706648 18.608453 
Q 1005.585788 19.936906 1010.801419 22.570907 
z
" clip-path="url(#pc5d7ebe1eb)" style="fill: #40ba47"/>
   </g>
   <g id="patch_20">
    <path d="M 1016.819699 17.28 
L 1031.033062 17.28 
L 1048.99291 74.312147 
L 1048.99291 17.28 
L 1061.068447 17.28 
L 1061.068447 100.44 
L 1046.844502 100.44 
L 1028.884653 43.407853 
L 1028.884653 100.44 
L 1016.819699 100.44 
L 1016.819699 17.28 
z
" clip-path="url(#pc5d7ebe1eb)" style="fill: #40ba47; opacity: 0.75"/>
   </g>
   <g id="patch_21">
    <path d="M 1057.379049 101.762727 
L 1057.379049 107.420103 
Q 1052.764296 106.435216 1048.36586 105.937046 
Q 1043.979442 105.43315 1040.073726 105.43315 
Q 1034.894147 105.43315 1032.406507 106.114555 
Q 1029.930885 106.790233 1029.930885 108.221756 
Q 1029.930885 109.298261 1031.601329 109.8995 
Q 1033.271773 110.495013 1037.670209 110.92447 
L 1043.823213 111.514257 
Q 1053.172894 112.413253 1057.114662 114.239876 
Q 1061.068447 116.060773 1061.068447 119.427713 
Q 1061.068447 123.842528 1055.564393 126.001264 
Q 1050.06034 128.16 1038.751792 128.16 
Q 1033.428002 128.16 1028.056141 127.673282 
Q 1022.684281 127.192291 1017.31242 126.24176 
L 1017.31242 120.429779 
Q 1022.684281 121.786862 1027.695614 122.479719 
Q 1032.706947 123.16685 1037.36977 123.16685 
Q 1042.104698 123.16685 1044.616374 122.416732 
Q 1047.128049 121.660888 1047.128049 120.263722 
Q 1047.128049 119.015435 1045.421552 118.33403 
Q 1043.715055 117.652625 1038.607581 117.114373 
L 1033.007386 116.524586 
Q 1024.595077 115.665672 1020.701379 113.787515 
Q 1016.819699 111.909358 1016.819699 108.725652 
Q 1016.819699 104.734567 1022.227613 102.587284 
Q 1027.635526 100.44 1037.778368 100.44 
Q 1042.405138 100.44 1047.284277 100.772113 
Q 1052.163417 101.104226 1057.379049 101.762727 
z
" clip-path="url(#pc5d7ebe1eb)" style="fill: #40ba47; opacity: 0.25"/>
   </g>
   <g id="patch_22">
    <path d="M 1081.351059 66.446464 
Q 1085.3221 66.446464 1087.044986 63.119589 
Q 1088.767872 59.76895 1088.767872 52.117137 
Q 1088.767872 44.536614 1087.044986 41.281029 
Q 1085.3221 38.00168 1081.351059 38.00168 
L 1076.035326 38.00168 
L 1076.035326 66.446464 
L 1081.351059 66.446464 
z
M 1076.035326 86.193845 
L 1076.035326 128.16 
L 1063.397329 128.16 
L 1063.397329 17.28 
L 1082.69575 17.28 
Q 1092.38173 17.28 1096.888546 24.646652 
Q 1101.405869 31.989541 1101.405869 47.887252 
Q 1101.405869 58.865941 1099.052659 65.923669 
Q 1096.709955 72.981397 1091.982524 76.332036 
Q 1094.577358 77.662786 1096.625911 82.391702 
Q 1098.68497 87.096854 1100.78605 96.673502 
L 1107.646077 128.16 
L 1094.188658 128.16 
L 1088.211085 100.618225 
Q 1086.404157 92.301037 1084.544701 89.259323 
Q 1082.69575 86.193845 1079.607162 86.193845 
L 1076.035326 86.193845 
z
" clip-path="url(#pc5d7ebe1eb)" style="fill: #bd2e1f"/>
   </g>
   <g id="patch_23">
    <path d="M 1140.626105 107.961114 
L 1123.608747 107.961114 
L 1120.921796 128.16 
L 1109.974958 128.16 
L 1125.608129 17.28 
L 1138.590536 17.28 
L 1154.223706 128.16 
L 1143.285915 128.16 
L 1140.626105 107.961114 
z
M 1126.32284 87.382015 
L 1137.884872 87.382015 
L 1132.112903 43.277154 
L 1126.32284 87.382015 
z
" clip-path="url(#pc5d7ebe1eb)" style="fill: #21599c"/>
   </g>
   <g id="patch_24">
    <path d="M 1156.552588 17.28 
L 1167.499426 17.28 
L 1178.690532 99.121132 
L 1189.863544 17.28 
L 1200.801336 17.28 
L 1185.168165 128.16 
L 1172.185758 128.16 
L 1156.552588 17.28 
z
" clip-path="url(#pc5d7ebe1eb)" style="fill: #21599c"/>
   </g>
   <g id="patch_25">
    <path d="M 1203.130217 17.28 
L 1247.378965 17.28 
L 1247.378965 38.904689 
L 1231.459706 38.904689 
L 1231.459706 128.16 
L 1219.080347 128.16 
L 1219.080347 38.904689 
L 1203.130217 38.904689 
L 1203.130217 17.28 
z
" clip-path="url(#pc5d7ebe1eb)" style="fill: #40ba47"/>
   </g>
   <g id="patch_26">
    <path d="M 1249.707846 17.28 
L 1293.03558 17.28 
L 1293.03558 38.904689 
L 1265.765537 38.904689 
L 1265.765537 59.531316 
L 1291.420467 59.531316 
L 1291.420467 81.156005 
L 1265.765537 81.156005 
L 1265.765537 106.559074 
L 1293.956594 106.559074 
L 1293.956594 128.16 
L 1249.707846 128.16 
L 1249.707846 17.28 
z
" clip-path="url(#pc5d7ebe1eb)" style="fill: #6b296b"/>
   </g>
   <g id="patch_27">
    <path d="M 1340.534224 118.127891 
Q 1336.071665 123.143945 1331.271935 125.663425 
Q 1326.472206 128.16 1321.355138 128.16 
Q 1309.792153 128.16 1303.038815 113.226358 
Q 1296.285476 98.292716 1296.285476 72.754357 
Q 1296.285476 46.91824 1303.157816 32.09912 
Q 1310.040073 17.28 1322.009647 17.28 
Q 1326.620958 17.28 1330.845513 19.295584 
Q 1335.079985 21.288263 1338.828535 25.227812 
L 1338.828535 47.330518 
Q 1334.960984 42.268655 1331.1331 39.77208 
Q 1327.305217 37.252601 1323.457499 37.252601 
Q 1316.337239 37.252601 1312.479605 46.460153 
Q 1308.621971 55.644801 1308.621971 72.754357 
Q 1308.621971 89.703582 1312.34077 98.956943 
Q 1316.059569 108.187399 1322.902159 108.187399 
Q 1324.766517 108.187399 1326.363121 107.660599 
Q 1327.959725 107.110894 1329.229075 105.965677 
L 1329.229075 85.214328 
L 1321.940229 85.214328 
L 1321.940229 66.73051 
L 1340.534224 66.73051 
L 1340.534224 118.127891 
z
" clip-path="url(#pc5d7ebe1eb)" style="fill: #787800"/>
   </g>
   <g id="patch_28">
    <path d="M 1342.863105 17.28 
L 1355.594807 17.28 
L 1355.594807 59.531316 
L 1374.380152 59.531316 
L 1374.380152 17.28 
L 1387.111853 17.28 
L 1387.111853 128.16 
L 1374.380152 128.16 
L 1374.380152 81.156005 
L 1355.594807 81.156005 
L 1355.594807 128.16 
L 1342.863105 128.16 
L 1342.863105 17.28 
z
" clip-path="url(#pc5d7ebe1eb)" style="fill: #177875"/>
   </g>
   <g id="patch_29">
    <path d="M 1420.091881 107.961114 
L 1403.074524 107.961114 
L 1400.387573 128.16 
L 1389.440735 128.16 
L 1405.073905 17.28 
L 1418.056312 17.28 
L 1433.689482 128.16 
L 1422.751691 128.16 
L 1420.091881 107.961114 
z
M 1405.788616 87.382015 
L 1417.350648 87.382015 
L 1411.578679 43.277154 
L 1405.788616 87.382015 
z
" clip-path="url(#pc5d7ebe1eb)" style="fill: #21599c"/>
   </g>
   <g id="patch_30">
    <path d="M 1448.143932 38.904689 
L 1448.143932 106.559074 
L 1452.488171 106.559074 
Q 1459.91672 106.559074 1463.837622 97.861672 
Q 1467.768604 89.164269 1467.768604 72.601183 
Q 1467.768604 56.13315 1463.857781 47.530802 
Q 1459.957037 38.904689 1452.488171 38.904689 
L 1448.143932 38.904689 
z
M 1436.018364 17.28 
L 1448.799096 17.28 
Q 1459.513542 17.28 1464.754851 20.892036 
Q 1469.996161 24.480309 1473.745713 33.106421 
Q 1477.05177 40.615654 1478.654401 50.429936 
Q 1480.267112 60.220454 1480.267112 72.601183 
Q 1480.267112 85.172019 1478.654401 95.010064 
Q 1477.05177 104.84811 1473.745713 112.333579 
Q 1469.965923 120.959691 1464.674216 124.571727 
Q 1459.382509 128.16 1448.799096 128.16 
L 1436.018364 128.16 
L 1436.018364 17.28 
z
" clip-path="url(#pc5d7ebe1eb)" style="fill: #6b296b"/>
   </g>
   <g id="patch_31">
    <path d="M 1482.595993 45 
L 1498.653684 45 
L 1498.653684 111.959306 
L 1526.844741 111.959306 
L 1526.844741 128.16 
L 1482.595993 128.16 
L 1482.595993 45 
z
" clip-path="url(#pc5d7ebe1eb)" style="fill: #21599c"/>
   </g>
   <g id="patch_32">
    <path d="M 1529.173623 100.44 
L 1573.422371 100.44 
L 1573.422371 105.846172 
L 1557.503112 105.846172 
L 1557.503112 128.16 
L 1545.123753 128.16 
L 1545.123753 105.846172 
L 1529.173623 105.846172 
L 1529.173623 100.44 
z
" clip-path="url(#pc5d7ebe1eb)" style="fill: #40ba47"/>
   </g>
   <g id="patch_33">
    <path d="M 1575.751252 100.44 
L 1598.751383 100.44 
Q 1609.018475 100.44 1614.503476 102.792576 
Q 1620 105.139211 1620 109.481972 
Q 1620 113.848495 1614.503476 116.195131 
Q 1609.018475 118.541766 1598.751383 118.541766 
L 1589.613555 118.541766 
L 1589.613555 128.16 
L 1575.751252 128.16 
L 1575.751252 100.44 
z
M 1589.613555 105.62042 
L 1589.613555 113.361346 
L 1597.276424 113.361346 
Q 1601.309513 113.361346 1603.510428 112.351402 
Q 1605.711342 111.341457 1605.711342 109.481972 
Q 1605.711342 107.628427 1603.510428 106.624423 
Q 1601.309513 105.62042 1597.276424 105.62042 
L 1589.613555 105.62042 
z
" clip-path="url(#pc5d7ebe1eb)" style="fill: #787800"/>
   </g>
   <g id="matplotlib.axis_1">
    <g id="xtick_1">
     <g id="line2d_2">
      <defs>
       <path id="mb6ae8f9828" d="M 0 0 
L 0 3.5 
" style="stroke: #000000; stroke-width: 0.8"/>
      </defs>
      <g>
       <use xlink:href="#mb6ae8f9828" x="247.124374" y="128.16" style="stroke: #000000; stroke-width: 0.8"/>
      </g>
     </g>
     <g id="text_1">
      <!-- 0 -->
      <g transform="translate(243.943124 142.758438) scale(0.1 -0.1)">
       <defs>
        <path id="DejaVuSans-30" d="M 2034 4250 
Q 1547 4250 1301 3770 
Q 1056 3291 1056 2328 
Q 1056 1369 1301 889 
Q 1547 409 2034 409 
Q 2525 409 2770 889 
Q 3016 1369 3016 2328 
Q 3016 3291 2770 3770 
Q 2525 4250 2034 4250 
z
M 2034 4750 
Q 2819 4750 3233 4129 
Q 3647 3509 3647 2328 
Q 3647 1150 3233 529 
Q 2819 -91 2034 -91 
Q 1250 -91 836 529 
Q 422 1150 422 2328 
Q 422 3509 836 4129 
Q 1250 4750 2034 4750 
z
" transform="scale(0.015625)"/>
       </defs>
       <use xlink:href="#DejaVuSans-30"/>
      </g>
     </g>
    </g>
    <g id="xtick_2">
     <g id="line2d_3">
      <g>
       <use xlink:href="#mb6ae8f9828" x="480.012521" y="128.16" style="stroke: #000000; stroke-width: 0.8"/>
      </g>
     </g>
     <g id="text_2">
      <!-- 5 -->
      <g transform="translate(476.831271 142.758438) scale(0.1 -0.1)">
       <defs>
        <path id="DejaVuSans-35" d="M 691 4666 
L 3169 4666 
L 3169 4134 
L 1269 4134 
L 1269 2991 
Q 1406 3038 1543 3061 
Q 1681 3084 1819 3084 
Q 2600 3084 3056 2656 
Q 3513 2228 3513 1497 
Q 3513 744 3044 326 
Q 2575 -91 1722 -91 
Q 1428 -91 1123 -41 
Q 819 9 494 109 
L 494 744 
Q 775 591 1075 516 
Q 1375 441 1709 441 
Q 2250 441 2565 725 
Q 2881 1009 2881 1497 
Q 2881 1984 2565 2268 
Q 2250 2553 1709 2553 
Q 1456 2553 1204 2497 
Q 953 2441 691 2322 
L 691 4666 
z
" transform="scale(0.015625)"/>
       </defs>
       <use xlink:href="#DejaVuSans-35"/>
      </g>
     </g>
    </g>
    <g id="xtick_3">
     <g id="line2d_4">
      <g>
       <use xlink:href="#mb6ae8f9828" x="712.900668" y="128.16" style="stroke: #000000; stroke-width: 0.8"/>
      </g>
     </g>
     <g id="text_3">
      <!-- 10 -->
      <g transform="translate(706.538168 142.758438) scale(0.1 -0.1)">
       <defs>
        <path id="DejaVuSans-31" d="M 794 531 
L 1825 531 
L 1825 4091 
L 703 3866 
L 703 4441 
L 1819 4666 
L 2450 4666 
L 2450 531 
L 3481 531 
L 3481 0 
L 794 0 
L 794 531 
z
" transform="scale(0.015625)"/>
       </defs>
       <use xlink:href="#DejaVuSans-31"/>
       <use xlink:href="#DejaVuSans-30" x="63.623047"/>
      </g>
     </g>
    </g>
    <g id="xtick_4">
     <g id="line2d_5">
      <g>
       <use xlink:href="#mb6ae8f9828" x="945.788815" y="128.16" style="stroke: #000000; stroke-width: 0.8"/>
      </g>
     </g>
     <g id="text_4">
      <!-- 15 -->
      <g transform="translate(939.426315 142.758438) scale(0.1 -0.1)">
       <use xlink:href="#DejaVuSans-31"/>
       <use xlink:href="#DejaVuSans-35" x="63.623047"/>
      </g>
     </g>
    </g>
    <g id="xtick_5">
     <g id="line2d_6">
      <g>
       <use xlink:href="#mb6ae8f9828" x="1178.676962" y="128.16" style="stroke: #000000; stroke-width: 0.8"/>
      </g>
     </g>
     <g id="text_5">
      <!-- 20 -->
      <g transform="translate(1172.314462 142.758438) scale(0.1 -0.1)">
       <defs>
        <path id="DejaVuSans-32" d="M 1228 531 
L 3431 531 
L 3431 0 
L 469 0 
L 469 531 
Q 828 903 1448 1529 
Q 2069 2156 2228 2338 
Q 2531 2678 2651 2914 
Q 2772 3150 2772 3378 
Q 2772 3750 2511 3984 
Q 2250 4219 1831 4219 
Q 1534 4219 1204 4116 
Q 875 4013 500 3803 
L 500 4441 
Q 881 4594 1212 4672 
Q 1544 4750 1819 4750 
Q 2544 4750 2975 4387 
Q 3406 4025 3406 3419 
Q 3406 3131 3298 2873 
Q 3191 2616 2906 2266 
Q 2828 2175 2409 1742 
Q 1991 1309 1228 531 
z
" transform="scale(0.015625)"/>
       </defs>
       <use xlink:href="#DejaVuSans-32"/>
       <use xlink:href="#DejaVuSans-30" x="63.623047"/>
      </g>
     </g>
    </g>
    <g id="xtick_6">
     <g id="line2d_7">
      <g>
       <use xlink:href="#mb6ae8f9828" x="1411.565109" y="128.16" style="stroke: #000000; stroke-width: 0.8"/>
      </g>
     </g>
     <g id="text_6">
      <!-- 25 -->
      <g transform="translate(1405.202609 142.758438) scale(0.1 -0.1)">
       <use xlink:href="#DejaVuSans-32"/>
       <use xlink:href="#DejaVuSans-35" x="63.623047"/>
      </g>
     </g>
    </g>
   </g>
   <g id="matplotlib.axis_2">
    <g id="ytick_1">
     <g id="line2d_8">
      <defs>
       <path id="m0a31c4e9ca" d="M 0 0 
L -3.5 0 
" style="stroke: #000000; stroke-width: 0.8"/>
      </defs>
      <g>
       <use xlink:href="#m0a31c4e9ca" x="225" y="128.16" style="stroke: #000000; stroke-width: 0.8"/>
      </g>
     </g>
     <g id="text_7">
      <!-- 0 -->
      <g transform="translate(211.6375 131.959219) scale(0.1 -0.1)">
       <use xlink:href="#DejaVuSans-30"/>
      </g>
     </g>
    </g>
    <g id="ytick_2">
     <g id="line2d_9">
      <g>
       <use xlink:href="#m0a31c4e9ca" x="225" y="100.44" style="stroke: #000000; stroke-width: 0.8"/>
      </g>
     </g>
     <g id="text_8">
      <!-- 1 -->
      <g transform="translate(211.6375 104.239219) scale(0.1 -0.1)">
       <use xlink:href="#DejaVuSans-31"/>
      </g>
     </g>
    </g>
    <g id="ytick_3">
     <g id="line2d_10">
      <g>
       <use xlink:href="#m0a31c4e9ca" x="225" y="72.72" style="stroke: #000000; stroke-width: 0.8"/>
      </g>
     </g>
     <g id="text_9">
      <!-- 2 -->
      <g transform="translate(211.6375 76.519219) scale(0.1 -0.1)">
       <use xlink:href="#DejaVuSans-32"/>
      </g>
     </g>
    </g>
    <g id="ytick_4">
     <g id="line2d_11">
      <g>
       <use xlink:href="#m0a31c4e9ca" x="225" y="45" style="stroke: #000000; stroke-width: 0.8"/>
      </g>
     </g>
     <g id="text_10">
      <!-- 3 -->
      <g transform="translate(211.6375 48.799219) scale(0.1 -0.1)">
       <defs>
        <path id="DejaVuSans-33" d="M 2597 2516 
Q 3050 2419 3304 2112 
Q 3559 1806 3559 1356 
Q 3559 666 3084 287 
Q 2609 -91 1734 -91 
Q 1441 -91 1130 -33 
Q 819 25 488 141 
L 488 750 
Q 750 597 1062 519 
Q 1375 441 1716 441 
Q 2309 441 2620 675 
Q 2931 909 2931 1356 
Q 2931 1769 2642 2001 
Q 2353 2234 1838 2234 
L 1294 2234 
L 1294 2753 
L 1863 2753 
Q 2328 2753 2575 2939 
Q 2822 3125 2822 3475 
Q 2822 3834 2567 4026 
Q 2313 4219 1838 4219 
Q 1578 4219 1281 4162 
Q 984 4106 628 3988 
L 628 4550 
Q 988 4650 1302 4700 
Q 1616 4750 1894 4750 
Q 2613 4750 3031 4423 
Q 3450 4097 3450 3541 
Q 3450 3153 3228 2886 
Q 3006 2619 2597 2516 
z
" transform="scale(0.015625)"/>
       </defs>
       <use xlink:href="#DejaVuSans-33"/>
      </g>
     </g>
    </g>
    <g id="ytick_5">
     <g id="line2d_12">
      <g>
       <use xlink:href="#m0a31c4e9ca" x="225" y="17.28" style="stroke: #000000; stroke-width: 0.8"/>
      </g>
     </g>
     <g id="text_11">
      <!-- 4 -->
      <g transform="translate(211.6375 21.079219) scale(0.1 -0.1)">
       <defs>
        <path id="DejaVuSans-34" d="M 2419 4116 
L 825 1625 
L 2419 1625 
L 2419 4116 
z
M 2253 4666 
L 3047 4666 
L 3047 1625 
L 3713 1625 
L 3713 1100 
L 3047 1100 
L 3047 0 
L 2419 0 
L 2419 1100 
L 313 1100 
L 313 1709 
L 2253 4666 
z
" transform="scale(0.015625)"/>
       </defs>
       <use xlink:href="#DejaVuSans-34"/>
      </g>
     </g>
    </g>
   </g>
  </g>
 </g>
 <defs>
  <clipPath id="pc5d7ebe1eb">
   <rect x="225" y="17.28" width="1395" height="110.88"/>
  </clipPath>
 </defs>
</svg>
