<?xml version="1.0" encoding="utf-8" standalone="no"?>
<!DOCTYPE svg PUBLIC "-//W3C//DTD SVG 1.1//EN"
  "http://www.w3.org/Graphics/SVG/1.1/DTD/svg11.dtd">
<svg xmlns:xlink="http://www.w3.org/1999/xlink" width="1800pt" height="144pt" viewBox="0 0 1800 144" xmlns="http://www.w3.org/2000/svg" version="1.1">
 <metadata>
  <rdf:RDF xmlns:dc="http://purl.org/dc/elements/1.1/" xmlns:cc="http://creativecommons.org/ns#" xmlns:rdf="http://www.w3.org/1999/02/22-rdf-syntax-ns#">
   <cc:Work>
    <dc:type rdf:resource="http://purl.org/dc/dcmitype/StillImage"/>
    <dc:date>2025-05-09T21:11:09.969057</dc:date>
    <dc:format>image/svg+xml</dc:format>
    <dc:creator>
     <cc:Agent>
      <dc:title>Matplotlib v3.8.0, https://matplotlib.org/</dc:title>
     </cc:Agent>
    </dc:creator>
   </cc:Work>
  </rdf:RDF>
 </metadata>
 <defs>
  <style type="text/css">*{stroke-linejoin: round; stroke-linecap: butt}</style>
 </defs>
 <g id="figure_1">
  <g id="patch_1">
   <path d="M 0 144 
L 1800 144 
L 1800 0 
L 0 0 
z
" style="fill: #ffffff"/>
  </g>
  <g id="axes_1">
   <g id="patch_2">
    <path d="M 225 128.16 
L 1620 128.16 
L 1620 17.28 
L 225 17.28 
z
" style="fill: #ffffff"/>
   </g>
   <g id="line2d_1">
    <path d="M 225 128.16 
L 1620 128.16 
" clip-path="url(#pc663ea11f7)" style="fill: none; stroke: #000000; stroke-width: 1.5; stroke-linecap: square"/>
   </g>
   <g id="patch_3">
    <path d="M 225 17.28 
L 230.753289 17.28 
L 234.74414 76.617197 
L 238.761296 17.28 
L 244.503311 17.28 
L 244.503311 128.16 
L 240.230621 128.16 
L 240.230621 47.055534 
L 236.190917 106.844235 
L 233.323668 106.844235 
L 229.283964 47.055534 
L 229.283964 128.16 
L 225 128.16 
L 225 17.28 
z
" clip-path="url(#pc663ea11f7)" style="fill: #21599c"/>
   </g>
   <g id="patch_4">
    <path d="M 245.529801 17.28 
L 251.794558 17.28 
L 259.710635 93.322863 
L 259.710635 17.28 
L 265.033113 17.28 
L 265.033113 128.16 
L 258.763691 128.16 
L 250.847614 52.117137 
L 250.847614 128.16 
L 245.529801 128.16 
L 245.529801 17.28 
z
" clip-path="url(#pc663ea11f7)" style="fill: #40ba47"/>
   </g>
   <g id="patch_5">
    <path d="M 266.059603 17.28 
L 285.562914 17.28 
L 285.562914 38.904689 
L 278.546258 38.904689 
L 278.546258 128.16 
L 273.089866 128.16 
L 273.089866 38.904689 
L 266.059603 38.904689 
L 266.059603 17.28 
z
" clip-path="url(#pc663ea11f7)" style="fill: #40ba47"/>
   </g>
   <g id="patch_6">
    <path d="M 300.099365 62.620557 
L 292.598705 62.620557 
L 291.41439 72.72 
L 286.589404 72.72 
L 293.479963 17.28 
L 299.202157 17.28 
L 306.092715 72.72 
L 301.271717 72.72 
L 300.099365 62.620557 
z
M 293.794982 52.331007 
L 298.891125 52.331007 
L 296.347041 30.278577 
L 293.794982 52.331007 
z
" clip-path="url(#pc663ea11f7)" style="fill: #21599c; opacity: 0.5"/>
   </g>
   <g id="patch_7">
    <path d="M 286.589404 72.72 
L 306.092715 72.72 
L 306.092715 83.532345 
L 299.076059 83.532345 
L 299.076059 128.16 
L 293.619667 128.16 
L 293.619667 83.532345 
L 286.589404 83.532345 
L 286.589404 72.72 
z
" clip-path="url(#pc663ea11f7)" style="fill: #40ba47; opacity: 0.5"/>
   </g>
   <g id="patch_8">
    <path d="M 307.119205 17.28 
L 326.216565 17.28 
L 326.216565 38.904689 
L 314.196878 38.904689 
L 314.196878 59.531316 
L 325.50468 59.531316 
L 325.50468 81.156005 
L 314.196878 81.156005 
L 314.196878 106.559074 
L 326.622517 106.559074 
L 326.622517 128.16 
L 307.119205 128.16 
L 307.119205 17.28 
z
" clip-path="url(#pc663ea11f7)" style="fill: #6b296b"/>
   </g>
   <g id="patch_9">
    <path d="M 337.920751 111.578719 
L 337.538811 111.578719 
Q 332.853953 111.578719 330.249448 99.152512 
Q 327.649007 86.706798 327.649007 64.526897 
Q 327.649007 42.38601 330.245385 29.842759 
Q 332.841763 17.28 337.400662 17.28 
Q 342.00832 17.28 344.580319 29.725714 
Q 347.152318 42.151921 347.152318 64.526897 
Q 347.152318 79.879212 345.787086 90.978916 
Q 344.421854 102.078621 341.857982 107.677241 
L 345.67738 128.16 
L 341.016901 128.16 
L 337.920751 111.578719 
z
M 337.400662 34.290443 
Q 335.165908 34.290443 333.934761 42.210443 
Q 332.703615 50.130443 332.703615 64.526897 
Q 332.703615 79.157438 333.906319 86.940887 
Q 335.113086 94.704828 337.400662 94.704828 
Q 339.647606 94.704828 340.878753 86.784828 
Q 342.109899 78.84532 342.109899 64.526897 
Q 342.109899 50.130443 340.878753 42.210443 
Q 339.647606 34.290443 337.400662 34.290443 
z
" clip-path="url(#pc663ea11f7)" style="fill: #40ba47"/>
   </g>
   <g id="patch_10">
    <path d="M 348.178808 17.28 
L 355.25648 17.28 
L 355.25648 106.559074 
L 367.682119 106.559074 
L 367.682119 128.16 
L 348.178808 128.16 
L 348.178808 17.28 
z
" clip-path="url(#pc663ea11f7)" style="fill: #21599c"/>
   </g>
   <g id="patch_11">
    <path d="M 374.921429 17.28 
L 381.999101 17.28 
L 381.999101 128.16 
L 374.921429 128.16 
L 374.921429 17.28 
z
" clip-path="url(#pc663ea11f7)" style="fill: #21599c"/>
   </g>
   <g id="patch_12">
    <path d="M 402.748371 107.961114 
L 395.247711 107.961114 
L 394.063397 128.16 
L 389.238411 128.16 
L 396.128969 17.28 
L 401.851163 17.28 
L 408.741722 128.16 
L 403.920723 128.16 
L 402.748371 107.961114 
z
M 396.443989 87.382015 
L 401.540131 87.382015 
L 398.996048 43.277154 
L 396.443989 87.382015 
z
" clip-path="url(#pc663ea11f7)" style="fill: #21599c"/>
   </g>
   <g id="patch_13">
    <path d="M 429.271523 118.127891 
Q 427.304582 123.143945 425.189028 125.663425 
Q 423.073474 128.16 420.818049 128.16 
Q 415.721486 128.16 412.744849 113.226358 
Q 409.768212 98.292716 409.768212 72.754357 
Q 409.768212 46.91824 412.797301 32.09912 
Q 415.830761 17.28 421.106533 17.28 
Q 423.139039 17.28 425.001076 19.295584 
Q 426.867484 21.288263 428.519715 25.227812 
L 428.519715 47.330518 
Q 426.815033 42.268655 425.127834 39.77208 
Q 423.440636 37.252601 421.744696 37.252601 
Q 418.606333 37.252601 416.906022 46.460153 
Q 415.205711 55.644801 415.205711 72.754357 
Q 415.205711 89.703582 416.844828 98.956943 
Q 418.483945 108.187399 421.499921 108.187399 
Q 422.321666 108.187399 423.025393 107.660599 
Q 423.729121 107.110894 424.288606 105.965677 
L 424.288606 85.214328 
L 421.075936 85.214328 
L 421.075936 66.73051 
L 429.271523 66.73051 
L 429.271523 118.127891 
z
" clip-path="url(#pc663ea11f7)" style="fill: #787800"/>
   </g>
   <g id="patch_14">
    <path d="M 430.298013 17.28 
L 435.690105 17.28 
L 440.045572 56.798526 
L 444.396941 17.28 
L 449.801325 17.28 
L 442.516264 81.441166 
L 442.516264 128.16 
L 437.587171 128.16 
L 437.587171 81.441166 
L 430.298013 17.28 
z
" clip-path="url(#pc663ea11f7)" style="fill: #177875"/>
   </g>
   <g id="patch_15">
    <path d="M 450.827815 17.28 
L 470.331126 17.28 
L 470.331126 38.904689 
L 463.314469 38.904689 
L 463.314469 128.16 
L 457.858078 128.16 
L 457.858078 38.904689 
L 450.827815 38.904689 
L 450.827815 17.28 
z
" clip-path="url(#pc663ea11f7)" style="fill: #40ba47"/>
   </g>
   <g id="patch_16">
    <path d="M 484.867577 107.961114 
L 477.366917 107.961114 
L 476.182602 128.16 
L 471.357616 128.16 
L 478.248174 17.28 
L 483.970369 17.28 
L 490.860927 128.16 
L 486.039929 128.16 
L 484.867577 107.961114 
z
M 478.563194 87.382015 
L 483.659336 87.382015 
L 481.115253 43.277154 
L 478.563194 87.382015 
z
" clip-path="url(#pc663ea11f7)" style="fill: #21599c"/>
   </g>
   <g id="patch_17">
    <path d="M 491.887417 17.28 
L 497.279509 17.28 
L 501.634976 56.798526 
L 505.986345 17.28 
L 511.390728 17.28 
L 504.105668 81.441166 
L 504.105668 128.16 
L 499.176575 128.16 
L 499.176575 81.441166 
L 491.887417 17.28 
z
" clip-path="url(#pc663ea11f7)" style="fill: #177875"/>
   </g>
   <g id="patch_18">
    <path d="M 512.417219 17.28 
L 531.92053 17.28 
L 531.92053 38.904689 
L 524.903873 38.904689 
L 524.903873 128.16 
L 519.447482 128.16 
L 519.447482 38.904689 
L 512.417219 38.904689 
L 512.417219 17.28 
z
" clip-path="url(#pc663ea11f7)" style="fill: #40ba47"/>
   </g>
   <g id="patch_19">
    <path d="M 532.94702 17.28 
L 539.211776 17.28 
L 547.127854 93.322863 
L 547.127854 17.28 
L 552.450331 17.28 
L 552.450331 128.16 
L 546.18091 128.16 
L 538.264833 52.117137 
L 538.264833 128.16 
L 532.94702 128.16 
L 532.94702 17.28 
z
" clip-path="url(#pc663ea11f7)" style="fill: #40ba47"/>
   </g>
   <g id="patch_20">
    <path d="M 566.986782 107.961114 
L 559.486122 107.961114 
L 558.301807 128.16 
L 553.476821 128.16 
L 560.36738 17.28 
L 566.089574 17.28 
L 572.980132 128.16 
L 568.159134 128.16 
L 566.986782 107.961114 
z
M 560.682399 87.382015 
L 565.778542 87.382015 
L 563.234458 43.277154 
L 560.682399 87.382015 
z
" clip-path="url(#pc663ea11f7)" style="fill: #21599c"/>
   </g>
   <g id="patch_21">
    <path d="M 574.006623 17.28 
L 593.103982 17.28 
L 593.103982 38.904689 
L 581.084295 38.904689 
L 581.084295 59.531316 
L 592.392097 59.531316 
L 592.392097 81.156005 
L 581.084295 81.156005 
L 581.084295 106.559074 
L 593.509934 106.559074 
L 593.509934 128.16 
L 574.006623 128.16 
L 574.006623 17.28 
z
" clip-path="url(#pc663ea11f7)" style="fill: #6b296b"/>
   </g>
   <g id="patch_22">
    <path d="M 594.536424 17.28 
L 613.633784 17.28 
L 613.633784 38.904689 
L 601.614096 38.904689 
L 601.614096 59.531316 
L 612.921898 59.531316 
L 612.921898 81.156005 
L 601.614096 81.156005 
L 601.614096 106.559074 
L 614.039735 106.559074 
L 614.039735 128.16 
L 594.536424 128.16 
L 594.536424 17.28 
z
" clip-path="url(#pc663ea11f7)" style="fill: #6b296b"/>
   </g>
   <g id="patch_23">
    <path d="M 615.269201 17.28 
L 634.366561 17.28 
L 634.366561 38.904689 
L 622.346873 38.904689 
L 622.346873 59.531316 
L 633.654675 59.531316 
L 633.654675 81.156005 
L 622.346873 81.156005 
L 622.346873 128.16 
L 615.269201 128.16 
L 615.269201 17.28 
z
" clip-path="url(#pc663ea11f7)" style="fill: #21599c"/>
   </g>
   <g id="patch_24">
    <path d="M 655.099338 118.127891 
Q 653.132397 123.143945 651.016843 125.663425 
Q 648.901289 128.16 646.645863 128.16 
Q 641.549301 128.16 638.572664 113.226358 
Q 635.596026 98.292716 635.596026 72.754357 
Q 635.596026 46.91824 638.625115 32.09912 
Q 641.658575 17.28 646.934348 17.28 
Q 648.966853 17.28 650.828891 19.295584 
Q 652.695299 21.288263 654.347529 25.227812 
L 654.347529 47.330518 
Q 652.642847 42.268655 650.955649 39.77208 
Q 649.268451 37.252601 647.572511 37.252601 
Q 644.434147 37.252601 642.733836 46.460153 
Q 641.033525 55.644801 641.033525 72.754357 
Q 641.033525 89.703582 642.672643 98.956943 
Q 644.31176 108.187399 647.327736 108.187399 
Q 648.14948 108.187399 648.853208 107.660599 
Q 649.556936 107.110894 650.116421 105.965677 
L 650.116421 85.214328 
L 646.903751 85.214328 
L 646.903751 66.73051 
L 655.099338 66.73051 
L 655.099338 118.127891 
z
" clip-path="url(#pc663ea11f7)" style="fill: #787800"/>
   </g>
   <g id="patch_25">
    <path d="M 669.635789 107.961114 
L 662.135129 107.961114 
L 660.950814 128.16 
L 656.125828 128.16 
L 663.016386 17.28 
L 668.738581 17.28 
L 675.629139 128.16 
L 670.808141 128.16 
L 669.635789 107.961114 
z
M 663.331406 87.382015 
L 668.427548 87.382015 
L 665.883465 43.277154 
L 663.331406 87.382015 
z
" clip-path="url(#pc663ea11f7)" style="fill: #21599c"/>
   </g>
   <g id="patch_26">
    <path d="M 696.15894 123.143945 
Q 694.192 125.651973 692.076445 126.911712 
Q 689.960891 128.16 687.705466 128.16 
Q 682.608903 128.16 679.632266 120.693179 
Q 676.655629 113.226358 676.655629 100.457178 
Q 676.655629 87.53912 679.684718 80.12956 
Q 682.718178 72.72 687.99395 72.72 
Q 690.026456 72.72 691.888493 73.727792 
Q 693.754902 74.724131 695.407132 76.693906 
L 695.407132 87.745259 
Q 693.70245 85.214328 692.015252 83.96604 
Q 690.328054 82.7063 688.632113 82.7063 
Q 685.49375 82.7063 683.793439 87.310076 
Q 682.093128 91.9024 682.093128 100.457178 
Q 682.093128 108.931791 683.732245 113.558471 
Q 685.371363 118.1737 688.387339 118.1737 
Q 689.209083 118.1737 689.91281 117.9103 
Q 690.616538 117.635447 691.176024 117.062838 
L 691.176024 106.687164 
L 687.963354 106.687164 
L 687.963354 97.445255 
L 696.15894 97.445255 
L 696.15894 123.143945 
z
" clip-path="url(#pc663ea11f7)" style="fill: #787800; opacity: 0.5"/>
   </g>
   <g id="patch_27">
    <path d="M 694.532782 19.925453 
L 694.532782 31.240207 
Q 692.498759 29.270432 690.560081 28.274092 
Q 688.6267 27.2663 686.905197 27.2663 
Q 684.622218 27.2663 683.525753 28.62911 
Q 682.434584 29.980467 682.434584 32.843512 
Q 682.434584 34.996521 683.170858 36.199 
Q 683.907132 37.390027 685.84581 38.24894 
L 688.55784 39.428515 
Q 692.678855 41.226507 694.416249 44.879752 
Q 696.15894 48.521545 696.15894 55.255427 
Q 696.15894 64.085057 693.732945 68.402528 
Q 691.306949 72.72 686.322534 72.72 
Q 683.975992 72.72 681.608262 71.746565 
Q 679.240533 70.784582 676.872803 68.88352 
L 676.872803 57.259558 
Q 679.240533 59.973724 681.449354 61.359438 
Q 683.658176 62.7337 685.713386 62.7337 
Q 687.800378 62.7337 688.907438 61.233464 
Q 690.014497 59.721776 690.014497 56.927445 
Q 690.014497 54.43087 689.262332 53.06806 
Q 688.510168 51.705251 686.258971 50.628746 
L 683.790599 49.449172 
Q 680.082745 47.731345 678.366539 43.97503 
Q 676.655629 40.218715 676.655629 33.851303 
Q 676.655629 25.869134 679.039249 21.574567 
Q 681.42287 17.28 685.893482 17.28 
Q 687.932802 17.28 690.083357 17.944226 
Q 692.233912 18.608453 694.532782 19.925453 
z
" clip-path="url(#pc663ea11f7)" style="fill: #40ba47; opacity: 0.5"/>
   </g>
   <g id="patch_28">
    <path d="M 710.695391 107.961114 
L 703.194731 107.961114 
L 702.010416 128.16 
L 697.18543 128.16 
L 704.075989 17.28 
L 709.798183 17.28 
L 716.688742 128.16 
L 711.867743 128.16 
L 710.695391 107.961114 
z
M 704.391009 87.382015 
L 709.487151 87.382015 
L 706.943067 43.277154 
L 704.391009 87.382015 
z
" clip-path="url(#pc663ea11f7)" style="fill: #21599c"/>
   </g>
   <g id="patch_29">
    <path d="M 717.715232 72.72 
L 736.812592 72.72 
L 736.812592 83.532345 
L 724.792904 83.532345 
L 724.792904 93.845658 
L 736.100706 93.845658 
L 736.100706 104.658003 
L 724.792904 104.658003 
L 724.792904 117.359537 
L 737.218543 117.359537 
L 737.218543 128.16 
L 717.715232 128.16 
L 717.715232 72.72 
z
" clip-path="url(#pc663ea11f7)" style="fill: #6b296b; opacity: 0.5"/>
   </g>
   <g id="patch_30">
    <path d="M 717.715232 17.28 
L 737.218543 17.28 
L 737.218543 28.092345 
L 730.201887 28.092345 
L 730.201887 72.72 
L 724.745495 72.72 
L 724.745495 28.092345 
L 717.715232 28.092345 
L 717.715232 17.28 
z
" clip-path="url(#pc663ea11f7)" style="fill: #40ba47; opacity: 0.5"/>
   </g>
   <g id="patch_31">
    <path d="M 751.754994 62.620557 
L 744.254334 62.620557 
L 743.070019 72.72 
L 738.245033 72.72 
L 745.135592 17.28 
L 750.857786 17.28 
L 757.748344 72.72 
L 752.927346 72.72 
L 751.754994 62.620557 
z
M 745.450611 52.331007 
L 750.546754 52.331007 
L 748.00267 30.278577 
L 745.450611 52.331007 
z
" clip-path="url(#pc663ea11f7)" style="fill: #21599c; opacity: 0.5"/>
   </g>
   <g id="patch_32">
    <path d="M 756.122186 75.365453 
L 756.122186 86.680207 
Q 754.088163 84.710432 752.149485 83.714092 
Q 750.216104 82.7063 748.494601 82.7063 
Q 746.211622 82.7063 745.115157 84.06911 
Q 744.023988 85.420467 744.023988 88.283512 
Q 744.023988 90.436521 744.760262 91.639 
Q 745.496536 92.830027 747.435214 93.68894 
L 750.147244 94.868515 
Q 754.268259 96.666507 756.005653 100.319752 
Q 757.748344 103.961545 757.748344 110.695427 
Q 757.748344 119.525057 755.322349 123.842528 
Q 752.896353 128.16 747.911938 128.16 
Q 745.565396 128.16 743.197666 127.186565 
Q 740.829937 126.224582 738.462207 124.32352 
L 738.462207 112.699558 
Q 740.829937 115.413724 743.038758 116.799438 
Q 745.24758 118.1737 747.30279 118.1737 
Q 749.389782 118.1737 750.496842 116.673464 
Q 751.603901 115.161776 751.603901 112.367445 
Q 751.603901 109.87087 750.851736 108.50806 
Q 750.099572 107.145251 747.848375 106.068746 
L 745.380003 104.889172 
Q 741.672149 103.171345 739.955943 99.41503 
Q 738.245033 95.658715 738.245033 89.291303 
Q 738.245033 81.309134 740.628653 77.014567 
Q 743.012274 72.72 747.482886 72.72 
Q 749.522206 72.72 751.672761 73.384226 
Q 753.823316 74.048453 756.122186 75.365453 
z
" clip-path="url(#pc663ea11f7)" style="fill: #40ba47; opacity: 0.5"/>
   </g>
   <g id="patch_33">
    <path d="M 764.119364 28.092345 
L 764.119364 61.919537 
L 766.034153 61.919537 
Q 769.3084 61.919537 771.036597 57.570836 
Q 772.769238 53.222135 772.769238 44.940592 
Q 772.769238 36.706575 771.045483 32.405401 
Q 769.32617 28.092345 766.034153 28.092345 
L 764.119364 28.092345 
z
M 758.774834 17.28 
L 764.408137 17.28 
Q 769.130693 17.28 771.44088 19.086018 
Q 773.751067 20.880154 775.40374 25.19321 
Q 776.860935 28.947827 777.567319 33.854968 
Q 778.278146 38.750227 778.278146 44.940592 
Q 778.278146 51.226009 777.567319 56.145032 
Q 776.860935 61.064055 775.40374 64.80679 
Q 773.737739 69.119846 771.405339 70.925864 
Q 769.072938 72.72 764.408137 72.72 
L 758.774834 72.72 
L 758.774834 17.28 
z
" clip-path="url(#pc663ea11f7)" style="fill: #6b296b; opacity: 0.5"/>
   </g>
   <g id="patch_34">
    <path d="M 758.774834 72.72 
L 777.872194 72.72 
L 777.872194 83.532345 
L 765.852507 83.532345 
L 765.852507 93.845658 
L 777.160309 93.845658 
L 777.160309 104.658003 
L 765.852507 104.658003 
L 765.852507 117.359537 
L 778.278146 117.359537 
L 778.278146 128.16 
L 758.774834 128.16 
L 758.774834 72.72 
z
" clip-path="url(#pc663ea11f7)" style="fill: #6b296b; opacity: 0.5"/>
   </g>
   <g id="patch_35">
    <path d="M 792.814597 62.620557 
L 785.313937 62.620557 
L 784.129622 72.72 
L 779.304636 72.72 
L 786.195194 17.28 
L 791.917388 17.28 
L 798.807947 72.72 
L 793.986949 72.72 
L 792.814597 62.620557 
z
M 786.510214 52.331007 
L 791.606356 52.331007 
L 789.062273 30.278577 
L 786.510214 52.331007 
z
" clip-path="url(#pc663ea11f7)" style="fill: #21599c; opacity: 0.5"/>
   </g>
   <g id="patch_36">
    <path d="M 779.304636 72.72 
L 785.569392 72.72 
L 793.48547 110.741432 
L 793.48547 72.72 
L 798.807947 72.72 
L 798.807947 128.16 
L 792.538526 128.16 
L 784.622448 90.138568 
L 784.622448 128.16 
L 779.304636 128.16 
L 779.304636 72.72 
z
" clip-path="url(#pc663ea11f7)" style="fill: #40ba47; opacity: 0.5"/>
   </g>
   <g id="patch_37">
    <path d="M 799.834437 17.28 
L 809.972096 17.28 
Q 814.497473 17.28 816.915071 26.690304 
Q 819.337748 36.076845 819.337748 53.447887 
Q 819.337748 70.913982 816.915071 80.300523 
Q 814.497473 89.687064 809.972096 89.687064 
L 805.944459 89.687064 
L 805.944459 128.16 
L 799.834437 128.16 
L 799.834437 17.28 
z
M 805.944459 38.00168 
L 805.944459 68.965384 
L 809.321985 68.965384 
Q 811.099631 68.965384 812.069718 64.925607 
Q 813.039804 60.885829 813.039804 53.447887 
Q 813.039804 46.033708 812.069718 42.017694 
Q 811.099631 38.00168 809.321985 38.00168 
L 805.944459 38.00168 
z
" clip-path="url(#pc663ea11f7)" style="fill: #787800"/>
   </g>
   <g id="patch_38">
    <path d="M 833.874199 107.961114 
L 826.373539 107.961114 
L 825.189224 128.16 
L 820.364238 128.16 
L 827.254797 17.28 
L 832.976991 17.28 
L 839.86755 128.16 
L 835.046551 128.16 
L 833.874199 107.961114 
z
M 827.569817 87.382015 
L 832.665959 87.382015 
L 830.121875 43.277154 
L 827.569817 87.382015 
z
" clip-path="url(#pc663ea11f7)" style="fill: #21599c"/>
   </g>
   <g id="patch_39">
    <path d="M 858.771192 75.365453 
L 858.771192 86.680207 
Q 856.73717 84.710432 854.798492 83.714092 
Q 852.865111 82.7063 851.143607 82.7063 
Q 848.860629 82.7063 847.764163 84.06911 
Q 846.672995 85.420467 846.672995 88.283512 
Q 846.672995 90.436521 847.409269 91.639 
Q 848.145542 92.830027 850.08422 93.68894 
L 852.796251 94.868515 
Q 856.917265 96.666507 858.65466 100.319752 
Q 860.397351 103.961545 860.397351 110.695427 
Q 860.397351 119.525057 857.971355 123.842528 
Q 855.545359 128.16 850.560944 128.16 
Q 848.214403 128.16 845.846673 127.186565 
Q 843.478944 126.224582 841.111214 124.32352 
L 841.111214 112.699558 
Q 843.478944 115.413724 845.687765 116.799438 
Q 847.896587 118.1737 849.951797 118.1737 
Q 852.038789 118.1737 853.145848 116.673464 
Q 854.252907 115.161776 854.252907 112.367445 
Q 854.252907 109.87087 853.500743 108.50806 
Q 852.748578 107.145251 850.497381 106.068746 
L 848.02901 104.889172 
Q 844.321156 103.171345 842.604949 99.41503 
Q 840.89404 95.658715 840.89404 89.291303 
Q 840.89404 81.309134 843.27766 77.014567 
Q 845.66128 72.72 850.131893 72.72 
Q 852.171212 72.72 854.321768 73.384226 
Q 856.472323 74.048453 858.771192 75.365453 
z
" clip-path="url(#pc663ea11f7)" style="fill: #40ba47"/>
   </g>
   <g id="patch_40">
    <path d="M 867.636661 17.28 
L 874.714333 17.28 
L 874.714333 128.16 
L 867.636661 128.16 
L 867.636661 17.28 
z
" clip-path="url(#pc663ea11f7)" style="fill: #21599c"/>
   </g>
   <g id="patch_41">
    <path d="M 881.953642 17.28 
L 901.456954 17.28 
L 901.456954 38.904689 
L 894.440297 38.904689 
L 894.440297 128.16 
L 888.983906 128.16 
L 888.983906 38.904689 
L 881.953642 38.904689 
L 881.953642 17.28 
z
" clip-path="url(#pc663ea11f7)" style="fill: #40ba47"/>
   </g>
   <g id="patch_42">
    <path d="M 902.483444 72.72 
L 912.621102 72.72 
Q 917.14648 72.72 919.564078 77.425152 
Q 921.986755 82.118423 921.986755 90.803943 
Q 921.986755 99.536991 919.564078 104.230261 
Q 917.14648 108.923532 912.621102 108.923532 
L 908.593465 108.923532 
L 908.593465 128.16 
L 902.483444 128.16 
L 902.483444 72.72 
z
M 908.593465 83.08084 
L 908.593465 98.562692 
L 911.970992 98.562692 
Q 913.748638 98.562692 914.718724 96.542803 
Q 915.688811 94.522915 915.688811 90.803943 
Q 915.688811 87.096854 914.718724 85.088847 
Q 913.748638 83.08084 911.970992 83.08084 
L 908.593465 83.08084 
z
" clip-path="url(#pc663ea11f7)" style="fill: #787800; opacity: 0.5"/>
   </g>
   <g id="patch_43">
    <path d="M 902.483444 17.28 
L 907.30843 17.28 
L 912.241081 58.200566 
L 917.165757 17.28 
L 921.986755 17.28 
L 915.096196 72.72 
L 909.374002 72.72 
L 902.483444 17.28 
z
" clip-path="url(#pc663ea11f7)" style="fill: #21599c; opacity: 0.5"/>
   </g>
   <g id="patch_44">
    <path d="M 923.013245 17.28 
L 942.516556 17.28 
L 942.516556 38.904689 
L 935.4999 38.904689 
L 935.4999 128.16 
L 930.043508 128.16 
L 930.043508 38.904689 
L 923.013245 38.904689 
L 923.013245 17.28 
z
" clip-path="url(#pc663ea11f7)" style="fill: #40ba47"/>
   </g>
   <g id="patch_45">
    <path d="M 943.543046 72.72 
L 963.046358 72.72 
L 963.046358 83.532345 
L 956.029701 83.532345 
L 956.029701 128.16 
L 950.57331 128.16 
L 950.57331 83.532345 
L 943.543046 83.532345 
L 943.543046 72.72 
z
" clip-path="url(#pc663ea11f7)" style="fill: #40ba47; opacity: 0.5"/>
   </g>
   <g id="patch_46">
    <path d="M 943.543046 17.28 
L 948.368032 17.28 
L 953.300683 58.200566 
L 958.225359 17.28 
L 963.046358 17.28 
L 956.155799 72.72 
L 950.433605 72.72 
L 943.543046 17.28 
z
" clip-path="url(#pc663ea11f7)" style="fill: #21599c; opacity: 0.5"/>
   </g>
   <g id="patch_47">
    <path d="M 964.072848 17.28 
L 971.15052 17.28 
L 971.15052 61.919537 
L 983.576159 61.919537 
L 983.576159 72.72 
L 964.072848 72.72 
L 964.072848 17.28 
z
" clip-path="url(#pc663ea11f7)" style="fill: #21599c; opacity: 0.5"/>
   </g>
   <g id="patch_48">
    <path d="M 964.072848 72.72 
L 968.897834 72.72 
L 973.830485 113.640566 
L 978.755161 72.72 
L 983.576159 72.72 
L 976.6856 128.16 
L 970.963406 128.16 
L 964.072848 72.72 
z
" clip-path="url(#pc663ea11f7)" style="fill: #21599c; opacity: 0.5"/>
   </g>
   <g id="patch_49">
    <path d="M 1002.479802 75.365453 
L 1002.479802 86.680207 
Q 1000.445779 84.710432 998.507101 83.714092 
Q 996.57372 82.7063 994.852216 82.7063 
Q 992.569238 82.7063 991.472772 84.06911 
Q 990.381604 85.420467 990.381604 88.283512 
Q 990.381604 90.436521 991.117878 91.639 
Q 991.854152 92.830027 993.79283 93.68894 
L 996.50486 94.868515 
Q 1000.625875 96.666507 1002.363269 100.319752 
Q 1004.10596 103.961545 1004.10596 110.695427 
Q 1004.10596 119.525057 1001.679964 123.842528 
Q 999.253969 128.16 994.269554 128.16 
Q 991.923012 128.16 989.555282 127.186565 
Q 987.187553 126.224582 984.819823 124.32352 
L 984.819823 112.699558 
Q 987.187553 115.413724 989.396374 116.799438 
Q 991.605196 118.1737 993.660406 118.1737 
Q 995.747398 118.1737 996.854458 116.673464 
Q 997.961517 115.161776 997.961517 112.367445 
Q 997.961517 109.87087 997.209352 108.50806 
Q 996.457187 107.145251 994.20599 106.068746 
L 991.737619 104.889172 
Q 988.029765 103.171345 986.313559 99.41503 
Q 984.602649 95.658715 984.602649 89.291303 
Q 984.602649 81.309134 986.986269 77.014567 
Q 989.36989 72.72 993.840502 72.72 
Q 995.879822 72.72 998.030377 73.384226 
Q 1000.180932 74.048453 1002.479802 75.365453 
z
" clip-path="url(#pc663ea11f7)" style="fill: #40ba47"/>
   </g>
   <g id="patch_50">
    <path d="M 1005.335426 72.72 
L 1024.432786 72.72 
L 1024.432786 83.532345 
L 1012.413098 83.532345 
L 1012.413098 93.845658 
L 1023.7209 93.845658 
L 1023.7209 104.658003 
L 1012.413098 104.658003 
L 1012.413098 128.16 
L 1005.335426 128.16 
L 1005.335426 72.72 
z
" clip-path="url(#pc663ea11f7)" style="fill: #21599c"/>
   </g>
   <g id="patch_51">
    <path d="M 1031.875071 72.72 
L 1038.952743 72.72 
L 1038.952743 128.16 
L 1031.875071 128.16 
L 1031.875071 72.72 
z
" clip-path="url(#pc663ea11f7)" style="fill: #21599c"/>
   </g>
   <g id="patch_52">
    <path d="M 1065.695364 123.143945 
Q 1063.728423 125.651973 1061.612869 126.911712 
Q 1059.497315 128.16 1057.24189 128.16 
Q 1052.145327 128.16 1049.16869 120.693179 
Q 1046.192053 113.226358 1046.192053 100.457178 
Q 1046.192053 87.53912 1049.221142 80.12956 
Q 1052.254602 72.72 1057.530374 72.72 
Q 1059.56288 72.72 1061.424917 73.727792 
Q 1063.291325 74.724131 1064.943556 76.693906 
L 1064.943556 87.745259 
Q 1063.238874 85.214328 1061.551676 83.96604 
Q 1059.864477 82.7063 1058.168537 82.7063 
Q 1055.030174 82.7063 1053.329863 87.310076 
Q 1051.629552 91.9024 1051.629552 100.457178 
Q 1051.629552 108.931791 1053.268669 113.558471 
Q 1054.907786 118.1737 1057.923762 118.1737 
Q 1058.745507 118.1737 1059.449234 117.9103 
Q 1060.152962 117.635447 1060.712447 117.062838 
L 1060.712447 106.687164 
L 1057.499777 106.687164 
L 1057.499777 97.445255 
L 1065.695364 97.445255 
L 1065.695364 123.143945 
z
" clip-path="url(#pc663ea11f7)" style="fill: #787800"/>
   </g>
   <g id="patch_53">
    <path d="M 1086.225166 123.143945 
Q 1084.258225 125.651973 1082.142671 126.911712 
Q 1080.027116 128.16 1077.771691 128.16 
Q 1072.675129 128.16 1069.698491 120.693179 
Q 1066.721854 113.226358 1066.721854 100.457178 
Q 1066.721854 87.53912 1069.750943 80.12956 
Q 1072.784403 72.72 1078.060176 72.72 
Q 1080.092681 72.72 1081.954718 73.727792 
Q 1083.821127 74.724131 1085.473357 76.693906 
L 1085.473357 87.745259 
Q 1083.768675 85.214328 1082.081477 83.96604 
Q 1080.394279 82.7063 1078.698339 82.7063 
Q 1075.559975 82.7063 1073.859664 87.310076 
Q 1072.159353 91.9024 1072.159353 100.457178 
Q 1072.159353 108.931791 1073.79847 113.558471 
Q 1075.437588 118.1737 1078.453564 118.1737 
Q 1079.275308 118.1737 1079.979036 117.9103 
Q 1080.682763 117.635447 1081.242249 117.062838 
L 1081.242249 106.687164 
L 1078.029579 106.687164 
L 1078.029579 97.445255 
L 1086.225166 97.445255 
L 1086.225166 123.143945 
z
" clip-path="url(#pc663ea11f7)" style="fill: #787800"/>
   </g>
   <g id="patch_54">
    <path d="M 1105.128808 22.570907 
L 1105.128808 45.200413 
Q 1103.094785 41.260863 1101.156108 39.268184 
Q 1099.222727 37.252601 1097.501223 37.252601 
Q 1095.218244 37.252601 1094.121779 39.978219 
Q 1093.030611 42.680934 1093.030611 48.407023 
Q 1093.030611 52.713043 1093.766885 55.118 
Q 1094.503158 57.500054 1096.441836 59.217881 
L 1099.153866 61.57703 
Q 1103.274881 65.173014 1105.012276 72.479504 
Q 1106.754967 79.76309 1106.754967 93.230853 
Q 1106.754967 110.890114 1104.328971 119.525057 
Q 1101.902975 128.16 1096.91856 128.16 
Q 1094.572019 128.16 1092.204289 126.21313 
Q 1089.836559 124.289163 1087.46883 120.48704 
L 1087.46883 97.239116 
Q 1089.836559 102.667449 1092.045381 105.438876 
Q 1094.254202 108.187399 1096.309413 108.187399 
Q 1098.396405 108.187399 1099.503464 105.186928 
Q 1100.610523 102.163553 1100.610523 96.574889 
Q 1100.610523 91.581739 1099.858359 88.856121 
Q 1099.106194 86.130502 1096.854997 83.977492 
L 1094.386626 81.618343 
Q 1090.678772 78.18269 1088.962565 70.67006 
Q 1087.251656 63.15743 1087.251656 50.422607 
Q 1087.251656 34.458269 1089.635276 25.869134 
Q 1092.018896 17.28 1096.489509 17.28 
Q 1098.528828 17.28 1100.679384 18.608453 
Q 1102.829939 19.936906 1105.128808 22.570907 
z
" clip-path="url(#pc663ea11f7)" style="fill: #40ba47"/>
   </g>
   <g id="patch_55">
    <path d="M 1125.658609 22.570907 
L 1125.658609 45.200413 
Q 1123.624587 41.260863 1121.685909 39.268184 
Q 1119.752528 37.252601 1118.031024 37.252601 
Q 1115.748046 37.252601 1114.65158 39.978219 
Q 1113.560412 42.680934 1113.560412 48.407023 
Q 1113.560412 52.713043 1114.296686 55.118 
Q 1115.03296 57.500054 1116.971638 59.217881 
L 1119.683668 61.57703 
Q 1123.804683 65.173014 1125.542077 72.479504 
Q 1127.284768 79.76309 1127.284768 93.230853 
Q 1127.284768 110.890114 1124.858772 119.525057 
Q 1122.432777 128.16 1117.448362 128.16 
Q 1115.10182 128.16 1112.73409 126.21313 
Q 1110.366361 124.289163 1107.998631 120.48704 
L 1107.998631 97.239116 
Q 1110.366361 102.667449 1112.575182 105.438876 
Q 1114.784004 108.187399 1116.839214 108.187399 
Q 1118.926206 108.187399 1120.033265 105.186928 
Q 1121.140325 102.163553 1121.140325 96.574889 
Q 1121.140325 91.581739 1120.38816 88.856121 
Q 1119.635995 86.130502 1117.384798 83.977492 
L 1114.916427 81.618343 
Q 1111.208573 78.18269 1109.492367 70.67006 
Q 1107.781457 63.15743 1107.781457 50.422607 
Q 1107.781457 34.458269 1110.165077 25.869134 
Q 1112.548698 17.28 1117.01931 17.28 
Q 1119.05863 17.28 1121.209185 18.608453 
Q 1123.35974 19.936906 1125.658609 22.570907 
z
" clip-path="url(#pc663ea11f7)" style="fill: #40ba47"/>
   </g>
   <g id="patch_56">
    <path d="M 1141.821219 62.620557 
L 1134.320559 62.620557 
L 1133.136244 72.72 
L 1128.311258 72.72 
L 1135.201817 17.28 
L 1140.924011 17.28 
L 1147.81457 72.72 
L 1142.993571 72.72 
L 1141.821219 62.620557 
z
M 1135.516837 52.331007 
L 1140.612979 52.331007 
L 1138.068895 30.278577 
L 1135.516837 52.331007 
z
" clip-path="url(#pc663ea11f7)" style="fill: #21599c; opacity: 0.5"/>
   </g>
   <g id="patch_57">
    <path d="M 1147.81457 123.143945 
Q 1145.847629 125.651973 1143.732075 126.911712 
Q 1141.61652 128.16 1139.361095 128.16 
Q 1134.264533 128.16 1131.287895 120.693179 
Q 1128.311258 113.226358 1128.311258 100.457178 
Q 1128.311258 87.53912 1131.340347 80.12956 
Q 1134.373807 72.72 1139.64958 72.72 
Q 1141.682085 72.72 1143.544122 73.727792 
Q 1145.410531 74.724131 1147.062761 76.693906 
L 1147.062761 87.745259 
Q 1145.358079 85.214328 1143.670881 83.96604 
Q 1141.983683 82.7063 1140.287743 82.7063 
Q 1137.149379 82.7063 1135.449068 87.310076 
Q 1133.748757 91.9024 1133.748757 100.457178 
Q 1133.748757 108.931791 1135.387874 113.558471 
Q 1137.026992 118.1737 1140.042968 118.1737 
Q 1140.864712 118.1737 1141.56844 117.9103 
Q 1142.272167 117.635447 1142.831653 117.062838 
L 1142.831653 106.687164 
L 1139.618983 106.687164 
L 1139.618983 97.445255 
L 1147.81457 97.445255 
L 1147.81457 123.143945 
z
" clip-path="url(#pc663ea11f7)" style="fill: #787800; opacity: 0.5"/>
   </g>
   <g id="patch_58">
    <path d="M 1148.84106 17.28 
L 1167.93842 17.28 
L 1167.93842 28.092345 
L 1155.918732 28.092345 
L 1155.918732 38.405658 
L 1167.226534 38.405658 
L 1167.226534 49.218003 
L 1155.918732 49.218003 
L 1155.918732 61.919537 
L 1168.344371 61.919537 
L 1168.344371 72.72 
L 1148.84106 72.72 
L 1148.84106 17.28 
z
" clip-path="url(#pc663ea11f7)" style="fill: #6b296b; opacity: 0.5"/>
   </g>
   <g id="patch_59">
    <path d="M 1168.344371 123.143945 
Q 1166.37743 125.651973 1164.261876 126.911712 
Q 1162.146322 128.16 1159.890896 128.16 
Q 1154.794334 128.16 1151.817697 120.693179 
Q 1148.84106 113.226358 1148.84106 100.457178 
Q 1148.84106 87.53912 1151.870149 80.12956 
Q 1154.903608 72.72 1160.179381 72.72 
Q 1162.211886 72.72 1164.073924 73.727792 
Q 1165.940332 74.724131 1167.592562 76.693906 
L 1167.592562 87.745259 
Q 1165.88788 85.214328 1164.200682 83.96604 
Q 1162.513484 82.7063 1160.817544 82.7063 
Q 1157.67918 82.7063 1155.978869 87.310076 
Q 1154.278558 91.9024 1154.278558 100.457178 
Q 1154.278558 108.931791 1155.917676 113.558471 
Q 1157.556793 118.1737 1160.572769 118.1737 
Q 1161.394513 118.1737 1162.098241 117.9103 
Q 1162.801969 117.635447 1163.361454 117.062838 
L 1163.361454 106.687164 
L 1160.148784 106.687164 
L 1160.148784 97.445255 
L 1168.344371 97.445255 
L 1168.344371 123.143945 
z
" clip-path="url(#pc663ea11f7)" style="fill: #787800; opacity: 0.5"/>
   </g>
   <g id="patch_60">
    <path d="M 1188.874172 120.212188 
Q 1187.242754 124.151737 1185.47866 126.144416 
Q 1183.714566 128.16 1181.793227 128.16 
Q 1176.063607 128.16 1172.717234 113.226358 
Q 1169.370861 98.292716 1169.370861 72.754357 
Q 1169.370861 47.124379 1172.717234 32.213642 
Q 1176.063607 17.28 1181.793227 17.28 
Q 1183.714566 17.28 1185.47866 19.295584 
Q 1187.242754 21.288263 1188.874172 25.227812 
L 1188.874172 47.330518 
Q 1187.228012 42.108325 1185.630991 39.680463 
Q 1184.03397 37.252601 1182.269876 37.252601 
Q 1179.105318 37.252601 1177.292085 46.712101 
Q 1175.483766 56.148697 1175.483766 72.754357 
Q 1175.483766 89.291303 1177.292085 98.750804 
Q 1179.105318 108.187399 1182.269876 108.187399 
Q 1184.03397 108.187399 1185.630991 105.759537 
Q 1187.228012 103.308771 1188.874172 98.086577 
L 1188.874172 120.212188 
z
" clip-path="url(#pc663ea11f7)" style="fill: #6b296b"/>
   </g>
   <g id="patch_61">
    <path d="M 1189.900662 72.72 
L 1194.725648 72.72 
L 1199.658299 113.640566 
L 1204.582975 72.72 
L 1209.403974 72.72 
L 1202.513415 128.16 
L 1196.791221 128.16 
L 1189.900662 72.72 
z
" clip-path="url(#pc663ea11f7)" style="fill: #21599c"/>
   </g>
   <g id="patch_62">
    <path d="M 1229.933775 123.143945 
Q 1227.966834 125.651973 1225.85128 126.911712 
Q 1223.735726 128.16 1221.4803 128.16 
Q 1216.383738 128.16 1213.407101 120.693179 
Q 1210.430464 113.226358 1210.430464 100.457178 
Q 1210.430464 87.53912 1213.459552 80.12956 
Q 1216.493012 72.72 1221.768785 72.72 
Q 1223.80129 72.72 1225.663328 73.727792 
Q 1227.529736 74.724131 1229.181966 76.693906 
L 1229.181966 87.745259 
Q 1227.477284 85.214328 1225.790086 83.96604 
Q 1224.102888 82.7063 1222.406948 82.7063 
Q 1219.268584 82.7063 1217.568273 87.310076 
Q 1215.867962 91.9024 1215.867962 100.457178 
Q 1215.867962 108.931791 1217.50708 113.558471 
Q 1219.146197 118.1737 1222.162173 118.1737 
Q 1222.983917 118.1737 1223.687645 117.9103 
Q 1224.391373 117.635447 1224.950858 117.062838 
L 1224.950858 106.687164 
L 1221.738188 106.687164 
L 1221.738188 97.445255 
L 1229.933775 97.445255 
L 1229.933775 123.143945 
z
" clip-path="url(#pc663ea11f7)" style="fill: #787800; opacity: 0.5"/>
   </g>
   <g id="patch_63">
    <path d="M 1210.430464 17.28 
L 1215.822556 17.28 
L 1220.178022 37.039263 
L 1224.529391 17.28 
L 1229.933775 17.28 
L 1222.648714 49.360583 
L 1222.648714 72.72 
L 1217.719621 72.72 
L 1217.719621 49.360583 
L 1210.430464 17.28 
z
" clip-path="url(#pc663ea11f7)" style="fill: #177875; opacity: 0.5"/>
   </g>
   <g id="patch_64">
    <path d="M 1231.163241 17.28 
L 1250.260601 17.28 
L 1250.260601 28.092345 
L 1238.240913 28.092345 
L 1238.240913 38.405658 
L 1249.548715 38.405658 
L 1249.548715 49.218003 
L 1238.240913 49.218003 
L 1238.240913 72.72 
L 1231.163241 72.72 
L 1231.163241 17.28 
z
" clip-path="url(#pc663ea11f7)" style="fill: #21599c; opacity: 0.5"/>
   </g>
   <g id="patch_65">
    <path d="M 1250.463576 123.143945 
Q 1248.496635 125.651973 1246.381081 126.911712 
Q 1244.265527 128.16 1242.010101 128.16 
Q 1236.913539 128.16 1233.936902 120.693179 
Q 1230.960265 113.226358 1230.960265 100.457178 
Q 1230.960265 87.53912 1233.989354 80.12956 
Q 1237.022814 72.72 1242.298586 72.72 
Q 1244.331092 72.72 1246.193129 73.727792 
Q 1248.059537 74.724131 1249.711768 76.693906 
L 1249.711768 87.745259 
Q 1248.007086 85.214328 1246.319887 83.96604 
Q 1244.632689 82.7063 1242.936749 82.7063 
Q 1239.798386 82.7063 1238.098075 87.310076 
Q 1236.397764 91.9024 1236.397764 100.457178 
Q 1236.397764 108.931791 1238.036881 113.558471 
Q 1239.675998 118.1737 1242.691974 118.1737 
Q 1243.513718 118.1737 1244.217446 117.9103 
Q 1244.921174 117.635447 1245.480659 117.062838 
L 1245.480659 106.687164 
L 1242.267989 106.687164 
L 1242.267989 97.445255 
L 1250.463576 97.445255 
L 1250.463576 123.143945 
z
" clip-path="url(#pc663ea11f7)" style="fill: #787800; opacity: 0.5"/>
   </g>
   <g id="patch_66">
    <path d="M 1265.000027 62.620557 
L 1257.499367 62.620557 
L 1256.315052 72.72 
L 1251.490066 72.72 
L 1258.380625 17.28 
L 1264.102819 17.28 
L 1270.993377 72.72 
L 1266.172379 72.72 
L 1265.000027 62.620557 
z
M 1258.695645 52.331007 
L 1263.791787 52.331007 
L 1261.247703 30.278577 
L 1258.695645 52.331007 
z
" clip-path="url(#pc663ea11f7)" style="fill: #21599c; opacity: 0.5"/>
   </g>
   <g id="patch_67">
    <path d="M 1269.367219 75.365453 
L 1269.367219 86.680207 
Q 1267.333196 84.710432 1265.394518 83.714092 
Q 1263.461137 82.7063 1261.739634 82.7063 
Q 1259.456655 82.7063 1258.36019 84.06911 
Q 1257.269021 85.420467 1257.269021 88.283512 
Q 1257.269021 90.436521 1258.005295 91.639 
Q 1258.741569 92.830027 1260.680247 93.68894 
L 1263.392277 94.868515 
Q 1267.513292 96.666507 1269.250686 100.319752 
Q 1270.993377 103.961545 1270.993377 110.695427 
Q 1270.993377 119.525057 1268.567382 123.842528 
Q 1266.141386 128.16 1261.156971 128.16 
Q 1258.810429 128.16 1256.4427 127.186565 
Q 1254.07497 126.224582 1251.707241 124.32352 
L 1251.707241 112.699558 
Q 1254.07497 115.413724 1256.283792 116.799438 
Q 1258.492613 118.1737 1260.547823 118.1737 
Q 1262.634816 118.1737 1263.741875 116.673464 
Q 1264.848934 115.161776 1264.848934 112.367445 
Q 1264.848934 109.87087 1264.096769 108.50806 
Q 1263.344605 107.145251 1261.093408 106.068746 
L 1258.625036 104.889172 
Q 1254.917183 103.171345 1253.200976 99.41503 
Q 1251.490066 95.658715 1251.490066 89.291303 
Q 1251.490066 81.309134 1253.873687 77.014567 
Q 1256.257307 72.72 1260.727919 72.72 
Q 1262.767239 72.72 1264.917794 73.384226 
Q 1267.068349 74.048453 1269.367219 75.365453 
z
" clip-path="url(#pc663ea11f7)" style="fill: #40ba47; opacity: 0.5"/>
   </g>
   <g id="patch_68">
    <path d="M 1272.019868 17.28 
L 1279.09754 17.28 
L 1279.09754 61.919537 
L 1291.523179 61.919537 
L 1291.523179 72.72 
L 1272.019868 72.72 
L 1272.019868 17.28 
z
" clip-path="url(#pc663ea11f7)" style="fill: #21599c; opacity: 0.5"/>
   </g>
   <g id="patch_69">
    <path d="M 1272.019868 72.72 
L 1276.844854 72.72 
L 1281.777505 113.640566 
L 1286.70218 72.72 
L 1291.523179 72.72 
L 1284.63262 128.16 
L 1278.910426 128.16 
L 1272.019868 72.72 
z
" clip-path="url(#pc663ea11f7)" style="fill: #21599c; opacity: 0.5"/>
   </g>
   <g id="patch_70">
    <path d="M 1310.426821 22.570907 
L 1310.426821 45.200413 
Q 1308.392799 41.260863 1306.454121 39.268184 
Q 1304.52074 37.252601 1302.799236 37.252601 
Q 1300.516258 37.252601 1299.419792 39.978219 
Q 1298.328624 42.680934 1298.328624 48.407023 
Q 1298.328624 52.713043 1299.064898 55.118 
Q 1299.801172 57.500054 1301.739849 59.217881 
L 1304.45188 61.57703 
Q 1308.572894 65.173014 1310.310289 72.479504 
Q 1312.05298 79.76309 1312.05298 93.230853 
Q 1312.05298 110.890114 1309.626984 119.525057 
Q 1307.200989 128.16 1302.216574 128.16 
Q 1299.870032 128.16 1297.502302 126.21313 
Q 1295.134573 124.289163 1292.766843 120.48704 
L 1292.766843 97.239116 
Q 1295.134573 102.667449 1297.343394 105.438876 
Q 1299.552216 108.187399 1301.607426 108.187399 
Q 1303.694418 108.187399 1304.801477 105.186928 
Q 1305.908537 102.163553 1305.908537 96.574889 
Q 1305.908537 91.581739 1305.156372 88.856121 
Q 1304.404207 86.130502 1302.15301 83.977492 
L 1299.684639 81.618343 
Q 1295.976785 78.18269 1294.260579 70.67006 
Q 1292.549669 63.15743 1292.549669 50.422607 
Q 1292.549669 34.458269 1294.933289 25.869134 
Q 1297.31691 17.28 1301.787522 17.28 
Q 1303.826842 17.28 1305.977397 18.608453 
Q 1308.127952 19.936906 1310.426821 22.570907 
z
" clip-path="url(#pc663ea11f7)" style="fill: #40ba47"/>
   </g>
   <g id="patch_71">
    <path d="M 1326.589431 107.961114 
L 1319.088771 107.961114 
L 1317.904456 128.16 
L 1313.07947 128.16 
L 1319.970029 17.28 
L 1325.692223 17.28 
L 1332.582781 128.16 
L 1327.761783 128.16 
L 1326.589431 107.961114 
z
M 1320.285048 87.382015 
L 1325.381191 87.382015 
L 1322.837107 43.277154 
L 1320.285048 87.382015 
z
" clip-path="url(#pc663ea11f7)" style="fill: #21599c"/>
   </g>
   <g id="patch_72">
    <path d="M 1339.822091 72.72 
L 1346.899763 72.72 
L 1346.899763 128.16 
L 1339.822091 128.16 
L 1339.822091 72.72 
z
" clip-path="url(#pc663ea11f7)" style="fill: #21599c; opacity: 0.5"/>
   </g>
   <g id="patch_73">
    <path d="M 1333.609272 17.28 
L 1338.434258 17.28 
L 1343.366909 58.200566 
L 1348.291584 17.28 
L 1353.112583 17.28 
L 1346.222024 72.72 
L 1340.49983 72.72 
L 1333.609272 17.28 
z
" clip-path="url(#pc663ea11f7)" style="fill: #21599c; opacity: 0.5"/>
   </g>
   <g id="patch_74">
    <path d="M 1372.016225 22.570907 
L 1372.016225 45.200413 
Q 1369.982203 41.260863 1368.043525 39.268184 
Q 1366.110144 37.252601 1364.38864 37.252601 
Q 1362.105662 37.252601 1361.009196 39.978219 
Q 1359.918028 42.680934 1359.918028 48.407023 
Q 1359.918028 52.713043 1360.654302 55.118 
Q 1361.390576 57.500054 1363.329253 59.217881 
L 1366.041284 61.57703 
Q 1370.162298 65.173014 1371.899693 72.479504 
Q 1373.642384 79.76309 1373.642384 93.230853 
Q 1373.642384 110.890114 1371.216388 119.525057 
Q 1368.790392 128.16 1363.805978 128.16 
Q 1361.459436 128.16 1359.091706 126.21313 
Q 1356.723977 124.289163 1354.356247 120.48704 
L 1354.356247 97.239116 
Q 1356.723977 102.667449 1358.932798 105.438876 
Q 1361.14162 108.187399 1363.19683 108.187399 
Q 1365.283822 108.187399 1366.390881 105.186928 
Q 1367.497941 102.163553 1367.497941 96.574889 
Q 1367.497941 91.581739 1366.745776 88.856121 
Q 1365.993611 86.130502 1363.742414 83.977492 
L 1361.274043 81.618343 
Q 1357.566189 78.18269 1355.849983 70.67006 
Q 1354.139073 63.15743 1354.139073 50.422607 
Q 1354.139073 34.458269 1356.522693 25.869134 
Q 1358.906314 17.28 1363.376926 17.28 
Q 1365.416245 17.28 1367.566801 18.608453 
Q 1369.717356 19.936906 1372.016225 22.570907 
z
" clip-path="url(#pc663ea11f7)" style="fill: #40ba47"/>
   </g>
   <g id="patch_75">
    <path d="M 1394.172185 118.127891 
Q 1392.205245 123.143945 1390.08969 125.663425 
Q 1387.974136 128.16 1385.718711 128.16 
Q 1380.622148 128.16 1377.645511 113.226358 
Q 1374.668874 98.292716 1374.668874 72.754357 
Q 1374.668874 46.91824 1377.697963 32.09912 
Q 1380.731423 17.28 1386.007195 17.28 
Q 1388.039701 17.28 1389.901738 19.295584 
Q 1391.768147 21.288263 1393.420377 25.227812 
L 1393.420377 47.330518 
Q 1391.715695 42.268655 1390.028497 39.77208 
Q 1388.341299 37.252601 1386.645358 37.252601 
Q 1383.506995 37.252601 1381.806684 46.460153 
Q 1380.106373 55.644801 1380.106373 72.754357 
Q 1380.106373 89.703582 1381.74549 98.956943 
Q 1383.384608 108.187399 1386.400584 108.187399 
Q 1387.222328 108.187399 1387.926055 107.660599 
Q 1388.629783 107.110894 1389.189269 105.965677 
L 1389.189269 85.214328 
L 1385.976599 85.214328 
L 1385.976599 66.73051 
L 1394.172185 66.73051 
L 1394.172185 118.127891 
z
" clip-path="url(#pc663ea11f7)" style="fill: #787800"/>
   </g>
   <g id="patch_76">
    <path d="M 1408.708636 62.620557 
L 1401.207976 62.620557 
L 1400.023662 72.72 
L 1395.198675 72.72 
L 1402.089234 17.28 
L 1407.811428 17.28 
L 1414.701987 72.72 
L 1409.880988 72.72 
L 1408.708636 62.620557 
z
M 1402.404254 52.331007 
L 1407.500396 52.331007 
L 1404.956313 30.278577 
L 1402.404254 52.331007 
z
" clip-path="url(#pc663ea11f7)" style="fill: #21599c; opacity: 0.5"/>
   </g>
   <g id="patch_77">
    <path d="M 1413.075828 75.365453 
L 1413.075828 86.680207 
Q 1411.041805 84.710432 1409.103127 83.714092 
Q 1407.169747 82.7063 1405.448243 82.7063 
Q 1403.165264 82.7063 1402.068799 84.06911 
Q 1400.977631 85.420467 1400.977631 88.283512 
Q 1400.977631 90.436521 1401.713904 91.639 
Q 1402.450178 92.830027 1404.388856 93.68894 
L 1407.100886 94.868515 
Q 1411.221901 96.666507 1412.959295 100.319752 
Q 1414.701987 103.961545 1414.701987 110.695427 
Q 1414.701987 119.525057 1412.275991 123.842528 
Q 1409.849995 128.16 1404.86558 128.16 
Q 1402.519038 128.16 1400.151309 127.186565 
Q 1397.783579 126.224582 1395.41585 124.32352 
L 1395.41585 112.699558 
Q 1397.783579 115.413724 1399.992401 116.799438 
Q 1402.201222 118.1737 1404.256433 118.1737 
Q 1406.343425 118.1737 1407.450484 116.673464 
Q 1408.557543 115.161776 1408.557543 112.367445 
Q 1408.557543 109.87087 1407.805379 108.50806 
Q 1407.053214 107.145251 1404.802017 106.068746 
L 1402.333646 104.889172 
Q 1398.625792 103.171345 1396.909585 99.41503 
Q 1395.198675 95.658715 1395.198675 89.291303 
Q 1395.198675 81.309134 1397.582296 77.014567 
Q 1399.965916 72.72 1404.436529 72.72 
Q 1406.475848 72.72 1408.626403 73.384226 
Q 1410.776959 74.048453 1413.075828 75.365453 
z
" clip-path="url(#pc663ea11f7)" style="fill: #40ba47; opacity: 0.5"/>
   </g>
   <g id="patch_78">
    <path d="M 1435.231788 123.143945 
Q 1433.264847 125.651973 1431.149293 126.911712 
Q 1429.033739 128.16 1426.778313 128.16 
Q 1421.681751 128.16 1418.705114 120.693179 
Q 1415.728477 113.226358 1415.728477 100.457178 
Q 1415.728477 87.53912 1418.757566 80.12956 
Q 1421.791026 72.72 1427.066798 72.72 
Q 1429.099304 72.72 1430.961341 73.727792 
Q 1432.827749 74.724131 1434.47998 76.693906 
L 1434.47998 87.745259 
Q 1432.775298 85.214328 1431.088099 83.96604 
Q 1429.400901 82.7063 1427.704961 82.7063 
Q 1424.566598 82.7063 1422.866287 87.310076 
Q 1421.165976 91.9024 1421.165976 100.457178 
Q 1421.165976 108.931791 1422.805093 113.558471 
Q 1424.44421 118.1737 1427.460186 118.1737 
Q 1428.28193 118.1737 1428.985658 117.9103 
Q 1429.689386 117.635447 1430.248871 117.062838 
L 1430.248871 106.687164 
L 1427.036201 106.687164 
L 1427.036201 97.445255 
L 1435.231788 97.445255 
L 1435.231788 123.143945 
z
" clip-path="url(#pc663ea11f7)" style="fill: #787800"/>
   </g>
   <g id="patch_79">
    <path d="M 1442.471098 72.72 
L 1449.54877 72.72 
L 1449.54877 128.16 
L 1442.471098 128.16 
L 1442.471098 72.72 
z
" clip-path="url(#pc663ea11f7)" style="fill: #21599c; opacity: 0.5"/>
   </g>
   <g id="patch_80">
    <path d="M 1436.258278 17.28 
L 1441.083264 17.28 
L 1446.015915 58.200566 
L 1450.940591 17.28 
L 1455.761589 17.28 
L 1448.871031 72.72 
L 1443.148837 72.72 
L 1436.258278 17.28 
z
" clip-path="url(#pc663ea11f7)" style="fill: #21599c; opacity: 0.5"/>
   </g>
   <g id="patch_81">
    <path d="M 1470.29804 62.620557 
L 1462.79738 62.620557 
L 1461.613065 72.72 
L 1456.788079 72.72 
L 1463.678638 17.28 
L 1469.400832 17.28 
L 1476.291391 72.72 
L 1471.470392 72.72 
L 1470.29804 62.620557 
z
M 1463.993658 52.331007 
L 1469.0898 52.331007 
L 1466.545716 30.278577 
L 1463.993658 52.331007 
z
" clip-path="url(#pc663ea11f7)" style="fill: #21599c; opacity: 0.5"/>
   </g>
   <g id="patch_82">
    <path d="M 1456.788079 72.72 
L 1476.291391 72.72 
L 1476.291391 83.532345 
L 1469.274734 83.532345 
L 1469.274734 128.16 
L 1463.818343 128.16 
L 1463.818343 83.532345 
L 1456.788079 83.532345 
L 1456.788079 72.72 
z
" clip-path="url(#pc663ea11f7)" style="fill: #40ba47; opacity: 0.5"/>
   </g>
   <g id="patch_83">
    <path d="M 1490.827842 62.620557 
L 1483.327182 62.620557 
L 1482.142867 72.72 
L 1477.317881 72.72 
L 1484.208439 17.28 
L 1489.930634 17.28 
L 1496.821192 72.72 
L 1492.000194 72.72 
L 1490.827842 62.620557 
z
M 1484.523459 52.331007 
L 1489.619601 52.331007 
L 1487.075518 30.278577 
L 1484.523459 52.331007 
z
" clip-path="url(#pc663ea11f7)" style="fill: #21599c; opacity: 0.5"/>
   </g>
   <g id="patch_84">
    <path d="M 1477.317881 72.72 
L 1496.821192 72.72 
L 1496.821192 83.532345 
L 1489.804536 83.532345 
L 1489.804536 128.16 
L 1484.348144 128.16 
L 1484.348144 83.532345 
L 1477.317881 83.532345 
L 1477.317881 72.72 
z
" clip-path="url(#pc663ea11f7)" style="fill: #40ba47; opacity: 0.5"/>
   </g>
   <g id="patch_85">
    <path d="M 1497.847682 17.28 
L 1517.350993 17.28 
L 1517.350993 38.904689 
L 1510.334337 38.904689 
L 1510.334337 128.16 
L 1504.877945 128.16 
L 1504.877945 38.904689 
L 1497.847682 38.904689 
L 1497.847682 17.28 
z
" clip-path="url(#pc663ea11f7)" style="fill: #40ba47"/>
   </g>
   <g id="patch_86">
    <path d="M 1518.377483 17.28 
L 1523.517129 17.28 
L 1523.517129 37.514531 
L 1530.925397 17.28 
L 1536.89388 17.28 
L 1527.293893 43.538551 
L 1537.880795 72.72 
L 1531.446625 72.72 
L 1523.517129 50.88144 
L 1523.517129 72.72 
L 1518.377483 72.72 
L 1518.377483 17.28 
z
" clip-path="url(#pc663ea11f7)" style="fill: #bd2e1f; opacity: 0.5"/>
   </g>
   <g id="patch_87">
    <path d="M 1518.377483 72.72 
L 1524.130772 72.72 
L 1528.121623 102.388598 
L 1532.138779 72.72 
L 1537.880795 72.72 
L 1537.880795 128.16 
L 1533.608104 128.16 
L 1533.608104 87.607767 
L 1529.568401 117.502117 
L 1526.701151 117.502117 
L 1522.661448 87.607767 
L 1522.661448 128.16 
L 1518.377483 128.16 
L 1518.377483 72.72 
z
" clip-path="url(#pc663ea11f7)" style="fill: #21599c; opacity: 0.5"/>
   </g>
   <g id="patch_88">
    <path d="M 1552.417246 62.620557 
L 1544.916586 62.620557 
L 1543.732271 72.72 
L 1538.907285 72.72 
L 1545.797843 17.28 
L 1551.520037 17.28 
L 1558.410596 72.72 
L 1553.589598 72.72 
L 1552.417246 62.620557 
z
M 1546.112863 52.331007 
L 1551.209005 52.331007 
L 1548.664922 30.278577 
L 1546.112863 52.331007 
z
" clip-path="url(#pc663ea11f7)" style="fill: #21599c; opacity: 0.5"/>
   </g>
   <g id="patch_89">
    <path d="M 1538.907285 72.72 
L 1545.172041 72.72 
L 1553.088119 110.741432 
L 1553.088119 72.72 
L 1558.410596 72.72 
L 1558.410596 128.16 
L 1552.141175 128.16 
L 1544.225097 90.138568 
L 1544.225097 128.16 
L 1538.907285 128.16 
L 1538.907285 72.72 
z
" clip-path="url(#pc663ea11f7)" style="fill: #40ba47; opacity: 0.5"/>
   </g>
   <g id="patch_90">
    <path d="M 1559.437086 17.28 
L 1562.809509 17.28 
L 1565.166988 97.861672 
L 1567.506917 17.28 
L 1570.89689 17.28 
L 1573.23682 97.861672 
L 1575.597223 17.28 
L 1578.940397 17.28 
L 1575.722994 128.16 
L 1571.666142 128.16 
L 1569.188742 43.871239 
L 1566.740591 128.16 
L 1562.680813 128.16 
L 1559.437086 17.28 
z
" clip-path="url(#pc663ea11f7)" style="fill: #21599c"/>
   </g>
   <g id="patch_91">
    <path d="M 1599.470199 118.127891 
Q 1597.503258 123.143945 1595.387704 125.663425 
Q 1593.27215 128.16 1591.016724 128.16 
Q 1585.920162 128.16 1582.943525 113.226358 
Q 1579.966887 98.292716 1579.966887 72.754357 
Q 1579.966887 46.91824 1582.995976 32.09912 
Q 1586.029436 17.28 1591.305209 17.28 
Q 1593.337714 17.28 1595.199752 19.295584 
Q 1597.06616 21.288263 1598.71839 25.227812 
L 1598.71839 47.330518 
Q 1597.013708 42.268655 1595.32651 39.77208 
Q 1593.639312 37.252601 1591.943372 37.252601 
Q 1588.805008 37.252601 1587.104697 46.460153 
Q 1585.404386 55.644801 1585.404386 72.754357 
Q 1585.404386 89.703582 1587.043503 98.956943 
Q 1588.682621 108.187399 1591.698597 108.187399 
Q 1592.520341 108.187399 1593.224069 107.660599 
Q 1593.927796 107.110894 1594.487282 105.965677 
L 1594.487282 85.214328 
L 1591.274612 85.214328 
L 1591.274612 66.73051 
L 1599.470199 66.73051 
L 1599.470199 118.127891 
z
" clip-path="url(#pc663ea11f7)" style="fill: #787800"/>
   </g>
   <g id="patch_92">
    <path d="M 1620 120.212188 
Q 1618.368582 124.151737 1616.604488 126.144416 
Q 1614.840394 128.16 1612.919055 128.16 
Q 1607.189435 128.16 1603.843062 113.226358 
Q 1600.496689 98.292716 1600.496689 72.754357 
Q 1600.496689 47.124379 1603.843062 32.213642 
Q 1607.189435 17.28 1612.919055 17.28 
Q 1614.840394 17.28 1616.604488 19.295584 
Q 1618.368582 21.288263 1620 25.227812 
L 1620 47.330518 
Q 1618.35384 42.108325 1616.756819 39.680463 
Q 1615.159798 37.252601 1613.395704 37.252601 
Q 1610.231146 37.252601 1608.417913 46.712101 
Q 1606.609594 56.148697 1606.609594 72.754357 
Q 1606.609594 89.291303 1608.417913 98.750804 
Q 1610.231146 108.187399 1613.395704 108.187399 
Q 1615.159798 108.187399 1616.756819 105.759537 
Q 1618.35384 103.308771 1620 98.086577 
L 1620 120.212188 
z
" clip-path="url(#pc663ea11f7)" style="fill: #6b296b"/>
   </g>
   <g id="matplotlib.axis_1">
    <g id="xtick_1">
     <g id="line2d_2">
      <defs>
       <path id="m971d88fd8f" d="M 0 0 
L 0 3.5 
" style="stroke: #000000; stroke-width: 0.8"/>
      </defs>
      <g>
       <use xlink:href="#m971d88fd8f" x="234.751656" y="128.16" style="stroke: #000000; stroke-width: 0.8"/>
      </g>
     </g>
     <g id="text_1">
      <!-- 0 -->
      <g transform="translate(231.570406 142.758438) scale(0.1 -0.1)">
       <defs>
        <path id="DejaVuSans-30" d="M 2034 4250 
Q 1547 4250 1301 3770 
Q 1056 3291 1056 2328 
Q 1056 1369 1301 889 
Q 1547 409 2034 409 
Q 2525 409 2770 889 
Q 3016 1369 3016 2328 
Q 3016 3291 2770 3770 
Q 2525 4250 2034 4250 
z
M 2034 4750 
Q 2819 4750 3233 4129 
Q 3647 3509 3647 2328 
Q 3647 1150 3233 529 
Q 2819 -91 2034 -91 
Q 1250 -91 836 529 
Q 422 1150 422 2328 
Q 422 3509 836 4129 
Q 1250 4750 2034 4750 
z
" transform="scale(0.015625)"/>
       </defs>
       <use xlink:href="#DejaVuSans-30"/>
      </g>
     </g>
    </g>
    <g id="xtick_2">
     <g id="line2d_3">
      <g>
       <use xlink:href="#m971d88fd8f" x="440.049669" y="128.16" style="stroke: #000000; stroke-width: 0.8"/>
      </g>
     </g>
     <g id="text_2">
      <!-- 10 -->
      <g transform="translate(433.687169 142.758438) scale(0.1 -0.1)">
       <defs>
        <path id="DejaVuSans-31" d="M 794 531 
L 1825 531 
L 1825 4091 
L 703 3866 
L 703 4441 
L 1819 4666 
L 2450 4666 
L 2450 531 
L 3481 531 
L 3481 0 
L 794 0 
L 794 531 
z
" transform="scale(0.015625)"/>
       </defs>
       <use xlink:href="#DejaVuSans-31"/>
       <use xlink:href="#DejaVuSans-30" x="63.623047"/>
      </g>
     </g>
    </g>
    <g id="xtick_3">
     <g id="line2d_4">
      <g>
       <use xlink:href="#m971d88fd8f" x="645.347682" y="128.16" style="stroke: #000000; stroke-width: 0.8"/>
      </g>
     </g>
     <g id="text_3">
      <!-- 20 -->
      <g transform="translate(638.985182 142.758438) scale(0.1 -0.1)">
       <defs>
        <path id="DejaVuSans-32" d="M 1228 531 
L 3431 531 
L 3431 0 
L 469 0 
L 469 531 
Q 828 903 1448 1529 
Q 2069 2156 2228 2338 
Q 2531 2678 2651 2914 
Q 2772 3150 2772 3378 
Q 2772 3750 2511 3984 
Q 2250 4219 1831 4219 
Q 1534 4219 1204 4116 
Q 875 4013 500 3803 
L 500 4441 
Q 881 4594 1212 4672 
Q 1544 4750 1819 4750 
Q 2544 4750 2975 4387 
Q 3406 4025 3406 3419 
Q 3406 3131 3298 2873 
Q 3191 2616 2906 2266 
Q 2828 2175 2409 1742 
Q 1991 1309 1228 531 
z
" transform="scale(0.015625)"/>
       </defs>
       <use xlink:href="#DejaVuSans-32"/>
       <use xlink:href="#DejaVuSans-30" x="63.623047"/>
      </g>
     </g>
    </g>
    <g id="xtick_4">
     <g id="line2d_5">
      <g>
       <use xlink:href="#m971d88fd8f" x="850.645695" y="128.16" style="stroke: #000000; stroke-width: 0.8"/>
      </g>
     </g>
     <g id="text_4">
      <!-- 30 -->
      <g transform="translate(844.283195 142.758438) scale(0.1 -0.1)">
       <defs>
        <path id="DejaVuSans-33" d="M 2597 2516 
Q 3050 2419 3304 2112 
Q 3559 1806 3559 1356 
Q 3559 666 3084 287 
Q 2609 -91 1734 -91 
Q 1441 -91 1130 -33 
Q 819 25 488 141 
L 488 750 
Q 750 597 1062 519 
Q 1375 441 1716 441 
Q 2309 441 2620 675 
Q 2931 909 2931 1356 
Q 2931 1769 2642 2001 
Q 2353 2234 1838 2234 
L 1294 2234 
L 1294 2753 
L 1863 2753 
Q 2328 2753 2575 2939 
Q 2822 3125 2822 3475 
Q 2822 3834 2567 4026 
Q 2313 4219 1838 4219 
Q 1578 4219 1281 4162 
Q 984 4106 628 3988 
L 628 4550 
Q 988 4650 1302 4700 
Q 1616 4750 1894 4750 
Q 2613 4750 3031 4423 
Q 3450 4097 3450 3541 
Q 3450 3153 3228 2886 
Q 3006 2619 2597 2516 
z
" transform="scale(0.015625)"/>
       </defs>
       <use xlink:href="#DejaVuSans-33"/>
       <use xlink:href="#DejaVuSans-30" x="63.623047"/>
      </g>
     </g>
    </g>
    <g id="xtick_5">
     <g id="line2d_6">
      <g>
       <use xlink:href="#m971d88fd8f" x="1055.943709" y="128.16" style="stroke: #000000; stroke-width: 0.8"/>
      </g>
     </g>
     <g id="text_5">
      <!-- 40 -->
      <g transform="translate(1049.581209 142.758438) scale(0.1 -0.1)">
       <defs>
        <path id="DejaVuSans-34" d="M 2419 4116 
L 825 1625 
L 2419 1625 
L 2419 4116 
z
M 2253 4666 
L 3047 4666 
L 3047 1625 
L 3713 1625 
L 3713 1100 
L 3047 1100 
L 3047 0 
L 2419 0 
L 2419 1100 
L 313 1100 
L 313 1709 
L 2253 4666 
z
" transform="scale(0.015625)"/>
       </defs>
       <use xlink:href="#DejaVuSans-34"/>
       <use xlink:href="#DejaVuSans-30" x="63.623047"/>
      </g>
     </g>
    </g>
    <g id="xtick_6">
     <g id="line2d_7">
      <g>
       <use xlink:href="#m971d88fd8f" x="1261.241722" y="128.16" style="stroke: #000000; stroke-width: 0.8"/>
      </g>
     </g>
     <g id="text_6">
      <!-- 50 -->
      <g transform="translate(1254.879222 142.758438) scale(0.1 -0.1)">
       <defs>
        <path id="DejaVuSans-35" d="M 691 4666 
L 3169 4666 
L 3169 4134 
L 1269 4134 
L 1269 2991 
Q 1406 3038 1543 3061 
Q 1681 3084 1819 3084 
Q 2600 3084 3056 2656 
Q 3513 2228 3513 1497 
Q 3513 744 3044 326 
Q 2575 -91 1722 -91 
Q 1428 -91 1123 -41 
Q 819 9 494 109 
L 494 744 
Q 775 591 1075 516 
Q 1375 441 1709 441 
Q 2250 441 2565 725 
Q 2881 1009 2881 1497 
Q 2881 1984 2565 2268 
Q 2250 2553 1709 2553 
Q 1456 2553 1204 2497 
Q 953 2441 691 2322 
L 691 4666 
z
" transform="scale(0.015625)"/>
       </defs>
       <use xlink:href="#DejaVuSans-35"/>
       <use xlink:href="#DejaVuSans-30" x="63.623047"/>
      </g>
     </g>
    </g>
    <g id="xtick_7">
     <g id="line2d_8">
      <g>
       <use xlink:href="#m971d88fd8f" x="1466.539735" y="128.16" style="stroke: #000000; stroke-width: 0.8"/>
      </g>
     </g>
     <g id="text_7">
      <!-- 60 -->
      <g transform="translate(1460.177235 142.758438) scale(0.1 -0.1)">
       <defs>
        <path id="DejaVuSans-36" d="M 2113 2584 
Q 1688 2584 1439 2293 
Q 1191 2003 1191 1497 
Q 1191 994 1439 701 
Q 1688 409 2113 409 
Q 2538 409 2786 701 
Q 3034 994 3034 1497 
Q 3034 2003 2786 2293 
Q 2538 2584 2113 2584 
z
M 3366 4563 
L 3366 3988 
Q 3128 4100 2886 4159 
Q 2644 4219 2406 4219 
Q 1781 4219 1451 3797 
Q 1122 3375 1075 2522 
Q 1259 2794 1537 2939 
Q 1816 3084 2150 3084 
Q 2853 3084 3261 2657 
Q 3669 2231 3669 1497 
Q 3669 778 3244 343 
Q 2819 -91 2113 -91 
Q 1303 -91 875 529 
Q 447 1150 447 2328 
Q 447 3434 972 4092 
Q 1497 4750 2381 4750 
Q 2619 4750 2861 4703 
Q 3103 4656 3366 4563 
z
" transform="scale(0.015625)"/>
       </defs>
       <use xlink:href="#DejaVuSans-36"/>
       <use xlink:href="#DejaVuSans-30" x="63.623047"/>
      </g>
     </g>
    </g>
   </g>
   <g id="matplotlib.axis_2">
    <g id="ytick_1">
     <g id="line2d_9">
      <defs>
       <path id="me89940a757" d="M 0 0 
L -3.5 0 
" style="stroke: #000000; stroke-width: 0.8"/>
      </defs>
      <g>
       <use xlink:href="#me89940a757" x="225" y="128.16" style="stroke: #000000; stroke-width: 0.8"/>
      </g>
     </g>
     <g id="text_8">
      <!-- 0.0 -->
      <g transform="translate(202.096875 131.959219) scale(0.1 -0.1)">
       <defs>
        <path id="DejaVuSans-2e" d="M 684 794 
L 1344 794 
L 1344 0 
L 684 0 
L 684 794 
z
" transform="scale(0.015625)"/>
       </defs>
       <use xlink:href="#DejaVuSans-30"/>
       <use xlink:href="#DejaVuSans-2e" x="63.623047"/>
       <use xlink:href="#DejaVuSans-30" x="95.410156"/>
      </g>
     </g>
    </g>
    <g id="ytick_2">
     <g id="line2d_10">
      <g>
       <use xlink:href="#me89940a757" x="225" y="100.44" style="stroke: #000000; stroke-width: 0.8"/>
      </g>
     </g>
     <g id="text_9">
      <!-- 0.5 -->
      <g transform="translate(202.096875 104.239219) scale(0.1 -0.1)">
       <use xlink:href="#DejaVuSans-30"/>
       <use xlink:href="#DejaVuSans-2e" x="63.623047"/>
       <use xlink:href="#DejaVuSans-35" x="95.410156"/>
      </g>
     </g>
    </g>
    <g id="ytick_3">
     <g id="line2d_11">
      <g>
       <use xlink:href="#me89940a757" x="225" y="72.72" style="stroke: #000000; stroke-width: 0.8"/>
      </g>
     </g>
     <g id="text_10">
      <!-- 1.0 -->
      <g transform="translate(202.096875 76.519219) scale(0.1 -0.1)">
       <use xlink:href="#DejaVuSans-31"/>
       <use xlink:href="#DejaVuSans-2e" x="63.623047"/>
       <use xlink:href="#DejaVuSans-30" x="95.410156"/>
      </g>
     </g>
    </g>
    <g id="ytick_4">
     <g id="line2d_12">
      <g>
       <use xlink:href="#me89940a757" x="225" y="45" style="stroke: #000000; stroke-width: 0.8"/>
      </g>
     </g>
     <g id="text_11">
      <!-- 1.5 -->
      <g transform="translate(202.096875 48.799219) scale(0.1 -0.1)">
       <use xlink:href="#DejaVuSans-31"/>
       <use xlink:href="#DejaVuSans-2e" x="63.623047"/>
       <use xlink:href="#DejaVuSans-35" x="95.410156"/>
      </g>
     </g>
    </g>
    <g id="ytick_5">
     <g id="line2d_13">
      <g>
       <use xlink:href="#me89940a757" x="225" y="17.28" style="stroke: #000000; stroke-width: 0.8"/>
      </g>
     </g>
     <g id="text_12">
      <!-- 2.0 -->
      <g transform="translate(202.096875 21.079219) scale(0.1 -0.1)">
       <use xlink:href="#DejaVuSans-32"/>
       <use xlink:href="#DejaVuSans-2e" x="63.623047"/>
       <use xlink:href="#DejaVuSans-30" x="95.410156"/>
      </g>
     </g>
    </g>
   </g>
  </g>
 </g>
 <defs>
  <clipPath id="pc663ea11f7">
   <rect x="225" y="17.28" width="1395" height="110.88"/>
  </clipPath>
 </defs>
</svg>
