<?xml version="1.0" encoding="utf-8" standalone="no"?>
<!DOCTYPE svg PUBLIC "-//W3C//DTD SVG 1.1//EN"
  "http://www.w3.org/Graphics/SVG/1.1/DTD/svg11.dtd">
<svg xmlns:xlink="http://www.w3.org/1999/xlink" width="1800pt" height="144pt" viewBox="0 0 1800 144" xmlns="http://www.w3.org/2000/svg" version="1.1">
 <metadata>
  <rdf:RDF xmlns:dc="http://purl.org/dc/elements/1.1/" xmlns:cc="http://creativecommons.org/ns#" xmlns:rdf="http://www.w3.org/1999/02/22-rdf-syntax-ns#">
   <cc:Work>
    <dc:type rdf:resource="http://purl.org/dc/dcmitype/StillImage"/>
    <dc:date>2025-05-09T21:11:01.901006</dc:date>
    <dc:format>image/svg+xml</dc:format>
    <dc:creator>
     <cc:Agent>
      <dc:title>Matplotlib v3.8.0, https://matplotlib.org/</dc:title>
     </cc:Agent>
    </dc:creator>
   </cc:Work>
  </rdf:RDF>
 </metadata>
 <defs>
  <style type="text/css">*{stroke-linejoin: round; stroke-linecap: butt}</style>
 </defs>
 <g id="figure_1">
  <g id="patch_1">
   <path d="M 0 144 
L 1800 144 
L 1800 0 
L 0 0 
z
" style="fill: #ffffff"/>
  </g>
  <g id="axes_1">
   <g id="patch_2">
    <path d="M 225 128.16 
L 1620 128.16 
L 1620 17.28 
L 225 17.28 
z
" style="fill: #ffffff"/>
   </g>
   <g id="line2d_1">
    <path d="M 225 128.16 
L 1620 128.16 
" clip-path="url(#p97ea797ebe)" style="fill: none; stroke: #000000; stroke-width: 1.5; stroke-linecap: square"/>
   </g>
   <g id="patch_3">
    <path d="M 225 17.28 
L 228.523533 17.28 
L 230.967682 76.617197 
L 233.427941 17.28 
L 236.94457 17.28 
L 236.94457 128.16 
L 234.327811 128.16 
L 234.327811 47.055534 
L 231.853743 106.844235 
L 230.097731 106.844235 
L 227.623663 47.055534 
L 227.623663 128.16 
L 225 128.16 
L 225 17.28 
z
" clip-path="url(#p97ea797ebe)" style="fill: #21599c"/>
   </g>
   <g id="patch_4">
    <path d="M 248.521879 21.512725 
L 248.521879 39.616331 
Q 247.276166 36.464691 246.088846 34.870547 
Q 244.90477 33.258081 243.850456 33.258081 
Q 242.452273 33.258081 241.780756 35.438576 
Q 241.112483 37.600747 241.112483 42.181619 
Q 241.112483 45.626434 241.563405 47.5504 
Q 242.014327 49.456043 243.201647 50.830304 
L 244.862598 52.717624 
Q 247.386464 55.594411 248.45051 61.439603 
Q 249.517801 67.266472 249.517801 78.040683 
Q 249.517801 92.168091 248.032029 99.076045 
Q 246.546257 105.984 243.493611 105.984 
Q 242.0565 105.984 240.606412 104.426504 
Q 239.156325 102.887331 237.706237 99.845632 
L 237.706237 81.247293 
Q 239.156325 85.589959 240.509091 87.807101 
Q 241.861857 90.005919 243.120546 90.005919 
Q 244.3987 90.005919 245.076705 87.605543 
Q 245.75471 85.186842 245.75471 80.715912 
Q 245.75471 76.721391 245.294056 74.540897 
Q 244.833401 72.360402 243.454683 70.637994 
L 241.942958 68.750675 
Q 239.672128 66.002152 238.621057 59.992048 
Q 237.573231 53.981944 237.573231 43.794086 
Q 237.573231 31.022615 239.033051 24.151308 
Q 240.492871 17.28 243.230844 17.28 
Q 244.479801 17.28 245.796882 18.342762 
Q 247.113964 19.405524 248.521879 21.512725 
z
" clip-path="url(#p97ea797ebe)" style="fill: #40ba47; opacity: 0.8"/>
   </g>
   <g id="patch_5">
    <path d="M 237.573231 105.984 
L 249.517801 105.984 
L 249.517801 110.308938 
L 245.220534 110.308938 
L 245.220534 128.16 
L 241.878832 128.16 
L 241.878832 110.308938 
L 237.573231 110.308938 
L 237.573231 105.984 
z
" clip-path="url(#p97ea797ebe)" style="fill: #40ba47; opacity: 0.2"/>
   </g>
   <g id="patch_6">
    <path d="M 250.146462 17.28 
L 262.091032 17.28 
L 262.091032 38.904689 
L 257.793765 38.904689 
L 257.793765 128.16 
L 254.452063 128.16 
L 254.452063 38.904689 
L 250.146462 38.904689 
L 250.146462 17.28 
z
" clip-path="url(#p97ea797ebe)" style="fill: #40ba47"/>
   </g>
   <g id="patch_7">
    <path d="M 262.719694 17.28 
L 268.928381 17.28 
Q 271.699895 17.28 273.180524 26.690304 
Q 274.664263 36.076845 274.664263 53.447887 
Q 274.664263 70.913982 273.180524 80.300523 
Q 271.699895 89.687064 268.928381 89.687064 
L 266.461703 89.687064 
L 266.461703 128.16 
L 262.719694 128.16 
L 262.719694 17.28 
z
M 266.461703 38.00168 
L 266.461703 68.965384 
L 268.530229 68.965384 
Q 269.618927 68.965384 270.213045 64.925607 
Q 270.807163 60.885829 270.807163 53.447887 
Q 270.807163 46.033708 270.213045 42.017694 
Q 269.618927 38.00168 268.530229 38.00168 
L 266.461703 38.00168 
z
" clip-path="url(#p97ea797ebe)" style="fill: #787800"/>
   </g>
   <g id="patch_8">
    <path d="M 275.292925 17.28 
L 281.501612 17.28 
Q 284.273126 17.28 285.753755 26.690304 
Q 287.237494 36.076845 287.237494 53.447887 
Q 287.237494 70.913982 285.753755 80.300523 
Q 284.273126 89.687064 281.501612 89.687064 
L 279.034934 89.687064 
L 279.034934 128.16 
L 275.292925 128.16 
L 275.292925 17.28 
z
M 279.034934 38.00168 
L 279.034934 68.965384 
L 281.10346 68.965384 
Q 282.192158 68.965384 282.786276 64.925607 
Q 283.380394 60.885829 283.380394 53.447887 
Q 283.380394 46.033708 282.786276 42.017694 
Q 282.192158 38.00168 281.10346 38.00168 
L 279.034934 38.00168 
z
" clip-path="url(#p97ea797ebe)" style="fill: #787800"/>
   </g>
   <g id="patch_9">
    <path d="M 291.139349 38.904689 
L 291.139349 106.559074 
L 292.312039 106.559074 
Q 294.317312 106.559074 295.375726 97.861672 
Q 296.436861 89.164269 296.436861 72.601183 
Q 296.436861 56.13315 295.381168 47.530802 
Q 294.328195 38.904689 292.312039 38.904689 
L 291.139349 38.904689 
z
M 287.866156 17.28 
L 291.316205 17.28 
Q 294.208478 17.28 295.623324 20.892036 
Q 297.038171 24.480309 298.05033 33.106421 
Q 298.942772 40.615654 299.375388 50.429936 
Q 299.810726 60.220454 299.810726 72.601183 
Q 299.810726 85.172019 299.375388 95.010064 
Q 298.942772 104.84811 298.05033 112.333579 
Q 297.030008 120.959691 295.601557 124.571727 
Q 294.173106 128.16 291.316205 128.16 
L 287.866156 128.16 
L 287.866156 17.28 
z
" clip-path="url(#p97ea797ebe)" style="fill: #6b296b"/>
   </g>
   <g id="patch_10">
    <path d="M 303.71258 38.904689 
L 303.71258 106.559074 
L 304.88527 106.559074 
Q 306.890543 106.559074 307.948957 97.861672 
Q 309.010092 89.164269 309.010092 72.601183 
Q 309.010092 56.13315 307.954399 47.530802 
Q 306.901426 38.904689 304.88527 38.904689 
L 303.71258 38.904689 
z
M 300.439387 17.28 
L 303.889436 17.28 
Q 306.781709 17.28 308.196555 20.892036 
Q 309.611402 24.480309 310.623561 33.106421 
Q 311.516003 40.615654 311.948619 50.429936 
Q 312.383957 60.220454 312.383957 72.601183 
Q 312.383957 85.172019 311.948619 95.010064 
Q 311.516003 104.84811 310.623561 112.333579 
Q 309.603239 120.959691 308.174788 124.571727 
Q 306.746338 128.16 303.889436 128.16 
L 300.439387 128.16 
L 300.439387 17.28 
z
" clip-path="url(#p97ea797ebe)" style="fill: #6b296b"/>
   </g>
   <g id="patch_11">
    <path d="M 317.859074 66.446464 
Q 318.931022 66.446464 319.3961 63.119589 
Q 319.861179 59.76895 319.861179 52.117137 
Q 319.861179 44.536614 319.3961 41.281029 
Q 318.931022 38.00168 317.859074 38.00168 
L 316.424137 38.00168 
L 316.424137 66.446464 
L 317.859074 66.446464 
z
M 316.424137 86.193845 
L 316.424137 128.16 
L 313.012618 128.16 
L 313.012618 17.28 
L 318.222061 17.28 
Q 320.836708 17.28 322.053285 24.646652 
Q 323.272697 31.989541 323.272697 47.887252 
Q 323.272697 58.865941 322.637469 65.923669 
Q 322.005076 72.981397 320.728946 76.332036 
Q 321.4294 77.662786 321.982389 82.391702 
Q 322.538214 87.096854 323.105383 96.673502 
L 324.957188 128.16 
L 321.324473 128.16 
L 319.710879 100.618225 
Q 319.223114 92.301037 318.72117 89.259323 
Q 318.222061 86.193845 317.388324 86.193845 
L 316.424137 86.193845 
z
" clip-path="url(#p97ea797ebe)" style="fill: #bd2e1f"/>
   </g>
   <g id="patch_12">
    <path d="M 336.534498 22.570907 
L 336.534498 45.200413 
Q 335.288785 41.260863 334.101465 39.268184 
Q 332.917389 37.252601 331.863074 37.252601 
Q 330.464892 37.252601 329.793374 39.978219 
Q 329.125101 42.680934 329.125101 48.407023 
Q 329.125101 52.713043 329.576023 55.118 
Q 330.026946 57.500054 331.214266 59.217881 
L 332.875216 61.57703 
Q 335.399082 65.173014 336.463129 72.479504 
Q 337.530419 79.76309 337.530419 93.230853 
Q 337.530419 110.890114 336.044647 119.525057 
Q 334.558875 128.16 331.50623 128.16 
Q 330.069118 128.16 328.619031 126.21313 
Q 327.168943 124.289163 325.718855 120.48704 
L 325.718855 97.239116 
Q 327.168943 102.667449 328.521709 105.438876 
Q 329.874476 108.187399 331.133165 108.187399 
Q 332.411318 108.187399 333.089323 105.186928 
Q 333.767328 102.163553 333.767328 96.574889 
Q 333.767328 91.581739 333.306674 88.856121 
Q 332.84602 86.130502 331.467301 83.977492 
L 329.955577 81.618343 
Q 327.684746 78.18269 326.633676 70.67006 
Q 325.585849 63.15743 325.585849 50.422607 
Q 325.585849 34.458269 327.045669 25.869134 
Q 328.505489 17.28 331.243462 17.28 
Q 332.492419 17.28 333.809501 18.608453 
Q 335.126583 19.936906 336.534498 22.570907 
z
" clip-path="url(#p97ea797ebe)" style="fill: #40ba47"/>
   </g>
   <g id="patch_13">
    <path d="M 338.283391 17.28 
L 349.97934 17.28 
L 349.97934 38.904689 
L 342.618026 38.904689 
L 342.618026 59.531316 
L 349.543354 59.531316 
L 349.543354 81.156005 
L 342.618026 81.156005 
L 342.618026 128.16 
L 338.283391 128.16 
L 338.283391 17.28 
z
" clip-path="url(#p97ea797ebe)" style="fill: #21599c"/>
   </g>
   <g id="patch_14">
    <path d="M 355.578767 66.446464 
Q 356.650716 66.446464 357.115794 63.119589 
Q 357.580872 59.76895 357.580872 52.117137 
Q 357.580872 44.536614 357.115794 41.281029 
Q 356.650716 38.00168 355.578767 38.00168 
L 354.143831 38.00168 
L 354.143831 66.446464 
L 355.578767 66.446464 
z
M 354.143831 86.193845 
L 354.143831 128.16 
L 350.732312 128.16 
L 350.732312 17.28 
L 355.941755 17.28 
Q 358.556402 17.28 359.772979 24.646652 
Q 360.992391 31.989541 360.992391 47.887252 
Q 360.992391 58.865941 360.357162 65.923669 
Q 359.724769 72.981397 358.44864 76.332036 
Q 359.149093 77.662786 359.702082 82.391702 
Q 360.257908 87.096854 360.825076 96.673502 
L 362.676881 128.16 
L 359.044167 128.16 
L 357.430572 100.618225 
Q 356.942807 92.301037 356.440863 89.259323 
Q 355.941755 86.193845 355.108017 86.193845 
L 354.143831 86.193845 
z
" clip-path="url(#p97ea797ebe)" style="fill: #bd2e1f"/>
   </g>
   <g id="patch_15">
    <path d="M 368.151998 66.446464 
Q 369.223947 66.446464 369.689025 63.119589 
Q 370.154103 59.76895 370.154103 52.117137 
Q 370.154103 44.536614 369.689025 41.281029 
Q 369.223947 38.00168 368.151998 38.00168 
L 366.717062 38.00168 
L 366.717062 66.446464 
L 368.151998 66.446464 
z
M 366.717062 86.193845 
L 366.717062 128.16 
L 363.305543 128.16 
L 363.305543 17.28 
L 368.514986 17.28 
Q 371.129633 17.28 372.34621 24.646652 
Q 373.565622 31.989541 373.565622 47.887252 
Q 373.565622 58.865941 372.930393 65.923669 
Q 372.298 72.981397 371.021871 76.332036 
Q 371.722324 77.662786 372.275314 82.391702 
Q 372.831139 87.096854 373.398307 96.673502 
L 375.250113 128.16 
L 371.617398 128.16 
L 370.003804 100.618225 
Q 369.516039 92.301037 369.014094 89.259323 
Q 368.514986 86.193845 367.681248 86.193845 
L 366.717062 86.193845 
z
" clip-path="url(#p97ea797ebe)" style="fill: #bd2e1f"/>
   </g>
   <g id="patch_16">
    <path d="M 375.878774 17.28 
L 387.574724 17.28 
L 387.574724 38.904689 
L 380.21341 38.904689 
L 380.21341 59.531316 
L 387.138738 59.531316 
L 387.138738 81.156005 
L 380.21341 81.156005 
L 380.21341 106.559074 
L 387.823344 106.559074 
L 387.823344 128.16 
L 375.878774 128.16 
L 375.878774 17.28 
z
" clip-path="url(#p97ea797ebe)" style="fill: #6b296b"/>
   </g>
   <g id="patch_17">
    <path d="M 388.452005 17.28 
L 391.975538 17.28 
L 394.419687 76.617197 
L 396.879946 17.28 
L 400.396575 17.28 
L 400.396575 128.16 
L 397.779817 128.16 
L 397.779817 47.055534 
L 395.305749 106.844235 
L 393.549736 106.844235 
L 391.075668 47.055534 
L 391.075668 128.16 
L 388.452005 128.16 
L 388.452005 17.28 
z
" clip-path="url(#p97ea797ebe)" style="fill: #21599c"/>
   </g>
   <g id="patch_18">
    <path d="M 409.29925 107.961114 
L 404.705561 107.961114 
L 403.980242 128.16 
L 401.025237 128.16 
L 405.245277 17.28 
L 408.749766 17.28 
L 412.969806 128.16 
L 410.017243 128.16 
L 409.29925 107.961114 
z
M 405.438207 87.382015 
L 408.559278 87.382015 
L 407.001185 43.277154 
L 405.438207 87.382015 
z
" clip-path="url(#p97ea797ebe)" style="fill: #21599c"/>
   </g>
   <g id="patch_19">
    <path d="M 413.598468 17.28 
L 425.543037 17.28 
L 425.543037 38.904689 
L 421.24577 38.904689 
L 421.24577 128.16 
L 417.904068 128.16 
L 417.904068 38.904689 
L 413.598468 38.904689 
L 413.598468 17.28 
z
" clip-path="url(#p97ea797ebe)" style="fill: #40ba47"/>
   </g>
   <g id="patch_20">
    <path d="M 434.445713 107.961114 
L 429.852023 107.961114 
L 429.126704 128.16 
L 426.171699 128.16 
L 430.391739 17.28 
L 433.896228 17.28 
L 438.116269 128.16 
L 435.163706 128.16 
L 434.445713 107.961114 
z
M 430.584669 87.382015 
L 433.705741 87.382015 
L 432.147647 43.277154 
L 430.584669 87.382015 
z
" clip-path="url(#p97ea797ebe)" style="fill: #21599c"/>
   </g>
   <g id="patch_21">
    <path d="M 438.74493 17.28 
L 442.047252 17.28 
L 444.714706 56.798526 
L 447.379649 17.28 
L 450.6895 17.28 
L 446.227852 81.441166 
L 446.227852 128.16 
L 443.209088 128.16 
L 443.209088 81.441166 
L 438.74493 17.28 
z
" clip-path="url(#p97ea797ebe)" style="fill: #177875"/>
   </g>
   <g id="patch_22">
    <path d="M 456.164617 66.446464 
Q 457.236565 66.446464 457.701643 63.119589 
Q 458.166722 59.76895 458.166722 52.117137 
Q 458.166722 44.536614 457.701643 41.281029 
Q 457.236565 38.00168 456.164617 38.00168 
L 454.72968 38.00168 
L 454.72968 66.446464 
L 456.164617 66.446464 
z
M 454.72968 86.193845 
L 454.72968 128.16 
L 451.318161 128.16 
L 451.318161 17.28 
L 456.527604 17.28 
Q 459.142251 17.28 460.358828 24.646652 
Q 461.57824 31.989541 461.57824 47.887252 
Q 461.57824 58.865941 460.943012 65.923669 
Q 460.310619 72.981397 459.034489 76.332036 
Q 459.734943 77.662786 460.287932 82.391702 
Q 460.843757 87.096854 461.410926 96.673502 
L 463.262731 128.16 
L 459.630016 128.16 
L 458.016422 100.618225 
Q 457.528657 92.301037 457.026713 89.259323 
Q 456.527604 86.193845 455.693867 86.193845 
L 454.72968 86.193845 
z
" clip-path="url(#p97ea797ebe)" style="fill: #bd2e1f"/>
   </g>
   <g id="patch_23">
    <path d="M 474.840041 22.570907 
L 474.840041 45.200413 
Q 473.594328 41.260863 472.407008 39.268184 
Q 471.222932 37.252601 470.168617 37.252601 
Q 468.770435 37.252601 468.098917 39.978219 
Q 467.430644 42.680934 467.430644 48.407023 
Q 467.430644 52.713043 467.881567 55.118 
Q 468.332489 57.500054 469.519809 59.217881 
L 471.180759 61.57703 
Q 473.704625 65.173014 474.768672 72.479504 
Q 475.835962 79.76309 475.835962 93.230853 
Q 475.835962 110.890114 474.35019 119.525057 
Q 472.864418 128.16 469.811773 128.16 
Q 468.374661 128.16 466.924574 126.21313 
Q 465.474486 124.289163 464.024398 120.48704 
L 464.024398 97.239116 
Q 465.474486 102.667449 466.827252 105.438876 
Q 468.180019 108.187399 469.438708 108.187399 
Q 470.716861 108.187399 471.394866 105.186928 
Q 472.072871 102.163553 472.072871 96.574889 
Q 472.072871 91.581739 471.612217 88.856121 
Q 471.151563 86.130502 469.772844 83.977492 
L 468.26112 81.618343 
Q 465.990289 78.18269 464.939219 70.67006 
Q 463.891393 63.15743 463.891393 50.422607 
Q 463.891393 34.458269 465.351212 25.869134 
Q 466.811032 17.28 469.549005 17.28 
Q 470.797962 17.28 472.115044 18.608453 
Q 473.432126 19.936906 474.840041 22.570907 
z
" clip-path="url(#p97ea797ebe)" style="fill: #40ba47"/>
   </g>
   <g id="patch_24">
    <path d="M 488.409193 118.127891 
Q 487.204564 123.143945 485.908918 125.663425 
Q 484.613272 128.16 483.231964 128.16 
Q 480.110635 128.16 478.28763 113.226358 
Q 476.464624 98.292716 476.464624 72.754357 
Q 476.464624 46.91824 478.319753 32.09912 
Q 480.177559 17.28 483.408643 17.28 
Q 484.653427 17.28 485.793809 19.295584 
Q 486.936869 21.288263 487.948757 25.227812 
L 487.948757 47.330518 
Q 486.904745 42.268655 485.871441 39.77208 
Q 484.838136 37.252601 483.799478 37.252601 
Q 481.877425 37.252601 480.83609 46.460153 
Q 479.794755 55.644801 479.794755 72.754357 
Q 479.794755 89.703582 480.798613 98.956943 
Q 481.80247 108.187399 483.649569 108.187399 
Q 484.152836 108.187399 484.583826 107.660599 
Q 485.014815 107.110894 485.357466 105.965677 
L 485.357466 85.214328 
L 483.389904 85.214328 
L 483.389904 66.73051 
L 488.409193 66.73051 
L 488.409193 118.127891 
z
" clip-path="url(#p97ea797ebe)" style="fill: #787800"/>
   </g>
   <g id="patch_25">
    <path d="M 489.037855 17.28 
L 491.103255 17.28 
L 492.547065 97.861672 
L 493.980127 17.28 
L 496.056275 17.28 
L 497.489337 97.861672 
L 498.934938 17.28 
L 500.982425 17.28 
L 499.011965 128.16 
L 496.527394 128.16 
L 495.01014 43.871239 
L 493.510799 128.16 
L 491.024437 128.16 
L 489.037855 17.28 
z
" clip-path="url(#p97ea797ebe)" style="fill: #21599c"/>
   </g>
   <g id="patch_26">
    <path d="M 501.611086 17.28 
L 505.0479 17.28 
L 505.0479 59.531316 
L 510.118842 59.531316 
L 510.118842 17.28 
L 513.555656 17.28 
L 513.555656 128.16 
L 510.118842 128.16 
L 510.118842 81.156005 
L 505.0479 81.156005 
L 505.0479 128.16 
L 501.611086 128.16 
L 501.611086 17.28 
z
" clip-path="url(#p97ea797ebe)" style="fill: #177875"/>
   </g>
   <g id="patch_27">
    <path d="M 514.308627 17.28 
L 526.004577 17.28 
L 526.004577 38.904689 
L 518.643263 38.904689 
L 518.643263 59.531316 
L 525.568591 59.531316 
L 525.568591 81.156005 
L 518.643263 81.156005 
L 518.643263 128.16 
L 514.308627 128.16 
L 514.308627 17.28 
z
" clip-path="url(#p97ea797ebe)" style="fill: #21599c"/>
   </g>
   <g id="patch_28">
    <path d="M 530.562515 17.28 
L 534.897151 17.28 
L 534.897151 128.16 
L 530.562515 128.16 
L 530.562515 17.28 
z
" clip-path="url(#p97ea797ebe)" style="fill: #21599c"/>
   </g>
   <g id="patch_29">
    <path d="M 542.603973 38.904689 
L 542.603973 106.559074 
L 543.776663 106.559074 
Q 545.781936 106.559074 546.84035 97.861672 
Q 547.901484 89.164269 547.901484 72.601183 
Q 547.901484 56.13315 546.845791 47.530802 
Q 545.792819 38.904689 543.776663 38.904689 
L 542.603973 38.904689 
z
M 539.33078 17.28 
L 542.780828 17.28 
Q 545.673101 17.28 547.087948 20.892036 
Q 548.502794 24.480309 549.514954 33.106421 
Q 550.407395 40.615654 550.840012 50.429936 
Q 551.275349 60.220454 551.275349 72.601183 
Q 551.275349 85.172019 550.840012 95.010064 
Q 550.407395 104.84811 549.514954 112.333579 
Q 548.494632 120.959691 547.066181 124.571727 
Q 545.63773 128.16 542.780828 128.16 
L 539.33078 128.16 
L 539.33078 17.28 
z
" clip-path="url(#p97ea797ebe)" style="fill: #6b296b"/>
   </g>
   <g id="patch_30">
    <path d="M 551.904011 17.28 
L 556.238646 17.28 
L 556.238646 106.559074 
L 563.84858 106.559074 
L 563.84858 128.16 
L 551.904011 128.16 
L 551.904011 17.28 
z
" clip-path="url(#p97ea797ebe)" style="fill: #21599c"/>
   </g>
   <g id="patch_31">
    <path d="M 564.477242 17.28 
L 567.432247 17.28 
L 570.45319 99.121132 
L 573.469249 17.28 
L 576.421812 17.28 
L 572.201771 128.16 
L 568.697282 128.16 
L 564.477242 17.28 
z
" clip-path="url(#p97ea797ebe)" style="fill: #21599c"/>
   </g>
   <g id="patch_32">
    <path d="M 577.050473 17.28 
L 588.995043 17.28 
L 588.995043 38.904689 
L 584.697776 38.904689 
L 584.697776 128.16 
L 581.356074 128.16 
L 581.356074 38.904689 
L 577.050473 38.904689 
L 577.050473 17.28 
z
" clip-path="url(#p97ea797ebe)" style="fill: #40ba47"/>
   </g>
   <g id="patch_33">
    <path d="M 597.897718 107.961114 
L 593.304029 107.961114 
L 592.578709 128.16 
L 589.623704 128.16 
L 593.843745 17.28 
L 597.348234 17.28 
L 601.568274 128.16 
L 598.615711 128.16 
L 597.897718 107.961114 
z
M 594.036675 87.382015 
L 597.157746 87.382015 
L 595.599652 43.277154 
L 594.036675 87.382015 
z
" clip-path="url(#p97ea797ebe)" style="fill: #21599c"/>
   </g>
   <g id="patch_34">
    <path d="M 606.001903 17.28 
L 610.336538 17.28 
L 610.336538 128.16 
L 606.001903 128.16 
L 606.001903 17.28 
z
" clip-path="url(#p97ea797ebe)" style="fill: #21599c"/>
   </g>
   <g id="patch_35">
    <path d="M 614.770167 17.28 
L 620.978854 17.28 
Q 623.750368 17.28 625.230997 26.690304 
Q 626.714736 36.076845 626.714736 53.447887 
Q 626.714736 70.913982 625.230997 80.300523 
Q 623.750368 89.687064 620.978854 89.687064 
L 618.512176 89.687064 
L 618.512176 128.16 
L 614.770167 128.16 
L 614.770167 17.28 
z
M 618.512176 38.00168 
L 618.512176 68.965384 
L 620.580702 68.965384 
Q 621.6694 68.965384 622.263518 64.925607 
Q 622.857636 60.885829 622.857636 53.447887 
Q 622.857636 46.033708 622.263518 42.017694 
Q 621.6694 38.00168 620.580702 38.00168 
L 618.512176 38.00168 
z
" clip-path="url(#p97ea797ebe)" style="fill: #787800"/>
   </g>
   <g id="patch_36">
    <path d="M 627.343398 17.28 
L 630.780211 17.28 
L 630.780211 59.531316 
L 635.851154 59.531316 
L 635.851154 17.28 
L 639.287968 17.28 
L 639.287968 128.16 
L 635.851154 128.16 
L 635.851154 81.156005 
L 630.780211 81.156005 
L 630.780211 128.16 
L 627.343398 128.16 
L 627.343398 17.28 
z
" clip-path="url(#p97ea797ebe)" style="fill: #177875"/>
   </g>
   <g id="patch_37">
    <path d="M 639.916629 17.28 
L 646.125317 17.28 
Q 648.89683 17.28 650.377459 24.808243 
Q 651.861199 32.317476 651.861199 46.214309 
Q 651.861199 60.187186 650.377459 67.696418 
Q 648.89683 75.205651 646.125317 75.205651 
L 643.658639 75.205651 
L 643.658639 105.984 
L 639.916629 105.984 
L 639.916629 17.28 
z
M 643.658639 33.857344 
L 643.658639 58.628307 
L 645.727165 58.628307 
Q 646.815862 58.628307 647.40998 55.396485 
Q 648.004098 52.164664 648.004098 46.214309 
Q 648.004098 40.282966 647.40998 37.070155 
Q 646.815862 33.857344 645.727165 33.857344 
L 643.658639 33.857344 
z
" clip-path="url(#p97ea797ebe)" style="fill: #787800; opacity: 0.8"/>
   </g>
   <g id="patch_38">
    <path d="M 639.916629 105.984 
L 651.861199 105.984 
L 651.861199 110.308938 
L 647.563931 110.308938 
L 647.563931 128.16 
L 644.22223 128.16 
L 644.22223 110.308938 
L 639.916629 110.308938 
L 639.916629 105.984 
z
" clip-path="url(#p97ea797ebe)" style="fill: #40ba47; opacity: 0.2"/>
   </g>
   <g id="patch_39">
    <path d="M 664.43443 118.127891 
Q 663.229801 123.143945 661.934155 125.663425 
Q 660.638509 128.16 659.257201 128.16 
Q 656.135872 128.16 654.312866 113.226358 
Q 652.48986 98.292716 652.48986 72.754357 
Q 652.48986 46.91824 654.34499 32.09912 
Q 656.202796 17.28 659.433879 17.28 
Q 660.678663 17.28 661.819046 19.295584 
Q 662.962105 21.288263 663.973994 25.227812 
L 663.973994 47.330518 
Q 662.929982 42.268655 661.896677 39.77208 
Q 660.863373 37.252601 659.824715 37.252601 
Q 657.902662 37.252601 656.861327 46.460153 
Q 655.819991 55.644801 655.819991 72.754357 
Q 655.819991 89.703582 656.823849 98.956943 
Q 657.827707 108.187399 659.674805 108.187399 
Q 660.178073 108.187399 660.609062 107.660599 
Q 661.040052 107.110894 661.382702 105.965677 
L 661.382702 85.214328 
L 659.415141 85.214328 
L 659.415141 66.73051 
L 664.43443 66.73051 
L 664.43443 118.127891 
z
" clip-path="url(#p97ea797ebe)" style="fill: #787800"/>
   </g>
   <g id="patch_40">
    <path d="M 668.336284 38.904689 
L 668.336284 106.559074 
L 669.508975 106.559074 
Q 671.514247 106.559074 672.572661 97.861672 
Q 673.633796 89.164269 673.633796 72.601183 
Q 673.633796 56.13315 672.578103 47.530802 
Q 671.525131 38.904689 669.508975 38.904689 
L 668.336284 38.904689 
z
M 665.063091 17.28 
L 668.51314 17.28 
Q 671.405413 17.28 672.82026 20.892036 
Q 674.235106 24.480309 675.247266 33.106421 
Q 676.139707 40.615654 676.572324 50.429936 
Q 677.007661 60.220454 677.007661 72.601183 
Q 677.007661 85.172019 676.572324 95.010064 
Q 676.139707 104.84811 675.247266 112.333579 
Q 674.226944 120.959691 672.798493 124.571727 
Q 671.370042 128.16 668.51314 128.16 
L 665.063091 128.16 
L 665.063091 17.28 
z
" clip-path="url(#p97ea797ebe)" style="fill: #6b296b"/>
   </g>
   <g id="patch_41">
    <path d="M 688.584971 22.570907 
L 688.584971 45.200413 
Q 687.339258 41.260863 686.151938 39.268184 
Q 684.967862 37.252601 683.913548 37.252601 
Q 682.515365 37.252601 681.843848 39.978219 
Q 681.175575 42.680934 681.175575 48.407023 
Q 681.175575 52.713043 681.626497 55.118 
Q 682.077419 57.500054 683.264739 59.217881 
L 684.925689 61.57703 
Q 687.449555 65.173014 688.513602 72.479504 
Q 689.580892 79.76309 689.580892 93.230853 
Q 689.580892 110.890114 688.09512 119.525057 
Q 686.609348 128.16 683.556703 128.16 
Q 682.119591 128.16 680.669504 126.21313 
Q 679.219416 124.289163 677.769328 120.48704 
L 677.769328 97.239116 
Q 679.219416 102.667449 680.572182 105.438876 
Q 681.924949 108.187399 683.183638 108.187399 
Q 684.461791 108.187399 685.139796 105.186928 
Q 685.817801 102.163553 685.817801 96.574889 
Q 685.817801 91.581739 685.357147 88.856121 
Q 684.896493 86.130502 683.517774 83.977492 
L 682.00605 81.618343 
Q 679.735219 78.18269 678.684149 70.67006 
Q 677.636323 63.15743 677.636323 50.422607 
Q 677.636323 34.458269 679.096142 25.869134 
Q 680.555962 17.28 683.293935 17.28 
Q 684.542892 17.28 685.859974 18.608453 
Q 687.177056 19.936906 688.584971 22.570907 
z
" clip-path="url(#p97ea797ebe)" style="fill: #40ba47"/>
   </g>
   <g id="patch_42">
    <path d="M 690.209554 17.28 
L 694.54419 17.28 
L 694.54419 106.559074 
L 702.154123 106.559074 
L 702.154123 128.16 
L 690.209554 128.16 
L 690.209554 17.28 
z
" clip-path="url(#p97ea797ebe)" style="fill: #21599c"/>
   </g>
   <g id="patch_43">
    <path d="M 702.782785 17.28 
L 706.306318 17.28 
L 708.750467 76.617197 
L 711.210726 17.28 
L 714.727355 17.28 
L 714.727355 128.16 
L 712.110596 128.16 
L 712.110596 47.055534 
L 709.636528 106.844235 
L 707.880516 106.844235 
L 705.406448 47.055534 
L 705.406448 128.16 
L 702.782785 128.16 
L 702.782785 17.28 
z
" clip-path="url(#p97ea797ebe)" style="fill: #21599c"/>
   </g>
   <g id="patch_44">
    <path d="M 715.356016 17.28 
L 718.311021 17.28 
L 721.331964 99.121132 
L 724.348023 17.28 
L 727.300586 17.28 
L 723.080546 128.16 
L 719.576056 128.16 
L 715.356016 17.28 
z
" clip-path="url(#p97ea797ebe)" style="fill: #21599c"/>
   </g>
   <g id="patch_45">
    <path d="M 727.929247 17.28 
L 739.873817 17.28 
L 739.873817 38.904689 
L 735.57655 38.904689 
L 735.57655 128.16 
L 732.234848 128.16 
L 732.234848 38.904689 
L 727.929247 38.904689 
L 727.929247 17.28 
z
" clip-path="url(#p97ea797ebe)" style="fill: #40ba47"/>
   </g>
   <g id="patch_46">
    <path d="M 740.502479 17.28 
L 743.457484 17.28 
L 746.478427 99.121132 
L 749.494485 17.28 
L 752.447048 17.28 
L 748.227008 128.16 
L 744.722519 128.16 
L 740.502479 17.28 
z
" clip-path="url(#p97ea797ebe)" style="fill: #21599c"/>
   </g>
   <g id="patch_47">
    <path d="M 753.20002 17.28 
L 764.895969 17.28 
L 764.895969 38.904689 
L 757.534655 38.904689 
L 757.534655 59.531316 
L 764.459984 59.531316 
L 764.459984 81.156005 
L 757.534655 81.156005 
L 757.534655 128.16 
L 753.20002 128.16 
L 753.20002 17.28 
z
" clip-path="url(#p97ea797ebe)" style="fill: #21599c"/>
   </g>
   <g id="patch_48">
    <path d="M 777.593511 118.127891 
Q 776.388881 123.143945 775.093235 125.663425 
Q 773.79759 128.16 772.416281 128.16 
Q 769.294953 128.16 767.471947 113.226358 
Q 765.648941 98.292716 765.648941 72.754357 
Q 765.648941 46.91824 767.50407 32.09912 
Q 769.361876 17.28 772.59296 17.28 
Q 773.837744 17.28 774.978126 19.295584 
Q 776.121186 21.288263 777.133074 25.227812 
L 777.133074 47.330518 
Q 776.089062 42.268655 775.055758 39.77208 
Q 774.022454 37.252601 772.983795 37.252601 
Q 771.061742 37.252601 770.020407 46.460153 
Q 768.979072 55.644801 768.979072 72.754357 
Q 768.979072 89.703582 769.98293 98.956943 
Q 770.986788 108.187399 772.833886 108.187399 
Q 773.337153 108.187399 773.768143 107.660599 
Q 774.199133 107.110894 774.541783 105.965677 
L 774.541783 85.214328 
L 772.574221 85.214328 
L 772.574221 66.73051 
L 777.593511 66.73051 
L 777.593511 118.127891 
z
" clip-path="url(#p97ea797ebe)" style="fill: #787800"/>
   </g>
   <g id="patch_49">
    <path d="M 778.222172 17.28 
L 789.918122 17.28 
L 789.918122 38.904689 
L 782.556808 38.904689 
L 782.556808 59.531316 
L 789.482136 59.531316 
L 789.482136 81.156005 
L 782.556808 81.156005 
L 782.556808 106.559074 
L 790.166742 106.559074 
L 790.166742 128.16 
L 778.222172 128.16 
L 778.222172 17.28 
z
" clip-path="url(#p97ea797ebe)" style="fill: #6b296b"/>
   </g>
   <g id="patch_50">
    <path d="M 790.795403 17.28 
L 797.004091 17.28 
Q 799.775605 17.28 801.256233 26.690304 
Q 802.739973 36.076845 802.739973 53.447887 
Q 802.739973 70.913982 801.256233 80.300523 
Q 799.775605 89.687064 797.004091 89.687064 
L 794.537413 89.687064 
L 794.537413 128.16 
L 790.795403 128.16 
L 790.795403 17.28 
z
M 794.537413 38.00168 
L 794.537413 68.965384 
L 796.605939 68.965384 
Q 797.694637 68.965384 798.288754 64.925607 
Q 798.882872 60.885829 798.882872 53.447887 
Q 798.882872 46.033708 798.288754 42.017694 
Q 797.694637 38.00168 796.605939 38.00168 
L 794.537413 38.00168 
z
" clip-path="url(#p97ea797ebe)" style="fill: #787800"/>
   </g>
   <g id="patch_51">
    <path d="M 803.368635 17.28 
L 806.323639 17.28 
L 809.344583 99.121132 
L 812.360641 17.28 
L 815.313204 17.28 
L 811.093164 128.16 
L 807.588675 128.16 
L 803.368635 17.28 
z
" clip-path="url(#p97ea797ebe)" style="fill: #21599c"/>
   </g>
   <g id="patch_52">
    <path d="M 815.941866 17.28 
L 818.896871 17.28 
L 821.917814 99.121132 
L 824.933873 17.28 
L 827.886435 17.28 
L 823.666395 128.16 
L 820.161906 128.16 
L 815.941866 17.28 
z
" clip-path="url(#p97ea797ebe)" style="fill: #21599c"/>
   </g>
   <g id="patch_53">
    <path d="M 828.515097 17.28 
L 831.470102 17.28 
L 834.491045 99.121132 
L 837.507104 17.28 
L 840.459667 17.28 
L 836.239626 128.16 
L 832.735137 128.16 
L 828.515097 17.28 
z
" clip-path="url(#p97ea797ebe)" style="fill: #21599c"/>
   </g>
   <g id="patch_54">
    <path d="M 841.088328 17.28 
L 853.032898 17.28 
L 853.032898 38.904689 
L 848.73563 38.904689 
L 848.73563 128.16 
L 845.393929 128.16 
L 845.393929 38.904689 
L 841.088328 38.904689 
L 841.088328 17.28 
z
" clip-path="url(#p97ea797ebe)" style="fill: #40ba47"/>
   </g>
   <g id="patch_55">
    <path d="M 853.661559 17.28 
L 857.996195 17.28 
L 857.996195 88.703259 
L 865.606129 88.703259 
L 865.606129 105.984 
L 853.661559 105.984 
L 853.661559 17.28 
z
" clip-path="url(#p97ea797ebe)" style="fill: #21599c; opacity: 0.8"/>
   </g>
   <g id="patch_56">
    <path d="M 858.508015 115.817293 
Q 859.579963 115.817293 860.045041 115.151918 
Q 860.510119 114.48179 860.510119 112.951427 
Q 860.510119 111.435323 860.045041 110.784206 
Q 859.579963 110.128336 858.508015 110.128336 
L 857.073078 110.128336 
L 857.073078 115.817293 
L 858.508015 115.817293 
z
M 857.073078 119.766769 
L 857.073078 128.16 
L 853.661559 128.16 
L 853.661559 105.984 
L 858.871002 105.984 
Q 861.485649 105.984 862.702226 107.45733 
Q 863.921638 108.925908 863.921638 112.10545 
Q 863.921638 114.301188 863.28641 115.712734 
Q 862.654017 117.124279 861.377887 117.794407 
Q 862.078341 118.060557 862.63133 119.00634 
Q 863.187155 119.947371 863.754324 121.8627 
L 865.606129 128.16 
L 861.973414 128.16 
L 860.35982 122.651645 
Q 859.872055 120.988207 859.370111 120.379865 
Q 858.871002 119.766769 858.037265 119.766769 
L 857.073078 119.766769 
z
" clip-path="url(#p97ea797ebe)" style="fill: #bd2e1f; opacity: 0.2"/>
   </g>
   <g id="patch_57">
    <path d="M 869.507983 38.904689 
L 869.507983 106.559074 
L 870.680674 106.559074 
Q 872.685946 106.559074 873.74436 97.861672 
Q 874.805495 89.164269 874.805495 72.601183 
Q 874.805495 56.13315 873.749802 47.530802 
Q 872.69683 38.904689 870.680674 38.904689 
L 869.507983 38.904689 
z
M 866.23479 17.28 
L 869.684839 17.28 
Q 872.577112 17.28 873.991959 20.892036 
Q 875.406805 24.480309 876.418965 33.106421 
Q 877.311406 40.615654 877.744023 50.429936 
Q 878.17936 60.220454 878.17936 72.601183 
Q 878.17936 85.172019 877.744023 95.010064 
Q 877.311406 104.84811 876.418965 112.333579 
Q 875.398642 120.959691 873.970192 124.571727 
Q 872.541741 128.16 869.684839 128.16 
L 866.23479 128.16 
L 866.23479 17.28 
z
" clip-path="url(#p97ea797ebe)" style="fill: #6b296b"/>
   </g>
   <g id="patch_58">
    <path d="M 878.808022 17.28 
L 890.503971 17.28 
L 890.503971 38.904689 
L 883.142657 38.904689 
L 883.142657 59.531316 
L 890.067985 59.531316 
L 890.067985 81.156005 
L 883.142657 81.156005 
L 883.142657 106.559074 
L 890.752591 106.559074 
L 890.752591 128.16 
L 878.808022 128.16 
L 878.808022 17.28 
z
" clip-path="url(#p97ea797ebe)" style="fill: #6b296b"/>
   </g>
   <g id="patch_59">
    <path d="M 894.654446 38.904689 
L 894.654446 106.559074 
L 895.827136 106.559074 
Q 897.832409 106.559074 898.890823 97.861672 
Q 899.951958 89.164269 899.951958 72.601183 
Q 899.951958 56.13315 898.896265 47.530802 
Q 897.843292 38.904689 895.827136 38.904689 
L 894.654446 38.904689 
z
M 891.381253 17.28 
L 894.831302 17.28 
Q 897.723574 17.28 899.138421 20.892036 
Q 900.553267 24.480309 901.565427 33.106421 
Q 902.457869 40.615654 902.890485 50.429936 
Q 903.325822 60.220454 903.325822 72.601183 
Q 903.325822 85.172019 902.890485 95.010064 
Q 902.457869 104.84811 901.565427 112.333579 
Q 900.545105 120.959691 899.116654 124.571727 
Q 897.688203 128.16 894.831302 128.16 
L 891.381253 128.16 
L 891.381253 17.28 
z
" clip-path="url(#p97ea797ebe)" style="fill: #6b296b"/>
   </g>
   <g id="patch_60">
    <path d="M 903.954484 105.984 
L 915.650434 105.984 
L 915.650434 110.308938 
L 908.28912 110.308938 
L 908.28912 114.434263 
L 915.214448 114.434263 
L 915.214448 118.759201 
L 908.28912 118.759201 
L 908.28912 123.839815 
L 915.899054 123.839815 
L 915.899054 128.16 
L 903.954484 128.16 
L 903.954484 105.984 
z
" clip-path="url(#p97ea797ebe)" style="fill: #6b296b; opacity: 0.2"/>
   </g>
   <g id="patch_61">
    <path d="M 915.899054 97.958313 
Q 914.694424 101.971156 913.398778 103.98674 
Q 912.103133 105.984 910.721824 105.984 
Q 907.600496 105.984 905.77749 94.037087 
Q 903.954484 82.090173 903.954484 61.659485 
Q 903.954484 40.990592 905.809613 29.135296 
Q 907.667419 17.28 910.898503 17.28 
Q 912.143287 17.28 913.283669 18.892467 
Q 914.426729 20.48661 915.438618 23.63825 
L 915.438618 41.320415 
Q 914.394605 37.270924 913.361301 35.273664 
Q 912.327997 33.258081 911.289339 33.258081 
Q 909.367285 33.258081 908.32595 40.624122 
Q 907.284615 47.971841 907.284615 61.659485 
Q 907.284615 75.218866 908.288473 82.621554 
Q 909.292331 90.005919 911.139429 90.005919 
Q 911.642696 90.005919 912.073686 89.584479 
Q 912.504676 89.144716 912.847326 88.228541 
L 912.847326 71.627462 
L 910.879765 71.627462 
L 910.879765 56.840408 
L 915.899054 56.840408 
L 915.899054 97.958313 
z
" clip-path="url(#p97ea797ebe)" style="fill: #787800; opacity: 0.8"/>
   </g>
   <g id="patch_62">
    <path d="M 919.800908 38.904689 
L 919.800908 106.559074 
L 920.973598 106.559074 
Q 922.978871 106.559074 924.037285 97.861672 
Q 925.09842 89.164269 925.09842 72.601183 
Q 925.09842 56.13315 924.042727 47.530802 
Q 922.989755 38.904689 920.973598 38.904689 
L 919.800908 38.904689 
z
M 916.527715 17.28 
L 919.977764 17.28 
Q 922.870037 17.28 924.284883 20.892036 
Q 925.69973 24.480309 926.711889 33.106421 
Q 927.604331 40.615654 928.036947 50.429936 
Q 928.472285 60.220454 928.472285 72.601183 
Q 928.472285 85.172019 928.036947 95.010064 
Q 927.604331 104.84811 926.711889 112.333579 
Q 925.691567 120.959691 924.263116 124.571727 
Q 922.834666 128.16 919.977764 128.16 
L 916.527715 128.16 
L 916.527715 17.28 
z
" clip-path="url(#p97ea797ebe)" style="fill: #6b296b"/>
   </g>
   <g id="patch_63">
    <path d="M 929.100946 17.28 
L 932.055951 17.28 
L 935.076894 99.121132 
L 938.092953 17.28 
L 941.045516 17.28 
L 936.825476 128.16 
L 933.320987 128.16 
L 929.100946 17.28 
z
" clip-path="url(#p97ea797ebe)" style="fill: #21599c"/>
   </g>
   <g id="patch_64">
    <path d="M 946.520633 66.446464 
Q 947.592581 66.446464 948.05766 63.119589 
Q 948.522738 59.76895 948.522738 52.117137 
Q 948.522738 44.536614 948.05766 41.281029 
Q 947.592581 38.00168 946.520633 38.00168 
L 945.085696 38.00168 
L 945.085696 66.446464 
L 946.520633 66.446464 
z
M 945.085696 86.193845 
L 945.085696 128.16 
L 941.674178 128.16 
L 941.674178 17.28 
L 946.883621 17.28 
Q 949.498268 17.28 950.714844 24.646652 
Q 951.934257 31.989541 951.934257 47.887252 
Q 951.934257 58.865941 951.299028 65.923669 
Q 950.666635 72.981397 949.390506 76.332036 
Q 950.090959 77.662786 950.643948 82.391702 
Q 951.199773 87.096854 951.766942 96.673502 
L 953.618747 128.16 
L 949.986033 128.16 
L 948.372438 100.618225 
Q 947.884673 92.301037 947.382729 89.259323 
Q 946.883621 86.193845 946.049883 86.193845 
L 945.085696 86.193845 
z
" clip-path="url(#p97ea797ebe)" style="fill: #bd2e1f"/>
   </g>
   <g id="patch_65">
    <path d="M 962.521423 107.961114 
L 957.927733 107.961114 
L 957.202414 128.16 
L 954.247409 128.16 
L 958.467449 17.28 
L 961.971938 17.28 
L 966.191978 128.16 
L 963.239416 128.16 
L 962.521423 107.961114 
z
M 958.660379 87.382015 
L 961.78145 87.382015 
L 960.223357 43.277154 
L 958.660379 87.382015 
z
" clip-path="url(#p97ea797ebe)" style="fill: #21599c"/>
   </g>
   <g id="patch_66">
    <path d="M 966.82064 17.28 
L 970.122962 17.28 
L 972.790415 56.798526 
L 975.455359 17.28 
L 978.76521 17.28 
L 974.303561 81.441166 
L 974.303561 128.16 
L 971.284797 128.16 
L 971.284797 81.441166 
L 966.82064 17.28 
z
" clip-path="url(#p97ea797ebe)" style="fill: #177875"/>
   </g>
   <g id="patch_67">
    <path d="M 984.240326 66.446464 
Q 985.312275 66.446464 985.777353 63.119589 
Q 986.242431 59.76895 986.242431 52.117137 
Q 986.242431 44.536614 985.777353 41.281029 
Q 985.312275 38.00168 984.240326 38.00168 
L 982.80539 38.00168 
L 982.80539 66.446464 
L 984.240326 66.446464 
z
M 982.80539 86.193845 
L 982.80539 128.16 
L 979.393871 128.16 
L 979.393871 17.28 
L 984.603314 17.28 
Q 987.217961 17.28 988.434538 24.646652 
Q 989.65395 31.989541 989.65395 47.887252 
Q 989.65395 58.865941 989.018721 65.923669 
Q 988.386328 72.981397 987.110199 76.332036 
Q 987.810652 77.662786 988.363642 82.391702 
Q 988.919467 87.096854 989.486635 96.673502 
L 991.338441 128.16 
L 987.705726 128.16 
L 986.092132 100.618225 
Q 985.604367 92.301037 985.102423 89.259323 
Q 984.603314 86.193845 983.769576 86.193845 
L 982.80539 86.193845 
z
" clip-path="url(#p97ea797ebe)" style="fill: #bd2e1f"/>
   </g>
   <g id="patch_68">
    <path d="M 1003.911672 120.212188 
Q 1002.912529 124.151737 1001.832131 126.144416 
Q 1000.751733 128.16 999.575032 128.16 
Q 996.065995 128.16 994.016548 113.226358 
Q 991.967102 98.292716 991.967102 72.754357 
Q 991.967102 47.124379 994.016548 32.213642 
Q 996.065995 17.28 999.575032 17.28 
Q 1000.751733 17.28 1001.832131 19.295584 
Q 1002.912529 21.288263 1003.911672 25.227812 
L 1003.911672 47.330518 
Q 1002.903501 42.108325 1001.925425 39.680463 
Q 1000.947348 37.252601 999.86695 37.252601 
Q 997.928854 37.252601 996.818361 46.712101 
Q 995.710878 56.148697 995.710878 72.754357 
Q 995.710878 89.291303 996.818361 98.750804 
Q 997.928854 108.187399 999.86695 108.187399 
Q 1000.947348 108.187399 1001.925425 105.759537 
Q 1002.903501 103.308771 1003.911672 98.086577 
L 1003.911672 120.212188 
z
" clip-path="url(#p97ea797ebe)" style="fill: #6b296b"/>
   </g>
   <g id="patch_69">
    <path d="M 1004.540333 17.28 
L 1008.874969 17.28 
L 1008.874969 106.559074 
L 1016.484903 106.559074 
L 1016.484903 128.16 
L 1004.540333 128.16 
L 1004.540333 17.28 
z
" clip-path="url(#p97ea797ebe)" style="fill: #21599c"/>
   </g>
   <g id="patch_70">
    <path d="M 1021.96002 66.446464 
Q 1023.031968 66.446464 1023.497047 63.119589 
Q 1023.962125 59.76895 1023.962125 52.117137 
Q 1023.962125 44.536614 1023.497047 41.281029 
Q 1023.031968 38.00168 1021.96002 38.00168 
L 1020.525083 38.00168 
L 1020.525083 66.446464 
L 1021.96002 66.446464 
z
M 1020.525083 86.193845 
L 1020.525083 128.16 
L 1017.113565 128.16 
L 1017.113565 17.28 
L 1022.323008 17.28 
Q 1024.937655 17.28 1026.154231 24.646652 
Q 1027.373644 31.989541 1027.373644 47.887252 
Q 1027.373644 58.865941 1026.738415 65.923669 
Q 1026.106022 72.981397 1024.829893 76.332036 
Q 1025.530346 77.662786 1026.083335 82.391702 
Q 1026.63916 87.096854 1027.206329 96.673502 
L 1029.058134 128.16 
L 1025.42542 128.16 
L 1023.811825 100.618225 
Q 1023.32406 92.301037 1022.822116 89.259323 
Q 1022.323008 86.193845 1021.48927 86.193845 
L 1020.525083 86.193845 
z
" clip-path="url(#p97ea797ebe)" style="fill: #bd2e1f"/>
   </g>
   <g id="patch_71">
    <path d="M 1034.533251 66.446464 
Q 1035.6052 66.446464 1036.070278 63.119589 
Q 1036.535356 59.76895 1036.535356 52.117137 
Q 1036.535356 44.536614 1036.070278 41.281029 
Q 1035.6052 38.00168 1034.533251 38.00168 
L 1033.098315 38.00168 
L 1033.098315 66.446464 
L 1034.533251 66.446464 
z
M 1033.098315 86.193845 
L 1033.098315 128.16 
L 1029.686796 128.16 
L 1029.686796 17.28 
L 1034.896239 17.28 
Q 1037.510886 17.28 1038.727463 24.646652 
Q 1039.946875 31.989541 1039.946875 47.887252 
Q 1039.946875 58.865941 1039.311646 65.923669 
Q 1038.679253 72.981397 1037.403124 76.332036 
Q 1038.103577 77.662786 1038.656566 82.391702 
Q 1039.212392 87.096854 1039.77956 96.673502 
L 1041.631365 128.16 
L 1037.998651 128.16 
L 1036.385056 100.618225 
Q 1035.897291 92.301037 1035.395347 89.259323 
Q 1034.896239 86.193845 1034.062501 86.193845 
L 1033.098315 86.193845 
z
" clip-path="url(#p97ea797ebe)" style="fill: #bd2e1f"/>
   </g>
   <g id="patch_72">
    <path d="M 1042.260027 17.28 
L 1048.468715 17.28 
Q 1051.240228 17.28 1052.720857 26.690304 
Q 1054.204597 36.076845 1054.204597 53.447887 
Q 1054.204597 70.913982 1052.720857 80.300523 
Q 1051.240228 89.687064 1048.468715 89.687064 
L 1046.002037 89.687064 
L 1046.002037 128.16 
L 1042.260027 128.16 
L 1042.260027 17.28 
z
M 1046.002037 38.00168 
L 1046.002037 68.965384 
L 1048.070562 68.965384 
Q 1049.15926 68.965384 1049.753378 64.925607 
Q 1050.347496 60.885829 1050.347496 53.447887 
Q 1050.347496 46.033708 1049.753378 42.017694 
Q 1049.15926 38.00168 1048.070562 38.00168 
L 1046.002037 38.00168 
z
" clip-path="url(#p97ea797ebe)" style="fill: #787800"/>
   </g>
   <g id="patch_73">
    <path d="M 1059.679713 66.446464 
Q 1060.751662 66.446464 1061.21674 63.119589 
Q 1061.681818 59.76895 1061.681818 52.117137 
Q 1061.681818 44.536614 1061.21674 41.281029 
Q 1060.751662 38.00168 1059.679713 38.00168 
L 1058.244777 38.00168 
L 1058.244777 66.446464 
L 1059.679713 66.446464 
z
M 1058.244777 86.193845 
L 1058.244777 128.16 
L 1054.833258 128.16 
L 1054.833258 17.28 
L 1060.042701 17.28 
Q 1062.657348 17.28 1063.873925 24.646652 
Q 1065.093337 31.989541 1065.093337 47.887252 
Q 1065.093337 58.865941 1064.458108 65.923669 
Q 1063.825716 72.981397 1062.549586 76.332036 
Q 1063.250039 77.662786 1063.803029 82.391702 
Q 1064.358854 87.096854 1064.926023 96.673502 
L 1066.777828 128.16 
L 1063.145113 128.16 
L 1061.531519 100.618225 
Q 1061.043754 92.301037 1060.54181 89.259323 
Q 1060.042701 86.193845 1059.208964 86.193845 
L 1058.244777 86.193845 
z
" clip-path="url(#p97ea797ebe)" style="fill: #bd2e1f"/>
   </g>
   <g id="patch_74">
    <path d="M 1079.351059 118.127891 
Q 1078.14643 123.143945 1076.850784 125.663425 
Q 1075.555138 128.16 1074.17383 128.16 
Q 1071.052501 128.16 1069.229495 113.226358 
Q 1067.406489 98.292716 1067.406489 72.754357 
Q 1067.406489 46.91824 1069.261619 32.09912 
Q 1071.119425 17.28 1074.350509 17.28 
Q 1075.595292 17.28 1076.735675 19.295584 
Q 1077.878734 21.288263 1078.890623 25.227812 
L 1078.890623 47.330518 
Q 1077.846611 42.268655 1076.813306 39.77208 
Q 1075.780002 37.252601 1074.741344 37.252601 
Q 1072.819291 37.252601 1071.777956 46.460153 
Q 1070.73662 55.644801 1070.73662 72.754357 
Q 1070.73662 89.703582 1071.740478 98.956943 
Q 1072.744336 108.187399 1074.591434 108.187399 
Q 1075.094702 108.187399 1075.525691 107.660599 
Q 1075.956681 107.110894 1076.299331 105.965677 
L 1076.299331 85.214328 
L 1074.33177 85.214328 
L 1074.33177 66.73051 
L 1079.351059 66.73051 
L 1079.351059 118.127891 
z
" clip-path="url(#p97ea797ebe)" style="fill: #787800"/>
   </g>
   <g id="patch_75">
    <path d="M 1088.253734 107.961114 
L 1083.660045 107.961114 
L 1082.934726 128.16 
L 1079.979721 128.16 
L 1084.199761 17.28 
L 1087.70425 17.28 
L 1091.92429 128.16 
L 1088.971727 128.16 
L 1088.253734 107.961114 
z
M 1084.392691 87.382015 
L 1087.513762 87.382015 
L 1085.955669 43.277154 
L 1084.392691 87.382015 
z
" clip-path="url(#p97ea797ebe)" style="fill: #21599c"/>
   </g>
   <g id="patch_76">
    <path d="M 1092.552952 17.28 
L 1098.76164 17.28 
Q 1101.533153 17.28 1103.013782 26.690304 
Q 1104.497521 36.076845 1104.497521 53.447887 
Q 1104.497521 70.913982 1103.013782 80.300523 
Q 1101.533153 89.687064 1098.76164 89.687064 
L 1096.294961 89.687064 
L 1096.294961 128.16 
L 1092.552952 128.16 
L 1092.552952 17.28 
z
M 1096.294961 38.00168 
L 1096.294961 68.965384 
L 1098.363487 68.965384 
Q 1099.452185 68.965384 1100.046303 64.925607 
Q 1100.640421 60.885829 1100.640421 53.447887 
Q 1100.640421 46.033708 1100.046303 42.017694 
Q 1099.452185 38.00168 1098.363487 38.00168 
L 1096.294961 38.00168 
z
" clip-path="url(#p97ea797ebe)" style="fill: #787800"/>
   </g>
   <g id="patch_77">
    <path d="M 1111.41699 111.578719 
L 1111.183075 111.578719 
Q 1108.31389 111.578719 1106.718792 99.152512 
Q 1105.126183 86.706798 1105.126183 64.526897 
Q 1105.126183 42.38601 1106.716304 29.842759 
Q 1108.306425 17.28 1111.098468 17.28 
Q 1113.920372 17.28 1115.495562 29.725714 
Q 1117.070753 42.151921 1117.070753 64.526897 
Q 1117.070753 79.879212 1116.234633 90.978916 
Q 1115.398513 102.078621 1113.8283 107.677241 
L 1116.167445 128.16 
L 1113.31319 128.16 
L 1111.41699 111.578719 
z
M 1111.098468 34.290443 
Q 1109.729819 34.290443 1108.975818 42.210443 
Q 1108.221817 50.130443 1108.221817 64.526897 
Q 1108.221817 79.157438 1108.958399 86.940887 
Q 1109.697469 94.704828 1111.098468 94.704828 
Q 1112.474582 94.704828 1113.228583 86.784828 
Q 1113.982584 78.84532 1113.982584 64.526897 
Q 1113.982584 50.130443 1113.228583 42.210443 
Q 1112.474582 34.290443 1111.098468 34.290443 
z
" clip-path="url(#p97ea797ebe)" style="fill: #40ba47"/>
   </g>
   <g id="patch_78">
    <path d="M 1117.699414 17.28 
L 1123.908102 17.28 
Q 1126.679615 17.28 1128.160244 26.690304 
Q 1129.643984 36.076845 1129.643984 53.447887 
Q 1129.643984 70.913982 1128.160244 80.300523 
Q 1126.679615 89.687064 1123.908102 89.687064 
L 1121.441424 89.687064 
L 1121.441424 128.16 
L 1117.699414 128.16 
L 1117.699414 17.28 
z
M 1121.441424 38.00168 
L 1121.441424 68.965384 
L 1123.50995 68.965384 
Q 1124.598647 68.965384 1125.192765 64.925607 
Q 1125.786883 60.885829 1125.786883 53.447887 
Q 1125.786883 46.033708 1125.192765 42.017694 
Q 1124.598647 38.00168 1123.50995 38.00168 
L 1121.441424 38.00168 
z
" clip-path="url(#p97ea797ebe)" style="fill: #787800"/>
   </g>
   <g id="patch_79">
    <path d="M 1130.272645 17.28 
L 1133.22765 17.28 
L 1136.248593 99.121132 
L 1139.264652 17.28 
L 1142.217215 17.28 
L 1137.997175 128.16 
L 1134.492685 128.16 
L 1130.272645 17.28 
z
" clip-path="url(#p97ea797ebe)" style="fill: #21599c"/>
   </g>
   <g id="patch_80">
    <path d="M 1147.692332 66.446464 
Q 1148.76428 66.446464 1149.229359 63.119589 
Q 1149.694437 59.76895 1149.694437 52.117137 
Q 1149.694437 44.536614 1149.229359 41.281029 
Q 1148.76428 38.00168 1147.692332 38.00168 
L 1146.257395 38.00168 
L 1146.257395 66.446464 
L 1147.692332 66.446464 
z
M 1146.257395 86.193845 
L 1146.257395 128.16 
L 1142.845877 128.16 
L 1142.845877 17.28 
L 1148.05532 17.28 
Q 1150.669967 17.28 1151.886543 24.646652 
Q 1153.105956 31.989541 1153.105956 47.887252 
Q 1153.105956 58.865941 1152.470727 65.923669 
Q 1151.838334 72.981397 1150.562205 76.332036 
Q 1151.262658 77.662786 1151.815647 82.391702 
Q 1152.371472 87.096854 1152.938641 96.673502 
L 1154.790446 128.16 
L 1151.157732 128.16 
L 1149.544137 100.618225 
Q 1149.056372 92.301037 1148.554428 89.259323 
Q 1148.05532 86.193845 1147.221582 86.193845 
L 1146.257395 86.193845 
z
" clip-path="url(#p97ea797ebe)" style="fill: #bd2e1f"/>
   </g>
   <g id="patch_81">
    <path d="M 1167.363677 120.212188 
Q 1166.364535 124.151737 1165.284136 126.144416 
Q 1164.203738 128.16 1163.027037 128.16 
Q 1159.518 128.16 1157.468554 113.226358 
Q 1155.419108 98.292716 1155.419108 72.754357 
Q 1155.419108 47.124379 1157.468554 32.213642 
Q 1159.518 17.28 1163.027037 17.28 
Q 1164.203738 17.28 1165.284136 19.295584 
Q 1166.364535 21.288263 1167.363677 25.227812 
L 1167.363677 47.330518 
Q 1166.355506 42.108325 1165.37743 39.680463 
Q 1164.399354 37.252601 1163.318955 37.252601 
Q 1161.380859 37.252601 1160.270367 46.712101 
Q 1159.162883 56.148697 1159.162883 72.754357 
Q 1159.162883 89.291303 1160.270367 98.750804 
Q 1161.380859 108.187399 1163.318955 108.187399 
Q 1164.399354 108.187399 1165.37743 105.759537 
Q 1166.355506 103.308771 1167.363677 98.086577 
L 1167.363677 120.212188 
z
" clip-path="url(#p97ea797ebe)" style="fill: #6b296b"/>
   </g>
   <g id="patch_82">
    <path d="M 1176.266353 107.961114 
L 1171.672663 107.961114 
L 1170.947344 128.16 
L 1167.992339 128.16 
L 1172.212379 17.28 
L 1175.716868 17.28 
L 1179.936909 128.16 
L 1176.984346 128.16 
L 1176.266353 107.961114 
z
M 1172.405309 87.382015 
L 1175.52638 87.382015 
L 1173.968287 43.277154 
L 1172.405309 87.382015 
z
" clip-path="url(#p97ea797ebe)" style="fill: #21599c"/>
   </g>
   <g id="patch_83">
    <path d="M 1184.370537 17.28 
L 1188.705173 17.28 
L 1188.705173 105.984 
L 1184.370537 105.984 
L 1184.370537 17.28 
z
" clip-path="url(#p97ea797ebe)" style="fill: #21599c; opacity: 0.8"/>
   </g>
   <g id="patch_84">
    <path d="M 1180.56557 105.984 
L 1183.520575 105.984 
L 1186.541518 122.352226 
L 1189.557577 105.984 
L 1192.51014 105.984 
L 1188.2901 128.16 
L 1184.78561 128.16 
L 1180.56557 105.984 
z
" clip-path="url(#p97ea797ebe)" style="fill: #21599c; opacity: 0.2"/>
   </g>
   <g id="patch_85">
    <path d="M 1197.985257 66.446464 
Q 1199.057205 66.446464 1199.522283 63.119589 
Q 1199.987361 59.76895 1199.987361 52.117137 
Q 1199.987361 44.536614 1199.522283 41.281029 
Q 1199.057205 38.00168 1197.985257 38.00168 
L 1196.55032 38.00168 
L 1196.55032 66.446464 
L 1197.985257 66.446464 
z
M 1196.55032 86.193845 
L 1196.55032 128.16 
L 1193.138801 128.16 
L 1193.138801 17.28 
L 1198.348244 17.28 
Q 1200.962891 17.28 1202.179468 24.646652 
Q 1203.39888 31.989541 1203.39888 47.887252 
Q 1203.39888 58.865941 1202.763652 65.923669 
Q 1202.131259 72.981397 1200.855129 76.332036 
Q 1201.555583 77.662786 1202.108572 82.391702 
Q 1202.664397 87.096854 1203.231566 96.673502 
L 1205.083371 128.16 
L 1201.450656 128.16 
L 1199.837062 100.618225 
Q 1199.349297 92.301037 1198.847353 89.259323 
Q 1198.348244 86.193845 1197.514507 86.193845 
L 1196.55032 86.193845 
z
" clip-path="url(#p97ea797ebe)" style="fill: #bd2e1f"/>
   </g>
   <g id="patch_86">
    <path d="M 1205.712032 17.28 
L 1209.014355 17.28 
L 1211.681808 56.798526 
L 1214.346752 17.28 
L 1217.656602 17.28 
L 1213.194954 81.441166 
L 1213.194954 128.16 
L 1210.17619 128.16 
L 1210.17619 81.441166 
L 1205.712032 17.28 
z
" clip-path="url(#p97ea797ebe)" style="fill: #177875"/>
   </g>
   <g id="patch_87">
    <path d="M 1230.229833 118.127891 
Q 1229.025204 123.143945 1227.729558 125.663425 
Q 1226.433912 128.16 1225.052604 128.16 
Q 1221.931275 128.16 1220.108269 113.226358 
Q 1218.285264 98.292716 1218.285264 72.754357 
Q 1218.285264 46.91824 1220.140393 32.09912 
Q 1221.998199 17.28 1225.229283 17.28 
Q 1226.474067 17.28 1227.614449 19.295584 
Q 1228.757508 21.288263 1229.769397 25.227812 
L 1229.769397 47.330518 
Q 1228.725385 42.268655 1227.692081 39.77208 
Q 1226.658776 37.252601 1225.620118 37.252601 
Q 1223.698065 37.252601 1222.65673 46.460153 
Q 1221.615395 55.644801 1221.615395 72.754357 
Q 1221.615395 89.703582 1222.619252 98.956943 
Q 1223.62311 108.187399 1225.470209 108.187399 
Q 1225.973476 108.187399 1226.404466 107.660599 
Q 1226.835455 107.110894 1227.178105 105.965677 
L 1227.178105 85.214328 
L 1225.210544 85.214328 
L 1225.210544 66.73051 
L 1230.229833 66.73051 
L 1230.229833 118.127891 
z
" clip-path="url(#p97ea797ebe)" style="fill: #787800"/>
   </g>
   <g id="patch_88">
    <path d="M 1230.858495 17.28 
L 1234.382028 17.28 
L 1236.826177 76.617197 
L 1239.286436 17.28 
L 1242.803064 17.28 
L 1242.803064 128.16 
L 1240.186306 128.16 
L 1240.186306 47.055534 
L 1237.712238 106.844235 
L 1235.956225 106.844235 
L 1233.482158 47.055534 
L 1233.482158 128.16 
L 1230.858495 128.16 
L 1230.858495 17.28 
z
" clip-path="url(#p97ea797ebe)" style="fill: #21599c"/>
   </g>
   <g id="patch_89">
    <path d="M 1247.236693 17.28 
L 1251.571329 17.28 
L 1251.571329 128.16 
L 1247.236693 128.16 
L 1247.236693 17.28 
z
" clip-path="url(#p97ea797ebe)" style="fill: #21599c"/>
   </g>
   <g id="patch_90">
    <path d="M 1256.129267 17.28 
L 1267.825217 17.28 
L 1267.825217 38.904689 
L 1260.463903 38.904689 
L 1260.463903 59.531316 
L 1267.389231 59.531316 
L 1267.389231 81.156005 
L 1260.463903 81.156005 
L 1260.463903 128.16 
L 1256.129267 128.16 
L 1256.129267 17.28 
z
" clip-path="url(#p97ea797ebe)" style="fill: #21599c"/>
   </g>
   <g id="patch_91">
    <path d="M 1268.578188 17.28 
L 1271.533193 17.28 
L 1274.554136 99.121132 
L 1277.570195 17.28 
L 1280.522758 17.28 
L 1276.302718 128.16 
L 1272.798229 128.16 
L 1268.578188 17.28 
z
" clip-path="url(#p97ea797ebe)" style="fill: #21599c"/>
   </g>
   <g id="patch_92">
    <path d="M 1281.15142 17.28 
L 1284.988195 17.28 
L 1289.836302 93.322863 
L 1289.836302 17.28 
L 1293.095989 17.28 
L 1293.095989 128.16 
L 1289.256357 128.16 
L 1284.40825 52.117137 
L 1284.40825 128.16 
L 1281.15142 128.16 
L 1281.15142 17.28 
z
" clip-path="url(#p97ea797ebe)" style="fill: #40ba47"/>
   </g>
   <g id="patch_93">
    <path d="M 1293.724651 17.28 
L 1298.059286 17.28 
L 1298.059286 106.559074 
L 1305.66922 106.559074 
L 1305.66922 128.16 
L 1293.724651 128.16 
L 1293.724651 17.28 
z
" clip-path="url(#p97ea797ebe)" style="fill: #21599c"/>
   </g>
   <g id="patch_94">
    <path d="M 1309.571075 38.904689 
L 1309.571075 106.559074 
L 1310.743765 106.559074 
Q 1312.749038 106.559074 1313.807452 97.861672 
Q 1314.868587 89.164269 1314.868587 72.601183 
Q 1314.868587 56.13315 1313.812894 47.530802 
Q 1312.759921 38.904689 1310.743765 38.904689 
L 1309.571075 38.904689 
z
M 1306.297882 17.28 
L 1309.747931 17.28 
Q 1312.640204 17.28 1314.05505 20.892036 
Q 1315.469897 24.480309 1316.482056 33.106421 
Q 1317.374498 40.615654 1317.807114 50.429936 
Q 1318.242452 60.220454 1318.242452 72.601183 
Q 1318.242452 85.172019 1317.807114 95.010064 
Q 1317.374498 104.84811 1316.482056 112.333579 
Q 1315.461734 120.959691 1314.033283 124.571727 
Q 1312.604832 128.16 1309.747931 128.16 
L 1306.297882 128.16 
L 1306.297882 17.28 
z
" clip-path="url(#p97ea797ebe)" style="fill: #6b296b"/>
   </g>
   <g id="patch_95">
    <path d="M 1325.16192 111.578719 
L 1324.928005 111.578719 
Q 1322.05882 111.578719 1320.463722 99.152512 
Q 1318.871113 86.706798 1318.871113 64.526897 
Q 1318.871113 42.38601 1320.461234 29.842759 
Q 1322.051355 17.28 1324.843398 17.28 
Q 1327.665303 17.28 1329.240493 29.725714 
Q 1330.815683 42.151921 1330.815683 64.526897 
Q 1330.815683 79.879212 1329.979563 90.978916 
Q 1329.143443 102.078621 1327.57323 107.677241 
L 1329.912375 128.16 
L 1327.05812 128.16 
L 1325.16192 111.578719 
z
M 1324.843398 34.290443 
Q 1323.474749 34.290443 1322.720748 42.210443 
Q 1321.966747 50.130443 1321.966747 64.526897 
Q 1321.966747 79.157438 1322.703329 86.940887 
Q 1323.442399 94.704828 1324.843398 94.704828 
Q 1326.219512 94.704828 1326.973513 86.784828 
Q 1327.727514 78.84532 1327.727514 64.526897 
Q 1327.727514 50.130443 1326.973513 42.210443 
Q 1326.219512 34.290443 1324.843398 34.290443 
z
" clip-path="url(#p97ea797ebe)" style="fill: #40ba47"/>
   </g>
   <g id="patch_96">
    <path d="M 1336.2908 66.446464 
Q 1337.362748 66.446464 1337.827826 63.119589 
Q 1338.292905 59.76895 1338.292905 52.117137 
Q 1338.292905 44.536614 1337.827826 41.281029 
Q 1337.362748 38.00168 1336.2908 38.00168 
L 1334.855863 38.00168 
L 1334.855863 66.446464 
L 1336.2908 66.446464 
z
M 1334.855863 86.193845 
L 1334.855863 128.16 
L 1331.444344 128.16 
L 1331.444344 17.28 
L 1336.653787 17.28 
Q 1339.268434 17.28 1340.485011 24.646652 
Q 1341.704423 31.989541 1341.704423 47.887252 
Q 1341.704423 58.865941 1341.069195 65.923669 
Q 1340.436802 72.981397 1339.160672 76.332036 
Q 1339.861126 77.662786 1340.414115 82.391702 
Q 1340.96994 87.096854 1341.537109 96.673502 
L 1343.388914 128.16 
L 1339.756199 128.16 
L 1338.142605 100.618225 
Q 1337.65484 92.301037 1337.152896 89.259323 
Q 1336.653787 86.193845 1335.82005 86.193845 
L 1334.855863 86.193845 
z
" clip-path="url(#p97ea797ebe)" style="fill: #bd2e1f"/>
   </g>
   <g id="patch_97">
    <path d="M 1347.290768 38.904689 
L 1347.290768 106.559074 
L 1348.463459 106.559074 
Q 1350.468731 106.559074 1351.527145 97.861672 
Q 1352.58828 89.164269 1352.58828 72.601183 
Q 1352.58828 56.13315 1351.532587 47.530802 
Q 1350.479615 38.904689 1348.463459 38.904689 
L 1347.290768 38.904689 
z
M 1344.017575 17.28 
L 1347.467624 17.28 
Q 1350.359897 17.28 1351.774744 20.892036 
Q 1353.18959 24.480309 1354.20175 33.106421 
Q 1355.094191 40.615654 1355.526808 50.429936 
Q 1355.962145 60.220454 1355.962145 72.601183 
Q 1355.962145 85.172019 1355.526808 95.010064 
Q 1355.094191 104.84811 1354.20175 112.333579 
Q 1353.181428 120.959691 1351.752977 124.571727 
Q 1350.324526 128.16 1347.467624 128.16 
L 1344.017575 128.16 
L 1344.017575 17.28 
z
" clip-path="url(#p97ea797ebe)" style="fill: #6b296b"/>
   </g>
   <g id="patch_98">
    <path d="M 1356.590807 17.28 
L 1360.02762 17.28 
L 1360.02762 59.531316 
L 1365.098563 59.531316 
L 1365.098563 17.28 
L 1368.535376 17.28 
L 1368.535376 128.16 
L 1365.098563 128.16 
L 1365.098563 81.156005 
L 1360.02762 81.156005 
L 1360.02762 128.16 
L 1356.590807 128.16 
L 1356.590807 17.28 
z
" clip-path="url(#p97ea797ebe)" style="fill: #177875"/>
   </g>
   <g id="patch_99">
    <path d="M 1375.454845 124.843744 
L 1375.22093 124.843744 
Q 1372.351745 124.843744 1370.756647 122.358502 
Q 1369.164038 119.86936 1369.164038 115.433379 
Q 1369.164038 111.005202 1370.754159 108.496552 
Q 1372.34428 105.984 1375.136323 105.984 
Q 1377.958227 105.984 1379.533417 108.473143 
Q 1381.108607 110.958384 1381.108607 115.433379 
Q 1381.108607 118.503842 1380.272488 120.723783 
Q 1379.436368 122.943724 1377.866155 124.063448 
L 1380.205299 128.16 
L 1377.351045 128.16 
L 1375.454845 124.843744 
z
M 1375.136323 109.386089 
Q 1373.767674 109.386089 1373.013673 110.970089 
Q 1372.259672 112.554089 1372.259672 115.433379 
Q 1372.259672 118.359488 1372.996254 119.916177 
Q 1373.735324 121.468966 1375.136323 121.468966 
Q 1376.512437 121.468966 1377.266438 119.884966 
Q 1378.020439 118.297064 1378.020439 115.433379 
Q 1378.020439 112.554089 1377.266438 110.970089 
Q 1376.512437 109.386089 1375.136323 109.386089 
z
" clip-path="url(#p97ea797ebe)" style="fill: #40ba47; opacity: 0.2"/>
   </g>
   <g id="patch_100">
    <path d="M 1374.010493 56.613171 
Q 1375.082442 56.613171 1375.54752 53.951671 
Q 1376.012598 51.27116 1376.012598 45.149709 
Q 1376.012598 39.085291 1375.54752 36.480823 
Q 1375.082442 33.857344 1374.010493 33.857344 
L 1372.575557 33.857344 
L 1372.575557 56.613171 
L 1374.010493 56.613171 
z
M 1372.575557 72.411076 
L 1372.575557 105.984 
L 1369.164038 105.984 
L 1369.164038 17.28 
L 1374.373481 17.28 
Q 1376.988128 17.28 1378.204705 23.173322 
Q 1379.424117 29.047633 1379.424117 41.765802 
Q 1379.424117 50.548753 1378.788888 56.194935 
Q 1378.156495 61.841118 1376.880366 64.521629 
Q 1377.580819 65.586229 1378.133808 69.369361 
Q 1378.689634 73.133483 1379.256802 80.794802 
L 1381.108607 105.984 
L 1377.475893 105.984 
L 1375.862298 83.95058 
Q 1375.374533 77.29683 1374.872589 74.863458 
Q 1374.373481 72.411076 1373.539743 72.411076 
L 1372.575557 72.411076 
z
" clip-path="url(#p97ea797ebe)" style="fill: #bd2e1f; opacity: 0.8"/>
   </g>
   <g id="patch_101">
    <path d="M 1381.737269 17.28 
L 1386.071905 17.28 
L 1386.071905 88.703259 
L 1393.681839 88.703259 
L 1393.681839 105.984 
L 1381.737269 105.984 
L 1381.737269 17.28 
z
" clip-path="url(#p97ea797ebe)" style="fill: #21599c; opacity: 0.8"/>
   </g>
   <g id="patch_102">
    <path d="M 1388.028076 124.843744 
L 1387.794161 124.843744 
Q 1384.924976 124.843744 1383.329878 122.358502 
Q 1381.737269 119.86936 1381.737269 115.433379 
Q 1381.737269 111.005202 1383.32739 108.496552 
Q 1384.917511 105.984 1387.709554 105.984 
Q 1390.531458 105.984 1392.106649 108.473143 
Q 1393.681839 110.958384 1393.681839 115.433379 
Q 1393.681839 118.503842 1392.845719 120.723783 
Q 1392.009599 122.943724 1390.439386 124.063448 
L 1392.778531 128.16 
L 1389.924276 128.16 
L 1388.028076 124.843744 
z
M 1387.709554 109.386089 
Q 1386.340905 109.386089 1385.586904 110.970089 
Q 1384.832903 112.554089 1384.832903 115.433379 
Q 1384.832903 118.359488 1385.569485 119.916177 
Q 1386.308555 121.468966 1387.709554 121.468966 
Q 1389.085668 121.468966 1389.839669 119.884966 
Q 1390.59367 118.297064 1390.59367 115.433379 
Q 1390.59367 112.554089 1389.839669 110.970089 
Q 1389.085668 109.386089 1387.709554 109.386089 
z
" clip-path="url(#p97ea797ebe)" style="fill: #40ba47; opacity: 0.2"/>
   </g>
   <g id="patch_103">
    <path d="M 1402.584514 89.824892 
L 1397.990825 89.824892 
L 1397.265505 105.984 
L 1394.3105 105.984 
L 1398.53054 17.28 
L 1402.03503 17.28 
L 1406.25507 105.984 
L 1403.302507 105.984 
L 1402.584514 89.824892 
z
M 1398.72347 73.361612 
L 1401.844542 73.361612 
L 1400.286448 38.077723 
L 1398.72347 73.361612 
z
" clip-path="url(#p97ea797ebe)" style="fill: #21599c; opacity: 0.8"/>
   </g>
   <g id="patch_104">
    <path d="M 1394.3105 105.984 
L 1397.265505 105.984 
L 1400.286448 122.352226 
L 1403.302507 105.984 
L 1406.25507 105.984 
L 1402.03503 128.16 
L 1398.53054 128.16 
L 1394.3105 105.984 
z
" clip-path="url(#p97ea797ebe)" style="fill: #21599c; opacity: 0.2"/>
   </g>
   <g id="patch_105">
    <path d="M 1406.883731 105.984 
L 1418.579681 105.984 
L 1418.579681 110.308938 
L 1411.218367 110.308938 
L 1411.218367 114.434263 
L 1418.143695 114.434263 
L 1418.143695 118.759201 
L 1411.218367 118.759201 
L 1411.218367 123.839815 
L 1418.828301 123.839815 
L 1418.828301 128.16 
L 1406.883731 128.16 
L 1406.883731 105.984 
z
" clip-path="url(#p97ea797ebe)" style="fill: #6b296b; opacity: 0.2"/>
   </g>
   <g id="patch_106">
    <path d="M 1413.174538 92.718975 
L 1412.940624 92.718975 
Q 1410.071438 92.718975 1408.476341 82.77801 
Q 1406.883731 72.821438 1406.883731 55.077517 
Q 1406.883731 37.364808 1408.473852 27.330207 
Q 1410.063973 17.28 1412.856016 17.28 
Q 1415.677921 17.28 1417.253111 27.236571 
Q 1418.828301 37.177537 1418.828301 55.077517 
Q 1418.828301 67.359369 1417.992181 76.239133 
Q 1417.156061 85.118897 1415.585848 89.597793 
L 1417.924993 105.984 
L 1415.070739 105.984 
L 1413.174538 92.718975 
z
M 1412.856016 30.888355 
Q 1411.487368 30.888355 1410.733367 37.224355 
Q 1409.979366 43.560355 1409.979366 55.077517 
Q 1409.979366 66.781951 1410.715947 73.008709 
Q 1411.455018 79.219862 1412.856016 79.219862 
Q 1414.23213 79.219862 1414.986131 72.883862 
Q 1415.740132 66.532256 1415.740132 55.077517 
Q 1415.740132 43.560355 1414.986131 37.224355 
Q 1414.23213 30.888355 1412.856016 30.888355 
z
" clip-path="url(#p97ea797ebe)" style="fill: #40ba47; opacity: 0.8"/>
   </g>
   <g id="patch_107">
    <path d="M 1427.730976 124.120223 
L 1423.137287 124.120223 
L 1422.411968 128.16 
L 1419.456963 128.16 
L 1423.677003 105.984 
L 1427.181492 105.984 
L 1431.401532 128.16 
L 1428.448969 128.16 
L 1427.730976 124.120223 
z
M 1423.869933 120.004403 
L 1426.991004 120.004403 
L 1425.432911 111.183431 
L 1423.869933 120.004403 
z
" clip-path="url(#p97ea797ebe)" style="fill: #21599c; opacity: 0.2"/>
   </g>
   <g id="patch_108">
    <path d="M 1419.456963 17.28 
L 1425.66565 17.28 
Q 1428.437164 17.28 1429.917793 24.808243 
Q 1431.401532 32.317476 1431.401532 46.214309 
Q 1431.401532 60.187186 1429.917793 67.696418 
Q 1428.437164 75.205651 1425.66565 75.205651 
L 1423.198972 75.205651 
L 1423.198972 105.984 
L 1419.456963 105.984 
L 1419.456963 17.28 
z
M 1423.198972 33.857344 
L 1423.198972 58.628307 
L 1425.267498 58.628307 
Q 1426.356196 58.628307 1426.950314 55.396485 
Q 1427.544432 52.164664 1427.544432 46.214309 
Q 1427.544432 40.282966 1426.950314 37.070155 
Q 1426.356196 33.857344 1425.267498 33.857344 
L 1423.198972 33.857344 
z
" clip-path="url(#p97ea797ebe)" style="fill: #787800; opacity: 0.8"/>
   </g>
   <g id="patch_109">
    <path d="M 1435.303387 110.308938 
L 1435.303387 123.839815 
L 1436.476077 123.839815 
Q 1438.48135 123.839815 1439.539764 122.100334 
Q 1440.600899 120.360854 1440.600899 117.048237 
Q 1440.600899 113.75463 1439.545205 112.03416 
Q 1438.492233 110.308938 1436.476077 110.308938 
L 1435.303387 110.308938 
z
M 1432.030194 105.984 
L 1435.480243 105.984 
Q 1438.372515 105.984 1439.787362 106.706407 
Q 1441.202208 107.424062 1442.214368 109.149284 
Q 1443.106809 110.651131 1443.539426 112.613987 
Q 1443.974763 114.572091 1443.974763 117.048237 
Q 1443.974763 119.562404 1443.539426 121.530013 
Q 1443.106809 123.497622 1442.214368 124.994716 
Q 1441.194046 126.719938 1439.765595 127.442345 
Q 1438.337144 128.16 1435.480243 128.16 
L 1432.030194 128.16 
L 1432.030194 105.984 
z
" clip-path="url(#p97ea797ebe)" style="fill: #6b296b; opacity: 0.2"/>
   </g>
   <g id="patch_110">
    <path d="M 1432.030194 17.28 
L 1443.726143 17.28 
L 1443.726143 34.579751 
L 1436.364829 34.579751 
L 1436.364829 51.081053 
L 1443.290158 51.081053 
L 1443.290158 68.380804 
L 1436.364829 68.380804 
L 1436.364829 88.703259 
L 1443.974763 88.703259 
L 1443.974763 105.984 
L 1432.030194 105.984 
L 1432.030194 17.28 
z
" clip-path="url(#p97ea797ebe)" style="fill: #6b296b; opacity: 0.8"/>
   </g>
   <g id="patch_111">
    <path d="M 1447.876618 34.579751 
L 1447.876618 88.703259 
L 1449.049308 88.703259 
Q 1451.054581 88.703259 1452.112995 81.745337 
Q 1453.17413 74.787415 1453.17413 61.536946 
Q 1453.17413 48.36252 1452.118437 41.480641 
Q 1451.065464 34.579751 1449.049308 34.579751 
L 1447.876618 34.579751 
z
M 1444.603425 17.28 
L 1448.053474 17.28 
Q 1450.945747 17.28 1452.360593 20.169629 
Q 1453.77544 23.040247 1454.787599 29.941137 
Q 1455.680041 35.948523 1456.112657 43.799949 
Q 1456.547995 51.632363 1456.547995 61.536946 
Q 1456.547995 71.593615 1456.112657 79.464051 
Q 1455.680041 87.334488 1454.787599 93.322863 
Q 1453.767277 100.223753 1452.338826 103.113382 
Q 1450.910375 105.984 1448.053474 105.984 
L 1444.603425 105.984 
L 1444.603425 17.28 
z
" clip-path="url(#p97ea797ebe)" style="fill: #6b296b; opacity: 0.8"/>
   </g>
   <g id="patch_112">
    <path d="M 1455.552073 107.042181 
L 1455.552073 111.568083 
Q 1454.30636 110.780173 1453.11904 110.381637 
Q 1451.934964 109.97852 1450.88065 109.97852 
Q 1449.482467 109.97852 1448.81095 110.523644 
Q 1448.142677 111.064187 1448.142677 112.209405 
Q 1448.142677 113.070609 1448.593599 113.5516 
Q 1449.044521 114.028011 1450.231841 114.371576 
L 1451.892792 114.843406 
Q 1454.416658 115.562603 1455.480704 117.023901 
Q 1456.547995 118.480618 1456.547995 121.174171 
Q 1456.547995 124.706023 1455.062222 126.433011 
Q 1453.57645 128.16 1450.523805 128.16 
Q 1449.086694 128.16 1447.636606 127.770626 
Q 1446.186518 127.385833 1444.736431 126.625408 
L 1444.736431 121.975823 
Q 1446.186518 123.06149 1447.539285 123.615775 
Q 1448.892051 124.16548 1450.15074 124.16548 
Q 1451.428893 124.16548 1452.106898 123.565386 
Q 1452.784904 122.960711 1452.784904 121.842978 
Q 1452.784904 120.844348 1452.324249 120.299224 
Q 1451.863595 119.7541 1450.484877 119.323498 
L 1448.973152 118.851669 
Q 1446.702321 118.164538 1445.651251 116.662012 
Q 1444.603425 115.159486 1444.603425 112.612521 
Q 1444.603425 109.419654 1446.063245 107.701827 
Q 1447.523064 105.984 1450.261038 105.984 
Q 1451.509994 105.984 1452.827076 106.249691 
Q 1454.144158 106.515381 1455.552073 107.042181 
z
" clip-path="url(#p97ea797ebe)" style="fill: #40ba47; opacity: 0.2"/>
   </g>
   <g id="patch_113">
    <path d="M 1457.176656 17.28 
L 1463.385344 17.28 
Q 1466.156857 17.28 1467.637486 26.690304 
Q 1469.121226 36.076845 1469.121226 53.447887 
Q 1469.121226 70.913982 1467.637486 80.300523 
Q 1466.156857 89.687064 1463.385344 89.687064 
L 1460.918666 89.687064 
L 1460.918666 128.16 
L 1457.176656 128.16 
L 1457.176656 17.28 
z
M 1460.918666 38.00168 
L 1460.918666 68.965384 
L 1462.987192 68.965384 
Q 1464.075889 68.965384 1464.670007 64.925607 
Q 1465.264125 60.885829 1465.264125 53.447887 
Q 1465.264125 46.033708 1464.670007 42.017694 
Q 1464.075889 38.00168 1462.987192 38.00168 
L 1460.918666 38.00168 
z
" clip-path="url(#p97ea797ebe)" style="fill: #787800"/>
   </g>
   <g id="patch_114">
    <path d="M 1478.023901 124.120223 
L 1473.430212 124.120223 
L 1472.704892 128.16 
L 1469.749887 128.16 
L 1473.969927 105.984 
L 1477.474417 105.984 
L 1481.694457 128.16 
L 1478.741894 128.16 
L 1478.023901 124.120223 
z
M 1474.162858 120.004403 
L 1477.283929 120.004403 
L 1475.725835 111.183431 
L 1474.162858 120.004403 
z
" clip-path="url(#p97ea797ebe)" style="fill: #21599c; opacity: 0.2"/>
   </g>
   <g id="patch_115">
    <path d="M 1481.694457 97.958313 
Q 1480.489828 101.971156 1479.194182 103.98674 
Q 1477.898536 105.984 1476.517228 105.984 
Q 1473.395899 105.984 1471.572893 94.037087 
Q 1469.749887 82.090173 1469.749887 61.659485 
Q 1469.749887 40.990592 1471.605017 29.135296 
Q 1473.462823 17.28 1476.693907 17.28 
Q 1477.93869 17.28 1479.079073 18.892467 
Q 1480.222132 20.48661 1481.234021 23.63825 
L 1481.234021 41.320415 
Q 1480.190009 37.270924 1479.156704 35.273664 
Q 1478.1234 33.258081 1477.084742 33.258081 
Q 1475.162689 33.258081 1474.121354 40.624122 
Q 1473.080018 47.971841 1473.080018 61.659485 
Q 1473.080018 75.218866 1474.083876 82.621554 
Q 1475.087734 90.005919 1476.934832 90.005919 
Q 1477.4381 90.005919 1477.869089 89.584479 
Q 1478.300079 89.144716 1478.642729 88.228541 
L 1478.642729 71.627462 
L 1476.675168 71.627462 
L 1476.675168 56.840408 
L 1481.694457 56.840408 
L 1481.694457 97.958313 
z
" clip-path="url(#p97ea797ebe)" style="fill: #787800; opacity: 0.8"/>
   </g>
   <g id="patch_116">
    <path d="M 1482.323119 105.984 
L 1488.531806 105.984 
Q 1491.30332 105.984 1492.783949 107.866061 
Q 1494.267688 109.743369 1494.267688 113.217577 
Q 1494.267688 116.710796 1492.783949 118.588105 
Q 1491.30332 120.465413 1488.531806 120.465413 
L 1486.065128 120.465413 
L 1486.065128 128.16 
L 1482.323119 128.16 
L 1482.323119 105.984 
z
M 1486.065128 110.128336 
L 1486.065128 116.321077 
L 1488.133654 116.321077 
Q 1489.222352 116.321077 1489.81647 115.513121 
Q 1490.410588 114.705166 1490.410588 113.217577 
Q 1490.410588 111.734742 1489.81647 110.931539 
Q 1489.222352 110.128336 1488.133654 110.128336 
L 1486.065128 110.128336 
z
" clip-path="url(#p97ea797ebe)" style="fill: #787800; opacity: 0.2"/>
   </g>
   <g id="patch_117">
    <path d="M 1482.323119 17.28 
L 1485.278123 17.28 
L 1488.299067 82.752905 
L 1491.315125 17.28 
L 1494.267688 17.28 
L 1490.047648 105.984 
L 1486.543159 105.984 
L 1482.323119 17.28 
z
" clip-path="url(#p97ea797ebe)" style="fill: #21599c; opacity: 0.8"/>
   </g>
   <g id="patch_118">
    <path d="M 1499.742805 66.446464 
Q 1500.814754 66.446464 1501.279832 63.119589 
Q 1501.74491 59.76895 1501.74491 52.117137 
Q 1501.74491 44.536614 1501.279832 41.281029 
Q 1500.814754 38.00168 1499.742805 38.00168 
L 1498.307869 38.00168 
L 1498.307869 66.446464 
L 1499.742805 66.446464 
z
M 1498.307869 86.193845 
L 1498.307869 128.16 
L 1494.89635 128.16 
L 1494.89635 17.28 
L 1500.105793 17.28 
Q 1502.72044 17.28 1503.937016 24.646652 
Q 1505.156429 31.989541 1505.156429 47.887252 
Q 1505.156429 58.865941 1504.5212 65.923669 
Q 1503.888807 72.981397 1502.612678 76.332036 
Q 1503.313131 77.662786 1503.86612 82.391702 
Q 1504.421945 87.096854 1504.989114 96.673502 
L 1506.840919 128.16 
L 1503.208205 128.16 
L 1501.59461 100.618225 
Q 1501.106845 92.301037 1500.604901 89.259323 
Q 1500.105793 86.193845 1499.272055 86.193845 
L 1498.307869 86.193845 
z
" clip-path="url(#p97ea797ebe)" style="fill: #bd2e1f"/>
   </g>
   <g id="patch_119">
    <path d="M 1507.469581 17.28 
L 1519.414151 17.28 
L 1519.414151 38.904689 
L 1515.116883 38.904689 
L 1515.116883 128.16 
L 1511.775182 128.16 
L 1511.775182 38.904689 
L 1507.469581 38.904689 
L 1507.469581 17.28 
z
" clip-path="url(#p97ea797ebe)" style="fill: #40ba47"/>
   </g>
   <g id="patch_120">
    <path d="M 1523.847779 17.28 
L 1528.182415 17.28 
L 1528.182415 128.16 
L 1523.847779 128.16 
L 1523.847779 17.28 
z
" clip-path="url(#p97ea797ebe)" style="fill: #21599c"/>
   </g>
   <g id="patch_121">
    <path d="M 1543.564691 22.570907 
L 1543.564691 45.200413 
Q 1542.318979 41.260863 1541.131658 39.268184 
Q 1539.947582 37.252601 1538.893268 37.252601 
Q 1537.495085 37.252601 1536.823568 39.978219 
Q 1536.155295 42.680934 1536.155295 48.407023 
Q 1536.155295 52.713043 1536.606217 55.118 
Q 1537.057139 57.500054 1538.244459 59.217881 
L 1539.90541 61.57703 
Q 1542.429276 65.173014 1543.493322 72.479504 
Q 1544.560613 79.76309 1544.560613 93.230853 
Q 1544.560613 110.890114 1543.074841 119.525057 
Q 1541.589069 128.16 1538.536423 128.16 
Q 1537.099312 128.16 1535.649224 126.21313 
Q 1534.199137 124.289163 1532.749049 120.48704 
L 1532.749049 97.239116 
Q 1534.199137 102.667449 1535.551903 105.438876 
Q 1536.904669 108.187399 1538.163358 108.187399 
Q 1539.441512 108.187399 1540.119517 105.186928 
Q 1540.797522 102.163553 1540.797522 96.574889 
Q 1540.797522 91.581739 1540.336868 88.856121 
Q 1539.876214 86.130502 1538.497495 83.977492 
L 1536.98577 81.618343 
Q 1534.71494 78.18269 1533.663869 70.67006 
Q 1532.616043 63.15743 1532.616043 50.422607 
Q 1532.616043 34.458269 1534.075863 25.869134 
Q 1535.535683 17.28 1538.273656 17.28 
Q 1539.522613 17.28 1540.839695 18.608453 
Q 1542.156776 19.936906 1543.564691 22.570907 
z
" clip-path="url(#p97ea797ebe)" style="fill: #40ba47"/>
   </g>
   <g id="patch_122">
    <path d="M 1553.463288 107.961114 
L 1548.869599 107.961114 
L 1548.144279 128.16 
L 1545.189274 128.16 
L 1549.409315 17.28 
L 1552.913804 17.28 
L 1557.133844 128.16 
L 1554.181281 128.16 
L 1553.463288 107.961114 
z
M 1549.602245 87.382015 
L 1552.723316 87.382015 
L 1551.165222 43.277154 
L 1549.602245 87.382015 
z
" clip-path="url(#p97ea797ebe)" style="fill: #21599c"/>
   </g>
   <g id="patch_123">
    <path d="M 1557.762506 17.28 
L 1569.707075 17.28 
L 1569.707075 38.904689 
L 1565.409808 38.904689 
L 1565.409808 128.16 
L 1562.068106 128.16 
L 1562.068106 38.904689 
L 1557.762506 38.904689 
L 1557.762506 17.28 
z
" clip-path="url(#p97ea797ebe)" style="fill: #40ba47"/>
   </g>
   <g id="patch_124">
    <path d="M 1570.335737 17.28 
L 1576.544425 17.28 
Q 1579.315938 17.28 1580.796567 26.690304 
Q 1582.280306 36.076845 1582.280306 53.447887 
Q 1582.280306 70.913982 1580.796567 80.300523 
Q 1579.315938 89.687064 1576.544425 89.687064 
L 1574.077747 89.687064 
L 1574.077747 128.16 
L 1570.335737 128.16 
L 1570.335737 17.28 
z
M 1574.077747 38.00168 
L 1574.077747 68.965384 
L 1576.146272 68.965384 
Q 1577.23497 68.965384 1577.829088 64.925607 
Q 1578.423206 60.885829 1578.423206 53.447887 
Q 1578.423206 46.033708 1577.829088 42.017694 
Q 1577.23497 38.00168 1576.146272 38.00168 
L 1574.077747 38.00168 
z
" clip-path="url(#p97ea797ebe)" style="fill: #787800"/>
   </g>
   <g id="patch_125">
    <path d="M 1587.755423 66.446464 
Q 1588.827372 66.446464 1589.29245 63.119589 
Q 1589.757528 59.76895 1589.757528 52.117137 
Q 1589.757528 44.536614 1589.29245 41.281029 
Q 1588.827372 38.00168 1587.755423 38.00168 
L 1586.320487 38.00168 
L 1586.320487 66.446464 
L 1587.755423 66.446464 
z
M 1586.320487 86.193845 
L 1586.320487 128.16 
L 1582.908968 128.16 
L 1582.908968 17.28 
L 1588.118411 17.28 
Q 1590.733058 17.28 1591.949635 24.646652 
Q 1593.169047 31.989541 1593.169047 47.887252 
Q 1593.169047 58.865941 1592.533818 65.923669 
Q 1591.901425 72.981397 1590.625296 76.332036 
Q 1591.325749 77.662786 1591.878739 82.391702 
Q 1592.434564 87.096854 1593.001732 96.673502 
L 1594.853538 128.16 
L 1591.220823 128.16 
L 1589.607229 100.618225 
Q 1589.119464 92.301037 1588.617519 89.259323 
Q 1588.118411 86.193845 1587.284673 86.193845 
L 1586.320487 86.193845 
z
" clip-path="url(#p97ea797ebe)" style="fill: #bd2e1f"/>
   </g>
   <g id="patch_126">
    <path d="M 1606.430847 22.570907 
L 1606.430847 45.200413 
Q 1605.185134 41.260863 1603.997814 39.268184 
Q 1602.813738 37.252601 1601.759424 37.252601 
Q 1600.361241 37.252601 1599.689724 39.978219 
Q 1599.021451 42.680934 1599.021451 48.407023 
Q 1599.021451 52.713043 1599.472373 55.118 
Q 1599.923295 57.500054 1601.110615 59.217881 
L 1602.771566 61.57703 
Q 1605.295432 65.173014 1606.359478 72.479504 
Q 1607.426769 79.76309 1607.426769 93.230853 
Q 1607.426769 110.890114 1605.940997 119.525057 
Q 1604.455225 128.16 1601.402579 128.16 
Q 1599.965468 128.16 1598.51538 126.21313 
Q 1597.065293 124.289163 1595.615205 120.48704 
L 1595.615205 97.239116 
Q 1597.065293 102.667449 1598.418059 105.438876 
Q 1599.770825 108.187399 1601.029514 108.187399 
Q 1602.307668 108.187399 1602.985673 105.186928 
Q 1603.663678 102.163553 1603.663678 96.574889 
Q 1603.663678 91.581739 1603.203024 88.856121 
Q 1602.742369 86.130502 1601.363651 83.977492 
L 1599.851926 81.618343 
Q 1597.581096 78.18269 1596.530025 70.67006 
Q 1595.482199 63.15743 1595.482199 50.422607 
Q 1595.482199 34.458269 1596.942019 25.869134 
Q 1598.401839 17.28 1601.139812 17.28 
Q 1602.388769 17.28 1603.70585 18.608453 
Q 1605.022932 19.936906 1606.430847 22.570907 
z
" clip-path="url(#p97ea797ebe)" style="fill: #40ba47"/>
   </g>
   <g id="patch_127">
    <path d="M 1616.329444 107.961114 
L 1611.735755 107.961114 
L 1611.010435 128.16 
L 1608.05543 128.16 
L 1612.275471 17.28 
L 1615.77996 17.28 
L 1620 128.16 
L 1617.047437 128.16 
L 1616.329444 107.961114 
z
M 1612.468401 87.382015 
L 1615.589472 87.382015 
L 1614.031378 43.277154 
L 1612.468401 87.382015 
z
" clip-path="url(#p97ea797ebe)" style="fill: #21599c"/>
   </g>
   <g id="matplotlib.axis_1">
    <g id="xtick_1">
     <g id="line2d_2">
      <defs>
       <path id="mc51d11581d" d="M 0 0 
L 0 3.5 
" style="stroke: #000000; stroke-width: 0.8"/>
      </defs>
      <g>
       <use xlink:href="#mc51d11581d" x="230.972285" y="128.16" style="stroke: #000000; stroke-width: 0.8"/>
      </g>
     </g>
     <g id="text_1">
      <!-- 0 -->
      <g transform="translate(227.791035 142.758438) scale(0.1 -0.1)">
       <defs>
        <path id="DejaVuSans-30" d="M 2034 4250 
Q 1547 4250 1301 3770 
Q 1056 3291 1056 2328 
Q 1056 1369 1301 889 
Q 1547 409 2034 409 
Q 2525 409 2770 889 
Q 3016 1369 3016 2328 
Q 3016 3291 2770 3770 
Q 2525 4250 2034 4250 
z
M 2034 4750 
Q 2819 4750 3233 4129 
Q 3647 3509 3647 2328 
Q 3647 1150 3233 529 
Q 2819 -91 2034 -91 
Q 1250 -91 836 529 
Q 422 1150 422 2328 
Q 422 3509 836 4129 
Q 1250 4750 2034 4750 
z
" transform="scale(0.015625)"/>
       </defs>
       <use xlink:href="#DejaVuSans-30"/>
      </g>
     </g>
    </g>
    <g id="xtick_2">
     <g id="line2d_3">
      <g>
       <use xlink:href="#mc51d11581d" x="482.436909" y="128.16" style="stroke: #000000; stroke-width: 0.8"/>
      </g>
     </g>
     <g id="text_2">
      <!-- 20 -->
      <g transform="translate(476.074409 142.758438) scale(0.1 -0.1)">
       <defs>
        <path id="DejaVuSans-32" d="M 1228 531 
L 3431 531 
L 3431 0 
L 469 0 
L 469 531 
Q 828 903 1448 1529 
Q 2069 2156 2228 2338 
Q 2531 2678 2651 2914 
Q 2772 3150 2772 3378 
Q 2772 3750 2511 3984 
Q 2250 4219 1831 4219 
Q 1534 4219 1204 4116 
Q 875 4013 500 3803 
L 500 4441 
Q 881 4594 1212 4672 
Q 1544 4750 1819 4750 
Q 2544 4750 2975 4387 
Q 3406 4025 3406 3419 
Q 3406 3131 3298 2873 
Q 3191 2616 2906 2266 
Q 2828 2175 2409 1742 
Q 1991 1309 1228 531 
z
" transform="scale(0.015625)"/>
       </defs>
       <use xlink:href="#DejaVuSans-32"/>
       <use xlink:href="#DejaVuSans-30" x="63.623047"/>
      </g>
     </g>
    </g>
    <g id="xtick_3">
     <g id="line2d_4">
      <g>
       <use xlink:href="#mc51d11581d" x="733.901532" y="128.16" style="stroke: #000000; stroke-width: 0.8"/>
      </g>
     </g>
     <g id="text_3">
      <!-- 40 -->
      <g transform="translate(727.539032 142.758438) scale(0.1 -0.1)">
       <defs>
        <path id="DejaVuSans-34" d="M 2419 4116 
L 825 1625 
L 2419 1625 
L 2419 4116 
z
M 2253 4666 
L 3047 4666 
L 3047 1625 
L 3713 1625 
L 3713 1100 
L 3047 1100 
L 3047 0 
L 2419 0 
L 2419 1100 
L 313 1100 
L 313 1709 
L 2253 4666 
z
" transform="scale(0.015625)"/>
       </defs>
       <use xlink:href="#DejaVuSans-34"/>
       <use xlink:href="#DejaVuSans-30" x="63.623047"/>
      </g>
     </g>
    </g>
    <g id="xtick_4">
     <g id="line2d_5">
      <g>
       <use xlink:href="#mc51d11581d" x="985.366156" y="128.16" style="stroke: #000000; stroke-width: 0.8"/>
      </g>
     </g>
     <g id="text_4">
      <!-- 60 -->
      <g transform="translate(979.003656 142.758438) scale(0.1 -0.1)">
       <defs>
        <path id="DejaVuSans-36" d="M 2113 2584 
Q 1688 2584 1439 2293 
Q 1191 2003 1191 1497 
Q 1191 994 1439 701 
Q 1688 409 2113 409 
Q 2538 409 2786 701 
Q 3034 994 3034 1497 
Q 3034 2003 2786 2293 
Q 2538 2584 2113 2584 
z
M 3366 4563 
L 3366 3988 
Q 3128 4100 2886 4159 
Q 2644 4219 2406 4219 
Q 1781 4219 1451 3797 
Q 1122 3375 1075 2522 
Q 1259 2794 1537 2939 
Q 1816 3084 2150 3084 
Q 2853 3084 3261 2657 
Q 3669 2231 3669 1497 
Q 3669 778 3244 343 
Q 2819 -91 2113 -91 
Q 1303 -91 875 529 
Q 447 1150 447 2328 
Q 447 3434 972 4092 
Q 1497 4750 2381 4750 
Q 2619 4750 2861 4703 
Q 3103 4656 3366 4563 
z
" transform="scale(0.015625)"/>
       </defs>
       <use xlink:href="#DejaVuSans-36"/>
       <use xlink:href="#DejaVuSans-30" x="63.623047"/>
      </g>
     </g>
    </g>
    <g id="xtick_5">
     <g id="line2d_6">
      <g>
       <use xlink:href="#mc51d11581d" x="1236.83078" y="128.16" style="stroke: #000000; stroke-width: 0.8"/>
      </g>
     </g>
     <g id="text_5">
      <!-- 80 -->
      <g transform="translate(1230.46828 142.758438) scale(0.1 -0.1)">
       <defs>
        <path id="DejaVuSans-38" d="M 2034 2216 
Q 1584 2216 1326 1975 
Q 1069 1734 1069 1313 
Q 1069 891 1326 650 
Q 1584 409 2034 409 
Q 2484 409 2743 651 
Q 3003 894 3003 1313 
Q 3003 1734 2745 1975 
Q 2488 2216 2034 2216 
z
M 1403 2484 
Q 997 2584 770 2862 
Q 544 3141 544 3541 
Q 544 4100 942 4425 
Q 1341 4750 2034 4750 
Q 2731 4750 3128 4425 
Q 3525 4100 3525 3541 
Q 3525 3141 3298 2862 
Q 3072 2584 2669 2484 
Q 3125 2378 3379 2068 
Q 3634 1759 3634 1313 
Q 3634 634 3220 271 
Q 2806 -91 2034 -91 
Q 1263 -91 848 271 
Q 434 634 434 1313 
Q 434 1759 690 2068 
Q 947 2378 1403 2484 
z
M 1172 3481 
Q 1172 3119 1398 2916 
Q 1625 2713 2034 2713 
Q 2441 2713 2670 2916 
Q 2900 3119 2900 3481 
Q 2900 3844 2670 4047 
Q 2441 4250 2034 4250 
Q 1625 4250 1398 4047 
Q 1172 3844 1172 3481 
z
" transform="scale(0.015625)"/>
       </defs>
       <use xlink:href="#DejaVuSans-38"/>
       <use xlink:href="#DejaVuSans-30" x="63.623047"/>
      </g>
     </g>
    </g>
    <g id="xtick_6">
     <g id="line2d_7">
      <g>
       <use xlink:href="#mc51d11581d" x="1488.295403" y="128.16" style="stroke: #000000; stroke-width: 0.8"/>
      </g>
     </g>
     <g id="text_6">
      <!-- 100 -->
      <g transform="translate(1478.751653 142.758438) scale(0.1 -0.1)">
       <defs>
        <path id="DejaVuSans-31" d="M 794 531 
L 1825 531 
L 1825 4091 
L 703 3866 
L 703 4441 
L 1819 4666 
L 2450 4666 
L 2450 531 
L 3481 531 
L 3481 0 
L 794 0 
L 794 531 
z
" transform="scale(0.015625)"/>
       </defs>
       <use xlink:href="#DejaVuSans-31"/>
       <use xlink:href="#DejaVuSans-30" x="63.623047"/>
       <use xlink:href="#DejaVuSans-30" x="127.246094"/>
      </g>
     </g>
    </g>
   </g>
   <g id="matplotlib.axis_2">
    <g id="ytick_1">
     <g id="line2d_8">
      <defs>
       <path id="me000bf1466" d="M 0 0 
L -3.5 0 
" style="stroke: #000000; stroke-width: 0.8"/>
      </defs>
      <g>
       <use xlink:href="#me000bf1466" x="225" y="128.16" style="stroke: #000000; stroke-width: 0.8"/>
      </g>
     </g>
     <g id="text_7">
      <!-- 0 -->
      <g transform="translate(211.6375 131.959219) scale(0.1 -0.1)">
       <use xlink:href="#DejaVuSans-30"/>
      </g>
     </g>
    </g>
    <g id="ytick_2">
     <g id="line2d_9">
      <g>
       <use xlink:href="#me000bf1466" x="225" y="105.984" style="stroke: #000000; stroke-width: 0.8"/>
      </g>
     </g>
     <g id="text_8">
      <!-- 1 -->
      <g transform="translate(211.6375 109.783219) scale(0.1 -0.1)">
       <use xlink:href="#DejaVuSans-31"/>
      </g>
     </g>
    </g>
    <g id="ytick_3">
     <g id="line2d_10">
      <g>
       <use xlink:href="#me000bf1466" x="225" y="83.808" style="stroke: #000000; stroke-width: 0.8"/>
      </g>
     </g>
     <g id="text_9">
      <!-- 2 -->
      <g transform="translate(211.6375 87.607219) scale(0.1 -0.1)">
       <use xlink:href="#DejaVuSans-32"/>
      </g>
     </g>
    </g>
    <g id="ytick_4">
     <g id="line2d_11">
      <g>
       <use xlink:href="#me000bf1466" x="225" y="61.632" style="stroke: #000000; stroke-width: 0.8"/>
      </g>
     </g>
     <g id="text_10">
      <!-- 3 -->
      <g transform="translate(211.6375 65.431219) scale(0.1 -0.1)">
       <defs>
        <path id="DejaVuSans-33" d="M 2597 2516 
Q 3050 2419 3304 2112 
Q 3559 1806 3559 1356 
Q 3559 666 3084 287 
Q 2609 -91 1734 -91 
Q 1441 -91 1130 -33 
Q 819 25 488 141 
L 488 750 
Q 750 597 1062 519 
Q 1375 441 1716 441 
Q 2309 441 2620 675 
Q 2931 909 2931 1356 
Q 2931 1769 2642 2001 
Q 2353 2234 1838 2234 
L 1294 2234 
L 1294 2753 
L 1863 2753 
Q 2328 2753 2575 2939 
Q 2822 3125 2822 3475 
Q 2822 3834 2567 4026 
Q 2313 4219 1838 4219 
Q 1578 4219 1281 4162 
Q 984 4106 628 3988 
L 628 4550 
Q 988 4650 1302 4700 
Q 1616 4750 1894 4750 
Q 2613 4750 3031 4423 
Q 3450 4097 3450 3541 
Q 3450 3153 3228 2886 
Q 3006 2619 2597 2516 
z
" transform="scale(0.015625)"/>
       </defs>
       <use xlink:href="#DejaVuSans-33"/>
      </g>
     </g>
    </g>
    <g id="ytick_5">
     <g id="line2d_12">
      <g>
       <use xlink:href="#me000bf1466" x="225" y="39.456" style="stroke: #000000; stroke-width: 0.8"/>
      </g>
     </g>
     <g id="text_11">
      <!-- 4 -->
      <g transform="translate(211.6375 43.255219) scale(0.1 -0.1)">
       <use xlink:href="#DejaVuSans-34"/>
      </g>
     </g>
    </g>
    <g id="ytick_6">
     <g id="line2d_13">
      <g>
       <use xlink:href="#me000bf1466" x="225" y="17.28" style="stroke: #000000; stroke-width: 0.8"/>
      </g>
     </g>
     <g id="text_12">
      <!-- 5 -->
      <g transform="translate(211.6375 21.079219) scale(0.1 -0.1)">
       <defs>
        <path id="DejaVuSans-35" d="M 691 4666 
L 3169 4666 
L 3169 4134 
L 1269 4134 
L 1269 2991 
Q 1406 3038 1543 3061 
Q 1681 3084 1819 3084 
Q 2600 3084 3056 2656 
Q 3513 2228 3513 1497 
Q 3513 744 3044 326 
Q 2575 -91 1722 -91 
Q 1428 -91 1123 -41 
Q 819 9 494 109 
L 494 744 
Q 775 591 1075 516 
Q 1375 441 1709 441 
Q 2250 441 2565 725 
Q 2881 1009 2881 1497 
Q 2881 1984 2565 2268 
Q 2250 2553 1709 2553 
Q 1456 2553 1204 2497 
Q 953 2441 691 2322 
L 691 4666 
z
" transform="scale(0.015625)"/>
       </defs>
       <use xlink:href="#DejaVuSans-35"/>
      </g>
     </g>
    </g>
   </g>
  </g>
 </g>
 <defs>
  <clipPath id="p97ea797ebe">
   <rect x="225" y="17.28" width="1395" height="110.88"/>
  </clipPath>
 </defs>
</svg>
