<?xml version="1.0" encoding="utf-8" standalone="no"?>
<!DOCTYPE svg PUBLIC "-//W3C//DTD SVG 1.1//EN"
  "http://www.w3.org/Graphics/SVG/1.1/DTD/svg11.dtd">
<svg xmlns:xlink="http://www.w3.org/1999/xlink" width="1800pt" height="144pt" viewBox="0 0 1800 144" xmlns="http://www.w3.org/2000/svg" version="1.1">
 <metadata>
  <rdf:RDF xmlns:dc="http://purl.org/dc/elements/1.1/" xmlns:cc="http://creativecommons.org/ns#" xmlns:rdf="http://www.w3.org/1999/02/22-rdf-syntax-ns#">
   <cc:Work>
    <dc:type rdf:resource="http://purl.org/dc/dcmitype/StillImage"/>
    <dc:date>2025-05-09T21:11:03.977517</dc:date>
    <dc:format>image/svg+xml</dc:format>
    <dc:creator>
     <cc:Agent>
      <dc:title>Matplotlib v3.8.0, https://matplotlib.org/</dc:title>
     </cc:Agent>
    </dc:creator>
   </cc:Work>
  </rdf:RDF>
 </metadata>
 <defs>
  <style type="text/css">*{stroke-linejoin: round; stroke-linecap: butt}</style>
 </defs>
 <g id="figure_1">
  <g id="patch_1">
   <path d="M 0 144 
L 1800 144 
L 1800 0 
L 0 0 
z
" style="fill: #ffffff"/>
  </g>
  <g id="axes_1">
   <g id="patch_2">
    <path d="M 225 128.16 
L 1620 128.16 
L 1620 17.28 
L 225 17.28 
z
" style="fill: #ffffff"/>
   </g>
   <g id="line2d_1">
    <path d="M 225 128.16 
L 1620 128.16 
" clip-path="url(#p9d32e55c9d)" style="fill: none; stroke: #000000; stroke-width: 1.5; stroke-linecap: square"/>
   </g>
   <g id="patch_3">
    <path d="M 225 17.28 
L 228.724974 17.28 
L 231.308855 76.617197 
L 233.909767 17.28 
L 237.627442 17.28 
L 237.627442 128.16 
L 234.861083 128.16 
L 234.861083 47.055534 
L 232.245572 106.844235 
L 230.389168 106.844235 
L 227.773658 47.055534 
L 227.773658 128.16 
L 225 128.16 
L 225 17.28 
z
" clip-path="url(#p9d32e55c9d)" style="fill: #21599c"/>
   </g>
   <g id="patch_4">
    <path d="M 247.039084 107.961114 
L 242.182773 107.961114 
L 241.415987 128.16 
L 238.292044 128.16 
L 242.753344 17.28 
L 246.458185 17.28 
L 250.919485 128.16 
L 247.798124 128.16 
L 247.039084 107.961114 
z
M 242.957304 87.382015 
L 246.256807 87.382015 
L 244.609637 43.277154 
L 242.957304 87.382015 
z
" clip-path="url(#p9d32e55c9d)" style="fill: #21599c"/>
   </g>
   <g id="patch_5">
    <path d="M 251.584088 17.28 
L 254.70803 17.28 
L 257.901681 99.121132 
L 261.090168 17.28 
L 264.211529 17.28 
L 259.750229 128.16 
L 256.045388 128.16 
L 251.584088 17.28 
z
" clip-path="url(#p9d32e55c9d)" style="fill: #21599c"/>
   </g>
   <g id="patch_6">
    <path d="M 273.623171 107.961114 
L 268.76686 107.961114 
L 268.000074 128.16 
L 264.876131 128.16 
L 269.337432 17.28 
L 273.042273 17.28 
L 277.503573 128.16 
L 274.382212 128.16 
L 273.623171 107.961114 
z
M 269.541392 87.382015 
L 272.840895 87.382015 
L 271.193725 43.277154 
L 269.541392 87.382015 
z
" clip-path="url(#p9d32e55c9d)" style="fill: #21599c"/>
   </g>
   <g id="patch_7">
    <path d="M 278.168175 17.28 
L 281.292118 17.28 
L 284.485769 99.121132 
L 287.674256 17.28 
L 290.795617 17.28 
L 286.334317 128.16 
L 282.629475 128.16 
L 278.168175 17.28 
z
" clip-path="url(#p9d32e55c9d)" style="fill: #21599c"/>
   </g>
   <g id="patch_8">
    <path d="M 298.110672 111.578719 
L 297.863384 111.578719 
Q 294.830168 111.578719 293.143878 99.152512 
Q 291.460219 86.706798 291.460219 64.526897 
Q 291.460219 42.38601 293.141247 29.842759 
Q 294.822275 17.28 297.77394 17.28 
Q 300.757173 17.28 302.422417 29.725714 
Q 304.087661 42.151921 304.087661 64.526897 
Q 304.087661 79.879212 303.20374 90.978916 
Q 302.319819 102.078621 300.659837 107.677241 
L 303.132711 128.16 
L 300.115278 128.16 
L 298.110672 111.578719 
z
M 297.77394 34.290443 
Q 296.327046 34.290443 295.529938 42.210443 
Q 294.732831 50.130443 294.732831 64.526897 
Q 294.732831 79.157438 295.511523 86.940887 
Q 296.292846 94.704828 297.77394 94.704828 
Q 299.228726 94.704828 300.025834 86.784828 
Q 300.822941 78.84532 300.822941 64.526897 
Q 300.822941 50.130443 300.025834 42.210443 
Q 299.228726 34.290443 297.77394 34.290443 
z
" clip-path="url(#p9d32e55c9d)" style="fill: #40ba47"/>
   </g>
   <g id="patch_9">
    <path d="M 308.212585 38.904689 
L 308.212585 106.559074 
L 309.452318 106.559074 
Q 311.572232 106.559074 312.691156 97.861672 
Q 313.812956 89.164269 313.812956 72.601183 
Q 313.812956 56.13315 312.696908 47.530802 
Q 311.583738 38.904689 309.452318 38.904689 
L 308.212585 38.904689 
z
M 304.752263 17.28 
L 308.399551 17.28 
Q 311.457176 17.28 312.952909 20.892036 
Q 314.448642 24.480309 315.518667 33.106421 
Q 316.46213 40.615654 316.919479 50.429936 
Q 317.379705 60.220454 317.379705 72.601183 
Q 317.379705 85.172019 316.919479 95.010064 
Q 316.46213 104.84811 315.518667 112.333579 
Q 314.440013 120.959691 312.929898 124.571727 
Q 311.419782 128.16 308.399551 128.16 
L 304.752263 128.16 
L 304.752263 17.28 
z
" clip-path="url(#p9d32e55c9d)" style="fill: #6b296b"/>
   </g>
   <g id="patch_10">
    <path d="M 318.044307 17.28 
L 321.371977 17.28 
L 321.371977 57.749061 
L 326.168468 17.28 
L 330.032769 17.28 
L 323.817247 69.797102 
L 330.671748 128.16 
L 326.505937 128.16 
L 321.371977 84.48288 
L 321.371977 128.16 
L 318.044307 128.16 
L 318.044307 17.28 
z
" clip-path="url(#p9d32e55c9d)" style="fill: #bd2e1f"/>
   </g>
   <g id="patch_11">
    <path d="M 340.083391 107.961114 
L 335.227079 107.961114 
L 334.460293 128.16 
L 331.336351 128.16 
L 335.797651 17.28 
L 339.502492 17.28 
L 343.963792 128.16 
L 340.842431 128.16 
L 340.083391 107.961114 
z
M 336.001611 87.382015 
L 339.301114 87.382015 
L 337.653944 43.277154 
L 336.001611 87.382015 
z
" clip-path="url(#p9d32e55c9d)" style="fill: #21599c"/>
   </g>
   <g id="patch_12">
    <path d="M 344.628394 17.28 
L 348.261691 17.28 
L 348.261691 59.531316 
L 353.62254 59.531316 
L 353.62254 17.28 
L 357.255836 17.28 
L 357.255836 128.16 
L 353.62254 128.16 
L 353.62254 81.156005 
L 348.261691 81.156005 
L 348.261691 128.16 
L 344.628394 128.16 
L 344.628394 17.28 
z
" clip-path="url(#p9d32e55c9d)" style="fill: #177875"/>
   </g>
   <g id="patch_13">
    <path d="M 361.38076 38.904689 
L 361.38076 106.559074 
L 362.620493 106.559074 
Q 364.740407 106.559074 365.859331 97.861672 
Q 366.981131 89.164269 366.981131 72.601183 
Q 366.981131 56.13315 365.865084 47.530802 
Q 364.751913 38.904689 362.620493 38.904689 
L 361.38076 38.904689 
z
M 357.920438 17.28 
L 361.567727 17.28 
Q 364.625351 17.28 366.121084 20.892036 
Q 367.616818 24.480309 368.686842 33.106421 
Q 369.630305 40.615654 370.087654 50.429936 
Q 370.54788 60.220454 370.54788 72.601183 
Q 370.54788 85.172019 370.087654 95.010064 
Q 369.630305 104.84811 368.686842 112.333579 
Q 367.608189 120.959691 366.098073 124.571727 
Q 364.587958 128.16 361.567727 128.16 
L 357.920438 128.16 
L 357.920438 17.28 
z
" clip-path="url(#p9d32e55c9d)" style="fill: #6b296b"/>
   </g>
   <g id="patch_14">
    <path d="M 375.234979 17.28 
L 379.817427 17.28 
L 379.817427 128.16 
L 375.234979 128.16 
L 375.234979 17.28 
z
" clip-path="url(#p9d32e55c9d)" style="fill: #21599c"/>
   </g>
   <g id="patch_15">
    <path d="M 396.079109 22.570907 
L 396.079109 45.200413 
Q 394.762179 41.260863 393.50698 39.268184 
Q 392.25521 37.252601 391.14062 37.252601 
Q 389.662503 37.252601 388.952595 39.978219 
Q 388.246117 42.680934 388.246117 48.407023 
Q 388.246117 52.713043 388.722819 55.118 
Q 389.19952 57.500054 390.454719 59.217881 
L 392.210626 61.57703 
Q 394.878782 65.173014 396.00366 72.479504 
Q 397.131968 79.76309 397.131968 93.230853 
Q 397.131968 110.890114 395.561254 119.525057 
Q 393.99054 128.16 390.763375 128.16 
Q 389.244103 128.16 387.711114 126.21313 
Q 386.178125 124.289163 384.645136 120.48704 
L 384.645136 97.239116 
Q 386.178125 102.667449 387.608229 105.438876 
Q 389.038333 108.187399 390.368981 108.187399 
Q 391.720207 108.187399 392.436974 105.186928 
Q 393.15374 102.163553 393.15374 96.574889 
Q 393.15374 91.581739 392.666751 88.856121 
Q 392.179761 86.130502 390.722221 83.977492 
L 389.124071 81.618343 
Q 386.723416 78.18269 385.612256 70.67006 
Q 384.504526 63.15743 384.504526 50.422607 
Q 384.504526 34.458269 386.047804 25.869134 
Q 387.591081 17.28 390.485585 17.28 
Q 391.805945 17.28 393.198324 18.608453 
Q 394.590704 19.936906 396.079109 22.570907 
z
" clip-path="url(#p9d32e55c9d)" style="fill: #40ba47"/>
   </g>
   <g id="patch_16">
    <path d="M 397.79657 17.28 
L 410.424011 17.28 
L 410.424011 38.904689 
L 405.881069 38.904689 
L 405.881069 128.16 
L 402.348322 128.16 
L 402.348322 38.904689 
L 397.79657 38.904689 
L 397.79657 17.28 
z
" clip-path="url(#p9d32e55c9d)" style="fill: #40ba47"/>
   </g>
   <g id="patch_17">
    <path d="M 422.663197 22.570907 
L 422.663197 45.200413 
Q 421.346267 41.260863 420.091067 39.268184 
Q 418.839298 37.252601 417.724708 37.252601 
Q 416.246591 37.252601 415.536683 39.978219 
Q 414.830205 42.680934 414.830205 48.407023 
Q 414.830205 52.713043 415.306906 55.118 
Q 415.783608 57.500054 417.038807 59.217881 
L 418.794714 61.57703 
Q 421.46287 65.173014 422.587748 72.479504 
Q 423.716055 79.76309 423.716055 93.230853 
Q 423.716055 110.890114 422.145341 119.525057 
Q 420.574628 128.16 417.347462 128.16 
Q 415.828191 128.16 414.295202 126.21313 
Q 412.762213 124.289163 411.229223 120.48704 
L 411.229223 97.239116 
Q 412.762213 102.667449 414.192317 105.438876 
Q 415.622421 108.187399 416.953069 108.187399 
Q 418.304295 108.187399 419.021061 105.186928 
Q 419.737828 102.163553 419.737828 96.574889 
Q 419.737828 91.581739 419.250838 88.856121 
Q 418.763848 86.130502 417.306308 83.977492 
L 415.708158 81.618343 
Q 413.307504 78.18269 412.196344 70.67006 
Q 411.088614 63.15743 411.088614 50.422607 
Q 411.088614 34.458269 412.631891 25.869134 
Q 414.175169 17.28 417.069672 17.28 
Q 418.390032 17.28 419.782412 18.608453 
Q 421.174791 19.936906 422.663197 22.570907 
z
" clip-path="url(#p9d32e55c9d)" style="fill: #40ba47"/>
   </g>
   <g id="patch_18">
    <path d="M 437.008099 118.127891 
Q 435.734601 123.143945 434.364883 125.663425 
Q 432.995165 128.16 431.534887 128.16 
Q 428.235112 128.16 426.307885 113.226358 
Q 424.380657 98.292716 424.380657 72.754357 
Q 424.380657 46.91824 426.341845 32.09912 
Q 428.305862 17.28 431.721667 17.28 
Q 433.037615 17.28 434.243193 19.295584 
Q 435.451601 21.288263 436.52134 25.227812 
L 436.52134 47.330518 
Q 435.417641 42.268655 434.325263 39.77208 
Q 433.232885 37.252601 432.134846 37.252601 
Q 430.102909 37.252601 429.002041 46.460153 
Q 427.901172 55.644801 427.901172 72.754357 
Q 427.901172 89.703582 428.962421 98.956943 
Q 430.023669 108.187399 431.976366 108.187399 
Q 432.508406 108.187399 432.964035 107.660599 
Q 433.419664 107.110894 433.781904 105.965677 
L 433.781904 85.214328 
L 431.701857 85.214328 
L 431.701857 66.73051 
L 437.008099 66.73051 
L 437.008099 118.127891 
z
" clip-path="url(#p9d32e55c9d)" style="fill: #787800"/>
   </g>
   <g id="patch_19">
    <path d="M 446.419741 107.961114 
L 441.56343 107.961114 
L 440.796644 128.16 
L 437.672701 128.16 
L 442.134001 17.28 
L 445.838843 17.28 
L 450.300143 128.16 
L 447.178782 128.16 
L 446.419741 107.961114 
z
M 442.337961 87.382015 
L 445.637465 87.382015 
L 443.990295 43.277154 
L 442.337961 87.382015 
z
" clip-path="url(#p9d32e55c9d)" style="fill: #21599c"/>
   </g>
   <g id="patch_20">
    <path d="M 462.539328 22.570907 
L 462.539328 45.200413 
Q 461.222398 41.260863 459.967199 39.268184 
Q 458.715429 37.252601 457.60084 37.252601 
Q 456.122722 37.252601 455.412815 39.978219 
Q 454.706336 42.680934 454.706336 48.407023 
Q 454.706336 52.713043 455.183038 55.118 
Q 455.659739 57.500054 456.914938 59.217881 
L 458.670845 61.57703 
Q 461.339001 65.173014 462.463879 72.479504 
Q 463.592187 79.76309 463.592187 93.230853 
Q 463.592187 110.890114 462.021473 119.525057 
Q 460.450759 128.16 457.223594 128.16 
Q 455.704323 128.16 454.171333 126.21313 
Q 452.638344 124.289163 451.105355 120.48704 
L 451.105355 97.239116 
Q 452.638344 102.667449 454.068448 105.438876 
Q 455.498552 108.187399 456.829201 108.187399 
Q 458.180426 108.187399 458.897193 105.186928 
Q 459.61396 102.163553 459.61396 96.574889 
Q 459.61396 91.581739 459.12697 88.856121 
Q 458.63998 86.130502 457.18244 83.977492 
L 455.58429 81.618343 
Q 453.183636 78.18269 452.072476 70.67006 
Q 450.964745 63.15743 450.964745 50.422607 
Q 450.964745 34.458269 452.508023 25.869134 
Q 454.051301 17.28 456.945804 17.28 
Q 458.266164 17.28 459.658543 18.608453 
Q 461.050923 19.936906 462.539328 22.570907 
z
" clip-path="url(#p9d32e55c9d)" style="fill: #40ba47"/>
   </g>
   <g id="patch_21">
    <path d="M 473.003829 107.961114 
L 468.147518 107.961114 
L 467.380732 128.16 
L 464.256789 128.16 
L 468.718089 17.28 
L 472.42293 17.28 
L 476.884231 128.16 
L 473.76287 128.16 
L 473.003829 107.961114 
z
M 468.922049 87.382015 
L 472.221552 87.382015 
L 470.574382 43.277154 
L 468.922049 87.382015 
z
" clip-path="url(#p9d32e55c9d)" style="fill: #21599c"/>
   </g>
   <g id="patch_22">
    <path d="M 490.176274 118.127891 
Q 488.902776 123.143945 487.533058 125.663425 
Q 486.16334 128.16 484.703062 128.16 
Q 481.403287 128.16 479.47606 113.226358 
Q 477.548833 98.292716 477.548833 72.754357 
Q 477.548833 46.91824 479.51002 32.09912 
Q 481.474037 17.28 484.889842 17.28 
Q 486.20579 17.28 487.411368 19.295584 
Q 488.619777 21.288263 489.689515 25.227812 
L 489.689515 47.330518 
Q 488.585817 42.268655 487.493438 39.77208 
Q 486.40106 37.252601 485.303022 37.252601 
Q 483.271084 37.252601 482.170216 46.460153 
Q 481.069348 55.644801 481.069348 72.754357 
Q 481.069348 89.703582 482.130596 98.956943 
Q 483.191845 108.187399 485.144542 108.187399 
Q 485.676581 108.187399 486.13221 107.660599 
Q 486.58784 107.110894 486.950079 105.965677 
L 486.950079 85.214328 
L 484.870032 85.214328 
L 484.870032 66.73051 
L 490.176274 66.73051 
L 490.176274 118.127891 
z
" clip-path="url(#p9d32e55c9d)" style="fill: #787800"/>
   </g>
   <g id="patch_23">
    <path d="M 490.840877 17.28 
L 493.964819 17.28 
L 497.15847 99.121132 
L 500.346957 17.28 
L 503.468318 17.28 
L 499.007018 128.16 
L 495.302177 128.16 
L 490.840877 17.28 
z
" clip-path="url(#p9d32e55c9d)" style="fill: #21599c"/>
   </g>
   <g id="patch_24">
    <path d="M 515.707504 22.570907 
L 515.707504 45.200413 
Q 514.390573 41.260863 513.135374 39.268184 
Q 511.883604 37.252601 510.769015 37.252601 
Q 509.290898 37.252601 508.58099 39.978219 
Q 507.874512 42.680934 507.874512 48.407023 
Q 507.874512 52.713043 508.351213 55.118 
Q 508.827914 57.500054 510.083114 59.217881 
L 511.839021 61.57703 
Q 514.507177 65.173014 515.632055 72.479504 
Q 516.760362 79.76309 516.760362 93.230853 
Q 516.760362 110.890114 515.189648 119.525057 
Q 513.618934 128.16 510.391769 128.16 
Q 508.872498 128.16 507.339509 126.21313 
Q 505.806519 124.289163 504.27353 120.48704 
L 504.27353 97.239116 
Q 505.806519 102.667449 507.236624 105.438876 
Q 508.666728 108.187399 509.997376 108.187399 
Q 511.348601 108.187399 512.065368 105.186928 
Q 512.782135 102.163553 512.782135 96.574889 
Q 512.782135 91.581739 512.295145 88.856121 
Q 511.808155 86.130502 510.350615 83.977492 
L 508.752465 81.618343 
Q 506.351811 78.18269 505.240651 70.67006 
Q 504.13292 63.15743 504.13292 50.422607 
Q 504.13292 34.458269 505.676198 25.869134 
Q 507.219476 17.28 510.113979 17.28 
Q 511.434339 17.28 512.826719 18.608453 
Q 514.219098 19.936906 515.707504 22.570907 
z
" clip-path="url(#p9d32e55c9d)" style="fill: #40ba47"/>
   </g>
   <g id="patch_25">
    <path d="M 526.172004 107.961114 
L 521.315693 107.961114 
L 520.548907 128.16 
L 517.424964 128.16 
L 521.886264 17.28 
L 525.591106 17.28 
L 530.052406 128.16 
L 526.931045 128.16 
L 526.172004 107.961114 
z
M 522.090224 87.382015 
L 525.389728 87.382015 
L 523.742558 43.277154 
L 522.090224 87.382015 
z
" clip-path="url(#p9d32e55c9d)" style="fill: #21599c"/>
   </g>
   <g id="patch_26">
    <path d="M 530.717008 17.28 
L 535.299455 17.28 
L 535.299455 106.559074 
L 543.34445 106.559074 
L 543.34445 128.16 
L 530.717008 128.16 
L 530.717008 17.28 
z
" clip-path="url(#p9d32e55c9d)" style="fill: #21599c"/>
   </g>
   <g id="patch_27">
    <path d="M 547.469374 38.904689 
L 547.469374 106.559074 
L 548.709107 106.559074 
Q 550.829021 106.559074 551.947945 97.861672 
Q 553.069745 89.164269 553.069745 72.601183 
Q 553.069745 56.13315 551.953697 47.530802 
Q 550.840527 38.904689 548.709107 38.904689 
L 547.469374 38.904689 
z
M 544.009052 17.28 
L 547.65634 17.28 
Q 550.713965 17.28 552.209698 20.892036 
Q 553.705431 24.480309 554.775456 33.106421 
Q 555.718919 40.615654 556.176268 50.429936 
Q 556.636494 60.220454 556.636494 72.601183 
Q 556.636494 85.172019 556.176268 95.010064 
Q 555.718919 104.84811 554.775456 112.333579 
Q 553.696802 120.959691 552.186687 124.571727 
Q 550.676571 128.16 547.65634 128.16 
L 544.009052 128.16 
L 544.009052 17.28 
z
" clip-path="url(#p9d32e55c9d)" style="fill: #6b296b"/>
   </g>
   <g id="patch_28">
    <path d="M 557.301096 17.28 
L 560.425039 17.28 
L 563.618689 99.121132 
L 566.807176 17.28 
L 569.928537 17.28 
L 565.467237 128.16 
L 561.762396 128.16 
L 557.301096 17.28 
z
" clip-path="url(#p9d32e55c9d)" style="fill: #21599c"/>
   </g>
   <g id="patch_29">
    <path d="M 582.167723 22.570907 
L 582.167723 45.200413 
Q 580.850792 41.260863 579.595593 39.268184 
Q 578.343823 37.252601 577.229234 37.252601 
Q 575.751117 37.252601 575.041209 39.978219 
Q 574.334731 42.680934 574.334731 48.407023 
Q 574.334731 52.713043 574.811432 55.118 
Q 575.288134 57.500054 576.543333 59.217881 
L 578.29924 61.57703 
Q 580.967396 65.173014 582.092274 72.479504 
Q 583.220581 79.76309 583.220581 93.230853 
Q 583.220581 110.890114 581.649867 119.525057 
Q 580.079154 128.16 576.851988 128.16 
Q 575.332717 128.16 573.799728 126.21313 
Q 572.266739 124.289163 570.733749 120.48704 
L 570.733749 97.239116 
Q 572.266739 102.667449 573.696843 105.438876 
Q 575.126947 108.187399 576.457595 108.187399 
Q 577.808821 108.187399 578.525587 105.186928 
Q 579.242354 102.163553 579.242354 96.574889 
Q 579.242354 91.581739 578.755364 88.856121 
Q 578.268374 86.130502 576.810834 83.977492 
L 575.212684 81.618343 
Q 572.81203 78.18269 571.70087 70.67006 
Q 570.59314 63.15743 570.59314 50.422607 
Q 570.59314 34.458269 572.136417 25.869134 
Q 573.679695 17.28 576.574198 17.28 
Q 577.894558 17.28 579.286938 18.608453 
Q 580.679317 19.936906 582.167723 22.570907 
z
" clip-path="url(#p9d32e55c9d)" style="fill: #40ba47"/>
   </g>
   <g id="patch_30">
    <path d="M 592.632223 107.961114 
L 587.775912 107.961114 
L 587.009126 128.16 
L 583.885183 128.16 
L 588.346484 17.28 
L 592.051325 17.28 
L 596.512625 128.16 
L 593.391264 128.16 
L 592.632223 107.961114 
z
M 588.550443 87.382015 
L 591.849947 87.382015 
L 590.202777 43.277154 
L 588.550443 87.382015 
z
" clip-path="url(#p9d32e55c9d)" style="fill: #21599c"/>
   </g>
   <g id="patch_31">
    <path d="M 597.177227 17.28 
L 603.740866 17.28 
Q 606.670827 17.28 608.236104 26.690304 
Q 609.804669 36.076845 609.804669 53.447887 
Q 609.804669 70.913982 608.236104 80.300523 
Q 606.670827 89.687064 603.740866 89.687064 
L 601.133168 89.687064 
L 601.133168 128.16 
L 597.177227 128.16 
L 597.177227 17.28 
z
M 601.133168 38.00168 
L 601.133168 68.965384 
L 603.319951 68.965384 
Q 604.47089 68.965384 605.098974 64.925607 
Q 605.727058 60.885829 605.727058 53.447887 
Q 605.727058 46.033708 605.098974 42.017694 
Q 604.47089 38.00168 603.319951 38.00168 
L 601.133168 38.00168 
z
" clip-path="url(#p9d32e55c9d)" style="fill: #787800"/>
   </g>
   <g id="patch_32">
    <path d="M 615.592799 66.446464 
Q 616.726031 66.446464 617.217697 63.119589 
Q 617.709364 59.76895 617.709364 52.117137 
Q 617.709364 44.536614 617.217697 41.281029 
Q 616.726031 38.00168 615.592799 38.00168 
L 614.075827 38.00168 
L 614.075827 66.446464 
L 615.592799 66.446464 
z
M 614.075827 86.193845 
L 614.075827 128.16 
L 610.469271 128.16 
L 610.469271 17.28 
L 615.976538 17.28 
Q 618.740665 17.28 620.026793 24.646652 
Q 621.31592 31.989541 621.31592 47.887252 
Q 621.31592 58.865941 620.644375 65.923669 
Q 619.975828 72.981397 618.626742 76.332036 
Q 619.36724 77.662786 619.951844 82.391702 
Q 620.539446 87.096854 621.13904 96.673502 
L 623.096713 128.16 
L 619.256316 128.16 
L 617.550472 100.618225 
Q 617.034821 92.301037 616.504181 89.259323 
Q 615.976538 86.193845 615.095136 86.193845 
L 614.075827 86.193845 
z
" clip-path="url(#p9d32e55c9d)" style="fill: #bd2e1f"/>
   </g>
   <g id="patch_33">
    <path d="M 623.761315 17.28 
L 628.343762 17.28 
L 628.343762 106.559074 
L 636.388757 106.559074 
L 636.388757 128.16 
L 623.761315 128.16 
L 623.761315 17.28 
z
" clip-path="url(#p9d32e55c9d)" style="fill: #21599c"/>
   </g>
   <g id="patch_34">
    <path d="M 648.627942 22.570907 
L 648.627942 45.200413 
Q 647.311012 41.260863 646.055812 39.268184 
Q 644.804043 37.252601 643.689453 37.252601 
Q 642.211336 37.252601 641.501428 39.978219 
Q 640.79495 42.680934 640.79495 48.407023 
Q 640.79495 52.713043 641.271651 55.118 
Q 641.748353 57.500054 643.003552 59.217881 
L 644.759459 61.57703 
Q 647.427615 65.173014 648.552493 72.479504 
Q 649.6808 79.76309 649.6808 93.230853 
Q 649.6808 110.890114 648.110087 119.525057 
Q 646.539373 128.16 643.312207 128.16 
Q 641.792936 128.16 640.259947 126.21313 
Q 638.726958 124.289163 637.193968 120.48704 
L 637.193968 97.239116 
Q 638.726958 102.667449 640.157062 105.438876 
Q 641.587166 108.187399 642.917814 108.187399 
Q 644.26904 108.187399 644.985806 105.186928 
Q 645.702573 102.163553 645.702573 96.574889 
Q 645.702573 91.581739 645.215583 88.856121 
Q 644.728594 86.130502 643.271053 83.977492 
L 641.672904 81.618343 
Q 639.272249 78.18269 638.161089 70.67006 
Q 637.053359 63.15743 637.053359 50.422607 
Q 637.053359 34.458269 638.596637 25.869134 
Q 640.139914 17.28 643.034417 17.28 
Q 644.354777 17.28 645.747157 18.608453 
Q 647.139536 19.936906 648.627942 22.570907 
z
" clip-path="url(#p9d32e55c9d)" style="fill: #40ba47"/>
   </g>
   <g id="patch_35">
    <path d="M 662.972844 118.127891 
Q 661.699346 123.143945 660.329628 125.663425 
Q 658.95991 128.16 657.499632 128.16 
Q 654.199857 128.16 652.27263 113.226358 
Q 650.345403 98.292716 650.345403 72.754357 
Q 650.345403 46.91824 652.30659 32.09912 
Q 654.270607 17.28 657.686412 17.28 
Q 659.00236 17.28 660.207938 19.295584 
Q 661.416346 21.288263 662.486085 25.227812 
L 662.486085 47.330518 
Q 661.382387 42.268655 660.290008 39.77208 
Q 659.19763 37.252601 658.099591 37.252601 
Q 656.067654 37.252601 654.966786 46.460153 
Q 653.865917 55.644801 653.865917 72.754357 
Q 653.865917 89.703582 654.927166 98.956943 
Q 655.988414 108.187399 657.941112 108.187399 
Q 658.473151 108.187399 658.92878 107.660599 
Q 659.384409 107.110894 659.746649 105.965677 
L 659.746649 85.214328 
L 657.666602 85.214328 
L 657.666602 66.73051 
L 662.972844 66.73051 
L 662.972844 118.127891 
z
" clip-path="url(#p9d32e55c9d)" style="fill: #787800"/>
   </g>
   <g id="patch_36">
    <path d="M 663.637446 17.28 
L 668.219894 17.28 
L 668.219894 106.559074 
L 676.264888 106.559074 
L 676.264888 128.16 
L 663.637446 128.16 
L 663.637446 17.28 
z
" clip-path="url(#p9d32e55c9d)" style="fill: #21599c"/>
   </g>
   <g id="patch_37">
    <path d="M 680.389812 38.904689 
L 680.389812 106.559074 
L 681.629545 106.559074 
Q 683.749459 106.559074 684.868383 97.861672 
Q 685.990183 89.164269 685.990183 72.601183 
Q 685.990183 56.13315 684.874136 47.530802 
Q 683.760965 38.904689 681.629545 38.904689 
L 680.389812 38.904689 
z
M 676.92949 17.28 
L 680.576779 17.28 
Q 683.634403 17.28 685.130136 20.892036 
Q 686.62587 24.480309 687.695894 33.106421 
Q 688.639357 40.615654 689.096706 50.429936 
Q 689.556932 60.220454 689.556932 72.601183 
Q 689.556932 85.172019 689.096706 95.010064 
Q 688.639357 104.84811 687.695894 112.333579 
Q 686.61724 120.959691 685.107125 124.571727 
Q 683.59701 128.16 680.576779 128.16 
L 676.92949 128.16 
L 676.92949 17.28 
z
" clip-path="url(#p9d32e55c9d)" style="fill: #6b296b"/>
   </g>
   <g id="patch_38">
    <path d="M 690.352951 17.28 
L 702.717559 17.28 
L 702.717559 38.904689 
L 694.935398 38.904689 
L 694.935398 59.531316 
L 702.256648 59.531316 
L 702.256648 81.156005 
L 694.935398 81.156005 
L 694.935398 128.16 
L 690.352951 128.16 
L 690.352951 17.28 
z
" clip-path="url(#p9d32e55c9d)" style="fill: #21599c"/>
   </g>
   <g id="patch_39">
    <path d="M 715.088161 22.570907 
L 715.088161 45.200413 
Q 713.771231 41.260863 712.516032 39.268184 
Q 711.264262 37.252601 710.149672 37.252601 
Q 708.671555 37.252601 707.961647 39.978219 
Q 707.255169 42.680934 707.255169 48.407023 
Q 707.255169 52.713043 707.73187 55.118 
Q 708.208572 57.500054 709.463771 59.217881 
L 711.219678 61.57703 
Q 713.887834 65.173014 715.012712 72.479504 
Q 716.14102 79.76309 716.14102 93.230853 
Q 716.14102 110.890114 714.570306 119.525057 
Q 712.999592 128.16 709.772427 128.16 
Q 708.253155 128.16 706.720166 126.21313 
Q 705.187177 124.289163 703.654188 120.48704 
L 703.654188 97.239116 
Q 705.187177 102.667449 706.617281 105.438876 
Q 708.047385 108.187399 709.378033 108.187399 
Q 710.729259 108.187399 711.446026 105.186928 
Q 712.162792 102.163553 712.162792 96.574889 
Q 712.162792 91.581739 711.675803 88.856121 
Q 711.188813 86.130502 709.731273 83.977492 
L 708.133123 81.618343 
Q 705.732468 78.18269 704.621308 70.67006 
Q 703.513578 63.15743 703.513578 50.422607 
Q 703.513578 34.458269 705.056856 25.869134 
Q 706.600133 17.28 709.494637 17.28 
Q 710.814996 17.28 712.207376 18.608453 
Q 713.599755 19.936906 715.088161 22.570907 
z
" clip-path="url(#p9d32e55c9d)" style="fill: #40ba47"/>
   </g>
   <g id="patch_40">
    <path d="M 725.552662 107.961114 
L 720.696351 107.961114 
L 719.929565 128.16 
L 716.805622 128.16 
L 721.266922 17.28 
L 724.971763 17.28 
L 729.433063 128.16 
L 726.311702 128.16 
L 725.552662 107.961114 
z
M 721.470882 87.382015 
L 724.770385 87.382015 
L 723.123215 43.277154 
L 721.470882 87.382015 
z
" clip-path="url(#p9d32e55c9d)" style="fill: #21599c"/>
   </g>
   <g id="patch_41">
    <path d="M 730.097666 17.28 
L 734.680113 17.28 
L 734.680113 106.559074 
L 742.725107 106.559074 
L 742.725107 128.16 
L 730.097666 128.16 
L 730.097666 17.28 
z
" clip-path="url(#p9d32e55c9d)" style="fill: #21599c"/>
   </g>
   <g id="patch_42">
    <path d="M 743.389709 17.28 
L 756.017151 17.28 
L 756.017151 38.904689 
L 751.474209 38.904689 
L 751.474209 128.16 
L 747.941462 128.16 
L 747.941462 38.904689 
L 743.389709 38.904689 
L 743.389709 17.28 
z
" clip-path="url(#p9d32e55c9d)" style="fill: #40ba47"/>
   </g>
   <g id="patch_43">
    <path d="M 769.309195 118.127891 
Q 768.035697 123.143945 766.665979 125.663425 
Q 765.296261 128.16 763.835983 128.16 
Q 760.536208 128.16 758.60898 113.226358 
Q 756.681753 98.292716 756.681753 72.754357 
Q 756.681753 46.91824 758.64294 32.09912 
Q 760.606958 17.28 764.022763 17.28 
Q 765.338711 17.28 766.544289 19.295584 
Q 767.752697 21.288263 768.822436 25.227812 
L 768.822436 47.330518 
Q 767.718737 42.268655 766.626359 39.77208 
Q 765.53398 37.252601 764.435942 37.252601 
Q 762.404005 37.252601 761.303136 46.460153 
Q 760.202268 55.644801 760.202268 72.754357 
Q 760.202268 89.703582 761.263517 98.956943 
Q 762.324765 108.187399 764.277462 108.187399 
Q 764.809501 108.187399 765.265131 107.660599 
Q 765.72076 107.110894 766.083 105.965677 
L 766.083 85.214328 
L 764.002953 85.214328 
L 764.002953 66.73051 
L 769.309195 66.73051 
L 769.309195 118.127891 
z
" clip-path="url(#p9d32e55c9d)" style="fill: #787800"/>
   </g>
   <g id="patch_44">
    <path d="M 775.097325 66.446464 
Q 776.230556 66.446464 776.722223 63.119589 
Q 777.21389 59.76895 777.21389 52.117137 
Q 777.21389 44.536614 776.722223 41.281029 
Q 776.230556 38.00168 775.097325 38.00168 
L 773.580353 38.00168 
L 773.580353 66.446464 
L 775.097325 66.446464 
z
M 773.580353 86.193845 
L 773.580353 128.16 
L 769.973797 128.16 
L 769.973797 17.28 
L 775.481064 17.28 
Q 778.245191 17.28 779.531319 24.646652 
Q 780.820446 31.989541 780.820446 47.887252 
Q 780.820446 58.865941 780.148901 65.923669 
Q 779.480354 72.981397 778.131268 76.332036 
Q 778.871766 77.662786 779.45637 82.391702 
Q 780.043972 87.096854 780.643566 96.673502 
L 782.601239 128.16 
L 778.760842 128.16 
L 777.054998 100.618225 
Q 776.539347 92.301037 776.008707 89.259323 
Q 775.481064 86.193845 774.599662 86.193845 
L 773.580353 86.193845 
z
" clip-path="url(#p9d32e55c9d)" style="fill: #bd2e1f"/>
   </g>
   <g id="patch_45">
    <path d="M 783.265841 17.28 
L 795.630449 17.28 
L 795.630449 38.904689 
L 787.848288 38.904689 
L 787.848288 59.531316 
L 795.169538 59.531316 
L 795.169538 81.156005 
L 787.848288 81.156005 
L 787.848288 106.559074 
L 795.893283 106.559074 
L 795.893283 128.16 
L 783.265841 128.16 
L 783.265841 17.28 
z
" clip-path="url(#p9d32e55c9d)" style="fill: #6b296b"/>
   </g>
   <g id="patch_46">
    <path d="M 796.557885 17.28 
L 801.140332 17.28 
L 801.140332 106.559074 
L 809.185326 106.559074 
L 809.185326 128.16 
L 796.557885 128.16 
L 796.557885 17.28 
z
" clip-path="url(#p9d32e55c9d)" style="fill: #21599c"/>
   </g>
   <g id="patch_47">
    <path d="M 809.849929 17.28 
L 822.214537 17.28 
L 822.214537 38.904689 
L 814.432376 38.904689 
L 814.432376 59.531316 
L 821.753625 59.531316 
L 821.753625 81.156005 
L 814.432376 81.156005 
L 814.432376 106.559074 
L 822.47737 106.559074 
L 822.47737 128.16 
L 809.849929 128.16 
L 809.849929 17.28 
z
" clip-path="url(#p9d32e55c9d)" style="fill: #6b296b"/>
   </g>
   <g id="patch_48">
    <path d="M 823.141972 17.28 
L 826.265915 17.28 
L 829.459566 99.121132 
L 832.648053 17.28 
L 835.769414 17.28 
L 831.308114 128.16 
L 827.603273 128.16 
L 823.141972 17.28 
z
" clip-path="url(#p9d32e55c9d)" style="fill: #21599c"/>
   </g>
   <g id="patch_49">
    <path d="M 836.434016 17.28 
L 841.016463 17.28 
L 841.016463 106.559074 
L 849.061458 106.559074 
L 849.061458 128.16 
L 836.434016 128.16 
L 836.434016 17.28 
z
" clip-path="url(#p9d32e55c9d)" style="fill: #21599c"/>
   </g>
   <g id="patch_50">
    <path d="M 849.72606 17.28 
L 854.308507 17.28 
L 854.308507 106.559074 
L 862.353502 106.559074 
L 862.353502 128.16 
L 849.72606 128.16 
L 849.72606 17.28 
z
" clip-path="url(#p9d32e55c9d)" style="fill: #21599c"/>
   </g>
   <g id="patch_51">
    <path d="M 863.018104 17.28 
L 867.600551 17.28 
L 867.600551 106.559074 
L 875.645545 106.559074 
L 875.645545 128.16 
L 863.018104 128.16 
L 863.018104 17.28 
z
" clip-path="url(#p9d32e55c9d)" style="fill: #21599c"/>
   </g>
   <g id="patch_52">
    <path d="M 876.310148 17.28 
L 880.892595 17.28 
L 880.892595 106.559074 
L 888.937589 106.559074 
L 888.937589 128.16 
L 876.310148 128.16 
L 876.310148 17.28 
z
" clip-path="url(#p9d32e55c9d)" style="fill: #21599c"/>
   </g>
   <g id="patch_53">
    <path d="M 898.349231 107.961114 
L 893.49292 107.961114 
L 892.726134 128.16 
L 889.602192 128.16 
L 894.063492 17.28 
L 897.768333 17.28 
L 902.229633 128.16 
L 899.108272 128.16 
L 898.349231 107.961114 
z
M 894.267452 87.382015 
L 897.566955 87.382015 
L 895.919785 43.277154 
L 894.267452 87.382015 
z
" clip-path="url(#p9d32e55c9d)" style="fill: #21599c"/>
   </g>
   <g id="patch_54">
    <path d="M 902.894235 17.28 
L 915.521677 17.28 
L 915.521677 38.904689 
L 910.978735 38.904689 
L 910.978735 128.16 
L 907.445988 128.16 
L 907.445988 38.904689 
L 902.894235 38.904689 
L 902.894235 17.28 
z
" clip-path="url(#p9d32e55c9d)" style="fill: #40ba47"/>
   </g>
   <g id="patch_55">
    <path d="M 928.813721 118.127891 
Q 927.540223 123.143945 926.170505 125.663425 
Q 924.800787 128.16 923.340509 128.16 
Q 920.040734 128.16 918.113506 113.226358 
Q 916.186279 98.292716 916.186279 72.754357 
Q 916.186279 46.91824 918.147466 32.09912 
Q 920.111483 17.28 923.527289 17.28 
Q 924.843237 17.28 926.048815 19.295584 
Q 927.257223 21.288263 928.326962 25.227812 
L 928.326962 47.330518 
Q 927.223263 42.268655 926.130885 39.77208 
Q 925.038506 37.252601 923.940468 37.252601 
Q 921.908531 37.252601 920.807662 46.460153 
Q 919.706794 55.644801 919.706794 72.754357 
Q 919.706794 89.703582 920.768043 98.956943 
Q 921.829291 108.187399 923.781988 108.187399 
Q 924.314027 108.187399 924.769657 107.660599 
Q 925.225286 107.110894 925.587526 105.965677 
L 925.587526 85.214328 
L 923.507479 85.214328 
L 923.507479 66.73051 
L 928.813721 66.73051 
L 928.813721 118.127891 
z
" clip-path="url(#p9d32e55c9d)" style="fill: #787800"/>
   </g>
   <g id="patch_56">
    <path d="M 929.478323 17.28 
L 941.842931 17.28 
L 941.842931 38.904689 
L 934.06077 38.904689 
L 934.06077 59.531316 
L 941.38202 59.531316 
L 941.38202 81.156005 
L 934.06077 81.156005 
L 934.06077 106.559074 
L 942.105765 106.559074 
L 942.105765 128.16 
L 929.478323 128.16 
L 929.478323 17.28 
z
" clip-path="url(#p9d32e55c9d)" style="fill: #6b296b"/>
   </g>
   <g id="patch_57">
    <path d="M 949.420819 111.578719 
L 949.173532 111.578719 
Q 946.140315 111.578719 944.454026 99.152512 
Q 942.770367 86.706798 942.770367 64.526897 
Q 942.770367 42.38601 944.451395 29.842759 
Q 946.132423 17.28 949.084088 17.28 
Q 952.067321 17.28 953.732565 29.725714 
Q 955.397808 42.151921 955.397808 64.526897 
Q 955.397808 79.879212 954.513888 90.978916 
Q 953.629967 102.078621 951.969984 107.677241 
L 954.442858 128.16 
L 951.425426 128.16 
L 949.420819 111.578719 
z
M 949.084088 34.290443 
Q 947.637193 34.290443 946.840086 42.210443 
Q 946.042979 50.130443 946.042979 64.526897 
Q 946.042979 79.157438 946.821671 86.940887 
Q 947.602994 94.704828 949.084088 94.704828 
Q 950.538874 94.704828 951.335981 86.784828 
Q 952.133089 78.84532 952.133089 64.526897 
Q 952.133089 50.130443 951.335981 42.210443 
Q 950.538874 34.290443 949.084088 34.290443 
z
" clip-path="url(#p9d32e55c9d)" style="fill: #40ba47"/>
   </g>
   <g id="patch_58">
    <path d="M 956.062411 17.28 
L 960.118535 17.28 
L 965.243808 93.322863 
L 965.243808 17.28 
L 968.689852 17.28 
L 968.689852 128.16 
L 964.630708 128.16 
L 959.505435 52.117137 
L 959.505435 128.16 
L 956.062411 128.16 
L 956.062411 17.28 
z
" clip-path="url(#p9d32e55c9d)" style="fill: #40ba47"/>
   </g>
   <g id="patch_59">
    <path d="M 974.477982 66.446464 
Q 975.611214 66.446464 976.102881 63.119589 
Q 976.594547 59.76895 976.594547 52.117137 
Q 976.594547 44.536614 976.102881 41.281029 
Q 975.611214 38.00168 974.477982 38.00168 
L 972.96101 38.00168 
L 972.96101 66.446464 
L 974.477982 66.446464 
z
M 972.96101 86.193845 
L 972.96101 128.16 
L 969.354455 128.16 
L 969.354455 17.28 
L 974.861722 17.28 
Q 977.625848 17.28 978.911977 24.646652 
Q 980.201103 31.989541 980.201103 47.887252 
Q 980.201103 58.865941 979.529558 65.923669 
Q 978.861011 72.981397 977.511926 76.332036 
Q 978.252424 77.662786 978.837028 82.391702 
Q 979.424629 87.096854 980.024223 96.673502 
L 981.981896 128.16 
L 978.141499 128.16 
L 976.435655 100.618225 
Q 975.920005 92.301037 975.389364 89.259323 
Q 974.861722 86.193845 973.980319 86.193845 
L 972.96101 86.193845 
z
" clip-path="url(#p9d32e55c9d)" style="fill: #bd2e1f"/>
   </g>
   <g id="patch_60">
    <path d="M 987.770026 66.446464 
Q 988.903258 66.446464 989.394925 63.119589 
Q 989.886591 59.76895 989.886591 52.117137 
Q 989.886591 44.536614 989.394925 41.281029 
Q 988.903258 38.00168 987.770026 38.00168 
L 986.253054 38.00168 
L 986.253054 66.446464 
L 987.770026 66.446464 
z
M 986.253054 86.193845 
L 986.253054 128.16 
L 982.646498 128.16 
L 982.646498 17.28 
L 988.153766 17.28 
Q 990.917892 17.28 992.204021 24.646652 
Q 993.493147 31.989541 993.493147 47.887252 
Q 993.493147 58.865941 992.821602 65.923669 
Q 992.153055 72.981397 990.80397 76.332036 
Q 991.544468 77.662786 992.129071 82.391702 
Q 992.716673 87.096854 993.316267 96.673502 
L 995.27394 128.16 
L 991.433543 128.16 
L 989.727699 100.618225 
Q 989.212048 92.301037 988.681408 89.259323 
Q 988.153766 86.193845 987.272363 86.193845 
L 986.253054 86.193845 
z
" clip-path="url(#p9d32e55c9d)" style="fill: #bd2e1f"/>
   </g>
   <g id="patch_61">
    <path d="M 995.938542 17.28 
L 1000.520989 17.28 
L 1000.520989 106.559074 
L 1008.565984 106.559074 
L 1008.565984 128.16 
L 995.938542 128.16 
L 995.938542 17.28 
z
" clip-path="url(#p9d32e55c9d)" style="fill: #21599c"/>
   </g>
   <g id="patch_62">
    <path d="M 1017.977626 107.961114 
L 1013.121315 107.961114 
L 1012.354529 128.16 
L 1009.230586 128.16 
L 1013.691886 17.28 
L 1017.396727 17.28 
L 1021.858028 128.16 
L 1018.736667 128.16 
L 1017.977626 107.961114 
z
M 1013.895846 87.382015 
L 1017.195349 87.382015 
L 1015.548179 43.277154 
L 1013.895846 87.382015 
z
" clip-path="url(#p9d32e55c9d)" style="fill: #21599c"/>
   </g>
   <g id="patch_63">
    <path d="M 1027.646157 66.446464 
Q 1028.779389 66.446464 1029.271056 63.119589 
Q 1029.762723 59.76895 1029.762723 52.117137 
Q 1029.762723 44.536614 1029.271056 41.281029 
Q 1028.779389 38.00168 1027.646157 38.00168 
L 1026.129185 38.00168 
L 1026.129185 66.446464 
L 1027.646157 66.446464 
z
M 1026.129185 86.193845 
L 1026.129185 128.16 
L 1022.52263 128.16 
L 1022.52263 17.28 
L 1028.029897 17.28 
Q 1030.794024 17.28 1032.080152 24.646652 
Q 1033.369278 31.989541 1033.369278 47.887252 
Q 1033.369278 58.865941 1032.697734 65.923669 
Q 1032.029187 72.981397 1030.680101 76.332036 
Q 1031.420599 77.662786 1032.005203 82.391702 
Q 1032.592805 87.096854 1033.192398 96.673502 
L 1035.150071 128.16 
L 1031.309674 128.16 
L 1029.60383 100.618225 
Q 1029.08818 92.301037 1028.55754 89.259323 
Q 1028.029897 86.193845 1027.148495 86.193845 
L 1026.129185 86.193845 
z
" clip-path="url(#p9d32e55c9d)" style="fill: #bd2e1f"/>
   </g>
   <g id="patch_64">
    <path d="M 1040.938201 66.446464 
Q 1042.071433 66.446464 1042.5631 63.119589 
Q 1043.054767 59.76895 1043.054767 52.117137 
Q 1043.054767 44.536614 1042.5631 41.281029 
Q 1042.071433 38.00168 1040.938201 38.00168 
L 1039.421229 38.00168 
L 1039.421229 66.446464 
L 1040.938201 66.446464 
z
M 1039.421229 86.193845 
L 1039.421229 128.16 
L 1035.814674 128.16 
L 1035.814674 17.28 
L 1041.321941 17.28 
Q 1044.086068 17.28 1045.372196 24.646652 
Q 1046.661322 31.989541 1046.661322 47.887252 
Q 1046.661322 58.865941 1045.989777 65.923669 
Q 1045.321231 72.981397 1043.972145 76.332036 
Q 1044.712643 77.662786 1045.297247 82.391702 
Q 1045.884849 87.096854 1046.484442 96.673502 
L 1048.442115 128.16 
L 1044.601718 128.16 
L 1042.895874 100.618225 
Q 1042.380224 92.301037 1041.849583 89.259323 
Q 1041.321941 86.193845 1040.440538 86.193845 
L 1039.421229 86.193845 
z
" clip-path="url(#p9d32e55c9d)" style="fill: #bd2e1f"/>
   </g>
   <g id="patch_65">
    <path d="M 1049.106717 17.28 
L 1053.689165 17.28 
L 1053.689165 106.559074 
L 1061.734159 106.559074 
L 1061.734159 128.16 
L 1049.106717 128.16 
L 1049.106717 17.28 
z
" clip-path="url(#p9d32e55c9d)" style="fill: #21599c"/>
   </g>
   <g id="patch_66">
    <path d="M 1075.026203 118.127891 
Q 1073.752705 123.143945 1072.382987 125.663425 
Q 1071.013269 128.16 1069.552991 128.16 
Q 1066.253216 128.16 1064.325989 113.226358 
Q 1062.398761 98.292716 1062.398761 72.754357 
Q 1062.398761 46.91824 1064.359948 32.09912 
Q 1066.323966 17.28 1069.739771 17.28 
Q 1071.055719 17.28 1072.261297 19.295584 
Q 1073.469705 21.288263 1074.539444 25.227812 
L 1074.539444 47.330518 
Q 1073.435745 42.268655 1072.343367 39.77208 
Q 1071.250988 37.252601 1070.15295 37.252601 
Q 1068.121013 37.252601 1067.020145 46.460153 
Q 1065.919276 55.644801 1065.919276 72.754357 
Q 1065.919276 89.703582 1066.980525 98.956943 
Q 1068.041773 108.187399 1069.99447 108.187399 
Q 1070.526509 108.187399 1070.982139 107.660599 
Q 1071.437768 107.110894 1071.800008 105.965677 
L 1071.800008 85.214328 
L 1069.719961 85.214328 
L 1069.719961 66.73051 
L 1075.026203 66.73051 
L 1075.026203 118.127891 
z
" clip-path="url(#p9d32e55c9d)" style="fill: #787800"/>
   </g>
   <g id="patch_67">
    <path d="M 1079.713302 17.28 
L 1084.29575 17.28 
L 1084.29575 128.16 
L 1079.713302 128.16 
L 1079.713302 17.28 
z
" clip-path="url(#p9d32e55c9d)" style="fill: #21599c"/>
   </g>
   <g id="patch_68">
    <path d="M 1097.729889 107.961114 
L 1092.873578 107.961114 
L 1092.106792 128.16 
L 1088.982849 128.16 
L 1093.444149 17.28 
L 1097.14899 17.28 
L 1101.610291 128.16 
L 1098.48893 128.16 
L 1097.729889 107.961114 
z
M 1093.648109 87.382015 
L 1096.947612 87.382015 
L 1095.300442 43.277154 
L 1093.648109 87.382015 
z
" clip-path="url(#p9d32e55c9d)" style="fill: #21599c"/>
   </g>
   <g id="patch_69">
    <path d="M 1102.274893 17.28 
L 1114.639501 17.28 
L 1114.639501 38.904689 
L 1106.85734 38.904689 
L 1106.85734 59.531316 
L 1114.17859 59.531316 
L 1114.17859 81.156005 
L 1106.85734 81.156005 
L 1106.85734 106.559074 
L 1114.902334 106.559074 
L 1114.902334 128.16 
L 1102.274893 128.16 
L 1102.274893 17.28 
z
" clip-path="url(#p9d32e55c9d)" style="fill: #6b296b"/>
   </g>
   <g id="patch_70">
    <path d="M 1120.690464 66.446464 
Q 1121.823696 66.446464 1122.315363 63.119589 
Q 1122.80703 59.76895 1122.80703 52.117137 
Q 1122.80703 44.536614 1122.315363 41.281029 
Q 1121.823696 38.00168 1120.690464 38.00168 
L 1119.173492 38.00168 
L 1119.173492 66.446464 
L 1120.690464 66.446464 
z
M 1119.173492 86.193845 
L 1119.173492 128.16 
L 1115.566937 128.16 
L 1115.566937 17.28 
L 1121.074204 17.28 
Q 1123.838331 17.28 1125.124459 24.646652 
Q 1126.413585 31.989541 1126.413585 47.887252 
Q 1126.413585 58.865941 1125.74204 65.923669 
Q 1125.073493 72.981397 1123.724408 76.332036 
Q 1124.464906 77.662786 1125.04951 82.391702 
Q 1125.637111 87.096854 1126.236705 96.673502 
L 1128.194378 128.16 
L 1124.353981 128.16 
L 1122.648137 100.618225 
Q 1122.132487 92.301037 1121.601846 89.259323 
Q 1121.074204 86.193845 1120.192801 86.193845 
L 1119.173492 86.193845 
z
" clip-path="url(#p9d32e55c9d)" style="fill: #bd2e1f"/>
   </g>
   <g id="patch_71">
    <path d="M 1128.85898 17.28 
L 1141.486422 17.28 
L 1141.486422 38.904689 
L 1136.94348 38.904689 
L 1136.94348 128.16 
L 1133.410733 128.16 
L 1133.410733 38.904689 
L 1128.85898 38.904689 
L 1128.85898 17.28 
z
" clip-path="url(#p9d32e55c9d)" style="fill: #40ba47"/>
   </g>
   <g id="patch_72">
    <path d="M 1142.151024 17.28 
L 1145.274967 17.28 
L 1148.468618 99.121132 
L 1151.657105 17.28 
L 1154.778466 17.28 
L 1150.317166 128.16 
L 1146.612324 128.16 
L 1142.151024 17.28 
z
" clip-path="url(#p9d32e55c9d)" style="fill: #21599c"/>
   </g>
   <g id="patch_73">
    <path d="M 1160.566596 66.446464 
Q 1161.699828 66.446464 1162.191494 63.119589 
Q 1162.683161 59.76895 1162.683161 52.117137 
Q 1162.683161 44.536614 1162.191494 41.281029 
Q 1161.699828 38.00168 1160.566596 38.00168 
L 1159.049624 38.00168 
L 1159.049624 66.446464 
L 1160.566596 66.446464 
z
M 1159.049624 86.193845 
L 1159.049624 128.16 
L 1155.443068 128.16 
L 1155.443068 17.28 
L 1160.950336 17.28 
Q 1163.714462 17.28 1165.00059 24.646652 
Q 1166.289717 31.989541 1166.289717 47.887252 
Q 1166.289717 58.865941 1165.618172 65.923669 
Q 1164.949625 72.981397 1163.600539 76.332036 
Q 1164.341037 77.662786 1164.925641 82.391702 
Q 1165.513243 87.096854 1166.112837 96.673502 
L 1168.07051 128.16 
L 1164.230113 128.16 
L 1162.524269 100.618225 
Q 1162.008618 92.301037 1161.477978 89.259323 
Q 1160.950336 86.193845 1160.068933 86.193845 
L 1159.049624 86.193845 
z
" clip-path="url(#p9d32e55c9d)" style="fill: #bd2e1f"/>
   </g>
   <g id="patch_74">
    <path d="M 1177.482152 107.961114 
L 1172.625841 107.961114 
L 1171.859055 128.16 
L 1168.735112 128.16 
L 1173.196412 17.28 
L 1176.901253 17.28 
L 1181.362554 128.16 
L 1178.241193 128.16 
L 1177.482152 107.961114 
z
M 1173.400372 87.382015 
L 1176.699875 87.382015 
L 1175.052705 43.277154 
L 1173.400372 87.382015 
z
" clip-path="url(#p9d32e55c9d)" style="fill: #21599c"/>
   </g>
   <g id="patch_75">
    <path d="M 1182.027156 17.28 
L 1185.660452 17.28 
L 1185.660452 59.531316 
L 1191.021301 59.531316 
L 1191.021301 17.28 
L 1194.654597 17.28 
L 1194.654597 128.16 
L 1191.021301 128.16 
L 1191.021301 81.156005 
L 1185.660452 81.156005 
L 1185.660452 128.16 
L 1182.027156 128.16 
L 1182.027156 17.28 
z
" clip-path="url(#p9d32e55c9d)" style="fill: #177875"/>
   </g>
   <g id="patch_76">
    <path d="M 1195.3192 17.28 
L 1207.946641 17.28 
L 1207.946641 38.904689 
L 1203.403699 38.904689 
L 1203.403699 128.16 
L 1199.870952 128.16 
L 1199.870952 38.904689 
L 1195.3192 38.904689 
L 1195.3192 17.28 
z
" clip-path="url(#p9d32e55c9d)" style="fill: #40ba47"/>
   </g>
   <g id="patch_77">
    <path d="M 1217.358283 107.961114 
L 1212.501972 107.961114 
L 1211.735186 128.16 
L 1208.611243 128.16 
L 1213.072544 17.28 
L 1216.777385 17.28 
L 1221.238685 128.16 
L 1218.117324 128.16 
L 1217.358283 107.961114 
z
M 1213.276504 87.382015 
L 1216.576007 87.382015 
L 1214.928837 43.277154 
L 1213.276504 87.382015 
z
" clip-path="url(#p9d32e55c9d)" style="fill: #21599c"/>
   </g>
   <g id="patch_78">
    <path d="M 1233.477871 22.570907 
L 1233.477871 45.200413 
Q 1232.16094 41.260863 1230.905741 39.268184 
Q 1229.653971 37.252601 1228.539382 37.252601 
Q 1227.061265 37.252601 1226.351357 39.978219 
Q 1225.644878 42.680934 1225.644878 48.407023 
Q 1225.644878 52.713043 1226.12158 55.118 
Q 1226.598281 57.500054 1227.85348 59.217881 
L 1229.609388 61.57703 
Q 1232.277543 65.173014 1233.402421 72.479504 
Q 1234.530729 79.76309 1234.530729 93.230853 
Q 1234.530729 110.890114 1232.960015 119.525057 
Q 1231.389301 128.16 1228.162136 128.16 
Q 1226.642865 128.16 1225.109876 126.21313 
Q 1223.576886 124.289163 1222.043897 120.48704 
L 1222.043897 97.239116 
Q 1223.576886 102.667449 1225.00699 105.438876 
Q 1226.437094 108.187399 1227.767743 108.187399 
Q 1229.118968 108.187399 1229.835735 105.186928 
Q 1230.552502 102.163553 1230.552502 96.574889 
Q 1230.552502 91.581739 1230.065512 88.856121 
Q 1229.578522 86.130502 1228.120982 83.977492 
L 1226.522832 81.618343 
Q 1224.122178 78.18269 1223.011018 70.67006 
Q 1221.903287 63.15743 1221.903287 50.422607 
Q 1221.903287 34.458269 1223.446565 25.869134 
Q 1224.989843 17.28 1227.884346 17.28 
Q 1229.204706 17.28 1230.597085 18.608453 
Q 1231.989465 19.936906 1233.477871 22.570907 
z
" clip-path="url(#p9d32e55c9d)" style="fill: #40ba47"/>
   </g>
   <g id="patch_79">
    <path d="M 1239.217828 17.28 
L 1243.800276 17.28 
L 1243.800276 128.16 
L 1239.217828 128.16 
L 1239.217828 17.28 
z
" clip-path="url(#p9d32e55c9d)" style="fill: #21599c"/>
   </g>
   <g id="patch_80">
    <path d="M 1248.487375 17.28 
L 1251.611318 17.28 
L 1254.804968 99.121132 
L 1257.993456 17.28 
L 1261.114817 17.28 
L 1256.653516 128.16 
L 1252.948675 128.16 
L 1248.487375 17.28 
z
" clip-path="url(#p9d32e55c9d)" style="fill: #21599c"/>
   </g>
   <g id="patch_81">
    <path d="M 1266.902946 66.446464 
Q 1268.036178 66.446464 1268.527845 63.119589 
Q 1269.019512 59.76895 1269.019512 52.117137 
Q 1269.019512 44.536614 1268.527845 41.281029 
Q 1268.036178 38.00168 1266.902946 38.00168 
L 1265.385974 38.00168 
L 1265.385974 66.446464 
L 1266.902946 66.446464 
z
M 1265.385974 86.193845 
L 1265.385974 128.16 
L 1261.779419 128.16 
L 1261.779419 17.28 
L 1267.286686 17.28 
Q 1270.050813 17.28 1271.336941 24.646652 
Q 1272.626067 31.989541 1272.626067 47.887252 
Q 1272.626067 58.865941 1271.954523 65.923669 
Q 1271.285976 72.981397 1269.93689 76.332036 
Q 1270.677388 77.662786 1271.261992 82.391702 
Q 1271.849594 87.096854 1272.449187 96.673502 
L 1274.40686 128.16 
L 1270.566463 128.16 
L 1268.860619 100.618225 
Q 1268.344969 92.301037 1267.814329 89.259323 
Q 1267.286686 86.193845 1266.405284 86.193845 
L 1265.385974 86.193845 
z
" clip-path="url(#p9d32e55c9d)" style="fill: #bd2e1f"/>
   </g>
   <g id="patch_82">
    <path d="M 1275.071463 17.28 
L 1278.399132 17.28 
L 1278.399132 57.749061 
L 1283.195624 17.28 
L 1287.059925 17.28 
L 1280.844403 69.797102 
L 1287.698904 128.16 
L 1283.533093 128.16 
L 1278.399132 84.48288 
L 1278.399132 128.16 
L 1275.071463 128.16 
L 1275.071463 17.28 
z
" clip-path="url(#p9d32e55c9d)" style="fill: #bd2e1f"/>
   </g>
   <g id="patch_83">
    <path d="M 1288.363506 17.28 
L 1292.945954 17.28 
L 1292.945954 106.559074 
L 1300.990948 106.559074 
L 1300.990948 128.16 
L 1288.363506 128.16 
L 1288.363506 17.28 
z
" clip-path="url(#p9d32e55c9d)" style="fill: #21599c"/>
   </g>
   <g id="patch_84">
    <path d="M 1314.282992 118.127891 
Q 1313.009494 123.143945 1311.639776 125.663425 
Q 1310.270058 128.16 1308.80978 128.16 
Q 1305.510005 128.16 1303.582777 113.226358 
Q 1301.65555 98.292716 1301.65555 72.754357 
Q 1301.65555 46.91824 1303.616737 32.09912 
Q 1305.580755 17.28 1308.99656 17.28 
Q 1310.312508 17.28 1311.518086 19.295584 
Q 1312.726494 21.288263 1313.796233 25.227812 
L 1313.796233 47.330518 
Q 1312.692534 42.268655 1311.600156 39.77208 
Q 1310.507777 37.252601 1309.409739 37.252601 
Q 1307.377802 37.252601 1306.276934 46.460153 
Q 1305.176065 55.644801 1305.176065 72.754357 
Q 1305.176065 89.703582 1306.237314 98.956943 
Q 1307.298562 108.187399 1309.251259 108.187399 
Q 1309.783298 108.187399 1310.238928 107.660599 
Q 1310.694557 107.110894 1311.056797 105.965677 
L 1311.056797 85.214328 
L 1308.97675 85.214328 
L 1308.97675 66.73051 
L 1314.282992 66.73051 
L 1314.282992 118.127891 
z
" clip-path="url(#p9d32e55c9d)" style="fill: #787800"/>
   </g>
   <g id="patch_85">
    <path d="M 1314.947594 17.28 
L 1319.530041 17.28 
L 1319.530041 106.559074 
L 1327.575036 106.559074 
L 1327.575036 128.16 
L 1314.947594 128.16 
L 1314.947594 17.28 
z
" clip-path="url(#p9d32e55c9d)" style="fill: #21599c"/>
   </g>
   <g id="patch_86">
    <path d="M 1328.239638 17.28 
L 1340.86708 17.28 
L 1340.86708 38.904689 
L 1336.324137 38.904689 
L 1336.324137 128.16 
L 1332.79139 128.16 
L 1332.79139 38.904689 
L 1328.239638 38.904689 
L 1328.239638 17.28 
z
" clip-path="url(#p9d32e55c9d)" style="fill: #40ba47"/>
   </g>
   <g id="patch_87">
    <path d="M 1341.531682 17.28 
L 1354.159123 17.28 
L 1354.159123 38.904689 
L 1349.616181 38.904689 
L 1349.616181 128.16 
L 1346.083434 128.16 
L 1346.083434 38.904689 
L 1341.531682 38.904689 
L 1341.531682 17.28 
z
" clip-path="url(#p9d32e55c9d)" style="fill: #40ba47"/>
   </g>
   <g id="patch_88">
    <path d="M 1359.947253 66.446464 
Q 1361.080485 66.446464 1361.572152 63.119589 
Q 1362.063819 59.76895 1362.063819 52.117137 
Q 1362.063819 44.536614 1361.572152 41.281029 
Q 1361.080485 38.00168 1359.947253 38.00168 
L 1358.430281 38.00168 
L 1358.430281 66.446464 
L 1359.947253 66.446464 
z
M 1358.430281 86.193845 
L 1358.430281 128.16 
L 1354.823726 128.16 
L 1354.823726 17.28 
L 1360.330993 17.28 
Q 1363.09512 17.28 1364.381248 24.646652 
Q 1365.670374 31.989541 1365.670374 47.887252 
Q 1365.670374 58.865941 1364.998829 65.923669 
Q 1364.330282 72.981397 1362.981197 76.332036 
Q 1363.721695 77.662786 1364.306299 82.391702 
Q 1364.8939 87.096854 1365.493494 96.673502 
L 1367.451167 128.16 
L 1363.61077 128.16 
L 1361.904926 100.618225 
Q 1361.389276 92.301037 1360.858635 89.259323 
Q 1360.330993 86.193845 1359.44959 86.193845 
L 1358.430281 86.193845 
z
" clip-path="url(#p9d32e55c9d)" style="fill: #bd2e1f"/>
   </g>
   <g id="patch_89">
    <path d="M 1368.247186 17.28 
L 1380.611794 17.28 
L 1380.611794 38.904689 
L 1372.829633 38.904689 
L 1372.829633 59.531316 
L 1380.150883 59.531316 
L 1380.150883 81.156005 
L 1372.829633 81.156005 
L 1372.829633 128.16 
L 1368.247186 128.16 
L 1368.247186 17.28 
z
" clip-path="url(#p9d32e55c9d)" style="fill: #21599c"/>
   </g>
   <g id="patch_90">
    <path d="M 1381.407813 17.28 
L 1393.772421 17.28 
L 1393.772421 38.904689 
L 1385.99026 38.904689 
L 1385.99026 59.531316 
L 1393.31151 59.531316 
L 1393.31151 81.156005 
L 1385.99026 81.156005 
L 1385.99026 106.559074 
L 1394.035255 106.559074 
L 1394.035255 128.16 
L 1381.407813 128.16 
L 1381.407813 17.28 
z
" clip-path="url(#p9d32e55c9d)" style="fill: #6b296b"/>
   </g>
   <g id="patch_91">
    <path d="M 1403.446897 107.961114 
L 1398.590586 107.961114 
L 1397.8238 128.16 
L 1394.699857 128.16 
L 1399.161157 17.28 
L 1402.865999 17.28 
L 1407.327299 128.16 
L 1404.205938 128.16 
L 1403.446897 107.961114 
z
M 1399.365117 87.382015 
L 1402.66462 87.382015 
L 1401.017451 43.277154 
L 1399.365117 87.382015 
z
" clip-path="url(#p9d32e55c9d)" style="fill: #21599c"/>
   </g>
   <g id="patch_92">
    <path d="M 1416.738941 107.961114 
L 1411.88263 107.961114 
L 1411.115844 128.16 
L 1407.991901 128.16 
L 1412.453201 17.28 
L 1416.158042 17.28 
L 1420.619343 128.16 
L 1417.497981 128.16 
L 1416.738941 107.961114 
z
M 1412.657161 87.382015 
L 1415.956664 87.382015 
L 1414.309494 43.277154 
L 1412.657161 87.382015 
z
" clip-path="url(#p9d32e55c9d)" style="fill: #21599c"/>
   </g>
   <g id="patch_93">
    <path d="M 1425.306442 17.28 
L 1429.888889 17.28 
L 1429.888889 128.16 
L 1425.306442 128.16 
L 1425.306442 17.28 
z
" clip-path="url(#p9d32e55c9d)" style="fill: #21599c"/>
   </g>
   <g id="patch_94">
    <path d="M 1434.575989 17.28 
L 1437.699931 17.28 
L 1440.893582 99.121132 
L 1444.082069 17.28 
L 1447.20343 17.28 
L 1442.74213 128.16 
L 1439.037289 128.16 
L 1434.575989 17.28 
z
" clip-path="url(#p9d32e55c9d)" style="fill: #21599c"/>
   </g>
   <g id="patch_95">
    <path d="M 1456.615072 107.961114 
L 1451.758761 107.961114 
L 1450.991975 128.16 
L 1447.868032 128.16 
L 1452.329333 17.28 
L 1456.034174 17.28 
L 1460.495474 128.16 
L 1457.374113 128.16 
L 1456.615072 107.961114 
z
M 1452.533292 87.382015 
L 1455.832796 87.382015 
L 1454.185626 43.277154 
L 1452.533292 87.382015 
z
" clip-path="url(#p9d32e55c9d)" style="fill: #21599c"/>
   </g>
   <g id="patch_96">
    <path d="M 1461.160076 17.28 
L 1464.793373 17.28 
L 1464.793373 59.531316 
L 1470.154221 59.531316 
L 1470.154221 17.28 
L 1473.787518 17.28 
L 1473.787518 128.16 
L 1470.154221 128.16 
L 1470.154221 81.156005 
L 1464.793373 81.156005 
L 1464.793373 128.16 
L 1461.160076 128.16 
L 1461.160076 17.28 
z
" clip-path="url(#p9d32e55c9d)" style="fill: #177875"/>
   </g>
   <g id="patch_97">
    <path d="M 1474.45212 17.28 
L 1479.034567 17.28 
L 1479.034567 106.559074 
L 1487.079562 106.559074 
L 1487.079562 128.16 
L 1474.45212 128.16 
L 1474.45212 17.28 
z
" clip-path="url(#p9d32e55c9d)" style="fill: #21599c"/>
   </g>
   <g id="patch_98">
    <path d="M 1487.744164 17.28 
L 1491.23528 17.28 
L 1494.055232 56.798526 
L 1496.872531 17.28 
L 1500.371606 17.28 
L 1495.654885 81.441166 
L 1495.654885 128.16 
L 1492.463538 128.16 
L 1492.463538 81.441166 
L 1487.744164 17.28 
z
" clip-path="url(#p9d32e55c9d)" style="fill: #177875"/>
   </g>
   <g id="patch_99">
    <path d="M 1509.783248 107.961114 
L 1504.926937 107.961114 
L 1504.160151 128.16 
L 1501.036208 128.16 
L 1505.497508 17.28 
L 1509.202349 17.28 
L 1513.663649 128.16 
L 1510.542288 128.16 
L 1509.783248 107.961114 
z
M 1505.701468 87.382015 
L 1509.000971 87.382015 
L 1507.353801 43.277154 
L 1505.701468 87.382015 
z
" clip-path="url(#p9d32e55c9d)" style="fill: #21599c"/>
   </g>
   <g id="patch_100">
    <path d="M 1517.788573 38.904689 
L 1517.788573 106.559074 
L 1519.028306 106.559074 
Q 1521.148221 106.559074 1522.267144 97.861672 
Q 1523.388944 89.164269 1523.388944 72.601183 
Q 1523.388944 56.13315 1522.272897 47.530802 
Q 1521.159726 38.904689 1519.028306 38.904689 
L 1517.788573 38.904689 
z
M 1514.328252 17.28 
L 1517.97554 17.28 
Q 1521.033164 17.28 1522.528898 20.892036 
Q 1524.024631 24.480309 1525.094656 33.106421 
Q 1526.038118 40.615654 1526.495468 50.429936 
Q 1526.955693 60.220454 1526.955693 72.601183 
Q 1526.955693 85.172019 1526.495468 95.010064 
Q 1526.038118 104.84811 1525.094656 112.333579 
Q 1524.016002 120.959691 1522.505886 124.571727 
Q 1520.995771 128.16 1517.97554 128.16 
L 1514.328252 128.16 
L 1514.328252 17.28 
z
" clip-path="url(#p9d32e55c9d)" style="fill: #6b296b"/>
   </g>
   <g id="patch_101">
    <path d="M 1531.080617 38.904689 
L 1531.080617 106.559074 
L 1532.32035 106.559074 
Q 1534.440264 106.559074 1535.559188 97.861672 
Q 1536.680988 89.164269 1536.680988 72.601183 
Q 1536.680988 56.13315 1535.564941 47.530802 
Q 1534.45177 38.904689 1532.32035 38.904689 
L 1531.080617 38.904689 
z
M 1527.620295 17.28 
L 1531.267584 17.28 
Q 1534.325208 17.28 1535.820941 20.892036 
Q 1537.316675 24.480309 1538.386699 33.106421 
Q 1539.330162 40.615654 1539.787511 50.429936 
Q 1540.247737 60.220454 1540.247737 72.601183 
Q 1540.247737 85.172019 1539.787511 95.010064 
Q 1539.330162 104.84811 1538.386699 112.333579 
Q 1537.308046 120.959691 1535.79793 124.571727 
Q 1534.287815 128.16 1531.267584 128.16 
L 1527.620295 128.16 
L 1527.620295 17.28 
z
" clip-path="url(#p9d32e55c9d)" style="fill: #6b296b"/>
   </g>
   <g id="patch_102">
    <path d="M 1544.934836 17.28 
L 1549.517284 17.28 
L 1549.517284 128.16 
L 1544.934836 128.16 
L 1544.934836 17.28 
z
" clip-path="url(#p9d32e55c9d)" style="fill: #21599c"/>
   </g>
   <g id="patch_103">
    <path d="M 1559.327911 66.446464 
Q 1560.461142 66.446464 1560.952809 63.119589 
Q 1561.444476 59.76895 1561.444476 52.117137 
Q 1561.444476 44.536614 1560.952809 41.281029 
Q 1560.461142 38.00168 1559.327911 38.00168 
L 1557.810939 38.00168 
L 1557.810939 66.446464 
L 1559.327911 66.446464 
z
M 1557.810939 86.193845 
L 1557.810939 128.16 
L 1554.204383 128.16 
L 1554.204383 17.28 
L 1559.71165 17.28 
Q 1562.475777 17.28 1563.761905 24.646652 
Q 1565.051032 31.989541 1565.051032 47.887252 
Q 1565.051032 58.865941 1564.379487 65.923669 
Q 1563.71094 72.981397 1562.361854 76.332036 
Q 1563.102352 77.662786 1563.686956 82.391702 
Q 1564.274558 87.096854 1564.874152 96.673502 
L 1566.831825 128.16 
L 1562.991428 128.16 
L 1561.285584 100.618225 
Q 1560.769933 92.301037 1560.239293 89.259323 
Q 1559.71165 86.193845 1558.830248 86.193845 
L 1557.810939 86.193845 
z
" clip-path="url(#p9d32e55c9d)" style="fill: #bd2e1f"/>
   </g>
   <g id="patch_104">
    <path d="M 1580.123869 118.127891 
Q 1578.85037 123.143945 1577.480652 125.663425 
Q 1576.110934 128.16 1574.650656 128.16 
Q 1571.350881 128.16 1569.423654 113.226358 
Q 1567.496427 98.292716 1567.496427 72.754357 
Q 1567.496427 46.91824 1569.457614 32.09912 
Q 1571.421631 17.28 1574.837436 17.28 
Q 1576.153384 17.28 1577.358963 19.295584 
Q 1578.567371 21.288263 1579.637109 25.227812 
L 1579.637109 47.330518 
Q 1578.533411 42.268655 1577.441032 39.77208 
Q 1576.348654 37.252601 1575.250616 37.252601 
Q 1573.218679 37.252601 1572.11781 46.460153 
Q 1571.016942 55.644801 1571.016942 72.754357 
Q 1571.016942 89.703582 1572.07819 98.956943 
Q 1573.139439 108.187399 1575.092136 108.187399 
Q 1575.624175 108.187399 1576.079804 107.660599 
Q 1576.535434 107.110894 1576.897673 105.965677 
L 1576.897673 85.214328 
L 1574.817626 85.214328 
L 1574.817626 66.73051 
L 1580.123869 66.73051 
L 1580.123869 118.127891 
z
" clip-path="url(#p9d32e55c9d)" style="fill: #787800"/>
   </g>
   <g id="patch_105">
    <path d="M 1589.535511 107.961114 
L 1584.679199 107.961114 
L 1583.912414 128.16 
L 1580.788471 128.16 
L 1585.249771 17.28 
L 1588.954612 17.28 
L 1593.415912 128.16 
L 1590.294551 128.16 
L 1589.535511 107.961114 
z
M 1585.453731 87.382015 
L 1588.753234 87.382015 
L 1587.106064 43.277154 
L 1585.453731 87.382015 
z
" clip-path="url(#p9d32e55c9d)" style="fill: #21599c"/>
   </g>
   <g id="patch_106">
    <path d="M 1599.204042 66.446464 
Q 1600.337274 66.446464 1600.828941 63.119589 
Q 1601.320607 59.76895 1601.320607 52.117137 
Q 1601.320607 44.536614 1600.828941 41.281029 
Q 1600.337274 38.00168 1599.204042 38.00168 
L 1597.68707 38.00168 
L 1597.68707 66.446464 
L 1599.204042 66.446464 
z
M 1597.68707 86.193845 
L 1597.68707 128.16 
L 1594.080515 128.16 
L 1594.080515 17.28 
L 1599.587782 17.28 
Q 1602.351909 17.28 1603.638037 24.646652 
Q 1604.927163 31.989541 1604.927163 47.887252 
Q 1604.927163 58.865941 1604.255618 65.923669 
Q 1603.587071 72.981397 1602.237986 76.332036 
Q 1602.978484 77.662786 1603.563088 82.391702 
Q 1604.150689 87.096854 1604.750283 96.673502 
L 1606.707956 128.16 
L 1602.867559 128.16 
L 1601.161715 100.618225 
Q 1600.646065 92.301037 1600.115424 89.259323 
Q 1599.587782 86.193845 1598.706379 86.193845 
L 1597.68707 86.193845 
z
" clip-path="url(#p9d32e55c9d)" style="fill: #bd2e1f"/>
   </g>
   <g id="patch_107">
    <path d="M 1620 118.127891 
Q 1618.726502 123.143945 1617.356784 125.663425 
Q 1615.987066 128.16 1614.526788 128.16 
Q 1611.227013 128.16 1609.299786 113.226358 
Q 1607.372558 98.292716 1607.372558 72.754357 
Q 1607.372558 46.91824 1609.333746 32.09912 
Q 1611.297763 17.28 1614.713568 17.28 
Q 1616.029516 17.28 1617.235094 19.295584 
Q 1618.443502 21.288263 1619.513241 25.227812 
L 1619.513241 47.330518 
Q 1618.409542 42.268655 1617.317164 39.77208 
Q 1616.224785 37.252601 1615.126747 37.252601 
Q 1613.09481 37.252601 1611.993942 46.460153 
Q 1610.893073 55.644801 1610.893073 72.754357 
Q 1610.893073 89.703582 1611.954322 98.956943 
Q 1613.01557 108.187399 1614.968267 108.187399 
Q 1615.500307 108.187399 1615.955936 107.660599 
Q 1616.411565 107.110894 1616.773805 105.965677 
L 1616.773805 85.214328 
L 1614.693758 85.214328 
L 1614.693758 66.73051 
L 1620 66.73051 
L 1620 118.127891 
z
" clip-path="url(#p9d32e55c9d)" style="fill: #787800"/>
   </g>
   <g id="matplotlib.axis_1">
    <g id="xtick_1">
     <g id="line2d_2">
      <defs>
       <path id="m14d290e0cf" d="M 0 0 
L 0 3.5 
" style="stroke: #000000; stroke-width: 0.8"/>
      </defs>
      <g>
       <use xlink:href="#m14d290e0cf" x="231.313721" y="128.16" style="stroke: #000000; stroke-width: 0.8"/>
      </g>
     </g>
     <g id="text_1">
      <!-- 0 -->
      <g transform="translate(228.132471 142.758438) scale(0.1 -0.1)">
       <defs>
        <path id="DejaVuSans-30" d="M 2034 4250 
Q 1547 4250 1301 3770 
Q 1056 3291 1056 2328 
Q 1056 1369 1301 889 
Q 1547 409 2034 409 
Q 2525 409 2770 889 
Q 3016 1369 3016 2328 
Q 3016 3291 2770 3770 
Q 2525 4250 2034 4250 
z
M 2034 4750 
Q 2819 4750 3233 4129 
Q 3647 3509 3647 2328 
Q 3647 1150 3233 529 
Q 2819 -91 2034 -91 
Q 1250 -91 836 529 
Q 422 1150 422 2328 
Q 422 3509 836 4129 
Q 1250 4750 2034 4750 
z
" transform="scale(0.015625)"/>
       </defs>
       <use xlink:href="#DejaVuSans-30"/>
      </g>
     </g>
    </g>
    <g id="xtick_2">
     <g id="line2d_3">
      <g>
       <use xlink:href="#m14d290e0cf" x="497.154597" y="128.16" style="stroke: #000000; stroke-width: 0.8"/>
      </g>
     </g>
     <g id="text_2">
      <!-- 20 -->
      <g transform="translate(490.792097 142.758438) scale(0.1 -0.1)">
       <defs>
        <path id="DejaVuSans-32" d="M 1228 531 
L 3431 531 
L 3431 0 
L 469 0 
L 469 531 
Q 828 903 1448 1529 
Q 2069 2156 2228 2338 
Q 2531 2678 2651 2914 
Q 2772 3150 2772 3378 
Q 2772 3750 2511 3984 
Q 2250 4219 1831 4219 
Q 1534 4219 1204 4116 
Q 875 4013 500 3803 
L 500 4441 
Q 881 4594 1212 4672 
Q 1544 4750 1819 4750 
Q 2544 4750 2975 4387 
Q 3406 4025 3406 3419 
Q 3406 3131 3298 2873 
Q 3191 2616 2906 2266 
Q 2828 2175 2409 1742 
Q 1991 1309 1228 531 
z
" transform="scale(0.015625)"/>
       </defs>
       <use xlink:href="#DejaVuSans-32"/>
       <use xlink:href="#DejaVuSans-30" x="63.623047"/>
      </g>
     </g>
    </g>
    <g id="xtick_3">
     <g id="line2d_4">
      <g>
       <use xlink:href="#m14d290e0cf" x="762.995474" y="128.16" style="stroke: #000000; stroke-width: 0.8"/>
      </g>
     </g>
     <g id="text_3">
      <!-- 40 -->
      <g transform="translate(756.632974 142.758438) scale(0.1 -0.1)">
       <defs>
        <path id="DejaVuSans-34" d="M 2419 4116 
L 825 1625 
L 2419 1625 
L 2419 4116 
z
M 2253 4666 
L 3047 4666 
L 3047 1625 
L 3713 1625 
L 3713 1100 
L 3047 1100 
L 3047 0 
L 2419 0 
L 2419 1100 
L 313 1100 
L 313 1709 
L 2253 4666 
z
" transform="scale(0.015625)"/>
       </defs>
       <use xlink:href="#DejaVuSans-34"/>
       <use xlink:href="#DejaVuSans-30" x="63.623047"/>
      </g>
     </g>
    </g>
    <g id="xtick_4">
     <g id="line2d_5">
      <g>
       <use xlink:href="#m14d290e0cf" x="1028.836351" y="128.16" style="stroke: #000000; stroke-width: 0.8"/>
      </g>
     </g>
     <g id="text_4">
      <!-- 60 -->
      <g transform="translate(1022.473851 142.758438) scale(0.1 -0.1)">
       <defs>
        <path id="DejaVuSans-36" d="M 2113 2584 
Q 1688 2584 1439 2293 
Q 1191 2003 1191 1497 
Q 1191 994 1439 701 
Q 1688 409 2113 409 
Q 2538 409 2786 701 
Q 3034 994 3034 1497 
Q 3034 2003 2786 2293 
Q 2538 2584 2113 2584 
z
M 3366 4563 
L 3366 3988 
Q 3128 4100 2886 4159 
Q 2644 4219 2406 4219 
Q 1781 4219 1451 3797 
Q 1122 3375 1075 2522 
Q 1259 2794 1537 2939 
Q 1816 3084 2150 3084 
Q 2853 3084 3261 2657 
Q 3669 2231 3669 1497 
Q 3669 778 3244 343 
Q 2819 -91 2113 -91 
Q 1303 -91 875 529 
Q 447 1150 447 2328 
Q 447 3434 972 4092 
Q 1497 4750 2381 4750 
Q 2619 4750 2861 4703 
Q 3103 4656 3366 4563 
z
" transform="scale(0.015625)"/>
       </defs>
       <use xlink:href="#DejaVuSans-36"/>
       <use xlink:href="#DejaVuSans-30" x="63.623047"/>
      </g>
     </g>
    </g>
    <g id="xtick_5">
     <g id="line2d_6">
      <g>
       <use xlink:href="#m14d290e0cf" x="1294.677227" y="128.16" style="stroke: #000000; stroke-width: 0.8"/>
      </g>
     </g>
     <g id="text_5">
      <!-- 80 -->
      <g transform="translate(1288.314727 142.758438) scale(0.1 -0.1)">
       <defs>
        <path id="DejaVuSans-38" d="M 2034 2216 
Q 1584 2216 1326 1975 
Q 1069 1734 1069 1313 
Q 1069 891 1326 650 
Q 1584 409 2034 409 
Q 2484 409 2743 651 
Q 3003 894 3003 1313 
Q 3003 1734 2745 1975 
Q 2488 2216 2034 2216 
z
M 1403 2484 
Q 997 2584 770 2862 
Q 544 3141 544 3541 
Q 544 4100 942 4425 
Q 1341 4750 2034 4750 
Q 2731 4750 3128 4425 
Q 3525 4100 3525 3541 
Q 3525 3141 3298 2862 
Q 3072 2584 2669 2484 
Q 3125 2378 3379 2068 
Q 3634 1759 3634 1313 
Q 3634 634 3220 271 
Q 2806 -91 2034 -91 
Q 1263 -91 848 271 
Q 434 634 434 1313 
Q 434 1759 690 2068 
Q 947 2378 1403 2484 
z
M 1172 3481 
Q 1172 3119 1398 2916 
Q 1625 2713 2034 2713 
Q 2441 2713 2670 2916 
Q 2900 3119 2900 3481 
Q 2900 3844 2670 4047 
Q 2441 4250 2034 4250 
Q 1625 4250 1398 4047 
Q 1172 3844 1172 3481 
z
" transform="scale(0.015625)"/>
       </defs>
       <use xlink:href="#DejaVuSans-38"/>
       <use xlink:href="#DejaVuSans-30" x="63.623047"/>
      </g>
     </g>
    </g>
    <g id="xtick_6">
     <g id="line2d_7">
      <g>
       <use xlink:href="#m14d290e0cf" x="1560.518104" y="128.16" style="stroke: #000000; stroke-width: 0.8"/>
      </g>
     </g>
     <g id="text_6">
      <!-- 100 -->
      <g transform="translate(1550.974354 142.758438) scale(0.1 -0.1)">
       <defs>
        <path id="DejaVuSans-31" d="M 794 531 
L 1825 531 
L 1825 4091 
L 703 3866 
L 703 4441 
L 1819 4666 
L 2450 4666 
L 2450 531 
L 3481 531 
L 3481 0 
L 794 0 
L 794 531 
z
" transform="scale(0.015625)"/>
       </defs>
       <use xlink:href="#DejaVuSans-31"/>
       <use xlink:href="#DejaVuSans-30" x="63.623047"/>
       <use xlink:href="#DejaVuSans-30" x="127.246094"/>
      </g>
     </g>
    </g>
   </g>
   <g id="matplotlib.axis_2">
    <g id="ytick_1">
     <g id="line2d_8">
      <defs>
       <path id="m373b14622b" d="M 0 0 
L -3.5 0 
" style="stroke: #000000; stroke-width: 0.8"/>
      </defs>
      <g>
       <use xlink:href="#m373b14622b" x="225" y="128.16" style="stroke: #000000; stroke-width: 0.8"/>
      </g>
     </g>
     <g id="text_7">
      <!-- 0 -->
      <g transform="translate(211.6375 131.959219) scale(0.1 -0.1)">
       <use xlink:href="#DejaVuSans-30"/>
      </g>
     </g>
    </g>
    <g id="ytick_2">
     <g id="line2d_9">
      <g>
       <use xlink:href="#m373b14622b" x="225" y="105.984" style="stroke: #000000; stroke-width: 0.8"/>
      </g>
     </g>
     <g id="text_8">
      <!-- 1 -->
      <g transform="translate(211.6375 109.783219) scale(0.1 -0.1)">
       <use xlink:href="#DejaVuSans-31"/>
      </g>
     </g>
    </g>
    <g id="ytick_3">
     <g id="line2d_10">
      <g>
       <use xlink:href="#m373b14622b" x="225" y="83.808" style="stroke: #000000; stroke-width: 0.8"/>
      </g>
     </g>
     <g id="text_9">
      <!-- 2 -->
      <g transform="translate(211.6375 87.607219) scale(0.1 -0.1)">
       <use xlink:href="#DejaVuSans-32"/>
      </g>
     </g>
    </g>
    <g id="ytick_4">
     <g id="line2d_11">
      <g>
       <use xlink:href="#m373b14622b" x="225" y="61.632" style="stroke: #000000; stroke-width: 0.8"/>
      </g>
     </g>
     <g id="text_10">
      <!-- 3 -->
      <g transform="translate(211.6375 65.431219) scale(0.1 -0.1)">
       <defs>
        <path id="DejaVuSans-33" d="M 2597 2516 
Q 3050 2419 3304 2112 
Q 3559 1806 3559 1356 
Q 3559 666 3084 287 
Q 2609 -91 1734 -91 
Q 1441 -91 1130 -33 
Q 819 25 488 141 
L 488 750 
Q 750 597 1062 519 
Q 1375 441 1716 441 
Q 2309 441 2620 675 
Q 2931 909 2931 1356 
Q 2931 1769 2642 2001 
Q 2353 2234 1838 2234 
L 1294 2234 
L 1294 2753 
L 1863 2753 
Q 2328 2753 2575 2939 
Q 2822 3125 2822 3475 
Q 2822 3834 2567 4026 
Q 2313 4219 1838 4219 
Q 1578 4219 1281 4162 
Q 984 4106 628 3988 
L 628 4550 
Q 988 4650 1302 4700 
Q 1616 4750 1894 4750 
Q 2613 4750 3031 4423 
Q 3450 4097 3450 3541 
Q 3450 3153 3228 2886 
Q 3006 2619 2597 2516 
z
" transform="scale(0.015625)"/>
       </defs>
       <use xlink:href="#DejaVuSans-33"/>
      </g>
     </g>
    </g>
    <g id="ytick_5">
     <g id="line2d_12">
      <g>
       <use xlink:href="#m373b14622b" x="225" y="39.456" style="stroke: #000000; stroke-width: 0.8"/>
      </g>
     </g>
     <g id="text_11">
      <!-- 4 -->
      <g transform="translate(211.6375 43.255219) scale(0.1 -0.1)">
       <use xlink:href="#DejaVuSans-34"/>
      </g>
     </g>
    </g>
    <g id="ytick_6">
     <g id="line2d_13">
      <g>
       <use xlink:href="#m373b14622b" x="225" y="17.28" style="stroke: #000000; stroke-width: 0.8"/>
      </g>
     </g>
     <g id="text_12">
      <!-- 5 -->
      <g transform="translate(211.6375 21.079219) scale(0.1 -0.1)">
       <defs>
        <path id="DejaVuSans-35" d="M 691 4666 
L 3169 4666 
L 3169 4134 
L 1269 4134 
L 1269 2991 
Q 1406 3038 1543 3061 
Q 1681 3084 1819 3084 
Q 2600 3084 3056 2656 
Q 3513 2228 3513 1497 
Q 3513 744 3044 326 
Q 2575 -91 1722 -91 
Q 1428 -91 1123 -41 
Q 819 9 494 109 
L 494 744 
Q 775 591 1075 516 
Q 1375 441 1709 441 
Q 2250 441 2565 725 
Q 2881 1009 2881 1497 
Q 2881 1984 2565 2268 
Q 2250 2553 1709 2553 
Q 1456 2553 1204 2497 
Q 953 2441 691 2322 
L 691 4666 
z
" transform="scale(0.015625)"/>
       </defs>
       <use xlink:href="#DejaVuSans-35"/>
      </g>
     </g>
    </g>
   </g>
  </g>
 </g>
 <defs>
  <clipPath id="p9d32e55c9d">
   <rect x="225" y="17.28" width="1395" height="110.88"/>
  </clipPath>
 </defs>
</svg>
