<?xml version="1.0" encoding="utf-8" standalone="no"?>
<!DOCTYPE svg PUBLIC "-//W3C//DTD SVG 1.1//EN"
  "http://www.w3.org/Graphics/SVG/1.1/DTD/svg11.dtd">
<svg xmlns:xlink="http://www.w3.org/1999/xlink" width="1800pt" height="144pt" viewBox="0 0 1800 144" xmlns="http://www.w3.org/2000/svg" version="1.1">
 <metadata>
  <rdf:RDF xmlns:dc="http://purl.org/dc/elements/1.1/" xmlns:cc="http://creativecommons.org/ns#" xmlns:rdf="http://www.w3.org/1999/02/22-rdf-syntax-ns#">
   <cc:Work>
    <dc:type rdf:resource="http://purl.org/dc/dcmitype/StillImage"/>
    <dc:date>2025-05-09T21:11:05.542906</dc:date>
    <dc:format>image/svg+xml</dc:format>
    <dc:creator>
     <cc:Agent>
      <dc:title>Matplotlib v3.8.0, https://matplotlib.org/</dc:title>
     </cc:Agent>
    </dc:creator>
   </cc:Work>
  </rdf:RDF>
 </metadata>
 <defs>
  <style type="text/css">*{stroke-linejoin: round; stroke-linecap: butt}</style>
 </defs>
 <g id="figure_1">
  <g id="patch_1">
   <path d="M 0 144 
L 1800 144 
L 1800 0 
L 0 0 
z
" style="fill: #ffffff"/>
  </g>
  <g id="axes_1">
   <g id="patch_2">
    <path d="M 225 128.16 
L 1620 128.16 
L 1620 17.28 
L 225 17.28 
z
" style="fill: #ffffff"/>
   </g>
   <g id="line2d_1">
    <path d="M 225 128.16 
L 1620 128.16 
" clip-path="url(#p46cb210e3e)" style="fill: none; stroke: #000000; stroke-width: 1.5; stroke-linecap: square"/>
   </g>
   <g id="patch_3">
    <path d="M 225 17.28 
L 234.319094 17.28 
L 240.783416 76.617197 
L 247.290347 17.28 
L 256.59118 17.28 
L 256.59118 128.16 
L 249.670338 128.16 
L 249.670338 47.055534 
L 243.126885 106.844235 
L 238.482556 106.844235 
L 231.939103 47.055534 
L 231.939103 128.16 
L 225 128.16 
L 225 17.28 
z
" clip-path="url(#p46cb210e3e)" style="fill: #21599c"/>
   </g>
   <g id="patch_4">
    <path d="M 289.845054 118.127891 
Q 286.659031 123.143945 283.232288 125.663425 
Q 279.805544 128.16 276.152238 128.16 
Q 267.896901 128.16 263.075387 113.226358 
Q 258.253874 98.292716 258.253874 72.754357 
Q 258.253874 46.91824 263.160348 32.09912 
Q 268.073902 17.28 276.619522 17.28 
Q 279.911744 17.28 282.927845 19.295584 
Q 285.951027 21.288263 288.627285 25.227812 
L 288.627285 47.330518 
Q 285.866066 42.268655 283.133167 39.77208 
Q 280.400268 37.252601 277.653209 37.252601 
Q 272.569733 37.252601 269.815594 46.460153 
Q 267.061455 55.644801 267.061455 72.754357 
Q 267.061455 89.703582 269.716473 98.956943 
Q 272.371492 108.187399 277.256726 108.187399 
Q 278.587775 108.187399 279.727663 107.660599 
Q 280.867551 107.110894 281.773797 105.965677 
L 281.773797 85.214328 
L 276.569961 85.214328 
L 276.569961 66.73051 
L 289.845054 66.73051 
L 289.845054 118.127891 
z
" clip-path="url(#p46cb210e3e)" style="fill: #787800"/>
   </g>
   <g id="patch_5">
    <path d="M 291.507747 17.28 
L 299.832871 17.28 
L 299.832871 57.749061 
L 311.832675 17.28 
L 321.500337 17.28 
L 305.950418 69.797102 
L 323.098927 128.16 
L 312.676952 128.16 
L 299.832871 84.48288 
L 299.832871 128.16 
L 291.507747 128.16 
L 291.507747 17.28 
z
" clip-path="url(#p46cb210e3e)" style="fill: #bd2e1f"/>
   </g>
   <g id="patch_6">
    <path d="M 334.825056 17.28 
L 346.289366 17.28 
L 346.289366 128.16 
L 334.825056 128.16 
L 334.825056 17.28 
z
" clip-path="url(#p46cb210e3e)" style="fill: #21599c"/>
   </g>
   <g id="patch_7">
    <path d="M 358.344272 17.28 
L 389.277898 17.28 
L 389.277898 38.904689 
L 369.808582 38.904689 
L 369.808582 59.531316 
L 388.124796 59.531316 
L 388.124796 81.156005 
L 369.808582 81.156005 
L 369.808582 128.16 
L 358.344272 128.16 
L 358.344272 17.28 
z
" clip-path="url(#p46cb210e3e)" style="fill: #21599c"/>
   </g>
   <g id="patch_8">
    <path d="M 422.860548 118.127891 
Q 419.674526 123.143945 416.247782 125.663425 
Q 412.821038 128.16 409.167733 128.16 
Q 400.912395 128.16 396.090882 113.226358 
Q 391.269368 98.292716 391.269368 72.754357 
Q 391.269368 46.91824 396.175842 32.09912 
Q 401.089397 17.28 409.635016 17.28 
Q 412.927239 17.28 415.94334 19.295584 
Q 418.966521 21.288263 421.64278 25.227812 
L 421.64278 47.330518 
Q 418.881561 42.268655 416.148662 39.77208 
Q 413.415763 37.252601 410.668703 37.252601 
Q 405.585228 37.252601 402.831089 46.460153 
Q 400.07695 55.644801 400.07695 72.754357 
Q 400.07695 89.703582 402.731968 98.956943 
Q 405.386987 108.187399 410.272221 108.187399 
Q 411.60327 108.187399 412.743158 107.660599 
Q 413.883046 107.110894 414.789292 105.965677 
L 414.789292 85.214328 
L 409.585456 85.214328 
L 409.585456 66.73051 
L 422.860548 66.73051 
L 422.860548 118.127891 
z
" clip-path="url(#p46cb210e3e)" style="fill: #787800"/>
   </g>
   <g id="patch_9">
    <path d="M 424.523242 17.28 
L 456.114422 17.28 
L 456.114422 38.904689 
L 444.748944 38.904689 
L 444.748944 128.16 
L 435.91076 128.16 
L 435.91076 38.904689 
L 424.523242 38.904689 
L 424.523242 17.28 
z
" clip-path="url(#p46cb210e3e)" style="fill: #40ba47"/>
   </g>
   <g id="patch_10">
    <path d="M 489.368296 118.127891 
Q 486.182273 123.143945 482.75553 125.663425 
Q 479.328786 128.16 475.67548 128.16 
Q 467.420143 128.16 462.598629 113.226358 
Q 457.777116 98.292716 457.777116 72.754357 
Q 457.777116 46.91824 462.68359 32.09912 
Q 467.597144 17.28 476.142763 17.28 
Q 479.434986 17.28 482.451087 19.295584 
Q 485.474268 21.288263 488.150527 25.227812 
L 488.150527 47.330518 
Q 485.389308 42.268655 482.656409 39.77208 
Q 479.92351 37.252601 477.176451 37.252601 
Q 472.092975 37.252601 469.338836 46.460153 
Q 466.584697 55.644801 466.584697 72.754357 
Q 466.584697 89.703582 469.239715 98.956943 
Q 471.894734 108.187399 476.779968 108.187399 
Q 478.111017 108.187399 479.250905 107.660599 
Q 480.390793 107.110894 481.297039 105.965677 
L 481.297039 85.214328 
L 476.093203 85.214328 
L 476.093203 66.73051 
L 489.368296 66.73051 
L 489.368296 118.127891 
z
" clip-path="url(#p46cb210e3e)" style="fill: #787800"/>
   </g>
   <g id="patch_11">
    <path d="M 491.030989 17.28 
L 502.4953 17.28 
L 502.4953 106.559074 
L 522.622169 106.559074 
L 522.622169 128.16 
L 491.030989 128.16 
L 491.030989 17.28 
z
" clip-path="url(#p46cb210e3e)" style="fill: #21599c"/>
   </g>
   <g id="patch_12">
    <path d="M 524.284863 17.28 
L 555.876043 17.28 
L 555.876043 38.904689 
L 544.510565 38.904689 
L 544.510565 128.16 
L 535.672381 128.16 
L 535.672381 38.904689 
L 524.284863 38.904689 
L 524.284863 17.28 
z
" clip-path="url(#p46cb210e3e)" style="fill: #40ba47"/>
   </g>
   <g id="patch_13">
    <path d="M 557.538737 17.28 
L 589.129917 17.28 
L 589.129917 38.904689 
L 577.764439 38.904689 
L 577.764439 128.16 
L 568.926255 128.16 
L 568.926255 38.904689 
L 557.538737 38.904689 
L 557.538737 17.28 
z
" clip-path="url(#p46cb210e3e)" style="fill: #40ba47"/>
   </g>
   <g id="patch_14">
    <path d="M 591.121387 17.28 
L 622.055013 17.28 
L 622.055013 38.904689 
L 602.585698 38.904689 
L 602.585698 59.531316 
L 620.901911 59.531316 
L 620.901911 81.156005 
L 602.585698 81.156005 
L 602.585698 128.16 
L 591.121387 128.16 
L 591.121387 17.28 
z
" clip-path="url(#p46cb210e3e)" style="fill: #21599c"/>
   </g>
   <g id="patch_15">
    <path d="M 624.046484 17.28 
L 631.861926 17.28 
L 639.851762 99.121132 
L 647.828681 17.28 
L 655.637664 17.28 
L 644.476437 128.16 
L 635.20771 128.16 
L 624.046484 17.28 
z
" clip-path="url(#p46cb210e3e)" style="fill: #21599c"/>
   </g>
   <g id="patch_16">
    <path d="M 657.300358 17.28 
L 668.764668 17.28 
L 668.764668 106.559074 
L 688.891538 106.559074 
L 688.891538 128.16 
L 657.300358 128.16 
L 657.300358 17.28 
z
" clip-path="url(#p46cb210e3e)" style="fill: #21599c"/>
   </g>
   <g id="patch_17">
    <path d="M 712.437469 107.961114 
L 700.288009 107.961114 
L 698.369673 128.16 
L 690.554231 128.16 
L 701.715458 17.28 
L 710.984185 17.28 
L 722.145411 128.16 
L 714.336428 128.16 
L 712.437469 107.961114 
z
M 702.225722 87.382015 
L 710.480379 87.382015 
L 706.35951 43.277154 
L 702.225722 87.382015 
z
" clip-path="url(#p46cb210e3e)" style="fill: #21599c"/>
   </g>
   <g id="patch_18">
    <path d="M 723.808105 17.28 
L 735.272415 17.28 
L 735.272415 106.559074 
L 755.399285 106.559074 
L 755.399285 128.16 
L 723.808105 128.16 
L 723.808105 17.28 
z
" clip-path="url(#p46cb210e3e)" style="fill: #21599c"/>
   </g>
   <g id="patch_19">
    <path d="M 757.061979 17.28 
L 768.526289 17.28 
L 768.526289 106.559074 
L 788.653159 106.559074 
L 788.653159 128.16 
L 757.061979 128.16 
L 757.061979 17.28 
z
" clip-path="url(#p46cb210e3e)" style="fill: #21599c"/>
   </g>
   <g id="patch_20">
    <path d="M 790.315852 17.28 
L 798.131294 17.28 
L 806.121131 99.121132 
L 814.098049 17.28 
L 821.907032 17.28 
L 810.745806 128.16 
L 801.477079 128.16 
L 790.315852 17.28 
z
" clip-path="url(#p46cb210e3e)" style="fill: #21599c"/>
   </g>
   <g id="patch_21">
    <path d="M 845.452964 107.961114 
L 833.303504 107.961114 
L 831.385168 128.16 
L 823.569726 128.16 
L 834.730952 17.28 
L 843.999679 17.28 
L 855.160906 128.16 
L 847.351923 128.16 
L 845.452964 107.961114 
z
M 835.241217 87.382015 
L 843.495874 87.382015 
L 839.375004 43.277154 
L 835.241217 87.382015 
z
" clip-path="url(#p46cb210e3e)" style="fill: #21599c"/>
   </g>
   <g id="patch_22">
    <path d="M 856.8236 17.28 
L 868.28791 17.28 
L 868.28791 106.559074 
L 888.414779 106.559074 
L 888.414779 128.16 
L 856.8236 128.16 
L 856.8236 17.28 
z
" clip-path="url(#p46cb210e3e)" style="fill: #21599c"/>
   </g>
   <g id="patch_23">
    <path d="M 890.077473 17.28 
L 906.498305 17.28 
Q 913.828446 17.28 917.744436 26.690304 
Q 921.668653 36.076845 921.668653 53.447887 
Q 921.668653 70.913982 917.744436 80.300523 
Q 913.828446 89.687064 906.498305 89.687064 
L 899.974398 89.687064 
L 899.974398 128.16 
L 890.077473 128.16 
L 890.077473 17.28 
z
M 899.974398 38.00168 
L 899.974398 68.965384 
L 905.445266 68.965384 
Q 908.32467 68.965384 909.896002 64.925607 
Q 911.467335 60.885829 911.467335 53.447887 
Q 911.467335 46.033708 909.896002 42.017694 
Q 908.32467 38.00168 905.445266 38.00168 
L 899.974398 38.00168 
z
" clip-path="url(#p46cb210e3e)" style="fill: #787800"/>
   </g>
   <g id="patch_24">
    <path d="M 923.331347 17.28 
L 934.795657 17.28 
L 934.795657 106.559074 
L 954.922527 106.559074 
L 954.922527 128.16 
L 923.331347 128.16 
L 923.331347 17.28 
z
" clip-path="url(#p46cb210e3e)" style="fill: #21599c"/>
   </g>
   <g id="patch_25">
    <path d="M 988.1764 118.127891 
Q 984.990378 123.143945 981.563634 125.663425 
Q 978.136891 128.16 974.483585 128.16 
Q 966.228248 128.16 961.406734 113.226358 
Q 956.585221 98.292716 956.585221 72.754357 
Q 956.585221 46.91824 961.491695 32.09912 
Q 966.405249 17.28 974.950868 17.28 
Q 978.243091 17.28 981.259192 19.295584 
Q 984.282373 21.288263 986.958632 25.227812 
L 986.958632 47.330518 
Q 984.197413 42.268655 981.464514 39.77208 
Q 978.731615 37.252601 975.984556 37.252601 
Q 970.90108 37.252601 968.146941 46.460153 
Q 965.392802 55.644801 965.392802 72.754357 
Q 965.392802 89.703582 968.04782 98.956943 
Q 970.702839 108.187399 975.588073 108.187399 
Q 976.919122 108.187399 978.05901 107.660599 
Q 979.198898 107.110894 980.105144 105.965677 
L 980.105144 85.214328 
L 974.901308 85.214328 
L 974.901308 66.73051 
L 988.1764 66.73051 
L 988.1764 118.127891 
z
" clip-path="url(#p46cb210e3e)" style="fill: #787800"/>
   </g>
   <g id="patch_26">
    <path d="M 989.839094 17.28 
L 1021.430274 17.28 
L 1021.430274 38.904689 
L 1010.064796 38.904689 
L 1010.064796 128.16 
L 1001.226613 128.16 
L 1001.226613 38.904689 
L 989.839094 38.904689 
L 989.839094 17.28 
z
" clip-path="url(#p46cb210e3e)" style="fill: #40ba47"/>
   </g>
   <g id="patch_27">
    <path d="M 1052.050119 22.570907 
L 1052.050119 45.200413 
Q 1048.755439 41.260863 1045.615197 39.268184 
Q 1042.483535 37.252601 1039.695068 37.252601 
Q 1035.997133 37.252601 1034.221094 39.978219 
Q 1032.453635 42.680934 1032.453635 48.407023 
Q 1032.453635 52.713043 1033.646241 55.118 
Q 1034.838847 57.500054 1037.979089 59.217881 
L 1042.371996 61.57703 
Q 1049.047156 65.173014 1051.861362 72.479504 
Q 1054.684148 79.76309 1054.684148 93.230853 
Q 1054.684148 110.890114 1050.754555 119.525057 
Q 1046.824962 128.16 1038.751279 128.16 
Q 1034.950385 128.16 1031.115171 126.21313 
Q 1027.279957 124.289163 1023.444744 120.48704 
L 1023.444744 97.239116 
Q 1027.279957 102.667449 1030.857774 105.438876 
Q 1034.435591 108.187399 1037.764591 108.187399 
Q 1041.145071 108.187399 1042.938269 105.186928 
Q 1044.731468 102.163553 1044.731468 96.574889 
Q 1044.731468 91.581739 1043.513122 88.856121 
Q 1042.294777 86.130502 1038.648321 83.977492 
L 1034.650089 81.618343 
Q 1028.644161 78.18269 1025.864274 70.67006 
Q 1023.092968 63.15743 1023.092968 50.422607 
Q 1023.092968 34.458269 1026.953921 25.869134 
Q 1030.814875 17.28 1038.056308 17.28 
Q 1041.359568 17.28 1044.843006 18.608453 
Q 1048.326444 19.936906 1052.050119 22.570907 
z
" clip-path="url(#p46cb210e3e)" style="fill: #40ba47"/>
   </g>
   <g id="patch_28">
    <path d="M 1056.346841 17.28 
L 1067.811152 17.28 
L 1067.811152 106.559074 
L 1087.938021 106.559074 
L 1087.938021 128.16 
L 1056.346841 128.16 
L 1056.346841 17.28 
z
" clip-path="url(#p46cb210e3e)" style="fill: #21599c"/>
   </g>
   <g id="patch_29">
    <path d="M 1089.600715 17.28 
L 1121.191895 17.28 
L 1121.191895 38.904689 
L 1109.826417 38.904689 
L 1109.826417 128.16 
L 1100.988234 128.16 
L 1100.988234 38.904689 
L 1089.600715 38.904689 
L 1089.600715 17.28 
z
" clip-path="url(#p46cb210e3e)" style="fill: #40ba47"/>
   </g>
   <g id="patch_30">
    <path d="M 1144.737827 107.961114 
L 1132.588367 107.961114 
L 1130.670031 128.16 
L 1122.854589 128.16 
L 1134.015815 17.28 
L 1143.284542 17.28 
L 1154.445769 128.16 
L 1146.636786 128.16 
L 1144.737827 107.961114 
z
M 1134.52608 87.382015 
L 1142.780737 87.382015 
L 1138.659867 43.277154 
L 1134.52608 87.382015 
z
" clip-path="url(#p46cb210e3e)" style="fill: #21599c"/>
   </g>
   <g id="patch_31">
    <path d="M 1187.699642 118.127891 
Q 1184.51362 123.143945 1181.086876 125.663425 
Q 1177.660133 128.16 1174.006827 128.16 
Q 1165.75149 128.16 1160.929976 113.226358 
Q 1156.108462 98.292716 1156.108462 72.754357 
Q 1156.108462 46.91824 1161.014937 32.09912 
Q 1165.928491 17.28 1174.47411 17.28 
Q 1177.766333 17.28 1180.782434 19.295584 
Q 1183.805615 21.288263 1186.481874 25.227812 
L 1186.481874 47.330518 
Q 1183.720655 42.268655 1180.987756 39.77208 
Q 1178.254857 37.252601 1175.507798 37.252601 
Q 1170.424322 37.252601 1167.670183 46.460153 
Q 1164.916044 55.644801 1164.916044 72.754357 
Q 1164.916044 89.703582 1167.571062 98.956943 
Q 1170.226081 108.187399 1175.111315 108.187399 
Q 1176.442364 108.187399 1177.582252 107.660599 
Q 1178.72214 107.110894 1179.628386 105.965677 
L 1179.628386 85.214328 
L 1174.42455 85.214328 
L 1174.42455 66.73051 
L 1187.699642 66.73051 
L 1187.699642 118.127891 
z
" clip-path="url(#p46cb210e3e)" style="fill: #787800"/>
   </g>
   <g id="patch_32">
    <path d="M 1220.953516 118.127891 
Q 1217.767494 123.143945 1214.34075 125.663425 
Q 1210.914006 128.16 1207.260701 128.16 
Q 1199.005363 128.16 1194.18385 113.226358 
Q 1189.362336 98.292716 1189.362336 72.754357 
Q 1189.362336 46.91824 1194.26881 32.09912 
Q 1199.182364 17.28 1207.727984 17.28 
Q 1211.020207 17.28 1214.036308 19.295584 
Q 1217.059489 21.288263 1219.735748 25.227812 
L 1219.735748 47.330518 
Q 1216.974528 42.268655 1214.241629 39.77208 
Q 1211.50873 37.252601 1208.761671 37.252601 
Q 1203.678196 37.252601 1200.924057 46.460153 
Q 1198.169917 55.644801 1198.169917 72.754357 
Q 1198.169917 89.703582 1200.824936 98.956943 
Q 1203.479954 108.187399 1208.365188 108.187399 
Q 1209.696238 108.187399 1210.836126 107.660599 
Q 1211.976014 107.110894 1212.88226 105.965677 
L 1212.88226 85.214328 
L 1207.678424 85.214328 
L 1207.678424 66.73051 
L 1220.953516 66.73051 
L 1220.953516 118.127891 
z
" clip-path="url(#p46cb210e3e)" style="fill: #787800"/>
   </g>
   <g id="patch_33">
    <path d="M 1254.20739 118.127891 
Q 1251.021368 123.143945 1247.594624 125.663425 
Q 1244.16788 128.16 1240.514574 128.16 
Q 1232.259237 128.16 1227.437723 113.226358 
Q 1222.61621 98.292716 1222.61621 72.754357 
Q 1222.61621 46.91824 1227.522684 32.09912 
Q 1232.436238 17.28 1240.981858 17.28 
Q 1244.274081 17.28 1247.290182 19.295584 
Q 1250.313363 21.288263 1252.989621 25.227812 
L 1252.989621 47.330518 
Q 1250.228402 42.268655 1247.495503 39.77208 
Q 1244.762604 37.252601 1242.015545 37.252601 
Q 1236.932069 37.252601 1234.17793 46.460153 
Q 1231.423791 55.644801 1231.423791 72.754357 
Q 1231.423791 89.703582 1234.07881 98.956943 
Q 1236.733828 108.187399 1241.619062 108.187399 
Q 1242.950111 108.187399 1244.089999 107.660599 
Q 1245.229887 107.110894 1246.136134 105.965677 
L 1246.136134 85.214328 
L 1240.932297 85.214328 
L 1240.932297 66.73051 
L 1254.20739 66.73051 
L 1254.20739 118.127891 
z
" clip-path="url(#p46cb210e3e)" style="fill: #787800"/>
   </g>
   <g id="patch_34">
    <path d="M 1255.870083 17.28 
L 1272.290916 17.28 
Q 1279.621057 17.28 1283.537047 26.690304 
Q 1287.461263 36.076845 1287.461263 53.447887 
Q 1287.461263 70.913982 1283.537047 80.300523 
Q 1279.621057 89.687064 1272.290916 89.687064 
L 1265.767008 89.687064 
L 1265.767008 128.16 
L 1255.870083 128.16 
L 1255.870083 17.28 
z
M 1265.767008 38.00168 
L 1265.767008 68.965384 
L 1271.237876 68.965384 
Q 1274.117281 68.965384 1275.688613 64.925607 
Q 1277.259945 60.885829 1277.259945 53.447887 
Q 1277.259945 46.033708 1275.688613 42.017694 
Q 1274.117281 38.00168 1271.237876 38.00168 
L 1265.767008 38.00168 
z
" clip-path="url(#p46cb210e3e)" style="fill: #787800"/>
   </g>
   <g id="patch_35">
    <path d="M 1318.081109 22.570907 
L 1318.081109 45.200413 
Q 1314.786428 41.260863 1311.646186 39.268184 
Q 1308.514524 37.252601 1305.726057 37.252601 
Q 1302.028122 37.252601 1300.252083 39.978219 
Q 1298.484624 42.680934 1298.484624 48.407023 
Q 1298.484624 52.713043 1299.67723 55.118 
Q 1300.869836 57.500054 1304.010078 59.217881 
L 1308.402985 61.57703 
Q 1315.078145 65.173014 1317.892351 72.479504 
Q 1320.715137 79.76309 1320.715137 93.230853 
Q 1320.715137 110.890114 1316.785544 119.525057 
Q 1312.855952 128.16 1304.782269 128.16 
Q 1300.981374 128.16 1297.146161 126.21313 
Q 1293.310947 124.289163 1289.475733 120.48704 
L 1289.475733 97.239116 
Q 1293.310947 102.667449 1296.888764 105.438876 
Q 1300.466581 108.187399 1303.795581 108.187399 
Q 1307.17606 108.187399 1308.969258 105.186928 
Q 1310.762457 102.163553 1310.762457 96.574889 
Q 1310.762457 91.581739 1309.544111 88.856121 
Q 1308.325766 86.130502 1304.67931 83.977492 
L 1300.681078 81.618343 
Q 1294.67515 78.18269 1291.895264 70.67006 
Q 1289.123957 63.15743 1289.123957 50.422607 
Q 1289.123957 34.458269 1292.984911 25.869134 
Q 1296.845864 17.28 1304.087297 17.28 
Q 1307.390557 17.28 1310.873995 18.608453 
Q 1314.357434 19.936906 1318.081109 22.570907 
z
" clip-path="url(#p46cb210e3e)" style="fill: #40ba47"/>
   </g>
   <g id="patch_36">
    <path d="M 1322.377831 17.28 
L 1330.193273 17.28 
L 1338.183109 99.121132 
L 1346.160028 17.28 
L 1353.969011 17.28 
L 1342.807784 128.16 
L 1333.539057 128.16 
L 1322.377831 17.28 
z
" clip-path="url(#p46cb210e3e)" style="fill: #21599c"/>
   </g>
   <g id="patch_37">
    <path d="M 1368.449683 66.446464 
Q 1371.284789 66.446464 1372.514835 63.119589 
Q 1373.744881 59.76895 1373.744881 52.117137 
Q 1373.744881 44.536614 1372.514835 41.281029 
Q 1371.284789 38.00168 1368.449683 38.00168 
L 1364.654541 38.00168 
L 1364.654541 66.446464 
L 1368.449683 66.446464 
z
M 1364.654541 86.193845 
L 1364.654541 128.16 
L 1355.631704 128.16 
L 1355.631704 17.28 
L 1369.409719 17.28 
Q 1376.324977 17.28 1379.542598 24.646652 
Q 1382.767718 31.989541 1382.767718 47.887252 
Q 1382.767718 58.865941 1381.087655 65.923669 
Q 1379.415093 72.981397 1376.039967 76.332036 
Q 1377.892536 77.662786 1379.355091 82.391702 
Q 1380.825145 87.096854 1382.325201 96.673502 
L 1387.222884 128.16 
L 1377.615026 128.16 
L 1373.347366 100.618225 
Q 1372.057318 92.301037 1370.729768 89.259323 
Q 1369.409719 86.193845 1367.204637 86.193845 
L 1364.654541 86.193845 
z
" clip-path="url(#p46cb210e3e)" style="fill: #bd2e1f"/>
   </g>
   <g id="patch_38">
    <path d="M 1410.768816 107.961114 
L 1398.619356 107.961114 
L 1396.70102 128.16 
L 1388.885578 128.16 
L 1400.046805 17.28 
L 1409.315532 17.28 
L 1420.476758 128.16 
L 1412.667775 128.16 
L 1410.768816 107.961114 
z
M 1400.557069 87.382015 
L 1408.811726 87.382015 
L 1404.690857 43.277154 
L 1400.557069 87.382015 
z
" clip-path="url(#p46cb210e3e)" style="fill: #21599c"/>
   </g>
   <g id="patch_39">
    <path d="M 1451.096603 22.570907 
L 1451.096603 45.200413 
Q 1447.801923 41.260863 1444.661681 39.268184 
Q 1441.530018 37.252601 1438.741552 37.252601 
Q 1435.043616 37.252601 1433.267578 39.978219 
Q 1431.500119 42.680934 1431.500119 48.407023 
Q 1431.500119 52.713043 1432.692725 55.118 
Q 1433.88533 57.500054 1437.025573 59.217881 
L 1441.41848 61.57703 
Q 1448.09364 65.173014 1450.907846 72.479504 
Q 1453.730632 79.76309 1453.730632 93.230853 
Q 1453.730632 110.890114 1449.801039 119.525057 
Q 1445.871446 128.16 1437.797763 128.16 
Q 1433.996869 128.16 1430.161655 126.21313 
Q 1426.326441 124.289163 1422.491227 120.48704 
L 1422.491227 97.239116 
Q 1426.326441 102.667449 1429.904258 105.438876 
Q 1433.482075 108.187399 1436.811075 108.187399 
Q 1440.191555 108.187399 1441.984753 105.186928 
Q 1443.777951 102.163553 1443.777951 96.574889 
Q 1443.777951 91.581739 1442.559606 88.856121 
Q 1441.341261 86.130502 1437.694805 83.977492 
L 1433.696573 81.618343 
Q 1427.690645 78.18269 1424.910758 70.67006 
Q 1422.139452 63.15743 1422.139452 50.422607 
Q 1422.139452 34.458269 1426.000405 25.869134 
Q 1429.861359 17.28 1437.102792 17.28 
Q 1440.406052 17.28 1443.88949 18.608453 
Q 1447.372928 19.936906 1451.096603 22.570907 
z
" clip-path="url(#p46cb210e3e)" style="fill: #40ba47"/>
   </g>
   <g id="patch_40">
    <path d="M 1455.393325 17.28 
L 1463.208768 17.28 
L 1471.198604 99.121132 
L 1479.175522 17.28 
L 1486.984505 17.28 
L 1475.823279 128.16 
L 1466.554552 128.16 
L 1455.393325 17.28 
z
" clip-path="url(#p46cb210e3e)" style="fill: #21599c"/>
   </g>
   <g id="patch_41">
    <path d="M 1488.647199 17.28 
L 1498.794761 17.28 
L 1511.617107 93.322863 
L 1511.617107 17.28 
L 1520.238379 17.28 
L 1520.238379 128.16 
L 1510.083262 128.16 
L 1497.260915 52.117137 
L 1497.260915 128.16 
L 1488.647199 128.16 
L 1488.647199 17.28 
z
" clip-path="url(#p46cb210e3e)" style="fill: #40ba47"/>
   </g>
   <g id="patch_42">
    <path d="M 1553.492253 118.127891 
Q 1550.30623 123.143945 1546.879487 125.663425 
Q 1543.452743 128.16 1539.799437 128.16 
Q 1531.5441 128.16 1526.722586 113.226358 
Q 1521.901073 98.292716 1521.901073 72.754357 
Q 1521.901073 46.91824 1526.807547 32.09912 
Q 1531.721101 17.28 1540.266721 17.28 
Q 1543.558944 17.28 1546.575045 19.295584 
Q 1549.598226 21.288263 1552.274484 25.227812 
L 1552.274484 47.330518 
Q 1549.513265 42.268655 1546.780366 39.77208 
Q 1544.047467 37.252601 1541.300408 37.252601 
Q 1536.216932 37.252601 1533.462793 46.460153 
Q 1530.708654 55.644801 1530.708654 72.754357 
Q 1530.708654 89.703582 1533.363673 98.956943 
Q 1536.018691 108.187399 1540.903925 108.187399 
Q 1542.234974 108.187399 1543.374862 107.660599 
Q 1544.51475 107.110894 1545.420996 105.965677 
L 1545.420996 85.214328 
L 1540.21716 85.214328 
L 1540.21716 66.73051 
L 1553.492253 66.73051 
L 1553.492253 118.127891 
z
" clip-path="url(#p46cb210e3e)" style="fill: #787800"/>
   </g>
   <g id="patch_43">
    <path d="M 1555.154946 17.28 
L 1560.617548 17.28 
L 1564.436158 97.861672 
L 1568.226342 17.28 
L 1573.71737 17.28 
L 1577.507554 97.861672 
L 1581.330902 17.28 
L 1586.746126 17.28 
L 1581.534624 128.16 
L 1574.963393 128.16 
L 1570.950536 43.871239 
L 1566.985057 128.16 
L 1560.409088 128.16 
L 1555.154946 17.28 
z
" clip-path="url(#p46cb210e3e)" style="fill: #21599c"/>
   </g>
   <g id="patch_44">
    <path d="M 1605.046841 111.578719 
L 1604.428181 111.578719 
Q 1596.839716 111.578719 1592.620977 99.152512 
Q 1588.40882 86.706798 1588.40882 64.526897 
Q 1588.40882 42.38601 1592.614396 29.842759 
Q 1596.819972 17.28 1604.20441 17.28 
Q 1611.667826 17.28 1615.833913 29.725714 
Q 1620 42.151921 1620 64.526897 
Q 1620 79.879212 1617.788617 90.978916 
Q 1615.577235 102.078621 1611.424311 107.677241 
L 1617.610917 128.16 
L 1610.061941 128.16 
L 1605.046841 111.578719 
z
M 1604.20441 34.290443 
Q 1600.584587 34.290443 1598.590394 42.210443 
Q 1596.596201 50.130443 1596.596201 64.526897 
Q 1596.596201 79.157438 1598.544324 86.940887 
Q 1600.499028 94.704828 1604.20441 94.704828 
Q 1607.843977 94.704828 1609.83817 86.784828 
Q 1611.832364 78.84532 1611.832364 64.526897 
Q 1611.832364 50.130443 1609.83817 42.210443 
Q 1607.843977 34.290443 1604.20441 34.290443 
z
" clip-path="url(#p46cb210e3e)" style="fill: #40ba47"/>
   </g>
   <g id="matplotlib.axis_1">
    <g id="xtick_1">
     <g id="line2d_2">
      <defs>
       <path id="m35dcbd4b9f" d="M 0 0 
L 0 3.5 
" style="stroke: #000000; stroke-width: 0.8"/>
      </defs>
      <g>
       <use xlink:href="#m35dcbd4b9f" x="240.79559" y="128.16" style="stroke: #000000; stroke-width: 0.8"/>
      </g>
     </g>
     <g id="text_1">
      <!-- 0 -->
      <g transform="translate(237.61434 142.758438) scale(0.1 -0.1)">
       <defs>
        <path id="DejaVuSans-30" d="M 2034 4250 
Q 1547 4250 1301 3770 
Q 1056 3291 1056 2328 
Q 1056 1369 1301 889 
Q 1547 409 2034 409 
Q 2525 409 2770 889 
Q 3016 1369 3016 2328 
Q 3016 3291 2770 3770 
Q 2525 4250 2034 4250 
z
M 2034 4750 
Q 2819 4750 3233 4129 
Q 3647 3509 3647 2328 
Q 3647 1150 3233 529 
Q 2819 -91 2034 -91 
Q 1250 -91 836 529 
Q 422 1150 422 2328 
Q 422 3509 836 4129 
Q 1250 4750 2034 4750 
z
" transform="scale(0.015625)"/>
       </defs>
       <use xlink:href="#DejaVuSans-30"/>
      </g>
     </g>
    </g>
    <g id="xtick_2">
     <g id="line2d_3">
      <g>
       <use xlink:href="#m35dcbd4b9f" x="407.064958" y="128.16" style="stroke: #000000; stroke-width: 0.8"/>
      </g>
     </g>
     <g id="text_2">
      <!-- 5 -->
      <g transform="translate(403.883708 142.758438) scale(0.1 -0.1)">
       <defs>
        <path id="DejaVuSans-35" d="M 691 4666 
L 3169 4666 
L 3169 4134 
L 1269 4134 
L 1269 2991 
Q 1406 3038 1543 3061 
Q 1681 3084 1819 3084 
Q 2600 3084 3056 2656 
Q 3513 2228 3513 1497 
Q 3513 744 3044 326 
Q 2575 -91 1722 -91 
Q 1428 -91 1123 -41 
Q 819 9 494 109 
L 494 744 
Q 775 591 1075 516 
Q 1375 441 1709 441 
Q 2250 441 2565 725 
Q 2881 1009 2881 1497 
Q 2881 1984 2565 2268 
Q 2250 2553 1709 2553 
Q 1456 2553 1204 2497 
Q 953 2441 691 2322 
L 691 4666 
z
" transform="scale(0.015625)"/>
       </defs>
       <use xlink:href="#DejaVuSans-35"/>
      </g>
     </g>
    </g>
    <g id="xtick_3">
     <g id="line2d_4">
      <g>
       <use xlink:href="#m35dcbd4b9f" x="573.334327" y="128.16" style="stroke: #000000; stroke-width: 0.8"/>
      </g>
     </g>
     <g id="text_3">
      <!-- 10 -->
      <g transform="translate(566.971827 142.758438) scale(0.1 -0.1)">
       <defs>
        <path id="DejaVuSans-31" d="M 794 531 
L 1825 531 
L 1825 4091 
L 703 3866 
L 703 4441 
L 1819 4666 
L 2450 4666 
L 2450 531 
L 3481 531 
L 3481 0 
L 794 0 
L 794 531 
z
" transform="scale(0.015625)"/>
       </defs>
       <use xlink:href="#DejaVuSans-31"/>
       <use xlink:href="#DejaVuSans-30" x="63.623047"/>
      </g>
     </g>
    </g>
    <g id="xtick_4">
     <g id="line2d_5">
      <g>
       <use xlink:href="#m35dcbd4b9f" x="739.603695" y="128.16" style="stroke: #000000; stroke-width: 0.8"/>
      </g>
     </g>
     <g id="text_4">
      <!-- 15 -->
      <g transform="translate(733.241195 142.758438) scale(0.1 -0.1)">
       <use xlink:href="#DejaVuSans-31"/>
       <use xlink:href="#DejaVuSans-35" x="63.623047"/>
      </g>
     </g>
    </g>
    <g id="xtick_5">
     <g id="line2d_6">
      <g>
       <use xlink:href="#m35dcbd4b9f" x="905.873063" y="128.16" style="stroke: #000000; stroke-width: 0.8"/>
      </g>
     </g>
     <g id="text_5">
      <!-- 20 -->
      <g transform="translate(899.510563 142.758438) scale(0.1 -0.1)">
       <defs>
        <path id="DejaVuSans-32" d="M 1228 531 
L 3431 531 
L 3431 0 
L 469 0 
L 469 531 
Q 828 903 1448 1529 
Q 2069 2156 2228 2338 
Q 2531 2678 2651 2914 
Q 2772 3150 2772 3378 
Q 2772 3750 2511 3984 
Q 2250 4219 1831 4219 
Q 1534 4219 1204 4116 
Q 875 4013 500 3803 
L 500 4441 
Q 881 4594 1212 4672 
Q 1544 4750 1819 4750 
Q 2544 4750 2975 4387 
Q 3406 4025 3406 3419 
Q 3406 3131 3298 2873 
Q 3191 2616 2906 2266 
Q 2828 2175 2409 1742 
Q 1991 1309 1228 531 
z
" transform="scale(0.015625)"/>
       </defs>
       <use xlink:href="#DejaVuSans-32"/>
       <use xlink:href="#DejaVuSans-30" x="63.623047"/>
      </g>
     </g>
    </g>
    <g id="xtick_6">
     <g id="line2d_7">
      <g>
       <use xlink:href="#m35dcbd4b9f" x="1072.142431" y="128.16" style="stroke: #000000; stroke-width: 0.8"/>
      </g>
     </g>
     <g id="text_6">
      <!-- 25 -->
      <g transform="translate(1065.779931 142.758438) scale(0.1 -0.1)">
       <use xlink:href="#DejaVuSans-32"/>
       <use xlink:href="#DejaVuSans-35" x="63.623047"/>
      </g>
     </g>
    </g>
    <g id="xtick_7">
     <g id="line2d_8">
      <g>
       <use xlink:href="#m35dcbd4b9f" x="1238.4118" y="128.16" style="stroke: #000000; stroke-width: 0.8"/>
      </g>
     </g>
     <g id="text_7">
      <!-- 30 -->
      <g transform="translate(1232.0493 142.758438) scale(0.1 -0.1)">
       <defs>
        <path id="DejaVuSans-33" d="M 2597 2516 
Q 3050 2419 3304 2112 
Q 3559 1806 3559 1356 
Q 3559 666 3084 287 
Q 2609 -91 1734 -91 
Q 1441 -91 1130 -33 
Q 819 25 488 141 
L 488 750 
Q 750 597 1062 519 
Q 1375 441 1716 441 
Q 2309 441 2620 675 
Q 2931 909 2931 1356 
Q 2931 1769 2642 2001 
Q 2353 2234 1838 2234 
L 1294 2234 
L 1294 2753 
L 1863 2753 
Q 2328 2753 2575 2939 
Q 2822 3125 2822 3475 
Q 2822 3834 2567 4026 
Q 2313 4219 1838 4219 
Q 1578 4219 1281 4162 
Q 984 4106 628 3988 
L 628 4550 
Q 988 4650 1302 4700 
Q 1616 4750 1894 4750 
Q 2613 4750 3031 4423 
Q 3450 4097 3450 3541 
Q 3450 3153 3228 2886 
Q 3006 2619 2597 2516 
z
" transform="scale(0.015625)"/>
       </defs>
       <use xlink:href="#DejaVuSans-33"/>
       <use xlink:href="#DejaVuSans-30" x="63.623047"/>
      </g>
     </g>
    </g>
    <g id="xtick_8">
     <g id="line2d_9">
      <g>
       <use xlink:href="#m35dcbd4b9f" x="1404.681168" y="128.16" style="stroke: #000000; stroke-width: 0.8"/>
      </g>
     </g>
     <g id="text_8">
      <!-- 35 -->
      <g transform="translate(1398.318668 142.758438) scale(0.1 -0.1)">
       <use xlink:href="#DejaVuSans-33"/>
       <use xlink:href="#DejaVuSans-35" x="63.623047"/>
      </g>
     </g>
    </g>
    <g id="xtick_9">
     <g id="line2d_10">
      <g>
       <use xlink:href="#m35dcbd4b9f" x="1570.950536" y="128.16" style="stroke: #000000; stroke-width: 0.8"/>
      </g>
     </g>
     <g id="text_9">
      <!-- 40 -->
      <g transform="translate(1564.588036 142.758438) scale(0.1 -0.1)">
       <defs>
        <path id="DejaVuSans-34" d="M 2419 4116 
L 825 1625 
L 2419 1625 
L 2419 4116 
z
M 2253 4666 
L 3047 4666 
L 3047 1625 
L 3713 1625 
L 3713 1100 
L 3047 1100 
L 3047 0 
L 2419 0 
L 2419 1100 
L 313 1100 
L 313 1709 
L 2253 4666 
z
" transform="scale(0.015625)"/>
       </defs>
       <use xlink:href="#DejaVuSans-34"/>
       <use xlink:href="#DejaVuSans-30" x="63.623047"/>
      </g>
     </g>
    </g>
   </g>
   <g id="matplotlib.axis_2">
    <g id="ytick_1">
     <g id="line2d_11">
      <defs>
       <path id="m17eb243284" d="M 0 0 
L -3.5 0 
" style="stroke: #000000; stroke-width: 0.8"/>
      </defs>
      <g>
       <use xlink:href="#m17eb243284" x="225" y="128.16" style="stroke: #000000; stroke-width: 0.8"/>
      </g>
     </g>
     <g id="text_10">
      <!-- 0 -->
      <g transform="translate(211.6375 131.959219) scale(0.1 -0.1)">
       <use xlink:href="#DejaVuSans-30"/>
      </g>
     </g>
    </g>
    <g id="ytick_2">
     <g id="line2d_12">
      <g>
       <use xlink:href="#m17eb243284" x="225" y="105.984" style="stroke: #000000; stroke-width: 0.8"/>
      </g>
     </g>
     <g id="text_11">
      <!-- 1 -->
      <g transform="translate(211.6375 109.783219) scale(0.1 -0.1)">
       <use xlink:href="#DejaVuSans-31"/>
      </g>
     </g>
    </g>
    <g id="ytick_3">
     <g id="line2d_13">
      <g>
       <use xlink:href="#m17eb243284" x="225" y="83.808" style="stroke: #000000; stroke-width: 0.8"/>
      </g>
     </g>
     <g id="text_12">
      <!-- 2 -->
      <g transform="translate(211.6375 87.607219) scale(0.1 -0.1)">
       <use xlink:href="#DejaVuSans-32"/>
      </g>
     </g>
    </g>
    <g id="ytick_4">
     <g id="line2d_14">
      <g>
       <use xlink:href="#m17eb243284" x="225" y="61.632" style="stroke: #000000; stroke-width: 0.8"/>
      </g>
     </g>
     <g id="text_13">
      <!-- 3 -->
      <g transform="translate(211.6375 65.431219) scale(0.1 -0.1)">
       <use xlink:href="#DejaVuSans-33"/>
      </g>
     </g>
    </g>
    <g id="ytick_5">
     <g id="line2d_15">
      <g>
       <use xlink:href="#m17eb243284" x="225" y="39.456" style="stroke: #000000; stroke-width: 0.8"/>
      </g>
     </g>
     <g id="text_14">
      <!-- 4 -->
      <g transform="translate(211.6375 43.255219) scale(0.1 -0.1)">
       <use xlink:href="#DejaVuSans-34"/>
      </g>
     </g>
    </g>
    <g id="ytick_6">
     <g id="line2d_16">
      <g>
       <use xlink:href="#m17eb243284" x="225" y="17.28" style="stroke: #000000; stroke-width: 0.8"/>
      </g>
     </g>
     <g id="text_15">
      <!-- 5 -->
      <g transform="translate(211.6375 21.079219) scale(0.1 -0.1)">
       <use xlink:href="#DejaVuSans-35"/>
      </g>
     </g>
    </g>
   </g>
  </g>
 </g>
 <defs>
  <clipPath id="p46cb210e3e">
   <rect x="225" y="17.28" width="1395" height="110.88"/>
  </clipPath>
 </defs>
</svg>
