<?xml version="1.0" encoding="utf-8" standalone="no"?>
<!DOCTYPE svg PUBLIC "-//W3C//DTD SVG 1.1//EN"
  "http://www.w3.org/Graphics/SVG/1.1/DTD/svg11.dtd">
<svg xmlns:xlink="http://www.w3.org/1999/xlink" width="1800pt" height="144pt" viewBox="0 0 1800 144" xmlns="http://www.w3.org/2000/svg" version="1.1">
 <metadata>
  <rdf:RDF xmlns:dc="http://purl.org/dc/elements/1.1/" xmlns:cc="http://creativecommons.org/ns#" xmlns:rdf="http://www.w3.org/1999/02/22-rdf-syntax-ns#">
   <cc:Work>
    <dc:type rdf:resource="http://purl.org/dc/dcmitype/StillImage"/>
    <dc:date>2025-05-09T21:11:02.849567</dc:date>
    <dc:format>image/svg+xml</dc:format>
    <dc:creator>
     <cc:Agent>
      <dc:title>Matplotlib v3.8.0, https://matplotlib.org/</dc:title>
     </cc:Agent>
    </dc:creator>
   </cc:Work>
  </rdf:RDF>
 </metadata>
 <defs>
  <style type="text/css">*{stroke-linejoin: round; stroke-linecap: butt}</style>
 </defs>
 <g id="figure_1">
  <g id="patch_1">
   <path d="M 0 144 
L 1800 144 
L 1800 0 
L 0 0 
z
" style="fill: #ffffff"/>
  </g>
  <g id="axes_1">
   <g id="patch_2">
    <path d="M 225 128.16 
L 1620 128.16 
L 1620 17.28 
L 225 17.28 
z
" style="fill: #ffffff"/>
   </g>
   <g id="line2d_1">
    <path d="M 225 128.16 
L 1620 128.16 
" clip-path="url(#p482db9f08e)" style="fill: none; stroke: #000000; stroke-width: 1.5; stroke-linecap: square"/>
   </g>
   <g id="patch_3">
    <path d="M 225 17.28 
L 230.43344 17.28 
L 234.202423 76.617197 
L 237.996248 17.28 
L 243.419041 17.28 
L 243.419041 128.16 
L 239.383887 128.16 
L 239.383887 47.055534 
L 235.568768 106.844235 
L 232.86092 106.844235 
L 229.045801 47.055534 
L 229.045801 128.16 
L 225 128.16 
L 225 17.28 
z
" clip-path="url(#p482db9f08e)" style="fill: #21599c"/>
   </g>
   <g id="patch_4">
    <path d="M 254.089159 111.578719 
L 253.728453 111.578719 
Q 249.304046 111.578719 246.844336 99.152512 
Q 244.388464 86.706798 244.388464 64.526897 
Q 244.388464 42.38601 246.840499 29.842759 
Q 249.292534 17.28 253.597985 17.28 
Q 257.949483 17.28 260.378494 29.725714 
Q 262.807505 42.151921 262.807505 64.526897 
Q 262.807505 79.879212 261.518172 90.978916 
Q 260.228839 102.078621 257.807503 107.677241 
L 261.414565 128.16 
L 257.013182 128.16 
L 254.089159 111.578719 
z
M 253.597985 34.290443 
Q 251.48747 34.290443 250.324768 42.210443 
Q 249.162066 50.130443 249.162066 64.526897 
Q 249.162066 79.157438 250.297907 86.940887 
Q 251.437585 94.704828 253.597985 94.704828 
Q 255.720012 94.704828 256.882714 86.784828 
Q 258.045416 78.84532 258.045416 64.526897 
Q 258.045416 50.130443 256.882714 42.210443 
Q 255.720012 34.290443 253.597985 34.290443 
z
" clip-path="url(#p482db9f08e)" style="fill: #40ba47"/>
   </g>
   <g id="patch_5">
    <path d="M 263.776928 17.28 
L 282.195969 17.28 
L 282.195969 38.904689 
L 275.569398 38.904689 
L 275.569398 128.16 
L 270.41635 128.16 
L 270.41635 38.904689 
L 263.776928 38.904689 
L 263.776928 17.28 
z
" clip-path="url(#p482db9f08e)" style="fill: #40ba47"/>
   </g>
   <g id="patch_6">
    <path d="M 283.165393 17.28 
L 301.584434 17.28 
L 301.584434 38.904689 
L 294.957862 38.904689 
L 294.957862 128.16 
L 289.804814 128.16 
L 289.804814 38.904689 
L 283.165393 38.904689 
L 283.165393 17.28 
z
" clip-path="url(#p482db9f08e)" style="fill: #40ba47"/>
   </g>
   <g id="patch_7">
    <path d="M 312.254552 111.578719 
L 311.893846 111.578719 
Q 307.469438 111.578719 305.009729 99.152512 
Q 302.553857 86.706798 302.553857 64.526897 
Q 302.553857 42.38601 305.005892 29.842759 
Q 307.457927 17.28 311.763377 17.28 
Q 316.114876 17.28 318.543887 29.725714 
Q 320.972898 42.151921 320.972898 64.526897 
Q 320.972898 79.879212 319.683565 90.978916 
Q 318.394232 102.078621 315.972896 107.677241 
L 319.579958 128.16 
L 315.178575 128.16 
L 312.254552 111.578719 
z
M 311.763377 34.290443 
Q 309.652862 34.290443 308.49016 42.210443 
Q 307.327458 50.130443 307.327458 64.526897 
Q 307.327458 79.157438 308.463299 86.940887 
Q 309.602977 94.704828 311.763377 94.704828 
Q 313.885404 94.704828 315.048106 86.784828 
Q 316.210808 78.84532 316.210808 64.526897 
Q 316.210808 50.130443 315.048106 42.210443 
Q 313.885404 34.290443 311.763377 34.290443 
z
" clip-path="url(#p482db9f08e)" style="fill: #40ba47"/>
   </g>
   <g id="patch_8">
    <path d="M 321.942321 17.28 
L 327.858794 17.28 
L 335.334783 93.322863 
L 335.334783 17.28 
L 340.361362 17.28 
L 340.361362 128.16 
L 334.440484 128.16 
L 326.964494 52.117137 
L 326.964494 128.16 
L 321.942321 128.16 
L 321.942321 17.28 
z
" clip-path="url(#p482db9f08e)" style="fill: #40ba47"/>
   </g>
   <g id="patch_9">
    <path d="M 341.330785 17.28 
L 359.366444 17.28 
L 359.366444 38.904689 
L 348.01498 38.904689 
L 348.01498 59.531316 
L 358.694135 59.531316 
L 358.694135 81.156005 
L 348.01498 81.156005 
L 348.01498 106.559074 
L 359.749826 106.559074 
L 359.749826 128.16 
L 341.330785 128.16 
L 341.330785 17.28 
z
" clip-path="url(#p482db9f08e)" style="fill: #6b296b"/>
   </g>
   <g id="patch_10">
    <path d="M 360.719249 17.28 
L 365.573161 17.28 
L 365.573161 57.749061 
L 372.569572 17.28 
L 378.206243 17.28 
L 369.139959 69.797102 
L 379.13829 128.16 
L 373.061823 128.16 
L 365.573161 84.48288 
L 365.573161 128.16 
L 360.719249 128.16 
L 360.719249 17.28 
z
" clip-path="url(#p482db9f08e)" style="fill: #bd2e1f"/>
   </g>
   <g id="patch_11">
    <path d="M 385.155118 38.904689 
L 385.155118 106.559074 
L 386.963457 106.559074 
Q 390.055674 106.559074 391.687794 97.861672 
Q 393.32411 89.164269 393.32411 72.601183 
Q 393.32411 56.13315 391.696185 47.530802 
Q 390.072457 38.904689 386.963457 38.904689 
L 385.155118 38.904689 
z
M 380.107714 17.28 
L 385.427838 17.28 
Q 389.887847 17.28 392.069601 20.892036 
Q 394.251355 24.480309 395.812149 33.106421 
Q 397.188332 40.615654 397.855446 50.429936 
Q 398.526755 60.220454 398.526755 72.601183 
Q 398.526755 85.172019 397.855446 95.010064 
Q 397.188332 104.84811 395.812149 112.333579 
Q 394.238768 120.959691 392.036036 124.571727 
Q 389.833303 128.16 385.427838 128.16 
L 380.107714 128.16 
L 380.107714 17.28 
z
" clip-path="url(#p482db9f08e)" style="fill: #6b296b"/>
   </g>
   <g id="patch_12">
    <path d="M 399.496178 17.28 
L 406.180373 17.28 
L 406.180373 106.559074 
L 417.915219 106.559074 
L 417.915219 128.16 
L 399.496178 128.16 
L 399.496178 17.28 
z
" clip-path="url(#p482db9f08e)" style="fill: #21599c"/>
   </g>
   <g id="patch_13">
    <path d="M 419.076333 17.28 
L 437.111992 17.28 
L 437.111992 38.904689 
L 425.760528 38.904689 
L 425.760528 59.531316 
L 436.439683 59.531316 
L 436.439683 81.156005 
L 425.760528 81.156005 
L 425.760528 128.16 
L 419.076333 128.16 
L 419.076333 17.28 
z
" clip-path="url(#p482db9f08e)" style="fill: #21599c"/>
   </g>
   <g id="patch_14">
    <path d="M 438.273106 17.28 
L 456.308765 17.28 
L 456.308765 38.904689 
L 444.957301 38.904689 
L 444.957301 59.531316 
L 455.636456 59.531316 
L 455.636456 81.156005 
L 444.957301 81.156005 
L 444.957301 106.559074 
L 456.692147 106.559074 
L 456.692147 128.16 
L 438.273106 128.16 
L 438.273106 17.28 
z
" clip-path="url(#p482db9f08e)" style="fill: #6b296b"/>
   </g>
   <g id="patch_15">
    <path d="M 476.080612 118.127891 
Q 474.223021 123.143945 472.225079 125.663425 
Q 470.227138 128.16 468.097101 128.16 
Q 463.283878 128.16 460.472724 113.226358 
Q 457.661571 98.292716 457.661571 72.754357 
Q 457.661571 46.91824 460.52226 32.09912 
Q 463.387077 17.28 468.369547 17.28 
Q 470.289057 17.28 472.047576 19.295584 
Q 473.810223 21.288263 475.370599 25.227812 
L 475.370599 47.330518 
Q 473.760688 42.268655 472.167288 39.77208 
Q 470.573888 37.252601 468.972232 37.252601 
Q 466.008343 37.252601 464.40256 46.460153 
Q 462.796776 55.644801 462.796776 72.754357 
Q 462.796776 89.703582 464.344768 98.956943 
Q 465.89276 108.187399 468.741065 108.187399 
Q 469.517125 108.187399 470.18173 107.660599 
Q 470.846335 107.110894 471.374716 105.965677 
L 471.374716 85.214328 
L 468.340651 85.214328 
L 468.340651 66.73051 
L 476.080612 66.73051 
L 476.080612 118.127891 
z
" clip-path="url(#p482db9f08e)" style="fill: #787800"/>
   </g>
   <g id="patch_16">
    <path d="M 477.050035 17.28 
L 482.142358 17.28 
L 486.255686 56.798526 
L 490.365144 17.28 
L 495.469076 17.28 
L 488.589022 81.441166 
L 488.589022 128.16 
L 483.933958 128.16 
L 483.933958 81.441166 
L 477.050035 17.28 
z
" clip-path="url(#p482db9f08e)" style="fill: #177875"/>
   </g>
   <g id="patch_17">
    <path d="M 496.438499 17.28 
L 514.85754 17.28 
L 514.85754 38.904689 
L 508.230969 38.904689 
L 508.230969 128.16 
L 503.077921 128.16 
L 503.077921 38.904689 
L 496.438499 38.904689 
L 496.438499 17.28 
z
" clip-path="url(#p482db9f08e)" style="fill: #40ba47"/>
   </g>
   <g id="patch_18">
    <path d="M 528.585849 107.961114 
L 521.502182 107.961114 
L 520.383708 128.16 
L 515.826963 128.16 
L 522.334447 17.28 
L 527.73852 17.28 
L 534.246004 128.16 
L 529.693025 128.16 
L 528.585849 107.961114 
z
M 522.631953 87.382015 
L 527.44478 87.382015 
L 525.042133 43.277154 
L 522.631953 87.382015 
z
" clip-path="url(#p482db9f08e)" style="fill: #21599c"/>
   </g>
   <g id="patch_19">
    <path d="M 535.215427 17.28 
L 540.30775 17.28 
L 544.421078 56.798526 
L 548.530537 17.28 
L 553.634468 17.28 
L 546.754415 81.441166 
L 546.754415 128.16 
L 542.09935 128.16 
L 542.09935 81.441166 
L 535.215427 17.28 
z
" clip-path="url(#p482db9f08e)" style="fill: #177875"/>
   </g>
   <g id="patch_20">
    <path d="M 554.603892 17.28 
L 573.022933 17.28 
L 573.022933 38.904689 
L 566.396361 38.904689 
L 566.396361 128.16 
L 561.243313 128.16 
L 561.243313 38.904689 
L 554.603892 38.904689 
L 554.603892 17.28 
z
" clip-path="url(#p482db9f08e)" style="fill: #40ba47"/>
   </g>
   <g id="patch_21">
    <path d="M 590.875643 22.570907 
L 590.875643 45.200413 
Q 588.9547 41.260863 587.123801 39.268184 
Q 585.297905 37.252601 583.672107 37.252601 
Q 581.516049 37.252601 580.480541 39.978219 
Q 579.450035 42.680934 579.450035 48.407023 
Q 579.450035 52.713043 580.145376 55.118 
Q 580.840717 57.500054 582.671616 59.217881 
L 585.232873 61.57703 
Q 589.124784 65.173014 590.765589 72.479504 
Q 592.411397 79.76309 592.411397 93.230853 
Q 592.411397 110.890114 590.120272 119.525057 
Q 587.829148 128.16 583.121837 128.16 
Q 580.905749 128.16 578.669652 126.21313 
Q 576.433554 124.289163 574.197456 120.48704 
L 574.197456 97.239116 
Q 576.433554 102.667449 578.519578 105.438876 
Q 580.605602 108.187399 582.546555 108.187399 
Q 584.517522 108.187399 585.563035 105.186928 
Q 586.608548 102.163553 586.608548 96.574889 
Q 586.608548 91.581739 585.8982 88.856121 
Q 585.187851 86.130502 583.061808 83.977492 
L 580.730663 81.618343 
Q 577.228944 78.18269 575.608149 70.67006 
Q 573.992356 63.15743 573.992356 50.422607 
Q 573.992356 34.458269 576.243461 25.869134 
Q 578.494566 17.28 582.716638 17.28 
Q 584.642583 17.28 586.67358 18.608453 
Q 588.704577 19.936906 590.875643 22.570907 
z
" clip-path="url(#p482db9f08e)" style="fill: #40ba47"/>
   </g>
   <g id="patch_22">
    <path d="M 606.139706 107.961114 
L 599.056039 107.961114 
L 597.937565 128.16 
L 593.38082 128.16 
L 599.888304 17.28 
L 605.292377 17.28 
L 611.799861 128.16 
L 607.246882 128.16 
L 606.139706 107.961114 
z
M 600.18581 87.382015 
L 604.998637 87.382015 
L 602.595989 43.277154 
L 600.18581 87.382015 
z
" clip-path="url(#p482db9f08e)" style="fill: #21599c"/>
   </g>
   <g id="patch_23">
    <path d="M 612.769284 17.28 
L 630.804942 17.28 
L 630.804942 38.904689 
L 619.453479 38.904689 
L 619.453479 59.531316 
L 630.132634 59.531316 
L 630.132634 81.156005 
L 619.453479 81.156005 
L 619.453479 106.559074 
L 631.188325 106.559074 
L 631.188325 128.16 
L 612.769284 128.16 
L 612.769284 17.28 
z
" clip-path="url(#p482db9f08e)" style="fill: #6b296b"/>
   </g>
   <g id="patch_24">
    <path d="M 632.157748 17.28 
L 650.193407 17.28 
L 650.193407 38.904689 
L 638.841943 38.904689 
L 638.841943 59.531316 
L 649.521098 59.531316 
L 649.521098 81.156005 
L 638.841943 81.156005 
L 638.841943 106.559074 
L 650.576789 106.559074 
L 650.576789 128.16 
L 632.157748 128.16 
L 632.157748 17.28 
z
" clip-path="url(#p482db9f08e)" style="fill: #6b296b"/>
   </g>
   <g id="patch_25">
    <path d="M 651.546213 17.28 
L 658.230408 17.28 
L 658.230408 106.559074 
L 669.965254 106.559074 
L 669.965254 128.16 
L 651.546213 128.16 
L 651.546213 17.28 
z
" clip-path="url(#p482db9f08e)" style="fill: #21599c"/>
   </g>
   <g id="patch_26">
    <path d="M 689.353718 118.127891 
Q 687.496127 123.143945 685.498186 125.663425 
Q 683.500244 128.16 681.370207 128.16 
Q 676.556984 128.16 673.74583 113.226358 
Q 670.934677 98.292716 670.934677 72.754357 
Q 670.934677 46.91824 673.795366 32.09912 
Q 676.660183 17.28 681.642654 17.28 
Q 683.562164 17.28 685.320683 19.295584 
Q 687.08333 21.288263 688.643706 25.227812 
L 688.643706 47.330518 
Q 687.033794 42.268655 685.440394 39.77208 
Q 683.846994 37.252601 682.245339 37.252601 
Q 679.28145 37.252601 677.675666 46.460153 
Q 676.069882 55.644801 676.069882 72.754357 
Q 676.069882 89.703582 677.617874 98.956943 
Q 679.165866 108.187399 682.014172 108.187399 
Q 682.790232 108.187399 683.454836 107.660599 
Q 684.119441 107.110894 684.647822 105.965677 
L 684.647822 85.214328 
L 681.613758 85.214328 
L 681.613758 66.73051 
L 689.353718 66.73051 
L 689.353718 118.127891 
z
" clip-path="url(#p482db9f08e)" style="fill: #787800"/>
   </g>
   <g id="patch_27">
    <path d="M 690.323141 17.28 
L 697.007336 17.28 
L 697.007336 106.559074 
L 708.742182 106.559074 
L 708.742182 128.16 
L 690.323141 128.16 
L 690.323141 17.28 
z
" clip-path="url(#p482db9f08e)" style="fill: #21599c"/>
   </g>
   <g id="patch_28">
    <path d="M 709.711605 17.28 
L 714.803928 17.28 
L 718.917256 56.798526 
L 723.026715 17.28 
L 728.130646 17.28 
L 721.250593 81.441166 
L 721.250593 128.16 
L 716.595528 128.16 
L 716.595528 81.441166 
L 709.711605 17.28 
z
" clip-path="url(#p482db9f08e)" style="fill: #177875"/>
   </g>
   <g id="patch_29">
    <path d="M 734.147474 38.904689 
L 734.147474 106.559074 
L 735.955813 106.559074 
Q 739.04803 106.559074 740.68015 97.861672 
Q 742.316466 89.164269 742.316466 72.601183 
Q 742.316466 56.13315 740.688541 47.530802 
Q 739.064813 38.904689 735.955813 38.904689 
L 734.147474 38.904689 
z
M 729.100069 17.28 
L 734.420193 17.28 
Q 738.880203 17.28 741.061957 20.892036 
Q 743.243711 24.480309 744.804505 33.106421 
Q 746.180688 40.615654 746.847801 50.429936 
Q 747.51911 60.220454 747.51911 72.601183 
Q 747.51911 85.172019 746.847801 95.010064 
Q 746.180688 104.84811 744.804505 112.333579 
Q 743.231124 120.959691 741.028391 124.571727 
Q 738.825659 128.16 734.420193 128.16 
L 729.100069 128.16 
L 729.100069 17.28 
z
" clip-path="url(#p482db9f08e)" style="fill: #6b296b"/>
   </g>
   <g id="patch_30">
    <path d="M 766.907575 118.127891 
Q 765.049984 123.143945 763.052043 125.663425 
Q 761.054101 128.16 758.924064 128.16 
Q 754.110841 128.16 751.299687 113.226358 
Q 748.488534 98.292716 748.488534 72.754357 
Q 748.488534 46.91824 751.349223 32.09912 
Q 754.21404 17.28 759.19651 17.28 
Q 761.116021 17.28 762.87454 19.295584 
Q 764.637186 21.288263 766.197562 25.227812 
L 766.197562 47.330518 
Q 764.587651 42.268655 762.994251 39.77208 
Q 761.400851 37.252601 759.799195 37.252601 
Q 756.835307 37.252601 755.229523 46.460153 
Q 753.623739 55.644801 753.623739 72.754357 
Q 753.623739 89.703582 755.171731 98.956943 
Q 756.719723 108.187399 759.568029 108.187399 
Q 760.344089 108.187399 761.008693 107.660599 
Q 761.673298 107.110894 762.201679 105.965677 
L 762.201679 85.214328 
L 759.167615 85.214328 
L 759.167615 66.73051 
L 766.907575 66.73051 
L 766.907575 118.127891 
z
" clip-path="url(#p482db9f08e)" style="fill: #787800"/>
   </g>
   <g id="patch_31">
    <path d="M 767.876998 17.28 
L 772.730909 17.28 
L 772.730909 57.749061 
L 779.727321 17.28 
L 785.363991 17.28 
L 776.297707 69.797102 
L 786.296039 128.16 
L 780.219571 128.16 
L 772.730909 84.48288 
L 772.730909 128.16 
L 767.876998 128.16 
L 767.876998 17.28 
z
" clip-path="url(#p482db9f08e)" style="fill: #bd2e1f"/>
   </g>
   <g id="patch_32">
    <path d="M 792.312867 38.904689 
L 792.312867 106.559074 
L 794.121205 106.559074 
Q 797.213423 106.559074 798.845543 97.861672 
Q 800.481858 89.164269 800.481858 72.601183 
Q 800.481858 56.13315 798.853934 47.530802 
Q 797.230205 38.904689 794.121205 38.904689 
L 792.312867 38.904689 
z
M 787.265462 17.28 
L 792.585586 17.28 
Q 797.045595 17.28 799.22735 20.892036 
Q 801.409104 24.480309 802.969897 33.106421 
Q 804.346081 40.615654 805.013194 50.429936 
Q 805.684503 60.220454 805.684503 72.601183 
Q 805.684503 85.172019 805.013194 95.010064 
Q 804.346081 104.84811 802.969897 112.333579 
Q 801.396517 120.959691 799.193784 124.571727 
Q 796.991051 128.16 792.585586 128.16 
L 787.265462 128.16 
L 787.265462 17.28 
z
" clip-path="url(#p482db9f08e)" style="fill: #6b296b"/>
   </g>
   <g id="patch_33">
    <path d="M 819.412812 107.961114 
L 812.329145 107.961114 
L 811.210671 128.16 
L 806.653926 128.16 
L 813.16141 17.28 
L 818.565484 17.28 
L 825.072967 128.16 
L 820.519988 128.16 
L 819.412812 107.961114 
z
M 813.458917 87.382015 
L 818.271743 87.382015 
L 815.869096 43.277154 
L 813.458917 87.382015 
z
" clip-path="url(#p482db9f08e)" style="fill: #21599c"/>
   </g>
   <g id="patch_34">
    <path d="M 838.801276 107.961114 
L 831.717609 107.961114 
L 830.599136 128.16 
L 826.042391 128.16 
L 832.549874 17.28 
L 837.953948 17.28 
L 844.461432 128.16 
L 839.908452 128.16 
L 838.801276 107.961114 
z
M 832.847381 87.382015 
L 837.660207 87.382015 
L 835.25756 43.277154 
L 832.847381 87.382015 
z
" clip-path="url(#p482db9f08e)" style="fill: #21599c"/>
   </g>
   <g id="patch_35">
    <path d="M 845.430855 17.28 
L 855.004919 17.28 
Q 859.278712 17.28 861.561906 26.690304 
Q 863.849896 36.076845 863.849896 53.447887 
Q 863.849896 70.913982 861.561906 80.300523 
Q 859.278712 89.687064 855.004919 89.687064 
L 851.201195 89.687064 
L 851.201195 128.16 
L 845.430855 128.16 
L 845.430855 17.28 
z
M 851.201195 38.00168 
L 851.201195 68.965384 
L 854.390951 68.965384 
Q 856.06977 68.965384 856.985925 64.925607 
Q 857.90208 60.885829 857.90208 53.447887 
Q 857.90208 46.033708 856.985925 42.017694 
Q 856.06977 38.00168 854.390951 38.00168 
L 851.201195 38.00168 
z
" clip-path="url(#p482db9f08e)" style="fill: #787800"/>
   </g>
   <g id="patch_36">
    <path d="M 877.578205 107.961114 
L 870.494538 107.961114 
L 869.376064 128.16 
L 864.819319 128.16 
L 871.326803 17.28 
L 876.730876 17.28 
L 883.23836 128.16 
L 878.685381 128.16 
L 877.578205 107.961114 
z
M 871.624309 87.382015 
L 876.437136 87.382015 
L 874.034488 43.277154 
L 871.624309 87.382015 
z
" clip-path="url(#p482db9f08e)" style="fill: #21599c"/>
   </g>
   <g id="patch_37">
    <path d="M 884.399475 17.28 
L 902.435133 17.28 
L 902.435133 38.904689 
L 891.08367 38.904689 
L 891.08367 59.531316 
L 901.762824 59.531316 
L 901.762824 81.156005 
L 891.08367 81.156005 
L 891.08367 128.16 
L 884.399475 128.16 
L 884.399475 17.28 
z
" clip-path="url(#p482db9f08e)" style="fill: #21599c"/>
   </g>
   <g id="patch_38">
    <path d="M 920.479535 22.570907 
L 920.479535 45.200413 
Q 918.558592 41.260863 916.727693 39.268184 
Q 914.901797 37.252601 913.275999 37.252601 
Q 911.11994 37.252601 910.084432 39.978219 
Q 909.053926 42.680934 909.053926 48.407023 
Q 909.053926 52.713043 909.749268 55.118 
Q 910.444609 57.500054 912.275508 59.217881 
L 914.836765 61.57703 
Q 918.728675 65.173014 920.369481 72.479504 
Q 922.015288 79.76309 922.015288 93.230853 
Q 922.015288 110.890114 919.724164 119.525057 
Q 917.433039 128.16 912.725729 128.16 
Q 910.509641 128.16 908.273543 126.21313 
Q 906.037446 124.289163 903.801348 120.48704 
L 903.801348 97.239116 
Q 906.037446 102.667449 908.12347 105.438876 
Q 910.209494 108.187399 912.150446 108.187399 
Q 914.121414 108.187399 915.166927 105.186928 
Q 916.21244 102.163553 916.21244 96.574889 
Q 916.21244 91.581739 915.502091 88.856121 
Q 914.791743 86.130502 912.665699 83.977492 
L 910.334555 81.618343 
Q 906.832836 78.18269 905.212041 70.67006 
Q 903.596247 63.15743 903.596247 50.422607 
Q 903.596247 34.458269 905.847352 25.869134 
Q 908.098457 17.28 912.32053 17.28 
Q 914.246475 17.28 916.277472 18.608453 
Q 918.308469 19.936906 920.479535 22.570907 
z
" clip-path="url(#p482db9f08e)" style="fill: #40ba47"/>
   </g>
   <g id="patch_39">
    <path d="M 922.984712 17.28 
L 932.558776 17.28 
Q 936.832569 17.28 939.115762 26.690304 
Q 941.403753 36.076845 941.403753 53.447887 
Q 941.403753 70.913982 939.115762 80.300523 
Q 936.832569 89.687064 932.558776 89.687064 
L 928.755052 89.687064 
L 928.755052 128.16 
L 922.984712 128.16 
L 922.984712 17.28 
z
M 928.755052 38.00168 
L 928.755052 68.965384 
L 931.944808 68.965384 
Q 933.623626 68.965384 934.539782 64.925607 
Q 935.455937 60.885829 935.455937 53.447887 
Q 935.455937 46.033708 934.539782 42.017694 
Q 933.623626 38.00168 931.944808 38.00168 
L 928.755052 38.00168 
z
" clip-path="url(#p482db9f08e)" style="fill: #787800"/>
   </g>
   <g id="patch_40">
    <path d="M 942.373176 17.28 
L 960.792217 17.28 
L 960.792217 38.904689 
L 954.165646 38.904689 
L 954.165646 128.16 
L 949.012598 128.16 
L 949.012598 38.904689 
L 942.373176 38.904689 
L 942.373176 17.28 
z
" clip-path="url(#p482db9f08e)" style="fill: #40ba47"/>
   </g>
   <g id="patch_41">
    <path d="M 967.629063 17.28 
L 974.313258 17.28 
L 974.313258 128.16 
L 967.629063 128.16 
L 967.629063 17.28 
z
" clip-path="url(#p482db9f08e)" style="fill: #21599c"/>
   </g>
   <g id="patch_42">
    <path d="M 981.150104 17.28 
L 990.724168 17.28 
Q 994.997961 17.28 997.281155 26.690304 
Q 999.569145 36.076845 999.569145 53.447887 
Q 999.569145 70.913982 997.281155 80.300523 
Q 994.997961 89.687064 990.724168 89.687064 
L 986.920444 89.687064 
L 986.920444 128.16 
L 981.150104 128.16 
L 981.150104 17.28 
z
M 986.920444 38.00168 
L 986.920444 68.965384 
L 990.1102 68.965384 
Q 991.789019 68.965384 992.705174 64.925607 
Q 993.62133 60.885829 993.62133 53.447887 
Q 993.62133 46.033708 992.705174 42.017694 
Q 991.789019 38.00168 990.1102 38.00168 
L 986.920444 38.00168 
z
" clip-path="url(#p482db9f08e)" style="fill: #787800"/>
   </g>
   <g id="patch_43">
    <path d="M 1000.538568 17.28 
L 1003.723505 17.28 
L 1005.949921 97.861672 
L 1008.159764 17.28 
L 1011.361274 17.28 
L 1013.571117 97.861672 
L 1015.800296 17.28 
L 1018.957609 17.28 
L 1015.919075 128.16 
L 1012.08776 128.16 
L 1009.748089 43.871239 
L 1007.436041 128.16 
L 1003.601963 128.16 
L 1000.538568 17.28 
z
" clip-path="url(#p482db9f08e)" style="fill: #21599c"/>
   </g>
   <g id="patch_44">
    <path d="M 1032.685919 107.961114 
L 1025.602251 107.961114 
L 1024.483778 128.16 
L 1019.927033 128.16 
L 1026.434516 17.28 
L 1031.83859 17.28 
L 1038.346074 128.16 
L 1033.793095 128.16 
L 1032.685919 107.961114 
z
M 1026.732023 87.382015 
L 1031.544849 87.382015 
L 1029.142202 43.277154 
L 1026.732023 87.382015 
z
" clip-path="url(#p482db9f08e)" style="fill: #21599c"/>
   </g>
   <g id="patch_45">
    <path d="M 1045.18292 17.28 
L 1051.867115 17.28 
L 1051.867115 128.16 
L 1045.18292 128.16 
L 1045.18292 17.28 
z
" clip-path="url(#p482db9f08e)" style="fill: #21599c"/>
   </g>
   <g id="patch_46">
    <path d="M 1066.177404 66.446464 
Q 1067.830395 66.446464 1068.547565 63.119589 
Q 1069.264736 59.76895 1069.264736 52.117137 
Q 1069.264736 44.536614 1068.547565 41.281029 
Q 1067.830395 38.00168 1066.177404 38.00168 
L 1063.96467 38.00168 
L 1063.96467 66.446464 
L 1066.177404 66.446464 
z
M 1063.96467 86.193845 
L 1063.96467 128.16 
L 1058.703961 128.16 
L 1058.703961 17.28 
L 1066.737147 17.28 
Q 1070.769045 17.28 1072.645059 24.646652 
Q 1074.525445 31.989541 1074.525445 47.887252 
Q 1074.525445 58.865941 1073.545895 65.923669 
Q 1072.570718 72.981397 1070.602871 76.332036 
Q 1071.683 77.662786 1072.535734 82.391702 
Q 1073.39284 87.096854 1074.267439 96.673502 
L 1077.123002 128.16 
L 1071.5212 128.16 
L 1069.032967 100.618225 
Q 1068.280813 92.301037 1067.506793 89.259323 
Q 1066.737147 86.193845 1065.451487 86.193845 
L 1063.96467 86.193845 
z
" clip-path="url(#p482db9f08e)" style="fill: #bd2e1f"/>
   </g>
   <g id="patch_47">
    <path d="M 1090.851311 107.961114 
L 1083.767644 107.961114 
L 1082.64917 128.16 
L 1078.092425 128.16 
L 1084.599909 17.28 
L 1090.003983 17.28 
L 1096.511466 128.16 
L 1091.958487 128.16 
L 1090.851311 107.961114 
z
M 1084.897415 87.382015 
L 1089.710242 87.382015 
L 1087.307595 43.277154 
L 1084.897415 87.382015 
z
" clip-path="url(#p482db9f08e)" style="fill: #21599c"/>
   </g>
   <g id="patch_48">
    <path d="M 1097.48089 17.28 
L 1115.899931 17.28 
L 1115.899931 38.904689 
L 1109.273359 38.904689 
L 1109.273359 128.16 
L 1104.120311 128.16 
L 1104.120311 38.904689 
L 1097.48089 38.904689 
L 1097.48089 17.28 
z
" clip-path="url(#p482db9f08e)" style="fill: #40ba47"/>
   </g>
   <g id="patch_49">
    <path d="M 1122.736777 17.28 
L 1129.420972 17.28 
L 1129.420972 128.16 
L 1122.736777 128.16 
L 1122.736777 17.28 
z
" clip-path="url(#p482db9f08e)" style="fill: #21599c"/>
   </g>
   <g id="patch_50">
    <path d="M 1142.125241 17.28 
L 1148.809436 17.28 
L 1148.809436 128.16 
L 1142.125241 128.16 
L 1142.125241 17.28 
z
" clip-path="url(#p482db9f08e)" style="fill: #21599c"/>
   </g>
   <g id="patch_51">
    <path d="M 1155.646282 17.28 
L 1174.065323 17.28 
L 1174.065323 38.904689 
L 1167.438752 38.904689 
L 1167.438752 128.16 
L 1162.285704 128.16 
L 1162.285704 38.904689 
L 1155.646282 38.904689 
L 1155.646282 17.28 
z
" clip-path="url(#p482db9f08e)" style="fill: #40ba47"/>
   </g>
   <g id="patch_52">
    <path d="M 1187.793632 107.961114 
L 1180.709965 107.961114 
L 1179.591491 128.16 
L 1175.034746 128.16 
L 1181.54223 17.28 
L 1186.946304 17.28 
L 1193.453787 128.16 
L 1188.900808 128.16 
L 1187.793632 107.961114 
z
M 1181.839737 87.382015 
L 1186.652563 87.382015 
L 1184.249916 43.277154 
L 1181.839737 87.382015 
z
" clip-path="url(#p482db9f08e)" style="fill: #21599c"/>
   </g>
   <g id="patch_53">
    <path d="M 1201.896653 66.446464 
Q 1203.549644 66.446464 1204.266815 63.119589 
Q 1204.983985 59.76895 1204.983985 52.117137 
Q 1204.983985 44.536614 1204.266815 41.281029 
Q 1203.549644 38.00168 1201.896653 38.00168 
L 1199.68392 38.00168 
L 1199.68392 66.446464 
L 1201.896653 66.446464 
z
M 1199.68392 86.193845 
L 1199.68392 128.16 
L 1194.423211 128.16 
L 1194.423211 17.28 
L 1202.456396 17.28 
Q 1206.488295 17.28 1208.364308 24.646652 
Q 1210.244694 31.989541 1210.244694 47.887252 
Q 1210.244694 58.865941 1209.265144 65.923669 
Q 1208.289967 72.981397 1206.322121 76.332036 
Q 1207.40225 77.662786 1208.254983 82.391702 
Q 1209.11209 87.096854 1209.986688 96.673502 
L 1212.842252 128.16 
L 1207.240449 128.16 
L 1204.752217 100.618225 
Q 1204.000062 92.301037 1203.226043 89.259323 
Q 1202.456396 86.193845 1201.170737 86.193845 
L 1199.68392 86.193845 
z
" clip-path="url(#p482db9f08e)" style="fill: #bd2e1f"/>
   </g>
   <g id="patch_54">
    <path d="M 1230.694962 22.570907 
L 1230.694962 45.200413 
Q 1228.774019 41.260863 1226.94312 39.268184 
Q 1225.117224 37.252601 1223.491426 37.252601 
Q 1221.335368 37.252601 1220.29986 39.978219 
Q 1219.269354 42.680934 1219.269354 48.407023 
Q 1219.269354 52.713043 1219.964695 55.118 
Q 1220.660036 57.500054 1222.490935 59.217881 
L 1225.052192 61.57703 
Q 1228.944103 65.173014 1230.584908 72.479504 
Q 1232.230716 79.76309 1232.230716 93.230853 
Q 1232.230716 110.890114 1229.939591 119.525057 
Q 1227.648467 128.16 1222.941156 128.16 
Q 1220.725068 128.16 1218.488971 126.21313 
Q 1216.252873 124.289163 1214.016775 120.48704 
L 1214.016775 97.239116 
Q 1216.252873 102.667449 1218.338897 105.438876 
Q 1220.424921 108.187399 1222.365874 108.187399 
Q 1224.336841 108.187399 1225.382354 105.186928 
Q 1226.427867 102.163553 1226.427867 96.574889 
Q 1226.427867 91.581739 1225.717519 88.856121 
Q 1225.00717 86.130502 1222.881127 83.977492 
L 1220.549982 81.618343 
Q 1217.048263 78.18269 1215.427468 70.67006 
Q 1213.811675 63.15743 1213.811675 50.422607 
Q 1213.811675 34.458269 1216.06278 25.869134 
Q 1218.313885 17.28 1222.535957 17.28 
Q 1224.461902 17.28 1226.492899 18.608453 
Q 1228.523896 19.936906 1230.694962 22.570907 
z
" clip-path="url(#p482db9f08e)" style="fill: #40ba47"/>
   </g>
   <g id="patch_55">
    <path d="M 1250.083426 22.570907 
L 1250.083426 45.200413 
Q 1248.162483 41.260863 1246.331585 39.268184 
Q 1244.505688 37.252601 1242.87989 37.252601 
Q 1240.723832 37.252601 1239.688324 39.978219 
Q 1238.657818 42.680934 1238.657818 48.407023 
Q 1238.657818 52.713043 1239.353159 55.118 
Q 1240.048501 57.500054 1241.879399 59.217881 
L 1244.440656 61.57703 
Q 1248.332567 65.173014 1249.973372 72.479504 
Q 1251.61918 79.76309 1251.61918 93.230853 
Q 1251.61918 110.890114 1249.328055 119.525057 
Q 1247.036931 128.16 1242.32962 128.16 
Q 1240.113532 128.16 1237.877435 126.21313 
Q 1235.641337 124.289163 1233.40524 120.48704 
L 1233.40524 97.239116 
Q 1235.641337 102.667449 1237.727361 105.438876 
Q 1239.813385 108.187399 1241.754338 108.187399 
Q 1243.725305 108.187399 1244.770818 105.186928 
Q 1245.816332 102.163553 1245.816332 96.574889 
Q 1245.816332 91.581739 1245.105983 88.856121 
Q 1244.395634 86.130502 1242.269591 83.977492 
L 1239.938446 81.618343 
Q 1236.436728 78.18269 1234.815932 70.67006 
Q 1233.200139 63.15743 1233.200139 50.422607 
Q 1233.200139 34.458269 1235.451244 25.869134 
Q 1237.702349 17.28 1241.924421 17.28 
Q 1243.850367 17.28 1245.881364 18.608453 
Q 1247.91236 19.936906 1250.083426 22.570907 
z
" clip-path="url(#p482db9f08e)" style="fill: #40ba47"/>
   </g>
   <g id="patch_56">
    <path d="M 1262.289298 111.578719 
L 1261.928592 111.578719 
Q 1257.504185 111.578719 1255.044475 99.152512 
Q 1252.588603 86.706798 1252.588603 64.526897 
Q 1252.588603 42.38601 1255.040638 29.842759 
Q 1257.492673 17.28 1261.798124 17.28 
Q 1266.149622 17.28 1268.578633 29.725714 
Q 1271.007644 42.151921 1271.007644 64.526897 
Q 1271.007644 79.879212 1269.718311 90.978916 
Q 1268.428978 102.078621 1266.007642 107.677241 
L 1269.614704 128.16 
L 1265.213321 128.16 
L 1262.289298 111.578719 
z
M 1261.798124 34.290443 
Q 1259.687609 34.290443 1258.524907 42.210443 
Q 1257.362205 50.130443 1257.362205 64.526897 
Q 1257.362205 79.157438 1258.498046 86.940887 
Q 1259.637724 94.704828 1261.798124 94.704828 
Q 1263.920151 94.704828 1265.082853 86.784828 
Q 1266.245555 78.84532 1266.245555 64.526897 
Q 1266.245555 50.130443 1265.082853 42.210443 
Q 1263.920151 34.290443 1261.798124 34.290443 
z
" clip-path="url(#p482db9f08e)" style="fill: #40ba47"/>
   </g>
   <g id="patch_57">
    <path d="M 1281.677762 111.578719 
L 1281.317056 111.578719 
Q 1276.892649 111.578719 1274.43294 99.152512 
Q 1271.977067 86.706798 1271.977067 64.526897 
Q 1271.977067 42.38601 1274.429102 29.842759 
Q 1276.881137 17.28 1281.186588 17.28 
Q 1285.538086 17.28 1287.967097 29.725714 
Q 1290.396108 42.151921 1290.396108 64.526897 
Q 1290.396108 79.879212 1289.106776 90.978916 
Q 1287.817443 102.078621 1285.396106 107.677241 
L 1289.003168 128.16 
L 1284.601785 128.16 
L 1281.677762 111.578719 
z
M 1281.186588 34.290443 
Q 1279.076073 34.290443 1277.913371 42.210443 
Q 1276.750669 50.130443 1276.750669 64.526897 
Q 1276.750669 79.157438 1277.88651 86.940887 
Q 1279.026188 94.704828 1281.186588 94.704828 
Q 1283.308615 94.704828 1284.471317 86.784828 
Q 1285.634019 78.84532 1285.634019 64.526897 
Q 1285.634019 50.130443 1284.471317 42.210443 
Q 1283.308615 34.290443 1281.186588 34.290443 
z
" clip-path="url(#p482db9f08e)" style="fill: #40ba47"/>
   </g>
   <g id="patch_58">
    <path d="M 1309.784573 120.212188 
Q 1308.243852 124.151737 1306.577831 126.144416 
Q 1304.91181 128.16 1303.097287 128.16 
Q 1297.6862 128.16 1294.525866 113.226358 
Q 1291.365532 98.292716 1291.365532 72.754357 
Q 1291.365532 47.124379 1294.525866 32.213642 
Q 1297.6862 17.28 1303.097287 17.28 
Q 1304.91181 17.28 1306.577831 19.295584 
Q 1308.243852 21.288263 1309.784573 25.227812 
L 1309.784573 47.330518 
Q 1308.229929 42.108325 1306.721694 39.680463 
Q 1305.213458 37.252601 1303.547437 37.252601 
Q 1300.55881 37.252601 1298.846382 46.712101 
Q 1297.138595 56.148697 1297.138595 72.754357 
Q 1297.138595 89.291303 1298.846382 98.750804 
Q 1300.55881 108.187399 1303.547437 108.187399 
Q 1305.213458 108.187399 1306.721694 105.759537 
Q 1308.229929 103.308771 1309.784573 98.086577 
L 1309.784573 120.212188 
z
" clip-path="url(#p482db9f08e)" style="fill: #6b296b"/>
   </g>
   <g id="patch_59">
    <path d="M 1323.512882 107.961114 
L 1316.429215 107.961114 
L 1315.310741 128.16 
L 1310.753996 128.16 
L 1317.26148 17.28 
L 1322.665553 17.28 
L 1329.173037 128.16 
L 1324.620058 128.16 
L 1323.512882 107.961114 
z
M 1317.558986 87.382015 
L 1322.371813 87.382015 
L 1319.969165 43.277154 
L 1317.558986 87.382015 
z
" clip-path="url(#p482db9f08e)" style="fill: #21599c"/>
   </g>
   <g id="patch_60">
    <path d="M 1342.901346 107.961114 
L 1335.817679 107.961114 
L 1334.699205 128.16 
L 1330.14246 128.16 
L 1336.649944 17.28 
L 1342.054017 17.28 
L 1348.561501 128.16 
L 1344.008522 128.16 
L 1342.901346 107.961114 
z
M 1336.94745 87.382015 
L 1341.760277 87.382015 
L 1339.357629 43.277154 
L 1336.94745 87.382015 
z
" clip-path="url(#p482db9f08e)" style="fill: #21599c"/>
   </g>
   <g id="patch_61">
    <path d="M 1362.28981 107.961114 
L 1355.206143 107.961114 
L 1354.087669 128.16 
L 1349.530924 128.16 
L 1356.038408 17.28 
L 1361.442482 17.28 
L 1367.949965 128.16 
L 1363.396986 128.16 
L 1362.28981 107.961114 
z
M 1356.335914 87.382015 
L 1361.148741 87.382015 
L 1358.746094 43.277154 
L 1356.335914 87.382015 
z
" clip-path="url(#p482db9f08e)" style="fill: #21599c"/>
   </g>
   <g id="patch_62">
    <path d="M 1368.919388 17.28 
L 1375.603583 17.28 
L 1375.603583 106.559074 
L 1387.338429 106.559074 
L 1387.338429 128.16 
L 1368.919388 128.16 
L 1368.919388 17.28 
z
" clip-path="url(#p482db9f08e)" style="fill: #21599c"/>
   </g>
   <g id="patch_63">
    <path d="M 1406.726894 118.127891 
Q 1404.869303 123.143945 1402.871362 125.663425 
Q 1400.87342 128.16 1398.743383 128.16 
Q 1393.93016 128.16 1391.119006 113.226358 
Q 1388.307853 98.292716 1388.307853 72.754357 
Q 1388.307853 46.91824 1391.168542 32.09912 
Q 1394.033359 17.28 1399.015829 17.28 
Q 1400.93534 17.28 1402.693858 19.295584 
Q 1404.456505 21.288263 1406.016881 25.227812 
L 1406.016881 47.330518 
Q 1404.40697 42.268655 1402.81357 39.77208 
Q 1401.22017 37.252601 1399.618514 37.252601 
Q 1396.654626 37.252601 1395.048842 46.460153 
Q 1393.443058 55.644801 1393.443058 72.754357 
Q 1393.443058 89.703582 1394.99105 98.956943 
Q 1396.539042 108.187399 1399.387348 108.187399 
Q 1400.163408 108.187399 1400.828012 107.660599 
Q 1401.492617 107.110894 1402.020998 105.965677 
L 1402.020998 85.214328 
L 1398.986934 85.214328 
L 1398.986934 66.73051 
L 1406.726894 66.73051 
L 1406.726894 118.127891 
z
" clip-path="url(#p482db9f08e)" style="fill: #787800"/>
   </g>
   <g id="patch_64">
    <path d="M 1424.579604 22.570907 
L 1424.579604 45.200413 
Q 1422.658661 41.260863 1420.827762 39.268184 
Q 1419.001866 37.252601 1417.376068 37.252601 
Q 1415.22001 37.252601 1414.184502 39.978219 
Q 1413.153996 42.680934 1413.153996 48.407023 
Q 1413.153996 52.713043 1413.849337 55.118 
Q 1414.544678 57.500054 1416.375577 59.217881 
L 1418.936834 61.57703 
Q 1422.828745 65.173014 1424.46955 72.479504 
Q 1426.115358 79.76309 1426.115358 93.230853 
Q 1426.115358 110.890114 1423.824233 119.525057 
Q 1421.533109 128.16 1416.825798 128.16 
Q 1414.60971 128.16 1412.373613 126.21313 
Q 1410.137515 124.289163 1407.901418 120.48704 
L 1407.901418 97.239116 
Q 1410.137515 102.667449 1412.223539 105.438876 
Q 1414.309563 108.187399 1416.250516 108.187399 
Q 1418.221483 108.187399 1419.266996 105.186928 
Q 1420.31251 102.163553 1420.31251 96.574889 
Q 1420.31251 91.581739 1419.602161 88.856121 
Q 1418.891812 86.130502 1416.765769 83.977492 
L 1414.434624 81.618343 
Q 1410.932906 78.18269 1409.31211 70.67006 
Q 1407.696317 63.15743 1407.696317 50.422607 
Q 1407.696317 34.458269 1409.947422 25.869134 
Q 1412.198527 17.28 1416.420599 17.28 
Q 1418.346545 17.28 1420.377541 18.608453 
Q 1422.408538 19.936906 1424.579604 22.570907 
z
" clip-path="url(#p482db9f08e)" style="fill: #40ba47"/>
   </g>
   <g id="patch_65">
    <path d="M 1427.084781 17.28 
L 1433.768976 17.28 
L 1433.768976 106.559074 
L 1445.503822 106.559074 
L 1445.503822 128.16 
L 1427.084781 128.16 
L 1427.084781 17.28 
z
" clip-path="url(#p482db9f08e)" style="fill: #21599c"/>
   </g>
   <g id="patch_66">
    <path d="M 1446.473245 17.28 
L 1464.892286 17.28 
L 1464.892286 38.904689 
L 1458.265715 38.904689 
L 1458.265715 128.16 
L 1453.112667 128.16 
L 1453.112667 38.904689 
L 1446.473245 38.904689 
L 1446.473245 17.28 
z
" clip-path="url(#p482db9f08e)" style="fill: #40ba47"/>
   </g>
   <g id="patch_67">
    <path d="M 1478.620595 107.961114 
L 1471.536928 107.961114 
L 1470.418454 128.16 
L 1465.86171 128.16 
L 1472.369193 17.28 
L 1477.773267 17.28 
L 1484.280751 128.16 
L 1479.727771 128.16 
L 1478.620595 107.961114 
z
M 1472.6667 87.382015 
L 1477.479526 87.382015 
L 1475.076879 43.277154 
L 1472.6667 87.382015 
z
" clip-path="url(#p482db9f08e)" style="fill: #21599c"/>
   </g>
   <g id="patch_68">
    <path d="M 1485.250174 17.28 
L 1490.104085 17.28 
L 1490.104085 57.749061 
L 1497.100496 17.28 
L 1502.737167 17.28 
L 1493.670883 69.797102 
L 1503.669215 128.16 
L 1497.592747 128.16 
L 1490.104085 84.48288 
L 1490.104085 128.16 
L 1485.250174 128.16 
L 1485.250174 17.28 
z
" clip-path="url(#p482db9f08e)" style="fill: #bd2e1f"/>
   </g>
   <g id="patch_69">
    <path d="M 1504.638638 17.28 
L 1523.057679 17.28 
L 1523.057679 38.904689 
L 1516.431108 38.904689 
L 1516.431108 128.16 
L 1511.27806 128.16 
L 1511.27806 38.904689 
L 1504.638638 38.904689 
L 1504.638638 17.28 
z
" clip-path="url(#p482db9f08e)" style="fill: #40ba47"/>
   </g>
   <g id="patch_70">
    <path d="M 1529.894525 17.28 
L 1536.57872 17.28 
L 1536.57872 128.16 
L 1529.894525 128.16 
L 1529.894525 17.28 
z
" clip-path="url(#p482db9f08e)" style="fill: #21599c"/>
   </g>
   <g id="patch_71">
    <path d="M 1543.415566 17.28 
L 1561.451225 17.28 
L 1561.451225 38.904689 
L 1550.099761 38.904689 
L 1550.099761 59.531316 
L 1560.778916 59.531316 
L 1560.778916 81.156005 
L 1550.099761 81.156005 
L 1550.099761 106.559074 
L 1561.834607 106.559074 
L 1561.834607 128.16 
L 1543.415566 128.16 
L 1543.415566 17.28 
z
" clip-path="url(#p482db9f08e)" style="fill: #6b296b"/>
   </g>
   <g id="patch_72">
    <path d="M 1562.804031 17.28 
L 1567.657942 17.28 
L 1567.657942 57.749061 
L 1574.654353 17.28 
L 1580.291024 17.28 
L 1571.22474 69.797102 
L 1581.223072 128.16 
L 1575.146604 128.16 
L 1567.657942 84.48288 
L 1567.657942 128.16 
L 1562.804031 128.16 
L 1562.804031 17.28 
z
" clip-path="url(#p482db9f08e)" style="fill: #bd2e1f"/>
   </g>
   <g id="patch_73">
    <path d="M 1582.192495 17.28 
L 1587.046406 17.28 
L 1587.046406 57.749061 
L 1594.042818 17.28 
L 1599.679488 17.28 
L 1590.613204 69.797102 
L 1600.611536 128.16 
L 1594.535068 128.16 
L 1587.046406 84.48288 
L 1587.046406 128.16 
L 1582.192495 128.16 
L 1582.192495 17.28 
z
" clip-path="url(#p482db9f08e)" style="fill: #bd2e1f"/>
   </g>
   <g id="patch_74">
    <path d="M 1620 120.212188 
Q 1618.459279 124.151737 1616.793258 126.144416 
Q 1615.127238 128.16 1613.312714 128.16 
Q 1607.901628 128.16 1604.741293 113.226358 
Q 1601.580959 98.292716 1601.580959 72.754357 
Q 1601.580959 47.124379 1604.741293 32.213642 
Q 1607.901628 17.28 1613.312714 17.28 
Q 1615.127238 17.28 1616.793258 19.295584 
Q 1618.459279 21.288263 1620 25.227812 
L 1620 47.330518 
Q 1618.445357 42.108325 1616.937121 39.680463 
Q 1615.428885 37.252601 1613.762864 37.252601 
Q 1610.774237 37.252601 1609.061809 46.712101 
Q 1607.354022 56.148697 1607.354022 72.754357 
Q 1607.354022 89.291303 1609.061809 98.750804 
Q 1610.774237 108.187399 1613.762864 108.187399 
Q 1615.428885 108.187399 1616.937121 105.759537 
Q 1618.445357 103.308771 1620 98.086577 
L 1620 120.212188 
z
" clip-path="url(#p482db9f08e)" style="fill: #6b296b"/>
   </g>
   <g id="matplotlib.axis_1">
    <g id="xtick_1">
     <g id="line2d_2">
      <defs>
       <path id="m86fed1c590" d="M 0 0 
L 0 3.5 
" style="stroke: #000000; stroke-width: 0.8"/>
      </defs>
      <g>
       <use xlink:href="#m86fed1c590" x="234.209521" y="128.16" style="stroke: #000000; stroke-width: 0.8"/>
      </g>
     </g>
     <g id="text_1">
      <!-- 0 -->
      <g transform="translate(231.028271 142.758438) scale(0.1 -0.1)">
       <defs>
        <path id="DejaVuSans-30" d="M 2034 4250 
Q 1547 4250 1301 3770 
Q 1056 3291 1056 2328 
Q 1056 1369 1301 889 
Q 1547 409 2034 409 
Q 2525 409 2770 889 
Q 3016 1369 3016 2328 
Q 3016 3291 2770 3770 
Q 2525 4250 2034 4250 
z
M 2034 4750 
Q 2819 4750 3233 4129 
Q 3647 3509 3647 2328 
Q 3647 1150 3233 529 
Q 2819 -91 2034 -91 
Q 1250 -91 836 529 
Q 422 1150 422 2328 
Q 422 3509 836 4129 
Q 1250 4750 2034 4750 
z
" transform="scale(0.015625)"/>
       </defs>
       <use xlink:href="#DejaVuSans-30"/>
      </g>
     </g>
    </g>
    <g id="xtick_2">
     <g id="line2d_3">
      <g>
       <use xlink:href="#m86fed1c590" x="428.094163" y="128.16" style="stroke: #000000; stroke-width: 0.8"/>
      </g>
     </g>
     <g id="text_2">
      <!-- 10 -->
      <g transform="translate(421.731663 142.758438) scale(0.1 -0.1)">
       <defs>
        <path id="DejaVuSans-31" d="M 794 531 
L 1825 531 
L 1825 4091 
L 703 3866 
L 703 4441 
L 1819 4666 
L 2450 4666 
L 2450 531 
L 3481 531 
L 3481 0 
L 794 0 
L 794 531 
z
" transform="scale(0.015625)"/>
       </defs>
       <use xlink:href="#DejaVuSans-31"/>
       <use xlink:href="#DejaVuSans-30" x="63.623047"/>
      </g>
     </g>
    </g>
    <g id="xtick_3">
     <g id="line2d_4">
      <g>
       <use xlink:href="#m86fed1c590" x="621.978805" y="128.16" style="stroke: #000000; stroke-width: 0.8"/>
      </g>
     </g>
     <g id="text_3">
      <!-- 20 -->
      <g transform="translate(615.616305 142.758438) scale(0.1 -0.1)">
       <defs>
        <path id="DejaVuSans-32" d="M 1228 531 
L 3431 531 
L 3431 0 
L 469 0 
L 469 531 
Q 828 903 1448 1529 
Q 2069 2156 2228 2338 
Q 2531 2678 2651 2914 
Q 2772 3150 2772 3378 
Q 2772 3750 2511 3984 
Q 2250 4219 1831 4219 
Q 1534 4219 1204 4116 
Q 875 4013 500 3803 
L 500 4441 
Q 881 4594 1212 4672 
Q 1544 4750 1819 4750 
Q 2544 4750 2975 4387 
Q 3406 4025 3406 3419 
Q 3406 3131 3298 2873 
Q 3191 2616 2906 2266 
Q 2828 2175 2409 1742 
Q 1991 1309 1228 531 
z
" transform="scale(0.015625)"/>
       </defs>
       <use xlink:href="#DejaVuSans-32"/>
       <use xlink:href="#DejaVuSans-30" x="63.623047"/>
      </g>
     </g>
    </g>
    <g id="xtick_4">
     <g id="line2d_5">
      <g>
       <use xlink:href="#m86fed1c590" x="815.863447" y="128.16" style="stroke: #000000; stroke-width: 0.8"/>
      </g>
     </g>
     <g id="text_4">
      <!-- 30 -->
      <g transform="translate(809.500947 142.758438) scale(0.1 -0.1)">
       <defs>
        <path id="DejaVuSans-33" d="M 2597 2516 
Q 3050 2419 3304 2112 
Q 3559 1806 3559 1356 
Q 3559 666 3084 287 
Q 2609 -91 1734 -91 
Q 1441 -91 1130 -33 
Q 819 25 488 141 
L 488 750 
Q 750 597 1062 519 
Q 1375 441 1716 441 
Q 2309 441 2620 675 
Q 2931 909 2931 1356 
Q 2931 1769 2642 2001 
Q 2353 2234 1838 2234 
L 1294 2234 
L 1294 2753 
L 1863 2753 
Q 2328 2753 2575 2939 
Q 2822 3125 2822 3475 
Q 2822 3834 2567 4026 
Q 2313 4219 1838 4219 
Q 1578 4219 1281 4162 
Q 984 4106 628 3988 
L 628 4550 
Q 988 4650 1302 4700 
Q 1616 4750 1894 4750 
Q 2613 4750 3031 4423 
Q 3450 4097 3450 3541 
Q 3450 3153 3228 2886 
Q 3006 2619 2597 2516 
z
" transform="scale(0.015625)"/>
       </defs>
       <use xlink:href="#DejaVuSans-33"/>
       <use xlink:href="#DejaVuSans-30" x="63.623047"/>
      </g>
     </g>
    </g>
    <g id="xtick_5">
     <g id="line2d_6">
      <g>
       <use xlink:href="#m86fed1c590" x="1009.748089" y="128.16" style="stroke: #000000; stroke-width: 0.8"/>
      </g>
     </g>
     <g id="text_5">
      <!-- 40 -->
      <g transform="translate(1003.385589 142.758438) scale(0.1 -0.1)">
       <defs>
        <path id="DejaVuSans-34" d="M 2419 4116 
L 825 1625 
L 2419 1625 
L 2419 4116 
z
M 2253 4666 
L 3047 4666 
L 3047 1625 
L 3713 1625 
L 3713 1100 
L 3047 1100 
L 3047 0 
L 2419 0 
L 2419 1100 
L 313 1100 
L 313 1709 
L 2253 4666 
z
" transform="scale(0.015625)"/>
       </defs>
       <use xlink:href="#DejaVuSans-34"/>
       <use xlink:href="#DejaVuSans-30" x="63.623047"/>
      </g>
     </g>
    </g>
    <g id="xtick_6">
     <g id="line2d_7">
      <g>
       <use xlink:href="#m86fed1c590" x="1203.632731" y="128.16" style="stroke: #000000; stroke-width: 0.8"/>
      </g>
     </g>
     <g id="text_6">
      <!-- 50 -->
      <g transform="translate(1197.270231 142.758438) scale(0.1 -0.1)">
       <defs>
        <path id="DejaVuSans-35" d="M 691 4666 
L 3169 4666 
L 3169 4134 
L 1269 4134 
L 1269 2991 
Q 1406 3038 1543 3061 
Q 1681 3084 1819 3084 
Q 2600 3084 3056 2656 
Q 3513 2228 3513 1497 
Q 3513 744 3044 326 
Q 2575 -91 1722 -91 
Q 1428 -91 1123 -41 
Q 819 9 494 109 
L 494 744 
Q 775 591 1075 516 
Q 1375 441 1709 441 
Q 2250 441 2565 725 
Q 2881 1009 2881 1497 
Q 2881 1984 2565 2268 
Q 2250 2553 1709 2553 
Q 1456 2553 1204 2497 
Q 953 2441 691 2322 
L 691 4666 
z
" transform="scale(0.015625)"/>
       </defs>
       <use xlink:href="#DejaVuSans-35"/>
       <use xlink:href="#DejaVuSans-30" x="63.623047"/>
      </g>
     </g>
    </g>
    <g id="xtick_7">
     <g id="line2d_8">
      <g>
       <use xlink:href="#m86fed1c590" x="1397.517373" y="128.16" style="stroke: #000000; stroke-width: 0.8"/>
      </g>
     </g>
     <g id="text_7">
      <!-- 60 -->
      <g transform="translate(1391.154873 142.758438) scale(0.1 -0.1)">
       <defs>
        <path id="DejaVuSans-36" d="M 2113 2584 
Q 1688 2584 1439 2293 
Q 1191 2003 1191 1497 
Q 1191 994 1439 701 
Q 1688 409 2113 409 
Q 2538 409 2786 701 
Q 3034 994 3034 1497 
Q 3034 2003 2786 2293 
Q 2538 2584 2113 2584 
z
M 3366 4563 
L 3366 3988 
Q 3128 4100 2886 4159 
Q 2644 4219 2406 4219 
Q 1781 4219 1451 3797 
Q 1122 3375 1075 2522 
Q 1259 2794 1537 2939 
Q 1816 3084 2150 3084 
Q 2853 3084 3261 2657 
Q 3669 2231 3669 1497 
Q 3669 778 3244 343 
Q 2819 -91 2113 -91 
Q 1303 -91 875 529 
Q 447 1150 447 2328 
Q 447 3434 972 4092 
Q 1497 4750 2381 4750 
Q 2619 4750 2861 4703 
Q 3103 4656 3366 4563 
z
" transform="scale(0.015625)"/>
       </defs>
       <use xlink:href="#DejaVuSans-36"/>
       <use xlink:href="#DejaVuSans-30" x="63.623047"/>
      </g>
     </g>
    </g>
    <g id="xtick_8">
     <g id="line2d_9">
      <g>
       <use xlink:href="#m86fed1c590" x="1591.402015" y="128.16" style="stroke: #000000; stroke-width: 0.8"/>
      </g>
     </g>
     <g id="text_8">
      <!-- 70 -->
      <g transform="translate(1585.039515 142.758438) scale(0.1 -0.1)">
       <defs>
        <path id="DejaVuSans-37" d="M 525 4666 
L 3525 4666 
L 3525 4397 
L 1831 0 
L 1172 0 
L 2766 4134 
L 525 4134 
L 525 4666 
z
" transform="scale(0.015625)"/>
       </defs>
       <use xlink:href="#DejaVuSans-37"/>
       <use xlink:href="#DejaVuSans-30" x="63.623047"/>
      </g>
     </g>
    </g>
   </g>
   <g id="matplotlib.axis_2">
    <g id="ytick_1">
     <g id="line2d_10">
      <defs>
       <path id="m1d843732b7" d="M 0 0 
L -3.5 0 
" style="stroke: #000000; stroke-width: 0.8"/>
      </defs>
      <g>
       <use xlink:href="#m1d843732b7" x="225" y="128.16" style="stroke: #000000; stroke-width: 0.8"/>
      </g>
     </g>
     <g id="text_9">
      <!-- 0 -->
      <g transform="translate(211.6375 131.959219) scale(0.1 -0.1)">
       <use xlink:href="#DejaVuSans-30"/>
      </g>
     </g>
    </g>
    <g id="ytick_2">
     <g id="line2d_11">
      <g>
       <use xlink:href="#m1d843732b7" x="225" y="105.984" style="stroke: #000000; stroke-width: 0.8"/>
      </g>
     </g>
     <g id="text_10">
      <!-- 1 -->
      <g transform="translate(211.6375 109.783219) scale(0.1 -0.1)">
       <use xlink:href="#DejaVuSans-31"/>
      </g>
     </g>
    </g>
    <g id="ytick_3">
     <g id="line2d_12">
      <g>
       <use xlink:href="#m1d843732b7" x="225" y="83.808" style="stroke: #000000; stroke-width: 0.8"/>
      </g>
     </g>
     <g id="text_11">
      <!-- 2 -->
      <g transform="translate(211.6375 87.607219) scale(0.1 -0.1)">
       <use xlink:href="#DejaVuSans-32"/>
      </g>
     </g>
    </g>
    <g id="ytick_4">
     <g id="line2d_13">
      <g>
       <use xlink:href="#m1d843732b7" x="225" y="61.632" style="stroke: #000000; stroke-width: 0.8"/>
      </g>
     </g>
     <g id="text_12">
      <!-- 3 -->
      <g transform="translate(211.6375 65.431219) scale(0.1 -0.1)">
       <use xlink:href="#DejaVuSans-33"/>
      </g>
     </g>
    </g>
    <g id="ytick_5">
     <g id="line2d_14">
      <g>
       <use xlink:href="#m1d843732b7" x="225" y="39.456" style="stroke: #000000; stroke-width: 0.8"/>
      </g>
     </g>
     <g id="text_13">
      <!-- 4 -->
      <g transform="translate(211.6375 43.255219) scale(0.1 -0.1)">
       <use xlink:href="#DejaVuSans-34"/>
      </g>
     </g>
    </g>
    <g id="ytick_6">
     <g id="line2d_15">
      <g>
       <use xlink:href="#m1d843732b7" x="225" y="17.28" style="stroke: #000000; stroke-width: 0.8"/>
      </g>
     </g>
     <g id="text_14">
      <!-- 5 -->
      <g transform="translate(211.6375 21.079219) scale(0.1 -0.1)">
       <use xlink:href="#DejaVuSans-35"/>
      </g>
     </g>
    </g>
   </g>
  </g>
 </g>
 <defs>
  <clipPath id="p482db9f08e">
   <rect x="225" y="17.28" width="1395" height="110.88"/>
  </clipPath>
 </defs>
</svg>
