<?xml version="1.0" encoding="utf-8" standalone="no"?>
<!DOCTYPE svg PUBLIC "-//W3C//DTD SVG 1.1//EN"
  "http://www.w3.org/Graphics/SVG/1.1/DTD/svg11.dtd">
<svg xmlns:xlink="http://www.w3.org/1999/xlink" width="1800pt" height="144pt" viewBox="0 0 1800 144" xmlns="http://www.w3.org/2000/svg" version="1.1">
 <metadata>
  <rdf:RDF xmlns:dc="http://purl.org/dc/elements/1.1/" xmlns:cc="http://creativecommons.org/ns#" xmlns:rdf="http://www.w3.org/1999/02/22-rdf-syntax-ns#">
   <cc:Work>
    <dc:type rdf:resource="http://purl.org/dc/dcmitype/StillImage"/>
    <dc:date>2025-05-09T21:11:16.025295</dc:date>
    <dc:format>image/svg+xml</dc:format>
    <dc:creator>
     <cc:Agent>
      <dc:title>Matplotlib v3.8.0, https://matplotlib.org/</dc:title>
     </cc:Agent>
    </dc:creator>
   </cc:Work>
  </rdf:RDF>
 </metadata>
 <defs>
  <style type="text/css">*{stroke-linejoin: round; stroke-linecap: butt}</style>
 </defs>
 <g id="figure_1">
  <g id="patch_1">
   <path d="M 0 144 
L 1800 144 
L 1800 0 
L 0 0 
z
" style="fill: #ffffff"/>
  </g>
  <g id="axes_1">
   <g id="patch_2">
    <path d="M 225 128.16 
L 1620 128.16 
L 1620 17.28 
L 225 17.28 
z
" style="fill: #ffffff"/>
   </g>
   <g id="line2d_1">
    <path d="M 225 128.16 
L 1620 128.16 
" clip-path="url(#pb42e4d46d7)" style="fill: none; stroke: #000000; stroke-width: 1.5; stroke-linecap: square"/>
   </g>
   <g id="patch_3">
    <path d="M 225 17.28 
L 228.991179 17.28 
L 231.759717 76.617197 
L 234.546504 17.28 
L 238.529862 17.28 
L 238.529862 128.16 
L 235.565806 128.16 
L 235.565806 47.055534 
L 232.763378 106.844235 
L 230.774305 106.844235 
L 227.971877 47.055534 
L 227.971877 128.16 
L 225 128.16 
L 225 17.28 
z
" clip-path="url(#pb42e4d46d7)" style="fill: #21599c"/>
   </g>
   <g id="patch_4">
    <path d="M 239.24196 17.28 
L 252.771822 17.28 
L 252.771822 38.904689 
L 247.904218 38.904689 
L 247.904218 128.16 
L 244.119004 128.16 
L 244.119004 38.904689 
L 239.24196 38.904689 
L 239.24196 17.28 
z
" clip-path="url(#pb42e4d46d7)" style="fill: #40ba47"/>
   </g>
   <g id="patch_5">
    <path d="M 253.48392 17.28 
L 260.51663 17.28 
Q 263.655981 17.28 265.33312 26.690304 
Q 267.013783 36.076845 267.013783 53.447887 
Q 267.013783 70.913982 265.33312 80.300523 
Q 263.655981 89.687064 260.51663 89.687064 
L 257.722573 89.687064 
L 257.722573 128.16 
L 253.48392 128.16 
L 253.48392 17.28 
z
M 257.722573 38.00168 
L 257.722573 68.965384 
L 260.065635 68.965384 
Q 261.298825 68.965384 261.971795 64.925607 
Q 262.644765 60.885829 262.644765 53.447887 
Q 262.644765 46.033708 261.971795 42.017694 
Q 261.298825 38.00168 260.065635 38.00168 
L 257.722573 38.00168 
z
" clip-path="url(#pb42e4d46d7)" style="fill: #787800"/>
   </g>
   <g id="patch_6">
    <path d="M 277.098028 107.961114 
L 271.89466 107.961114 
L 271.073076 128.16 
L 267.725881 128.16 
L 272.506008 17.28 
L 276.475616 17.28 
L 281.255743 128.16 
L 277.911313 128.16 
L 277.098028 107.961114 
z
M 272.724544 87.382015 
L 276.259846 87.382015 
L 274.494961 43.277154 
L 272.724544 87.382015 
z
" clip-path="url(#pb42e4d46d7)" style="fill: #21599c"/>
   </g>
   <g id="patch_7">
    <path d="M 286.277806 17.28 
L 291.187738 17.28 
L 291.187738 128.16 
L 286.277806 128.16 
L 286.277806 17.28 
z
" clip-path="url(#pb42e4d46d7)" style="fill: #21599c"/>
   </g>
   <g id="patch_8">
    <path d="M 303.335528 111.578719 
L 303.070569 111.578719 
Q 299.820583 111.578719 298.013783 99.152512 
Q 296.209801 86.706798 296.209801 64.526897 
Q 296.209801 42.38601 298.010964 29.842759 
Q 299.812127 17.28 302.974732 17.28 
Q 306.171162 17.28 307.955413 29.725714 
Q 309.739663 42.151921 309.739663 64.526897 
Q 309.739663 79.879212 308.792573 90.978916 
Q 307.845482 102.078621 306.066869 107.677241 
L 308.716467 128.16 
L 305.483394 128.16 
L 303.335528 111.578719 
z
M 302.974732 34.290443 
Q 301.424435 34.290443 300.570363 42.210443 
Q 299.71629 50.130443 299.71629 64.526897 
Q 299.71629 79.157438 300.550632 86.940887 
Q 301.387792 94.704828 302.974732 94.704828 
Q 304.533485 94.704828 305.387557 86.784828 
Q 306.24163 78.84532 306.24163 64.526897 
Q 306.24163 50.130443 305.387557 42.210443 
Q 304.533485 34.290443 302.974732 34.290443 
z
" clip-path="url(#pb42e4d46d7)" style="fill: #40ba47"/>
   </g>
   <g id="patch_9">
    <path d="M 310.451761 17.28 
L 314.017243 17.28 
L 314.017243 57.749061 
L 319.156516 17.28 
L 323.29698 17.28 
L 316.637264 69.797102 
L 323.981623 128.16 
L 319.518102 128.16 
L 314.017243 84.48288 
L 314.017243 128.16 
L 310.451761 128.16 
L 310.451761 17.28 
z
" clip-path="url(#pb42e4d46d7)" style="fill: #bd2e1f"/>
   </g>
   <g id="patch_10">
    <path d="M 334.065869 107.961114 
L 328.862501 107.961114 
L 328.040917 128.16 
L 324.693721 128.16 
L 329.473848 17.28 
L 333.443456 17.28 
L 338.223583 128.16 
L 334.879154 128.16 
L 334.065869 107.961114 
z
M 329.692384 87.382015 
L 333.227687 87.382015 
L 331.462802 43.277154 
L 329.692384 87.382015 
z
" clip-path="url(#pb42e4d46d7)" style="fill: #21599c"/>
   </g>
   <g id="patch_11">
    <path d="M 338.935681 17.28 
L 342.282877 17.28 
L 345.704762 99.121132 
L 349.121114 17.28 
L 352.465544 17.28 
L 347.685417 128.16 
L 343.715809 128.16 
L 338.935681 17.28 
z
" clip-path="url(#pb42e4d46d7)" style="fill: #21599c"/>
   </g>
   <g id="patch_12">
    <path d="M 353.177642 17.28 
L 360.210351 17.28 
Q 363.349702 17.28 365.026841 26.690304 
Q 366.707504 36.076845 366.707504 53.447887 
Q 366.707504 70.913982 365.026841 80.300523 
Q 363.349702 89.687064 360.210351 89.687064 
L 357.416294 89.687064 
L 357.416294 128.16 
L 353.177642 128.16 
L 353.177642 17.28 
z
M 357.416294 38.00168 
L 357.416294 68.965384 
L 359.759356 68.965384 
Q 360.992546 68.965384 361.665516 64.925607 
Q 362.338486 60.885829 362.338486 53.447887 
Q 362.338486 46.033708 361.665516 42.017694 
Q 360.992546 38.00168 359.759356 38.00168 
L 357.416294 38.00168 
z
" clip-path="url(#pb42e4d46d7)" style="fill: #787800"/>
   </g>
   <g id="patch_13">
    <path d="M 380.949464 118.127891 
Q 379.584955 123.143945 378.11735 125.663425 
Q 376.649745 128.16 375.085109 128.16 
Q 371.549515 128.16 369.484558 113.226358 
Q 367.419602 98.292716 367.419602 72.754357 
Q 367.419602 46.91824 369.520945 32.09912 
Q 371.625321 17.28 375.285237 17.28 
Q 376.695229 17.28 377.986964 19.295584 
Q 379.281731 21.288263 380.427918 25.227812 
L 380.427918 47.330518 
Q 379.245344 42.268655 378.074899 39.77208 
Q 376.904454 37.252601 375.727944 37.252601 
Q 373.550794 37.252601 372.371252 46.460153 
Q 371.19171 55.644801 371.19171 72.754357 
Q 371.19171 89.703582 372.328801 98.956943 
Q 373.465892 108.187399 375.558138 108.187399 
Q 376.1282 108.187399 376.616391 107.660599 
Q 377.104582 107.110894 377.492709 105.965677 
L 377.492709 85.214328 
L 375.264011 85.214328 
L 375.264011 66.73051 
L 380.949464 66.73051 
L 380.949464 118.127891 
z
" clip-path="url(#pb42e4d46d7)" style="fill: #787800"/>
   </g>
   <g id="patch_14">
    <path d="M 381.661562 17.28 
L 385.652741 17.28 
L 388.421279 76.617197 
L 391.208066 17.28 
L 395.191424 17.28 
L 395.191424 128.16 
L 392.227368 128.16 
L 392.227368 47.055534 
L 389.42494 106.844235 
L 387.435867 106.844235 
L 384.633439 47.055534 
L 384.633439 128.16 
L 381.661562 128.16 
L 381.661562 17.28 
z
" clip-path="url(#pb42e4d46d7)" style="fill: #21599c"/>
   </g>
   <g id="patch_15">
    <path d="M 395.903522 17.28 
L 399.250718 17.28 
L 402.672603 99.121132 
L 406.088955 17.28 
L 409.433384 17.28 
L 404.653257 128.16 
L 400.683649 128.16 
L 395.903522 17.28 
z
" clip-path="url(#pb42e4d46d7)" style="fill: #21599c"/>
   </g>
   <g id="patch_16">
    <path d="M 410.145482 17.28 
L 415.055414 17.28 
L 415.055414 106.559074 
L 423.675345 106.559074 
L 423.675345 128.16 
L 410.145482 128.16 
L 410.145482 17.28 
z
" clip-path="url(#pb42e4d46d7)" style="fill: #21599c"/>
   </g>
   <g id="patch_17">
    <path d="M 433.75959 107.961114 
L 428.556222 107.961114 
L 427.734638 128.16 
L 424.387443 128.16 
L 429.16757 17.28 
L 433.137178 17.28 
L 437.917305 128.16 
L 434.572876 128.16 
L 433.75959 107.961114 
z
M 429.386106 87.382015 
L 432.921408 87.382015 
L 431.156523 43.277154 
L 429.386106 87.382015 
z
" clip-path="url(#pb42e4d46d7)" style="fill: #21599c"/>
   </g>
   <g id="patch_18">
    <path d="M 448.00155 107.961114 
L 442.798183 107.961114 
L 441.976598 128.16 
L 438.629403 128.16 
L 443.40953 17.28 
L 447.379138 17.28 
L 452.159265 128.16 
L 448.814836 128.16 
L 448.00155 107.961114 
z
M 443.628066 87.382015 
L 447.163368 87.382015 
L 445.398483 43.277154 
L 443.628066 87.382015 
z
" clip-path="url(#pb42e4d46d7)" style="fill: #21599c"/>
   </g>
   <g id="patch_19">
    <path d="M 452.871363 17.28 
L 456.862542 17.28 
L 459.63108 76.617197 
L 462.417867 17.28 
L 466.401225 17.28 
L 466.401225 128.16 
L 463.437169 128.16 
L 463.437169 47.055534 
L 460.634741 106.844235 
L 458.645668 106.844235 
L 455.84324 47.055534 
L 455.84324 128.16 
L 452.871363 128.16 
L 452.871363 17.28 
z
" clip-path="url(#pb42e4d46d7)" style="fill: #21599c"/>
   </g>
   <g id="patch_20">
    <path d="M 467.113323 17.28 
L 472.023255 17.28 
L 472.023255 106.559074 
L 480.643185 106.559074 
L 480.643185 128.16 
L 467.113323 128.16 
L 467.113323 17.28 
z
" clip-path="url(#pb42e4d46d7)" style="fill: #21599c"/>
   </g>
   <g id="patch_21">
    <path d="M 490.727431 107.961114 
L 485.524063 107.961114 
L 484.702479 128.16 
L 481.355283 128.16 
L 486.13541 17.28 
L 490.105018 17.28 
L 494.885145 128.16 
L 491.540716 128.16 
L 490.727431 107.961114 
z
M 486.353946 87.382015 
L 489.889249 87.382015 
L 488.124364 43.277154 
L 486.353946 87.382015 
z
" clip-path="url(#pb42e4d46d7)" style="fill: #21599c"/>
   </g>
   <g id="patch_22">
    <path d="M 495.597243 17.28 
L 500.507175 17.28 
L 500.507175 106.559074 
L 509.127106 106.559074 
L 509.127106 128.16 
L 495.597243 128.16 
L 495.597243 17.28 
z
" clip-path="url(#pb42e4d46d7)" style="fill: #21599c"/>
   </g>
   <g id="patch_23">
    <path d="M 523.369066 118.127891 
Q 522.004557 123.143945 520.536952 125.663425 
Q 519.069347 128.16 517.504711 128.16 
Q 513.969117 128.16 511.90416 113.226358 
Q 509.839204 98.292716 509.839204 72.754357 
Q 509.839204 46.91824 511.940547 32.09912 
Q 514.044923 17.28 517.704838 17.28 
Q 519.114831 17.28 520.406566 19.295584 
Q 521.701333 21.288263 522.84752 25.227812 
L 522.84752 47.330518 
Q 521.664946 42.268655 520.494501 39.77208 
Q 519.324056 37.252601 518.147546 37.252601 
Q 515.970396 37.252601 514.790854 46.460153 
Q 513.611312 55.644801 513.611312 72.754357 
Q 513.611312 89.703582 514.748403 98.956943 
Q 515.885493 108.187399 517.97774 108.187399 
Q 518.547802 108.187399 519.035993 107.660599 
Q 519.524183 107.110894 519.91231 105.965677 
L 519.91231 85.214328 
L 517.683613 85.214328 
L 517.683613 66.73051 
L 523.369066 66.73051 
L 523.369066 118.127891 
z
" clip-path="url(#pb42e4d46d7)" style="fill: #787800"/>
   </g>
   <g id="patch_24">
    <path d="M 533.453311 107.961114 
L 528.249944 107.961114 
L 527.428359 128.16 
L 524.081164 128.16 
L 528.861291 17.28 
L 532.830899 17.28 
L 537.611026 128.16 
L 534.266597 128.16 
L 533.453311 107.961114 
z
M 529.079827 87.382015 
L 532.615129 87.382015 
L 530.850244 43.277154 
L 529.079827 87.382015 
z
" clip-path="url(#pb42e4d46d7)" style="fill: #21599c"/>
   </g>
   <g id="patch_25">
    <path d="M 538.323124 17.28 
L 545.355834 17.28 
Q 548.495184 17.28 550.172324 26.690304 
Q 551.852986 36.076845 551.852986 53.447887 
Q 551.852986 70.913982 550.172324 80.300523 
Q 548.495184 89.687064 545.355834 89.687064 
L 542.561776 89.687064 
L 542.561776 128.16 
L 538.323124 128.16 
L 538.323124 17.28 
z
M 542.561776 38.00168 
L 542.561776 68.965384 
L 544.904838 68.965384 
Q 546.138029 68.965384 546.810999 64.925607 
Q 547.483968 60.885829 547.483968 53.447887 
Q 547.483968 46.033708 546.810999 42.017694 
Q 546.138029 38.00168 544.904838 38.00168 
L 542.561776 38.00168 
z
" clip-path="url(#pb42e4d46d7)" style="fill: #787800"/>
   </g>
   <g id="patch_26">
    <path d="M 552.565084 17.28 
L 565.813329 17.28 
L 565.813329 38.904689 
L 557.475016 38.904689 
L 557.475016 59.531316 
L 565.319479 59.531316 
L 565.319479 81.156005 
L 557.475016 81.156005 
L 557.475016 106.559074 
L 566.094946 106.559074 
L 566.094946 128.16 
L 552.565084 128.16 
L 552.565084 17.28 
z
" clip-path="url(#pb42e4d46d7)" style="fill: #6b296b"/>
   </g>
   <g id="patch_27">
    <path d="M 576.179192 107.961114 
L 570.975824 107.961114 
L 570.15424 128.16 
L 566.807044 128.16 
L 571.587172 17.28 
L 575.556779 17.28 
L 580.336907 128.16 
L 576.992477 128.16 
L 576.179192 107.961114 
z
M 571.805707 87.382015 
L 575.34101 87.382015 
L 573.576125 43.277154 
L 571.805707 87.382015 
z
" clip-path="url(#pb42e4d46d7)" style="fill: #21599c"/>
   </g>
   <g id="patch_28">
    <path d="M 581.049005 17.28 
L 584.789614 17.28 
L 587.811093 56.798526 
L 590.829731 17.28 
L 594.578867 17.28 
L 589.525065 81.441166 
L 589.525065 128.16 
L 586.105648 128.16 
L 586.105648 81.441166 
L 581.049005 17.28 
z
" clip-path="url(#pb42e4d46d7)" style="fill: #177875"/>
   </g>
   <g id="patch_29">
    <path d="M 604.663112 107.961114 
L 599.459745 107.961114 
L 598.63816 128.16 
L 595.290965 128.16 
L 600.071092 17.28 
L 604.0407 17.28 
L 608.820827 128.16 
L 605.476398 128.16 
L 604.663112 107.961114 
z
M 600.289628 87.382015 
L 603.82493 87.382015 
L 602.060045 43.277154 
L 600.289628 87.382015 
z
" clip-path="url(#pb42e4d46d7)" style="fill: #21599c"/>
   </g>
   <g id="patch_30">
    <path d="M 618.905072 107.961114 
L 613.701705 107.961114 
L 612.88012 128.16 
L 609.532925 128.16 
L 614.313052 17.28 
L 618.28266 17.28 
L 623.062787 128.16 
L 619.718358 128.16 
L 618.905072 107.961114 
z
M 614.531588 87.382015 
L 618.06689 87.382015 
L 616.302005 43.277154 
L 614.531588 87.382015 
z
" clip-path="url(#pb42e4d46d7)" style="fill: #21599c"/>
   </g>
   <g id="patch_31">
    <path d="M 636.176646 22.570907 
L 636.176646 45.200413 
Q 634.765602 41.260863 633.420699 39.268184 
Q 632.079472 37.252601 630.885228 37.252601 
Q 629.301477 37.252601 628.540836 39.978219 
Q 627.783869 42.680934 627.783869 48.407023 
Q 627.783869 52.713043 628.294638 55.118 
Q 628.805407 57.500054 630.150309 59.217881 
L 632.031702 61.57703 
Q 634.890538 65.173014 636.095805 72.479504 
Q 637.304747 79.76309 637.304747 93.230853 
Q 637.304747 110.890114 635.621782 119.525057 
Q 633.938817 128.16 630.481023 128.16 
Q 628.853177 128.16 627.210632 126.21313 
Q 625.568088 124.289163 623.925544 120.48704 
L 623.925544 97.239116 
Q 625.568088 102.667449 627.100394 105.438876 
Q 628.632701 108.187399 630.058444 108.187399 
Q 631.506235 108.187399 632.274226 105.186928 
Q 633.042216 102.163553 633.042216 96.574889 
Q 633.042216 91.581739 632.520423 88.856121 
Q 631.998631 86.130502 630.436928 83.977492 
L 628.724566 81.618343 
Q 626.152349 78.18269 624.96178 70.67006 
Q 623.774885 63.15743 623.774885 50.422607 
Q 623.774885 34.458269 625.428453 25.869134 
Q 627.082021 17.28 630.18338 17.28 
Q 631.5981 17.28 633.089986 18.608453 
Q 634.581872 19.936906 636.176646 22.570907 
z
" clip-path="url(#pb42e4d46d7)" style="fill: #40ba47"/>
   </g>
   <g id="patch_32">
    <path d="M 651.546708 118.127891 
Q 650.182199 123.143945 648.714594 125.663425 
Q 647.246989 128.16 645.682352 128.16 
Q 642.146758 128.16 640.081802 113.226358 
Q 638.016845 98.292716 638.016845 72.754357 
Q 638.016845 46.91824 640.118189 32.09912 
Q 642.222564 17.28 645.88248 17.28 
Q 647.292472 17.28 648.584207 19.295584 
Q 649.878975 21.288263 651.025162 25.227812 
L 651.025162 47.330518 
Q 649.842588 42.268655 648.672142 39.77208 
Q 647.501697 37.252601 646.325187 37.252601 
Q 644.148038 37.252601 642.968496 46.460153 
Q 641.788954 55.644801 641.788954 72.754357 
Q 641.788954 89.703582 642.926045 98.956943 
Q 644.063135 108.187399 646.155382 108.187399 
Q 646.725443 108.187399 647.213634 107.660599 
Q 647.701825 107.110894 648.089952 105.965677 
L 648.089952 85.214328 
L 645.861254 85.214328 
L 645.861254 66.73051 
L 651.546708 66.73051 
L 651.546708 118.127891 
z
" clip-path="url(#pb42e4d46d7)" style="fill: #787800"/>
   </g>
   <g id="patch_33">
    <path d="M 665.788668 118.127891 
Q 664.424159 123.143945 662.956554 125.663425 
Q 661.488949 128.16 659.924312 128.16 
Q 656.388719 128.16 654.323762 113.226358 
Q 652.258806 98.292716 652.258806 72.754357 
Q 652.258806 46.91824 654.360149 32.09912 
Q 656.464525 17.28 660.12444 17.28 
Q 661.534433 17.28 662.826168 19.295584 
Q 664.120935 21.288263 665.267122 25.227812 
L 665.267122 47.330518 
Q 664.084548 42.268655 662.914103 39.77208 
Q 661.743657 37.252601 660.567148 37.252601 
Q 658.389998 37.252601 657.210456 46.460153 
Q 656.030914 55.644801 656.030914 72.754357 
Q 656.030914 89.703582 657.168005 98.956943 
Q 658.305095 108.187399 660.397342 108.187399 
Q 660.967403 108.187399 661.455594 107.660599 
Q 661.943785 107.110894 662.331912 105.965677 
L 662.331912 85.214328 
L 660.103215 85.214328 
L 660.103215 66.73051 
L 665.788668 66.73051 
L 665.788668 118.127891 
z
" clip-path="url(#pb42e4d46d7)" style="fill: #787800"/>
   </g>
   <g id="patch_34">
    <path d="M 678.902527 22.570907 
L 678.902527 45.200413 
Q 677.491482 41.260863 676.14658 39.268184 
Q 674.805352 37.252601 673.611109 37.252601 
Q 672.027358 37.252601 671.266717 39.978219 
Q 670.50975 42.680934 670.50975 48.407023 
Q 670.50975 52.713043 671.020519 55.118 
Q 671.531288 57.500054 672.87619 59.217881 
L 674.757583 61.57703 
Q 677.616418 65.173014 678.821686 72.479504 
Q 680.030628 79.76309 680.030628 93.230853 
Q 680.030628 110.890114 678.347663 119.525057 
Q 676.664698 128.16 673.206903 128.16 
Q 671.579057 128.16 669.936513 126.21313 
Q 668.293969 124.289163 666.651424 120.48704 
L 666.651424 97.239116 
Q 668.293969 102.667449 669.826275 105.438876 
Q 671.358582 108.187399 672.784325 108.187399 
Q 674.232116 108.187399 675.000106 105.186928 
Q 675.768097 102.163553 675.768097 96.574889 
Q 675.768097 91.581739 675.246304 88.856121 
Q 674.724511 86.130502 673.162808 83.977492 
L 671.450446 81.618343 
Q 668.878229 78.18269 667.68766 70.67006 
Q 666.500766 63.15743 666.500766 50.422607 
Q 666.500766 34.458269 668.154334 25.869134 
Q 669.807902 17.28 672.909261 17.28 
Q 674.32398 17.28 675.815866 18.608453 
Q 677.307752 19.936906 678.902527 22.570907 
z
" clip-path="url(#pb42e4d46d7)" style="fill: #40ba47"/>
   </g>
   <g id="patch_35">
    <path d="M 680.742726 17.28 
L 694.272588 17.28 
L 694.272588 38.904689 
L 689.404984 38.904689 
L 689.404984 128.16 
L 685.619769 128.16 
L 685.619769 38.904689 
L 680.742726 38.904689 
L 680.742726 17.28 
z
" clip-path="url(#pb42e4d46d7)" style="fill: #40ba47"/>
   </g>
   <g id="patch_36">
    <path d="M 694.984686 17.28 
L 708.514548 17.28 
L 708.514548 38.904689 
L 703.646944 38.904689 
L 703.646944 128.16 
L 699.861729 128.16 
L 699.861729 38.904689 
L 694.984686 38.904689 
L 694.984686 17.28 
z
" clip-path="url(#pb42e4d46d7)" style="fill: #40ba47"/>
   </g>
   <g id="patch_37">
    <path d="M 722.756508 118.127891 
Q 721.392 123.143945 719.924395 125.663425 
Q 718.45679 128.16 716.892153 128.16 
Q 713.356559 128.16 711.291603 113.226358 
Q 709.226646 98.292716 709.226646 72.754357 
Q 709.226646 46.91824 711.32799 32.09912 
Q 713.432365 17.28 717.092281 17.28 
Q 718.502273 17.28 719.794008 19.295584 
Q 721.088776 21.288263 722.234963 25.227812 
L 722.234963 47.330518 
Q 721.052389 42.268655 719.881943 39.77208 
Q 718.711498 37.252601 717.534988 37.252601 
Q 715.357839 37.252601 714.178297 46.460153 
Q 712.998755 55.644801 712.998755 72.754357 
Q 712.998755 89.703582 714.135845 98.956943 
Q 715.272936 108.187399 717.365183 108.187399 
Q 717.935244 108.187399 718.423435 107.660599 
Q 718.911626 107.110894 719.299753 105.965677 
L 719.299753 85.214328 
L 717.071055 85.214328 
L 717.071055 66.73051 
L 722.756508 66.73051 
L 722.756508 118.127891 
z
" clip-path="url(#pb42e4d46d7)" style="fill: #787800"/>
   </g>
   <g id="patch_38">
    <path d="M 735.870368 22.570907 
L 735.870368 45.200413 
Q 734.459323 41.260863 733.114421 39.268184 
Q 731.773193 37.252601 730.57895 37.252601 
Q 728.995199 37.252601 728.234557 39.978219 
Q 727.477591 42.680934 727.477591 48.407023 
Q 727.477591 52.713043 727.988359 55.118 
Q 728.499128 57.500054 729.84403 59.217881 
L 731.725423 61.57703 
Q 734.584259 65.173014 735.789527 72.479504 
Q 736.998469 79.76309 736.998469 93.230853 
Q 736.998469 110.890114 735.315504 119.525057 
Q 733.632539 128.16 730.174744 128.16 
Q 728.546898 128.16 726.904354 126.21313 
Q 725.261809 124.289163 723.619265 120.48704 
L 723.619265 97.239116 
Q 725.261809 102.667449 726.794116 105.438876 
Q 728.326422 108.187399 729.752165 108.187399 
Q 731.199956 108.187399 731.967947 105.186928 
Q 732.735937 102.163553 732.735937 96.574889 
Q 732.735937 91.581739 732.214145 88.856121 
Q 731.692352 86.130502 730.130649 83.977492 
L 728.418287 81.618343 
Q 725.84607 78.18269 724.655501 70.67006 
Q 723.468606 63.15743 723.468606 50.422607 
Q 723.468606 34.458269 725.122175 25.869134 
Q 726.775743 17.28 729.877102 17.28 
Q 731.291821 17.28 732.783707 18.608453 
Q 734.275593 19.936906 735.870368 22.570907 
z
" clip-path="url(#pb42e4d46d7)" style="fill: #40ba47"/>
   </g>
   <g id="patch_39">
    <path d="M 751.240429 118.127891 
Q 749.87592 123.143945 748.408315 125.663425 
Q 746.94071 128.16 745.376073 128.16 
Q 741.84048 128.16 739.775523 113.226358 
Q 737.710567 98.292716 737.710567 72.754357 
Q 737.710567 46.91824 739.81191 32.09912 
Q 741.916286 17.28 745.576201 17.28 
Q 746.986194 17.28 748.277929 19.295584 
Q 749.572696 21.288263 750.718883 25.227812 
L 750.718883 47.330518 
Q 749.536309 42.268655 748.365864 39.77208 
Q 747.195418 37.252601 746.018909 37.252601 
Q 743.841759 37.252601 742.662217 46.460153 
Q 741.482675 55.644801 741.482675 72.754357 
Q 741.482675 89.703582 742.619766 98.956943 
Q 743.756856 108.187399 745.849103 108.187399 
Q 746.419165 108.187399 746.907355 107.660599 
Q 747.395546 107.110894 747.783673 105.965677 
L 747.783673 85.214328 
L 745.554976 85.214328 
L 745.554976 66.73051 
L 751.240429 66.73051 
L 751.240429 118.127891 
z
" clip-path="url(#pb42e4d46d7)" style="fill: #787800"/>
   </g>
   <g id="patch_40">
    <path d="M 759.078254 111.578719 
L 758.813294 111.578719 
Q 755.563309 111.578719 753.756508 99.152512 
Q 751.952527 86.706798 751.952527 64.526897 
Q 751.952527 42.38601 753.75369 29.842759 
Q 755.554853 17.28 758.717458 17.28 
Q 761.913888 17.28 763.698138 29.725714 
Q 765.482389 42.151921 765.482389 64.526897 
Q 765.482389 79.879212 764.535299 90.978916 
Q 763.588208 102.078621 761.809595 107.677241 
L 764.459193 128.16 
L 761.22612 128.16 
L 759.078254 111.578719 
z
M 758.717458 34.290443 
Q 757.167161 34.290443 756.313089 42.210443 
Q 755.459016 50.130443 755.459016 64.526897 
Q 755.459016 79.157438 756.293358 86.940887 
Q 757.130518 94.704828 758.717458 94.704828 
Q 760.276211 94.704828 761.130283 86.784828 
Q 761.984356 78.84532 761.984356 64.526897 
Q 761.984356 50.130443 761.130283 42.210443 
Q 760.276211 34.290443 758.717458 34.290443 
z
" clip-path="url(#pb42e4d46d7)" style="fill: #40ba47"/>
   </g>
   <g id="patch_41">
    <path d="M 773.320214 111.578719 
L 773.055255 111.578719 
Q 769.805269 111.578719 767.998469 99.152512 
Q 766.194487 86.706798 766.194487 64.526897 
Q 766.194487 42.38601 767.99565 29.842759 
Q 769.796813 17.28 772.959418 17.28 
Q 776.155848 17.28 777.940099 29.725714 
Q 779.724349 42.151921 779.724349 64.526897 
Q 779.724349 79.879212 778.777259 90.978916 
Q 777.830168 102.078621 776.051555 107.677241 
L 778.701153 128.16 
L 775.46808 128.16 
L 773.320214 111.578719 
z
M 772.959418 34.290443 
Q 771.409121 34.290443 770.555049 42.210443 
Q 769.700976 50.130443 769.700976 64.526897 
Q 769.700976 79.157438 770.535318 86.940887 
Q 771.372478 94.704828 772.959418 94.704828 
Q 774.518171 94.704828 775.372243 86.784828 
Q 776.226316 78.84532 776.226316 64.526897 
Q 776.226316 50.130443 775.372243 42.210443 
Q 774.518171 34.290443 772.959418 34.290443 
z
" clip-path="url(#pb42e4d46d7)" style="fill: #40ba47"/>
   </g>
   <g id="patch_42">
    <path d="M 780.436447 17.28 
L 787.469157 17.28 
Q 790.608508 17.28 792.285647 26.690304 
Q 793.966309 36.076845 793.966309 53.447887 
Q 793.966309 70.913982 792.285647 80.300523 
Q 790.608508 89.687064 787.469157 89.687064 
L 784.675099 89.687064 
L 784.675099 128.16 
L 780.436447 128.16 
L 780.436447 17.28 
z
M 784.675099 38.00168 
L 784.675099 68.965384 
L 787.018161 68.965384 
Q 788.251352 68.965384 788.924322 64.925607 
Q 789.597291 60.885829 789.597291 53.447887 
Q 789.597291 46.033708 788.924322 42.017694 
Q 788.251352 38.00168 787.018161 38.00168 
L 784.675099 38.00168 
z
" clip-path="url(#pb42e4d46d7)" style="fill: #787800"/>
   </g>
   <g id="patch_43">
    <path d="M 794.678407 17.28 
L 798.025603 17.28 
L 801.447488 99.121132 
L 804.86384 17.28 
L 808.20827 17.28 
L 803.428142 128.16 
L 799.458534 128.16 
L 794.678407 17.28 
z
" clip-path="url(#pb42e4d46d7)" style="fill: #21599c"/>
   </g>
   <g id="patch_44">
    <path d="M 818.292515 107.961114 
L 813.089147 107.961114 
L 812.267563 128.16 
L 808.920368 128.16 
L 813.700495 17.28 
L 817.670103 17.28 
L 822.45023 128.16 
L 819.1058 128.16 
L 818.292515 107.961114 
z
M 813.919031 87.382015 
L 817.454333 87.382015 
L 815.689448 43.277154 
L 813.919031 87.382015 
z
" clip-path="url(#pb42e4d46d7)" style="fill: #21599c"/>
   </g>
   <g id="patch_45">
    <path d="M 836.69219 118.127891 
Q 835.327681 123.143945 833.860076 125.663425 
Q 832.392471 128.16 830.827835 128.16 
Q 827.292241 128.16 825.227284 113.226358 
Q 823.162328 98.292716 823.162328 72.754357 
Q 823.162328 46.91824 825.263671 32.09912 
Q 827.368047 17.28 831.027963 17.28 
Q 832.437955 17.28 833.72969 19.295584 
Q 835.024457 21.288263 836.170644 25.227812 
L 836.170644 47.330518 
Q 834.98807 42.268655 833.817625 39.77208 
Q 832.64718 37.252601 831.47067 37.252601 
Q 829.29352 37.252601 828.113978 46.460153 
Q 826.934436 55.644801 826.934436 72.754357 
Q 826.934436 89.703582 828.071527 98.956943 
Q 829.208618 108.187399 831.300864 108.187399 
Q 831.870926 108.187399 832.359117 107.660599 
Q 832.847307 107.110894 833.235434 105.965677 
L 833.235434 85.214328 
L 831.006737 85.214328 
L 831.006737 66.73051 
L 836.69219 66.73051 
L 836.69219 118.127891 
z
" clip-path="url(#pb42e4d46d7)" style="fill: #787800"/>
   </g>
   <g id="patch_46">
    <path d="M 846.776435 107.961114 
L 841.573068 107.961114 
L 840.751483 128.16 
L 837.404288 128.16 
L 842.184415 17.28 
L 846.154023 17.28 
L 850.93415 128.16 
L 847.589721 128.16 
L 846.776435 107.961114 
z
M 842.402951 87.382015 
L 845.938253 87.382015 
L 844.173368 43.277154 
L 842.402951 87.382015 
z
" clip-path="url(#pb42e4d46d7)" style="fill: #21599c"/>
   </g>
   <g id="patch_47">
    <path d="M 851.646248 17.28 
L 853.98577 17.28 
L 855.621203 97.861672 
L 857.244462 17.28 
L 859.596158 17.28 
L 861.219417 97.861672 
L 862.856879 17.28 
L 865.17611 17.28 
L 862.944129 128.16 
L 860.129804 128.16 
L 858.411179 43.871239 
L 856.712845 128.16 
L 853.896491 128.16 
L 851.646248 17.28 
z
" clip-path="url(#pb42e4d46d7)" style="fill: #21599c"/>
   </g>
   <g id="patch_48">
    <path d="M 865.888208 17.28 
L 879.41807 17.28 
L 879.41807 38.904689 
L 874.550467 38.904689 
L 874.550467 128.16 
L 870.765252 128.16 
L 870.765252 38.904689 
L 865.888208 38.904689 
L 865.888208 17.28 
z
" clip-path="url(#pb42e4d46d7)" style="fill: #40ba47"/>
   </g>
   <g id="patch_49">
    <path d="M 880.130168 17.28 
L 887.162878 17.28 
Q 890.302229 17.28 891.979368 26.690304 
Q 893.660031 36.076845 893.660031 53.447887 
Q 893.660031 70.913982 891.979368 80.300523 
Q 890.302229 89.687064 887.162878 89.687064 
L 884.368821 89.687064 
L 884.368821 128.16 
L 880.130168 128.16 
L 880.130168 17.28 
z
M 884.368821 38.00168 
L 884.368821 68.965384 
L 886.711883 68.965384 
Q 887.945073 68.965384 888.618043 64.925607 
Q 889.291013 60.885829 889.291013 53.447887 
Q 889.291013 46.033708 888.618043 42.017694 
Q 887.945073 38.00168 886.711883 38.00168 
L 884.368821 38.00168 
z
" clip-path="url(#pb42e4d46d7)" style="fill: #787800"/>
   </g>
   <g id="patch_50">
    <path d="M 894.372129 17.28 
L 901.404838 17.28 
Q 904.544189 17.28 906.221328 26.690304 
Q 907.901991 36.076845 907.901991 53.447887 
Q 907.901991 70.913982 906.221328 80.300523 
Q 904.544189 89.687064 901.404838 89.687064 
L 898.610781 89.687064 
L 898.610781 128.16 
L 894.372129 128.16 
L 894.372129 17.28 
z
M 898.610781 38.00168 
L 898.610781 68.965384 
L 900.953843 68.965384 
Q 902.187033 68.965384 902.860003 64.925607 
Q 903.532973 60.885829 903.532973 53.447887 
Q 903.532973 46.033708 902.860003 42.017694 
Q 902.187033 38.00168 900.953843 38.00168 
L 898.610781 38.00168 
z
" clip-path="url(#pb42e4d46d7)" style="fill: #787800"/>
   </g>
   <g id="patch_51">
    <path d="M 915.739816 111.578719 
L 915.474856 111.578719 
Q 912.224871 111.578719 910.41807 99.152512 
Q 908.614089 86.706798 908.614089 64.526897 
Q 908.614089 42.38601 910.415252 29.842759 
Q 912.216415 17.28 915.37902 17.28 
Q 918.57545 17.28 920.3597 29.725714 
Q 922.143951 42.151921 922.143951 64.526897 
Q 922.143951 79.879212 921.196861 90.978916 
Q 920.24977 102.078621 918.471157 107.677241 
L 921.120755 128.16 
L 917.887682 128.16 
L 915.739816 111.578719 
z
M 915.37902 34.290443 
Q 913.828723 34.290443 912.974651 42.210443 
Q 912.120578 50.130443 912.120578 64.526897 
Q 912.120578 79.157438 912.95492 86.940887 
Q 913.79208 94.704828 915.37902 94.704828 
Q 916.937773 94.704828 917.791845 86.784828 
Q 918.645918 78.84532 918.645918 64.526897 
Q 918.645918 50.130443 917.791845 42.210443 
Q 916.937773 34.290443 915.37902 34.290443 
z
" clip-path="url(#pb42e4d46d7)" style="fill: #40ba47"/>
   </g>
   <g id="patch_52">
    <path d="M 936.385911 118.127891 
Q 935.021402 123.143945 933.553797 125.663425 
Q 932.086193 128.16 930.521556 128.16 
Q 926.985962 128.16 924.921006 113.226358 
Q 922.856049 98.292716 922.856049 72.754357 
Q 922.856049 46.91824 924.957392 32.09912 
Q 927.061768 17.28 930.721684 17.28 
Q 932.131676 17.28 933.423411 19.295584 
Q 934.718178 21.288263 935.864366 25.227812 
L 935.864366 47.330518 
Q 934.681791 42.268655 933.511346 39.77208 
Q 932.340901 37.252601 931.164391 37.252601 
Q 928.987242 37.252601 927.8077 46.460153 
Q 926.628158 55.644801 926.628158 72.754357 
Q 926.628158 89.703582 927.765248 98.956943 
Q 928.902339 108.187399 930.994586 108.187399 
Q 931.564647 108.187399 932.052838 107.660599 
Q 932.541029 107.110894 932.929156 105.965677 
L 932.929156 85.214328 
L 930.700458 85.214328 
L 930.700458 66.73051 
L 936.385911 66.73051 
L 936.385911 118.127891 
z
" clip-path="url(#pb42e4d46d7)" style="fill: #787800"/>
   </g>
   <g id="patch_53">
    <path d="M 937.238818 17.28 
L 950.487063 17.28 
L 950.487063 38.904689 
L 942.14875 38.904689 
L 942.14875 59.531316 
L 949.993213 59.531316 
L 949.993213 81.156005 
L 942.14875 81.156005 
L 942.14875 128.16 
L 937.238818 128.16 
L 937.238818 17.28 
z
" clip-path="url(#pb42e4d46d7)" style="fill: #21599c"/>
   </g>
   <g id="patch_54">
    <path d="M 955.649935 17.28 
L 960.559866 17.28 
L 960.559866 128.16 
L 955.649935 128.16 
L 955.649935 17.28 
z
" clip-path="url(#pb42e4d46d7)" style="fill: #21599c"/>
   </g>
   <g id="patch_55">
    <path d="M 971.07161 66.446464 
Q 972.285829 66.446464 972.812632 63.119589 
Q 973.339436 59.76895 973.339436 52.117137 
Q 973.339436 44.536614 972.812632 41.281029 
Q 972.285829 38.00168 971.07161 38.00168 
L 969.446228 38.00168 
L 969.446228 66.446464 
L 971.07161 66.446464 
z
M 969.446228 86.193845 
L 969.446228 128.16 
L 965.58193 128.16 
L 965.58193 17.28 
L 971.482774 17.28 
Q 974.444439 17.28 975.822481 24.646652 
Q 977.203734 31.989541 977.203734 47.887252 
Q 977.203734 58.865941 976.484197 65.923669 
Q 975.767873 72.981397 974.322375 76.332036 
Q 975.115793 77.662786 975.742175 82.391702 
Q 976.37177 87.096854 977.014213 96.673502 
L 979.111792 128.16 
L 974.99694 128.16 
L 973.169188 100.618225 
Q 972.616687 92.301037 972.048124 89.259323 
Q 971.482774 86.193845 970.538382 86.193845 
L 969.446228 86.193845 
z
" clip-path="url(#pb42e4d46d7)" style="fill: #bd2e1f"/>
   </g>
   <g id="patch_56">
    <path d="M 979.82389 17.28 
L 993.072135 17.28 
L 993.072135 38.904689 
L 984.733822 38.904689 
L 984.733822 59.531316 
L 992.578285 59.531316 
L 992.578285 81.156005 
L 984.733822 81.156005 
L 984.733822 106.559074 
L 993.353752 106.559074 
L 993.353752 128.16 
L 979.82389 128.16 
L 979.82389 17.28 
z
" clip-path="url(#pb42e4d46d7)" style="fill: #6b296b"/>
   </g>
   <g id="patch_57">
    <path d="M 994.06585 17.28 
L 1001.09856 17.28 
Q 1004.23791 17.28 1005.91505 26.690304 
Q 1007.595712 36.076845 1007.595712 53.447887 
Q 1007.595712 70.913982 1005.91505 80.300523 
Q 1004.23791 89.687064 1001.09856 89.687064 
L 998.304502 89.687064 
L 998.304502 128.16 
L 994.06585 128.16 
L 994.06585 17.28 
z
M 998.304502 38.00168 
L 998.304502 68.965384 
L 1000.647564 68.965384 
Q 1001.880755 68.965384 1002.553724 64.925607 
Q 1003.226694 60.885829 1003.226694 53.447887 
Q 1003.226694 46.033708 1002.553724 42.017694 
Q 1001.880755 38.00168 1000.647564 38.00168 
L 998.304502 38.00168 
z
" clip-path="url(#pb42e4d46d7)" style="fill: #787800"/>
   </g>
   <g id="patch_58">
    <path d="M 1020.709571 22.570907 
L 1020.709571 45.200413 
Q 1019.298527 41.260863 1017.953624 39.268184 
Q 1016.612397 37.252601 1015.418153 37.252601 
Q 1013.834402 37.252601 1013.073761 39.978219 
Q 1012.316794 42.680934 1012.316794 48.407023 
Q 1012.316794 52.713043 1012.827563 55.118 
Q 1013.338332 57.500054 1014.683234 59.217881 
L 1016.564627 61.57703 
Q 1019.423463 65.173014 1020.62873 72.479504 
Q 1021.837672 79.76309 1021.837672 93.230853 
Q 1021.837672 110.890114 1020.154707 119.525057 
Q 1018.471742 128.16 1015.013948 128.16 
Q 1013.386102 128.16 1011.743557 126.21313 
Q 1010.101013 124.289163 1008.458469 120.48704 
L 1008.458469 97.239116 
Q 1010.101013 102.667449 1011.633319 105.438876 
Q 1013.165626 108.187399 1014.591369 108.187399 
Q 1016.03916 108.187399 1016.80715 105.186928 
Q 1017.575141 102.163553 1017.575141 96.574889 
Q 1017.575141 91.581739 1017.053348 88.856121 
Q 1016.531556 86.130502 1014.969853 83.977492 
L 1013.257491 81.618343 
Q 1010.685274 78.18269 1009.494705 70.67006 
Q 1008.30781 63.15743 1008.30781 50.422607 
Q 1008.30781 34.458269 1009.961378 25.869134 
Q 1011.614946 17.28 1014.716305 17.28 
Q 1016.131025 17.28 1017.622911 18.608453 
Q 1019.114797 19.936906 1020.709571 22.570907 
z
" clip-path="url(#pb42e4d46d7)" style="fill: #40ba47"/>
   </g>
   <g id="patch_59">
    <path d="M 1022.690579 17.28 
L 1035.938824 17.28 
L 1035.938824 38.904689 
L 1027.600511 38.904689 
L 1027.600511 59.531316 
L 1035.444974 59.531316 
L 1035.444974 81.156005 
L 1027.600511 81.156005 
L 1027.600511 128.16 
L 1022.690579 128.16 
L 1022.690579 17.28 
z
" clip-path="url(#pb42e4d46d7)" style="fill: #21599c"/>
   </g>
   <g id="patch_60">
    <path d="M 1036.932539 17.28 
L 1050.180784 17.28 
L 1050.180784 38.904689 
L 1041.842471 38.904689 
L 1041.842471 59.531316 
L 1049.686934 59.531316 
L 1049.686934 81.156005 
L 1041.842471 81.156005 
L 1041.842471 128.16 
L 1036.932539 128.16 
L 1036.932539 17.28 
z
" clip-path="url(#pb42e4d46d7)" style="fill: #21599c"/>
   </g>
   <g id="patch_61">
    <path d="M 1064.563553 118.127891 
Q 1063.199044 123.143945 1061.731439 125.663425 
Q 1060.263834 128.16 1058.699198 128.16 
Q 1055.163604 128.16 1053.098647 113.226358 
Q 1051.033691 98.292716 1051.033691 72.754357 
Q 1051.033691 46.91824 1053.135034 32.09912 
Q 1055.23941 17.28 1058.899325 17.28 
Q 1060.309318 17.28 1061.601053 19.295584 
Q 1062.89582 21.288263 1064.042007 25.227812 
L 1064.042007 47.330518 
Q 1062.859433 42.268655 1061.688988 39.77208 
Q 1060.518542 37.252601 1059.342033 37.252601 
Q 1057.164883 37.252601 1055.985341 46.460153 
Q 1054.805799 55.644801 1054.805799 72.754357 
Q 1054.805799 89.703582 1055.94289 98.956943 
Q 1057.07998 108.187399 1059.172227 108.187399 
Q 1059.742289 108.187399 1060.23048 107.660599 
Q 1060.71867 107.110894 1061.106797 105.965677 
L 1061.106797 85.214328 
L 1058.8781 85.214328 
L 1058.8781 66.73051 
L 1064.563553 66.73051 
L 1064.563553 118.127891 
z
" clip-path="url(#pb42e4d46d7)" style="fill: #787800"/>
   </g>
   <g id="patch_62">
    <path d="M 1065.275651 17.28 
L 1068.841133 17.28 
L 1068.841133 57.749061 
L 1073.980406 17.28 
L 1078.120869 17.28 
L 1071.461154 69.797102 
L 1078.805513 128.16 
L 1074.341992 128.16 
L 1068.841133 84.48288 
L 1068.841133 128.16 
L 1065.275651 128.16 
L 1065.275651 17.28 
z
" clip-path="url(#pb42e4d46d7)" style="fill: #bd2e1f"/>
   </g>
   <g id="patch_63">
    <path d="M 1083.225225 38.904689 
L 1083.225225 106.559074 
L 1084.553555 106.559074 
Q 1086.824969 106.559074 1088.023857 97.861672 
Q 1089.225826 89.164269 1089.225826 72.601183 
Q 1089.225826 56.13315 1088.030021 47.530802 
Q 1086.837297 38.904689 1084.553555 38.904689 
L 1083.225225 38.904689 
z
M 1079.517611 17.28 
L 1083.425553 17.28 
Q 1086.70169 17.28 1088.304317 20.892036 
Q 1089.906943 24.480309 1091.053437 33.106421 
Q 1092.064324 40.615654 1092.554357 50.429936 
Q 1093.047473 60.220454 1093.047473 72.601183 
Q 1093.047473 85.172019 1092.554357 95.010064 
Q 1092.064324 104.84811 1091.053437 112.333579 
Q 1089.897697 120.959691 1088.279661 124.571727 
Q 1086.661625 128.16 1083.425553 128.16 
L 1079.517611 128.16 
L 1079.517611 17.28 
z
" clip-path="url(#pb42e4d46d7)" style="fill: #6b296b"/>
   </g>
   <g id="patch_64">
    <path d="M 1103.131719 107.961114 
L 1097.928351 107.961114 
L 1097.106767 128.16 
L 1093.759571 128.16 
L 1098.539698 17.28 
L 1102.509306 17.28 
L 1107.289433 128.16 
L 1103.945004 128.16 
L 1103.131719 107.961114 
z
M 1098.758234 87.382015 
L 1102.293537 87.382015 
L 1100.528652 43.277154 
L 1098.758234 87.382015 
z
" clip-path="url(#pb42e4d46d7)" style="fill: #21599c"/>
   </g>
   <g id="patch_65">
    <path d="M 1111.709145 38.904689 
L 1111.709145 106.559074 
L 1113.037476 106.559074 
Q 1115.30889 106.559074 1116.507777 97.861672 
Q 1117.709747 89.164269 1117.709747 72.601183 
Q 1117.709747 56.13315 1116.513941 47.530802 
Q 1115.321218 38.904689 1113.037476 38.904689 
L 1111.709145 38.904689 
z
M 1108.001531 17.28 
L 1111.909473 17.28 
Q 1115.185611 17.28 1116.788237 20.892036 
Q 1118.390863 24.480309 1119.537357 33.106421 
Q 1120.548244 40.615654 1121.038278 50.429936 
Q 1121.531394 60.220454 1121.531394 72.601183 
Q 1121.531394 85.172019 1121.038278 95.010064 
Q 1120.548244 104.84811 1119.537357 112.333579 
Q 1118.381617 120.959691 1116.763581 124.571727 
Q 1115.145545 128.16 1111.909473 128.16 
L 1108.001531 128.16 
L 1108.001531 17.28 
z
" clip-path="url(#pb42e4d46d7)" style="fill: #6b296b"/>
   </g>
   <g id="patch_66">
    <path d="M 1135.773354 120.212188 
Q 1134.641604 124.151737 1133.417815 126.144416 
Q 1132.194025 128.16 1130.861151 128.16 
Q 1126.886392 128.16 1124.564942 113.226358 
Q 1122.243492 98.292716 1122.243492 72.754357 
Q 1122.243492 47.124379 1124.564942 32.213642 
Q 1126.886392 17.28 1130.861151 17.28 
Q 1132.194025 17.28 1133.417815 19.295584 
Q 1134.641604 21.288263 1135.773354 25.227812 
L 1135.773354 47.330518 
Q 1134.631377 42.108325 1133.52349 39.680463 
Q 1132.415603 37.252601 1131.191813 37.252601 
Q 1128.996492 37.252601 1127.738613 46.712101 
Q 1126.484144 56.148697 1126.484144 72.754357 
Q 1126.484144 89.291303 1127.738613 98.750804 
Q 1128.996492 108.187399 1131.191813 108.187399 
Q 1132.415603 108.187399 1133.52349 105.759537 
Q 1134.631377 103.308771 1135.773354 98.086577 
L 1135.773354 120.212188 
z
" clip-path="url(#pb42e4d46d7)" style="fill: #6b296b"/>
   </g>
   <g id="patch_67">
    <path d="M 1136.485452 17.28 
L 1149.733697 17.28 
L 1149.733697 38.904689 
L 1141.395384 38.904689 
L 1141.395384 59.531316 
L 1149.239847 59.531316 
L 1149.239847 81.156005 
L 1141.395384 81.156005 
L 1141.395384 106.559074 
L 1150.015314 106.559074 
L 1150.015314 128.16 
L 1136.485452 128.16 
L 1136.485452 17.28 
z
" clip-path="url(#pb42e4d46d7)" style="fill: #6b296b"/>
   </g>
   <g id="patch_68">
    <path d="M 1150.727412 17.28 
L 1154.292894 17.28 
L 1154.292894 57.749061 
L 1159.432167 17.28 
L 1163.57263 17.28 
L 1156.912915 69.797102 
L 1164.257274 128.16 
L 1159.793753 128.16 
L 1154.292894 84.48288 
L 1154.292894 128.16 
L 1150.727412 128.16 
L 1150.727412 17.28 
z
" clip-path="url(#pb42e4d46d7)" style="fill: #bd2e1f"/>
   </g>
   <g id="patch_69">
    <path d="M 1164.969372 17.28 
L 1168.316568 17.28 
L 1171.738453 99.121132 
L 1175.154805 17.28 
L 1178.499234 17.28 
L 1173.719107 128.16 
L 1169.749499 128.16 
L 1164.969372 17.28 
z
" clip-path="url(#pb42e4d46d7)" style="fill: #21599c"/>
   </g>
   <g id="patch_70">
    <path d="M 1192.741194 118.127891 
Q 1191.376686 123.143945 1189.909081 125.663425 
Q 1188.441476 128.16 1186.876839 128.16 
Q 1183.341245 128.16 1181.276289 113.226358 
Q 1179.211332 98.292716 1179.211332 72.754357 
Q 1179.211332 46.91824 1181.312676 32.09912 
Q 1183.417051 17.28 1187.076967 17.28 
Q 1188.486959 17.28 1189.778694 19.295584 
Q 1191.073462 21.288263 1192.219649 25.227812 
L 1192.219649 47.330518 
Q 1191.037075 42.268655 1189.866629 39.77208 
Q 1188.696184 37.252601 1187.519674 37.252601 
Q 1185.342525 37.252601 1184.162983 46.460153 
Q 1182.983441 55.644801 1182.983441 72.754357 
Q 1182.983441 89.703582 1184.120532 98.956943 
Q 1185.257622 108.187399 1187.349869 108.187399 
Q 1187.91993 108.187399 1188.408121 107.660599 
Q 1188.896312 107.110894 1189.284439 105.965677 
L 1189.284439 85.214328 
L 1187.055741 85.214328 
L 1187.055741 66.73051 
L 1192.741194 66.73051 
L 1192.741194 118.127891 
z
" clip-path="url(#pb42e4d46d7)" style="fill: #787800"/>
   </g>
   <g id="patch_71">
    <path d="M 1198.942973 66.446464 
Q 1200.157191 66.446464 1200.683995 63.119589 
Q 1201.210799 59.76895 1201.210799 52.117137 
Q 1201.210799 44.536614 1200.683995 41.281029 
Q 1200.157191 38.00168 1198.942973 38.00168 
L 1197.317591 38.00168 
L 1197.317591 66.446464 
L 1198.942973 66.446464 
z
M 1197.317591 86.193845 
L 1197.317591 128.16 
L 1193.453292 128.16 
L 1193.453292 17.28 
L 1199.354137 17.28 
Q 1202.315802 17.28 1203.693843 24.646652 
Q 1205.075097 31.989541 1205.075097 47.887252 
Q 1205.075097 58.865941 1204.35556 65.923669 
Q 1203.639236 72.981397 1202.193738 76.332036 
Q 1202.987155 77.662786 1203.613538 82.391702 
Q 1204.243133 87.096854 1204.885576 96.673502 
L 1206.983155 128.16 
L 1202.868303 128.16 
L 1201.040551 100.618225 
Q 1200.48805 92.301037 1199.919487 89.259323 
Q 1199.354137 86.193845 1198.409745 86.193845 
L 1197.317591 86.193845 
z
" clip-path="url(#pb42e4d46d7)" style="fill: #bd2e1f"/>
   </g>
   <g id="patch_72">
    <path d="M 1207.695253 17.28 
L 1212.041248 17.28 
L 1217.532799 93.322863 
L 1217.532799 17.28 
L 1221.225115 17.28 
L 1221.225115 128.16 
L 1216.875884 128.16 
L 1211.384333 52.117137 
L 1211.384333 128.16 
L 1207.695253 128.16 
L 1207.695253 17.28 
z
" clip-path="url(#pb42e4d46d7)" style="fill: #40ba47"/>
   </g>
   <g id="patch_73">
    <path d="M 1235.467075 118.127891 
Q 1234.102566 123.143945 1232.634961 125.663425 
Q 1231.167356 128.16 1229.60272 128.16 
Q 1226.067126 128.16 1224.002169 113.226358 
Q 1221.937213 98.292716 1221.937213 72.754357 
Q 1221.937213 46.91824 1224.038556 32.09912 
Q 1226.142932 17.28 1229.802848 17.28 
Q 1231.21284 17.28 1232.504575 19.295584 
Q 1233.799342 21.288263 1234.945529 25.227812 
L 1234.945529 47.330518 
Q 1233.762955 42.268655 1232.59251 39.77208 
Q 1231.422065 37.252601 1230.245555 37.252601 
Q 1228.068405 37.252601 1226.888863 46.460153 
Q 1225.709321 55.644801 1225.709321 72.754357 
Q 1225.709321 89.703582 1226.846412 98.956943 
Q 1227.983503 108.187399 1230.075749 108.187399 
Q 1230.645811 108.187399 1231.134002 107.660599 
Q 1231.622193 107.110894 1232.01032 105.965677 
L 1232.01032 85.214328 
L 1229.781622 85.214328 
L 1229.781622 66.73051 
L 1235.467075 66.73051 
L 1235.467075 118.127891 
z
" clip-path="url(#pb42e4d46d7)" style="fill: #787800"/>
   </g>
   <g id="patch_74">
    <path d="M 1240.489138 17.28 
L 1245.39907 17.28 
L 1245.39907 128.16 
L 1240.489138 128.16 
L 1240.489138 17.28 
z
" clip-path="url(#pb42e4d46d7)" style="fill: #21599c"/>
   </g>
   <g id="patch_75">
    <path d="M 1259.793281 107.961114 
L 1254.589913 107.961114 
L 1253.768329 128.16 
L 1250.421133 128.16 
L 1255.20126 17.28 
L 1259.170868 17.28 
L 1263.950995 128.16 
L 1260.606566 128.16 
L 1259.793281 107.961114 
z
M 1255.419796 87.382015 
L 1258.955099 87.382015 
L 1257.190214 43.277154 
L 1255.419796 87.382015 
z
" clip-path="url(#pb42e4d46d7)" style="fill: #21599c"/>
   </g>
   <g id="patch_76">
    <path d="M 1264.663093 17.28 
L 1277.911339 17.28 
L 1277.911339 38.904689 
L 1269.573025 38.904689 
L 1269.573025 59.531316 
L 1277.417488 59.531316 
L 1277.417488 81.156005 
L 1269.573025 81.156005 
L 1269.573025 106.559074 
L 1278.192956 106.559074 
L 1278.192956 128.16 
L 1264.663093 128.16 
L 1264.663093 17.28 
z
" clip-path="url(#pb42e4d46d7)" style="fill: #6b296b"/>
   </g>
   <g id="patch_77">
    <path d="M 1292.434916 118.127891 
Q 1291.070407 123.143945 1289.602802 125.663425 
Q 1288.135197 128.16 1286.57056 128.16 
Q 1283.034967 128.16 1280.97001 113.226358 
Q 1278.905054 98.292716 1278.905054 72.754357 
Q 1278.905054 46.91824 1281.006397 32.09912 
Q 1283.110773 17.28 1286.770688 17.28 
Q 1288.180681 17.28 1289.472416 19.295584 
Q 1290.767183 21.288263 1291.91337 25.227812 
L 1291.91337 47.330518 
Q 1290.730796 42.268655 1289.560351 39.77208 
Q 1288.389905 37.252601 1287.213396 37.252601 
Q 1285.036246 37.252601 1283.856704 46.460153 
Q 1282.677162 55.644801 1282.677162 72.754357 
Q 1282.677162 89.703582 1283.814253 98.956943 
Q 1284.951343 108.187399 1287.04359 108.187399 
Q 1287.613652 108.187399 1288.101842 107.660599 
Q 1288.590033 107.110894 1288.97816 105.965677 
L 1288.97816 85.214328 
L 1286.749463 85.214328 
L 1286.749463 66.73051 
L 1292.434916 66.73051 
L 1292.434916 118.127891 
z
" clip-path="url(#pb42e4d46d7)" style="fill: #787800"/>
   </g>
   <g id="patch_78">
    <path d="M 1298.636694 66.446464 
Q 1299.850913 66.446464 1300.377716 63.119589 
Q 1300.90452 59.76895 1300.90452 52.117137 
Q 1300.90452 44.536614 1300.377716 41.281029 
Q 1299.850913 38.00168 1298.636694 38.00168 
L 1297.011312 38.00168 
L 1297.011312 66.446464 
L 1298.636694 66.446464 
z
M 1297.011312 86.193845 
L 1297.011312 128.16 
L 1293.147014 128.16 
L 1293.147014 17.28 
L 1299.047858 17.28 
Q 1302.009523 17.28 1303.387565 24.646652 
Q 1304.768818 31.989541 1304.768818 47.887252 
Q 1304.768818 58.865941 1304.049282 65.923669 
Q 1303.332957 72.981397 1301.887459 76.332036 
Q 1302.680877 77.662786 1303.307259 82.391702 
Q 1303.936854 87.096854 1304.579298 96.673502 
L 1306.676876 128.16 
L 1302.562025 128.16 
L 1300.734273 100.618225 
Q 1300.181771 92.301037 1299.613209 89.259323 
Q 1299.047858 86.193845 1298.103466 86.193845 
L 1297.011312 86.193845 
z
" clip-path="url(#pb42e4d46d7)" style="fill: #bd2e1f"/>
   </g>
   <g id="patch_79">
    <path d="M 1307.388974 17.28 
L 1309.728496 17.28 
L 1311.363929 97.861672 
L 1312.987188 17.28 
L 1315.338884 17.28 
L 1316.962143 97.861672 
L 1318.599605 17.28 
L 1320.918836 17.28 
L 1318.686855 128.16 
L 1315.87253 128.16 
L 1314.153905 43.871239 
L 1312.455571 128.16 
L 1309.639216 128.16 
L 1307.388974 17.28 
z
" clip-path="url(#pb42e4d46d7)" style="fill: #21599c"/>
   </g>
   <g id="patch_80">
    <path d="M 1334.032695 22.570907 
L 1334.032695 45.200413 
Q 1332.621651 41.260863 1331.276748 39.268184 
Q 1329.935521 37.252601 1328.741277 37.252601 
Q 1327.157526 37.252601 1326.396885 39.978219 
Q 1325.639918 42.680934 1325.639918 48.407023 
Q 1325.639918 52.713043 1326.150687 55.118 
Q 1326.661456 57.500054 1328.006358 59.217881 
L 1329.887751 61.57703 
Q 1332.746587 65.173014 1333.951854 72.479504 
Q 1335.160796 79.76309 1335.160796 93.230853 
Q 1335.160796 110.890114 1333.477831 119.525057 
Q 1331.794866 128.16 1328.337072 128.16 
Q 1326.709226 128.16 1325.066681 126.21313 
Q 1323.424137 124.289163 1321.781593 120.48704 
L 1321.781593 97.239116 
Q 1323.424137 102.667449 1324.956443 105.438876 
Q 1326.48875 108.187399 1327.914493 108.187399 
Q 1329.362284 108.187399 1330.130275 105.186928 
Q 1330.898265 102.163553 1330.898265 96.574889 
Q 1330.898265 91.581739 1330.376472 88.856121 
Q 1329.85468 86.130502 1328.292977 83.977492 
L 1326.580615 81.618343 
Q 1324.008398 78.18269 1322.817829 70.67006 
Q 1321.630934 63.15743 1321.630934 50.422607 
Q 1321.630934 34.458269 1323.284502 25.869134 
Q 1324.93807 17.28 1328.039429 17.28 
Q 1329.454149 17.28 1330.946035 18.608453 
Q 1332.437921 19.936906 1334.032695 22.570907 
z
" clip-path="url(#pb42e4d46d7)" style="fill: #40ba47"/>
   </g>
   <g id="patch_81">
    <path d="M 1345.245042 107.961114 
L 1340.041674 107.961114 
L 1339.22009 128.16 
L 1335.872894 128.16 
L 1340.653021 17.28 
L 1344.622629 17.28 
L 1349.402757 128.16 
L 1346.058327 128.16 
L 1345.245042 107.961114 
z
M 1340.871557 87.382015 
L 1344.40686 87.382015 
L 1342.641975 43.277154 
L 1340.871557 87.382015 
z
" clip-path="url(#pb42e4d46d7)" style="fill: #21599c"/>
   </g>
   <g id="patch_82">
    <path d="M 1350.114855 17.28 
L 1353.855463 17.28 
L 1356.876943 56.798526 
L 1359.895581 17.28 
L 1363.644717 17.28 
L 1358.590915 81.441166 
L 1358.590915 128.16 
L 1355.171498 128.16 
L 1355.171498 81.441166 
L 1350.114855 17.28 
z
" clip-path="url(#pb42e4d46d7)" style="fill: #177875"/>
   </g>
   <g id="patch_83">
    <path d="M 1364.356815 17.28 
L 1367.70401 17.28 
L 1371.125895 99.121132 
L 1374.542248 17.28 
L 1377.886677 17.28 
L 1373.10655 128.16 
L 1369.136942 128.16 
L 1364.356815 17.28 
z
" clip-path="url(#pb42e4d46d7)" style="fill: #21599c"/>
   </g>
   <g id="patch_84">
    <path d="M 1392.128637 120.212188 
Q 1390.996887 124.151737 1389.773098 126.144416 
Q 1388.549308 128.16 1387.216435 128.16 
Q 1383.241675 128.16 1380.920225 113.226358 
Q 1378.598775 98.292716 1378.598775 72.754357 
Q 1378.598775 47.124379 1380.920225 32.213642 
Q 1383.241675 17.28 1387.216435 17.28 
Q 1388.549308 17.28 1389.773098 19.295584 
Q 1390.996887 21.288263 1392.128637 25.227812 
L 1392.128637 47.330518 
Q 1390.986661 42.108325 1389.878773 39.680463 
Q 1388.770886 37.252601 1387.547096 37.252601 
Q 1385.351775 37.252601 1384.093897 46.712101 
Q 1382.839427 56.148697 1382.839427 72.754357 
Q 1382.839427 89.291303 1384.093897 98.750804 
Q 1385.351775 108.187399 1387.547096 108.187399 
Q 1388.770886 108.187399 1389.878773 105.759537 
Q 1390.986661 103.308771 1392.128637 98.086577 
L 1392.128637 120.212188 
z
" clip-path="url(#pb42e4d46d7)" style="fill: #6b296b"/>
   </g>
   <g id="patch_85">
    <path d="M 1392.840735 17.28 
L 1396.187931 17.28 
L 1399.609816 99.121132 
L 1403.026168 17.28 
L 1406.370597 17.28 
L 1401.59047 128.16 
L 1397.620862 128.16 
L 1392.840735 17.28 
z
" clip-path="url(#pb42e4d46d7)" style="fill: #21599c"/>
   </g>
   <g id="patch_86">
    <path d="M 1412.572376 66.446464 
Q 1413.786594 66.446464 1414.313398 63.119589 
Q 1414.840202 59.76895 1414.840202 52.117137 
Q 1414.840202 44.536614 1414.313398 41.281029 
Q 1413.786594 38.00168 1412.572376 38.00168 
L 1410.946993 38.00168 
L 1410.946993 66.446464 
L 1412.572376 66.446464 
z
M 1410.946993 86.193845 
L 1410.946993 128.16 
L 1407.082695 128.16 
L 1407.082695 17.28 
L 1412.98354 17.28 
Q 1415.945205 17.28 1417.323246 24.646652 
Q 1418.7045 31.989541 1418.7045 47.887252 
Q 1418.7045 58.865941 1417.984963 65.923669 
Q 1417.268638 72.981397 1415.82314 76.332036 
Q 1416.616558 77.662786 1417.242941 82.391702 
Q 1417.872535 87.096854 1418.514979 96.673502 
L 1420.612557 128.16 
L 1416.497706 128.16 
L 1414.669954 100.618225 
Q 1414.117453 92.301037 1413.54889 89.259323 
Q 1412.98354 86.193845 1412.039148 86.193845 
L 1410.946993 86.193845 
z
" clip-path="url(#pb42e4d46d7)" style="fill: #bd2e1f"/>
   </g>
   <g id="patch_87">
    <path d="M 1421.324655 17.28 
L 1424.671851 17.28 
L 1428.093736 99.121132 
L 1431.510088 17.28 
L 1434.854518 17.28 
L 1430.07439 128.16 
L 1426.104783 128.16 
L 1421.324655 17.28 
z
" clip-path="url(#pb42e4d46d7)" style="fill: #21599c"/>
   </g>
   <g id="patch_88">
    <path d="M 1435.566616 17.28 
L 1440.476548 17.28 
L 1440.476548 106.559074 
L 1449.096478 106.559074 
L 1449.096478 128.16 
L 1435.566616 128.16 
L 1435.566616 17.28 
z
" clip-path="url(#pb42e4d46d7)" style="fill: #21599c"/>
   </g>
   <g id="patch_89">
    <path d="M 1449.808576 17.28 
L 1456.841285 17.28 
Q 1459.980636 17.28 1461.657775 26.690304 
Q 1463.338438 36.076845 1463.338438 53.447887 
Q 1463.338438 70.913982 1461.657775 80.300523 
Q 1459.980636 89.687064 1456.841285 89.687064 
L 1454.047228 89.687064 
L 1454.047228 128.16 
L 1449.808576 128.16 
L 1449.808576 17.28 
z
M 1454.047228 38.00168 
L 1454.047228 68.965384 
L 1456.39029 68.965384 
Q 1457.623481 68.965384 1458.29645 64.925607 
Q 1458.96942 60.885829 1458.96942 53.447887 
Q 1458.96942 46.033708 1458.29645 42.017694 
Q 1457.623481 38.00168 1456.39029 38.00168 
L 1454.047228 38.00168 
z
" clip-path="url(#pb42e4d46d7)" style="fill: #787800"/>
   </g>
   <g id="patch_90">
    <path d="M 1464.191345 17.28 
L 1477.43959 17.28 
L 1477.43959 38.904689 
L 1469.101276 38.904689 
L 1469.101276 59.531316 
L 1476.945739 59.531316 
L 1476.945739 81.156005 
L 1469.101276 81.156005 
L 1469.101276 128.16 
L 1464.191345 128.16 
L 1464.191345 17.28 
z
" clip-path="url(#pb42e4d46d7)" style="fill: #21599c"/>
   </g>
   <g id="patch_91">
    <path d="M 1490.694257 22.570907 
L 1490.694257 45.200413 
Q 1489.283213 41.260863 1487.93831 39.268184 
Q 1486.597083 37.252601 1485.402839 37.252601 
Q 1483.819088 37.252601 1483.058447 39.978219 
Q 1482.30148 42.680934 1482.30148 48.407023 
Q 1482.30148 52.713043 1482.812249 55.118 
Q 1483.323018 57.500054 1484.66792 59.217881 
L 1486.549313 61.57703 
Q 1489.408149 65.173014 1490.613416 72.479504 
Q 1491.822358 79.76309 1491.822358 93.230853 
Q 1491.822358 110.890114 1490.139393 119.525057 
Q 1488.456428 128.16 1484.998634 128.16 
Q 1483.370788 128.16 1481.728243 126.21313 
Q 1480.085699 124.289163 1478.443155 120.48704 
L 1478.443155 97.239116 
Q 1480.085699 102.667449 1481.618005 105.438876 
Q 1483.150312 108.187399 1484.576055 108.187399 
Q 1486.023846 108.187399 1486.791837 105.186928 
Q 1487.559827 102.163553 1487.559827 96.574889 
Q 1487.559827 91.581739 1487.038034 88.856121 
Q 1486.516242 86.130502 1484.954539 83.977492 
L 1483.242177 81.618343 
Q 1480.66996 78.18269 1479.479391 70.67006 
Q 1478.292496 63.15743 1478.292496 50.422607 
Q 1478.292496 34.458269 1479.946064 25.869134 
Q 1481.599632 17.28 1484.700991 17.28 
Q 1486.115711 17.28 1487.607597 18.608453 
Q 1489.099483 19.936906 1490.694257 22.570907 
z
" clip-path="url(#pb42e4d46d7)" style="fill: #40ba47"/>
   </g>
   <g id="patch_92">
    <path d="M 1492.534456 17.28 
L 1499.567166 17.28 
Q 1502.706517 17.28 1504.383656 26.690304 
Q 1506.064319 36.076845 1506.064319 53.447887 
Q 1506.064319 70.913982 1504.383656 80.300523 
Q 1502.706517 89.687064 1499.567166 89.687064 
L 1496.773108 89.687064 
L 1496.773108 128.16 
L 1492.534456 128.16 
L 1492.534456 17.28 
z
M 1496.773108 38.00168 
L 1496.773108 68.965384 
L 1499.116171 68.965384 
Q 1500.349361 68.965384 1501.022331 64.925607 
Q 1501.695301 60.885829 1501.695301 53.447887 
Q 1501.695301 46.033708 1501.022331 42.017694 
Q 1500.349361 38.00168 1499.116171 38.00168 
L 1496.773108 38.00168 
z
" clip-path="url(#pb42e4d46d7)" style="fill: #787800"/>
   </g>
   <g id="patch_93">
    <path d="M 1506.917225 17.28 
L 1520.16547 17.28 
L 1520.16547 38.904689 
L 1511.827157 38.904689 
L 1511.827157 59.531316 
L 1519.67162 59.531316 
L 1519.67162 81.156005 
L 1511.827157 81.156005 
L 1511.827157 128.16 
L 1506.917225 128.16 
L 1506.917225 17.28 
z
" clip-path="url(#pb42e4d46d7)" style="fill: #21599c"/>
   </g>
   <g id="patch_94">
    <path d="M 1521.018377 17.28 
L 1524.365572 17.28 
L 1527.787457 99.121132 
L 1531.20381 17.28 
L 1534.548239 17.28 
L 1529.768112 128.16 
L 1525.798504 128.16 
L 1521.018377 17.28 
z
" clip-path="url(#pb42e4d46d7)" style="fill: #21599c"/>
   </g>
   <g id="patch_95">
    <path d="M 1538.967951 38.904689 
L 1538.967951 106.559074 
L 1540.296281 106.559074 
Q 1542.567695 106.559074 1543.766583 97.861672 
Q 1544.968552 89.164269 1544.968552 72.601183 
Q 1544.968552 56.13315 1543.772747 47.530802 
Q 1542.580023 38.904689 1540.296281 38.904689 
L 1538.967951 38.904689 
z
M 1535.260337 17.28 
L 1539.168279 17.28 
Q 1542.444416 17.28 1544.047042 20.892036 
Q 1545.649668 24.480309 1546.796162 33.106421 
Q 1547.80705 40.615654 1548.297083 50.429936 
Q 1548.790199 60.220454 1548.790199 72.601183 
Q 1548.790199 85.172019 1548.297083 95.010064 
Q 1547.80705 104.84811 1546.796162 112.333579 
Q 1545.640423 120.959691 1544.022387 124.571727 
Q 1542.404351 128.16 1539.168279 128.16 
L 1535.260337 128.16 
L 1535.260337 17.28 
z
" clip-path="url(#pb42e4d46d7)" style="fill: #6b296b"/>
   </g>
   <g id="patch_96">
    <path d="M 1549.502297 17.28 
L 1554.412229 17.28 
L 1554.412229 106.559074 
L 1563.032159 106.559074 
L 1563.032159 128.16 
L 1549.502297 128.16 
L 1549.502297 17.28 
z
" clip-path="url(#pb42e4d46d7)" style="fill: #21599c"/>
   </g>
   <g id="patch_97">
    <path d="M 1563.744257 17.28 
L 1567.484866 17.28 
L 1570.506346 56.798526 
L 1573.524983 17.28 
L 1577.274119 17.28 
L 1572.220318 81.441166 
L 1572.220318 128.16 
L 1568.800901 128.16 
L 1568.800901 81.441166 
L 1563.744257 17.28 
z
" clip-path="url(#pb42e4d46d7)" style="fill: #177875"/>
   </g>
   <g id="patch_98">
    <path d="M 1577.986217 17.28 
L 1581.333413 17.28 
L 1584.755298 99.121132 
L 1588.17165 17.28 
L 1591.51608 17.28 
L 1586.735952 128.16 
L 1582.766345 128.16 
L 1577.986217 17.28 
z
" clip-path="url(#pb42e4d46d7)" style="fill: #21599c"/>
   </g>
   <g id="patch_99">
    <path d="M 1592.228178 17.28 
L 1595.793659 17.28 
L 1595.793659 57.749061 
L 1600.932932 17.28 
L 1605.073396 17.28 
L 1598.413681 69.797102 
L 1605.75804 128.16 
L 1601.294519 128.16 
L 1595.793659 84.48288 
L 1595.793659 128.16 
L 1592.228178 128.16 
L 1592.228178 17.28 
z
" clip-path="url(#pb42e4d46d7)" style="fill: #bd2e1f"/>
   </g>
   <g id="patch_100">
    <path d="M 1606.470138 17.28 
L 1610.03562 17.28 
L 1610.03562 57.749061 
L 1615.174893 17.28 
L 1619.315356 17.28 
L 1612.655641 69.797102 
L 1620 128.16 
L 1615.536479 128.16 
L 1610.03562 84.48288 
L 1610.03562 128.16 
L 1606.470138 128.16 
L 1606.470138 17.28 
z
" clip-path="url(#pb42e4d46d7)" style="fill: #bd2e1f"/>
   </g>
   <g id="matplotlib.axis_1">
    <g id="xtick_1">
     <g id="line2d_2">
      <defs>
       <path id="mac9582e41a" d="M 0 0 
L 0 3.5 
" style="stroke: #000000; stroke-width: 0.8"/>
      </defs>
      <g>
       <use xlink:href="#mac9582e41a" x="231.764931" y="128.16" style="stroke: #000000; stroke-width: 0.8"/>
      </g>
     </g>
     <g id="text_1">
      <!-- 0 -->
      <g transform="translate(228.583681 142.758438) scale(0.1 -0.1)">
       <defs>
        <path id="DejaVuSans-30" d="M 2034 4250 
Q 1547 4250 1301 3770 
Q 1056 3291 1056 2328 
Q 1056 1369 1301 889 
Q 1547 409 2034 409 
Q 2525 409 2770 889 
Q 3016 1369 3016 2328 
Q 3016 3291 2770 3770 
Q 2525 4250 2034 4250 
z
M 2034 4750 
Q 2819 4750 3233 4129 
Q 3647 3509 3647 2328 
Q 3647 1150 3233 529 
Q 2819 -91 2034 -91 
Q 1250 -91 836 529 
Q 422 1150 422 2328 
Q 422 3509 836 4129 
Q 1250 4750 2034 4750 
z
" transform="scale(0.015625)"/>
       </defs>
       <use xlink:href="#DejaVuSans-30"/>
      </g>
     </g>
    </g>
    <g id="xtick_2">
     <g id="line2d_3">
      <g>
       <use xlink:href="#mac9582e41a" x="516.604135" y="128.16" style="stroke: #000000; stroke-width: 0.8"/>
      </g>
     </g>
     <g id="text_2">
      <!-- 20 -->
      <g transform="translate(510.241635 142.758438) scale(0.1 -0.1)">
       <defs>
        <path id="DejaVuSans-32" d="M 1228 531 
L 3431 531 
L 3431 0 
L 469 0 
L 469 531 
Q 828 903 1448 1529 
Q 2069 2156 2228 2338 
Q 2531 2678 2651 2914 
Q 2772 3150 2772 3378 
Q 2772 3750 2511 3984 
Q 2250 4219 1831 4219 
Q 1534 4219 1204 4116 
Q 875 4013 500 3803 
L 500 4441 
Q 881 4594 1212 4672 
Q 1544 4750 1819 4750 
Q 2544 4750 2975 4387 
Q 3406 4025 3406 3419 
Q 3406 3131 3298 2873 
Q 3191 2616 2906 2266 
Q 2828 2175 2409 1742 
Q 1991 1309 1228 531 
z
" transform="scale(0.015625)"/>
       </defs>
       <use xlink:href="#DejaVuSans-32"/>
       <use xlink:href="#DejaVuSans-30" x="63.623047"/>
      </g>
     </g>
    </g>
    <g id="xtick_3">
     <g id="line2d_4">
      <g>
       <use xlink:href="#mac9582e41a" x="801.443338" y="128.16" style="stroke: #000000; stroke-width: 0.8"/>
      </g>
     </g>
     <g id="text_3">
      <!-- 40 -->
      <g transform="translate(795.080838 142.758438) scale(0.1 -0.1)">
       <defs>
        <path id="DejaVuSans-34" d="M 2419 4116 
L 825 1625 
L 2419 1625 
L 2419 4116 
z
M 2253 4666 
L 3047 4666 
L 3047 1625 
L 3713 1625 
L 3713 1100 
L 3047 1100 
L 3047 0 
L 2419 0 
L 2419 1100 
L 313 1100 
L 313 1709 
L 2253 4666 
z
" transform="scale(0.015625)"/>
       </defs>
       <use xlink:href="#DejaVuSans-34"/>
       <use xlink:href="#DejaVuSans-30" x="63.623047"/>
      </g>
     </g>
    </g>
    <g id="xtick_4">
     <g id="line2d_5">
      <g>
       <use xlink:href="#mac9582e41a" x="1086.282542" y="128.16" style="stroke: #000000; stroke-width: 0.8"/>
      </g>
     </g>
     <g id="text_4">
      <!-- 60 -->
      <g transform="translate(1079.920042 142.758438) scale(0.1 -0.1)">
       <defs>
        <path id="DejaVuSans-36" d="M 2113 2584 
Q 1688 2584 1439 2293 
Q 1191 2003 1191 1497 
Q 1191 994 1439 701 
Q 1688 409 2113 409 
Q 2538 409 2786 701 
Q 3034 994 3034 1497 
Q 3034 2003 2786 2293 
Q 2538 2584 2113 2584 
z
M 3366 4563 
L 3366 3988 
Q 3128 4100 2886 4159 
Q 2644 4219 2406 4219 
Q 1781 4219 1451 3797 
Q 1122 3375 1075 2522 
Q 1259 2794 1537 2939 
Q 1816 3084 2150 3084 
Q 2853 3084 3261 2657 
Q 3669 2231 3669 1497 
Q 3669 778 3244 343 
Q 2819 -91 2113 -91 
Q 1303 -91 875 529 
Q 447 1150 447 2328 
Q 447 3434 972 4092 
Q 1497 4750 2381 4750 
Q 2619 4750 2861 4703 
Q 3103 4656 3366 4563 
z
" transform="scale(0.015625)"/>
       </defs>
       <use xlink:href="#DejaVuSans-36"/>
       <use xlink:href="#DejaVuSans-30" x="63.623047"/>
      </g>
     </g>
    </g>
    <g id="xtick_5">
     <g id="line2d_6">
      <g>
       <use xlink:href="#mac9582e41a" x="1371.121746" y="128.16" style="stroke: #000000; stroke-width: 0.8"/>
      </g>
     </g>
     <g id="text_5">
      <!-- 80 -->
      <g transform="translate(1364.759246 142.758438) scale(0.1 -0.1)">
       <defs>
        <path id="DejaVuSans-38" d="M 2034 2216 
Q 1584 2216 1326 1975 
Q 1069 1734 1069 1313 
Q 1069 891 1326 650 
Q 1584 409 2034 409 
Q 2484 409 2743 651 
Q 3003 894 3003 1313 
Q 3003 1734 2745 1975 
Q 2488 2216 2034 2216 
z
M 1403 2484 
Q 997 2584 770 2862 
Q 544 3141 544 3541 
Q 544 4100 942 4425 
Q 1341 4750 2034 4750 
Q 2731 4750 3128 4425 
Q 3525 4100 3525 3541 
Q 3525 3141 3298 2862 
Q 3072 2584 2669 2484 
Q 3125 2378 3379 2068 
Q 3634 1759 3634 1313 
Q 3634 634 3220 271 
Q 2806 -91 2034 -91 
Q 1263 -91 848 271 
Q 434 634 434 1313 
Q 434 1759 690 2068 
Q 947 2378 1403 2484 
z
M 1172 3481 
Q 1172 3119 1398 2916 
Q 1625 2713 2034 2713 
Q 2441 2713 2670 2916 
Q 2900 3119 2900 3481 
Q 2900 3844 2670 4047 
Q 2441 4250 2034 4250 
Q 1625 4250 1398 4047 
Q 1172 3844 1172 3481 
z
" transform="scale(0.015625)"/>
       </defs>
       <use xlink:href="#DejaVuSans-38"/>
       <use xlink:href="#DejaVuSans-30" x="63.623047"/>
      </g>
     </g>
    </g>
   </g>
   <g id="matplotlib.axis_2">
    <g id="ytick_1">
     <g id="line2d_7">
      <defs>
       <path id="mb7ce72c6b3" d="M 0 0 
L -3.5 0 
" style="stroke: #000000; stroke-width: 0.8"/>
      </defs>
      <g>
       <use xlink:href="#mb7ce72c6b3" x="225" y="128.16" style="stroke: #000000; stroke-width: 0.8"/>
      </g>
     </g>
     <g id="text_6">
      <!-- 0.0 -->
      <g transform="translate(202.096875 131.959219) scale(0.1 -0.1)">
       <defs>
        <path id="DejaVuSans-2e" d="M 684 794 
L 1344 794 
L 1344 0 
L 684 0 
L 684 794 
z
" transform="scale(0.015625)"/>
       </defs>
       <use xlink:href="#DejaVuSans-30"/>
       <use xlink:href="#DejaVuSans-2e" x="63.623047"/>
       <use xlink:href="#DejaVuSans-30" x="95.410156"/>
      </g>
     </g>
    </g>
    <g id="ytick_2">
     <g id="line2d_8">
      <g>
       <use xlink:href="#mb7ce72c6b3" x="225" y="105.984" style="stroke: #000000; stroke-width: 0.8"/>
      </g>
     </g>
     <g id="text_7">
      <!-- 0.2 -->
      <g transform="translate(202.096875 109.783219) scale(0.1 -0.1)">
       <use xlink:href="#DejaVuSans-30"/>
       <use xlink:href="#DejaVuSans-2e" x="63.623047"/>
       <use xlink:href="#DejaVuSans-32" x="95.410156"/>
      </g>
     </g>
    </g>
    <g id="ytick_3">
     <g id="line2d_9">
      <g>
       <use xlink:href="#mb7ce72c6b3" x="225" y="83.808" style="stroke: #000000; stroke-width: 0.8"/>
      </g>
     </g>
     <g id="text_8">
      <!-- 0.4 -->
      <g transform="translate(202.096875 87.607219) scale(0.1 -0.1)">
       <use xlink:href="#DejaVuSans-30"/>
       <use xlink:href="#DejaVuSans-2e" x="63.623047"/>
       <use xlink:href="#DejaVuSans-34" x="95.410156"/>
      </g>
     </g>
    </g>
    <g id="ytick_4">
     <g id="line2d_10">
      <g>
       <use xlink:href="#mb7ce72c6b3" x="225" y="61.632" style="stroke: #000000; stroke-width: 0.8"/>
      </g>
     </g>
     <g id="text_9">
      <!-- 0.6 -->
      <g transform="translate(202.096875 65.431219) scale(0.1 -0.1)">
       <use xlink:href="#DejaVuSans-30"/>
       <use xlink:href="#DejaVuSans-2e" x="63.623047"/>
       <use xlink:href="#DejaVuSans-36" x="95.410156"/>
      </g>
     </g>
    </g>
    <g id="ytick_5">
     <g id="line2d_11">
      <g>
       <use xlink:href="#mb7ce72c6b3" x="225" y="39.456" style="stroke: #000000; stroke-width: 0.8"/>
      </g>
     </g>
     <g id="text_10">
      <!-- 0.8 -->
      <g transform="translate(202.096875 43.255219) scale(0.1 -0.1)">
       <use xlink:href="#DejaVuSans-30"/>
       <use xlink:href="#DejaVuSans-2e" x="63.623047"/>
       <use xlink:href="#DejaVuSans-38" x="95.410156"/>
      </g>
     </g>
    </g>
    <g id="ytick_6">
     <g id="line2d_12">
      <g>
       <use xlink:href="#mb7ce72c6b3" x="225" y="17.28" style="stroke: #000000; stroke-width: 0.8"/>
      </g>
     </g>
     <g id="text_11">
      <!-- 1.0 -->
      <g transform="translate(202.096875 21.079219) scale(0.1 -0.1)">
       <defs>
        <path id="DejaVuSans-31" d="M 794 531 
L 1825 531 
L 1825 4091 
L 703 3866 
L 703 4441 
L 1819 4666 
L 2450 4666 
L 2450 531 
L 3481 531 
L 3481 0 
L 794 0 
L 794 531 
z
" transform="scale(0.015625)"/>
       </defs>
       <use xlink:href="#DejaVuSans-31"/>
       <use xlink:href="#DejaVuSans-2e" x="63.623047"/>
       <use xlink:href="#DejaVuSans-30" x="95.410156"/>
      </g>
     </g>
    </g>
   </g>
  </g>
 </g>
 <defs>
  <clipPath id="pb42e4d46d7">
   <rect x="225" y="17.28" width="1395" height="110.88"/>
  </clipPath>
 </defs>
</svg>
