<?xml version="1.0" encoding="utf-8" standalone="no"?>
<!DOCTYPE svg PUBLIC "-//W3C//DTD SVG 1.1//EN"
  "http://www.w3.org/Graphics/SVG/1.1/DTD/svg11.dtd">
<svg xmlns:xlink="http://www.w3.org/1999/xlink" width="1800pt" height="144pt" viewBox="0 0 1800 144" xmlns="http://www.w3.org/2000/svg" version="1.1">
 <metadata>
  <rdf:RDF xmlns:dc="http://purl.org/dc/elements/1.1/" xmlns:cc="http://creativecommons.org/ns#" xmlns:rdf="http://www.w3.org/1999/02/22-rdf-syntax-ns#">
   <cc:Work>
    <dc:type rdf:resource="http://purl.org/dc/dcmitype/StillImage"/>
    <dc:date>2025-05-09T21:11:14.266301</dc:date>
    <dc:format>image/svg+xml</dc:format>
    <dc:creator>
     <cc:Agent>
      <dc:title>Matplotlib v3.8.0, https://matplotlib.org/</dc:title>
     </cc:Agent>
    </dc:creator>
   </cc:Work>
  </rdf:RDF>
 </metadata>
 <defs>
  <style type="text/css">*{stroke-linejoin: round; stroke-linecap: butt}</style>
 </defs>
 <g id="figure_1">
  <g id="patch_1">
   <path d="M 0 144 
L 1800 144 
L 1800 0 
L 0 0 
z
" style="fill: #ffffff"/>
  </g>
  <g id="axes_1">
   <g id="patch_2">
    <path d="M 225 128.16 
L 1620 128.16 
L 1620 17.28 
L 225 17.28 
z
" style="fill: #ffffff"/>
   </g>
   <g id="line2d_1">
    <path d="M 225 128.16 
L 1620 128.16 
" clip-path="url(#pa2266eaf0c)" style="fill: none; stroke: #000000; stroke-width: 1.5; stroke-linecap: square"/>
   </g>
   <g id="patch_3">
    <path d="M 225 17.28 
L 231.987238 17.28 
L 236.834036 76.617197 
L 241.71278 17.28 
L 248.686327 17.28 
L 248.686327 128.16 
L 243.497242 128.16 
L 243.497242 47.055534 
L 238.591114 106.844235 
L 235.108905 106.844235 
L 230.202777 47.055534 
L 230.202777 128.16 
L 225 128.16 
L 225 17.28 
z
" clip-path="url(#pa2266eaf0c)" style="fill: #21599c"/>
   </g>
   <g id="patch_4">
    <path d="M 249.932976 17.28 
L 273.619303 17.28 
L 273.619303 38.904689 
L 265.097734 38.904689 
L 265.097734 128.16 
L 258.471071 128.16 
L 258.471071 38.904689 
L 249.932976 38.904689 
L 249.932976 17.28 
z
" clip-path="url(#pa2266eaf0c)" style="fill: #40ba47"/>
   </g>
   <g id="patch_5">
    <path d="M 274.865952 17.28 
L 298.552279 17.28 
L 298.552279 38.904689 
L 290.03071 38.904689 
L 290.03071 128.16 
L 283.404046 128.16 
L 283.404046 38.904689 
L 274.865952 38.904689 
L 274.865952 17.28 
z
" clip-path="url(#pa2266eaf0c)" style="fill: #40ba47"/>
   </g>
   <g id="patch_6">
    <path d="M 316.206467 107.961114 
L 307.097086 107.961114 
L 305.658763 128.16 
L 299.798928 128.16 
L 308.167354 17.28 
L 315.116828 17.28 
L 323.485255 128.16 
L 317.630262 128.16 
L 316.206467 107.961114 
z
M 308.549938 87.382015 
L 314.739087 87.382015 
L 311.649355 43.277154 
L 308.549938 87.382015 
z
" clip-path="url(#pa2266eaf0c)" style="fill: #21599c"/>
   </g>
   <g id="patch_7">
    <path d="M 332.277231 17.28 
L 340.872903 17.28 
L 340.872903 128.16 
L 332.277231 128.16 
L 332.277231 17.28 
z
" clip-path="url(#pa2266eaf0c)" style="fill: #21599c"/>
   </g>
   <g id="patch_8">
    <path d="M 349.664879 17.28 
L 356.652118 17.28 
L 361.498915 76.617197 
L 366.37766 17.28 
L 373.351206 17.28 
L 373.351206 128.16 
L 368.162121 128.16 
L 368.162121 47.055534 
L 363.255993 106.844235 
L 359.773784 106.844235 
L 354.867656 47.055534 
L 354.867656 128.16 
L 349.664879 128.16 
L 349.664879 17.28 
z
" clip-path="url(#pa2266eaf0c)" style="fill: #21599c"/>
   </g>
   <g id="patch_9">
    <path d="M 374.597855 17.28 
L 397.791164 17.28 
L 397.791164 38.904689 
L 383.193527 38.904689 
L 383.193527 59.531316 
L 396.926595 59.531316 
L 396.926595 81.156005 
L 383.193527 81.156005 
L 383.193527 106.559074 
L 398.284182 106.559074 
L 398.284182 128.16 
L 374.597855 128.16 
L 374.597855 17.28 
z
" clip-path="url(#pa2266eaf0c)" style="fill: #6b296b"/>
   </g>
   <g id="patch_10">
    <path d="M 399.530831 17.28 
L 408.126503 17.28 
L 408.126503 106.559074 
L 423.217158 106.559074 
L 423.217158 128.16 
L 399.530831 128.16 
L 399.530831 17.28 
z
" clip-path="url(#pa2266eaf0c)" style="fill: #21599c"/>
   </g>
   <g id="patch_11">
    <path d="M 424.463807 17.28 
L 431.451045 17.28 
L 436.297843 76.617197 
L 441.176587 17.28 
L 448.150134 17.28 
L 448.150134 128.16 
L 442.961049 128.16 
L 442.961049 47.055534 
L 438.054921 106.844235 
L 434.572711 106.844235 
L 429.666584 47.055534 
L 429.666584 128.16 
L 424.463807 128.16 
L 424.463807 17.28 
z
" clip-path="url(#pa2266eaf0c)" style="fill: #21599c"/>
   </g>
   <g id="patch_12">
    <path d="M 465.804322 107.961114 
L 456.694942 107.961114 
L 455.256618 128.16 
L 449.396783 128.16 
L 457.765209 17.28 
L 464.714684 17.28 
L 473.08311 128.16 
L 467.228117 128.16 
L 465.804322 107.961114 
z
M 458.147793 87.382015 
L 464.336942 87.382015 
L 461.247211 43.277154 
L 458.147793 87.382015 
z
" clip-path="url(#pa2266eaf0c)" style="fill: #21599c"/>
   </g>
   <g id="patch_13">
    <path d="M 498.016086 118.127891 
Q 495.627281 123.143945 493.057989 125.663425 
Q 490.488696 128.16 487.749533 128.16 
Q 481.559875 128.16 477.944817 113.226358 
Q 474.329759 98.292716 474.329759 72.754357 
Q 474.329759 46.91824 478.008518 32.09912 
Q 481.692586 17.28 488.099891 17.28 
Q 490.568323 17.28 492.829725 19.295584 
Q 495.096435 21.288263 497.103031 25.227812 
L 497.103031 47.330518 
Q 495.032734 42.268655 492.98367 39.77208 
Q 490.934607 37.252601 488.874926 37.252601 
Q 485.063455 37.252601 482.998466 46.460153 
Q 480.933477 55.644801 480.933477 72.754357 
Q 480.933477 89.703582 482.924148 98.956943 
Q 484.914818 108.187399 488.577652 108.187399 
Q 489.575642 108.187399 490.430303 107.660599 
Q 491.284965 107.110894 491.964447 105.965677 
L 491.964447 85.214328 
L 488.062732 85.214328 
L 488.062732 66.73051 
L 498.016086 66.73051 
L 498.016086 118.127891 
z
" clip-path="url(#pa2266eaf0c)" style="fill: #787800"/>
   </g>
   <g id="patch_14">
    <path d="M 499.262735 17.28 
L 506.078006 17.28 
L 506.078006 59.531316 
L 516.13379 59.531316 
L 516.13379 17.28 
L 522.949062 17.28 
L 522.949062 128.16 
L 516.13379 128.16 
L 516.13379 81.156005 
L 506.078006 81.156005 
L 506.078006 128.16 
L 499.262735 128.16 
L 499.262735 17.28 
z
" clip-path="url(#pa2266eaf0c)" style="fill: #177875"/>
   </g>
   <g id="patch_15">
    <path d="M 524.19571 17.28 
L 547.389019 17.28 
L 547.389019 38.904689 
L 532.791382 38.904689 
L 532.791382 59.531316 
L 546.52445 59.531316 
L 546.52445 81.156005 
L 532.791382 81.156005 
L 532.791382 106.559074 
L 547.882038 106.559074 
L 547.882038 128.16 
L 524.19571 128.16 
L 524.19571 17.28 
z
" clip-path="url(#pa2266eaf0c)" style="fill: #6b296b"/>
   </g>
   <g id="patch_16">
    <path d="M 565.536226 107.961114 
L 556.426845 107.961114 
L 554.988522 128.16 
L 549.128686 128.16 
L 557.497113 17.28 
L 564.446587 17.28 
L 572.815013 128.16 
L 566.960021 128.16 
L 565.536226 107.961114 
z
M 557.879697 87.382015 
L 564.068846 87.382015 
L 560.979114 43.277154 
L 557.879697 87.382015 
z
" clip-path="url(#pa2266eaf0c)" style="fill: #21599c"/>
   </g>
   <g id="patch_17">
    <path d="M 595.773057 22.570907 
L 595.773057 45.200413 
Q 593.302782 41.260863 590.948302 39.268184 
Q 588.600255 37.252601 586.509528 37.252601 
Q 583.736903 37.252601 582.405271 39.978219 
Q 581.080071 42.680934 581.080071 48.407023 
Q 581.080071 52.713043 581.974259 55.118 
Q 582.868447 57.500054 585.222927 59.217881 
L 588.516626 61.57703 
Q 593.521505 65.173014 595.63153 72.479504 
Q 597.747989 79.76309 597.747989 93.230853 
Q 597.747989 110.890114 594.801673 119.525057 
Q 591.855356 128.16 585.801898 128.16 
Q 582.952076 128.16 580.076523 126.21313 
Q 577.200969 124.289163 574.325415 120.48704 
L 574.325415 97.239116 
Q 577.200969 102.667449 579.883532 105.438876 
Q 582.566096 108.187399 585.062102 108.187399 
Q 587.596706 108.187399 588.941204 105.186928 
Q 590.285703 102.163553 590.285703 96.574889 
Q 590.285703 91.581739 589.372216 88.856121 
Q 588.458729 86.130502 585.724702 83.977492 
L 582.726921 81.618343 
Q 578.223817 78.18269 576.139523 70.67006 
Q 574.061662 63.15743 574.061662 50.422607 
Q 574.061662 34.458269 576.956515 25.869134 
Q 579.851367 17.28 585.280824 17.28 
Q 587.757531 17.28 590.369332 18.608453 
Q 592.981132 19.936906 595.773057 22.570907 
z
" clip-path="url(#pa2266eaf0c)" style="fill: #40ba47"/>
   </g>
   <g id="patch_18">
    <path d="M 620.706032 22.570907 
L 620.706032 45.200413 
Q 618.235758 41.260863 615.881278 39.268184 
Q 613.533231 37.252601 611.442504 37.252601 
Q 608.669879 37.252601 607.338246 39.978219 
Q 606.013047 42.680934 606.013047 48.407023 
Q 606.013047 52.713043 606.907235 55.118 
Q 607.801423 57.500054 610.155903 59.217881 
L 613.449602 61.57703 
Q 618.45448 65.173014 620.564506 72.479504 
Q 622.680965 79.76309 622.680965 93.230853 
Q 622.680965 110.890114 619.734649 119.525057 
Q 616.788332 128.16 610.734874 128.16 
Q 607.885052 128.16 605.009498 126.21313 
Q 602.133945 124.289163 599.258391 120.48704 
L 599.258391 97.239116 
Q 602.133945 102.667449 604.816508 105.438876 
Q 607.499072 108.187399 609.995078 108.187399 
Q 612.529682 108.187399 613.87418 105.186928 
Q 615.218679 102.163553 615.218679 96.574889 
Q 615.218679 91.581739 614.305192 88.856121 
Q 613.391705 86.130502 610.657677 83.977492 
L 607.659897 81.618343 
Q 603.156793 78.18269 601.072499 70.67006 
Q 598.994638 63.15743 598.994638 50.422607 
Q 598.994638 34.458269 601.889491 25.869134 
Q 604.784343 17.28 610.2138 17.28 
Q 612.690507 17.28 615.302308 18.608453 
Q 617.914108 19.936906 620.706032 22.570907 
z
" clip-path="url(#pa2266eaf0c)" style="fill: #40ba47"/>
   </g>
   <g id="patch_19">
    <path d="M 630.418423 38.904689 
L 630.418423 106.559074 
L 632.743891 106.559074 
Q 636.720389 106.559074 638.819246 97.861672 
Q 640.923498 89.164269 640.923498 72.601183 
Q 640.923498 56.13315 638.830037 47.530802 
Q 636.741971 38.904689 632.743891 38.904689 
L 630.418423 38.904689 
z
M 623.927614 17.28 
L 630.769132 17.28 
Q 636.504568 17.28 639.310238 20.892036 
Q 642.115907 24.480309 644.12304 33.106421 
Q 645.892771 40.615654 646.750658 50.429936 
Q 647.613941 60.220454 647.613941 72.601183 
Q 647.613941 85.172019 646.750658 95.010064 
Q 645.892771 104.84811 644.12304 112.333579 
Q 642.099721 120.959691 639.267074 124.571727 
Q 636.434426 128.16 630.769132 128.16 
L 623.927614 128.16 
L 623.927614 17.28 
z
" clip-path="url(#pa2266eaf0c)" style="fill: #6b296b"/>
   </g>
   <g id="patch_20">
    <path d="M 648.86059 17.28 
L 654.720425 17.28 
L 660.711018 99.121132 
L 666.691924 17.28 
L 672.546917 17.28 
L 664.178491 128.16 
L 657.229016 128.16 
L 648.86059 17.28 
z
" clip-path="url(#pa2266eaf0c)" style="fill: #21599c"/>
   </g>
   <g id="patch_21">
    <path d="M 683.404186 66.446464 
Q 685.529882 66.446464 686.452142 63.119589 
Q 687.374401 59.76895 687.374401 52.117137 
Q 687.374401 44.536614 686.452142 41.281029 
Q 685.529882 38.00168 683.404186 38.00168 
L 680.558678 38.00168 
L 680.558678 66.446464 
L 683.404186 66.446464 
z
M 680.558678 86.193845 
L 680.558678 128.16 
L 673.793566 128.16 
L 673.793566 17.28 
L 684.123998 17.28 
Q 689.308897 17.28 691.721393 24.646652 
Q 694.139513 31.989541 694.139513 47.887252 
Q 694.139513 58.865941 692.879842 65.923669 
Q 691.625793 72.981397 689.095203 76.332036 
Q 690.484216 77.662786 691.580805 82.391702 
Q 692.683018 87.096854 693.807725 96.673502 
L 697.479893 128.16 
L 690.276145 128.16 
L 687.076354 100.618225 
Q 686.109106 92.301037 685.113741 89.259323 
Q 684.123998 86.193845 682.470679 86.193845 
L 680.558678 86.193845 
z
" clip-path="url(#pa2266eaf0c)" style="fill: #bd2e1f"/>
   </g>
   <g id="patch_22">
    <path d="M 698.726542 17.28 
L 721.91985 17.28 
L 721.91985 38.904689 
L 707.322213 38.904689 
L 707.322213 59.531316 
L 721.055281 59.531316 
L 721.055281 81.156005 
L 707.322213 81.156005 
L 707.322213 106.559074 
L 722.412869 106.559074 
L 722.412869 128.16 
L 698.726542 128.16 
L 698.726542 17.28 
z
" clip-path="url(#pa2266eaf0c)" style="fill: #6b296b"/>
   </g>
   <g id="patch_23">
    <path d="M 733.270138 66.446464 
Q 735.395834 66.446464 736.318093 63.119589 
Q 737.240353 59.76895 737.240353 52.117137 
Q 737.240353 44.536614 736.318093 41.281029 
Q 735.395834 38.00168 733.270138 38.00168 
L 730.424629 38.00168 
L 730.424629 66.446464 
L 733.270138 66.446464 
z
M 730.424629 86.193845 
L 730.424629 128.16 
L 723.659517 128.16 
L 723.659517 17.28 
L 733.98995 17.28 
Q 739.174849 17.28 741.587345 24.646652 
Q 744.005465 31.989541 744.005465 47.887252 
Q 744.005465 58.865941 742.745793 65.923669 
Q 741.491745 72.981397 738.961155 76.332036 
Q 740.350168 77.662786 741.446757 82.391702 
Q 742.54897 87.096854 743.673677 96.673502 
L 747.345845 128.16 
L 740.142097 128.16 
L 736.942306 100.618225 
Q 735.975058 92.301037 734.979692 89.259323 
Q 733.98995 86.193845 732.336631 86.193845 
L 730.424629 86.193845 
z
" clip-path="url(#pa2266eaf0c)" style="fill: #bd2e1f"/>
   </g>
   <g id="patch_24">
    <path d="M 748.592493 17.28 
L 754.834476 17.28 
L 754.834476 57.749061 
L 763.831648 17.28 
L 771.080235 17.28 
L 759.42127 69.797102 
L 772.27882 128.16 
L 764.464667 128.16 
L 754.834476 84.48288 
L 754.834476 128.16 
L 748.592493 128.16 
L 748.592493 17.28 
z
" clip-path="url(#pa2266eaf0c)" style="fill: #bd2e1f"/>
   </g>
   <g id="patch_25">
    <path d="M 773.525469 17.28 
L 779.385305 17.28 
L 785.375897 99.121132 
L 791.356804 17.28 
L 797.211796 17.28 
L 788.84337 128.16 
L 781.893896 128.16 
L 773.525469 17.28 
z
" clip-path="url(#pa2266eaf0c)" style="fill: #21599c"/>
   </g>
   <g id="patch_26">
    <path d="M 798.458445 17.28 
L 822.144772 17.28 
L 822.144772 38.904689 
L 813.623203 38.904689 
L 813.623203 128.16 
L 806.99654 128.16 
L 806.99654 38.904689 
L 798.458445 38.904689 
L 798.458445 17.28 
z
" clip-path="url(#pa2266eaf0c)" style="fill: #40ba47"/>
   </g>
   <g id="patch_27">
    <path d="M 839.798961 107.961114 
L 830.68958 107.961114 
L 829.251256 128.16 
L 823.391421 128.16 
L 831.759847 17.28 
L 838.709322 17.28 
L 847.077748 128.16 
L 841.222755 128.16 
L 839.798961 107.961114 
z
M 832.142432 87.382015 
L 838.33158 87.382015 
L 835.241849 43.277154 
L 832.142432 87.382015 
z
" clip-path="url(#pa2266eaf0c)" style="fill: #21599c"/>
   </g>
   <g id="patch_28">
    <path d="M 864.731936 107.961114 
L 855.622556 107.961114 
L 854.184232 128.16 
L 848.324397 128.16 
L 856.692823 17.28 
L 863.642298 17.28 
L 872.010724 128.16 
L 866.155731 128.16 
L 864.731936 107.961114 
z
M 857.075407 87.382015 
L 863.264556 87.382015 
L 860.174825 43.277154 
L 857.075407 87.382015 
z
" clip-path="url(#pa2266eaf0c)" style="fill: #21599c"/>
   </g>
   <g id="patch_29">
    <path d="M 889.664912 107.961114 
L 880.555531 107.961114 
L 879.117208 128.16 
L 873.257373 128.16 
L 881.625799 17.28 
L 888.575273 17.28 
L 896.9437 128.16 
L 891.088707 128.16 
L 889.664912 107.961114 
z
M 882.008383 87.382015 
L 888.197532 87.382015 
L 885.1078 43.277154 
L 882.008383 87.382015 
z
" clip-path="url(#pa2266eaf0c)" style="fill: #21599c"/>
   </g>
   <g id="patch_30">
    <path d="M 898.190349 17.28 
L 921.383657 17.28 
L 921.383657 38.904689 
L 906.78602 38.904689 
L 906.78602 59.531316 
L 920.519088 59.531316 
L 920.519088 81.156005 
L 906.78602 81.156005 
L 906.78602 106.559074 
L 921.876676 106.559074 
L 921.876676 128.16 
L 898.190349 128.16 
L 898.190349 17.28 
z
" clip-path="url(#pa2266eaf0c)" style="fill: #6b296b"/>
   </g>
   <g id="patch_31">
    <path d="M 939.530864 107.961114 
L 930.421483 107.961114 
L 928.98316 128.16 
L 923.123324 128.16 
L 931.491751 17.28 
L 938.441225 17.28 
L 946.809651 128.16 
L 940.954659 128.16 
L 939.530864 107.961114 
z
M 931.874335 87.382015 
L 938.063484 87.382015 
L 934.973752 43.277154 
L 931.874335 87.382015 
z
" clip-path="url(#pa2266eaf0c)" style="fill: #21599c"/>
   </g>
   <g id="patch_32">
    <path d="M 948.0563 17.28 
L 960.368256 17.28 
Q 965.864224 17.28 968.800341 26.690304 
Q 971.742627 36.076845 971.742627 53.447887 
Q 971.742627 70.913982 968.800341 80.300523 
Q 965.864224 89.687064 960.368256 89.687064 
L 955.476782 89.687064 
L 955.476782 128.16 
L 948.0563 128.16 
L 948.0563 17.28 
z
M 955.476782 38.00168 
L 955.476782 68.965384 
L 959.578711 68.965384 
Q 961.737621 68.965384 962.91577 64.925607 
Q 964.093918 60.885829 964.093918 53.447887 
Q 964.093918 46.033708 962.91577 42.017694 
Q 961.737621 38.00168 959.578711 38.00168 
L 955.476782 38.00168 
z
" clip-path="url(#pa2266eaf0c)" style="fill: #787800"/>
   </g>
   <g id="patch_33">
    <path d="M 989.396816 107.961114 
L 980.287435 107.961114 
L 978.849112 128.16 
L 972.989276 128.16 
L 981.357702 17.28 
L 988.307177 17.28 
L 996.675603 128.16 
L 990.82061 128.16 
L 989.396816 107.961114 
z
M 981.740287 87.382015 
L 987.929435 87.382015 
L 984.839704 43.277154 
L 981.740287 87.382015 
z
" clip-path="url(#pa2266eaf0c)" style="fill: #21599c"/>
   </g>
   <g id="patch_34">
    <path d="M 997.922252 17.28 
L 1010.234207 17.28 
Q 1015.730176 17.28 1018.666293 26.690304 
Q 1021.608579 36.076845 1021.608579 53.447887 
Q 1021.608579 70.913982 1018.666293 80.300523 
Q 1015.730176 89.687064 1010.234207 89.687064 
L 1005.342734 89.687064 
L 1005.342734 128.16 
L 997.922252 128.16 
L 997.922252 17.28 
z
M 1005.342734 38.00168 
L 1005.342734 68.965384 
L 1009.444663 68.965384 
Q 1011.603573 68.965384 1012.781721 64.925607 
Q 1013.959869 60.885829 1013.959869 53.447887 
Q 1013.959869 46.033708 1012.781721 42.017694 
Q 1011.603573 38.00168 1009.444663 38.00168 
L 1005.342734 38.00168 
z
" clip-path="url(#pa2266eaf0c)" style="fill: #787800"/>
   </g>
   <g id="patch_35">
    <path d="M 1044.566622 22.570907 
L 1044.566622 45.200413 
Q 1042.096348 41.260863 1039.741868 39.268184 
Q 1037.393821 37.252601 1035.303094 37.252601 
Q 1032.530468 37.252601 1031.198836 39.978219 
Q 1029.873637 42.680934 1029.873637 48.407023 
Q 1029.873637 52.713043 1030.767825 55.118 
Q 1031.662013 57.500054 1034.016493 59.217881 
L 1037.310192 61.57703 
Q 1042.31507 65.173014 1044.425096 72.479504 
Q 1046.541555 79.76309 1046.541555 93.230853 
Q 1046.541555 110.890114 1043.595238 119.525057 
Q 1040.648922 128.16 1034.595463 128.16 
Q 1031.745642 128.16 1028.870088 126.21313 
Q 1025.994535 124.289163 1023.118981 120.48704 
L 1023.118981 97.239116 
Q 1025.994535 102.667449 1028.677098 105.438876 
Q 1031.359661 108.187399 1033.855668 108.187399 
Q 1036.390272 108.187399 1037.73477 105.186928 
Q 1039.079268 102.163553 1039.079268 96.574889 
Q 1039.079268 91.581739 1038.165782 88.856121 
Q 1037.252295 86.130502 1034.518267 83.977492 
L 1031.520487 81.618343 
Q 1027.017383 78.18269 1024.933089 70.67006 
Q 1022.855228 63.15743 1022.855228 50.422607 
Q 1022.855228 34.458269 1025.75008 25.869134 
Q 1028.644933 17.28 1034.07439 17.28 
Q 1036.551097 17.28 1039.162897 18.608453 
Q 1041.774698 19.936906 1044.566622 22.570907 
z
" clip-path="url(#pa2266eaf0c)" style="fill: #40ba47"/>
   </g>
   <g id="patch_36">
    <path d="M 1047.788204 17.28 
L 1060.100159 17.28 
Q 1065.596127 17.28 1068.532245 26.690304 
Q 1071.474531 36.076845 1071.474531 53.447887 
Q 1071.474531 70.913982 1068.532245 80.300523 
Q 1065.596127 89.687064 1060.100159 89.687064 
L 1055.208686 89.687064 
L 1055.208686 128.16 
L 1047.788204 128.16 
L 1047.788204 17.28 
z
M 1055.208686 38.00168 
L 1055.208686 68.965384 
L 1059.310615 68.965384 
Q 1061.469525 68.965384 1062.647673 64.925607 
Q 1063.825821 60.885829 1063.825821 53.447887 
Q 1063.825821 46.033708 1062.647673 42.017694 
Q 1061.469525 38.00168 1059.310615 38.00168 
L 1055.208686 38.00168 
z
" clip-path="url(#pa2266eaf0c)" style="fill: #787800"/>
   </g>
   <g id="patch_37">
    <path d="M 1089.128719 107.961114 
L 1080.019338 107.961114 
L 1078.581015 128.16 
L 1072.72118 128.16 
L 1081.089606 17.28 
L 1088.03908 17.28 
L 1096.407507 128.16 
L 1090.552514 128.16 
L 1089.128719 107.961114 
z
M 1081.47219 87.382015 
L 1087.661339 87.382015 
L 1084.571607 43.277154 
L 1081.47219 87.382015 
z
" clip-path="url(#pa2266eaf0c)" style="fill: #21599c"/>
   </g>
   <g id="patch_38">
    <path d="M 1107.264776 66.446464 
Q 1109.390472 66.446464 1110.312732 63.119589 
Q 1111.234991 59.76895 1111.234991 52.117137 
Q 1111.234991 44.536614 1110.312732 41.281029 
Q 1109.390472 38.00168 1107.264776 38.00168 
L 1104.419267 38.00168 
L 1104.419267 66.446464 
L 1107.264776 66.446464 
z
M 1104.419267 86.193845 
L 1104.419267 128.16 
L 1097.654155 128.16 
L 1097.654155 17.28 
L 1107.984588 17.28 
Q 1113.169487 17.28 1115.581983 24.646652 
Q 1118.000103 31.989541 1118.000103 47.887252 
Q 1118.000103 58.865941 1116.740431 65.923669 
Q 1115.486383 72.981397 1112.955793 76.332036 
Q 1114.344806 77.662786 1115.441395 82.391702 
Q 1116.543608 87.096854 1117.668315 96.673502 
L 1121.340483 128.16 
L 1114.136735 128.16 
L 1110.936944 100.618225 
Q 1109.969696 92.301037 1108.97433 89.259323 
Q 1107.984588 86.193845 1106.331269 86.193845 
L 1104.419267 86.193845 
z
" clip-path="url(#pa2266eaf0c)" style="fill: #bd2e1f"/>
   </g>
   <g id="patch_39">
    <path d="M 1130.132459 17.28 
L 1138.728131 17.28 
L 1138.728131 128.16 
L 1130.132459 128.16 
L 1130.132459 17.28 
z
" clip-path="url(#pa2266eaf0c)" style="fill: #21599c"/>
   </g>
   <g id="patch_40">
    <path d="M 1147.520107 17.28 
L 1171.206434 17.28 
L 1171.206434 38.904689 
L 1162.684865 38.904689 
L 1162.684865 128.16 
L 1156.058202 128.16 
L 1156.058202 38.904689 
L 1147.520107 38.904689 
L 1147.520107 17.28 
z
" clip-path="url(#pa2266eaf0c)" style="fill: #40ba47"/>
   </g>
   <g id="patch_41">
    <path d="M 1179.998411 17.28 
L 1188.594082 17.28 
L 1188.594082 128.16 
L 1179.998411 128.16 
L 1179.998411 17.28 
z
" clip-path="url(#pa2266eaf0c)" style="fill: #21599c"/>
   </g>
   <g id="patch_42">
    <path d="M 1213.793599 107.961114 
L 1204.684218 107.961114 
L 1203.245895 128.16 
L 1197.386059 128.16 
L 1205.754485 17.28 
L 1212.70396 17.28 
L 1221.072386 128.16 
L 1215.217393 128.16 
L 1213.793599 107.961114 
z
M 1206.13707 87.382015 
L 1212.326218 87.382015 
L 1209.236487 43.277154 
L 1206.13707 87.382015 
z
" clip-path="url(#pa2266eaf0c)" style="fill: #21599c"/>
   </g>
   <g id="patch_43">
    <path d="M 1246.005362 118.127891 
Q 1243.616557 123.143945 1241.047265 125.663425 
Q 1238.477972 128.16 1235.73881 128.16 
Q 1229.549151 128.16 1225.934093 113.226358 
Q 1222.319035 98.292716 1222.319035 72.754357 
Q 1222.319035 46.91824 1225.997794 32.09912 
Q 1229.681862 17.28 1236.089168 17.28 
Q 1238.557599 17.28 1240.819001 19.295584 
Q 1243.085712 21.288263 1245.092308 25.227812 
L 1245.092308 47.330518 
Q 1243.02201 42.268655 1240.972946 39.77208 
Q 1238.923883 37.252601 1236.864202 37.252601 
Q 1233.052731 37.252601 1230.987742 46.460153 
Q 1228.922753 55.644801 1228.922753 72.754357 
Q 1228.922753 89.703582 1230.913424 98.956943 
Q 1232.904095 108.187399 1236.566929 108.187399 
Q 1237.564918 108.187399 1238.419579 107.660599 
Q 1239.274241 107.110894 1239.953723 105.965677 
L 1239.953723 85.214328 
L 1236.052008 85.214328 
L 1236.052008 66.73051 
L 1246.005362 66.73051 
L 1246.005362 118.127891 
z
" clip-path="url(#pa2266eaf0c)" style="fill: #787800"/>
   </g>
   <g id="patch_44">
    <path d="M 1270.938338 120.212188 
Q 1268.957017 124.151737 1266.814566 126.144416 
Q 1264.672114 128.16 1262.338691 128.16 
Q 1255.380199 128.16 1251.316105 113.226358 
Q 1247.252011 98.292716 1247.252011 72.754357 
Q 1247.252011 47.124379 1251.316105 32.213642 
Q 1255.380199 17.28 1262.338691 17.28 
Q 1264.672114 17.28 1266.814566 19.295584 
Q 1268.957017 21.288263 1270.938338 25.227812 
L 1270.938338 47.330518 
Q 1268.939114 42.108325 1266.999568 39.680463 
Q 1265.060023 37.252601 1262.917571 37.252601 
Q 1259.074287 37.252601 1256.872157 46.712101 
Q 1254.675994 56.148697 1254.675994 72.754357 
Q 1254.675994 89.291303 1256.872157 98.750804 
Q 1259.074287 108.187399 1262.917571 108.187399 
Q 1265.060023 108.187399 1266.999568 105.759537 
Q 1268.939114 103.308771 1270.938338 98.086577 
L 1270.938338 120.212188 
z
" clip-path="url(#pa2266eaf0c)" style="fill: #6b296b"/>
   </g>
   <g id="patch_45">
    <path d="M 1272.431496 17.28 
L 1295.624804 17.28 
L 1295.624804 38.904689 
L 1281.027168 38.904689 
L 1281.027168 59.531316 
L 1294.760236 59.531316 
L 1294.760236 81.156005 
L 1281.027168 81.156005 
L 1281.027168 128.16 
L 1272.431496 128.16 
L 1272.431496 17.28 
z
" clip-path="url(#pa2266eaf0c)" style="fill: #21599c"/>
   </g>
   <g id="patch_46">
    <path d="M 1313.525502 107.961114 
L 1304.416121 107.961114 
L 1302.977798 128.16 
L 1297.117962 128.16 
L 1305.486389 17.28 
L 1312.435863 17.28 
L 1320.80429 128.16 
L 1314.949297 128.16 
L 1313.525502 107.961114 
z
M 1305.868973 87.382015 
L 1312.058122 87.382015 
L 1308.96839 43.277154 
L 1305.868973 87.382015 
z
" clip-path="url(#pa2266eaf0c)" style="fill: #21599c"/>
   </g>
   <g id="patch_47">
    <path d="M 1343.762333 22.570907 
L 1343.762333 45.200413 
Q 1341.292058 41.260863 1338.937578 39.268184 
Q 1336.589531 37.252601 1334.498804 37.252601 
Q 1331.726179 37.252601 1330.394547 39.978219 
Q 1329.069348 42.680934 1329.069348 48.407023 
Q 1329.069348 52.713043 1329.963535 55.118 
Q 1330.857723 57.500054 1333.212203 59.217881 
L 1336.505902 61.57703 
Q 1341.510781 65.173014 1343.620807 72.479504 
Q 1345.737265 79.76309 1345.737265 93.230853 
Q 1345.737265 110.890114 1342.790949 119.525057 
Q 1339.844632 128.16 1333.791174 128.16 
Q 1330.941352 128.16 1328.065799 126.21313 
Q 1325.190245 124.289163 1322.314692 120.48704 
L 1322.314692 97.239116 
Q 1325.190245 102.667449 1327.872809 105.438876 
Q 1330.555372 108.187399 1333.051378 108.187399 
Q 1335.585982 108.187399 1336.930481 105.186928 
Q 1338.274979 102.163553 1338.274979 96.574889 
Q 1338.274979 91.581739 1337.361492 88.856121 
Q 1336.448005 86.130502 1333.713978 83.977492 
L 1330.716197 81.618343 
Q 1326.213093 78.18269 1324.128799 70.67006 
Q 1322.050938 63.15743 1322.050938 50.422607 
Q 1322.050938 34.458269 1324.945791 25.869134 
Q 1327.840643 17.28 1333.2701 17.28 
Q 1335.746808 17.28 1338.358608 18.608453 
Q 1340.970408 19.936906 1343.762333 22.570907 
z
" clip-path="url(#pa2266eaf0c)" style="fill: #40ba47"/>
   </g>
   <g id="patch_48">
    <path d="M 1359.458713 111.578719 
L 1358.994856 111.578719 
Q 1353.305203 111.578719 1350.142091 99.152512 
Q 1346.983914 86.706798 1346.983914 64.526897 
Q 1346.983914 42.38601 1350.137157 29.842759 
Q 1353.290399 17.28 1358.827078 17.28 
Q 1364.422973 17.28 1367.546607 29.725714 
Q 1370.670241 42.151921 1370.670241 64.526897 
Q 1370.670241 79.879212 1369.012198 90.978916 
Q 1367.354155 102.078621 1364.24039 107.677241 
L 1368.878963 128.16 
L 1363.218918 128.16 
L 1359.458713 111.578719 
z
M 1358.827078 34.290443 
Q 1356.113019 34.290443 1354.61782 42.210443 
Q 1353.122621 50.130443 1353.122621 64.526897 
Q 1353.122621 79.157438 1354.583277 86.940887 
Q 1356.048869 94.704828 1358.827078 94.704828 
Q 1361.55594 94.704828 1363.051139 86.784828 
Q 1364.546339 78.84532 1364.546339 64.526897 
Q 1364.546339 50.130443 1363.051139 42.210443 
Q 1361.55594 34.290443 1358.827078 34.290443 
z
" clip-path="url(#pa2266eaf0c)" style="fill: #40ba47"/>
   </g>
   <g id="patch_49">
    <path d="M 1372.163399 17.28 
L 1395.356708 17.28 
L 1395.356708 38.904689 
L 1380.759071 38.904689 
L 1380.759071 59.531316 
L 1394.492139 59.531316 
L 1394.492139 81.156005 
L 1380.759071 81.156005 
L 1380.759071 128.16 
L 1372.163399 128.16 
L 1372.163399 17.28 
z
" clip-path="url(#pa2266eaf0c)" style="fill: #21599c"/>
   </g>
   <g id="patch_50">
    <path d="M 1418.56126 22.570907 
L 1418.56126 45.200413 
Q 1416.090986 41.260863 1413.736506 39.268184 
Q 1411.388459 37.252601 1409.297732 37.252601 
Q 1406.525107 37.252601 1405.193474 39.978219 
Q 1403.868275 42.680934 1403.868275 48.407023 
Q 1403.868275 52.713043 1404.762463 55.118 
Q 1405.656651 57.500054 1408.011131 59.217881 
L 1411.30483 61.57703 
Q 1416.309708 65.173014 1418.419734 72.479504 
Q 1420.536193 79.76309 1420.536193 93.230853 
Q 1420.536193 110.890114 1417.589876 119.525057 
Q 1414.64356 128.16 1408.590101 128.16 
Q 1405.74028 128.16 1402.864726 126.21313 
Q 1399.989173 124.289163 1397.113619 120.48704 
L 1397.113619 97.239116 
Q 1399.989173 102.667449 1402.671736 105.438876 
Q 1405.3543 108.187399 1407.850306 108.187399 
Q 1410.38491 108.187399 1411.729408 105.186928 
Q 1413.073906 102.163553 1413.073906 96.574889 
Q 1413.073906 91.581739 1412.16042 88.856121 
Q 1411.246933 86.130502 1408.512905 83.977492 
L 1405.515125 81.618343 
Q 1401.012021 78.18269 1398.927727 70.67006 
Q 1396.849866 63.15743 1396.849866 50.422607 
Q 1396.849866 34.458269 1399.744719 25.869134 
Q 1402.639571 17.28 1408.069028 17.28 
Q 1410.545735 17.28 1413.157535 18.608453 
Q 1415.769336 19.936906 1418.56126 22.570907 
z
" clip-path="url(#pa2266eaf0c)" style="fill: #40ba47"/>
   </g>
   <g id="patch_51">
    <path d="M 1438.190381 107.961114 
L 1429.081001 107.961114 
L 1427.642677 128.16 
L 1421.782842 128.16 
L 1430.151268 17.28 
L 1437.100743 17.28 
L 1445.469169 128.16 
L 1439.614176 128.16 
L 1438.190381 107.961114 
z
M 1430.533852 87.382015 
L 1436.723001 87.382015 
L 1433.63327 43.277154 
L 1430.533852 87.382015 
z
" clip-path="url(#pa2266eaf0c)" style="fill: #21599c"/>
   </g>
   <g id="patch_52">
    <path d="M 1446.715818 17.28 
L 1452.9578 17.28 
L 1452.9578 57.749061 
L 1461.954973 17.28 
L 1469.20356 17.28 
L 1457.544594 69.797102 
L 1470.402145 128.16 
L 1462.587992 128.16 
L 1452.9578 84.48288 
L 1452.9578 128.16 
L 1446.715818 128.16 
L 1446.715818 17.28 
z
" clip-path="url(#pa2266eaf0c)" style="fill: #bd2e1f"/>
   </g>
   <g id="patch_53">
    <path d="M 1471.648794 17.28 
L 1483.960749 17.28 
Q 1489.456717 17.28 1492.392835 26.690304 
Q 1495.335121 36.076845 1495.335121 53.447887 
Q 1495.335121 70.913982 1492.392835 80.300523 
Q 1489.456717 89.687064 1483.960749 89.687064 
L 1479.069276 89.687064 
L 1479.069276 128.16 
L 1471.648794 128.16 
L 1471.648794 17.28 
z
M 1479.069276 38.00168 
L 1479.069276 68.965384 
L 1483.171205 68.965384 
Q 1485.330115 68.965384 1486.508263 64.925607 
Q 1487.686411 60.885829 1487.686411 53.447887 
Q 1487.686411 46.033708 1486.508263 42.017694 
Q 1485.330115 38.00168 1483.171205 38.00168 
L 1479.069276 38.00168 
z
" clip-path="url(#pa2266eaf0c)" style="fill: #787800"/>
   </g>
   <g id="patch_54">
    <path d="M 1504.127097 17.28 
L 1512.722769 17.28 
L 1512.722769 128.16 
L 1504.127097 128.16 
L 1504.127097 17.28 
z
" clip-path="url(#pa2266eaf0c)" style="fill: #21599c"/>
   </g>
   <g id="patch_55">
    <path d="M 1537.922285 107.961114 
L 1528.812904 107.961114 
L 1527.374581 128.16 
L 1521.514745 128.16 
L 1529.883172 17.28 
L 1536.832646 17.28 
L 1545.201072 128.16 
L 1539.34608 128.16 
L 1537.922285 107.961114 
z
M 1530.265756 87.382015 
L 1536.454905 87.382015 
L 1533.365173 43.277154 
L 1530.265756 87.382015 
z
" clip-path="url(#pa2266eaf0c)" style="fill: #21599c"/>
   </g>
   <g id="patch_56">
    <path d="M 1570.134048 118.127891 
Q 1567.745243 123.143945 1565.175951 125.663425 
Q 1562.606659 128.16 1559.867496 128.16 
Q 1553.677837 128.16 1550.062779 113.226358 
Q 1546.447721 98.292716 1546.447721 72.754357 
Q 1546.447721 46.91824 1550.126481 32.09912 
Q 1553.810549 17.28 1560.217854 17.28 
Q 1562.686286 17.28 1564.947688 19.295584 
Q 1567.214398 21.288263 1569.220994 25.227812 
L 1569.220994 47.330518 
Q 1567.150696 42.268655 1565.101633 39.77208 
Q 1563.052569 37.252601 1560.992888 37.252601 
Q 1557.181418 37.252601 1555.116429 46.460153 
Q 1553.051439 55.644801 1553.051439 72.754357 
Q 1553.051439 89.703582 1555.04211 98.956943 
Q 1557.032781 108.187399 1560.695615 108.187399 
Q 1561.693604 108.187399 1562.548266 107.660599 
Q 1563.402927 107.110894 1564.082409 105.965677 
L 1564.082409 85.214328 
L 1560.180695 85.214328 
L 1560.180695 66.73051 
L 1570.134048 66.73051 
L 1570.134048 118.127891 
z
" clip-path="url(#pa2266eaf0c)" style="fill: #787800"/>
   </g>
   <g id="patch_57">
    <path d="M 1595.067024 118.127891 
Q 1592.678219 123.143945 1590.108927 125.663425 
Q 1587.539635 128.16 1584.800472 128.16 
Q 1578.610813 128.16 1574.995755 113.226358 
Q 1571.380697 98.292716 1571.380697 72.754357 
Q 1571.380697 46.91824 1575.059457 32.09912 
Q 1578.743524 17.28 1585.15083 17.28 
Q 1587.619261 17.28 1589.880663 19.295584 
Q 1592.147374 21.288263 1594.15397 25.227812 
L 1594.15397 47.330518 
Q 1592.083672 42.268655 1590.034609 39.77208 
Q 1587.985545 37.252601 1585.925864 37.252601 
Q 1582.114393 37.252601 1580.049404 46.460153 
Q 1577.984415 55.644801 1577.984415 72.754357 
Q 1577.984415 89.703582 1579.975086 98.956943 
Q 1581.965757 108.187399 1585.628591 108.187399 
Q 1586.62658 108.187399 1587.481242 107.660599 
Q 1588.335903 107.110894 1589.015385 105.965677 
L 1589.015385 85.214328 
L 1585.113671 85.214328 
L 1585.113671 66.73051 
L 1595.067024 66.73051 
L 1595.067024 118.127891 
z
" clip-path="url(#pa2266eaf0c)" style="fill: #787800"/>
   </g>
   <g id="patch_58">
    <path d="M 1620 120.212188 
Q 1618.01868 124.151737 1615.876228 126.144416 
Q 1613.733776 128.16 1611.400353 128.16 
Q 1604.441861 128.16 1600.377767 113.226358 
Q 1596.313673 98.292716 1596.313673 72.754357 
Q 1596.313673 47.124379 1600.377767 32.213642 
Q 1604.441861 17.28 1611.400353 17.28 
Q 1613.733776 17.28 1615.876228 19.295584 
Q 1618.01868 21.288263 1620 25.227812 
L 1620 47.330518 
Q 1618.000776 42.108325 1616.061231 39.680463 
Q 1614.121685 37.252601 1611.979233 37.252601 
Q 1608.135949 37.252601 1605.933819 46.712101 
Q 1603.737657 56.148697 1603.737657 72.754357 
Q 1603.737657 89.291303 1605.933819 98.750804 
Q 1608.135949 108.187399 1611.979233 108.187399 
Q 1614.121685 108.187399 1616.061231 105.759537 
Q 1618.000776 103.308771 1620 98.086577 
L 1620 120.212188 
z
" clip-path="url(#pa2266eaf0c)" style="fill: #6b296b"/>
   </g>
   <g id="matplotlib.axis_1">
    <g id="xtick_1">
     <g id="line2d_2">
      <defs>
       <path id="m5d44d3f31f" d="M 0 0 
L 0 3.5 
" style="stroke: #000000; stroke-width: 0.8"/>
      </defs>
      <g>
       <use xlink:href="#m5d44d3f31f" x="236.843164" y="128.16" style="stroke: #000000; stroke-width: 0.8"/>
      </g>
     </g>
     <g id="text_1">
      <!-- 0 -->
      <g transform="translate(233.661914 142.758438) scale(0.1 -0.1)">
       <defs>
        <path id="DejaVuSans-30" d="M 2034 4250 
Q 1547 4250 1301 3770 
Q 1056 3291 1056 2328 
Q 1056 1369 1301 889 
Q 1547 409 2034 409 
Q 2525 409 2770 889 
Q 3016 1369 3016 2328 
Q 3016 3291 2770 3770 
Q 2525 4250 2034 4250 
z
M 2034 4750 
Q 2819 4750 3233 4129 
Q 3647 3509 3647 2328 
Q 3647 1150 3233 529 
Q 2819 -91 2034 -91 
Q 1250 -91 836 529 
Q 422 1150 422 2328 
Q 422 3509 836 4129 
Q 1250 4750 2034 4750 
z
" transform="scale(0.015625)"/>
       </defs>
       <use xlink:href="#DejaVuSans-30"/>
      </g>
     </g>
    </g>
    <g id="xtick_2">
     <g id="line2d_3">
      <g>
       <use xlink:href="#m5d44d3f31f" x="486.172922" y="128.16" style="stroke: #000000; stroke-width: 0.8"/>
      </g>
     </g>
     <g id="text_2">
      <!-- 10 -->
      <g transform="translate(479.810422 142.758438) scale(0.1 -0.1)">
       <defs>
        <path id="DejaVuSans-31" d="M 794 531 
L 1825 531 
L 1825 4091 
L 703 3866 
L 703 4441 
L 1819 4666 
L 2450 4666 
L 2450 531 
L 3481 531 
L 3481 0 
L 794 0 
L 794 531 
z
" transform="scale(0.015625)"/>
       </defs>
       <use xlink:href="#DejaVuSans-31"/>
       <use xlink:href="#DejaVuSans-30" x="63.623047"/>
      </g>
     </g>
    </g>
    <g id="xtick_3">
     <g id="line2d_4">
      <g>
       <use xlink:href="#m5d44d3f31f" x="735.502681" y="128.16" style="stroke: #000000; stroke-width: 0.8"/>
      </g>
     </g>
     <g id="text_3">
      <!-- 20 -->
      <g transform="translate(729.140181 142.758438) scale(0.1 -0.1)">
       <defs>
        <path id="DejaVuSans-32" d="M 1228 531 
L 3431 531 
L 3431 0 
L 469 0 
L 469 531 
Q 828 903 1448 1529 
Q 2069 2156 2228 2338 
Q 2531 2678 2651 2914 
Q 2772 3150 2772 3378 
Q 2772 3750 2511 3984 
Q 2250 4219 1831 4219 
Q 1534 4219 1204 4116 
Q 875 4013 500 3803 
L 500 4441 
Q 881 4594 1212 4672 
Q 1544 4750 1819 4750 
Q 2544 4750 2975 4387 
Q 3406 4025 3406 3419 
Q 3406 3131 3298 2873 
Q 3191 2616 2906 2266 
Q 2828 2175 2409 1742 
Q 1991 1309 1228 531 
z
" transform="scale(0.015625)"/>
       </defs>
       <use xlink:href="#DejaVuSans-32"/>
       <use xlink:href="#DejaVuSans-30" x="63.623047"/>
      </g>
     </g>
    </g>
    <g id="xtick_4">
     <g id="line2d_5">
      <g>
       <use xlink:href="#m5d44d3f31f" x="984.83244" y="128.16" style="stroke: #000000; stroke-width: 0.8"/>
      </g>
     </g>
     <g id="text_4">
      <!-- 30 -->
      <g transform="translate(978.46994 142.758438) scale(0.1 -0.1)">
       <defs>
        <path id="DejaVuSans-33" d="M 2597 2516 
Q 3050 2419 3304 2112 
Q 3559 1806 3559 1356 
Q 3559 666 3084 287 
Q 2609 -91 1734 -91 
Q 1441 -91 1130 -33 
Q 819 25 488 141 
L 488 750 
Q 750 597 1062 519 
Q 1375 441 1716 441 
Q 2309 441 2620 675 
Q 2931 909 2931 1356 
Q 2931 1769 2642 2001 
Q 2353 2234 1838 2234 
L 1294 2234 
L 1294 2753 
L 1863 2753 
Q 2328 2753 2575 2939 
Q 2822 3125 2822 3475 
Q 2822 3834 2567 4026 
Q 2313 4219 1838 4219 
Q 1578 4219 1281 4162 
Q 984 4106 628 3988 
L 628 4550 
Q 988 4650 1302 4700 
Q 1616 4750 1894 4750 
Q 2613 4750 3031 4423 
Q 3450 4097 3450 3541 
Q 3450 3153 3228 2886 
Q 3006 2619 2597 2516 
z
" transform="scale(0.015625)"/>
       </defs>
       <use xlink:href="#DejaVuSans-33"/>
       <use xlink:href="#DejaVuSans-30" x="63.623047"/>
      </g>
     </g>
    </g>
    <g id="xtick_5">
     <g id="line2d_6">
      <g>
       <use xlink:href="#m5d44d3f31f" x="1234.162198" y="128.16" style="stroke: #000000; stroke-width: 0.8"/>
      </g>
     </g>
     <g id="text_5">
      <!-- 40 -->
      <g transform="translate(1227.799698 142.758438) scale(0.1 -0.1)">
       <defs>
        <path id="DejaVuSans-34" d="M 2419 4116 
L 825 1625 
L 2419 1625 
L 2419 4116 
z
M 2253 4666 
L 3047 4666 
L 3047 1625 
L 3713 1625 
L 3713 1100 
L 3047 1100 
L 3047 0 
L 2419 0 
L 2419 1100 
L 313 1100 
L 313 1709 
L 2253 4666 
z
" transform="scale(0.015625)"/>
       </defs>
       <use xlink:href="#DejaVuSans-34"/>
       <use xlink:href="#DejaVuSans-30" x="63.623047"/>
      </g>
     </g>
    </g>
    <g id="xtick_6">
     <g id="line2d_7">
      <g>
       <use xlink:href="#m5d44d3f31f" x="1483.491957" y="128.16" style="stroke: #000000; stroke-width: 0.8"/>
      </g>
     </g>
     <g id="text_6">
      <!-- 50 -->
      <g transform="translate(1477.129457 142.758438) scale(0.1 -0.1)">
       <defs>
        <path id="DejaVuSans-35" d="M 691 4666 
L 3169 4666 
L 3169 4134 
L 1269 4134 
L 1269 2991 
Q 1406 3038 1543 3061 
Q 1681 3084 1819 3084 
Q 2600 3084 3056 2656 
Q 3513 2228 3513 1497 
Q 3513 744 3044 326 
Q 2575 -91 1722 -91 
Q 1428 -91 1123 -41 
Q 819 9 494 109 
L 494 744 
Q 775 591 1075 516 
Q 1375 441 1709 441 
Q 2250 441 2565 725 
Q 2881 1009 2881 1497 
Q 2881 1984 2565 2268 
Q 2250 2553 1709 2553 
Q 1456 2553 1204 2497 
Q 953 2441 691 2322 
L 691 4666 
z
" transform="scale(0.015625)"/>
       </defs>
       <use xlink:href="#DejaVuSans-35"/>
       <use xlink:href="#DejaVuSans-30" x="63.623047"/>
      </g>
     </g>
    </g>
   </g>
   <g id="matplotlib.axis_2">
    <g id="ytick_1">
     <g id="line2d_8">
      <defs>
       <path id="mb29f112b4a" d="M 0 0 
L -3.5 0 
" style="stroke: #000000; stroke-width: 0.8"/>
      </defs>
      <g>
       <use xlink:href="#mb29f112b4a" x="225" y="128.16" style="stroke: #000000; stroke-width: 0.8"/>
      </g>
     </g>
     <g id="text_7">
      <!-- 0.0 -->
      <g transform="translate(202.096875 131.959219) scale(0.1 -0.1)">
       <defs>
        <path id="DejaVuSans-2e" d="M 684 794 
L 1344 794 
L 1344 0 
L 684 0 
L 684 794 
z
" transform="scale(0.015625)"/>
       </defs>
       <use xlink:href="#DejaVuSans-30"/>
       <use xlink:href="#DejaVuSans-2e" x="63.623047"/>
       <use xlink:href="#DejaVuSans-30" x="95.410156"/>
      </g>
     </g>
    </g>
    <g id="ytick_2">
     <g id="line2d_9">
      <g>
       <use xlink:href="#mb29f112b4a" x="225" y="105.984" style="stroke: #000000; stroke-width: 0.8"/>
      </g>
     </g>
     <g id="text_8">
      <!-- 0.2 -->
      <g transform="translate(202.096875 109.783219) scale(0.1 -0.1)">
       <use xlink:href="#DejaVuSans-30"/>
       <use xlink:href="#DejaVuSans-2e" x="63.623047"/>
       <use xlink:href="#DejaVuSans-32" x="95.410156"/>
      </g>
     </g>
    </g>
    <g id="ytick_3">
     <g id="line2d_10">
      <g>
       <use xlink:href="#mb29f112b4a" x="225" y="83.808" style="stroke: #000000; stroke-width: 0.8"/>
      </g>
     </g>
     <g id="text_9">
      <!-- 0.4 -->
      <g transform="translate(202.096875 87.607219) scale(0.1 -0.1)">
       <use xlink:href="#DejaVuSans-30"/>
       <use xlink:href="#DejaVuSans-2e" x="63.623047"/>
       <use xlink:href="#DejaVuSans-34" x="95.410156"/>
      </g>
     </g>
    </g>
    <g id="ytick_4">
     <g id="line2d_11">
      <g>
       <use xlink:href="#mb29f112b4a" x="225" y="61.632" style="stroke: #000000; stroke-width: 0.8"/>
      </g>
     </g>
     <g id="text_10">
      <!-- 0.6 -->
      <g transform="translate(202.096875 65.431219) scale(0.1 -0.1)">
       <defs>
        <path id="DejaVuSans-36" d="M 2113 2584 
Q 1688 2584 1439 2293 
Q 1191 2003 1191 1497 
Q 1191 994 1439 701 
Q 1688 409 2113 409 
Q 2538 409 2786 701 
Q 3034 994 3034 1497 
Q 3034 2003 2786 2293 
Q 2538 2584 2113 2584 
z
M 3366 4563 
L 3366 3988 
Q 3128 4100 2886 4159 
Q 2644 4219 2406 4219 
Q 1781 4219 1451 3797 
Q 1122 3375 1075 2522 
Q 1259 2794 1537 2939 
Q 1816 3084 2150 3084 
Q 2853 3084 3261 2657 
Q 3669 2231 3669 1497 
Q 3669 778 3244 343 
Q 2819 -91 2113 -91 
Q 1303 -91 875 529 
Q 447 1150 447 2328 
Q 447 3434 972 4092 
Q 1497 4750 2381 4750 
Q 2619 4750 2861 4703 
Q 3103 4656 3366 4563 
z
" transform="scale(0.015625)"/>
       </defs>
       <use xlink:href="#DejaVuSans-30"/>
       <use xlink:href="#DejaVuSans-2e" x="63.623047"/>
       <use xlink:href="#DejaVuSans-36" x="95.410156"/>
      </g>
     </g>
    </g>
    <g id="ytick_5">
     <g id="line2d_12">
      <g>
       <use xlink:href="#mb29f112b4a" x="225" y="39.456" style="stroke: #000000; stroke-width: 0.8"/>
      </g>
     </g>
     <g id="text_11">
      <!-- 0.8 -->
      <g transform="translate(202.096875 43.255219) scale(0.1 -0.1)">
       <defs>
        <path id="DejaVuSans-38" d="M 2034 2216 
Q 1584 2216 1326 1975 
Q 1069 1734 1069 1313 
Q 1069 891 1326 650 
Q 1584 409 2034 409 
Q 2484 409 2743 651 
Q 3003 894 3003 1313 
Q 3003 1734 2745 1975 
Q 2488 2216 2034 2216 
z
M 1403 2484 
Q 997 2584 770 2862 
Q 544 3141 544 3541 
Q 544 4100 942 4425 
Q 1341 4750 2034 4750 
Q 2731 4750 3128 4425 
Q 3525 4100 3525 3541 
Q 3525 3141 3298 2862 
Q 3072 2584 2669 2484 
Q 3125 2378 3379 2068 
Q 3634 1759 3634 1313 
Q 3634 634 3220 271 
Q 2806 -91 2034 -91 
Q 1263 -91 848 271 
Q 434 634 434 1313 
Q 434 1759 690 2068 
Q 947 2378 1403 2484 
z
M 1172 3481 
Q 1172 3119 1398 2916 
Q 1625 2713 2034 2713 
Q 2441 2713 2670 2916 
Q 2900 3119 2900 3481 
Q 2900 3844 2670 4047 
Q 2441 4250 2034 4250 
Q 1625 4250 1398 4047 
Q 1172 3844 1172 3481 
z
" transform="scale(0.015625)"/>
       </defs>
       <use xlink:href="#DejaVuSans-30"/>
       <use xlink:href="#DejaVuSans-2e" x="63.623047"/>
       <use xlink:href="#DejaVuSans-38" x="95.410156"/>
      </g>
     </g>
    </g>
    <g id="ytick_6">
     <g id="line2d_13">
      <g>
       <use xlink:href="#mb29f112b4a" x="225" y="17.28" style="stroke: #000000; stroke-width: 0.8"/>
      </g>
     </g>
     <g id="text_12">
      <!-- 1.0 -->
      <g transform="translate(202.096875 21.079219) scale(0.1 -0.1)">
       <use xlink:href="#DejaVuSans-31"/>
       <use xlink:href="#DejaVuSans-2e" x="63.623047"/>
       <use xlink:href="#DejaVuSans-30" x="95.410156"/>
      </g>
     </g>
    </g>
   </g>
  </g>
 </g>
 <defs>
  <clipPath id="pa2266eaf0c">
   <rect x="225" y="17.28" width="1395" height="110.88"/>
  </clipPath>
 </defs>
</svg>
