<?xml version="1.0" encoding="utf-8" standalone="no"?>
<!DOCTYPE svg PUBLIC "-//W3C//DTD SVG 1.1//EN"
  "http://www.w3.org/Graphics/SVG/1.1/DTD/svg11.dtd">
<svg xmlns:xlink="http://www.w3.org/1999/xlink" width="1800pt" height="144pt" viewBox="0 0 1800 144" xmlns="http://www.w3.org/2000/svg" version="1.1">
 <metadata>
  <rdf:RDF xmlns:dc="http://purl.org/dc/elements/1.1/" xmlns:cc="http://creativecommons.org/ns#" xmlns:rdf="http://www.w3.org/1999/02/22-rdf-syntax-ns#">
   <cc:Work>
    <dc:type rdf:resource="http://purl.org/dc/dcmitype/StillImage"/>
    <dc:date>2025-05-09T21:11:13.511428</dc:date>
    <dc:format>image/svg+xml</dc:format>
    <dc:creator>
     <cc:Agent>
      <dc:title>Matplotlib v3.8.0, https://matplotlib.org/</dc:title>
     </cc:Agent>
    </dc:creator>
   </cc:Work>
  </rdf:RDF>
 </metadata>
 <defs>
  <style type="text/css">*{stroke-linejoin: round; stroke-linecap: butt}</style>
 </defs>
 <g id="figure_1">
  <g id="patch_1">
   <path d="M 0 144 
L 1800 144 
L 1800 0 
L 0 0 
z
" style="fill: #ffffff"/>
  </g>
  <g id="axes_1">
   <g id="patch_2">
    <path d="M 225 128.16 
L 1620 128.16 
L 1620 17.28 
L 225 17.28 
z
" style="fill: #ffffff"/>
   </g>
   <g id="line2d_1">
    <path d="M 225 128.16 
L 1620 128.16 
" clip-path="url(#p492f0c77fa)" style="fill: none; stroke: #000000; stroke-width: 1.5; stroke-linecap: square"/>
   </g>
   <g id="patch_3">
    <path d="M 225 17.28 
L 228.621454 17.28 
L 231.133528 76.617197 
L 233.662159 17.28 
L 237.276517 17.28 
L 237.276517 128.16 
L 234.587037 128.16 
L 234.587037 47.055534 
L 232.044213 106.844235 
L 230.2394 106.844235 
L 227.696576 47.055534 
L 227.696576 128.16 
L 225 128.16 
L 225 17.28 
z
" clip-path="url(#p492f0c77fa)" style="fill: #21599c"/>
   </g>
   <g id="patch_4">
    <path d="M 242.903791 66.446464 
Q 244.005529 66.446464 244.483532 63.119589 
Q 244.961535 59.76895 244.961535 52.117137 
Q 244.961535 44.536614 244.483532 41.281029 
Q 244.005529 38.00168 242.903791 38.00168 
L 241.428976 38.00168 
L 241.428976 66.446464 
L 242.903791 66.446464 
z
M 241.428976 86.193845 
L 241.428976 128.16 
L 237.922649 128.16 
L 237.922649 17.28 
L 243.276866 17.28 
Q 245.964176 17.28 247.214562 24.646652 
Q 248.467863 31.989541 248.467863 47.887252 
Q 248.467863 58.865941 247.81498 65.923669 
Q 247.165013 72.981397 245.853419 76.332036 
Q 246.573338 77.662786 247.141696 82.391702 
Q 247.712968 87.096854 248.295898 96.673502 
L 250.199166 128.16 
L 246.465496 128.16 
L 244.807059 100.618225 
Q 244.305739 92.301037 243.789845 89.259323 
Q 243.276866 86.193845 242.419958 86.193845 
L 241.428976 86.193845 
z
" clip-path="url(#p492f0c77fa)" style="fill: #bd2e1f"/>
   </g>
   <g id="patch_5">
    <path d="M 259.349253 107.961114 
L 254.627902 107.961114 
L 253.882425 128.16 
L 250.845299 128.16 
L 255.182617 17.28 
L 258.784498 17.28 
L 263.121816 128.16 
L 260.087199 128.16 
L 259.349253 107.961114 
z
M 255.380908 87.382015 
L 258.588716 87.382015 
L 256.987322 43.277154 
L 255.380908 87.382015 
z
" clip-path="url(#p492f0c77fa)" style="fill: #21599c"/>
   </g>
   <g id="patch_6">
    <path d="M 263.767948 17.28 
L 268.223046 17.28 
L 268.223046 106.559074 
L 276.044465 106.559074 
L 276.044465 128.16 
L 263.767948 128.16 
L 263.767948 17.28 
z
" clip-path="url(#p492f0c77fa)" style="fill: #21599c"/>
   </g>
   <g id="patch_7">
    <path d="M 276.690597 17.28 
L 279.727724 17.28 
L 282.832621 99.121132 
L 285.932498 17.28 
L 288.967114 17.28 
L 284.629797 128.16 
L 281.027915 128.16 
L 276.690597 17.28 
z
" clip-path="url(#p492f0c77fa)" style="fill: #21599c"/>
   </g>
   <g id="patch_8">
    <path d="M 289.613247 17.28 
L 293.145572 17.28 
L 293.145572 59.531316 
L 298.357439 59.531316 
L 298.357439 17.28 
L 301.889764 17.28 
L 301.889764 128.16 
L 298.357439 128.16 
L 298.357439 81.156005 
L 293.145572 81.156005 
L 293.145572 128.16 
L 289.613247 128.16 
L 289.613247 17.28 
z
" clip-path="url(#p492f0c77fa)" style="fill: #177875"/>
   </g>
   <g id="patch_9">
    <path d="M 302.535896 17.28 
L 306.068221 17.28 
L 306.068221 59.531316 
L 311.280088 59.531316 
L 311.280088 17.28 
L 314.812413 17.28 
L 314.812413 128.16 
L 311.280088 128.16 
L 311.280088 81.156005 
L 306.068221 81.156005 
L 306.068221 128.16 
L 302.535896 128.16 
L 302.535896 17.28 
z
" clip-path="url(#p492f0c77fa)" style="fill: #177875"/>
   </g>
   <g id="patch_10">
    <path d="M 315.458546 17.28 
L 321.839777 17.28 
Q 324.688312 17.28 326.210089 26.690304 
Q 327.735063 36.076845 327.735063 53.447887 
Q 327.735063 70.913982 326.210089 80.300523 
Q 324.688312 89.687064 321.839777 89.687064 
L 319.304548 89.687064 
L 319.304548 128.16 
L 315.458546 128.16 
L 315.458546 17.28 
z
M 319.304548 38.00168 
L 319.304548 68.965384 
L 321.43056 68.965384 
Q 322.549513 68.965384 323.160142 64.925607 
Q 323.770771 60.885829 323.770771 53.447887 
Q 323.770771 46.033708 323.160142 42.017694 
Q 322.549513 38.00168 321.43056 38.00168 
L 319.304548 38.00168 
z
" clip-path="url(#p492f0c77fa)" style="fill: #787800"/>
   </g>
   <g id="patch_11">
    <path d="M 336.885149 107.961114 
L 332.163798 107.961114 
L 331.418321 128.16 
L 328.381195 128.16 
L 332.718513 17.28 
L 336.320394 17.28 
L 340.657712 128.16 
L 337.623095 128.16 
L 336.885149 107.961114 
z
M 332.916804 87.382015 
L 336.124612 87.382015 
L 334.523218 43.277154 
L 332.916804 87.382015 
z
" clip-path="url(#p492f0c77fa)" style="fill: #21599c"/>
   </g>
   <g id="patch_12">
    <path d="M 353.580361 118.127891 
Q 352.342254 123.143945 351.010602 125.663425 
Q 349.678949 128.16 348.259253 128.16 
Q 345.051181 128.16 343.177513 113.226358 
Q 341.303844 98.292716 341.303844 72.754357 
Q 341.303844 46.91824 343.210529 32.09912 
Q 345.119965 17.28 348.440842 17.28 
Q 349.720219 17.28 350.892294 19.295584 
Q 352.06712 21.288263 353.107129 25.227812 
L 353.107129 47.330518 
Q 352.034103 42.268655 350.972083 39.77208 
Q 349.910062 37.252601 348.842539 37.252601 
Q 346.867071 37.252601 345.796796 46.460153 
Q 344.726522 55.644801 344.726522 72.754357 
Q 344.726522 89.703582 345.758278 98.956943 
Q 346.790033 108.187399 348.688464 108.187399 
Q 349.205717 108.187399 349.648684 107.660599 
Q 350.091651 107.110894 350.443824 105.965677 
L 350.443824 85.214328 
L 348.421583 85.214328 
L 348.421583 66.73051 
L 353.580361 66.73051 
L 353.580361 118.127891 
z
" clip-path="url(#p492f0c77fa)" style="fill: #787800"/>
   </g>
   <g id="patch_13">
    <path d="M 354.226494 17.28 
L 357.26362 17.28 
L 360.368517 99.121132 
L 363.468394 17.28 
L 366.503011 17.28 
L 362.165693 128.16 
L 358.563812 128.16 
L 354.226494 17.28 
z
" clip-path="url(#p492f0c77fa)" style="fill: #21599c"/>
   </g>
   <g id="patch_14">
    <path d="M 373.614775 111.578719 
L 373.37436 111.578719 
Q 370.425439 111.578719 368.786012 99.152512 
Q 367.149143 86.706798 367.149143 64.526897 
Q 367.149143 42.38601 368.783454 29.842759 
Q 370.417766 17.28 373.287402 17.28 
Q 376.187729 17.28 377.806694 29.725714 
Q 379.42566 42.151921 379.42566 64.526897 
Q 379.42566 79.879212 378.566304 90.978916 
Q 377.706948 102.078621 376.093097 107.677241 
L 378.497248 128.16 
L 375.563672 128.16 
L 373.614775 111.578719 
z
M 373.287402 34.290443 
Q 371.880717 34.290443 371.105762 42.210443 
Q 370.330807 50.130443 370.330807 64.526897 
Q 370.330807 79.157438 371.087859 86.940887 
Q 371.847468 94.704828 373.287402 94.704828 
Q 374.701759 94.704828 375.476714 86.784828 
Q 376.251669 78.84532 376.251669 64.526897 
Q 376.251669 50.130443 375.476714 42.210443 
Q 374.701759 34.290443 373.287402 34.290443 
z
" clip-path="url(#p492f0c77fa)" style="fill: #40ba47"/>
   </g>
   <g id="patch_15">
    <path d="M 380.071792 17.28 
L 383.604117 17.28 
L 383.604117 59.531316 
L 388.815985 59.531316 
L 388.815985 17.28 
L 392.348309 17.28 
L 392.348309 128.16 
L 388.815985 128.16 
L 388.815985 81.156005 
L 383.604117 81.156005 
L 383.604117 128.16 
L 380.071792 128.16 
L 380.071792 17.28 
z
" clip-path="url(#p492f0c77fa)" style="fill: #177875"/>
   </g>
   <g id="patch_16">
    <path d="M 396.358599 38.904689 
L 396.358599 106.559074 
L 397.563879 106.559074 
Q 399.62488 106.559074 400.712708 97.861672 
Q 401.803332 89.164269 401.803332 72.601183 
Q 401.803332 56.13315 400.718301 47.530802 
Q 399.636065 38.904689 397.563879 38.904689 
L 396.358599 38.904689 
z
M 392.994442 17.28 
L 396.54037 17.28 
Q 399.513021 17.28 400.967187 20.892036 
Q 402.421353 24.480309 403.461641 33.106421 
Q 404.378884 40.615654 404.823523 50.429936 
Q 405.270959 60.220454 405.270959 72.601183 
Q 405.270959 85.172019 404.823523 95.010064 
Q 404.378884 104.84811 403.461641 112.333579 
Q 402.412963 120.959691 400.944815 124.571727 
Q 399.476667 128.16 396.54037 128.16 
L 392.994442 128.16 
L 392.994442 17.28 
z
" clip-path="url(#p492f0c77fa)" style="fill: #6b296b"/>
   </g>
   <g id="patch_17">
    <path d="M 405.917091 17.28 
L 409.449416 17.28 
L 409.449416 59.531316 
L 414.661283 59.531316 
L 414.661283 17.28 
L 418.193608 17.28 
L 418.193608 128.16 
L 414.661283 128.16 
L 414.661283 81.156005 
L 409.449416 81.156005 
L 409.449416 128.16 
L 405.917091 128.16 
L 405.917091 17.28 
z
" clip-path="url(#p492f0c77fa)" style="fill: #177875"/>
   </g>
   <g id="patch_18">
    <path d="M 427.343695 107.961114 
L 422.622344 107.961114 
L 421.876867 128.16 
L 418.839741 128.16 
L 423.177058 17.28 
L 426.77894 17.28 
L 431.116258 128.16 
L 428.081641 128.16 
L 427.343695 107.961114 
z
M 423.37535 87.382015 
L 426.583158 87.382015 
L 424.981764 43.277154 
L 423.37535 87.382015 
z
" clip-path="url(#p492f0c77fa)" style="fill: #21599c"/>
   </g>
   <g id="patch_19">
    <path d="M 431.76239 17.28 
L 434.799516 17.28 
L 437.904413 99.121132 
L 441.00429 17.28 
L 444.038907 17.28 
L 439.701589 128.16 
L 436.099708 128.16 
L 431.76239 17.28 
z
" clip-path="url(#p492f0c77fa)" style="fill: #21599c"/>
   </g>
   <g id="patch_20">
    <path d="M 456.961556 118.127891 
Q 455.723449 123.143945 454.391797 125.663425 
Q 453.060144 128.16 451.640448 128.16 
Q 448.432376 128.16 446.558708 113.226358 
Q 444.685039 98.292716 444.685039 72.754357 
Q 444.685039 46.91824 446.591724 32.09912 
Q 448.50116 17.28 451.822037 17.28 
Q 453.101414 17.28 454.273489 19.295584 
Q 455.448315 21.288263 456.488324 25.227812 
L 456.488324 47.330518 
Q 455.415298 42.268655 454.353278 39.77208 
Q 453.291257 37.252601 452.223734 37.252601 
Q 450.248266 37.252601 449.177991 46.460153 
Q 448.107717 55.644801 448.107717 72.754357 
Q 448.107717 89.703582 449.139473 98.956943 
Q 450.171228 108.187399 452.069659 108.187399 
Q 452.586912 108.187399 453.029879 107.660599 
Q 453.472846 107.110894 453.825019 105.965677 
L 453.825019 85.214328 
L 451.802778 85.214328 
L 451.802778 66.73051 
L 456.961556 66.73051 
L 456.961556 118.127891 
z
" clip-path="url(#p492f0c77fa)" style="fill: #787800"/>
   </g>
   <g id="patch_21">
    <path d="M 457.607689 17.28 
L 460.644815 17.28 
L 463.749712 99.121132 
L 466.849589 17.28 
L 469.884206 17.28 
L 465.546888 128.16 
L 461.945007 128.16 
L 457.607689 17.28 
z
" clip-path="url(#p492f0c77fa)" style="fill: #21599c"/>
   </g>
   <g id="patch_22">
    <path d="M 470.530338 17.28 
L 476.911569 17.28 
Q 479.760105 17.28 481.281881 26.690304 
Q 482.806855 36.076845 482.806855 53.447887 
Q 482.806855 70.913982 481.281881 80.300523 
Q 479.760105 89.687064 476.911569 89.687064 
L 474.376341 89.687064 
L 474.376341 128.16 
L 470.530338 128.16 
L 470.530338 17.28 
z
M 474.376341 38.00168 
L 474.376341 68.965384 
L 476.502352 68.965384 
Q 477.621305 68.965384 478.231934 64.925607 
Q 478.842563 60.885829 478.842563 53.447887 
Q 478.842563 46.033708 478.231934 42.017694 
Q 477.621305 38.00168 476.502352 38.00168 
L 474.376341 38.00168 
z
" clip-path="url(#p492f0c77fa)" style="fill: #787800"/>
   </g>
   <g id="patch_23">
    <path d="M 495.729504 118.127891 
Q 494.491398 123.143945 493.159745 125.663425 
Q 491.828092 128.16 490.408396 128.16 
Q 487.200324 128.16 485.326656 113.226358 
Q 483.452987 98.292716 483.452987 72.754357 
Q 483.452987 46.91824 485.359672 32.09912 
Q 487.269108 17.28 490.589985 17.28 
Q 491.869362 17.28 493.041437 19.295584 
Q 494.216263 21.288263 495.256272 25.227812 
L 495.256272 47.330518 
Q 494.183247 42.268655 493.121226 39.77208 
Q 492.059206 37.252601 490.991682 37.252601 
Q 489.016214 37.252601 487.94594 46.460153 
Q 486.875665 55.644801 486.875665 72.754357 
Q 486.875665 89.703582 487.907421 98.956943 
Q 488.939176 108.187399 490.837607 108.187399 
Q 491.35486 108.187399 491.797827 107.660599 
Q 492.240795 107.110894 492.592967 105.965677 
L 492.592967 85.214328 
L 490.570726 85.214328 
L 490.570726 66.73051 
L 495.729504 66.73051 
L 495.729504 118.127891 
z
" clip-path="url(#p492f0c77fa)" style="fill: #787800"/>
   </g>
   <g id="patch_24">
    <path d="M 501.356778 66.446464 
Q 502.458517 66.446464 502.93652 63.119589 
Q 503.414523 59.76895 503.414523 52.117137 
Q 503.414523 44.536614 502.93652 41.281029 
Q 502.458517 38.00168 501.356778 38.00168 
L 499.881964 38.00168 
L 499.881964 66.446464 
L 501.356778 66.446464 
z
M 499.881964 86.193845 
L 499.881964 128.16 
L 496.375637 128.16 
L 496.375637 17.28 
L 501.729854 17.28 
Q 504.417163 17.28 505.667549 24.646652 
Q 506.92085 31.989541 506.92085 47.887252 
Q 506.92085 58.865941 506.267968 65.923669 
Q 505.618 72.981397 504.306407 76.332036 
Q 505.026326 77.662786 505.594683 82.391702 
Q 506.165955 87.096854 506.748886 96.673502 
L 508.652154 128.16 
L 504.918484 128.16 
L 503.260046 100.618225 
Q 502.758726 92.301037 502.242833 89.259323 
Q 501.729854 86.193845 500.872946 86.193845 
L 499.881964 86.193845 
z
" clip-path="url(#p492f0c77fa)" style="fill: #bd2e1f"/>
   </g>
   <g id="patch_25">
    <path d="M 521.574803 118.127891 
Q 520.336696 123.143945 519.005044 125.663425 
Q 517.673391 128.16 516.253695 128.16 
Q 513.045623 128.16 511.171955 113.226358 
Q 509.298286 98.292716 509.298286 72.754357 
Q 509.298286 46.91824 511.204971 32.09912 
Q 513.114407 17.28 516.435284 17.28 
Q 517.714661 17.28 518.886736 19.295584 
Q 520.061561 21.288263 521.101571 25.227812 
L 521.101571 47.330518 
Q 520.028545 42.268655 518.966525 39.77208 
Q 517.904504 37.252601 516.836981 37.252601 
Q 514.861513 37.252601 513.791238 46.460153 
Q 512.720964 55.644801 512.720964 72.754357 
Q 512.720964 89.703582 513.752719 98.956943 
Q 514.784475 108.187399 516.682906 108.187399 
Q 517.200159 108.187399 517.643126 107.660599 
Q 518.086093 107.110894 518.438266 105.965677 
L 518.438266 85.214328 
L 516.416025 85.214328 
L 516.416025 66.73051 
L 521.574803 66.73051 
L 521.574803 118.127891 
z
" clip-path="url(#p492f0c77fa)" style="fill: #787800"/>
   </g>
   <g id="patch_26">
    <path d="M 525.585093 38.904689 
L 525.585093 106.559074 
L 526.790373 106.559074 
Q 528.851373 106.559074 529.939201 97.861672 
Q 531.029826 89.164269 531.029826 72.601183 
Q 531.029826 56.13315 529.944794 47.530802 
Q 528.862559 38.904689 526.790373 38.904689 
L 525.585093 38.904689 
z
M 522.220936 17.28 
L 525.766864 17.28 
Q 528.739514 17.28 530.19368 20.892036 
Q 531.647846 24.480309 532.688134 33.106421 
Q 533.605378 40.615654 534.050017 50.429936 
Q 534.497453 60.220454 534.497453 72.601183 
Q 534.497453 85.172019 534.050017 95.010064 
Q 533.605378 104.84811 532.688134 112.333579 
Q 531.639457 120.959691 530.171309 124.571727 
Q 528.70316 128.16 525.766864 128.16 
L 522.220936 128.16 
L 522.220936 17.28 
z
" clip-path="url(#p492f0c77fa)" style="fill: #6b296b"/>
   </g>
   <g id="patch_27">
    <path d="M 543.647539 107.961114 
L 538.926188 107.961114 
L 538.180711 128.16 
L 535.143585 128.16 
L 539.480903 17.28 
L 543.082784 17.28 
L 547.420102 128.16 
L 544.385485 128.16 
L 543.647539 107.961114 
z
M 539.679194 87.382015 
L 542.887002 87.382015 
L 541.285608 43.277154 
L 539.679194 87.382015 
z
" clip-path="url(#p492f0c77fa)" style="fill: #21599c"/>
   </g>
   <g id="patch_28">
    <path d="M 548.066234 17.28 
L 551.103361 17.28 
L 554.208258 99.121132 
L 557.308135 17.28 
L 560.342751 17.28 
L 556.005434 128.16 
L 552.403552 128.16 
L 548.066234 17.28 
z
" clip-path="url(#p492f0c77fa)" style="fill: #21599c"/>
   </g>
   <g id="patch_29">
    <path d="M 573.265401 118.127891 
Q 572.027294 123.143945 570.695641 125.663425 
Q 569.363989 128.16 567.944293 128.16 
Q 564.73622 128.16 562.862552 113.226358 
Q 560.988884 98.292716 560.988884 72.754357 
Q 560.988884 46.91824 562.895568 32.09912 
Q 564.805004 17.28 568.125882 17.28 
Q 569.405259 17.28 570.577333 19.295584 
Q 571.752159 21.288263 572.792169 25.227812 
L 572.792169 47.330518 
Q 571.719143 42.268655 570.657122 39.77208 
Q 569.595102 37.252601 568.527579 37.252601 
Q 566.55211 37.252601 565.481836 46.460153 
Q 564.411561 55.644801 564.411561 72.754357 
Q 564.411561 89.703582 565.443317 98.956943 
Q 566.475073 108.187399 568.373503 108.187399 
Q 568.890757 108.187399 569.333724 107.660599 
Q 569.776691 107.110894 570.128863 105.965677 
L 570.128863 85.214328 
L 568.106622 85.214328 
L 568.106622 66.73051 
L 573.265401 66.73051 
L 573.265401 118.127891 
z
" clip-path="url(#p492f0c77fa)" style="fill: #787800"/>
   </g>
   <g id="patch_30">
    <path d="M 582.415487 107.961114 
L 577.694136 107.961114 
L 576.94866 128.16 
L 573.911533 128.16 
L 578.248851 17.28 
L 581.850732 17.28 
L 586.18805 128.16 
L 583.153434 128.16 
L 582.415487 107.961114 
z
M 578.447143 87.382015 
L 581.654951 87.382015 
L 580.053557 43.277154 
L 578.447143 87.382015 
z
" clip-path="url(#p492f0c77fa)" style="fill: #21599c"/>
   </g>
   <g id="patch_31">
    <path d="M 590.19834 38.904689 
L 590.19834 106.559074 
L 591.40362 106.559074 
Q 593.46462 106.559074 594.552448 97.861672 
Q 595.643073 89.164269 595.643073 72.601183 
Q 595.643073 56.13315 594.558041 47.530802 
Q 593.475806 38.904689 591.40362 38.904689 
L 590.19834 38.904689 
z
M 586.834182 17.28 
L 590.38011 17.28 
Q 593.352761 17.28 594.806927 20.892036 
Q 596.261093 24.480309 597.301381 33.106421 
Q 598.218624 40.615654 598.663264 50.429936 
Q 599.110699 60.220454 599.110699 72.601183 
Q 599.110699 85.172019 598.663264 95.010064 
Q 598.218624 104.84811 597.301381 112.333579 
Q 596.252704 120.959691 594.784556 124.571727 
Q 593.316407 128.16 590.38011 128.16 
L 586.834182 128.16 
L 586.834182 17.28 
z
" clip-path="url(#p492f0c77fa)" style="fill: #6b296b"/>
   </g>
   <g id="patch_32">
    <path d="M 604.737973 66.446464 
Q 605.839712 66.446464 606.317715 63.119589 
Q 606.795718 59.76895 606.795718 52.117137 
Q 606.795718 44.536614 606.317715 41.281029 
Q 605.839712 38.00168 604.737973 38.00168 
L 603.263159 38.00168 
L 603.263159 66.446464 
L 604.737973 66.446464 
z
M 603.263159 86.193845 
L 603.263159 128.16 
L 599.756832 128.16 
L 599.756832 17.28 
L 605.111049 17.28 
Q 607.798358 17.28 609.048744 24.646652 
Q 610.302045 31.989541 610.302045 47.887252 
Q 610.302045 58.865941 609.649163 65.923669 
Q 608.999195 72.981397 607.687602 76.332036 
Q 608.407521 77.662786 608.975878 82.391702 
Q 609.54715 87.096854 610.130081 96.673502 
L 612.033349 128.16 
L 608.299679 128.16 
L 606.641241 100.618225 
Q 606.139921 92.301037 605.624028 89.259323 
Q 605.111049 86.193845 604.254141 86.193845 
L 603.263159 86.193845 
z
" clip-path="url(#p492f0c77fa)" style="fill: #bd2e1f"/>
   </g>
   <g id="patch_33">
    <path d="M 612.679481 17.28 
L 616.211806 17.28 
L 616.211806 59.531316 
L 621.423673 59.531316 
L 621.423673 17.28 
L 624.955998 17.28 
L 624.955998 128.16 
L 621.423673 128.16 
L 621.423673 81.156005 
L 616.211806 81.156005 
L 616.211806 128.16 
L 612.679481 128.16 
L 612.679481 17.28 
z
" clip-path="url(#p492f0c77fa)" style="fill: #177875"/>
   </g>
   <g id="patch_34">
    <path d="M 637.878648 118.127891 
Q 636.640541 123.143945 635.308888 125.663425 
Q 633.977235 128.16 632.55754 128.16 
Q 629.349467 128.16 627.475799 113.226358 
Q 625.602131 98.292716 625.602131 72.754357 
Q 625.602131 46.91824 627.508815 32.09912 
Q 629.418251 17.28 632.739129 17.28 
Q 634.018506 17.28 635.19058 19.295584 
Q 636.365406 21.288263 637.405416 25.227812 
L 637.405416 47.330518 
Q 636.33239 42.268655 635.270369 39.77208 
Q 634.208349 37.252601 633.140825 37.252601 
Q 631.165357 37.252601 630.095083 46.460153 
Q 629.024808 55.644801 629.024808 72.754357 
Q 629.024808 89.703582 630.056564 98.956943 
Q 631.088319 108.187399 632.98675 108.187399 
Q 633.504003 108.187399 633.946971 107.660599 
Q 634.389938 107.110894 634.74211 105.965677 
L 634.74211 85.214328 
L 632.719869 85.214328 
L 632.719869 66.73051 
L 637.878648 66.73051 
L 637.878648 118.127891 
z
" clip-path="url(#p492f0c77fa)" style="fill: #787800"/>
   </g>
   <g id="patch_35">
    <path d="M 647.028734 107.961114 
L 642.307383 107.961114 
L 641.561906 128.16 
L 638.52478 128.16 
L 642.862098 17.28 
L 646.463979 17.28 
L 650.801297 128.16 
L 647.76668 128.16 
L 647.028734 107.961114 
z
M 643.060389 87.382015 
L 646.268197 87.382015 
L 644.666803 43.277154 
L 643.060389 87.382015 
z
" clip-path="url(#p492f0c77fa)" style="fill: #21599c"/>
   </g>
   <g id="patch_36">
    <path d="M 651.447429 17.28 
L 654.484556 17.28 
L 657.589453 99.121132 
L 660.68933 17.28 
L 663.723946 17.28 
L 659.386629 128.16 
L 655.784747 128.16 
L 651.447429 17.28 
z
" clip-path="url(#p492f0c77fa)" style="fill: #21599c"/>
   </g>
   <g id="patch_37">
    <path d="M 676.646596 118.127891 
Q 675.408489 123.143945 674.076836 125.663425 
Q 672.745184 128.16 671.325488 128.16 
Q 668.117415 128.16 666.243747 113.226358 
Q 664.370079 98.292716 664.370079 72.754357 
Q 664.370079 46.91824 666.276763 32.09912 
Q 668.186199 17.28 671.507077 17.28 
Q 672.786454 17.28 673.958528 19.295584 
Q 675.133354 21.288263 676.173364 25.227812 
L 676.173364 47.330518 
Q 675.100338 42.268655 674.038317 39.77208 
Q 672.976297 37.252601 671.908774 37.252601 
Q 669.933305 37.252601 668.863031 46.460153 
Q 667.792756 55.644801 667.792756 72.754357 
Q 667.792756 89.703582 668.824512 98.956943 
Q 669.856268 108.187399 671.754698 108.187399 
Q 672.271952 108.187399 672.714919 107.660599 
Q 673.157886 107.110894 673.510058 105.965677 
L 673.510058 85.214328 
L 671.487817 85.214328 
L 671.487817 66.73051 
L 676.646596 66.73051 
L 676.646596 118.127891 
z
" clip-path="url(#p492f0c77fa)" style="fill: #787800"/>
   </g>
   <g id="patch_38">
    <path d="M 689.569245 118.127891 
Q 688.331138 123.143945 686.999486 125.663425 
Q 685.667833 128.16 684.248137 128.16 
Q 681.040065 128.16 679.166396 113.226358 
Q 677.292728 98.292716 677.292728 72.754357 
Q 677.292728 46.91824 679.199413 32.09912 
Q 681.108848 17.28 684.429726 17.28 
Q 685.709103 17.28 686.881178 19.295584 
Q 688.056003 21.288263 689.096013 25.227812 
L 689.096013 47.330518 
Q 688.022987 42.268655 686.960967 39.77208 
Q 685.898946 37.252601 684.831423 37.252601 
Q 682.855955 37.252601 681.78568 46.460153 
Q 680.715406 55.644801 680.715406 72.754357 
Q 680.715406 89.703582 681.747161 98.956943 
Q 682.778917 108.187399 684.677347 108.187399 
Q 685.194601 108.187399 685.637568 107.660599 
Q 686.080535 107.110894 686.432708 105.965677 
L 686.432708 85.214328 
L 684.410467 85.214328 
L 684.410467 66.73051 
L 689.569245 66.73051 
L 689.569245 118.127891 
z
" clip-path="url(#p492f0c77fa)" style="fill: #787800"/>
   </g>
   <g id="patch_39">
    <path d="M 696.68101 111.578719 
L 696.440595 111.578719 
Q 693.491673 111.578719 691.852246 99.152512 
Q 690.215377 86.706798 690.215377 64.526897 
Q 690.215377 42.38601 691.849689 29.842759 
Q 693.484 17.28 696.353636 17.28 
Q 699.253963 17.28 700.872929 29.725714 
Q 702.491894 42.151921 702.491894 64.526897 
Q 702.491894 79.879212 701.632538 90.978916 
Q 700.773182 102.078621 699.159332 107.677241 
L 701.563483 128.16 
L 698.629907 128.16 
L 696.68101 111.578719 
z
M 696.353636 34.290443 
Q 694.946952 34.290443 694.171997 42.210443 
Q 693.397041 50.130443 693.397041 64.526897 
Q 693.397041 79.157438 694.154093 86.940887 
Q 694.913703 94.704828 696.353636 94.704828 
Q 697.767993 94.704828 698.542948 86.784828 
Q 699.317903 78.84532 699.317903 64.526897 
Q 699.317903 50.130443 698.542948 42.210443 
Q 697.767993 34.290443 696.353636 34.290443 
z
" clip-path="url(#p492f0c77fa)" style="fill: #40ba47"/>
   </g>
   <g id="patch_40">
    <path d="M 703.138027 17.28 
L 707.593125 17.28 
L 707.593125 106.559074 
L 715.414544 106.559074 
L 715.414544 128.16 
L 703.138027 128.16 
L 703.138027 17.28 
z
" clip-path="url(#p492f0c77fa)" style="fill: #21599c"/>
   </g>
   <g id="patch_41">
    <path d="M 716.060676 17.28 
L 719.097803 17.28 
L 722.2027 99.121132 
L 725.302577 17.28 
L 728.337193 17.28 
L 723.999875 128.16 
L 720.397994 128.16 
L 716.060676 17.28 
z
" clip-path="url(#p492f0c77fa)" style="fill: #21599c"/>
   </g>
   <g id="patch_42">
    <path d="M 728.983326 17.28 
L 741.004313 17.28 
L 741.004313 38.904689 
L 733.438424 38.904689 
L 733.438424 59.531316 
L 740.556211 59.531316 
L 740.556211 81.156005 
L 733.438424 81.156005 
L 733.438424 106.559074 
L 741.259843 106.559074 
L 741.259843 128.16 
L 728.983326 128.16 
L 728.983326 17.28 
z
" clip-path="url(#p492f0c77fa)" style="fill: #6b296b"/>
   </g>
   <g id="patch_43">
    <path d="M 741.905975 17.28 
L 754.182492 17.28 
L 754.182492 38.904689 
L 749.765801 38.904689 
L 749.765801 128.16 
L 746.331231 128.16 
L 746.331231 38.904689 
L 741.905975 38.904689 
L 741.905975 17.28 
z
" clip-path="url(#p492f0c77fa)" style="fill: #40ba47"/>
   </g>
   <g id="patch_44">
    <path d="M 766.081542 22.570907 
L 766.081542 45.200413 
Q 764.80121 41.260863 763.580894 39.268184 
Q 762.363912 37.252601 761.280297 37.252601 
Q 759.843258 37.252601 759.153079 39.978219 
Q 758.466234 42.680934 758.466234 48.407023 
Q 758.466234 52.713043 758.929688 55.118 
Q 759.393141 57.500054 760.613458 59.217881 
L 762.320567 61.57703 
Q 764.914573 65.173014 766.00819 72.479504 
Q 767.105141 79.76309 767.105141 93.230853 
Q 767.105141 110.890114 765.578079 119.525057 
Q 764.051016 128.16 760.913536 128.16 
Q 759.436486 128.16 757.946099 126.21313 
Q 756.455713 124.289163 754.965326 120.48704 
L 754.965326 97.239116 
Q 756.455713 102.667449 757.846074 105.438876 
Q 759.236434 108.187399 760.530103 108.187399 
Q 761.843777 108.187399 762.540624 105.186928 
Q 763.237472 102.163553 763.237472 96.574889 
Q 763.237472 91.581739 762.764016 88.856121 
Q 762.290559 86.130502 760.873525 83.977492 
L 759.319789 81.618343 
Q 756.98585 78.18269 755.90557 70.67006 
Q 754.828624 63.15743 754.828624 50.422607 
Q 754.828624 34.458269 756.329013 25.869134 
Q 757.829403 17.28 760.643466 17.28 
Q 761.927132 17.28 763.280816 18.608453 
Q 764.634501 19.936906 766.081542 22.570907 
z
" clip-path="url(#p492f0c77fa)" style="fill: #40ba47"/>
   </g>
   <g id="patch_45">
    <path d="M 780.027791 118.127891 
Q 778.789684 123.143945 777.458031 125.663425 
Q 776.126379 128.16 774.706683 128.16 
Q 771.49861 128.16 769.624942 113.226358 
Q 767.751274 98.292716 767.751274 72.754357 
Q 767.751274 46.91824 769.657958 32.09912 
Q 771.567394 17.28 774.888272 17.28 
Q 776.167649 17.28 777.339723 19.295584 
Q 778.514549 21.288263 779.554559 25.227812 
L 779.554559 47.330518 
Q 778.481533 42.268655 777.419512 39.77208 
Q 776.357492 37.252601 775.289969 37.252601 
Q 773.3145 37.252601 772.244226 46.460153 
Q 771.173951 55.644801 771.173951 72.754357 
Q 771.173951 89.703582 772.205707 98.956943 
Q 773.237463 108.187399 775.135893 108.187399 
Q 775.653147 108.187399 776.096114 107.660599 
Q 776.539081 107.110894 776.891253 105.965677 
L 776.891253 85.214328 
L 774.869012 85.214328 
L 774.869012 66.73051 
L 780.027791 66.73051 
L 780.027791 118.127891 
z
" clip-path="url(#p492f0c77fa)" style="fill: #787800"/>
   </g>
   <g id="patch_46">
    <path d="M 791.926841 22.570907 
L 791.926841 45.200413 
Q 790.646509 41.260863 789.426193 39.268184 
Q 788.209211 37.252601 787.125596 37.252601 
Q 785.688557 37.252601 784.998378 39.978219 
Q 784.311533 42.680934 784.311533 48.407023 
Q 784.311533 52.713043 784.774987 55.118 
Q 785.23844 57.500054 786.458757 59.217881 
L 788.165866 61.57703 
Q 790.759872 65.173014 791.853489 72.479504 
Q 792.95044 79.76309 792.95044 93.230853 
Q 792.95044 110.890114 791.423377 119.525057 
Q 789.896315 128.16 786.758834 128.16 
Q 785.281785 128.16 783.791398 126.21313 
Q 782.301012 124.289163 780.810625 120.48704 
L 780.810625 97.239116 
Q 782.301012 102.667449 783.691372 105.438876 
Q 785.081733 108.187399 786.375402 108.187399 
Q 787.689076 108.187399 788.385923 105.186928 
Q 789.08277 102.163553 789.08277 96.574889 
Q 789.08277 91.581739 788.609314 88.856121 
Q 788.135858 86.130502 786.718824 83.977492 
L 785.165088 81.618343 
Q 782.831149 78.18269 781.750869 70.67006 
Q 780.673923 63.15743 780.673923 50.422607 
Q 780.673923 34.458269 782.174312 25.869134 
Q 783.674701 17.28 786.488764 17.28 
Q 787.772431 17.28 789.126115 18.608453 
Q 790.479799 19.936906 791.926841 22.570907 
z
" clip-path="url(#p492f0c77fa)" style="fill: #40ba47"/>
   </g>
   <g id="patch_47">
    <path d="M 793.724337 17.28 
L 805.745325 17.28 
L 805.745325 38.904689 
L 798.179435 38.904689 
L 798.179435 59.531316 
L 805.297223 59.531316 
L 805.297223 81.156005 
L 798.179435 81.156005 
L 798.179435 128.16 
L 793.724337 128.16 
L 793.724337 17.28 
z
" clip-path="url(#p492f0c77fa)" style="fill: #21599c"/>
   </g>
   <g id="patch_48">
    <path d="M 811.500363 66.446464 
Q 812.602102 66.446464 813.080105 63.119589 
Q 813.558108 59.76895 813.558108 52.117137 
Q 813.558108 44.536614 813.080105 41.281029 
Q 812.602102 38.00168 811.500363 38.00168 
L 810.025549 38.00168 
L 810.025549 66.446464 
L 811.500363 66.446464 
z
M 810.025549 86.193845 
L 810.025549 128.16 
L 806.519222 128.16 
L 806.519222 17.28 
L 811.873439 17.28 
Q 814.560748 17.28 815.811134 24.646652 
Q 817.064435 31.989541 817.064435 47.887252 
Q 817.064435 58.865941 816.411553 65.923669 
Q 815.761585 72.981397 814.449992 76.332036 
Q 815.169911 77.662786 815.738268 82.391702 
Q 816.30954 87.096854 816.892471 96.673502 
L 818.795739 128.16 
L 815.062069 128.16 
L 813.403631 100.618225 
Q 812.902311 92.301037 812.386418 89.259323 
Q 811.873439 86.193845 811.016531 86.193845 
L 810.025549 86.193845 
z
" clip-path="url(#p492f0c77fa)" style="fill: #bd2e1f"/>
   </g>
   <g id="patch_49">
    <path d="M 830.694789 22.570907 
L 830.694789 45.200413 
Q 829.414457 41.260863 828.194141 39.268184 
Q 826.977159 37.252601 825.893544 37.252601 
Q 824.456505 37.252601 823.766326 39.978219 
Q 823.079481 42.680934 823.079481 48.407023 
Q 823.079481 52.713043 823.542935 55.118 
Q 824.006388 57.500054 825.226705 59.217881 
L 826.933814 61.57703 
Q 829.52782 65.173014 830.621437 72.479504 
Q 831.718388 79.76309 831.718388 93.230853 
Q 831.718388 110.890114 830.191325 119.525057 
Q 828.664263 128.16 825.526783 128.16 
Q 824.049733 128.16 822.559346 126.21313 
Q 821.06896 124.289163 819.578573 120.48704 
L 819.578573 97.239116 
Q 821.06896 102.667449 822.45932 105.438876 
Q 823.849681 108.187399 825.14335 108.187399 
Q 826.457024 108.187399 827.153871 105.186928 
Q 827.850719 102.163553 827.850719 96.574889 
Q 827.850719 91.581739 827.377262 88.856121 
Q 826.903806 86.130502 825.486772 83.977492 
L 823.933036 81.618343 
Q 821.599097 78.18269 820.518817 70.67006 
Q 819.441871 63.15743 819.441871 50.422607 
Q 819.441871 34.458269 820.94226 25.869134 
Q 822.442649 17.28 825.256712 17.28 
Q 826.540379 17.28 827.894063 18.608453 
Q 829.247747 19.936906 830.694789 22.570907 
z
" clip-path="url(#p492f0c77fa)" style="fill: #40ba47"/>
   </g>
   <g id="patch_50">
    <path d="M 832.492285 17.28 
L 844.513273 17.28 
L 844.513273 38.904689 
L 836.947383 38.904689 
L 836.947383 59.531316 
L 844.065171 59.531316 
L 844.065171 81.156005 
L 836.947383 81.156005 
L 836.947383 128.16 
L 832.492285 128.16 
L 832.492285 17.28 
z
" clip-path="url(#p492f0c77fa)" style="fill: #21599c"/>
   </g>
   <g id="patch_51">
    <path d="M 845.28717 17.28 
L 857.563687 17.28 
L 857.563687 38.904689 
L 853.146996 38.904689 
L 853.146996 128.16 
L 849.712426 128.16 
L 849.712426 38.904689 
L 845.28717 38.904689 
L 845.28717 17.28 
z
" clip-path="url(#p492f0c77fa)" style="fill: #40ba47"/>
   </g>
   <g id="patch_52">
    <path d="M 870.486336 118.127891 
Q 869.248229 123.143945 867.916577 125.663425 
Q 866.584924 128.16 865.165228 128.16 
Q 861.957156 128.16 860.083488 113.226358 
Q 858.209819 98.292716 858.209819 72.754357 
Q 858.209819 46.91824 860.116504 32.09912 
Q 862.02594 17.28 865.346817 17.28 
Q 866.626194 17.28 867.798269 19.295584 
Q 868.973095 21.288263 870.013104 25.227812 
L 870.013104 47.330518 
Q 868.940078 42.268655 867.878058 39.77208 
Q 866.816037 37.252601 865.748514 37.252601 
Q 863.773046 37.252601 862.702771 46.460153 
Q 861.632497 55.644801 861.632497 72.754357 
Q 861.632497 89.703582 862.664253 98.956943 
Q 863.696008 108.187399 865.594439 108.187399 
Q 866.111692 108.187399 866.554659 107.660599 
Q 866.997626 107.110894 867.349799 105.965677 
L 867.349799 85.214328 
L 865.327558 85.214328 
L 865.327558 66.73051 
L 870.486336 66.73051 
L 870.486336 118.127891 
z
" clip-path="url(#p492f0c77fa)" style="fill: #787800"/>
   </g>
   <g id="patch_53">
    <path d="M 871.132469 17.28 
L 875.587567 17.28 
L 875.587567 106.559074 
L 883.408986 106.559074 
L 883.408986 128.16 
L 871.132469 128.16 
L 871.132469 17.28 
z
" clip-path="url(#p492f0c77fa)" style="fill: #21599c"/>
   </g>
   <g id="patch_54">
    <path d="M 890.52075 111.578719 
L 890.280335 111.578719 
Q 887.331414 111.578719 885.691987 99.152512 
Q 884.055118 86.706798 884.055118 64.526897 
Q 884.055118 42.38601 885.689429 29.842759 
Q 887.323741 17.28 890.193377 17.28 
Q 893.093704 17.28 894.712669 29.725714 
Q 896.331635 42.151921 896.331635 64.526897 
Q 896.331635 79.879212 895.472279 90.978916 
Q 894.612923 102.078621 892.999072 107.677241 
L 895.403223 128.16 
L 892.469647 128.16 
L 890.52075 111.578719 
z
M 890.193377 34.290443 
Q 888.786692 34.290443 888.011737 42.210443 
Q 887.236782 50.130443 887.236782 64.526897 
Q 887.236782 79.157438 887.993834 86.940887 
Q 888.753443 94.704828 890.193377 94.704828 
Q 891.607734 94.704828 892.382689 86.784828 
Q 893.157644 78.84532 893.157644 64.526897 
Q 893.157644 50.130443 892.382689 42.210443 
Q 891.607734 34.290443 890.193377 34.290443 
z
" clip-path="url(#p492f0c77fa)" style="fill: #40ba47"/>
   </g>
   <g id="patch_55">
    <path d="M 896.977767 17.28 
L 900.014894 17.28 
L 903.119791 99.121132 
L 906.219668 17.28 
L 909.254284 17.28 
L 904.916967 128.16 
L 901.315085 128.16 
L 896.977767 17.28 
z
" clip-path="url(#p492f0c77fa)" style="fill: #21599c"/>
   </g>
   <g id="patch_56">
    <path d="M 914.881558 66.446464 
Q 915.983297 66.446464 916.4613 63.119589 
Q 916.939303 59.76895 916.939303 52.117137 
Q 916.939303 44.536614 916.4613 41.281029 
Q 915.983297 38.00168 914.881558 38.00168 
L 913.406744 38.00168 
L 913.406744 66.446464 
L 914.881558 66.446464 
z
M 913.406744 86.193845 
L 913.406744 128.16 
L 909.900417 128.16 
L 909.900417 17.28 
L 915.254634 17.28 
Q 917.941943 17.28 919.192329 24.646652 
Q 920.44563 31.989541 920.44563 47.887252 
Q 920.44563 58.865941 919.792748 65.923669 
Q 919.14278 72.981397 917.831187 76.332036 
Q 918.551106 77.662786 919.119463 82.391702 
Q 919.690735 87.096854 920.273666 96.673502 
L 922.176934 128.16 
L 918.443264 128.16 
L 916.784826 100.618225 
Q 916.283506 92.301037 915.767613 89.259323 
Q 915.254634 86.193845 914.397726 86.193845 
L 913.406744 86.193845 
z
" clip-path="url(#p492f0c77fa)" style="fill: #bd2e1f"/>
   </g>
   <g id="patch_57">
    <path d="M 935.099583 118.127891 
Q 933.861476 123.143945 932.529824 125.663425 
Q 931.198171 128.16 929.778475 128.16 
Q 926.570403 128.16 924.696735 113.226358 
Q 922.823066 98.292716 922.823066 72.754357 
Q 922.823066 46.91824 924.729751 32.09912 
Q 926.639187 17.28 929.960064 17.28 
Q 931.239441 17.28 932.411516 19.295584 
Q 933.586341 21.288263 934.626351 25.227812 
L 934.626351 47.330518 
Q 933.553325 42.268655 932.491305 39.77208 
Q 931.429284 37.252601 930.361761 37.252601 
Q 928.386293 37.252601 927.316018 46.460153 
Q 926.245744 55.644801 926.245744 72.754357 
Q 926.245744 89.703582 927.277499 98.956943 
Q 928.309255 108.187399 930.207686 108.187399 
Q 930.724939 108.187399 931.167906 107.660599 
Q 931.610873 107.110894 931.963046 105.965677 
L 931.963046 85.214328 
L 929.940805 85.214328 
L 929.940805 66.73051 
L 935.099583 66.73051 
L 935.099583 118.127891 
z
" clip-path="url(#p492f0c77fa)" style="fill: #787800"/>
   </g>
   <g id="patch_58">
    <path d="M 948.022233 118.127891 
Q 946.784126 123.143945 945.452473 125.663425 
Q 944.12082 128.16 942.701125 128.16 
Q 939.493052 128.16 937.619384 113.226358 
Q 935.745716 98.292716 935.745716 72.754357 
Q 935.745716 46.91824 937.6524 32.09912 
Q 939.561836 17.28 942.882714 17.28 
Q 944.162091 17.28 945.334165 19.295584 
Q 946.508991 21.288263 947.549001 25.227812 
L 947.549001 47.330518 
Q 946.475975 42.268655 945.413954 39.77208 
Q 944.351934 37.252601 943.28441 37.252601 
Q 941.308942 37.252601 940.238668 46.460153 
Q 939.168393 55.644801 939.168393 72.754357 
Q 939.168393 89.703582 940.200149 98.956943 
Q 941.231904 108.187399 943.130335 108.187399 
Q 943.647588 108.187399 944.090556 107.660599 
Q 944.533523 107.110894 944.885695 105.965677 
L 944.885695 85.214328 
L 942.863454 85.214328 
L 942.863454 66.73051 
L 948.022233 66.73051 
L 948.022233 118.127891 
z
" clip-path="url(#p492f0c77fa)" style="fill: #787800"/>
   </g>
   <g id="patch_59">
    <path d="M 948.668365 17.28 
L 953.123463 17.28 
L 953.123463 106.559074 
L 960.944882 106.559074 
L 960.944882 128.16 
L 948.668365 128.16 
L 948.668365 17.28 
z
" clip-path="url(#p492f0c77fa)" style="fill: #21599c"/>
   </g>
   <g id="patch_60">
    <path d="M 961.591014 17.28 
L 964.628141 17.28 
L 967.733038 99.121132 
L 970.832915 17.28 
L 973.867531 17.28 
L 969.530213 128.16 
L 965.928332 128.16 
L 961.591014 17.28 
z
" clip-path="url(#p492f0c77fa)" style="fill: #21599c"/>
   </g>
   <g id="patch_61">
    <path d="M 974.513664 17.28 
L 986.534651 17.28 
L 986.534651 38.904689 
L 978.968762 38.904689 
L 978.968762 59.531316 
L 986.086549 59.531316 
L 986.086549 81.156005 
L 978.968762 81.156005 
L 978.968762 106.559074 
L 986.790181 106.559074 
L 986.790181 128.16 
L 974.513664 128.16 
L 974.513664 17.28 
z
" clip-path="url(#p492f0c77fa)" style="fill: #6b296b"/>
   </g>
   <g id="patch_62">
    <path d="M 999.71283 118.127891 
Q 998.474723 123.143945 997.143071 125.663425 
Q 995.811418 128.16 994.391722 128.16 
Q 991.18365 128.16 989.309981 113.226358 
Q 987.436313 98.292716 987.436313 72.754357 
Q 987.436313 46.91824 989.342998 32.09912 
Q 991.252433 17.28 994.573311 17.28 
Q 995.852688 17.28 997.024763 19.295584 
Q 998.199588 21.288263 999.239598 25.227812 
L 999.239598 47.330518 
Q 998.166572 42.268655 997.104552 39.77208 
Q 996.042531 37.252601 994.975008 37.252601 
Q 992.99954 37.252601 991.929265 46.460153 
Q 990.858991 55.644801 990.858991 72.754357 
Q 990.858991 89.703582 991.890746 98.956943 
Q 992.922502 108.187399 994.820932 108.187399 
Q 995.338186 108.187399 995.781153 107.660599 
Q 996.22412 107.110894 996.576293 105.965677 
L 996.576293 85.214328 
L 994.554052 85.214328 
L 994.554052 66.73051 
L 999.71283 66.73051 
L 999.71283 118.127891 
z
" clip-path="url(#p492f0c77fa)" style="fill: #787800"/>
   </g>
   <g id="patch_63">
    <path d="M 1000.358962 17.28 
L 1003.891287 17.28 
L 1003.891287 59.531316 
L 1009.103155 59.531316 
L 1009.103155 17.28 
L 1012.635479 17.28 
L 1012.635479 128.16 
L 1009.103155 128.16 
L 1009.103155 81.156005 
L 1003.891287 81.156005 
L 1003.891287 128.16 
L 1000.358962 128.16 
L 1000.358962 17.28 
z
" clip-path="url(#p492f0c77fa)" style="fill: #177875"/>
   </g>
   <g id="patch_64">
    <path d="M 1018.262753 66.446464 
Q 1019.364492 66.446464 1019.842495 63.119589 
Q 1020.320498 59.76895 1020.320498 52.117137 
Q 1020.320498 44.536614 1019.842495 41.281029 
Q 1019.364492 38.00168 1018.262753 38.00168 
L 1016.787939 38.00168 
L 1016.787939 66.446464 
L 1018.262753 66.446464 
z
M 1016.787939 86.193845 
L 1016.787939 128.16 
L 1013.281612 128.16 
L 1013.281612 17.28 
L 1018.635829 17.28 
Q 1021.323138 17.28 1022.573524 24.646652 
Q 1023.826825 31.989541 1023.826825 47.887252 
Q 1023.826825 58.865941 1023.173943 65.923669 
Q 1022.523975 72.981397 1021.212382 76.332036 
Q 1021.932301 77.662786 1022.500658 82.391702 
Q 1023.07193 87.096854 1023.654861 96.673502 
L 1025.558129 128.16 
L 1021.824459 128.16 
L 1020.166021 100.618225 
Q 1019.664701 92.301037 1019.148808 89.259323 
Q 1018.635829 86.193845 1017.778921 86.193845 
L 1016.787939 86.193845 
z
" clip-path="url(#p492f0c77fa)" style="fill: #bd2e1f"/>
   </g>
   <g id="patch_65">
    <path d="M 1026.204261 17.28 
L 1032.585492 17.28 
Q 1035.434028 17.28 1036.955805 26.690304 
Q 1038.480778 36.076845 1038.480778 53.447887 
Q 1038.480778 70.913982 1036.955805 80.300523 
Q 1035.434028 89.687064 1032.585492 89.687064 
L 1030.050264 89.687064 
L 1030.050264 128.16 
L 1026.204261 128.16 
L 1026.204261 17.28 
z
M 1030.050264 38.00168 
L 1030.050264 68.965384 
L 1032.176275 68.965384 
Q 1033.295229 68.965384 1033.905857 64.925607 
Q 1034.516486 60.885829 1034.516486 53.447887 
Q 1034.516486 46.033708 1033.905857 42.017694 
Q 1033.295229 38.00168 1032.176275 38.00168 
L 1030.050264 38.00168 
z
" clip-path="url(#p492f0c77fa)" style="fill: #787800"/>
   </g>
   <g id="patch_66">
    <path d="M 1051.403428 118.127891 
Q 1050.165321 123.143945 1048.833668 125.663425 
Q 1047.502015 128.16 1046.08232 128.16 
Q 1042.874247 128.16 1041.000579 113.226358 
Q 1039.126911 98.292716 1039.126911 72.754357 
Q 1039.126911 46.91824 1041.033595 32.09912 
Q 1042.943031 17.28 1046.263909 17.28 
Q 1047.543286 17.28 1048.71536 19.295584 
Q 1049.890186 21.288263 1050.930196 25.227812 
L 1050.930196 47.330518 
Q 1049.85717 42.268655 1048.795149 39.77208 
Q 1047.733129 37.252601 1046.665605 37.252601 
Q 1044.690137 37.252601 1043.619863 46.460153 
Q 1042.549588 55.644801 1042.549588 72.754357 
Q 1042.549588 89.703582 1043.581344 98.956943 
Q 1044.613099 108.187399 1046.51153 108.187399 
Q 1047.028783 108.187399 1047.471751 107.660599 
Q 1047.914718 107.110894 1048.26689 105.965677 
L 1048.26689 85.214328 
L 1046.244649 85.214328 
L 1046.244649 66.73051 
L 1051.403428 66.73051 
L 1051.403428 118.127891 
z
" clip-path="url(#p492f0c77fa)" style="fill: #787800"/>
   </g>
   <g id="patch_67">
    <path d="M 1052.04956 17.28 
L 1055.086686 17.28 
L 1058.191583 99.121132 
L 1061.29146 17.28 
L 1064.326077 17.28 
L 1059.988759 128.16 
L 1056.386878 128.16 
L 1052.04956 17.28 
z
" clip-path="url(#p492f0c77fa)" style="fill: #21599c"/>
   </g>
   <g id="patch_68">
    <path d="M 1077.248726 118.127891 
Q 1076.010619 123.143945 1074.678967 125.663425 
Q 1073.347314 128.16 1071.927618 128.16 
Q 1068.719546 128.16 1066.845878 113.226358 
Q 1064.972209 98.292716 1064.972209 72.754357 
Q 1064.972209 46.91824 1066.878894 32.09912 
Q 1068.78833 17.28 1072.109207 17.28 
Q 1073.388584 17.28 1074.560659 19.295584 
Q 1075.735485 21.288263 1076.775494 25.227812 
L 1076.775494 47.330518 
Q 1075.702468 42.268655 1074.640448 39.77208 
Q 1073.578427 37.252601 1072.510904 37.252601 
Q 1070.535436 37.252601 1069.465161 46.460153 
Q 1068.394887 55.644801 1068.394887 72.754357 
Q 1068.394887 89.703582 1069.426643 98.956943 
Q 1070.458398 108.187399 1072.356829 108.187399 
Q 1072.874082 108.187399 1073.317049 107.660599 
Q 1073.760016 107.110894 1074.112189 105.965677 
L 1074.112189 85.214328 
L 1072.089948 85.214328 
L 1072.089948 66.73051 
L 1077.248726 66.73051 
L 1077.248726 118.127891 
z
" clip-path="url(#p492f0c77fa)" style="fill: #787800"/>
   </g>
   <g id="patch_69">
    <path d="M 1077.894859 17.28 
L 1089.915846 17.28 
L 1089.915846 38.904689 
L 1082.349957 38.904689 
L 1082.349957 59.531316 
L 1089.467744 59.531316 
L 1089.467744 81.156005 
L 1082.349957 81.156005 
L 1082.349957 106.559074 
L 1090.171376 106.559074 
L 1090.171376 128.16 
L 1077.894859 128.16 
L 1077.894859 17.28 
z
" clip-path="url(#p492f0c77fa)" style="fill: #6b296b"/>
   </g>
   <g id="patch_70">
    <path d="M 1090.817508 17.28 
L 1094.211604 17.28 
L 1096.953187 56.798526 
L 1099.692192 17.28 
L 1103.094025 17.28 
L 1098.508385 81.441166 
L 1098.508385 128.16 
L 1095.405727 128.16 
L 1095.405727 81.441166 
L 1090.817508 17.28 
z
" clip-path="url(#p492f0c77fa)" style="fill: #177875"/>
   </g>
   <g id="patch_71">
    <path d="M 1108.721299 66.446464 
Q 1109.823038 66.446464 1110.301041 63.119589 
Q 1110.779044 59.76895 1110.779044 52.117137 
Q 1110.779044 44.536614 1110.301041 41.281029 
Q 1109.823038 38.00168 1108.721299 38.00168 
L 1107.246485 38.00168 
L 1107.246485 66.446464 
L 1108.721299 66.446464 
z
M 1107.246485 86.193845 
L 1107.246485 128.16 
L 1103.740157 128.16 
L 1103.740157 17.28 
L 1109.094374 17.28 
Q 1111.781684 17.28 1113.03207 24.646652 
Q 1114.285371 31.989541 1114.285371 47.887252 
Q 1114.285371 58.865941 1113.632489 65.923669 
Q 1112.982521 72.981397 1111.670927 76.332036 
Q 1112.390847 77.662786 1112.959204 82.391702 
Q 1113.530476 87.096854 1114.113406 96.673502 
L 1116.016674 128.16 
L 1112.283004 128.16 
L 1110.624567 100.618225 
Q 1110.123247 92.301037 1109.607353 89.259323 
Q 1109.094374 86.193845 1108.237466 86.193845 
L 1107.246485 86.193845 
z
" clip-path="url(#p492f0c77fa)" style="fill: #bd2e1f"/>
   </g>
   <g id="patch_72">
    <path d="M 1127.915725 22.570907 
L 1127.915725 45.200413 
Q 1126.635393 41.260863 1125.415077 39.268184 
Q 1124.198094 37.252601 1123.11448 37.252601 
Q 1121.677441 37.252601 1120.987262 39.978219 
Q 1120.300417 42.680934 1120.300417 48.407023 
Q 1120.300417 52.713043 1120.76387 55.118 
Q 1121.227324 57.500054 1122.44764 59.217881 
L 1124.15475 61.57703 
Q 1126.748756 65.173014 1127.842373 72.479504 
Q 1128.939324 79.76309 1128.939324 93.230853 
Q 1128.939324 110.890114 1127.412261 119.525057 
Q 1125.885198 128.16 1122.747718 128.16 
Q 1121.270668 128.16 1119.780282 126.21313 
Q 1118.289895 124.289163 1116.799509 120.48704 
L 1116.799509 97.239116 
Q 1118.289895 102.667449 1119.680256 105.438876 
Q 1121.070617 108.187399 1122.364285 108.187399 
Q 1123.677959 108.187399 1124.374807 105.186928 
Q 1125.071654 102.163553 1125.071654 96.574889 
Q 1125.071654 91.581739 1124.598198 88.856121 
Q 1124.124742 86.130502 1122.707708 83.977492 
L 1121.153972 81.618343 
Q 1118.820033 78.18269 1117.739753 70.67006 
Q 1116.662807 63.15743 1116.662807 50.422607 
Q 1116.662807 34.458269 1118.163196 25.869134 
Q 1119.663585 17.28 1122.477648 17.28 
Q 1123.761314 17.28 1125.114999 18.608453 
Q 1126.468683 19.936906 1127.915725 22.570907 
z
" clip-path="url(#p492f0c77fa)" style="fill: #40ba47"/>
   </g>
   <g id="patch_73">
    <path d="M 1141.861973 118.127891 
Q 1140.623866 123.143945 1139.292214 125.663425 
Q 1137.960561 128.16 1136.540865 128.16 
Q 1133.332793 128.16 1131.459125 113.226358 
Q 1129.585456 98.292716 1129.585456 72.754357 
Q 1129.585456 46.91824 1131.492141 32.09912 
Q 1133.401577 17.28 1136.722454 17.28 
Q 1138.001831 17.28 1139.173906 19.295584 
Q 1140.348731 21.288263 1141.388741 25.227812 
L 1141.388741 47.330518 
Q 1140.315715 42.268655 1139.253695 39.77208 
Q 1138.191674 37.252601 1137.124151 37.252601 
Q 1135.148683 37.252601 1134.078408 46.460153 
Q 1133.008134 55.644801 1133.008134 72.754357 
Q 1133.008134 89.703582 1134.039889 98.956943 
Q 1135.071645 108.187399 1136.970076 108.187399 
Q 1137.487329 108.187399 1137.930296 107.660599 
Q 1138.373263 107.110894 1138.725436 105.965677 
L 1138.725436 85.214328 
L 1136.703195 85.214328 
L 1136.703195 66.73051 
L 1141.861973 66.73051 
L 1141.861973 118.127891 
z
" clip-path="url(#p492f0c77fa)" style="fill: #787800"/>
   </g>
   <g id="patch_74">
    <path d="M 1142.508106 17.28 
L 1145.545232 17.28 
L 1148.650129 99.121132 
L 1151.750006 17.28 
L 1154.784623 17.28 
L 1150.447305 128.16 
L 1146.845423 128.16 
L 1142.508106 17.28 
z
" clip-path="url(#p492f0c77fa)" style="fill: #21599c"/>
   </g>
   <g id="patch_75">
    <path d="M 1160.411896 66.446464 
Q 1161.513635 66.446464 1161.991638 63.119589 
Q 1162.469641 59.76895 1162.469641 52.117137 
Q 1162.469641 44.536614 1161.991638 41.281029 
Q 1161.513635 38.00168 1160.411896 38.00168 
L 1158.937082 38.00168 
L 1158.937082 66.446464 
L 1160.411896 66.446464 
z
M 1158.937082 86.193845 
L 1158.937082 128.16 
L 1155.430755 128.16 
L 1155.430755 17.28 
L 1160.784972 17.28 
Q 1163.472282 17.28 1164.722668 24.646652 
Q 1165.975968 31.989541 1165.975968 47.887252 
Q 1165.975968 58.865941 1165.323086 65.923669 
Q 1164.673118 72.981397 1163.361525 76.332036 
Q 1164.081444 77.662786 1164.649801 82.391702 
Q 1165.221073 87.096854 1165.804004 96.673502 
L 1167.707272 128.16 
L 1163.973602 128.16 
L 1162.315165 100.618225 
Q 1161.813844 92.301037 1161.297951 89.259323 
Q 1160.784972 86.193845 1159.928064 86.193845 
L 1158.937082 86.193845 
z
" clip-path="url(#p492f0c77fa)" style="fill: #bd2e1f"/>
   </g>
   <g id="patch_76">
    <path d="M 1168.353404 17.28 
L 1180.374392 17.28 
L 1180.374392 38.904689 
L 1172.808502 38.904689 
L 1172.808502 59.531316 
L 1179.92629 59.531316 
L 1179.92629 81.156005 
L 1172.808502 81.156005 
L 1172.808502 106.559074 
L 1180.629921 106.559074 
L 1180.629921 128.16 
L 1168.353404 128.16 
L 1168.353404 17.28 
z
" clip-path="url(#p492f0c77fa)" style="fill: #6b296b"/>
   </g>
   <g id="patch_77">
    <path d="M 1181.276054 17.28 
L 1187.657285 17.28 
Q 1190.50582 17.28 1192.027597 26.690304 
Q 1193.552571 36.076845 1193.552571 53.447887 
Q 1193.552571 70.913982 1192.027597 80.300523 
Q 1190.50582 89.687064 1187.657285 89.687064 
L 1185.122056 89.687064 
L 1185.122056 128.16 
L 1181.276054 128.16 
L 1181.276054 17.28 
z
M 1185.122056 38.00168 
L 1185.122056 68.965384 
L 1187.248068 68.965384 
Q 1188.367021 68.965384 1188.97765 64.925607 
Q 1189.588279 60.885829 1189.588279 53.447887 
Q 1189.588279 46.033708 1188.97765 42.017694 
Q 1188.367021 38.00168 1187.248068 38.00168 
L 1185.122056 38.00168 
z
" clip-path="url(#p492f0c77fa)" style="fill: #787800"/>
   </g>
   <g id="patch_78">
    <path d="M 1194.198703 17.28 
L 1198.653801 17.28 
L 1198.653801 106.559074 
L 1206.47522 106.559074 
L 1206.47522 128.16 
L 1194.198703 128.16 
L 1194.198703 17.28 
z
" clip-path="url(#p492f0c77fa)" style="fill: #21599c"/>
   </g>
   <g id="patch_79">
    <path d="M 1215.625307 107.961114 
L 1210.903955 107.961114 
L 1210.158479 128.16 
L 1207.121352 128.16 
L 1211.45867 17.28 
L 1215.060552 17.28 
L 1219.397869 128.16 
L 1216.363253 128.16 
L 1215.625307 107.961114 
z
M 1211.656962 87.382015 
L 1214.86477 87.382015 
L 1213.263376 43.277154 
L 1211.656962 87.382015 
z
" clip-path="url(#p492f0c77fa)" style="fill: #21599c"/>
   </g>
   <g id="patch_80">
    <path d="M 1220.044002 17.28 
L 1226.425233 17.28 
Q 1229.273769 17.28 1230.795545 26.690304 
Q 1232.320519 36.076845 1232.320519 53.447887 
Q 1232.320519 70.913982 1230.795545 80.300523 
Q 1229.273769 89.687064 1226.425233 89.687064 
L 1223.890004 89.687064 
L 1223.890004 128.16 
L 1220.044002 128.16 
L 1220.044002 17.28 
z
M 1223.890004 38.00168 
L 1223.890004 68.965384 
L 1226.016016 68.965384 
Q 1227.134969 68.965384 1227.745598 64.925607 
Q 1228.356227 60.885829 1228.356227 53.447887 
Q 1228.356227 46.033708 1227.745598 42.017694 
Q 1227.134969 38.00168 1226.016016 38.00168 
L 1223.890004 38.00168 
z
" clip-path="url(#p492f0c77fa)" style="fill: #787800"/>
   </g>
   <g id="patch_81">
    <path d="M 1241.470605 107.961114 
L 1236.749254 107.961114 
L 1236.003778 128.16 
L 1232.966651 128.16 
L 1237.303969 17.28 
L 1240.90585 17.28 
L 1245.243168 128.16 
L 1242.208552 128.16 
L 1241.470605 107.961114 
z
M 1237.502261 87.382015 
L 1240.710069 87.382015 
L 1239.108675 43.277154 
L 1237.502261 87.382015 
z
" clip-path="url(#p492f0c77fa)" style="fill: #21599c"/>
   </g>
   <g id="patch_82">
    <path d="M 1254.393255 107.961114 
L 1249.671904 107.961114 
L 1248.926427 128.16 
L 1245.889301 128.16 
L 1250.226618 17.28 
L 1253.8285 17.28 
L 1258.165818 128.16 
L 1255.131201 128.16 
L 1254.393255 107.961114 
z
M 1250.42491 87.382015 
L 1253.632718 87.382015 
L 1252.031324 43.277154 
L 1250.42491 87.382015 
z
" clip-path="url(#p492f0c77fa)" style="fill: #21599c"/>
   </g>
   <g id="patch_83">
    <path d="M 1271.088467 118.127891 
Q 1269.85036 123.143945 1268.518707 125.663425 
Q 1267.187055 128.16 1265.767359 128.16 
Q 1262.559287 128.16 1260.685618 113.226358 
Q 1258.81195 98.292716 1258.81195 72.754357 
Q 1258.81195 46.91824 1260.718634 32.09912 
Q 1262.62807 17.28 1265.948948 17.28 
Q 1267.228325 17.28 1268.400399 19.295584 
Q 1269.575225 21.288263 1270.615235 25.227812 
L 1270.615235 47.330518 
Q 1269.542209 42.268655 1268.480189 39.77208 
Q 1267.418168 37.252601 1266.350645 37.252601 
Q 1264.375177 37.252601 1263.304902 46.460153 
Q 1262.234627 55.644801 1262.234627 72.754357 
Q 1262.234627 89.703582 1263.266383 98.956943 
Q 1264.298139 108.187399 1266.196569 108.187399 
Q 1266.713823 108.187399 1267.15679 107.660599 
Q 1267.599757 107.110894 1267.95193 105.965677 
L 1267.95193 85.214328 
L 1265.929688 85.214328 
L 1265.929688 66.73051 
L 1271.088467 66.73051 
L 1271.088467 118.127891 
z
" clip-path="url(#p492f0c77fa)" style="fill: #787800"/>
   </g>
   <g id="patch_84">
    <path d="M 1271.734599 17.28 
L 1283.755587 17.28 
L 1283.755587 38.904689 
L 1276.189697 38.904689 
L 1276.189697 59.531316 
L 1283.307485 59.531316 
L 1283.307485 81.156005 
L 1276.189697 81.156005 
L 1276.189697 106.559074 
L 1284.011116 106.559074 
L 1284.011116 128.16 
L 1271.734599 128.16 
L 1271.734599 17.28 
z
" clip-path="url(#p492f0c77fa)" style="fill: #6b296b"/>
   </g>
   <g id="patch_85">
    <path d="M 1288.567958 17.28 
L 1293.023056 17.28 
L 1293.023056 128.16 
L 1288.567958 128.16 
L 1288.567958 17.28 
z
" clip-path="url(#p492f0c77fa)" style="fill: #21599c"/>
   </g>
   <g id="patch_86">
    <path d="M 1308.832816 22.570907 
L 1308.832816 45.200413 
Q 1307.552484 41.260863 1306.332168 39.268184 
Q 1305.115186 37.252601 1304.031571 37.252601 
Q 1302.594532 37.252601 1301.904353 39.978219 
Q 1301.217508 42.680934 1301.217508 48.407023 
Q 1301.217508 52.713043 1301.680962 55.118 
Q 1302.144415 57.500054 1303.364732 59.217881 
L 1305.071841 61.57703 
Q 1307.665847 65.173014 1308.759464 72.479504 
Q 1309.856415 79.76309 1309.856415 93.230853 
Q 1309.856415 110.890114 1308.329352 119.525057 
Q 1306.80229 128.16 1303.664809 128.16 
Q 1302.18776 128.16 1300.697373 126.21313 
Q 1299.206987 124.289163 1297.7166 120.48704 
L 1297.7166 97.239116 
Q 1299.206987 102.667449 1300.597347 105.438876 
Q 1301.987708 108.187399 1303.281377 108.187399 
Q 1304.595051 108.187399 1305.291898 105.186928 
Q 1305.988745 102.163553 1305.988745 96.574889 
Q 1305.988745 91.581739 1305.515289 88.856121 
Q 1305.041833 86.130502 1303.624799 83.977492 
L 1302.071063 81.618343 
Q 1299.737124 78.18269 1298.656844 70.67006 
Q 1297.579898 63.15743 1297.579898 50.422607 
Q 1297.579898 34.458269 1299.080287 25.869134 
Q 1300.580676 17.28 1303.394739 17.28 
Q 1304.678406 17.28 1306.03209 18.608453 
Q 1307.385774 19.936906 1308.832816 22.570907 
z
" clip-path="url(#p492f0c77fa)" style="fill: #40ba47"/>
   </g>
   <g id="patch_87">
    <path d="M 1315.483689 66.446464 
Q 1316.585428 66.446464 1317.063431 63.119589 
Q 1317.541434 59.76895 1317.541434 52.117137 
Q 1317.541434 44.536614 1317.063431 41.281029 
Q 1316.585428 38.00168 1315.483689 38.00168 
L 1314.008875 38.00168 
L 1314.008875 66.446464 
L 1315.483689 66.446464 
z
M 1314.008875 86.193845 
L 1314.008875 128.16 
L 1310.502547 128.16 
L 1310.502547 17.28 
L 1315.856764 17.28 
Q 1318.544074 17.28 1319.79446 24.646652 
Q 1321.047761 31.989541 1321.047761 47.887252 
Q 1321.047761 58.865941 1320.394879 65.923669 
Q 1319.744911 72.981397 1318.433317 76.332036 
Q 1319.153237 77.662786 1319.721594 82.391702 
Q 1320.292866 87.096854 1320.875796 96.673502 
L 1322.779064 128.16 
L 1319.045394 128.16 
L 1317.386957 100.618225 
Q 1316.885637 92.301037 1316.369743 89.259323 
Q 1315.856764 86.193845 1314.999856 86.193845 
L 1314.008875 86.193845 
z
" clip-path="url(#p492f0c77fa)" style="fill: #bd2e1f"/>
   </g>
   <g id="patch_88">
    <path d="M 1323.552962 17.28 
L 1335.573949 17.28 
L 1335.573949 38.904689 
L 1328.008059 38.904689 
L 1328.008059 59.531316 
L 1335.125847 59.531316 
L 1335.125847 81.156005 
L 1328.008059 81.156005 
L 1328.008059 128.16 
L 1323.552962 128.16 
L 1323.552962 17.28 
z
" clip-path="url(#p492f0c77fa)" style="fill: #21599c"/>
   </g>
   <g id="patch_89">
    <path d="M 1347.600764 22.570907 
L 1347.600764 45.200413 
Q 1346.320432 41.260863 1345.100116 39.268184 
Q 1343.883134 37.252601 1342.799519 37.252601 
Q 1341.36248 37.252601 1340.672301 39.978219 
Q 1339.985456 42.680934 1339.985456 48.407023 
Q 1339.985456 52.713043 1340.44891 55.118 
Q 1340.912363 57.500054 1342.13268 59.217881 
L 1343.839789 61.57703 
Q 1346.433795 65.173014 1347.527412 72.479504 
Q 1348.624363 79.76309 1348.624363 93.230853 
Q 1348.624363 110.890114 1347.0973 119.525057 
Q 1345.570238 128.16 1342.432758 128.16 
Q 1340.955708 128.16 1339.465321 126.21313 
Q 1337.974935 124.289163 1336.484548 120.48704 
L 1336.484548 97.239116 
Q 1337.974935 102.667449 1339.365295 105.438876 
Q 1340.755656 108.187399 1342.049325 108.187399 
Q 1343.362999 108.187399 1344.059846 105.186928 
Q 1344.756693 102.163553 1344.756693 96.574889 
Q 1344.756693 91.581739 1344.283237 88.856121 
Q 1343.809781 86.130502 1342.392747 83.977492 
L 1340.839011 81.618343 
Q 1338.505072 78.18269 1337.424792 70.67006 
Q 1336.347846 63.15743 1336.347846 50.422607 
Q 1336.347846 34.458269 1337.848235 25.869134 
Q 1339.348624 17.28 1342.162687 17.28 
Q 1343.446354 17.28 1344.800038 18.608453 
Q 1346.153722 19.936906 1347.600764 22.570907 
z
" clip-path="url(#p492f0c77fa)" style="fill: #40ba47"/>
   </g>
   <g id="patch_90">
    <path d="M 1354.251637 66.446464 
Q 1355.353376 66.446464 1355.831379 63.119589 
Q 1356.309382 59.76895 1356.309382 52.117137 
Q 1356.309382 44.536614 1355.831379 41.281029 
Q 1355.353376 38.00168 1354.251637 38.00168 
L 1352.776823 38.00168 
L 1352.776823 66.446464 
L 1354.251637 66.446464 
z
M 1352.776823 86.193845 
L 1352.776823 128.16 
L 1349.270496 128.16 
L 1349.270496 17.28 
L 1354.624712 17.28 
Q 1357.312022 17.28 1358.562408 24.646652 
Q 1359.815709 31.989541 1359.815709 47.887252 
Q 1359.815709 58.865941 1359.162827 65.923669 
Q 1358.512859 72.981397 1357.201265 76.332036 
Q 1357.921185 77.662786 1358.489542 82.391702 
Q 1359.060814 87.096854 1359.643744 96.673502 
L 1361.547013 128.16 
L 1357.813342 128.16 
L 1356.154905 100.618225 
Q 1355.653585 92.301037 1355.137691 89.259323 
Q 1354.624712 86.193845 1353.767805 86.193845 
L 1352.776823 86.193845 
z
" clip-path="url(#p492f0c77fa)" style="fill: #bd2e1f"/>
   </g>
   <g id="patch_91">
    <path d="M 1362.193145 17.28 
L 1374.469662 17.28 
L 1374.469662 38.904689 
L 1370.052971 38.904689 
L 1370.052971 128.16 
L 1366.618401 128.16 
L 1366.618401 38.904689 
L 1362.193145 38.904689 
L 1362.193145 17.28 
z
" clip-path="url(#p492f0c77fa)" style="fill: #40ba47"/>
   </g>
   <g id="patch_92">
    <path d="M 1387.392311 118.127891 
Q 1386.154204 123.143945 1384.822552 125.663425 
Q 1383.490899 128.16 1382.071203 128.16 
Q 1378.863131 128.16 1376.989463 113.226358 
Q 1375.115794 98.292716 1375.115794 72.754357 
Q 1375.115794 46.91824 1377.022479 32.09912 
Q 1378.931915 17.28 1382.252792 17.28 
Q 1383.532169 17.28 1384.704244 19.295584 
Q 1385.87907 21.288263 1386.919079 25.227812 
L 1386.919079 47.330518 
Q 1385.846053 42.268655 1384.784033 39.77208 
Q 1383.722012 37.252601 1382.654489 37.252601 
Q 1380.679021 37.252601 1379.608746 46.460153 
Q 1378.538472 55.644801 1378.538472 72.754357 
Q 1378.538472 89.703582 1379.570228 98.956943 
Q 1380.601983 108.187399 1382.500414 108.187399 
Q 1383.017667 108.187399 1383.460634 107.660599 
Q 1383.903601 107.110894 1384.255774 105.965677 
L 1384.255774 85.214328 
L 1382.233533 85.214328 
L 1382.233533 66.73051 
L 1387.392311 66.73051 
L 1387.392311 118.127891 
z
" clip-path="url(#p492f0c77fa)" style="fill: #787800"/>
   </g>
   <g id="patch_93">
    <path d="M 1399.291362 22.570907 
L 1399.291362 45.200413 
Q 1398.01103 41.260863 1396.790713 39.268184 
Q 1395.573731 37.252601 1394.490117 37.252601 
Q 1393.053077 37.252601 1392.362898 39.978219 
Q 1391.676054 42.680934 1391.676054 48.407023 
Q 1391.676054 52.713043 1392.139507 55.118 
Q 1392.602961 57.500054 1393.823277 59.217881 
L 1395.530387 61.57703 
Q 1398.124393 65.173014 1399.218009 72.479504 
Q 1400.314961 79.76309 1400.314961 93.230853 
Q 1400.314961 110.890114 1398.787898 119.525057 
Q 1397.260835 128.16 1394.123355 128.16 
Q 1392.646305 128.16 1391.155919 126.21313 
Q 1389.665532 124.289163 1388.175146 120.48704 
L 1388.175146 97.239116 
Q 1389.665532 102.667449 1391.055893 105.438876 
Q 1392.446253 108.187399 1393.739922 108.187399 
Q 1395.053596 108.187399 1395.750444 105.186928 
Q 1396.447291 102.163553 1396.447291 96.574889 
Q 1396.447291 91.581739 1395.973835 88.856121 
Q 1395.500379 86.130502 1394.083345 83.977492 
L 1392.529608 81.618343 
Q 1390.19567 78.18269 1389.11539 70.67006 
Q 1388.038444 63.15743 1388.038444 50.422607 
Q 1388.038444 34.458269 1389.538833 25.869134 
Q 1391.039222 17.28 1393.853285 17.28 
Q 1395.136951 17.28 1396.490636 18.608453 
Q 1397.84432 19.936906 1399.291362 22.570907 
z
" clip-path="url(#p492f0c77fa)" style="fill: #40ba47"/>
   </g>
   <g id="patch_94">
    <path d="M 1404.32525 38.904689 
L 1404.32525 106.559074 
L 1405.53053 106.559074 
Q 1407.591531 106.559074 1408.679359 97.861672 
Q 1409.769983 89.164269 1409.769983 72.601183 
Q 1409.769983 56.13315 1408.684952 47.530802 
Q 1407.602717 38.904689 1405.53053 38.904689 
L 1404.32525 38.904689 
z
M 1400.961093 17.28 
L 1404.507021 17.28 
Q 1407.479672 17.28 1408.933838 20.892036 
Q 1410.388004 24.480309 1411.428292 33.106421 
Q 1412.345535 40.615654 1412.790174 50.429936 
Q 1413.23761 60.220454 1413.23761 72.601183 
Q 1413.23761 85.172019 1412.790174 95.010064 
Q 1412.345535 104.84811 1411.428292 112.333579 
Q 1410.379614 120.959691 1408.911466 124.571727 
Q 1407.443318 128.16 1404.507021 128.16 
L 1400.961093 128.16 
L 1400.961093 17.28 
z
" clip-path="url(#p492f0c77fa)" style="fill: #6b296b"/>
   </g>
   <g id="patch_95">
    <path d="M 1426.160259 120.212188 
Q 1425.13335 124.151737 1424.022927 126.144416 
Q 1422.912504 128.16 1421.703101 128.16 
Q 1418.096546 128.16 1415.990144 113.226358 
Q 1413.883742 98.292716 1413.883742 72.754357 
Q 1413.883742 47.124379 1415.990144 32.213642 
Q 1418.096546 17.28 1421.703101 17.28 
Q 1422.912504 17.28 1424.022927 19.295584 
Q 1425.13335 21.288263 1426.160259 25.227812 
L 1426.160259 47.330518 
Q 1425.124071 42.108325 1424.118813 39.680463 
Q 1423.113555 37.252601 1422.003132 37.252601 
Q 1420.011175 37.252601 1418.869821 46.712101 
Q 1417.73156 56.148697 1417.73156 72.754357 
Q 1417.73156 89.291303 1418.869821 98.750804 
Q 1420.011175 108.187399 1422.003132 108.187399 
Q 1423.113555 108.187399 1424.118813 105.759537 
Q 1425.124071 103.308771 1426.160259 98.086577 
L 1426.160259 120.212188 
z
" clip-path="url(#p492f0c77fa)" style="fill: #6b296b"/>
   </g>
   <g id="patch_96">
    <path d="M 1439.082909 120.212188 
Q 1438.055999 124.151737 1436.945576 126.144416 
Q 1435.835153 128.16 1434.625751 128.16 
Q 1431.019195 128.16 1428.912793 113.226358 
Q 1426.806392 98.292716 1426.806392 72.754357 
Q 1426.806392 47.124379 1428.912793 32.213642 
Q 1431.019195 17.28 1434.625751 17.28 
Q 1435.835153 17.28 1436.945576 19.295584 
Q 1438.055999 21.288263 1439.082909 25.227812 
L 1439.082909 47.330518 
Q 1438.04672 42.108325 1437.041462 39.680463 
Q 1436.036205 37.252601 1434.925781 37.252601 
Q 1432.933824 37.252601 1431.79247 46.712101 
Q 1430.654209 56.148697 1430.654209 72.754357 
Q 1430.654209 89.291303 1431.79247 98.750804 
Q 1432.933824 108.187399 1434.925781 108.187399 
Q 1436.036205 108.187399 1437.041462 105.759537 
Q 1438.04672 103.308771 1439.082909 98.086577 
L 1439.082909 120.212188 
z
" clip-path="url(#p492f0c77fa)" style="fill: #6b296b"/>
   </g>
   <g id="patch_97">
    <path d="M 1448.232995 107.961114 
L 1443.511644 107.961114 
L 1442.766168 128.16 
L 1439.729041 128.16 
L 1444.066359 17.28 
L 1447.66824 17.28 
L 1452.005558 128.16 
L 1448.970942 128.16 
L 1448.232995 107.961114 
z
M 1444.264651 87.382015 
L 1447.472459 87.382015 
L 1445.871065 43.277154 
L 1444.264651 87.382015 
z
" clip-path="url(#p492f0c77fa)" style="fill: #21599c"/>
   </g>
   <g id="patch_98">
    <path d="M 1456.5624 17.28 
L 1461.017498 17.28 
L 1461.017498 128.16 
L 1456.5624 128.16 
L 1456.5624 17.28 
z
" clip-path="url(#p492f0c77fa)" style="fill: #21599c"/>
   </g>
   <g id="patch_99">
    <path d="M 1477.850857 118.127891 
Q 1476.61275 123.143945 1475.281097 125.663425 
Q 1473.949445 128.16 1472.529749 128.16 
Q 1469.321677 128.16 1467.448008 113.226358 
Q 1465.57434 98.292716 1465.57434 72.754357 
Q 1465.57434 46.91824 1467.481024 32.09912 
Q 1469.39046 17.28 1472.711338 17.28 
Q 1473.990715 17.28 1475.162789 19.295584 
Q 1476.337615 21.288263 1477.377625 25.227812 
L 1477.377625 47.330518 
Q 1476.304599 42.268655 1475.242579 39.77208 
Q 1474.180558 37.252601 1473.113035 37.252601 
Q 1471.137567 37.252601 1470.067292 46.460153 
Q 1468.997017 55.644801 1468.997017 72.754357 
Q 1468.997017 89.703582 1470.028773 98.956943 
Q 1471.060529 108.187399 1472.958959 108.187399 
Q 1473.476213 108.187399 1473.91918 107.660599 
Q 1474.362147 107.110894 1474.71432 105.965677 
L 1474.71432 85.214328 
L 1472.692078 85.214328 
L 1472.692078 66.73051 
L 1477.850857 66.73051 
L 1477.850857 118.127891 
z
" clip-path="url(#p492f0c77fa)" style="fill: #787800"/>
   </g>
   <g id="patch_100">
    <path d="M 1483.478131 66.446464 
Q 1484.579869 66.446464 1485.057872 63.119589 
Q 1485.535875 59.76895 1485.535875 52.117137 
Q 1485.535875 44.536614 1485.057872 41.281029 
Q 1484.579869 38.00168 1483.478131 38.00168 
L 1482.003316 38.00168 
L 1482.003316 66.446464 
L 1483.478131 66.446464 
z
M 1482.003316 86.193845 
L 1482.003316 128.16 
L 1478.496989 128.16 
L 1478.496989 17.28 
L 1483.851206 17.28 
Q 1486.538516 17.28 1487.788902 24.646652 
Q 1489.042203 31.989541 1489.042203 47.887252 
Q 1489.042203 58.865941 1488.38932 65.923669 
Q 1487.739353 72.981397 1486.427759 76.332036 
Q 1487.147678 77.662786 1487.716036 82.391702 
Q 1488.287308 87.096854 1488.870238 96.673502 
L 1490.773506 128.16 
L 1487.039836 128.16 
L 1485.381399 100.618225 
Q 1484.880079 92.301037 1484.364185 89.259323 
Q 1483.851206 86.193845 1482.994298 86.193845 
L 1482.003316 86.193845 
z
" clip-path="url(#p492f0c77fa)" style="fill: #bd2e1f"/>
   </g>
   <g id="patch_101">
    <path d="M 1491.547403 17.28 
L 1503.568391 17.28 
L 1503.568391 38.904689 
L 1496.002501 38.904689 
L 1496.002501 59.531316 
L 1503.120289 59.531316 
L 1503.120289 81.156005 
L 1496.002501 81.156005 
L 1496.002501 128.16 
L 1491.547403 128.16 
L 1491.547403 17.28 
z
" clip-path="url(#p492f0c77fa)" style="fill: #21599c"/>
   </g>
   <g id="patch_102">
    <path d="M 1504.342288 17.28 
L 1510.723519 17.28 
Q 1513.572055 17.28 1515.093831 26.690304 
Q 1516.618805 36.076845 1516.618805 53.447887 
Q 1516.618805 70.913982 1515.093831 80.300523 
Q 1513.572055 89.687064 1510.723519 89.687064 
L 1508.188291 89.687064 
L 1508.188291 128.16 
L 1504.342288 128.16 
L 1504.342288 17.28 
z
M 1508.188291 38.00168 
L 1508.188291 68.965384 
L 1510.314302 68.965384 
Q 1511.433255 68.965384 1512.043884 64.925607 
Q 1512.654513 60.885829 1512.654513 53.447887 
Q 1512.654513 46.033708 1512.043884 42.017694 
Q 1511.433255 38.00168 1510.314302 38.00168 
L 1508.188291 38.00168 
z
" clip-path="url(#p492f0c77fa)" style="fill: #787800"/>
   </g>
   <g id="patch_103">
    <path d="M 1528.517856 22.570907 
L 1528.517856 45.200413 
Q 1527.237524 41.260863 1526.017207 39.268184 
Q 1524.800225 37.252601 1523.716611 37.252601 
Q 1522.279571 37.252601 1521.589392 39.978219 
Q 1520.902547 42.680934 1520.902547 48.407023 
Q 1520.902547 52.713043 1521.366001 55.118 
Q 1521.829454 57.500054 1523.049771 59.217881 
L 1524.75688 61.57703 
Q 1527.350886 65.173014 1528.444503 72.479504 
Q 1529.541454 79.76309 1529.541454 93.230853 
Q 1529.541454 110.890114 1528.014392 119.525057 
Q 1526.487329 128.16 1523.349849 128.16 
Q 1521.872799 128.16 1520.382413 126.21313 
Q 1518.892026 124.289163 1517.40164 120.48704 
L 1517.40164 97.239116 
Q 1518.892026 102.667449 1520.282387 105.438876 
Q 1521.672747 108.187399 1522.966416 108.187399 
Q 1524.28009 108.187399 1524.976937 105.186928 
Q 1525.673785 102.163553 1525.673785 96.574889 
Q 1525.673785 91.581739 1525.200329 88.856121 
Q 1524.726873 86.130502 1523.309838 83.977492 
L 1521.756102 81.618343 
Q 1519.422164 78.18269 1518.341883 70.67006 
Q 1517.264937 63.15743 1517.264937 50.422607 
Q 1517.264937 34.458269 1518.765327 25.869134 
Q 1520.265716 17.28 1523.079779 17.28 
Q 1524.363445 17.28 1525.717129 18.608453 
Q 1527.070814 19.936906 1528.517856 22.570907 
z
" clip-path="url(#p492f0c77fa)" style="fill: #40ba47"/>
   </g>
   <g id="patch_104">
    <path d="M 1542.464104 118.127891 
Q 1541.225997 123.143945 1539.894344 125.663425 
Q 1538.562692 128.16 1537.142996 128.16 
Q 1533.934923 128.16 1532.061255 113.226358 
Q 1530.187587 98.292716 1530.187587 72.754357 
Q 1530.187587 46.91824 1532.094271 32.09912 
Q 1534.003707 17.28 1537.324585 17.28 
Q 1538.603962 17.28 1539.776036 19.295584 
Q 1540.950862 21.288263 1541.990872 25.227812 
L 1541.990872 47.330518 
Q 1540.917846 42.268655 1539.855825 39.77208 
Q 1538.793805 37.252601 1537.726282 37.252601 
Q 1535.750813 37.252601 1534.680539 46.460153 
Q 1533.610264 55.644801 1533.610264 72.754357 
Q 1533.610264 89.703582 1534.64202 98.956943 
Q 1535.673776 108.187399 1537.572206 108.187399 
Q 1538.08946 108.187399 1538.532427 107.660599 
Q 1538.975394 107.110894 1539.327566 105.965677 
L 1539.327566 85.214328 
L 1537.305325 85.214328 
L 1537.305325 66.73051 
L 1542.464104 66.73051 
L 1542.464104 118.127891 
z
" clip-path="url(#p492f0c77fa)" style="fill: #787800"/>
   </g>
   <g id="patch_105">
    <path d="M 1555.386753 118.127891 
Q 1554.148646 123.143945 1552.816994 125.663425 
Q 1551.485341 128.16 1550.065645 128.16 
Q 1546.857573 128.16 1544.983905 113.226358 
Q 1543.110236 98.292716 1543.110236 72.754357 
Q 1543.110236 46.91824 1545.016921 32.09912 
Q 1546.926357 17.28 1550.247234 17.28 
Q 1551.526611 17.28 1552.698686 19.295584 
Q 1553.873511 21.288263 1554.913521 25.227812 
L 1554.913521 47.330518 
Q 1553.840495 42.268655 1552.778475 39.77208 
Q 1551.716454 37.252601 1550.648931 37.252601 
Q 1548.673463 37.252601 1547.603188 46.460153 
Q 1546.532914 55.644801 1546.532914 72.754357 
Q 1546.532914 89.703582 1547.564669 98.956943 
Q 1548.596425 108.187399 1550.494856 108.187399 
Q 1551.012109 108.187399 1551.455076 107.660599 
Q 1551.898043 107.110894 1552.250216 105.965677 
L 1552.250216 85.214328 
L 1550.227975 85.214328 
L 1550.227975 66.73051 
L 1555.386753 66.73051 
L 1555.386753 118.127891 
z
" clip-path="url(#p492f0c77fa)" style="fill: #787800"/>
   </g>
   <g id="patch_106">
    <path d="M 1561.014027 66.446464 
Q 1562.115766 66.446464 1562.593769 63.119589 
Q 1563.071772 59.76895 1563.071772 52.117137 
Q 1563.071772 44.536614 1562.593769 41.281029 
Q 1562.115766 38.00168 1561.014027 38.00168 
L 1559.539213 38.00168 
L 1559.539213 66.446464 
L 1561.014027 66.446464 
z
M 1559.539213 86.193845 
L 1559.539213 128.16 
L 1556.032886 128.16 
L 1556.032886 17.28 
L 1561.387102 17.28 
Q 1564.074412 17.28 1565.324798 24.646652 
Q 1566.578099 31.989541 1566.578099 47.887252 
Q 1566.578099 58.865941 1565.925217 65.923669 
Q 1565.275249 72.981397 1563.963655 76.332036 
Q 1564.683575 77.662786 1565.251932 82.391702 
Q 1565.823204 87.096854 1566.406134 96.673502 
L 1568.309403 128.16 
L 1564.575732 128.16 
L 1562.917295 100.618225 
Q 1562.415975 92.301037 1561.900081 89.259323 
Q 1561.387102 86.193845 1560.530195 86.193845 
L 1559.539213 86.193845 
z
" clip-path="url(#p492f0c77fa)" style="fill: #bd2e1f"/>
   </g>
   <g id="patch_107">
    <path d="M 1577.459489 107.961114 
L 1572.738138 107.961114 
L 1571.992661 128.16 
L 1568.955535 128.16 
L 1573.292853 17.28 
L 1576.894734 17.28 
L 1581.232052 128.16 
L 1578.197435 128.16 
L 1577.459489 107.961114 
z
M 1573.491144 87.382015 
L 1576.698952 87.382015 
L 1575.097558 43.277154 
L 1573.491144 87.382015 
z
" clip-path="url(#p492f0c77fa)" style="fill: #21599c"/>
   </g>
   <g id="patch_108">
    <path d="M 1594.154701 118.127891 
Q 1592.916594 123.143945 1591.584942 125.663425 
Q 1590.253289 128.16 1588.833593 128.16 
Q 1585.625521 128.16 1583.751853 113.226358 
Q 1581.878184 98.292716 1581.878184 72.754357 
Q 1581.878184 46.91824 1583.784869 32.09912 
Q 1585.694305 17.28 1589.015182 17.28 
Q 1590.294559 17.28 1591.466634 19.295584 
Q 1592.64146 21.288263 1593.681469 25.227812 
L 1593.681469 47.330518 
Q 1592.608443 42.268655 1591.546423 39.77208 
Q 1590.484402 37.252601 1589.416879 37.252601 
Q 1587.441411 37.252601 1586.371136 46.460153 
Q 1585.300862 55.644801 1585.300862 72.754357 
Q 1585.300862 89.703582 1586.332618 98.956943 
Q 1587.364373 108.187399 1589.262804 108.187399 
Q 1589.780057 108.187399 1590.223024 107.660599 
Q 1590.665991 107.110894 1591.018164 105.965677 
L 1591.018164 85.214328 
L 1588.995923 85.214328 
L 1588.995923 66.73051 
L 1594.154701 66.73051 
L 1594.154701 118.127891 
z
" clip-path="url(#p492f0c77fa)" style="fill: #787800"/>
   </g>
   <g id="patch_109">
    <path d="M 1599.781975 66.446464 
Q 1600.883714 66.446464 1601.361717 63.119589 
Q 1601.83972 59.76895 1601.83972 52.117137 
Q 1601.83972 44.536614 1601.361717 41.281029 
Q 1600.883714 38.00168 1599.781975 38.00168 
L 1598.307161 38.00168 
L 1598.307161 66.446464 
L 1599.781975 66.446464 
z
M 1598.307161 86.193845 
L 1598.307161 128.16 
L 1594.800834 128.16 
L 1594.800834 17.28 
L 1600.155051 17.28 
Q 1602.84236 17.28 1604.092746 24.646652 
Q 1605.346047 31.989541 1605.346047 47.887252 
Q 1605.346047 58.865941 1604.693165 65.923669 
Q 1604.043197 72.981397 1602.731604 76.332036 
Q 1603.451523 77.662786 1604.01988 82.391702 
Q 1604.591152 87.096854 1605.174082 96.673502 
L 1607.077351 128.16 
L 1603.343681 128.16 
L 1601.685243 100.618225 
Q 1601.183923 92.301037 1600.668029 89.259323 
Q 1600.155051 86.193845 1599.298143 86.193845 
L 1598.307161 86.193845 
z
" clip-path="url(#p492f0c77fa)" style="fill: #bd2e1f"/>
   </g>
   <g id="patch_110">
    <path d="M 1620 118.127891 
Q 1618.761893 123.143945 1617.430241 125.663425 
Q 1616.098588 128.16 1614.678892 128.16 
Q 1611.47082 128.16 1609.597151 113.226358 
Q 1607.723483 98.292716 1607.723483 72.754357 
Q 1607.723483 46.91824 1609.630168 32.09912 
Q 1611.539603 17.28 1614.860481 17.28 
Q 1616.139858 17.28 1617.311933 19.295584 
Q 1618.486758 21.288263 1619.526768 25.227812 
L 1619.526768 47.330518 
Q 1618.453742 42.268655 1617.391722 39.77208 
Q 1616.329701 37.252601 1615.262178 37.252601 
Q 1613.28671 37.252601 1612.216435 46.460153 
Q 1611.146161 55.644801 1611.146161 72.754357 
Q 1611.146161 89.703582 1612.177916 98.956943 
Q 1613.209672 108.187399 1615.108102 108.187399 
Q 1615.625356 108.187399 1616.068323 107.660599 
Q 1616.51129 107.110894 1616.863463 105.965677 
L 1616.863463 85.214328 
L 1614.841222 85.214328 
L 1614.841222 66.73051 
L 1620 66.73051 
L 1620 118.127891 
z
" clip-path="url(#p492f0c77fa)" style="fill: #787800"/>
   </g>
   <g id="matplotlib.axis_1">
    <g id="xtick_1">
     <g id="line2d_2">
      <defs>
       <path id="m77446a0a6c" d="M 0 0 
L 0 3.5 
" style="stroke: #000000; stroke-width: 0.8"/>
      </defs>
      <g>
       <use xlink:href="#m77446a0a6c" x="231.138258" y="128.16" style="stroke: #000000; stroke-width: 0.8"/>
      </g>
     </g>
     <g id="text_1">
      <!-- 0 -->
      <g transform="translate(227.957008 142.758438) scale(0.1 -0.1)">
       <defs>
        <path id="DejaVuSans-30" d="M 2034 4250 
Q 1547 4250 1301 3770 
Q 1056 3291 1056 2328 
Q 1056 1369 1301 889 
Q 1547 409 2034 409 
Q 2525 409 2770 889 
Q 3016 1369 3016 2328 
Q 3016 3291 2770 3770 
Q 2525 4250 2034 4250 
z
M 2034 4750 
Q 2819 4750 3233 4129 
Q 3647 3509 3647 2328 
Q 3647 1150 3233 529 
Q 2819 -91 2034 -91 
Q 1250 -91 836 529 
Q 422 1150 422 2328 
Q 422 3509 836 4129 
Q 1250 4750 2034 4750 
z
" transform="scale(0.015625)"/>
       </defs>
       <use xlink:href="#DejaVuSans-30"/>
      </g>
     </g>
    </g>
    <g id="xtick_2">
     <g id="line2d_3">
      <g>
       <use xlink:href="#m77446a0a6c" x="489.591246" y="128.16" style="stroke: #000000; stroke-width: 0.8"/>
      </g>
     </g>
     <g id="text_2">
      <!-- 20 -->
      <g transform="translate(483.228746 142.758438) scale(0.1 -0.1)">
       <defs>
        <path id="DejaVuSans-32" d="M 1228 531 
L 3431 531 
L 3431 0 
L 469 0 
L 469 531 
Q 828 903 1448 1529 
Q 2069 2156 2228 2338 
Q 2531 2678 2651 2914 
Q 2772 3150 2772 3378 
Q 2772 3750 2511 3984 
Q 2250 4219 1831 4219 
Q 1534 4219 1204 4116 
Q 875 4013 500 3803 
L 500 4441 
Q 881 4594 1212 4672 
Q 1544 4750 1819 4750 
Q 2544 4750 2975 4387 
Q 3406 4025 3406 3419 
Q 3406 3131 3298 2873 
Q 3191 2616 2906 2266 
Q 2828 2175 2409 1742 
Q 1991 1309 1228 531 
z
" transform="scale(0.015625)"/>
       </defs>
       <use xlink:href="#DejaVuSans-32"/>
       <use xlink:href="#DejaVuSans-30" x="63.623047"/>
      </g>
     </g>
    </g>
    <g id="xtick_3">
     <g id="line2d_4">
      <g>
       <use xlink:href="#m77446a0a6c" x="748.044233" y="128.16" style="stroke: #000000; stroke-width: 0.8"/>
      </g>
     </g>
     <g id="text_3">
      <!-- 40 -->
      <g transform="translate(741.681733 142.758438) scale(0.1 -0.1)">
       <defs>
        <path id="DejaVuSans-34" d="M 2419 4116 
L 825 1625 
L 2419 1625 
L 2419 4116 
z
M 2253 4666 
L 3047 4666 
L 3047 1625 
L 3713 1625 
L 3713 1100 
L 3047 1100 
L 3047 0 
L 2419 0 
L 2419 1100 
L 313 1100 
L 313 1709 
L 2253 4666 
z
" transform="scale(0.015625)"/>
       </defs>
       <use xlink:href="#DejaVuSans-34"/>
       <use xlink:href="#DejaVuSans-30" x="63.623047"/>
      </g>
     </g>
    </g>
    <g id="xtick_4">
     <g id="line2d_5">
      <g>
       <use xlink:href="#m77446a0a6c" x="1006.497221" y="128.16" style="stroke: #000000; stroke-width: 0.8"/>
      </g>
     </g>
     <g id="text_4">
      <!-- 60 -->
      <g transform="translate(1000.134721 142.758438) scale(0.1 -0.1)">
       <defs>
        <path id="DejaVuSans-36" d="M 2113 2584 
Q 1688 2584 1439 2293 
Q 1191 2003 1191 1497 
Q 1191 994 1439 701 
Q 1688 409 2113 409 
Q 2538 409 2786 701 
Q 3034 994 3034 1497 
Q 3034 2003 2786 2293 
Q 2538 2584 2113 2584 
z
M 3366 4563 
L 3366 3988 
Q 3128 4100 2886 4159 
Q 2644 4219 2406 4219 
Q 1781 4219 1451 3797 
Q 1122 3375 1075 2522 
Q 1259 2794 1537 2939 
Q 1816 3084 2150 3084 
Q 2853 3084 3261 2657 
Q 3669 2231 3669 1497 
Q 3669 778 3244 343 
Q 2819 -91 2113 -91 
Q 1303 -91 875 529 
Q 447 1150 447 2328 
Q 447 3434 972 4092 
Q 1497 4750 2381 4750 
Q 2619 4750 2861 4703 
Q 3103 4656 3366 4563 
z
" transform="scale(0.015625)"/>
       </defs>
       <use xlink:href="#DejaVuSans-36"/>
       <use xlink:href="#DejaVuSans-30" x="63.623047"/>
      </g>
     </g>
    </g>
    <g id="xtick_5">
     <g id="line2d_6">
      <g>
       <use xlink:href="#m77446a0a6c" x="1264.950208" y="128.16" style="stroke: #000000; stroke-width: 0.8"/>
      </g>
     </g>
     <g id="text_5">
      <!-- 80 -->
      <g transform="translate(1258.587708 142.758438) scale(0.1 -0.1)">
       <defs>
        <path id="DejaVuSans-38" d="M 2034 2216 
Q 1584 2216 1326 1975 
Q 1069 1734 1069 1313 
Q 1069 891 1326 650 
Q 1584 409 2034 409 
Q 2484 409 2743 651 
Q 3003 894 3003 1313 
Q 3003 1734 2745 1975 
Q 2488 2216 2034 2216 
z
M 1403 2484 
Q 997 2584 770 2862 
Q 544 3141 544 3541 
Q 544 4100 942 4425 
Q 1341 4750 2034 4750 
Q 2731 4750 3128 4425 
Q 3525 4100 3525 3541 
Q 3525 3141 3298 2862 
Q 3072 2584 2669 2484 
Q 3125 2378 3379 2068 
Q 3634 1759 3634 1313 
Q 3634 634 3220 271 
Q 2806 -91 2034 -91 
Q 1263 -91 848 271 
Q 434 634 434 1313 
Q 434 1759 690 2068 
Q 947 2378 1403 2484 
z
M 1172 3481 
Q 1172 3119 1398 2916 
Q 1625 2713 2034 2713 
Q 2441 2713 2670 2916 
Q 2900 3119 2900 3481 
Q 2900 3844 2670 4047 
Q 2441 4250 2034 4250 
Q 1625 4250 1398 4047 
Q 1172 3844 1172 3481 
z
" transform="scale(0.015625)"/>
       </defs>
       <use xlink:href="#DejaVuSans-38"/>
       <use xlink:href="#DejaVuSans-30" x="63.623047"/>
      </g>
     </g>
    </g>
    <g id="xtick_6">
     <g id="line2d_7">
      <g>
       <use xlink:href="#m77446a0a6c" x="1523.403196" y="128.16" style="stroke: #000000; stroke-width: 0.8"/>
      </g>
     </g>
     <g id="text_6">
      <!-- 100 -->
      <g transform="translate(1513.859446 142.758438) scale(0.1 -0.1)">
       <defs>
        <path id="DejaVuSans-31" d="M 794 531 
L 1825 531 
L 1825 4091 
L 703 3866 
L 703 4441 
L 1819 4666 
L 2450 4666 
L 2450 531 
L 3481 531 
L 3481 0 
L 794 0 
L 794 531 
z
" transform="scale(0.015625)"/>
       </defs>
       <use xlink:href="#DejaVuSans-31"/>
       <use xlink:href="#DejaVuSans-30" x="63.623047"/>
       <use xlink:href="#DejaVuSans-30" x="127.246094"/>
      </g>
     </g>
    </g>
   </g>
   <g id="matplotlib.axis_2">
    <g id="ytick_1">
     <g id="line2d_8">
      <defs>
       <path id="m7ab6989781" d="M 0 0 
L -3.5 0 
" style="stroke: #000000; stroke-width: 0.8"/>
      </defs>
      <g>
       <use xlink:href="#m7ab6989781" x="225" y="128.16" style="stroke: #000000; stroke-width: 0.8"/>
      </g>
     </g>
     <g id="text_7">
      <!-- 0.0 -->
      <g transform="translate(202.096875 131.959219) scale(0.1 -0.1)">
       <defs>
        <path id="DejaVuSans-2e" d="M 684 794 
L 1344 794 
L 1344 0 
L 684 0 
L 684 794 
z
" transform="scale(0.015625)"/>
       </defs>
       <use xlink:href="#DejaVuSans-30"/>
       <use xlink:href="#DejaVuSans-2e" x="63.623047"/>
       <use xlink:href="#DejaVuSans-30" x="95.410156"/>
      </g>
     </g>
    </g>
    <g id="ytick_2">
     <g id="line2d_9">
      <g>
       <use xlink:href="#m7ab6989781" x="225" y="105.984" style="stroke: #000000; stroke-width: 0.8"/>
      </g>
     </g>
     <g id="text_8">
      <!-- 0.2 -->
      <g transform="translate(202.096875 109.783219) scale(0.1 -0.1)">
       <use xlink:href="#DejaVuSans-30"/>
       <use xlink:href="#DejaVuSans-2e" x="63.623047"/>
       <use xlink:href="#DejaVuSans-32" x="95.410156"/>
      </g>
     </g>
    </g>
    <g id="ytick_3">
     <g id="line2d_10">
      <g>
       <use xlink:href="#m7ab6989781" x="225" y="83.808" style="stroke: #000000; stroke-width: 0.8"/>
      </g>
     </g>
     <g id="text_9">
      <!-- 0.4 -->
      <g transform="translate(202.096875 87.607219) scale(0.1 -0.1)">
       <use xlink:href="#DejaVuSans-30"/>
       <use xlink:href="#DejaVuSans-2e" x="63.623047"/>
       <use xlink:href="#DejaVuSans-34" x="95.410156"/>
      </g>
     </g>
    </g>
    <g id="ytick_4">
     <g id="line2d_11">
      <g>
       <use xlink:href="#m7ab6989781" x="225" y="61.632" style="stroke: #000000; stroke-width: 0.8"/>
      </g>
     </g>
     <g id="text_10">
      <!-- 0.6 -->
      <g transform="translate(202.096875 65.431219) scale(0.1 -0.1)">
       <use xlink:href="#DejaVuSans-30"/>
       <use xlink:href="#DejaVuSans-2e" x="63.623047"/>
       <use xlink:href="#DejaVuSans-36" x="95.410156"/>
      </g>
     </g>
    </g>
    <g id="ytick_5">
     <g id="line2d_12">
      <g>
       <use xlink:href="#m7ab6989781" x="225" y="39.456" style="stroke: #000000; stroke-width: 0.8"/>
      </g>
     </g>
     <g id="text_11">
      <!-- 0.8 -->
      <g transform="translate(202.096875 43.255219) scale(0.1 -0.1)">
       <use xlink:href="#DejaVuSans-30"/>
       <use xlink:href="#DejaVuSans-2e" x="63.623047"/>
       <use xlink:href="#DejaVuSans-38" x="95.410156"/>
      </g>
     </g>
    </g>
    <g id="ytick_6">
     <g id="line2d_13">
      <g>
       <use xlink:href="#m7ab6989781" x="225" y="17.28" style="stroke: #000000; stroke-width: 0.8"/>
      </g>
     </g>
     <g id="text_12">
      <!-- 1.0 -->
      <g transform="translate(202.096875 21.079219) scale(0.1 -0.1)">
       <use xlink:href="#DejaVuSans-31"/>
       <use xlink:href="#DejaVuSans-2e" x="63.623047"/>
       <use xlink:href="#DejaVuSans-30" x="95.410156"/>
      </g>
     </g>
    </g>
   </g>
  </g>
 </g>
 <defs>
  <clipPath id="p492f0c77fa">
   <rect x="225" y="17.28" width="1395" height="110.88"/>
  </clipPath>
 </defs>
</svg>
