<?xml version="1.0" encoding="utf-8" standalone="no"?>
<!DOCTYPE svg PUBLIC "-//W3C//DTD SVG 1.1//EN"
  "http://www.w3.org/Graphics/SVG/1.1/DTD/svg11.dtd">
<svg xmlns:xlink="http://www.w3.org/1999/xlink" width="1800pt" height="144pt" viewBox="0 0 1800 144" xmlns="http://www.w3.org/2000/svg" version="1.1">
 <metadata>
  <rdf:RDF xmlns:dc="http://purl.org/dc/elements/1.1/" xmlns:cc="http://creativecommons.org/ns#" xmlns:rdf="http://www.w3.org/1999/02/22-rdf-syntax-ns#">
   <cc:Work>
    <dc:type rdf:resource="http://purl.org/dc/dcmitype/StillImage"/>
    <dc:date>2025-05-09T21:11:17.778602</dc:date>
    <dc:format>image/svg+xml</dc:format>
    <dc:creator>
     <cc:Agent>
      <dc:title>Matplotlib v3.8.0, https://matplotlib.org/</dc:title>
     </cc:Agent>
    </dc:creator>
   </cc:Work>
  </rdf:RDF>
 </metadata>
 <defs>
  <style type="text/css">*{stroke-linejoin: round; stroke-linecap: butt}</style>
 </defs>
 <g id="figure_1">
  <g id="patch_1">
   <path d="M 0 144 
L 1800 144 
L 1800 0 
L 0 0 
z
" style="fill: #ffffff"/>
  </g>
  <g id="axes_1">
   <g id="patch_2">
    <path d="M 225 128.16 
L 1620 128.16 
L 1620 17.28 
L 225 17.28 
z
" style="fill: #ffffff"/>
   </g>
   <g id="line2d_1">
    <path d="M 225 128.16 
L 1620 128.16 
" clip-path="url(#p9761970a75)" style="fill: none; stroke: #000000; stroke-width: 1.5; stroke-linecap: square"/>
   </g>
   <g id="patch_3">
    <path d="M 225 17.28 
L 228.760808 17.28 
L 231.369546 76.617197 
L 233.995479 17.28 
L 237.748918 17.28 
L 237.748918 128.16 
L 234.955947 128.16 
L 234.955947 47.055534 
L 232.315275 106.844235 
L 230.441012 106.844235 
L 227.80034 47.055534 
L 227.80034 128.16 
L 225 128.16 
L 225 17.28 
z
" clip-path="url(#p9761970a75)" style="fill: #21599c"/>
   </g>
   <g id="patch_4">
    <path d="M 238.552594 17.28 
L 251.03615 17.28 
L 251.03615 38.904689 
L 243.179125 38.904689 
L 243.179125 59.531316 
L 250.570805 59.531316 
L 250.570805 81.156005 
L 243.179125 81.156005 
L 243.179125 128.16 
L 238.552594 128.16 
L 238.552594 17.28 
z
" clip-path="url(#p9761970a75)" style="fill: #21599c"/>
   </g>
   <g id="patch_5">
    <path d="M 264.588745 118.127891 
Q 263.302995 123.143945 261.920101 125.663425 
Q 260.537206 128.16 259.06288 128.16 
Q 255.731361 128.16 253.785594 113.226358 
Q 251.839827 98.292716 251.839827 72.754357 
Q 251.839827 46.91824 253.819881 32.09912 
Q 255.802792 17.28 259.251457 17.28 
Q 260.580064 17.28 261.79724 19.295584 
Q 263.017273 21.288263 264.097303 25.227812 
L 264.097303 47.330518 
Q 262.982987 42.268655 261.8801 39.77208 
Q 260.777212 37.252601 259.668611 37.252601 
Q 257.617127 37.252601 256.505668 46.460153 
Q 255.394209 55.644801 255.394209 72.754357 
Q 255.394209 89.703582 256.465667 98.956943 
Q 257.537124 108.187399 259.508607 108.187399 
Q 260.045764 108.187399 260.505777 107.660599 
Q 260.965789 107.110894 261.331513 105.965677 
L 261.331513 85.214328 
L 259.231456 85.214328 
L 259.231456 66.73051 
L 264.588745 66.73051 
L 264.588745 118.127891 
z
" clip-path="url(#p9761970a75)" style="fill: #787800"/>
   </g>
   <g id="patch_6">
    <path d="M 265.25974 17.28 
L 269.354884 17.28 
L 274.529463 93.322863 
L 274.529463 17.28 
L 278.008658 17.28 
L 278.008658 128.16 
L 273.910465 128.16 
L 268.735886 52.117137 
L 268.735886 128.16 
L 265.25974 128.16 
L 265.25974 17.28 
z
" clip-path="url(#p9761970a75)" style="fill: #40ba47"/>
   </g>
   <g id="patch_7">
    <path d="M 278.679654 17.28 
L 282.039336 17.28 
L 282.039336 57.749061 
L 286.881969 17.28 
L 290.783445 17.28 
L 284.508129 69.797102 
L 291.428571 128.16 
L 287.222685 128.16 
L 282.039336 84.48288 
L 282.039336 128.16 
L 278.679654 128.16 
L 278.679654 17.28 
z
" clip-path="url(#p9761970a75)" style="fill: #bd2e1f"/>
   </g>
   <g id="patch_8">
    <path d="M 292.099567 17.28 
L 304.583123 17.28 
L 304.583123 38.904689 
L 296.726097 38.904689 
L 296.726097 59.531316 
L 304.117778 59.531316 
L 304.117778 81.156005 
L 296.726097 81.156005 
L 296.726097 106.559074 
L 304.848485 106.559074 
L 304.848485 128.16 
L 292.099567 128.16 
L 292.099567 17.28 
z
" clip-path="url(#p9761970a75)" style="fill: #6b296b"/>
   </g>
   <g id="patch_9">
    <path d="M 305.519481 17.28 
L 318.268398 17.28 
L 318.268398 38.904689 
L 313.681753 38.904689 
L 313.681753 128.16 
L 310.115021 128.16 
L 310.115021 38.904689 
L 305.519481 38.904689 
L 305.519481 17.28 
z
" clip-path="url(#p9761970a75)" style="fill: #40ba47"/>
   </g>
   <g id="patch_10">
    <path d="M 318.939394 17.28 
L 322.607643 17.28 
L 322.607643 59.531316 
L 328.020063 59.531316 
L 328.020063 17.28 
L 331.688312 17.28 
L 331.688312 128.16 
L 328.020063 128.16 
L 328.020063 81.156005 
L 322.607643 81.156005 
L 322.607643 128.16 
L 318.939394 128.16 
L 318.939394 17.28 
z
" clip-path="url(#p9761970a75)" style="fill: #177875"/>
   </g>
   <g id="patch_11">
    <path d="M 332.359307 17.28 
L 336.985838 17.28 
L 336.985838 106.559074 
L 345.108225 106.559074 
L 345.108225 128.16 
L 332.359307 128.16 
L 332.359307 17.28 
z
" clip-path="url(#p9761970a75)" style="fill: #21599c"/>
   </g>
   <g id="patch_12">
    <path d="M 345.779221 17.28 
L 348.933216 17.28 
L 352.15759 99.121132 
L 355.37675 17.28 
L 358.528139 17.28 
L 354.023921 128.16 
L 350.283439 128.16 
L 345.779221 17.28 
z
" clip-path="url(#p9761970a75)" style="fill: #21599c"/>
   </g>
   <g id="patch_13">
    <path d="M 368.030321 107.961114 
L 363.127292 107.961114 
L 362.353129 128.16 
L 359.199134 128.16 
L 363.703352 17.28 
L 367.443834 17.28 
L 371.948052 128.16 
L 368.796663 128.16 
L 368.030321 107.961114 
z
M 363.909274 87.382015 
L 367.240519 87.382015 
L 365.577503 43.277154 
L 363.909274 87.382015 
z
" clip-path="url(#p9761970a75)" style="fill: #21599c"/>
   </g>
   <g id="patch_14">
    <path d="M 372.619048 17.28 
L 377.245578 17.28 
L 377.245578 106.559074 
L 385.367965 106.559074 
L 385.367965 128.16 
L 372.619048 128.16 
L 372.619048 17.28 
z
" clip-path="url(#p9761970a75)" style="fill: #21599c"/>
   </g>
   <g id="patch_15">
    <path d="M 397.724892 22.570907 
L 397.724892 45.200413 
Q 396.395293 41.260863 395.128018 39.268184 
Q 393.864207 37.252601 392.738895 37.252601 
Q 391.246558 37.252601 390.529821 39.978219 
Q 389.816546 42.680934 389.816546 48.407023 
Q 389.816546 52.713043 390.297834 55.118 
Q 390.779121 57.500054 392.046395 59.217881 
L 393.819194 61.57703 
Q 396.513018 65.173014 397.648717 72.479504 
Q 398.787879 79.76309 398.787879 93.230853 
Q 398.787879 110.890114 397.202055 119.525057 
Q 395.616231 128.16 392.35802 128.16 
Q 390.824133 128.16 389.276397 126.21313 
Q 387.72866 124.289163 386.180923 120.48704 
L 386.180923 97.239116 
Q 387.72866 102.667449 389.172522 105.438876 
Q 390.616383 108.187399 391.959833 108.187399 
Q 393.324057 108.187399 394.047719 105.186928 
Q 394.771381 102.163553 394.771381 96.574889 
Q 394.771381 91.581739 394.279706 88.856121 
Q 393.788032 86.130502 392.31647 83.977492 
L 390.702946 81.618343 
Q 388.279197 78.18269 387.157348 70.67006 
Q 386.038961 63.15743 386.038961 50.422607 
Q 386.038961 34.458269 387.597085 25.869134 
Q 389.155209 17.28 392.077558 17.28 
Q 393.410619 17.28 394.816394 18.608453 
Q 396.222168 19.936906 397.724892 22.570907 
z
" clip-path="url(#p9761970a75)" style="fill: #40ba47"/>
   </g>
   <g id="patch_16">
    <path d="M 402.952484 38.904689 
L 402.952484 106.559074 
L 404.204144 106.559074 
Q 406.344452 106.559074 407.474139 97.861672 
Q 408.606731 89.164269 408.606731 72.601183 
Q 408.606731 56.13315 407.479948 47.530802 
Q 406.356068 38.904689 404.204144 38.904689 
L 402.952484 38.904689 
z
M 399.458874 17.28 
L 403.14125 17.28 
Q 406.228288 17.28 407.738411 20.892036 
Q 409.248533 24.480309 410.328851 33.106421 
Q 411.28139 40.615654 411.743139 50.429936 
Q 412.207792 60.220454 412.207792 72.601183 
Q 412.207792 85.172019 411.743139 95.010064 
Q 411.28139 104.84811 410.328851 112.333579 
Q 409.239821 120.959691 407.715178 124.571727 
Q 406.190535 128.16 403.14125 128.16 
L 399.458874 128.16 
L 399.458874 17.28 
z
" clip-path="url(#p9761970a75)" style="fill: #6b296b"/>
   </g>
   <g id="patch_17">
    <path d="M 412.878788 17.28 
L 417.505318 17.28 
L 417.505318 106.559074 
L 425.627706 106.559074 
L 425.627706 128.16 
L 412.878788 128.16 
L 412.878788 17.28 
z
" clip-path="url(#p9761970a75)" style="fill: #21599c"/>
   </g>
   <g id="patch_18">
    <path d="M 429.792311 38.904689 
L 429.792311 106.559074 
L 431.04397 106.559074 
Q 433.184279 106.559074 434.313966 97.861672 
Q 435.446558 89.164269 435.446558 72.601183 
Q 435.446558 56.13315 434.319774 47.530802 
Q 433.195895 38.904689 431.04397 38.904689 
L 429.792311 38.904689 
z
M 426.298701 17.28 
L 429.981077 17.28 
Q 433.068115 17.28 434.578238 20.892036 
Q 436.08836 24.480309 437.168678 33.106421 
Q 438.121217 40.615654 438.582966 50.429936 
Q 439.047619 60.220454 439.047619 72.601183 
Q 439.047619 85.172019 438.582966 95.010064 
Q 438.121217 104.84811 437.168678 112.333579 
Q 436.079648 120.959691 434.555005 124.571727 
Q 433.030362 128.16 429.981077 128.16 
L 426.298701 128.16 
L 426.298701 17.28 
z
" clip-path="url(#p9761970a75)" style="fill: #6b296b"/>
   </g>
   <g id="patch_19">
    <path d="M 439.718615 17.28 
L 452.20217 17.28 
L 452.20217 38.904689 
L 444.345145 38.904689 
L 444.345145 59.531316 
L 451.736825 59.531316 
L 451.736825 81.156005 
L 444.345145 81.156005 
L 444.345145 106.559074 
L 452.467532 106.559074 
L 452.467532 128.16 
L 439.718615 128.16 
L 439.718615 17.28 
z
" clip-path="url(#p9761970a75)" style="fill: #6b296b"/>
   </g>
   <g id="patch_20">
    <path d="M 461.969715 107.961114 
L 457.066686 107.961114 
L 456.292523 128.16 
L 453.138528 128.16 
L 457.642746 17.28 
L 461.383228 17.28 
L 465.887446 128.16 
L 462.736057 128.16 
L 461.969715 107.961114 
z
M 457.848668 87.382015 
L 461.179913 87.382015 
L 459.516897 43.277154 
L 457.848668 87.382015 
z
" clip-path="url(#p9761970a75)" style="fill: #21599c"/>
   </g>
   <g id="patch_21">
    <path d="M 471.731257 66.446464 
Q 472.875391 66.446464 473.371788 63.119589 
Q 473.868184 59.76895 473.868184 52.117137 
Q 473.868184 44.536614 473.371788 41.281029 
Q 472.875391 38.00168 471.731257 38.00168 
L 470.199692 38.00168 
L 470.199692 66.446464 
L 471.731257 66.446464 
z
M 470.199692 86.193845 
L 470.199692 128.16 
L 466.558442 128.16 
L 466.558442 17.28 
L 472.118689 17.28 
Q 474.909406 17.28 476.207907 24.646652 
Q 477.509435 31.989541 477.509435 47.887252 
Q 477.509435 58.865941 476.83143 65.923669 
Q 476.156452 72.981397 474.794388 76.332036 
Q 475.542009 77.662786 476.132237 82.391702 
Q 476.725492 87.096854 477.330853 96.673502 
L 479.307359 128.16 
L 475.430018 128.16 
L 473.707763 100.618225 
Q 473.187152 92.301037 472.651407 89.259323 
Q 472.118689 86.193845 471.228807 86.193845 
L 470.199692 86.193845 
z
" clip-path="url(#p9761970a75)" style="fill: #bd2e1f"/>
   </g>
   <g id="patch_22">
    <path d="M 479.978355 17.28 
L 492.461911 17.28 
L 492.461911 38.904689 
L 484.604885 38.904689 
L 484.604885 59.531316 
L 491.996566 59.531316 
L 491.996566 81.156005 
L 484.604885 81.156005 
L 484.604885 106.559074 
L 492.727273 106.559074 
L 492.727273 128.16 
L 479.978355 128.16 
L 479.978355 17.28 
z
" clip-path="url(#p9761970a75)" style="fill: #6b296b"/>
   </g>
   <g id="patch_23">
    <path d="M 502.229455 107.961114 
L 497.326426 107.961114 
L 496.552264 128.16 
L 493.398268 128.16 
L 497.902486 17.28 
L 501.642968 17.28 
L 506.147186 128.16 
L 502.995798 128.16 
L 502.229455 107.961114 
z
M 498.108408 87.382015 
L 501.439653 87.382015 
L 499.776637 43.277154 
L 498.108408 87.382015 
z
" clip-path="url(#p9761970a75)" style="fill: #21599c"/>
   </g>
   <g id="patch_24">
    <path d="M 506.818182 17.28 
L 509.972177 17.28 
L 513.196551 99.121132 
L 516.415711 17.28 
L 519.5671 17.28 
L 515.062882 128.16 
L 511.3224 128.16 
L 506.818182 17.28 
z
" clip-path="url(#p9761970a75)" style="fill: #21599c"/>
   </g>
   <g id="patch_25">
    <path d="M 525.410911 66.446464 
Q 526.555045 66.446464 527.051441 63.119589 
Q 527.547838 59.76895 527.547838 52.117137 
Q 527.547838 44.536614 527.051441 41.281029 
Q 526.555045 38.00168 525.410911 38.00168 
L 523.879346 38.00168 
L 523.879346 66.446464 
L 525.410911 66.446464 
z
M 523.879346 86.193845 
L 523.879346 128.16 
L 520.238095 128.16 
L 520.238095 17.28 
L 525.798343 17.28 
Q 528.58906 17.28 529.887561 24.646652 
Q 531.189089 31.989541 531.189089 47.887252 
Q 531.189089 58.865941 530.511084 65.923669 
Q 529.836105 72.981397 528.474041 76.332036 
Q 529.221663 77.662786 529.811891 82.391702 
Q 530.405145 87.096854 531.010507 96.673502 
L 532.987013 128.16 
L 529.109671 128.16 
L 527.387417 100.618225 
Q 526.866806 92.301037 526.331061 89.259323 
Q 525.798343 86.193845 524.908461 86.193845 
L 523.879346 86.193845 
z
" clip-path="url(#p9761970a75)" style="fill: #bd2e1f"/>
   </g>
   <g id="patch_26">
    <path d="M 533.658009 17.28 
L 546.141564 17.28 
L 546.141564 38.904689 
L 538.284539 38.904689 
L 538.284539 59.531316 
L 545.676219 59.531316 
L 545.676219 81.156005 
L 538.284539 81.156005 
L 538.284539 106.559074 
L 546.406926 106.559074 
L 546.406926 128.16 
L 533.658009 128.16 
L 533.658009 17.28 
z
" clip-path="url(#p9761970a75)" style="fill: #6b296b"/>
   </g>
   <g id="patch_27">
    <path d="M 555.909109 107.961114 
L 551.00608 107.961114 
L 550.231917 128.16 
L 547.077922 128.16 
L 551.58214 17.28 
L 555.322622 17.28 
L 559.82684 128.16 
L 556.675451 128.16 
L 555.909109 107.961114 
z
M 551.788062 87.382015 
L 555.119307 87.382015 
L 553.456291 43.277154 
L 551.788062 87.382015 
z
" clip-path="url(#p9761970a75)" style="fill: #21599c"/>
   </g>
   <g id="patch_28">
    <path d="M 560.497835 17.28 
L 565.124366 17.28 
L 565.124366 106.559074 
L 573.246753 106.559074 
L 573.246753 128.16 
L 560.497835 128.16 
L 560.497835 17.28 
z
" clip-path="url(#p9761970a75)" style="fill: #21599c"/>
   </g>
   <g id="patch_29">
    <path d="M 582.748935 107.961114 
L 577.845907 107.961114 
L 577.071744 128.16 
L 573.917749 128.16 
L 578.421967 17.28 
L 582.162449 17.28 
L 586.666667 128.16 
L 583.515278 128.16 
L 582.748935 107.961114 
z
M 578.627889 87.382015 
L 581.959133 87.382015 
L 580.296118 43.277154 
L 578.627889 87.382015 
z
" clip-path="url(#p9761970a75)" style="fill: #21599c"/>
   </g>
   <g id="patch_30">
    <path d="M 600.08658 118.127891 
Q 598.800831 123.143945 597.417936 125.663425 
Q 596.035041 128.16 594.560716 128.16 
Q 591.229197 128.16 589.283429 113.226358 
Q 587.337662 98.292716 587.337662 72.754357 
Q 587.337662 46.91824 589.317716 32.09912 
Q 591.300627 17.28 594.749292 17.28 
Q 596.0779 17.28 597.295076 19.295584 
Q 598.515109 21.288263 599.595138 25.227812 
L 599.595138 47.330518 
Q 598.480822 42.268655 597.377935 39.77208 
Q 596.275048 37.252601 595.166446 37.252601 
Q 593.114962 37.252601 592.003503 46.460153 
Q 590.892045 55.644801 590.892045 72.754357 
Q 590.892045 89.703582 591.963502 98.956943 
Q 593.03496 108.187399 595.006442 108.187399 
Q 595.5436 108.187399 596.003612 107.660599 
Q 596.463625 107.110894 596.829349 105.965677 
L 596.829349 85.214328 
L 594.729292 85.214328 
L 594.729292 66.73051 
L 600.08658 66.73051 
L 600.08658 118.127891 
z
" clip-path="url(#p9761970a75)" style="fill: #787800"/>
   </g>
   <g id="patch_31">
    <path d="M 609.588762 107.961114 
L 604.685733 107.961114 
L 603.911571 128.16 
L 600.757576 128.16 
L 605.261794 17.28 
L 609.002276 17.28 
L 613.506494 128.16 
L 610.355105 128.16 
L 609.588762 107.961114 
z
M 605.467716 87.382015 
L 608.79896 87.382015 
L 607.135945 43.277154 
L 605.467716 87.382015 
z
" clip-path="url(#p9761970a75)" style="fill: #21599c"/>
   </g>
   <g id="patch_32">
    <path d="M 625.86342 22.570907 
L 625.86342 45.200413 
Q 624.533821 41.260863 623.266547 39.268184 
Q 622.002735 37.252601 620.877423 37.252601 
Q 619.385086 37.252601 618.668349 39.978219 
Q 617.955075 42.680934 617.955075 48.407023 
Q 617.955075 52.713043 618.436362 55.118 
Q 618.917649 57.500054 620.184923 59.217881 
L 621.957722 61.57703 
Q 624.651546 65.173014 625.787245 72.479504 
Q 626.926407 79.76309 626.926407 93.230853 
Q 626.926407 110.890114 625.340583 119.525057 
Q 623.754759 128.16 620.496548 128.16 
Q 618.962661 128.16 617.414925 126.21313 
Q 615.867188 124.289163 614.319452 120.48704 
L 614.319452 97.239116 
Q 615.867188 102.667449 617.31105 105.438876 
Q 618.754912 108.187399 620.098361 108.187399 
Q 621.462585 108.187399 622.186247 105.186928 
Q 622.909909 102.163553 622.909909 96.574889 
Q 622.909909 91.581739 622.418234 88.856121 
Q 621.92656 86.130502 620.454998 83.977492 
L 618.841474 81.618343 
Q 616.417725 78.18269 615.295876 70.67006 
Q 614.177489 63.15743 614.177489 50.422607 
Q 614.177489 34.458269 615.735613 25.869134 
Q 617.293737 17.28 620.216086 17.28 
Q 621.549147 17.28 622.954922 18.608453 
Q 624.360696 19.936906 625.86342 22.570907 
z
" clip-path="url(#p9761970a75)" style="fill: #40ba47"/>
   </g>
   <g id="patch_33">
    <path d="M 636.428589 107.961114 
L 631.52556 107.961114 
L 630.751398 128.16 
L 627.597403 128.16 
L 632.101621 17.28 
L 635.842102 17.28 
L 640.34632 128.16 
L 637.194932 128.16 
L 636.428589 107.961114 
z
M 632.307543 87.382015 
L 635.638787 87.382015 
L 633.975771 43.277154 
L 632.307543 87.382015 
z
" clip-path="url(#p9761970a75)" style="fill: #21599c"/>
   </g>
   <g id="patch_34">
    <path d="M 641.017316 17.28 
L 653.766234 17.28 
L 653.766234 38.904689 
L 649.179588 38.904689 
L 649.179588 128.16 
L 645.612856 128.16 
L 645.612856 38.904689 
L 641.017316 38.904689 
L 641.017316 17.28 
z
" clip-path="url(#p9761970a75)" style="fill: #40ba47"/>
   </g>
   <g id="patch_35">
    <path d="M 657.930839 38.904689 
L 657.930839 106.559074 
L 659.182499 106.559074 
Q 661.322807 106.559074 662.452494 97.861672 
Q 663.585086 89.164269 663.585086 72.601183 
Q 663.585086 56.13315 662.458303 47.530802 
Q 661.334423 38.904689 659.182499 38.904689 
L 657.930839 38.904689 
z
M 654.437229 17.28 
L 658.119605 17.28 
Q 661.206643 17.28 662.716766 20.892036 
Q 664.226888 24.480309 665.307206 33.106421 
Q 666.259745 40.615654 666.721494 50.429936 
Q 667.186147 60.220454 667.186147 72.601183 
Q 667.186147 85.172019 666.721494 95.010064 
Q 666.259745 104.84811 665.307206 112.333579 
Q 664.218176 120.959691 662.693533 124.571727 
Q 661.16889 128.16 658.119605 128.16 
L 654.437229 128.16 
L 654.437229 17.28 
z
" clip-path="url(#p9761970a75)" style="fill: #6b296b"/>
   </g>
   <g id="patch_36">
    <path d="M 676.688329 107.961114 
L 671.785301 107.961114 
L 671.011138 128.16 
L 667.857143 128.16 
L 672.361361 17.28 
L 676.101843 17.28 
L 680.606061 128.16 
L 677.454672 128.16 
L 676.688329 107.961114 
z
M 672.567283 87.382015 
L 675.898527 87.382015 
L 674.235512 43.277154 
L 672.567283 87.382015 
z
" clip-path="url(#p9761970a75)" style="fill: #21599c"/>
   </g>
   <g id="patch_37">
    <path d="M 681.277056 17.28 
L 687.903837 17.28 
Q 690.861985 17.28 692.442319 26.690304 
Q 694.025974 36.076845 694.025974 53.447887 
Q 694.025974 70.913982 692.442319 80.300523 
Q 690.861985 89.687064 687.903837 89.687064 
L 685.271053 89.687064 
L 685.271053 128.16 
L 681.277056 128.16 
L 681.277056 17.28 
z
M 685.271053 38.00168 
L 685.271053 68.965384 
L 687.478874 68.965384 
Q 688.640884 68.965384 689.27501 64.925607 
Q 689.909136 60.885829 689.909136 53.447887 
Q 689.909136 46.033708 689.27501 42.017694 
Q 688.640884 38.00168 687.478874 38.00168 
L 685.271053 38.00168 
z
" clip-path="url(#p9761970a75)" style="fill: #787800"/>
   </g>
   <g id="patch_38">
    <path d="M 707.445887 118.127891 
Q 706.160138 123.143945 704.777244 125.663425 
Q 703.394349 128.16 701.920023 128.16 
Q 698.588504 128.16 696.642737 113.226358 
Q 694.69697 98.292716 694.69697 72.754357 
Q 694.69697 46.91824 696.677023 32.09912 
Q 698.659934 17.28 702.1086 17.28 
Q 703.437207 17.28 704.654383 19.295584 
Q 705.874416 21.288263 706.954446 25.227812 
L 706.954446 47.330518 
Q 705.84013 42.268655 704.737242 39.77208 
Q 703.634355 37.252601 702.525754 37.252601 
Q 700.474269 37.252601 699.362811 46.460153 
Q 698.251352 55.644801 698.251352 72.754357 
Q 698.251352 89.703582 699.32281 98.956943 
Q 700.394267 108.187399 702.365749 108.187399 
Q 702.902907 108.187399 703.362919 107.660599 
Q 703.822932 107.110894 704.188656 105.965677 
L 704.188656 85.214328 
L 702.088599 85.214328 
L 702.088599 66.73051 
L 707.445887 66.73051 
L 707.445887 118.127891 
z
" clip-path="url(#p9761970a75)" style="fill: #787800"/>
   </g>
   <g id="patch_39">
    <path d="M 708.116883 17.28 
L 711.877691 17.28 
L 714.486429 76.617197 
L 717.112362 17.28 
L 720.865801 17.28 
L 720.865801 128.16 
L 718.07283 128.16 
L 718.07283 47.055534 
L 715.432158 106.844235 
L 713.557895 106.844235 
L 710.917223 47.055534 
L 710.917223 128.16 
L 708.116883 128.16 
L 708.116883 17.28 
z
" clip-path="url(#p9761970a75)" style="fill: #21599c"/>
   </g>
   <g id="patch_40">
    <path d="M 726.709612 66.446464 
Q 727.853746 66.446464 728.350143 63.119589 
Q 728.846539 59.76895 728.846539 52.117137 
Q 728.846539 44.536614 728.350143 41.281029 
Q 727.853746 38.00168 726.709612 38.00168 
L 725.178047 38.00168 
L 725.178047 66.446464 
L 726.709612 66.446464 
z
M 725.178047 86.193845 
L 725.178047 128.16 
L 721.536797 128.16 
L 721.536797 17.28 
L 727.097044 17.28 
Q 729.887761 17.28 731.186262 24.646652 
Q 732.48779 31.989541 732.48779 47.887252 
Q 732.48779 58.865941 731.809785 65.923669 
Q 731.134807 72.981397 729.772743 76.332036 
Q 730.520364 77.662786 731.110592 82.391702 
Q 731.703847 87.096854 732.309208 96.673502 
L 734.285714 128.16 
L 730.408372 128.16 
L 728.686118 100.618225 
Q 728.165507 92.301037 727.629762 89.259323 
Q 727.097044 86.193845 726.207162 86.193845 
L 725.178047 86.193845 
z
" clip-path="url(#p9761970a75)" style="fill: #bd2e1f"/>
   </g>
   <g id="patch_41">
    <path d="M 743.787896 107.961114 
L 738.884868 107.961114 
L 738.110705 128.16 
L 734.95671 128.16 
L 739.460928 17.28 
L 743.20141 17.28 
L 747.705628 128.16 
L 744.554239 128.16 
L 743.787896 107.961114 
z
M 739.66685 87.382015 
L 742.998094 87.382015 
L 741.335079 43.277154 
L 739.66685 87.382015 
z
" clip-path="url(#p9761970a75)" style="fill: #21599c"/>
   </g>
   <g id="patch_42">
    <path d="M 757.20781 107.961114 
L 752.304781 107.961114 
L 751.530619 128.16 
L 748.376623 128.16 
L 752.880841 17.28 
L 756.621323 17.28 
L 761.125541 128.16 
L 757.974153 128.16 
L 757.20781 107.961114 
z
M 753.086763 87.382015 
L 756.418008 87.382015 
L 754.754992 43.277154 
L 753.086763 87.382015 
z
" clip-path="url(#p9761970a75)" style="fill: #21599c"/>
   </g>
   <g id="patch_43">
    <path d="M 761.796537 17.28 
L 766.423067 17.28 
L 766.423067 106.559074 
L 774.545455 106.559074 
L 774.545455 128.16 
L 761.796537 128.16 
L 761.796537 17.28 
z
" clip-path="url(#p9761970a75)" style="fill: #21599c"/>
   </g>
   <g id="patch_44">
    <path d="M 786.902381 22.570907 
L 786.902381 45.200413 
Q 785.572782 41.260863 784.305508 39.268184 
Q 783.041696 37.252601 781.916384 37.252601 
Q 780.424047 37.252601 779.70731 39.978219 
Q 778.994036 42.680934 778.994036 48.407023 
Q 778.994036 52.713043 779.475323 55.118 
Q 779.95661 57.500054 781.223884 59.217881 
L 782.996683 61.57703 
Q 785.690507 65.173014 786.826206 72.479504 
Q 787.965368 79.76309 787.965368 93.230853 
Q 787.965368 110.890114 786.379544 119.525057 
Q 784.79372 128.16 781.535509 128.16 
Q 780.001622 128.16 778.453886 126.21313 
Q 776.906149 124.289163 775.358413 120.48704 
L 775.358413 97.239116 
Q 776.906149 102.667449 778.350011 105.438876 
Q 779.793873 108.187399 781.137322 108.187399 
Q 782.501546 108.187399 783.225208 105.186928 
Q 783.94887 102.163553 783.94887 96.574889 
Q 783.94887 91.581739 783.457196 88.856121 
Q 782.965521 86.130502 781.493959 83.977492 
L 779.880435 81.618343 
Q 777.456686 78.18269 776.334837 70.67006 
Q 775.21645 63.15743 775.21645 50.422607 
Q 775.21645 34.458269 776.774574 25.869134 
Q 778.332698 17.28 781.255047 17.28 
Q 782.588109 17.28 783.993883 18.608453 
Q 785.399657 19.936906 786.902381 22.570907 
z
" clip-path="url(#p9761970a75)" style="fill: #40ba47"/>
   </g>
   <g id="patch_45">
    <path d="M 792.697557 17.28 
L 797.324088 17.28 
L 797.324088 128.16 
L 792.697557 128.16 
L 792.697557 17.28 
z
" clip-path="url(#p9761970a75)" style="fill: #21599c"/>
   </g>
   <g id="patch_46">
    <path d="M 802.056277 17.28 
L 806.682807 17.28 
L 806.682807 106.559074 
L 814.805195 106.559074 
L 814.805195 128.16 
L 802.056277 128.16 
L 802.056277 17.28 
z
" clip-path="url(#p9761970a75)" style="fill: #21599c"/>
   </g>
   <g id="patch_47">
    <path d="M 818.969801 38.904689 
L 818.969801 106.559074 
L 820.22146 106.559074 
Q 822.361768 106.559074 823.491455 97.861672 
Q 824.624047 89.164269 824.624047 72.601183 
Q 824.624047 56.13315 823.497264 47.530802 
Q 822.373384 38.904689 820.22146 38.904689 
L 818.969801 38.904689 
z
M 815.47619 17.28 
L 819.158566 17.28 
Q 822.245604 17.28 823.755727 20.892036 
Q 825.265849 24.480309 826.346167 33.106421 
Q 827.298706 40.615654 827.760455 50.429936 
Q 828.225108 60.220454 828.225108 72.601183 
Q 828.225108 85.172019 827.760455 95.010064 
Q 827.298706 104.84811 826.346167 112.333579 
Q 825.257137 120.959691 823.732494 124.571727 
Q 822.207851 128.16 819.158566 128.16 
L 815.47619 128.16 
L 815.47619 17.28 
z
" clip-path="url(#p9761970a75)" style="fill: #6b296b"/>
   </g>
   <g id="patch_48">
    <path d="M 841.645022 118.127891 
Q 840.359272 123.143945 838.976378 125.663425 
Q 837.593483 128.16 836.119157 128.16 
Q 832.787638 128.16 830.841871 113.226358 
Q 828.896104 98.292716 828.896104 72.754357 
Q 828.896104 46.91824 830.876158 32.09912 
Q 832.859069 17.28 836.307734 17.28 
Q 837.636341 17.28 838.853517 19.295584 
Q 840.07355 21.288263 841.15358 25.227812 
L 841.15358 47.330518 
Q 840.039264 42.268655 838.936377 39.77208 
Q 837.83349 37.252601 836.724888 37.252601 
Q 834.673404 37.252601 833.561945 46.460153 
Q 832.450486 55.644801 832.450486 72.754357 
Q 832.450486 89.703582 833.521944 98.956943 
Q 834.593402 108.187399 836.564884 108.187399 
Q 837.102041 108.187399 837.562054 107.660599 
Q 838.022066 107.110894 838.38779 105.965677 
L 838.38779 85.214328 
L 836.287733 85.214328 
L 836.287733 66.73051 
L 841.645022 66.73051 
L 841.645022 118.127891 
z
" clip-path="url(#p9761970a75)" style="fill: #787800"/>
   </g>
   <g id="patch_49">
    <path d="M 842.448698 17.28 
L 854.932254 17.28 
L 854.932254 38.904689 
L 847.075229 38.904689 
L 847.075229 59.531316 
L 854.466909 59.531316 
L 854.466909 81.156005 
L 847.075229 81.156005 
L 847.075229 128.16 
L 842.448698 128.16 
L 842.448698 17.28 
z
" clip-path="url(#p9761970a75)" style="fill: #21599c"/>
   </g>
   <g id="patch_50">
    <path d="M 855.735931 17.28 
L 868.484848 17.28 
L 868.484848 38.904689 
L 863.898203 38.904689 
L 863.898203 128.16 
L 860.331471 128.16 
L 860.331471 38.904689 
L 855.735931 38.904689 
L 855.735931 17.28 
z
" clip-path="url(#p9761970a75)" style="fill: #40ba47"/>
   </g>
   <g id="patch_51">
    <path d="M 881.904762 118.127891 
Q 880.619013 123.143945 879.236118 125.663425 
Q 877.853223 128.16 876.378898 128.16 
Q 873.047378 128.16 871.101611 113.226358 
Q 869.155844 98.292716 869.155844 72.754357 
Q 869.155844 46.91824 871.135898 32.09912 
Q 873.118809 17.28 876.567474 17.28 
Q 877.896082 17.28 879.113258 19.295584 
Q 880.333291 21.288263 881.41332 25.227812 
L 881.41332 47.330518 
Q 880.299004 42.268655 879.196117 39.77208 
Q 878.09323 37.252601 876.984628 37.252601 
Q 874.933144 37.252601 873.821685 46.460153 
Q 872.710226 55.644801 872.710226 72.754357 
Q 872.710226 89.703582 873.781684 98.956943 
Q 874.853142 108.187399 876.824624 108.187399 
Q 877.361781 108.187399 877.821794 107.660599 
Q 878.281806 107.110894 878.647531 105.965677 
L 878.647531 85.214328 
L 876.547474 85.214328 
L 876.547474 66.73051 
L 881.904762 66.73051 
L 881.904762 118.127891 
z
" clip-path="url(#p9761970a75)" style="fill: #787800"/>
   </g>
   <g id="patch_52">
    <path d="M 894.261688 22.570907 
L 894.261688 45.200413 
Q 892.932089 41.260863 891.664815 39.268184 
Q 890.401003 37.252601 889.275691 37.252601 
Q 887.783355 37.252601 887.066618 39.978219 
Q 886.353343 42.680934 886.353343 48.407023 
Q 886.353343 52.713043 886.83463 55.118 
Q 887.315917 57.500054 888.583192 59.217881 
L 890.355991 61.57703 
Q 893.049814 65.173014 894.185513 72.479504 
Q 895.324675 79.76309 895.324675 93.230853 
Q 895.324675 110.890114 893.738851 119.525057 
Q 892.153027 128.16 888.894816 128.16 
Q 887.36093 128.16 885.813193 126.21313 
Q 884.265457 124.289163 882.71772 120.48704 
L 882.71772 97.239116 
Q 884.265457 102.667449 885.709318 105.438876 
Q 887.15318 108.187399 888.496629 108.187399 
Q 889.860853 108.187399 890.584516 105.186928 
Q 891.308178 102.163553 891.308178 96.574889 
Q 891.308178 91.581739 890.816503 88.856121 
Q 890.324828 86.130502 888.853267 83.977492 
L 887.239742 81.618343 
Q 884.815994 78.18269 883.694144 70.67006 
Q 882.575758 63.15743 882.575758 50.422607 
Q 882.575758 34.458269 884.133882 25.869134 
Q 885.692006 17.28 888.614354 17.28 
Q 889.947416 17.28 891.35319 18.608453 
Q 892.758964 19.936906 894.261688 22.570907 
z
" clip-path="url(#p9761970a75)" style="fill: #40ba47"/>
   </g>
   <g id="patch_53">
    <path d="M 899.489281 38.904689 
L 899.489281 106.559074 
L 900.74094 106.559074 
Q 902.881248 106.559074 904.010936 97.861672 
Q 905.143528 89.164269 905.143528 72.601183 
Q 905.143528 56.13315 904.016744 47.530802 
Q 902.892865 38.904689 900.74094 38.904689 
L 899.489281 38.904689 
z
M 895.995671 17.28 
L 899.678046 17.28 
Q 902.765085 17.28 904.275207 20.892036 
Q 905.78533 24.480309 906.865648 33.106421 
Q 907.818187 40.615654 908.279936 50.429936 
Q 908.744589 60.220454 908.744589 72.601183 
Q 908.744589 85.172019 908.279936 95.010064 
Q 907.818187 104.84811 906.865648 112.333579 
Q 905.776617 120.959691 904.251975 124.571727 
Q 902.727332 128.16 899.678046 128.16 
L 895.995671 128.16 
L 895.995671 17.28 
z
" clip-path="url(#p9761970a75)" style="fill: #6b296b"/>
   </g>
   <g id="patch_54">
    <path d="M 909.415584 17.28 
L 916.042366 17.28 
Q 919.000513 17.28 920.580848 26.690304 
Q 922.164502 36.076845 922.164502 53.447887 
Q 922.164502 70.913982 920.580848 80.300523 
Q 919.000513 89.687064 916.042366 89.687064 
L 913.409581 89.687064 
L 913.409581 128.16 
L 909.415584 128.16 
L 909.415584 17.28 
z
M 913.409581 38.00168 
L 913.409581 68.965384 
L 915.617402 68.965384 
Q 916.779412 68.965384 917.413538 64.925607 
Q 918.047664 60.885829 918.047664 53.447887 
Q 918.047664 46.033708 917.413538 42.017694 
Q 916.779412 38.00168 915.617402 38.00168 
L 913.409581 38.00168 
z
" clip-path="url(#p9761970a75)" style="fill: #787800"/>
   </g>
   <g id="patch_55">
    <path d="M 928.008314 66.446464 
Q 929.152447 66.446464 929.648844 63.119589 
Q 930.145241 59.76895 930.145241 52.117137 
Q 930.145241 44.536614 929.648844 41.281029 
Q 929.152447 38.00168 928.008314 38.00168 
L 926.476749 38.00168 
L 926.476749 66.446464 
L 928.008314 66.446464 
z
M 926.476749 86.193845 
L 926.476749 128.16 
L 922.835498 128.16 
L 922.835498 17.28 
L 928.395745 17.28 
Q 931.186463 17.28 932.484964 24.646652 
Q 933.786491 31.989541 933.786491 47.887252 
Q 933.786491 58.865941 933.108486 65.923669 
Q 932.433508 72.981397 931.071444 76.332036 
Q 931.819066 77.662786 932.409293 82.391702 
Q 933.002548 87.096854 933.60791 96.673502 
L 935.584416 128.16 
L 931.707074 128.16 
L 929.98482 100.618225 
Q 929.464209 92.301037 928.928464 89.259323 
Q 928.395745 86.193845 927.505863 86.193845 
L 926.476749 86.193845 
z
" clip-path="url(#p9761970a75)" style="fill: #bd2e1f"/>
   </g>
   <g id="patch_56">
    <path d="M 936.255411 17.28 
L 939.409406 17.28 
L 942.63378 99.121132 
L 945.85294 17.28 
L 949.004329 17.28 
L 944.500111 128.16 
L 940.759629 128.16 
L 936.255411 17.28 
z
" clip-path="url(#p9761970a75)" style="fill: #21599c"/>
   </g>
   <g id="patch_57">
    <path d="M 954.848141 66.446464 
Q 955.992274 66.446464 956.488671 63.119589 
Q 956.985067 59.76895 956.985067 52.117137 
Q 956.985067 44.536614 956.488671 41.281029 
Q 955.992274 38.00168 954.848141 38.00168 
L 953.316575 38.00168 
L 953.316575 66.446464 
L 954.848141 66.446464 
z
M 953.316575 86.193845 
L 953.316575 128.16 
L 949.675325 128.16 
L 949.675325 17.28 
L 955.235572 17.28 
Q 958.02629 17.28 959.32479 24.646652 
Q 960.626318 31.989541 960.626318 47.887252 
Q 960.626318 58.865941 959.948313 65.923669 
Q 959.273335 72.981397 957.911271 76.332036 
Q 958.658893 77.662786 959.24912 82.391702 
Q 959.842375 87.096854 960.447736 96.673502 
L 962.424242 128.16 
L 958.546901 128.16 
L 956.824647 100.618225 
Q 956.304035 92.301037 955.76829 89.259323 
Q 955.235572 86.193845 954.34569 86.193845 
L 953.316575 86.193845 
z
" clip-path="url(#p9761970a75)" style="fill: #bd2e1f"/>
   </g>
   <g id="patch_58">
    <path d="M 963.095238 17.28 
L 965.299723 17.28 
L 966.840758 97.861672 
L 968.370323 17.28 
L 970.586279 17.28 
L 972.115843 97.861672 
L 973.658791 17.28 
L 975.844156 17.28 
L 973.741005 128.16 
L 971.089123 128.16 
L 969.469697 43.871239 
L 967.86939 128.16 
L 965.215596 128.16 
L 963.095238 17.28 
z
" clip-path="url(#p9761970a75)" style="fill: #21599c"/>
   </g>
   <g id="patch_59">
    <path d="M 976.515152 17.28 
L 979.669147 17.28 
L 982.89352 99.121132 
L 986.112681 17.28 
L 989.264069 17.28 
L 984.759851 128.16 
L 981.019369 128.16 
L 976.515152 17.28 
z
" clip-path="url(#p9761970a75)" style="fill: #21599c"/>
   </g>
   <g id="patch_60">
    <path d="M 998.766251 107.961114 
L 993.863223 107.961114 
L 993.08906 128.16 
L 989.935065 128.16 
L 994.439283 17.28 
L 998.179765 17.28 
L 1002.683983 128.16 
L 999.532594 128.16 
L 998.766251 107.961114 
z
M 994.645205 87.382015 
L 997.976449 87.382015 
L 996.313434 43.277154 
L 994.645205 87.382015 
z
" clip-path="url(#p9761970a75)" style="fill: #21599c"/>
   </g>
   <g id="patch_61">
    <path d="M 1003.354978 17.28 
L 1006.71466 17.28 
L 1006.71466 57.749061 
L 1011.557294 17.28 
L 1015.45877 17.28 
L 1009.183454 69.797102 
L 1016.103896 128.16 
L 1011.89801 128.16 
L 1006.71466 84.48288 
L 1006.71466 128.16 
L 1003.354978 128.16 
L 1003.354978 17.28 
z
" clip-path="url(#p9761970a75)" style="fill: #bd2e1f"/>
   </g>
   <g id="patch_62">
    <path d="M 1016.774892 17.28 
L 1019.928887 17.28 
L 1023.153261 99.121132 
L 1026.372421 17.28 
L 1029.52381 17.28 
L 1025.019592 128.16 
L 1021.27911 128.16 
L 1016.774892 17.28 
z
" clip-path="url(#p9761970a75)" style="fill: #21599c"/>
   </g>
   <g id="patch_63">
    <path d="M 1030.194805 17.28 
L 1034.821336 17.28 
L 1034.821336 106.559074 
L 1042.943723 106.559074 
L 1042.943723 128.16 
L 1030.194805 128.16 
L 1030.194805 17.28 
z
" clip-path="url(#p9761970a75)" style="fill: #21599c"/>
   </g>
   <g id="patch_64">
    <path d="M 1052.445905 107.961114 
L 1047.542876 107.961114 
L 1046.768714 128.16 
L 1043.614719 128.16 
L 1048.118937 17.28 
L 1051.859418 17.28 
L 1056.363636 128.16 
L 1053.212248 128.16 
L 1052.445905 107.961114 
z
M 1048.324859 87.382015 
L 1051.656103 87.382015 
L 1049.993087 43.277154 
L 1048.324859 87.382015 
z
" clip-path="url(#p9761970a75)" style="fill: #21599c"/>
   </g>
   <g id="patch_65">
    <path d="M 1057.034632 17.28 
L 1069.518188 17.28 
L 1069.518188 38.904689 
L 1061.661162 38.904689 
L 1061.661162 59.531316 
L 1069.052843 59.531316 
L 1069.052843 81.156005 
L 1061.661162 81.156005 
L 1061.661162 106.559074 
L 1069.78355 106.559074 
L 1069.78355 128.16 
L 1057.034632 128.16 
L 1057.034632 17.28 
z
" clip-path="url(#p9761970a75)" style="fill: #6b296b"/>
   </g>
   <g id="patch_66">
    <path d="M 1070.454545 17.28 
L 1073.814227 17.28 
L 1073.814227 57.749061 
L 1078.656861 17.28 
L 1082.558337 17.28 
L 1076.283021 69.797102 
L 1083.203463 128.16 
L 1078.997577 128.16 
L 1073.814227 84.48288 
L 1073.814227 128.16 
L 1070.454545 128.16 
L 1070.454545 17.28 
z
" clip-path="url(#p9761970a75)" style="fill: #bd2e1f"/>
   </g>
   <g id="patch_67">
    <path d="M 1096.623377 118.127891 
Q 1095.337627 123.143945 1093.954733 125.663425 
Q 1092.571838 128.16 1091.097512 128.16 
Q 1087.765993 128.16 1085.820226 113.226358 
Q 1083.874459 98.292716 1083.874459 72.754357 
Q 1083.874459 46.91824 1085.854513 32.09912 
Q 1087.837424 17.28 1091.286089 17.28 
Q 1092.614696 17.28 1093.831872 19.295584 
Q 1095.051905 21.288263 1096.131935 25.227812 
L 1096.131935 47.330518 
Q 1095.017619 42.268655 1093.914732 39.77208 
Q 1092.811845 37.252601 1091.703243 37.252601 
Q 1089.651759 37.252601 1088.5403 46.460153 
Q 1087.428841 55.644801 1087.428841 72.754357 
Q 1087.428841 89.703582 1088.500299 98.956943 
Q 1089.571756 108.187399 1091.543239 108.187399 
Q 1092.080396 108.187399 1092.540409 107.660599 
Q 1093.000421 107.110894 1093.366145 105.965677 
L 1093.366145 85.214328 
L 1091.266088 85.214328 
L 1091.266088 66.73051 
L 1096.623377 66.73051 
L 1096.623377 118.127891 
z
" clip-path="url(#p9761970a75)" style="fill: #787800"/>
   </g>
   <g id="patch_68">
    <path d="M 1101.355566 17.28 
L 1105.982096 17.28 
L 1105.982096 128.16 
L 1101.355566 128.16 
L 1101.355566 17.28 
z
" clip-path="url(#p9761970a75)" style="fill: #21599c"/>
   </g>
   <g id="patch_69">
    <path d="M 1114.207896 38.904689 
L 1114.207896 106.559074 
L 1115.459555 106.559074 
Q 1117.599863 106.559074 1118.729551 97.861672 
Q 1119.862142 89.164269 1119.862142 72.601183 
Q 1119.862142 56.13315 1118.735359 47.530802 
Q 1117.611479 38.904689 1115.459555 38.904689 
L 1114.207896 38.904689 
z
M 1110.714286 17.28 
L 1114.396661 17.28 
Q 1117.4837 17.28 1118.993822 20.892036 
Q 1120.503944 24.480309 1121.584263 33.106421 
Q 1122.536801 40.615654 1122.99855 50.429936 
Q 1123.463203 60.220454 1123.463203 72.601183 
Q 1123.463203 85.172019 1122.99855 95.010064 
Q 1122.536801 104.84811 1121.584263 112.333579 
Q 1120.495232 120.959691 1118.970589 124.571727 
Q 1117.445947 128.16 1114.396661 128.16 
L 1110.714286 128.16 
L 1110.714286 17.28 
z
" clip-path="url(#p9761970a75)" style="fill: #6b296b"/>
   </g>
   <g id="patch_70">
    <path d="M 1124.134199 17.28 
L 1130.76098 17.28 
Q 1133.719128 17.28 1135.299462 26.690304 
Q 1136.883117 36.076845 1136.883117 53.447887 
Q 1136.883117 70.913982 1135.299462 80.300523 
Q 1133.719128 89.687064 1130.76098 89.687064 
L 1128.128196 89.687064 
L 1128.128196 128.16 
L 1124.134199 128.16 
L 1124.134199 17.28 
z
M 1128.128196 38.00168 
L 1128.128196 68.965384 
L 1130.336016 68.965384 
Q 1131.498027 68.965384 1132.132153 64.925607 
Q 1132.766279 60.885829 1132.766279 53.447887 
Q 1132.766279 46.033708 1132.132153 42.017694 
Q 1131.498027 38.00168 1130.336016 38.00168 
L 1128.128196 38.00168 
z
" clip-path="url(#p9761970a75)" style="fill: #787800"/>
   </g>
   <g id="patch_71">
    <path d="M 1142.726928 66.446464 
Q 1143.871062 66.446464 1144.367459 63.119589 
Q 1144.863855 59.76895 1144.863855 52.117137 
Q 1144.863855 44.536614 1144.367459 41.281029 
Q 1143.871062 38.00168 1142.726928 38.00168 
L 1141.195363 38.00168 
L 1141.195363 66.446464 
L 1142.726928 66.446464 
z
M 1141.195363 86.193845 
L 1141.195363 128.16 
L 1137.554113 128.16 
L 1137.554113 17.28 
L 1143.11436 17.28 
Q 1145.905077 17.28 1147.203578 24.646652 
Q 1148.505106 31.989541 1148.505106 47.887252 
Q 1148.505106 58.865941 1147.827101 65.923669 
Q 1147.152123 72.981397 1145.790059 76.332036 
Q 1146.53768 77.662786 1147.127908 82.391702 
Q 1147.721163 87.096854 1148.326524 96.673502 
L 1150.30303 128.16 
L 1146.425689 128.16 
L 1144.703434 100.618225 
Q 1144.182823 92.301037 1143.647078 89.259323 
Q 1143.11436 86.193845 1142.224478 86.193845 
L 1141.195363 86.193845 
z
" clip-path="url(#p9761970a75)" style="fill: #bd2e1f"/>
   </g>
   <g id="patch_72">
    <path d="M 1150.974026 17.28 
L 1163.722944 17.28 
L 1163.722944 38.904689 
L 1159.136298 38.904689 
L 1159.136298 128.16 
L 1155.569566 128.16 
L 1155.569566 38.904689 
L 1150.974026 38.904689 
L 1150.974026 17.28 
z
" clip-path="url(#p9761970a75)" style="fill: #40ba47"/>
   </g>
   <g id="patch_73">
    <path d="M 1164.393939 17.28 
L 1168.489083 17.28 
L 1173.663662 93.322863 
L 1173.663662 17.28 
L 1177.142857 17.28 
L 1177.142857 128.16 
L 1173.044664 128.16 
L 1167.870085 52.117137 
L 1167.870085 128.16 
L 1164.393939 128.16 
L 1164.393939 17.28 
z
" clip-path="url(#p9761970a75)" style="fill: #40ba47"/>
   </g>
   <g id="patch_74">
    <path d="M 1177.813853 17.28 
L 1190.297408 17.28 
L 1190.297408 38.904689 
L 1182.440383 38.904689 
L 1182.440383 59.531316 
L 1189.832063 59.531316 
L 1189.832063 81.156005 
L 1182.440383 81.156005 
L 1182.440383 106.559074 
L 1190.562771 106.559074 
L 1190.562771 128.16 
L 1177.813853 128.16 
L 1177.813853 17.28 
z
" clip-path="url(#p9761970a75)" style="fill: #6b296b"/>
   </g>
   <g id="patch_75">
    <path d="M 1191.233766 17.28 
L 1194.387761 17.28 
L 1197.612135 99.121132 
L 1200.831295 17.28 
L 1203.982684 17.28 
L 1199.478466 128.16 
L 1195.737984 128.16 
L 1191.233766 17.28 
z
" clip-path="url(#p9761970a75)" style="fill: #21599c"/>
   </g>
   <g id="patch_76">
    <path d="M 1213.484866 107.961114 
L 1208.581837 107.961114 
L 1207.807675 128.16 
L 1204.65368 128.16 
L 1209.157898 17.28 
L 1212.898379 17.28 
L 1217.402597 128.16 
L 1214.251209 128.16 
L 1213.484866 107.961114 
z
M 1209.36382 87.382015 
L 1212.695064 87.382015 
L 1211.032048 43.277154 
L 1209.36382 87.382015 
z
" clip-path="url(#p9761970a75)" style="fill: #21599c"/>
   </g>
   <g id="patch_77">
    <path d="M 1226.90478 107.961114 
L 1222.001751 107.961114 
L 1221.227588 128.16 
L 1218.073593 128.16 
L 1222.577811 17.28 
L 1226.318293 17.28 
L 1230.822511 128.16 
L 1227.671122 128.16 
L 1226.90478 107.961114 
z
M 1222.783733 87.382015 
L 1226.114978 87.382015 
L 1224.451962 43.277154 
L 1222.783733 87.382015 
z
" clip-path="url(#p9761970a75)" style="fill: #21599c"/>
   </g>
   <g id="patch_78">
    <path d="M 1235.5547 17.28 
L 1240.181231 17.28 
L 1240.181231 128.16 
L 1235.5547 128.16 
L 1235.5547 17.28 
z
" clip-path="url(#p9761970a75)" style="fill: #21599c"/>
   </g>
   <g id="patch_79">
    <path d="M 1244.91342 17.28 
L 1248.273102 17.28 
L 1248.273102 57.749061 
L 1253.115736 17.28 
L 1257.017212 17.28 
L 1250.741896 69.797102 
L 1257.662338 128.16 
L 1253.456452 128.16 
L 1248.273102 84.48288 
L 1248.273102 128.16 
L 1244.91342 128.16 
L 1244.91342 17.28 
z
" clip-path="url(#p9761970a75)" style="fill: #bd2e1f"/>
   </g>
   <g id="patch_80">
    <path d="M 1267.16452 107.961114 
L 1262.261491 107.961114 
L 1261.487329 128.16 
L 1258.333333 128.16 
L 1262.837551 17.28 
L 1266.578033 17.28 
L 1271.082251 128.16 
L 1267.930862 128.16 
L 1267.16452 107.961114 
z
M 1263.043473 87.382015 
L 1266.374718 87.382015 
L 1264.711702 43.277154 
L 1263.043473 87.382015 
z
" clip-path="url(#p9761970a75)" style="fill: #21599c"/>
   </g>
   <g id="patch_81">
    <path d="M 1271.753247 17.28 
L 1276.379777 17.28 
L 1276.379777 106.559074 
L 1284.502165 106.559074 
L 1284.502165 128.16 
L 1271.753247 128.16 
L 1271.753247 17.28 
z
" clip-path="url(#p9761970a75)" style="fill: #21599c"/>
   </g>
   <g id="patch_82">
    <path d="M 1290.345976 66.446464 
Q 1291.49011 66.446464 1291.986506 63.119589 
Q 1292.482903 59.76895 1292.482903 52.117137 
Q 1292.482903 44.536614 1291.986506 41.281029 
Q 1291.49011 38.00168 1290.345976 38.00168 
L 1288.814411 38.00168 
L 1288.814411 66.446464 
L 1290.345976 66.446464 
z
M 1288.814411 86.193845 
L 1288.814411 128.16 
L 1285.17316 128.16 
L 1285.17316 17.28 
L 1290.733408 17.28 
Q 1293.524125 17.28 1294.822626 24.646652 
Q 1296.124154 31.989541 1296.124154 47.887252 
Q 1296.124154 58.865941 1295.446149 65.923669 
Q 1294.77117 72.981397 1293.409106 76.332036 
Q 1294.156728 77.662786 1294.746956 82.391702 
Q 1295.34021 87.096854 1295.945572 96.673502 
L 1297.922078 128.16 
L 1294.044736 128.16 
L 1292.322482 100.618225 
Q 1291.801871 92.301037 1291.266126 89.259323 
Q 1290.733408 86.193845 1289.843526 86.193845 
L 1288.814411 86.193845 
z
" clip-path="url(#p9761970a75)" style="fill: #bd2e1f"/>
   </g>
   <g id="patch_83">
    <path d="M 1302.086684 38.904689 
L 1302.086684 106.559074 
L 1303.338343 106.559074 
Q 1305.478651 106.559074 1306.608339 97.861672 
Q 1307.74093 89.164269 1307.74093 72.601183 
Q 1307.74093 56.13315 1306.614147 47.530802 
Q 1305.490267 38.904689 1303.338343 38.904689 
L 1302.086684 38.904689 
z
M 1298.593074 17.28 
L 1302.275449 17.28 
Q 1305.362488 17.28 1306.87261 20.892036 
Q 1308.382732 24.480309 1309.463051 33.106421 
Q 1310.415589 40.615654 1310.877338 50.429936 
Q 1311.341991 60.220454 1311.341991 72.601183 
Q 1311.341991 85.172019 1310.877338 95.010064 
Q 1310.415589 104.84811 1309.463051 112.333579 
Q 1308.37402 120.959691 1306.849377 124.571727 
Q 1305.324734 128.16 1302.275449 128.16 
L 1298.593074 128.16 
L 1298.593074 17.28 
z
" clip-path="url(#p9761970a75)" style="fill: #6b296b"/>
   </g>
   <g id="patch_84">
    <path d="M 1320.844174 107.961114 
L 1315.941145 107.961114 
L 1315.166982 128.16 
L 1312.012987 128.16 
L 1316.517205 17.28 
L 1320.257687 17.28 
L 1324.761905 128.16 
L 1321.610516 128.16 
L 1320.844174 107.961114 
z
M 1316.723127 87.382015 
L 1320.054371 87.382015 
L 1318.391356 43.277154 
L 1316.723127 87.382015 
z
" clip-path="url(#p9761970a75)" style="fill: #21599c"/>
   </g>
   <g id="patch_85">
    <path d="M 1325.4329 17.28 
L 1330.059431 17.28 
L 1330.059431 106.559074 
L 1338.181818 106.559074 
L 1338.181818 128.16 
L 1325.4329 128.16 
L 1325.4329 17.28 
z
" clip-path="url(#p9761970a75)" style="fill: #21599c"/>
   </g>
   <g id="patch_86">
    <path d="M 1338.852814 17.28 
L 1345.479595 17.28 
Q 1348.437742 17.28 1350.018077 26.690304 
Q 1351.601732 36.076845 1351.601732 53.447887 
Q 1351.601732 70.913982 1350.018077 80.300523 
Q 1348.437742 89.687064 1345.479595 89.687064 
L 1342.846811 89.687064 
L 1342.846811 128.16 
L 1338.852814 128.16 
L 1338.852814 17.28 
z
M 1342.846811 38.00168 
L 1342.846811 68.965384 
L 1345.054631 68.965384 
Q 1346.216642 68.965384 1346.850768 64.925607 
Q 1347.484894 60.885829 1347.484894 53.447887 
Q 1347.484894 46.033708 1346.850768 42.017694 
Q 1346.216642 38.00168 1345.054631 38.00168 
L 1342.846811 38.00168 
z
" clip-path="url(#p9761970a75)" style="fill: #787800"/>
   </g>
   <g id="patch_87">
    <path d="M 1365.021645 118.127891 
Q 1363.735896 123.143945 1362.353001 125.663425 
Q 1360.970106 128.16 1359.495781 128.16 
Q 1356.164262 128.16 1354.218494 113.226358 
Q 1352.272727 98.292716 1352.272727 72.754357 
Q 1352.272727 46.91824 1354.252781 32.09912 
Q 1356.235692 17.28 1359.684357 17.28 
Q 1361.012965 17.28 1362.230141 19.295584 
Q 1363.450174 21.288263 1364.530203 25.227812 
L 1364.530203 47.330518 
Q 1363.415887 42.268655 1362.313 39.77208 
Q 1361.210113 37.252601 1360.101511 37.252601 
Q 1358.050027 37.252601 1356.938568 46.460153 
Q 1355.82711 55.644801 1355.82711 72.754357 
Q 1355.82711 89.703582 1356.898567 98.956943 
Q 1357.970025 108.187399 1359.941507 108.187399 
Q 1360.478664 108.187399 1360.938677 107.660599 
Q 1361.398689 107.110894 1361.764414 105.965677 
L 1361.764414 85.214328 
L 1359.664357 85.214328 
L 1359.664357 66.73051 
L 1365.021645 66.73051 
L 1365.021645 118.127891 
z
" clip-path="url(#p9761970a75)" style="fill: #787800"/>
   </g>
   <g id="patch_88">
    <path d="M 1365.692641 17.28 
L 1370.319171 17.28 
L 1370.319171 106.559074 
L 1378.441558 106.559074 
L 1378.441558 128.16 
L 1365.692641 128.16 
L 1365.692641 17.28 
z
" clip-path="url(#p9761970a75)" style="fill: #21599c"/>
   </g>
   <g id="patch_89">
    <path d="M 1390.798485 22.570907 
L 1390.798485 45.200413 
Q 1389.468886 41.260863 1388.201611 39.268184 
Q 1386.9378 37.252601 1385.812488 37.252601 
Q 1384.320151 37.252601 1383.603414 39.978219 
Q 1382.890139 42.680934 1382.890139 48.407023 
Q 1382.890139 52.713043 1383.371427 55.118 
Q 1383.852714 57.500054 1385.119988 59.217881 
L 1386.892787 61.57703 
Q 1389.586611 65.173014 1390.72231 72.479504 
Q 1391.861472 79.76309 1391.861472 93.230853 
Q 1391.861472 110.890114 1390.275648 119.525057 
Q 1388.689824 128.16 1385.431613 128.16 
Q 1383.897726 128.16 1382.34999 126.21313 
Q 1380.802253 124.289163 1379.254517 120.48704 
L 1379.254517 97.239116 
Q 1380.802253 102.667449 1382.246115 105.438876 
Q 1383.689977 108.187399 1385.033426 108.187399 
Q 1386.39765 108.187399 1387.121312 105.186928 
Q 1387.844974 102.163553 1387.844974 96.574889 
Q 1387.844974 91.581739 1387.353299 88.856121 
Q 1386.861625 86.130502 1385.390063 83.977492 
L 1383.776539 81.618343 
Q 1381.35279 78.18269 1380.230941 70.67006 
Q 1379.112554 63.15743 1379.112554 50.422607 
Q 1379.112554 34.458269 1380.670678 25.869134 
Q 1382.228802 17.28 1385.151151 17.28 
Q 1386.484212 17.28 1387.889987 18.608453 
Q 1389.295761 19.936906 1390.798485 22.570907 
z
" clip-path="url(#p9761970a75)" style="fill: #40ba47"/>
   </g>
   <g id="patch_90">
    <path d="M 1392.532468 17.28 
L 1397.158998 17.28 
L 1397.158998 106.559074 
L 1405.281385 106.559074 
L 1405.281385 128.16 
L 1392.532468 128.16 
L 1392.532468 17.28 
z
" clip-path="url(#p9761970a75)" style="fill: #21599c"/>
   </g>
   <g id="patch_91">
    <path d="M 1405.952381 17.28 
L 1409.106376 17.28 
L 1412.33075 99.121132 
L 1415.54991 17.28 
L 1418.701299 17.28 
L 1414.197081 128.16 
L 1410.456599 128.16 
L 1405.952381 17.28 
z
" clip-path="url(#p9761970a75)" style="fill: #21599c"/>
   </g>
   <g id="patch_92">
    <path d="M 1428.203481 107.961114 
L 1423.300452 107.961114 
L 1422.52629 128.16 
L 1419.372294 128.16 
L 1423.876512 17.28 
L 1427.616994 17.28 
L 1432.121212 128.16 
L 1428.969824 128.16 
L 1428.203481 107.961114 
z
M 1424.082434 87.382015 
L 1427.413679 87.382015 
L 1425.750663 43.277154 
L 1424.082434 87.382015 
z
" clip-path="url(#p9761970a75)" style="fill: #21599c"/>
   </g>
   <g id="patch_93">
    <path d="M 1441.623394 107.961114 
L 1436.720365 107.961114 
L 1435.946203 128.16 
L 1432.792208 128.16 
L 1437.296426 17.28 
L 1441.036908 17.28 
L 1445.541126 128.16 
L 1442.389737 128.16 
L 1441.623394 107.961114 
z
M 1437.502348 87.382015 
L 1440.833592 87.382015 
L 1439.170577 43.277154 
L 1437.502348 87.382015 
z
" clip-path="url(#p9761970a75)" style="fill: #21599c"/>
   </g>
   <g id="patch_94">
    <path d="M 1446.212121 17.28 
L 1458.961039 17.28 
L 1458.961039 38.904689 
L 1454.374393 38.904689 
L 1454.374393 128.16 
L 1450.807661 128.16 
L 1450.807661 38.904689 
L 1446.212121 38.904689 
L 1446.212121 17.28 
z
" clip-path="url(#p9761970a75)" style="fill: #40ba47"/>
   </g>
   <g id="patch_95">
    <path d="M 1459.632035 17.28 
L 1472.380952 17.28 
L 1472.380952 38.904689 
L 1467.794307 38.904689 
L 1467.794307 128.16 
L 1464.227575 128.16 
L 1464.227575 38.904689 
L 1459.632035 38.904689 
L 1459.632035 17.28 
z
" clip-path="url(#p9761970a75)" style="fill: #40ba47"/>
   </g>
   <g id="patch_96">
    <path d="M 1473.051948 17.28 
L 1477.678478 17.28 
L 1477.678478 106.559074 
L 1485.800866 106.559074 
L 1485.800866 128.16 
L 1473.051948 128.16 
L 1473.051948 17.28 
z
" clip-path="url(#p9761970a75)" style="fill: #21599c"/>
   </g>
   <g id="patch_97">
    <path d="M 1495.303048 107.961114 
L 1490.400019 107.961114 
L 1489.625857 128.16 
L 1486.471861 128.16 
L 1490.976079 17.28 
L 1494.716561 17.28 
L 1499.220779 128.16 
L 1496.069391 128.16 
L 1495.303048 107.961114 
z
M 1491.182001 87.382015 
L 1494.513246 87.382015 
L 1492.85023 43.277154 
L 1491.182001 87.382015 
z
" clip-path="url(#p9761970a75)" style="fill: #21599c"/>
   </g>
   <g id="patch_98">
    <path d="M 1505.064591 66.446464 
Q 1506.208724 66.446464 1506.705121 63.119589 
Q 1507.201518 59.76895 1507.201518 52.117137 
Q 1507.201518 44.536614 1506.705121 41.281029 
Q 1506.208724 38.00168 1505.064591 38.00168 
L 1503.533026 38.00168 
L 1503.533026 66.446464 
L 1505.064591 66.446464 
z
M 1503.533026 86.193845 
L 1503.533026 128.16 
L 1499.891775 128.16 
L 1499.891775 17.28 
L 1505.452022 17.28 
Q 1508.24274 17.28 1509.541241 24.646652 
Q 1510.842768 31.989541 1510.842768 47.887252 
Q 1510.842768 58.865941 1510.164763 65.923669 
Q 1509.489785 72.981397 1508.127721 76.332036 
Q 1508.875343 77.662786 1509.46557 82.391702 
Q 1510.058825 87.096854 1510.664187 96.673502 
L 1512.640693 128.16 
L 1508.763351 128.16 
L 1507.041097 100.618225 
Q 1506.520486 92.301037 1505.984741 89.259323 
Q 1505.452022 86.193845 1504.562141 86.193845 
L 1503.533026 86.193845 
z
" clip-path="url(#p9761970a75)" style="fill: #bd2e1f"/>
   </g>
   <g id="patch_99">
    <path d="M 1513.311688 17.28 
L 1525.795244 17.28 
L 1525.795244 38.904689 
L 1517.938219 38.904689 
L 1517.938219 59.531316 
L 1525.329899 59.531316 
L 1525.329899 81.156005 
L 1517.938219 81.156005 
L 1517.938219 106.559074 
L 1526.060606 106.559074 
L 1526.060606 128.16 
L 1513.311688 128.16 
L 1513.311688 17.28 
z
" clip-path="url(#p9761970a75)" style="fill: #6b296b"/>
   </g>
   <g id="patch_100">
    <path d="M 1535.562788 107.961114 
L 1530.659759 107.961114 
L 1529.885597 128.16 
L 1526.731602 128.16 
L 1531.23582 17.28 
L 1534.976302 17.28 
L 1539.480519 128.16 
L 1536.329131 128.16 
L 1535.562788 107.961114 
z
M 1531.441742 87.382015 
L 1534.772986 87.382015 
L 1533.109971 43.277154 
L 1531.441742 87.382015 
z
" clip-path="url(#p9761970a75)" style="fill: #21599c"/>
   </g>
   <g id="patch_101">
    <path d="M 1540.151515 17.28 
L 1543.511197 17.28 
L 1543.511197 57.749061 
L 1548.353831 17.28 
L 1552.255307 17.28 
L 1545.979991 69.797102 
L 1552.900433 128.16 
L 1548.694547 128.16 
L 1543.511197 84.48288 
L 1543.511197 128.16 
L 1540.151515 128.16 
L 1540.151515 17.28 
z
" clip-path="url(#p9761970a75)" style="fill: #bd2e1f"/>
   </g>
   <g id="patch_102">
    <path d="M 1553.571429 17.28 
L 1558.197959 17.28 
L 1558.197959 106.559074 
L 1566.320346 106.559074 
L 1566.320346 128.16 
L 1553.571429 128.16 
L 1553.571429 17.28 
z
" clip-path="url(#p9761970a75)" style="fill: #21599c"/>
   </g>
   <g id="patch_103">
    <path d="M 1578.677273 22.570907 
L 1578.677273 45.200413 
Q 1577.347674 41.260863 1576.080399 39.268184 
Q 1574.816588 37.252601 1573.691276 37.252601 
Q 1572.198939 37.252601 1571.482202 39.978219 
Q 1570.768927 42.680934 1570.768927 48.407023 
Q 1570.768927 52.713043 1571.250215 55.118 
Q 1571.731502 57.500054 1572.998776 59.217881 
L 1574.771575 61.57703 
Q 1577.465399 65.173014 1578.601098 72.479504 
Q 1579.74026 79.76309 1579.74026 93.230853 
Q 1579.74026 110.890114 1578.154436 119.525057 
Q 1576.568612 128.16 1573.310401 128.16 
Q 1571.776514 128.16 1570.228778 126.21313 
Q 1568.681041 124.289163 1567.133304 120.48704 
L 1567.133304 97.239116 
Q 1568.681041 102.667449 1570.124903 105.438876 
Q 1571.568764 108.187399 1572.912214 108.187399 
Q 1574.276438 108.187399 1575.0001 105.186928 
Q 1575.723762 102.163553 1575.723762 96.574889 
Q 1575.723762 91.581739 1575.232087 88.856121 
Q 1574.740413 86.130502 1573.268851 83.977492 
L 1571.655327 81.618343 
Q 1569.231578 78.18269 1568.109729 70.67006 
Q 1566.991342 63.15743 1566.991342 50.422607 
Q 1566.991342 34.458269 1568.549466 25.869134 
Q 1570.10759 17.28 1573.029939 17.28 
Q 1574.363 17.28 1575.768774 18.608453 
Q 1577.174549 19.936906 1578.677273 22.570907 
z
" clip-path="url(#p9761970a75)" style="fill: #40ba47"/>
   </g>
   <g id="patch_104">
    <path d="M 1587.125685 111.578719 
L 1586.876019 111.578719 
Q 1583.813623 111.578719 1582.111111 99.152512 
Q 1580.411255 86.706798 1580.411255 64.526897 
Q 1580.411255 42.38601 1582.108455 29.842759 
Q 1583.805655 17.28 1586.785714 17.28 
Q 1589.797646 17.28 1591.47891 29.725714 
Q 1593.160173 42.151921 1593.160173 64.526897 
Q 1593.160173 79.879212 1592.267749 90.978916 
Q 1591.375325 102.078621 1589.699373 107.677241 
L 1592.196036 128.16 
L 1589.149576 128.16 
L 1587.125685 111.578719 
z
M 1586.785714 34.290443 
Q 1585.324901 34.290443 1584.520125 42.210443 
Q 1583.71535 50.130443 1583.71535 64.526897 
Q 1583.71535 79.157438 1584.501533 86.940887 
Q 1585.290372 94.704828 1586.785714 94.704828 
Q 1588.254496 94.704828 1589.059271 86.784828 
Q 1589.864047 78.84532 1589.864047 64.526897 
Q 1589.864047 50.130443 1589.059271 42.210443 
Q 1588.254496 34.290443 1586.785714 34.290443 
z
" clip-path="url(#p9761970a75)" style="fill: #40ba47"/>
   </g>
   <g id="patch_105">
    <path d="M 1602.662355 107.961114 
L 1597.759326 107.961114 
L 1596.985164 128.16 
L 1593.831169 128.16 
L 1598.335387 17.28 
L 1602.075869 17.28 
L 1606.580087 128.16 
L 1603.428698 128.16 
L 1602.662355 107.961114 
z
M 1598.541309 87.382015 
L 1601.872553 87.382015 
L 1600.209538 43.277154 
L 1598.541309 87.382015 
z
" clip-path="url(#p9761970a75)" style="fill: #21599c"/>
   </g>
   <g id="patch_106">
    <path d="M 1607.251082 17.28 
L 1610.405077 17.28 
L 1613.629451 99.121132 
L 1616.848611 17.28 
L 1620 17.28 
L 1615.495782 128.16 
L 1611.7553 128.16 
L 1607.251082 17.28 
z
" clip-path="url(#p9761970a75)" style="fill: #21599c"/>
   </g>
   <g id="matplotlib.axis_1">
    <g id="xtick_1">
     <g id="line2d_2">
      <defs>
       <path id="m11d2bec5e9" d="M 0 0 
L 0 3.5 
" style="stroke: #000000; stroke-width: 0.8"/>
      </defs>
      <g>
       <use xlink:href="#m11d2bec5e9" x="231.374459" y="128.16" style="stroke: #000000; stroke-width: 0.8"/>
      </g>
     </g>
     <g id="text_1">
      <!-- 0 -->
      <g transform="translate(228.193209 142.758438) scale(0.1 -0.1)">
       <defs>
        <path id="DejaVuSans-30" d="M 2034 4250 
Q 1547 4250 1301 3770 
Q 1056 3291 1056 2328 
Q 1056 1369 1301 889 
Q 1547 409 2034 409 
Q 2525 409 2770 889 
Q 3016 1369 3016 2328 
Q 3016 3291 2770 3770 
Q 2525 4250 2034 4250 
z
M 2034 4750 
Q 2819 4750 3233 4129 
Q 3647 3509 3647 2328 
Q 3647 1150 3233 529 
Q 2819 -91 2034 -91 
Q 1250 -91 836 529 
Q 422 1150 422 2328 
Q 422 3509 836 4129 
Q 1250 4750 2034 4750 
z
" transform="scale(0.015625)"/>
       </defs>
       <use xlink:href="#DejaVuSans-30"/>
      </g>
     </g>
    </g>
    <g id="xtick_2">
     <g id="line2d_3">
      <g>
       <use xlink:href="#m11d2bec5e9" x="499.772727" y="128.16" style="stroke: #000000; stroke-width: 0.8"/>
      </g>
     </g>
     <g id="text_2">
      <!-- 20 -->
      <g transform="translate(493.410227 142.758438) scale(0.1 -0.1)">
       <defs>
        <path id="DejaVuSans-32" d="M 1228 531 
L 3431 531 
L 3431 0 
L 469 0 
L 469 531 
Q 828 903 1448 1529 
Q 2069 2156 2228 2338 
Q 2531 2678 2651 2914 
Q 2772 3150 2772 3378 
Q 2772 3750 2511 3984 
Q 2250 4219 1831 4219 
Q 1534 4219 1204 4116 
Q 875 4013 500 3803 
L 500 4441 
Q 881 4594 1212 4672 
Q 1544 4750 1819 4750 
Q 2544 4750 2975 4387 
Q 3406 4025 3406 3419 
Q 3406 3131 3298 2873 
Q 3191 2616 2906 2266 
Q 2828 2175 2409 1742 
Q 1991 1309 1228 531 
z
" transform="scale(0.015625)"/>
       </defs>
       <use xlink:href="#DejaVuSans-32"/>
       <use xlink:href="#DejaVuSans-30" x="63.623047"/>
      </g>
     </g>
    </g>
    <g id="xtick_3">
     <g id="line2d_4">
      <g>
       <use xlink:href="#m11d2bec5e9" x="768.170996" y="128.16" style="stroke: #000000; stroke-width: 0.8"/>
      </g>
     </g>
     <g id="text_3">
      <!-- 40 -->
      <g transform="translate(761.808496 142.758438) scale(0.1 -0.1)">
       <defs>
        <path id="DejaVuSans-34" d="M 2419 4116 
L 825 1625 
L 2419 1625 
L 2419 4116 
z
M 2253 4666 
L 3047 4666 
L 3047 1625 
L 3713 1625 
L 3713 1100 
L 3047 1100 
L 3047 0 
L 2419 0 
L 2419 1100 
L 313 1100 
L 313 1709 
L 2253 4666 
z
" transform="scale(0.015625)"/>
       </defs>
       <use xlink:href="#DejaVuSans-34"/>
       <use xlink:href="#DejaVuSans-30" x="63.623047"/>
      </g>
     </g>
    </g>
    <g id="xtick_4">
     <g id="line2d_5">
      <g>
       <use xlink:href="#m11d2bec5e9" x="1036.569264" y="128.16" style="stroke: #000000; stroke-width: 0.8"/>
      </g>
     </g>
     <g id="text_4">
      <!-- 60 -->
      <g transform="translate(1030.206764 142.758438) scale(0.1 -0.1)">
       <defs>
        <path id="DejaVuSans-36" d="M 2113 2584 
Q 1688 2584 1439 2293 
Q 1191 2003 1191 1497 
Q 1191 994 1439 701 
Q 1688 409 2113 409 
Q 2538 409 2786 701 
Q 3034 994 3034 1497 
Q 3034 2003 2786 2293 
Q 2538 2584 2113 2584 
z
M 3366 4563 
L 3366 3988 
Q 3128 4100 2886 4159 
Q 2644 4219 2406 4219 
Q 1781 4219 1451 3797 
Q 1122 3375 1075 2522 
Q 1259 2794 1537 2939 
Q 1816 3084 2150 3084 
Q 2853 3084 3261 2657 
Q 3669 2231 3669 1497 
Q 3669 778 3244 343 
Q 2819 -91 2113 -91 
Q 1303 -91 875 529 
Q 447 1150 447 2328 
Q 447 3434 972 4092 
Q 1497 4750 2381 4750 
Q 2619 4750 2861 4703 
Q 3103 4656 3366 4563 
z
" transform="scale(0.015625)"/>
       </defs>
       <use xlink:href="#DejaVuSans-36"/>
       <use xlink:href="#DejaVuSans-30" x="63.623047"/>
      </g>
     </g>
    </g>
    <g id="xtick_5">
     <g id="line2d_6">
      <g>
       <use xlink:href="#m11d2bec5e9" x="1304.967532" y="128.16" style="stroke: #000000; stroke-width: 0.8"/>
      </g>
     </g>
     <g id="text_5">
      <!-- 80 -->
      <g transform="translate(1298.605032 142.758438) scale(0.1 -0.1)">
       <defs>
        <path id="DejaVuSans-38" d="M 2034 2216 
Q 1584 2216 1326 1975 
Q 1069 1734 1069 1313 
Q 1069 891 1326 650 
Q 1584 409 2034 409 
Q 2484 409 2743 651 
Q 3003 894 3003 1313 
Q 3003 1734 2745 1975 
Q 2488 2216 2034 2216 
z
M 1403 2484 
Q 997 2584 770 2862 
Q 544 3141 544 3541 
Q 544 4100 942 4425 
Q 1341 4750 2034 4750 
Q 2731 4750 3128 4425 
Q 3525 4100 3525 3541 
Q 3525 3141 3298 2862 
Q 3072 2584 2669 2484 
Q 3125 2378 3379 2068 
Q 3634 1759 3634 1313 
Q 3634 634 3220 271 
Q 2806 -91 2034 -91 
Q 1263 -91 848 271 
Q 434 634 434 1313 
Q 434 1759 690 2068 
Q 947 2378 1403 2484 
z
M 1172 3481 
Q 1172 3119 1398 2916 
Q 1625 2713 2034 2713 
Q 2441 2713 2670 2916 
Q 2900 3119 2900 3481 
Q 2900 3844 2670 4047 
Q 2441 4250 2034 4250 
Q 1625 4250 1398 4047 
Q 1172 3844 1172 3481 
z
" transform="scale(0.015625)"/>
       </defs>
       <use xlink:href="#DejaVuSans-38"/>
       <use xlink:href="#DejaVuSans-30" x="63.623047"/>
      </g>
     </g>
    </g>
    <g id="xtick_6">
     <g id="line2d_7">
      <g>
       <use xlink:href="#m11d2bec5e9" x="1573.365801" y="128.16" style="stroke: #000000; stroke-width: 0.8"/>
      </g>
     </g>
     <g id="text_6">
      <!-- 100 -->
      <g transform="translate(1563.822051 142.758438) scale(0.1 -0.1)">
       <defs>
        <path id="DejaVuSans-31" d="M 794 531 
L 1825 531 
L 1825 4091 
L 703 3866 
L 703 4441 
L 1819 4666 
L 2450 4666 
L 2450 531 
L 3481 531 
L 3481 0 
L 794 0 
L 794 531 
z
" transform="scale(0.015625)"/>
       </defs>
       <use xlink:href="#DejaVuSans-31"/>
       <use xlink:href="#DejaVuSans-30" x="63.623047"/>
       <use xlink:href="#DejaVuSans-30" x="127.246094"/>
      </g>
     </g>
    </g>
   </g>
   <g id="matplotlib.axis_2">
    <g id="ytick_1">
     <g id="line2d_8">
      <defs>
       <path id="mc31ead9d1f" d="M 0 0 
L -3.5 0 
" style="stroke: #000000; stroke-width: 0.8"/>
      </defs>
      <g>
       <use xlink:href="#mc31ead9d1f" x="225" y="128.16" style="stroke: #000000; stroke-width: 0.8"/>
      </g>
     </g>
     <g id="text_7">
      <!-- 0.0 -->
      <g transform="translate(202.096875 131.959219) scale(0.1 -0.1)">
       <defs>
        <path id="DejaVuSans-2e" d="M 684 794 
L 1344 794 
L 1344 0 
L 684 0 
L 684 794 
z
" transform="scale(0.015625)"/>
       </defs>
       <use xlink:href="#DejaVuSans-30"/>
       <use xlink:href="#DejaVuSans-2e" x="63.623047"/>
       <use xlink:href="#DejaVuSans-30" x="95.410156"/>
      </g>
     </g>
    </g>
    <g id="ytick_2">
     <g id="line2d_9">
      <g>
       <use xlink:href="#mc31ead9d1f" x="225" y="105.984" style="stroke: #000000; stroke-width: 0.8"/>
      </g>
     </g>
     <g id="text_8">
      <!-- 0.2 -->
      <g transform="translate(202.096875 109.783219) scale(0.1 -0.1)">
       <use xlink:href="#DejaVuSans-30"/>
       <use xlink:href="#DejaVuSans-2e" x="63.623047"/>
       <use xlink:href="#DejaVuSans-32" x="95.410156"/>
      </g>
     </g>
    </g>
    <g id="ytick_3">
     <g id="line2d_10">
      <g>
       <use xlink:href="#mc31ead9d1f" x="225" y="83.808" style="stroke: #000000; stroke-width: 0.8"/>
      </g>
     </g>
     <g id="text_9">
      <!-- 0.4 -->
      <g transform="translate(202.096875 87.607219) scale(0.1 -0.1)">
       <use xlink:href="#DejaVuSans-30"/>
       <use xlink:href="#DejaVuSans-2e" x="63.623047"/>
       <use xlink:href="#DejaVuSans-34" x="95.410156"/>
      </g>
     </g>
    </g>
    <g id="ytick_4">
     <g id="line2d_11">
      <g>
       <use xlink:href="#mc31ead9d1f" x="225" y="61.632" style="stroke: #000000; stroke-width: 0.8"/>
      </g>
     </g>
     <g id="text_10">
      <!-- 0.6 -->
      <g transform="translate(202.096875 65.431219) scale(0.1 -0.1)">
       <use xlink:href="#DejaVuSans-30"/>
       <use xlink:href="#DejaVuSans-2e" x="63.623047"/>
       <use xlink:href="#DejaVuSans-36" x="95.410156"/>
      </g>
     </g>
    </g>
    <g id="ytick_5">
     <g id="line2d_12">
      <g>
       <use xlink:href="#mc31ead9d1f" x="225" y="39.456" style="stroke: #000000; stroke-width: 0.8"/>
      </g>
     </g>
     <g id="text_11">
      <!-- 0.8 -->
      <g transform="translate(202.096875 43.255219) scale(0.1 -0.1)">
       <use xlink:href="#DejaVuSans-30"/>
       <use xlink:href="#DejaVuSans-2e" x="63.623047"/>
       <use xlink:href="#DejaVuSans-38" x="95.410156"/>
      </g>
     </g>
    </g>
    <g id="ytick_6">
     <g id="line2d_13">
      <g>
       <use xlink:href="#mc31ead9d1f" x="225" y="17.28" style="stroke: #000000; stroke-width: 0.8"/>
      </g>
     </g>
     <g id="text_12">
      <!-- 1.0 -->
      <g transform="translate(202.096875 21.079219) scale(0.1 -0.1)">
       <use xlink:href="#DejaVuSans-31"/>
       <use xlink:href="#DejaVuSans-2e" x="63.623047"/>
       <use xlink:href="#DejaVuSans-30" x="95.410156"/>
      </g>
     </g>
    </g>
   </g>
  </g>
 </g>
 <defs>
  <clipPath id="p9761970a75">
   <rect x="225" y="17.28" width="1395" height="110.88"/>
  </clipPath>
 </defs>
</svg>
