<?xml version="1.0" encoding="utf-8" standalone="no"?>
<!DOCTYPE svg PUBLIC "-//W3C//DTD SVG 1.1//EN"
  "http://www.w3.org/Graphics/SVG/1.1/DTD/svg11.dtd">
<svg xmlns:xlink="http://www.w3.org/1999/xlink" width="1800pt" height="144pt" viewBox="0 0 1800 144" xmlns="http://www.w3.org/2000/svg" version="1.1">
 <metadata>
  <rdf:RDF xmlns:dc="http://purl.org/dc/elements/1.1/" xmlns:cc="http://creativecommons.org/ns#" xmlns:rdf="http://www.w3.org/1999/02/22-rdf-syntax-ns#">
   <cc:Work>
    <dc:type rdf:resource="http://purl.org/dc/dcmitype/StillImage"/>
    <dc:date>2025-05-09T21:11:18.886462</dc:date>
    <dc:format>image/svg+xml</dc:format>
    <dc:creator>
     <cc:Agent>
      <dc:title>Matplotlib v3.8.0, https://matplotlib.org/</dc:title>
     </cc:Agent>
    </dc:creator>
   </cc:Work>
  </rdf:RDF>
 </metadata>
 <defs>
  <style type="text/css">*{stroke-linejoin: round; stroke-linecap: butt}</style>
 </defs>
 <g id="figure_1">
  <g id="patch_1">
   <path d="M 0 144 
L 1800 144 
L 1800 0 
L 0 0 
z
" style="fill: #ffffff"/>
  </g>
  <g id="axes_1">
   <g id="patch_2">
    <path d="M 225 128.16 
L 1620 128.16 
L 1620 17.28 
L 225 17.28 
z
" style="fill: #ffffff"/>
   </g>
   <g id="line2d_1">
    <path d="M 225 128.16 
L 1620 128.16 
" clip-path="url(#p92777c530d)" style="fill: none; stroke: #000000; stroke-width: 1.5; stroke-linecap: square"/>
   </g>
   <g id="patch_3">
    <path d="M 225 17.28 
L 228.492059 17.28 
L 230.914375 76.617197 
L 233.352658 17.28 
L 236.837874 17.28 
L 236.837874 128.16 
L 234.24449 128.16 
L 234.24449 47.055534 
L 231.792522 106.844235 
L 230.052195 106.844235 
L 227.600227 47.055534 
L 227.600227 128.16 
L 225 128.16 
L 225 17.28 
z
" clip-path="url(#p92777c530d)" style="fill: #21599c"/>
   </g>
   <g id="patch_4">
    <path d="M 237.46092 17.28 
L 249.298794 17.28 
L 249.298794 38.904689 
L 245.039912 38.904689 
L 245.039912 128.16 
L 241.728061 128.16 
L 241.728061 38.904689 
L 237.46092 38.904689 
L 237.46092 17.28 
z
" clip-path="url(#p92777c530d)" style="fill: #40ba47"/>
   </g>
   <g id="patch_5">
    <path d="M 261.759714 118.127891 
Q 260.565845 123.143945 259.281773 125.663425 
Q 257.9977 128.16 256.628731 128.16 
Q 253.535284 128.16 251.728562 113.226358 
Q 249.92184 98.292716 249.92184 72.754357 
Q 249.92184 46.91824 251.760398 32.09912 
Q 253.60161 17.28 256.803831 17.28 
Q 258.037496 17.28 259.167692 19.295584 
Q 260.300541 21.288263 261.303391 25.227812 
L 261.303391 47.330518 
Q 260.268704 42.268655 259.24463 39.77208 
Q 258.220556 37.252601 257.191176 37.252601 
Q 255.286291 37.252601 254.254258 46.460153 
Q 253.222225 55.644801 253.222225 72.754357 
Q 253.222225 89.703582 254.217115 98.956943 
Q 255.212006 108.187399 257.042605 108.187399 
Q 257.541377 108.187399 257.968517 107.660599 
Q 258.395657 107.110894 258.735246 105.965677 
L 258.735246 85.214328 
L 256.78526 85.214328 
L 256.78526 66.73051 
L 261.759714 66.73051 
L 261.759714 118.127891 
z
" clip-path="url(#p92777c530d)" style="fill: #787800"/>
   </g>
   <g id="patch_6">
    <path d="M 262.38276 17.28 
L 268.535988 17.28 
Q 271.282745 17.28 272.750148 26.690304 
Q 274.220634 36.076845 274.220634 53.447887 
Q 274.220634 70.913982 272.750148 80.300523 
Q 271.282745 89.687064 268.535988 89.687064 
L 266.091344 89.687064 
L 266.091344 128.16 
L 262.38276 128.16 
L 262.38276 17.28 
z
M 266.091344 38.00168 
L 266.091344 68.965384 
L 268.141393 68.965384 
Q 269.220366 68.965384 269.809176 64.925607 
Q 270.397987 60.885829 270.397987 53.447887 
Q 270.397987 46.033708 269.809176 42.017694 
Q 269.220366 38.00168 268.141393 38.00168 
L 266.091344 38.00168 
z
" clip-path="url(#p92777c530d)" style="fill: #787800"/>
   </g>
   <g id="patch_7">
    <path d="M 274.84368 17.28 
L 278.335739 17.28 
L 280.758055 76.617197 
L 283.196338 17.28 
L 286.681554 17.28 
L 286.681554 128.16 
L 284.08817 128.16 
L 284.08817 47.055534 
L 281.636202 106.844235 
L 279.895875 106.844235 
L 277.443907 47.055534 
L 277.443907 128.16 
L 274.84368 128.16 
L 274.84368 17.28 
z
" clip-path="url(#p92777c530d)" style="fill: #21599c"/>
   </g>
   <g id="patch_8">
    <path d="M 291.075579 17.28 
L 295.371495 17.28 
L 295.371495 128.16 
L 291.075579 128.16 
L 291.075579 17.28 
z
" clip-path="url(#p92777c530d)" style="fill: #21599c"/>
   </g>
   <g id="patch_9">
    <path d="M 299.76552 17.28 
L 305.918749 17.28 
Q 308.665505 17.28 310.132908 26.690304 
Q 311.603394 36.076845 311.603394 53.447887 
Q 311.603394 70.913982 310.132908 80.300523 
Q 308.665505 89.687064 305.918749 89.687064 
L 303.474104 89.687064 
L 303.474104 128.16 
L 299.76552 128.16 
L 299.76552 17.28 
z
M 303.474104 38.00168 
L 303.474104 68.965384 
L 305.524153 68.965384 
Q 306.603126 68.965384 307.191937 64.925607 
Q 307.780748 60.885829 307.780748 53.447887 
Q 307.780748 46.033708 307.191937 42.017694 
Q 306.603126 38.00168 305.524153 38.00168 
L 303.474104 38.00168 
z
" clip-path="url(#p92777c530d)" style="fill: #787800"/>
   </g>
   <g id="patch_10">
    <path d="M 312.22644 17.28 
L 318.379669 17.28 
Q 321.126425 17.28 322.593829 26.690304 
Q 324.064314 36.076845 324.064314 53.447887 
Q 324.064314 70.913982 322.593829 80.300523 
Q 321.126425 89.687064 318.379669 89.687064 
L 315.935024 89.687064 
L 315.935024 128.16 
L 312.22644 128.16 
L 312.22644 17.28 
z
M 315.935024 38.00168 
L 315.935024 68.965384 
L 317.985073 68.965384 
Q 319.064046 68.965384 319.652857 64.925607 
Q 320.241668 60.885829 320.241668 53.447887 
Q 320.241668 46.033708 319.652857 42.017694 
Q 319.064046 38.00168 317.985073 38.00168 
L 315.935024 38.00168 
z
" clip-path="url(#p92777c530d)" style="fill: #787800"/>
   </g>
   <g id="patch_11">
    <path d="M 332.887466 107.961114 
L 328.33481 107.961114 
L 327.61597 128.16 
L 324.68736 128.16 
L 328.869705 17.28 
L 332.34289 17.28 
L 336.525234 128.16 
L 333.599046 128.16 
L 332.887466 107.961114 
z
M 329.060912 87.382015 
L 332.154104 87.382015 
L 330.609928 43.277154 
L 329.060912 87.382015 
z
" clip-path="url(#p92777c530d)" style="fill: #21599c"/>
   </g>
   <g id="patch_12">
    <path d="M 337.14828 17.28 
L 341.444197 17.28 
L 341.444197 106.559074 
L 348.986155 106.559074 
L 348.986155 128.16 
L 337.14828 128.16 
L 337.14828 17.28 
z
" clip-path="url(#p92777c530d)" style="fill: #21599c"/>
   </g>
   <g id="patch_13">
    <path d="M 352.853156 38.904689 
L 352.853156 106.559074 
L 354.015371 106.559074 
Q 356.002731 106.559074 357.051691 97.861672 
Q 358.103347 89.164269 358.103347 72.601183 
Q 358.103347 56.13315 357.057084 47.530802 
Q 356.013517 38.904689 354.015371 38.904689 
L 352.853156 38.904689 
z
M 349.609201 17.28 
L 353.028432 17.28 
Q 355.894869 17.28 357.297077 20.892036 
Q 358.699286 24.480309 359.702404 33.106421 
Q 360.586874 40.615654 361.015626 50.429936 
Q 361.447075 60.220454 361.447075 72.601183 
Q 361.447075 85.172019 361.015626 95.010064 
Q 360.586874 104.84811 359.702404 112.333579 
Q 358.691196 120.959691 357.275505 124.571727 
Q 355.859814 128.16 353.028432 128.16 
L 349.609201 128.16 
L 349.609201 17.28 
z
" clip-path="url(#p92777c530d)" style="fill: #6b296b"/>
   </g>
   <g id="patch_14">
    <path d="M 362.070121 17.28 
L 365.189718 17.28 
L 365.189718 57.749061 
L 369.686295 17.28 
L 373.30897 17.28 
L 367.482091 69.797102 
L 373.907995 128.16 
L 370.002663 128.16 
L 365.189718 84.48288 
L 365.189718 128.16 
L 362.070121 128.16 
L 362.070121 17.28 
z
" clip-path="url(#p92777c530d)" style="fill: #bd2e1f"/>
   </g>
   <g id="patch_15">
    <path d="M 374.531041 17.28 
L 386.122516 17.28 
L 386.122516 38.904689 
L 378.826957 38.904689 
L 378.826957 59.531316 
L 385.690424 59.531316 
L 385.690424 81.156005 
L 378.826957 81.156005 
L 378.826957 106.559074 
L 386.368915 106.559074 
L 386.368915 128.16 
L 374.531041 128.16 
L 374.531041 17.28 
z
" clip-path="url(#p92777c530d)" style="fill: #6b296b"/>
   </g>
   <g id="patch_16">
    <path d="M 390.76294 17.28 
L 395.058856 17.28 
L 395.058856 128.16 
L 390.76294 128.16 
L 390.76294 17.28 
z
" clip-path="url(#p92777c530d)" style="fill: #21599c"/>
   </g>
   <g id="patch_17">
    <path d="M 399.452881 17.28 
L 402.858995 17.28 
L 402.858995 59.531316 
L 407.884641 59.531316 
L 407.884641 17.28 
L 411.290755 17.28 
L 411.290755 128.16 
L 407.884641 128.16 
L 407.884641 81.156005 
L 402.858995 81.156005 
L 402.858995 128.16 
L 399.452881 128.16 
L 399.452881 17.28 
z
" clip-path="url(#p92777c530d)" style="fill: #177875"/>
   </g>
   <g id="patch_18">
    <path d="M 411.913801 17.28 
L 415.319915 17.28 
L 415.319915 59.531316 
L 420.345561 59.531316 
L 420.345561 17.28 
L 423.751675 17.28 
L 423.751675 128.16 
L 420.345561 128.16 
L 420.345561 81.156005 
L 415.319915 81.156005 
L 415.319915 128.16 
L 411.913801 128.16 
L 411.913801 17.28 
z
" clip-path="url(#p92777c530d)" style="fill: #177875"/>
   </g>
   <g id="patch_19">
    <path d="M 424.374721 17.28 
L 430.527949 17.28 
Q 433.274706 17.28 434.742109 26.690304 
Q 436.212595 36.076845 436.212595 53.447887 
Q 436.212595 70.913982 434.742109 80.300523 
Q 433.274706 89.687064 430.527949 89.687064 
L 428.083305 89.687064 
L 428.083305 128.16 
L 424.374721 128.16 
L 424.374721 17.28 
z
M 428.083305 38.00168 
L 428.083305 68.965384 
L 430.133353 68.965384 
Q 431.212326 68.965384 431.801137 64.925607 
Q 432.389948 60.885829 432.389948 53.447887 
Q 432.389948 46.033708 431.801137 42.017694 
Q 431.212326 38.00168 430.133353 38.00168 
L 428.083305 38.00168 
z
" clip-path="url(#p92777c530d)" style="fill: #787800"/>
   </g>
   <g id="patch_20">
    <path d="M 436.835641 17.28 
L 448.673515 17.28 
L 448.673515 38.904689 
L 444.414633 38.904689 
L 444.414633 128.16 
L 441.102782 128.16 
L 441.102782 38.904689 
L 436.835641 38.904689 
L 436.835641 17.28 
z
" clip-path="url(#p92777c530d)" style="fill: #40ba47"/>
   </g>
   <g id="patch_21">
    <path d="M 454.099725 66.446464 
Q 455.162098 66.446464 455.623022 63.119589 
Q 456.083946 59.76895 456.083946 52.117137 
Q 456.083946 44.536614 455.623022 41.281029 
Q 455.162098 38.00168 454.099725 38.00168 
L 452.677606 38.00168 
L 452.677606 66.446464 
L 454.099725 66.446464 
z
M 452.677606 86.193845 
L 452.677606 128.16 
L 449.296561 128.16 
L 449.296561 17.28 
L 454.45947 17.28 
Q 457.050762 17.28 458.256471 24.646652 
Q 459.464991 31.989541 459.464991 47.887252 
Q 459.464991 58.865941 458.835437 65.923669 
Q 458.208693 72.981397 456.943963 76.332036 
Q 457.638159 77.662786 458.186209 82.391702 
Q 458.737069 87.096854 459.299171 96.673502 
L 461.134435 128.16 
L 457.53417 128.16 
L 455.934989 100.618225 
Q 455.451581 92.301037 454.95412 89.259323 
Q 454.45947 86.193845 453.63318 86.193845 
L 452.677606 86.193845 
z
" clip-path="url(#p92777c530d)" style="fill: #bd2e1f"/>
   </g>
   <g id="patch_22">
    <path d="M 461.757481 17.28 
L 466.053397 17.28 
L 466.053397 106.559074 
L 473.595355 106.559074 
L 473.595355 128.16 
L 461.757481 128.16 
L 461.757481 17.28 
z
" clip-path="url(#p92777c530d)" style="fill: #21599c"/>
   </g>
   <g id="patch_23">
    <path d="M 482.418507 107.961114 
L 477.865851 107.961114 
L 477.14701 128.16 
L 474.218401 128.16 
L 478.400745 17.28 
L 481.873931 17.28 
L 486.056275 128.16 
L 483.130086 128.16 
L 482.418507 107.961114 
z
M 478.591952 87.382015 
L 481.685144 87.382015 
L 480.140969 43.277154 
L 478.591952 87.382015 
z
" clip-path="url(#p92777c530d)" style="fill: #21599c"/>
   </g>
   <g id="patch_24">
    <path d="M 486.679321 17.28 
L 489.60793 17.28 
L 492.601889 99.121132 
L 495.591006 17.28 
L 498.517195 17.28 
L 494.334851 128.16 
L 490.861666 128.16 
L 486.679321 17.28 
z
" clip-path="url(#p92777c530d)" style="fill: #21599c"/>
   </g>
   <g id="patch_25">
    <path d="M 507.340347 107.961114 
L 502.787691 107.961114 
L 502.06885 128.16 
L 499.140241 128.16 
L 503.322586 17.28 
L 506.795771 17.28 
L 510.978115 128.16 
L 508.051926 128.16 
L 507.340347 107.961114 
z
M 503.513792 87.382015 
L 506.606984 87.382015 
L 505.062809 43.277154 
L 503.513792 87.382015 
z
" clip-path="url(#p92777c530d)" style="fill: #21599c"/>
   </g>
   <g id="patch_26">
    <path d="M 519.801267 107.961114 
L 515.248611 107.961114 
L 514.52977 128.16 
L 511.601161 128.16 
L 515.783506 17.28 
L 519.256691 17.28 
L 523.439035 128.16 
L 520.512846 128.16 
L 519.801267 107.961114 
z
M 515.974712 87.382015 
L 519.067905 87.382015 
L 517.523729 43.277154 
L 515.974712 87.382015 
z
" clip-path="url(#p92777c530d)" style="fill: #21599c"/>
   </g>
   <g id="patch_27">
    <path d="M 524.185281 17.28 
L 535.776756 17.28 
L 535.776756 38.904689 
L 528.481197 38.904689 
L 528.481197 59.531316 
L 535.344664 59.531316 
L 535.344664 81.156005 
L 528.481197 81.156005 
L 528.481197 128.16 
L 524.185281 128.16 
L 524.185281 17.28 
z
" clip-path="url(#p92777c530d)" style="fill: #21599c"/>
   </g>
   <g id="patch_28">
    <path d="M 536.523001 17.28 
L 540.818918 17.28 
L 540.818918 106.559074 
L 548.360875 106.559074 
L 548.360875 128.16 
L 536.523001 128.16 
L 536.523001 17.28 
z
" clip-path="url(#p92777c530d)" style="fill: #21599c"/>
   </g>
   <g id="patch_29">
    <path d="M 559.83477 22.570907 
L 559.83477 45.200413 
Q 558.600185 41.260863 557.42347 39.268184 
Q 556.249971 37.252601 555.205075 37.252601 
Q 553.819381 37.252601 553.153862 39.978219 
Q 552.491559 42.680934 552.491559 48.407023 
Q 552.491559 52.713043 552.938453 55.118 
Q 553.385347 57.500054 554.562061 59.217881 
L 556.208175 61.57703 
Q 558.709497 65.173014 559.764039 72.479504 
Q 560.821795 79.76309 560.821795 93.230853 
Q 560.821795 110.890114 559.349295 119.525057 
Q 557.876795 128.16 554.851417 128.16 
Q 553.427143 128.16 551.990008 126.21313 
Q 550.552874 124.289163 549.115739 120.48704 
L 549.115739 97.239116 
Q 550.552874 102.667449 551.893556 105.438876 
Q 553.234239 108.187399 554.481685 108.187399 
Q 555.748421 108.187399 556.42037 105.186928 
Q 557.092319 102.163553 557.092319 96.574889 
Q 557.092319 91.581739 556.635779 88.856121 
Q 556.17924 86.130502 554.812837 83.977492 
L 553.314616 81.618343 
Q 551.064069 78.18269 550.022388 70.67006 
Q 548.983921 63.15743 548.983921 50.422607 
Q 548.983921 34.458269 550.430701 25.869134 
Q 551.877481 17.28 554.590997 17.28 
Q 555.828798 17.28 557.134114 18.608453 
Q 558.439431 19.936906 559.83477 22.570907 
z
" clip-path="url(#p92777c530d)" style="fill: #40ba47"/>
   </g>
   <g id="patch_30">
    <path d="M 573.282715 118.127891 
Q 572.088847 123.143945 570.804774 125.663425 
Q 569.520702 128.16 568.151732 128.16 
Q 565.058285 128.16 563.251563 113.226358 
Q 561.444841 98.292716 561.444841 72.754357 
Q 561.444841 46.91824 563.2834 32.09912 
Q 565.124611 17.28 568.326833 17.28 
Q 569.560497 17.28 570.690693 19.295584 
Q 571.823542 21.288263 572.826392 25.227812 
L 572.826392 47.330518 
Q 571.791706 42.268655 570.767632 39.77208 
Q 569.743557 37.252601 568.714177 37.252601 
Q 566.809293 37.252601 565.777259 46.460153 
Q 564.745226 55.644801 564.745226 72.754357 
Q 564.745226 89.703582 565.740117 98.956943 
Q 566.735007 108.187399 568.565607 108.187399 
Q 569.064378 108.187399 569.491518 107.660599 
Q 569.918658 107.110894 570.258247 105.965677 
L 570.258247 85.214328 
L 568.308261 85.214328 
L 568.308261 66.73051 
L 573.282715 66.73051 
L 573.282715 118.127891 
z
" clip-path="url(#p92777c530d)" style="fill: #787800"/>
   </g>
   <g id="patch_31">
    <path d="M 585.743636 120.212188 
Q 584.753418 124.151737 583.68267 126.144416 
Q 582.611923 128.16 581.445733 128.16 
Q 577.96804 128.16 575.936901 113.226358 
Q 573.905762 98.292716 573.905762 72.754357 
Q 573.905762 47.124379 575.936901 32.213642 
Q 577.96804 17.28 581.445733 17.28 
Q 582.611923 17.28 583.68267 19.295584 
Q 584.753418 21.288263 585.743636 25.227812 
L 585.743636 47.330518 
Q 584.74447 42.108325 583.77513 39.680463 
Q 582.805791 37.252601 581.735043 37.252601 
Q 579.814259 37.252601 578.713686 46.712101 
Q 577.616095 56.148697 577.616095 72.754357 
Q 577.616095 89.291303 578.713686 98.750804 
Q 579.814259 108.187399 581.735043 108.187399 
Q 582.805791 108.187399 583.77513 105.759537 
Q 584.74447 103.308771 585.743636 98.086577 
L 585.743636 120.212188 
z
" clip-path="url(#p92777c530d)" style="fill: #6b296b"/>
   </g>
   <g id="patch_32">
    <path d="M 594.566787 107.961114 
L 590.014131 107.961114 
L 589.295291 128.16 
L 586.366682 128.16 
L 590.549026 17.28 
L 594.022211 17.28 
L 598.204556 128.16 
L 595.278367 128.16 
L 594.566787 107.961114 
z
M 590.740233 87.382015 
L 593.833425 87.382015 
L 592.289249 43.277154 
L 590.740233 87.382015 
z
" clip-path="url(#p92777c530d)" style="fill: #21599c"/>
   </g>
   <g id="patch_33">
    <path d="M 598.827602 17.28 
L 610.419076 17.28 
L 610.419076 38.904689 
L 603.123518 38.904689 
L 603.123518 59.531316 
L 609.986985 59.531316 
L 609.986985 81.156005 
L 603.123518 81.156005 
L 603.123518 106.559074 
L 610.665476 106.559074 
L 610.665476 128.16 
L 598.827602 128.16 
L 598.827602 17.28 
z
" clip-path="url(#p92777c530d)" style="fill: #6b296b"/>
   </g>
   <g id="patch_34">
    <path d="M 619.488627 107.961114 
L 614.935971 107.961114 
L 614.217131 128.16 
L 611.288522 128.16 
L 615.470866 17.28 
L 618.944051 17.28 
L 623.126396 128.16 
L 620.200207 128.16 
L 619.488627 107.961114 
z
M 615.662073 87.382015 
L 618.755265 87.382015 
L 617.211089 43.277154 
L 615.662073 87.382015 
z
" clip-path="url(#p92777c530d)" style="fill: #21599c"/>
   </g>
   <g id="patch_35">
    <path d="M 623.749442 17.28 
L 635.340917 17.28 
L 635.340917 38.904689 
L 628.045358 38.904689 
L 628.045358 59.531316 
L 634.908825 59.531316 
L 634.908825 81.156005 
L 628.045358 81.156005 
L 628.045358 106.559074 
L 635.587316 106.559074 
L 635.587316 128.16 
L 623.749442 128.16 
L 623.749442 17.28 
z
" clip-path="url(#p92777c530d)" style="fill: #6b296b"/>
   </g>
   <g id="patch_36">
    <path d="M 636.333561 17.28 
L 647.925036 17.28 
L 647.925036 38.904689 
L 640.629478 38.904689 
L 640.629478 59.531316 
L 647.492945 59.531316 
L 647.492945 81.156005 
L 640.629478 81.156005 
L 640.629478 128.16 
L 636.333561 128.16 
L 636.333561 17.28 
z
" clip-path="url(#p92777c530d)" style="fill: #21599c"/>
   </g>
   <g id="patch_37">
    <path d="M 660.509156 118.127891 
Q 659.315287 123.143945 658.031215 125.663425 
Q 656.747142 128.16 655.378172 128.16 
Q 652.284725 128.16 650.478004 113.226358 
Q 648.671282 98.292716 648.671282 72.754357 
Q 648.671282 46.91824 650.50984 32.09912 
Q 652.351051 17.28 655.553273 17.28 
Q 656.786938 17.28 657.917134 19.295584 
Q 659.049983 21.288263 660.052833 25.227812 
L 660.052833 47.330518 
Q 659.018146 42.268655 657.994072 39.77208 
Q 656.969998 37.252601 655.940617 37.252601 
Q 654.035733 37.252601 653.0037 46.460153 
Q 651.971666 55.644801 651.971666 72.754357 
Q 651.971666 89.703582 652.966557 98.956943 
Q 653.961448 108.187399 655.792047 108.187399 
Q 656.290819 108.187399 656.717959 107.660599 
Q 657.145098 107.110894 657.484688 105.965677 
L 657.484688 85.214328 
L 655.534702 85.214328 
L 655.534702 66.73051 
L 660.509156 66.73051 
L 660.509156 118.127891 
z
" clip-path="url(#p92777c530d)" style="fill: #787800"/>
   </g>
   <g id="patch_38">
    <path d="M 669.332308 107.961114 
L 664.779652 107.961114 
L 664.060811 128.16 
L 661.132202 128.16 
L 665.314546 17.28 
L 668.787732 17.28 
L 672.970076 128.16 
L 670.043887 128.16 
L 669.332308 107.961114 
z
M 665.505753 87.382015 
L 668.598945 87.382015 
L 667.054769 43.277154 
L 665.505753 87.382015 
z
" clip-path="url(#p92777c530d)" style="fill: #21599c"/>
   </g>
   <g id="patch_39">
    <path d="M 673.593122 17.28 
L 676.521731 17.28 
L 679.515689 99.121132 
L 682.504807 17.28 
L 685.430996 17.28 
L 681.248652 128.16 
L 677.775466 128.16 
L 673.593122 17.28 
z
" clip-path="url(#p92777c530d)" style="fill: #21599c"/>
   </g>
   <g id="patch_40">
    <path d="M 690.857206 66.446464 
Q 691.919579 66.446464 692.380503 63.119589 
Q 692.841427 59.76895 692.841427 52.117137 
Q 692.841427 44.536614 692.380503 41.281029 
Q 691.919579 38.00168 690.857206 38.00168 
L 689.435087 38.00168 
L 689.435087 66.446464 
L 690.857206 66.446464 
z
M 689.435087 86.193845 
L 689.435087 128.16 
L 686.054042 128.16 
L 686.054042 17.28 
L 691.216951 17.28 
Q 693.808243 17.28 695.013952 24.646652 
Q 696.222472 31.989541 696.222472 47.887252 
Q 696.222472 58.865941 695.592918 65.923669 
Q 694.966174 72.981397 693.701444 76.332036 
Q 694.39564 77.662786 694.94369 82.391702 
Q 695.49455 87.096854 696.056652 96.673502 
L 697.891916 128.16 
L 694.291651 128.16 
L 692.69247 100.618225 
Q 692.209062 92.301037 691.711601 89.259323 
Q 691.216951 86.193845 690.390661 86.193845 
L 689.435087 86.193845 
z
" clip-path="url(#p92777c530d)" style="fill: #bd2e1f"/>
   </g>
   <g id="patch_41">
    <path d="M 701.758917 38.904689 
L 701.758917 106.559074 
L 702.921132 106.559074 
Q 704.908493 106.559074 705.957452 97.861672 
Q 707.009109 89.164269 707.009109 72.601183 
Q 707.009109 56.13315 705.962845 47.530802 
Q 704.919279 38.904689 702.921132 38.904689 
L 701.758917 38.904689 
z
M 698.514962 17.28 
L 701.934193 17.28 
Q 704.80063 17.28 706.202839 20.892036 
Q 707.605047 24.480309 708.608165 33.106421 
Q 709.492635 40.615654 709.921387 50.429936 
Q 710.352836 60.220454 710.352836 72.601183 
Q 710.352836 85.172019 709.921387 95.010064 
Q 709.492635 104.84811 708.608165 112.333579 
Q 707.596957 120.959691 706.181266 124.571727 
Q 704.765575 128.16 701.934193 128.16 
L 698.514962 128.16 
L 698.514962 17.28 
z
" clip-path="url(#p92777c530d)" style="fill: #6b296b"/>
   </g>
   <g id="patch_42">
    <path d="M 710.975882 17.28 
L 714.248706 17.28 
L 716.892332 56.798526 
L 719.533471 17.28 
L 722.813756 17.28 
L 718.391962 81.441166 
L 718.391962 128.16 
L 715.400163 128.16 
L 715.400163 81.441166 
L 710.975882 17.28 
z
" clip-path="url(#p92777c530d)" style="fill: #177875"/>
   </g>
   <g id="patch_43">
    <path d="M 735.274676 120.212188 
Q 734.284458 124.151737 733.213711 126.144416 
Q 732.142963 128.16 730.976773 128.16 
Q 727.499081 128.16 725.467942 113.226358 
Q 723.436802 98.292716 723.436802 72.754357 
Q 723.436802 47.124379 725.467942 32.213642 
Q 727.499081 17.28 730.976773 17.28 
Q 732.142963 17.28 733.213711 19.295584 
Q 734.284458 21.288263 735.274676 25.227812 
L 735.274676 47.330518 
Q 734.275511 42.108325 733.306171 39.680463 
Q 732.336831 37.252601 731.266084 37.252601 
Q 729.3453 37.252601 728.244727 46.712101 
Q 727.147136 56.148697 727.147136 72.754357 
Q 727.147136 89.291303 728.244727 98.750804 
Q 729.3453 108.187399 731.266084 108.187399 
Q 732.336831 108.187399 733.306171 105.759537 
Q 734.275511 103.308771 735.274676 98.086577 
L 735.274676 120.212188 
z
" clip-path="url(#p92777c530d)" style="fill: #6b296b"/>
   </g>
   <g id="patch_44">
    <path d="M 747.735596 118.127891 
Q 746.541727 123.143945 745.257655 125.663425 
Q 743.973582 128.16 742.604613 128.16 
Q 739.511166 128.16 737.704444 113.226358 
Q 735.897722 98.292716 735.897722 72.754357 
Q 735.897722 46.91824 737.73628 32.09912 
Q 739.577492 17.28 742.779714 17.28 
Q 744.013378 17.28 745.143574 19.295584 
Q 746.276423 21.288263 747.279273 25.227812 
L 747.279273 47.330518 
Q 746.244587 42.268655 745.220512 39.77208 
Q 744.196438 37.252601 743.167058 37.252601 
Q 741.262173 37.252601 740.23014 46.460153 
Q 739.198107 55.644801 739.198107 72.754357 
Q 739.198107 89.703582 740.192997 98.956943 
Q 741.187888 108.187399 743.018487 108.187399 
Q 743.517259 108.187399 743.944399 107.660599 
Q 744.371539 107.110894 744.711128 105.965677 
L 744.711128 85.214328 
L 742.761142 85.214328 
L 742.761142 66.73051 
L 747.735596 66.73051 
L 747.735596 118.127891 
z
" clip-path="url(#p92777c530d)" style="fill: #787800"/>
   </g>
   <g id="patch_45">
    <path d="M 748.358642 17.28 
L 751.287251 17.28 
L 754.28121 99.121132 
L 757.270327 17.28 
L 760.196516 17.28 
L 756.014172 128.16 
L 752.540987 128.16 
L 748.358642 17.28 
z
" clip-path="url(#p92777c530d)" style="fill: #21599c"/>
   </g>
   <g id="patch_46">
    <path d="M 771.670411 22.570907 
L 771.670411 45.200413 
Q 770.435826 41.260863 769.259111 39.268184 
Q 768.085612 37.252601 767.040716 37.252601 
Q 765.655022 37.252601 764.989503 39.978219 
Q 764.3272 42.680934 764.3272 48.407023 
Q 764.3272 52.713043 764.774094 55.118 
Q 765.220988 57.500054 766.397702 59.217881 
L 768.043816 61.57703 
Q 770.545138 65.173014 771.59968 72.479504 
Q 772.657436 79.76309 772.657436 93.230853 
Q 772.657436 110.890114 771.184936 119.525057 
Q 769.712436 128.16 766.687058 128.16 
Q 765.262784 128.16 763.825649 126.21313 
Q 762.388515 124.289163 760.95138 120.48704 
L 760.95138 97.239116 
Q 762.388515 102.667449 763.729197 105.438876 
Q 765.06988 108.187399 766.317326 108.187399 
Q 767.584062 108.187399 768.256011 105.186928 
Q 768.927959 102.163553 768.927959 96.574889 
Q 768.927959 91.581739 768.47142 88.856121 
Q 768.014881 86.130502 766.648477 83.977492 
L 765.150257 81.618343 
Q 762.89971 78.18269 761.858029 70.67006 
Q 760.819562 63.15743 760.819562 50.422607 
Q 760.819562 34.458269 762.266342 25.869134 
Q 763.713122 17.28 766.426638 17.28 
Q 767.664438 17.28 768.969755 18.608453 
Q 770.275072 19.936906 771.670411 22.570907 
z
" clip-path="url(#p92777c530d)" style="fill: #40ba47"/>
   </g>
   <g id="patch_47">
    <path d="M 776.524437 38.904689 
L 776.524437 106.559074 
L 777.686652 106.559074 
Q 779.674013 106.559074 780.722973 97.861672 
Q 781.774629 89.164269 781.774629 72.601183 
Q 781.774629 56.13315 780.728366 47.530802 
Q 779.684799 38.904689 777.686652 38.904689 
L 776.524437 38.904689 
z
M 773.280482 17.28 
L 776.699713 17.28 
Q 779.566151 17.28 780.968359 20.892036 
Q 782.370567 24.480309 783.373686 33.106421 
Q 784.258156 40.615654 784.686908 50.429936 
Q 785.118356 60.220454 785.118356 72.601183 
Q 785.118356 85.172019 784.686908 95.010064 
Q 784.258156 104.84811 783.373686 112.333579 
Q 782.362478 120.959691 780.946787 124.571727 
Q 779.531096 128.16 776.699713 128.16 
L 773.280482 128.16 
L 773.280482 17.28 
z
" clip-path="url(#p92777c530d)" style="fill: #6b296b"/>
   </g>
   <g id="patch_48">
    <path d="M 796.592251 22.570907 
L 796.592251 45.200413 
Q 795.357666 41.260863 794.180951 39.268184 
Q 793.007452 37.252601 791.962556 37.252601 
Q 790.576862 37.252601 789.911343 39.978219 
Q 789.24904 42.680934 789.24904 48.407023 
Q 789.24904 52.713043 789.695934 55.118 
Q 790.142828 57.500054 791.319542 59.217881 
L 792.965656 61.57703 
Q 795.466978 65.173014 796.52152 72.479504 
Q 797.579276 79.76309 797.579276 93.230853 
Q 797.579276 110.890114 796.106776 119.525057 
Q 794.634276 128.16 791.608898 128.16 
Q 790.184624 128.16 788.747489 126.21313 
Q 787.310355 124.289163 785.87322 120.48704 
L 785.87322 97.239116 
Q 787.310355 102.667449 788.651037 105.438876 
Q 789.99172 108.187399 791.239166 108.187399 
Q 792.505902 108.187399 793.177851 105.186928 
Q 793.8498 102.163553 793.8498 96.574889 
Q 793.8498 91.581739 793.39326 88.856121 
Q 792.936721 86.130502 791.570318 83.977492 
L 790.072097 81.618343 
Q 787.82155 78.18269 786.779869 70.67006 
Q 785.741402 63.15743 785.741402 50.422607 
Q 785.741402 34.458269 787.188182 25.869134 
Q 788.634962 17.28 791.348478 17.28 
Q 792.586279 17.28 793.891595 18.608453 
Q 795.196912 19.936906 796.592251 22.570907 
z
" clip-path="url(#p92777c530d)" style="fill: #40ba47"/>
   </g>
   <g id="patch_49">
    <path d="M 798.202322 17.28 
L 801.130932 17.28 
L 804.12489 99.121132 
L 807.114008 17.28 
L 810.040197 17.28 
L 805.857852 128.16 
L 802.384667 128.16 
L 798.202322 17.28 
z
" clip-path="url(#p92777c530d)" style="fill: #21599c"/>
   </g>
   <g id="patch_50">
    <path d="M 810.663243 17.28 
L 814.155301 17.28 
L 816.577618 76.617197 
L 819.0159 17.28 
L 822.501117 17.28 
L 822.501117 128.16 
L 819.907733 128.16 
L 819.907733 47.055534 
L 817.455764 106.844235 
L 815.715437 106.844235 
L 813.263469 47.055534 
L 813.263469 128.16 
L 810.663243 128.16 
L 810.663243 17.28 
z
" clip-path="url(#p92777c530d)" style="fill: #21599c"/>
   </g>
   <g id="patch_51">
    <path d="M 833.975011 22.570907 
L 833.975011 45.200413 
Q 832.740426 41.260863 831.563712 39.268184 
Q 830.390212 37.252601 829.345316 37.252601 
Q 827.959622 37.252601 827.294104 39.978219 
Q 826.6318 42.680934 826.6318 48.407023 
Q 826.6318 52.713043 827.078694 55.118 
Q 827.525588 57.500054 828.702303 59.217881 
L 830.348417 61.57703 
Q 832.849738 65.173014 833.90428 72.479504 
Q 834.962037 79.76309 834.962037 93.230853 
Q 834.962037 110.890114 833.489536 119.525057 
Q 832.017036 128.16 828.991659 128.16 
Q 827.567384 128.16 826.13025 126.21313 
Q 824.693115 124.289163 823.25598 120.48704 
L 823.25598 97.239116 
Q 824.693115 102.667449 826.033798 105.438876 
Q 827.37448 108.187399 828.621926 108.187399 
Q 829.888662 108.187399 830.560611 105.186928 
Q 831.23256 102.163553 831.23256 96.574889 
Q 831.23256 91.581739 830.77602 88.856121 
Q 830.319481 86.130502 828.953078 83.977492 
L 827.454857 81.618343 
Q 825.20431 78.18269 824.162629 70.67006 
Q 823.124163 63.15743 823.124163 50.422607 
Q 823.124163 34.458269 824.570942 25.869134 
Q 826.017722 17.28 828.731238 17.28 
Q 829.969039 17.28 831.274356 18.608453 
Q 832.579673 19.936906 833.975011 22.570907 
z
" clip-path="url(#p92777c530d)" style="fill: #40ba47"/>
   </g>
   <g id="patch_52">
    <path d="M 835.585083 17.28 
L 838.70468 17.28 
L 838.70468 57.749061 
L 843.201257 17.28 
L 846.823932 17.28 
L 840.997053 69.797102 
L 847.422957 128.16 
L 843.517625 128.16 
L 838.70468 84.48288 
L 838.70468 128.16 
L 835.585083 128.16 
L 835.585083 17.28 
z
" clip-path="url(#p92777c530d)" style="fill: #bd2e1f"/>
   </g>
   <g id="patch_53">
    <path d="M 848.046003 17.28 
L 859.883877 17.28 
L 859.883877 38.904689 
L 855.624995 38.904689 
L 855.624995 128.16 
L 852.313143 128.16 
L 852.313143 38.904689 
L 848.046003 38.904689 
L 848.046003 17.28 
z
" clip-path="url(#p92777c530d)" style="fill: #40ba47"/>
   </g>
   <g id="patch_54">
    <path d="M 860.506923 17.28 
L 863.435532 17.28 
L 866.42949 99.121132 
L 869.418608 17.28 
L 872.344797 17.28 
L 868.162452 128.16 
L 864.689267 128.16 
L 860.506923 17.28 
z
" clip-path="url(#p92777c530d)" style="fill: #21599c"/>
   </g>
   <g id="patch_55">
    <path d="M 872.967843 17.28 
L 884.805717 17.28 
L 884.805717 38.904689 
L 880.546835 38.904689 
L 880.546835 128.16 
L 877.234983 128.16 
L 877.234983 38.904689 
L 872.967843 38.904689 
L 872.967843 17.28 
z
" clip-path="url(#p92777c530d)" style="fill: #40ba47"/>
   </g>
   <g id="patch_56">
    <path d="M 893.628869 107.961114 
L 889.076212 107.961114 
L 888.357372 128.16 
L 885.428763 128.16 
L 889.611107 17.28 
L 893.084293 17.28 
L 897.266637 128.16 
L 894.340448 128.16 
L 893.628869 107.961114 
z
M 889.802314 87.382015 
L 892.895506 87.382015 
L 891.35133 43.277154 
L 889.802314 87.382015 
z
" clip-path="url(#p92777c530d)" style="fill: #21599c"/>
   </g>
   <g id="patch_57">
    <path d="M 897.889683 17.28 
L 902.185599 17.28 
L 902.185599 106.559074 
L 909.727557 106.559074 
L 909.727557 128.16 
L 897.889683 128.16 
L 897.889683 17.28 
z
" clip-path="url(#p92777c530d)" style="fill: #21599c"/>
   </g>
   <g id="patch_58">
    <path d="M 910.350603 17.28 
L 921.942078 17.28 
L 921.942078 38.904689 
L 914.646519 38.904689 
L 914.646519 59.531316 
L 921.509986 59.531316 
L 921.509986 81.156005 
L 914.646519 81.156005 
L 914.646519 106.559074 
L 922.188477 106.559074 
L 922.188477 128.16 
L 910.350603 128.16 
L 910.350603 17.28 
z
" clip-path="url(#p92777c530d)" style="fill: #6b296b"/>
   </g>
   <g id="patch_59">
    <path d="M 922.811523 17.28 
L 925.93112 17.28 
L 925.93112 57.749061 
L 930.427697 17.28 
L 934.050372 17.28 
L 928.223493 69.797102 
L 934.649397 128.16 
L 930.744066 128.16 
L 925.93112 84.48288 
L 925.93112 128.16 
L 922.811523 128.16 
L 922.811523 17.28 
z
" clip-path="url(#p92777c530d)" style="fill: #bd2e1f"/>
   </g>
   <g id="patch_60">
    <path d="M 943.472549 107.961114 
L 938.919893 107.961114 
L 938.201052 128.16 
L 935.272443 128.16 
L 939.454787 17.28 
L 942.927973 17.28 
L 947.110317 128.16 
L 944.184128 128.16 
L 943.472549 107.961114 
z
M 939.645994 87.382015 
L 942.739186 87.382015 
L 941.195011 43.277154 
L 939.645994 87.382015 
z
" clip-path="url(#p92777c530d)" style="fill: #21599c"/>
   </g>
   <g id="patch_61">
    <path d="M 959.571237 118.127891 
Q 958.377368 123.143945 957.093296 125.663425 
Q 955.809223 128.16 954.440254 128.16 
Q 951.346807 128.16 949.540085 113.226358 
Q 947.733363 98.292716 947.733363 72.754357 
Q 947.733363 46.91824 949.571921 32.09912 
Q 951.413133 17.28 954.615354 17.28 
Q 955.849019 17.28 956.979215 19.295584 
Q 958.112064 21.288263 959.114914 25.227812 
L 959.114914 47.330518 
Q 958.080227 42.268655 957.056153 39.77208 
Q 956.032079 37.252601 955.002699 37.252601 
Q 953.097814 37.252601 952.065781 46.460153 
Q 951.033748 55.644801 951.033748 72.754357 
Q 951.033748 89.703582 952.028638 98.956943 
Q 953.023529 108.187399 954.854128 108.187399 
Q 955.3529 108.187399 955.78004 107.660599 
Q 956.20718 107.110894 956.546769 105.965677 
L 956.546769 85.214328 
L 954.596783 85.214328 
L 954.596783 66.73051 
L 959.571237 66.73051 
L 959.571237 118.127891 
z
" clip-path="url(#p92777c530d)" style="fill: #787800"/>
   </g>
   <g id="patch_62">
    <path d="M 960.194283 17.28 
L 963.467107 17.28 
L 966.110733 56.798526 
L 968.751872 17.28 
L 972.032157 17.28 
L 967.610363 81.441166 
L 967.610363 128.16 
L 964.618564 128.16 
L 964.618564 81.441166 
L 960.194283 17.28 
z
" clip-path="url(#p92777c530d)" style="fill: #177875"/>
   </g>
   <g id="patch_63">
    <path d="M 972.655203 17.28 
L 975.583812 17.28 
L 978.577771 99.121132 
L 981.566888 17.28 
L 984.493077 17.28 
L 980.310733 128.16 
L 976.837548 128.16 
L 972.655203 17.28 
z
" clip-path="url(#p92777c530d)" style="fill: #21599c"/>
   </g>
   <g id="patch_64">
    <path d="M 995.966972 22.570907 
L 995.966972 45.200413 
Q 994.732387 41.260863 993.555672 39.268184 
Q 992.382173 37.252601 991.337277 37.252601 
Q 989.951583 37.252601 989.286064 39.978219 
Q 988.623761 42.680934 988.623761 48.407023 
Q 988.623761 52.713043 989.070655 55.118 
Q 989.517549 57.500054 990.694263 59.217881 
L 992.340377 61.57703 
Q 994.841699 65.173014 995.896241 72.479504 
Q 996.953997 79.76309 996.953997 93.230853 
Q 996.953997 110.890114 995.481497 119.525057 
Q 994.008997 128.16 990.983619 128.16 
Q 989.559345 128.16 988.12221 126.21313 
Q 986.685076 124.289163 985.247941 120.48704 
L 985.247941 97.239116 
Q 986.685076 102.667449 988.025758 105.438876 
Q 989.366441 108.187399 990.613887 108.187399 
Q 991.880623 108.187399 992.552572 105.186928 
Q 993.22452 102.163553 993.22452 96.574889 
Q 993.22452 91.581739 992.767981 88.856121 
Q 992.311442 86.130502 990.945038 83.977492 
L 989.446818 81.618343 
Q 987.196271 78.18269 986.15459 70.67006 
Q 985.116123 63.15743 985.116123 50.422607 
Q 985.116123 34.458269 986.562903 25.869134 
Q 988.009683 17.28 990.723199 17.28 
Q 991.960999 17.28 993.266316 18.608453 
Q 994.571633 19.936906 995.966972 22.570907 
z
" clip-path="url(#p92777c530d)" style="fill: #40ba47"/>
   </g>
   <g id="patch_65">
    <path d="M 997.577043 17.28 
L 1000.505653 17.28 
L 1003.499611 99.121132 
L 1006.488729 17.28 
L 1009.414917 17.28 
L 1005.232573 128.16 
L 1001.759388 128.16 
L 997.577043 17.28 
z
" clip-path="url(#p92777c530d)" style="fill: #21599c"/>
   </g>
   <g id="patch_66">
    <path d="M 1014.841127 66.446464 
Q 1015.903501 66.446464 1016.364425 63.119589 
Q 1016.825348 59.76895 1016.825348 52.117137 
Q 1016.825348 44.536614 1016.364425 41.281029 
Q 1015.903501 38.00168 1014.841127 38.00168 
L 1013.419009 38.00168 
L 1013.419009 66.446464 
L 1014.841127 66.446464 
z
M 1013.419009 86.193845 
L 1013.419009 128.16 
L 1010.037963 128.16 
L 1010.037963 17.28 
L 1015.200873 17.28 
Q 1017.792164 17.28 1018.997874 24.646652 
Q 1020.206394 31.989541 1020.206394 47.887252 
Q 1020.206394 58.865941 1019.576839 65.923669 
Q 1018.950095 72.981397 1017.685365 76.332036 
Q 1018.379561 77.662786 1018.927611 82.391702 
Q 1019.478471 87.096854 1020.040573 96.673502 
L 1021.875837 128.16 
L 1018.275572 128.16 
L 1016.676391 100.618225 
Q 1016.192983 92.301037 1015.695523 89.259323 
Q 1015.200873 86.193845 1014.374582 86.193845 
L 1013.419009 86.193845 
z
" clip-path="url(#p92777c530d)" style="fill: #bd2e1f"/>
   </g>
   <g id="patch_67">
    <path d="M 1022.498883 17.28 
L 1025.618481 17.28 
L 1025.618481 57.749061 
L 1030.115058 17.28 
L 1033.737733 17.28 
L 1027.910853 69.797102 
L 1034.336757 128.16 
L 1030.431426 128.16 
L 1025.618481 84.48288 
L 1025.618481 128.16 
L 1022.498883 128.16 
L 1022.498883 17.28 
z
" clip-path="url(#p92777c530d)" style="fill: #bd2e1f"/>
   </g>
   <g id="patch_68">
    <path d="M 1046.797678 118.127891 
Q 1045.603809 123.143945 1044.319736 125.663425 
Q 1043.035664 128.16 1041.666694 128.16 
Q 1038.573247 128.16 1036.766525 113.226358 
Q 1034.959803 98.292716 1034.959803 72.754357 
Q 1034.959803 46.91824 1036.798362 32.09912 
Q 1038.639573 17.28 1041.841795 17.28 
Q 1043.075459 17.28 1044.205655 19.295584 
Q 1045.338504 21.288263 1046.341354 25.227812 
L 1046.341354 47.330518 
Q 1045.306668 42.268655 1044.282594 39.77208 
Q 1043.258519 37.252601 1042.229139 37.252601 
Q 1040.324255 37.252601 1039.292221 46.460153 
Q 1038.260188 55.644801 1038.260188 72.754357 
Q 1038.260188 89.703582 1039.255079 98.956943 
Q 1040.24997 108.187399 1042.080569 108.187399 
Q 1042.579341 108.187399 1043.00648 107.660599 
Q 1043.43362 107.110894 1043.773209 105.965677 
L 1043.773209 85.214328 
L 1041.823224 85.214328 
L 1041.823224 66.73051 
L 1046.797678 66.73051 
L 1046.797678 118.127891 
z
" clip-path="url(#p92777c530d)" style="fill: #787800"/>
   </g>
   <g id="patch_69">
    <path d="M 1047.420724 17.28 
L 1050.693548 17.28 
L 1053.337174 56.798526 
L 1055.978313 17.28 
L 1059.258598 17.28 
L 1054.836803 81.441166 
L 1054.836803 128.16 
L 1051.845005 128.16 
L 1051.845005 81.441166 
L 1047.420724 17.28 
z
" clip-path="url(#p92777c530d)" style="fill: #177875"/>
   </g>
   <g id="patch_70">
    <path d="M 1059.881644 17.28 
L 1064.17756 17.28 
L 1064.17756 106.559074 
L 1071.719518 106.559074 
L 1071.719518 128.16 
L 1059.881644 128.16 
L 1059.881644 17.28 
z
" clip-path="url(#p92777c530d)" style="fill: #21599c"/>
   </g>
   <g id="patch_71">
    <path d="M 1084.180438 118.127891 
Q 1082.986569 123.143945 1081.702496 125.663425 
Q 1080.418424 128.16 1079.049454 128.16 
Q 1075.956007 128.16 1074.149285 113.226358 
Q 1072.342564 98.292716 1072.342564 72.754357 
Q 1072.342564 46.91824 1074.181122 32.09912 
Q 1076.022333 17.28 1079.224555 17.28 
Q 1080.45822 17.28 1081.588416 19.295584 
Q 1082.721265 21.288263 1083.724114 25.227812 
L 1083.724114 47.330518 
Q 1082.689428 42.268655 1081.665354 39.77208 
Q 1080.641279 37.252601 1079.611899 37.252601 
Q 1077.707015 37.252601 1076.674981 46.460153 
Q 1075.642948 55.644801 1075.642948 72.754357 
Q 1075.642948 89.703582 1076.637839 98.956943 
Q 1077.63273 108.187399 1079.463329 108.187399 
Q 1079.962101 108.187399 1080.38924 107.660599 
Q 1080.81638 107.110894 1081.15597 105.965677 
L 1081.15597 85.214328 
L 1079.205984 85.214328 
L 1079.205984 66.73051 
L 1084.180438 66.73051 
L 1084.180438 118.127891 
z
" clip-path="url(#p92777c530d)" style="fill: #787800"/>
   </g>
   <g id="patch_72">
    <path d="M 1084.803484 17.28 
L 1087.923081 17.28 
L 1087.923081 57.749061 
L 1092.419658 17.28 
L 1096.042333 17.28 
L 1090.215454 69.797102 
L 1096.641358 128.16 
L 1092.736026 128.16 
L 1087.923081 84.48288 
L 1087.923081 128.16 
L 1084.803484 128.16 
L 1084.803484 17.28 
z
" clip-path="url(#p92777c530d)" style="fill: #bd2e1f"/>
   </g>
   <g id="patch_73">
    <path d="M 1102.067568 66.446464 
Q 1103.129941 66.446464 1103.590865 63.119589 
Q 1104.051789 59.76895 1104.051789 52.117137 
Q 1104.051789 44.536614 1103.590865 41.281029 
Q 1103.129941 38.00168 1102.067568 38.00168 
L 1100.645449 38.00168 
L 1100.645449 66.446464 
L 1102.067568 66.446464 
z
M 1100.645449 86.193845 
L 1100.645449 128.16 
L 1097.264404 128.16 
L 1097.264404 17.28 
L 1102.427313 17.28 
Q 1105.018605 17.28 1106.224314 24.646652 
Q 1107.432834 31.989541 1107.432834 47.887252 
Q 1107.432834 58.865941 1106.803279 65.923669 
Q 1106.176535 72.981397 1104.911805 76.332036 
Q 1105.606002 77.662786 1106.154051 82.391702 
Q 1106.704912 87.096854 1107.267014 96.673502 
L 1109.102278 128.16 
L 1105.502013 128.16 
L 1103.902832 100.618225 
Q 1103.419424 92.301037 1102.921963 89.259323 
Q 1102.427313 86.193845 1101.601023 86.193845 
L 1100.645449 86.193845 
z
" clip-path="url(#p92777c530d)" style="fill: #bd2e1f"/>
   </g>
   <g id="patch_74">
    <path d="M 1109.725324 17.28 
L 1115.878552 17.28 
Q 1118.625309 17.28 1120.092712 26.690304 
Q 1121.563198 36.076845 1121.563198 53.447887 
Q 1121.563198 70.913982 1120.092712 80.300523 
Q 1118.625309 89.687064 1115.878552 89.687064 
L 1113.433908 89.687064 
L 1113.433908 128.16 
L 1109.725324 128.16 
L 1109.725324 17.28 
z
M 1113.433908 38.00168 
L 1113.433908 68.965384 
L 1115.483956 68.965384 
Q 1116.562929 68.965384 1117.15174 64.925607 
Q 1117.740551 60.885829 1117.740551 53.447887 
Q 1117.740551 46.033708 1117.15174 42.017694 
Q 1116.562929 38.00168 1115.483956 38.00168 
L 1113.433908 38.00168 
z
" clip-path="url(#p92777c530d)" style="fill: #787800"/>
   </g>
   <g id="patch_75">
    <path d="M 1126.989408 66.446464 
Q 1128.051781 66.446464 1128.512705 63.119589 
Q 1128.973629 59.76895 1128.973629 52.117137 
Q 1128.973629 44.536614 1128.512705 41.281029 
Q 1128.051781 38.00168 1126.989408 38.00168 
L 1125.567289 38.00168 
L 1125.567289 66.446464 
L 1126.989408 66.446464 
z
M 1125.567289 86.193845 
L 1125.567289 128.16 
L 1122.186244 128.16 
L 1122.186244 17.28 
L 1127.349153 17.28 
Q 1129.940445 17.28 1131.146154 24.646652 
Q 1132.354674 31.989541 1132.354674 47.887252 
Q 1132.354674 58.865941 1131.72512 65.923669 
Q 1131.098376 72.981397 1129.833645 76.332036 
Q 1130.527842 77.662786 1131.075891 82.391702 
Q 1131.626752 87.096854 1132.188854 96.673502 
L 1134.024118 128.16 
L 1130.423853 128.16 
L 1128.824672 100.618225 
Q 1128.341264 92.301037 1127.843803 89.259323 
Q 1127.349153 86.193845 1126.522863 86.193845 
L 1125.567289 86.193845 
z
" clip-path="url(#p92777c530d)" style="fill: #bd2e1f"/>
   </g>
   <g id="patch_76">
    <path d="M 1134.647164 17.28 
L 1146.485038 17.28 
L 1146.485038 38.904689 
L 1142.226156 38.904689 
L 1142.226156 128.16 
L 1138.914305 128.16 
L 1138.914305 38.904689 
L 1134.647164 38.904689 
L 1134.647164 17.28 
z
" clip-path="url(#p92777c530d)" style="fill: #40ba47"/>
   </g>
   <g id="patch_77">
    <path d="M 1147.108084 17.28 
L 1149.155035 17.28 
L 1150.585948 97.861672 
L 1152.006209 17.28 
L 1154.063811 17.28 
L 1155.484072 97.861672 
L 1156.91676 17.28 
L 1158.945958 17.28 
L 1156.993099 128.16 
L 1154.530722 128.16 
L 1153.027021 43.871239 
L 1151.541073 128.16 
L 1149.076921 128.16 
L 1147.108084 17.28 
z
" clip-path="url(#p92777c530d)" style="fill: #21599c"/>
   </g>
   <g id="patch_78">
    <path d="M 1163.339983 17.28 
L 1167.635899 17.28 
L 1167.635899 128.16 
L 1163.339983 128.16 
L 1163.339983 17.28 
z
" clip-path="url(#p92777c530d)" style="fill: #21599c"/>
   </g>
   <g id="patch_79">
    <path d="M 1182.880773 22.570907 
L 1182.880773 45.200413 
Q 1181.646187 41.260863 1180.469473 39.268184 
Q 1179.295974 37.252601 1178.251077 37.252601 
Q 1176.865384 37.252601 1176.199865 39.978219 
Q 1175.537561 42.680934 1175.537561 48.407023 
Q 1175.537561 52.713043 1175.984456 55.118 
Q 1176.43135 57.500054 1177.608064 59.217881 
L 1179.254178 61.57703 
Q 1181.7555 65.173014 1182.810041 72.479504 
Q 1183.867798 79.76309 1183.867798 93.230853 
Q 1183.867798 110.890114 1182.395298 119.525057 
Q 1180.922797 128.16 1177.89742 128.16 
Q 1176.473146 128.16 1175.036011 126.21313 
Q 1173.598876 124.289163 1172.161742 120.48704 
L 1172.161742 97.239116 
Q 1173.598876 102.667449 1174.939559 105.438876 
Q 1176.280242 108.187399 1177.527687 108.187399 
Q 1178.794424 108.187399 1179.466372 105.186928 
Q 1180.138321 102.163553 1180.138321 96.574889 
Q 1180.138321 91.581739 1179.681782 88.856121 
Q 1179.225242 86.130502 1177.858839 83.977492 
L 1176.360618 81.618343 
Q 1174.110072 78.18269 1173.06839 70.67006 
Q 1172.029924 63.15743 1172.029924 50.422607 
Q 1172.029924 34.458269 1173.476704 25.869134 
Q 1174.923484 17.28 1177.637 17.28 
Q 1178.8748 17.28 1180.180117 18.608453 
Q 1181.485434 19.936906 1182.880773 22.570907 
z
" clip-path="url(#p92777c530d)" style="fill: #40ba47"/>
   </g>
   <g id="patch_80">
    <path d="M 1184.490844 17.28 
L 1188.78676 17.28 
L 1188.78676 106.559074 
L 1196.328718 106.559074 
L 1196.328718 128.16 
L 1184.490844 128.16 
L 1184.490844 17.28 
z
" clip-path="url(#p92777c530d)" style="fill: #21599c"/>
   </g>
   <g id="patch_81">
    <path d="M 1196.951764 17.28 
L 1208.789638 17.28 
L 1208.789638 38.904689 
L 1204.530757 38.904689 
L 1204.530757 128.16 
L 1201.218905 128.16 
L 1201.218905 38.904689 
L 1196.951764 38.904689 
L 1196.951764 17.28 
z
" clip-path="url(#p92777c530d)" style="fill: #40ba47"/>
   </g>
   <g id="patch_82">
    <path d="M 1209.412684 17.28 
L 1213.708601 17.28 
L 1213.708601 106.559074 
L 1221.250558 106.559074 
L 1221.250558 128.16 
L 1209.412684 128.16 
L 1209.412684 17.28 
z
" clip-path="url(#p92777c530d)" style="fill: #21599c"/>
   </g>
   <g id="patch_83">
    <path d="M 1221.873604 17.28 
L 1233.711478 17.28 
L 1233.711478 38.904689 
L 1229.452597 38.904689 
L 1229.452597 128.16 
L 1226.140745 128.16 
L 1226.140745 38.904689 
L 1221.873604 38.904689 
L 1221.873604 17.28 
z
" clip-path="url(#p92777c530d)" style="fill: #40ba47"/>
   </g>
   <g id="patch_84">
    <path d="M 1246.172398 118.127891 
Q 1244.978529 123.143945 1243.694457 125.663425 
Q 1242.410385 128.16 1241.041415 128.16 
Q 1237.947968 128.16 1236.141246 113.226358 
Q 1234.334524 98.292716 1234.334524 72.754357 
Q 1234.334524 46.91824 1236.173083 32.09912 
Q 1238.014294 17.28 1241.216516 17.28 
Q 1242.45018 17.28 1243.580376 19.295584 
Q 1244.713225 21.288263 1245.716075 25.227812 
L 1245.716075 47.330518 
Q 1244.681389 42.268655 1243.657314 39.77208 
Q 1242.63324 37.252601 1241.60386 37.252601 
Q 1239.698976 37.252601 1238.666942 46.460153 
Q 1237.634909 55.644801 1237.634909 72.754357 
Q 1237.634909 89.703582 1238.6298 98.956943 
Q 1239.62469 108.187399 1241.455289 108.187399 
Q 1241.954061 108.187399 1242.381201 107.660599 
Q 1242.808341 107.110894 1243.14793 105.965677 
L 1243.14793 85.214328 
L 1241.197944 85.214328 
L 1241.197944 66.73051 
L 1246.172398 66.73051 
L 1246.172398 118.127891 
z
" clip-path="url(#p92777c530d)" style="fill: #787800"/>
   </g>
   <g id="patch_85">
    <path d="M 1251.598608 66.446464 
Q 1252.660982 66.446464 1253.121906 63.119589 
Q 1253.582829 59.76895 1253.582829 52.117137 
Q 1253.582829 44.536614 1253.121906 41.281029 
Q 1252.660982 38.00168 1251.598608 38.00168 
L 1250.17649 38.00168 
L 1250.17649 66.446464 
L 1251.598608 66.446464 
z
M 1250.17649 86.193845 
L 1250.17649 128.16 
L 1246.795444 128.16 
L 1246.795444 17.28 
L 1251.958354 17.28 
Q 1254.549645 17.28 1255.755355 24.646652 
Q 1256.963875 31.989541 1256.963875 47.887252 
Q 1256.963875 58.865941 1256.33432 65.923669 
Q 1255.707576 72.981397 1254.442846 76.332036 
Q 1255.137042 77.662786 1255.685092 82.391702 
Q 1256.235952 87.096854 1256.798054 96.673502 
L 1258.633318 128.16 
L 1255.033053 128.16 
L 1253.433872 100.618225 
Q 1252.950464 92.301037 1252.453004 89.259323 
Q 1251.958354 86.193845 1251.132063 86.193845 
L 1250.17649 86.193845 
z
" clip-path="url(#p92777c530d)" style="fill: #bd2e1f"/>
   </g>
   <g id="patch_86">
    <path d="M 1265.490978 111.578719 
L 1265.259153 111.578719 
Q 1262.415597 111.578719 1260.834748 99.152512 
Q 1259.256364 86.706798 1259.256364 64.526897 
Q 1259.256364 42.38601 1260.832281 29.842759 
Q 1262.408198 17.28 1265.175301 17.28 
Q 1267.971999 17.28 1269.533119 29.725714 
Q 1271.094238 42.151921 1271.094238 64.526897 
Q 1271.094238 79.879212 1270.265587 90.978916 
Q 1269.436936 102.078621 1267.880749 107.677241 
L 1270.198999 128.16 
L 1267.370241 128.16 
L 1265.490978 111.578719 
z
M 1265.175301 34.290443 
Q 1263.818878 34.290443 1263.071613 42.210443 
Q 1262.324347 50.130443 1262.324347 64.526897 
Q 1262.324347 79.157438 1263.054349 86.940887 
Q 1263.786817 94.704828 1265.175301 94.704828 
Q 1266.539123 94.704828 1267.286389 86.784828 
Q 1268.033655 78.84532 1268.033655 64.526897 
Q 1268.033655 50.130443 1267.286389 42.210443 
Q 1266.539123 34.290443 1265.175301 34.290443 
z
" clip-path="url(#p92777c530d)" style="fill: #40ba47"/>
   </g>
   <g id="patch_87">
    <path d="M 1276.520448 66.446464 
Q 1277.582822 66.446464 1278.043746 63.119589 
Q 1278.50467 59.76895 1278.50467 52.117137 
Q 1278.50467 44.536614 1278.043746 41.281029 
Q 1277.582822 38.00168 1276.520448 38.00168 
L 1275.09833 38.00168 
L 1275.09833 66.446464 
L 1276.520448 66.446464 
z
M 1275.09833 86.193845 
L 1275.09833 128.16 
L 1271.717285 128.16 
L 1271.717285 17.28 
L 1276.880194 17.28 
Q 1279.471485 17.28 1280.677195 24.646652 
Q 1281.885715 31.989541 1281.885715 47.887252 
Q 1281.885715 58.865941 1281.25616 65.923669 
Q 1280.629416 72.981397 1279.364686 76.332036 
Q 1280.058882 77.662786 1280.606932 82.391702 
Q 1281.157792 87.096854 1281.719895 96.673502 
L 1283.555159 128.16 
L 1279.954893 128.16 
L 1278.355712 100.618225 
Q 1277.872304 92.301037 1277.374844 89.259323 
Q 1276.880194 86.193845 1276.053904 86.193845 
L 1275.09833 86.193845 
z
" clip-path="url(#p92777c530d)" style="fill: #bd2e1f"/>
   </g>
   <g id="patch_88">
    <path d="M 1284.178205 17.28 
L 1288.474121 17.28 
L 1288.474121 106.559074 
L 1296.016079 106.559074 
L 1296.016079 128.16 
L 1284.178205 128.16 
L 1284.178205 17.28 
z
" clip-path="url(#p92777c530d)" style="fill: #21599c"/>
   </g>
   <g id="patch_89">
    <path d="M 1304.83923 107.961114 
L 1300.286574 107.961114 
L 1299.567734 128.16 
L 1296.639125 128.16 
L 1300.821469 17.28 
L 1304.294654 17.28 
L 1308.476999 128.16 
L 1305.55081 128.16 
L 1304.83923 107.961114 
z
M 1301.012676 87.382015 
L 1304.105868 87.382015 
L 1302.561692 43.277154 
L 1301.012676 87.382015 
z
" clip-path="url(#p92777c530d)" style="fill: #21599c"/>
   </g>
   <g id="patch_90">
    <path d="M 1319.950893 22.570907 
L 1319.950893 45.200413 
Q 1318.716308 41.260863 1317.539594 39.268184 
Q 1316.366094 37.252601 1315.321198 37.252601 
Q 1313.935504 37.252601 1313.269986 39.978219 
Q 1312.607682 42.680934 1312.607682 48.407023 
Q 1312.607682 52.713043 1313.054576 55.118 
Q 1313.50147 57.500054 1314.678185 59.217881 
L 1316.324299 61.57703 
Q 1318.82562 65.173014 1319.880162 72.479504 
Q 1320.937919 79.76309 1320.937919 93.230853 
Q 1320.937919 110.890114 1319.465418 119.525057 
Q 1317.992918 128.16 1314.967541 128.16 
Q 1313.543266 128.16 1312.106132 126.21313 
Q 1310.668997 124.289163 1309.231862 120.48704 
L 1309.231862 97.239116 
Q 1310.668997 102.667449 1312.00968 105.438876 
Q 1313.350362 108.187399 1314.597808 108.187399 
Q 1315.864544 108.187399 1316.536493 105.186928 
Q 1317.208442 102.163553 1317.208442 96.574889 
Q 1317.208442 91.581739 1316.751902 88.856121 
Q 1316.295363 86.130502 1314.92896 83.977492 
L 1313.430739 81.618343 
Q 1311.180193 78.18269 1310.138511 70.67006 
Q 1309.100045 63.15743 1309.100045 50.422607 
Q 1309.100045 34.458269 1310.546824 25.869134 
Q 1311.993604 17.28 1314.70712 17.28 
Q 1315.944921 17.28 1317.250238 18.608453 
Q 1318.555555 19.936906 1319.950893 22.570907 
z
" clip-path="url(#p92777c530d)" style="fill: #40ba47"/>
   </g>
   <g id="patch_91">
    <path d="M 1321.560965 17.28 
L 1324.967079 17.28 
L 1324.967079 59.531316 
L 1329.992725 59.531316 
L 1329.992725 17.28 
L 1333.398839 17.28 
L 1333.398839 128.16 
L 1329.992725 128.16 
L 1329.992725 81.156005 
L 1324.967079 81.156005 
L 1324.967079 128.16 
L 1321.560965 128.16 
L 1321.560965 17.28 
z
" clip-path="url(#p92777c530d)" style="fill: #177875"/>
   </g>
   <g id="patch_92">
    <path d="M 1334.021885 17.28 
L 1338.317801 17.28 
L 1338.317801 106.559074 
L 1345.859759 106.559074 
L 1345.859759 128.16 
L 1334.021885 128.16 
L 1334.021885 17.28 
z
" clip-path="url(#p92777c530d)" style="fill: #21599c"/>
   </g>
   <g id="patch_93">
    <path d="M 1354.682911 107.961114 
L 1350.130254 107.961114 
L 1349.411414 128.16 
L 1346.482805 128.16 
L 1350.665149 17.28 
L 1354.138334 17.28 
L 1358.320679 128.16 
L 1355.39449 128.16 
L 1354.682911 107.961114 
z
M 1350.856356 87.382015 
L 1353.949548 87.382015 
L 1352.405372 43.277154 
L 1350.856356 87.382015 
z
" clip-path="url(#p92777c530d)" style="fill: #21599c"/>
   </g>
   <g id="patch_94">
    <path d="M 1367.143831 107.961114 
L 1362.591175 107.961114 
L 1361.872334 128.16 
L 1358.943725 128.16 
L 1363.126069 17.28 
L 1366.599255 17.28 
L 1370.781599 128.16 
L 1367.85541 128.16 
L 1367.143831 107.961114 
z
M 1363.317276 87.382015 
L 1366.410468 87.382015 
L 1364.866292 43.277154 
L 1363.317276 87.382015 
z
" clip-path="url(#p92777c530d)" style="fill: #21599c"/>
   </g>
   <g id="patch_95">
    <path d="M 1371.404645 17.28 
L 1375.700561 17.28 
L 1375.700561 106.559074 
L 1383.242519 106.559074 
L 1383.242519 128.16 
L 1371.404645 128.16 
L 1371.404645 17.28 
z
" clip-path="url(#p92777c530d)" style="fill: #21599c"/>
   </g>
   <g id="patch_96">
    <path d="M 1383.865565 17.28 
L 1395.45704 17.28 
L 1395.45704 38.904689 
L 1388.161481 38.904689 
L 1388.161481 59.531316 
L 1395.024949 59.531316 
L 1395.024949 81.156005 
L 1388.161481 81.156005 
L 1388.161481 106.559074 
L 1395.703439 106.559074 
L 1395.703439 128.16 
L 1383.865565 128.16 
L 1383.865565 17.28 
z
" clip-path="url(#p92777c530d)" style="fill: #6b296b"/>
   </g>
   <g id="patch_97">
    <path d="M 1396.326485 17.28 
L 1407.91796 17.28 
L 1407.91796 38.904689 
L 1400.622401 38.904689 
L 1400.622401 59.531316 
L 1407.485869 59.531316 
L 1407.485869 81.156005 
L 1400.622401 81.156005 
L 1400.622401 106.559074 
L 1408.164359 106.559074 
L 1408.164359 128.16 
L 1396.326485 128.16 
L 1396.326485 17.28 
z
" clip-path="url(#p92777c530d)" style="fill: #6b296b"/>
   </g>
   <g id="patch_98">
    <path d="M 1412.558384 17.28 
L 1416.8543 17.28 
L 1416.8543 128.16 
L 1412.558384 128.16 
L 1412.558384 17.28 
z
" clip-path="url(#p92777c530d)" style="fill: #21599c"/>
   </g>
   <g id="patch_99">
    <path d="M 1429.448431 107.961114 
L 1424.895775 107.961114 
L 1424.176934 128.16 
L 1421.248325 128.16 
L 1425.43067 17.28 
L 1428.903855 17.28 
L 1433.086199 128.16 
L 1430.16001 128.16 
L 1429.448431 107.961114 
z
M 1425.621876 87.382015 
L 1428.715068 87.382015 
L 1427.170893 43.277154 
L 1425.621876 87.382015 
z
" clip-path="url(#p92777c530d)" style="fill: #21599c"/>
   </g>
   <g id="patch_100">
    <path d="M 1445.547119 118.127891 
Q 1444.35325 123.143945 1443.069178 125.663425 
Q 1441.785105 128.16 1440.416136 128.16 
Q 1437.322689 128.16 1435.515967 113.226358 
Q 1433.709245 98.292716 1433.709245 72.754357 
Q 1433.709245 46.91824 1435.547803 32.09912 
Q 1437.389015 17.28 1440.591237 17.28 
Q 1441.824901 17.28 1442.955097 19.295584 
Q 1444.087946 21.288263 1445.090796 25.227812 
L 1445.090796 47.330518 
Q 1444.05611 42.268655 1443.032035 39.77208 
Q 1442.007961 37.252601 1440.978581 37.252601 
Q 1439.073696 37.252601 1438.041663 46.460153 
Q 1437.00963 55.644801 1437.00963 72.754357 
Q 1437.00963 89.703582 1438.00452 98.956943 
Q 1438.999411 108.187399 1440.83001 108.187399 
Q 1441.328782 108.187399 1441.755922 107.660599 
Q 1442.183062 107.110894 1442.522651 105.965677 
L 1442.522651 85.214328 
L 1440.572665 85.214328 
L 1440.572665 66.73051 
L 1445.547119 66.73051 
L 1445.547119 118.127891 
z
" clip-path="url(#p92777c530d)" style="fill: #787800"/>
   </g>
   <g id="patch_101">
    <path d="M 1446.170165 17.28 
L 1458.008039 17.28 
L 1458.008039 38.904689 
L 1453.749158 38.904689 
L 1453.749158 128.16 
L 1450.437306 128.16 
L 1450.437306 38.904689 
L 1446.170165 38.904689 
L 1446.170165 17.28 
z
" clip-path="url(#p92777c530d)" style="fill: #40ba47"/>
   </g>
   <g id="patch_102">
    <path d="M 1466.831191 107.961114 
L 1462.278535 107.961114 
L 1461.559695 128.16 
L 1458.631085 128.16 
L 1462.81343 17.28 
L 1466.286615 17.28 
L 1470.468959 128.16 
L 1467.54277 128.16 
L 1466.831191 107.961114 
z
M 1463.004636 87.382015 
L 1466.097829 87.382015 
L 1464.553653 43.277154 
L 1463.004636 87.382015 
z
" clip-path="url(#p92777c530d)" style="fill: #21599c"/>
   </g>
   <g id="patch_103">
    <path d="M 1475.895169 66.446464 
Q 1476.957543 66.446464 1477.418467 63.119589 
Q 1477.87939 59.76895 1477.87939 52.117137 
Q 1477.87939 44.536614 1477.418467 41.281029 
Q 1476.957543 38.00168 1475.895169 38.00168 
L 1474.473051 38.00168 
L 1474.473051 66.446464 
L 1475.895169 66.446464 
z
M 1474.473051 86.193845 
L 1474.473051 128.16 
L 1471.092005 128.16 
L 1471.092005 17.28 
L 1476.254915 17.28 
Q 1478.846206 17.28 1480.051916 24.646652 
Q 1481.260436 31.989541 1481.260436 47.887252 
Q 1481.260436 58.865941 1480.630881 65.923669 
Q 1480.004137 72.981397 1478.739407 76.332036 
Q 1479.433603 77.662786 1479.981653 82.391702 
Q 1480.532513 87.096854 1481.094615 96.673502 
L 1482.929879 128.16 
L 1479.329614 128.16 
L 1477.730433 100.618225 
Q 1477.247025 92.301037 1476.749565 89.259323 
Q 1476.254915 86.193845 1475.428624 86.193845 
L 1474.473051 86.193845 
z
" clip-path="url(#p92777c530d)" style="fill: #bd2e1f"/>
   </g>
   <g id="patch_104">
    <path d="M 1488.356089 66.446464 
Q 1489.418463 66.446464 1489.879387 63.119589 
Q 1490.34031 59.76895 1490.34031 52.117137 
Q 1490.34031 44.536614 1489.879387 41.281029 
Q 1489.418463 38.00168 1488.356089 38.00168 
L 1486.933971 38.00168 
L 1486.933971 66.446464 
L 1488.356089 66.446464 
z
M 1486.933971 86.193845 
L 1486.933971 128.16 
L 1483.552925 128.16 
L 1483.552925 17.28 
L 1488.715835 17.28 
Q 1491.307126 17.28 1492.512836 24.646652 
Q 1493.721356 31.989541 1493.721356 47.887252 
Q 1493.721356 58.865941 1493.091801 65.923669 
Q 1492.465057 72.981397 1491.200327 76.332036 
Q 1491.894523 77.662786 1492.442573 82.391702 
Q 1492.993433 87.096854 1493.555536 96.673502 
L 1495.390799 128.16 
L 1491.790534 128.16 
L 1490.191353 100.618225 
Q 1489.707945 92.301037 1489.210485 89.259323 
Q 1488.715835 86.193845 1487.889545 86.193845 
L 1486.933971 86.193845 
z
" clip-path="url(#p92777c530d)" style="fill: #bd2e1f"/>
   </g>
   <g id="patch_105">
    <path d="M 1504.213951 107.961114 
L 1499.661295 107.961114 
L 1498.942455 128.16 
L 1496.013845 128.16 
L 1500.19619 17.28 
L 1503.669375 17.28 
L 1507.85172 128.16 
L 1504.925531 128.16 
L 1504.213951 107.961114 
z
M 1500.387397 87.382015 
L 1503.480589 87.382015 
L 1501.936413 43.277154 
L 1500.387397 87.382015 
z
" clip-path="url(#p92777c530d)" style="fill: #21599c"/>
   </g>
   <g id="patch_106">
    <path d="M 1520.31264 118.127891 
Q 1519.118771 123.143945 1517.834698 125.663425 
Q 1516.550626 128.16 1515.181656 128.16 
Q 1512.088209 128.16 1510.281487 113.226358 
Q 1508.474766 98.292716 1508.474766 72.754357 
Q 1508.474766 46.91824 1510.313324 32.09912 
Q 1512.154535 17.28 1515.356757 17.28 
Q 1516.590421 17.28 1517.720617 19.295584 
Q 1518.853466 21.288263 1519.856316 25.227812 
L 1519.856316 47.330518 
Q 1518.82163 42.268655 1517.797556 39.77208 
Q 1516.773481 37.252601 1515.744101 37.252601 
Q 1513.839217 37.252601 1512.807183 46.460153 
Q 1511.77515 55.644801 1511.77515 72.754357 
Q 1511.77515 89.703582 1512.770041 98.956943 
Q 1513.764932 108.187399 1515.595531 108.187399 
Q 1516.094303 108.187399 1516.521442 107.660599 
Q 1516.948582 107.110894 1517.288172 105.965677 
L 1517.288172 85.214328 
L 1515.338186 85.214328 
L 1515.338186 66.73051 
L 1520.31264 66.73051 
L 1520.31264 118.127891 
z
" clip-path="url(#p92777c530d)" style="fill: #787800"/>
   </g>
   <g id="patch_107">
    <path d="M 1529.135791 107.961114 
L 1524.583135 107.961114 
L 1523.864295 128.16 
L 1520.935686 128.16 
L 1525.11803 17.28 
L 1528.591215 17.28 
L 1532.77356 128.16 
L 1529.847371 128.16 
L 1529.135791 107.961114 
z
M 1525.309237 87.382015 
L 1528.402429 87.382015 
L 1526.858253 43.277154 
L 1525.309237 87.382015 
z
" clip-path="url(#p92777c530d)" style="fill: #21599c"/>
   </g>
   <g id="patch_108">
    <path d="M 1533.396606 17.28 
L 1544.98808 17.28 
L 1544.98808 38.904689 
L 1537.692522 38.904689 
L 1537.692522 59.531316 
L 1544.555989 59.531316 
L 1544.555989 81.156005 
L 1537.692522 81.156005 
L 1537.692522 106.559074 
L 1545.23448 106.559074 
L 1545.23448 128.16 
L 1533.396606 128.16 
L 1533.396606 17.28 
z
" clip-path="url(#p92777c530d)" style="fill: #6b296b"/>
   </g>
   <g id="patch_109">
    <path d="M 1557.6954 118.127891 
Q 1556.501531 123.143945 1555.217458 125.663425 
Q 1553.933386 128.16 1552.564416 128.16 
Q 1549.470969 128.16 1547.664247 113.226358 
Q 1545.857526 98.292716 1545.857526 72.754357 
Q 1545.857526 46.91824 1547.696084 32.09912 
Q 1549.537295 17.28 1552.739517 17.28 
Q 1553.973182 17.28 1555.103378 19.295584 
Q 1556.236227 21.288263 1557.239076 25.227812 
L 1557.239076 47.330518 
Q 1556.20439 42.268655 1555.180316 39.77208 
Q 1554.156242 37.252601 1553.126861 37.252601 
Q 1551.221977 37.252601 1550.189944 46.460153 
Q 1549.15791 55.644801 1549.15791 72.754357 
Q 1549.15791 89.703582 1550.152801 98.956943 
Q 1551.147692 108.187399 1552.978291 108.187399 
Q 1553.477063 108.187399 1553.904203 107.660599 
Q 1554.331342 107.110894 1554.670932 105.965677 
L 1554.670932 85.214328 
L 1552.720946 85.214328 
L 1552.720946 66.73051 
L 1557.6954 66.73051 
L 1557.6954 118.127891 
z
" clip-path="url(#p92777c530d)" style="fill: #787800"/>
   </g>
   <g id="patch_110">
    <path d="M 1566.518551 107.961114 
L 1561.965895 107.961114 
L 1561.247055 128.16 
L 1558.318446 128.16 
L 1562.50079 17.28 
L 1565.973975 17.28 
L 1570.15632 128.16 
L 1567.230131 128.16 
L 1566.518551 107.961114 
z
M 1562.691997 87.382015 
L 1565.785189 87.382015 
L 1564.241013 43.277154 
L 1562.691997 87.382015 
z
" clip-path="url(#p92777c530d)" style="fill: #21599c"/>
   </g>
   <g id="patch_111">
    <path d="M 1578.979472 107.961114 
L 1574.426815 107.961114 
L 1573.707975 128.16 
L 1570.779366 128.16 
L 1574.96171 17.28 
L 1578.434895 17.28 
L 1582.61724 128.16 
L 1579.691051 128.16 
L 1578.979472 107.961114 
z
M 1575.152917 87.382015 
L 1578.246109 87.382015 
L 1576.701933 43.277154 
L 1575.152917 87.382015 
z
" clip-path="url(#p92777c530d)" style="fill: #21599c"/>
   </g>
   <g id="patch_112">
    <path d="M 1583.240286 17.28 
L 1589.393514 17.28 
Q 1592.140271 17.28 1593.607674 26.690304 
Q 1595.07816 36.076845 1595.07816 53.447887 
Q 1595.07816 70.913982 1593.607674 80.300523 
Q 1592.140271 89.687064 1589.393514 89.687064 
L 1586.94887 89.687064 
L 1586.94887 128.16 
L 1583.240286 128.16 
L 1583.240286 17.28 
z
M 1586.94887 38.00168 
L 1586.94887 68.965384 
L 1588.998918 68.965384 
Q 1590.077891 68.965384 1590.666702 64.925607 
Q 1591.255513 60.885829 1591.255513 53.447887 
Q 1591.255513 46.033708 1590.666702 42.017694 
Q 1590.077891 38.00168 1588.998918 38.00168 
L 1586.94887 38.00168 
z
" clip-path="url(#p92777c530d)" style="fill: #787800"/>
   </g>
   <g id="patch_113">
    <path d="M 1598.945161 38.904689 
L 1598.945161 106.559074 
L 1600.107376 106.559074 
Q 1602.094737 106.559074 1603.143696 97.861672 
Q 1604.195352 89.164269 1604.195352 72.601183 
Q 1604.195352 56.13315 1603.149089 47.530802 
Q 1602.105523 38.904689 1600.107376 38.904689 
L 1598.945161 38.904689 
z
M 1595.701206 17.28 
L 1599.120437 17.28 
Q 1601.986874 17.28 1603.389083 20.892036 
Q 1604.791291 24.480309 1605.794409 33.106421 
Q 1606.678879 40.615654 1607.107631 50.429936 
Q 1607.53908 60.220454 1607.53908 72.601183 
Q 1607.53908 85.172019 1607.107631 95.010064 
Q 1606.678879 104.84811 1605.794409 112.333579 
Q 1604.783201 120.959691 1603.36751 124.571727 
Q 1601.951819 128.16 1599.120437 128.16 
L 1595.701206 128.16 
L 1595.701206 17.28 
z
" clip-path="url(#p92777c530d)" style="fill: #6b296b"/>
   </g>
   <g id="patch_114">
    <path d="M 1608.162126 17.28 
L 1620 17.28 
L 1620 38.904689 
L 1615.741118 38.904689 
L 1615.741118 128.16 
L 1612.429267 128.16 
L 1612.429267 38.904689 
L 1608.162126 38.904689 
L 1608.162126 17.28 
z
" clip-path="url(#p92777c530d)" style="fill: #40ba47"/>
   </g>
   <g id="matplotlib.axis_1">
    <g id="xtick_1">
     <g id="line2d_2">
      <defs>
       <path id="md9c54cb1da" d="M 0 0 
L 0 3.5 
" style="stroke: #000000; stroke-width: 0.8"/>
      </defs>
      <g>
       <use xlink:href="#md9c54cb1da" x="230.918937" y="128.16" style="stroke: #000000; stroke-width: 0.8"/>
      </g>
     </g>
     <g id="text_1">
      <!-- 0 -->
      <g transform="translate(227.737687 142.758438) scale(0.1 -0.1)">
       <defs>
        <path id="DejaVuSans-30" d="M 2034 4250 
Q 1547 4250 1301 3770 
Q 1056 3291 1056 2328 
Q 1056 1369 1301 889 
Q 1547 409 2034 409 
Q 2525 409 2770 889 
Q 3016 1369 3016 2328 
Q 3016 3291 2770 3770 
Q 2525 4250 2034 4250 
z
M 2034 4750 
Q 2819 4750 3233 4129 
Q 3647 3509 3647 2328 
Q 3647 1150 3233 529 
Q 2819 -91 2034 -91 
Q 1250 -91 836 529 
Q 422 1150 422 2328 
Q 422 3509 836 4129 
Q 1250 4750 2034 4750 
z
" transform="scale(0.015625)"/>
       </defs>
       <use xlink:href="#DejaVuSans-30"/>
      </g>
     </g>
    </g>
    <g id="xtick_2">
     <g id="line2d_3">
      <g>
       <use xlink:href="#md9c54cb1da" x="480.137338" y="128.16" style="stroke: #000000; stroke-width: 0.8"/>
      </g>
     </g>
     <g id="text_2">
      <!-- 20 -->
      <g transform="translate(473.774838 142.758438) scale(0.1 -0.1)">
       <defs>
        <path id="DejaVuSans-32" d="M 1228 531 
L 3431 531 
L 3431 0 
L 469 0 
L 469 531 
Q 828 903 1448 1529 
Q 2069 2156 2228 2338 
Q 2531 2678 2651 2914 
Q 2772 3150 2772 3378 
Q 2772 3750 2511 3984 
Q 2250 4219 1831 4219 
Q 1534 4219 1204 4116 
Q 875 4013 500 3803 
L 500 4441 
Q 881 4594 1212 4672 
Q 1544 4750 1819 4750 
Q 2544 4750 2975 4387 
Q 3406 4025 3406 3419 
Q 3406 3131 3298 2873 
Q 3191 2616 2906 2266 
Q 2828 2175 2409 1742 
Q 1991 1309 1228 531 
z
" transform="scale(0.015625)"/>
       </defs>
       <use xlink:href="#DejaVuSans-32"/>
       <use xlink:href="#DejaVuSans-30" x="63.623047"/>
      </g>
     </g>
    </g>
    <g id="xtick_3">
     <g id="line2d_4">
      <g>
       <use xlink:href="#md9c54cb1da" x="729.355739" y="128.16" style="stroke: #000000; stroke-width: 0.8"/>
      </g>
     </g>
     <g id="text_3">
      <!-- 40 -->
      <g transform="translate(722.993239 142.758438) scale(0.1 -0.1)">
       <defs>
        <path id="DejaVuSans-34" d="M 2419 4116 
L 825 1625 
L 2419 1625 
L 2419 4116 
z
M 2253 4666 
L 3047 4666 
L 3047 1625 
L 3713 1625 
L 3713 1100 
L 3047 1100 
L 3047 0 
L 2419 0 
L 2419 1100 
L 313 1100 
L 313 1709 
L 2253 4666 
z
" transform="scale(0.015625)"/>
       </defs>
       <use xlink:href="#DejaVuSans-34"/>
       <use xlink:href="#DejaVuSans-30" x="63.623047"/>
      </g>
     </g>
    </g>
    <g id="xtick_4">
     <g id="line2d_5">
      <g>
       <use xlink:href="#md9c54cb1da" x="978.57414" y="128.16" style="stroke: #000000; stroke-width: 0.8"/>
      </g>
     </g>
     <g id="text_4">
      <!-- 60 -->
      <g transform="translate(972.21164 142.758438) scale(0.1 -0.1)">
       <defs>
        <path id="DejaVuSans-36" d="M 2113 2584 
Q 1688 2584 1439 2293 
Q 1191 2003 1191 1497 
Q 1191 994 1439 701 
Q 1688 409 2113 409 
Q 2538 409 2786 701 
Q 3034 994 3034 1497 
Q 3034 2003 2786 2293 
Q 2538 2584 2113 2584 
z
M 3366 4563 
L 3366 3988 
Q 3128 4100 2886 4159 
Q 2644 4219 2406 4219 
Q 1781 4219 1451 3797 
Q 1122 3375 1075 2522 
Q 1259 2794 1537 2939 
Q 1816 3084 2150 3084 
Q 2853 3084 3261 2657 
Q 3669 2231 3669 1497 
Q 3669 778 3244 343 
Q 2819 -91 2113 -91 
Q 1303 -91 875 529 
Q 447 1150 447 2328 
Q 447 3434 972 4092 
Q 1497 4750 2381 4750 
Q 2619 4750 2861 4703 
Q 3103 4656 3366 4563 
z
" transform="scale(0.015625)"/>
       </defs>
       <use xlink:href="#DejaVuSans-36"/>
       <use xlink:href="#DejaVuSans-30" x="63.623047"/>
      </g>
     </g>
    </g>
    <g id="xtick_5">
     <g id="line2d_6">
      <g>
       <use xlink:href="#md9c54cb1da" x="1227.792541" y="128.16" style="stroke: #000000; stroke-width: 0.8"/>
      </g>
     </g>
     <g id="text_5">
      <!-- 80 -->
      <g transform="translate(1221.430041 142.758438) scale(0.1 -0.1)">
       <defs>
        <path id="DejaVuSans-38" d="M 2034 2216 
Q 1584 2216 1326 1975 
Q 1069 1734 1069 1313 
Q 1069 891 1326 650 
Q 1584 409 2034 409 
Q 2484 409 2743 651 
Q 3003 894 3003 1313 
Q 3003 1734 2745 1975 
Q 2488 2216 2034 2216 
z
M 1403 2484 
Q 997 2584 770 2862 
Q 544 3141 544 3541 
Q 544 4100 942 4425 
Q 1341 4750 2034 4750 
Q 2731 4750 3128 4425 
Q 3525 4100 3525 3541 
Q 3525 3141 3298 2862 
Q 3072 2584 2669 2484 
Q 3125 2378 3379 2068 
Q 3634 1759 3634 1313 
Q 3634 634 3220 271 
Q 2806 -91 2034 -91 
Q 1263 -91 848 271 
Q 434 634 434 1313 
Q 434 1759 690 2068 
Q 947 2378 1403 2484 
z
M 1172 3481 
Q 1172 3119 1398 2916 
Q 1625 2713 2034 2713 
Q 2441 2713 2670 2916 
Q 2900 3119 2900 3481 
Q 2900 3844 2670 4047 
Q 2441 4250 2034 4250 
Q 1625 4250 1398 4047 
Q 1172 3844 1172 3481 
z
" transform="scale(0.015625)"/>
       </defs>
       <use xlink:href="#DejaVuSans-38"/>
       <use xlink:href="#DejaVuSans-30" x="63.623047"/>
      </g>
     </g>
    </g>
    <g id="xtick_6">
     <g id="line2d_7">
      <g>
       <use xlink:href="#md9c54cb1da" x="1477.010942" y="128.16" style="stroke: #000000; stroke-width: 0.8"/>
      </g>
     </g>
     <g id="text_6">
      <!-- 100 -->
      <g transform="translate(1467.467192 142.758438) scale(0.1 -0.1)">
       <defs>
        <path id="DejaVuSans-31" d="M 794 531 
L 1825 531 
L 1825 4091 
L 703 3866 
L 703 4441 
L 1819 4666 
L 2450 4666 
L 2450 531 
L 3481 531 
L 3481 0 
L 794 0 
L 794 531 
z
" transform="scale(0.015625)"/>
       </defs>
       <use xlink:href="#DejaVuSans-31"/>
       <use xlink:href="#DejaVuSans-30" x="63.623047"/>
       <use xlink:href="#DejaVuSans-30" x="127.246094"/>
      </g>
     </g>
    </g>
   </g>
   <g id="matplotlib.axis_2">
    <g id="ytick_1">
     <g id="line2d_8">
      <defs>
       <path id="mb5df757ca2" d="M 0 0 
L -3.5 0 
" style="stroke: #000000; stroke-width: 0.8"/>
      </defs>
      <g>
       <use xlink:href="#mb5df757ca2" x="225" y="128.16" style="stroke: #000000; stroke-width: 0.8"/>
      </g>
     </g>
     <g id="text_7">
      <!-- 0.0 -->
      <g transform="translate(202.096875 131.959219) scale(0.1 -0.1)">
       <defs>
        <path id="DejaVuSans-2e" d="M 684 794 
L 1344 794 
L 1344 0 
L 684 0 
L 684 794 
z
" transform="scale(0.015625)"/>
       </defs>
       <use xlink:href="#DejaVuSans-30"/>
       <use xlink:href="#DejaVuSans-2e" x="63.623047"/>
       <use xlink:href="#DejaVuSans-30" x="95.410156"/>
      </g>
     </g>
    </g>
    <g id="ytick_2">
     <g id="line2d_9">
      <g>
       <use xlink:href="#mb5df757ca2" x="225" y="105.984" style="stroke: #000000; stroke-width: 0.8"/>
      </g>
     </g>
     <g id="text_8">
      <!-- 0.2 -->
      <g transform="translate(202.096875 109.783219) scale(0.1 -0.1)">
       <use xlink:href="#DejaVuSans-30"/>
       <use xlink:href="#DejaVuSans-2e" x="63.623047"/>
       <use xlink:href="#DejaVuSans-32" x="95.410156"/>
      </g>
     </g>
    </g>
    <g id="ytick_3">
     <g id="line2d_10">
      <g>
       <use xlink:href="#mb5df757ca2" x="225" y="83.808" style="stroke: #000000; stroke-width: 0.8"/>
      </g>
     </g>
     <g id="text_9">
      <!-- 0.4 -->
      <g transform="translate(202.096875 87.607219) scale(0.1 -0.1)">
       <use xlink:href="#DejaVuSans-30"/>
       <use xlink:href="#DejaVuSans-2e" x="63.623047"/>
       <use xlink:href="#DejaVuSans-34" x="95.410156"/>
      </g>
     </g>
    </g>
    <g id="ytick_4">
     <g id="line2d_11">
      <g>
       <use xlink:href="#mb5df757ca2" x="225" y="61.632" style="stroke: #000000; stroke-width: 0.8"/>
      </g>
     </g>
     <g id="text_10">
      <!-- 0.6 -->
      <g transform="translate(202.096875 65.431219) scale(0.1 -0.1)">
       <use xlink:href="#DejaVuSans-30"/>
       <use xlink:href="#DejaVuSans-2e" x="63.623047"/>
       <use xlink:href="#DejaVuSans-36" x="95.410156"/>
      </g>
     </g>
    </g>
    <g id="ytick_5">
     <g id="line2d_12">
      <g>
       <use xlink:href="#mb5df757ca2" x="225" y="39.456" style="stroke: #000000; stroke-width: 0.8"/>
      </g>
     </g>
     <g id="text_11">
      <!-- 0.8 -->
      <g transform="translate(202.096875 43.255219) scale(0.1 -0.1)">
       <use xlink:href="#DejaVuSans-30"/>
       <use xlink:href="#DejaVuSans-2e" x="63.623047"/>
       <use xlink:href="#DejaVuSans-38" x="95.410156"/>
      </g>
     </g>
    </g>
    <g id="ytick_6">
     <g id="line2d_13">
      <g>
       <use xlink:href="#mb5df757ca2" x="225" y="17.28" style="stroke: #000000; stroke-width: 0.8"/>
      </g>
     </g>
     <g id="text_12">
      <!-- 1.0 -->
      <g transform="translate(202.096875 21.079219) scale(0.1 -0.1)">
       <use xlink:href="#DejaVuSans-31"/>
       <use xlink:href="#DejaVuSans-2e" x="63.623047"/>
       <use xlink:href="#DejaVuSans-30" x="95.410156"/>
      </g>
     </g>
    </g>
   </g>
  </g>
 </g>
 <defs>
  <clipPath id="p92777c530d">
   <rect x="225" y="17.28" width="1395" height="110.88"/>
  </clipPath>
 </defs>
</svg>
