<?xml version="1.0" encoding="utf-8" standalone="no"?>
<!DOCTYPE svg PUBLIC "-//W3C//DTD SVG 1.1//EN"
  "http://www.w3.org/Graphics/SVG/1.1/DTD/svg11.dtd">
<svg xmlns:xlink="http://www.w3.org/1999/xlink" width="1800pt" height="144pt" viewBox="0 0 1800 144" xmlns="http://www.w3.org/2000/svg" version="1.1">
 <metadata>
  <rdf:RDF xmlns:dc="http://purl.org/dc/elements/1.1/" xmlns:cc="http://creativecommons.org/ns#" xmlns:rdf="http://www.w3.org/1999/02/22-rdf-syntax-ns#">
   <cc:Work>
    <dc:type rdf:resource="http://purl.org/dc/dcmitype/StillImage"/>
    <dc:date>2025-05-09T21:11:12.226748</dc:date>
    <dc:format>image/svg+xml</dc:format>
    <dc:creator>
     <cc:Agent>
      <dc:title>Matplotlib v3.8.0, https://matplotlib.org/</dc:title>
     </cc:Agent>
    </dc:creator>
   </cc:Work>
  </rdf:RDF>
 </metadata>
 <defs>
  <style type="text/css">*{stroke-linejoin: round; stroke-linecap: butt}</style>
 </defs>
 <g id="figure_1">
  <g id="patch_1">
   <path d="M 0 144 
L 1800 144 
L 1800 0 
L 0 0 
z
" style="fill: #ffffff"/>
  </g>
  <g id="axes_1">
   <g id="patch_2">
    <path d="M 225 128.16 
L 1620 128.16 
L 1620 17.28 
L 225 17.28 
z
" style="fill: #ffffff"/>
   </g>
   <g id="line2d_1">
    <path d="M 225 128.16 
L 1620 128.16 
" clip-path="url(#p3554b8677d)" style="fill: none; stroke: #000000; stroke-width: 1.5; stroke-linecap: square"/>
   </g>
   <g id="patch_3">
    <path d="M 225 17.28 
L 227.833896 17.28 
L 229.799669 76.617197 
L 231.778398 17.28 
L 234.606742 17.28 
L 234.606742 128.16 
L 232.502143 128.16 
L 232.502143 47.055534 
L 230.512308 106.844235 
L 229.099987 106.844235 
L 227.110151 47.055534 
L 227.110151 128.16 
L 225 128.16 
L 225 17.28 
z
" clip-path="url(#p3554b8677d)" style="fill: #21599c"/>
   </g>
   <g id="patch_4">
    <path d="M 241.766958 107.961114 
L 238.072359 107.961114 
L 237.489002 128.16 
L 235.11236 128.16 
L 238.50644 17.28 
L 241.32502 17.28 
L 244.719101 128.16 
L 242.344423 128.16 
L 241.766958 107.961114 
z
M 238.66161 87.382015 
L 241.171815 87.382015 
L 239.918677 43.277154 
L 238.66161 87.382015 
z
" clip-path="url(#p3554b8677d)" style="fill: #21599c"/>
   </g>
   <g id="patch_5">
    <path d="M 245.224719 17.28 
L 254.831461 17.28 
L 254.831461 38.904689 
L 251.375268 38.904689 
L 251.375268 128.16 
L 248.687614 128.16 
L 248.687614 38.904689 
L 245.224719 38.904689 
L 245.224719 17.28 
z
" clip-path="url(#p3554b8677d)" style="fill: #40ba47"/>
   </g>
   <g id="patch_6">
    <path d="M 255.337079 17.28 
L 257.868713 17.28 
L 257.868713 57.749061 
L 261.517802 17.28 
L 264.457696 17.28 
L 259.729033 69.797102 
L 264.94382 128.16 
L 261.774543 128.16 
L 257.868713 84.48288 
L 257.868713 128.16 
L 255.337079 128.16 
L 255.337079 17.28 
z
" clip-path="url(#p3554b8677d)" style="fill: #bd2e1f"/>
   </g>
   <g id="patch_7">
    <path d="M 265.449438 17.28 
L 268.10542 17.28 
L 270.250791 56.798526 
L 272.394144 17.28 
L 275.05618 17.28 
L 271.467779 81.441166 
L 271.467779 128.16 
L 269.039857 128.16 
L 269.039857 81.441166 
L 265.449438 17.28 
z
" clip-path="url(#p3554b8677d)" style="fill: #177875"/>
   </g>
   <g id="patch_8">
    <path d="M 284.367543 22.570907 
L 284.367543 45.200413 
Q 283.365645 41.260863 282.41071 39.268184 
Q 281.458385 37.252601 280.610425 37.252601 
Q 279.485899 37.252601 278.945813 39.978219 
Q 278.408336 42.680934 278.408336 48.407023 
Q 278.408336 52.713043 278.771003 55.118 
Q 279.133669 57.500054 280.088603 59.217881 
L 281.424467 61.57703 
Q 283.454354 65.173014 284.310142 72.479504 
Q 285.168539 79.76309 285.168539 93.230853 
Q 285.168539 110.890114 283.973567 119.525057 
Q 282.778595 128.16 280.323423 128.16 
Q 279.167587 128.16 278.001315 126.21313 
Q 276.835043 124.289163 275.668771 120.48704 
L 275.668771 97.239116 
Q 276.835043 102.667449 277.923042 105.438876 
Q 279.011041 108.187399 280.023375 108.187399 
Q 281.051364 108.187399 281.596668 105.186928 
Q 282.141972 102.163553 282.141972 96.574889 
Q 282.141972 91.581739 281.771479 88.856121 
Q 281.400985 86.130502 280.292113 83.977492 
L 279.076268 81.618343 
Q 277.249892 78.18269 276.40454 70.67006 
Q 275.561798 63.15743 275.561798 50.422607 
Q 275.561798 34.458269 276.735897 25.869134 
Q 277.909996 17.28 280.112085 17.28 
Q 281.116592 17.28 282.175891 18.608453 
Q 283.235189 19.936906 284.367543 22.570907 
z
" clip-path="url(#p3554b8677d)" style="fill: #40ba47"/>
   </g>
   <g id="patch_9">
    <path d="M 285.674157 17.28 
L 288.0508 17.28 
L 290.480474 99.121132 
L 292.906221 17.28 
L 295.280899 17.28 
L 291.886818 128.16 
L 289.068238 128.16 
L 285.674157 17.28 
z
" clip-path="url(#p3554b8677d)" style="fill: #21599c"/>
   </g>
   <g id="patch_10">
    <path d="M 298.41907 38.904689 
L 298.41907 106.559074 
L 299.362238 106.559074 
Q 300.975033 106.559074 301.826291 97.861672 
Q 302.679737 89.164269 302.679737 72.601183 
Q 302.679737 56.13315 301.830667 47.530802 
Q 300.983786 38.904689 299.362238 38.904689 
L 298.41907 38.904689 
z
M 295.786517 17.28 
L 298.561311 17.28 
Q 300.8875 17.28 302.025428 20.892036 
Q 303.163356 24.480309 303.977413 33.106421 
Q 304.695183 40.615654 305.043127 50.429936 
Q 305.393258 60.220454 305.393258 72.601183 
Q 305.393258 85.172019 305.043127 95.010064 
Q 304.695183 104.84811 303.977413 112.333579 
Q 303.156791 120.959691 302.007921 124.571727 
Q 300.859051 128.16 298.561311 128.16 
L 295.786517 128.16 
L 295.786517 17.28 
z
" clip-path="url(#p3554b8677d)" style="fill: #6b296b"/>
   </g>
   <g id="patch_11">
    <path d="M 305.898876 17.28 
L 310.892381 17.28 
Q 313.121445 17.28 314.312281 26.690304 
Q 315.505618 36.076845 315.505618 53.447887 
Q 315.505618 70.913982 314.312281 80.300523 
Q 313.121445 89.687064 310.892381 89.687064 
L 308.908488 89.687064 
L 308.908488 128.16 
L 305.898876 128.16 
L 305.898876 17.28 
z
M 308.908488 38.00168 
L 308.908488 68.965384 
L 310.572156 68.965384 
Q 311.44777 68.965384 311.925606 64.925607 
Q 312.403441 60.885829 312.403441 53.447887 
Q 312.403441 46.033708 311.925606 42.017694 
Q 311.44777 38.00168 310.572156 38.00168 
L 308.908488 38.00168 
z
" clip-path="url(#p3554b8677d)" style="fill: #787800"/>
   </g>
   <g id="patch_12">
    <path d="M 325.617978 118.127891 
Q 324.649122 123.143945 323.607064 125.663425 
Q 322.565006 128.16 321.454051 128.16 
Q 318.943639 128.16 317.477437 113.226358 
Q 316.011236 98.292716 316.011236 72.754357 
Q 316.011236 46.91824 317.503274 32.09912 
Q 318.997464 17.28 321.59615 17.28 
Q 322.597301 17.28 323.514484 19.295584 
Q 324.433821 21.288263 325.247659 25.227812 
L 325.247659 47.330518 
Q 324.407985 42.268655 323.576922 39.77208 
Q 322.745859 37.252601 321.91049 37.252601 
Q 320.364627 37.252601 319.527105 46.460153 
Q 318.689583 55.644801 318.689583 72.754357 
Q 318.689583 89.703582 319.496963 98.956943 
Q 320.304343 108.187399 321.789921 108.187399 
Q 322.194688 108.187399 322.541323 107.660599 
Q 322.887958 107.110894 323.163543 105.965677 
L 323.163543 85.214328 
L 321.581079 85.214328 
L 321.581079 66.73051 
L 325.617978 66.73051 
L 325.617978 118.127891 
z
" clip-path="url(#p3554b8677d)" style="fill: #787800"/>
   </g>
   <g id="patch_13">
    <path d="M 332.778194 107.961114 
L 329.083595 107.961114 
L 328.500238 128.16 
L 326.123596 128.16 
L 329.517676 17.28 
L 332.336256 17.28 
L 335.730337 128.16 
L 333.355659 128.16 
L 332.778194 107.961114 
z
M 329.672846 87.382015 
L 332.183051 87.382015 
L 330.929913 43.277154 
L 329.672846 87.382015 
z
" clip-path="url(#p3554b8677d)" style="fill: #21599c"/>
   </g>
   <g id="patch_14">
    <path d="M 336.235955 17.28 
L 341.229459 17.28 
Q 343.458524 17.28 344.649359 26.690304 
Q 345.842697 36.076845 345.842697 53.447887 
Q 345.842697 70.913982 344.649359 80.300523 
Q 343.458524 89.687064 341.229459 89.687064 
L 339.245567 89.687064 
L 339.245567 128.16 
L 336.235955 128.16 
L 336.235955 17.28 
z
M 339.245567 38.00168 
L 339.245567 68.965384 
L 340.909235 68.965384 
Q 341.784849 68.965384 342.262684 64.925607 
Q 342.74052 60.885829 342.74052 53.447887 
Q 342.74052 46.033708 342.262684 42.017694 
Q 341.784849 38.00168 340.909235 38.00168 
L 339.245567 38.00168 
z
" clip-path="url(#p3554b8677d)" style="fill: #787800"/>
   </g>
   <g id="patch_15">
    <path d="M 348.980868 38.904689 
L 348.980868 106.559074 
L 349.924036 106.559074 
Q 351.53683 106.559074 352.388088 97.861672 
Q 353.241535 89.164269 353.241535 72.601183 
Q 353.241535 56.13315 352.392465 47.530802 
Q 351.545584 38.904689 349.924036 38.904689 
L 348.980868 38.904689 
z
M 346.348315 17.28 
L 349.123109 17.28 
Q 351.449297 17.28 352.587226 20.892036 
Q 353.725154 24.480309 354.539211 33.106421 
Q 355.256981 40.615654 355.604924 50.429936 
Q 355.955056 60.220454 355.955056 72.601183 
Q 355.955056 85.172019 355.604924 95.010064 
Q 355.256981 104.84811 354.539211 112.333579 
Q 353.718589 120.959691 352.569719 124.571727 
Q 351.420849 128.16 349.123109 128.16 
L 346.348315 128.16 
L 346.348315 17.28 
z
" clip-path="url(#p3554b8677d)" style="fill: #6b296b"/>
   </g>
   <g id="patch_16">
    <path d="M 356.460674 17.28 
L 361.454178 17.28 
Q 363.683243 17.28 364.874078 26.690304 
Q 366.067416 36.076845 366.067416 53.447887 
Q 366.067416 70.913982 364.874078 80.300523 
Q 363.683243 89.687064 361.454178 89.687064 
L 359.470286 89.687064 
L 359.470286 128.16 
L 356.460674 128.16 
L 356.460674 17.28 
z
M 359.470286 38.00168 
L 359.470286 68.965384 
L 361.133954 68.965384 
Q 362.009568 68.965384 362.487403 64.925607 
Q 362.965239 60.885829 362.965239 53.447887 
Q 362.965239 46.033708 362.487403 42.017694 
Q 362.009568 38.00168 361.133954 38.00168 
L 359.470286 38.00168 
z
" clip-path="url(#p3554b8677d)" style="fill: #787800"/>
   </g>
   <g id="patch_17">
    <path d="M 366.573034 17.28 
L 371.566538 17.28 
Q 373.795602 17.28 374.986438 26.690304 
Q 376.179775 36.076845 376.179775 53.447887 
Q 376.179775 70.913982 374.986438 80.300523 
Q 373.795602 89.687064 371.566538 89.687064 
L 369.582646 89.687064 
L 369.582646 128.16 
L 366.573034 128.16 
L 366.573034 17.28 
z
M 369.582646 38.00168 
L 369.582646 68.965384 
L 371.246313 68.965384 
Q 372.121928 68.965384 372.599763 64.925607 
Q 373.077598 60.885829 373.077598 53.447887 
Q 373.077598 46.033708 372.599763 42.017694 
Q 372.121928 38.00168 371.246313 38.00168 
L 369.582646 38.00168 
z
" clip-path="url(#p3554b8677d)" style="fill: #787800"/>
   </g>
   <g id="patch_18">
    <path d="M 376.685393 17.28 
L 379.341375 17.28 
L 381.486746 56.798526 
L 383.630099 17.28 
L 386.292135 17.28 
L 382.703734 81.441166 
L 382.703734 128.16 
L 380.275812 128.16 
L 380.275812 81.441166 
L 376.685393 17.28 
z
" clip-path="url(#p3554b8677d)" style="fill: #177875"/>
   </g>
   <g id="patch_19">
    <path d="M 386.797753 17.28 
L 390.284 17.28 
L 390.284 106.559074 
L 396.404494 106.559074 
L 396.404494 128.16 
L 386.797753 128.16 
L 386.797753 17.28 
z
" clip-path="url(#p3554b8677d)" style="fill: #21599c"/>
   </g>
   <g id="patch_20">
    <path d="M 406.516854 118.127891 
Q 405.547998 123.143945 404.50594 125.663425 
Q 403.463882 128.16 402.352928 128.16 
Q 399.842515 128.16 398.376314 113.226358 
Q 396.910112 98.292716 396.910112 72.754357 
Q 396.910112 46.91824 398.40215 32.09912 
Q 399.896341 17.28 402.495027 17.28 
Q 403.496177 17.28 404.413361 19.295584 
Q 405.332697 21.288263 406.146536 25.227812 
L 406.146536 47.330518 
Q 405.306861 42.268655 404.475798 39.77208 
Q 403.644735 37.252601 402.809366 37.252601 
Q 401.263504 37.252601 400.425982 46.460153 
Q 399.58846 55.644801 399.58846 72.754357 
Q 399.58846 89.703582 400.39584 98.956943 
Q 401.203219 108.187399 402.688798 108.187399 
Q 403.093564 108.187399 403.440199 107.660599 
Q 403.786834 107.110894 404.06242 105.965677 
L 404.06242 85.214328 
L 402.479956 85.214328 
L 402.479956 66.73051 
L 406.516854 66.73051 
L 406.516854 118.127891 
z
" clip-path="url(#p3554b8677d)" style="fill: #787800"/>
   </g>
   <g id="patch_21">
    <path d="M 407.122452 17.28 
L 416.529234 17.28 
L 416.529234 38.904689 
L 410.608699 38.904689 
L 410.608699 59.531316 
L 416.178581 59.531316 
L 416.178581 81.156005 
L 410.608699 81.156005 
L 410.608699 128.16 
L 407.122452 128.16 
L 407.122452 17.28 
z
" clip-path="url(#p3554b8677d)" style="fill: #21599c"/>
   </g>
   <g id="patch_22">
    <path d="M 417.134831 17.28 
L 418.795985 17.28 
L 419.957208 97.861672 
L 421.109786 17.28 
L 422.779585 17.28 
L 423.932163 97.861672 
L 425.094827 17.28 
L 426.741573 17.28 
L 425.156778 128.16 
L 423.158495 128.16 
L 421.938202 43.871239 
L 420.732317 128.16 
L 418.732593 128.16 
L 417.134831 17.28 
z
" clip-path="url(#p3554b8677d)" style="fill: #21599c"/>
   </g>
   <g id="patch_23">
    <path d="M 431.145083 66.446464 
Q 432.007227 66.446464 432.381278 63.119589 
Q 432.75533 59.76895 432.75533 52.117137 
Q 432.75533 44.536614 432.381278 41.281029 
Q 432.007227 38.00168 431.145083 38.00168 
L 429.990997 38.00168 
L 429.990997 66.446464 
L 431.145083 66.446464 
z
M 429.990997 86.193845 
L 429.990997 128.16 
L 427.247191 128.16 
L 427.247191 17.28 
L 431.437026 17.28 
Q 433.539926 17.28 434.51839 24.646652 
Q 435.499136 31.989541 435.499136 47.887252 
Q 435.499136 58.865941 434.988236 65.923669 
Q 434.479617 72.981397 433.453256 76.332036 
Q 434.016614 77.662786 434.46137 82.391702 
Q 434.908408 87.096854 435.364568 96.673502 
L 436.853933 128.16 
L 433.932224 128.16 
L 432.634447 100.618225 
Q 432.242149 92.301037 431.838447 89.259323 
Q 431.437026 86.193845 430.76647 86.193845 
L 429.990997 86.193845 
z
" clip-path="url(#p3554b8677d)" style="fill: #bd2e1f"/>
   </g>
   <g id="patch_24">
    <path d="M 437.359551 17.28 
L 446.766333 17.28 
L 446.766333 38.904689 
L 440.845798 38.904689 
L 440.845798 59.531316 
L 446.415679 59.531316 
L 446.415679 81.156005 
L 440.845798 81.156005 
L 440.845798 106.559074 
L 446.966292 106.559074 
L 446.966292 128.16 
L 437.359551 128.16 
L 437.359551 17.28 
z
" clip-path="url(#p3554b8677d)" style="fill: #6b296b"/>
   </g>
   <g id="patch_25">
    <path d="M 451.369802 66.446464 
Q 452.231946 66.446464 452.605997 63.119589 
Q 452.980049 59.76895 452.980049 52.117137 
Q 452.980049 44.536614 452.605997 41.281029 
Q 452.231946 38.00168 451.369802 38.00168 
L 450.215716 38.00168 
L 450.215716 66.446464 
L 451.369802 66.446464 
z
M 450.215716 86.193845 
L 450.215716 128.16 
L 447.47191 128.16 
L 447.47191 17.28 
L 451.661745 17.28 
Q 453.764645 17.28 454.74311 24.646652 
Q 455.723855 31.989541 455.723855 47.887252 
Q 455.723855 58.865941 455.212955 65.923669 
Q 454.704336 72.981397 453.677975 76.332036 
Q 454.241333 77.662786 454.68609 82.391702 
Q 455.133127 87.096854 455.589287 96.673502 
L 457.078652 128.16 
L 454.156943 128.16 
L 452.859166 100.618225 
Q 452.466868 92.301037 452.063166 89.259323 
Q 451.661745 86.193845 450.991189 86.193845 
L 450.215716 86.193845 
z
" clip-path="url(#p3554b8677d)" style="fill: #bd2e1f"/>
   </g>
   <g id="patch_26">
    <path d="M 457.58427 17.28 
L 460.348419 17.28 
L 460.348419 59.531316 
L 464.426861 59.531316 
L 464.426861 17.28 
L 467.191011 17.28 
L 467.191011 128.16 
L 464.426861 128.16 
L 464.426861 81.156005 
L 460.348419 81.156005 
L 460.348419 128.16 
L 457.58427 128.16 
L 457.58427 17.28 
z
" clip-path="url(#p3554b8677d)" style="fill: #177875"/>
   </g>
   <g id="patch_27">
    <path d="M 467.696629 17.28 
L 470.073271 17.28 
L 472.502946 99.121132 
L 474.928693 17.28 
L 477.303371 17.28 
L 473.90929 128.16 
L 471.09071 128.16 
L 467.696629 17.28 
z
" clip-path="url(#p3554b8677d)" style="fill: #21599c"/>
   </g>
   <g id="patch_28">
    <path d="M 487.41573 120.212188 
Q 486.612143 124.151737 485.743204 126.144416 
Q 484.874264 128.16 483.927871 128.16 
Q 481.105633 128.16 479.457311 113.226358 
Q 477.808989 98.292716 477.808989 72.754357 
Q 477.808989 47.124379 479.457311 32.213642 
Q 481.105633 17.28 483.927871 17.28 
Q 484.874264 17.28 485.743204 19.295584 
Q 486.612143 21.288263 487.41573 25.227812 
L 487.41573 47.330518 
Q 486.604882 42.108325 485.818237 39.680463 
Q 485.031593 37.252601 484.162654 37.252601 
Q 482.603888 37.252601 481.710744 46.712101 
Q 480.820021 56.148697 480.820021 72.754357 
Q 480.820021 89.291303 481.710744 98.750804 
Q 482.603888 108.187399 484.162654 108.187399 
Q 485.031593 108.187399 485.818237 105.759537 
Q 486.604882 103.308771 487.41573 98.086577 
L 487.41573 120.212188 
z
" clip-path="url(#p3554b8677d)" style="fill: #6b296b"/>
   </g>
   <g id="patch_29">
    <path d="M 487.921348 17.28 
L 497.52809 17.28 
L 497.52809 38.904689 
L 494.071897 38.904689 
L 494.071897 128.16 
L 491.384244 128.16 
L 491.384244 38.904689 
L 487.921348 38.904689 
L 487.921348 17.28 
z
" clip-path="url(#p3554b8677d)" style="fill: #40ba47"/>
   </g>
   <g id="patch_30">
    <path d="M 498.033708 17.28 
L 501.519955 17.28 
L 501.519955 106.559074 
L 507.640449 106.559074 
L 507.640449 128.16 
L 498.033708 128.16 
L 498.033708 17.28 
z
" clip-path="url(#p3554b8677d)" style="fill: #21599c"/>
   </g>
   <g id="patch_31">
    <path d="M 508.146067 17.28 
L 517.752809 17.28 
L 517.752809 38.904689 
L 514.296616 38.904689 
L 514.296616 128.16 
L 511.608963 128.16 
L 511.608963 38.904689 
L 508.146067 38.904689 
L 508.146067 17.28 
z
" clip-path="url(#p3554b8677d)" style="fill: #40ba47"/>
   </g>
   <g id="patch_32">
    <path d="M 518.258427 17.28 
L 527.865169 17.28 
L 527.865169 38.904689 
L 524.408976 38.904689 
L 524.408976 128.16 
L 521.721322 128.16 
L 521.721322 38.904689 
L 518.258427 38.904689 
L 518.258427 17.28 
z
" clip-path="url(#p3554b8677d)" style="fill: #40ba47"/>
   </g>
   <g id="patch_33">
    <path d="M 528.370787 17.28 
L 533.364291 17.28 
Q 535.593355 17.28 536.784191 26.690304 
Q 537.977528 36.076845 537.977528 53.447887 
Q 537.977528 70.913982 536.784191 80.300523 
Q 535.593355 89.687064 533.364291 89.687064 
L 531.380399 89.687064 
L 531.380399 128.16 
L 528.370787 128.16 
L 528.370787 17.28 
z
M 531.380399 38.00168 
L 531.380399 68.965384 
L 533.044066 68.965384 
Q 533.91968 68.965384 534.397516 64.925607 
Q 534.875351 60.885829 534.875351 53.447887 
Q 534.875351 46.033708 534.397516 42.017694 
Q 533.91968 38.00168 533.044066 38.00168 
L 531.380399 38.00168 
z
" clip-path="url(#p3554b8677d)" style="fill: #787800"/>
   </g>
   <g id="patch_34">
    <path d="M 542.381038 66.446464 
Q 543.243182 66.446464 543.617233 63.119589 
Q 543.991285 59.76895 543.991285 52.117137 
Q 543.991285 44.536614 543.617233 41.281029 
Q 543.243182 38.00168 542.381038 38.00168 
L 541.226952 38.00168 
L 541.226952 66.446464 
L 542.381038 66.446464 
z
M 541.226952 86.193845 
L 541.226952 128.16 
L 538.483146 128.16 
L 538.483146 17.28 
L 542.672981 17.28 
Q 544.775881 17.28 545.754346 24.646652 
Q 546.735091 31.989541 546.735091 47.887252 
Q 546.735091 58.865941 546.224191 65.923669 
Q 545.715572 72.981397 544.689211 76.332036 
Q 545.252569 77.662786 545.697325 82.391702 
Q 546.144363 87.096854 546.600523 96.673502 
L 548.089888 128.16 
L 545.168179 128.16 
L 543.870402 100.618225 
Q 543.478104 92.301037 543.074402 89.259323 
Q 542.672981 86.193845 542.002425 86.193845 
L 541.226952 86.193845 
z
" clip-path="url(#p3554b8677d)" style="fill: #bd2e1f"/>
   </g>
   <g id="patch_35">
    <path d="M 548.595506 17.28 
L 553.58901 17.28 
Q 555.818074 17.28 557.00891 26.690304 
Q 558.202247 36.076845 558.202247 53.447887 
Q 558.202247 70.913982 557.00891 80.300523 
Q 555.818074 89.687064 553.58901 89.687064 
L 551.605118 89.687064 
L 551.605118 128.16 
L 548.595506 128.16 
L 548.595506 17.28 
z
M 551.605118 38.00168 
L 551.605118 68.965384 
L 553.268785 68.965384 
Q 554.1444 68.965384 554.622235 64.925607 
Q 555.10007 60.885829 555.10007 53.447887 
Q 555.10007 46.033708 554.622235 42.017694 
Q 554.1444 38.00168 553.268785 38.00168 
L 551.605118 38.00168 
z
" clip-path="url(#p3554b8677d)" style="fill: #787800"/>
   </g>
   <g id="patch_36">
    <path d="M 561.340419 38.904689 
L 561.340419 106.559074 
L 562.283586 106.559074 
Q 563.896381 106.559074 564.747639 97.861672 
Q 565.601085 89.164269 565.601085 72.601183 
Q 565.601085 56.13315 564.752016 47.530802 
Q 563.905134 38.904689 562.283586 38.904689 
L 561.340419 38.904689 
z
M 558.707865 17.28 
L 561.48266 17.28 
Q 563.808848 17.28 564.946776 20.892036 
Q 566.084705 24.480309 566.898761 33.106421 
Q 567.616531 40.615654 567.964475 50.429936 
Q 568.314607 60.220454 568.314607 72.601183 
Q 568.314607 85.172019 567.964475 95.010064 
Q 567.616531 104.84811 566.898761 112.333579 
Q 566.07814 120.959691 564.92927 124.571727 
Q 563.7804 128.16 561.48266 128.16 
L 558.707865 128.16 
L 558.707865 17.28 
z
" clip-path="url(#p3554b8677d)" style="fill: #6b296b"/>
   </g>
   <g id="patch_37">
    <path d="M 578.426966 118.127891 
Q 577.458111 123.143945 576.416053 125.663425 
Q 575.373995 128.16 574.26304 128.16 
Q 571.752628 128.16 570.286426 113.226358 
Q 568.820225 98.292716 568.820225 72.754357 
Q 568.820225 46.91824 570.312262 32.09912 
Q 571.806453 17.28 574.405139 17.28 
Q 575.40629 17.28 576.323473 19.295584 
Q 577.242809 21.288263 578.056648 25.227812 
L 578.056648 47.330518 
Q 577.216973 42.268655 576.38591 39.77208 
Q 575.554848 37.252601 574.719479 37.252601 
Q 573.173616 37.252601 572.336094 46.460153 
Q 571.498572 55.644801 571.498572 72.754357 
Q 571.498572 89.703582 572.305952 98.956943 
Q 573.113332 108.187399 574.59891 108.187399 
Q 575.003676 108.187399 575.350311 107.660599 
Q 575.696946 107.110894 575.972532 105.965677 
L 575.972532 85.214328 
L 574.390068 85.214328 
L 574.390068 66.73051 
L 578.426966 66.73051 
L 578.426966 118.127891 
z
" clip-path="url(#p3554b8677d)" style="fill: #787800"/>
   </g>
   <g id="patch_38">
    <path d="M 578.932584 17.28 
L 588.539326 17.28 
L 588.539326 38.904689 
L 585.083133 38.904689 
L 585.083133 128.16 
L 582.395479 128.16 
L 582.395479 38.904689 
L 578.932584 38.904689 
L 578.932584 17.28 
z
" clip-path="url(#p3554b8677d)" style="fill: #40ba47"/>
   </g>
   <g id="patch_39">
    <path d="M 589.044944 17.28 
L 594.038448 17.28 
Q 596.267512 17.28 597.458348 26.690304 
Q 598.651685 36.076845 598.651685 53.447887 
Q 598.651685 70.913982 597.458348 80.300523 
Q 596.267512 89.687064 594.038448 89.687064 
L 592.054556 89.687064 
L 592.054556 128.16 
L 589.044944 128.16 
L 589.044944 17.28 
z
M 592.054556 38.00168 
L 592.054556 68.965384 
L 593.718223 68.965384 
Q 594.593838 68.965384 595.071673 64.925607 
Q 595.549508 60.885829 595.549508 53.447887 
Q 595.549508 46.033708 595.071673 42.017694 
Q 594.593838 38.00168 593.718223 38.00168 
L 592.054556 38.00168 
z
" clip-path="url(#p3554b8677d)" style="fill: #787800"/>
   </g>
   <g id="patch_40">
    <path d="M 599.157303 17.28 
L 601.921453 17.28 
L 601.921453 59.531316 
L 605.999895 59.531316 
L 605.999895 17.28 
L 608.764045 17.28 
L 608.764045 128.16 
L 605.999895 128.16 
L 605.999895 81.156005 
L 601.921453 81.156005 
L 601.921453 128.16 
L 599.157303 128.16 
L 599.157303 17.28 
z
" clip-path="url(#p3554b8677d)" style="fill: #177875"/>
   </g>
   <g id="patch_41">
    <path d="M 609.269663 17.28 
L 611.646305 17.28 
L 614.07598 99.121132 
L 616.501726 17.28 
L 618.876404 17.28 
L 615.482324 128.16 
L 612.663744 128.16 
L 609.269663 17.28 
z
" clip-path="url(#p3554b8677d)" style="fill: #21599c"/>
   </g>
   <g id="patch_42">
    <path d="M 619.382022 17.28 
L 621.758665 17.28 
L 624.18834 99.121132 
L 626.614086 17.28 
L 628.988764 17.28 
L 625.594683 128.16 
L 622.776103 128.16 
L 619.382022 17.28 
z
" clip-path="url(#p3554b8677d)" style="fill: #21599c"/>
   </g>
   <g id="patch_43">
    <path d="M 629.494382 17.28 
L 634.487886 17.28 
Q 636.71695 17.28 637.907786 26.690304 
Q 639.101124 36.076845 639.101124 53.447887 
Q 639.101124 70.913982 637.907786 80.300523 
Q 636.71695 89.687064 634.487886 89.687064 
L 632.503994 89.687064 
L 632.503994 128.16 
L 629.494382 128.16 
L 629.494382 17.28 
z
M 632.503994 38.00168 
L 632.503994 68.965384 
L 634.167662 68.965384 
Q 635.043276 68.965384 635.521111 64.925607 
Q 635.998947 60.885829 635.998947 53.447887 
Q 635.998947 46.033708 635.521111 42.017694 
Q 635.043276 38.00168 634.167662 38.00168 
L 632.503994 38.00168 
z
" clip-path="url(#p3554b8677d)" style="fill: #787800"/>
   </g>
   <g id="patch_44">
    <path d="M 639.606742 17.28 
L 641.983384 17.28 
L 644.413059 99.121132 
L 646.838805 17.28 
L 649.213483 17.28 
L 645.819402 128.16 
L 643.000822 128.16 
L 639.606742 17.28 
z
" clip-path="url(#p3554b8677d)" style="fill: #21599c"/>
   </g>
   <g id="patch_45">
    <path d="M 659.325843 118.127891 
Q 658.356987 123.143945 657.314929 125.663425 
Q 656.272871 128.16 655.161917 128.16 
Q 652.651504 128.16 651.185303 113.226358 
Q 649.719101 98.292716 649.719101 72.754357 
Q 649.719101 46.91824 651.211139 32.09912 
Q 652.705329 17.28 655.304015 17.28 
Q 656.305166 17.28 657.22235 19.295584 
Q 658.141686 21.288263 658.955525 25.227812 
L 658.955525 47.330518 
Q 658.11585 42.268655 657.284787 39.77208 
Q 656.453724 37.252601 655.618355 37.252601 
Q 654.072492 37.252601 653.23497 46.460153 
Q 652.397449 55.644801 652.397449 72.754357 
Q 652.397449 89.703582 653.204828 98.956943 
Q 654.012208 108.187399 655.497787 108.187399 
Q 655.902553 108.187399 656.249188 107.660599 
Q 656.595823 107.110894 656.871408 105.965677 
L 656.871408 85.214328 
L 655.288944 85.214328 
L 655.288944 66.73051 
L 659.325843 66.73051 
L 659.325843 118.127891 
z
" clip-path="url(#p3554b8677d)" style="fill: #787800"/>
   </g>
   <g id="patch_46">
    <path d="M 659.831461 17.28 
L 662.208103 17.28 
L 664.637778 99.121132 
L 667.063524 17.28 
L 669.438202 17.28 
L 666.044121 128.16 
L 663.225542 128.16 
L 659.831461 17.28 
z
" clip-path="url(#p3554b8677d)" style="fill: #21599c"/>
   </g>
   <g id="patch_47">
    <path d="M 669.94382 17.28 
L 679.550562 17.28 
L 679.550562 38.904689 
L 676.094369 38.904689 
L 676.094369 128.16 
L 673.406715 128.16 
L 673.406715 38.904689 
L 669.94382 38.904689 
L 669.94382 17.28 
z
" clip-path="url(#p3554b8677d)" style="fill: #40ba47"/>
   </g>
   <g id="patch_48">
    <path d="M 680.05618 17.28 
L 682.712161 17.28 
L 684.857532 56.798526 
L 687.000885 17.28 
L 689.662921 17.28 
L 686.074521 81.441166 
L 686.074521 128.16 
L 683.646599 128.16 
L 683.646599 81.441166 
L 680.05618 17.28 
z
" clip-path="url(#p3554b8677d)" style="fill: #177875"/>
   </g>
   <g id="patch_49">
    <path d="M 692.801093 38.904689 
L 692.801093 106.559074 
L 693.74426 106.559074 
Q 695.357055 106.559074 696.208313 97.861672 
Q 697.061759 89.164269 697.061759 72.601183 
Q 697.061759 56.13315 696.21269 47.530802 
Q 695.365808 38.904689 693.74426 38.904689 
L 692.801093 38.904689 
z
M 690.168539 17.28 
L 692.943334 17.28 
Q 695.269522 17.28 696.407451 20.892036 
Q 697.545379 24.480309 698.359435 33.106421 
Q 699.077206 40.615654 699.425149 50.429936 
Q 699.775281 60.220454 699.775281 72.601183 
Q 699.775281 85.172019 699.425149 95.010064 
Q 699.077206 104.84811 698.359435 112.333579 
Q 697.538814 120.959691 696.389944 124.571727 
Q 695.241074 128.16 692.943334 128.16 
L 690.168539 128.16 
L 690.168539 17.28 
z
" clip-path="url(#p3554b8677d)" style="fill: #6b296b"/>
   </g>
   <g id="patch_50">
    <path d="M 700.280899 17.28 
L 705.274403 17.28 
Q 707.503467 17.28 708.694303 26.690304 
Q 709.88764 36.076845 709.88764 53.447887 
Q 709.88764 70.913982 708.694303 80.300523 
Q 707.503467 89.687064 705.274403 89.687064 
L 703.290511 89.687064 
L 703.290511 128.16 
L 700.280899 128.16 
L 700.280899 17.28 
z
M 703.290511 38.00168 
L 703.290511 68.965384 
L 704.954178 68.965384 
Q 705.829793 68.965384 706.307628 64.925607 
Q 706.785463 60.885829 706.785463 53.447887 
Q 706.785463 46.033708 706.307628 42.017694 
Q 705.829793 38.00168 704.954178 38.00168 
L 703.290511 38.00168 
z
" clip-path="url(#p3554b8677d)" style="fill: #787800"/>
   </g>
   <g id="patch_51">
    <path d="M 713.025812 38.904689 
L 713.025812 106.559074 
L 713.96898 106.559074 
Q 715.581774 106.559074 716.433032 97.861672 
Q 717.286478 89.164269 717.286478 72.601183 
Q 717.286478 56.13315 716.437409 47.530802 
Q 715.590528 38.904689 713.96898 38.904689 
L 713.025812 38.904689 
z
M 710.393258 17.28 
L 713.168053 17.28 
Q 715.494241 17.28 716.63217 20.892036 
Q 717.770098 24.480309 718.584154 33.106421 
Q 719.301925 40.615654 719.649868 50.429936 
Q 720 60.220454 720 72.601183 
Q 720 85.172019 719.649868 95.010064 
Q 719.301925 104.84811 718.584154 112.333579 
Q 717.763533 120.959691 716.614663 124.571727 
Q 715.465793 128.16 713.168053 128.16 
L 710.393258 128.16 
L 710.393258 17.28 
z
" clip-path="url(#p3554b8677d)" style="fill: #6b296b"/>
   </g>
   <g id="patch_52">
    <path d="M 727.160216 107.961114 
L 723.465618 107.961114 
L 722.88226 128.16 
L 720.505618 128.16 
L 723.899699 17.28 
L 726.718279 17.28 
L 730.11236 128.16 
L 727.737681 128.16 
L 727.160216 107.961114 
z
M 724.054868 87.382015 
L 726.565074 87.382015 
L 725.311935 43.277154 
L 724.054868 87.382015 
z
" clip-path="url(#p3554b8677d)" style="fill: #21599c"/>
   </g>
   <g id="patch_53">
    <path d="M 734.51587 66.446464 
Q 735.378013 66.446464 735.752065 63.119589 
Q 736.126116 59.76895 736.126116 52.117137 
Q 736.126116 44.536614 735.752065 41.281029 
Q 735.378013 38.00168 734.51587 38.00168 
L 733.361783 38.00168 
L 733.361783 66.446464 
L 734.51587 66.446464 
z
M 733.361783 86.193845 
L 733.361783 128.16 
L 730.617978 128.16 
L 730.617978 17.28 
L 734.807812 17.28 
Q 736.910713 17.28 737.889177 24.646652 
Q 738.869922 31.989541 738.869922 47.887252 
Q 738.869922 58.865941 738.359022 65.923669 
Q 737.850403 72.981397 736.824042 76.332036 
Q 737.3874 77.662786 737.832157 82.391702 
Q 738.279194 87.096854 738.735355 96.673502 
L 740.224719 128.16 
L 737.303011 128.16 
L 736.005234 100.618225 
Q 735.612936 92.301037 735.209234 89.259323 
Q 734.807812 86.193845 734.137256 86.193845 
L 733.361783 86.193845 
z
" clip-path="url(#p3554b8677d)" style="fill: #bd2e1f"/>
   </g>
   <g id="patch_54">
    <path d="M 740.730337 17.28 
L 744.216584 17.28 
L 744.216584 106.559074 
L 750.337079 106.559074 
L 750.337079 128.16 
L 740.730337 128.16 
L 740.730337 17.28 
z
" clip-path="url(#p3554b8677d)" style="fill: #21599c"/>
   </g>
   <g id="patch_55">
    <path d="M 757.497295 107.961114 
L 753.802697 107.961114 
L 753.219339 128.16 
L 750.842697 128.16 
L 754.236777 17.28 
L 757.055357 17.28 
L 760.449438 128.16 
L 758.07476 128.16 
L 757.497295 107.961114 
z
M 754.391947 87.382015 
L 756.902152 87.382015 
L 755.649014 43.277154 
L 754.391947 87.382015 
z
" clip-path="url(#p3554b8677d)" style="fill: #21599c"/>
   </g>
   <g id="patch_56">
    <path d="M 764.852948 66.446464 
Q 765.715092 66.446464 766.089143 63.119589 
Q 766.463195 59.76895 766.463195 52.117137 
Q 766.463195 44.536614 766.089143 41.281029 
Q 765.715092 38.00168 764.852948 38.00168 
L 763.698862 38.00168 
L 763.698862 66.446464 
L 764.852948 66.446464 
z
M 763.698862 86.193845 
L 763.698862 128.16 
L 760.955056 128.16 
L 760.955056 17.28 
L 765.144891 17.28 
Q 767.247791 17.28 768.226256 24.646652 
Q 769.207001 31.989541 769.207001 47.887252 
Q 769.207001 58.865941 768.696101 65.923669 
Q 768.187482 72.981397 767.161121 76.332036 
Q 767.724479 77.662786 768.169236 82.391702 
Q 768.616273 87.096854 769.072433 96.673502 
L 770.561798 128.16 
L 767.640089 128.16 
L 766.342312 100.618225 
Q 765.950014 92.301037 765.546312 89.259323 
Q 765.144891 86.193845 764.474335 86.193845 
L 763.698862 86.193845 
z
" clip-path="url(#p3554b8677d)" style="fill: #bd2e1f"/>
   </g>
   <g id="patch_57">
    <path d="M 771.067416 17.28 
L 773.444058 17.28 
L 775.873733 99.121132 
L 778.299479 17.28 
L 780.674157 17.28 
L 777.280076 128.16 
L 774.461497 128.16 
L 771.067416 17.28 
z
" clip-path="url(#p3554b8677d)" style="fill: #21599c"/>
   </g>
   <g id="patch_58">
    <path d="M 784.240022 17.28 
L 787.72627 17.28 
L 787.72627 128.16 
L 784.240022 128.16 
L 784.240022 17.28 
z
" clip-path="url(#p3554b8677d)" style="fill: #21599c"/>
   </g>
   <g id="patch_59">
    <path d="M 791.292135 17.28 
L 800.898876 17.28 
L 800.898876 38.904689 
L 797.442684 38.904689 
L 797.442684 128.16 
L 794.75503 128.16 
L 794.75503 38.904689 
L 791.292135 38.904689 
L 791.292135 17.28 
z
" clip-path="url(#p3554b8677d)" style="fill: #40ba47"/>
   </g>
   <g id="patch_60">
    <path d="M 801.404494 17.28 
L 804.490324 17.28 
L 808.389544 93.322863 
L 808.389544 17.28 
L 811.011236 17.28 
L 811.011236 128.16 
L 807.923109 128.16 
L 804.023888 52.117137 
L 804.023888 128.16 
L 801.404494 128.16 
L 801.404494 17.28 
z
" clip-path="url(#p3554b8677d)" style="fill: #40ba47"/>
   </g>
   <g id="patch_61">
    <path d="M 811.516854 17.28 
L 814.048488 17.28 
L 814.048488 57.749061 
L 817.697577 17.28 
L 820.637471 17.28 
L 815.908808 69.797102 
L 821.123596 128.16 
L 817.954318 128.16 
L 814.048488 84.48288 
L 814.048488 128.16 
L 811.516854 128.16 
L 811.516854 17.28 
z
" clip-path="url(#p3554b8677d)" style="fill: #bd2e1f"/>
   </g>
   <g id="patch_62">
    <path d="M 828.283812 107.961114 
L 824.589213 107.961114 
L 824.005856 128.16 
L 821.629213 128.16 
L 825.023294 17.28 
L 827.841874 17.28 
L 831.235955 128.16 
L 828.861277 128.16 
L 828.283812 107.961114 
z
M 825.178464 87.382015 
L 827.688669 87.382015 
L 826.435531 43.277154 
L 825.178464 87.382015 
z
" clip-path="url(#p3554b8677d)" style="fill: #21599c"/>
   </g>
   <g id="patch_63">
    <path d="M 840.547318 22.570907 
L 840.547318 45.200413 
Q 839.54542 41.260863 838.590486 39.268184 
Q 837.638161 37.252601 836.7902 37.252601 
Q 835.665674 37.252601 835.125588 39.978219 
Q 834.588112 42.680934 834.588112 48.407023 
Q 834.588112 52.713043 834.950778 55.118 
Q 835.313444 57.500054 836.268378 59.217881 
L 837.604242 61.57703 
Q 839.63413 65.173014 840.489918 72.479504 
Q 841.348315 79.76309 841.348315 93.230853 
Q 841.348315 110.890114 840.153342 119.525057 
Q 838.95837 128.16 836.503198 128.16 
Q 835.347363 128.16 834.181091 126.21313 
Q 833.014819 124.289163 831.848547 120.48704 
L 831.848547 97.239116 
Q 833.014819 102.667449 834.102817 105.438876 
Q 835.190816 108.187399 836.20315 108.187399 
Q 837.23114 108.187399 837.776444 105.186928 
Q 838.321747 102.163553 838.321747 96.574889 
Q 838.321747 91.581739 837.951254 88.856121 
Q 837.58076 86.130502 836.471889 83.977492 
L 835.256044 81.618343 
Q 833.429667 78.18269 832.584315 70.67006 
Q 831.741573 63.15743 831.741573 50.422607 
Q 831.741573 34.458269 832.915672 25.869134 
Q 834.089772 17.28 836.29186 17.28 
Q 837.296367 17.28 838.355666 18.608453 
Q 839.414964 19.936906 840.547318 22.570907 
z
" clip-path="url(#p3554b8677d)" style="fill: #40ba47"/>
   </g>
   <g id="patch_64">
    <path d="M 841.853933 17.28 
L 844.230575 17.28 
L 846.66025 99.121132 
L 849.085996 17.28 
L 851.460674 17.28 
L 848.066593 128.16 
L 845.248013 128.16 
L 841.853933 17.28 
z
" clip-path="url(#p3554b8677d)" style="fill: #21599c"/>
   </g>
   <g id="patch_65">
    <path d="M 851.966292 17.28 
L 854.497926 17.28 
L 854.497926 57.749061 
L 858.147015 17.28 
L 861.086909 17.28 
L 856.358246 69.797102 
L 861.573034 128.16 
L 858.403756 128.16 
L 854.497926 84.48288 
L 854.497926 128.16 
L 851.966292 128.16 
L 851.966292 17.28 
z
" clip-path="url(#p3554b8677d)" style="fill: #bd2e1f"/>
   </g>
   <g id="patch_66">
    <path d="M 862.078652 17.28 
L 864.455294 17.28 
L 866.884969 99.121132 
L 869.310715 17.28 
L 871.685393 17.28 
L 868.291312 128.16 
L 865.472733 128.16 
L 862.078652 17.28 
z
" clip-path="url(#p3554b8677d)" style="fill: #21599c"/>
   </g>
   <g id="patch_67">
    <path d="M 876.088903 66.446464 
Q 876.951047 66.446464 877.325098 63.119589 
Q 877.69915 59.76895 877.69915 52.117137 
Q 877.69915 44.536614 877.325098 41.281029 
Q 876.951047 38.00168 876.088903 38.00168 
L 874.934817 38.00168 
L 874.934817 66.446464 
L 876.088903 66.446464 
z
M 874.934817 86.193845 
L 874.934817 128.16 
L 872.191011 128.16 
L 872.191011 17.28 
L 876.380846 17.28 
Q 878.483746 17.28 879.462211 24.646652 
Q 880.442956 31.989541 880.442956 47.887252 
Q 880.442956 58.865941 879.932056 65.923669 
Q 879.423437 72.981397 878.397076 76.332036 
Q 878.960434 77.662786 879.405191 82.391702 
Q 879.852228 87.096854 880.308389 96.673502 
L 881.797753 128.16 
L 878.876044 128.16 
L 877.578268 100.618225 
Q 877.185969 92.301037 876.782267 89.259323 
Q 876.380846 86.193845 875.71029 86.193845 
L 874.934817 86.193845 
z
" clip-path="url(#p3554b8677d)" style="fill: #bd2e1f"/>
   </g>
   <g id="patch_68">
    <path d="M 882.303371 17.28 
L 885.067521 17.28 
L 885.067521 59.531316 
L 889.145963 59.531316 
L 889.145963 17.28 
L 891.910112 17.28 
L 891.910112 128.16 
L 889.145963 128.16 
L 889.145963 81.156005 
L 885.067521 81.156005 
L 885.067521 128.16 
L 882.303371 128.16 
L 882.303371 17.28 
z
" clip-path="url(#p3554b8677d)" style="fill: #177875"/>
   </g>
   <g id="patch_69">
    <path d="M 892.41573 17.28 
L 894.792373 17.28 
L 897.222047 99.121132 
L 899.647794 17.28 
L 902.022472 17.28 
L 898.628391 128.16 
L 895.809811 128.16 
L 892.41573 17.28 
z
" clip-path="url(#p3554b8677d)" style="fill: #21599c"/>
   </g>
   <g id="patch_70">
    <path d="M 902.52809 17.28 
L 906.014337 17.28 
L 906.014337 106.559074 
L 912.134831 106.559074 
L 912.134831 128.16 
L 902.52809 128.16 
L 902.52809 17.28 
z
" clip-path="url(#p3554b8677d)" style="fill: #21599c"/>
   </g>
   <g id="patch_71">
    <path d="M 919.295048 107.961114 
L 915.600449 107.961114 
L 915.017092 128.16 
L 912.640449 128.16 
L 916.03453 17.28 
L 918.85311 17.28 
L 922.247191 128.16 
L 919.872513 128.16 
L 919.295048 107.961114 
z
M 916.189699 87.382015 
L 918.699905 87.382015 
L 917.446766 43.277154 
L 916.189699 87.382015 
z
" clip-path="url(#p3554b8677d)" style="fill: #21599c"/>
   </g>
   <g id="patch_72">
    <path d="M 929.407407 107.961114 
L 925.712809 107.961114 
L 925.129451 128.16 
L 922.752809 128.16 
L 926.14689 17.28 
L 928.96547 17.28 
L 932.359551 128.16 
L 929.984872 128.16 
L 929.407407 107.961114 
z
M 926.302059 87.382015 
L 928.812265 87.382015 
L 927.559126 43.277154 
L 926.302059 87.382015 
z
" clip-path="url(#p3554b8677d)" style="fill: #21599c"/>
   </g>
   <g id="patch_73">
    <path d="M 942.47191 118.127891 
Q 941.503055 123.143945 940.460996 125.663425 
Q 939.418938 128.16 938.307984 128.16 
Q 935.797572 128.16 934.33137 113.226358 
Q 932.865169 98.292716 932.865169 72.754357 
Q 932.865169 46.91824 934.357206 32.09912 
Q 935.851397 17.28 938.450083 17.28 
Q 939.451234 17.28 940.368417 19.295584 
Q 941.287753 21.288263 942.101592 25.227812 
L 942.101592 47.330518 
Q 941.261917 42.268655 940.430854 39.77208 
Q 939.599791 37.252601 938.764423 37.252601 
Q 937.21856 37.252601 936.381038 46.460153 
Q 935.543516 55.644801 935.543516 72.754357 
Q 935.543516 89.703582 936.350896 98.956943 
Q 937.158275 108.187399 938.643854 108.187399 
Q 939.04862 108.187399 939.395255 107.660599 
Q 939.74189 107.110894 940.017476 105.965677 
L 940.017476 85.214328 
L 938.435012 85.214328 
L 938.435012 66.73051 
L 942.47191 66.73051 
L 942.47191 118.127891 
z
" clip-path="url(#p3554b8677d)" style="fill: #787800"/>
   </g>
   <g id="patch_74">
    <path d="M 942.977528 17.28 
L 952.38431 17.28 
L 952.38431 38.904689 
L 946.463775 38.904689 
L 946.463775 59.531316 
L 952.033657 59.531316 
L 952.033657 81.156005 
L 946.463775 81.156005 
L 946.463775 106.559074 
L 952.58427 106.559074 
L 952.58427 128.16 
L 942.977528 128.16 
L 942.977528 17.28 
z
" clip-path="url(#p3554b8677d)" style="fill: #6b296b"/>
   </g>
   <g id="patch_75">
    <path d="M 958.149438 111.578719 
L 957.961306 111.578719 
Q 955.653687 111.578719 954.370787 99.152512 
Q 953.089888 86.706798 953.089888 64.526897 
Q 953.089888 42.38601 954.368785 29.842759 
Q 955.647683 17.28 957.893258 17.28 
Q 960.162851 17.28 961.42974 29.725714 
Q 962.696629 42.151921 962.696629 64.526897 
Q 962.696629 79.879212 962.024157 90.978916 
Q 961.351685 102.078621 960.088799 107.677241 
L 961.970119 128.16 
L 959.674508 128.16 
L 958.149438 111.578719 
z
M 957.893258 34.290443 
Q 956.792486 34.290443 956.18606 42.210443 
Q 955.579635 50.130443 955.579635 64.526897 
Q 955.579635 79.157438 956.172051 86.940887 
Q 956.766468 94.704828 957.893258 94.704828 
Q 959.000035 94.704828 959.606461 86.784828 
Q 960.212886 78.84532 960.212886 64.526897 
Q 960.212886 50.130443 959.606461 42.210443 
Q 959.000035 34.290443 957.893258 34.290443 
z
" clip-path="url(#p3554b8677d)" style="fill: #40ba47"/>
   </g>
   <g id="patch_76">
    <path d="M 972.808989 118.127891 
Q 971.840133 123.143945 970.798075 125.663425 
Q 969.756017 128.16 968.645063 128.16 
Q 966.13465 128.16 964.668449 113.226358 
Q 963.202247 98.292716 963.202247 72.754357 
Q 963.202247 46.91824 964.694285 32.09912 
Q 966.188475 17.28 968.787161 17.28 
Q 969.788312 17.28 970.705496 19.295584 
Q 971.624832 21.288263 972.438671 25.227812 
L 972.438671 47.330518 
Q 971.598996 42.268655 970.767933 39.77208 
Q 969.93687 37.252601 969.101501 37.252601 
Q 967.555638 37.252601 966.718117 46.460153 
Q 965.880595 55.644801 965.880595 72.754357 
Q 965.880595 89.703582 966.687974 98.956943 
Q 967.495354 108.187399 968.980933 108.187399 
Q 969.385699 108.187399 969.732334 107.660599 
Q 970.078969 107.110894 970.354555 105.965677 
L 970.354555 85.214328 
L 968.77209 85.214328 
L 968.77209 66.73051 
L 972.808989 66.73051 
L 972.808989 118.127891 
z
" clip-path="url(#p3554b8677d)" style="fill: #787800"/>
   </g>
   <g id="patch_77">
    <path d="M 979.969205 107.961114 
L 976.274607 107.961114 
L 975.691249 128.16 
L 973.314607 128.16 
L 976.708688 17.28 
L 979.527267 17.28 
L 982.921348 128.16 
L 980.54667 128.16 
L 979.969205 107.961114 
z
M 976.863857 87.382015 
L 979.374062 87.382015 
L 978.120924 43.277154 
L 976.863857 87.382015 
z
" clip-path="url(#p3554b8677d)" style="fill: #21599c"/>
   </g>
   <g id="patch_78">
    <path d="M 990.081565 107.961114 
L 986.386966 107.961114 
L 985.803609 128.16 
L 983.426966 128.16 
L 986.821047 17.28 
L 989.639627 17.28 
L 993.033708 128.16 
L 990.65903 128.16 
L 990.081565 107.961114 
z
M 986.976216 87.382015 
L 989.486422 87.382015 
L 988.233283 43.277154 
L 986.976216 87.382015 
z
" clip-path="url(#p3554b8677d)" style="fill: #21599c"/>
   </g>
   <g id="patch_79">
    <path d="M 993.539326 17.28 
L 995.915968 17.28 
L 998.345643 99.121132 
L 1000.771389 17.28 
L 1003.146067 17.28 
L 999.751987 128.16 
L 996.933407 128.16 
L 993.539326 17.28 
z
" clip-path="url(#p3554b8677d)" style="fill: #21599c"/>
   </g>
   <g id="patch_80">
    <path d="M 1010.306284 107.961114 
L 1006.611685 107.961114 
L 1006.028328 128.16 
L 1003.651685 128.16 
L 1007.045766 17.28 
L 1009.864346 17.28 
L 1013.258427 128.16 
L 1010.883749 128.16 
L 1010.306284 107.961114 
z
M 1007.200935 87.382015 
L 1009.711141 87.382015 
L 1008.458002 43.277154 
L 1007.200935 87.382015 
z
" clip-path="url(#p3554b8677d)" style="fill: #21599c"/>
   </g>
   <g id="patch_81">
    <path d="M 1013.764045 17.28 
L 1016.140687 17.28 
L 1018.570362 99.121132 
L 1020.996108 17.28 
L 1023.370787 17.28 
L 1019.976706 128.16 
L 1017.158126 128.16 
L 1013.764045 17.28 
z
" clip-path="url(#p3554b8677d)" style="fill: #21599c"/>
   </g>
   <g id="patch_82">
    <path d="M 1033.483146 120.212188 
Q 1032.679559 124.151737 1031.810619 126.144416 
Q 1030.94168 128.16 1029.995287 128.16 
Q 1027.173049 128.16 1025.524727 113.226358 
Q 1023.876404 98.292716 1023.876404 72.754357 
Q 1023.876404 47.124379 1025.524727 32.213642 
Q 1027.173049 17.28 1029.995287 17.28 
Q 1030.94168 17.28 1031.810619 19.295584 
Q 1032.679559 21.288263 1033.483146 25.227812 
L 1033.483146 47.330518 
Q 1032.672297 42.108325 1031.885653 39.680463 
Q 1031.099009 37.252601 1030.23007 37.252601 
Q 1028.671304 37.252601 1027.77816 46.712101 
Q 1026.887437 56.148697 1026.887437 72.754357 
Q 1026.887437 89.291303 1027.77816 98.750804 
Q 1028.671304 108.187399 1030.23007 108.187399 
Q 1031.099009 108.187399 1031.885653 105.759537 
Q 1032.672297 103.308771 1033.483146 98.086577 
L 1033.483146 120.212188 
z
" clip-path="url(#p3554b8677d)" style="fill: #6b296b"/>
   </g>
   <g id="patch_83">
    <path d="M 1039.048315 111.578719 
L 1038.860183 111.578719 
Q 1036.552563 111.578719 1035.269663 99.152512 
Q 1033.988764 86.706798 1033.988764 64.526897 
Q 1033.988764 42.38601 1035.267662 29.842759 
Q 1036.546559 17.28 1038.792135 17.28 
Q 1041.061728 17.28 1042.328617 29.725714 
Q 1043.595506 42.151921 1043.595506 64.526897 
Q 1043.595506 79.879212 1042.923034 90.978916 
Q 1042.250562 102.078621 1040.987676 107.677241 
L 1042.868996 128.16 
L 1040.573385 128.16 
L 1039.048315 111.578719 
z
M 1038.792135 34.290443 
Q 1037.691362 34.290443 1037.084937 42.210443 
Q 1036.478511 50.130443 1036.478511 64.526897 
Q 1036.478511 79.157438 1037.070927 86.940887 
Q 1037.665344 94.704828 1038.792135 94.704828 
Q 1039.898912 94.704828 1040.505337 86.784828 
Q 1041.111763 78.84532 1041.111763 64.526897 
Q 1041.111763 50.130443 1040.505337 42.210443 
Q 1039.898912 34.290443 1038.792135 34.290443 
z
" clip-path="url(#p3554b8677d)" style="fill: #40ba47"/>
   </g>
   <g id="patch_84">
    <path d="M 1044.101124 17.28 
L 1046.93502 17.28 
L 1048.900792 76.617197 
L 1050.879522 17.28 
L 1053.707865 17.28 
L 1053.707865 128.16 
L 1051.603267 128.16 
L 1051.603267 47.055534 
L 1049.613431 106.844235 
L 1048.201111 106.844235 
L 1046.211275 47.055534 
L 1046.211275 128.16 
L 1044.101124 128.16 
L 1044.101124 17.28 
z
" clip-path="url(#p3554b8677d)" style="fill: #21599c"/>
   </g>
   <g id="patch_85">
    <path d="M 1054.213483 17.28 
L 1063.620265 17.28 
L 1063.620265 38.904689 
L 1057.699731 38.904689 
L 1057.699731 59.531316 
L 1063.269612 59.531316 
L 1063.269612 81.156005 
L 1057.699731 81.156005 
L 1057.699731 106.559074 
L 1063.820225 106.559074 
L 1063.820225 128.16 
L 1054.213483 128.16 
L 1054.213483 17.28 
z
" clip-path="url(#p3554b8677d)" style="fill: #6b296b"/>
   </g>
   <g id="patch_86">
    <path d="M 1073.932584 118.127891 
Q 1072.963729 123.143945 1071.921671 125.663425 
Q 1070.879613 128.16 1069.768658 128.16 
Q 1067.258246 128.16 1065.792044 113.226358 
Q 1064.325843 98.292716 1064.325843 72.754357 
Q 1064.325843 46.91824 1065.81788 32.09912 
Q 1067.312071 17.28 1069.910757 17.28 
Q 1070.911908 17.28 1071.829091 19.295584 
Q 1072.748427 21.288263 1073.562266 25.227812 
L 1073.562266 47.330518 
Q 1072.722591 42.268655 1071.891528 39.77208 
Q 1071.060466 37.252601 1070.225097 37.252601 
Q 1068.679234 37.252601 1067.841712 46.460153 
Q 1067.00419 55.644801 1067.00419 72.754357 
Q 1067.00419 89.703582 1067.81157 98.956943 
Q 1068.61895 108.187399 1070.104528 108.187399 
Q 1070.509294 108.187399 1070.855929 107.660599 
Q 1071.202564 107.110894 1071.47815 105.965677 
L 1071.47815 85.214328 
L 1069.895686 85.214328 
L 1069.895686 66.73051 
L 1073.932584 66.73051 
L 1073.932584 118.127891 
z
" clip-path="url(#p3554b8677d)" style="fill: #787800"/>
   </g>
   <g id="patch_87">
    <path d="M 1078.336094 66.446464 
Q 1079.198238 66.446464 1079.572289 63.119589 
Q 1079.946341 59.76895 1079.946341 52.117137 
Q 1079.946341 44.536614 1079.572289 41.281029 
Q 1079.198238 38.00168 1078.336094 38.00168 
L 1077.182008 38.00168 
L 1077.182008 66.446464 
L 1078.336094 66.446464 
z
M 1077.182008 86.193845 
L 1077.182008 128.16 
L 1074.438202 128.16 
L 1074.438202 17.28 
L 1078.628037 17.28 
Q 1080.730937 17.28 1081.709402 24.646652 
Q 1082.690147 31.989541 1082.690147 47.887252 
Q 1082.690147 58.865941 1082.179247 65.923669 
Q 1081.670628 72.981397 1080.644267 76.332036 
Q 1081.207625 77.662786 1081.652382 82.391702 
Q 1082.099419 87.096854 1082.55558 96.673502 
L 1084.044944 128.16 
L 1081.123235 128.16 
L 1079.825459 100.618225 
Q 1079.43316 92.301037 1079.029458 89.259323 
Q 1078.628037 86.193845 1077.957481 86.193845 
L 1077.182008 86.193845 
z
" clip-path="url(#p3554b8677d)" style="fill: #bd2e1f"/>
   </g>
   <g id="patch_88">
    <path d="M 1088.448454 66.446464 
Q 1089.310597 66.446464 1089.684649 63.119589 
Q 1090.058701 59.76895 1090.058701 52.117137 
Q 1090.058701 44.536614 1089.684649 41.281029 
Q 1089.310597 38.00168 1088.448454 38.00168 
L 1087.294368 38.00168 
L 1087.294368 66.446464 
L 1088.448454 66.446464 
z
M 1087.294368 86.193845 
L 1087.294368 128.16 
L 1084.550562 128.16 
L 1084.550562 17.28 
L 1088.740397 17.28 
Q 1090.843297 17.28 1091.821761 24.646652 
Q 1092.802506 31.989541 1092.802506 47.887252 
Q 1092.802506 58.865941 1092.291607 65.923669 
Q 1091.782988 72.981397 1090.756626 76.332036 
Q 1091.319985 77.662786 1091.764741 82.391702 
Q 1092.211779 87.096854 1092.667939 96.673502 
L 1094.157303 128.16 
L 1091.235595 128.16 
L 1089.937818 100.618225 
Q 1089.54552 92.301037 1089.141818 89.259323 
Q 1088.740397 86.193845 1088.069841 86.193845 
L 1087.294368 86.193845 
z
" clip-path="url(#p3554b8677d)" style="fill: #bd2e1f"/>
   </g>
   <g id="patch_89">
    <path d="M 1094.662921 17.28 
L 1096.324075 17.28 
L 1097.485298 97.861672 
L 1098.637876 17.28 
L 1100.307674 17.28 
L 1101.460253 97.861672 
L 1102.622916 17.28 
L 1104.269663 17.28 
L 1102.684868 128.16 
L 1100.686585 128.16 
L 1099.466292 43.871239 
L 1098.260407 128.16 
L 1096.260683 128.16 
L 1094.662921 17.28 
z
" clip-path="url(#p3554b8677d)" style="fill: #21599c"/>
   </g>
   <g id="patch_90">
    <path d="M 1111.429879 107.961114 
L 1107.735281 107.961114 
L 1107.151923 128.16 
L 1104.775281 128.16 
L 1108.169362 17.28 
L 1110.987942 17.28 
L 1114.382022 128.16 
L 1112.007344 128.16 
L 1111.429879 107.961114 
z
M 1108.324531 87.382015 
L 1110.834737 87.382015 
L 1109.581598 43.277154 
L 1108.324531 87.382015 
z
" clip-path="url(#p3554b8677d)" style="fill: #21599c"/>
   </g>
   <g id="patch_91">
    <path d="M 1114.88764 17.28 
L 1124.494382 17.28 
L 1124.494382 38.904689 
L 1121.038189 38.904689 
L 1121.038189 128.16 
L 1118.350536 128.16 
L 1118.350536 38.904689 
L 1114.88764 38.904689 
L 1114.88764 17.28 
z
" clip-path="url(#p3554b8677d)" style="fill: #40ba47"/>
   </g>
   <g id="patch_92">
    <path d="M 1125 17.28 
L 1128.486247 17.28 
L 1128.486247 106.559074 
L 1134.606742 106.559074 
L 1134.606742 128.16 
L 1125 128.16 
L 1125 17.28 
z
" clip-path="url(#p3554b8677d)" style="fill: #21599c"/>
   </g>
   <g id="patch_93">
    <path d="M 1135.11236 17.28 
L 1144.519142 17.28 
L 1144.519142 38.904689 
L 1138.598607 38.904689 
L 1138.598607 59.531316 
L 1144.168488 59.531316 
L 1144.168488 81.156005 
L 1138.598607 81.156005 
L 1138.598607 106.559074 
L 1144.719101 106.559074 
L 1144.719101 128.16 
L 1135.11236 128.16 
L 1135.11236 17.28 
z
" clip-path="url(#p3554b8677d)" style="fill: #6b296b"/>
   </g>
   <g id="patch_94">
    <path d="M 1154.831461 118.127891 
Q 1153.862605 123.143945 1152.820547 125.663425 
Q 1151.778489 128.16 1150.667535 128.16 
Q 1148.157122 128.16 1146.690921 113.226358 
Q 1145.224719 98.292716 1145.224719 72.754357 
Q 1145.224719 46.91824 1146.716757 32.09912 
Q 1148.210947 17.28 1150.809633 17.28 
Q 1151.810784 17.28 1152.727968 19.295584 
Q 1153.647304 21.288263 1154.461143 25.227812 
L 1154.461143 47.330518 
Q 1153.621468 42.268655 1152.790405 39.77208 
Q 1151.959342 37.252601 1151.123973 37.252601 
Q 1149.57811 37.252601 1148.740588 46.460153 
Q 1147.903067 55.644801 1147.903067 72.754357 
Q 1147.903067 89.703582 1148.710446 98.956943 
Q 1149.517826 108.187399 1151.003405 108.187399 
Q 1151.408171 108.187399 1151.754806 107.660599 
Q 1152.101441 107.110894 1152.377026 105.965677 
L 1152.377026 85.214328 
L 1150.794562 85.214328 
L 1150.794562 66.73051 
L 1154.831461 66.73051 
L 1154.831461 118.127891 
z
" clip-path="url(#p3554b8677d)" style="fill: #787800"/>
   </g>
   <g id="patch_95">
    <path d="M 1159.234971 66.446464 
Q 1160.097114 66.446464 1160.471166 63.119589 
Q 1160.845218 59.76895 1160.845218 52.117137 
Q 1160.845218 44.536614 1160.471166 41.281029 
Q 1160.097114 38.00168 1159.234971 38.00168 
L 1158.080884 38.00168 
L 1158.080884 66.446464 
L 1159.234971 66.446464 
z
M 1158.080884 86.193845 
L 1158.080884 128.16 
L 1155.337079 128.16 
L 1155.337079 17.28 
L 1159.526913 17.28 
Q 1161.629814 17.28 1162.608278 24.646652 
Q 1163.589023 31.989541 1163.589023 47.887252 
Q 1163.589023 58.865941 1163.078123 65.923669 
Q 1162.569504 72.981397 1161.543143 76.332036 
Q 1162.106501 77.662786 1162.551258 82.391702 
Q 1162.998295 87.096854 1163.454456 96.673502 
L 1164.94382 128.16 
L 1162.022112 128.16 
L 1160.724335 100.618225 
Q 1160.332037 92.301037 1159.928335 89.259323 
Q 1159.526913 86.193845 1158.856357 86.193845 
L 1158.080884 86.193845 
z
" clip-path="url(#p3554b8677d)" style="fill: #bd2e1f"/>
   </g>
   <g id="patch_96">
    <path d="M 1172.104037 107.961114 
L 1168.409438 107.961114 
L 1167.82608 128.16 
L 1165.449438 128.16 
L 1168.843519 17.28 
L 1171.662099 17.28 
L 1175.05618 128.16 
L 1172.681502 128.16 
L 1172.104037 107.961114 
z
M 1168.998688 87.382015 
L 1171.508894 87.382015 
L 1170.255755 43.277154 
L 1168.998688 87.382015 
z
" clip-path="url(#p3554b8677d)" style="fill: #21599c"/>
   </g>
   <g id="patch_97">
    <path d="M 1175.661777 17.28 
L 1185.06856 17.28 
L 1185.06856 38.904689 
L 1179.148025 38.904689 
L 1179.148025 59.531316 
L 1184.717906 59.531316 
L 1184.717906 81.156005 
L 1179.148025 81.156005 
L 1179.148025 128.16 
L 1175.661777 128.16 
L 1175.661777 17.28 
z
" clip-path="url(#p3554b8677d)" style="fill: #21599c"/>
   </g>
   <g id="patch_98">
    <path d="M 1185.674157 17.28 
L 1188.0508 17.28 
L 1190.480474 99.121132 
L 1192.906221 17.28 
L 1195.280899 17.28 
L 1191.886818 128.16 
L 1189.068238 128.16 
L 1185.674157 17.28 
z
" clip-path="url(#p3554b8677d)" style="fill: #21599c"/>
   </g>
   <g id="patch_99">
    <path d="M 1195.786517 17.28 
L 1198.550667 17.28 
L 1198.550667 59.531316 
L 1202.629109 59.531316 
L 1202.629109 17.28 
L 1205.393258 17.28 
L 1205.393258 128.16 
L 1202.629109 128.16 
L 1202.629109 81.156005 
L 1198.550667 81.156005 
L 1198.550667 128.16 
L 1195.786517 128.16 
L 1195.786517 17.28 
z
" clip-path="url(#p3554b8677d)" style="fill: #177875"/>
   </g>
   <g id="patch_100">
    <path d="M 1214.704621 22.570907 
L 1214.704621 45.200413 
Q 1213.702723 41.260863 1212.747789 39.268184 
Q 1211.795464 37.252601 1210.947503 37.252601 
Q 1209.822977 37.252601 1209.282892 39.978219 
Q 1208.745415 42.680934 1208.745415 48.407023 
Q 1208.745415 52.713043 1209.108081 55.118 
Q 1209.470747 57.500054 1210.425682 59.217881 
L 1211.761546 61.57703 
Q 1213.791433 65.173014 1214.647221 72.479504 
Q 1215.505618 79.76309 1215.505618 93.230853 
Q 1215.505618 110.890114 1214.310646 119.525057 
Q 1213.115674 128.16 1210.660501 128.16 
Q 1209.504666 128.16 1208.338394 126.21313 
Q 1207.172122 124.289163 1206.00585 120.48704 
L 1206.00585 97.239116 
Q 1207.172122 102.667449 1208.260121 105.438876 
Q 1209.348119 108.187399 1210.360454 108.187399 
Q 1211.388443 108.187399 1211.933747 105.186928 
Q 1212.479051 102.163553 1212.479051 96.574889 
Q 1212.479051 91.581739 1212.108557 88.856121 
Q 1211.738064 86.130502 1210.629192 83.977492 
L 1209.413347 81.618343 
Q 1207.58697 78.18269 1206.741619 70.67006 
Q 1205.898876 63.15743 1205.898876 50.422607 
Q 1205.898876 34.458269 1207.072976 25.869134 
Q 1208.247075 17.28 1210.449164 17.28 
Q 1211.453671 17.28 1212.512969 18.608453 
Q 1213.572268 19.936906 1214.704621 22.570907 
z
" clip-path="url(#p3554b8677d)" style="fill: #40ba47"/>
   </g>
   <g id="patch_101">
    <path d="M 1216.011236 17.28 
L 1225.418018 17.28 
L 1225.418018 38.904689 
L 1219.497483 38.904689 
L 1219.497483 59.531316 
L 1225.067365 59.531316 
L 1225.067365 81.156005 
L 1219.497483 81.156005 
L 1219.497483 106.559074 
L 1225.617978 106.559074 
L 1225.617978 128.16 
L 1216.011236 128.16 
L 1216.011236 17.28 
z
" clip-path="url(#p3554b8677d)" style="fill: #6b296b"/>
   </g>
   <g id="patch_102">
    <path d="M 1226.123596 17.28 
L 1231.1171 17.28 
Q 1233.346164 17.28 1234.537 26.690304 
Q 1235.730337 36.076845 1235.730337 53.447887 
Q 1235.730337 70.913982 1234.537 80.300523 
Q 1233.346164 89.687064 1231.1171 89.687064 
L 1229.133208 89.687064 
L 1229.133208 128.16 
L 1226.123596 128.16 
L 1226.123596 17.28 
z
M 1229.133208 38.00168 
L 1229.133208 68.965384 
L 1230.796875 68.965384 
Q 1231.672489 68.965384 1232.150325 64.925607 
Q 1232.62816 60.885829 1232.62816 53.447887 
Q 1232.62816 46.033708 1232.150325 42.017694 
Q 1231.672489 38.00168 1230.796875 38.00168 
L 1229.133208 38.00168 
z
" clip-path="url(#p3554b8677d)" style="fill: #787800"/>
   </g>
   <g id="patch_103">
    <path d="M 1238.868509 38.904689 
L 1238.868509 106.559074 
L 1239.811676 106.559074 
Q 1241.424471 106.559074 1242.275729 97.861672 
Q 1243.129175 89.164269 1243.129175 72.601183 
Q 1243.129175 56.13315 1242.280105 47.530802 
Q 1241.433224 38.904689 1239.811676 38.904689 
L 1238.868509 38.904689 
z
M 1236.235955 17.28 
L 1239.01075 17.28 
Q 1241.336938 17.28 1242.474866 20.892036 
Q 1243.612795 24.480309 1244.426851 33.106421 
Q 1245.144621 40.615654 1245.492565 50.429936 
Q 1245.842697 60.220454 1245.842697 72.601183 
Q 1245.842697 85.172019 1245.492565 95.010064 
Q 1245.144621 104.84811 1244.426851 112.333579 
Q 1243.60623 120.959691 1242.45736 124.571727 
Q 1241.30849 128.16 1239.01075 128.16 
L 1236.235955 128.16 
L 1236.235955 17.28 
z
" clip-path="url(#p3554b8677d)" style="fill: #6b296b"/>
   </g>
   <g id="patch_104">
    <path d="M 1250.246207 66.446464 
Q 1251.10835 66.446464 1251.482402 63.119589 
Q 1251.856453 59.76895 1251.856453 52.117137 
Q 1251.856453 44.536614 1251.482402 41.281029 
Q 1251.10835 38.00168 1250.246207 38.00168 
L 1249.09212 38.00168 
L 1249.09212 66.446464 
L 1250.246207 66.446464 
z
M 1249.09212 86.193845 
L 1249.09212 128.16 
L 1246.348315 128.16 
L 1246.348315 17.28 
L 1250.538149 17.28 
Q 1252.64105 17.28 1253.619514 24.646652 
Q 1254.600259 31.989541 1254.600259 47.887252 
Q 1254.600259 58.865941 1254.089359 65.923669 
Q 1253.58074 72.981397 1252.554379 76.332036 
Q 1253.117737 77.662786 1253.562494 82.391702 
Q 1254.009531 87.096854 1254.465692 96.673502 
L 1255.955056 128.16 
L 1253.033348 128.16 
L 1251.735571 100.618225 
Q 1251.343273 92.301037 1250.939571 89.259323 
Q 1250.538149 86.193845 1249.867593 86.193845 
L 1249.09212 86.193845 
z
" clip-path="url(#p3554b8677d)" style="fill: #bd2e1f"/>
   </g>
   <g id="patch_105">
    <path d="M 1256.460674 17.28 
L 1258.837316 17.28 
L 1261.266991 99.121132 
L 1263.692738 17.28 
L 1266.067416 17.28 
L 1262.673335 128.16 
L 1259.854755 128.16 
L 1256.460674 17.28 
z
" clip-path="url(#p3554b8677d)" style="fill: #21599c"/>
   </g>
   <g id="patch_106">
    <path d="M 1273.227632 107.961114 
L 1269.533034 107.961114 
L 1268.949676 128.16 
L 1266.573034 128.16 
L 1269.967115 17.28 
L 1272.785694 17.28 
L 1276.179775 128.16 
L 1273.805097 128.16 
L 1273.227632 107.961114 
z
M 1270.122284 87.382015 
L 1272.632489 87.382015 
L 1271.379351 43.277154 
L 1270.122284 87.382015 
z
" clip-path="url(#p3554b8677d)" style="fill: #21599c"/>
   </g>
   <g id="patch_107">
    <path d="M 1276.685393 17.28 
L 1286.092176 17.28 
L 1286.092176 38.904689 
L 1280.171641 38.904689 
L 1280.171641 59.531316 
L 1285.741522 59.531316 
L 1285.741522 81.156005 
L 1280.171641 81.156005 
L 1280.171641 106.559074 
L 1286.292135 106.559074 
L 1286.292135 128.16 
L 1276.685393 128.16 
L 1276.685393 17.28 
z
" clip-path="url(#p3554b8677d)" style="fill: #6b296b"/>
   </g>
   <g id="patch_108">
    <path d="M 1293.452351 107.961114 
L 1289.757753 107.961114 
L 1289.174395 128.16 
L 1286.797753 128.16 
L 1290.191834 17.28 
L 1293.010414 17.28 
L 1296.404494 128.16 
L 1294.029816 128.16 
L 1293.452351 107.961114 
z
M 1290.347003 87.382015 
L 1292.857208 87.382015 
L 1291.60407 43.277154 
L 1290.347003 87.382015 
z
" clip-path="url(#p3554b8677d)" style="fill: #21599c"/>
   </g>
   <g id="patch_109">
    <path d="M 1296.910112 17.28 
L 1306.316895 17.28 
L 1306.316895 38.904689 
L 1300.39636 38.904689 
L 1300.39636 59.531316 
L 1305.966241 59.531316 
L 1305.966241 81.156005 
L 1300.39636 81.156005 
L 1300.39636 106.559074 
L 1306.516854 106.559074 
L 1306.516854 128.16 
L 1296.910112 128.16 
L 1296.910112 17.28 
z
" clip-path="url(#p3554b8677d)" style="fill: #6b296b"/>
   </g>
   <g id="patch_110">
    <path d="M 1310.920364 66.446464 
Q 1311.782507 66.446464 1312.156559 63.119589 
Q 1312.530611 59.76895 1312.530611 52.117137 
Q 1312.530611 44.536614 1312.156559 41.281029 
Q 1311.782507 38.00168 1310.920364 38.00168 
L 1309.766278 38.00168 
L 1309.766278 66.446464 
L 1310.920364 66.446464 
z
M 1309.766278 86.193845 
L 1309.766278 128.16 
L 1307.022472 128.16 
L 1307.022472 17.28 
L 1311.212307 17.28 
Q 1313.315207 17.28 1314.293671 24.646652 
Q 1315.274417 31.989541 1315.274417 47.887252 
Q 1315.274417 58.865941 1314.763517 65.923669 
Q 1314.254898 72.981397 1313.228536 76.332036 
Q 1313.791895 77.662786 1314.236651 82.391702 
Q 1314.683689 87.096854 1315.139849 96.673502 
L 1316.629213 128.16 
L 1313.707505 128.16 
L 1312.409728 100.618225 
Q 1312.01743 92.301037 1311.613728 89.259323 
Q 1311.212307 86.193845 1310.541751 86.193845 
L 1309.766278 86.193845 
z
" clip-path="url(#p3554b8677d)" style="fill: #bd2e1f"/>
   </g>
   <g id="patch_111">
    <path d="M 1321.032724 66.446464 
Q 1321.894867 66.446464 1322.268919 63.119589 
Q 1322.64297 59.76895 1322.64297 52.117137 
Q 1322.64297 44.536614 1322.268919 41.281029 
Q 1321.894867 38.00168 1321.032724 38.00168 
L 1319.878637 38.00168 
L 1319.878637 66.446464 
L 1321.032724 66.446464 
z
M 1319.878637 86.193845 
L 1319.878637 128.16 
L 1317.134831 128.16 
L 1317.134831 17.28 
L 1321.324666 17.28 
Q 1323.427567 17.28 1324.406031 24.646652 
Q 1325.386776 31.989541 1325.386776 47.887252 
Q 1325.386776 58.865941 1324.875876 65.923669 
Q 1324.367257 72.981397 1323.340896 76.332036 
Q 1323.904254 77.662786 1324.349011 82.391702 
Q 1324.796048 87.096854 1325.252209 96.673502 
L 1326.741573 128.16 
L 1323.819865 128.16 
L 1322.522088 100.618225 
Q 1322.12979 92.301037 1321.726088 89.259323 
Q 1321.324666 86.193845 1320.65411 86.193845 
L 1319.878637 86.193845 
z
" clip-path="url(#p3554b8677d)" style="fill: #bd2e1f"/>
   </g>
   <g id="patch_112">
    <path d="M 1327.247191 17.28 
L 1329.903173 17.28 
L 1332.048544 56.798526 
L 1334.191896 17.28 
L 1336.853933 17.28 
L 1333.265532 81.441166 
L 1333.265532 128.16 
L 1330.83761 128.16 
L 1330.83761 81.441166 
L 1327.247191 17.28 
z
" clip-path="url(#p3554b8677d)" style="fill: #177875"/>
   </g>
   <g id="patch_113">
    <path d="M 1344.014149 107.961114 
L 1340.31955 107.961114 
L 1339.736193 128.16 
L 1337.359551 128.16 
L 1340.753631 17.28 
L 1343.572211 17.28 
L 1346.966292 128.16 
L 1344.591614 128.16 
L 1344.014149 107.961114 
z
M 1340.908801 87.382015 
L 1343.419006 87.382015 
L 1342.165868 43.277154 
L 1340.908801 87.382015 
z
" clip-path="url(#p3554b8677d)" style="fill: #21599c"/>
   </g>
   <g id="patch_114">
    <path d="M 1347.47191 17.28 
L 1356.878692 17.28 
L 1356.878692 38.904689 
L 1350.958158 38.904689 
L 1350.958158 59.531316 
L 1356.528039 59.531316 
L 1356.528039 81.156005 
L 1350.958158 81.156005 
L 1350.958158 106.559074 
L 1357.078652 106.559074 
L 1357.078652 128.16 
L 1347.47191 128.16 
L 1347.47191 17.28 
z
" clip-path="url(#p3554b8677d)" style="fill: #6b296b"/>
   </g>
   <g id="patch_115">
    <path d="M 1361.482162 66.446464 
Q 1362.344305 66.446464 1362.718357 63.119589 
Q 1363.092409 59.76895 1363.092409 52.117137 
Q 1363.092409 44.536614 1362.718357 41.281029 
Q 1362.344305 38.00168 1361.482162 38.00168 
L 1360.328075 38.00168 
L 1360.328075 66.446464 
L 1361.482162 66.446464 
z
M 1360.328075 86.193845 
L 1360.328075 128.16 
L 1357.58427 128.16 
L 1357.58427 17.28 
L 1361.774104 17.28 
Q 1363.877005 17.28 1364.855469 24.646652 
Q 1365.836214 31.989541 1365.836214 47.887252 
Q 1365.836214 58.865941 1365.325315 65.923669 
Q 1364.816695 72.981397 1363.790334 76.332036 
Q 1364.353692 77.662786 1364.798449 82.391702 
Q 1365.245486 87.096854 1365.701647 96.673502 
L 1367.191011 128.16 
L 1364.269303 128.16 
L 1362.971526 100.618225 
Q 1362.579228 92.301037 1362.175526 89.259323 
Q 1361.774104 86.193845 1361.103548 86.193845 
L 1360.328075 86.193845 
z
" clip-path="url(#p3554b8677d)" style="fill: #bd2e1f"/>
   </g>
   <g id="patch_116">
    <path d="M 1367.696629 17.28 
L 1370.352611 17.28 
L 1372.497982 56.798526 
L 1374.641335 17.28 
L 1377.303371 17.28 
L 1373.71497 81.441166 
L 1373.71497 128.16 
L 1371.287048 128.16 
L 1371.287048 81.441166 
L 1367.696629 17.28 
z
" clip-path="url(#p3554b8677d)" style="fill: #177875"/>
   </g>
   <g id="patch_117">
    <path d="M 1387.41573 118.127891 
Q 1386.446875 123.143945 1385.404817 125.663425 
Q 1384.362759 128.16 1383.251804 128.16 
Q 1380.741392 128.16 1379.27519 113.226358 
Q 1377.808989 98.292716 1377.808989 72.754357 
Q 1377.808989 46.91824 1379.301026 32.09912 
Q 1380.795217 17.28 1383.393903 17.28 
Q 1384.395054 17.28 1385.312237 19.295584 
Q 1386.231573 21.288263 1387.045412 25.227812 
L 1387.045412 47.330518 
Q 1386.205737 42.268655 1385.374675 39.77208 
Q 1384.543612 37.252601 1383.708243 37.252601 
Q 1382.16238 37.252601 1381.324858 46.460153 
Q 1380.487336 55.644801 1380.487336 72.754357 
Q 1380.487336 89.703582 1381.294716 98.956943 
Q 1382.102096 108.187399 1383.587674 108.187399 
Q 1383.992441 108.187399 1384.339076 107.660599 
Q 1384.685711 107.110894 1384.961296 105.965677 
L 1384.961296 85.214328 
L 1383.378832 85.214328 
L 1383.378832 66.73051 
L 1387.41573 66.73051 
L 1387.41573 118.127891 
z
" clip-path="url(#p3554b8677d)" style="fill: #787800"/>
   </g>
   <g id="patch_118">
    <path d="M 1391.81924 66.446464 
Q 1392.681384 66.446464 1393.055436 63.119589 
Q 1393.429487 59.76895 1393.429487 52.117137 
Q 1393.429487 44.536614 1393.055436 41.281029 
Q 1392.681384 38.00168 1391.81924 38.00168 
L 1390.665154 38.00168 
L 1390.665154 66.446464 
L 1391.81924 66.446464 
z
M 1390.665154 86.193845 
L 1390.665154 128.16 
L 1387.921348 128.16 
L 1387.921348 17.28 
L 1392.111183 17.28 
Q 1394.214083 17.28 1395.192548 24.646652 
Q 1396.173293 31.989541 1396.173293 47.887252 
Q 1396.173293 58.865941 1395.662393 65.923669 
Q 1395.153774 72.981397 1394.127413 76.332036 
Q 1394.690771 77.662786 1395.135528 82.391702 
Q 1395.582565 87.096854 1396.038726 96.673502 
L 1397.52809 128.16 
L 1394.606381 128.16 
L 1393.308605 100.618225 
Q 1392.916307 92.301037 1392.512604 89.259323 
Q 1392.111183 86.193845 1391.440627 86.193845 
L 1390.665154 86.193845 
z
" clip-path="url(#p3554b8677d)" style="fill: #bd2e1f"/>
   </g>
   <g id="patch_119">
    <path d="M 1398.033708 17.28 
L 1407.640449 17.28 
L 1407.640449 38.904689 
L 1404.184257 38.904689 
L 1404.184257 128.16 
L 1401.496603 128.16 
L 1401.496603 38.904689 
L 1398.033708 38.904689 
L 1398.033708 17.28 
z
" clip-path="url(#p3554b8677d)" style="fill: #40ba47"/>
   </g>
   <g id="patch_120">
    <path d="M 1408.146067 17.28 
L 1413.139572 17.28 
Q 1415.368636 17.28 1416.559472 26.690304 
Q 1417.752809 36.076845 1417.752809 53.447887 
Q 1417.752809 70.913982 1416.559472 80.300523 
Q 1415.368636 89.687064 1413.139572 89.687064 
L 1411.155679 89.687064 
L 1411.155679 128.16 
L 1408.146067 128.16 
L 1408.146067 17.28 
z
M 1411.155679 38.00168 
L 1411.155679 68.965384 
L 1412.819347 68.965384 
Q 1413.694961 68.965384 1414.172797 64.925607 
Q 1414.650632 60.885829 1414.650632 53.447887 
Q 1414.650632 46.033708 1414.172797 42.017694 
Q 1413.694961 38.00168 1412.819347 38.00168 
L 1411.155679 38.00168 
z
" clip-path="url(#p3554b8677d)" style="fill: #787800"/>
   </g>
   <g id="patch_121">
    <path d="M 1427.064172 22.570907 
L 1427.064172 45.200413 
Q 1426.062274 41.260863 1425.10734 39.268184 
Q 1424.155015 37.252601 1423.307054 37.252601 
Q 1422.182528 37.252601 1421.642442 39.978219 
Q 1421.104966 42.680934 1421.104966 48.407023 
Q 1421.104966 52.713043 1421.467632 55.118 
Q 1421.830298 57.500054 1422.785232 59.217881 
L 1424.121096 61.57703 
Q 1426.150984 65.173014 1427.006771 72.479504 
Q 1427.865169 79.76309 1427.865169 93.230853 
Q 1427.865169 110.890114 1426.670196 119.525057 
Q 1425.475224 128.16 1423.020052 128.16 
Q 1421.864216 128.16 1420.697944 126.21313 
Q 1419.531672 124.289163 1418.3654 120.48704 
L 1418.3654 97.239116 
Q 1419.531672 102.667449 1420.619671 105.438876 
Q 1421.70767 108.187399 1422.720004 108.187399 
Q 1423.747994 108.187399 1424.293297 105.186928 
Q 1424.838601 102.163553 1424.838601 96.574889 
Q 1424.838601 91.581739 1424.468108 88.856121 
Q 1424.097614 86.130502 1422.988743 83.977492 
L 1421.772898 81.618343 
Q 1419.946521 78.18269 1419.101169 70.67006 
Q 1418.258427 63.15743 1418.258427 50.422607 
Q 1418.258427 34.458269 1419.432526 25.869134 
Q 1420.606626 17.28 1422.808714 17.28 
Q 1423.813221 17.28 1424.87252 18.608453 
Q 1425.931818 19.936906 1427.064172 22.570907 
z
" clip-path="url(#p3554b8677d)" style="fill: #40ba47"/>
   </g>
   <g id="patch_122">
    <path d="M 1428.370787 17.28 
L 1433.364291 17.28 
Q 1435.593355 17.28 1436.784191 26.690304 
Q 1437.977528 36.076845 1437.977528 53.447887 
Q 1437.977528 70.913982 1436.784191 80.300523 
Q 1435.593355 89.687064 1433.364291 89.687064 
L 1431.380399 89.687064 
L 1431.380399 128.16 
L 1428.370787 128.16 
L 1428.370787 17.28 
z
M 1431.380399 38.00168 
L 1431.380399 68.965384 
L 1433.044066 68.965384 
Q 1433.91968 68.965384 1434.397516 64.925607 
Q 1434.875351 60.885829 1434.875351 53.447887 
Q 1434.875351 46.033708 1434.397516 42.017694 
Q 1433.91968 38.00168 1433.044066 38.00168 
L 1431.380399 38.00168 
z
" clip-path="url(#p3554b8677d)" style="fill: #787800"/>
   </g>
   <g id="patch_123">
    <path d="M 1438.483146 17.28 
L 1441.568976 17.28 
L 1445.468196 93.322863 
L 1445.468196 17.28 
L 1448.089888 17.28 
L 1448.089888 128.16 
L 1445.00176 128.16 
L 1441.10254 52.117137 
L 1441.10254 128.16 
L 1438.483146 128.16 
L 1438.483146 17.28 
z
" clip-path="url(#p3554b8677d)" style="fill: #40ba47"/>
   </g>
   <g id="patch_124">
    <path d="M 1448.595506 17.28 
L 1453.58901 17.28 
Q 1455.818074 17.28 1457.00891 26.690304 
Q 1458.202247 36.076845 1458.202247 53.447887 
Q 1458.202247 70.913982 1457.00891 80.300523 
Q 1455.818074 89.687064 1453.58901 89.687064 
L 1451.605118 89.687064 
L 1451.605118 128.16 
L 1448.595506 128.16 
L 1448.595506 17.28 
z
M 1451.605118 38.00168 
L 1451.605118 68.965384 
L 1453.268785 68.965384 
Q 1454.1444 68.965384 1454.622235 64.925607 
Q 1455.10007 60.885829 1455.10007 53.447887 
Q 1455.10007 46.033708 1454.622235 42.017694 
Q 1454.1444 38.00168 1453.268785 38.00168 
L 1451.605118 38.00168 
z
" clip-path="url(#p3554b8677d)" style="fill: #787800"/>
   </g>
   <g id="patch_125">
    <path d="M 1465.362464 107.961114 
L 1461.667865 107.961114 
L 1461.084507 128.16 
L 1458.707865 128.16 
L 1462.101946 17.28 
L 1464.920526 17.28 
L 1468.314607 128.16 
L 1465.939929 128.16 
L 1465.362464 107.961114 
z
M 1462.257115 87.382015 
L 1464.767321 87.382015 
L 1463.514182 43.277154 
L 1462.257115 87.382015 
z
" clip-path="url(#p3554b8677d)" style="fill: #21599c"/>
   </g>
   <g id="patch_126">
    <path d="M 1472.718117 66.446464 
Q 1473.58026 66.446464 1473.954312 63.119589 
Q 1474.328364 59.76895 1474.328364 52.117137 
Q 1474.328364 44.536614 1473.954312 41.281029 
Q 1473.58026 38.00168 1472.718117 38.00168 
L 1471.564031 38.00168 
L 1471.564031 66.446464 
L 1472.718117 66.446464 
z
M 1471.564031 86.193845 
L 1471.564031 128.16 
L 1468.820225 128.16 
L 1468.820225 17.28 
L 1473.01006 17.28 
Q 1475.11296 17.28 1476.091424 24.646652 
Q 1477.072169 31.989541 1477.072169 47.887252 
Q 1477.072169 58.865941 1476.56127 65.923669 
Q 1476.052651 72.981397 1475.026289 76.332036 
Q 1475.589648 77.662786 1476.034404 82.391702 
Q 1476.481441 87.096854 1476.937602 96.673502 
L 1478.426966 128.16 
L 1475.505258 128.16 
L 1474.207481 100.618225 
Q 1473.815183 92.301037 1473.411481 89.259323 
Q 1473.01006 86.193845 1472.339504 86.193845 
L 1471.564031 86.193845 
z
" clip-path="url(#p3554b8677d)" style="fill: #bd2e1f"/>
   </g>
   <g id="patch_127">
    <path d="M 1478.932584 17.28 
L 1481.309227 17.28 
L 1483.738901 99.121132 
L 1486.164648 17.28 
L 1488.539326 17.28 
L 1485.145245 128.16 
L 1482.326665 128.16 
L 1478.932584 17.28 
z
" clip-path="url(#p3554b8677d)" style="fill: #21599c"/>
   </g>
   <g id="patch_128">
    <path d="M 1489.044944 17.28 
L 1491.421586 17.28 
L 1493.851261 99.121132 
L 1496.277007 17.28 
L 1498.651685 17.28 
L 1495.257605 128.16 
L 1492.439025 128.16 
L 1489.044944 17.28 
z
" clip-path="url(#p3554b8677d)" style="fill: #21599c"/>
   </g>
   <g id="patch_129">
    <path d="M 1502.21755 17.28 
L 1505.703798 17.28 
L 1505.703798 128.16 
L 1502.21755 128.16 
L 1502.21755 17.28 
z
" clip-path="url(#p3554b8677d)" style="fill: #21599c"/>
   </g>
   <g id="patch_130">
    <path d="M 1509.269663 17.28 
L 1518.676445 17.28 
L 1518.676445 38.904689 
L 1512.75591 38.904689 
L 1512.75591 59.531316 
L 1518.325792 59.531316 
L 1518.325792 81.156005 
L 1512.75591 81.156005 
L 1512.75591 106.559074 
L 1518.876404 106.559074 
L 1518.876404 128.16 
L 1509.269663 128.16 
L 1509.269663 17.28 
z
" clip-path="url(#p3554b8677d)" style="fill: #6b296b"/>
   </g>
   <g id="patch_131">
    <path d="M 1522.44227 17.28 
L 1525.928517 17.28 
L 1525.928517 128.16 
L 1522.44227 128.16 
L 1522.44227 17.28 
z
" clip-path="url(#p3554b8677d)" style="fill: #21599c"/>
   </g>
   <g id="patch_132">
    <path d="M 1529.494382 17.28 
L 1532.026016 17.28 
L 1532.026016 57.749061 
L 1535.675105 17.28 
L 1538.614999 17.28 
L 1533.886336 69.797102 
L 1539.101124 128.16 
L 1535.931846 128.16 
L 1532.026016 84.48288 
L 1532.026016 128.16 
L 1529.494382 128.16 
L 1529.494382 17.28 
z
" clip-path="url(#p3554b8677d)" style="fill: #bd2e1f"/>
   </g>
   <g id="patch_133">
    <path d="M 1539.606742 17.28 
L 1543.092989 17.28 
L 1543.092989 106.559074 
L 1549.213483 106.559074 
L 1549.213483 128.16 
L 1539.606742 128.16 
L 1539.606742 17.28 
z
" clip-path="url(#p3554b8677d)" style="fill: #21599c"/>
   </g>
   <g id="patch_134">
    <path d="M 1549.719101 17.28 
L 1559.325843 17.28 
L 1559.325843 38.904689 
L 1555.86965 38.904689 
L 1555.86965 128.16 
L 1553.181996 128.16 
L 1553.181996 38.904689 
L 1549.719101 38.904689 
L 1549.719101 17.28 
z
" clip-path="url(#p3554b8677d)" style="fill: #40ba47"/>
   </g>
   <g id="patch_135">
    <path d="M 1563.729353 66.446464 
Q 1564.591496 66.446464 1564.965548 63.119589 
Q 1565.3396 59.76895 1565.3396 52.117137 
Q 1565.3396 44.536614 1564.965548 41.281029 
Q 1564.591496 38.00168 1563.729353 38.00168 
L 1562.575266 38.00168 
L 1562.575266 66.446464 
L 1563.729353 66.446464 
z
M 1562.575266 86.193845 
L 1562.575266 128.16 
L 1559.831461 128.16 
L 1559.831461 17.28 
L 1564.021295 17.28 
Q 1566.124196 17.28 1567.10266 24.646652 
Q 1568.083405 31.989541 1568.083405 47.887252 
Q 1568.083405 58.865941 1567.572506 65.923669 
Q 1567.063886 72.981397 1566.037525 76.332036 
Q 1566.600884 77.662786 1567.04564 82.391702 
Q 1567.492677 87.096854 1567.948838 96.673502 
L 1569.438202 128.16 
L 1566.516494 128.16 
L 1565.218717 100.618225 
Q 1564.826419 92.301037 1564.422717 89.259323 
Q 1564.021295 86.193845 1563.350739 86.193845 
L 1562.575266 86.193845 
z
" clip-path="url(#p3554b8677d)" style="fill: #bd2e1f"/>
   </g>
   <g id="patch_136">
    <path d="M 1576.598419 107.961114 
L 1572.90382 107.961114 
L 1572.320462 128.16 
L 1569.94382 128.16 
L 1573.337901 17.28 
L 1576.156481 17.28 
L 1579.550562 128.16 
L 1577.175884 128.16 
L 1576.598419 107.961114 
z
M 1573.49307 87.382015 
L 1576.003276 87.382015 
L 1574.750137 43.277154 
L 1573.49307 87.382015 
z
" clip-path="url(#p3554b8677d)" style="fill: #21599c"/>
   </g>
   <g id="patch_137">
    <path d="M 1580.05618 17.28 
L 1582.890076 17.28 
L 1584.855849 76.617197 
L 1586.834578 17.28 
L 1589.662921 17.28 
L 1589.662921 128.16 
L 1587.558323 128.16 
L 1587.558323 47.055534 
L 1585.568487 106.844235 
L 1584.156167 106.844235 
L 1582.166331 47.055534 
L 1582.166331 128.16 
L 1580.05618 128.16 
L 1580.05618 17.28 
z
" clip-path="url(#p3554b8677d)" style="fill: #21599c"/>
   </g>
   <g id="patch_138">
    <path d="M 1599.775281 118.127891 
Q 1598.806425 123.143945 1597.764367 125.663425 
Q 1596.722309 128.16 1595.611355 128.16 
Q 1593.100942 128.16 1591.634741 113.226358 
Q 1590.168539 98.292716 1590.168539 72.754357 
Q 1590.168539 46.91824 1591.660577 32.09912 
Q 1593.154768 17.28 1595.753454 17.28 
Q 1596.754604 17.28 1597.671788 19.295584 
Q 1598.591124 21.288263 1599.404963 25.227812 
L 1599.404963 47.330518 
Q 1598.565288 42.268655 1597.734225 39.77208 
Q 1596.903162 37.252601 1596.067793 37.252601 
Q 1594.521931 37.252601 1593.684409 46.460153 
Q 1592.846887 55.644801 1592.846887 72.754357 
Q 1592.846887 89.703582 1593.654266 98.956943 
Q 1594.461646 108.187399 1595.947225 108.187399 
Q 1596.351991 108.187399 1596.698626 107.660599 
Q 1597.045261 107.110894 1597.320847 105.965677 
L 1597.320847 85.214328 
L 1595.738383 85.214328 
L 1595.738383 66.73051 
L 1599.775281 66.73051 
L 1599.775281 118.127891 
z
" clip-path="url(#p3554b8677d)" style="fill: #787800"/>
   </g>
   <g id="patch_139">
    <path d="M 1604.178791 66.446464 
Q 1605.040934 66.446464 1605.414986 63.119589 
Q 1605.789038 59.76895 1605.789038 52.117137 
Q 1605.789038 44.536614 1605.414986 41.281029 
Q 1605.040934 38.00168 1604.178791 38.00168 
L 1603.024705 38.00168 
L 1603.024705 66.446464 
L 1604.178791 66.446464 
z
M 1603.024705 86.193845 
L 1603.024705 128.16 
L 1600.280899 128.16 
L 1600.280899 17.28 
L 1604.470734 17.28 
Q 1606.573634 17.28 1607.552098 24.646652 
Q 1608.532844 31.989541 1608.532844 47.887252 
Q 1608.532844 58.865941 1608.021944 65.923669 
Q 1607.513325 72.981397 1606.486963 76.332036 
Q 1607.050322 77.662786 1607.495078 82.391702 
Q 1607.942116 87.096854 1608.398276 96.673502 
L 1609.88764 128.16 
L 1606.965932 128.16 
L 1605.668155 100.618225 
Q 1605.275857 92.301037 1604.872155 89.259323 
Q 1604.470734 86.193845 1603.800178 86.193845 
L 1603.024705 86.193845 
z
" clip-path="url(#p3554b8677d)" style="fill: #bd2e1f"/>
   </g>
   <g id="patch_140">
    <path d="M 1620 118.127891 
Q 1619.031144 123.143945 1617.989086 125.663425 
Q 1616.947028 128.16 1615.836074 128.16 
Q 1613.325661 128.16 1611.85946 113.226358 
Q 1610.393258 98.292716 1610.393258 72.754357 
Q 1610.393258 46.91824 1611.885296 32.09912 
Q 1613.379487 17.28 1615.978173 17.28 
Q 1616.979324 17.28 1617.896507 19.295584 
Q 1618.815843 21.288263 1619.629682 25.227812 
L 1619.629682 47.330518 
Q 1618.790007 42.268655 1617.958944 39.77208 
Q 1617.127881 37.252601 1616.292513 37.252601 
Q 1614.74665 37.252601 1613.909128 46.460153 
Q 1613.071606 55.644801 1613.071606 72.754357 
Q 1613.071606 89.703582 1613.878986 98.956943 
Q 1614.686365 108.187399 1616.171944 108.187399 
Q 1616.57671 108.187399 1616.923345 107.660599 
Q 1617.26998 107.110894 1617.545566 105.965677 
L 1617.545566 85.214328 
L 1615.963102 85.214328 
L 1615.963102 66.73051 
L 1620 66.73051 
L 1620 118.127891 
z
" clip-path="url(#p3554b8677d)" style="fill: #787800"/>
   </g>
   <g id="matplotlib.axis_1">
    <g id="xtick_1">
     <g id="line2d_2">
      <defs>
       <path id="m1cca2d89fe" d="M 0 0 
L 0 3.5 
" style="stroke: #000000; stroke-width: 0.8"/>
      </defs>
      <g>
       <use xlink:href="#m1cca2d89fe" x="229.803371" y="128.16" style="stroke: #000000; stroke-width: 0.8"/>
      </g>
     </g>
     <g id="text_1">
      <!-- 0 -->
      <g transform="translate(226.622121 142.758438) scale(0.1 -0.1)">
       <defs>
        <path id="DejaVuSans-30" d="M 2034 4250 
Q 1547 4250 1301 3770 
Q 1056 3291 1056 2328 
Q 1056 1369 1301 889 
Q 1547 409 2034 409 
Q 2525 409 2770 889 
Q 3016 1369 3016 2328 
Q 3016 3291 2770 3770 
Q 2525 4250 2034 4250 
z
M 2034 4750 
Q 2819 4750 3233 4129 
Q 3647 3509 3647 2328 
Q 3647 1150 3233 529 
Q 2819 -91 2034 -91 
Q 1250 -91 836 529 
Q 422 1150 422 2328 
Q 422 3509 836 4129 
Q 1250 4750 2034 4750 
z
" transform="scale(0.015625)"/>
       </defs>
       <use xlink:href="#DejaVuSans-30"/>
      </g>
     </g>
    </g>
    <g id="xtick_2">
     <g id="line2d_3">
      <g>
       <use xlink:href="#m1cca2d89fe" x="432.050562" y="128.16" style="stroke: #000000; stroke-width: 0.8"/>
      </g>
     </g>
     <g id="text_2">
      <!-- 20 -->
      <g transform="translate(425.688062 142.758438) scale(0.1 -0.1)">
       <defs>
        <path id="DejaVuSans-32" d="M 1228 531 
L 3431 531 
L 3431 0 
L 469 0 
L 469 531 
Q 828 903 1448 1529 
Q 2069 2156 2228 2338 
Q 2531 2678 2651 2914 
Q 2772 3150 2772 3378 
Q 2772 3750 2511 3984 
Q 2250 4219 1831 4219 
Q 1534 4219 1204 4116 
Q 875 4013 500 3803 
L 500 4441 
Q 881 4594 1212 4672 
Q 1544 4750 1819 4750 
Q 2544 4750 2975 4387 
Q 3406 4025 3406 3419 
Q 3406 3131 3298 2873 
Q 3191 2616 2906 2266 
Q 2828 2175 2409 1742 
Q 1991 1309 1228 531 
z
" transform="scale(0.015625)"/>
       </defs>
       <use xlink:href="#DejaVuSans-32"/>
       <use xlink:href="#DejaVuSans-30" x="63.623047"/>
      </g>
     </g>
    </g>
    <g id="xtick_3">
     <g id="line2d_4">
      <g>
       <use xlink:href="#m1cca2d89fe" x="634.297753" y="128.16" style="stroke: #000000; stroke-width: 0.8"/>
      </g>
     </g>
     <g id="text_3">
      <!-- 40 -->
      <g transform="translate(627.935253 142.758438) scale(0.1 -0.1)">
       <defs>
        <path id="DejaVuSans-34" d="M 2419 4116 
L 825 1625 
L 2419 1625 
L 2419 4116 
z
M 2253 4666 
L 3047 4666 
L 3047 1625 
L 3713 1625 
L 3713 1100 
L 3047 1100 
L 3047 0 
L 2419 0 
L 2419 1100 
L 313 1100 
L 313 1709 
L 2253 4666 
z
" transform="scale(0.015625)"/>
       </defs>
       <use xlink:href="#DejaVuSans-34"/>
       <use xlink:href="#DejaVuSans-30" x="63.623047"/>
      </g>
     </g>
    </g>
    <g id="xtick_4">
     <g id="line2d_5">
      <g>
       <use xlink:href="#m1cca2d89fe" x="836.544944" y="128.16" style="stroke: #000000; stroke-width: 0.8"/>
      </g>
     </g>
     <g id="text_4">
      <!-- 60 -->
      <g transform="translate(830.182444 142.758438) scale(0.1 -0.1)">
       <defs>
        <path id="DejaVuSans-36" d="M 2113 2584 
Q 1688 2584 1439 2293 
Q 1191 2003 1191 1497 
Q 1191 994 1439 701 
Q 1688 409 2113 409 
Q 2538 409 2786 701 
Q 3034 994 3034 1497 
Q 3034 2003 2786 2293 
Q 2538 2584 2113 2584 
z
M 3366 4563 
L 3366 3988 
Q 3128 4100 2886 4159 
Q 2644 4219 2406 4219 
Q 1781 4219 1451 3797 
Q 1122 3375 1075 2522 
Q 1259 2794 1537 2939 
Q 1816 3084 2150 3084 
Q 2853 3084 3261 2657 
Q 3669 2231 3669 1497 
Q 3669 778 3244 343 
Q 2819 -91 2113 -91 
Q 1303 -91 875 529 
Q 447 1150 447 2328 
Q 447 3434 972 4092 
Q 1497 4750 2381 4750 
Q 2619 4750 2861 4703 
Q 3103 4656 3366 4563 
z
" transform="scale(0.015625)"/>
       </defs>
       <use xlink:href="#DejaVuSans-36"/>
       <use xlink:href="#DejaVuSans-30" x="63.623047"/>
      </g>
     </g>
    </g>
    <g id="xtick_5">
     <g id="line2d_6">
      <g>
       <use xlink:href="#m1cca2d89fe" x="1038.792135" y="128.16" style="stroke: #000000; stroke-width: 0.8"/>
      </g>
     </g>
     <g id="text_5">
      <!-- 80 -->
      <g transform="translate(1032.429635 142.758438) scale(0.1 -0.1)">
       <defs>
        <path id="DejaVuSans-38" d="M 2034 2216 
Q 1584 2216 1326 1975 
Q 1069 1734 1069 1313 
Q 1069 891 1326 650 
Q 1584 409 2034 409 
Q 2484 409 2743 651 
Q 3003 894 3003 1313 
Q 3003 1734 2745 1975 
Q 2488 2216 2034 2216 
z
M 1403 2484 
Q 997 2584 770 2862 
Q 544 3141 544 3541 
Q 544 4100 942 4425 
Q 1341 4750 2034 4750 
Q 2731 4750 3128 4425 
Q 3525 4100 3525 3541 
Q 3525 3141 3298 2862 
Q 3072 2584 2669 2484 
Q 3125 2378 3379 2068 
Q 3634 1759 3634 1313 
Q 3634 634 3220 271 
Q 2806 -91 2034 -91 
Q 1263 -91 848 271 
Q 434 634 434 1313 
Q 434 1759 690 2068 
Q 947 2378 1403 2484 
z
M 1172 3481 
Q 1172 3119 1398 2916 
Q 1625 2713 2034 2713 
Q 2441 2713 2670 2916 
Q 2900 3119 2900 3481 
Q 2900 3844 2670 4047 
Q 2441 4250 2034 4250 
Q 1625 4250 1398 4047 
Q 1172 3844 1172 3481 
z
" transform="scale(0.015625)"/>
       </defs>
       <use xlink:href="#DejaVuSans-38"/>
       <use xlink:href="#DejaVuSans-30" x="63.623047"/>
      </g>
     </g>
    </g>
    <g id="xtick_6">
     <g id="line2d_7">
      <g>
       <use xlink:href="#m1cca2d89fe" x="1241.039326" y="128.16" style="stroke: #000000; stroke-width: 0.8"/>
      </g>
     </g>
     <g id="text_6">
      <!-- 100 -->
      <g transform="translate(1231.495576 142.758438) scale(0.1 -0.1)">
       <defs>
        <path id="DejaVuSans-31" d="M 794 531 
L 1825 531 
L 1825 4091 
L 703 3866 
L 703 4441 
L 1819 4666 
L 2450 4666 
L 2450 531 
L 3481 531 
L 3481 0 
L 794 0 
L 794 531 
z
" transform="scale(0.015625)"/>
       </defs>
       <use xlink:href="#DejaVuSans-31"/>
       <use xlink:href="#DejaVuSans-30" x="63.623047"/>
       <use xlink:href="#DejaVuSans-30" x="127.246094"/>
      </g>
     </g>
    </g>
    <g id="xtick_7">
     <g id="line2d_8">
      <g>
       <use xlink:href="#m1cca2d89fe" x="1443.286517" y="128.16" style="stroke: #000000; stroke-width: 0.8"/>
      </g>
     </g>
     <g id="text_7">
      <!-- 120 -->
      <g transform="translate(1433.742767 142.758438) scale(0.1 -0.1)">
       <use xlink:href="#DejaVuSans-31"/>
       <use xlink:href="#DejaVuSans-32" x="63.623047"/>
       <use xlink:href="#DejaVuSans-30" x="127.246094"/>
      </g>
     </g>
    </g>
   </g>
   <g id="matplotlib.axis_2">
    <g id="ytick_1">
     <g id="line2d_9">
      <defs>
       <path id="m69fab7da39" d="M 0 0 
L -3.5 0 
" style="stroke: #000000; stroke-width: 0.8"/>
      </defs>
      <g>
       <use xlink:href="#m69fab7da39" x="225" y="128.16" style="stroke: #000000; stroke-width: 0.8"/>
      </g>
     </g>
     <g id="text_8">
      <!-- 0.0 -->
      <g transform="translate(202.096875 131.959219) scale(0.1 -0.1)">
       <defs>
        <path id="DejaVuSans-2e" d="M 684 794 
L 1344 794 
L 1344 0 
L 684 0 
L 684 794 
z
" transform="scale(0.015625)"/>
       </defs>
       <use xlink:href="#DejaVuSans-30"/>
       <use xlink:href="#DejaVuSans-2e" x="63.623047"/>
       <use xlink:href="#DejaVuSans-30" x="95.410156"/>
      </g>
     </g>
    </g>
    <g id="ytick_2">
     <g id="line2d_10">
      <g>
       <use xlink:href="#m69fab7da39" x="225" y="105.984" style="stroke: #000000; stroke-width: 0.8"/>
      </g>
     </g>
     <g id="text_9">
      <!-- 0.2 -->
      <g transform="translate(202.096875 109.783219) scale(0.1 -0.1)">
       <use xlink:href="#DejaVuSans-30"/>
       <use xlink:href="#DejaVuSans-2e" x="63.623047"/>
       <use xlink:href="#DejaVuSans-32" x="95.410156"/>
      </g>
     </g>
    </g>
    <g id="ytick_3">
     <g id="line2d_11">
      <g>
       <use xlink:href="#m69fab7da39" x="225" y="83.808" style="stroke: #000000; stroke-width: 0.8"/>
      </g>
     </g>
     <g id="text_10">
      <!-- 0.4 -->
      <g transform="translate(202.096875 87.607219) scale(0.1 -0.1)">
       <use xlink:href="#DejaVuSans-30"/>
       <use xlink:href="#DejaVuSans-2e" x="63.623047"/>
       <use xlink:href="#DejaVuSans-34" x="95.410156"/>
      </g>
     </g>
    </g>
    <g id="ytick_4">
     <g id="line2d_12">
      <g>
       <use xlink:href="#m69fab7da39" x="225" y="61.632" style="stroke: #000000; stroke-width: 0.8"/>
      </g>
     </g>
     <g id="text_11">
      <!-- 0.6 -->
      <g transform="translate(202.096875 65.431219) scale(0.1 -0.1)">
       <use xlink:href="#DejaVuSans-30"/>
       <use xlink:href="#DejaVuSans-2e" x="63.623047"/>
       <use xlink:href="#DejaVuSans-36" x="95.410156"/>
      </g>
     </g>
    </g>
    <g id="ytick_5">
     <g id="line2d_13">
      <g>
       <use xlink:href="#m69fab7da39" x="225" y="39.456" style="stroke: #000000; stroke-width: 0.8"/>
      </g>
     </g>
     <g id="text_12">
      <!-- 0.8 -->
      <g transform="translate(202.096875 43.255219) scale(0.1 -0.1)">
       <use xlink:href="#DejaVuSans-30"/>
       <use xlink:href="#DejaVuSans-2e" x="63.623047"/>
       <use xlink:href="#DejaVuSans-38" x="95.410156"/>
      </g>
     </g>
    </g>
    <g id="ytick_6">
     <g id="line2d_14">
      <g>
       <use xlink:href="#m69fab7da39" x="225" y="17.28" style="stroke: #000000; stroke-width: 0.8"/>
      </g>
     </g>
     <g id="text_13">
      <!-- 1.0 -->
      <g transform="translate(202.096875 21.079219) scale(0.1 -0.1)">
       <use xlink:href="#DejaVuSans-31"/>
       <use xlink:href="#DejaVuSans-2e" x="63.623047"/>
       <use xlink:href="#DejaVuSans-30" x="95.410156"/>
      </g>
     </g>
    </g>
   </g>
  </g>
 </g>
 <defs>
  <clipPath id="p3554b8677d">
   <rect x="225" y="17.28" width="1395" height="110.88"/>
  </clipPath>
 </defs>
</svg>
