<?xml version="1.0" encoding="utf-8" standalone="no"?>
<!DOCTYPE svg PUBLIC "-//W3C//DTD SVG 1.1//EN"
  "http://www.w3.org/Graphics/SVG/1.1/DTD/svg11.dtd">
<svg xmlns:xlink="http://www.w3.org/1999/xlink" width="1800pt" height="144pt" viewBox="0 0 1800 144" xmlns="http://www.w3.org/2000/svg" version="1.1">
 <metadata>
  <rdf:RDF xmlns:dc="http://purl.org/dc/elements/1.1/" xmlns:cc="http://creativecommons.org/ns#" xmlns:rdf="http://www.w3.org/1999/02/22-rdf-syntax-ns#">
   <cc:Work>
    <dc:type rdf:resource="http://purl.org/dc/dcmitype/StillImage"/>
    <dc:date>2025-05-09T21:11:16.776004</dc:date>
    <dc:format>image/svg+xml</dc:format>
    <dc:creator>
     <cc:Agent>
      <dc:title>Matplotlib v3.8.0, https://matplotlib.org/</dc:title>
     </cc:Agent>
    </dc:creator>
   </cc:Work>
  </rdf:RDF>
 </metadata>
 <defs>
  <style type="text/css">*{stroke-linejoin: round; stroke-linecap: butt}</style>
 </defs>
 <g id="figure_1">
  <g id="patch_1">
   <path d="M 0 144 
L 1800 144 
L 1800 0 
L 0 0 
z
" style="fill: #ffffff"/>
  </g>
  <g id="axes_1">
   <g id="patch_2">
    <path d="M 225 128.16 
L 1620 128.16 
L 1620 17.28 
L 225 17.28 
z
" style="fill: #ffffff"/>
   </g>
   <g id="line2d_1">
    <path d="M 225 128.16 
L 1620 128.16 
" clip-path="url(#p4669a50e71)" style="fill: none; stroke: #000000; stroke-width: 1.5; stroke-linecap: square"/>
   </g>
   <g id="patch_3">
    <path d="M 225 17.28 
L 231.414044 17.28 
L 235.863237 76.617197 
L 240.341756 17.28 
L 246.743232 17.28 
L 246.743232 128.16 
L 241.97983 128.16 
L 241.97983 47.055534 
L 237.476174 106.844235 
L 234.279626 106.844235 
L 229.77597 47.055534 
L 229.77597 128.16 
L 225 128.16 
L 225 17.28 
z
" clip-path="url(#p4669a50e71)" style="fill: #21599c"/>
   </g>
   <g id="patch_4">
    <path d="M 247.887613 17.28 
L 254.871866 17.28 
L 263.69709 93.322863 
L 263.69709 17.28 
L 269.630845 17.28 
L 269.630845 128.16 
L 262.641392 128.16 
L 253.816167 52.117137 
L 253.816167 128.16 
L 247.887613 128.16 
L 247.887613 17.28 
z
" clip-path="url(#p4669a50e71)" style="fill: #40ba47"/>
   </g>
   <g id="patch_5">
    <path d="M 270.775226 17.28 
L 278.665756 17.28 
L 278.665756 106.559074 
L 292.518458 106.559074 
L 292.518458 128.16 
L 270.775226 128.16 
L 270.775226 17.28 
z
" clip-path="url(#p4669a50e71)" style="fill: #21599c"/>
   </g>
   <g id="patch_6">
    <path d="M 299.621177 38.904689 
L 299.621177 106.559074 
L 301.755877 106.559074 
Q 305.406165 106.559074 307.332843 97.861672 
Q 309.264474 89.164269 309.264474 72.601183 
Q 309.264474 56.13315 307.342749 47.530802 
Q 305.425977 38.904689 301.755877 38.904689 
L 299.621177 38.904689 
z
M 293.662838 17.28 
L 299.943116 17.28 
Q 305.208049 17.28 307.783557 20.892036 
Q 310.359065 24.480309 312.201544 33.106421 
Q 313.826095 40.615654 314.613607 50.429936 
Q 315.406071 60.220454 315.406071 72.601183 
Q 315.406071 85.172019 314.613607 95.010064 
Q 313.826095 104.84811 312.201544 112.333579 
Q 310.344206 120.959691 307.743934 124.571727 
Q 305.143661 128.16 299.943116 128.16 
L 293.662838 128.16 
L 293.662838 17.28 
z
" clip-path="url(#p4669a50e71)" style="fill: #6b296b"/>
   </g>
   <g id="patch_7">
    <path d="M 322.50879 38.904689 
L 322.50879 106.559074 
L 324.64349 106.559074 
Q 328.293778 106.559074 330.220456 97.861672 
Q 332.152087 89.164269 332.152087 72.601183 
Q 332.152087 56.13315 330.230362 47.530802 
Q 328.313589 38.904689 324.64349 38.904689 
L 322.50879 38.904689 
z
M 316.550451 17.28 
L 322.830729 17.28 
Q 328.095662 17.28 330.67117 20.892036 
Q 333.246678 24.480309 335.089157 33.106421 
Q 336.713708 40.615654 337.501219 50.429936 
Q 338.293683 60.220454 338.293683 72.601183 
Q 338.293683 85.172019 337.501219 95.010064 
Q 336.713708 104.84811 335.089157 112.333579 
Q 333.231819 120.959691 330.631547 124.571727 
Q 328.031274 128.16 322.830729 128.16 
L 316.550451 128.16 
L 316.550451 17.28 
z
" clip-path="url(#p4669a50e71)" style="fill: #6b296b"/>
   </g>
   <g id="patch_8">
    <path d="M 345.396403 38.904689 
L 345.396403 106.559074 
L 347.531103 106.559074 
Q 351.181391 106.559074 353.108069 97.861672 
Q 355.0397 89.164269 355.0397 72.601183 
Q 355.0397 56.13315 353.117975 47.530802 
Q 351.201202 38.904689 347.531103 38.904689 
L 345.396403 38.904689 
z
M 339.438064 17.28 
L 345.718342 17.28 
Q 350.983275 17.28 353.558783 20.892036 
Q 356.134291 24.480309 357.97677 33.106421 
Q 359.601321 40.615654 360.388832 50.429936 
Q 361.181296 60.220454 361.181296 72.601183 
Q 361.181296 85.172019 360.388832 95.010064 
Q 359.601321 104.84811 357.97677 112.333579 
Q 356.119432 120.959691 353.519159 124.571727 
Q 350.918887 128.16 345.718342 128.16 
L 339.438064 128.16 
L 339.438064 17.28 
z
" clip-path="url(#p4669a50e71)" style="fill: #6b296b"/>
   </g>
   <g id="patch_9">
    <path d="M 362.325677 17.28 
L 370.216207 17.28 
L 370.216207 106.559074 
L 384.068909 106.559074 
L 384.068909 128.16 
L 362.325677 128.16 
L 362.325677 17.28 
z
" clip-path="url(#p4669a50e71)" style="fill: #21599c"/>
   </g>
   <g id="patch_10">
    <path d="M 405.143602 22.570907 
L 405.143602 45.200413 
Q 402.875975 41.260863 400.714643 39.268184 
Q 398.559217 37.252601 396.640002 37.252601 
Q 394.094827 37.252601 392.872435 39.978219 
Q 391.655947 42.680934 391.655947 48.407023 
Q 391.655947 52.713043 392.476781 55.118 
Q 393.297615 57.500054 395.458946 59.217881 
L 398.482448 61.57703 
Q 403.076754 65.173014 405.013685 72.479504 
Q 406.956522 79.76309 406.956522 93.230853 
Q 406.956522 110.890114 404.251905 119.525057 
Q 401.547287 128.16 395.990421 128.16 
Q 393.374383 128.16 390.734724 126.21313 
Q 388.095065 124.289163 385.455406 120.48704 
L 385.455406 97.239116 
Q 388.095065 102.667449 390.557566 105.438876 
Q 393.020067 108.187399 395.311314 108.187399 
Q 397.637994 108.187399 398.872197 105.186928 
Q 400.1064 102.163553 400.1064 96.574889 
Q 400.1064 91.581739 399.26785 88.856121 
Q 398.429301 86.130502 395.919558 83.977492 
L 393.167699 81.618343 
Q 389.034004 78.18269 387.120694 70.67006 
Q 385.21329 63.15743 385.21329 50.422607 
Q 385.21329 34.458269 387.870665 25.869134 
Q 390.528039 17.28 395.512094 17.28 
Q 397.785626 17.28 400.183168 18.608453 
Q 402.580711 19.936906 405.143602 22.570907 
z
" clip-path="url(#p4669a50e71)" style="fill: #40ba47"/>
   </g>
   <g id="patch_11">
    <path d="M 416.923121 66.446464 
Q 418.874436 66.446464 419.721039 63.119589 
Q 420.567642 59.76895 420.567642 52.117137 
Q 420.567642 44.536614 419.721039 41.281029 
Q 418.874436 38.00168 416.923121 38.00168 
L 414.311042 38.00168 
L 414.311042 66.446464 
L 416.923121 66.446464 
z
M 414.311042 86.193845 
L 414.311042 128.16 
L 408.100902 128.16 
L 408.100902 17.28 
L 417.583884 17.28 
Q 422.343442 17.28 424.558031 24.646652 
Q 426.777781 31.989541 426.777781 47.887252 
Q 426.777781 58.865941 425.621446 65.923669 
Q 424.470273 72.981397 422.147278 76.332036 
Q 423.422344 77.662786 424.428975 82.391702 
Q 425.440769 87.096854 426.473211 96.673502 
L 429.844135 128.16 
L 423.231342 128.16 
L 420.294044 100.618225 
Q 419.406144 92.301037 418.492433 89.259323 
Q 417.583884 86.193845 416.066194 86.193845 
L 414.311042 86.193845 
z
" clip-path="url(#p4669a50e71)" style="fill: #bd2e1f"/>
   </g>
   <g id="patch_12">
    <path d="M 430.988515 17.28 
L 436.71844 17.28 
L 436.71844 57.749061 
L 444.977534 17.28 
L 451.631487 17.28 
L 440.928959 69.797102 
L 452.731747 128.16 
L 445.558624 128.16 
L 436.71844 84.48288 
L 436.71844 128.16 
L 430.988515 128.16 
L 430.988515 17.28 
z
" clip-path="url(#p4669a50e71)" style="fill: #bd2e1f"/>
   </g>
   <g id="patch_13">
    <path d="M 468.937684 107.961114 
L 460.575586 107.961114 
L 459.255255 128.16 
L 453.876128 128.16 
L 461.558055 17.28 
L 467.937433 17.28 
L 475.61936 128.16 
L 470.244679 128.16 
L 468.937684 107.961114 
z
M 461.909254 87.382015 
L 467.590679 87.382015 
L 464.754412 43.277154 
L 461.909254 87.382015 
z
" clip-path="url(#p4669a50e71)" style="fill: #21599c"/>
   </g>
   <g id="patch_14">
    <path d="M 496.694053 22.570907 
L 496.694053 45.200413 
Q 494.426426 41.260863 492.265094 39.268184 
Q 490.109668 37.252601 488.190453 37.252601 
Q 485.645278 37.252601 484.422886 39.978219 
Q 483.206399 42.680934 483.206399 48.407023 
Q 483.206399 52.713043 484.027232 55.118 
Q 484.848066 57.500054 487.009397 59.217881 
L 490.0329 61.57703 
Q 494.627206 65.173014 496.564137 72.479504 
Q 498.506973 79.76309 498.506973 93.230853 
Q 498.506973 110.890114 495.802356 119.525057 
Q 493.097739 128.16 487.540872 128.16 
Q 484.924834 128.16 482.285175 126.21313 
Q 479.645516 124.289163 477.005857 120.48704 
L 477.005857 97.239116 
Q 479.645516 102.667449 482.108017 105.438876 
Q 484.570518 108.187399 486.861765 108.187399 
Q 489.188445 108.187399 490.422648 105.186928 
Q 491.656851 102.163553 491.656851 96.574889 
Q 491.656851 91.581739 490.818301 88.856121 
Q 489.979752 86.130502 487.470009 83.977492 
L 484.71815 81.618343 
Q 480.584455 78.18269 478.671145 70.67006 
Q 476.763741 63.15743 476.763741 50.422607 
Q 476.763741 34.458269 479.421116 25.869134 
Q 482.078491 17.28 487.062545 17.28 
Q 489.336077 17.28 491.73362 18.608453 
Q 494.131162 19.936906 496.694053 22.570907 
z
" clip-path="url(#p4669a50e71)" style="fill: #40ba47"/>
   </g>
   <g id="patch_15">
    <path d="M 521.394586 118.127891 
Q 519.201745 123.143945 516.843223 125.663425 
Q 514.484702 128.16 511.970244 128.16 
Q 506.288351 128.16 502.969852 113.226358 
Q 499.651354 98.292716 499.651354 72.754357 
Q 499.651354 46.91824 503.028328 32.09912 
Q 506.410175 17.28 512.291861 17.28 
Q 514.557796 17.28 516.633685 19.295584 
Q 518.714447 21.288263 520.556433 25.227812 
L 520.556433 47.330518 
Q 518.655972 42.268655 516.775002 39.77208 
Q 514.894032 37.252601 513.003316 37.252601 
Q 509.504517 37.252601 507.608928 46.460153 
Q 505.713339 55.644801 505.713339 72.754357 
Q 505.713339 89.703582 507.540707 98.956943 
Q 509.368074 108.187399 512.730429 108.187399 
Q 513.646549 108.187399 514.431099 107.660599 
Q 515.215648 107.110894 515.83939 105.965677 
L 515.83939 85.214328 
L 512.25775 85.214328 
L 512.25775 66.73051 
L 521.394586 66.73051 
L 521.394586 118.127891 
z
" clip-path="url(#p4669a50e71)" style="fill: #787800"/>
   </g>
   <g id="patch_16">
    <path d="M 522.538966 17.28 
L 543.829624 17.28 
L 543.829624 38.904689 
L 530.429497 38.904689 
L 530.429497 59.531316 
L 543.03598 59.531316 
L 543.03598 81.156005 
L 530.429497 81.156005 
L 530.429497 106.559074 
L 544.282199 106.559074 
L 544.282199 128.16 
L 522.538966 128.16 
L 522.538966 17.28 
z
" clip-path="url(#p4669a50e71)" style="fill: #6b296b"/>
   </g>
   <g id="patch_17">
    <path d="M 565.356891 22.570907 
L 565.356891 45.200413 
Q 563.089264 41.260863 560.927933 39.268184 
Q 558.772507 37.252601 556.853291 37.252601 
Q 554.308117 37.252601 553.085724 39.978219 
Q 551.869237 42.680934 551.869237 48.407023 
Q 551.869237 52.713043 552.690071 55.118 
Q 553.510904 57.500054 555.672236 59.217881 
L 558.695738 61.57703 
Q 563.290044 65.173014 565.226975 72.479504 
Q 567.169811 79.76309 567.169811 93.230853 
Q 567.169811 110.890114 564.465194 119.525057 
Q 561.760577 128.16 556.203711 128.16 
Q 553.587673 128.16 550.948014 126.21313 
Q 548.308355 124.289163 545.668696 120.48704 
L 545.668696 97.239116 
Q 548.308355 102.667449 550.770855 105.438876 
Q 553.233356 108.187399 555.524604 108.187399 
Q 557.851283 108.187399 559.085486 105.186928 
Q 560.319689 102.163553 560.319689 96.574889 
Q 560.319689 91.581739 559.48114 88.856121 
Q 558.64259 86.130502 556.132847 83.977492 
L 553.380988 81.618343 
Q 549.247294 78.18269 547.333984 70.67006 
Q 545.426579 63.15743 545.426579 50.422607 
Q 545.426579 34.458269 548.083954 25.869134 
Q 550.741329 17.28 555.725383 17.28 
Q 557.998915 17.28 560.396458 18.608453 
Q 562.794001 19.936906 565.356891 22.570907 
z
" clip-path="url(#p4669a50e71)" style="fill: #40ba47"/>
   </g>
   <g id="patch_18">
    <path d="M 583.375748 107.961114 
L 575.01365 107.961114 
L 573.693319 128.16 
L 568.314192 128.16 
L 575.996119 17.28 
L 582.375497 17.28 
L 590.057424 128.16 
L 584.682743 128.16 
L 583.375748 107.961114 
z
M 576.347318 87.382015 
L 582.028743 87.382015 
L 579.192476 43.277154 
L 576.347318 87.382015 
z
" clip-path="url(#p4669a50e71)" style="fill: #21599c"/>
   </g>
   <g id="patch_19">
    <path d="M 600.024023 66.446464 
Q 601.975339 66.446464 602.821941 63.119589 
Q 603.668544 59.76895 603.668544 52.117137 
Q 603.668544 44.536614 602.821941 41.281029 
Q 601.975339 38.00168 600.024023 38.00168 
L 597.411944 38.00168 
L 597.411944 66.446464 
L 600.024023 66.446464 
z
M 597.411944 86.193845 
L 597.411944 128.16 
L 591.201805 128.16 
L 591.201805 17.28 
L 600.684786 17.28 
Q 605.444345 17.28 607.658933 24.646652 
Q 609.878684 31.989541 609.878684 47.887252 
Q 609.878684 58.865941 608.722348 65.923669 
Q 607.571175 72.981397 605.248181 76.332036 
Q 606.523247 77.662786 607.529878 82.391702 
Q 608.541671 87.096854 609.574113 96.673502 
L 612.945037 128.16 
L 606.332245 128.16 
L 603.394947 100.618225 
Q 602.507047 92.301037 601.593335 89.259323 
Q 600.684786 86.193845 599.167096 86.193845 
L 597.411944 86.193845 
z
" clip-path="url(#p4669a50e71)" style="fill: #bd2e1f"/>
   </g>
   <g id="patch_20">
    <path d="M 614.089418 17.28 
L 621.979948 17.28 
L 621.979948 106.559074 
L 635.83265 106.559074 
L 635.83265 128.16 
L 614.089418 128.16 
L 614.089418 17.28 
z
" clip-path="url(#p4669a50e71)" style="fill: #21599c"/>
   </g>
   <g id="patch_21">
    <path d="M 656.907342 22.570907 
L 656.907342 45.200413 
Q 654.639716 41.260863 652.478384 39.268184 
Q 650.322958 37.252601 648.403743 37.252601 
Q 645.858568 37.252601 644.636175 39.978219 
Q 643.419688 42.680934 643.419688 48.407023 
Q 643.419688 52.713043 644.240522 55.118 
Q 645.061355 57.500054 647.222687 59.217881 
L 650.246189 61.57703 
Q 654.840495 65.173014 656.777426 72.479504 
Q 658.720263 79.76309 658.720263 93.230853 
Q 658.720263 110.890114 656.015645 119.525057 
Q 653.311028 128.16 647.754162 128.16 
Q 645.138124 128.16 642.498465 126.21313 
Q 639.858806 124.289163 637.219147 120.48704 
L 637.219147 97.239116 
Q 639.858806 102.667449 642.321307 105.438876 
Q 644.783807 108.187399 647.075055 108.187399 
Q 649.401734 108.187399 650.635937 105.186928 
Q 651.87014 102.163553 651.87014 96.574889 
Q 651.87014 91.581739 651.031591 88.856121 
Q 650.193042 86.130502 647.683299 83.977492 
L 644.931439 81.618343 
Q 640.797745 78.18269 638.884435 70.67006 
Q 636.97703 63.15743 636.97703 50.422607 
Q 636.97703 34.458269 639.634405 25.869134 
Q 642.29178 17.28 647.275835 17.28 
Q 649.549366 17.28 651.946909 18.608453 
Q 654.344452 19.936906 656.907342 22.570907 
z
" clip-path="url(#p4669a50e71)" style="fill: #40ba47"/>
   </g>
   <g id="patch_22">
    <path d="M 659.864643 17.28 
L 667.755174 17.28 
L 667.755174 106.559074 
L 681.607875 106.559074 
L 681.607875 128.16 
L 659.864643 128.16 
L 659.864643 17.28 
z
" clip-path="url(#p4669a50e71)" style="fill: #21599c"/>
   </g>
   <g id="patch_23">
    <path d="M 682.752256 17.28 
L 690.642786 17.28 
L 690.642786 106.559074 
L 704.495488 106.559074 
L 704.495488 128.16 
L 682.752256 128.16 
L 682.752256 17.28 
z
" clip-path="url(#p4669a50e71)" style="fill: #21599c"/>
   </g>
   <g id="patch_24">
    <path d="M 705.639869 17.28 
L 726.930527 17.28 
L 726.930527 38.904689 
L 713.530399 38.904689 
L 713.530399 59.531316 
L 726.136882 59.531316 
L 726.136882 81.156005 
L 713.530399 81.156005 
L 713.530399 106.559074 
L 727.383101 106.559074 
L 727.383101 128.16 
L 705.639869 128.16 
L 705.639869 17.28 
z
" clip-path="url(#p4669a50e71)" style="fill: #6b296b"/>
   </g>
   <g id="patch_25">
    <path d="M 728.527482 17.28 
L 736.418012 17.28 
L 736.418012 106.559074 
L 750.270714 106.559074 
L 750.270714 128.16 
L 728.527482 128.16 
L 728.527482 17.28 
z
" clip-path="url(#p4669a50e71)" style="fill: #21599c"/>
   </g>
   <g id="patch_26">
    <path d="M 766.47665 107.961114 
L 758.114553 107.961114 
L 756.794221 128.16 
L 751.415094 128.16 
L 759.097021 17.28 
L 765.476399 17.28 
L 773.158326 128.16 
L 767.783645 128.16 
L 766.47665 107.961114 
z
M 759.448221 87.382015 
L 765.129646 87.382015 
L 762.293379 43.277154 
L 759.448221 87.382015 
z
" clip-path="url(#p4669a50e71)" style="fill: #21599c"/>
   </g>
   <g id="patch_27">
    <path d="M 774.528994 17.28 
L 795.819652 17.28 
L 795.819652 38.904689 
L 782.419525 38.904689 
L 782.419525 59.531316 
L 795.026008 59.531316 
L 795.026008 81.156005 
L 782.419525 81.156005 
L 782.419525 128.16 
L 774.528994 128.16 
L 774.528994 17.28 
z
" clip-path="url(#p4669a50e71)" style="fill: #21599c"/>
   </g>
   <g id="patch_28">
    <path d="M 812.251876 107.961114 
L 803.889778 107.961114 
L 802.569447 128.16 
L 797.19032 128.16 
L 804.872247 17.28 
L 811.251625 17.28 
L 818.933552 128.16 
L 813.55887 128.16 
L 812.251876 107.961114 
z
M 805.223446 87.382015 
L 810.904871 87.382015 
L 808.068604 43.277154 
L 805.223446 87.382015 
z
" clip-path="url(#p4669a50e71)" style="fill: #21599c"/>
   </g>
   <g id="patch_29">
    <path d="M 820.077933 17.28 
L 841.821165 17.28 
L 841.821165 38.904689 
L 833.998658 38.904689 
L 833.998658 128.16 
L 827.915609 128.16 
L 827.915609 38.904689 
L 820.077933 38.904689 
L 820.077933 17.28 
z
" clip-path="url(#p4669a50e71)" style="fill: #40ba47"/>
   </g>
   <g id="patch_30">
    <path d="M 842.965546 17.28 
L 848.344673 17.28 
L 853.84383 99.121132 
L 859.334096 17.28 
L 864.708778 17.28 
L 857.026851 128.16 
L 850.647473 128.16 
L 842.965546 17.28 
z
" clip-path="url(#p4669a50e71)" style="fill: #21599c"/>
   </g>
   <g id="patch_31">
    <path d="M 866.079445 17.28 
L 887.370103 17.28 
L 887.370103 38.904689 
L 873.969976 38.904689 
L 873.969976 59.531316 
L 886.576459 59.531316 
L 886.576459 81.156005 
L 873.969976 81.156005 
L 873.969976 128.16 
L 866.079445 128.16 
L 866.079445 17.28 
z
" clip-path="url(#p4669a50e71)" style="fill: #21599c"/>
   </g>
   <g id="patch_32">
    <path d="M 888.740771 17.28 
L 910.484003 17.28 
L 910.484003 38.904689 
L 902.661496 38.904689 
L 902.661496 128.16 
L 896.578448 128.16 
L 896.578448 38.904689 
L 888.740771 38.904689 
L 888.740771 17.28 
z
" clip-path="url(#p4669a50e71)" style="fill: #40ba47"/>
   </g>
   <g id="patch_33">
    <path d="M 911.628384 17.28 
L 917.007511 17.28 
L 922.506668 99.121132 
L 927.996934 17.28 
L 933.371616 17.28 
L 925.689689 128.16 
L 919.310311 128.16 
L 911.628384 17.28 
z
" clip-path="url(#p4669a50e71)" style="fill: #21599c"/>
   </g>
   <g id="patch_34">
    <path d="M 949.577553 107.961114 
L 941.215455 107.961114 
L 939.895124 128.16 
L 934.515997 128.16 
L 942.197924 17.28 
L 948.577302 17.28 
L 956.259229 128.16 
L 950.884547 128.16 
L 949.577553 107.961114 
z
M 942.549123 87.382015 
L 948.230548 87.382015 
L 945.394281 43.277154 
L 942.549123 87.382015 
z
" clip-path="url(#p4669a50e71)" style="fill: #21599c"/>
   </g>
   <g id="patch_35">
    <path d="M 957.40361 17.28 
L 979.146842 17.28 
L 979.146842 38.904689 
L 971.324335 38.904689 
L 971.324335 128.16 
L 965.241286 128.16 
L 965.241286 38.904689 
L 957.40361 38.904689 
L 957.40361 17.28 
z
" clip-path="url(#p4669a50e71)" style="fill: #40ba47"/>
   </g>
   <g id="patch_36">
    <path d="M 980.291222 17.28 
L 1002.034454 17.28 
L 1002.034454 38.904689 
L 994.211947 38.904689 
L 994.211947 128.16 
L 988.128899 128.16 
L 988.128899 38.904689 
L 980.291222 38.904689 
L 980.291222 17.28 
z
" clip-path="url(#p4669a50e71)" style="fill: #40ba47"/>
   </g>
   <g id="patch_37">
    <path d="M 1018.240391 107.961114 
L 1009.878293 107.961114 
L 1008.557962 128.16 
L 1003.178835 128.16 
L 1010.860762 17.28 
L 1017.24014 17.28 
L 1024.922067 128.16 
L 1019.547386 128.16 
L 1018.240391 107.961114 
z
M 1011.211961 87.382015 
L 1016.893387 87.382015 
L 1014.05712 43.277154 
L 1011.211961 87.382015 
z
" clip-path="url(#p4669a50e71)" style="fill: #21599c"/>
   </g>
   <g id="patch_38">
    <path d="M 1032.992799 17.28 
L 1040.883329 17.28 
L 1040.883329 128.16 
L 1032.992799 128.16 
L 1032.992799 17.28 
z
" clip-path="url(#p4669a50e71)" style="fill: #21599c"/>
   </g>
   <g id="patch_39">
    <path d="M 1057.776279 66.446464 
Q 1059.727595 66.446464 1060.574197 63.119589 
Q 1061.4208 59.76895 1061.4208 52.117137 
Q 1061.4208 44.536614 1060.574197 41.281029 
Q 1059.727595 38.00168 1057.776279 38.00168 
L 1055.1642 38.00168 
L 1055.1642 66.446464 
L 1057.776279 66.446464 
z
M 1055.1642 86.193845 
L 1055.1642 128.16 
L 1048.954061 128.16 
L 1048.954061 17.28 
L 1058.437042 17.28 
Q 1063.1966 17.28 1065.411189 24.646652 
Q 1067.63094 31.989541 1067.63094 47.887252 
Q 1067.63094 58.865941 1066.474604 65.923669 
Q 1065.323431 72.981397 1063.000436 76.332036 
Q 1064.275503 77.662786 1065.282134 82.391702 
Q 1066.293927 87.096854 1067.326369 96.673502 
L 1070.697293 128.16 
L 1064.084501 128.16 
L 1061.147203 100.618225 
Q 1060.259302 92.301037 1059.345591 89.259323 
Q 1058.437042 86.193845 1056.919352 86.193845 
L 1055.1642 86.193845 
z
" clip-path="url(#p4669a50e71)" style="fill: #bd2e1f"/>
   </g>
   <g id="patch_40">
    <path d="M 1071.841674 17.28 
L 1093.584906 17.28 
L 1093.584906 38.904689 
L 1085.762399 38.904689 
L 1085.762399 128.16 
L 1079.67935 128.16 
L 1079.67935 38.904689 
L 1071.841674 38.904689 
L 1071.841674 17.28 
z
" clip-path="url(#p4669a50e71)" style="fill: #40ba47"/>
   </g>
   <g id="patch_41">
    <path d="M 1114.659598 22.570907 
L 1114.659598 45.200413 
Q 1112.391972 41.260863 1110.23064 39.268184 
Q 1108.075214 37.252601 1106.155998 37.252601 
Q 1103.610824 37.252601 1102.388431 39.978219 
Q 1101.171944 42.680934 1101.171944 48.407023 
Q 1101.171944 52.713043 1101.992778 55.118 
Q 1102.813611 57.500054 1104.974943 59.217881 
L 1107.998445 61.57703 
Q 1112.592751 65.173014 1114.529682 72.479504 
Q 1116.472518 79.76309 1116.472518 93.230853 
Q 1116.472518 110.890114 1113.767901 119.525057 
Q 1111.063284 128.16 1105.506418 128.16 
Q 1102.89038 128.16 1100.250721 126.21313 
Q 1097.611062 124.289163 1094.971403 120.48704 
L 1094.971403 97.239116 
Q 1097.611062 102.667449 1100.073563 105.438876 
Q 1102.536063 108.187399 1104.827311 108.187399 
Q 1107.15399 108.187399 1108.388193 105.186928 
Q 1109.622396 102.163553 1109.622396 96.574889 
Q 1109.622396 91.581739 1108.783847 88.856121 
Q 1107.945298 86.130502 1105.435555 83.977492 
L 1102.683695 81.618343 
Q 1098.550001 78.18269 1096.636691 70.67006 
Q 1094.729286 63.15743 1094.729286 50.422607 
Q 1094.729286 34.458269 1097.386661 25.869134 
Q 1100.044036 17.28 1105.02809 17.28 
Q 1107.301622 17.28 1109.699165 18.608453 
Q 1112.096708 19.936906 1114.659598 22.570907 
z
" clip-path="url(#p4669a50e71)" style="fill: #40ba47"/>
   </g>
   <g id="patch_42">
    <path d="M 1124.54325 17.28 
L 1132.43378 17.28 
L 1132.43378 128.16 
L 1124.54325 128.16 
L 1124.54325 17.28 
z
" clip-path="url(#p4669a50e71)" style="fill: #21599c"/>
   </g>
   <g id="patch_43">
    <path d="M 1140.504512 17.28 
L 1151.806463 17.28 
Q 1156.851572 17.28 1159.546827 26.690304 
Q 1162.247744 36.076845 1162.247744 53.447887 
Q 1162.247744 70.913982 1159.546827 80.300523 
Q 1156.851572 89.687064 1151.806463 89.687064 
L 1147.316259 89.687064 
L 1147.316259 128.16 
L 1140.504512 128.16 
L 1140.504512 17.28 
z
M 1147.316259 38.00168 
L 1147.316259 68.965384 
L 1151.081688 68.965384 
Q 1153.063493 68.965384 1154.144993 64.925607 
Q 1155.226492 60.885829 1155.226492 53.447887 
Q 1155.226492 46.033708 1154.144993 42.017694 
Q 1153.063493 38.00168 1151.081688 38.00168 
L 1147.316259 38.00168 
z
" clip-path="url(#p4669a50e71)" style="fill: #787800"/>
   </g>
   <g id="patch_44">
    <path d="M 1163.392125 17.28 
L 1169.806169 17.28 
L 1174.255362 76.617197 
L 1178.733881 17.28 
L 1185.135357 17.28 
L 1185.135357 128.16 
L 1180.371955 128.16 
L 1180.371955 47.055534 
L 1175.868299 106.844235 
L 1172.671751 106.844235 
L 1168.168095 47.055534 
L 1168.168095 128.16 
L 1163.392125 128.16 
L 1163.392125 17.28 
z
" clip-path="url(#p4669a50e71)" style="fill: #21599c"/>
   </g>
   <g id="patch_45">
    <path d="M 1186.279737 17.28 
L 1193.26399 17.28 
L 1202.089215 93.322863 
L 1202.089215 17.28 
L 1208.02297 17.28 
L 1208.02297 128.16 
L 1201.033516 128.16 
L 1192.208292 52.117137 
L 1192.208292 128.16 
L 1186.279737 128.16 
L 1186.279737 17.28 
z
" clip-path="url(#p4669a50e71)" style="fill: #40ba47"/>
   </g>
   <g id="patch_46">
    <path d="M 1209.16735 17.28 
L 1217.057881 17.28 
L 1217.057881 106.559074 
L 1230.910582 106.559074 
L 1230.910582 128.16 
L 1209.16735 128.16 
L 1209.16735 17.28 
z
" clip-path="url(#p4669a50e71)" style="fill: #21599c"/>
   </g>
   <g id="patch_47">
    <path d="M 1247.116519 107.961114 
L 1238.754421 107.961114 
L 1237.43409 128.16 
L 1232.054963 128.16 
L 1239.73689 17.28 
L 1246.116268 17.28 
L 1253.798195 128.16 
L 1248.423514 128.16 
L 1247.116519 107.961114 
z
M 1240.088089 87.382015 
L 1245.769515 87.382015 
L 1242.933248 43.277154 
L 1240.088089 87.382015 
z
" clip-path="url(#p4669a50e71)" style="fill: #21599c"/>
   </g>
   <g id="patch_48">
    <path d="M 1261.868927 17.28 
L 1269.759457 17.28 
L 1269.759457 128.16 
L 1261.868927 128.16 
L 1261.868927 17.28 
z
" clip-path="url(#p4669a50e71)" style="fill: #21599c"/>
   </g>
   <g id="patch_49">
    <path d="M 1286.652407 66.446464 
Q 1288.603723 66.446464 1289.450325 63.119589 
Q 1290.296928 59.76895 1290.296928 52.117137 
Q 1290.296928 44.536614 1289.450325 41.281029 
Q 1288.603723 38.00168 1286.652407 38.00168 
L 1284.040328 38.00168 
L 1284.040328 66.446464 
L 1286.652407 66.446464 
z
M 1284.040328 86.193845 
L 1284.040328 128.16 
L 1277.830189 128.16 
L 1277.830189 17.28 
L 1287.31317 17.28 
Q 1292.072728 17.28 1294.287317 24.646652 
Q 1296.507068 31.989541 1296.507068 47.887252 
Q 1296.507068 58.865941 1295.350732 65.923669 
Q 1294.199559 72.981397 1291.876564 76.332036 
Q 1293.151631 77.662786 1294.158262 82.391702 
Q 1295.170055 87.096854 1296.202497 96.673502 
L 1299.573421 128.16 
L 1292.960629 128.16 
L 1290.023331 100.618225 
Q 1289.13543 92.301037 1288.221719 89.259323 
Q 1287.31317 86.193845 1285.79548 86.193845 
L 1284.040328 86.193845 
z
" clip-path="url(#p4669a50e71)" style="fill: #bd2e1f"/>
   </g>
   <g id="patch_50">
    <path d="M 1320.648113 22.570907 
L 1320.648113 45.200413 
Q 1318.380487 41.260863 1316.219155 39.268184 
Q 1314.063729 37.252601 1312.144514 37.252601 
Q 1309.599339 37.252601 1308.376947 39.978219 
Q 1307.160459 42.680934 1307.160459 48.407023 
Q 1307.160459 52.713043 1307.981293 55.118 
Q 1308.802127 57.500054 1310.963458 59.217881 
L 1313.98696 61.57703 
Q 1318.581266 65.173014 1320.518197 72.479504 
Q 1322.461034 79.76309 1322.461034 93.230853 
Q 1322.461034 110.890114 1319.756416 119.525057 
Q 1317.051799 128.16 1311.494933 128.16 
Q 1308.878895 128.16 1306.239236 126.21313 
Q 1303.599577 124.289163 1300.959918 120.48704 
L 1300.959918 97.239116 
Q 1303.599577 102.667449 1306.062078 105.438876 
Q 1308.524578 108.187399 1310.815826 108.187399 
Q 1313.142506 108.187399 1314.376709 105.186928 
Q 1315.610912 102.163553 1315.610912 96.574889 
Q 1315.610912 91.581739 1314.772362 88.856121 
Q 1313.933813 86.130502 1311.42407 83.977492 
L 1308.67221 81.618343 
Q 1304.538516 78.18269 1302.625206 70.67006 
Q 1300.717801 63.15743 1300.717801 50.422607 
Q 1300.717801 34.458269 1303.375176 25.869134 
Q 1306.032551 17.28 1311.016606 17.28 
Q 1313.290138 17.28 1315.68768 18.608453 
Q 1318.085223 19.936906 1320.648113 22.570907 
z
" clip-path="url(#p4669a50e71)" style="fill: #40ba47"/>
   </g>
   <g id="patch_51">
    <path d="M 1323.605414 17.28 
L 1331.495945 17.28 
L 1331.495945 106.559074 
L 1345.348646 106.559074 
L 1345.348646 128.16 
L 1323.605414 128.16 
L 1323.605414 17.28 
z
" clip-path="url(#p4669a50e71)" style="fill: #21599c"/>
   </g>
   <g id="patch_52">
    <path d="M 1366.423339 22.570907 
L 1366.423339 45.200413 
Q 1364.155712 41.260863 1361.994381 39.268184 
Q 1359.838954 37.252601 1357.919739 37.252601 
Q 1355.374565 37.252601 1354.152172 39.978219 
Q 1352.935685 42.680934 1352.935685 48.407023 
Q 1352.935685 52.713043 1353.756519 55.118 
Q 1354.577352 57.500054 1356.738684 59.217881 
L 1359.762186 61.57703 
Q 1364.356492 65.173014 1366.293423 72.479504 
Q 1368.236259 79.76309 1368.236259 93.230853 
Q 1368.236259 110.890114 1365.531642 119.525057 
Q 1362.827025 128.16 1357.270159 128.16 
Q 1354.654121 128.16 1352.014462 126.21313 
Q 1349.374803 124.289163 1346.735143 120.48704 
L 1346.735143 97.239116 
Q 1349.374803 102.667449 1351.837303 105.438876 
Q 1354.299804 108.187399 1356.591052 108.187399 
Q 1358.917731 108.187399 1360.151934 105.186928 
Q 1361.386137 102.163553 1361.386137 96.574889 
Q 1361.386137 91.581739 1360.547588 88.856121 
Q 1359.709038 86.130502 1357.199295 83.977492 
L 1354.447436 81.618343 
Q 1350.313742 78.18269 1348.400432 70.67006 
Q 1346.493027 63.15743 1346.493027 50.422607 
Q 1346.493027 34.458269 1349.150402 25.869134 
Q 1351.807777 17.28 1356.791831 17.28 
Q 1359.065363 17.28 1361.462906 18.608453 
Q 1363.860449 19.936906 1366.423339 22.570907 
z
" clip-path="url(#p4669a50e71)" style="fill: #40ba47"/>
   </g>
   <g id="patch_53">
    <path d="M 1378.202858 66.446464 
Q 1380.154174 66.446464 1381.000777 63.119589 
Q 1381.847379 59.76895 1381.847379 52.117137 
Q 1381.847379 44.536614 1381.000777 41.281029 
Q 1380.154174 38.00168 1378.202858 38.00168 
L 1375.59078 38.00168 
L 1375.59078 66.446464 
L 1378.202858 66.446464 
z
M 1375.59078 86.193845 
L 1375.59078 128.16 
L 1369.38064 128.16 
L 1369.38064 17.28 
L 1378.863621 17.28 
Q 1383.62318 17.28 1385.837768 24.646652 
Q 1388.057519 31.989541 1388.057519 47.887252 
Q 1388.057519 58.865941 1386.901184 65.923669 
Q 1385.750011 72.981397 1383.427016 76.332036 
Q 1384.702082 77.662786 1385.708713 82.391702 
Q 1386.720506 87.096854 1387.752948 96.673502 
L 1391.123872 128.16 
L 1384.51108 128.16 
L 1381.573782 100.618225 
Q 1380.685882 92.301037 1379.77217 89.259323 
Q 1378.863621 86.193845 1377.345931 86.193845 
L 1375.59078 86.193845 
z
" clip-path="url(#p4669a50e71)" style="fill: #bd2e1f"/>
   </g>
   <g id="patch_54">
    <path d="M 1401.090471 66.446464 
Q 1403.041787 66.446464 1403.888389 63.119589 
Q 1404.734992 59.76895 1404.734992 52.117137 
Q 1404.734992 44.536614 1403.888389 41.281029 
Q 1403.041787 38.00168 1401.090471 38.00168 
L 1398.478392 38.00168 
L 1398.478392 66.446464 
L 1401.090471 66.446464 
z
M 1398.478392 86.193845 
L 1398.478392 128.16 
L 1392.268253 128.16 
L 1392.268253 17.28 
L 1401.751234 17.28 
Q 1406.510792 17.28 1408.725381 24.646652 
Q 1410.945132 31.989541 1410.945132 47.887252 
Q 1410.945132 58.865941 1409.788796 65.923669 
Q 1408.637623 72.981397 1406.314628 76.332036 
Q 1407.589695 77.662786 1408.596326 82.391702 
Q 1409.608119 87.096854 1410.640561 96.673502 
L 1414.011485 128.16 
L 1407.398693 128.16 
L 1404.461395 100.618225 
Q 1403.573494 92.301037 1402.659783 89.259323 
Q 1401.751234 86.193845 1400.233544 86.193845 
L 1398.478392 86.193845 
z
" clip-path="url(#p4669a50e71)" style="fill: #bd2e1f"/>
   </g>
   <g id="patch_55">
    <path d="M 1423.978084 66.446464 
Q 1425.9294 66.446464 1426.776002 63.119589 
Q 1427.622605 59.76895 1427.622605 52.117137 
Q 1427.622605 44.536614 1426.776002 41.281029 
Q 1425.9294 38.00168 1423.978084 38.00168 
L 1421.366005 38.00168 
L 1421.366005 66.446464 
L 1423.978084 66.446464 
z
M 1421.366005 86.193845 
L 1421.366005 128.16 
L 1415.155865 128.16 
L 1415.155865 17.28 
L 1424.638847 17.28 
Q 1429.398405 17.28 1431.612994 24.646652 
Q 1433.832744 31.989541 1433.832744 47.887252 
Q 1433.832744 58.865941 1432.676409 65.923669 
Q 1431.525236 72.981397 1429.202241 76.332036 
Q 1430.477307 77.662786 1431.483938 82.391702 
Q 1432.495732 87.096854 1433.528174 96.673502 
L 1436.899098 128.16 
L 1430.286306 128.16 
L 1427.349008 100.618225 
Q 1426.461107 92.301037 1425.547396 89.259323 
Q 1424.638847 86.193845 1423.121157 86.193845 
L 1421.366005 86.193845 
z
" clip-path="url(#p4669a50e71)" style="fill: #bd2e1f"/>
   </g>
   <g id="patch_56">
    <path d="M 1453.105034 107.961114 
L 1444.742937 107.961114 
L 1443.422605 128.16 
L 1438.043478 128.16 
L 1445.725405 17.28 
L 1452.104783 17.28 
L 1459.78671 128.16 
L 1454.412029 128.16 
L 1453.105034 107.961114 
z
M 1446.076605 87.382015 
L 1451.75803 87.382015 
L 1448.921763 43.277154 
L 1446.076605 87.382015 
z
" clip-path="url(#p4669a50e71)" style="fill: #21599c"/>
   </g>
   <g id="patch_57">
    <path d="M 1482.674323 118.127891 
Q 1480.481483 123.143945 1478.122961 125.663425 
Q 1475.764439 128.16 1473.249982 128.16 
Q 1467.568088 128.16 1464.24959 113.226358 
Q 1460.931091 98.292716 1460.931091 72.754357 
Q 1460.931091 46.91824 1464.308065 32.09912 
Q 1467.689913 17.28 1473.571599 17.28 
Q 1475.837534 17.28 1477.913423 19.295584 
Q 1479.994185 21.288263 1481.836171 25.227812 
L 1481.836171 47.330518 
Q 1479.935709 42.268655 1478.054739 39.77208 
Q 1476.173769 37.252601 1474.283053 37.252601 
Q 1470.784255 37.252601 1468.888666 46.460153 
Q 1466.993077 55.644801 1466.993077 72.754357 
Q 1466.993077 89.703582 1468.820444 98.956943 
Q 1470.647811 108.187399 1474.010167 108.187399 
Q 1474.926287 108.187399 1475.710836 107.660599 
Q 1476.495386 107.110894 1477.119127 105.965677 
L 1477.119127 85.214328 
L 1473.537488 85.214328 
L 1473.537488 66.73051 
L 1482.674323 66.73051 
L 1482.674323 118.127891 
z
" clip-path="url(#p4669a50e71)" style="fill: #787800"/>
   </g>
   <g id="patch_58">
    <path d="M 1483.818704 17.28 
L 1505.561936 17.28 
L 1505.561936 38.904689 
L 1497.739429 38.904689 
L 1497.739429 128.16 
L 1491.656381 128.16 
L 1491.656381 38.904689 
L 1483.818704 38.904689 
L 1483.818704 17.28 
z
" clip-path="url(#p4669a50e71)" style="fill: #40ba47"/>
   </g>
   <g id="patch_59">
    <path d="M 1506.706317 17.28 
L 1512.717681 17.28 
L 1517.573365 56.798526 
L 1522.424481 17.28 
L 1528.449549 17.28 
L 1520.327812 81.441166 
L 1520.327812 128.16 
L 1514.832621 128.16 
L 1514.832621 81.441166 
L 1506.706317 17.28 
z
" clip-path="url(#p4669a50e71)" style="fill: #177875"/>
   </g>
   <g id="patch_60">
    <path d="M 1544.655485 107.961114 
L 1536.293388 107.961114 
L 1534.973057 128.16 
L 1529.593929 128.16 
L 1537.275856 17.28 
L 1543.655235 17.28 
L 1551.337162 128.16 
L 1545.96248 128.16 
L 1544.655485 107.961114 
z
M 1537.627056 87.382015 
L 1543.308481 87.382015 
L 1540.472214 43.277154 
L 1537.627056 87.382015 
z
" clip-path="url(#p4669a50e71)" style="fill: #21599c"/>
   </g>
   <g id="patch_61">
    <path d="M 1574.224774 118.127891 
Q 1572.031934 123.143945 1569.673412 125.663425 
Q 1567.31489 128.16 1564.800433 128.16 
Q 1559.11854 128.16 1555.800041 113.226358 
Q 1552.481542 98.292716 1552.481542 72.754357 
Q 1552.481542 46.91824 1555.858517 32.09912 
Q 1559.240364 17.28 1565.12205 17.28 
Q 1567.387985 17.28 1569.463874 19.295584 
Q 1571.544636 21.288263 1573.386622 25.227812 
L 1573.386622 47.330518 
Q 1571.48616 42.268655 1569.60519 39.77208 
Q 1567.72422 37.252601 1565.833505 37.252601 
Q 1562.334706 37.252601 1560.439117 46.460153 
Q 1558.543528 55.644801 1558.543528 72.754357 
Q 1558.543528 89.703582 1560.370895 98.956943 
Q 1562.198262 108.187399 1565.560618 108.187399 
Q 1566.476738 108.187399 1567.261287 107.660599 
Q 1568.045837 107.110894 1568.669578 105.965677 
L 1568.669578 85.214328 
L 1565.087939 85.214328 
L 1565.087939 66.73051 
L 1574.224774 66.73051 
L 1574.224774 118.127891 
z
" clip-path="url(#p4669a50e71)" style="fill: #787800"/>
   </g>
   <g id="patch_62">
    <path d="M 1575.369155 17.28 
L 1596.659813 17.28 
L 1596.659813 38.904689 
L 1583.259685 38.904689 
L 1583.259685 59.531316 
L 1595.866169 59.531316 
L 1595.866169 81.156005 
L 1583.259685 81.156005 
L 1583.259685 106.559074 
L 1597.112387 106.559074 
L 1597.112387 128.16 
L 1575.369155 128.16 
L 1575.369155 17.28 
z
" clip-path="url(#p4669a50e71)" style="fill: #6b296b"/>
   </g>
   <g id="patch_63">
    <path d="M 1598.256768 17.28 
L 1609.558719 17.28 
Q 1614.603828 17.28 1617.299083 26.690304 
Q 1620 36.076845 1620 53.447887 
Q 1620 70.913982 1617.299083 80.300523 
Q 1614.603828 89.687064 1609.558719 89.687064 
L 1605.068515 89.687064 
L 1605.068515 128.16 
L 1598.256768 128.16 
L 1598.256768 17.28 
z
M 1605.068515 38.00168 
L 1605.068515 68.965384 
L 1608.833944 68.965384 
Q 1610.815749 68.965384 1611.897249 64.925607 
Q 1612.978748 60.885829 1612.978748 53.447887 
Q 1612.978748 46.033708 1611.897249 42.017694 
Q 1610.815749 38.00168 1608.833944 38.00168 
L 1605.068515 38.00168 
z
" clip-path="url(#p4669a50e71)" style="fill: #787800"/>
   </g>
   <g id="matplotlib.axis_1">
    <g id="xtick_1">
     <g id="line2d_2">
      <defs>
       <path id="ma685e4ee2d" d="M 0 0 
L 0 3.5 
" style="stroke: #000000; stroke-width: 0.8"/>
      </defs>
      <g>
       <use xlink:href="#ma685e4ee2d" x="235.871616" y="128.16" style="stroke: #000000; stroke-width: 0.8"/>
      </g>
     </g>
     <g id="text_1">
      <!-- 0 -->
      <g transform="translate(232.690366 142.758438) scale(0.1 -0.1)">
       <defs>
        <path id="DejaVuSans-30" d="M 2034 4250 
Q 1547 4250 1301 3770 
Q 1056 3291 1056 2328 
Q 1056 1369 1301 889 
Q 1547 409 2034 409 
Q 2525 409 2770 889 
Q 3016 1369 3016 2328 
Q 3016 3291 2770 3770 
Q 2525 4250 2034 4250 
z
M 2034 4750 
Q 2819 4750 3233 4129 
Q 3647 3509 3647 2328 
Q 3647 1150 3233 529 
Q 2819 -91 2034 -91 
Q 1250 -91 836 529 
Q 422 1150 422 2328 
Q 422 3509 836 4129 
Q 1250 4750 2034 4750 
z
" transform="scale(0.015625)"/>
       </defs>
       <use xlink:href="#DejaVuSans-30"/>
      </g>
     </g>
    </g>
    <g id="xtick_2">
     <g id="line2d_3">
      <g>
       <use xlink:href="#ma685e4ee2d" x="464.747744" y="128.16" style="stroke: #000000; stroke-width: 0.8"/>
      </g>
     </g>
     <g id="text_2">
      <!-- 10 -->
      <g transform="translate(458.385244 142.758438) scale(0.1 -0.1)">
       <defs>
        <path id="DejaVuSans-31" d="M 794 531 
L 1825 531 
L 1825 4091 
L 703 3866 
L 703 4441 
L 1819 4666 
L 2450 4666 
L 2450 531 
L 3481 531 
L 3481 0 
L 794 0 
L 794 531 
z
" transform="scale(0.015625)"/>
       </defs>
       <use xlink:href="#DejaVuSans-31"/>
       <use xlink:href="#DejaVuSans-30" x="63.623047"/>
      </g>
     </g>
    </g>
    <g id="xtick_3">
     <g id="line2d_4">
      <g>
       <use xlink:href="#ma685e4ee2d" x="693.623872" y="128.16" style="stroke: #000000; stroke-width: 0.8"/>
      </g>
     </g>
     <g id="text_3">
      <!-- 20 -->
      <g transform="translate(687.261372 142.758438) scale(0.1 -0.1)">
       <defs>
        <path id="DejaVuSans-32" d="M 1228 531 
L 3431 531 
L 3431 0 
L 469 0 
L 469 531 
Q 828 903 1448 1529 
Q 2069 2156 2228 2338 
Q 2531 2678 2651 2914 
Q 2772 3150 2772 3378 
Q 2772 3750 2511 3984 
Q 2250 4219 1831 4219 
Q 1534 4219 1204 4116 
Q 875 4013 500 3803 
L 500 4441 
Q 881 4594 1212 4672 
Q 1544 4750 1819 4750 
Q 2544 4750 2975 4387 
Q 3406 4025 3406 3419 
Q 3406 3131 3298 2873 
Q 3191 2616 2906 2266 
Q 2828 2175 2409 1742 
Q 1991 1309 1228 531 
z
" transform="scale(0.015625)"/>
       </defs>
       <use xlink:href="#DejaVuSans-32"/>
       <use xlink:href="#DejaVuSans-30" x="63.623047"/>
      </g>
     </g>
    </g>
    <g id="xtick_4">
     <g id="line2d_5">
      <g>
       <use xlink:href="#ma685e4ee2d" x="922.5" y="128.16" style="stroke: #000000; stroke-width: 0.8"/>
      </g>
     </g>
     <g id="text_4">
      <!-- 30 -->
      <g transform="translate(916.1375 142.758438) scale(0.1 -0.1)">
       <defs>
        <path id="DejaVuSans-33" d="M 2597 2516 
Q 3050 2419 3304 2112 
Q 3559 1806 3559 1356 
Q 3559 666 3084 287 
Q 2609 -91 1734 -91 
Q 1441 -91 1130 -33 
Q 819 25 488 141 
L 488 750 
Q 750 597 1062 519 
Q 1375 441 1716 441 
Q 2309 441 2620 675 
Q 2931 909 2931 1356 
Q 2931 1769 2642 2001 
Q 2353 2234 1838 2234 
L 1294 2234 
L 1294 2753 
L 1863 2753 
Q 2328 2753 2575 2939 
Q 2822 3125 2822 3475 
Q 2822 3834 2567 4026 
Q 2313 4219 1838 4219 
Q 1578 4219 1281 4162 
Q 984 4106 628 3988 
L 628 4550 
Q 988 4650 1302 4700 
Q 1616 4750 1894 4750 
Q 2613 4750 3031 4423 
Q 3450 4097 3450 3541 
Q 3450 3153 3228 2886 
Q 3006 2619 2597 2516 
z
" transform="scale(0.015625)"/>
       </defs>
       <use xlink:href="#DejaVuSans-33"/>
       <use xlink:href="#DejaVuSans-30" x="63.623047"/>
      </g>
     </g>
    </g>
    <g id="xtick_5">
     <g id="line2d_6">
      <g>
       <use xlink:href="#ma685e4ee2d" x="1151.376128" y="128.16" style="stroke: #000000; stroke-width: 0.8"/>
      </g>
     </g>
     <g id="text_5">
      <!-- 40 -->
      <g transform="translate(1145.013628 142.758438) scale(0.1 -0.1)">
       <defs>
        <path id="DejaVuSans-34" d="M 2419 4116 
L 825 1625 
L 2419 1625 
L 2419 4116 
z
M 2253 4666 
L 3047 4666 
L 3047 1625 
L 3713 1625 
L 3713 1100 
L 3047 1100 
L 3047 0 
L 2419 0 
L 2419 1100 
L 313 1100 
L 313 1709 
L 2253 4666 
z
" transform="scale(0.015625)"/>
       </defs>
       <use xlink:href="#DejaVuSans-34"/>
       <use xlink:href="#DejaVuSans-30" x="63.623047"/>
      </g>
     </g>
    </g>
    <g id="xtick_6">
     <g id="line2d_7">
      <g>
       <use xlink:href="#ma685e4ee2d" x="1380.252256" y="128.16" style="stroke: #000000; stroke-width: 0.8"/>
      </g>
     </g>
     <g id="text_6">
      <!-- 50 -->
      <g transform="translate(1373.889756 142.758438) scale(0.1 -0.1)">
       <defs>
        <path id="DejaVuSans-35" d="M 691 4666 
L 3169 4666 
L 3169 4134 
L 1269 4134 
L 1269 2991 
Q 1406 3038 1543 3061 
Q 1681 3084 1819 3084 
Q 2600 3084 3056 2656 
Q 3513 2228 3513 1497 
Q 3513 744 3044 326 
Q 2575 -91 1722 -91 
Q 1428 -91 1123 -41 
Q 819 9 494 109 
L 494 744 
Q 775 591 1075 516 
Q 1375 441 1709 441 
Q 2250 441 2565 725 
Q 2881 1009 2881 1497 
Q 2881 1984 2565 2268 
Q 2250 2553 1709 2553 
Q 1456 2553 1204 2497 
Q 953 2441 691 2322 
L 691 4666 
z
" transform="scale(0.015625)"/>
       </defs>
       <use xlink:href="#DejaVuSans-35"/>
       <use xlink:href="#DejaVuSans-30" x="63.623047"/>
      </g>
     </g>
    </g>
    <g id="xtick_7">
     <g id="line2d_8">
      <g>
       <use xlink:href="#ma685e4ee2d" x="1609.128384" y="128.16" style="stroke: #000000; stroke-width: 0.8"/>
      </g>
     </g>
     <g id="text_7">
      <!-- 60 -->
      <g transform="translate(1602.765884 142.758438) scale(0.1 -0.1)">
       <defs>
        <path id="DejaVuSans-36" d="M 2113 2584 
Q 1688 2584 1439 2293 
Q 1191 2003 1191 1497 
Q 1191 994 1439 701 
Q 1688 409 2113 409 
Q 2538 409 2786 701 
Q 3034 994 3034 1497 
Q 3034 2003 2786 2293 
Q 2538 2584 2113 2584 
z
M 3366 4563 
L 3366 3988 
Q 3128 4100 2886 4159 
Q 2644 4219 2406 4219 
Q 1781 4219 1451 3797 
Q 1122 3375 1075 2522 
Q 1259 2794 1537 2939 
Q 1816 3084 2150 3084 
Q 2853 3084 3261 2657 
Q 3669 2231 3669 1497 
Q 3669 778 3244 343 
Q 2819 -91 2113 -91 
Q 1303 -91 875 529 
Q 447 1150 447 2328 
Q 447 3434 972 4092 
Q 1497 4750 2381 4750 
Q 2619 4750 2861 4703 
Q 3103 4656 3366 4563 
z
" transform="scale(0.015625)"/>
       </defs>
       <use xlink:href="#DejaVuSans-36"/>
       <use xlink:href="#DejaVuSans-30" x="63.623047"/>
      </g>
     </g>
    </g>
   </g>
   <g id="matplotlib.axis_2">
    <g id="ytick_1">
     <g id="line2d_9">
      <defs>
       <path id="mc97581b935" d="M 0 0 
L -3.5 0 
" style="stroke: #000000; stroke-width: 0.8"/>
      </defs>
      <g>
       <use xlink:href="#mc97581b935" x="225" y="128.16" style="stroke: #000000; stroke-width: 0.8"/>
      </g>
     </g>
     <g id="text_8">
      <!-- 0.0 -->
      <g transform="translate(202.096875 131.959219) scale(0.1 -0.1)">
       <defs>
        <path id="DejaVuSans-2e" d="M 684 794 
L 1344 794 
L 1344 0 
L 684 0 
L 684 794 
z
" transform="scale(0.015625)"/>
       </defs>
       <use xlink:href="#DejaVuSans-30"/>
       <use xlink:href="#DejaVuSans-2e" x="63.623047"/>
       <use xlink:href="#DejaVuSans-30" x="95.410156"/>
      </g>
     </g>
    </g>
    <g id="ytick_2">
     <g id="line2d_10">
      <g>
       <use xlink:href="#mc97581b935" x="225" y="105.984" style="stroke: #000000; stroke-width: 0.8"/>
      </g>
     </g>
     <g id="text_9">
      <!-- 0.2 -->
      <g transform="translate(202.096875 109.783219) scale(0.1 -0.1)">
       <use xlink:href="#DejaVuSans-30"/>
       <use xlink:href="#DejaVuSans-2e" x="63.623047"/>
       <use xlink:href="#DejaVuSans-32" x="95.410156"/>
      </g>
     </g>
    </g>
    <g id="ytick_3">
     <g id="line2d_11">
      <g>
       <use xlink:href="#mc97581b935" x="225" y="83.808" style="stroke: #000000; stroke-width: 0.8"/>
      </g>
     </g>
     <g id="text_10">
      <!-- 0.4 -->
      <g transform="translate(202.096875 87.607219) scale(0.1 -0.1)">
       <use xlink:href="#DejaVuSans-30"/>
       <use xlink:href="#DejaVuSans-2e" x="63.623047"/>
       <use xlink:href="#DejaVuSans-34" x="95.410156"/>
      </g>
     </g>
    </g>
    <g id="ytick_4">
     <g id="line2d_12">
      <g>
       <use xlink:href="#mc97581b935" x="225" y="61.632" style="stroke: #000000; stroke-width: 0.8"/>
      </g>
     </g>
     <g id="text_11">
      <!-- 0.6 -->
      <g transform="translate(202.096875 65.431219) scale(0.1 -0.1)">
       <use xlink:href="#DejaVuSans-30"/>
       <use xlink:href="#DejaVuSans-2e" x="63.623047"/>
       <use xlink:href="#DejaVuSans-36" x="95.410156"/>
      </g>
     </g>
    </g>
    <g id="ytick_5">
     <g id="line2d_13">
      <g>
       <use xlink:href="#mc97581b935" x="225" y="39.456" style="stroke: #000000; stroke-width: 0.8"/>
      </g>
     </g>
     <g id="text_12">
      <!-- 0.8 -->
      <g transform="translate(202.096875 43.255219) scale(0.1 -0.1)">
       <defs>
        <path id="DejaVuSans-38" d="M 2034 2216 
Q 1584 2216 1326 1975 
Q 1069 1734 1069 1313 
Q 1069 891 1326 650 
Q 1584 409 2034 409 
Q 2484 409 2743 651 
Q 3003 894 3003 1313 
Q 3003 1734 2745 1975 
Q 2488 2216 2034 2216 
z
M 1403 2484 
Q 997 2584 770 2862 
Q 544 3141 544 3541 
Q 544 4100 942 4425 
Q 1341 4750 2034 4750 
Q 2731 4750 3128 4425 
Q 3525 4100 3525 3541 
Q 3525 3141 3298 2862 
Q 3072 2584 2669 2484 
Q 3125 2378 3379 2068 
Q 3634 1759 3634 1313 
Q 3634 634 3220 271 
Q 2806 -91 2034 -91 
Q 1263 -91 848 271 
Q 434 634 434 1313 
Q 434 1759 690 2068 
Q 947 2378 1403 2484 
z
M 1172 3481 
Q 1172 3119 1398 2916 
Q 1625 2713 2034 2713 
Q 2441 2713 2670 2916 
Q 2900 3119 2900 3481 
Q 2900 3844 2670 4047 
Q 2441 4250 2034 4250 
Q 1625 4250 1398 4047 
Q 1172 3844 1172 3481 
z
" transform="scale(0.015625)"/>
       </defs>
       <use xlink:href="#DejaVuSans-30"/>
       <use xlink:href="#DejaVuSans-2e" x="63.623047"/>
       <use xlink:href="#DejaVuSans-38" x="95.410156"/>
      </g>
     </g>
    </g>
    <g id="ytick_6">
     <g id="line2d_14">
      <g>
       <use xlink:href="#mc97581b935" x="225" y="17.28" style="stroke: #000000; stroke-width: 0.8"/>
      </g>
     </g>
     <g id="text_13">
      <!-- 1.0 -->
      <g transform="translate(202.096875 21.079219) scale(0.1 -0.1)">
       <use xlink:href="#DejaVuSans-31"/>
       <use xlink:href="#DejaVuSans-2e" x="63.623047"/>
       <use xlink:href="#DejaVuSans-30" x="95.410156"/>
      </g>
     </g>
    </g>
   </g>
  </g>
 </g>
 <defs>
  <clipPath id="p4669a50e71">
   <rect x="225" y="17.28" width="1395" height="110.88"/>
  </clipPath>
 </defs>
</svg>
