<?xml version="1.0" encoding="utf-8" standalone="no"?>
<!DOCTYPE svg PUBLIC "-//W3C//DTD SVG 1.1//EN"
  "http://www.w3.org/Graphics/SVG/1.1/DTD/svg11.dtd">
<svg xmlns:xlink="http://www.w3.org/1999/xlink" width="1800pt" height="144pt" viewBox="0 0 1800 144" xmlns="http://www.w3.org/2000/svg" version="1.1">
 <metadata>
  <rdf:RDF xmlns:dc="http://purl.org/dc/elements/1.1/" xmlns:cc="http://creativecommons.org/ns#" xmlns:rdf="http://www.w3.org/1999/02/22-rdf-syntax-ns#">
   <cc:Work>
    <dc:type rdf:resource="http://purl.org/dc/dcmitype/StillImage"/>
    <dc:date>2025-05-09T21:11:14.972018</dc:date>
    <dc:format>image/svg+xml</dc:format>
    <dc:creator>
     <cc:Agent>
      <dc:title>Matplotlib v3.8.0, https://matplotlib.org/</dc:title>
     </cc:Agent>
    </dc:creator>
   </cc:Work>
  </rdf:RDF>
 </metadata>
 <defs>
  <style type="text/css">*{stroke-linejoin: round; stroke-linecap: butt}</style>
 </defs>
 <g id="figure_1">
  <g id="patch_1">
   <path d="M 0 144 
L 1800 144 
L 1800 0 
L 0 0 
z
" style="fill: #ffffff"/>
  </g>
  <g id="axes_1">
   <g id="patch_2">
    <path d="M 225 128.16 
L 1620 128.16 
L 1620 17.28 
L 225 17.28 
z
" style="fill: #ffffff"/>
   </g>
   <g id="line2d_1">
    <path d="M 225 128.16 
L 1620 128.16 
" clip-path="url(#p4f28fa9f58)" style="fill: none; stroke: #000000; stroke-width: 1.5; stroke-linecap: square"/>
   </g>
   <g id="patch_3">
    <path d="M 225 17.28 
L 231.210262 17.28 
L 235.518099 76.617197 
L 239.85433 17.28 
L 246.052423 17.28 
L 246.052423 128.16 
L 241.44036 128.16 
L 241.44036 47.055534 
L 237.079791 106.844235 
L 233.984801 106.844235 
L 229.624232 47.055534 
L 229.624232 128.16 
L 225 128.16 
L 225 17.28 
z
" clip-path="url(#p4f28fa9f58)" style="fill: #21599c"/>
   </g>
   <g id="patch_4">
    <path d="M 252.92948 38.904689 
L 252.92948 106.559074 
L 254.996358 106.559074 
Q 258.530671 106.559074 260.396136 97.861672 
Q 262.266397 89.164269 262.266397 72.601183 
Q 262.266397 56.13315 260.405728 47.530802 
Q 258.549853 38.904689 254.996358 38.904689 
L 252.92948 38.904689 
z
M 247.160445 17.28 
L 253.24119 17.28 
Q 258.33885 17.28 260.832531 20.892036 
Q 263.326212 24.480309 265.110153 33.106421 
Q 266.68309 40.615654 267.445581 50.429936 
Q 268.212867 60.220454 268.212867 72.601183 
Q 268.212867 85.172019 267.445581 95.010064 
Q 266.68309 104.84811 265.110153 112.333579 
Q 263.311825 120.959691 260.794166 124.571727 
Q 258.276508 128.16 253.24119 128.16 
L 247.160445 128.16 
L 247.160445 17.28 
z
" clip-path="url(#p4f28fa9f58)" style="fill: #6b296b"/>
   </g>
   <g id="patch_5">
    <path d="M 269.32089 17.28 
L 274.868768 17.28 
L 274.868768 57.749061 
L 282.86546 17.28 
L 289.308009 17.28 
L 278.945513 69.797102 
L 290.373312 128.16 
L 283.428088 128.16 
L 274.868768 84.48288 
L 274.868768 128.16 
L 269.32089 128.16 
L 269.32089 17.28 
z
" clip-path="url(#p4f28fa9f58)" style="fill: #bd2e1f"/>
   </g>
   <g id="patch_6">
    <path d="M 310.778435 22.570907 
L 310.778435 45.200413 
Q 308.582854 41.260863 306.490191 39.268184 
Q 304.403245 37.252601 302.545006 37.252601 
Q 300.080694 37.252601 298.897139 39.978219 
Q 297.719301 42.680934 297.719301 48.407023 
Q 297.719301 52.713043 298.514056 55.118 
Q 299.30881 57.500054 301.401474 59.217881 
L 304.328915 61.57703 
Q 308.777255 65.173014 310.652647 72.479504 
Q 312.533757 79.76309 312.533757 93.230853 
Q 312.533757 110.890114 309.915069 119.525057 
Q 307.296381 128.16 301.916063 128.16 
Q 299.38314 128.16 296.827346 126.21313 
Q 294.271552 124.289163 291.715758 120.48704 
L 291.715758 97.239116 
Q 294.271552 102.667449 296.655816 105.438876 
Q 299.04008 108.187399 301.258532 108.187399 
Q 303.51129 108.187399 304.706281 105.186928 
Q 305.901272 102.163553 305.901272 96.574889 
Q 305.901272 91.581739 305.089364 88.856121 
Q 304.277457 86.130502 301.847451 83.977492 
L 299.183022 81.618343 
Q 295.18066 78.18269 293.328138 70.67006 
Q 291.481334 63.15743 291.481334 50.422607 
Q 291.481334 34.458269 294.054281 25.869134 
Q 296.627228 17.28 301.452933 17.28 
Q 303.654232 17.28 305.975601 18.608453 
Q 308.296971 19.936906 310.778435 22.570907 
z
" clip-path="url(#p4f28fa9f58)" style="fill: #40ba47"/>
   </g>
   <g id="patch_7">
    <path d="M 313.641779 17.28 
L 318.850005 17.28 
L 324.174447 99.121132 
L 329.49028 17.28 
L 334.694202 17.28 
L 327.256339 128.16 
L 321.079642 128.16 
L 313.641779 17.28 
z
" clip-path="url(#p4f28fa9f58)" style="fill: #21599c"/>
   </g>
   <g id="patch_8">
    <path d="M 350.385256 107.961114 
L 342.288832 107.961114 
L 341.01045 128.16 
L 335.802224 128.16 
L 343.240087 17.28 
L 349.416784 17.28 
L 356.854647 128.16 
L 351.650725 128.16 
L 350.385256 107.961114 
z
M 343.580128 87.382015 
L 349.081047 87.382015 
L 346.334892 43.277154 
L 343.580128 87.382015 
z
" clip-path="url(#p4f28fa9f58)" style="fill: #21599c"/>
   </g>
   <g id="patch_9">
    <path d="M 364.668961 17.28 
L 372.308799 17.28 
L 372.308799 128.16 
L 364.668961 128.16 
L 364.668961 17.28 
z
" clip-path="url(#p4f28fa9f58)" style="fill: #21599c"/>
   </g>
   <g id="patch_10">
    <path d="M 380.123114 17.28 
L 386.333375 17.28 
L 390.641212 76.617197 
L 394.977443 17.28 
L 401.175536 17.28 
L 401.175536 128.16 
L 396.563474 128.16 
L 396.563474 47.055534 
L 392.202904 106.844235 
L 389.107914 106.844235 
L 384.747345 47.055534 
L 384.747345 128.16 
L 380.123114 128.16 
L 380.123114 17.28 
z
" clip-path="url(#p4f28fa9f58)" style="fill: #21599c"/>
   </g>
   <g id="patch_11">
    <path d="M 402.283558 17.28 
L 422.897786 17.28 
L 422.897786 38.904689 
L 409.923397 38.904689 
L 409.923397 59.531316 
L 422.129356 59.531316 
L 422.129356 81.156005 
L 409.923397 81.156005 
L 409.923397 106.559074 
L 423.335981 106.559074 
L 423.335981 128.16 
L 402.283558 128.16 
L 402.283558 17.28 
z
" clip-path="url(#p4f28fa9f58)" style="fill: #6b296b"/>
   </g>
   <g id="patch_12">
    <path d="M 424.444003 17.28 
L 432.083842 17.28 
L 432.083842 106.559074 
L 445.496426 106.559074 
L 445.496426 128.16 
L 424.444003 128.16 
L 424.444003 17.28 
z
" clip-path="url(#p4f28fa9f58)" style="fill: #21599c"/>
   </g>
   <g id="patch_13">
    <path d="M 446.604448 17.28 
L 451.812674 17.28 
L 457.137116 99.121132 
L 462.452949 17.28 
L 467.656871 17.28 
L 460.219008 128.16 
L 454.042311 128.16 
L 446.604448 17.28 
z
" clip-path="url(#p4f28fa9f58)" style="fill: #21599c"/>
   </g>
   <g id="patch_14">
    <path d="M 488.061994 22.570907 
L 488.061994 45.200413 
Q 485.866413 41.260863 483.773749 39.268184 
Q 481.686803 37.252601 479.828564 37.252601 
Q 477.364253 37.252601 476.180697 39.978219 
Q 475.002859 42.680934 475.002859 48.407023 
Q 475.002859 52.713043 475.797614 55.118 
Q 476.592369 57.500054 478.685032 59.217881 
L 481.612474 61.57703 
Q 486.060813 65.173014 487.936205 72.479504 
Q 489.817315 79.76309 489.817315 93.230853 
Q 489.817315 110.890114 487.198627 119.525057 
Q 484.579939 128.16 479.199621 128.16 
Q 476.666698 128.16 474.110904 126.21313 
Q 471.555111 124.289163 468.999317 120.48704 
L 468.999317 97.239116 
Q 471.555111 102.667449 473.939375 105.438876 
Q 476.323639 108.187399 478.542091 108.187399 
Q 480.794849 108.187399 481.989839 105.186928 
Q 483.18483 102.163553 483.18483 96.574889 
Q 483.18483 91.581739 482.372923 88.856121 
Q 481.561015 86.130502 479.13101 83.977492 
L 476.46658 81.618343 
Q 472.464219 78.18269 470.611697 70.67006 
Q 468.764893 63.15743 468.764893 50.422607 
Q 468.764893 34.458269 471.33784 25.869134 
Q 473.910786 17.28 478.736491 17.28 
Q 480.93779 17.28 483.25916 18.608453 
Q 485.58053 19.936906 488.061994 22.570907 
z
" clip-path="url(#p4f28fa9f58)" style="fill: #40ba47"/>
   </g>
   <g id="patch_15">
    <path d="M 490.925338 17.28 
L 497.687692 17.28 
L 506.232528 93.322863 
L 506.232528 17.28 
L 511.97776 17.28 
L 511.97776 128.16 
L 505.210371 128.16 
L 496.665534 52.117137 
L 496.665534 128.16 
L 490.925338 128.16 
L 490.925338 17.28 
z
" clip-path="url(#p4f28fa9f58)" style="fill: #40ba47"/>
   </g>
   <g id="patch_16">
    <path d="M 513.085782 17.28 
L 518.906158 17.28 
L 523.607571 56.798526 
L 528.304561 17.28 
L 534.138205 17.28 
L 526.274506 81.441166 
L 526.274506 128.16 
L 520.953904 128.16 
L 520.953904 81.441166 
L 513.085782 17.28 
z
" clip-path="url(#p4f28fa9f58)" style="fill: #177875"/>
   </g>
   <g id="patch_17">
    <path d="M 541.015262 38.904689 
L 541.015262 106.559074 
L 543.08214 106.559074 
Q 546.616454 106.559074 548.481919 97.861672 
Q 550.35218 89.164269 550.35218 72.601183 
Q 550.35218 56.13315 548.49151 47.530802 
Q 546.635636 38.904689 543.08214 38.904689 
L 541.015262 38.904689 
z
M 535.246227 17.28 
L 541.326972 17.28 
Q 546.424632 17.28 548.918313 20.892036 
Q 551.411994 24.480309 553.195935 33.106421 
Q 554.768872 40.615654 555.531363 50.429936 
Q 556.29865 60.220454 556.29865 72.601183 
Q 556.29865 85.172019 555.531363 95.010064 
Q 554.768872 104.84811 553.195935 112.333579 
Q 551.397607 120.959691 548.879949 124.571727 
Q 546.36229 128.16 541.326972 128.16 
L 535.246227 128.16 
L 535.246227 17.28 
z
" clip-path="url(#p4f28fa9f58)" style="fill: #6b296b"/>
   </g>
   <g id="patch_18">
    <path d="M 557.406672 17.28 
L 578.459095 17.28 
L 578.459095 38.904689 
L 570.885118 38.904689 
L 570.885118 128.16 
L 564.995336 128.16 
L 564.995336 38.904689 
L 557.406672 38.904689 
L 557.406672 17.28 
z
" clip-path="url(#p4f28fa9f58)" style="fill: #40ba47"/>
   </g>
   <g id="patch_19">
    <path d="M 579.567117 17.28 
L 585.387492 17.28 
L 590.088905 56.798526 
L 594.785895 17.28 
L 600.619539 17.28 
L 592.75584 81.441166 
L 592.75584 128.16 
L 587.435239 128.16 
L 587.435239 81.441166 
L 579.567117 17.28 
z
" clip-path="url(#p4f28fa9f58)" style="fill: #177875"/>
   </g>
   <g id="patch_20">
    <path d="M 601.727562 17.28 
L 606.935787 17.28 
L 612.260229 99.121132 
L 617.576063 17.28 
L 622.779984 17.28 
L 615.342121 128.16 
L 609.165424 128.16 
L 601.727562 17.28 
z
" clip-path="url(#p4f28fa9f58)" style="fill: #21599c"/>
   </g>
   <g id="patch_21">
    <path d="M 629.657042 38.904689 
L 629.657042 106.559074 
L 631.723919 106.559074 
Q 635.258233 106.559074 637.123698 97.861672 
Q 638.993959 89.164269 638.993959 72.601183 
Q 638.993959 56.13315 637.133289 47.530802 
Q 635.277415 38.904689 631.723919 38.904689 
L 629.657042 38.904689 
z
M 623.888006 17.28 
L 629.968752 17.28 
Q 635.066411 17.28 637.560092 20.892036 
Q 640.053773 24.480309 641.837714 33.106421 
Q 643.410652 40.615654 644.173142 50.429936 
Q 644.940429 60.220454 644.940429 72.601183 
Q 644.940429 85.172019 644.173142 95.010064 
Q 643.410652 104.84811 641.837714 112.333579 
Q 640.039387 120.959691 637.521728 124.571727 
Q 635.004069 128.16 629.968752 128.16 
L 623.888006 128.16 
L 623.888006 17.28 
z
" clip-path="url(#p4f28fa9f58)" style="fill: #6b296b"/>
   </g>
   <g id="patch_22">
    <path d="M 646.048451 17.28 
L 651.256677 17.28 
L 656.581119 99.121132 
L 661.896952 17.28 
L 667.100874 17.28 
L 659.663011 128.16 
L 653.486314 128.16 
L 646.048451 17.28 
z
" clip-path="url(#p4f28fa9f58)" style="fill: #21599c"/>
   </g>
   <g id="patch_23">
    <path d="M 673.977931 38.904689 
L 673.977931 106.559074 
L 676.044809 106.559074 
Q 679.579122 106.559074 681.444588 97.861672 
Q 683.314848 89.164269 683.314848 72.601183 
Q 683.314848 56.13315 681.454179 47.530802 
Q 679.598305 38.904689 676.044809 38.904689 
L 673.977931 38.904689 
z
M 668.208896 17.28 
L 674.289641 17.28 
Q 679.387301 17.28 681.880982 20.892036 
Q 684.374663 24.480309 686.158604 33.106421 
Q 687.731541 40.615654 688.494032 50.429936 
Q 689.261319 60.220454 689.261319 72.601183 
Q 689.261319 85.172019 688.494032 95.010064 
Q 687.731541 104.84811 686.158604 112.333579 
Q 684.360276 120.959691 681.842617 124.571727 
Q 679.324959 128.16 674.289641 128.16 
L 668.208896 128.16 
L 668.208896 17.28 
z
" clip-path="url(#p4f28fa9f58)" style="fill: #6b296b"/>
   </g>
   <g id="patch_24">
    <path d="M 690.369341 17.28 
L 710.983568 17.28 
L 710.983568 38.904689 
L 698.009179 38.904689 
L 698.009179 59.531316 
L 710.215139 59.531316 
L 710.215139 81.156005 
L 698.009179 81.156005 
L 698.009179 106.559074 
L 711.421763 106.559074 
L 711.421763 128.16 
L 690.369341 128.16 
L 690.369341 17.28 
z
" clip-path="url(#p4f28fa9f58)" style="fill: #6b296b"/>
   </g>
   <g id="patch_25">
    <path d="M 712.529786 17.28 
L 720.169624 17.28 
L 720.169624 106.559074 
L 733.582208 106.559074 
L 733.582208 128.16 
L 712.529786 128.16 
L 712.529786 17.28 
z
" clip-path="url(#p4f28fa9f58)" style="fill: #21599c"/>
   </g>
   <g id="patch_26">
    <path d="M 734.69023 17.28 
L 741.452585 17.28 
L 749.997421 93.322863 
L 749.997421 17.28 
L 755.742653 17.28 
L 755.742653 128.16 
L 748.975263 128.16 
L 740.430427 52.117137 
L 740.430427 128.16 
L 734.69023 128.16 
L 734.69023 17.28 
z
" clip-path="url(#p4f28fa9f58)" style="fill: #40ba47"/>
   </g>
   <g id="patch_27">
    <path d="M 763.556967 17.28 
L 771.196806 17.28 
L 771.196806 128.16 
L 763.556967 128.16 
L 763.556967 17.28 
z
" clip-path="url(#p4f28fa9f58)" style="fill: #21599c"/>
   </g>
   <g id="patch_28">
    <path d="M 798.308221 22.570907 
L 798.308221 45.200413 
Q 796.11264 41.260863 794.019976 39.268184 
Q 791.933031 37.252601 790.074791 37.252601 
Q 787.61048 37.252601 786.426924 39.978219 
Q 785.249087 42.680934 785.249087 48.407023 
Q 785.249087 52.713043 786.043841 55.118 
Q 786.838596 57.500054 788.931259 59.217881 
L 791.858701 61.57703 
Q 796.30704 65.173014 798.182432 72.479504 
Q 800.063542 79.76309 800.063542 93.230853 
Q 800.063542 110.890114 797.444854 119.525057 
Q 794.826166 128.16 789.445849 128.16 
Q 786.912925 128.16 784.357132 126.21313 
Q 781.801338 124.289163 779.245544 120.48704 
L 779.245544 97.239116 
Q 781.801338 102.667449 784.185602 105.438876 
Q 786.569866 108.187399 788.788318 108.187399 
Q 791.041076 108.187399 792.236067 105.186928 
Q 793.431057 102.163553 793.431057 96.574889 
Q 793.431057 91.581739 792.61915 88.856121 
Q 791.807242 86.130502 789.377237 83.977492 
L 786.712807 81.618343 
Q 782.710446 78.18269 780.857924 70.67006 
Q 779.01112 63.15743 779.01112 50.422607 
Q 779.01112 34.458269 781.584067 25.869134 
Q 784.157014 17.28 788.982718 17.28 
Q 791.184017 17.28 793.505387 18.608453 
Q 795.826757 19.936906 798.308221 22.570907 
z
" clip-path="url(#p4f28fa9f58)" style="fill: #40ba47"/>
   </g>
   <g id="patch_29">
    <path d="M 815.754596 107.961114 
L 807.658173 107.961114 
L 806.37979 128.16 
L 801.171565 128.16 
L 808.609427 17.28 
L 814.786125 17.28 
L 822.223987 128.16 
L 817.020066 128.16 
L 815.754596 107.961114 
z
M 808.949469 87.382015 
L 814.450388 87.382015 
L 811.704232 43.277154 
L 808.949469 87.382015 
z
" clip-path="url(#p4f28fa9f58)" style="fill: #21599c"/>
   </g>
   <g id="patch_30">
    <path d="M 837.915041 107.961114 
L 829.818618 107.961114 
L 828.540235 128.16 
L 823.33201 128.16 
L 830.769872 17.28 
L 836.946569 17.28 
L 844.384432 128.16 
L 839.180511 128.16 
L 837.915041 107.961114 
z
M 831.109913 87.382015 
L 836.610833 87.382015 
L 833.864677 43.277154 
L 831.109913 87.382015 
z
" clip-path="url(#p4f28fa9f58)" style="fill: #21599c"/>
   </g>
   <g id="patch_31">
    <path d="M 860.075486 107.961114 
L 851.979063 107.961114 
L 850.70068 128.16 
L 845.492454 128.16 
L 852.930317 17.28 
L 859.107014 17.28 
L 866.544877 128.16 
L 861.340956 128.16 
L 860.075486 107.961114 
z
M 853.270358 87.382015 
L 858.771277 87.382015 
L 856.025122 43.277154 
L 853.270358 87.382015 
z
" clip-path="url(#p4f28fa9f58)" style="fill: #21599c"/>
   </g>
   <g id="patch_32">
    <path d="M 873.421934 38.904689 
L 873.421934 106.559074 
L 875.488812 106.559074 
Q 879.023126 106.559074 880.888591 97.861672 
Q 882.758852 89.164269 882.758852 72.601183 
Q 882.758852 56.13315 880.898182 47.530802 
Q 879.042308 38.904689 875.488812 38.904689 
L 873.421934 38.904689 
z
M 867.652899 17.28 
L 873.733644 17.28 
Q 878.831304 17.28 881.324985 20.892036 
Q 883.818666 24.480309 885.602607 33.106421 
Q 887.175544 40.615654 887.938035 50.429936 
Q 888.705322 60.220454 888.705322 72.601183 
Q 888.705322 85.172019 887.938035 95.010064 
Q 887.175544 104.84811 885.602607 112.333579 
Q 883.804279 120.959691 881.286621 124.571727 
Q 878.768962 128.16 873.733644 128.16 
L 867.652899 128.16 
L 867.652899 17.28 
z
" clip-path="url(#p4f28fa9f58)" style="fill: #6b296b"/>
   </g>
   <g id="patch_33">
    <path d="M 904.396376 107.961114 
L 896.299952 107.961114 
L 895.02157 128.16 
L 889.813344 128.16 
L 897.251207 17.28 
L 903.427904 17.28 
L 910.865766 128.16 
L 905.661845 128.16 
L 904.396376 107.961114 
z
M 897.591248 87.382015 
L 903.092167 87.382015 
L 900.346012 43.277154 
L 897.591248 87.382015 
z
" clip-path="url(#p4f28fa9f58)" style="fill: #21599c"/>
   </g>
   <g id="patch_34">
    <path d="M 911.973789 17.28 
L 922.916663 17.28 
Q 927.801482 17.28 930.411106 26.690304 
Q 933.026211 36.076845 933.026211 53.447887 
Q 933.026211 70.913982 930.411106 80.300523 
Q 927.801482 89.687064 922.916663 89.687064 
L 918.569118 89.687064 
L 918.569118 128.16 
L 911.973789 128.16 
L 911.973789 17.28 
z
M 918.569118 38.00168 
L 918.569118 68.965384 
L 922.214915 68.965384 
Q 924.133756 68.965384 925.180894 64.925607 
Q 926.228033 60.885829 926.228033 53.447887 
Q 926.228033 46.033708 925.180894 42.017694 
Q 924.133756 38.00168 922.214915 38.00168 
L 918.569118 38.00168 
z
" clip-path="url(#p4f28fa9f58)" style="fill: #787800"/>
   </g>
   <g id="patch_35">
    <path d="M 948.717265 107.961114 
L 940.620842 107.961114 
L 939.342459 128.16 
L 934.134234 128.16 
L 941.572096 17.28 
L 947.748793 17.28 
L 955.186656 128.16 
L 949.982735 128.16 
L 948.717265 107.961114 
z
M 941.912137 87.382015 
L 947.413057 87.382015 
L 944.666901 43.277154 
L 941.912137 87.382015 
z
" clip-path="url(#p4f28fa9f58)" style="fill: #21599c"/>
   </g>
   <g id="patch_36">
    <path d="M 956.294678 17.28 
L 977.347101 17.28 
L 977.347101 38.904689 
L 969.773125 38.904689 
L 969.773125 128.16 
L 963.883342 128.16 
L 963.883342 38.904689 
L 956.294678 38.904689 
L 956.294678 17.28 
z
" clip-path="url(#p4f28fa9f58)" style="fill: #40ba47"/>
   </g>
   <g id="patch_37">
    <path d="M 978.455123 17.28 
L 999.507546 17.28 
L 999.507546 38.904689 
L 991.933569 38.904689 
L 991.933569 128.16 
L 986.043787 128.16 
L 986.043787 38.904689 
L 978.455123 38.904689 
L 978.455123 17.28 
z
" clip-path="url(#p4f28fa9f58)" style="fill: #40ba47"/>
   </g>
   <g id="patch_38">
    <path d="M 1000.615568 17.28 
L 1011.558442 17.28 
Q 1016.443262 17.28 1019.052885 26.690304 
Q 1021.66799 36.076845 1021.66799 53.447887 
Q 1021.66799 70.913982 1019.052885 80.300523 
Q 1016.443262 89.687064 1011.558442 89.687064 
L 1007.210897 89.687064 
L 1007.210897 128.16 
L 1000.615568 128.16 
L 1000.615568 17.28 
z
M 1007.210897 38.00168 
L 1007.210897 68.965384 
L 1010.856694 68.965384 
Q 1012.775535 68.965384 1013.822674 64.925607 
Q 1014.869812 60.885829 1014.869812 53.447887 
Q 1014.869812 46.033708 1013.822674 42.017694 
Q 1012.775535 38.00168 1010.856694 38.00168 
L 1007.210897 38.00168 
z
" clip-path="url(#p4f28fa9f58)" style="fill: #787800"/>
   </g>
   <g id="patch_39">
    <path d="M 1022.776013 17.28 
L 1027.984238 17.28 
L 1033.30868 99.121132 
L 1038.624514 17.28 
L 1043.828435 17.28 
L 1036.390573 128.16 
L 1030.213875 128.16 
L 1022.776013 17.28 
z
" clip-path="url(#p4f28fa9f58)" style="fill: #21599c"/>
   </g>
   <g id="patch_40">
    <path d="M 1065.98888 120.212188 
Q 1064.227881 124.151737 1062.323669 126.144416 
Q 1060.419456 128.16 1058.345509 128.16 
Q 1052.160796 128.16 1048.548627 113.226358 
Q 1044.936458 98.292716 1044.936458 72.754357 
Q 1044.936458 47.124379 1048.548627 32.213642 
Q 1052.160796 17.28 1058.345509 17.28 
Q 1060.419456 17.28 1062.323669 19.295584 
Q 1064.227881 21.288263 1065.98888 25.227812 
L 1065.98888 47.330518 
Q 1064.211969 42.108325 1062.488099 39.680463 
Q 1060.76423 37.252601 1058.860017 37.252601 
Q 1055.444104 37.252601 1053.486849 46.712101 
Q 1051.534899 56.148697 1051.534899 72.754357 
Q 1051.534899 89.291303 1053.486849 98.750804 
Q 1055.444104 108.187399 1058.860017 108.187399 
Q 1060.76423 108.187399 1062.488099 105.759537 
Q 1064.211969 103.308771 1065.98888 98.086577 
L 1065.98888 120.212188 
z
" clip-path="url(#p4f28fa9f58)" style="fill: #6b296b"/>
   </g>
   <g id="patch_41">
    <path d="M 1081.679934 107.961114 
L 1073.583511 107.961114 
L 1072.305128 128.16 
L 1067.096902 128.16 
L 1074.534765 17.28 
L 1080.711462 17.28 
L 1088.149325 128.16 
L 1082.945404 128.16 
L 1081.679934 107.961114 
z
M 1074.874806 87.382015 
L 1080.375725 87.382015 
L 1077.62957 43.277154 
L 1074.874806 87.382015 
z
" clip-path="url(#p4f28fa9f58)" style="fill: #21599c"/>
   </g>
   <g id="patch_42">
    <path d="M 1095.963639 17.28 
L 1103.603478 17.28 
L 1103.603478 128.16 
L 1095.963639 128.16 
L 1095.963639 17.28 
z
" clip-path="url(#p4f28fa9f58)" style="fill: #21599c"/>
   </g>
   <g id="patch_43">
    <path d="M 1132.470214 118.127891 
Q 1130.347043 123.143945 1128.063455 125.663425 
Q 1125.779866 128.16 1123.345296 128.16 
Q 1117.843924 128.16 1114.630858 113.226358 
Q 1111.417792 98.292716 1111.417792 72.754357 
Q 1111.417792 46.91824 1114.687476 32.09912 
Q 1117.961878 17.28 1123.656695 17.28 
Q 1125.850638 17.28 1127.860574 19.295584 
Q 1129.875227 21.288263 1131.658691 25.227812 
L 1131.658691 47.330518 
Q 1129.818609 42.268655 1127.9974 39.77208 
Q 1126.176191 37.252601 1124.345546 37.252601 
Q 1120.957908 37.252601 1119.122544 46.460153 
Q 1117.287181 55.644801 1117.287181 72.754357 
Q 1117.287181 89.703582 1119.05649 98.956943 
Q 1120.8258 108.187399 1124.081329 108.187399 
Q 1124.968343 108.187399 1125.727966 107.660599 
Q 1126.48759 107.110894 1127.091514 105.965677 
L 1127.091514 85.214328 
L 1123.623668 85.214328 
L 1123.623668 66.73051 
L 1132.470214 66.73051 
L 1132.470214 118.127891 
z
" clip-path="url(#p4f28fa9f58)" style="fill: #787800"/>
   </g>
   <g id="patch_44">
    <path d="M 1140.284529 17.28 
L 1147.924367 17.28 
L 1147.924367 128.16 
L 1140.284529 128.16 
L 1140.284529 17.28 
z
" clip-path="url(#p4f28fa9f58)" style="fill: #21599c"/>
   </g>
   <g id="patch_45">
    <path d="M 1175.035783 22.570907 
L 1175.035783 45.200413 
Q 1172.840201 41.260863 1170.747538 39.268184 
Q 1168.660592 37.252601 1166.802353 37.252601 
Q 1164.338041 37.252601 1163.154486 39.978219 
Q 1161.976648 42.680934 1161.976648 48.407023 
Q 1161.976648 52.713043 1162.771403 55.118 
Q 1163.566157 57.500054 1165.658821 59.217881 
L 1168.586263 61.57703 
Q 1173.034602 65.173014 1174.909994 72.479504 
Q 1176.791104 79.76309 1176.791104 93.230853 
Q 1176.791104 110.890114 1174.172416 119.525057 
Q 1171.553728 128.16 1166.17341 128.16 
Q 1163.640487 128.16 1161.084693 126.21313 
Q 1158.528899 124.289163 1155.973106 120.48704 
L 1155.973106 97.239116 
Q 1158.528899 102.667449 1160.913163 105.438876 
Q 1163.297427 108.187399 1165.515879 108.187399 
Q 1167.768637 108.187399 1168.963628 105.186928 
Q 1170.158619 102.163553 1170.158619 96.574889 
Q 1170.158619 91.581739 1169.346711 88.856121 
Q 1168.534804 86.130502 1166.104798 83.977492 
L 1163.440369 81.618343 
Q 1159.438007 78.18269 1157.585486 70.67006 
Q 1155.738681 63.15743 1155.738681 50.422607 
Q 1155.738681 34.458269 1158.311628 25.869134 
Q 1160.884575 17.28 1165.71028 17.28 
Q 1167.911579 17.28 1170.232949 18.608453 
Q 1172.554318 19.936906 1175.035783 22.570907 
z
" clip-path="url(#p4f28fa9f58)" style="fill: #40ba47"/>
   </g>
   <g id="patch_46">
    <path d="M 1197.196227 22.570907 
L 1197.196227 45.200413 
Q 1195.000646 41.260863 1192.907983 39.268184 
Q 1190.821037 37.252601 1188.962798 37.252601 
Q 1186.498486 37.252601 1185.314931 39.978219 
Q 1184.137093 42.680934 1184.137093 48.407023 
Q 1184.137093 52.713043 1184.931848 55.118 
Q 1185.726602 57.500054 1187.819266 59.217881 
L 1190.746707 61.57703 
Q 1195.195047 65.173014 1197.070439 72.479504 
Q 1198.951549 79.76309 1198.951549 93.230853 
Q 1198.951549 110.890114 1196.332861 119.525057 
Q 1193.714173 128.16 1188.333855 128.16 
Q 1185.800932 128.16 1183.245138 126.21313 
Q 1180.689344 124.289163 1178.13355 120.48704 
L 1178.13355 97.239116 
Q 1180.689344 102.667449 1183.073608 105.438876 
Q 1185.457872 108.187399 1187.676324 108.187399 
Q 1189.929082 108.187399 1191.124073 105.186928 
Q 1192.319064 102.163553 1192.319064 96.574889 
Q 1192.319064 91.581739 1191.507156 88.856121 
Q 1190.695248 86.130502 1188.265243 83.977492 
L 1185.600814 81.618343 
Q 1181.598452 78.18269 1179.74593 70.67006 
Q 1177.899126 63.15743 1177.899126 50.422607 
Q 1177.899126 34.458269 1180.472073 25.869134 
Q 1183.04502 17.28 1187.870725 17.28 
Q 1190.072024 17.28 1192.393393 18.608453 
Q 1194.714763 19.936906 1197.196227 22.570907 
z
" clip-path="url(#p4f28fa9f58)" style="fill: #40ba47"/>
   </g>
   <g id="patch_47">
    <path d="M 1200.059571 17.28 
L 1205.607449 17.28 
L 1205.607449 57.749061 
L 1213.604142 17.28 
L 1220.04669 17.28 
L 1209.684195 69.797102 
L 1221.111994 128.16 
L 1214.166769 128.16 
L 1205.607449 84.48288 
L 1205.607449 128.16 
L 1200.059571 128.16 
L 1200.059571 17.28 
z
" clip-path="url(#p4f28fa9f58)" style="fill: #bd2e1f"/>
   </g>
   <g id="patch_48">
    <path d="M 1228.926308 17.28 
L 1236.566146 17.28 
L 1236.566146 128.16 
L 1228.926308 128.16 
L 1228.926308 17.28 
z
" clip-path="url(#p4f28fa9f58)" style="fill: #21599c"/>
   </g>
   <g id="patch_49">
    <path d="M 1265.432883 120.212188 
Q 1263.671884 124.151737 1261.767672 126.144416 
Q 1259.863459 128.16 1257.789512 128.16 
Q 1251.604799 128.16 1247.99263 113.226358 
Q 1244.380461 98.292716 1244.380461 72.754357 
Q 1244.380461 47.124379 1247.99263 32.213642 
Q 1251.604799 17.28 1257.789512 17.28 
Q 1259.863459 17.28 1261.767672 19.295584 
Q 1263.671884 21.288263 1265.432883 25.227812 
L 1265.432883 47.330518 
Q 1263.655972 42.108325 1261.932102 39.680463 
Q 1260.208233 37.252601 1258.304021 37.252601 
Q 1254.888107 37.252601 1252.930853 46.712101 
Q 1250.978902 56.148697 1250.978902 72.754357 
Q 1250.978902 89.291303 1252.930853 98.750804 
Q 1254.888107 108.187399 1258.304021 108.187399 
Q 1260.208233 108.187399 1261.932102 105.759537 
Q 1263.655972 103.308771 1265.432883 98.086577 
L 1265.432883 120.212188 
z
" clip-path="url(#p4f28fa9f58)" style="fill: #6b296b"/>
   </g>
   <g id="patch_50">
    <path d="M 1281.123937 107.961114 
L 1273.027514 107.961114 
L 1271.749131 128.16 
L 1266.540905 128.16 
L 1273.978768 17.28 
L 1280.155465 17.28 
L 1287.593328 128.16 
L 1282.389407 128.16 
L 1281.123937 107.961114 
z
M 1274.318809 87.382015 
L 1279.819729 87.382015 
L 1277.073573 43.277154 
L 1274.318809 87.382015 
z
" clip-path="url(#p4f28fa9f58)" style="fill: #21599c"/>
   </g>
   <g id="patch_51">
    <path d="M 1307.998451 22.570907 
L 1307.998451 45.200413 
Q 1305.80287 41.260863 1303.710207 39.268184 
Q 1301.623261 37.252601 1299.765022 37.252601 
Q 1297.30071 37.252601 1296.117155 39.978219 
Q 1294.939317 42.680934 1294.939317 48.407023 
Q 1294.939317 52.713043 1295.734072 55.118 
Q 1296.528826 57.500054 1298.62149 59.217881 
L 1301.548931 61.57703 
Q 1305.99727 65.173014 1307.872663 72.479504 
Q 1309.753773 79.76309 1309.753773 93.230853 
Q 1309.753773 110.890114 1307.135085 119.525057 
Q 1304.516397 128.16 1299.136079 128.16 
Q 1296.603156 128.16 1294.047362 126.21313 
Q 1291.491568 124.289163 1288.935774 120.48704 
L 1288.935774 97.239116 
Q 1291.491568 102.667449 1293.875832 105.438876 
Q 1296.260096 108.187399 1298.478548 108.187399 
Q 1300.731306 108.187399 1301.926297 105.186928 
Q 1303.121288 102.163553 1303.121288 96.574889 
Q 1303.121288 91.581739 1302.30938 88.856121 
Q 1301.497472 86.130502 1299.067467 83.977492 
L 1296.403038 81.618343 
Q 1292.400676 78.18269 1290.548154 70.67006 
Q 1288.70135 63.15743 1288.70135 50.422607 
Q 1288.70135 34.458269 1291.274297 25.869134 
Q 1293.847244 17.28 1298.672949 17.28 
Q 1300.874248 17.28 1303.195617 18.608453 
Q 1305.516987 19.936906 1307.998451 22.570907 
z
" clip-path="url(#p4f28fa9f58)" style="fill: #40ba47"/>
   </g>
   <g id="patch_52">
    <path d="M 1325.444827 107.961114 
L 1317.348403 107.961114 
L 1316.070021 128.16 
L 1310.861795 128.16 
L 1318.299658 17.28 
L 1324.476355 17.28 
L 1331.914218 128.16 
L 1326.710296 128.16 
L 1325.444827 107.961114 
z
M 1318.639699 87.382015 
L 1324.140618 87.382015 
L 1321.394463 43.277154 
L 1318.639699 87.382015 
z
" clip-path="url(#p4f28fa9f58)" style="fill: #21599c"/>
   </g>
   <g id="patch_53">
    <path d="M 1333.02224 17.28 
L 1338.230465 17.28 
L 1343.554908 99.121132 
L 1348.870741 17.28 
L 1354.074662 17.28 
L 1346.6368 128.16 
L 1340.460103 128.16 
L 1333.02224 17.28 
z
" clip-path="url(#p4f28fa9f58)" style="fill: #21599c"/>
   </g>
   <g id="patch_54">
    <path d="M 1374.479786 22.570907 
L 1374.479786 45.200413 
Q 1372.284204 41.260863 1370.191541 39.268184 
Q 1368.104595 37.252601 1366.246356 37.252601 
Q 1363.782045 37.252601 1362.598489 39.978219 
Q 1361.420651 42.680934 1361.420651 48.407023 
Q 1361.420651 52.713043 1362.215406 55.118 
Q 1363.010161 57.500054 1365.102824 59.217881 
L 1368.030266 61.57703 
Q 1372.478605 65.173014 1374.353997 72.479504 
Q 1376.235107 79.76309 1376.235107 93.230853 
Q 1376.235107 110.890114 1373.616419 119.525057 
Q 1370.997731 128.16 1365.617413 128.16 
Q 1363.08449 128.16 1360.528696 126.21313 
Q 1357.972903 124.289163 1355.417109 120.48704 
L 1355.417109 97.239116 
Q 1357.972903 102.667449 1360.357167 105.438876 
Q 1362.741431 108.187399 1364.959883 108.187399 
Q 1367.21264 108.187399 1368.407631 105.186928 
Q 1369.602622 102.163553 1369.602622 96.574889 
Q 1369.602622 91.581739 1368.790714 88.856121 
Q 1367.978807 86.130502 1365.548801 83.977492 
L 1362.884372 81.618343 
Q 1358.88201 78.18269 1357.029489 70.67006 
Q 1355.182685 63.15743 1355.182685 50.422607 
Q 1355.182685 34.458269 1357.755631 25.869134 
Q 1360.328578 17.28 1365.154283 17.28 
Q 1367.355582 17.28 1369.676952 18.608453 
Q 1371.998321 19.936906 1374.479786 22.570907 
z
" clip-path="url(#p4f28fa9f58)" style="fill: #40ba47"/>
   </g>
   <g id="patch_55">
    <path d="M 1391.926161 107.961114 
L 1383.829738 107.961114 
L 1382.551355 128.16 
L 1377.343129 128.16 
L 1384.780992 17.28 
L 1390.957689 17.28 
L 1398.395552 128.16 
L 1393.191631 128.16 
L 1391.926161 107.961114 
z
M 1385.121033 87.382015 
L 1390.621953 87.382015 
L 1387.875797 43.277154 
L 1385.121033 87.382015 
z
" clip-path="url(#p4f28fa9f58)" style="fill: #21599c"/>
   </g>
   <g id="patch_56">
    <path d="M 1399.503574 17.28 
L 1404.7118 17.28 
L 1410.036242 99.121132 
L 1415.352076 17.28 
L 1420.555997 17.28 
L 1413.118134 128.16 
L 1406.941437 128.16 
L 1399.503574 17.28 
z
" clip-path="url(#p4f28fa9f58)" style="fill: #21599c"/>
   </g>
   <g id="patch_57">
    <path d="M 1440.96112 22.570907 
L 1440.96112 45.200413 
Q 1438.765539 41.260863 1436.672875 39.268184 
Q 1434.58593 37.252601 1432.72769 37.252601 
Q 1430.263379 37.252601 1429.079824 39.978219 
Q 1427.901986 42.680934 1427.901986 48.407023 
Q 1427.901986 52.713043 1428.69674 55.118 
Q 1429.491495 57.500054 1431.584158 59.217881 
L 1434.5116 61.57703 
Q 1438.959939 65.173014 1440.835332 72.479504 
Q 1442.716442 79.76309 1442.716442 93.230853 
Q 1442.716442 110.890114 1440.097754 119.525057 
Q 1437.479065 128.16 1432.098748 128.16 
Q 1429.565825 128.16 1427.010031 126.21313 
Q 1424.454237 124.289163 1421.898443 120.48704 
L 1421.898443 97.239116 
Q 1424.454237 102.667449 1426.838501 105.438876 
Q 1429.222765 108.187399 1431.441217 108.187399 
Q 1433.693975 108.187399 1434.888966 105.186928 
Q 1436.083957 102.163553 1436.083957 96.574889 
Q 1436.083957 91.581739 1435.272049 88.856121 
Q 1434.460141 86.130502 1432.030136 83.977492 
L 1429.365707 81.618343 
Q 1425.363345 78.18269 1423.510823 70.67006 
Q 1421.664019 63.15743 1421.664019 50.422607 
Q 1421.664019 34.458269 1424.236966 25.869134 
Q 1426.809913 17.28 1431.635617 17.28 
Q 1433.836916 17.28 1436.158286 18.608453 
Q 1438.479656 19.936906 1440.96112 22.570907 
z
" clip-path="url(#p4f28fa9f58)" style="fill: #40ba47"/>
   </g>
   <g id="patch_58">
    <path d="M 1458.407495 107.961114 
L 1450.311072 107.961114 
L 1449.032689 128.16 
L 1443.824464 128.16 
L 1451.262327 17.28 
L 1457.439024 17.28 
L 1464.876886 128.16 
L 1459.672965 128.16 
L 1458.407495 107.961114 
z
M 1451.602368 87.382015 
L 1457.103287 87.382015 
L 1454.357132 43.277154 
L 1451.602368 87.382015 
z
" clip-path="url(#p4f28fa9f58)" style="fill: #21599c"/>
   </g>
   <g id="patch_59">
    <path d="M 1465.984909 17.28 
L 1471.193134 17.28 
L 1476.517576 99.121132 
L 1481.83341 17.28 
L 1487.037331 17.28 
L 1479.599469 128.16 
L 1473.422771 128.16 
L 1465.984909 17.28 
z
" clip-path="url(#p4f28fa9f58)" style="fill: #21599c"/>
   </g>
   <g id="patch_60">
    <path d="M 1488.145353 17.28 
L 1509.197776 17.28 
L 1509.197776 38.904689 
L 1501.6238 38.904689 
L 1501.6238 128.16 
L 1495.734017 128.16 
L 1495.734017 38.904689 
L 1488.145353 38.904689 
L 1488.145353 17.28 
z
" clip-path="url(#p4f28fa9f58)" style="fill: #40ba47"/>
   </g>
   <g id="patch_61">
    <path d="M 1510.305798 17.28 
L 1516.126174 17.28 
L 1520.827587 56.798526 
L 1525.524577 17.28 
L 1531.358221 17.28 
L 1523.494522 81.441166 
L 1523.494522 128.16 
L 1518.17392 128.16 
L 1518.17392 81.441166 
L 1510.305798 17.28 
z
" clip-path="url(#p4f28fa9f58)" style="fill: #177875"/>
   </g>
   <g id="patch_62">
    <path d="M 1532.466243 17.28 
L 1538.523661 17.28 
L 1538.523661 59.531316 
L 1547.461248 59.531316 
L 1547.461248 17.28 
L 1553.518666 17.28 
L 1553.518666 128.16 
L 1547.461248 128.16 
L 1547.461248 81.156005 
L 1538.523661 81.156005 
L 1538.523661 128.16 
L 1532.466243 128.16 
L 1532.466243 17.28 
z
" clip-path="url(#p4f28fa9f58)" style="fill: #177875"/>
   </g>
   <g id="patch_63">
    <path d="M 1554.626688 17.28 
L 1560.174566 17.28 
L 1560.174566 57.749061 
L 1568.171259 17.28 
L 1574.613807 17.28 
L 1564.251311 69.797102 
L 1575.67911 128.16 
L 1568.733886 128.16 
L 1560.174566 84.48288 
L 1560.174566 128.16 
L 1554.626688 128.16 
L 1554.626688 17.28 
z
" clip-path="url(#p4f28fa9f58)" style="fill: #bd2e1f"/>
   </g>
   <g id="patch_64">
    <path d="M 1597.839555 118.127891 
Q 1595.716384 123.143945 1593.432795 125.663425 
Q 1591.149207 128.16 1588.714637 128.16 
Q 1583.213264 128.16 1580.000198 113.226358 
Q 1576.787133 98.292716 1576.787133 72.754357 
Q 1576.787133 46.91824 1580.056816 32.09912 
Q 1583.331218 17.28 1589.026035 17.28 
Q 1591.219979 17.28 1593.229914 19.295584 
Q 1595.244568 21.288263 1597.028032 25.227812 
L 1597.028032 47.330518 
Q 1595.18795 42.268655 1593.366741 39.77208 
Q 1591.545532 37.252601 1589.714887 37.252601 
Q 1586.327249 37.252601 1584.491885 46.460153 
Q 1582.656522 55.644801 1582.656522 72.754357 
Q 1582.656522 89.703582 1584.425831 98.956943 
Q 1586.19514 108.187399 1589.45067 108.187399 
Q 1590.337683 108.187399 1591.097307 107.660599 
Q 1591.85693 107.110894 1592.460855 105.965677 
L 1592.460855 85.214328 
L 1588.993008 85.214328 
L 1588.993008 66.73051 
L 1597.839555 66.73051 
L 1597.839555 118.127891 
z
" clip-path="url(#p4f28fa9f58)" style="fill: #787800"/>
   </g>
   <g id="patch_65">
    <path d="M 1620 120.212188 
Q 1618.239001 124.151737 1616.334789 126.144416 
Q 1614.430576 128.16 1612.356629 128.16 
Q 1606.171916 128.16 1602.559747 113.226358 
Q 1598.947577 98.292716 1598.947577 72.754357 
Q 1598.947577 47.124379 1602.559747 32.213642 
Q 1606.171916 17.28 1612.356629 17.28 
Q 1614.430576 17.28 1616.334789 19.295584 
Q 1618.239001 21.288263 1620 25.227812 
L 1620 47.330518 
Q 1618.223089 42.108325 1616.499219 39.680463 
Q 1614.77535 37.252601 1612.871137 37.252601 
Q 1609.455224 37.252601 1607.497969 46.712101 
Q 1605.546019 56.148697 1605.546019 72.754357 
Q 1605.546019 89.291303 1607.497969 98.750804 
Q 1609.455224 108.187399 1612.871137 108.187399 
Q 1614.77535 108.187399 1616.499219 105.759537 
Q 1618.223089 103.308771 1620 98.086577 
L 1620 120.212188 
z
" clip-path="url(#p4f28fa9f58)" style="fill: #6b296b"/>
   </g>
   <g id="matplotlib.axis_1">
    <g id="xtick_1">
     <g id="line2d_2">
      <defs>
       <path id="m418668e7c0" d="M 0 0 
L 0 3.5 
" style="stroke: #000000; stroke-width: 0.8"/>
      </defs>
      <g>
       <use xlink:href="#m418668e7c0" x="235.526211" y="128.16" style="stroke: #000000; stroke-width: 0.8"/>
      </g>
     </g>
     <g id="text_1">
      <!-- 0 -->
      <g transform="translate(232.344961 142.758438) scale(0.1 -0.1)">
       <defs>
        <path id="DejaVuSans-30" d="M 2034 4250 
Q 1547 4250 1301 3770 
Q 1056 3291 1056 2328 
Q 1056 1369 1301 889 
Q 1547 409 2034 409 
Q 2525 409 2770 889 
Q 3016 1369 3016 2328 
Q 3016 3291 2770 3770 
Q 2525 4250 2034 4250 
z
M 2034 4750 
Q 2819 4750 3233 4129 
Q 3647 3509 3647 2328 
Q 3647 1150 3233 529 
Q 2819 -91 2034 -91 
Q 1250 -91 836 529 
Q 422 1150 422 2328 
Q 422 3509 836 4129 
Q 1250 4750 2034 4750 
z
" transform="scale(0.015625)"/>
       </defs>
       <use xlink:href="#DejaVuSans-30"/>
      </g>
     </g>
    </g>
    <g id="xtick_2">
     <g id="line2d_3">
      <g>
       <use xlink:href="#m418668e7c0" x="457.130659" y="128.16" style="stroke: #000000; stroke-width: 0.8"/>
      </g>
     </g>
     <g id="text_2">
      <!-- 10 -->
      <g transform="translate(450.768159 142.758438) scale(0.1 -0.1)">
       <defs>
        <path id="DejaVuSans-31" d="M 794 531 
L 1825 531 
L 1825 4091 
L 703 3866 
L 703 4441 
L 1819 4666 
L 2450 4666 
L 2450 531 
L 3481 531 
L 3481 0 
L 794 0 
L 794 531 
z
" transform="scale(0.015625)"/>
       </defs>
       <use xlink:href="#DejaVuSans-31"/>
       <use xlink:href="#DejaVuSans-30" x="63.623047"/>
      </g>
     </g>
    </g>
    <g id="xtick_3">
     <g id="line2d_4">
      <g>
       <use xlink:href="#m418668e7c0" x="678.735107" y="128.16" style="stroke: #000000; stroke-width: 0.8"/>
      </g>
     </g>
     <g id="text_3">
      <!-- 20 -->
      <g transform="translate(672.372607 142.758438) scale(0.1 -0.1)">
       <defs>
        <path id="DejaVuSans-32" d="M 1228 531 
L 3431 531 
L 3431 0 
L 469 0 
L 469 531 
Q 828 903 1448 1529 
Q 2069 2156 2228 2338 
Q 2531 2678 2651 2914 
Q 2772 3150 2772 3378 
Q 2772 3750 2511 3984 
Q 2250 4219 1831 4219 
Q 1534 4219 1204 4116 
Q 875 4013 500 3803 
L 500 4441 
Q 881 4594 1212 4672 
Q 1544 4750 1819 4750 
Q 2544 4750 2975 4387 
Q 3406 4025 3406 3419 
Q 3406 3131 3298 2873 
Q 3191 2616 2906 2266 
Q 2828 2175 2409 1742 
Q 1991 1309 1228 531 
z
" transform="scale(0.015625)"/>
       </defs>
       <use xlink:href="#DejaVuSans-32"/>
       <use xlink:href="#DejaVuSans-30" x="63.623047"/>
      </g>
     </g>
    </g>
    <g id="xtick_4">
     <g id="line2d_5">
      <g>
       <use xlink:href="#m418668e7c0" x="900.339555" y="128.16" style="stroke: #000000; stroke-width: 0.8"/>
      </g>
     </g>
     <g id="text_4">
      <!-- 30 -->
      <g transform="translate(893.977055 142.758438) scale(0.1 -0.1)">
       <defs>
        <path id="DejaVuSans-33" d="M 2597 2516 
Q 3050 2419 3304 2112 
Q 3559 1806 3559 1356 
Q 3559 666 3084 287 
Q 2609 -91 1734 -91 
Q 1441 -91 1130 -33 
Q 819 25 488 141 
L 488 750 
Q 750 597 1062 519 
Q 1375 441 1716 441 
Q 2309 441 2620 675 
Q 2931 909 2931 1356 
Q 2931 1769 2642 2001 
Q 2353 2234 1838 2234 
L 1294 2234 
L 1294 2753 
L 1863 2753 
Q 2328 2753 2575 2939 
Q 2822 3125 2822 3475 
Q 2822 3834 2567 4026 
Q 2313 4219 1838 4219 
Q 1578 4219 1281 4162 
Q 984 4106 628 3988 
L 628 4550 
Q 988 4650 1302 4700 
Q 1616 4750 1894 4750 
Q 2613 4750 3031 4423 
Q 3450 4097 3450 3541 
Q 3450 3153 3228 2886 
Q 3006 2619 2597 2516 
z
" transform="scale(0.015625)"/>
       </defs>
       <use xlink:href="#DejaVuSans-33"/>
       <use xlink:href="#DejaVuSans-30" x="63.623047"/>
      </g>
     </g>
    </g>
    <g id="xtick_5">
     <g id="line2d_6">
      <g>
       <use xlink:href="#m418668e7c0" x="1121.944003" y="128.16" style="stroke: #000000; stroke-width: 0.8"/>
      </g>
     </g>
     <g id="text_5">
      <!-- 40 -->
      <g transform="translate(1115.581503 142.758438) scale(0.1 -0.1)">
       <defs>
        <path id="DejaVuSans-34" d="M 2419 4116 
L 825 1625 
L 2419 1625 
L 2419 4116 
z
M 2253 4666 
L 3047 4666 
L 3047 1625 
L 3713 1625 
L 3713 1100 
L 3047 1100 
L 3047 0 
L 2419 0 
L 2419 1100 
L 313 1100 
L 313 1709 
L 2253 4666 
z
" transform="scale(0.015625)"/>
       </defs>
       <use xlink:href="#DejaVuSans-34"/>
       <use xlink:href="#DejaVuSans-30" x="63.623047"/>
      </g>
     </g>
    </g>
    <g id="xtick_6">
     <g id="line2d_7">
      <g>
       <use xlink:href="#m418668e7c0" x="1343.548451" y="128.16" style="stroke: #000000; stroke-width: 0.8"/>
      </g>
     </g>
     <g id="text_6">
      <!-- 50 -->
      <g transform="translate(1337.185951 142.758438) scale(0.1 -0.1)">
       <defs>
        <path id="DejaVuSans-35" d="M 691 4666 
L 3169 4666 
L 3169 4134 
L 1269 4134 
L 1269 2991 
Q 1406 3038 1543 3061 
Q 1681 3084 1819 3084 
Q 2600 3084 3056 2656 
Q 3513 2228 3513 1497 
Q 3513 744 3044 326 
Q 2575 -91 1722 -91 
Q 1428 -91 1123 -41 
Q 819 9 494 109 
L 494 744 
Q 775 591 1075 516 
Q 1375 441 1709 441 
Q 2250 441 2565 725 
Q 2881 1009 2881 1497 
Q 2881 1984 2565 2268 
Q 2250 2553 1709 2553 
Q 1456 2553 1204 2497 
Q 953 2441 691 2322 
L 691 4666 
z
" transform="scale(0.015625)"/>
       </defs>
       <use xlink:href="#DejaVuSans-35"/>
       <use xlink:href="#DejaVuSans-30" x="63.623047"/>
      </g>
     </g>
    </g>
    <g id="xtick_7">
     <g id="line2d_8">
      <g>
       <use xlink:href="#m418668e7c0" x="1565.152899" y="128.16" style="stroke: #000000; stroke-width: 0.8"/>
      </g>
     </g>
     <g id="text_7">
      <!-- 60 -->
      <g transform="translate(1558.790399 142.758438) scale(0.1 -0.1)">
       <defs>
        <path id="DejaVuSans-36" d="M 2113 2584 
Q 1688 2584 1439 2293 
Q 1191 2003 1191 1497 
Q 1191 994 1439 701 
Q 1688 409 2113 409 
Q 2538 409 2786 701 
Q 3034 994 3034 1497 
Q 3034 2003 2786 2293 
Q 2538 2584 2113 2584 
z
M 3366 4563 
L 3366 3988 
Q 3128 4100 2886 4159 
Q 2644 4219 2406 4219 
Q 1781 4219 1451 3797 
Q 1122 3375 1075 2522 
Q 1259 2794 1537 2939 
Q 1816 3084 2150 3084 
Q 2853 3084 3261 2657 
Q 3669 2231 3669 1497 
Q 3669 778 3244 343 
Q 2819 -91 2113 -91 
Q 1303 -91 875 529 
Q 447 1150 447 2328 
Q 447 3434 972 4092 
Q 1497 4750 2381 4750 
Q 2619 4750 2861 4703 
Q 3103 4656 3366 4563 
z
" transform="scale(0.015625)"/>
       </defs>
       <use xlink:href="#DejaVuSans-36"/>
       <use xlink:href="#DejaVuSans-30" x="63.623047"/>
      </g>
     </g>
    </g>
   </g>
   <g id="matplotlib.axis_2">
    <g id="ytick_1">
     <g id="line2d_9">
      <defs>
       <path id="m8ae68b1395" d="M 0 0 
L -3.5 0 
" style="stroke: #000000; stroke-width: 0.8"/>
      </defs>
      <g>
       <use xlink:href="#m8ae68b1395" x="225" y="128.16" style="stroke: #000000; stroke-width: 0.8"/>
      </g>
     </g>
     <g id="text_8">
      <!-- 0.0 -->
      <g transform="translate(202.096875 131.959219) scale(0.1 -0.1)">
       <defs>
        <path id="DejaVuSans-2e" d="M 684 794 
L 1344 794 
L 1344 0 
L 684 0 
L 684 794 
z
" transform="scale(0.015625)"/>
       </defs>
       <use xlink:href="#DejaVuSans-30"/>
       <use xlink:href="#DejaVuSans-2e" x="63.623047"/>
       <use xlink:href="#DejaVuSans-30" x="95.410156"/>
      </g>
     </g>
    </g>
    <g id="ytick_2">
     <g id="line2d_10">
      <g>
       <use xlink:href="#m8ae68b1395" x="225" y="105.984" style="stroke: #000000; stroke-width: 0.8"/>
      </g>
     </g>
     <g id="text_9">
      <!-- 0.2 -->
      <g transform="translate(202.096875 109.783219) scale(0.1 -0.1)">
       <use xlink:href="#DejaVuSans-30"/>
       <use xlink:href="#DejaVuSans-2e" x="63.623047"/>
       <use xlink:href="#DejaVuSans-32" x="95.410156"/>
      </g>
     </g>
    </g>
    <g id="ytick_3">
     <g id="line2d_11">
      <g>
       <use xlink:href="#m8ae68b1395" x="225" y="83.808" style="stroke: #000000; stroke-width: 0.8"/>
      </g>
     </g>
     <g id="text_10">
      <!-- 0.4 -->
      <g transform="translate(202.096875 87.607219) scale(0.1 -0.1)">
       <use xlink:href="#DejaVuSans-30"/>
       <use xlink:href="#DejaVuSans-2e" x="63.623047"/>
       <use xlink:href="#DejaVuSans-34" x="95.410156"/>
      </g>
     </g>
    </g>
    <g id="ytick_4">
     <g id="line2d_12">
      <g>
       <use xlink:href="#m8ae68b1395" x="225" y="61.632" style="stroke: #000000; stroke-width: 0.8"/>
      </g>
     </g>
     <g id="text_11">
      <!-- 0.6 -->
      <g transform="translate(202.096875 65.431219) scale(0.1 -0.1)">
       <use xlink:href="#DejaVuSans-30"/>
       <use xlink:href="#DejaVuSans-2e" x="63.623047"/>
       <use xlink:href="#DejaVuSans-36" x="95.410156"/>
      </g>
     </g>
    </g>
    <g id="ytick_5">
     <g id="line2d_13">
      <g>
       <use xlink:href="#m8ae68b1395" x="225" y="39.456" style="stroke: #000000; stroke-width: 0.8"/>
      </g>
     </g>
     <g id="text_12">
      <!-- 0.8 -->
      <g transform="translate(202.096875 43.255219) scale(0.1 -0.1)">
       <defs>
        <path id="DejaVuSans-38" d="M 2034 2216 
Q 1584 2216 1326 1975 
Q 1069 1734 1069 1313 
Q 1069 891 1326 650 
Q 1584 409 2034 409 
Q 2484 409 2743 651 
Q 3003 894 3003 1313 
Q 3003 1734 2745 1975 
Q 2488 2216 2034 2216 
z
M 1403 2484 
Q 997 2584 770 2862 
Q 544 3141 544 3541 
Q 544 4100 942 4425 
Q 1341 4750 2034 4750 
Q 2731 4750 3128 4425 
Q 3525 4100 3525 3541 
Q 3525 3141 3298 2862 
Q 3072 2584 2669 2484 
Q 3125 2378 3379 2068 
Q 3634 1759 3634 1313 
Q 3634 634 3220 271 
Q 2806 -91 2034 -91 
Q 1263 -91 848 271 
Q 434 634 434 1313 
Q 434 1759 690 2068 
Q 947 2378 1403 2484 
z
M 1172 3481 
Q 1172 3119 1398 2916 
Q 1625 2713 2034 2713 
Q 2441 2713 2670 2916 
Q 2900 3119 2900 3481 
Q 2900 3844 2670 4047 
Q 2441 4250 2034 4250 
Q 1625 4250 1398 4047 
Q 1172 3844 1172 3481 
z
" transform="scale(0.015625)"/>
       </defs>
       <use xlink:href="#DejaVuSans-30"/>
       <use xlink:href="#DejaVuSans-2e" x="63.623047"/>
       <use xlink:href="#DejaVuSans-38" x="95.410156"/>
      </g>
     </g>
    </g>
    <g id="ytick_6">
     <g id="line2d_14">
      <g>
       <use xlink:href="#m8ae68b1395" x="225" y="17.28" style="stroke: #000000; stroke-width: 0.8"/>
      </g>
     </g>
     <g id="text_13">
      <!-- 1.0 -->
      <g transform="translate(202.096875 21.079219) scale(0.1 -0.1)">
       <use xlink:href="#DejaVuSans-31"/>
       <use xlink:href="#DejaVuSans-2e" x="63.623047"/>
       <use xlink:href="#DejaVuSans-30" x="95.410156"/>
      </g>
     </g>
    </g>
   </g>
  </g>
 </g>
 <defs>
  <clipPath id="p4f28fa9f58">
   <rect x="225" y="17.28" width="1395" height="110.88"/>
  </clipPath>
 </defs>
</svg>
