<?xml version="1.0" encoding="utf-8" standalone="no"?>
<!DOCTYPE svg PUBLIC "-//W3C//DTD SVG 1.1//EN"
  "http://www.w3.org/Graphics/SVG/1.1/DTD/svg11.dtd">
<svg xmlns:xlink="http://www.w3.org/1999/xlink" width="1800pt" height="144pt" viewBox="0 0 1800 144" xmlns="http://www.w3.org/2000/svg" version="1.1">
 <metadata>
  <rdf:RDF xmlns:dc="http://purl.org/dc/elements/1.1/" xmlns:cc="http://creativecommons.org/ns#" xmlns:rdf="http://www.w3.org/1999/02/22-rdf-syntax-ns#">
   <cc:Work>
    <dc:type rdf:resource="http://purl.org/dc/dcmitype/StillImage"/>
    <dc:date>2025-05-09T21:11:20.053580</dc:date>
    <dc:format>image/svg+xml</dc:format>
    <dc:creator>
     <cc:Agent>
      <dc:title>Matplotlib v3.8.0, https://matplotlib.org/</dc:title>
     </cc:Agent>
    </dc:creator>
   </cc:Work>
  </rdf:RDF>
 </metadata>
 <defs>
  <style type="text/css">*{stroke-linejoin: round; stroke-linecap: butt}</style>
 </defs>
 <g id="figure_1">
  <g id="patch_1">
   <path d="M 0 144 
L 1800 144 
L 1800 0 
L 0 0 
z
" style="fill: #ffffff"/>
  </g>
  <g id="axes_1">
   <g id="patch_2">
    <path d="M 225 128.16 
L 1620 128.16 
L 1620 17.28 
L 225 17.28 
z
" style="fill: #ffffff"/>
   </g>
   <g id="line2d_1">
    <path d="M 225 128.16 
L 1620 128.16 
" clip-path="url(#p360b2c7997)" style="fill: none; stroke: #000000; stroke-width: 1.5; stroke-linecap: square"/>
   </g>
   <g id="patch_3">
    <path d="M 225 17.28 
L 228.621454 17.28 
L 231.133528 76.617197 
L 233.662159 17.28 
L 237.276517 17.28 
L 237.276517 128.16 
L 234.587037 128.16 
L 234.587037 47.055534 
L 232.044213 106.844235 
L 230.2394 106.844235 
L 227.696576 47.055534 
L 227.696576 128.16 
L 225 128.16 
L 225 17.28 
z
" clip-path="url(#p360b2c7997)" style="fill: #21599c"/>
   </g>
   <g id="patch_4">
    <path d="M 241.286807 38.904689 
L 241.286807 106.559074 
L 242.492086 106.559074 
Q 244.553087 106.559074 245.640915 97.861672 
Q 246.73154 89.164269 246.73154 72.601183 
Q 246.73154 56.13315 245.646508 47.530802 
Q 244.564273 38.904689 242.492086 38.904689 
L 241.286807 38.904689 
z
M 237.922649 17.28 
L 241.468577 17.28 
Q 244.441228 17.28 245.895394 20.892036 
Q 247.34956 24.480309 248.389848 33.106421 
Q 249.307091 40.615654 249.751731 50.429936 
Q 250.199166 60.220454 250.199166 72.601183 
Q 250.199166 85.172019 249.751731 95.010064 
Q 249.307091 104.84811 248.389848 112.333579 
Q 247.341171 120.959691 245.873022 124.571727 
Q 244.404874 128.16 241.468577 128.16 
L 237.922649 128.16 
L 237.922649 17.28 
z
" clip-path="url(#p360b2c7997)" style="fill: #6b296b"/>
   </g>
   <g id="patch_5">
    <path d="M 257.310931 111.578719 
L 257.070516 111.578719 
Q 254.121594 111.578719 252.482168 99.152512 
Q 250.845299 86.706798 250.845299 64.526897 
Q 250.845299 42.38601 252.47961 29.842759 
Q 254.113921 17.28 256.983557 17.28 
Q 259.883884 17.28 261.50285 29.725714 
Q 263.121816 42.151921 263.121816 64.526897 
Q 263.121816 79.879212 262.262459 90.978916 
Q 261.403103 102.078621 259.789253 107.677241 
L 262.193404 128.16 
L 259.259828 128.16 
L 257.310931 111.578719 
z
M 256.983557 34.290443 
Q 255.576873 34.290443 254.801918 42.210443 
Q 254.026963 50.130443 254.026963 64.526897 
Q 254.026963 79.157438 254.784015 86.940887 
Q 255.543624 94.704828 256.983557 94.704828 
Q 258.397914 94.704828 259.172869 86.784828 
Q 259.947825 78.84532 259.947825 64.526897 
Q 259.947825 50.130443 259.172869 42.210443 
Q 258.397914 34.290443 256.983557 34.290443 
z
" clip-path="url(#p360b2c7997)" style="fill: #40ba47"/>
   </g>
   <g id="patch_6">
    <path d="M 263.767948 17.28 
L 275.788936 17.28 
L 275.788936 38.904689 
L 268.223046 38.904689 
L 268.223046 59.531316 
L 275.340834 59.531316 
L 275.340834 81.156005 
L 268.223046 81.156005 
L 268.223046 106.559074 
L 276.044465 106.559074 
L 276.044465 128.16 
L 263.767948 128.16 
L 263.767948 17.28 
z
" clip-path="url(#p360b2c7997)" style="fill: #6b296b"/>
   </g>
   <g id="patch_7">
    <path d="M 276.690597 17.28 
L 288.967114 17.28 
L 288.967114 38.904689 
L 284.550423 38.904689 
L 284.550423 128.16 
L 281.115854 128.16 
L 281.115854 38.904689 
L 276.690597 38.904689 
L 276.690597 17.28 
z
" clip-path="url(#p360b2c7997)" style="fill: #40ba47"/>
   </g>
   <g id="patch_8">
    <path d="M 289.613247 17.28 
L 293.145572 17.28 
L 293.145572 59.531316 
L 298.357439 59.531316 
L 298.357439 17.28 
L 301.889764 17.28 
L 301.889764 128.16 
L 298.357439 128.16 
L 298.357439 81.156005 
L 293.145572 81.156005 
L 293.145572 128.16 
L 289.613247 128.16 
L 289.613247 17.28 
z
" clip-path="url(#p360b2c7997)" style="fill: #177875"/>
   </g>
   <g id="patch_9">
    <path d="M 302.535896 17.28 
L 314.556884 17.28 
L 314.556884 38.904689 
L 306.990994 38.904689 
L 306.990994 59.531316 
L 314.108782 59.531316 
L 314.108782 81.156005 
L 306.990994 81.156005 
L 306.990994 106.559074 
L 314.812413 106.559074 
L 314.812413 128.16 
L 302.535896 128.16 
L 302.535896 17.28 
z
" clip-path="url(#p360b2c7997)" style="fill: #6b296b"/>
   </g>
   <g id="patch_10">
    <path d="M 327.735063 118.127891 
Q 326.496956 123.143945 325.165303 125.663425 
Q 323.83365 128.16 322.413955 128.16 
Q 319.205882 128.16 317.332214 113.226358 
Q 315.458546 98.292716 315.458546 72.754357 
Q 315.458546 46.91824 317.36523 32.09912 
Q 319.274666 17.28 322.595544 17.28 
Q 323.874921 17.28 325.046995 19.295584 
Q 326.221821 21.288263 327.261831 25.227812 
L 327.261831 47.330518 
Q 326.188805 42.268655 325.126784 39.77208 
Q 324.064764 37.252601 322.99724 37.252601 
Q 321.021772 37.252601 319.951498 46.460153 
Q 318.881223 55.644801 318.881223 72.754357 
Q 318.881223 89.703582 319.912979 98.956943 
Q 320.944734 108.187399 322.843165 108.187399 
Q 323.360418 108.187399 323.803386 107.660599 
Q 324.246353 107.110894 324.598525 105.965677 
L 324.598525 85.214328 
L 322.576284 85.214328 
L 322.576284 66.73051 
L 327.735063 66.73051 
L 327.735063 118.127891 
z
" clip-path="url(#p360b2c7997)" style="fill: #787800"/>
   </g>
   <g id="patch_11">
    <path d="M 328.381195 17.28 
L 334.762426 17.28 
Q 337.610962 17.28 339.132738 26.690304 
Q 340.657712 36.076845 340.657712 53.447887 
Q 340.657712 70.913982 339.132738 80.300523 
Q 337.610962 89.687064 334.762426 89.687064 
L 332.227198 89.687064 
L 332.227198 128.16 
L 328.381195 128.16 
L 328.381195 17.28 
z
M 332.227198 38.00168 
L 332.227198 68.965384 
L 334.353209 68.965384 
Q 335.472162 68.965384 336.082791 64.925607 
Q 336.69342 60.885829 336.69342 53.447887 
Q 336.69342 46.033708 336.082791 42.017694 
Q 335.472162 38.00168 334.353209 38.00168 
L 332.227198 38.00168 
z
" clip-path="url(#p360b2c7997)" style="fill: #787800"/>
   </g>
   <g id="patch_12">
    <path d="M 352.556763 22.570907 
L 352.556763 45.200413 
Q 351.27643 41.260863 350.056114 39.268184 
Q 348.839132 37.252601 347.755517 37.252601 
Q 346.318478 37.252601 345.628299 39.978219 
Q 344.941454 42.680934 344.941454 48.407023 
Q 344.941454 52.713043 345.404908 55.118 
Q 345.868361 57.500054 347.088678 59.217881 
L 348.795787 61.57703 
Q 351.389793 65.173014 352.48341 72.479504 
Q 353.580361 79.76309 353.580361 93.230853 
Q 353.580361 110.890114 352.053299 119.525057 
Q 350.526236 128.16 347.388756 128.16 
Q 345.911706 128.16 344.421319 126.21313 
Q 342.930933 124.289163 341.440546 120.48704 
L 341.440546 97.239116 
Q 342.930933 102.667449 344.321294 105.438876 
Q 345.711654 108.187399 347.005323 108.187399 
Q 348.318997 108.187399 349.015844 105.186928 
Q 349.712692 102.163553 349.712692 96.574889 
Q 349.712692 91.581739 349.239236 88.856121 
Q 348.765779 86.130502 347.348745 83.977492 
L 345.795009 81.618343 
Q 343.46107 78.18269 342.38079 70.67006 
Q 341.303844 63.15743 341.303844 50.422607 
Q 341.303844 34.458269 342.804233 25.869134 
Q 344.304623 17.28 347.118686 17.28 
Q 348.402352 17.28 349.756036 18.608453 
Q 351.109721 19.936906 352.556763 22.570907 
z
" clip-path="url(#p360b2c7997)" style="fill: #40ba47"/>
   </g>
   <g id="patch_13">
    <path d="M 354.226494 17.28 
L 357.26362 17.28 
L 360.368517 99.121132 
L 363.468394 17.28 
L 366.503011 17.28 
L 362.165693 128.16 
L 358.563812 128.16 
L 354.226494 17.28 
z
" clip-path="url(#p360b2c7997)" style="fill: #21599c"/>
   </g>
   <g id="patch_14">
    <path d="M 367.149143 17.28 
L 373.530374 17.28 
Q 376.37891 17.28 377.900686 26.690304 
Q 379.42566 36.076845 379.42566 53.447887 
Q 379.42566 70.913982 377.900686 80.300523 
Q 376.37891 89.687064 373.530374 89.687064 
L 370.995146 89.687064 
L 370.995146 128.16 
L 367.149143 128.16 
L 367.149143 17.28 
z
M 370.995146 38.00168 
L 370.995146 68.965384 
L 373.121157 68.965384 
Q 374.24011 68.965384 374.850739 64.925607 
Q 375.461368 60.885829 375.461368 53.447887 
Q 375.461368 46.033708 374.850739 42.017694 
Q 374.24011 38.00168 373.121157 38.00168 
L 370.995146 38.00168 
z
" clip-path="url(#p360b2c7997)" style="fill: #787800"/>
   </g>
   <g id="patch_15">
    <path d="M 380.071792 17.28 
L 384.52689 17.28 
L 384.52689 106.559074 
L 392.348309 106.559074 
L 392.348309 128.16 
L 380.071792 128.16 
L 380.071792 17.28 
z
" clip-path="url(#p360b2c7997)" style="fill: #21599c"/>
   </g>
   <g id="patch_16">
    <path d="M 404.24736 22.570907 
L 404.24736 45.200413 
Q 402.967028 41.260863 401.746712 39.268184 
Q 400.529729 37.252601 399.446115 37.252601 
Q 398.009076 37.252601 397.318897 39.978219 
Q 396.632052 42.680934 396.632052 48.407023 
Q 396.632052 52.713043 397.095505 55.118 
Q 397.558959 57.500054 398.779275 59.217881 
L 400.486385 61.57703 
Q 403.080391 65.173014 404.174008 72.479504 
Q 405.270959 79.76309 405.270959 93.230853 
Q 405.270959 110.890114 403.743896 119.525057 
Q 402.216833 128.16 399.079353 128.16 
Q 397.602303 128.16 396.111917 126.21313 
Q 394.62153 124.289163 393.131144 120.48704 
L 393.131144 97.239116 
Q 394.62153 102.667449 396.011891 105.438876 
Q 397.402252 108.187399 398.69592 108.187399 
Q 400.009594 108.187399 400.706442 105.186928 
Q 401.403289 102.163553 401.403289 96.574889 
Q 401.403289 91.581739 400.929833 88.856121 
Q 400.456377 86.130502 399.039343 83.977492 
L 397.485607 81.618343 
Q 395.151668 78.18269 394.071388 70.67006 
Q 392.994442 63.15743 392.994442 50.422607 
Q 392.994442 34.458269 394.494831 25.869134 
Q 395.99522 17.28 398.809283 17.28 
Q 400.092949 17.28 401.446634 18.608453 
Q 402.800318 19.936906 404.24736 22.570907 
z
" clip-path="url(#p360b2c7997)" style="fill: #40ba47"/>
   </g>
   <g id="patch_17">
    <path d="M 417.170009 22.570907 
L 417.170009 45.200413 
Q 415.889677 41.260863 414.669361 39.268184 
Q 413.452379 37.252601 412.368764 37.252601 
Q 410.931725 37.252601 410.241546 39.978219 
Q 409.554701 42.680934 409.554701 48.407023 
Q 409.554701 52.713043 410.018155 55.118 
Q 410.481608 57.500054 411.701925 59.217881 
L 413.409034 61.57703 
Q 416.00304 65.173014 417.096657 72.479504 
Q 418.193608 79.76309 418.193608 93.230853 
Q 418.193608 110.890114 416.666545 119.525057 
Q 415.139483 128.16 412.002003 128.16 
Q 410.524953 128.16 409.034566 126.21313 
Q 407.54418 124.289163 406.053793 120.48704 
L 406.053793 97.239116 
Q 407.54418 102.667449 408.93454 105.438876 
Q 410.324901 108.187399 411.61857 108.187399 
Q 412.932244 108.187399 413.629091 105.186928 
Q 414.325939 102.163553 414.325939 96.574889 
Q 414.325939 91.581739 413.852482 88.856121 
Q 413.379026 86.130502 411.961992 83.977492 
L 410.408256 81.618343 
Q 408.074317 78.18269 406.994037 70.67006 
Q 405.917091 63.15743 405.917091 50.422607 
Q 405.917091 34.458269 407.41748 25.869134 
Q 408.917869 17.28 411.731932 17.28 
Q 413.015599 17.28 414.369283 18.608453 
Q 415.722967 19.936906 417.170009 22.570907 
z
" clip-path="url(#p360b2c7997)" style="fill: #40ba47"/>
   </g>
   <g id="patch_18">
    <path d="M 418.839741 17.28 
L 430.860728 17.28 
L 430.860728 38.904689 
L 423.294839 38.904689 
L 423.294839 59.531316 
L 430.412626 59.531316 
L 430.412626 81.156005 
L 423.294839 81.156005 
L 423.294839 106.559074 
L 431.116258 106.559074 
L 431.116258 128.16 
L 418.839741 128.16 
L 418.839741 17.28 
z
" clip-path="url(#p360b2c7997)" style="fill: #6b296b"/>
   </g>
   <g id="patch_19">
    <path d="M 431.76239 17.28 
L 443.783378 17.28 
L 443.783378 38.904689 
L 436.217488 38.904689 
L 436.217488 59.531316 
L 443.335275 59.531316 
L 443.335275 81.156005 
L 436.217488 81.156005 
L 436.217488 106.559074 
L 444.038907 106.559074 
L 444.038907 128.16 
L 431.76239 128.16 
L 431.76239 17.28 
z
" clip-path="url(#p360b2c7997)" style="fill: #6b296b"/>
   </g>
   <g id="patch_20">
    <path d="M 448.595749 17.28 
L 453.050847 17.28 
L 453.050847 128.16 
L 448.595749 128.16 
L 448.595749 17.28 
z
" clip-path="url(#p360b2c7997)" style="fill: #21599c"/>
   </g>
   <g id="patch_21">
    <path d="M 457.607689 17.28 
L 469.884206 17.28 
L 469.884206 38.904689 
L 465.467515 38.904689 
L 465.467515 128.16 
L 462.032945 128.16 
L 462.032945 38.904689 
L 457.607689 38.904689 
L 457.607689 17.28 
z
" clip-path="url(#p360b2c7997)" style="fill: #40ba47"/>
   </g>
   <g id="patch_22">
    <path d="M 473.894495 38.904689 
L 473.894495 106.559074 
L 475.099775 106.559074 
Q 477.160776 106.559074 478.248604 97.861672 
Q 479.339228 89.164269 479.339228 72.601183 
Q 479.339228 56.13315 478.254197 47.530802 
Q 477.171962 38.904689 475.099775 38.904689 
L 473.894495 38.904689 
z
M 470.530338 17.28 
L 474.076266 17.28 
Q 477.048917 17.28 478.503083 20.892036 
Q 479.957249 24.480309 480.997537 33.106421 
Q 481.91478 40.615654 482.359419 50.429936 
Q 482.806855 60.220454 482.806855 72.601183 
Q 482.806855 85.172019 482.359419 95.010064 
Q 481.91478 104.84811 480.997537 112.333579 
Q 479.94886 120.959691 478.480711 124.571727 
Q 477.012563 128.16 474.076266 128.16 
L 470.530338 128.16 
L 470.530338 17.28 
z
" clip-path="url(#p360b2c7997)" style="fill: #6b296b"/>
   </g>
   <g id="patch_23">
    <path d="M 487.363697 17.28 
L 491.818795 17.28 
L 491.818795 128.16 
L 487.363697 128.16 
L 487.363697 17.28 
z
" clip-path="url(#p360b2c7997)" style="fill: #21599c"/>
   </g>
   <g id="patch_24">
    <path d="M 500.286346 17.28 
L 504.741444 17.28 
L 504.741444 128.16 
L 500.286346 128.16 
L 500.286346 17.28 
z
" clip-path="url(#p360b2c7997)" style="fill: #21599c"/>
   </g>
   <g id="patch_25">
    <path d="M 509.298286 17.28 
L 512.335413 17.28 
L 515.44031 99.121132 
L 518.540187 17.28 
L 521.574803 17.28 
L 517.237485 128.16 
L 513.635604 128.16 
L 509.298286 17.28 
z
" clip-path="url(#p360b2c7997)" style="fill: #21599c"/>
   </g>
   <g id="patch_26">
    <path d="M 534.497453 118.127891 
Q 533.259346 123.143945 531.927693 125.663425 
Q 530.59604 128.16 529.176345 128.16 
Q 525.968272 128.16 524.094604 113.226358 
Q 522.220936 98.292716 522.220936 72.754357 
Q 522.220936 46.91824 524.12762 32.09912 
Q 526.037056 17.28 529.357934 17.28 
Q 530.637311 17.28 531.809385 19.295584 
Q 532.984211 21.288263 534.024221 25.227812 
L 534.024221 47.330518 
Q 532.951195 42.268655 531.889174 39.77208 
Q 530.827154 37.252601 529.75963 37.252601 
Q 527.784162 37.252601 526.713888 46.460153 
Q 525.643613 55.644801 525.643613 72.754357 
Q 525.643613 89.703582 526.675369 98.956943 
Q 527.707124 108.187399 529.605555 108.187399 
Q 530.122808 108.187399 530.565776 107.660599 
Q 531.008743 107.110894 531.360915 105.965677 
L 531.360915 85.214328 
L 529.338674 85.214328 
L 529.338674 66.73051 
L 534.497453 66.73051 
L 534.497453 118.127891 
z
" clip-path="url(#p360b2c7997)" style="fill: #787800"/>
   </g>
   <g id="patch_27">
    <path d="M 535.143585 17.28 
L 538.180711 17.28 
L 541.285608 99.121132 
L 544.385485 17.28 
L 547.420102 17.28 
L 543.082784 128.16 
L 539.480903 128.16 
L 535.143585 17.28 
z
" clip-path="url(#p360b2c7997)" style="fill: #21599c"/>
   </g>
   <g id="patch_28">
    <path d="M 551.976944 17.28 
L 556.432042 17.28 
L 556.432042 128.16 
L 551.976944 128.16 
L 551.976944 17.28 
z
" clip-path="url(#p360b2c7997)" style="fill: #21599c"/>
   </g>
   <g id="patch_29">
    <path d="M 569.492838 107.961114 
L 564.771487 107.961114 
L 564.02601 128.16 
L 560.988884 128.16 
L 565.326202 17.28 
L 568.928083 17.28 
L 573.265401 128.16 
L 570.230784 128.16 
L 569.492838 107.961114 
z
M 565.524493 87.382015 
L 568.732301 87.382015 
L 567.130907 43.277154 
L 565.524493 87.382015 
z
" clip-path="url(#p360b2c7997)" style="fill: #21599c"/>
   </g>
   <g id="patch_30">
    <path d="M 586.18805 118.127891 
Q 584.949943 123.143945 583.618291 125.663425 
Q 582.286638 128.16 580.866942 128.16 
Q 577.65887 128.16 575.785201 113.226358 
Q 573.911533 98.292716 573.911533 72.754357 
Q 573.911533 46.91824 575.818218 32.09912 
Q 577.727653 17.28 581.048531 17.28 
Q 582.327908 17.28 583.499983 19.295584 
Q 584.674808 21.288263 585.714818 25.227812 
L 585.714818 47.330518 
Q 584.641792 42.268655 583.579772 39.77208 
Q 582.517751 37.252601 581.450228 37.252601 
Q 579.47476 37.252601 578.404485 46.460153 
Q 577.334211 55.644801 577.334211 72.754357 
Q 577.334211 89.703582 578.365966 98.956943 
Q 579.397722 108.187399 581.296152 108.187399 
Q 581.813406 108.187399 582.256373 107.660599 
Q 582.69934 107.110894 583.051513 105.965677 
L 583.051513 85.214328 
L 581.029272 85.214328 
L 581.029272 66.73051 
L 586.18805 66.73051 
L 586.18805 118.127891 
z
" clip-path="url(#p360b2c7997)" style="fill: #787800"/>
   </g>
   <g id="patch_31">
    <path d="M 591.815324 66.446464 
Q 592.917063 66.446464 593.395066 63.119589 
Q 593.873069 59.76895 593.873069 52.117137 
Q 593.873069 44.536614 593.395066 41.281029 
Q 592.917063 38.00168 591.815324 38.00168 
L 590.34051 38.00168 
L 590.34051 66.446464 
L 591.815324 66.446464 
z
M 590.34051 86.193845 
L 590.34051 128.16 
L 586.834182 128.16 
L 586.834182 17.28 
L 592.188399 17.28 
Q 594.875709 17.28 596.126095 24.646652 
Q 597.379396 31.989541 597.379396 47.887252 
Q 597.379396 58.865941 596.726514 65.923669 
Q 596.076546 72.981397 594.764952 76.332036 
Q 595.484872 77.662786 596.053229 82.391702 
Q 596.624501 87.096854 597.207431 96.673502 
L 599.110699 128.16 
L 595.377029 128.16 
L 593.718592 100.618225 
Q 593.217272 92.301037 592.701378 89.259323 
Q 592.188399 86.193845 591.331492 86.193845 
L 590.34051 86.193845 
z
" clip-path="url(#p360b2c7997)" style="fill: #bd2e1f"/>
   </g>
   <g id="patch_32">
    <path d="M 599.756832 17.28 
L 611.777819 17.28 
L 611.777819 38.904689 
L 604.21193 38.904689 
L 604.21193 59.531316 
L 611.329717 59.531316 
L 611.329717 81.156005 
L 604.21193 81.156005 
L 604.21193 106.559074 
L 612.033349 106.559074 
L 612.033349 128.16 
L 599.756832 128.16 
L 599.756832 17.28 
z
" clip-path="url(#p360b2c7997)" style="fill: #6b296b"/>
   </g>
   <g id="patch_33">
    <path d="M 623.932399 22.570907 
L 623.932399 45.200413 
Q 622.652067 41.260863 621.431751 39.268184 
Q 620.214769 37.252601 619.131154 37.252601 
Q 617.694115 37.252601 617.003936 39.978219 
Q 616.317091 42.680934 616.317091 48.407023 
Q 616.317091 52.713043 616.780545 55.118 
Q 617.243998 57.500054 618.464315 59.217881 
L 620.171424 61.57703 
Q 622.76543 65.173014 623.859047 72.479504 
Q 624.955998 79.76309 624.955998 93.230853 
Q 624.955998 110.890114 623.428935 119.525057 
Q 621.901873 128.16 618.764393 128.16 
Q 617.287343 128.16 615.796956 126.21313 
Q 614.30657 124.289163 612.816183 120.48704 
L 612.816183 97.239116 
Q 614.30657 102.667449 615.69693 105.438876 
Q 617.087291 108.187399 618.38096 108.187399 
Q 619.694634 108.187399 620.391481 105.186928 
Q 621.088329 102.163553 621.088329 96.574889 
Q 621.088329 91.581739 620.614872 88.856121 
Q 620.141416 86.130502 618.724382 83.977492 
L 617.170646 81.618343 
Q 614.836707 78.18269 613.756427 70.67006 
Q 612.679481 63.15743 612.679481 50.422607 
Q 612.679481 34.458269 614.17987 25.869134 
Q 615.680259 17.28 618.494322 17.28 
Q 619.777989 17.28 621.131673 18.608453 
Q 622.485357 19.936906 623.932399 22.570907 
z
" clip-path="url(#p360b2c7997)" style="fill: #40ba47"/>
   </g>
   <g id="patch_34">
    <path d="M 625.602131 17.28 
L 628.639257 17.28 
L 631.744154 99.121132 
L 634.844031 17.28 
L 637.878648 17.28 
L 633.54133 128.16 
L 629.939448 128.16 
L 625.602131 17.28 
z
" clip-path="url(#p360b2c7997)" style="fill: #21599c"/>
   </g>
   <g id="patch_35">
    <path d="M 647.028734 107.961114 
L 642.307383 107.961114 
L 641.561906 128.16 
L 638.52478 128.16 
L 642.862098 17.28 
L 646.463979 17.28 
L 650.801297 128.16 
L 647.76668 128.16 
L 647.028734 107.961114 
z
M 643.060389 87.382015 
L 646.268197 87.382015 
L 644.666803 43.277154 
L 643.060389 87.382015 
z
" clip-path="url(#p360b2c7997)" style="fill: #21599c"/>
   </g>
   <g id="patch_36">
    <path d="M 651.447429 17.28 
L 663.468417 17.28 
L 663.468417 38.904689 
L 655.902527 38.904689 
L 655.902527 59.531316 
L 663.020315 59.531316 
L 663.020315 81.156005 
L 655.902527 81.156005 
L 655.902527 106.559074 
L 663.723946 106.559074 
L 663.723946 128.16 
L 651.447429 128.16 
L 651.447429 17.28 
z
" clip-path="url(#p360b2c7997)" style="fill: #6b296b"/>
   </g>
   <g id="patch_37">
    <path d="M 672.874033 107.961114 
L 668.152682 107.961114 
L 667.407205 128.16 
L 664.370079 128.16 
L 668.707397 17.28 
L 672.309278 17.28 
L 676.646596 128.16 
L 673.611979 128.16 
L 672.874033 107.961114 
z
M 668.905688 87.382015 
L 672.113496 87.382015 
L 670.512102 43.277154 
L 668.905688 87.382015 
z
" clip-path="url(#p360b2c7997)" style="fill: #21599c"/>
   </g>
   <g id="patch_38">
    <path d="M 685.796682 107.961114 
L 681.075331 107.961114 
L 680.329855 128.16 
L 677.292728 128.16 
L 681.630046 17.28 
L 685.231927 17.28 
L 689.569245 128.16 
L 686.534629 128.16 
L 685.796682 107.961114 
z
M 681.828338 87.382015 
L 685.036146 87.382015 
L 683.434752 43.277154 
L 681.828338 87.382015 
z
" clip-path="url(#p360b2c7997)" style="fill: #21599c"/>
   </g>
   <g id="patch_39">
    <path d="M 695.196519 66.446464 
Q 696.298258 66.446464 696.776261 63.119589 
Q 697.254264 59.76895 697.254264 52.117137 
Q 697.254264 44.536614 696.776261 41.281029 
Q 696.298258 38.00168 695.196519 38.00168 
L 693.721705 38.00168 
L 693.721705 66.446464 
L 695.196519 66.446464 
z
M 693.721705 86.193845 
L 693.721705 128.16 
L 690.215377 128.16 
L 690.215377 17.28 
L 695.569594 17.28 
Q 698.256904 17.28 699.50729 24.646652 
Q 700.760591 31.989541 700.760591 47.887252 
Q 700.760591 58.865941 700.107709 65.923669 
Q 699.457741 72.981397 698.146147 76.332036 
Q 698.866067 77.662786 699.434424 82.391702 
Q 700.005696 87.096854 700.588626 96.673502 
L 702.491894 128.16 
L 698.758224 128.16 
L 697.099787 100.618225 
Q 696.598467 92.301037 696.082573 89.259323 
Q 695.569594 86.193845 694.712687 86.193845 
L 693.721705 86.193845 
z
" clip-path="url(#p360b2c7997)" style="fill: #bd2e1f"/>
   </g>
   <g id="patch_40">
    <path d="M 708.119168 66.446464 
Q 709.220907 66.446464 709.69891 63.119589 
Q 710.176913 59.76895 710.176913 52.117137 
Q 710.176913 44.536614 709.69891 41.281029 
Q 709.220907 38.00168 708.119168 38.00168 
L 706.644354 38.00168 
L 706.644354 66.446464 
L 708.119168 66.446464 
z
M 706.644354 86.193845 
L 706.644354 128.16 
L 703.138027 128.16 
L 703.138027 17.28 
L 708.492244 17.28 
Q 711.179553 17.28 712.429939 24.646652 
Q 713.68324 31.989541 713.68324 47.887252 
Q 713.68324 58.865941 713.030358 65.923669 
Q 712.38039 72.981397 711.068797 76.332036 
Q 711.788716 77.662786 712.357073 82.391702 
Q 712.928345 87.096854 713.511276 96.673502 
L 715.414544 128.16 
L 711.680874 128.16 
L 710.022436 100.618225 
Q 709.521116 92.301037 709.005223 89.259323 
Q 708.492244 86.193845 707.635336 86.193845 
L 706.644354 86.193845 
z
" clip-path="url(#p360b2c7997)" style="fill: #bd2e1f"/>
   </g>
   <g id="patch_41">
    <path d="M 724.56463 107.961114 
L 719.843279 107.961114 
L 719.097803 128.16 
L 716.060676 128.16 
L 720.397994 17.28 
L 723.999875 17.28 
L 728.337193 128.16 
L 725.302577 128.16 
L 724.56463 107.961114 
z
M 720.596286 87.382015 
L 723.804094 87.382015 
L 722.2027 43.277154 
L 720.596286 87.382015 
z
" clip-path="url(#p360b2c7997)" style="fill: #21599c"/>
   </g>
   <g id="patch_42">
    <path d="M 735.448958 111.578719 
L 735.208543 111.578719 
Q 732.259621 111.578719 730.620195 99.152512 
Q 728.983326 86.706798 728.983326 64.526897 
Q 728.983326 42.38601 730.617637 29.842759 
Q 732.251948 17.28 735.121584 17.28 
Q 738.021911 17.28 739.640877 29.725714 
Q 741.259843 42.151921 741.259843 64.526897 
Q 741.259843 79.879212 740.400486 90.978916 
Q 739.54113 102.078621 737.92728 107.677241 
L 740.331431 128.16 
L 737.397855 128.16 
L 735.448958 111.578719 
z
M 735.121584 34.290443 
Q 733.7149 34.290443 732.939945 42.210443 
Q 732.16499 50.130443 732.16499 64.526897 
Q 732.16499 79.157438 732.922041 86.940887 
Q 733.681651 94.704828 735.121584 94.704828 
Q 736.535941 94.704828 737.310896 86.784828 
Q 738.085851 78.84532 738.085851 64.526897 
Q 738.085851 50.130443 737.310896 42.210443 
Q 736.535941 34.290443 735.121584 34.290443 
z
" clip-path="url(#p360b2c7997)" style="fill: #40ba47"/>
   </g>
   <g id="patch_43">
    <path d="M 741.905975 17.28 
L 744.943101 17.28 
L 748.047998 99.121132 
L 751.147875 17.28 
L 754.182492 17.28 
L 749.845174 128.16 
L 746.243293 128.16 
L 741.905975 17.28 
z
" clip-path="url(#p360b2c7997)" style="fill: #21599c"/>
   </g>
   <g id="patch_44">
    <path d="M 754.828624 17.28 
L 761.209856 17.28 
Q 764.058391 17.28 765.580168 26.690304 
Q 767.105141 36.076845 767.105141 53.447887 
Q 767.105141 70.913982 765.580168 80.300523 
Q 764.058391 89.687064 761.209856 89.687064 
L 758.674627 89.687064 
L 758.674627 128.16 
L 754.828624 128.16 
L 754.828624 17.28 
z
M 758.674627 38.00168 
L 758.674627 68.965384 
L 760.800638 68.965384 
Q 761.919592 68.965384 762.530221 64.925607 
Q 763.140849 60.885829 763.140849 53.447887 
Q 763.140849 46.033708 762.530221 42.017694 
Q 761.919592 38.00168 760.800638 38.00168 
L 758.674627 38.00168 
z
" clip-path="url(#p360b2c7997)" style="fill: #787800"/>
   </g>
   <g id="patch_45">
    <path d="M 767.751274 17.28 
L 780.027791 17.28 
L 780.027791 38.904689 
L 775.6111 38.904689 
L 775.6111 128.16 
L 772.17653 128.16 
L 772.17653 38.904689 
L 767.751274 38.904689 
L 767.751274 17.28 
z
" clip-path="url(#p360b2c7997)" style="fill: #40ba47"/>
   </g>
   <g id="patch_46">
    <path d="M 785.655064 66.446464 
Q 786.756803 66.446464 787.234806 63.119589 
Q 787.712809 59.76895 787.712809 52.117137 
Q 787.712809 44.536614 787.234806 41.281029 
Q 786.756803 38.00168 785.655064 38.00168 
L 784.18025 38.00168 
L 784.18025 66.446464 
L 785.655064 66.446464 
z
M 784.18025 86.193845 
L 784.18025 128.16 
L 780.673923 128.16 
L 780.673923 17.28 
L 786.02814 17.28 
Q 788.71545 17.28 789.965836 24.646652 
Q 791.219136 31.989541 791.219136 47.887252 
Q 791.219136 58.865941 790.566254 65.923669 
Q 789.916287 72.981397 788.604693 76.332036 
Q 789.324612 77.662786 789.892969 82.391702 
Q 790.464241 87.096854 791.047172 96.673502 
L 792.95044 128.16 
L 789.21677 128.16 
L 787.558333 100.618225 
Q 787.057012 92.301037 786.541119 89.259323 
Q 786.02814 86.193845 785.171232 86.193845 
L 784.18025 86.193845 
z
" clip-path="url(#p360b2c7997)" style="fill: #bd2e1f"/>
   </g>
   <g id="patch_47">
    <path d="M 804.849491 22.570907 
L 804.849491 45.200413 
Q 803.569159 41.260863 802.348842 39.268184 
Q 801.13186 37.252601 800.048246 37.252601 
Q 798.611206 37.252601 797.921027 39.978219 
Q 797.234182 42.680934 797.234182 48.407023 
Q 797.234182 52.713043 797.697636 55.118 
Q 798.16109 57.500054 799.381406 59.217881 
L 801.088515 61.57703 
Q 803.682521 65.173014 804.776138 72.479504 
Q 805.873089 79.76309 805.873089 93.230853 
Q 805.873089 110.890114 804.346027 119.525057 
Q 802.818964 128.16 799.681484 128.16 
Q 798.204434 128.16 796.714048 126.21313 
Q 795.223661 124.289163 793.733275 120.48704 
L 793.733275 97.239116 
Q 795.223661 102.667449 796.614022 105.438876 
Q 798.004382 108.187399 799.298051 108.187399 
Q 800.611725 108.187399 801.308572 105.186928 
Q 802.00542 102.163553 802.00542 96.574889 
Q 802.00542 91.581739 801.531964 88.856121 
Q 801.058508 86.130502 799.641473 83.977492 
L 798.087737 81.618343 
Q 795.753799 78.18269 794.673518 70.67006 
Q 793.596572 63.15743 793.596572 50.422607 
Q 793.596572 34.458269 795.096962 25.869134 
Q 796.597351 17.28 799.411414 17.28 
Q 800.69508 17.28 802.048764 18.608453 
Q 803.402449 19.936906 804.849491 22.570907 
z
" clip-path="url(#p360b2c7997)" style="fill: #40ba47"/>
   </g>
   <g id="patch_48">
    <path d="M 806.519222 17.28 
L 809.556348 17.28 
L 812.661245 99.121132 
L 815.761122 17.28 
L 818.795739 17.28 
L 814.458421 128.16 
L 810.85654 128.16 
L 806.519222 17.28 
z
" clip-path="url(#p360b2c7997)" style="fill: #21599c"/>
   </g>
   <g id="patch_49">
    <path d="M 819.441871 17.28 
L 831.462859 17.28 
L 831.462859 38.904689 
L 823.896969 38.904689 
L 823.896969 59.531316 
L 831.014757 59.531316 
L 831.014757 81.156005 
L 823.896969 81.156005 
L 823.896969 106.559074 
L 831.718388 106.559074 
L 831.718388 128.16 
L 819.441871 128.16 
L 819.441871 17.28 
z
" clip-path="url(#p360b2c7997)" style="fill: #6b296b"/>
   </g>
   <g id="patch_50">
    <path d="M 840.868475 107.961114 
L 836.147124 107.961114 
L 835.401647 128.16 
L 832.364521 128.16 
L 836.701838 17.28 
L 840.30372 17.28 
L 844.641038 128.16 
L 841.606421 128.16 
L 840.868475 107.961114 
z
M 836.90013 87.382015 
L 840.107938 87.382015 
L 838.506544 43.277154 
L 836.90013 87.382015 
z
" clip-path="url(#p360b2c7997)" style="fill: #21599c"/>
   </g>
   <g id="patch_51">
    <path d="M 845.28717 17.28 
L 847.409969 17.28 
L 848.893903 97.861672 
L 850.366791 17.28 
L 852.500636 17.28 
L 853.973524 97.861672 
L 855.459299 17.28 
L 857.563687 17.28 
L 855.538467 128.16 
L 852.984848 128.16 
L 851.425428 43.871239 
L 849.88442 128.16 
L 847.32896 128.16 
L 845.28717 17.28 
z
" clip-path="url(#p360b2c7997)" style="fill: #21599c"/>
   </g>
   <g id="patch_52">
    <path d="M 863.190961 66.446464 
Q 864.292699 66.446464 864.770702 63.119589 
Q 865.248705 59.76895 865.248705 52.117137 
Q 865.248705 44.536614 864.770702 41.281029 
Q 864.292699 38.00168 863.190961 38.00168 
L 861.716146 38.00168 
L 861.716146 66.446464 
L 863.190961 66.446464 
z
M 861.716146 86.193845 
L 861.716146 128.16 
L 858.209819 128.16 
L 858.209819 17.28 
L 863.564036 17.28 
Q 866.251346 17.28 867.501732 24.646652 
Q 868.755033 31.989541 868.755033 47.887252 
Q 868.755033 58.865941 868.10215 65.923669 
Q 867.452183 72.981397 866.140589 76.332036 
Q 866.860508 77.662786 867.428866 82.391702 
Q 868.000138 87.096854 868.583068 96.673502 
L 870.486336 128.16 
L 866.752666 128.16 
L 865.094229 100.618225 
Q 864.592909 92.301037 864.077015 89.259323 
Q 863.564036 86.193845 862.707128 86.193845 
L 861.716146 86.193845 
z
" clip-path="url(#p360b2c7997)" style="fill: #bd2e1f"/>
   </g>
   <g id="patch_53">
    <path d="M 877.598101 111.578719 
L 877.357686 111.578719 
Q 874.408764 111.578719 872.769338 99.152512 
Q 871.132469 86.706798 871.132469 64.526897 
Q 871.132469 42.38601 872.76678 29.842759 
Q 874.401091 17.28 877.270727 17.28 
Q 880.171054 17.28 881.79002 29.725714 
Q 883.408986 42.151921 883.408986 64.526897 
Q 883.408986 79.879212 882.549629 90.978916 
Q 881.690273 102.078621 880.076423 107.677241 
L 882.480574 128.16 
L 879.546998 128.16 
L 877.598101 111.578719 
z
M 877.270727 34.290443 
Q 875.864043 34.290443 875.089088 42.210443 
Q 874.314133 50.130443 874.314133 64.526897 
Q 874.314133 79.157438 875.071185 86.940887 
Q 875.830794 94.704828 877.270727 94.704828 
Q 878.685084 94.704828 879.460039 86.784828 
Q 880.234994 78.84532 880.234994 64.526897 
Q 880.234994 50.130443 879.460039 42.210443 
Q 878.685084 34.290443 877.270727 34.290443 
z
" clip-path="url(#p360b2c7997)" style="fill: #40ba47"/>
   </g>
   <g id="patch_54">
    <path d="M 884.055118 17.28 
L 887.092245 17.28 
L 890.197142 99.121132 
L 893.297019 17.28 
L 896.331635 17.28 
L 891.994317 128.16 
L 888.392436 128.16 
L 884.055118 17.28 
z
" clip-path="url(#p360b2c7997)" style="fill: #21599c"/>
   </g>
   <g id="patch_55">
    <path d="M 897.105532 17.28 
L 909.12652 17.28 
L 909.12652 38.904689 
L 901.56063 38.904689 
L 901.56063 59.531316 
L 908.678418 59.531316 
L 908.678418 81.156005 
L 901.56063 81.156005 
L 901.56063 128.16 
L 897.105532 128.16 
L 897.105532 17.28 
z
" clip-path="url(#p360b2c7997)" style="fill: #21599c"/>
   </g>
   <g id="patch_56">
    <path d="M 909.900417 17.28 
L 914.355515 17.28 
L 914.355515 106.559074 
L 922.176934 106.559074 
L 922.176934 128.16 
L 909.900417 128.16 
L 909.900417 17.28 
z
" clip-path="url(#p360b2c7997)" style="fill: #21599c"/>
   </g>
   <g id="patch_57">
    <path d="M 926.187223 38.904689 
L 926.187223 106.559074 
L 927.392503 106.559074 
Q 929.453504 106.559074 930.541332 97.861672 
Q 931.631956 89.164269 931.631956 72.601183 
Q 931.631956 56.13315 930.546925 47.530802 
Q 929.46469 38.904689 927.392503 38.904689 
L 926.187223 38.904689 
z
M 922.823066 17.28 
L 926.368994 17.28 
Q 929.341645 17.28 930.795811 20.892036 
Q 932.249977 24.480309 933.290265 33.106421 
Q 934.207508 40.615654 934.652147 50.429936 
Q 935.099583 60.220454 935.099583 72.601183 
Q 935.099583 85.172019 934.652147 95.010064 
Q 934.207508 104.84811 933.290265 112.333579 
Q 932.241588 120.959691 930.773439 124.571727 
Q 929.305291 128.16 926.368994 128.16 
L 922.823066 128.16 
L 922.823066 17.28 
z
" clip-path="url(#p360b2c7997)" style="fill: #6b296b"/>
   </g>
   <g id="patch_58">
    <path d="M 948.022233 118.127891 
Q 946.784126 123.143945 945.452473 125.663425 
Q 944.12082 128.16 942.701125 128.16 
Q 939.493052 128.16 937.619384 113.226358 
Q 935.745716 98.292716 935.745716 72.754357 
Q 935.745716 46.91824 937.6524 32.09912 
Q 939.561836 17.28 942.882714 17.28 
Q 944.162091 17.28 945.334165 19.295584 
Q 946.508991 21.288263 947.549001 25.227812 
L 947.549001 47.330518 
Q 946.475975 42.268655 945.413954 39.77208 
Q 944.351934 37.252601 943.28441 37.252601 
Q 941.308942 37.252601 940.238668 46.460153 
Q 939.168393 55.644801 939.168393 72.754357 
Q 939.168393 89.703582 940.200149 98.956943 
Q 941.231904 108.187399 943.130335 108.187399 
Q 943.647588 108.187399 944.090556 107.660599 
Q 944.533523 107.110894 944.885695 105.965677 
L 944.885695 85.214328 
L 942.863454 85.214328 
L 942.863454 66.73051 
L 948.022233 66.73051 
L 948.022233 118.127891 
z
" clip-path="url(#p360b2c7997)" style="fill: #787800"/>
   </g>
   <g id="patch_59">
    <path d="M 960.944882 118.127891 
Q 959.706775 123.143945 958.375122 125.663425 
Q 957.04347 128.16 955.623774 128.16 
Q 952.415702 128.16 950.542033 113.226358 
Q 948.668365 98.292716 948.668365 72.754357 
Q 948.668365 46.91824 950.575049 32.09912 
Q 952.484485 17.28 955.805363 17.28 
Q 957.08474 17.28 958.256814 19.295584 
Q 959.43164 21.288263 960.47165 25.227812 
L 960.47165 47.330518 
Q 959.398624 42.268655 958.336604 39.77208 
Q 957.274583 37.252601 956.20706 37.252601 
Q 954.231592 37.252601 953.161317 46.460153 
Q 952.091042 55.644801 952.091042 72.754357 
Q 952.091042 89.703582 953.122798 98.956943 
Q 954.154554 108.187399 956.052984 108.187399 
Q 956.570238 108.187399 957.013205 107.660599 
Q 957.456172 107.110894 957.808345 105.965677 
L 957.808345 85.214328 
L 955.786103 85.214328 
L 955.786103 66.73051 
L 960.944882 66.73051 
L 960.944882 118.127891 
z
" clip-path="url(#p360b2c7997)" style="fill: #787800"/>
   </g>
   <g id="patch_60">
    <path d="M 961.591014 17.28 
L 966.046112 17.28 
L 966.046112 106.559074 
L 973.867531 106.559074 
L 973.867531 128.16 
L 961.591014 128.16 
L 961.591014 17.28 
z
" clip-path="url(#p360b2c7997)" style="fill: #21599c"/>
   </g>
   <g id="patch_61">
    <path d="M 983.017618 107.961114 
L 978.296267 107.961114 
L 977.55079 128.16 
L 974.513664 128.16 
L 978.850982 17.28 
L 982.452863 17.28 
L 986.790181 128.16 
L 983.755564 128.16 
L 983.017618 107.961114 
z
M 979.049273 87.382015 
L 982.257081 87.382015 
L 980.655687 43.277154 
L 979.049273 87.382015 
z
" clip-path="url(#p360b2c7997)" style="fill: #21599c"/>
   </g>
   <g id="patch_62">
    <path d="M 995.940267 107.961114 
L 991.218916 107.961114 
L 990.47344 128.16 
L 987.436313 128.16 
L 991.773631 17.28 
L 995.375512 17.28 
L 999.71283 128.16 
L 996.678214 128.16 
L 995.940267 107.961114 
z
M 991.971923 87.382015 
L 995.179731 87.382015 
L 993.578337 43.277154 
L 991.971923 87.382015 
z
" clip-path="url(#p360b2c7997)" style="fill: #21599c"/>
   </g>
   <g id="patch_63">
    <path d="M 1000.358962 17.28 
L 1004.81406 17.28 
L 1004.81406 106.559074 
L 1012.635479 106.559074 
L 1012.635479 128.16 
L 1000.358962 128.16 
L 1000.358962 17.28 
z
" clip-path="url(#p360b2c7997)" style="fill: #21599c"/>
   </g>
   <g id="patch_64">
    <path d="M 1013.281612 17.28 
L 1016.516803 17.28 
L 1016.516803 57.749061 
L 1021.179997 17.28 
L 1024.936907 17.28 
L 1018.894118 69.797102 
L 1025.558129 128.16 
L 1021.508088 128.16 
L 1016.516803 84.48288 
L 1016.516803 128.16 
L 1013.281612 128.16 
L 1013.281612 17.28 
z
" clip-path="url(#p360b2c7997)" style="fill: #bd2e1f"/>
   </g>
   <g id="patch_65">
    <path d="M 1038.480778 118.127891 
Q 1037.242671 123.143945 1035.911019 125.663425 
Q 1034.579366 128.16 1033.15967 128.16 
Q 1029.951598 128.16 1028.07793 113.226358 
Q 1026.204261 98.292716 1026.204261 72.754357 
Q 1026.204261 46.91824 1028.110946 32.09912 
Q 1030.020382 17.28 1033.341259 17.28 
Q 1034.620636 17.28 1035.792711 19.295584 
Q 1036.967536 21.288263 1038.007546 25.227812 
L 1038.007546 47.330518 
Q 1036.93452 42.268655 1035.8725 39.77208 
Q 1034.810479 37.252601 1033.742956 37.252601 
Q 1031.767488 37.252601 1030.697213 46.460153 
Q 1029.626939 55.644801 1029.626939 72.754357 
Q 1029.626939 89.703582 1030.658694 98.956943 
Q 1031.69045 108.187399 1033.588881 108.187399 
Q 1034.106134 108.187399 1034.549101 107.660599 
Q 1034.992068 107.110894 1035.344241 105.965677 
L 1035.344241 85.214328 
L 1033.322 85.214328 
L 1033.322 66.73051 
L 1038.480778 66.73051 
L 1038.480778 118.127891 
z
" clip-path="url(#p360b2c7997)" style="fill: #787800"/>
   </g>
   <g id="patch_66">
    <path d="M 1039.126911 17.28 
L 1042.164037 17.28 
L 1045.268934 99.121132 
L 1048.368811 17.28 
L 1051.403428 17.28 
L 1047.06611 128.16 
L 1043.464228 128.16 
L 1039.126911 17.28 
z
" clip-path="url(#p360b2c7997)" style="fill: #21599c"/>
   </g>
   <g id="patch_67">
    <path d="M 1064.326077 118.127891 
Q 1063.08797 123.143945 1061.756317 125.663425 
Q 1060.424665 128.16 1059.004969 128.16 
Q 1055.796897 128.16 1053.923228 113.226358 
Q 1052.04956 98.292716 1052.04956 72.754357 
Q 1052.04956 46.91824 1053.956244 32.09912 
Q 1055.86568 17.28 1059.186558 17.28 
Q 1060.465935 17.28 1061.638009 19.295584 
Q 1062.812835 21.288263 1063.852845 25.227812 
L 1063.852845 47.330518 
Q 1062.779819 42.268655 1061.717799 39.77208 
Q 1060.655778 37.252601 1059.588255 37.252601 
Q 1057.612787 37.252601 1056.542512 46.460153 
Q 1055.472237 55.644801 1055.472237 72.754357 
Q 1055.472237 89.703582 1056.503993 98.956943 
Q 1057.535749 108.187399 1059.434179 108.187399 
Q 1059.951433 108.187399 1060.3944 107.660599 
Q 1060.837367 107.110894 1061.18954 105.965677 
L 1061.18954 85.214328 
L 1059.167298 85.214328 
L 1059.167298 66.73051 
L 1064.326077 66.73051 
L 1064.326077 118.127891 
z
" clip-path="url(#p360b2c7997)" style="fill: #787800"/>
   </g>
   <g id="patch_68">
    <path d="M 1064.972209 17.28 
L 1071.353441 17.28 
Q 1074.201976 17.28 1075.723753 26.690304 
Q 1077.248726 36.076845 1077.248726 53.447887 
Q 1077.248726 70.913982 1075.723753 80.300523 
Q 1074.201976 89.687064 1071.353441 89.687064 
L 1068.818212 89.687064 
L 1068.818212 128.16 
L 1064.972209 128.16 
L 1064.972209 17.28 
z
M 1068.818212 38.00168 
L 1068.818212 68.965384 
L 1070.944223 68.965384 
Q 1072.063177 68.965384 1072.673806 64.925607 
Q 1073.284434 60.885829 1073.284434 53.447887 
Q 1073.284434 46.033708 1072.673806 42.017694 
Q 1072.063177 38.00168 1070.944223 38.00168 
L 1068.818212 38.00168 
z
" clip-path="url(#p360b2c7997)" style="fill: #787800"/>
   </g>
   <g id="patch_69">
    <path d="M 1082.876 66.446464 
Q 1083.977739 66.446464 1084.455742 63.119589 
Q 1084.933745 59.76895 1084.933745 52.117137 
Q 1084.933745 44.536614 1084.455742 41.281029 
Q 1083.977739 38.00168 1082.876 38.00168 
L 1081.401186 38.00168 
L 1081.401186 66.446464 
L 1082.876 66.446464 
z
M 1081.401186 86.193845 
L 1081.401186 128.16 
L 1077.894859 128.16 
L 1077.894859 17.28 
L 1083.249076 17.28 
Q 1085.936385 17.28 1087.186771 24.646652 
Q 1088.440072 31.989541 1088.440072 47.887252 
Q 1088.440072 58.865941 1087.78719 65.923669 
Q 1087.137222 72.981397 1085.825629 76.332036 
Q 1086.545548 77.662786 1087.113905 82.391702 
Q 1087.685177 87.096854 1088.268107 96.673502 
L 1090.171376 128.16 
L 1086.437706 128.16 
L 1084.779268 100.618225 
Q 1084.277948 92.301037 1083.762054 89.259323 
Q 1083.249076 86.193845 1082.392168 86.193845 
L 1081.401186 86.193845 
z
" clip-path="url(#p360b2c7997)" style="fill: #bd2e1f"/>
   </g>
   <g id="patch_70">
    <path d="M 1095.798649 66.446464 
Q 1096.900388 66.446464 1097.378391 63.119589 
Q 1097.856394 59.76895 1097.856394 52.117137 
Q 1097.856394 44.536614 1097.378391 41.281029 
Q 1096.900388 38.00168 1095.798649 38.00168 
L 1094.323835 38.00168 
L 1094.323835 66.446464 
L 1095.798649 66.446464 
z
M 1094.323835 86.193845 
L 1094.323835 128.16 
L 1090.817508 128.16 
L 1090.817508 17.28 
L 1096.171725 17.28 
Q 1098.859035 17.28 1100.109421 24.646652 
Q 1101.362721 31.989541 1101.362721 47.887252 
Q 1101.362721 58.865941 1100.709839 65.923669 
Q 1100.059872 72.981397 1098.748278 76.332036 
Q 1099.468197 77.662786 1100.036554 82.391702 
Q 1100.607826 87.096854 1101.190757 96.673502 
L 1103.094025 128.16 
L 1099.360355 128.16 
L 1097.701918 100.618225 
Q 1097.200597 92.301037 1096.684704 89.259323 
Q 1096.171725 86.193845 1095.314817 86.193845 
L 1094.323835 86.193845 
z
" clip-path="url(#p360b2c7997)" style="fill: #bd2e1f"/>
   </g>
   <g id="patch_71">
    <path d="M 1103.740157 17.28 
L 1106.777284 17.28 
L 1109.882181 99.121132 
L 1112.982058 17.28 
L 1116.016674 17.28 
L 1111.679357 128.16 
L 1108.077475 128.16 
L 1103.740157 17.28 
z
" clip-path="url(#p360b2c7997)" style="fill: #21599c"/>
   </g>
   <g id="patch_72">
    <path d="M 1116.662807 17.28 
L 1123.044038 17.28 
Q 1125.892574 17.28 1127.41435 26.690304 
Q 1128.939324 36.076845 1128.939324 53.447887 
Q 1128.939324 70.913982 1127.41435 80.300523 
Q 1125.892574 89.687064 1123.044038 89.687064 
L 1120.508809 89.687064 
L 1120.508809 128.16 
L 1116.662807 128.16 
L 1116.662807 17.28 
z
M 1120.508809 38.00168 
L 1120.508809 68.965384 
L 1122.634821 68.965384 
Q 1123.753774 68.965384 1124.364403 64.925607 
Q 1124.975032 60.885829 1124.975032 53.447887 
Q 1124.975032 46.033708 1124.364403 42.017694 
Q 1123.753774 38.00168 1122.634821 38.00168 
L 1120.508809 38.00168 
z
" clip-path="url(#p360b2c7997)" style="fill: #787800"/>
   </g>
   <g id="patch_73">
    <path d="M 1129.585456 17.28 
L 1141.861973 17.28 
L 1141.861973 38.904689 
L 1137.445282 38.904689 
L 1137.445282 128.16 
L 1134.010712 128.16 
L 1134.010712 38.904689 
L 1129.585456 38.904689 
L 1129.585456 17.28 
z
" clip-path="url(#p360b2c7997)" style="fill: #40ba47"/>
   </g>
   <g id="patch_74">
    <path d="M 1147.489247 66.446464 
Q 1148.590986 66.446464 1149.068989 63.119589 
Q 1149.546992 59.76895 1149.546992 52.117137 
Q 1149.546992 44.536614 1149.068989 41.281029 
Q 1148.590986 38.00168 1147.489247 38.00168 
L 1146.014433 38.00168 
L 1146.014433 66.446464 
L 1147.489247 66.446464 
z
M 1146.014433 86.193845 
L 1146.014433 128.16 
L 1142.508106 128.16 
L 1142.508106 17.28 
L 1147.862322 17.28 
Q 1150.549632 17.28 1151.800018 24.646652 
Q 1153.053319 31.989541 1153.053319 47.887252 
Q 1153.053319 58.865941 1152.400437 65.923669 
Q 1151.750469 72.981397 1150.438875 76.332036 
Q 1151.158795 77.662786 1151.727152 82.391702 
Q 1152.298424 87.096854 1152.881354 96.673502 
L 1154.784623 128.16 
L 1151.050952 128.16 
L 1149.392515 100.618225 
Q 1148.891195 92.301037 1148.375301 89.259323 
Q 1147.862322 86.193845 1147.005415 86.193845 
L 1146.014433 86.193845 
z
" clip-path="url(#p360b2c7997)" style="fill: #bd2e1f"/>
   </g>
   <g id="patch_75">
    <path d="M 1155.430755 17.28 
L 1167.451743 17.28 
L 1167.451743 38.904689 
L 1159.885853 38.904689 
L 1159.885853 59.531316 
L 1167.00364 59.531316 
L 1167.00364 81.156005 
L 1159.885853 81.156005 
L 1159.885853 106.559074 
L 1167.707272 106.559074 
L 1167.707272 128.16 
L 1155.430755 128.16 
L 1155.430755 17.28 
z
" clip-path="url(#p360b2c7997)" style="fill: #6b296b"/>
   </g>
   <g id="patch_76">
    <path d="M 1179.606322 22.570907 
L 1179.606322 45.200413 
Q 1178.32599 41.260863 1177.105674 39.268184 
Q 1175.888692 37.252601 1174.805077 37.252601 
Q 1173.368038 37.252601 1172.677859 39.978219 
Q 1171.991014 42.680934 1171.991014 48.407023 
Q 1171.991014 52.713043 1172.454468 55.118 
Q 1172.917921 57.500054 1174.138238 59.217881 
L 1175.845347 61.57703 
Q 1178.439353 65.173014 1179.53297 72.479504 
Q 1180.629921 79.76309 1180.629921 93.230853 
Q 1180.629921 110.890114 1179.102859 119.525057 
Q 1177.575796 128.16 1174.438316 128.16 
Q 1172.961266 128.16 1171.470879 126.21313 
Q 1169.980493 124.289163 1168.490106 120.48704 
L 1168.490106 97.239116 
Q 1169.980493 102.667449 1171.370854 105.438876 
Q 1172.761214 108.187399 1174.054883 108.187399 
Q 1175.368557 108.187399 1176.065404 105.186928 
Q 1176.762252 102.163553 1176.762252 96.574889 
Q 1176.762252 91.581739 1176.288796 88.856121 
Q 1175.815339 86.130502 1174.398305 83.977492 
L 1172.844569 81.618343 
Q 1170.51063 78.18269 1169.43035 70.67006 
Q 1168.353404 63.15743 1168.353404 50.422607 
Q 1168.353404 34.458269 1169.853793 25.869134 
Q 1171.354183 17.28 1174.168246 17.28 
Q 1175.451912 17.28 1176.805596 18.608453 
Q 1178.159281 19.936906 1179.606322 22.570907 
z
" clip-path="url(#p360b2c7997)" style="fill: #40ba47"/>
   </g>
   <g id="patch_77">
    <path d="M 1181.276054 17.28 
L 1185.731152 17.28 
L 1185.731152 106.559074 
L 1193.552571 106.559074 
L 1193.552571 128.16 
L 1181.276054 128.16 
L 1181.276054 17.28 
z
" clip-path="url(#p360b2c7997)" style="fill: #21599c"/>
   </g>
   <g id="patch_78">
    <path d="M 1194.198703 17.28 
L 1198.653801 17.28 
L 1198.653801 106.559074 
L 1206.47522 106.559074 
L 1206.47522 128.16 
L 1194.198703 128.16 
L 1194.198703 17.28 
z
" clip-path="url(#p360b2c7997)" style="fill: #21599c"/>
   </g>
   <g id="patch_79">
    <path d="M 1212.102494 66.446464 
Q 1213.204233 66.446464 1213.682236 63.119589 
Q 1214.160239 59.76895 1214.160239 52.117137 
Q 1214.160239 44.536614 1213.682236 41.281029 
Q 1213.204233 38.00168 1212.102494 38.00168 
L 1210.62768 38.00168 
L 1210.62768 66.446464 
L 1212.102494 66.446464 
z
M 1210.62768 86.193845 
L 1210.62768 128.16 
L 1207.121352 128.16 
L 1207.121352 17.28 
L 1212.475569 17.28 
Q 1215.162879 17.28 1216.413265 24.646652 
Q 1217.666566 31.989541 1217.666566 47.887252 
Q 1217.666566 58.865941 1217.013684 65.923669 
Q 1216.363716 72.981397 1215.052122 76.332036 
Q 1215.772042 77.662786 1216.340399 82.391702 
Q 1216.911671 87.096854 1217.494601 96.673502 
L 1219.397869 128.16 
L 1215.664199 128.16 
L 1214.005762 100.618225 
Q 1213.504442 92.301037 1212.988548 89.259323 
Q 1212.475569 86.193845 1211.618661 86.193845 
L 1210.62768 86.193845 
z
" clip-path="url(#p360b2c7997)" style="fill: #bd2e1f"/>
   </g>
   <g id="patch_80">
    <path d="M 1231.29692 22.570907 
L 1231.29692 45.200413 
Q 1230.016588 41.260863 1228.796272 39.268184 
Q 1227.579289 37.252601 1226.495675 37.252601 
Q 1225.058636 37.252601 1224.368457 39.978219 
Q 1223.681612 42.680934 1223.681612 48.407023 
Q 1223.681612 52.713043 1224.145065 55.118 
Q 1224.608519 57.500054 1225.828835 59.217881 
L 1227.535945 61.57703 
Q 1230.129951 65.173014 1231.223568 72.479504 
Q 1232.320519 79.76309 1232.320519 93.230853 
Q 1232.320519 110.890114 1230.793456 119.525057 
Q 1229.266393 128.16 1226.128913 128.16 
Q 1224.651863 128.16 1223.161477 126.21313 
Q 1221.67109 124.289163 1220.180704 120.48704 
L 1220.180704 97.239116 
Q 1221.67109 102.667449 1223.061451 105.438876 
Q 1224.451812 108.187399 1225.74548 108.187399 
Q 1227.059154 108.187399 1227.756002 105.186928 
Q 1228.452849 102.163553 1228.452849 96.574889 
Q 1228.452849 91.581739 1227.979393 88.856121 
Q 1227.505937 86.130502 1226.088903 83.977492 
L 1224.535167 81.618343 
Q 1222.201228 78.18269 1221.120948 70.67006 
Q 1220.044002 63.15743 1220.044002 50.422607 
Q 1220.044002 34.458269 1221.544391 25.869134 
Q 1223.04478 17.28 1225.858843 17.28 
Q 1227.142509 17.28 1228.496194 18.608453 
Q 1229.849878 19.936906 1231.29692 22.570907 
z
" clip-path="url(#p360b2c7997)" style="fill: #40ba47"/>
   </g>
   <g id="patch_81">
    <path d="M 1232.966651 17.28 
L 1244.987639 17.28 
L 1244.987639 38.904689 
L 1237.421749 38.904689 
L 1237.421749 59.531316 
L 1244.539537 59.531316 
L 1244.539537 81.156005 
L 1237.421749 81.156005 
L 1237.421749 106.559074 
L 1245.243168 106.559074 
L 1245.243168 128.16 
L 1232.966651 128.16 
L 1232.966651 17.28 
z
" clip-path="url(#p360b2c7997)" style="fill: #6b296b"/>
   </g>
   <g id="patch_82">
    <path d="M 1245.889301 17.28 
L 1248.926427 17.28 
L 1252.031324 99.121132 
L 1255.131201 17.28 
L 1258.165818 17.28 
L 1253.8285 128.16 
L 1250.226618 128.16 
L 1245.889301 17.28 
z
" clip-path="url(#p360b2c7997)" style="fill: #21599c"/>
   </g>
   <g id="patch_83">
    <path d="M 1258.81195 17.28 
L 1270.832938 17.28 
L 1270.832938 38.904689 
L 1263.267048 38.904689 
L 1263.267048 59.531316 
L 1270.384835 59.531316 
L 1270.384835 81.156005 
L 1263.267048 81.156005 
L 1263.267048 106.559074 
L 1271.088467 106.559074 
L 1271.088467 128.16 
L 1258.81195 128.16 
L 1258.81195 17.28 
z
" clip-path="url(#p360b2c7997)" style="fill: #6b296b"/>
   </g>
   <g id="patch_84">
    <path d="M 1282.987517 22.570907 
L 1282.987517 45.200413 
Q 1281.707185 41.260863 1280.486869 39.268184 
Q 1279.269887 37.252601 1278.186272 37.252601 
Q 1276.749233 37.252601 1276.059054 39.978219 
Q 1275.372209 42.680934 1275.372209 48.407023 
Q 1275.372209 52.713043 1275.835663 55.118 
Q 1276.299116 57.500054 1277.519433 59.217881 
L 1279.226542 61.57703 
Q 1281.820548 65.173014 1282.914165 72.479504 
Q 1284.011116 79.76309 1284.011116 93.230853 
Q 1284.011116 110.890114 1282.484054 119.525057 
Q 1280.956991 128.16 1277.819511 128.16 
Q 1276.342461 128.16 1274.852074 126.21313 
Q 1273.361688 124.289163 1271.871301 120.48704 
L 1271.871301 97.239116 
Q 1273.361688 102.667449 1274.752049 105.438876 
Q 1276.142409 108.187399 1277.436078 108.187399 
Q 1278.749752 108.187399 1279.446599 105.186928 
Q 1280.143447 102.163553 1280.143447 96.574889 
Q 1280.143447 91.581739 1279.669991 88.856121 
Q 1279.196534 86.130502 1277.7795 83.977492 
L 1276.225764 81.618343 
Q 1273.891825 78.18269 1272.811545 70.67006 
Q 1271.734599 63.15743 1271.734599 50.422607 
Q 1271.734599 34.458269 1273.234988 25.869134 
Q 1274.735378 17.28 1277.549441 17.28 
Q 1278.833107 17.28 1280.186791 18.608453 
Q 1281.540476 19.936906 1282.987517 22.570907 
z
" clip-path="url(#p360b2c7997)" style="fill: #40ba47"/>
   </g>
   <g id="patch_85">
    <path d="M 1284.657249 17.28 
L 1289.112347 17.28 
L 1289.112347 106.559074 
L 1296.933766 106.559074 
L 1296.933766 128.16 
L 1284.657249 128.16 
L 1284.657249 17.28 
z
" clip-path="url(#p360b2c7997)" style="fill: #21599c"/>
   </g>
   <g id="patch_86">
    <path d="M 1297.579898 17.28 
L 1300.81509 17.28 
L 1300.81509 57.749061 
L 1305.478284 17.28 
L 1309.235194 17.28 
L 1303.192404 69.797102 
L 1309.856415 128.16 
L 1305.806375 128.16 
L 1300.81509 84.48288 
L 1300.81509 128.16 
L 1297.579898 128.16 
L 1297.579898 17.28 
z
" clip-path="url(#p360b2c7997)" style="fill: #bd2e1f"/>
   </g>
   <g id="patch_87">
    <path d="M 1310.502547 17.28 
L 1322.523535 17.28 
L 1322.523535 38.904689 
L 1314.957645 38.904689 
L 1314.957645 59.531316 
L 1322.075433 59.531316 
L 1322.075433 81.156005 
L 1314.957645 81.156005 
L 1314.957645 106.559074 
L 1322.779064 106.559074 
L 1322.779064 128.16 
L 1310.502547 128.16 
L 1310.502547 17.28 
z
" clip-path="url(#p360b2c7997)" style="fill: #6b296b"/>
   </g>
   <g id="patch_88">
    <path d="M 1331.929151 107.961114 
L 1327.2078 107.961114 
L 1326.462323 128.16 
L 1323.425197 128.16 
L 1327.762515 17.28 
L 1331.364396 17.28 
L 1335.701714 128.16 
L 1332.667097 128.16 
L 1331.929151 107.961114 
z
M 1327.960806 87.382015 
L 1331.168614 87.382015 
L 1329.56722 43.277154 
L 1327.960806 87.382015 
z
" clip-path="url(#p360b2c7997)" style="fill: #21599c"/>
   </g>
   <g id="patch_89">
    <path d="M 1336.347846 17.28 
L 1340.802944 17.28 
L 1340.802944 106.559074 
L 1348.624363 106.559074 
L 1348.624363 128.16 
L 1336.347846 128.16 
L 1336.347846 17.28 
z
" clip-path="url(#p360b2c7997)" style="fill: #21599c"/>
   </g>
   <g id="patch_90">
    <path d="M 1361.547013 118.127891 
Q 1360.308906 123.143945 1358.977253 125.663425 
Q 1357.6456 128.16 1356.225905 128.16 
Q 1353.017832 128.16 1351.144164 113.226358 
Q 1349.270496 98.292716 1349.270496 72.754357 
Q 1349.270496 46.91824 1351.17718 32.09912 
Q 1353.086616 17.28 1356.407494 17.28 
Q 1357.686871 17.28 1358.858945 19.295584 
Q 1360.033771 21.288263 1361.073781 25.227812 
L 1361.073781 47.330518 
Q 1360.000755 42.268655 1358.938734 39.77208 
Q 1357.876714 37.252601 1356.80919 37.252601 
Q 1354.833722 37.252601 1353.763448 46.460153 
Q 1352.693173 55.644801 1352.693173 72.754357 
Q 1352.693173 89.703582 1353.724929 98.956943 
Q 1354.756684 108.187399 1356.655115 108.187399 
Q 1357.172368 108.187399 1357.615336 107.660599 
Q 1358.058303 107.110894 1358.410475 105.965677 
L 1358.410475 85.214328 
L 1356.388234 85.214328 
L 1356.388234 66.73051 
L 1361.547013 66.73051 
L 1361.547013 118.127891 
z
" clip-path="url(#p360b2c7997)" style="fill: #787800"/>
   </g>
   <g id="patch_91">
    <path d="M 1362.193145 17.28 
L 1374.214133 17.28 
L 1374.214133 38.904689 
L 1366.648243 38.904689 
L 1366.648243 59.531316 
L 1373.76603 59.531316 
L 1373.76603 81.156005 
L 1366.648243 81.156005 
L 1366.648243 106.559074 
L 1374.469662 106.559074 
L 1374.469662 128.16 
L 1362.193145 128.16 
L 1362.193145 17.28 
z
" clip-path="url(#p360b2c7997)" style="fill: #6b296b"/>
   </g>
   <g id="patch_92">
    <path d="M 1375.115794 17.28 
L 1378.152921 17.28 
L 1381.257818 99.121132 
L 1384.357695 17.28 
L 1387.392311 17.28 
L 1383.054993 128.16 
L 1379.453112 128.16 
L 1375.115794 17.28 
z
" clip-path="url(#p360b2c7997)" style="fill: #21599c"/>
   </g>
   <g id="patch_93">
    <path d="M 1388.166208 17.28 
L 1400.187196 17.28 
L 1400.187196 38.904689 
L 1392.621306 38.904689 
L 1392.621306 59.531316 
L 1399.739094 59.531316 
L 1399.739094 81.156005 
L 1392.621306 81.156005 
L 1392.621306 128.16 
L 1388.166208 128.16 
L 1388.166208 17.28 
z
" clip-path="url(#p360b2c7997)" style="fill: #21599c"/>
   </g>
   <g id="patch_94">
    <path d="M 1400.961093 17.28 
L 1405.416191 17.28 
L 1405.416191 106.559074 
L 1413.23761 106.559074 
L 1413.23761 128.16 
L 1400.961093 128.16 
L 1400.961093 17.28 
z
" clip-path="url(#p360b2c7997)" style="fill: #21599c"/>
   </g>
   <g id="patch_95">
    <path d="M 1413.883742 17.28 
L 1425.90473 17.28 
L 1425.90473 38.904689 
L 1418.33884 38.904689 
L 1418.33884 59.531316 
L 1425.456628 59.531316 
L 1425.456628 81.156005 
L 1418.33884 81.156005 
L 1418.33884 106.559074 
L 1426.160259 106.559074 
L 1426.160259 128.16 
L 1413.883742 128.16 
L 1413.883742 17.28 
z
" clip-path="url(#p360b2c7997)" style="fill: #6b296b"/>
   </g>
   <g id="patch_96">
    <path d="M 1426.806392 17.28 
L 1431.26149 17.28 
L 1431.26149 106.559074 
L 1439.082909 106.559074 
L 1439.082909 128.16 
L 1426.806392 128.16 
L 1426.806392 17.28 
z
" clip-path="url(#p360b2c7997)" style="fill: #21599c"/>
   </g>
   <g id="patch_97">
    <path d="M 1443.093198 38.904689 
L 1443.093198 106.559074 
L 1444.298478 106.559074 
Q 1446.359479 106.559074 1447.447307 97.861672 
Q 1448.537931 89.164269 1448.537931 72.601183 
Q 1448.537931 56.13315 1447.4529 47.530802 
Q 1446.370665 38.904689 1444.298478 38.904689 
L 1443.093198 38.904689 
z
M 1439.729041 17.28 
L 1443.274969 17.28 
Q 1446.24762 17.28 1447.701786 20.892036 
Q 1449.155952 24.480309 1450.19624 33.106421 
Q 1451.113483 40.615654 1451.558122 50.429936 
Q 1452.005558 60.220454 1452.005558 72.601183 
Q 1452.005558 85.172019 1451.558122 95.010064 
Q 1451.113483 104.84811 1450.19624 112.333579 
Q 1449.147563 120.959691 1447.679414 124.571727 
Q 1446.211266 128.16 1443.274969 128.16 
L 1439.729041 128.16 
L 1439.729041 17.28 
z
" clip-path="url(#p360b2c7997)" style="fill: #6b296b"/>
   </g>
   <g id="patch_98">
    <path d="M 1452.651691 17.28 
L 1455.688817 17.28 
L 1458.793714 99.121132 
L 1461.893591 17.28 
L 1464.928208 17.28 
L 1460.59089 128.16 
L 1456.989008 128.16 
L 1452.651691 17.28 
z
" clip-path="url(#p360b2c7997)" style="fill: #21599c"/>
   </g>
   <g id="patch_99">
    <path d="M 1465.57434 17.28 
L 1467.697139 17.28 
L 1469.181073 97.861672 
L 1470.653961 17.28 
L 1472.787806 17.28 
L 1474.260694 97.861672 
L 1475.746469 17.28 
L 1477.850857 17.28 
L 1475.825637 128.16 
L 1473.272018 128.16 
L 1471.712598 43.871239 
L 1470.17159 128.16 
L 1467.61613 128.16 
L 1465.57434 17.28 
z
" clip-path="url(#p360b2c7997)" style="fill: #21599c"/>
   </g>
   <g id="patch_100">
    <path d="M 1483.478131 66.446464 
Q 1484.579869 66.446464 1485.057872 63.119589 
Q 1485.535875 59.76895 1485.535875 52.117137 
Q 1485.535875 44.536614 1485.057872 41.281029 
Q 1484.579869 38.00168 1483.478131 38.00168 
L 1482.003316 38.00168 
L 1482.003316 66.446464 
L 1483.478131 66.446464 
z
M 1482.003316 86.193845 
L 1482.003316 128.16 
L 1478.496989 128.16 
L 1478.496989 17.28 
L 1483.851206 17.28 
Q 1486.538516 17.28 1487.788902 24.646652 
Q 1489.042203 31.989541 1489.042203 47.887252 
Q 1489.042203 58.865941 1488.38932 65.923669 
Q 1487.739353 72.981397 1486.427759 76.332036 
Q 1487.147678 77.662786 1487.716036 82.391702 
Q 1488.287308 87.096854 1488.870238 96.673502 
L 1490.773506 128.16 
L 1487.039836 128.16 
L 1485.381399 100.618225 
Q 1484.880079 92.301037 1484.364185 89.259323 
Q 1483.851206 86.193845 1482.994298 86.193845 
L 1482.003316 86.193845 
z
" clip-path="url(#p360b2c7997)" style="fill: #bd2e1f"/>
   </g>
   <g id="patch_101">
    <path d="M 1494.783796 38.904689 
L 1494.783796 106.559074 
L 1495.989076 106.559074 
Q 1498.050076 106.559074 1499.137904 97.861672 
Q 1500.228529 89.164269 1500.228529 72.601183 
Q 1500.228529 56.13315 1499.143497 47.530802 
Q 1498.061262 38.904689 1495.989076 38.904689 
L 1494.783796 38.904689 
z
M 1491.419639 17.28 
L 1494.965567 17.28 
Q 1497.938218 17.28 1499.392384 20.892036 
Q 1500.84655 24.480309 1501.886838 33.106421 
Q 1502.804081 40.615654 1503.24872 50.429936 
Q 1503.696156 60.220454 1503.696156 72.601183 
Q 1503.696156 85.172019 1503.24872 95.010064 
Q 1502.804081 104.84811 1501.886838 112.333579 
Q 1500.83816 120.959691 1499.370012 124.571727 
Q 1497.901863 128.16 1494.965567 128.16 
L 1491.419639 128.16 
L 1491.419639 17.28 
z
" clip-path="url(#p360b2c7997)" style="fill: #6b296b"/>
   </g>
   <g id="patch_102">
    <path d="M 1504.342288 17.28 
L 1508.797386 17.28 
L 1508.797386 106.559074 
L 1516.618805 106.559074 
L 1516.618805 128.16 
L 1504.342288 128.16 
L 1504.342288 17.28 
z
" clip-path="url(#p360b2c7997)" style="fill: #21599c"/>
   </g>
   <g id="patch_103">
    <path d="M 1520.629095 38.904689 
L 1520.629095 106.559074 
L 1521.834375 106.559074 
Q 1523.895375 106.559074 1524.983203 97.861672 
Q 1526.073828 89.164269 1526.073828 72.601183 
Q 1526.073828 56.13315 1524.988796 47.530802 
Q 1523.906561 38.904689 1521.834375 38.904689 
L 1520.629095 38.904689 
z
M 1517.264937 17.28 
L 1520.810865 17.28 
Q 1523.783516 17.28 1525.237682 20.892036 
Q 1526.691848 24.480309 1527.732136 33.106421 
Q 1528.649379 40.615654 1529.094019 50.429936 
Q 1529.541454 60.220454 1529.541454 72.601183 
Q 1529.541454 85.172019 1529.094019 95.010064 
Q 1528.649379 104.84811 1527.732136 112.333579 
Q 1526.683459 120.959691 1525.21531 124.571727 
Q 1523.747162 128.16 1520.810865 128.16 
L 1517.264937 128.16 
L 1517.264937 17.28 
z
" clip-path="url(#p360b2c7997)" style="fill: #6b296b"/>
   </g>
   <g id="patch_104">
    <path d="M 1530.187587 17.28 
L 1534.130988 17.28 
L 1539.113827 93.322863 
L 1539.113827 17.28 
L 1542.464104 17.28 
L 1542.464104 128.16 
L 1538.517766 128.16 
L 1533.534927 52.117137 
L 1533.534927 128.16 
L 1530.187587 128.16 
L 1530.187587 17.28 
z
" clip-path="url(#p360b2c7997)" style="fill: #40ba47"/>
   </g>
   <g id="patch_105">
    <path d="M 1543.110236 17.28 
L 1546.147363 17.28 
L 1549.25226 99.121132 
L 1552.352137 17.28 
L 1555.386753 17.28 
L 1551.049435 128.16 
L 1547.447554 128.16 
L 1543.110236 17.28 
z
" clip-path="url(#p360b2c7997)" style="fill: #21599c"/>
   </g>
   <g id="patch_106">
    <path d="M 1561.014027 66.446464 
Q 1562.115766 66.446464 1562.593769 63.119589 
Q 1563.071772 59.76895 1563.071772 52.117137 
Q 1563.071772 44.536614 1562.593769 41.281029 
Q 1562.115766 38.00168 1561.014027 38.00168 
L 1559.539213 38.00168 
L 1559.539213 66.446464 
L 1561.014027 66.446464 
z
M 1559.539213 86.193845 
L 1559.539213 128.16 
L 1556.032886 128.16 
L 1556.032886 17.28 
L 1561.387102 17.28 
Q 1564.074412 17.28 1565.324798 24.646652 
Q 1566.578099 31.989541 1566.578099 47.887252 
Q 1566.578099 58.865941 1565.925217 65.923669 
Q 1565.275249 72.981397 1563.963655 76.332036 
Q 1564.683575 77.662786 1565.251932 82.391702 
Q 1565.823204 87.096854 1566.406134 96.673502 
L 1568.309403 128.16 
L 1564.575732 128.16 
L 1562.917295 100.618225 
Q 1562.415975 92.301037 1561.900081 89.259323 
Q 1561.387102 86.193845 1560.530195 86.193845 
L 1559.539213 86.193845 
z
" clip-path="url(#p360b2c7997)" style="fill: #bd2e1f"/>
   </g>
   <g id="patch_107">
    <path d="M 1573.936676 66.446464 
Q 1575.038415 66.446464 1575.516418 63.119589 
Q 1575.994421 59.76895 1575.994421 52.117137 
Q 1575.994421 44.536614 1575.516418 41.281029 
Q 1575.038415 38.00168 1573.936676 38.00168 
L 1572.461862 38.00168 
L 1572.461862 66.446464 
L 1573.936676 66.446464 
z
M 1572.461862 86.193845 
L 1572.461862 128.16 
L 1568.955535 128.16 
L 1568.955535 17.28 
L 1574.309752 17.28 
Q 1576.997062 17.28 1578.247448 24.646652 
Q 1579.500748 31.989541 1579.500748 47.887252 
Q 1579.500748 58.865941 1578.847866 65.923669 
Q 1578.197898 72.981397 1576.886305 76.332036 
Q 1577.606224 77.662786 1578.174581 82.391702 
Q 1578.745853 87.096854 1579.328784 96.673502 
L 1581.232052 128.16 
L 1577.498382 128.16 
L 1575.839944 100.618225 
Q 1575.338624 92.301037 1574.822731 89.259323 
Q 1574.309752 86.193845 1573.452844 86.193845 
L 1572.461862 86.193845 
z
" clip-path="url(#p360b2c7997)" style="fill: #bd2e1f"/>
   </g>
   <g id="patch_108">
    <path d="M 1586.859326 66.446464 
Q 1587.961064 66.446464 1588.439067 63.119589 
Q 1588.91707 59.76895 1588.91707 52.117137 
Q 1588.91707 44.536614 1588.439067 41.281029 
Q 1587.961064 38.00168 1586.859326 38.00168 
L 1585.384511 38.00168 
L 1585.384511 66.446464 
L 1586.859326 66.446464 
z
M 1585.384511 86.193845 
L 1585.384511 128.16 
L 1581.878184 128.16 
L 1581.878184 17.28 
L 1587.232401 17.28 
Q 1589.919711 17.28 1591.170097 24.646652 
Q 1592.423398 31.989541 1592.423398 47.887252 
Q 1592.423398 58.865941 1591.770515 65.923669 
Q 1591.120548 72.981397 1589.808954 76.332036 
Q 1590.528873 77.662786 1591.097231 82.391702 
Q 1591.668503 87.096854 1592.251433 96.673502 
L 1594.154701 128.16 
L 1590.421031 128.16 
L 1588.762594 100.618225 
Q 1588.261274 92.301037 1587.74538 89.259323 
Q 1587.232401 86.193845 1586.375493 86.193845 
L 1585.384511 86.193845 
z
" clip-path="url(#p360b2c7997)" style="fill: #bd2e1f"/>
   </g>
   <g id="patch_109">
    <path d="M 1594.800834 17.28 
L 1598.333158 17.28 
L 1598.333158 59.531316 
L 1603.545026 59.531316 
L 1603.545026 17.28 
L 1607.077351 17.28 
L 1607.077351 128.16 
L 1603.545026 128.16 
L 1603.545026 81.156005 
L 1598.333158 81.156005 
L 1598.333158 128.16 
L 1594.800834 128.16 
L 1594.800834 17.28 
z
" clip-path="url(#p360b2c7997)" style="fill: #177875"/>
   </g>
   <g id="patch_110">
    <path d="M 1607.723483 17.28 
L 1614.104714 17.28 
Q 1616.95325 17.28 1618.475026 26.690304 
Q 1620 36.076845 1620 53.447887 
Q 1620 70.913982 1618.475026 80.300523 
Q 1616.95325 89.687064 1614.104714 89.687064 
L 1611.569486 89.687064 
L 1611.569486 128.16 
L 1607.723483 128.16 
L 1607.723483 17.28 
z
M 1611.569486 38.00168 
L 1611.569486 68.965384 
L 1613.695497 68.965384 
Q 1614.81445 68.965384 1615.425079 64.925607 
Q 1616.035708 60.885829 1616.035708 53.447887 
Q 1616.035708 46.033708 1615.425079 42.017694 
Q 1614.81445 38.00168 1613.695497 38.00168 
L 1611.569486 38.00168 
z
" clip-path="url(#p360b2c7997)" style="fill: #787800"/>
   </g>
   <g id="matplotlib.axis_1">
    <g id="xtick_1">
     <g id="line2d_2">
      <defs>
       <path id="mb00db121da" d="M 0 0 
L 0 3.5 
" style="stroke: #000000; stroke-width: 0.8"/>
      </defs>
      <g>
       <use xlink:href="#mb00db121da" x="231.138258" y="128.16" style="stroke: #000000; stroke-width: 0.8"/>
      </g>
     </g>
     <g id="text_1">
      <!-- 0 -->
      <g transform="translate(227.957008 142.758438) scale(0.1 -0.1)">
       <defs>
        <path id="DejaVuSans-30" d="M 2034 4250 
Q 1547 4250 1301 3770 
Q 1056 3291 1056 2328 
Q 1056 1369 1301 889 
Q 1547 409 2034 409 
Q 2525 409 2770 889 
Q 3016 1369 3016 2328 
Q 3016 3291 2770 3770 
Q 2525 4250 2034 4250 
z
M 2034 4750 
Q 2819 4750 3233 4129 
Q 3647 3509 3647 2328 
Q 3647 1150 3233 529 
Q 2819 -91 2034 -91 
Q 1250 -91 836 529 
Q 422 1150 422 2328 
Q 422 3509 836 4129 
Q 1250 4750 2034 4750 
z
" transform="scale(0.015625)"/>
       </defs>
       <use xlink:href="#DejaVuSans-30"/>
      </g>
     </g>
    </g>
    <g id="xtick_2">
     <g id="line2d_3">
      <g>
       <use xlink:href="#mb00db121da" x="489.591246" y="128.16" style="stroke: #000000; stroke-width: 0.8"/>
      </g>
     </g>
     <g id="text_2">
      <!-- 20 -->
      <g transform="translate(483.228746 142.758438) scale(0.1 -0.1)">
       <defs>
        <path id="DejaVuSans-32" d="M 1228 531 
L 3431 531 
L 3431 0 
L 469 0 
L 469 531 
Q 828 903 1448 1529 
Q 2069 2156 2228 2338 
Q 2531 2678 2651 2914 
Q 2772 3150 2772 3378 
Q 2772 3750 2511 3984 
Q 2250 4219 1831 4219 
Q 1534 4219 1204 4116 
Q 875 4013 500 3803 
L 500 4441 
Q 881 4594 1212 4672 
Q 1544 4750 1819 4750 
Q 2544 4750 2975 4387 
Q 3406 4025 3406 3419 
Q 3406 3131 3298 2873 
Q 3191 2616 2906 2266 
Q 2828 2175 2409 1742 
Q 1991 1309 1228 531 
z
" transform="scale(0.015625)"/>
       </defs>
       <use xlink:href="#DejaVuSans-32"/>
       <use xlink:href="#DejaVuSans-30" x="63.623047"/>
      </g>
     </g>
    </g>
    <g id="xtick_3">
     <g id="line2d_4">
      <g>
       <use xlink:href="#mb00db121da" x="748.044233" y="128.16" style="stroke: #000000; stroke-width: 0.8"/>
      </g>
     </g>
     <g id="text_3">
      <!-- 40 -->
      <g transform="translate(741.681733 142.758438) scale(0.1 -0.1)">
       <defs>
        <path id="DejaVuSans-34" d="M 2419 4116 
L 825 1625 
L 2419 1625 
L 2419 4116 
z
M 2253 4666 
L 3047 4666 
L 3047 1625 
L 3713 1625 
L 3713 1100 
L 3047 1100 
L 3047 0 
L 2419 0 
L 2419 1100 
L 313 1100 
L 313 1709 
L 2253 4666 
z
" transform="scale(0.015625)"/>
       </defs>
       <use xlink:href="#DejaVuSans-34"/>
       <use xlink:href="#DejaVuSans-30" x="63.623047"/>
      </g>
     </g>
    </g>
    <g id="xtick_4">
     <g id="line2d_5">
      <g>
       <use xlink:href="#mb00db121da" x="1006.497221" y="128.16" style="stroke: #000000; stroke-width: 0.8"/>
      </g>
     </g>
     <g id="text_4">
      <!-- 60 -->
      <g transform="translate(1000.134721 142.758438) scale(0.1 -0.1)">
       <defs>
        <path id="DejaVuSans-36" d="M 2113 2584 
Q 1688 2584 1439 2293 
Q 1191 2003 1191 1497 
Q 1191 994 1439 701 
Q 1688 409 2113 409 
Q 2538 409 2786 701 
Q 3034 994 3034 1497 
Q 3034 2003 2786 2293 
Q 2538 2584 2113 2584 
z
M 3366 4563 
L 3366 3988 
Q 3128 4100 2886 4159 
Q 2644 4219 2406 4219 
Q 1781 4219 1451 3797 
Q 1122 3375 1075 2522 
Q 1259 2794 1537 2939 
Q 1816 3084 2150 3084 
Q 2853 3084 3261 2657 
Q 3669 2231 3669 1497 
Q 3669 778 3244 343 
Q 2819 -91 2113 -91 
Q 1303 -91 875 529 
Q 447 1150 447 2328 
Q 447 3434 972 4092 
Q 1497 4750 2381 4750 
Q 2619 4750 2861 4703 
Q 3103 4656 3366 4563 
z
" transform="scale(0.015625)"/>
       </defs>
       <use xlink:href="#DejaVuSans-36"/>
       <use xlink:href="#DejaVuSans-30" x="63.623047"/>
      </g>
     </g>
    </g>
    <g id="xtick_5">
     <g id="line2d_6">
      <g>
       <use xlink:href="#mb00db121da" x="1264.950208" y="128.16" style="stroke: #000000; stroke-width: 0.8"/>
      </g>
     </g>
     <g id="text_5">
      <!-- 80 -->
      <g transform="translate(1258.587708 142.758438) scale(0.1 -0.1)">
       <defs>
        <path id="DejaVuSans-38" d="M 2034 2216 
Q 1584 2216 1326 1975 
Q 1069 1734 1069 1313 
Q 1069 891 1326 650 
Q 1584 409 2034 409 
Q 2484 409 2743 651 
Q 3003 894 3003 1313 
Q 3003 1734 2745 1975 
Q 2488 2216 2034 2216 
z
M 1403 2484 
Q 997 2584 770 2862 
Q 544 3141 544 3541 
Q 544 4100 942 4425 
Q 1341 4750 2034 4750 
Q 2731 4750 3128 4425 
Q 3525 4100 3525 3541 
Q 3525 3141 3298 2862 
Q 3072 2584 2669 2484 
Q 3125 2378 3379 2068 
Q 3634 1759 3634 1313 
Q 3634 634 3220 271 
Q 2806 -91 2034 -91 
Q 1263 -91 848 271 
Q 434 634 434 1313 
Q 434 1759 690 2068 
Q 947 2378 1403 2484 
z
M 1172 3481 
Q 1172 3119 1398 2916 
Q 1625 2713 2034 2713 
Q 2441 2713 2670 2916 
Q 2900 3119 2900 3481 
Q 2900 3844 2670 4047 
Q 2441 4250 2034 4250 
Q 1625 4250 1398 4047 
Q 1172 3844 1172 3481 
z
" transform="scale(0.015625)"/>
       </defs>
       <use xlink:href="#DejaVuSans-38"/>
       <use xlink:href="#DejaVuSans-30" x="63.623047"/>
      </g>
     </g>
    </g>
    <g id="xtick_6">
     <g id="line2d_7">
      <g>
       <use xlink:href="#mb00db121da" x="1523.403196" y="128.16" style="stroke: #000000; stroke-width: 0.8"/>
      </g>
     </g>
     <g id="text_6">
      <!-- 100 -->
      <g transform="translate(1513.859446 142.758438) scale(0.1 -0.1)">
       <defs>
        <path id="DejaVuSans-31" d="M 794 531 
L 1825 531 
L 1825 4091 
L 703 3866 
L 703 4441 
L 1819 4666 
L 2450 4666 
L 2450 531 
L 3481 531 
L 3481 0 
L 794 0 
L 794 531 
z
" transform="scale(0.015625)"/>
       </defs>
       <use xlink:href="#DejaVuSans-31"/>
       <use xlink:href="#DejaVuSans-30" x="63.623047"/>
       <use xlink:href="#DejaVuSans-30" x="127.246094"/>
      </g>
     </g>
    </g>
   </g>
   <g id="matplotlib.axis_2">
    <g id="ytick_1">
     <g id="line2d_8">
      <defs>
       <path id="m4a703b4d24" d="M 0 0 
L -3.5 0 
" style="stroke: #000000; stroke-width: 0.8"/>
      </defs>
      <g>
       <use xlink:href="#m4a703b4d24" x="225" y="128.16" style="stroke: #000000; stroke-width: 0.8"/>
      </g>
     </g>
     <g id="text_7">
      <!-- 0.0 -->
      <g transform="translate(202.096875 131.959219) scale(0.1 -0.1)">
       <defs>
        <path id="DejaVuSans-2e" d="M 684 794 
L 1344 794 
L 1344 0 
L 684 0 
L 684 794 
z
" transform="scale(0.015625)"/>
       </defs>
       <use xlink:href="#DejaVuSans-30"/>
       <use xlink:href="#DejaVuSans-2e" x="63.623047"/>
       <use xlink:href="#DejaVuSans-30" x="95.410156"/>
      </g>
     </g>
    </g>
    <g id="ytick_2">
     <g id="line2d_9">
      <g>
       <use xlink:href="#m4a703b4d24" x="225" y="105.984" style="stroke: #000000; stroke-width: 0.8"/>
      </g>
     </g>
     <g id="text_8">
      <!-- 0.2 -->
      <g transform="translate(202.096875 109.783219) scale(0.1 -0.1)">
       <use xlink:href="#DejaVuSans-30"/>
       <use xlink:href="#DejaVuSans-2e" x="63.623047"/>
       <use xlink:href="#DejaVuSans-32" x="95.410156"/>
      </g>
     </g>
    </g>
    <g id="ytick_3">
     <g id="line2d_10">
      <g>
       <use xlink:href="#m4a703b4d24" x="225" y="83.808" style="stroke: #000000; stroke-width: 0.8"/>
      </g>
     </g>
     <g id="text_9">
      <!-- 0.4 -->
      <g transform="translate(202.096875 87.607219) scale(0.1 -0.1)">
       <use xlink:href="#DejaVuSans-30"/>
       <use xlink:href="#DejaVuSans-2e" x="63.623047"/>
       <use xlink:href="#DejaVuSans-34" x="95.410156"/>
      </g>
     </g>
    </g>
    <g id="ytick_4">
     <g id="line2d_11">
      <g>
       <use xlink:href="#m4a703b4d24" x="225" y="61.632" style="stroke: #000000; stroke-width: 0.8"/>
      </g>
     </g>
     <g id="text_10">
      <!-- 0.6 -->
      <g transform="translate(202.096875 65.431219) scale(0.1 -0.1)">
       <use xlink:href="#DejaVuSans-30"/>
       <use xlink:href="#DejaVuSans-2e" x="63.623047"/>
       <use xlink:href="#DejaVuSans-36" x="95.410156"/>
      </g>
     </g>
    </g>
    <g id="ytick_5">
     <g id="line2d_12">
      <g>
       <use xlink:href="#m4a703b4d24" x="225" y="39.456" style="stroke: #000000; stroke-width: 0.8"/>
      </g>
     </g>
     <g id="text_11">
      <!-- 0.8 -->
      <g transform="translate(202.096875 43.255219) scale(0.1 -0.1)">
       <use xlink:href="#DejaVuSans-30"/>
       <use xlink:href="#DejaVuSans-2e" x="63.623047"/>
       <use xlink:href="#DejaVuSans-38" x="95.410156"/>
      </g>
     </g>
    </g>
    <g id="ytick_6">
     <g id="line2d_13">
      <g>
       <use xlink:href="#m4a703b4d24" x="225" y="17.28" style="stroke: #000000; stroke-width: 0.8"/>
      </g>
     </g>
     <g id="text_12">
      <!-- 1.0 -->
      <g transform="translate(202.096875 21.079219) scale(0.1 -0.1)">
       <use xlink:href="#DejaVuSans-31"/>
       <use xlink:href="#DejaVuSans-2e" x="63.623047"/>
       <use xlink:href="#DejaVuSans-30" x="95.410156"/>
      </g>
     </g>
    </g>
   </g>
  </g>
 </g>
 <defs>
  <clipPath id="p360b2c7997">
   <rect x="225" y="17.28" width="1395" height="110.88"/>
  </clipPath>
 </defs>
</svg>
