<?xml version="1.0" encoding="utf-8" standalone="no"?>
<!DOCTYPE svg PUBLIC "-//W3C//DTD SVG 1.1//EN"
  "http://www.w3.org/Graphics/SVG/1.1/DTD/svg11.dtd">
<svg xmlns:xlink="http://www.w3.org/1999/xlink" width="1800pt" height="144pt" viewBox="0 0 1800 144" xmlns="http://www.w3.org/2000/svg" version="1.1">
 <metadata>
  <rdf:RDF xmlns:dc="http://purl.org/dc/elements/1.1/" xmlns:cc="http://creativecommons.org/ns#" xmlns:rdf="http://www.w3.org/1999/02/22-rdf-syntax-ns#">
   <cc:Work>
    <dc:type rdf:resource="http://purl.org/dc/dcmitype/StillImage"/>
    <dc:date>2025-05-09T21:11:10.905476</dc:date>
    <dc:format>image/svg+xml</dc:format>
    <dc:creator>
     <cc:Agent>
      <dc:title>Matplotlib v3.8.0, https://matplotlib.org/</dc:title>
     </cc:Agent>
    </dc:creator>
   </cc:Work>
  </rdf:RDF>
 </metadata>
 <defs>
  <style type="text/css">*{stroke-linejoin: round; stroke-linecap: butt}</style>
 </defs>
 <g id="figure_1">
  <g id="patch_1">
   <path d="M 0 144 
L 1800 144 
L 1800 0 
L 0 0 
z
" style="fill: #ffffff"/>
  </g>
  <g id="axes_1">
   <g id="patch_2">
    <path d="M 225 128.16 
L 1620 128.16 
L 1620 17.28 
L 225 17.28 
z
" style="fill: #ffffff"/>
   </g>
   <g id="line2d_1">
    <path d="M 225 128.16 
L 1620 128.16 
" clip-path="url(#p3d44c83242)" style="fill: none; stroke: #000000; stroke-width: 1.5; stroke-linecap: square"/>
   </g>
   <g id="patch_3">
    <path d="M 225 17.28 
L 229.829351 17.28 
L 233.1793 76.617197 
L 236.551329 17.28 
L 241.371217 17.28 
L 241.371217 128.16 
L 237.78469 128.16 
L 237.78469 47.055534 
L 234.393735 106.844235 
L 231.986945 106.844235 
L 228.59599 47.055534 
L 228.59599 128.16 
L 225 128.16 
L 225 17.28 
z
" clip-path="url(#p3d44c83242)" style="fill: #21599c"/>
   </g>
   <g id="patch_4">
    <path d="M 248.875407 66.446464 
Q 250.344619 66.446464 250.982055 63.119589 
Q 251.619491 59.76895 251.619491 52.117137 
Q 251.619491 44.536614 250.982055 41.281029 
Q 250.344619 38.00168 248.875407 38.00168 
L 246.908685 38.00168 
L 246.908685 66.446464 
L 248.875407 66.446464 
z
M 246.908685 86.193845 
L 246.908685 128.16 
L 242.23286 128.16 
L 242.23286 17.28 
L 249.372918 17.28 
Q 252.956551 17.28 254.62399 24.646652 
Q 256.295315 31.989541 256.295315 47.887252 
Q 256.295315 58.865941 255.424671 65.923669 
Q 254.557914 72.981397 252.808852 76.332036 
Q 253.768893 77.662786 254.52682 82.391702 
Q 255.288633 87.096854 256.065994 96.673502 
L 258.604077 128.16 
L 253.625081 128.16 
L 251.41349 100.618225 
Q 250.74496 92.301037 250.056995 89.259323 
Q 249.372918 86.193845 248.230198 86.193845 
L 246.908685 86.193845 
z
" clip-path="url(#p3d44c83242)" style="fill: #bd2e1f"/>
   </g>
   <g id="patch_5">
    <path d="M 259.46572 17.28 
L 264.7244 17.28 
L 271.369211 93.322863 
L 271.369211 17.28 
L 275.836936 17.28 
L 275.836936 128.16 
L 270.57434 128.16 
L 263.929529 52.117137 
L 263.929529 128.16 
L 259.46572 128.16 
L 259.46572 17.28 
z
" clip-path="url(#p3d44c83242)" style="fill: #40ba47"/>
   </g>
   <g id="patch_6">
    <path d="M 283.341127 66.446464 
Q 284.810339 66.446464 285.447774 63.119589 
Q 286.08521 59.76895 286.08521 52.117137 
Q 286.08521 44.536614 285.447774 41.281029 
Q 284.810339 38.00168 283.341127 38.00168 
L 281.374404 38.00168 
L 281.374404 66.446464 
L 283.341127 66.446464 
z
M 281.374404 86.193845 
L 281.374404 128.16 
L 276.698579 128.16 
L 276.698579 17.28 
L 283.838638 17.28 
Q 287.422271 17.28 289.089709 24.646652 
Q 290.761035 31.989541 290.761035 47.887252 
Q 290.761035 58.865941 289.890391 65.923669 
Q 289.023634 72.981397 287.274572 76.332036 
Q 288.234612 77.662786 288.992539 82.391702 
Q 289.754353 87.096854 290.531713 96.673502 
L 293.069796 128.16 
L 288.090801 128.16 
L 285.879209 100.618225 
Q 285.210679 92.301037 284.522715 89.259323 
Q 283.838638 86.193845 282.695917 86.193845 
L 281.374404 86.193845 
z
" clip-path="url(#p3d44c83242)" style="fill: #bd2e1f"/>
   </g>
   <g id="patch_7">
    <path d="M 293.931439 17.28 
L 298.76079 17.28 
L 302.110739 76.617197 
L 305.482768 17.28 
L 310.302656 17.28 
L 310.302656 128.16 
L 306.716129 128.16 
L 306.716129 47.055534 
L 303.325174 106.844235 
L 300.918384 106.844235 
L 297.527429 47.055534 
L 297.527429 128.16 
L 293.931439 128.16 
L 293.931439 17.28 
z
" clip-path="url(#p3d44c83242)" style="fill: #21599c"/>
   </g>
   <g id="patch_8">
    <path d="M 311.164299 17.28 
L 317.105347 17.28 
L 317.105347 106.559074 
L 327.535516 106.559074 
L 327.535516 128.16 
L 311.164299 128.16 
L 311.164299 17.28 
z
" clip-path="url(#p3d44c83242)" style="fill: #21599c"/>
   </g>
   <g id="patch_9">
    <path d="M 335.039706 66.446464 
Q 336.508918 66.446464 337.146354 63.119589 
Q 337.783789 59.76895 337.783789 52.117137 
Q 337.783789 44.536614 337.146354 41.281029 
Q 336.508918 38.00168 335.039706 38.00168 
L 333.072983 38.00168 
L 333.072983 66.446464 
L 335.039706 66.446464 
z
M 333.072983 86.193845 
L 333.072983 128.16 
L 328.397159 128.16 
L 328.397159 17.28 
L 335.537217 17.28 
Q 339.12085 17.28 340.788289 24.646652 
Q 342.459614 31.989541 342.459614 47.887252 
Q 342.459614 58.865941 341.58897 65.923669 
Q 340.722213 72.981397 338.973151 76.332036 
Q 339.933192 77.662786 340.691119 82.391702 
Q 341.452932 87.096854 342.230293 96.673502 
L 344.768376 128.16 
L 339.78938 128.16 
L 337.577789 100.618225 
Q 336.909259 92.301037 336.221294 89.259323 
Q 335.537217 86.193845 334.394497 86.193845 
L 333.072983 86.193845 
z
" clip-path="url(#p3d44c83242)" style="fill: #bd2e1f"/>
   </g>
   <g id="patch_10">
    <path d="M 360.636226 22.570907 
L 360.636226 45.200413 
Q 358.928853 41.260863 357.301513 39.268184 
Q 355.67862 37.252601 354.233578 37.252601 
Q 352.317229 37.252601 351.396849 39.978219 
Q 350.480914 42.680934 350.480914 48.407023 
Q 350.480914 52.713043 351.098948 55.118 
Q 351.716981 57.500054 353.344321 59.217881 
L 355.620818 61.57703 
Q 359.080027 65.173014 360.538408 72.479504 
Q 362.001235 79.76309 362.001235 93.230853 
Q 362.001235 110.890114 359.964837 119.525057 
Q 357.928439 128.16 353.744486 128.16 
Q 351.774783 128.16 349.787294 126.21313 
Q 347.799805 124.289163 345.812316 120.48704 
L 345.812316 97.239116 
Q 347.799805 102.667449 349.653905 105.438876 
Q 351.508006 108.187399 353.233164 108.187399 
Q 354.985 108.187399 355.914273 105.186928 
Q 356.843546 102.163553 356.843546 96.574889 
Q 356.843546 91.581739 356.212174 88.856121 
Q 355.580802 86.130502 353.691131 83.977492 
L 351.619163 81.618343 
Q 348.506764 78.18269 347.066168 70.67006 
Q 345.630019 63.15743 345.630019 50.422607 
Q 345.630019 34.458269 347.630846 25.869134 
Q 349.631674 17.28 353.384337 17.28 
Q 355.096157 17.28 356.901348 18.608453 
Q 358.706539 19.936906 360.636226 22.570907 
z
" clip-path="url(#p3d44c83242)" style="fill: #40ba47"/>
   </g>
   <g id="patch_11">
    <path d="M 362.862878 17.28 
L 366.913006 17.28 
L 371.053508 99.121132 
L 375.187315 17.28 
L 379.234095 17.28 
L 373.450112 128.16 
L 368.646862 128.16 
L 362.862878 17.28 
z
" clip-path="url(#p3d44c83242)" style="fill: #21599c"/>
   </g>
   <g id="patch_12">
    <path d="M 380.095738 17.28 
L 386.036786 17.28 
L 386.036786 106.559074 
L 396.466955 106.559074 
L 396.466955 128.16 
L 380.095738 128.16 
L 380.095738 17.28 
z
" clip-path="url(#p3d44c83242)" style="fill: #21599c"/>
   </g>
   <g id="patch_13">
    <path d="M 397.328598 17.28 
L 401.378725 17.28 
L 405.519227 99.121132 
L 409.653035 17.28 
L 413.699815 17.28 
L 407.915831 128.16 
L 403.112581 128.16 
L 397.328598 17.28 
z
" clip-path="url(#p3d44c83242)" style="fill: #21599c"/>
   </g>
   <g id="patch_14">
    <path d="M 425.901814 107.961114 
L 419.605707 107.961114 
L 418.611585 128.16 
L 414.561458 128.16 
L 420.345441 17.28 
L 425.148691 17.28 
L 430.932674 128.16 
L 426.885894 128.16 
L 425.901814 107.961114 
z
M 420.609871 87.382015 
L 424.887609 87.382015 
L 422.752087 43.277154 
L 420.609871 87.382015 
z
" clip-path="url(#p3d44c83242)" style="fill: #21599c"/>
   </g>
   <g id="patch_15">
    <path d="M 443.134674 107.961114 
L 436.838567 107.961114 
L 435.844445 128.16 
L 431.794317 128.16 
L 437.578301 17.28 
L 442.381551 17.28 
L 448.165534 128.16 
L 444.118754 128.16 
L 443.134674 107.961114 
z
M 437.842731 87.382015 
L 442.120468 87.382015 
L 439.984947 43.277154 
L 437.842731 87.382015 
z
" clip-path="url(#p3d44c83242)" style="fill: #21599c"/>
   </g>
   <g id="patch_16">
    <path d="M 449.197556 17.28 
L 465.228015 17.28 
L 465.228015 38.904689 
L 455.138604 38.904689 
L 455.138604 59.531316 
L 464.630453 59.531316 
L 464.630453 81.156005 
L 455.138604 81.156005 
L 455.138604 128.16 
L 449.197556 128.16 
L 449.197556 17.28 
z
" clip-path="url(#p3d44c83242)" style="fill: #21599c"/>
   </g>
   <g id="patch_17">
    <path d="M 481.266245 22.570907 
L 481.266245 45.200413 
Q 479.558872 41.260863 477.931532 39.268184 
Q 476.308638 37.252601 474.863596 37.252601 
Q 472.947248 37.252601 472.026867 39.978219 
Q 471.110933 42.680934 471.110933 48.407023 
Q 471.110933 52.713043 471.728966 55.118 
Q 472.347 57.500054 473.974339 59.217881 
L 476.250837 61.57703 
Q 479.710045 65.173014 481.168427 72.479504 
Q 482.631254 79.76309 482.631254 93.230853 
Q 482.631254 110.890114 480.594856 119.525057 
Q 478.558458 128.16 474.374505 128.16 
Q 472.404801 128.16 470.417312 126.21313 
Q 468.429824 124.289163 466.442335 120.48704 
L 466.442335 97.239116 
Q 468.429824 102.667449 470.283924 105.438876 
Q 472.138024 108.187399 473.863182 108.187399 
Q 475.615018 108.187399 476.544291 105.186928 
Q 477.473565 102.163553 477.473565 96.574889 
Q 477.473565 91.581739 476.842192 88.856121 
Q 476.21082 86.130502 474.32115 83.977492 
L 472.249181 81.618343 
Q 469.136783 78.18269 467.696187 70.67006 
Q 466.260037 63.15743 466.260037 50.422607 
Q 466.260037 34.458269 468.260865 25.869134 
Q 470.261692 17.28 474.014356 17.28 
Q 475.726175 17.28 477.531366 18.608453 
Q 479.336558 19.936906 481.266245 22.570907 
z
" clip-path="url(#p3d44c83242)" style="fill: #40ba47"/>
   </g>
   <g id="patch_18">
    <path d="M 494.833253 107.961114 
L 488.537146 107.961114 
L 487.543024 128.16 
L 483.492897 128.16 
L 489.27688 17.28 
L 494.08013 17.28 
L 499.864114 128.16 
L 495.817334 128.16 
L 494.833253 107.961114 
z
M 489.54131 87.382015 
L 493.819048 87.382015 
L 491.683526 43.277154 
L 489.54131 87.382015 
z
" clip-path="url(#p3d44c83242)" style="fill: #21599c"/>
   </g>
   <g id="patch_19">
    <path d="M 500.725757 17.28 
L 504.775884 17.28 
L 508.916386 99.121132 
L 513.050193 17.28 
L 517.096973 17.28 
L 511.31299 128.16 
L 506.50974 128.16 
L 500.725757 17.28 
z
" clip-path="url(#p3d44c83242)" style="fill: #21599c"/>
   </g>
   <g id="patch_20">
    <path d="M 517.958616 17.28 
L 522.008744 17.28 
L 526.149246 99.121132 
L 530.283053 17.28 
L 534.329833 17.28 
L 528.54585 128.16 
L 523.7426 128.16 
L 517.958616 17.28 
z
" clip-path="url(#p3d44c83242)" style="fill: #21599c"/>
   </g>
   <g id="patch_21">
    <path d="M 546.531832 107.961114 
L 540.235726 107.961114 
L 539.241603 128.16 
L 535.191476 128.16 
L 540.97546 17.28 
L 545.77871 17.28 
L 551.562693 128.16 
L 547.515913 128.16 
L 546.531832 107.961114 
z
M 541.239889 87.382015 
L 545.517627 87.382015 
L 543.382105 43.277154 
L 541.239889 87.382015 
z
" clip-path="url(#p3d44c83242)" style="fill: #21599c"/>
   </g>
   <g id="patch_22">
    <path d="M 552.424336 17.28 
L 558.365384 17.28 
L 558.365384 106.559074 
L 568.795553 106.559074 
L 568.795553 128.16 
L 552.424336 128.16 
L 552.424336 17.28 
z
" clip-path="url(#p3d44c83242)" style="fill: #21599c"/>
   </g>
   <g id="patch_23">
    <path d="M 586.028413 118.127891 
Q 584.377349 123.143945 582.601538 125.663425 
Q 580.825726 128.16 578.932506 128.16 
Q 574.654416 128.16 572.155806 113.226358 
Q 569.657196 98.292716 569.657196 72.754357 
Q 569.657196 46.91824 572.199834 32.09912 
Q 574.746142 17.28 579.174662 17.28 
Q 580.880762 17.28 582.443769 19.295584 
Q 584.010445 21.288263 585.397339 25.227812 
L 585.397339 47.330518 
Q 583.966417 42.268655 582.550171 39.77208 
Q 581.133925 37.252601 579.710341 37.252601 
Q 577.075977 37.252601 575.648724 46.460153 
Q 574.22147 55.644801 574.22147 72.754357 
Q 574.22147 89.703582 575.597357 98.956943 
Q 576.973244 108.187399 579.504875 108.187399 
Q 580.194653 108.187399 580.785367 107.660599 
Q 581.376081 107.110894 581.845717 105.965677 
L 581.845717 85.214328 
L 579.148979 85.214328 
L 579.148979 66.73051 
L 586.028413 66.73051 
L 586.028413 118.127891 
z
" clip-path="url(#p3d44c83242)" style="fill: #787800"/>
   </g>
   <g id="patch_24">
    <path d="M 598.230412 107.961114 
L 591.934305 107.961114 
L 590.940183 128.16 
L 586.890056 128.16 
L 592.674039 17.28 
L 597.477289 17.28 
L 603.261272 128.16 
L 599.214492 128.16 
L 598.230412 107.961114 
z
M 592.938469 87.382015 
L 597.216206 87.382015 
L 595.080685 43.277154 
L 592.938469 87.382015 
z
" clip-path="url(#p3d44c83242)" style="fill: #21599c"/>
   </g>
   <g id="patch_25">
    <path d="M 604.122915 17.28 
L 610.063963 17.28 
L 610.063963 106.559074 
L 620.494132 106.559074 
L 620.494132 128.16 
L 604.122915 128.16 
L 604.122915 17.28 
z
" clip-path="url(#p3d44c83242)" style="fill: #21599c"/>
   </g>
   <g id="patch_26">
    <path d="M 636.361983 22.570907 
L 636.361983 45.200413 
Q 634.65461 41.260863 633.02727 39.268184 
Q 631.404376 37.252601 629.959334 37.252601 
Q 628.042986 37.252601 627.122605 39.978219 
Q 626.206671 42.680934 626.206671 48.407023 
Q 626.206671 52.713043 626.824704 55.118 
Q 627.442738 57.500054 629.070077 59.217881 
L 631.346575 61.57703 
Q 634.805784 65.173014 636.264165 72.479504 
Q 637.726992 79.76309 637.726992 93.230853 
Q 637.726992 110.890114 635.690594 119.525057 
Q 633.654196 128.16 629.470243 128.16 
Q 627.500539 128.16 625.51305 126.21313 
Q 623.525562 124.289163 621.538073 120.48704 
L 621.538073 97.239116 
Q 623.525562 102.667449 625.379662 105.438876 
Q 627.233762 108.187399 628.95892 108.187399 
Q 630.710756 108.187399 631.64003 105.186928 
Q 632.569303 102.163553 632.569303 96.574889 
Q 632.569303 91.581739 631.937931 88.856121 
Q 631.306558 86.130502 629.416888 83.977492 
L 627.344919 81.618343 
Q 624.232521 78.18269 622.791925 70.67006 
Q 621.355775 63.15743 621.355775 50.422607 
Q 621.355775 34.458269 623.356603 25.869134 
Q 625.357431 17.28 629.110094 17.28 
Q 630.821913 17.28 632.627104 18.608453 
Q 634.432296 19.936906 636.361983 22.570907 
z
" clip-path="url(#p3d44c83242)" style="fill: #40ba47"/>
   </g>
   <g id="patch_27">
    <path d="M 654.959852 118.127891 
Q 653.308788 123.143945 651.532977 125.663425 
Q 649.757166 128.16 647.863946 128.16 
Q 643.585855 128.16 641.087245 113.226358 
Q 638.588635 98.292716 638.588635 72.754357 
Q 638.588635 46.91824 641.131274 32.09912 
Q 643.677581 17.28 648.106102 17.28 
Q 649.812201 17.28 651.375208 19.295584 
Q 652.941885 21.288263 654.328778 25.227812 
L 654.328778 47.330518 
Q 652.897856 42.268655 651.48161 39.77208 
Q 650.065364 37.252601 648.64178 37.252601 
Q 646.007416 37.252601 644.580163 46.460153 
Q 643.15291 55.644801 643.15291 72.754357 
Q 643.15291 89.703582 644.528796 98.956943 
Q 645.904683 108.187399 648.436314 108.187399 
Q 649.126092 108.187399 649.716806 107.660599 
Q 650.30752 107.110894 650.777156 105.965677 
L 650.777156 85.214328 
L 648.080418 85.214328 
L 648.080418 66.73051 
L 654.959852 66.73051 
L 654.959852 118.127891 
z
" clip-path="url(#p3d44c83242)" style="fill: #787800"/>
   </g>
   <g id="patch_28">
    <path d="M 655.991874 17.28 
L 672.022332 17.28 
L 672.022332 38.904689 
L 661.932922 38.904689 
L 661.932922 59.531316 
L 671.424771 59.531316 
L 671.424771 81.156005 
L 661.932922 81.156005 
L 661.932922 128.16 
L 655.991874 128.16 
L 655.991874 17.28 
z
" clip-path="url(#p3d44c83242)" style="fill: #21599c"/>
   </g>
   <g id="patch_29">
    <path d="M 688.060562 22.570907 
L 688.060562 45.200413 
Q 686.353189 41.260863 684.725849 39.268184 
Q 683.102956 37.252601 681.657914 37.252601 
Q 679.741565 37.252601 678.821185 39.978219 
Q 677.90525 42.680934 677.90525 48.407023 
Q 677.90525 52.713043 678.523284 55.118 
Q 679.141317 57.500054 680.768657 59.217881 
L 683.045154 61.57703 
Q 686.504363 65.173014 687.962744 72.479504 
Q 689.425571 79.76309 689.425571 93.230853 
Q 689.425571 110.890114 687.389173 119.525057 
Q 685.352775 128.16 681.168822 128.16 
Q 679.199119 128.16 677.21163 126.21313 
Q 675.224141 124.289163 673.236652 120.48704 
L 673.236652 97.239116 
Q 675.224141 102.667449 677.078241 105.438876 
Q 678.932342 108.187399 680.6575 108.187399 
Q 682.409336 108.187399 683.338609 105.186928 
Q 684.267882 102.163553 684.267882 96.574889 
Q 684.267882 91.581739 683.63651 88.856121 
Q 683.005138 86.130502 681.115467 83.977492 
L 679.043499 81.618343 
Q 675.9311 78.18269 674.490504 70.67006 
Q 673.054355 63.15743 673.054355 50.422607 
Q 673.054355 34.458269 675.055182 25.869134 
Q 677.05601 17.28 680.808673 17.28 
Q 682.520493 17.28 684.325684 18.608453 
Q 686.130875 19.936906 688.060562 22.570907 
z
" clip-path="url(#p3d44c83242)" style="fill: #40ba47"/>
   </g>
   <g id="patch_30">
    <path d="M 690.287214 17.28 
L 706.317673 17.28 
L 706.317673 38.904689 
L 696.228262 38.904689 
L 696.228262 59.531316 
L 705.720111 59.531316 
L 705.720111 81.156005 
L 696.228262 81.156005 
L 696.228262 106.559074 
L 706.658431 106.559074 
L 706.658431 128.16 
L 690.287214 128.16 
L 690.287214 17.28 
z
" clip-path="url(#p3d44c83242)" style="fill: #6b296b"/>
   </g>
   <g id="patch_31">
    <path d="M 707.520074 17.28 
L 711.570201 17.28 
L 715.710703 99.121132 
L 719.844511 17.28 
L 723.891291 17.28 
L 718.107308 128.16 
L 713.304057 128.16 
L 707.520074 17.28 
z
" clip-path="url(#p3d44c83242)" style="fill: #21599c"/>
   </g>
   <g id="patch_32">
    <path d="M 724.752934 17.28 
L 729.067189 17.28 
L 729.067189 57.749061 
L 735.285741 17.28 
L 740.295728 17.28 
L 732.237431 69.797102 
L 741.124151 128.16 
L 735.723263 128.16 
L 729.067189 84.48288 
L 729.067189 128.16 
L 724.752934 128.16 
L 724.752934 17.28 
z
" clip-path="url(#p3d44c83242)" style="fill: #bd2e1f"/>
   </g>
   <g id="patch_33">
    <path d="M 741.985794 17.28 
L 758.016252 17.28 
L 758.016252 38.904689 
L 747.926842 38.904689 
L 747.926842 59.531316 
L 757.41869 59.531316 
L 757.41869 81.156005 
L 747.926842 81.156005 
L 747.926842 106.559074 
L 758.357011 106.559074 
L 758.357011 128.16 
L 741.985794 128.16 
L 741.985794 17.28 
z
" clip-path="url(#p3d44c83242)" style="fill: #6b296b"/>
   </g>
   <g id="patch_34">
    <path d="M 759.218653 17.28 
L 775.249112 17.28 
L 775.249112 38.904689 
L 765.159701 38.904689 
L 765.159701 59.531316 
L 774.65155 59.531316 
L 774.65155 81.156005 
L 765.159701 81.156005 
L 765.159701 106.559074 
L 775.58987 106.559074 
L 775.58987 128.16 
L 759.218653 128.16 
L 759.218653 17.28 
z
" clip-path="url(#p3d44c83242)" style="fill: #6b296b"/>
   </g>
   <g id="patch_35">
    <path d="M 776.451513 17.28 
L 780.501641 17.28 
L 784.642142 99.121132 
L 788.77595 17.28 
L 792.82273 17.28 
L 787.038747 128.16 
L 782.235497 128.16 
L 776.451513 17.28 
z
" clip-path="url(#p3d44c83242)" style="fill: #21599c"/>
   </g>
   <g id="patch_36">
    <path d="M 800.32692 66.446464 
Q 801.796132 66.446464 802.433568 63.119589 
Q 803.071004 59.76895 803.071004 52.117137 
Q 803.071004 44.536614 802.433568 41.281029 
Q 801.796132 38.00168 800.32692 38.00168 
L 798.360198 38.00168 
L 798.360198 66.446464 
L 800.32692 66.446464 
z
M 798.360198 86.193845 
L 798.360198 128.16 
L 793.684373 128.16 
L 793.684373 17.28 
L 800.824431 17.28 
Q 804.408064 17.28 806.075503 24.646652 
Q 807.746829 31.989541 807.746829 47.887252 
Q 807.746829 58.865941 806.876185 65.923669 
Q 806.009427 72.981397 804.260366 76.332036 
Q 805.220406 77.662786 805.978333 82.391702 
Q 806.740146 87.096854 807.517507 96.673502 
L 810.05559 128.16 
L 805.076594 128.16 
L 802.865003 100.618225 
Q 802.196473 92.301037 801.508509 89.259323 
Q 800.824431 86.193845 799.681711 86.193845 
L 798.360198 86.193845 
z
" clip-path="url(#p3d44c83242)" style="fill: #bd2e1f"/>
   </g>
   <g id="patch_37">
    <path d="M 822.257589 107.961114 
L 815.961482 107.961114 
L 814.96736 128.16 
L 810.917233 128.16 
L 816.701216 17.28 
L 821.504466 17.28 
L 827.28845 128.16 
L 823.24167 128.16 
L 822.257589 107.961114 
z
M 816.965646 87.382015 
L 821.243384 87.382015 
L 819.107862 43.277154 
L 816.965646 87.382015 
z
" clip-path="url(#p3d44c83242)" style="fill: #21599c"/>
   </g>
   <g id="patch_38">
    <path d="M 828.150093 17.28 
L 833.408773 17.28 
L 840.053584 93.322863 
L 840.053584 17.28 
L 844.521309 17.28 
L 844.521309 128.16 
L 839.258713 128.16 
L 832.613902 52.117137 
L 832.613902 128.16 
L 828.150093 128.16 
L 828.150093 17.28 
z
" clip-path="url(#p3d44c83242)" style="fill: #40ba47"/>
   </g>
   <g id="patch_39">
    <path d="M 860.38916 22.570907 
L 860.38916 45.200413 
Q 858.681787 41.260863 857.054447 39.268184 
Q 855.431554 37.252601 853.986512 37.252601 
Q 852.070163 37.252601 851.149782 39.978219 
Q 850.233848 42.680934 850.233848 48.407023 
Q 850.233848 52.713043 850.851881 55.118 
Q 851.469915 57.500054 853.097255 59.217881 
L 855.373752 61.57703 
Q 858.832961 65.173014 860.291342 72.479504 
Q 861.754169 79.76309 861.754169 93.230853 
Q 861.754169 110.890114 859.717771 119.525057 
Q 857.681373 128.16 853.49742 128.16 
Q 851.527717 128.16 849.540228 126.21313 
Q 847.552739 124.289163 845.56525 120.48704 
L 845.56525 97.239116 
Q 847.552739 102.667449 849.406839 105.438876 
Q 851.26094 108.187399 852.986098 108.187399 
Q 854.737933 108.187399 855.667207 105.186928 
Q 856.59648 102.163553 856.59648 96.574889 
Q 856.59648 91.581739 855.965108 88.856121 
Q 855.333735 86.130502 853.444065 83.977492 
L 851.372097 81.618343 
Q 848.259698 78.18269 846.819102 70.67006 
Q 845.382952 63.15743 845.382952 50.422607 
Q 845.382952 34.458269 847.38378 25.869134 
Q 849.384608 17.28 853.137271 17.28 
Q 854.849091 17.28 856.654282 18.608453 
Q 858.459473 19.936906 860.38916 22.570907 
z
" clip-path="url(#p3d44c83242)" style="fill: #40ba47"/>
   </g>
   <g id="patch_40">
    <path d="M 877.62202 22.570907 
L 877.62202 45.200413 
Q 875.914647 41.260863 874.287307 39.268184 
Q 872.664414 37.252601 871.219371 37.252601 
Q 869.303023 37.252601 868.382642 39.978219 
Q 867.466708 42.680934 867.466708 48.407023 
Q 867.466708 52.713043 868.084741 55.118 
Q 868.702775 57.500054 870.330115 59.217881 
L 872.606612 61.57703 
Q 876.065821 65.173014 877.524202 72.479504 
Q 878.987029 79.76309 878.987029 93.230853 
Q 878.987029 110.890114 876.950631 119.525057 
Q 874.914233 128.16 870.73028 128.16 
Q 868.760576 128.16 866.773088 126.21313 
Q 864.785599 124.289163 862.79811 120.48704 
L 862.79811 97.239116 
Q 864.785599 102.667449 866.639699 105.438876 
Q 868.493799 108.187399 870.218957 108.187399 
Q 871.970793 108.187399 872.900067 105.186928 
Q 873.82934 102.163553 873.82934 96.574889 
Q 873.82934 91.581739 873.197968 88.856121 
Q 872.566595 86.130502 870.676925 83.977492 
L 868.604956 81.618343 
Q 865.492558 78.18269 864.051962 70.67006 
Q 862.615812 63.15743 862.615812 50.422607 
Q 862.615812 34.458269 864.61664 25.869134 
Q 866.617468 17.28 870.370131 17.28 
Q 872.08195 17.28 873.887142 18.608453 
Q 875.692333 19.936906 877.62202 22.570907 
z
" clip-path="url(#p3d44c83242)" style="fill: #40ba47"/>
   </g>
   <g id="patch_41">
    <path d="M 879.848672 17.28 
L 882.679508 17.28 
L 884.658392 97.861672 
L 886.622545 17.28 
L 889.468112 17.28 
L 891.432265 97.861672 
L 893.413605 17.28 
L 896.219889 17.28 
L 893.519178 128.16 
L 890.113828 128.16 
L 888.03428 43.871239 
L 885.979285 128.16 
L 882.571479 128.16 
L 879.848672 17.28 
z
" clip-path="url(#p3d44c83242)" style="fill: #21599c"/>
   </g>
   <g id="patch_42">
    <path d="M 897.081532 17.28 
L 905.591154 17.28 
Q 909.389788 17.28 911.419137 26.690304 
Q 913.452749 36.076845 913.452749 53.447887 
Q 913.452749 70.913982 911.419137 80.300523 
Q 909.389788 89.687064 905.591154 89.687064 
L 902.210327 89.687064 
L 902.210327 128.16 
L 897.081532 128.16 
L 897.081532 17.28 
z
M 902.210327 38.00168 
L 902.210327 68.965384 
L 905.045447 68.965384 
Q 906.537615 68.965384 907.351912 64.925607 
Q 908.16621 60.885829 908.16621 53.447887 
Q 908.16621 46.033708 907.351912 42.017694 
Q 906.537615 38.00168 905.045447 38.00168 
L 902.210327 38.00168 
z
" clip-path="url(#p3d44c83242)" style="fill: #787800"/>
   </g>
   <g id="patch_43">
    <path d="M 929.320599 22.570907 
L 929.320599 45.200413 
Q 927.613226 41.260863 925.985886 39.268184 
Q 924.362993 37.252601 922.917951 37.252601 
Q 921.001602 37.252601 920.081222 39.978219 
Q 919.165287 42.680934 919.165287 48.407023 
Q 919.165287 52.713043 919.783321 55.118 
Q 920.401354 57.500054 922.028694 59.217881 
L 924.305191 61.57703 
Q 927.7644 65.173014 929.222781 72.479504 
Q 930.685608 79.76309 930.685608 93.230853 
Q 930.685608 110.890114 928.64921 119.525057 
Q 926.612812 128.16 922.428859 128.16 
Q 920.459156 128.16 918.471667 126.21313 
Q 916.484178 124.289163 914.496689 120.48704 
L 914.496689 97.239116 
Q 916.484178 102.667449 918.338278 105.438876 
Q 920.192379 108.187399 921.917537 108.187399 
Q 923.669373 108.187399 924.598646 105.186928 
Q 925.527919 102.163553 925.527919 96.574889 
Q 925.527919 91.581739 924.896547 88.856121 
Q 924.265175 86.130502 922.375504 83.977492 
L 920.303536 81.618343 
Q 917.191137 78.18269 915.750541 70.67006 
Q 914.314392 63.15743 914.314392 50.422607 
Q 914.314392 34.458269 916.315219 25.869134 
Q 918.316047 17.28 922.06871 17.28 
Q 923.78053 17.28 925.585721 18.608453 
Q 927.390912 19.936906 929.320599 22.570907 
z
" clip-path="url(#p3d44c83242)" style="fill: #40ba47"/>
   </g>
   <g id="patch_44">
    <path d="M 931.547251 17.28 
L 935.597379 17.28 
L 939.737881 99.121132 
L 943.871688 17.28 
L 947.918468 17.28 
L 942.134485 128.16 
L 937.331235 128.16 
L 931.547251 17.28 
z
" clip-path="url(#p3d44c83242)" style="fill: #21599c"/>
   </g>
   <g id="patch_45">
    <path d="M 960.120467 107.961114 
L 953.824361 107.961114 
L 952.830238 128.16 
L 948.780111 128.16 
L 954.564095 17.28 
L 959.367345 17.28 
L 965.151328 128.16 
L 961.104548 128.16 
L 960.120467 107.961114 
z
M 954.828524 87.382015 
L 959.106262 87.382015 
L 956.97074 43.277154 
L 954.828524 87.382015 
z
" clip-path="url(#p3d44c83242)" style="fill: #21599c"/>
   </g>
   <g id="patch_46">
    <path d="M 966.012971 17.28 
L 970.063098 17.28 
L 974.2036 99.121132 
L 978.337408 17.28 
L 982.384188 17.28 
L 976.600204 128.16 
L 971.796954 128.16 
L 966.012971 17.28 
z
" clip-path="url(#p3d44c83242)" style="fill: #21599c"/>
   </g>
   <g id="patch_47">
    <path d="M 983.245831 17.28 
L 988.504511 17.28 
L 995.149323 93.322863 
L 995.149323 17.28 
L 999.617048 17.28 
L 999.617048 128.16 
L 994.354451 128.16 
L 987.70964 52.117137 
L 987.70964 128.16 
L 983.245831 128.16 
L 983.245831 17.28 
z
" clip-path="url(#p3d44c83242)" style="fill: #40ba47"/>
   </g>
   <g id="patch_48">
    <path d="M 1000.478691 17.28 
L 1016.849907 17.28 
L 1016.849907 38.904689 
L 1010.960077 38.904689 
L 1010.960077 128.16 
L 1006.379943 128.16 
L 1006.379943 38.904689 
L 1000.478691 38.904689 
L 1000.478691 17.28 
z
" clip-path="url(#p3d44c83242)" style="fill: #40ba47"/>
   </g>
   <g id="patch_49">
    <path d="M 1017.71155 17.28 
L 1034.082767 17.28 
L 1034.082767 38.904689 
L 1028.192936 38.904689 
L 1028.192936 128.16 
L 1023.612803 128.16 
L 1023.612803 38.904689 
L 1017.71155 38.904689 
L 1017.71155 17.28 
z
" clip-path="url(#p3d44c83242)" style="fill: #40ba47"/>
   </g>
   <g id="patch_50">
    <path d="M 1034.94441 17.28 
L 1039.47057 17.28 
L 1043.126579 56.798526 
L 1046.779149 17.28 
L 1051.315627 17.28 
L 1045.200496 81.441166 
L 1045.200496 128.16 
L 1041.06298 128.16 
L 1041.06298 81.441166 
L 1034.94441 17.28 
z
" clip-path="url(#p3d44c83242)" style="fill: #177875"/>
   </g>
   <g id="patch_51">
    <path d="M 1068.548487 118.127891 
Q 1066.897423 123.143945 1065.121612 125.663425 
Q 1063.345801 128.16 1061.452581 128.16 
Q 1057.17449 128.16 1054.67588 113.226358 
Q 1052.17727 98.292716 1052.17727 72.754357 
Q 1052.17727 46.91824 1054.719908 32.09912 
Q 1057.266216 17.28 1061.694737 17.28 
Q 1063.400836 17.28 1064.963843 19.295584 
Q 1066.53052 21.288263 1067.917413 25.227812 
L 1067.917413 47.330518 
Q 1066.486491 42.268655 1065.070245 39.77208 
Q 1063.653999 37.252601 1062.230415 37.252601 
Q 1059.596051 37.252601 1058.168798 46.460153 
Q 1056.741545 55.644801 1056.741545 72.754357 
Q 1056.741545 89.703582 1058.117431 98.956943 
Q 1059.493318 108.187399 1062.024949 108.187399 
Q 1062.714727 108.187399 1063.305441 107.660599 
Q 1063.896155 107.110894 1064.365791 105.965677 
L 1064.365791 85.214328 
L 1061.669053 85.214328 
L 1061.669053 66.73051 
L 1068.548487 66.73051 
L 1068.548487 118.127891 
z
" clip-path="url(#p3d44c83242)" style="fill: #787800"/>
   </g>
   <g id="patch_52">
    <path d="M 1080.750486 107.961114 
L 1074.454379 107.961114 
L 1073.460257 128.16 
L 1069.41013 128.16 
L 1075.194113 17.28 
L 1079.997363 17.28 
L 1085.781347 128.16 
L 1081.734566 128.16 
L 1080.750486 107.961114 
z
M 1075.458543 87.382015 
L 1079.736281 87.382015 
L 1077.600759 43.277154 
L 1075.458543 87.382015 
z
" clip-path="url(#p3d44c83242)" style="fill: #21599c"/>
   </g>
   <g id="patch_53">
    <path d="M 1101.649197 22.570907 
L 1101.649197 45.200413 
Q 1099.941824 41.260863 1098.314484 39.268184 
Q 1096.691591 37.252601 1095.246549 37.252601 
Q 1093.3302 37.252601 1092.40982 39.978219 
Q 1091.493885 42.680934 1091.493885 48.407023 
Q 1091.493885 52.713043 1092.111919 55.118 
Q 1092.729952 57.500054 1094.357292 59.217881 
L 1096.633789 61.57703 
Q 1100.092998 65.173014 1101.551379 72.479504 
Q 1103.014206 79.76309 1103.014206 93.230853 
Q 1103.014206 110.890114 1100.977808 119.525057 
Q 1098.94141 128.16 1094.757457 128.16 
Q 1092.787754 128.16 1090.800265 126.21313 
Q 1088.812776 124.289163 1086.825287 120.48704 
L 1086.825287 97.239116 
Q 1088.812776 102.667449 1090.666876 105.438876 
Q 1092.520977 108.187399 1094.246135 108.187399 
Q 1095.997971 108.187399 1096.927244 105.186928 
Q 1097.856517 102.163553 1097.856517 96.574889 
Q 1097.856517 91.581739 1097.225145 88.856121 
Q 1096.593773 86.130502 1094.704102 83.977492 
L 1092.632134 81.618343 
Q 1089.519735 78.18269 1088.079139 70.67006 
Q 1086.642989 63.15743 1086.642989 50.422607 
Q 1086.642989 34.458269 1088.643817 25.869134 
Q 1090.644645 17.28 1094.397308 17.28 
Q 1096.109128 17.28 1097.914319 18.608453 
Q 1099.71951 19.936906 1101.649197 22.570907 
z
" clip-path="url(#p3d44c83242)" style="fill: #40ba47"/>
   </g>
   <g id="patch_54">
    <path d="M 1103.875849 17.28 
L 1109.13453 17.28 
L 1115.779341 93.322863 
L 1115.779341 17.28 
L 1120.247066 17.28 
L 1120.247066 128.16 
L 1114.98447 128.16 
L 1108.339659 52.117137 
L 1108.339659 128.16 
L 1103.875849 128.16 
L 1103.875849 17.28 
z
" clip-path="url(#p3d44c83242)" style="fill: #40ba47"/>
   </g>
   <g id="patch_55">
    <path d="M 1136.114917 22.570907 
L 1136.114917 45.200413 
Q 1134.407544 41.260863 1132.780204 39.268184 
Q 1131.15731 37.252601 1129.712268 37.252601 
Q 1127.79592 37.252601 1126.875539 39.978219 
Q 1125.959605 42.680934 1125.959605 48.407023 
Q 1125.959605 52.713043 1126.577638 55.118 
Q 1127.195672 57.500054 1128.823011 59.217881 
L 1131.099509 61.57703 
Q 1134.558717 65.173014 1136.017099 72.479504 
Q 1137.479926 79.76309 1137.479926 93.230853 
Q 1137.479926 110.890114 1135.443528 119.525057 
Q 1133.40713 128.16 1129.223177 128.16 
Q 1127.253473 128.16 1125.265984 126.21313 
Q 1123.278496 124.289163 1121.291007 120.48704 
L 1121.291007 97.239116 
Q 1123.278496 102.667449 1125.132596 105.438876 
Q 1126.986696 108.187399 1128.711854 108.187399 
Q 1130.46369 108.187399 1131.392963 105.186928 
Q 1132.322237 102.163553 1132.322237 96.574889 
Q 1132.322237 91.581739 1131.690864 88.856121 
Q 1131.059492 86.130502 1129.169822 83.977492 
L 1127.097853 81.618343 
Q 1123.985455 78.18269 1122.544859 70.67006 
Q 1121.108709 63.15743 1121.108709 50.422607 
Q 1121.108709 34.458269 1123.109537 25.869134 
Q 1125.110364 17.28 1128.863028 17.28 
Q 1130.574847 17.28 1132.380038 18.608453 
Q 1134.18523 19.936906 1136.114917 22.570907 
z
" clip-path="url(#p3d44c83242)" style="fill: #40ba47"/>
   </g>
   <g id="patch_56">
    <path d="M 1153.347777 22.570907 
L 1153.347777 45.200413 
Q 1151.640404 41.260863 1150.013064 39.268184 
Q 1148.39017 37.252601 1146.945128 37.252601 
Q 1145.02878 37.252601 1144.108399 39.978219 
Q 1143.192464 42.680934 1143.192464 48.407023 
Q 1143.192464 52.713043 1143.810498 55.118 
Q 1144.428531 57.500054 1146.055871 59.217881 
L 1148.332368 61.57703 
Q 1151.791577 65.173014 1153.249958 72.479504 
Q 1154.712786 79.76309 1154.712786 93.230853 
Q 1154.712786 110.890114 1152.676388 119.525057 
Q 1150.63999 128.16 1146.456037 128.16 
Q 1144.486333 128.16 1142.498844 126.21313 
Q 1140.511355 124.289163 1138.523867 120.48704 
L 1138.523867 97.239116 
Q 1140.511355 102.667449 1142.365456 105.438876 
Q 1144.219556 108.187399 1145.944714 108.187399 
Q 1147.69655 108.187399 1148.625823 105.186928 
Q 1149.555097 102.163553 1149.555097 96.574889 
Q 1149.555097 91.581739 1148.923724 88.856121 
Q 1148.292352 86.130502 1146.402681 83.977492 
L 1144.330713 81.618343 
Q 1141.218314 78.18269 1139.777719 70.67006 
Q 1138.341569 63.15743 1138.341569 50.422607 
Q 1138.341569 34.458269 1140.342397 25.869134 
Q 1142.343224 17.28 1146.095888 17.28 
Q 1147.807707 17.28 1149.612898 18.608453 
Q 1151.418089 19.936906 1153.347777 22.570907 
z
" clip-path="url(#p3d44c83242)" style="fill: #40ba47"/>
   </g>
   <g id="patch_57">
    <path d="M 1155.574429 17.28 
L 1158.405264 17.28 
L 1160.384149 97.861672 
L 1162.348302 17.28 
L 1165.193869 17.28 
L 1167.158022 97.861672 
L 1169.139362 17.28 
L 1171.945645 17.28 
L 1169.244935 128.16 
L 1165.839584 128.16 
L 1163.760037 43.871239 
L 1161.705042 128.16 
L 1158.297236 128.16 
L 1155.574429 17.28 
z
" clip-path="url(#p3d44c83242)" style="fill: #21599c"/>
   </g>
   <g id="patch_58">
    <path d="M 1172.807288 17.28 
L 1181.316911 17.28 
Q 1185.115544 17.28 1187.144893 26.690304 
Q 1189.178505 36.076845 1189.178505 53.447887 
Q 1189.178505 70.913982 1187.144893 80.300523 
Q 1185.115544 89.687064 1181.316911 89.687064 
L 1177.936084 89.687064 
L 1177.936084 128.16 
L 1172.807288 128.16 
L 1172.807288 17.28 
z
M 1177.936084 38.00168 
L 1177.936084 68.965384 
L 1180.771203 68.965384 
Q 1182.263371 68.965384 1183.077669 64.925607 
Q 1183.891966 60.885829 1183.891966 53.447887 
Q 1183.891966 46.033708 1183.077669 42.017694 
Q 1182.263371 38.00168 1180.771203 38.00168 
L 1177.936084 38.00168 
z
" clip-path="url(#p3d44c83242)" style="fill: #787800"/>
   </g>
   <g id="patch_59">
    <path d="M 1205.046356 22.570907 
L 1205.046356 45.200413 
Q 1203.338983 41.260863 1201.711643 39.268184 
Q 1200.08875 37.252601 1198.643707 37.252601 
Q 1196.727359 37.252601 1195.806978 39.978219 
Q 1194.891044 42.680934 1194.891044 48.407023 
Q 1194.891044 52.713043 1195.509077 55.118 
Q 1196.127111 57.500054 1197.754451 59.217881 
L 1200.030948 61.57703 
Q 1203.490157 65.173014 1204.948538 72.479504 
Q 1206.411365 79.76309 1206.411365 93.230853 
Q 1206.411365 110.890114 1204.374967 119.525057 
Q 1202.338569 128.16 1198.154616 128.16 
Q 1196.184912 128.16 1194.197424 126.21313 
Q 1192.209935 124.289163 1190.222446 120.48704 
L 1190.222446 97.239116 
Q 1192.209935 102.667449 1194.064035 105.438876 
Q 1195.918135 108.187399 1197.643293 108.187399 
Q 1199.395129 108.187399 1200.324403 105.186928 
Q 1201.253676 102.163553 1201.253676 96.574889 
Q 1201.253676 91.581739 1200.622304 88.856121 
Q 1199.990931 86.130502 1198.101261 83.977492 
L 1196.029292 81.618343 
Q 1192.916894 78.18269 1191.476298 70.67006 
Q 1190.040148 63.15743 1190.040148 50.422607 
Q 1190.040148 34.458269 1192.040976 25.869134 
Q 1194.041804 17.28 1197.794467 17.28 
Q 1199.506286 17.28 1201.311478 18.608453 
Q 1203.116669 19.936906 1205.046356 22.570907 
z
" clip-path="url(#p3d44c83242)" style="fill: #40ba47"/>
   </g>
   <g id="patch_60">
    <path d="M 1207.273008 17.28 
L 1211.323135 17.28 
L 1215.463637 99.121132 
L 1219.597445 17.28 
L 1223.644225 17.28 
L 1217.860241 128.16 
L 1213.056991 128.16 
L 1207.273008 17.28 
z
" clip-path="url(#p3d44c83242)" style="fill: #21599c"/>
   </g>
   <g id="patch_61">
    <path d="M 1235.846224 107.961114 
L 1229.550117 107.961114 
L 1228.555995 128.16 
L 1224.505868 128.16 
L 1230.289851 17.28 
L 1235.093101 17.28 
L 1240.877085 128.16 
L 1236.830305 128.16 
L 1235.846224 107.961114 
z
M 1230.554281 87.382015 
L 1234.832019 87.382015 
L 1232.696497 43.277154 
L 1230.554281 87.382015 
z
" clip-path="url(#p3d44c83242)" style="fill: #21599c"/>
   </g>
   <g id="patch_62">
    <path d="M 1258.109944 118.127891 
Q 1256.45888 123.143945 1254.683069 125.663425 
Q 1252.907258 128.16 1251.014038 128.16 
Q 1246.735948 128.16 1244.237338 113.226358 
Q 1241.738728 98.292716 1241.738728 72.754357 
Q 1241.738728 46.91824 1244.281366 32.09912 
Q 1246.827674 17.28 1251.256194 17.28 
Q 1252.962294 17.28 1254.525301 19.295584 
Q 1256.091977 21.288263 1257.478871 25.227812 
L 1257.478871 47.330518 
Q 1256.047949 42.268655 1254.631703 39.77208 
Q 1253.215457 37.252601 1251.791873 37.252601 
Q 1249.157509 37.252601 1247.730255 46.460153 
Q 1246.303002 55.644801 1246.303002 72.754357 
Q 1246.303002 89.703582 1247.678889 98.956943 
Q 1249.054776 108.187399 1251.586407 108.187399 
Q 1252.276185 108.187399 1252.866899 107.660599 
Q 1253.457613 107.110894 1253.927249 105.965677 
L 1253.927249 85.214328 
L 1251.230511 85.214328 
L 1251.230511 66.73051 
L 1258.109944 66.73051 
L 1258.109944 118.127891 
z
" clip-path="url(#p3d44c83242)" style="fill: #787800"/>
   </g>
   <g id="patch_63">
    <path d="M 1258.971587 17.28 
L 1264.230268 17.28 
L 1270.875079 93.322863 
L 1270.875079 17.28 
L 1275.342804 17.28 
L 1275.342804 128.16 
L 1270.080208 128.16 
L 1263.435397 52.117137 
L 1263.435397 128.16 
L 1258.971587 128.16 
L 1258.971587 17.28 
z
" clip-path="url(#p3d44c83242)" style="fill: #40ba47"/>
   </g>
   <g id="patch_64">
    <path d="M 1276.204447 17.28 
L 1292.575664 17.28 
L 1292.575664 38.904689 
L 1286.685833 38.904689 
L 1286.685833 128.16 
L 1282.1057 128.16 
L 1282.1057 38.904689 
L 1276.204447 38.904689 
L 1276.204447 17.28 
z
" clip-path="url(#p3d44c83242)" style="fill: #40ba47"/>
   </g>
   <g id="patch_65">
    <path d="M 1293.437307 17.28 
L 1297.487434 17.28 
L 1301.627936 99.121132 
L 1305.761744 17.28 
L 1309.808524 17.28 
L 1304.02454 128.16 
L 1299.22129 128.16 
L 1293.437307 17.28 
z
" clip-path="url(#p3d44c83242)" style="fill: #21599c"/>
   </g>
   <g id="patch_66">
    <path d="M 1310.670167 17.28 
L 1315.196327 17.28 
L 1318.852336 56.798526 
L 1322.504906 17.28 
L 1327.041384 17.28 
L 1320.926253 81.441166 
L 1320.926253 128.16 
L 1316.788737 128.16 
L 1316.788737 81.441166 
L 1310.670167 17.28 
z
" clip-path="url(#p3d44c83242)" style="fill: #177875"/>
   </g>
   <g id="patch_67">
    <path d="M 1344.274243 118.127891 
Q 1342.623179 123.143945 1340.847368 125.663425 
Q 1339.071557 128.16 1337.178337 128.16 
Q 1332.900247 128.16 1330.401637 113.226358 
Q 1327.903027 98.292716 1327.903027 72.754357 
Q 1327.903027 46.91824 1330.445665 32.09912 
Q 1332.991973 17.28 1337.420493 17.28 
Q 1339.126593 17.28 1340.6896 19.295584 
Q 1342.256276 21.288263 1343.64317 25.227812 
L 1343.64317 47.330518 
Q 1342.212248 42.268655 1340.796002 39.77208 
Q 1339.379756 37.252601 1337.956172 37.252601 
Q 1335.321807 37.252601 1333.894554 46.460153 
Q 1332.467301 55.644801 1332.467301 72.754357 
Q 1332.467301 89.703582 1333.843188 98.956943 
Q 1335.219075 108.187399 1337.750706 108.187399 
Q 1338.440484 108.187399 1339.031198 107.660599 
Q 1339.621912 107.110894 1340.091548 105.965677 
L 1340.091548 85.214328 
L 1337.39481 85.214328 
L 1337.39481 66.73051 
L 1344.274243 66.73051 
L 1344.274243 118.127891 
z
" clip-path="url(#p3d44c83242)" style="fill: #787800"/>
   </g>
   <g id="patch_68">
    <path d="M 1345.135886 17.28 
L 1353.645508 17.28 
Q 1357.444142 17.28 1359.473491 26.690304 
Q 1361.507103 36.076845 1361.507103 53.447887 
Q 1361.507103 70.913982 1359.473491 80.300523 
Q 1357.444142 89.687064 1353.645508 89.687064 
L 1350.264682 89.687064 
L 1350.264682 128.16 
L 1345.135886 128.16 
L 1345.135886 17.28 
z
M 1350.264682 38.00168 
L 1350.264682 68.965384 
L 1353.099801 68.965384 
Q 1354.591969 68.965384 1355.406267 64.925607 
Q 1356.220564 60.885829 1356.220564 53.447887 
Q 1356.220564 46.033708 1355.406267 42.017694 
Q 1354.591969 38.00168 1353.099801 38.00168 
L 1350.264682 38.00168 
z
" clip-path="url(#p3d44c83242)" style="fill: #787800"/>
   </g>
   <g id="patch_69">
    <path d="M 1362.368746 17.28 
L 1378.739963 17.28 
L 1378.739963 38.904689 
L 1372.850132 38.904689 
L 1372.850132 128.16 
L 1368.269999 128.16 
L 1368.269999 38.904689 
L 1362.368746 38.904689 
L 1362.368746 17.28 
z
" clip-path="url(#p3d44c83242)" style="fill: #40ba47"/>
   </g>
   <g id="patch_70">
    <path d="M 1379.601606 17.28 
L 1384.860287 17.28 
L 1391.505098 93.322863 
L 1391.505098 17.28 
L 1395.972823 17.28 
L 1395.972823 128.16 
L 1390.710226 128.16 
L 1384.065415 52.117137 
L 1384.065415 128.16 
L 1379.601606 128.16 
L 1379.601606 17.28 
z
" clip-path="url(#p3d44c83242)" style="fill: #40ba47"/>
   </g>
   <g id="patch_71">
    <path d="M 1411.840673 22.570907 
L 1411.840673 45.200413 
Q 1410.1333 41.260863 1408.505961 39.268184 
Q 1406.883067 37.252601 1405.438025 37.252601 
Q 1403.521676 37.252601 1402.601296 39.978219 
Q 1401.685361 42.680934 1401.685361 48.407023 
Q 1401.685361 52.713043 1402.303395 55.118 
Q 1402.921428 57.500054 1404.548768 59.217881 
L 1406.825265 61.57703 
Q 1410.284474 65.173014 1411.742855 72.479504 
Q 1413.205683 79.76309 1413.205683 93.230853 
Q 1413.205683 110.890114 1411.169285 119.525057 
Q 1409.132887 128.16 1404.948934 128.16 
Q 1402.97923 128.16 1400.991741 126.21313 
Q 1399.004252 124.289163 1397.016763 120.48704 
L 1397.016763 97.239116 
Q 1399.004252 102.667449 1400.858353 105.438876 
Q 1402.712453 108.187399 1404.437611 108.187399 
Q 1406.189447 108.187399 1407.11872 105.186928 
Q 1408.047993 102.163553 1408.047993 96.574889 
Q 1408.047993 91.581739 1407.416621 88.856121 
Q 1406.785249 86.130502 1404.895578 83.977492 
L 1402.82361 81.618343 
Q 1399.711211 78.18269 1398.270615 70.67006 
Q 1396.834466 63.15743 1396.834466 50.422607 
Q 1396.834466 34.458269 1398.835293 25.869134 
Q 1400.836121 17.28 1404.588785 17.28 
Q 1406.300604 17.28 1408.105795 18.608453 
Q 1409.910986 19.936906 1411.840673 22.570907 
z
" clip-path="url(#p3d44c83242)" style="fill: #40ba47"/>
   </g>
   <g id="patch_72">
    <path d="M 1429.073533 22.570907 
L 1429.073533 45.200413 
Q 1427.36616 41.260863 1425.73882 39.268184 
Q 1424.115927 37.252601 1422.670885 37.252601 
Q 1420.754536 37.252601 1419.834156 39.978219 
Q 1418.918221 42.680934 1418.918221 48.407023 
Q 1418.918221 52.713043 1419.536255 55.118 
Q 1420.154288 57.500054 1421.781628 59.217881 
L 1424.058125 61.57703 
Q 1427.517334 65.173014 1428.975715 72.479504 
Q 1430.438542 79.76309 1430.438542 93.230853 
Q 1430.438542 110.890114 1428.402144 119.525057 
Q 1426.365746 128.16 1422.181793 128.16 
Q 1420.21209 128.16 1418.224601 126.21313 
Q 1416.237112 124.289163 1414.249623 120.48704 
L 1414.249623 97.239116 
Q 1416.237112 102.667449 1418.091212 105.438876 
Q 1419.945313 108.187399 1421.670471 108.187399 
Q 1423.422307 108.187399 1424.35158 105.186928 
Q 1425.280853 102.163553 1425.280853 96.574889 
Q 1425.280853 91.581739 1424.649481 88.856121 
Q 1424.018109 86.130502 1422.128438 83.977492 
L 1420.05647 81.618343 
Q 1416.944071 78.18269 1415.503475 70.67006 
Q 1414.067326 63.15743 1414.067326 50.422607 
Q 1414.067326 34.458269 1416.068153 25.869134 
Q 1418.068981 17.28 1421.821644 17.28 
Q 1423.533464 17.28 1425.338655 18.608453 
Q 1427.143846 19.936906 1429.073533 22.570907 
z
" clip-path="url(#p3d44c83242)" style="fill: #40ba47"/>
   </g>
   <g id="patch_73">
    <path d="M 1431.300185 17.28 
L 1434.131021 17.28 
L 1436.109905 97.861672 
L 1438.074059 17.28 
L 1440.919626 17.28 
L 1442.883779 97.861672 
L 1444.865118 17.28 
L 1447.671402 17.28 
L 1444.970691 128.16 
L 1441.565341 128.16 
L 1439.485794 43.871239 
L 1437.430798 128.16 
L 1434.022993 128.16 
L 1431.300185 17.28 
z
" clip-path="url(#p3d44c83242)" style="fill: #21599c"/>
   </g>
   <g id="patch_74">
    <path d="M 1448.533045 17.28 
L 1457.042667 17.28 
Q 1460.841301 17.28 1462.87065 26.690304 
Q 1464.904262 36.076845 1464.904262 53.447887 
Q 1464.904262 70.913982 1462.87065 80.300523 
Q 1460.841301 89.687064 1457.042667 89.687064 
L 1453.66184 89.687064 
L 1453.66184 128.16 
L 1448.533045 128.16 
L 1448.533045 17.28 
z
M 1453.66184 38.00168 
L 1453.66184 68.965384 
L 1456.49696 68.965384 
Q 1457.989128 68.965384 1458.803426 64.925607 
Q 1459.617723 60.885829 1459.617723 53.447887 
Q 1459.617723 46.033708 1458.803426 42.017694 
Q 1457.989128 38.00168 1456.49696 38.00168 
L 1453.66184 38.00168 
z
" clip-path="url(#p3d44c83242)" style="fill: #787800"/>
   </g>
   <g id="patch_75">
    <path d="M 1480.772113 22.570907 
L 1480.772113 45.200413 
Q 1479.06474 41.260863 1477.4374 39.268184 
Q 1475.814506 37.252601 1474.369464 37.252601 
Q 1472.453116 37.252601 1471.532735 39.978219 
Q 1470.6168 42.680934 1470.6168 48.407023 
Q 1470.6168 52.713043 1471.234834 55.118 
Q 1471.852867 57.500054 1473.480207 59.217881 
L 1475.756704 61.57703 
Q 1479.215913 65.173014 1480.674294 72.479504 
Q 1482.137122 79.76309 1482.137122 93.230853 
Q 1482.137122 110.890114 1480.100724 119.525057 
Q 1478.064326 128.16 1473.880373 128.16 
Q 1471.910669 128.16 1469.92318 126.21313 
Q 1467.935691 124.289163 1465.948203 120.48704 
L 1465.948203 97.239116 
Q 1467.935691 102.667449 1469.789792 105.438876 
Q 1471.643892 108.187399 1473.36905 108.187399 
Q 1475.120886 108.187399 1476.050159 105.186928 
Q 1476.979433 102.163553 1476.979433 96.574889 
Q 1476.979433 91.581739 1476.34806 88.856121 
Q 1475.716688 86.130502 1473.827017 83.977492 
L 1471.755049 81.618343 
Q 1468.64265 78.18269 1467.202055 70.67006 
Q 1465.765905 63.15743 1465.765905 50.422607 
Q 1465.765905 34.458269 1467.766733 25.869134 
Q 1469.76756 17.28 1473.520224 17.28 
Q 1475.232043 17.28 1477.037234 18.608453 
Q 1478.842425 19.936906 1480.772113 22.570907 
z
" clip-path="url(#p3d44c83242)" style="fill: #40ba47"/>
   </g>
   <g id="patch_76">
    <path d="M 1498.004972 22.570907 
L 1498.004972 45.200413 
Q 1496.297599 41.260863 1494.67026 39.268184 
Q 1493.047366 37.252601 1491.602324 37.252601 
Q 1489.685975 37.252601 1488.765595 39.978219 
Q 1487.84966 42.680934 1487.84966 48.407023 
Q 1487.84966 52.713043 1488.467694 55.118 
Q 1489.085727 57.500054 1490.713067 59.217881 
L 1492.989564 61.57703 
Q 1496.448773 65.173014 1497.907154 72.479504 
Q 1499.369981 79.76309 1499.369981 93.230853 
Q 1499.369981 110.890114 1497.333584 119.525057 
Q 1495.297186 128.16 1491.113233 128.16 
Q 1489.143529 128.16 1487.15604 126.21313 
Q 1485.168551 124.289163 1483.181062 120.48704 
L 1483.181062 97.239116 
Q 1485.168551 102.667449 1487.022651 105.438876 
Q 1488.876752 108.187399 1490.60191 108.187399 
Q 1492.353746 108.187399 1493.283019 105.186928 
Q 1494.212292 102.163553 1494.212292 96.574889 
Q 1494.212292 91.581739 1493.58092 88.856121 
Q 1492.949548 86.130502 1491.059877 83.977492 
L 1488.987909 81.618343 
Q 1485.87551 78.18269 1484.434914 70.67006 
Q 1482.998765 63.15743 1482.998765 50.422607 
Q 1482.998765 34.458269 1484.999592 25.869134 
Q 1487.00042 17.28 1490.753084 17.28 
Q 1492.464903 17.28 1494.270094 18.608453 
Q 1496.075285 19.936906 1498.004972 22.570907 
z
" clip-path="url(#p3d44c83242)" style="fill: #40ba47"/>
   </g>
   <g id="patch_77">
    <path d="M 1516.602841 118.127891 
Q 1514.951777 123.143945 1513.175966 125.663425 
Q 1511.400155 128.16 1509.506935 128.16 
Q 1505.228845 128.16 1502.730235 113.226358 
Q 1500.231624 98.292716 1500.231624 72.754357 
Q 1500.231624 46.91824 1502.774263 32.09912 
Q 1505.320571 17.28 1509.749091 17.28 
Q 1511.455191 17.28 1513.018198 19.295584 
Q 1514.584874 21.288263 1515.971768 25.227812 
L 1515.971768 47.330518 
Q 1514.540846 42.268655 1513.1246 39.77208 
Q 1511.708354 37.252601 1510.28477 37.252601 
Q 1507.650405 37.252601 1506.223152 46.460153 
Q 1504.795899 55.644801 1504.795899 72.754357 
Q 1504.795899 89.703582 1506.171786 98.956943 
Q 1507.547672 108.187399 1510.079304 108.187399 
Q 1510.769082 108.187399 1511.359796 107.660599 
Q 1511.95051 107.110894 1512.420146 105.965677 
L 1512.420146 85.214328 
L 1509.723408 85.214328 
L 1509.723408 66.73051 
L 1516.602841 66.73051 
L 1516.602841 118.127891 
z
" clip-path="url(#p3d44c83242)" style="fill: #787800"/>
   </g>
   <g id="patch_78">
    <path d="M 1528.804841 107.961114 
L 1522.508734 107.961114 
L 1521.514611 128.16 
L 1517.464484 128.16 
L 1523.248468 17.28 
L 1528.051718 17.28 
L 1533.835701 128.16 
L 1529.788921 128.16 
L 1528.804841 107.961114 
z
M 1523.512897 87.382015 
L 1527.790635 87.382015 
L 1525.655113 43.277154 
L 1523.512897 87.382015 
z
" clip-path="url(#p3d44c83242)" style="fill: #21599c"/>
   </g>
   <g id="patch_79">
    <path d="M 1539.18358 38.904689 
L 1539.18358 106.559074 
L 1540.790868 106.559074 
Q 1543.539293 106.559074 1544.989954 97.861672 
Q 1546.444345 89.164269 1546.444345 72.601183 
Q 1546.444345 56.13315 1544.997413 47.530802 
Q 1543.55421 38.904689 1540.790868 38.904689 
L 1539.18358 38.904689 
z
M 1534.697344 17.28 
L 1539.425978 17.28 
Q 1543.390125 17.28 1545.329312 20.892036 
Q 1547.268499 24.480309 1548.655764 33.106421 
Q 1549.878944 40.615654 1550.471888 50.429936 
Q 1551.068561 60.220454 1551.068561 72.601183 
Q 1551.068561 85.172019 1550.471888 95.010064 
Q 1549.878944 104.84811 1548.655764 112.333579 
Q 1547.257312 120.959691 1545.299478 124.571727 
Q 1543.341645 128.16 1539.425978 128.16 
L 1534.697344 128.16 
L 1534.697344 17.28 
z
" clip-path="url(#p3d44c83242)" style="fill: #6b296b"/>
   </g>
   <g id="patch_80">
    <path d="M 1568.301421 118.127891 
Q 1566.650357 123.143945 1564.874546 125.663425 
Q 1563.098735 128.16 1561.205514 128.16 
Q 1556.927424 128.16 1554.428814 113.226358 
Q 1551.930204 98.292716 1551.930204 72.754357 
Q 1551.930204 46.91824 1554.472842 32.09912 
Q 1557.01915 17.28 1561.447671 17.28 
Q 1563.15377 17.28 1564.716777 19.295584 
Q 1566.283454 21.288263 1567.670347 25.227812 
L 1567.670347 47.330518 
Q 1566.239425 42.268655 1564.823179 39.77208 
Q 1563.406933 37.252601 1561.983349 37.252601 
Q 1559.348985 37.252601 1557.921732 46.460153 
Q 1556.494479 55.644801 1556.494479 72.754357 
Q 1556.494479 89.703582 1557.870365 98.956943 
Q 1559.246252 108.187399 1561.777883 108.187399 
Q 1562.467661 108.187399 1563.058375 107.660599 
Q 1563.649089 107.110894 1564.118725 105.965677 
L 1564.118725 85.214328 
L 1561.421987 85.214328 
L 1561.421987 66.73051 
L 1568.301421 66.73051 
L 1568.301421 118.127891 
z
" clip-path="url(#p3d44c83242)" style="fill: #787800"/>
   </g>
   <g id="patch_81">
    <path d="M 1584.169271 22.570907 
L 1584.169271 45.200413 
Q 1582.461898 41.260863 1580.834558 39.268184 
Q 1579.211665 37.252601 1577.766623 37.252601 
Q 1575.850274 37.252601 1574.929894 39.978219 
Q 1574.013959 42.680934 1574.013959 48.407023 
Q 1574.013959 52.713043 1574.631993 55.118 
Q 1575.250026 57.500054 1576.877366 59.217881 
L 1579.153863 61.57703 
Q 1582.613072 65.173014 1584.071453 72.479504 
Q 1585.53428 79.76309 1585.53428 93.230853 
Q 1585.53428 110.890114 1583.497882 119.525057 
Q 1581.461484 128.16 1577.277531 128.16 
Q 1575.307828 128.16 1573.320339 126.21313 
Q 1571.33285 124.289163 1569.345361 120.48704 
L 1569.345361 97.239116 
Q 1571.33285 102.667449 1573.18695 105.438876 
Q 1575.041051 108.187399 1576.766209 108.187399 
Q 1578.518045 108.187399 1579.447318 105.186928 
Q 1580.376591 102.163553 1580.376591 96.574889 
Q 1580.376591 91.581739 1579.745219 88.856121 
Q 1579.113847 86.130502 1577.224176 83.977492 
L 1575.152208 81.618343 
Q 1572.039809 78.18269 1570.599213 70.67006 
Q 1569.163064 63.15743 1569.163064 50.422607 
Q 1569.163064 34.458269 1571.163891 25.869134 
Q 1573.164719 17.28 1576.917382 17.28 
Q 1578.629202 17.28 1580.434393 18.608453 
Q 1582.239584 19.936906 1584.169271 22.570907 
z
" clip-path="url(#p3d44c83242)" style="fill: #40ba47"/>
   </g>
   <g id="patch_82">
    <path d="M 1602.76714 118.127891 
Q 1601.116076 123.143945 1599.340265 125.663425 
Q 1597.564454 128.16 1595.671234 128.16 
Q 1591.393144 128.16 1588.894534 113.226358 
Q 1586.395923 98.292716 1586.395923 72.754357 
Q 1586.395923 46.91824 1588.938562 32.09912 
Q 1591.48487 17.28 1595.91339 17.28 
Q 1597.61949 17.28 1599.182497 19.295584 
Q 1600.749173 21.288263 1602.136067 25.227812 
L 1602.136067 47.330518 
Q 1600.705145 42.268655 1599.288899 39.77208 
Q 1597.872653 37.252601 1596.449069 37.252601 
Q 1593.814704 37.252601 1592.387451 46.460153 
Q 1590.960198 55.644801 1590.960198 72.754357 
Q 1590.960198 89.703582 1592.336085 98.956943 
Q 1593.711971 108.187399 1596.243603 108.187399 
Q 1596.933381 108.187399 1597.524095 107.660599 
Q 1598.114809 107.110894 1598.584445 105.965677 
L 1598.584445 85.214328 
L 1595.887707 85.214328 
L 1595.887707 66.73051 
L 1602.76714 66.73051 
L 1602.76714 118.127891 
z
" clip-path="url(#p3d44c83242)" style="fill: #787800"/>
   </g>
   <g id="patch_83">
    <path d="M 1618.634991 22.570907 
L 1618.634991 45.200413 
Q 1616.927618 41.260863 1615.300278 39.268184 
Q 1613.677384 37.252601 1612.232342 37.252601 
Q 1610.315994 37.252601 1609.395613 39.978219 
Q 1608.479679 42.680934 1608.479679 48.407023 
Q 1608.479679 52.713043 1609.097712 55.118 
Q 1609.715746 57.500054 1611.343086 59.217881 
L 1613.619583 61.57703 
Q 1617.078792 65.173014 1618.537173 72.479504 
Q 1620 79.76309 1620 93.230853 
Q 1620 110.890114 1617.963602 119.525057 
Q 1615.927204 128.16 1611.743251 128.16 
Q 1609.773547 128.16 1607.786059 126.21313 
Q 1605.79857 124.289163 1603.811081 120.48704 
L 1603.811081 97.239116 
Q 1605.79857 102.667449 1607.65267 105.438876 
Q 1609.50677 108.187399 1611.231928 108.187399 
Q 1612.983764 108.187399 1613.913038 105.186928 
Q 1614.842311 102.163553 1614.842311 96.574889 
Q 1614.842311 91.581739 1614.210939 88.856121 
Q 1613.579566 86.130502 1611.689896 83.977492 
L 1609.617927 81.618343 
Q 1606.505529 78.18269 1605.064933 70.67006 
Q 1603.628783 63.15743 1603.628783 50.422607 
Q 1603.628783 34.458269 1605.629611 25.869134 
Q 1607.630439 17.28 1611.383102 17.28 
Q 1613.094921 17.28 1614.900113 18.608453 
Q 1616.705304 19.936906 1618.634991 22.570907 
z
" clip-path="url(#p3d44c83242)" style="fill: #40ba47"/>
   </g>
   <g id="matplotlib.axis_1">
    <g id="xtick_1">
     <g id="line2d_2">
      <defs>
       <path id="mbb0f6e96b6" d="M 0 0 
L 0 3.5 
" style="stroke: #000000; stroke-width: 0.8"/>
      </defs>
      <g>
       <use xlink:href="#mbb0f6e96b6" x="233.185608" y="128.16" style="stroke: #000000; stroke-width: 0.8"/>
      </g>
     </g>
     <g id="text_1">
      <!-- 0 -->
      <g transform="translate(230.004358 142.758438) scale(0.1 -0.1)">
       <defs>
        <path id="DejaVuSans-30" d="M 2034 4250 
Q 1547 4250 1301 3770 
Q 1056 3291 1056 2328 
Q 1056 1369 1301 889 
Q 1547 409 2034 409 
Q 2525 409 2770 889 
Q 3016 1369 3016 2328 
Q 3016 3291 2770 3770 
Q 2525 4250 2034 4250 
z
M 2034 4750 
Q 2819 4750 3233 4129 
Q 3647 3509 3647 2328 
Q 3647 1150 3233 529 
Q 2819 -91 2034 -91 
Q 1250 -91 836 529 
Q 422 1150 422 2328 
Q 422 3509 836 4129 
Q 1250 4750 2034 4750 
z
" transform="scale(0.015625)"/>
       </defs>
       <use xlink:href="#DejaVuSans-30"/>
      </g>
     </g>
    </g>
    <g id="xtick_2">
     <g id="line2d_3">
      <g>
       <use xlink:href="#mbb0f6e96b6" x="405.514206" y="128.16" style="stroke: #000000; stroke-width: 0.8"/>
      </g>
     </g>
     <g id="text_2">
      <!-- 10 -->
      <g transform="translate(399.151706 142.758438) scale(0.1 -0.1)">
       <defs>
        <path id="DejaVuSans-31" d="M 794 531 
L 1825 531 
L 1825 4091 
L 703 3866 
L 703 4441 
L 1819 4666 
L 2450 4666 
L 2450 531 
L 3481 531 
L 3481 0 
L 794 0 
L 794 531 
z
" transform="scale(0.015625)"/>
       </defs>
       <use xlink:href="#DejaVuSans-31"/>
       <use xlink:href="#DejaVuSans-30" x="63.623047"/>
      </g>
     </g>
    </g>
    <g id="xtick_3">
     <g id="line2d_4">
      <g>
       <use xlink:href="#mbb0f6e96b6" x="577.842804" y="128.16" style="stroke: #000000; stroke-width: 0.8"/>
      </g>
     </g>
     <g id="text_3">
      <!-- 20 -->
      <g transform="translate(571.480304 142.758438) scale(0.1 -0.1)">
       <defs>
        <path id="DejaVuSans-32" d="M 1228 531 
L 3431 531 
L 3431 0 
L 469 0 
L 469 531 
Q 828 903 1448 1529 
Q 2069 2156 2228 2338 
Q 2531 2678 2651 2914 
Q 2772 3150 2772 3378 
Q 2772 3750 2511 3984 
Q 2250 4219 1831 4219 
Q 1534 4219 1204 4116 
Q 875 4013 500 3803 
L 500 4441 
Q 881 4594 1212 4672 
Q 1544 4750 1819 4750 
Q 2544 4750 2975 4387 
Q 3406 4025 3406 3419 
Q 3406 3131 3298 2873 
Q 3191 2616 2906 2266 
Q 2828 2175 2409 1742 
Q 1991 1309 1228 531 
z
" transform="scale(0.015625)"/>
       </defs>
       <use xlink:href="#DejaVuSans-32"/>
       <use xlink:href="#DejaVuSans-30" x="63.623047"/>
      </g>
     </g>
    </g>
    <g id="xtick_4">
     <g id="line2d_5">
      <g>
       <use xlink:href="#mbb0f6e96b6" x="750.171402" y="128.16" style="stroke: #000000; stroke-width: 0.8"/>
      </g>
     </g>
     <g id="text_4">
      <!-- 30 -->
      <g transform="translate(743.808902 142.758438) scale(0.1 -0.1)">
       <defs>
        <path id="DejaVuSans-33" d="M 2597 2516 
Q 3050 2419 3304 2112 
Q 3559 1806 3559 1356 
Q 3559 666 3084 287 
Q 2609 -91 1734 -91 
Q 1441 -91 1130 -33 
Q 819 25 488 141 
L 488 750 
Q 750 597 1062 519 
Q 1375 441 1716 441 
Q 2309 441 2620 675 
Q 2931 909 2931 1356 
Q 2931 1769 2642 2001 
Q 2353 2234 1838 2234 
L 1294 2234 
L 1294 2753 
L 1863 2753 
Q 2328 2753 2575 2939 
Q 2822 3125 2822 3475 
Q 2822 3834 2567 4026 
Q 2313 4219 1838 4219 
Q 1578 4219 1281 4162 
Q 984 4106 628 3988 
L 628 4550 
Q 988 4650 1302 4700 
Q 1616 4750 1894 4750 
Q 2613 4750 3031 4423 
Q 3450 4097 3450 3541 
Q 3450 3153 3228 2886 
Q 3006 2619 2597 2516 
z
" transform="scale(0.015625)"/>
       </defs>
       <use xlink:href="#DejaVuSans-33"/>
       <use xlink:href="#DejaVuSans-30" x="63.623047"/>
      </g>
     </g>
    </g>
    <g id="xtick_5">
     <g id="line2d_6">
      <g>
       <use xlink:href="#mbb0f6e96b6" x="922.5" y="128.16" style="stroke: #000000; stroke-width: 0.8"/>
      </g>
     </g>
     <g id="text_5">
      <!-- 40 -->
      <g transform="translate(916.1375 142.758438) scale(0.1 -0.1)">
       <defs>
        <path id="DejaVuSans-34" d="M 2419 4116 
L 825 1625 
L 2419 1625 
L 2419 4116 
z
M 2253 4666 
L 3047 4666 
L 3047 1625 
L 3713 1625 
L 3713 1100 
L 3047 1100 
L 3047 0 
L 2419 0 
L 2419 1100 
L 313 1100 
L 313 1709 
L 2253 4666 
z
" transform="scale(0.015625)"/>
       </defs>
       <use xlink:href="#DejaVuSans-34"/>
       <use xlink:href="#DejaVuSans-30" x="63.623047"/>
      </g>
     </g>
    </g>
    <g id="xtick_6">
     <g id="line2d_7">
      <g>
       <use xlink:href="#mbb0f6e96b6" x="1094.828598" y="128.16" style="stroke: #000000; stroke-width: 0.8"/>
      </g>
     </g>
     <g id="text_6">
      <!-- 50 -->
      <g transform="translate(1088.466098 142.758438) scale(0.1 -0.1)">
       <defs>
        <path id="DejaVuSans-35" d="M 691 4666 
L 3169 4666 
L 3169 4134 
L 1269 4134 
L 1269 2991 
Q 1406 3038 1543 3061 
Q 1681 3084 1819 3084 
Q 2600 3084 3056 2656 
Q 3513 2228 3513 1497 
Q 3513 744 3044 326 
Q 2575 -91 1722 -91 
Q 1428 -91 1123 -41 
Q 819 9 494 109 
L 494 744 
Q 775 591 1075 516 
Q 1375 441 1709 441 
Q 2250 441 2565 725 
Q 2881 1009 2881 1497 
Q 2881 1984 2565 2268 
Q 2250 2553 1709 2553 
Q 1456 2553 1204 2497 
Q 953 2441 691 2322 
L 691 4666 
z
" transform="scale(0.015625)"/>
       </defs>
       <use xlink:href="#DejaVuSans-35"/>
       <use xlink:href="#DejaVuSans-30" x="63.623047"/>
      </g>
     </g>
    </g>
    <g id="xtick_7">
     <g id="line2d_8">
      <g>
       <use xlink:href="#mbb0f6e96b6" x="1267.157196" y="128.16" style="stroke: #000000; stroke-width: 0.8"/>
      </g>
     </g>
     <g id="text_7">
      <!-- 60 -->
      <g transform="translate(1260.794696 142.758438) scale(0.1 -0.1)">
       <defs>
        <path id="DejaVuSans-36" d="M 2113 2584 
Q 1688 2584 1439 2293 
Q 1191 2003 1191 1497 
Q 1191 994 1439 701 
Q 1688 409 2113 409 
Q 2538 409 2786 701 
Q 3034 994 3034 1497 
Q 3034 2003 2786 2293 
Q 2538 2584 2113 2584 
z
M 3366 4563 
L 3366 3988 
Q 3128 4100 2886 4159 
Q 2644 4219 2406 4219 
Q 1781 4219 1451 3797 
Q 1122 3375 1075 2522 
Q 1259 2794 1537 2939 
Q 1816 3084 2150 3084 
Q 2853 3084 3261 2657 
Q 3669 2231 3669 1497 
Q 3669 778 3244 343 
Q 2819 -91 2113 -91 
Q 1303 -91 875 529 
Q 447 1150 447 2328 
Q 447 3434 972 4092 
Q 1497 4750 2381 4750 
Q 2619 4750 2861 4703 
Q 3103 4656 3366 4563 
z
" transform="scale(0.015625)"/>
       </defs>
       <use xlink:href="#DejaVuSans-36"/>
       <use xlink:href="#DejaVuSans-30" x="63.623047"/>
      </g>
     </g>
    </g>
    <g id="xtick_8">
     <g id="line2d_9">
      <g>
       <use xlink:href="#mbb0f6e96b6" x="1439.485794" y="128.16" style="stroke: #000000; stroke-width: 0.8"/>
      </g>
     </g>
     <g id="text_8">
      <!-- 70 -->
      <g transform="translate(1433.123294 142.758438) scale(0.1 -0.1)">
       <defs>
        <path id="DejaVuSans-37" d="M 525 4666 
L 3525 4666 
L 3525 4397 
L 1831 0 
L 1172 0 
L 2766 4134 
L 525 4134 
L 525 4666 
z
" transform="scale(0.015625)"/>
       </defs>
       <use xlink:href="#DejaVuSans-37"/>
       <use xlink:href="#DejaVuSans-30" x="63.623047"/>
      </g>
     </g>
    </g>
    <g id="xtick_9">
     <g id="line2d_10">
      <g>
       <use xlink:href="#mbb0f6e96b6" x="1611.814392" y="128.16" style="stroke: #000000; stroke-width: 0.8"/>
      </g>
     </g>
     <g id="text_9">
      <!-- 80 -->
      <g transform="translate(1605.451892 142.758438) scale(0.1 -0.1)">
       <defs>
        <path id="DejaVuSans-38" d="M 2034 2216 
Q 1584 2216 1326 1975 
Q 1069 1734 1069 1313 
Q 1069 891 1326 650 
Q 1584 409 2034 409 
Q 2484 409 2743 651 
Q 3003 894 3003 1313 
Q 3003 1734 2745 1975 
Q 2488 2216 2034 2216 
z
M 1403 2484 
Q 997 2584 770 2862 
Q 544 3141 544 3541 
Q 544 4100 942 4425 
Q 1341 4750 2034 4750 
Q 2731 4750 3128 4425 
Q 3525 4100 3525 3541 
Q 3525 3141 3298 2862 
Q 3072 2584 2669 2484 
Q 3125 2378 3379 2068 
Q 3634 1759 3634 1313 
Q 3634 634 3220 271 
Q 2806 -91 2034 -91 
Q 1263 -91 848 271 
Q 434 634 434 1313 
Q 434 1759 690 2068 
Q 947 2378 1403 2484 
z
M 1172 3481 
Q 1172 3119 1398 2916 
Q 1625 2713 2034 2713 
Q 2441 2713 2670 2916 
Q 2900 3119 2900 3481 
Q 2900 3844 2670 4047 
Q 2441 4250 2034 4250 
Q 1625 4250 1398 4047 
Q 1172 3844 1172 3481 
z
" transform="scale(0.015625)"/>
       </defs>
       <use xlink:href="#DejaVuSans-38"/>
       <use xlink:href="#DejaVuSans-30" x="63.623047"/>
      </g>
     </g>
    </g>
   </g>
   <g id="matplotlib.axis_2">
    <g id="ytick_1">
     <g id="line2d_11">
      <defs>
       <path id="m399b65590b" d="M 0 0 
L -3.5 0 
" style="stroke: #000000; stroke-width: 0.8"/>
      </defs>
      <g>
       <use xlink:href="#m399b65590b" x="225" y="128.16" style="stroke: #000000; stroke-width: 0.8"/>
      </g>
     </g>
     <g id="text_10">
      <!-- 0.0 -->
      <g transform="translate(202.096875 131.959219) scale(0.1 -0.1)">
       <defs>
        <path id="DejaVuSans-2e" d="M 684 794 
L 1344 794 
L 1344 0 
L 684 0 
L 684 794 
z
" transform="scale(0.015625)"/>
       </defs>
       <use xlink:href="#DejaVuSans-30"/>
       <use xlink:href="#DejaVuSans-2e" x="63.623047"/>
       <use xlink:href="#DejaVuSans-30" x="95.410156"/>
      </g>
     </g>
    </g>
    <g id="ytick_2">
     <g id="line2d_12">
      <g>
       <use xlink:href="#m399b65590b" x="225" y="105.984" style="stroke: #000000; stroke-width: 0.8"/>
      </g>
     </g>
     <g id="text_11">
      <!-- 0.2 -->
      <g transform="translate(202.096875 109.783219) scale(0.1 -0.1)">
       <use xlink:href="#DejaVuSans-30"/>
       <use xlink:href="#DejaVuSans-2e" x="63.623047"/>
       <use xlink:href="#DejaVuSans-32" x="95.410156"/>
      </g>
     </g>
    </g>
    <g id="ytick_3">
     <g id="line2d_13">
      <g>
       <use xlink:href="#m399b65590b" x="225" y="83.808" style="stroke: #000000; stroke-width: 0.8"/>
      </g>
     </g>
     <g id="text_12">
      <!-- 0.4 -->
      <g transform="translate(202.096875 87.607219) scale(0.1 -0.1)">
       <use xlink:href="#DejaVuSans-30"/>
       <use xlink:href="#DejaVuSans-2e" x="63.623047"/>
       <use xlink:href="#DejaVuSans-34" x="95.410156"/>
      </g>
     </g>
    </g>
    <g id="ytick_4">
     <g id="line2d_14">
      <g>
       <use xlink:href="#m399b65590b" x="225" y="61.632" style="stroke: #000000; stroke-width: 0.8"/>
      </g>
     </g>
     <g id="text_13">
      <!-- 0.6 -->
      <g transform="translate(202.096875 65.431219) scale(0.1 -0.1)">
       <use xlink:href="#DejaVuSans-30"/>
       <use xlink:href="#DejaVuSans-2e" x="63.623047"/>
       <use xlink:href="#DejaVuSans-36" x="95.410156"/>
      </g>
     </g>
    </g>
    <g id="ytick_5">
     <g id="line2d_15">
      <g>
       <use xlink:href="#m399b65590b" x="225" y="39.456" style="stroke: #000000; stroke-width: 0.8"/>
      </g>
     </g>
     <g id="text_14">
      <!-- 0.8 -->
      <g transform="translate(202.096875 43.255219) scale(0.1 -0.1)">
       <use xlink:href="#DejaVuSans-30"/>
       <use xlink:href="#DejaVuSans-2e" x="63.623047"/>
       <use xlink:href="#DejaVuSans-38" x="95.410156"/>
      </g>
     </g>
    </g>
    <g id="ytick_6">
     <g id="line2d_16">
      <g>
       <use xlink:href="#m399b65590b" x="225" y="17.28" style="stroke: #000000; stroke-width: 0.8"/>
      </g>
     </g>
     <g id="text_15">
      <!-- 1.0 -->
      <g transform="translate(202.096875 21.079219) scale(0.1 -0.1)">
       <use xlink:href="#DejaVuSans-31"/>
       <use xlink:href="#DejaVuSans-2e" x="63.623047"/>
       <use xlink:href="#DejaVuSans-30" x="95.410156"/>
      </g>
     </g>
    </g>
   </g>
  </g>
 </g>
 <defs>
  <clipPath id="p3d44c83242">
   <rect x="225" y="17.28" width="1395" height="110.88"/>
  </clipPath>
 </defs>
</svg>
