<?xml version="1.0" encoding="utf-8" standalone="no"?>
<!DOCTYPE svg PUBLIC "-//W3C//DTD SVG 1.1//EN"
  "http://www.w3.org/Graphics/SVG/1.1/DTD/svg11.dtd">
<svg xmlns:xlink="http://www.w3.org/1999/xlink" width="1800pt" height="144pt" viewBox="0 0 1800 144" xmlns="http://www.w3.org/2000/svg" version="1.1">
 <metadata>
  <rdf:RDF xmlns:dc="http://purl.org/dc/elements/1.1/" xmlns:cc="http://creativecommons.org/ns#" xmlns:rdf="http://www.w3.org/1999/02/22-rdf-syntax-ns#">
   <cc:Work>
    <dc:type rdf:resource="http://purl.org/dc/dcmitype/StillImage"/>
    <dc:date>2025-05-09T21:10:06.744388</dc:date>
    <dc:format>image/svg+xml</dc:format>
    <dc:creator>
     <cc:Agent>
      <dc:title>Matplotlib v3.8.0, https://matplotlib.org/</dc:title>
     </cc:Agent>
    </dc:creator>
   </cc:Work>
  </rdf:RDF>
 </metadata>
 <defs>
  <style type="text/css">*{stroke-linejoin: round; stroke-linecap: butt}</style>
 </defs>
 <g id="figure_1">
  <g id="patch_1">
   <path d="M 0 144 
L 1800 144 
L 1800 0 
L 0 0 
z
" style="fill: #ffffff"/>
  </g>
  <g id="axes_1">
   <g id="patch_2">
    <path d="M 225 128.16 
L 1620 128.16 
L 1620 17.28 
L 225 17.28 
z
" style="fill: #ffffff"/>
   </g>
   <g id="line2d_1">
    <path d="M 225 128.16 
L 1620 128.16 
" clip-path="url(#p2c6f553962)" style="fill: none; stroke: #000000; stroke-width: 1.5; stroke-linecap: square"/>
   </g>
   <g id="patch_3">
    <path d="M 225 17.28 
L 228.991179 17.28 
L 231.759717 76.617197 
L 234.546504 17.28 
L 238.529862 17.28 
L 238.529862 128.16 
L 235.565806 128.16 
L 235.565806 47.055534 
L 232.763378 106.844235 
L 230.774305 106.844235 
L 227.971877 47.055534 
L 227.971877 128.16 
L 225 128.16 
L 225 17.28 
z
" clip-path="url(#p2c6f553962)" style="fill: #21599c"/>
   </g>
   <g id="patch_4">
    <path d="M 239.24196 17.28 
L 242.807442 17.28 
L 242.807442 57.749061 
L 247.946715 17.28 
L 252.087179 17.28 
L 245.427463 69.797102 
L 252.771822 128.16 
L 248.308302 128.16 
L 242.807442 84.48288 
L 242.807442 128.16 
L 239.24196 128.16 
L 239.24196 17.28 
z
" clip-path="url(#p2c6f553962)" style="fill: #bd2e1f"/>
   </g>
   <g id="patch_5">
    <path d="M 253.48392 17.28 
L 257.049402 17.28 
L 257.049402 57.749061 
L 262.188675 17.28 
L 266.329139 17.28 
L 259.669424 69.797102 
L 267.013783 128.16 
L 262.550262 128.16 
L 257.049402 84.48288 
L 257.049402 128.16 
L 253.48392 128.16 
L 253.48392 17.28 
z
" clip-path="url(#p2c6f553962)" style="fill: #bd2e1f"/>
   </g>
   <g id="patch_6">
    <path d="M 267.725881 17.28 
L 272.635812 17.28 
L 272.635812 106.559074 
L 281.255743 106.559074 
L 281.255743 128.16 
L 267.725881 128.16 
L 267.725881 17.28 
z
" clip-path="url(#p2c6f553962)" style="fill: #21599c"/>
   </g>
   <g id="patch_7">
    <path d="M 281.967841 17.28 
L 285.533322 17.28 
L 285.533322 57.749061 
L 290.672595 17.28 
L 294.813059 17.28 
L 288.153344 69.797102 
L 295.497703 128.16 
L 291.034182 128.16 
L 285.533322 84.48288 
L 285.533322 128.16 
L 281.967841 128.16 
L 281.967841 17.28 
z
" clip-path="url(#p2c6f553962)" style="fill: #bd2e1f"/>
   </g>
   <g id="patch_8">
    <path d="M 300.519766 17.28 
L 305.429698 17.28 
L 305.429698 128.16 
L 300.519766 128.16 
L 300.519766 17.28 
z
" clip-path="url(#p2c6f553962)" style="fill: #21599c"/>
   </g>
   <g id="patch_9">
    <path d="M 323.981623 118.127891 
Q 322.617115 123.143945 321.14951 125.663425 
Q 319.681905 128.16 318.117268 128.16 
Q 314.581674 128.16 312.516718 113.226358 
Q 310.451761 98.292716 310.451761 72.754357 
Q 310.451761 46.91824 312.553105 32.09912 
Q 314.65748 17.28 318.317396 17.28 
Q 319.727388 17.28 321.019123 19.295584 
Q 322.31389 21.288263 323.460078 25.227812 
L 323.460078 47.330518 
Q 322.277503 42.268655 321.107058 39.77208 
Q 319.936613 37.252601 318.760103 37.252601 
Q 316.582954 37.252601 315.403412 46.460153 
Q 314.22387 55.644801 314.22387 72.754357 
Q 314.22387 89.703582 315.36096 98.956943 
Q 316.498051 108.187399 318.590298 108.187399 
Q 319.160359 108.187399 319.64855 107.660599 
Q 320.136741 107.110894 320.524868 105.965677 
L 320.524868 85.214328 
L 318.29617 85.214328 
L 318.29617 66.73051 
L 323.981623 66.73051 
L 323.981623 118.127891 
z
" clip-path="url(#p2c6f553962)" style="fill: #787800"/>
   </g>
   <g id="patch_10">
    <path d="M 324.693721 17.28 
L 328.040917 17.28 
L 331.462802 99.121132 
L 334.879154 17.28 
L 338.223583 17.28 
L 333.443456 128.16 
L 329.473848 128.16 
L 324.693721 17.28 
z
" clip-path="url(#p2c6f553962)" style="fill: #21599c"/>
   </g>
   <g id="patch_11">
    <path d="M 338.935681 17.28 
L 343.281676 17.28 
L 348.773228 93.322863 
L 348.773228 17.28 
L 352.465544 17.28 
L 352.465544 128.16 
L 348.116313 128.16 
L 342.624761 52.117137 
L 342.624761 128.16 
L 338.935681 128.16 
L 338.935681 17.28 
z
" clip-path="url(#p2c6f553962)" style="fill: #40ba47"/>
   </g>
   <g id="patch_12">
    <path d="M 353.177642 17.28 
L 357.523637 17.28 
L 363.015188 93.322863 
L 363.015188 17.28 
L 366.707504 17.28 
L 366.707504 128.16 
L 362.358273 128.16 
L 356.866722 52.117137 
L 356.866722 128.16 
L 353.177642 128.16 
L 353.177642 17.28 
z
" clip-path="url(#p2c6f553962)" style="fill: #40ba47"/>
   </g>
   <g id="patch_13">
    <path d="M 376.791749 107.961114 
L 371.588382 107.961114 
L 370.766797 128.16 
L 367.419602 128.16 
L 372.199729 17.28 
L 376.169337 17.28 
L 380.949464 128.16 
L 377.605035 128.16 
L 376.791749 107.961114 
z
M 372.418265 87.382015 
L 375.953567 87.382015 
L 374.188682 43.277154 
L 372.418265 87.382015 
z
" clip-path="url(#p2c6f553962)" style="fill: #21599c"/>
   </g>
   <g id="patch_14">
    <path d="M 381.661562 17.28 
L 388.694272 17.28 
Q 391.833622 17.28 393.510762 26.690304 
Q 395.191424 36.076845 395.191424 53.447887 
Q 395.191424 70.913982 393.510762 80.300523 
Q 391.833622 89.687064 388.694272 89.687064 
L 385.900214 89.687064 
L 385.900214 128.16 
L 381.661562 128.16 
L 381.661562 17.28 
z
M 385.900214 38.00168 
L 385.900214 68.965384 
L 388.243276 68.965384 
Q 389.476467 68.965384 390.149436 64.925607 
Q 390.822406 60.885829 390.822406 53.447887 
Q 390.822406 46.033708 390.149436 42.017694 
Q 389.476467 38.00168 388.243276 38.00168 
L 385.900214 38.00168 
z
" clip-path="url(#p2c6f553962)" style="fill: #787800"/>
   </g>
   <g id="patch_15">
    <path d="M 399.611136 38.904689 
L 399.611136 106.559074 
L 400.939466 106.559074 
Q 403.210881 106.559074 404.409768 97.861672 
Q 405.611738 89.164269 405.611738 72.601183 
Q 405.611738 56.13315 404.415932 47.530802 
Q 403.223208 38.904689 400.939466 38.904689 
L 399.611136 38.904689 
z
M 395.903522 17.28 
L 399.811464 17.28 
Q 403.087602 17.28 404.690228 20.892036 
Q 406.292854 24.480309 407.439348 33.106421 
Q 408.450235 40.615654 408.940269 50.429936 
Q 409.433384 60.220454 409.433384 72.601183 
Q 409.433384 85.172019 408.940269 95.010064 
Q 408.450235 104.84811 407.439348 112.333579 
Q 406.283608 120.959691 404.665572 124.571727 
Q 403.047536 128.16 399.811464 128.16 
L 395.903522 128.16 
L 395.903522 17.28 
z
" clip-path="url(#p2c6f553962)" style="fill: #6b296b"/>
   </g>
   <g id="patch_16">
    <path d="M 419.51763 107.961114 
L 414.314262 107.961114 
L 413.492678 128.16 
L 410.145482 128.16 
L 414.92561 17.28 
L 418.895217 17.28 
L 423.675345 128.16 
L 420.330915 128.16 
L 419.51763 107.961114 
z
M 415.144145 87.382015 
L 418.679448 87.382015 
L 416.914563 43.277154 
L 415.144145 87.382015 
z
" clip-path="url(#p2c6f553962)" style="fill: #21599c"/>
   </g>
   <g id="patch_17">
    <path d="M 424.387443 17.28 
L 429.297374 17.28 
L 429.297374 106.559074 
L 437.917305 106.559074 
L 437.917305 128.16 
L 424.387443 128.16 
L 424.387443 17.28 
z
" clip-path="url(#p2c6f553962)" style="fill: #21599c"/>
   </g>
   <g id="patch_18">
    <path d="M 451.031164 22.570907 
L 451.031164 45.200413 
Q 449.620119 41.260863 448.275217 39.268184 
Q 446.93399 37.252601 445.739746 37.252601 
Q 444.155995 37.252601 443.395354 39.978219 
Q 442.638387 42.680934 442.638387 48.407023 
Q 442.638387 52.713043 443.149156 55.118 
Q 443.659925 57.500054 445.004827 59.217881 
L 446.88622 61.57703 
Q 449.745055 65.173014 450.950323 72.479504 
Q 452.159265 79.76309 452.159265 93.230853 
Q 452.159265 110.890114 450.4763 119.525057 
Q 448.793335 128.16 445.33554 128.16 
Q 443.707694 128.16 442.06515 126.21313 
Q 440.422606 124.289163 438.780061 120.48704 
L 438.780061 97.239116 
Q 440.422606 102.667449 441.954912 105.438876 
Q 443.487219 108.187399 444.912962 108.187399 
Q 446.360753 108.187399 447.128743 105.186928 
Q 447.896734 102.163553 447.896734 96.574889 
Q 447.896734 91.581739 447.374941 88.856121 
Q 446.853148 86.130502 445.291445 83.977492 
L 443.579083 81.618343 
Q 441.006866 78.18269 439.816297 70.67006 
Q 438.629403 63.15743 438.629403 50.422607 
Q 438.629403 34.458269 440.282971 25.869134 
Q 441.936539 17.28 445.037898 17.28 
Q 446.452617 17.28 447.944503 18.608453 
Q 449.436389 19.936906 451.031164 22.570907 
z
" clip-path="url(#p2c6f553962)" style="fill: #40ba47"/>
   </g>
   <g id="patch_19">
    <path d="M 458.361043 66.446464 
Q 459.575262 66.446464 460.102066 63.119589 
Q 460.628869 59.76895 460.628869 52.117137 
Q 460.628869 44.536614 460.102066 41.281029 
Q 459.575262 38.00168 458.361043 38.00168 
L 456.735661 38.00168 
L 456.735661 66.446464 
L 458.361043 66.446464 
z
M 456.735661 86.193845 
L 456.735661 128.16 
L 452.871363 128.16 
L 452.871363 17.28 
L 458.772207 17.28 
Q 461.733872 17.28 463.111914 24.646652 
Q 464.493168 31.989541 464.493168 47.887252 
Q 464.493168 58.865941 463.773631 65.923669 
Q 463.057306 72.981397 461.611808 76.332036 
Q 462.405226 77.662786 463.031608 82.391702 
Q 463.661203 87.096854 464.303647 96.673502 
L 466.401225 128.16 
L 462.286374 128.16 
L 460.458622 100.618225 
Q 459.90612 92.301037 459.337558 89.259323 
Q 458.772207 86.193845 457.827815 86.193845 
L 456.735661 86.193845 
z
" clip-path="url(#p2c6f553962)" style="fill: #bd2e1f"/>
   </g>
   <g id="patch_20">
    <path d="M 480.643185 118.127891 
Q 479.278677 123.143945 477.811072 125.663425 
Q 476.343467 128.16 474.77883 128.16 
Q 471.243236 128.16 469.17828 113.226358 
Q 467.113323 98.292716 467.113323 72.754357 
Q 467.113323 46.91824 469.214667 32.09912 
Q 471.319042 17.28 474.978958 17.28 
Q 476.38895 17.28 477.680685 19.295584 
Q 478.975452 21.288263 480.12164 25.227812 
L 480.12164 47.330518 
Q 478.939065 42.268655 477.76862 39.77208 
Q 476.598175 37.252601 475.421665 37.252601 
Q 473.244516 37.252601 472.064974 46.460153 
Q 470.885432 55.644801 470.885432 72.754357 
Q 470.885432 89.703582 472.022522 98.956943 
Q 473.159613 108.187399 475.25186 108.187399 
Q 475.821921 108.187399 476.310112 107.660599 
Q 476.798303 107.110894 477.18643 105.965677 
L 477.18643 85.214328 
L 474.957732 85.214328 
L 474.957732 66.73051 
L 480.643185 66.73051 
L 480.643185 118.127891 
z
" clip-path="url(#p2c6f553962)" style="fill: #787800"/>
   </g>
   <g id="patch_21">
    <path d="M 481.355283 17.28 
L 494.603528 17.28 
L 494.603528 38.904689 
L 486.265215 38.904689 
L 486.265215 59.531316 
L 494.109678 59.531316 
L 494.109678 81.156005 
L 486.265215 81.156005 
L 486.265215 106.559074 
L 494.885145 106.559074 
L 494.885145 128.16 
L 481.355283 128.16 
L 481.355283 17.28 
z
" clip-path="url(#p2c6f553962)" style="fill: #6b296b"/>
   </g>
   <g id="patch_22">
    <path d="M 495.597243 17.28 
L 500.507175 17.28 
L 500.507175 106.559074 
L 509.127106 106.559074 
L 509.127106 128.16 
L 495.597243 128.16 
L 495.597243 17.28 
z
" clip-path="url(#p2c6f553962)" style="fill: #21599c"/>
   </g>
   <g id="patch_23">
    <path d="M 509.839204 17.28 
L 513.404685 17.28 
L 513.404685 57.749061 
L 518.543958 17.28 
L 522.684422 17.28 
L 516.024707 69.797102 
L 523.369066 128.16 
L 518.905545 128.16 
L 513.404685 84.48288 
L 513.404685 128.16 
L 509.839204 128.16 
L 509.839204 17.28 
z
" clip-path="url(#p2c6f553962)" style="fill: #bd2e1f"/>
   </g>
   <g id="patch_24">
    <path d="M 524.081164 17.28 
L 528.427159 17.28 
L 533.91871 93.322863 
L 533.91871 17.28 
L 537.611026 17.28 
L 537.611026 128.16 
L 533.261795 128.16 
L 527.770244 52.117137 
L 527.770244 128.16 
L 524.081164 128.16 
L 524.081164 17.28 
z
" clip-path="url(#p2c6f553962)" style="fill: #40ba47"/>
   </g>
   <g id="patch_25">
    <path d="M 542.633089 17.28 
L 547.543021 17.28 
L 547.543021 128.16 
L 542.633089 128.16 
L 542.633089 17.28 
z
" clip-path="url(#p2c6f553962)" style="fill: #21599c"/>
   </g>
   <g id="patch_26">
    <path d="M 552.565084 17.28 
L 555.91228 17.28 
L 559.334165 99.121132 
L 562.750517 17.28 
L 566.094946 17.28 
L 561.314819 128.16 
L 557.345211 128.16 
L 552.565084 17.28 
z
" clip-path="url(#p2c6f553962)" style="fill: #21599c"/>
   </g>
   <g id="patch_27">
    <path d="M 580.336907 118.127891 
Q 578.972398 123.143945 577.504793 125.663425 
Q 576.037188 128.16 574.472551 128.16 
Q 570.936958 128.16 568.872001 113.226358 
Q 566.807044 98.292716 566.807044 72.754357 
Q 566.807044 46.91824 568.908388 32.09912 
Q 571.012764 17.28 574.672679 17.28 
Q 576.082672 17.28 577.374407 19.295584 
Q 578.669174 21.288263 579.815361 25.227812 
L 579.815361 47.330518 
Q 578.632787 42.268655 577.462342 39.77208 
Q 576.291896 37.252601 575.115386 37.252601 
Q 572.938237 37.252601 571.758695 46.460153 
Q 570.579153 55.644801 570.579153 72.754357 
Q 570.579153 89.703582 571.716244 98.956943 
Q 572.853334 108.187399 574.945581 108.187399 
Q 575.515642 108.187399 576.003833 107.660599 
Q 576.492024 107.110894 576.880151 105.965677 
L 576.880151 85.214328 
L 574.651454 85.214328 
L 574.651454 66.73051 
L 580.336907 66.73051 
L 580.336907 118.127891 
z
" clip-path="url(#p2c6f553962)" style="fill: #787800"/>
   </g>
   <g id="patch_28">
    <path d="M 594.578867 118.127891 
Q 593.214358 123.143945 591.746753 125.663425 
Q 590.279148 128.16 588.714511 128.16 
Q 585.178918 128.16 583.113961 113.226358 
Q 581.049005 98.292716 581.049005 72.754357 
Q 581.049005 46.91824 583.150348 32.09912 
Q 585.254724 17.28 588.914639 17.28 
Q 590.324632 17.28 591.616367 19.295584 
Q 592.911134 21.288263 594.057321 25.227812 
L 594.057321 47.330518 
Q 592.874747 42.268655 591.704302 39.77208 
Q 590.533856 37.252601 589.357347 37.252601 
Q 587.180197 37.252601 586.000655 46.460153 
Q 584.821113 55.644801 584.821113 72.754357 
Q 584.821113 89.703582 585.958204 98.956943 
Q 587.095294 108.187399 589.187541 108.187399 
Q 589.757603 108.187399 590.245793 107.660599 
Q 590.733984 107.110894 591.122111 105.965677 
L 591.122111 85.214328 
L 588.893414 85.214328 
L 588.893414 66.73051 
L 594.578867 66.73051 
L 594.578867 118.127891 
z
" clip-path="url(#p2c6f553962)" style="fill: #787800"/>
   </g>
   <g id="patch_29">
    <path d="M 595.290965 17.28 
L 599.031574 17.28 
L 602.053053 56.798526 
L 605.071691 17.28 
L 608.820827 17.28 
L 603.767025 81.441166 
L 603.767025 128.16 
L 600.347609 128.16 
L 600.347609 81.441166 
L 595.290965 17.28 
z
" clip-path="url(#p2c6f553962)" style="fill: #177875"/>
   </g>
   <g id="patch_30">
    <path d="M 609.673733 17.28 
L 622.921979 17.28 
L 622.921979 38.904689 
L 614.583665 38.904689 
L 614.583665 59.531316 
L 622.428128 59.531316 
L 622.428128 81.156005 
L 614.583665 81.156005 
L 614.583665 128.16 
L 609.673733 128.16 
L 609.673733 17.28 
z
" clip-path="url(#p2c6f553962)" style="fill: #21599c"/>
   </g>
   <g id="patch_31">
    <path d="M 637.304747 118.127891 
Q 635.940239 123.143945 634.472634 125.663425 
Q 633.005029 128.16 631.440392 128.16 
Q 627.904798 128.16 625.839842 113.226358 
Q 623.774885 98.292716 623.774885 72.754357 
Q 623.774885 46.91824 625.876229 32.09912 
Q 627.980604 17.28 631.64052 17.28 
Q 633.050512 17.28 634.342247 19.295584 
Q 635.637014 21.288263 636.783202 25.227812 
L 636.783202 47.330518 
Q 635.600628 42.268655 634.430182 39.77208 
Q 633.259737 37.252601 632.083227 37.252601 
Q 629.906078 37.252601 628.726536 46.460153 
Q 627.546994 55.644801 627.546994 72.754357 
Q 627.546994 89.703582 628.684084 98.956943 
Q 629.821175 108.187399 631.913422 108.187399 
Q 632.483483 108.187399 632.971674 107.660599 
Q 633.459865 107.110894 633.847992 105.965677 
L 633.847992 85.214328 
L 631.619294 85.214328 
L 631.619294 66.73051 
L 637.304747 66.73051 
L 637.304747 118.127891 
z
" clip-path="url(#p2c6f553962)" style="fill: #787800"/>
   </g>
   <g id="patch_32">
    <path d="M 650.418607 22.570907 
L 650.418607 45.200413 
Q 649.007562 41.260863 647.66266 39.268184 
Q 646.321432 37.252601 645.127188 37.252601 
Q 643.543438 37.252601 642.782796 39.978219 
Q 642.025829 42.680934 642.025829 48.407023 
Q 642.025829 52.713043 642.536598 55.118 
Q 643.047367 57.500054 644.392269 59.217881 
L 646.273662 61.57703 
Q 649.132498 65.173014 650.337765 72.479504 
Q 651.546708 79.76309 651.546708 93.230853 
Q 651.546708 110.890114 649.863743 119.525057 
Q 648.180778 128.16 644.722983 128.16 
Q 643.095137 128.16 641.452593 126.21313 
Q 639.810048 124.289163 638.167504 120.48704 
L 638.167504 97.239116 
Q 639.810048 102.667449 641.342355 105.438876 
Q 642.874661 108.187399 644.300404 108.187399 
Q 645.748195 108.187399 646.516186 105.186928 
Q 647.284176 102.163553 647.284176 96.574889 
Q 647.284176 91.581739 646.762384 88.856121 
Q 646.240591 86.130502 644.678888 83.977492 
L 642.966526 81.618343 
Q 640.394309 78.18269 639.20374 70.67006 
Q 638.016845 63.15743 638.016845 50.422607 
Q 638.016845 34.458269 639.670413 25.869134 
Q 641.323982 17.28 644.425341 17.28 
Q 645.84006 17.28 647.331946 18.608453 
Q 648.823832 19.936906 650.418607 22.570907 
z
" clip-path="url(#p2c6f553962)" style="fill: #40ba47"/>
   </g>
   <g id="patch_33">
    <path d="M 665.788668 118.127891 
Q 664.424159 123.143945 662.956554 125.663425 
Q 661.488949 128.16 659.924312 128.16 
Q 656.388719 128.16 654.323762 113.226358 
Q 652.258806 98.292716 652.258806 72.754357 
Q 652.258806 46.91824 654.360149 32.09912 
Q 656.464525 17.28 660.12444 17.28 
Q 661.534433 17.28 662.826168 19.295584 
Q 664.120935 21.288263 665.267122 25.227812 
L 665.267122 47.330518 
Q 664.084548 42.268655 662.914103 39.77208 
Q 661.743657 37.252601 660.567148 37.252601 
Q 658.389998 37.252601 657.210456 46.460153 
Q 656.030914 55.644801 656.030914 72.754357 
Q 656.030914 89.703582 657.168005 98.956943 
Q 658.305095 108.187399 660.397342 108.187399 
Q 660.967403 108.187399 661.455594 107.660599 
Q 661.943785 107.110894 662.331912 105.965677 
L 662.331912 85.214328 
L 660.103215 85.214328 
L 660.103215 66.73051 
L 665.788668 66.73051 
L 665.788668 118.127891 
z
" clip-path="url(#p2c6f553962)" style="fill: #787800"/>
   </g>
   <g id="patch_34">
    <path d="M 678.902527 22.570907 
L 678.902527 45.200413 
Q 677.491482 41.260863 676.14658 39.268184 
Q 674.805352 37.252601 673.611109 37.252601 
Q 672.027358 37.252601 671.266717 39.978219 
Q 670.50975 42.680934 670.50975 48.407023 
Q 670.50975 52.713043 671.020519 55.118 
Q 671.531288 57.500054 672.87619 59.217881 
L 674.757583 61.57703 
Q 677.616418 65.173014 678.821686 72.479504 
Q 680.030628 79.76309 680.030628 93.230853 
Q 680.030628 110.890114 678.347663 119.525057 
Q 676.664698 128.16 673.206903 128.16 
Q 671.579057 128.16 669.936513 126.21313 
Q 668.293969 124.289163 666.651424 120.48704 
L 666.651424 97.239116 
Q 668.293969 102.667449 669.826275 105.438876 
Q 671.358582 108.187399 672.784325 108.187399 
Q 674.232116 108.187399 675.000106 105.186928 
Q 675.768097 102.163553 675.768097 96.574889 
Q 675.768097 91.581739 675.246304 88.856121 
Q 674.724511 86.130502 673.162808 83.977492 
L 671.450446 81.618343 
Q 668.878229 78.18269 667.68766 70.67006 
Q 666.500766 63.15743 666.500766 50.422607 
Q 666.500766 34.458269 668.154334 25.869134 
Q 669.807902 17.28 672.909261 17.28 
Q 674.32398 17.28 675.815866 18.608453 
Q 677.307752 19.936906 678.902527 22.570907 
z
" clip-path="url(#p2c6f553962)" style="fill: #40ba47"/>
   </g>
   <g id="patch_35">
    <path d="M 684.45034 38.904689 
L 684.45034 106.559074 
L 685.77867 106.559074 
Q 688.050084 106.559074 689.248972 97.861672 
Q 690.450941 89.164269 690.450941 72.601183 
Q 690.450941 56.13315 689.255136 47.530802 
Q 688.062412 38.904689 685.77867 38.904689 
L 684.45034 38.904689 
z
M 680.742726 17.28 
L 684.650668 17.28 
Q 687.926805 17.28 689.529431 20.892036 
Q 691.132057 24.480309 692.278551 33.106421 
Q 693.289439 40.615654 693.779472 50.429936 
Q 694.272588 60.220454 694.272588 72.601183 
Q 694.272588 85.172019 693.779472 95.010064 
Q 693.289439 104.84811 692.278551 112.333579 
Q 691.122811 120.959691 689.504776 124.571727 
Q 687.88674 128.16 684.650668 128.16 
L 680.742726 128.16 
L 680.742726 17.28 
z
" clip-path="url(#p2c6f553962)" style="fill: #6b296b"/>
   </g>
   <g id="patch_36">
    <path d="M 698.6923 38.904689 
L 698.6923 106.559074 
L 700.02063 106.559074 
Q 702.292044 106.559074 703.490932 97.861672 
Q 704.692902 89.164269 704.692902 72.601183 
Q 704.692902 56.13315 703.497096 47.530802 
Q 702.304372 38.904689 700.02063 38.904689 
L 698.6923 38.904689 
z
M 694.984686 17.28 
L 698.892628 17.28 
Q 702.168766 17.28 703.771392 20.892036 
Q 705.374018 24.480309 706.520512 33.106421 
Q 707.531399 40.615654 708.021433 50.429936 
Q 708.514548 60.220454 708.514548 72.601183 
Q 708.514548 85.172019 708.021433 95.010064 
Q 707.531399 104.84811 706.520512 112.333579 
Q 705.364772 120.959691 703.746736 124.571727 
Q 702.1287 128.16 698.892628 128.16 
L 694.984686 128.16 
L 694.984686 17.28 
z
" clip-path="url(#p2c6f553962)" style="fill: #6b296b"/>
   </g>
   <g id="patch_37">
    <path d="M 722.756508 118.127891 
Q 721.392 123.143945 719.924395 125.663425 
Q 718.45679 128.16 716.892153 128.16 
Q 713.356559 128.16 711.291603 113.226358 
Q 709.226646 98.292716 709.226646 72.754357 
Q 709.226646 46.91824 711.32799 32.09912 
Q 713.432365 17.28 717.092281 17.28 
Q 718.502273 17.28 719.794008 19.295584 
Q 721.088776 21.288263 722.234963 25.227812 
L 722.234963 47.330518 
Q 721.052389 42.268655 719.881943 39.77208 
Q 718.711498 37.252601 717.534988 37.252601 
Q 715.357839 37.252601 714.178297 46.460153 
Q 712.998755 55.644801 712.998755 72.754357 
Q 712.998755 89.703582 714.135845 98.956943 
Q 715.272936 108.187399 717.365183 108.187399 
Q 717.935244 108.187399 718.423435 107.660599 
Q 718.911626 107.110894 719.299753 105.965677 
L 719.299753 85.214328 
L 717.071055 85.214328 
L 717.071055 66.73051 
L 722.756508 66.73051 
L 722.756508 118.127891 
z
" clip-path="url(#p2c6f553962)" style="fill: #787800"/>
   </g>
   <g id="patch_38">
    <path d="M 735.870368 22.570907 
L 735.870368 45.200413 
Q 734.459323 41.260863 733.114421 39.268184 
Q 731.773193 37.252601 730.57895 37.252601 
Q 728.995199 37.252601 728.234557 39.978219 
Q 727.477591 42.680934 727.477591 48.407023 
Q 727.477591 52.713043 727.988359 55.118 
Q 728.499128 57.500054 729.84403 59.217881 
L 731.725423 61.57703 
Q 734.584259 65.173014 735.789527 72.479504 
Q 736.998469 79.76309 736.998469 93.230853 
Q 736.998469 110.890114 735.315504 119.525057 
Q 733.632539 128.16 730.174744 128.16 
Q 728.546898 128.16 726.904354 126.21313 
Q 725.261809 124.289163 723.619265 120.48704 
L 723.619265 97.239116 
Q 725.261809 102.667449 726.794116 105.438876 
Q 728.326422 108.187399 729.752165 108.187399 
Q 731.199956 108.187399 731.967947 105.186928 
Q 732.735937 102.163553 732.735937 96.574889 
Q 732.735937 91.581739 732.214145 88.856121 
Q 731.692352 86.130502 730.130649 83.977492 
L 728.418287 81.618343 
Q 725.84607 78.18269 724.655501 70.67006 
Q 723.468606 63.15743 723.468606 50.422607 
Q 723.468606 34.458269 725.122175 25.869134 
Q 726.775743 17.28 729.877102 17.28 
Q 731.291821 17.28 732.783707 18.608453 
Q 734.275593 19.936906 735.870368 22.570907 
z
" clip-path="url(#p2c6f553962)" style="fill: #40ba47"/>
   </g>
   <g id="patch_39">
    <path d="M 751.240429 118.127891 
Q 749.87592 123.143945 748.408315 125.663425 
Q 746.94071 128.16 745.376073 128.16 
Q 741.84048 128.16 739.775523 113.226358 
Q 737.710567 98.292716 737.710567 72.754357 
Q 737.710567 46.91824 739.81191 32.09912 
Q 741.916286 17.28 745.576201 17.28 
Q 746.986194 17.28 748.277929 19.295584 
Q 749.572696 21.288263 750.718883 25.227812 
L 750.718883 47.330518 
Q 749.536309 42.268655 748.365864 39.77208 
Q 747.195418 37.252601 746.018909 37.252601 
Q 743.841759 37.252601 742.662217 46.460153 
Q 741.482675 55.644801 741.482675 72.754357 
Q 741.482675 89.703582 742.619766 98.956943 
Q 743.756856 108.187399 745.849103 108.187399 
Q 746.419165 108.187399 746.907355 107.660599 
Q 747.395546 107.110894 747.783673 105.965677 
L 747.783673 85.214328 
L 745.554976 85.214328 
L 745.554976 66.73051 
L 751.240429 66.73051 
L 751.240429 118.127891 
z
" clip-path="url(#p2c6f553962)" style="fill: #787800"/>
   </g>
   <g id="patch_40">
    <path d="M 764.354288 22.570907 
L 764.354288 45.200413 
Q 762.943243 41.260863 761.598341 39.268184 
Q 760.257114 37.252601 759.06287 37.252601 
Q 757.479119 37.252601 756.718478 39.978219 
Q 755.961511 42.680934 755.961511 48.407023 
Q 755.961511 52.713043 756.47228 55.118 
Q 756.983049 57.500054 758.327951 59.217881 
L 760.209344 61.57703 
Q 763.068179 65.173014 764.273447 72.479504 
Q 765.482389 79.76309 765.482389 93.230853 
Q 765.482389 110.890114 763.799424 119.525057 
Q 762.116459 128.16 758.658664 128.16 
Q 757.030818 128.16 755.388274 126.21313 
Q 753.74573 124.289163 752.103185 120.48704 
L 752.103185 97.239116 
Q 753.74573 102.667449 755.278036 105.438876 
Q 756.810343 108.187399 758.236086 108.187399 
Q 759.683877 108.187399 760.451867 105.186928 
Q 761.219858 102.163553 761.219858 96.574889 
Q 761.219858 91.581739 760.698065 88.856121 
Q 760.176272 86.130502 758.614569 83.977492 
L 756.902208 81.618343 
Q 754.32999 78.18269 753.139421 70.67006 
Q 751.952527 63.15743 751.952527 50.422607 
Q 751.952527 34.458269 753.606095 25.869134 
Q 755.259663 17.28 758.361022 17.28 
Q 759.775742 17.28 761.267627 18.608453 
Q 762.759513 19.936906 764.354288 22.570907 
z
" clip-path="url(#p2c6f553962)" style="fill: #40ba47"/>
   </g>
   <g id="patch_41">
    <path d="M 769.902101 38.904689 
L 769.902101 106.559074 
L 771.230431 106.559074 
Q 773.501845 106.559074 774.700733 97.861672 
Q 775.902702 89.164269 775.902702 72.601183 
Q 775.902702 56.13315 774.706897 47.530802 
Q 773.514173 38.904689 771.230431 38.904689 
L 769.902101 38.904689 
z
M 766.194487 17.28 
L 770.102429 17.28 
Q 773.378566 17.28 774.981192 20.892036 
Q 776.583819 24.480309 777.730313 33.106421 
Q 778.7412 40.615654 779.231233 50.429936 
Q 779.724349 60.220454 779.724349 72.601183 
Q 779.724349 85.172019 779.231233 95.010064 
Q 778.7412 104.84811 777.730313 112.333579 
Q 776.574573 120.959691 774.956537 124.571727 
Q 773.338501 128.16 770.102429 128.16 
L 766.194487 128.16 
L 766.194487 17.28 
z
" clip-path="url(#p2c6f553962)" style="fill: #6b296b"/>
   </g>
   <g id="patch_42">
    <path d="M 792.838208 22.570907 
L 792.838208 45.200413 
Q 791.427164 41.260863 790.082261 39.268184 
Q 788.741034 37.252601 787.54679 37.252601 
Q 785.963039 37.252601 785.202398 39.978219 
Q 784.445431 42.680934 784.445431 48.407023 
Q 784.445431 52.713043 784.9562 55.118 
Q 785.466969 57.500054 786.811871 59.217881 
L 788.693264 61.57703 
Q 791.5521 65.173014 792.757367 72.479504 
Q 793.966309 79.76309 793.966309 93.230853 
Q 793.966309 110.890114 792.283344 119.525057 
Q 790.600379 128.16 787.142585 128.16 
Q 785.514739 128.16 783.872194 126.21313 
Q 782.22965 124.289163 780.587106 120.48704 
L 780.587106 97.239116 
Q 782.22965 102.667449 783.761956 105.438876 
Q 785.294263 108.187399 786.720006 108.187399 
Q 788.167797 108.187399 788.935788 105.186928 
Q 789.703778 102.163553 789.703778 96.574889 
Q 789.703778 91.581739 789.181985 88.856121 
Q 788.660193 86.130502 787.09849 83.977492 
L 785.386128 81.618343 
Q 782.813911 78.18269 781.623342 70.67006 
Q 780.436447 63.15743 780.436447 50.422607 
Q 780.436447 34.458269 782.090015 25.869134 
Q 783.743583 17.28 786.844942 17.28 
Q 788.259662 17.28 789.751548 18.608453 
Q 791.243434 19.936906 792.838208 22.570907 
z
" clip-path="url(#p2c6f553962)" style="fill: #40ba47"/>
   </g>
   <g id="patch_43">
    <path d="M 794.678407 17.28 
L 798.243889 17.28 
L 798.243889 57.749061 
L 803.383162 17.28 
L 807.523626 17.28 
L 800.863911 69.797102 
L 808.20827 128.16 
L 803.744749 128.16 
L 798.243889 84.48288 
L 798.243889 128.16 
L 794.678407 128.16 
L 794.678407 17.28 
z
" clip-path="url(#p2c6f553962)" style="fill: #bd2e1f"/>
   </g>
   <g id="patch_44">
    <path d="M 822.45023 120.212188 
Q 821.31848 124.151737 820.094691 126.144416 
Q 818.870901 128.16 817.538027 128.16 
Q 813.563268 128.16 811.241818 113.226358 
Q 808.920368 98.292716 808.920368 72.754357 
Q 808.920368 47.124379 811.241818 32.213642 
Q 813.563268 17.28 817.538027 17.28 
Q 818.870901 17.28 820.094691 19.295584 
Q 821.31848 21.288263 822.45023 25.227812 
L 822.45023 47.330518 
Q 821.308253 42.108325 820.200366 39.680463 
Q 819.092479 37.252601 817.868689 37.252601 
Q 815.673368 37.252601 814.415489 46.712101 
Q 813.16102 56.148697 813.16102 72.754357 
Q 813.16102 89.291303 814.415489 98.750804 
Q 815.673368 108.187399 817.868689 108.187399 
Q 819.092479 108.187399 820.200366 105.759537 
Q 821.308253 103.308771 822.45023 98.086577 
L 822.45023 120.212188 
z
" clip-path="url(#p2c6f553962)" style="fill: #6b296b"/>
   </g>
   <g id="patch_45">
    <path d="M 823.162328 17.28 
L 826.902937 17.28 
L 829.924416 56.798526 
L 832.943054 17.28 
L 836.69219 17.28 
L 831.638388 81.441166 
L 831.638388 128.16 
L 828.218972 128.16 
L 828.218972 81.441166 
L 823.162328 17.28 
z
" clip-path="url(#p2c6f553962)" style="fill: #177875"/>
   </g>
   <g id="patch_46">
    <path d="M 837.404288 17.28 
L 841.750283 17.28 
L 847.241834 93.322863 
L 847.241834 17.28 
L 850.93415 17.28 
L 850.93415 128.16 
L 846.584919 128.16 
L 841.093368 52.117137 
L 841.093368 128.16 
L 837.404288 128.16 
L 837.404288 17.28 
z
" clip-path="url(#p2c6f553962)" style="fill: #40ba47"/>
   </g>
   <g id="patch_47">
    <path d="M 865.17611 118.127891 
Q 863.811602 123.143945 862.343997 125.663425 
Q 860.876392 128.16 859.311755 128.16 
Q 855.776161 128.16 853.711205 113.226358 
Q 851.646248 98.292716 851.646248 72.754357 
Q 851.646248 46.91824 853.747592 32.09912 
Q 855.851967 17.28 859.511883 17.28 
Q 860.921875 17.28 862.21361 19.295584 
Q 863.508377 21.288263 864.654565 25.227812 
L 864.654565 47.330518 
Q 863.47199 42.268655 862.301545 39.77208 
Q 861.1311 37.252601 859.95459 37.252601 
Q 857.777441 37.252601 856.597899 46.460153 
Q 855.418357 55.644801 855.418357 72.754357 
Q 855.418357 89.703582 856.555447 98.956943 
Q 857.692538 108.187399 859.784785 108.187399 
Q 860.354846 108.187399 860.843037 107.660599 
Q 861.331228 107.110894 861.719355 105.965677 
L 861.719355 85.214328 
L 859.490657 85.214328 
L 859.490657 66.73051 
L 865.17611 66.73051 
L 865.17611 118.127891 
z
" clip-path="url(#p2c6f553962)" style="fill: #787800"/>
   </g>
   <g id="patch_48">
    <path d="M 869.595822 38.904689 
L 869.595822 106.559074 
L 870.924152 106.559074 
Q 873.195567 106.559074 874.394454 97.861672 
Q 875.596424 89.164269 875.596424 72.601183 
Q 875.596424 56.13315 874.400618 47.530802 
Q 873.207895 38.904689 870.924152 38.904689 
L 869.595822 38.904689 
z
M 865.888208 17.28 
L 869.79615 17.28 
Q 873.072288 17.28 874.674914 20.892036 
Q 876.27754 24.480309 877.424034 33.106421 
Q 878.434921 40.615654 878.924955 50.429936 
Q 879.41807 60.220454 879.41807 72.601183 
Q 879.41807 85.172019 878.924955 95.010064 
Q 878.434921 104.84811 877.424034 112.333579 
Q 876.268294 120.959691 874.650258 124.571727 
Q 873.032222 128.16 869.79615 128.16 
L 865.888208 128.16 
L 865.888208 17.28 
z
" clip-path="url(#p2c6f553962)" style="fill: #6b296b"/>
   </g>
   <g id="patch_49">
    <path d="M 889.502316 107.961114 
L 884.298948 107.961114 
L 883.477364 128.16 
L 880.130168 128.16 
L 884.910296 17.28 
L 888.879903 17.28 
L 893.660031 128.16 
L 890.315601 128.16 
L 889.502316 107.961114 
z
M 885.128831 87.382015 
L 888.664134 87.382015 
L 886.899249 43.277154 
L 885.128831 87.382015 
z
" clip-path="url(#p2c6f553962)" style="fill: #21599c"/>
   </g>
   <g id="patch_50">
    <path d="M 907.901991 120.212188 
Q 906.770241 124.151737 905.546452 126.144416 
Q 904.322662 128.16 902.989788 128.16 
Q 899.015029 128.16 896.693579 113.226358 
Q 894.372129 98.292716 894.372129 72.754357 
Q 894.372129 47.124379 896.693579 32.213642 
Q 899.015029 17.28 902.989788 17.28 
Q 904.322662 17.28 905.546452 19.295584 
Q 906.770241 21.288263 907.901991 25.227812 
L 907.901991 47.330518 
Q 906.760015 42.108325 905.652127 39.680463 
Q 904.54424 37.252601 903.32045 37.252601 
Q 901.125129 37.252601 899.86725 46.712101 
Q 898.612781 56.148697 898.612781 72.754357 
Q 898.612781 89.291303 899.86725 98.750804 
Q 901.125129 108.187399 903.32045 108.187399 
Q 904.54424 108.187399 905.652127 105.759537 
Q 906.760015 103.308771 907.901991 98.086577 
L 907.901991 120.212188 
z
" clip-path="url(#p2c6f553962)" style="fill: #6b296b"/>
   </g>
   <g id="patch_51">
    <path d="M 921.01585 22.570907 
L 921.01585 45.200413 
Q 919.604805 41.260863 918.259903 39.268184 
Q 916.918676 37.252601 915.724432 37.252601 
Q 914.140681 37.252601 913.38004 39.978219 
Q 912.623073 42.680934 912.623073 48.407023 
Q 912.623073 52.713043 913.133842 55.118 
Q 913.644611 57.500054 914.989513 59.217881 
L 916.870906 61.57703 
Q 919.729741 65.173014 920.935009 72.479504 
Q 922.143951 79.76309 922.143951 93.230853 
Q 922.143951 110.890114 920.460986 119.525057 
Q 918.778021 128.16 915.320226 128.16 
Q 913.69238 128.16 912.049836 126.21313 
Q 910.407292 124.289163 908.764747 120.48704 
L 908.764747 97.239116 
Q 910.407292 102.667449 911.939598 105.438876 
Q 913.471905 108.187399 914.897648 108.187399 
Q 916.345439 108.187399 917.113429 105.186928 
Q 917.88142 102.163553 917.88142 96.574889 
Q 917.88142 91.581739 917.359627 88.856121 
Q 916.837834 86.130502 915.276131 83.977492 
L 913.56377 81.618343 
Q 910.991552 78.18269 909.800983 70.67006 
Q 908.614089 63.15743 908.614089 50.422607 
Q 908.614089 34.458269 910.267657 25.869134 
Q 911.921225 17.28 915.022584 17.28 
Q 916.437304 17.28 917.929189 18.608453 
Q 919.421075 19.936906 921.01585 22.570907 
z
" clip-path="url(#p2c6f553962)" style="fill: #40ba47"/>
   </g>
   <g id="patch_52">
    <path d="M 927.166014 17.28 
L 932.075946 17.28 
L 932.075946 128.16 
L 927.166014 128.16 
L 927.166014 17.28 
z
" clip-path="url(#p2c6f553962)" style="fill: #21599c"/>
   </g>
   <g id="patch_53">
    <path d="M 937.098009 17.28 
L 940.445205 17.28 
L 943.86709 99.121132 
L 947.283442 17.28 
L 950.627871 17.28 
L 945.847744 128.16 
L 941.878136 128.16 
L 937.098009 17.28 
z
" clip-path="url(#p2c6f553962)" style="fill: #21599c"/>
   </g>
   <g id="patch_54">
    <path d="M 951.339969 17.28 
L 955.080578 17.28 
L 958.102058 56.798526 
L 961.120695 17.28 
L 964.869832 17.28 
L 959.81603 81.441166 
L 959.81603 128.16 
L 956.396613 128.16 
L 956.396613 81.441166 
L 951.339969 17.28 
z
" clip-path="url(#p2c6f553962)" style="fill: #177875"/>
   </g>
   <g id="patch_55">
    <path d="M 965.58193 17.28 
L 979.111792 17.28 
L 979.111792 38.904689 
L 974.244188 38.904689 
L 974.244188 128.16 
L 970.458973 128.16 
L 970.458973 38.904689 
L 965.58193 38.904689 
L 965.58193 17.28 
z
" clip-path="url(#p2c6f553962)" style="fill: #40ba47"/>
   </g>
   <g id="patch_56">
    <path d="M 983.531503 38.904689 
L 983.531503 106.559074 
L 984.859834 106.559074 
Q 987.131248 106.559074 988.330136 97.861672 
Q 989.532105 89.164269 989.532105 72.601183 
Q 989.532105 56.13315 988.3363 47.530802 
Q 987.143576 38.904689 984.859834 38.904689 
L 983.531503 38.904689 
z
M 979.82389 17.28 
L 983.731832 17.28 
Q 987.007969 17.28 988.610595 20.892036 
Q 990.213221 24.480309 991.359715 33.106421 
Q 992.370602 40.615654 992.860636 50.429936 
Q 993.353752 60.220454 993.353752 72.601183 
Q 993.353752 85.172019 992.860636 95.010064 
Q 992.370602 104.84811 991.359715 112.333579 
Q 990.203975 120.959691 988.585939 124.571727 
Q 986.967904 128.16 983.731832 128.16 
L 979.82389 128.16 
L 979.82389 17.28 
z
" clip-path="url(#p2c6f553962)" style="fill: #6b296b"/>
   </g>
   <g id="patch_57">
    <path d="M 1006.467611 22.570907 
L 1006.467611 45.200413 
Q 1005.056566 41.260863 1003.711664 39.268184 
Q 1002.370437 37.252601 1001.176193 37.252601 
Q 999.592442 37.252601 998.831801 39.978219 
Q 998.074834 42.680934 998.074834 48.407023 
Q 998.074834 52.713043 998.585603 55.118 
Q 999.096372 57.500054 1000.441274 59.217881 
L 1002.322667 61.57703 
Q 1005.181503 65.173014 1006.38677 72.479504 
Q 1007.595712 79.76309 1007.595712 93.230853 
Q 1007.595712 110.890114 1005.912747 119.525057 
Q 1004.229782 128.16 1000.771987 128.16 
Q 999.144141 128.16 997.501597 126.21313 
Q 995.859053 124.289163 994.216508 120.48704 
L 994.216508 97.239116 
Q 995.859053 102.667449 997.391359 105.438876 
Q 998.923666 108.187399 1000.349409 108.187399 
Q 1001.7972 108.187399 1002.56519 105.186928 
Q 1003.333181 102.163553 1003.333181 96.574889 
Q 1003.333181 91.581739 1002.811388 88.856121 
Q 1002.289596 86.130502 1000.727892 83.977492 
L 999.015531 81.618343 
Q 996.443313 78.18269 995.252744 70.67006 
Q 994.06585 63.15743 994.06585 50.422607 
Q 994.06585 34.458269 995.719418 25.869134 
Q 997.372986 17.28 1000.474345 17.28 
Q 1001.889065 17.28 1003.380951 18.608453 
Q 1004.872837 19.936906 1006.467611 22.570907 
z
" clip-path="url(#p2c6f553962)" style="fill: #40ba47"/>
   </g>
   <g id="patch_58">
    <path d="M 1015.433538 111.578719 
L 1015.168578 111.578719 
Q 1011.918592 111.578719 1010.111792 99.152512 
Q 1008.30781 86.706798 1008.30781 64.526897 
Q 1008.30781 42.38601 1010.108973 29.842759 
Q 1011.910136 17.28 1015.072741 17.28 
Q 1018.269171 17.28 1020.053422 29.725714 
Q 1021.837672 42.151921 1021.837672 64.526897 
Q 1021.837672 79.879212 1020.890582 90.978916 
Q 1019.943492 102.078621 1018.164878 107.677241 
L 1020.814476 128.16 
L 1017.581403 128.16 
L 1015.433538 111.578719 
z
M 1015.072741 34.290443 
Q 1013.522444 34.290443 1012.668372 42.210443 
Q 1011.814299 50.130443 1011.814299 64.526897 
Q 1011.814299 79.157438 1012.648641 86.940887 
Q 1013.485801 94.704828 1015.072741 94.704828 
Q 1016.631494 94.704828 1017.485567 86.784828 
Q 1018.339639 78.84532 1018.339639 64.526897 
Q 1018.339639 50.130443 1017.485567 42.210443 
Q 1016.631494 34.290443 1015.072741 34.290443 
z
" clip-path="url(#p2c6f553962)" style="fill: #40ba47"/>
   </g>
   <g id="patch_59">
    <path d="M 1036.079632 118.127891 
Q 1034.715124 123.143945 1033.247519 125.663425 
Q 1031.779914 128.16 1030.215277 128.16 
Q 1026.679683 128.16 1024.614727 113.226358 
Q 1022.54977 98.292716 1022.54977 72.754357 
Q 1022.54977 46.91824 1024.651114 32.09912 
Q 1026.755489 17.28 1030.415405 17.28 
Q 1031.825397 17.28 1033.117132 19.295584 
Q 1034.4119 21.288263 1035.558087 25.227812 
L 1035.558087 47.330518 
Q 1034.375513 42.268655 1033.205067 39.77208 
Q 1032.034622 37.252601 1030.858112 37.252601 
Q 1028.680963 37.252601 1027.501421 46.460153 
Q 1026.321879 55.644801 1026.321879 72.754357 
Q 1026.321879 89.703582 1027.458969 98.956943 
Q 1028.59606 108.187399 1030.688307 108.187399 
Q 1031.258368 108.187399 1031.746559 107.660599 
Q 1032.23475 107.110894 1032.622877 105.965677 
L 1032.622877 85.214328 
L 1030.394179 85.214328 
L 1030.394179 66.73051 
L 1036.079632 66.73051 
L 1036.079632 118.127891 
z
" clip-path="url(#p2c6f553962)" style="fill: #787800"/>
   </g>
   <g id="patch_60">
    <path d="M 1036.79173 17.28 
L 1041.137725 17.28 
L 1046.629277 93.322863 
L 1046.629277 17.28 
L 1050.321593 17.28 
L 1050.321593 128.16 
L 1045.972362 128.16 
L 1040.48081 52.117137 
L 1040.48081 128.16 
L 1036.79173 128.16 
L 1036.79173 17.28 
z
" clip-path="url(#p2c6f553962)" style="fill: #40ba47"/>
   </g>
   <g id="patch_61">
    <path d="M 1063.435452 22.570907 
L 1063.435452 45.200413 
Q 1062.024407 41.260863 1060.679505 39.268184 
Q 1059.338277 37.252601 1058.144034 37.252601 
Q 1056.560283 37.252601 1055.799642 39.978219 
Q 1055.042675 42.680934 1055.042675 48.407023 
Q 1055.042675 52.713043 1055.553444 55.118 
Q 1056.064212 57.500054 1057.409115 59.217881 
L 1059.290508 61.57703 
Q 1062.149343 65.173014 1063.354611 72.479504 
Q 1064.563553 79.76309 1064.563553 93.230853 
Q 1064.563553 110.890114 1062.880588 119.525057 
Q 1061.197623 128.16 1057.739828 128.16 
Q 1056.111982 128.16 1054.469438 126.21313 
Q 1052.826893 124.289163 1051.184349 120.48704 
L 1051.184349 97.239116 
Q 1052.826893 102.667449 1054.3592 105.438876 
Q 1055.891506 108.187399 1057.31725 108.187399 
Q 1058.76504 108.187399 1059.533031 105.186928 
Q 1060.301022 102.163553 1060.301022 96.574889 
Q 1060.301022 91.581739 1059.779229 88.856121 
Q 1059.257436 86.130502 1057.695733 83.977492 
L 1055.983371 81.618343 
Q 1053.411154 78.18269 1052.220585 70.67006 
Q 1051.033691 63.15743 1051.033691 50.422607 
Q 1051.033691 34.458269 1052.687259 25.869134 
Q 1054.340827 17.28 1057.442186 17.28 
Q 1058.856905 17.28 1060.348791 18.608453 
Q 1061.840677 19.936906 1063.435452 22.570907 
z
" clip-path="url(#p2c6f553962)" style="fill: #40ba47"/>
   </g>
   <g id="patch_62">
    <path d="M 1065.275651 17.28 
L 1078.805513 17.28 
L 1078.805513 38.904689 
L 1073.937909 38.904689 
L 1073.937909 128.16 
L 1070.152694 128.16 
L 1070.152694 38.904689 
L 1065.275651 38.904689 
L 1065.275651 17.28 
z
" clip-path="url(#p2c6f553962)" style="fill: #40ba47"/>
   </g>
   <g id="patch_63">
    <path d="M 1091.919372 22.570907 
L 1091.919372 45.200413 
Q 1090.508327 41.260863 1089.163425 39.268184 
Q 1087.822198 37.252601 1086.627954 37.252601 
Q 1085.044203 37.252601 1084.283562 39.978219 
Q 1083.526595 42.680934 1083.526595 48.407023 
Q 1083.526595 52.713043 1084.037364 55.118 
Q 1084.548133 57.500054 1085.893035 59.217881 
L 1087.774428 61.57703 
Q 1090.633264 65.173014 1091.838531 72.479504 
Q 1093.047473 79.76309 1093.047473 93.230853 
Q 1093.047473 110.890114 1091.364508 119.525057 
Q 1089.681543 128.16 1086.223749 128.16 
Q 1084.595903 128.16 1082.953358 126.21313 
Q 1081.310814 124.289163 1079.668269 120.48704 
L 1079.668269 97.239116 
Q 1081.310814 102.667449 1082.84312 105.438876 
Q 1084.375427 108.187399 1085.80117 108.187399 
Q 1087.248961 108.187399 1088.016951 105.186928 
Q 1088.784942 102.163553 1088.784942 96.574889 
Q 1088.784942 91.581739 1088.263149 88.856121 
Q 1087.741357 86.130502 1086.179653 83.977492 
L 1084.467292 81.618343 
Q 1081.895075 78.18269 1080.704506 70.67006 
Q 1079.517611 63.15743 1079.517611 50.422607 
Q 1079.517611 34.458269 1081.171179 25.869134 
Q 1082.824747 17.28 1085.926106 17.28 
Q 1087.340826 17.28 1088.832712 18.608453 
Q 1090.324598 19.936906 1091.919372 22.570907 
z
" clip-path="url(#p2c6f553962)" style="fill: #40ba47"/>
   </g>
   <g id="patch_64">
    <path d="M 1093.90038 17.28 
L 1107.148625 17.28 
L 1107.148625 38.904689 
L 1098.810312 38.904689 
L 1098.810312 59.531316 
L 1106.654775 59.531316 
L 1106.654775 81.156005 
L 1098.810312 81.156005 
L 1098.810312 128.16 
L 1093.90038 128.16 
L 1093.90038 17.28 
z
" clip-path="url(#p2c6f553962)" style="fill: #21599c"/>
   </g>
   <g id="patch_65">
    <path d="M 1108.001531 17.28 
L 1115.034241 17.28 
Q 1118.173592 17.28 1119.850731 26.690304 
Q 1121.531394 36.076845 1121.531394 53.447887 
Q 1121.531394 70.913982 1119.850731 80.300523 
Q 1118.173592 89.687064 1115.034241 89.687064 
L 1112.240184 89.687064 
L 1112.240184 128.16 
L 1108.001531 128.16 
L 1108.001531 17.28 
z
M 1112.240184 38.00168 
L 1112.240184 68.965384 
L 1114.583246 68.965384 
Q 1115.816436 68.965384 1116.489406 64.925607 
Q 1117.162376 60.885829 1117.162376 53.447887 
Q 1117.162376 46.033708 1116.489406 42.017694 
Q 1115.816436 38.00168 1114.583246 38.00168 
L 1112.240184 38.00168 
z
" clip-path="url(#p2c6f553962)" style="fill: #787800"/>
   </g>
   <g id="patch_66">
    <path d="M 1135.773354 118.127891 
Q 1134.408845 123.143945 1132.94124 125.663425 
Q 1131.473635 128.16 1129.908998 128.16 
Q 1126.373405 128.16 1124.308448 113.226358 
Q 1122.243492 98.292716 1122.243492 72.754357 
Q 1122.243492 46.91824 1124.344835 32.09912 
Q 1126.449211 17.28 1130.109126 17.28 
Q 1131.519119 17.28 1132.810854 19.295584 
Q 1134.105621 21.288263 1135.251808 25.227812 
L 1135.251808 47.330518 
Q 1134.069234 42.268655 1132.898789 39.77208 
Q 1131.728343 37.252601 1130.551834 37.252601 
Q 1128.374684 37.252601 1127.195142 46.460153 
Q 1126.0156 55.644801 1126.0156 72.754357 
Q 1126.0156 89.703582 1127.152691 98.956943 
Q 1128.289781 108.187399 1130.382028 108.187399 
Q 1130.95209 108.187399 1131.44028 107.660599 
Q 1131.928471 107.110894 1132.316598 105.965677 
L 1132.316598 85.214328 
L 1130.087901 85.214328 
L 1130.087901 66.73051 
L 1135.773354 66.73051 
L 1135.773354 118.127891 
z
" clip-path="url(#p2c6f553962)" style="fill: #787800"/>
   </g>
   <g id="patch_67">
    <path d="M 1136.485452 17.28 
L 1149.733697 17.28 
L 1149.733697 38.904689 
L 1141.395384 38.904689 
L 1141.395384 59.531316 
L 1149.239847 59.531316 
L 1149.239847 81.156005 
L 1141.395384 81.156005 
L 1141.395384 106.559074 
L 1150.015314 106.559074 
L 1150.015314 128.16 
L 1136.485452 128.16 
L 1136.485452 17.28 
z
" clip-path="url(#p2c6f553962)" style="fill: #6b296b"/>
   </g>
   <g id="patch_68">
    <path d="M 1164.257274 120.212188 
Q 1163.125524 124.151737 1161.901735 126.144416 
Q 1160.677946 128.16 1159.345072 128.16 
Q 1155.370312 128.16 1153.048862 113.226358 
Q 1150.727412 98.292716 1150.727412 72.754357 
Q 1150.727412 47.124379 1153.048862 32.213642 
Q 1155.370312 17.28 1159.345072 17.28 
Q 1160.677946 17.28 1161.901735 19.295584 
Q 1163.125524 21.288263 1164.257274 25.227812 
L 1164.257274 47.330518 
Q 1163.115298 42.108325 1162.00741 39.680463 
Q 1160.899523 37.252601 1159.675733 37.252601 
Q 1157.480412 37.252601 1156.222534 46.712101 
Q 1154.968064 56.148697 1154.968064 72.754357 
Q 1154.968064 89.291303 1156.222534 98.750804 
Q 1157.480412 108.187399 1159.675733 108.187399 
Q 1160.899523 108.187399 1162.00741 105.759537 
Q 1163.115298 103.308771 1164.257274 98.086577 
L 1164.257274 120.212188 
z
" clip-path="url(#p2c6f553962)" style="fill: #6b296b"/>
   </g>
   <g id="patch_69">
    <path d="M 1170.459053 66.446464 
Q 1171.673271 66.446464 1172.200075 63.119589 
Q 1172.726879 59.76895 1172.726879 52.117137 
Q 1172.726879 44.536614 1172.200075 41.281029 
Q 1171.673271 38.00168 1170.459053 38.00168 
L 1168.83367 38.00168 
L 1168.83367 66.446464 
L 1170.459053 66.446464 
z
M 1168.83367 86.193845 
L 1168.83367 128.16 
L 1164.969372 128.16 
L 1164.969372 17.28 
L 1170.870217 17.28 
Q 1173.831882 17.28 1175.209923 24.646652 
Q 1176.591177 31.989541 1176.591177 47.887252 
Q 1176.591177 58.865941 1175.87164 65.923669 
Q 1175.155315 72.981397 1173.709817 76.332036 
Q 1174.503235 77.662786 1175.129618 82.391702 
Q 1175.759212 87.096854 1176.401656 96.673502 
L 1178.499234 128.16 
L 1174.384383 128.16 
L 1172.556631 100.618225 
Q 1172.00413 92.301037 1171.435567 89.259323 
Q 1170.870217 86.193845 1169.925824 86.193845 
L 1168.83367 86.193845 
z
" clip-path="url(#p2c6f553962)" style="fill: #bd2e1f"/>
   </g>
   <g id="patch_70">
    <path d="M 1179.211332 17.28 
L 1192.459577 17.28 
L 1192.459577 38.904689 
L 1184.121264 38.904689 
L 1184.121264 59.531316 
L 1191.965727 59.531316 
L 1191.965727 81.156005 
L 1184.121264 81.156005 
L 1184.121264 106.559074 
L 1192.741194 106.559074 
L 1192.741194 128.16 
L 1179.211332 128.16 
L 1179.211332 17.28 
z
" clip-path="url(#p2c6f553962)" style="fill: #6b296b"/>
   </g>
   <g id="patch_71">
    <path d="M 1193.453292 17.28 
L 1197.799287 17.28 
L 1203.290839 93.322863 
L 1203.290839 17.28 
L 1206.983155 17.28 
L 1206.983155 128.16 
L 1202.633924 128.16 
L 1197.142372 52.117137 
L 1197.142372 128.16 
L 1193.453292 128.16 
L 1193.453292 17.28 
z
" clip-path="url(#p2c6f553962)" style="fill: #40ba47"/>
   </g>
   <g id="patch_72">
    <path d="M 1207.695253 17.28 
L 1221.225115 17.28 
L 1221.225115 38.904689 
L 1216.357511 38.904689 
L 1216.357511 128.16 
L 1212.572296 128.16 
L 1212.572296 38.904689 
L 1207.695253 38.904689 
L 1207.695253 17.28 
z
" clip-path="url(#p2c6f553962)" style="fill: #40ba47"/>
   </g>
   <g id="patch_73">
    <path d="M 1234.338974 22.570907 
L 1234.338974 45.200413 
Q 1232.927929 41.260863 1231.583027 39.268184 
Q 1230.2418 37.252601 1229.047556 37.252601 
Q 1227.463805 37.252601 1226.703164 39.978219 
Q 1225.946197 42.680934 1225.946197 48.407023 
Q 1225.946197 52.713043 1226.456966 55.118 
Q 1226.967735 57.500054 1228.312637 59.217881 
L 1230.19403 61.57703 
Q 1233.052866 65.173014 1234.258133 72.479504 
Q 1235.467075 79.76309 1235.467075 93.230853 
Q 1235.467075 110.890114 1233.78411 119.525057 
Q 1232.101145 128.16 1228.64335 128.16 
Q 1227.015504 128.16 1225.37296 126.21313 
Q 1223.730416 124.289163 1222.087871 120.48704 
L 1222.087871 97.239116 
Q 1223.730416 102.667449 1225.262722 105.438876 
Q 1226.795029 108.187399 1228.220772 108.187399 
Q 1229.668563 108.187399 1230.436553 105.186928 
Q 1231.204544 102.163553 1231.204544 96.574889 
Q 1231.204544 91.581739 1230.682751 88.856121 
Q 1230.160959 86.130502 1228.599255 83.977492 
L 1226.886894 81.618343 
Q 1224.314676 78.18269 1223.124107 70.67006 
Q 1221.937213 63.15743 1221.937213 50.422607 
Q 1221.937213 34.458269 1223.590781 25.869134 
Q 1225.244349 17.28 1228.345708 17.28 
Q 1229.760428 17.28 1231.252314 18.608453 
Q 1232.744199 19.936906 1234.338974 22.570907 
z
" clip-path="url(#p2c6f553962)" style="fill: #40ba47"/>
   </g>
   <g id="patch_74">
    <path d="M 1249.709035 118.127891 
Q 1248.344526 123.143945 1246.876922 125.663425 
Q 1245.409317 128.16 1243.84468 128.16 
Q 1240.309086 128.16 1238.24413 113.226358 
Q 1236.179173 98.292716 1236.179173 72.754357 
Q 1236.179173 46.91824 1238.280517 32.09912 
Q 1240.384892 17.28 1244.044808 17.28 
Q 1245.4548 17.28 1246.746535 19.295584 
Q 1248.041302 21.288263 1249.18749 25.227812 
L 1249.18749 47.330518 
Q 1248.004915 42.268655 1246.83447 39.77208 
Q 1245.664025 37.252601 1244.487515 37.252601 
Q 1242.310366 37.252601 1241.130824 46.460153 
Q 1239.951282 55.644801 1239.951282 72.754357 
Q 1239.951282 89.703582 1241.088372 98.956943 
Q 1242.225463 108.187399 1244.31771 108.187399 
Q 1244.887771 108.187399 1245.375962 107.660599 
Q 1245.864153 107.110894 1246.25228 105.965677 
L 1246.25228 85.214328 
L 1244.023582 85.214328 
L 1244.023582 66.73051 
L 1249.709035 66.73051 
L 1249.709035 118.127891 
z
" clip-path="url(#p2c6f553962)" style="fill: #787800"/>
   </g>
   <g id="patch_75">
    <path d="M 1263.950995 120.212188 
Q 1262.819246 124.151737 1261.595456 126.144416 
Q 1260.371667 128.16 1259.038793 128.16 
Q 1255.064034 128.16 1252.742584 113.226358 
Q 1250.421133 98.292716 1250.421133 72.754357 
Q 1250.421133 47.124379 1252.742584 32.213642 
Q 1255.064034 17.28 1259.038793 17.28 
Q 1260.371667 17.28 1261.595456 19.295584 
Q 1262.819246 21.288263 1263.950995 25.227812 
L 1263.950995 47.330518 
Q 1262.809019 42.108325 1261.701132 39.680463 
Q 1260.593244 37.252601 1259.369455 37.252601 
Q 1257.174133 37.252601 1255.916255 46.712101 
Q 1254.661785 56.148697 1254.661785 72.754357 
Q 1254.661785 89.291303 1255.916255 98.750804 
Q 1257.174133 108.187399 1259.369455 108.187399 
Q 1260.593244 108.187399 1261.701132 105.759537 
Q 1262.809019 103.308771 1263.950995 98.086577 
L 1263.950995 120.212188 
z
" clip-path="url(#p2c6f553962)" style="fill: #6b296b"/>
   </g>
   <g id="patch_76">
    <path d="M 1264.803902 17.28 
L 1278.052147 17.28 
L 1278.052147 38.904689 
L 1269.713834 38.904689 
L 1269.713834 59.531316 
L 1277.558297 59.531316 
L 1277.558297 81.156005 
L 1269.713834 81.156005 
L 1269.713834 128.16 
L 1264.803902 128.16 
L 1264.803902 17.28 
z
" clip-path="url(#p2c6f553962)" style="fill: #21599c"/>
   </g>
   <g id="patch_77">
    <path d="M 1292.434916 120.212188 
Q 1291.303166 124.151737 1290.079377 126.144416 
Q 1288.855587 128.16 1287.522713 128.16 
Q 1283.547954 128.16 1281.226504 113.226358 
Q 1278.905054 98.292716 1278.905054 72.754357 
Q 1278.905054 47.124379 1281.226504 32.213642 
Q 1283.547954 17.28 1287.522713 17.28 
Q 1288.855587 17.28 1290.079377 19.295584 
Q 1291.303166 21.288263 1292.434916 25.227812 
L 1292.434916 47.330518 
Q 1291.29294 42.108325 1290.185052 39.680463 
Q 1289.077165 37.252601 1287.853375 37.252601 
Q 1285.658054 37.252601 1284.400175 46.712101 
Q 1283.145706 56.148697 1283.145706 72.754357 
Q 1283.145706 89.291303 1284.400175 98.750804 
Q 1285.658054 108.187399 1287.853375 108.187399 
Q 1289.077165 108.187399 1290.185052 105.759537 
Q 1291.29294 103.308771 1292.434916 98.086577 
L 1292.434916 120.212188 
z
" clip-path="url(#p2c6f553962)" style="fill: #6b296b"/>
   </g>
   <g id="patch_78">
    <path d="M 1296.854627 38.904689 
L 1296.854627 106.559074 
L 1298.182958 106.559074 
Q 1300.454372 106.559074 1301.65326 97.861672 
Q 1302.855229 89.164269 1302.855229 72.601183 
Q 1302.855229 56.13315 1301.659424 47.530802 
Q 1300.4667 38.904689 1298.182958 38.904689 
L 1296.854627 38.904689 
z
M 1293.147014 17.28 
L 1297.054956 17.28 
Q 1300.331093 17.28 1301.933719 20.892036 
Q 1303.536345 24.480309 1304.682839 33.106421 
Q 1305.693727 40.615654 1306.18376 50.429936 
Q 1306.676876 60.220454 1306.676876 72.601183 
Q 1306.676876 85.172019 1306.18376 95.010064 
Q 1305.693727 104.84811 1304.682839 112.333579 
Q 1303.527099 120.959691 1301.909063 124.571727 
Q 1300.291028 128.16 1297.054956 128.16 
L 1293.147014 128.16 
L 1293.147014 17.28 
z
" clip-path="url(#p2c6f553962)" style="fill: #6b296b"/>
   </g>
   <g id="patch_79">
    <path d="M 1307.388974 17.28 
L 1312.298906 17.28 
L 1312.298906 106.559074 
L 1320.918836 106.559074 
L 1320.918836 128.16 
L 1307.388974 128.16 
L 1307.388974 17.28 
z
" clip-path="url(#p2c6f553962)" style="fill: #21599c"/>
   </g>
   <g id="patch_80">
    <path d="M 1335.160796 118.127891 
Q 1333.796288 123.143945 1332.328683 125.663425 
Q 1330.861078 128.16 1329.296441 128.16 
Q 1325.760847 128.16 1323.695891 113.226358 
Q 1321.630934 98.292716 1321.630934 72.754357 
Q 1321.630934 46.91824 1323.732278 32.09912 
Q 1325.836653 17.28 1329.496569 17.28 
Q 1330.906561 17.28 1332.198296 19.295584 
Q 1333.493063 21.288263 1334.639251 25.227812 
L 1334.639251 47.330518 
Q 1333.456677 42.268655 1332.286231 39.77208 
Q 1331.115786 37.252601 1329.939276 37.252601 
Q 1327.762127 37.252601 1326.582585 46.460153 
Q 1325.403043 55.644801 1325.403043 72.754357 
Q 1325.403043 89.703582 1326.540133 98.956943 
Q 1327.677224 108.187399 1329.769471 108.187399 
Q 1330.339532 108.187399 1330.827723 107.660599 
Q 1331.315914 107.110894 1331.704041 105.965677 
L 1331.704041 85.214328 
L 1329.475343 85.214328 
L 1329.475343 66.73051 
L 1335.160796 66.73051 
L 1335.160796 118.127891 
z
" clip-path="url(#p2c6f553962)" style="fill: #787800"/>
   </g>
   <g id="patch_81">
    <path d="M 1348.274656 22.570907 
L 1348.274656 45.200413 
Q 1346.863611 41.260863 1345.518709 39.268184 
Q 1344.177481 37.252601 1342.983237 37.252601 
Q 1341.399487 37.252601 1340.638845 39.978219 
Q 1339.881878 42.680934 1339.881878 48.407023 
Q 1339.881878 52.713043 1340.392647 55.118 
Q 1340.903416 57.500054 1342.248318 59.217881 
L 1344.129711 61.57703 
Q 1346.988547 65.173014 1348.193814 72.479504 
Q 1349.402757 79.76309 1349.402757 93.230853 
Q 1349.402757 110.890114 1347.719792 119.525057 
Q 1346.036827 128.16 1342.579032 128.16 
Q 1340.951186 128.16 1339.308642 126.21313 
Q 1337.666097 124.289163 1336.023553 120.48704 
L 1336.023553 97.239116 
Q 1337.666097 102.667449 1339.198404 105.438876 
Q 1340.73071 108.187399 1342.156453 108.187399 
Q 1343.604244 108.187399 1344.372235 105.186928 
Q 1345.140225 102.163553 1345.140225 96.574889 
Q 1345.140225 91.581739 1344.618433 88.856121 
Q 1344.09664 86.130502 1342.534937 83.977492 
L 1340.822575 81.618343 
Q 1338.250358 78.18269 1337.059789 70.67006 
Q 1335.872894 63.15743 1335.872894 50.422607 
Q 1335.872894 34.458269 1337.526462 25.869134 
Q 1339.180031 17.28 1342.28139 17.28 
Q 1343.696109 17.28 1345.187995 18.608453 
Q 1346.679881 19.936906 1348.274656 22.570907 
z
" clip-path="url(#p2c6f553962)" style="fill: #40ba47"/>
   </g>
   <g id="patch_82">
    <path d="M 1363.644717 118.127891 
Q 1362.280208 123.143945 1360.812603 125.663425 
Q 1359.344998 128.16 1357.780361 128.16 
Q 1354.244768 128.16 1352.179811 113.226358 
Q 1350.114855 98.292716 1350.114855 72.754357 
Q 1350.114855 46.91824 1352.216198 32.09912 
Q 1354.320574 17.28 1357.980489 17.28 
Q 1359.390482 17.28 1360.682217 19.295584 
Q 1361.976984 21.288263 1363.123171 25.227812 
L 1363.123171 47.330518 
Q 1361.940597 42.268655 1360.770152 39.77208 
Q 1359.599706 37.252601 1358.423197 37.252601 
Q 1356.246047 37.252601 1355.066505 46.460153 
Q 1353.886963 55.644801 1353.886963 72.754357 
Q 1353.886963 89.703582 1355.024054 98.956943 
Q 1356.161144 108.187399 1358.253391 108.187399 
Q 1358.823452 108.187399 1359.311643 107.660599 
Q 1359.799834 107.110894 1360.187961 105.965677 
L 1360.187961 85.214328 
L 1357.959264 85.214328 
L 1357.959264 66.73051 
L 1363.644717 66.73051 
L 1363.644717 118.127891 
z
" clip-path="url(#p2c6f553962)" style="fill: #787800"/>
   </g>
   <g id="patch_83">
    <path d="M 1376.758576 22.570907 
L 1376.758576 45.200413 
Q 1375.347531 41.260863 1374.002629 39.268184 
Q 1372.661401 37.252601 1371.467158 37.252601 
Q 1369.883407 37.252601 1369.122766 39.978219 
Q 1368.365799 42.680934 1368.365799 48.407023 
Q 1368.365799 52.713043 1368.876568 55.118 
Q 1369.387337 57.500054 1370.732239 59.217881 
L 1372.613632 61.57703 
Q 1375.472467 65.173014 1376.677735 72.479504 
Q 1377.886677 79.76309 1377.886677 93.230853 
Q 1377.886677 110.890114 1376.203712 119.525057 
Q 1374.520747 128.16 1371.062952 128.16 
Q 1369.435106 128.16 1367.792562 126.21313 
Q 1366.150018 124.289163 1364.507473 120.48704 
L 1364.507473 97.239116 
Q 1366.150018 102.667449 1367.682324 105.438876 
Q 1369.214631 108.187399 1370.640374 108.187399 
Q 1372.088165 108.187399 1372.856155 105.186928 
Q 1373.624146 102.163553 1373.624146 96.574889 
Q 1373.624146 91.581739 1373.102353 88.856121 
Q 1372.58056 86.130502 1371.018857 83.977492 
L 1369.306495 81.618343 
Q 1366.734278 78.18269 1365.543709 70.67006 
Q 1364.356815 63.15743 1364.356815 50.422607 
Q 1364.356815 34.458269 1366.010383 25.869134 
Q 1367.663951 17.28 1370.76531 17.28 
Q 1372.180029 17.28 1373.671915 18.608453 
Q 1375.163801 19.936906 1376.758576 22.570907 
z
" clip-path="url(#p2c6f553962)" style="fill: #40ba47"/>
   </g>
   <g id="patch_84">
    <path d="M 1378.598775 17.28 
L 1391.84702 17.28 
L 1391.84702 38.904689 
L 1383.508707 38.904689 
L 1383.508707 59.531316 
L 1391.35317 59.531316 
L 1391.35317 81.156005 
L 1383.508707 81.156005 
L 1383.508707 106.559074 
L 1392.128637 106.559074 
L 1392.128637 128.16 
L 1378.598775 128.16 
L 1378.598775 17.28 
z
" clip-path="url(#p2c6f553962)" style="fill: #6b296b"/>
   </g>
   <g id="patch_85">
    <path d="M 1392.840735 17.28 
L 1396.187931 17.28 
L 1399.609816 99.121132 
L 1403.026168 17.28 
L 1406.370597 17.28 
L 1401.59047 128.16 
L 1397.620862 128.16 
L 1392.840735 17.28 
z
" clip-path="url(#p2c6f553962)" style="fill: #21599c"/>
   </g>
   <g id="patch_86">
    <path d="M 1410.790309 38.904689 
L 1410.790309 106.559074 
L 1412.118639 106.559074 
Q 1414.390054 106.559074 1415.588941 97.861672 
Q 1416.790911 89.164269 1416.790911 72.601183 
Q 1416.790911 56.13315 1415.595105 47.530802 
Q 1414.402382 38.904689 1412.118639 38.904689 
L 1410.790309 38.904689 
z
M 1407.082695 17.28 
L 1410.990637 17.28 
Q 1414.266775 17.28 1415.869401 20.892036 
Q 1417.472027 24.480309 1418.618521 33.106421 
Q 1419.629408 40.615654 1420.119442 50.429936 
Q 1420.612557 60.220454 1420.612557 72.601183 
Q 1420.612557 85.172019 1420.119442 95.010064 
Q 1419.629408 104.84811 1418.618521 112.333579 
Q 1417.462781 120.959691 1415.844745 124.571727 
Q 1414.226709 128.16 1410.990637 128.16 
L 1407.082695 128.16 
L 1407.082695 17.28 
z
" clip-path="url(#p2c6f553962)" style="fill: #6b296b"/>
   </g>
   <g id="patch_87">
    <path d="M 1425.634621 17.28 
L 1430.544552 17.28 
L 1430.544552 128.16 
L 1425.634621 128.16 
L 1425.634621 17.28 
z
" clip-path="url(#p2c6f553962)" style="fill: #21599c"/>
   </g>
   <g id="patch_88">
    <path d="M 1447.968377 22.570907 
L 1447.968377 45.200413 
Q 1446.557332 41.260863 1445.21243 39.268184 
Q 1443.871202 37.252601 1442.676959 37.252601 
Q 1441.093208 37.252601 1440.332567 39.978219 
Q 1439.5756 42.680934 1439.5756 48.407023 
Q 1439.5756 52.713043 1440.086369 55.118 
Q 1440.597137 57.500054 1441.94204 59.217881 
L 1443.823433 61.57703 
Q 1446.682268 65.173014 1447.887536 72.479504 
Q 1449.096478 79.76309 1449.096478 93.230853 
Q 1449.096478 110.890114 1447.413513 119.525057 
Q 1445.730548 128.16 1442.272753 128.16 
Q 1440.644907 128.16 1439.002363 126.21313 
Q 1437.359818 124.289163 1435.717274 120.48704 
L 1435.717274 97.239116 
Q 1437.359818 102.667449 1438.892125 105.438876 
Q 1440.424431 108.187399 1441.850175 108.187399 
Q 1443.297965 108.187399 1444.065956 105.186928 
Q 1444.833947 102.163553 1444.833947 96.574889 
Q 1444.833947 91.581739 1444.312154 88.856121 
Q 1443.790361 86.130502 1442.228658 83.977492 
L 1440.516296 81.618343 
Q 1437.944079 78.18269 1436.75351 70.67006 
Q 1435.566616 63.15743 1435.566616 50.422607 
Q 1435.566616 34.458269 1437.220184 25.869134 
Q 1438.873752 17.28 1441.975111 17.28 
Q 1443.38983 17.28 1444.881716 18.608453 
Q 1446.373602 19.936906 1447.968377 22.570907 
z
" clip-path="url(#p2c6f553962)" style="fill: #40ba47"/>
   </g>
   <g id="patch_89">
    <path d="M 1462.210337 22.570907 
L 1462.210337 45.200413 
Q 1460.799292 41.260863 1459.45439 39.268184 
Q 1458.113163 37.252601 1456.918919 37.252601 
Q 1455.335168 37.252601 1454.574527 39.978219 
Q 1453.81756 42.680934 1453.81756 48.407023 
Q 1453.81756 52.713043 1454.328329 55.118 
Q 1454.839098 57.500054 1456.184 59.217881 
L 1458.065393 61.57703 
Q 1460.924228 65.173014 1462.129496 72.479504 
Q 1463.338438 79.76309 1463.338438 93.230853 
Q 1463.338438 110.890114 1461.655473 119.525057 
Q 1459.972508 128.16 1456.514713 128.16 
Q 1454.886867 128.16 1453.244323 126.21313 
Q 1451.601779 124.289163 1449.959234 120.48704 
L 1449.959234 97.239116 
Q 1451.601779 102.667449 1453.134085 105.438876 
Q 1454.666392 108.187399 1456.092135 108.187399 
Q 1457.539926 108.187399 1458.307916 105.186928 
Q 1459.075907 102.163553 1459.075907 96.574889 
Q 1459.075907 91.581739 1458.554114 88.856121 
Q 1458.032321 86.130502 1456.470618 83.977492 
L 1454.758257 81.618343 
Q 1452.186039 78.18269 1450.99547 70.67006 
Q 1449.808576 63.15743 1449.808576 50.422607 
Q 1449.808576 34.458269 1451.462144 25.869134 
Q 1453.115712 17.28 1456.217071 17.28 
Q 1457.631791 17.28 1459.123676 18.608453 
Q 1460.615562 19.936906 1462.210337 22.570907 
z
" clip-path="url(#p2c6f553962)" style="fill: #40ba47"/>
   </g>
   <g id="patch_90">
    <path d="M 1464.050536 17.28 
L 1468.396531 17.28 
L 1473.888082 93.322863 
L 1473.888082 17.28 
L 1477.580398 17.28 
L 1477.580398 128.16 
L 1473.231167 128.16 
L 1467.739616 52.117137 
L 1467.739616 128.16 
L 1464.050536 128.16 
L 1464.050536 17.28 
z
" clip-path="url(#p2c6f553962)" style="fill: #40ba47"/>
   </g>
   <g id="patch_91">
    <path d="M 1478.292496 17.28 
L 1482.638491 17.28 
L 1488.130042 93.322863 
L 1488.130042 17.28 
L 1491.822358 17.28 
L 1491.822358 128.16 
L 1487.473127 128.16 
L 1481.981576 52.117137 
L 1481.981576 128.16 
L 1478.292496 128.16 
L 1478.292496 17.28 
z
" clip-path="url(#p2c6f553962)" style="fill: #40ba47"/>
   </g>
   <g id="patch_92">
    <path d="M 1506.064319 118.127891 
Q 1504.69981 123.143945 1503.232205 125.663425 
Q 1501.7646 128.16 1500.199963 128.16 
Q 1496.664369 128.16 1494.599413 113.226358 
Q 1492.534456 98.292716 1492.534456 72.754357 
Q 1492.534456 46.91824 1494.6358 32.09912 
Q 1496.740176 17.28 1500.400091 17.28 
Q 1501.810084 17.28 1503.101818 19.295584 
Q 1504.396586 21.288263 1505.542773 25.227812 
L 1505.542773 47.330518 
Q 1504.360199 42.268655 1503.189753 39.77208 
Q 1502.019308 37.252601 1500.842798 37.252601 
Q 1498.665649 37.252601 1497.486107 46.460153 
Q 1496.306565 55.644801 1496.306565 72.754357 
Q 1496.306565 89.703582 1497.443656 98.956943 
Q 1498.580746 108.187399 1500.672993 108.187399 
Q 1501.243054 108.187399 1501.731245 107.660599 
Q 1502.219436 107.110894 1502.607563 105.965677 
L 1502.607563 85.214328 
L 1500.378865 85.214328 
L 1500.378865 66.73051 
L 1506.064319 66.73051 
L 1506.064319 118.127891 
z
" clip-path="url(#p2c6f553962)" style="fill: #787800"/>
   </g>
   <g id="patch_93">
    <path d="M 1506.776417 17.28 
L 1510.123612 17.28 
L 1513.545497 99.121132 
L 1516.961849 17.28 
L 1520.306279 17.28 
L 1515.526152 128.16 
L 1511.556544 128.16 
L 1506.776417 17.28 
z
" clip-path="url(#p2c6f553962)" style="fill: #21599c"/>
   </g>
   <g id="patch_94">
    <path d="M 1533.420138 22.570907 
L 1533.420138 45.200413 
Q 1532.009093 41.260863 1530.664191 39.268184 
Q 1529.322964 37.252601 1528.12872 37.252601 
Q 1526.544969 37.252601 1525.784328 39.978219 
Q 1525.027361 42.680934 1525.027361 48.407023 
Q 1525.027361 52.713043 1525.53813 55.118 
Q 1526.048899 57.500054 1527.393801 59.217881 
L 1529.275194 61.57703 
Q 1532.134029 65.173014 1533.339297 72.479504 
Q 1534.548239 79.76309 1534.548239 93.230853 
Q 1534.548239 110.890114 1532.865274 119.525057 
Q 1531.182309 128.16 1527.724514 128.16 
Q 1526.096668 128.16 1524.454124 126.21313 
Q 1522.81158 124.289163 1521.169035 120.48704 
L 1521.169035 97.239116 
Q 1522.81158 102.667449 1524.343886 105.438876 
Q 1525.876193 108.187399 1527.301936 108.187399 
Q 1528.749727 108.187399 1529.517717 105.186928 
Q 1530.285708 102.163553 1530.285708 96.574889 
Q 1530.285708 91.581739 1529.763915 88.856121 
Q 1529.242122 86.130502 1527.680419 83.977492 
L 1525.968057 81.618343 
Q 1523.39584 78.18269 1522.205271 70.67006 
Q 1521.018377 63.15743 1521.018377 50.422607 
Q 1521.018377 34.458269 1522.671945 25.869134 
Q 1524.325513 17.28 1527.426872 17.28 
Q 1528.841591 17.28 1530.333477 18.608453 
Q 1531.825363 19.936906 1533.420138 22.570907 
z
" clip-path="url(#p2c6f553962)" style="fill: #40ba47"/>
   </g>
   <g id="patch_95">
    <path d="M 1540.750017 66.446464 
Q 1541.964236 66.446464 1542.49104 63.119589 
Q 1543.017843 59.76895 1543.017843 52.117137 
Q 1543.017843 44.536614 1542.49104 41.281029 
Q 1541.964236 38.00168 1540.750017 38.00168 
L 1539.124635 38.00168 
L 1539.124635 66.446464 
L 1540.750017 66.446464 
z
M 1539.124635 86.193845 
L 1539.124635 128.16 
L 1535.260337 128.16 
L 1535.260337 17.28 
L 1541.161181 17.28 
Q 1544.122846 17.28 1545.500888 24.646652 
Q 1546.882142 31.989541 1546.882142 47.887252 
Q 1546.882142 58.865941 1546.162605 65.923669 
Q 1545.44628 72.981397 1544.000782 76.332036 
Q 1544.7942 77.662786 1545.420582 82.391702 
Q 1546.050177 87.096854 1546.692621 96.673502 
L 1548.790199 128.16 
L 1544.675348 128.16 
L 1542.847596 100.618225 
Q 1542.295094 92.301037 1541.726532 89.259323 
Q 1541.161181 86.193845 1540.216789 86.193845 
L 1539.124635 86.193845 
z
" clip-path="url(#p2c6f553962)" style="fill: #bd2e1f"/>
   </g>
   <g id="patch_96">
    <path d="M 1563.032159 120.212188 
Q 1561.90041 124.151737 1560.67662 126.144416 
Q 1559.452831 128.16 1558.119957 128.16 
Q 1554.145198 128.16 1551.823747 113.226358 
Q 1549.502297 98.292716 1549.502297 72.754357 
Q 1549.502297 47.124379 1551.823747 32.213642 
Q 1554.145198 17.28 1558.119957 17.28 
Q 1559.452831 17.28 1560.67662 19.295584 
Q 1561.90041 21.288263 1563.032159 25.227812 
L 1563.032159 47.330518 
Q 1561.890183 42.108325 1560.782296 39.680463 
Q 1559.674408 37.252601 1558.450619 37.252601 
Q 1556.255297 37.252601 1554.997419 46.712101 
Q 1553.742949 56.148697 1553.742949 72.754357 
Q 1553.742949 89.291303 1554.997419 98.750804 
Q 1556.255297 108.187399 1558.450619 108.187399 
Q 1559.674408 108.187399 1560.782296 105.759537 
Q 1561.890183 103.308771 1563.032159 98.086577 
L 1563.032159 120.212188 
z
" clip-path="url(#p2c6f553962)" style="fill: #6b296b"/>
   </g>
   <g id="patch_97">
    <path d="M 1563.744257 17.28 
L 1577.274119 17.28 
L 1577.274119 38.904689 
L 1572.406516 38.904689 
L 1572.406516 128.16 
L 1568.621301 128.16 
L 1568.621301 38.904689 
L 1563.744257 38.904689 
L 1563.744257 17.28 
z
" clip-path="url(#p2c6f553962)" style="fill: #40ba47"/>
   </g>
   <g id="patch_98">
    <path d="M 1583.475898 66.446464 
Q 1584.690116 66.446464 1585.21692 63.119589 
Q 1585.743724 59.76895 1585.743724 52.117137 
Q 1585.743724 44.536614 1585.21692 41.281029 
Q 1584.690116 38.00168 1583.475898 38.00168 
L 1581.850516 38.00168 
L 1581.850516 66.446464 
L 1583.475898 66.446464 
z
M 1581.850516 86.193845 
L 1581.850516 128.16 
L 1577.986217 128.16 
L 1577.986217 17.28 
L 1583.887062 17.28 
Q 1586.848727 17.28 1588.226768 24.646652 
Q 1589.608022 31.989541 1589.608022 47.887252 
Q 1589.608022 58.865941 1588.888485 65.923669 
Q 1588.172161 72.981397 1586.726663 76.332036 
Q 1587.52008 77.662786 1588.146463 82.391702 
Q 1588.776058 87.096854 1589.418501 96.673502 
L 1591.51608 128.16 
L 1587.401228 128.16 
L 1585.573476 100.618225 
Q 1585.020975 92.301037 1584.452412 89.259323 
Q 1583.887062 86.193845 1582.94267 86.193845 
L 1581.850516 86.193845 
z
" clip-path="url(#p2c6f553962)" style="fill: #bd2e1f"/>
   </g>
   <g id="patch_99">
    <path d="M 1592.228178 17.28 
L 1605.75804 17.28 
L 1605.75804 38.904689 
L 1600.890436 38.904689 
L 1600.890436 128.16 
L 1597.105221 128.16 
L 1597.105221 38.904689 
L 1592.228178 38.904689 
L 1592.228178 17.28 
z
" clip-path="url(#p2c6f553962)" style="fill: #40ba47"/>
   </g>
   <g id="patch_100">
    <path d="M 1606.470138 17.28 
L 1610.03562 17.28 
L 1610.03562 57.749061 
L 1615.174893 17.28 
L 1619.315356 17.28 
L 1612.655641 69.797102 
L 1620 128.16 
L 1615.536479 128.16 
L 1610.03562 84.48288 
L 1610.03562 128.16 
L 1606.470138 128.16 
L 1606.470138 17.28 
z
" clip-path="url(#p2c6f553962)" style="fill: #bd2e1f"/>
   </g>
   <g id="matplotlib.axis_1">
    <g id="xtick_1">
     <g id="line2d_2">
      <defs>
       <path id="maefce71027" d="M 0 0 
L 0 3.5 
" style="stroke: #000000; stroke-width: 0.8"/>
      </defs>
      <g>
       <use xlink:href="#maefce71027" x="231.764931" y="128.16" style="stroke: #000000; stroke-width: 0.8"/>
      </g>
     </g>
     <g id="text_1">
      <!-- 0 -->
      <g transform="translate(228.583681 142.758438) scale(0.1 -0.1)">
       <defs>
        <path id="DejaVuSans-30" d="M 2034 4250 
Q 1547 4250 1301 3770 
Q 1056 3291 1056 2328 
Q 1056 1369 1301 889 
Q 1547 409 2034 409 
Q 2525 409 2770 889 
Q 3016 1369 3016 2328 
Q 3016 3291 2770 3770 
Q 2525 4250 2034 4250 
z
M 2034 4750 
Q 2819 4750 3233 4129 
Q 3647 3509 3647 2328 
Q 3647 1150 3233 529 
Q 2819 -91 2034 -91 
Q 1250 -91 836 529 
Q 422 1150 422 2328 
Q 422 3509 836 4129 
Q 1250 4750 2034 4750 
z
" transform="scale(0.015625)"/>
       </defs>
       <use xlink:href="#DejaVuSans-30"/>
      </g>
     </g>
    </g>
    <g id="xtick_2">
     <g id="line2d_3">
      <g>
       <use xlink:href="#maefce71027" x="516.604135" y="128.16" style="stroke: #000000; stroke-width: 0.8"/>
      </g>
     </g>
     <g id="text_2">
      <!-- 20 -->
      <g transform="translate(510.241635 142.758438) scale(0.1 -0.1)">
       <defs>
        <path id="DejaVuSans-32" d="M 1228 531 
L 3431 531 
L 3431 0 
L 469 0 
L 469 531 
Q 828 903 1448 1529 
Q 2069 2156 2228 2338 
Q 2531 2678 2651 2914 
Q 2772 3150 2772 3378 
Q 2772 3750 2511 3984 
Q 2250 4219 1831 4219 
Q 1534 4219 1204 4116 
Q 875 4013 500 3803 
L 500 4441 
Q 881 4594 1212 4672 
Q 1544 4750 1819 4750 
Q 2544 4750 2975 4387 
Q 3406 4025 3406 3419 
Q 3406 3131 3298 2873 
Q 3191 2616 2906 2266 
Q 2828 2175 2409 1742 
Q 1991 1309 1228 531 
z
" transform="scale(0.015625)"/>
       </defs>
       <use xlink:href="#DejaVuSans-32"/>
       <use xlink:href="#DejaVuSans-30" x="63.623047"/>
      </g>
     </g>
    </g>
    <g id="xtick_3">
     <g id="line2d_4">
      <g>
       <use xlink:href="#maefce71027" x="801.443338" y="128.16" style="stroke: #000000; stroke-width: 0.8"/>
      </g>
     </g>
     <g id="text_3">
      <!-- 40 -->
      <g transform="translate(795.080838 142.758438) scale(0.1 -0.1)">
       <defs>
        <path id="DejaVuSans-34" d="M 2419 4116 
L 825 1625 
L 2419 1625 
L 2419 4116 
z
M 2253 4666 
L 3047 4666 
L 3047 1625 
L 3713 1625 
L 3713 1100 
L 3047 1100 
L 3047 0 
L 2419 0 
L 2419 1100 
L 313 1100 
L 313 1709 
L 2253 4666 
z
" transform="scale(0.015625)"/>
       </defs>
       <use xlink:href="#DejaVuSans-34"/>
       <use xlink:href="#DejaVuSans-30" x="63.623047"/>
      </g>
     </g>
    </g>
    <g id="xtick_4">
     <g id="line2d_5">
      <g>
       <use xlink:href="#maefce71027" x="1086.282542" y="128.16" style="stroke: #000000; stroke-width: 0.8"/>
      </g>
     </g>
     <g id="text_4">
      <!-- 60 -->
      <g transform="translate(1079.920042 142.758438) scale(0.1 -0.1)">
       <defs>
        <path id="DejaVuSans-36" d="M 2113 2584 
Q 1688 2584 1439 2293 
Q 1191 2003 1191 1497 
Q 1191 994 1439 701 
Q 1688 409 2113 409 
Q 2538 409 2786 701 
Q 3034 994 3034 1497 
Q 3034 2003 2786 2293 
Q 2538 2584 2113 2584 
z
M 3366 4563 
L 3366 3988 
Q 3128 4100 2886 4159 
Q 2644 4219 2406 4219 
Q 1781 4219 1451 3797 
Q 1122 3375 1075 2522 
Q 1259 2794 1537 2939 
Q 1816 3084 2150 3084 
Q 2853 3084 3261 2657 
Q 3669 2231 3669 1497 
Q 3669 778 3244 343 
Q 2819 -91 2113 -91 
Q 1303 -91 875 529 
Q 447 1150 447 2328 
Q 447 3434 972 4092 
Q 1497 4750 2381 4750 
Q 2619 4750 2861 4703 
Q 3103 4656 3366 4563 
z
" transform="scale(0.015625)"/>
       </defs>
       <use xlink:href="#DejaVuSans-36"/>
       <use xlink:href="#DejaVuSans-30" x="63.623047"/>
      </g>
     </g>
    </g>
    <g id="xtick_5">
     <g id="line2d_6">
      <g>
       <use xlink:href="#maefce71027" x="1371.121746" y="128.16" style="stroke: #000000; stroke-width: 0.8"/>
      </g>
     </g>
     <g id="text_5">
      <!-- 80 -->
      <g transform="translate(1364.759246 142.758438) scale(0.1 -0.1)">
       <defs>
        <path id="DejaVuSans-38" d="M 2034 2216 
Q 1584 2216 1326 1975 
Q 1069 1734 1069 1313 
Q 1069 891 1326 650 
Q 1584 409 2034 409 
Q 2484 409 2743 651 
Q 3003 894 3003 1313 
Q 3003 1734 2745 1975 
Q 2488 2216 2034 2216 
z
M 1403 2484 
Q 997 2584 770 2862 
Q 544 3141 544 3541 
Q 544 4100 942 4425 
Q 1341 4750 2034 4750 
Q 2731 4750 3128 4425 
Q 3525 4100 3525 3541 
Q 3525 3141 3298 2862 
Q 3072 2584 2669 2484 
Q 3125 2378 3379 2068 
Q 3634 1759 3634 1313 
Q 3634 634 3220 271 
Q 2806 -91 2034 -91 
Q 1263 -91 848 271 
Q 434 634 434 1313 
Q 434 1759 690 2068 
Q 947 2378 1403 2484 
z
M 1172 3481 
Q 1172 3119 1398 2916 
Q 1625 2713 2034 2713 
Q 2441 2713 2670 2916 
Q 2900 3119 2900 3481 
Q 2900 3844 2670 4047 
Q 2441 4250 2034 4250 
Q 1625 4250 1398 4047 
Q 1172 3844 1172 3481 
z
" transform="scale(0.015625)"/>
       </defs>
       <use xlink:href="#DejaVuSans-38"/>
       <use xlink:href="#DejaVuSans-30" x="63.623047"/>
      </g>
     </g>
    </g>
   </g>
   <g id="matplotlib.axis_2">
    <g id="ytick_1">
     <g id="line2d_7">
      <defs>
       <path id="mbab2a2cd6c" d="M 0 0 
L -3.5 0 
" style="stroke: #000000; stroke-width: 0.8"/>
      </defs>
      <g>
       <use xlink:href="#mbab2a2cd6c" x="225" y="128.16" style="stroke: #000000; stroke-width: 0.8"/>
      </g>
     </g>
     <g id="text_6">
      <!-- 0.0 -->
      <g transform="translate(202.096875 131.959219) scale(0.1 -0.1)">
       <defs>
        <path id="DejaVuSans-2e" d="M 684 794 
L 1344 794 
L 1344 0 
L 684 0 
L 684 794 
z
" transform="scale(0.015625)"/>
       </defs>
       <use xlink:href="#DejaVuSans-30"/>
       <use xlink:href="#DejaVuSans-2e" x="63.623047"/>
       <use xlink:href="#DejaVuSans-30" x="95.410156"/>
      </g>
     </g>
    </g>
    <g id="ytick_2">
     <g id="line2d_8">
      <g>
       <use xlink:href="#mbab2a2cd6c" x="225" y="100.44" style="stroke: #000000; stroke-width: 0.8"/>
      </g>
     </g>
     <g id="text_7">
      <!-- 0.5 -->
      <g transform="translate(202.096875 104.239219) scale(0.1 -0.1)">
       <defs>
        <path id="DejaVuSans-35" d="M 691 4666 
L 3169 4666 
L 3169 4134 
L 1269 4134 
L 1269 2991 
Q 1406 3038 1543 3061 
Q 1681 3084 1819 3084 
Q 2600 3084 3056 2656 
Q 3513 2228 3513 1497 
Q 3513 744 3044 326 
Q 2575 -91 1722 -91 
Q 1428 -91 1123 -41 
Q 819 9 494 109 
L 494 744 
Q 775 591 1075 516 
Q 1375 441 1709 441 
Q 2250 441 2565 725 
Q 2881 1009 2881 1497 
Q 2881 1984 2565 2268 
Q 2250 2553 1709 2553 
Q 1456 2553 1204 2497 
Q 953 2441 691 2322 
L 691 4666 
z
" transform="scale(0.015625)"/>
       </defs>
       <use xlink:href="#DejaVuSans-30"/>
       <use xlink:href="#DejaVuSans-2e" x="63.623047"/>
       <use xlink:href="#DejaVuSans-35" x="95.410156"/>
      </g>
     </g>
    </g>
    <g id="ytick_3">
     <g id="line2d_9">
      <g>
       <use xlink:href="#mbab2a2cd6c" x="225" y="72.72" style="stroke: #000000; stroke-width: 0.8"/>
      </g>
     </g>
     <g id="text_8">
      <!-- 1.0 -->
      <g transform="translate(202.096875 76.519219) scale(0.1 -0.1)">
       <defs>
        <path id="DejaVuSans-31" d="M 794 531 
L 1825 531 
L 1825 4091 
L 703 3866 
L 703 4441 
L 1819 4666 
L 2450 4666 
L 2450 531 
L 3481 531 
L 3481 0 
L 794 0 
L 794 531 
z
" transform="scale(0.015625)"/>
       </defs>
       <use xlink:href="#DejaVuSans-31"/>
       <use xlink:href="#DejaVuSans-2e" x="63.623047"/>
       <use xlink:href="#DejaVuSans-30" x="95.410156"/>
      </g>
     </g>
    </g>
    <g id="ytick_4">
     <g id="line2d_10">
      <g>
       <use xlink:href="#mbab2a2cd6c" x="225" y="45" style="stroke: #000000; stroke-width: 0.8"/>
      </g>
     </g>
     <g id="text_9">
      <!-- 1.5 -->
      <g transform="translate(202.096875 48.799219) scale(0.1 -0.1)">
       <use xlink:href="#DejaVuSans-31"/>
       <use xlink:href="#DejaVuSans-2e" x="63.623047"/>
       <use xlink:href="#DejaVuSans-35" x="95.410156"/>
      </g>
     </g>
    </g>
    <g id="ytick_5">
     <g id="line2d_11">
      <g>
       <use xlink:href="#mbab2a2cd6c" x="225" y="17.28" style="stroke: #000000; stroke-width: 0.8"/>
      </g>
     </g>
     <g id="text_10">
      <!-- 2.0 -->
      <g transform="translate(202.096875 21.079219) scale(0.1 -0.1)">
       <use xlink:href="#DejaVuSans-32"/>
       <use xlink:href="#DejaVuSans-2e" x="63.623047"/>
       <use xlink:href="#DejaVuSans-30" x="95.410156"/>
      </g>
     </g>
    </g>
   </g>
  </g>
 </g>
 <defs>
  <clipPath id="p2c6f553962">
   <rect x="225" y="17.28" width="1395" height="110.88"/>
  </clipPath>
 </defs>
</svg>
