<?xml version="1.0" encoding="utf-8" standalone="no"?>
<!DOCTYPE svg PUBLIC "-//W3C//DTD SVG 1.1//EN"
  "http://www.w3.org/Graphics/SVG/1.1/DTD/svg11.dtd">
<svg xmlns:xlink="http://www.w3.org/1999/xlink" width="1800pt" height="144pt" viewBox="0 0 1800 144" xmlns="http://www.w3.org/2000/svg" version="1.1">
 <metadata>
  <rdf:RDF xmlns:dc="http://purl.org/dc/elements/1.1/" xmlns:cc="http://creativecommons.org/ns#" xmlns:rdf="http://www.w3.org/1999/02/22-rdf-syntax-ns#">
   <cc:Work>
    <dc:type rdf:resource="http://purl.org/dc/dcmitype/StillImage"/>
    <dc:date>2025-05-09T21:10:13.731171</dc:date>
    <dc:format>image/svg+xml</dc:format>
    <dc:creator>
     <cc:Agent>
      <dc:title>Matplotlib v3.8.0, https://matplotlib.org/</dc:title>
     </cc:Agent>
    </dc:creator>
   </cc:Work>
  </rdf:RDF>
 </metadata>
 <defs>
  <style type="text/css">*{stroke-linejoin: round; stroke-linecap: butt}</style>
 </defs>
 <g id="figure_1">
  <g id="patch_1">
   <path d="M 0 144 
L 1800 144 
L 1800 0 
L 0 0 
z
" style="fill: #ffffff"/>
  </g>
  <g id="axes_1">
   <g id="patch_2">
    <path d="M 225 128.16 
L 1620 128.16 
L 1620 17.28 
L 225 17.28 
z
" style="fill: #ffffff"/>
   </g>
   <g id="line2d_1">
    <path d="M 225 128.16 
L 1620 128.16 
" clip-path="url(#p7fe667c740)" style="fill: none; stroke: #000000; stroke-width: 1.5; stroke-linecap: square"/>
   </g>
   <g id="patch_3">
    <path d="M 225 17.28 
L 228.342762 17.28 
L 230.661516 76.617197 
L 232.995554 17.28 
L 236.331766 17.28 
L 236.331766 128.16 
L 233.849258 128.16 
L 233.849258 47.055534 
L 231.502119 106.844235 
L 229.836197 106.844235 
L 227.489058 47.055534 
L 227.489058 128.16 
L 225 128.16 
L 225 17.28 
z
" clip-path="url(#p7fe667c740)" style="fill: #21599c"/>
   </g>
   <g id="patch_4">
    <path d="M 236.928174 17.28 
L 240.188666 17.28 
L 240.188666 59.531316 
L 244.999449 59.531316 
L 244.999449 17.28 
L 248.25994 17.28 
L 248.25994 128.16 
L 244.999449 128.16 
L 244.999449 81.156005 
L 240.188666 81.156005 
L 240.188666 128.16 
L 236.928174 128.16 
L 236.928174 17.28 
z
" clip-path="url(#p7fe667c740)" style="fill: #177875"/>
   </g>
   <g id="patch_5">
    <path d="M 248.856349 17.28 
L 251.65975 17.28 
L 254.525707 99.121132 
L 257.38703 17.28 
L 260.188115 17.28 
L 256.184579 128.16 
L 252.859884 128.16 
L 248.856349 17.28 
z
" clip-path="url(#p7fe667c740)" style="fill: #21599c"/>
   </g>
   <g id="patch_6">
    <path d="M 272.116289 118.127891 
Q 270.973462 123.143945 269.744288 125.663425 
Q 268.515114 128.16 267.204672 128.16 
Q 264.24348 128.16 262.514002 113.226358 
Q 260.784523 98.292716 260.784523 72.754357 
Q 260.784523 46.91824 262.544477 32.09912 
Q 264.30697 17.28 267.372287 17.28 
Q 268.553208 17.28 269.635084 19.295584 
Q 270.7195 21.288263 271.679475 25.227812 
L 271.679475 47.330518 
Q 270.689025 42.268655 269.708733 39.77208 
Q 268.728442 37.252601 267.743071 37.252601 
Q 265.919626 37.252601 264.931716 46.460153 
Q 263.943805 55.644801 263.943805 72.754357 
Q 263.943805 89.703582 264.896161 98.956943 
Q 265.848517 108.187399 267.600852 108.187399 
Q 268.0783 108.187399 268.487178 107.660599 
Q 268.896056 107.110894 269.221127 105.965677 
L 269.221127 85.214328 
L 267.354509 85.214328 
L 267.354509 66.73051 
L 272.116289 66.73051 
L 272.116289 118.127891 
z
" clip-path="url(#p7fe667c740)" style="fill: #787800"/>
   </g>
   <g id="patch_7">
    <path d="M 272.712698 17.28 
L 276.352631 17.28 
L 280.952011 93.322863 
L 280.952011 17.28 
L 284.044463 17.28 
L 284.044463 128.16 
L 280.40182 128.16 
L 275.80244 52.117137 
L 275.80244 128.16 
L 272.712698 128.16 
L 272.712698 17.28 
z
" clip-path="url(#p7fe667c740)" style="fill: #40ba47"/>
   </g>
   <g id="patch_8">
    <path d="M 284.640872 17.28 
L 288.280806 17.28 
L 292.880185 93.322863 
L 292.880185 17.28 
L 295.972638 17.28 
L 295.972638 128.16 
L 292.329994 128.16 
L 287.730615 52.117137 
L 287.730615 128.16 
L 284.640872 128.16 
L 284.640872 17.28 
z
" clip-path="url(#p7fe667c740)" style="fill: #40ba47"/>
   </g>
   <g id="patch_9">
    <path d="M 300.178804 17.28 
L 304.291055 17.28 
L 304.291055 128.16 
L 300.178804 128.16 
L 300.178804 17.28 
z
" clip-path="url(#p7fe667c740)" style="fill: #21599c"/>
   </g>
   <g id="patch_10">
    <path d="M 313.095034 66.446464 
Q 314.111987 66.446464 314.553205 63.119589 
Q 314.994423 59.76895 314.994423 52.117137 
Q 314.994423 44.536614 314.553205 41.281029 
Q 314.111987 38.00168 313.095034 38.00168 
L 311.733715 38.00168 
L 311.733715 66.446464 
L 313.095034 66.446464 
z
M 311.733715 86.193845 
L 311.733715 128.16 
L 308.497221 128.16 
L 308.497221 17.28 
L 313.439399 17.28 
Q 315.919904 17.28 317.074066 24.646652 
Q 318.230917 31.989541 318.230917 47.887252 
Q 318.230917 58.865941 317.628278 65.923669 
Q 317.02833 72.981397 315.817671 76.332036 
Q 316.482188 77.662786 317.006807 82.391702 
Q 317.534116 87.096854 318.072186 96.673502 
L 319.828987 128.16 
L 316.382645 128.16 
L 314.851834 100.618225 
Q 314.389094 92.301037 313.912901 89.259323 
Q 313.439399 86.193845 312.648435 86.193845 
L 311.733715 86.193845 
z
" clip-path="url(#p7fe667c740)" style="fill: #bd2e1f"/>
   </g>
   <g id="patch_11">
    <path d="M 320.425395 17.28 
L 323.41162 17.28 
L 323.41162 57.749061 
L 327.715953 17.28 
L 331.183747 17.28 
L 325.605986 69.797102 
L 331.757161 128.16 
L 328.018796 128.16 
L 323.41162 84.48288 
L 323.41162 128.16 
L 320.425395 128.16 
L 320.425395 17.28 
z
" clip-path="url(#p7fe667c740)" style="fill: #bd2e1f"/>
   </g>
   <g id="patch_12">
    <path d="M 335.963327 17.28 
L 340.075579 17.28 
L 340.075579 128.16 
L 335.963327 128.16 
L 335.963327 17.28 
z
" clip-path="url(#p7fe667c740)" style="fill: #21599c"/>
   </g>
   <g id="patch_13">
    <path d="M 348.879557 66.446464 
Q 349.89651 66.446464 350.337728 63.119589 
Q 350.778946 59.76895 350.778946 52.117137 
Q 350.778946 44.536614 350.337728 41.281029 
Q 349.89651 38.00168 348.879557 38.00168 
L 347.518239 38.00168 
L 347.518239 66.446464 
L 348.879557 66.446464 
z
M 347.518239 86.193845 
L 347.518239 128.16 
L 344.281744 128.16 
L 344.281744 17.28 
L 349.223922 17.28 
Q 351.704428 17.28 352.858589 24.646652 
Q 354.015441 31.989541 354.015441 47.887252 
Q 354.015441 58.865941 353.412802 65.923669 
Q 352.812853 72.981397 351.602194 76.332036 
Q 352.266711 77.662786 352.79133 82.391702 
Q 353.318639 87.096854 353.85671 96.673502 
L 355.61351 128.16 
L 352.167168 128.16 
L 350.636357 100.618225 
Q 350.173617 92.301037 349.697424 89.259323 
Q 349.223922 86.193845 348.432959 86.193845 
L 347.518239 86.193845 
z
" clip-path="url(#p7fe667c740)" style="fill: #bd2e1f"/>
   </g>
   <g id="patch_14">
    <path d="M 356.209919 17.28 
L 367.30582 17.28 
L 367.30582 38.904689 
L 360.32217 38.904689 
L 360.32217 59.531316 
L 366.892202 59.531316 
L 366.892202 81.156005 
L 360.32217 81.156005 
L 360.32217 106.559074 
L 367.541684 106.559074 
L 367.541684 128.16 
L 356.209919 128.16 
L 356.209919 17.28 
z
" clip-path="url(#p7fe667c740)" style="fill: #6b296b"/>
   </g>
   <g id="patch_15">
    <path d="M 368.138093 17.28 
L 370.941495 17.28 
L 373.807451 99.121132 
L 376.668774 17.28 
L 379.469859 17.28 
L 375.466324 128.16 
L 372.141629 128.16 
L 368.138093 17.28 
z
" clip-path="url(#p7fe667c740)" style="fill: #21599c"/>
   </g>
   <g id="patch_16">
    <path d="M 384.66408 66.446464 
Q 385.681034 66.446464 386.122252 63.119589 
Q 386.563469 59.76895 386.563469 52.117137 
Q 386.563469 44.536614 386.122252 41.281029 
Q 385.681034 38.00168 384.66408 38.00168 
L 383.302762 38.00168 
L 383.302762 66.446464 
L 384.66408 66.446464 
z
M 383.302762 86.193845 
L 383.302762 128.16 
L 380.066268 128.16 
L 380.066268 17.28 
L 385.008446 17.28 
Q 387.488951 17.28 388.643112 24.646652 
Q 389.799964 31.989541 389.799964 47.887252 
Q 389.799964 58.865941 389.197325 65.923669 
Q 388.597376 72.981397 387.386717 76.332036 
Q 388.051235 77.662786 388.575853 82.391702 
Q 389.103162 87.096854 389.641233 96.673502 
L 391.398033 128.16 
L 387.951691 128.16 
L 386.420881 100.618225 
Q 385.95814 92.301037 385.481948 89.259323 
Q 385.008446 86.193845 384.217482 86.193845 
L 383.302762 86.193845 
z
" clip-path="url(#p7fe667c740)" style="fill: #bd2e1f"/>
   </g>
   <g id="patch_17">
    <path d="M 391.994442 17.28 
L 403.090343 17.28 
L 403.090343 38.904689 
L 396.106694 38.904689 
L 396.106694 59.531316 
L 402.676725 59.531316 
L 402.676725 81.156005 
L 396.106694 81.156005 
L 396.106694 106.559074 
L 403.326208 106.559074 
L 403.326208 128.16 
L 391.994442 128.16 
L 391.994442 17.28 
z
" clip-path="url(#p7fe667c740)" style="fill: #6b296b"/>
   </g>
   <g id="patch_18">
    <path d="M 407.532374 17.28 
L 411.644625 17.28 
L 411.644625 128.16 
L 407.532374 128.16 
L 407.532374 17.28 
z
" clip-path="url(#p7fe667c740)" style="fill: #21599c"/>
   </g>
   <g id="patch_19">
    <path d="M 415.850791 17.28 
L 418.837015 17.28 
L 418.837015 57.749061 
L 423.141349 17.28 
L 426.609142 17.28 
L 421.031381 69.797102 
L 427.182557 128.16 
L 423.444191 128.16 
L 418.837015 84.48288 
L 418.837015 128.16 
L 415.850791 128.16 
L 415.850791 17.28 
z
" clip-path="url(#p7fe667c740)" style="fill: #bd2e1f"/>
   </g>
   <g id="patch_20">
    <path d="M 433.747029 111.578719 
L 433.525115 111.578719 
Q 430.80313 111.578719 429.289867 99.152512 
Q 427.778965 86.706798 427.778965 64.526897 
Q 427.778965 42.38601 429.287507 29.842759 
Q 430.796048 17.28 433.444848 17.28 
Q 436.121978 17.28 437.616354 29.725714 
Q 439.110731 42.151921 439.110731 64.526897 
Q 439.110731 79.879212 438.317507 90.978916 
Q 437.524284 102.078621 436.034629 107.677241 
L 438.253766 128.16 
L 435.545946 128.16 
L 433.747029 111.578719 
z
M 433.444848 34.290443 
Q 432.146417 34.290443 431.431099 42.210443 
Q 430.715781 50.130443 430.715781 64.526897 
Q 430.715781 79.157438 431.414574 86.940887 
Q 432.115727 94.704828 433.444848 94.704828 
Q 434.750362 94.704828 435.46568 86.784828 
Q 436.180997 78.84532 436.180997 64.526897 
Q 436.180997 50.130443 435.46568 42.210443 
Q 434.750362 34.290443 433.444848 34.290443 
z
" clip-path="url(#p7fe667c740)" style="fill: #40ba47"/>
   </g>
   <g id="patch_21">
    <path d="M 447.556664 107.961114 
L 443.198649 107.961114 
L 442.510541 128.16 
L 439.70714 128.16 
L 443.710675 17.28 
L 447.03537 17.28 
L 451.038906 128.16 
L 448.237821 128.16 
L 447.556664 107.961114 
z
M 443.893707 87.382015 
L 446.854655 87.382015 
L 445.376498 43.277154 
L 443.893707 87.382015 
z
" clip-path="url(#p7fe667c740)" style="fill: #21599c"/>
   </g>
   <g id="patch_22">
    <path d="M 451.635314 17.28 
L 454.768214 17.28 
L 457.298816 56.798526 
L 459.827038 17.28 
L 462.96708 17.28 
L 458.734332 81.441166 
L 458.734332 128.16 
L 455.870443 128.16 
L 455.870443 81.441166 
L 451.635314 17.28 
z
" clip-path="url(#p7fe667c740)" style="fill: #177875"/>
   </g>
   <g id="patch_23">
    <path d="M 467.173246 17.28 
L 471.285497 17.28 
L 471.285497 128.16 
L 467.173246 128.16 
L 467.173246 17.28 
z
" clip-path="url(#p7fe667c740)" style="fill: #21599c"/>
   </g>
   <g id="patch_24">
    <path d="M 483.341187 107.961114 
L 478.983172 107.961114 
L 478.295065 128.16 
L 475.491663 128.16 
L 479.495198 17.28 
L 482.819894 17.28 
L 486.823429 128.16 
L 484.022344 128.16 
L 483.341187 107.961114 
z
M 479.67823 87.382015 
L 482.639178 87.382015 
L 481.161021 43.277154 
L 479.67823 87.382015 
z
" clip-path="url(#p7fe667c740)" style="fill: #21599c"/>
   </g>
   <g id="patch_25">
    <path d="M 493.387901 111.578719 
L 493.165987 111.578719 
Q 490.444003 111.578719 488.93074 99.152512 
Q 487.419838 86.706798 487.419838 64.526897 
Q 487.419838 42.38601 488.928379 29.842759 
Q 490.43692 17.28 493.08572 17.28 
Q 495.76285 17.28 497.257227 29.725714 
Q 498.751603 42.151921 498.751603 64.526897 
Q 498.751603 79.879212 497.95838 90.978916 
Q 497.165156 102.078621 495.675501 107.677241 
L 497.894638 128.16 
L 495.186819 128.16 
L 493.387901 111.578719 
z
M 493.08572 34.290443 
Q 491.787289 34.290443 491.071971 42.210443 
Q 490.356653 50.130443 490.356653 64.526897 
Q 490.356653 79.157438 491.055446 86.940887 
Q 491.756599 94.704828 493.08572 94.704828 
Q 494.391234 94.704828 495.106552 86.784828 
Q 495.82187 78.84532 495.82187 64.526897 
Q 495.82187 50.130443 495.106552 42.210443 
Q 494.391234 34.290443 493.08572 34.290443 
z
" clip-path="url(#p7fe667c740)" style="fill: #40ba47"/>
   </g>
   <g id="patch_26">
    <path d="M 499.348012 17.28 
L 502.334236 17.28 
L 502.334236 57.749061 
L 506.63857 17.28 
L 510.106363 17.28 
L 504.528602 69.797102 
L 510.679778 128.16 
L 506.941412 128.16 
L 502.334236 84.48288 
L 502.334236 128.16 
L 499.348012 128.16 
L 499.348012 17.28 
z
" clip-path="url(#p7fe667c740)" style="fill: #bd2e1f"/>
   </g>
   <g id="patch_27">
    <path d="M 511.276186 17.28 
L 515.388438 17.28 
L 515.388438 106.559074 
L 522.607952 106.559074 
L 522.607952 128.16 
L 511.276186 128.16 
L 511.276186 17.28 
z
" clip-path="url(#p7fe667c740)" style="fill: #21599c"/>
   </g>
   <g id="patch_28">
    <path d="M 526.309626 38.904689 
L 526.309626 106.559074 
L 527.422152 106.559074 
Q 529.324547 106.559074 530.32866 97.861672 
Q 531.335354 89.164269 531.335354 72.601183 
Q 531.335354 56.13315 530.333823 47.530802 
Q 529.334872 38.904689 527.422152 38.904689 
L 526.309626 38.904689 
z
M 523.204361 17.28 
L 526.477408 17.28 
Q 529.221296 17.28 530.563555 20.892036 
Q 531.905815 24.480309 532.866046 33.106421 
Q 533.712702 40.615654 534.123124 50.429936 
Q 534.536127 60.220454 534.536127 72.601183 
Q 534.536127 85.172019 534.123124 95.010064 
Q 533.712702 104.84811 532.866046 112.333579 
Q 531.898071 120.959691 530.542905 124.571727 
Q 529.18774 128.16 526.477408 128.16 
L 523.204361 128.16 
L 523.204361 17.28 
z
" clip-path="url(#p7fe667c740)" style="fill: #6b296b"/>
   </g>
   <g id="patch_29">
    <path d="M 538.742292 17.28 
L 542.854544 17.28 
L 542.854544 128.16 
L 538.742292 128.16 
L 538.742292 17.28 
z
" clip-path="url(#p7fe667c740)" style="fill: #21599c"/>
   </g>
   <g id="patch_30">
    <path d="M 557.447649 22.570907 
L 557.447649 45.200413 
Q 556.265846 41.260863 555.13944 39.268184 
Q 554.016112 37.252601 553.015888 37.252601 
Q 551.689437 37.252601 551.052372 39.978219 
Q 550.418384 42.680934 550.418384 48.407023 
Q 550.418384 52.713043 550.846172 55.118 
Q 551.27396 57.500054 552.400366 59.217881 
L 553.976103 61.57703 
Q 556.370485 65.173014 557.379941 72.479504 
Q 558.392475 79.76309 558.392475 93.230853 
Q 558.392475 110.890114 556.982929 119.525057 
Q 555.573383 128.16 552.677351 128.16 
Q 551.313969 128.16 549.938277 126.21313 
Q 548.562584 124.289163 547.186892 120.48704 
L 547.186892 97.239116 
Q 548.562584 102.667449 549.845948 105.438876 
Q 551.129312 108.187399 552.323425 108.187399 
Q 553.536004 108.187399 554.179225 105.186928 
Q 554.822446 102.163553 554.822446 96.574889 
Q 554.822446 91.581739 554.385425 88.856121 
Q 553.948404 86.130502 552.640419 83.977492 
L 551.206252 81.618343 
Q 549.051924 78.18269 548.054778 70.67006 
Q 547.06071 63.15743 547.06071 50.422607 
Q 547.06071 34.458269 548.445635 25.869134 
Q 549.83056 17.28 552.428064 17.28 
Q 553.612945 17.28 554.862455 18.608453 
Q 556.111965 19.936906 557.447649 22.570907 
z
" clip-path="url(#p7fe667c740)" style="fill: #40ba47"/>
   </g>
   <g id="patch_31">
    <path d="M 558.988884 17.28 
L 563.101136 17.28 
L 563.101136 106.559074 
L 570.32065 106.559074 
L 570.32065 128.16 
L 558.988884 128.16 
L 558.988884 17.28 
z
" clip-path="url(#p7fe667c740)" style="fill: #21599c"/>
   </g>
   <g id="patch_32">
    <path d="M 570.917059 17.28 
L 582.248824 17.28 
L 582.248824 38.904689 
L 578.172024 38.904689 
L 578.172024 128.16 
L 575.001765 128.16 
L 575.001765 38.904689 
L 570.917059 38.904689 
L 570.917059 17.28 
z
" clip-path="url(#p7fe667c740)" style="fill: #40ba47"/>
   </g>
   <g id="patch_33">
    <path d="M 593.232172 22.570907 
L 593.232172 45.200413 
Q 592.050369 41.260863 590.923963 39.268184 
Q 589.800635 37.252601 588.800411 37.252601 
Q 587.473961 37.252601 586.836895 39.978219 
Q 586.202907 42.680934 586.202907 48.407023 
Q 586.202907 52.713043 586.630695 55.118 
Q 587.058483 57.500054 588.184889 59.217881 
L 589.760626 61.57703 
Q 592.155008 65.173014 593.164465 72.479504 
Q 594.176999 79.76309 594.176999 93.230853 
Q 594.176999 110.890114 592.767453 119.525057 
Q 591.357907 128.16 588.461874 128.16 
Q 587.098492 128.16 585.7228 126.21313 
Q 584.347107 124.289163 582.971415 120.48704 
L 582.971415 97.239116 
Q 584.347107 102.667449 585.630471 105.438876 
Q 586.913835 108.187399 588.107949 108.187399 
Q 589.320528 108.187399 589.963749 105.186928 
Q 590.606969 102.163553 590.606969 96.574889 
Q 590.606969 91.581739 590.169948 88.856121 
Q 589.732928 86.130502 588.424943 83.977492 
L 586.990776 81.618343 
Q 584.836448 78.18269 583.839302 70.67006 
Q 582.845233 63.15743 582.845233 50.422607 
Q 582.845233 34.458269 584.230158 25.869134 
Q 585.615083 17.28 588.212588 17.28 
Q 589.397468 17.28 590.646978 18.608453 
Q 591.896489 19.936906 593.232172 22.570907 
z
" clip-path="url(#p7fe667c740)" style="fill: #40ba47"/>
   </g>
   <g id="patch_34">
    <path d="M 594.773407 17.28 
L 597.906307 17.28 
L 600.43691 56.798526 
L 602.965131 17.28 
L 606.105173 17.28 
L 601.872425 81.441166 
L 601.872425 128.16 
L 599.008536 128.16 
L 599.008536 81.441166 
L 594.773407 17.28 
z
" clip-path="url(#p7fe667c740)" style="fill: #177875"/>
   </g>
   <g id="patch_35">
    <path d="M 618.033348 118.127891 
Q 616.89052 123.143945 615.661346 125.663425 
Q 614.432172 128.16 613.121731 128.16 
Q 610.160539 128.16 608.43106 113.226358 
Q 606.701582 98.292716 606.701582 72.754357 
Q 606.701582 46.91824 608.461536 32.09912 
Q 610.224029 17.28 613.289345 17.28 
Q 614.470267 17.28 615.552143 19.295584 
Q 616.636559 21.288263 617.596534 25.227812 
L 617.596534 47.330518 
Q 616.606084 42.268655 615.625792 39.77208 
Q 614.6455 37.252601 613.660129 37.252601 
Q 611.836685 37.252601 610.848774 46.460153 
Q 609.860864 55.644801 609.860864 72.754357 
Q 609.860864 89.703582 610.81322 98.956943 
Q 611.765576 108.187399 613.517911 108.187399 
Q 613.995358 108.187399 614.404237 107.660599 
Q 614.813115 107.110894 615.138186 105.965677 
L 615.138186 85.214328 
L 613.271568 85.214328 
L 613.271568 66.73051 
L 618.033348 66.73051 
L 618.033348 118.127891 
z
" clip-path="url(#p7fe667c740)" style="fill: #787800"/>
   </g>
   <g id="patch_36">
    <path d="M 618.629756 17.28 
L 621.615981 17.28 
L 621.615981 57.749061 
L 625.920314 17.28 
L 629.388107 17.28 
L 623.810347 69.797102 
L 629.961522 128.16 
L 626.223156 128.16 
L 621.615981 84.48288 
L 621.615981 128.16 
L 618.629756 128.16 
L 618.629756 17.28 
z
" clip-path="url(#p7fe667c740)" style="fill: #bd2e1f"/>
   </g>
   <g id="patch_37">
    <path d="M 634.167688 17.28 
L 638.279939 17.28 
L 638.279939 128.16 
L 634.167688 128.16 
L 634.167688 17.28 
z
" clip-path="url(#p7fe667c740)" style="fill: #21599c"/>
   </g>
   <g id="patch_38">
    <path d="M 642.486105 17.28 
L 653.582006 17.28 
L 653.582006 38.904689 
L 646.598357 38.904689 
L 646.598357 59.531316 
L 653.168388 59.531316 
L 653.168388 81.156005 
L 646.598357 81.156005 
L 646.598357 106.559074 
L 653.817871 106.559074 
L 653.817871 128.16 
L 642.486105 128.16 
L 642.486105 17.28 
z
" clip-path="url(#p7fe667c740)" style="fill: #6b296b"/>
   </g>
   <g id="patch_39">
    <path d="M 659.012092 66.446464 
Q 660.029046 66.446464 660.470264 63.119589 
Q 660.911481 59.76895 660.911481 52.117137 
Q 660.911481 44.536614 660.470264 41.281029 
Q 660.029046 38.00168 659.012092 38.00168 
L 657.650774 38.00168 
L 657.650774 66.446464 
L 659.012092 66.446464 
z
M 657.650774 86.193845 
L 657.650774 128.16 
L 654.41428 128.16 
L 654.41428 17.28 
L 659.356458 17.28 
Q 661.836963 17.28 662.991124 24.646652 
Q 664.147976 31.989541 664.147976 47.887252 
Q 664.147976 58.865941 663.545337 65.923669 
Q 662.945388 72.981397 661.734729 76.332036 
Q 662.399247 77.662786 662.923865 82.391702 
Q 663.451174 87.096854 663.989245 96.673502 
L 665.746045 128.16 
L 662.299703 128.16 
L 660.768893 100.618225 
Q 660.306152 92.301037 659.82996 89.259323 
Q 659.356458 86.193845 658.565494 86.193845 
L 657.650774 86.193845 
z
" clip-path="url(#p7fe667c740)" style="fill: #bd2e1f"/>
   </g>
   <g id="patch_40">
    <path d="M 666.342454 17.28 
L 669.982387 17.28 
L 674.581767 93.322863 
L 674.581767 17.28 
L 677.67422 17.28 
L 677.67422 128.16 
L 674.031576 128.16 
L 669.432196 52.117137 
L 669.432196 128.16 
L 666.342454 128.16 
L 666.342454 17.28 
z
" clip-path="url(#p7fe667c740)" style="fill: #40ba47"/>
   </g>
   <g id="patch_41">
    <path d="M 678.270628 17.28 
L 689.366529 17.28 
L 689.366529 38.904689 
L 682.38288 38.904689 
L 682.38288 59.531316 
L 688.952911 59.531316 
L 688.952911 81.156005 
L 682.38288 81.156005 
L 682.38288 106.559074 
L 689.602394 106.559074 
L 689.602394 128.16 
L 678.270628 128.16 
L 678.270628 17.28 
z
" clip-path="url(#p7fe667c740)" style="fill: #6b296b"/>
   </g>
   <g id="patch_42">
    <path d="M 690.198803 17.28 
L 693.002204 17.28 
L 695.868161 99.121132 
L 698.729484 17.28 
L 701.530569 17.28 
L 697.527033 128.16 
L 694.202338 128.16 
L 690.198803 17.28 
z
" clip-path="url(#p7fe667c740)" style="fill: #21599c"/>
   </g>
   <g id="patch_43">
    <path d="M 705.232243 38.904689 
L 705.232243 106.559074 
L 706.344769 106.559074 
Q 708.247163 106.559074 709.251277 97.861672 
Q 710.257971 89.164269 710.257971 72.601183 
Q 710.257971 56.13315 709.256439 47.530802 
Q 708.257488 38.904689 706.344769 38.904689 
L 705.232243 38.904689 
z
M 702.126977 17.28 
L 705.400025 17.28 
Q 708.143913 17.28 709.486172 20.892036 
Q 710.828431 24.480309 711.788663 33.106421 
Q 712.635319 40.615654 713.04574 50.429936 
Q 713.458743 60.220454 713.458743 72.601183 
Q 713.458743 85.172019 713.04574 95.010064 
Q 712.635319 104.84811 711.788663 112.333579 
Q 710.820687 120.959691 709.465522 124.571727 
Q 708.110356 128.16 705.400025 128.16 
L 702.126977 128.16 
L 702.126977 17.28 
z
" clip-path="url(#p7fe667c740)" style="fill: #6b296b"/>
   </g>
   <g id="patch_44">
    <path d="M 717.664909 17.28 
L 721.77716 17.28 
L 721.77716 128.16 
L 717.664909 128.16 
L 717.664909 17.28 
z
" clip-path="url(#p7fe667c740)" style="fill: #21599c"/>
   </g>
   <g id="patch_45">
    <path d="M 736.370265 22.570907 
L 736.370265 45.200413 
Q 735.188462 41.260863 734.062057 39.268184 
Q 732.938728 37.252601 731.938505 37.252601 
Q 730.612054 37.252601 729.974988 39.978219 
Q 729.341 42.680934 729.341 48.407023 
Q 729.341 52.713043 729.768788 55.118 
Q 730.196576 57.500054 731.322982 59.217881 
L 732.898719 61.57703 
Q 735.293101 65.173014 736.302558 72.479504 
Q 737.315092 79.76309 737.315092 93.230853 
Q 737.315092 110.890114 735.905546 119.525057 
Q 734.496 128.16 731.599967 128.16 
Q 730.236585 128.16 728.860893 126.21313 
Q 727.485201 124.289163 726.109508 120.48704 
L 726.109508 97.239116 
Q 727.485201 102.667449 728.768565 105.438876 
Q 730.051929 108.187399 731.246042 108.187399 
Q 732.458621 108.187399 733.101842 105.186928 
Q 733.745063 102.163553 733.745063 96.574889 
Q 733.745063 91.581739 733.308042 88.856121 
Q 732.871021 86.130502 731.563036 83.977492 
L 730.128869 81.618343 
Q 727.974541 78.18269 726.977395 70.67006 
Q 725.983326 63.15743 725.983326 50.422607 
Q 725.983326 34.458269 727.368251 25.869134 
Q 728.753177 17.28 731.350681 17.28 
Q 732.535561 17.28 733.785071 18.608453 
Q 735.034582 19.936906 736.370265 22.570907 
z
" clip-path="url(#p7fe667c740)" style="fill: #40ba47"/>
   </g>
   <g id="patch_46">
    <path d="M 737.911501 17.28 
L 740.714902 17.28 
L 743.580859 99.121132 
L 746.442182 17.28 
L 749.243266 17.28 
L 745.239731 128.16 
L 741.915036 128.16 
L 737.911501 17.28 
z
" clip-path="url(#p7fe667c740)" style="fill: #21599c"/>
   </g>
   <g id="patch_47">
    <path d="M 749.839675 17.28 
L 752.825899 17.28 
L 752.825899 57.749061 
L 757.130233 17.28 
L 760.598026 17.28 
L 755.020265 69.797102 
L 761.171441 128.16 
L 757.433075 128.16 
L 752.825899 84.48288 
L 752.825899 128.16 
L 749.839675 128.16 
L 749.839675 17.28 
z
" clip-path="url(#p7fe667c740)" style="fill: #bd2e1f"/>
   </g>
   <g id="patch_48">
    <path d="M 766.365662 66.446464 
Q 767.382616 66.446464 767.823834 63.119589 
Q 768.265051 59.76895 768.265051 52.117137 
Q 768.265051 44.536614 767.823834 41.281029 
Q 767.382616 38.00168 766.365662 38.00168 
L 765.004344 38.00168 
L 765.004344 66.446464 
L 766.365662 66.446464 
z
M 765.004344 86.193845 
L 765.004344 128.16 
L 761.76785 128.16 
L 761.76785 17.28 
L 766.710027 17.28 
Q 769.190533 17.28 770.344694 24.646652 
Q 771.501546 31.989541 771.501546 47.887252 
Q 771.501546 58.865941 770.898907 65.923669 
Q 770.298958 72.981397 769.088299 76.332036 
Q 769.752816 77.662786 770.277435 82.391702 
Q 770.804744 87.096854 771.342815 96.673502 
L 773.099615 128.16 
L 769.653273 128.16 
L 768.122463 100.618225 
Q 767.659722 92.301037 767.18353 89.259323 
Q 766.710027 86.193845 765.919064 86.193845 
L 765.004344 86.193845 
z
" clip-path="url(#p7fe667c740)" style="fill: #bd2e1f"/>
   </g>
   <g id="patch_49">
    <path d="M 773.696024 17.28 
L 777.808276 17.28 
L 777.808276 106.559074 
L 785.02779 106.559074 
L 785.02779 128.16 
L 773.696024 128.16 
L 773.696024 17.28 
z
" clip-path="url(#p7fe667c740)" style="fill: #21599c"/>
   </g>
   <g id="patch_50">
    <path d="M 785.624198 17.28 
L 789.264132 17.28 
L 793.863511 93.322863 
L 793.863511 17.28 
L 796.955964 17.28 
L 796.955964 128.16 
L 793.31332 128.16 
L 788.713941 52.117137 
L 788.713941 128.16 
L 785.624198 128.16 
L 785.624198 17.28 
z
" clip-path="url(#p7fe667c740)" style="fill: #40ba47"/>
   </g>
   <g id="patch_51">
    <path d="M 803.520436 111.578719 
L 803.298522 111.578719 
Q 800.576538 111.578719 799.063275 99.152512 
Q 797.552373 86.706798 797.552373 64.526897 
Q 797.552373 42.38601 799.060914 29.842759 
Q 800.569455 17.28 803.218256 17.28 
Q 805.895385 17.28 807.389762 29.725714 
Q 808.884139 42.151921 808.884139 64.526897 
Q 808.884139 79.879212 808.090915 90.978916 
Q 807.297691 102.078621 805.808036 107.677241 
L 808.027174 128.16 
L 805.319354 128.16 
L 803.520436 111.578719 
z
M 803.218256 34.290443 
Q 801.919824 34.290443 801.204506 42.210443 
Q 800.489189 50.130443 800.489189 64.526897 
Q 800.489189 79.157438 801.187981 86.940887 
Q 801.889134 94.704828 803.218256 94.704828 
Q 804.52377 94.704828 805.239087 86.784828 
Q 805.954405 78.84532 805.954405 64.526897 
Q 805.954405 50.130443 805.239087 42.210443 
Q 804.52377 34.290443 803.218256 34.290443 
z
" clip-path="url(#p7fe667c740)" style="fill: #40ba47"/>
   </g>
   <g id="patch_52">
    <path d="M 813.090304 17.28 
L 817.202556 17.28 
L 817.202556 128.16 
L 813.090304 128.16 
L 813.090304 17.28 
z
" clip-path="url(#p7fe667c740)" style="fill: #21599c"/>
   </g>
   <g id="patch_53">
    <path d="M 829.258246 107.961114 
L 824.900231 107.961114 
L 824.212123 128.16 
L 821.408722 128.16 
L 825.412257 17.28 
L 828.736952 17.28 
L 832.740487 128.16 
L 829.939403 128.16 
L 829.258246 107.961114 
z
M 825.595289 87.382015 
L 828.556237 87.382015 
L 827.07808 43.277154 
L 825.595289 87.382015 
z
" clip-path="url(#p7fe667c740)" style="fill: #21599c"/>
   </g>
   <g id="patch_54">
    <path d="M 836.442161 38.904689 
L 836.442161 106.559074 
L 837.554688 106.559074 
Q 839.457082 106.559074 840.461195 97.861672 
Q 841.46789 89.164269 841.46789 72.601183 
Q 841.46789 56.13315 840.466358 47.530802 
Q 839.467407 38.904689 837.554688 38.904689 
L 836.442161 38.904689 
z
M 833.336896 17.28 
L 836.609944 17.28 
Q 839.353831 17.28 840.696091 20.892036 
Q 842.03835 24.480309 842.998582 33.106421 
Q 843.845237 40.615654 844.255659 50.429936 
Q 844.668662 60.220454 844.668662 72.601183 
Q 844.668662 85.172019 844.255659 95.010064 
Q 843.845237 104.84811 842.998582 112.333579 
Q 842.030606 120.959691 840.675441 124.571727 
Q 839.320275 128.16 836.609944 128.16 
L 833.336896 128.16 
L 833.336896 17.28 
z
" clip-path="url(#p7fe667c740)" style="fill: #6b296b"/>
   </g>
   <g id="patch_55">
    <path d="M 848.874828 17.28 
L 852.987079 17.28 
L 852.987079 128.16 
L 848.874828 128.16 
L 848.874828 17.28 
z
" clip-path="url(#p7fe667c740)" style="fill: #21599c"/>
   </g>
   <g id="patch_56">
    <path d="M 857.193245 17.28 
L 861.305497 17.28 
L 861.305497 106.559074 
L 868.525011 106.559074 
L 868.525011 128.16 
L 857.193245 128.16 
L 857.193245 17.28 
z
" clip-path="url(#p7fe667c740)" style="fill: #21599c"/>
   </g>
   <g id="patch_57">
    <path d="M 880.453185 118.127891 
Q 879.310358 123.143945 878.081184 125.663425 
Q 876.85201 128.16 875.541568 128.16 
Q 872.580376 128.16 870.850898 113.226358 
Q 869.121419 98.292716 869.121419 72.754357 
Q 869.121419 46.91824 870.881373 32.09912 
Q 872.643867 17.28 875.709183 17.28 
Q 876.890104 17.28 877.97198 19.295584 
Q 879.056396 21.288263 880.016371 25.227812 
L 880.016371 47.330518 
Q 879.025921 42.268655 878.045629 39.77208 
Q 877.065338 37.252601 876.079967 37.252601 
Q 874.256523 37.252601 873.268612 46.460153 
Q 872.280701 55.644801 872.280701 72.754357 
Q 872.280701 89.703582 873.233057 98.956943 
Q 874.185413 108.187399 875.937748 108.187399 
Q 876.415196 108.187399 876.824074 107.660599 
Q 877.232952 107.110894 877.558023 105.965677 
L 877.558023 85.214328 
L 875.691405 85.214328 
L 875.691405 66.73051 
L 880.453185 66.73051 
L 880.453185 118.127891 
z
" clip-path="url(#p7fe667c740)" style="fill: #787800"/>
   </g>
   <g id="patch_58">
    <path d="M 881.049594 17.28 
L 883.852995 17.28 
L 886.718952 99.121132 
L 889.580275 17.28 
L 892.38136 17.28 
L 888.377824 128.16 
L 885.053129 128.16 
L 881.049594 17.28 
z
" clip-path="url(#p7fe667c740)" style="fill: #21599c"/>
   </g>
   <g id="patch_59">
    <path d="M 903.364707 22.570907 
L 903.364707 45.200413 
Q 902.182904 41.260863 901.056499 39.268184 
Q 899.93317 37.252601 898.932947 37.252601 
Q 897.606496 37.252601 896.96943 39.978219 
Q 896.335442 42.680934 896.335442 48.407023 
Q 896.335442 52.713043 896.76323 55.118 
Q 897.191018 57.500054 898.317424 59.217881 
L 899.893161 61.57703 
Q 902.287543 65.173014 903.297 72.479504 
Q 904.309534 79.76309 904.309534 93.230853 
Q 904.309534 110.890114 902.899988 119.525057 
Q 901.490442 128.16 898.594409 128.16 
Q 897.231027 128.16 895.855335 126.21313 
Q 894.479643 124.289163 893.10395 120.48704 
L 893.10395 97.239116 
Q 894.479643 102.667449 895.763007 105.438876 
Q 897.046371 108.187399 898.240484 108.187399 
Q 899.453063 108.187399 900.096284 105.186928 
Q 900.739505 102.163553 900.739505 96.574889 
Q 900.739505 91.581739 900.302484 88.856121 
Q 899.865463 86.130502 898.557478 83.977492 
L 897.123311 81.618343 
Q 894.968983 78.18269 893.971837 70.67006 
Q 892.977768 63.15743 892.977768 50.422607 
Q 892.977768 34.458269 894.362693 25.869134 
Q 895.747619 17.28 898.345123 17.28 
Q 899.530003 17.28 900.779514 18.608453 
Q 902.029024 19.936906 903.364707 22.570907 
z
" clip-path="url(#p7fe667c740)" style="fill: #40ba47"/>
   </g>
   <g id="patch_60">
    <path d="M 904.905943 17.28 
L 907.709344 17.28 
L 910.575301 99.121132 
L 913.436624 17.28 
L 916.237708 17.28 
L 912.234173 128.16 
L 908.909478 128.16 
L 904.905943 17.28 
z
" clip-path="url(#p7fe667c740)" style="fill: #21599c"/>
   </g>
   <g id="patch_61">
    <path d="M 924.683641 107.961114 
L 920.325626 107.961114 
L 919.637519 128.16 
L 916.834117 128.16 
L 920.837652 17.28 
L 924.162348 17.28 
L 928.165883 128.16 
L 925.364798 128.16 
L 924.683641 107.961114 
z
M 921.020684 87.382015 
L 923.981632 87.382015 
L 922.503475 43.277154 
L 921.020684 87.382015 
z
" clip-path="url(#p7fe667c740)" style="fill: #21599c"/>
   </g>
   <g id="patch_62">
    <path d="M 928.880224 17.28 
L 939.976125 17.28 
L 939.976125 38.904689 
L 932.992476 38.904689 
L 932.992476 59.531316 
L 939.562507 59.531316 
L 939.562507 81.156005 
L 932.992476 81.156005 
L 932.992476 128.16 
L 928.880224 128.16 
L 928.880224 17.28 
z
" clip-path="url(#p7fe667c740)" style="fill: #21599c"/>
   </g>
   <g id="patch_63">
    <path d="M 944.300223 17.28 
L 948.412475 17.28 
L 948.412475 128.16 
L 944.300223 128.16 
L 944.300223 17.28 
z
" clip-path="url(#p7fe667c740)" style="fill: #21599c"/>
   </g>
   <g id="patch_64">
    <path d="M 952.61864 17.28 
L 955.422042 17.28 
L 958.287999 99.121132 
L 961.149322 17.28 
L 963.950406 17.28 
L 959.946871 128.16 
L 956.622176 128.16 
L 952.61864 17.28 
z
" clip-path="url(#p7fe667c740)" style="fill: #21599c"/>
   </g>
   <g id="patch_65">
    <path d="M 974.933754 22.570907 
L 974.933754 45.200413 
Q 973.751951 41.260863 972.625545 39.268184 
Q 971.502217 37.252601 970.501993 37.252601 
Q 969.175543 37.252601 968.538477 39.978219 
Q 967.904489 42.680934 967.904489 48.407023 
Q 967.904489 52.713043 968.332277 55.118 
Q 968.760065 57.500054 969.886471 59.217881 
L 971.462208 61.57703 
Q 973.85659 65.173014 974.866046 72.479504 
Q 975.878581 79.76309 975.878581 93.230853 
Q 975.878581 110.890114 974.469035 119.525057 
Q 973.059488 128.16 970.163456 128.16 
Q 968.800074 128.16 967.424382 126.21313 
Q 966.048689 124.289163 964.672997 120.48704 
L 964.672997 97.239116 
Q 966.048689 102.667449 967.332053 105.438876 
Q 968.615417 108.187399 969.809531 108.187399 
Q 971.02211 108.187399 971.66533 105.186928 
Q 972.308551 102.163553 972.308551 96.574889 
Q 972.308551 91.581739 971.87153 88.856121 
Q 971.43451 86.130502 970.126525 83.977492 
L 968.692358 81.618343 
Q 966.53803 78.18269 965.540883 70.67006 
Q 964.546815 63.15743 964.546815 50.422607 
Q 964.546815 34.458269 965.93174 25.869134 
Q 967.316665 17.28 969.914169 17.28 
Q 971.09905 17.28 972.34856 18.608453 
Q 973.59807 19.936906 974.933754 22.570907 
z
" clip-path="url(#p7fe667c740)" style="fill: #40ba47"/>
   </g>
   <g id="patch_66">
    <path d="M 976.592922 17.28 
L 987.688823 17.28 
L 987.688823 38.904689 
L 980.705173 38.904689 
L 980.705173 59.531316 
L 987.275205 59.531316 
L 987.275205 81.156005 
L 980.705173 81.156005 
L 980.705173 128.16 
L 976.592922 128.16 
L 976.592922 17.28 
z
" clip-path="url(#p7fe667c740)" style="fill: #21599c"/>
   </g>
   <g id="patch_67">
    <path d="M 988.403164 17.28 
L 992.043097 17.28 
L 996.642477 93.322863 
L 996.642477 17.28 
L 999.734929 17.28 
L 999.734929 128.16 
L 996.092286 128.16 
L 991.492906 52.117137 
L 991.492906 128.16 
L 988.403164 128.16 
L 988.403164 17.28 
z
" clip-path="url(#p7fe667c740)" style="fill: #40ba47"/>
   </g>
   <g id="patch_68">
    <path d="M 1000.331338 17.28 
L 1011.427239 17.28 
L 1011.427239 38.904689 
L 1004.44359 38.904689 
L 1004.44359 59.531316 
L 1011.013621 59.531316 
L 1011.013621 81.156005 
L 1004.44359 81.156005 
L 1004.44359 106.559074 
L 1011.663104 106.559074 
L 1011.663104 128.16 
L 1000.331338 128.16 
L 1000.331338 17.28 
z
" clip-path="url(#p7fe667c740)" style="fill: #6b296b"/>
   </g>
   <g id="patch_69">
    <path d="M 1012.259513 17.28 
L 1023.591278 17.28 
L 1023.591278 38.904689 
L 1019.514478 38.904689 
L 1019.514478 128.16 
L 1016.344219 128.16 
L 1016.344219 38.904689 
L 1012.259513 38.904689 
L 1012.259513 17.28 
z
" clip-path="url(#p7fe667c740)" style="fill: #40ba47"/>
   </g>
   <g id="patch_70">
    <path d="M 1028.7855 66.446464 
Q 1029.802453 66.446464 1030.243671 63.119589 
Q 1030.684889 59.76895 1030.684889 52.117137 
Q 1030.684889 44.536614 1030.243671 41.281029 
Q 1029.802453 38.00168 1028.7855 38.00168 
L 1027.424181 38.00168 
L 1027.424181 66.446464 
L 1028.7855 66.446464 
z
M 1027.424181 86.193845 
L 1027.424181 128.16 
L 1024.187687 128.16 
L 1024.187687 17.28 
L 1029.129865 17.28 
Q 1031.61037 17.28 1032.764532 24.646652 
Q 1033.921383 31.989541 1033.921383 47.887252 
Q 1033.921383 58.865941 1033.318744 65.923669 
Q 1032.718796 72.981397 1031.508137 76.332036 
Q 1032.172654 77.662786 1032.697273 82.391702 
Q 1033.224582 87.096854 1033.762652 96.673502 
L 1035.519453 128.16 
L 1032.073111 128.16 
L 1030.5423 100.618225 
Q 1030.07956 92.301037 1029.603367 89.259323 
Q 1029.129865 86.193845 1028.338901 86.193845 
L 1027.424181 86.193845 
z
" clip-path="url(#p7fe667c740)" style="fill: #bd2e1f"/>
   </g>
   <g id="patch_71">
    <path d="M 1036.115861 17.28 
L 1040.228113 17.28 
L 1040.228113 106.559074 
L 1047.447627 106.559074 
L 1047.447627 128.16 
L 1036.115861 128.16 
L 1036.115861 17.28 
z
" clip-path="url(#p7fe667c740)" style="fill: #21599c"/>
   </g>
   <g id="patch_72">
    <path d="M 1048.161968 17.28 
L 1059.257869 17.28 
L 1059.257869 38.904689 
L 1052.27422 38.904689 
L 1052.27422 59.531316 
L 1058.844251 59.531316 
L 1058.844251 81.156005 
L 1052.27422 81.156005 
L 1052.27422 128.16 
L 1048.161968 128.16 
L 1048.161968 17.28 
z
" clip-path="url(#p7fe667c740)" style="fill: #21599c"/>
   </g>
   <g id="patch_73">
    <path d="M 1059.97221 17.28 
L 1063.612144 17.28 
L 1068.211523 93.322863 
L 1068.211523 17.28 
L 1071.303976 17.28 
L 1071.303976 128.16 
L 1067.661332 128.16 
L 1063.061953 52.117137 
L 1063.061953 128.16 
L 1059.97221 128.16 
L 1059.97221 17.28 
z
" clip-path="url(#p7fe667c740)" style="fill: #40ba47"/>
   </g>
   <g id="patch_74">
    <path d="M 1072.018317 17.28 
L 1083.114218 17.28 
L 1083.114218 38.904689 
L 1076.130569 38.904689 
L 1076.130569 59.531316 
L 1082.7006 59.531316 
L 1082.7006 81.156005 
L 1076.130569 81.156005 
L 1076.130569 128.16 
L 1072.018317 128.16 
L 1072.018317 17.28 
z
" clip-path="url(#p7fe667c740)" style="fill: #21599c"/>
   </g>
   <g id="patch_75">
    <path d="M 1083.828559 17.28 
L 1086.631961 17.28 
L 1089.497917 99.121132 
L 1092.35924 17.28 
L 1095.160325 17.28 
L 1091.15679 128.16 
L 1087.832095 128.16 
L 1083.828559 17.28 
z
" clip-path="url(#p7fe667c740)" style="fill: #21599c"/>
   </g>
   <g id="patch_76">
    <path d="M 1095.756734 17.28 
L 1099.868985 17.28 
L 1099.868985 106.559074 
L 1107.088499 106.559074 
L 1107.088499 128.16 
L 1095.756734 128.16 
L 1095.756734 17.28 
z
" clip-path="url(#p7fe667c740)" style="fill: #21599c"/>
   </g>
   <g id="patch_77">
    <path d="M 1110.790173 38.904689 
L 1110.790173 106.559074 
L 1111.9027 106.559074 
Q 1113.805094 106.559074 1114.809207 97.861672 
Q 1115.815902 89.164269 1115.815902 72.601183 
Q 1115.815902 56.13315 1114.81437 47.530802 
Q 1113.815419 38.904689 1111.9027 38.904689 
L 1110.790173 38.904689 
z
M 1107.684908 17.28 
L 1110.957956 17.28 
Q 1113.701843 17.28 1115.044103 20.892036 
Q 1116.386362 24.480309 1117.346594 33.106421 
Q 1118.193249 40.615654 1118.603671 50.429936 
Q 1119.016674 60.220454 1119.016674 72.601183 
Q 1119.016674 85.172019 1118.603671 95.010064 
Q 1118.193249 104.84811 1117.346594 112.333579 
Q 1116.378618 120.959691 1115.023452 124.571727 
Q 1113.668287 128.16 1110.957956 128.16 
L 1107.684908 128.16 
L 1107.684908 17.28 
z
" clip-path="url(#p7fe667c740)" style="fill: #6b296b"/>
   </g>
   <g id="patch_78">
    <path d="M 1125.581146 111.578719 
L 1125.359232 111.578719 
Q 1122.637247 111.578719 1121.123985 99.152512 
Q 1119.613083 86.706798 1119.613083 64.526897 
Q 1119.613083 42.38601 1121.121624 29.842759 
Q 1122.630165 17.28 1125.278965 17.28 
Q 1127.956095 17.28 1129.450472 29.725714 
Q 1130.944848 42.151921 1130.944848 64.526897 
Q 1130.944848 79.879212 1130.151625 90.978916 
Q 1129.358401 102.078621 1127.868746 107.677241 
L 1130.087883 128.16 
L 1127.380064 128.16 
L 1125.581146 111.578719 
z
M 1125.278965 34.290443 
Q 1123.980534 34.290443 1123.265216 42.210443 
Q 1122.549898 50.130443 1122.549898 64.526897 
Q 1122.549898 79.157438 1123.248691 86.940887 
Q 1123.949844 94.704828 1125.278965 94.704828 
Q 1126.584479 94.704828 1127.299797 86.784828 
Q 1128.015115 78.84532 1128.015115 64.526897 
Q 1128.015115 50.130443 1127.299797 42.210443 
Q 1126.584479 34.290443 1125.278965 34.290443 
z
" clip-path="url(#p7fe667c740)" style="fill: #40ba47"/>
   </g>
   <g id="patch_79">
    <path d="M 1131.541257 17.28 
L 1142.637158 17.28 
L 1142.637158 38.904689 
L 1135.653509 38.904689 
L 1135.653509 59.531316 
L 1142.22354 59.531316 
L 1142.22354 81.156005 
L 1135.653509 81.156005 
L 1135.653509 106.559074 
L 1142.873023 106.559074 
L 1142.873023 128.16 
L 1131.541257 128.16 
L 1131.541257 17.28 
z
" clip-path="url(#p7fe667c740)" style="fill: #6b296b"/>
   </g>
   <g id="patch_80">
    <path d="M 1143.469431 17.28 
L 1146.455656 17.28 
L 1146.455656 57.749061 
L 1150.759989 17.28 
L 1154.227782 17.28 
L 1148.650022 69.797102 
L 1154.801197 128.16 
L 1151.062831 128.16 
L 1146.455656 84.48288 
L 1146.455656 128.16 
L 1143.469431 128.16 
L 1143.469431 17.28 
z
" clip-path="url(#p7fe667c740)" style="fill: #bd2e1f"/>
   </g>
   <g id="patch_81">
    <path d="M 1165.784545 22.570907 
L 1165.784545 45.200413 
Q 1164.602742 41.260863 1163.476336 39.268184 
Q 1162.353008 37.252601 1161.352784 37.252601 
Q 1160.026334 37.252601 1159.389268 39.978219 
Q 1158.75528 42.680934 1158.75528 48.407023 
Q 1158.75528 52.713043 1159.183068 55.118 
Q 1159.610856 57.500054 1160.737262 59.217881 
L 1162.312999 61.57703 
Q 1164.707381 65.173014 1165.716837 72.479504 
Q 1166.729372 79.76309 1166.729372 93.230853 
Q 1166.729372 110.890114 1165.319825 119.525057 
Q 1163.910279 128.16 1161.014247 128.16 
Q 1159.650865 128.16 1158.275173 126.21313 
Q 1156.89948 124.289163 1155.523788 120.48704 
L 1155.523788 97.239116 
Q 1156.89948 102.667449 1158.182844 105.438876 
Q 1159.466208 108.187399 1160.660322 108.187399 
Q 1161.872901 108.187399 1162.516121 105.186928 
Q 1163.159342 102.163553 1163.159342 96.574889 
Q 1163.159342 91.581739 1162.722321 88.856121 
Q 1162.2853 86.130502 1160.977316 83.977492 
L 1159.543149 81.618343 
Q 1157.38882 78.18269 1156.391674 70.67006 
Q 1155.397606 63.15743 1155.397606 50.422607 
Q 1155.397606 34.458269 1156.782531 25.869134 
Q 1158.167456 17.28 1160.76496 17.28 
Q 1161.949841 17.28 1163.199351 18.608453 
Q 1164.448861 19.936906 1165.784545 22.570907 
z
" clip-path="url(#p7fe667c740)" style="fill: #40ba47"/>
   </g>
   <g id="patch_82">
    <path d="M 1170.431045 38.904689 
L 1170.431045 106.559074 
L 1171.543572 106.559074 
Q 1173.445966 106.559074 1174.450079 97.861672 
Q 1175.456774 89.164269 1175.456774 72.601183 
Q 1175.456774 56.13315 1174.455242 47.530802 
Q 1173.456291 38.904689 1171.543572 38.904689 
L 1170.431045 38.904689 
z
M 1167.32578 17.28 
L 1170.598828 17.28 
Q 1173.342716 17.28 1174.684975 20.892036 
Q 1176.027234 24.480309 1176.987466 33.106421 
Q 1177.834122 40.615654 1178.244543 50.429936 
Q 1178.657546 60.220454 1178.657546 72.601183 
Q 1178.657546 85.172019 1178.244543 95.010064 
Q 1177.834122 104.84811 1176.987466 112.333579 
Q 1176.01949 120.959691 1174.664325 124.571727 
Q 1173.309159 128.16 1170.598828 128.16 
L 1167.32578 128.16 
L 1167.32578 17.28 
z
" clip-path="url(#p7fe667c740)" style="fill: #6b296b"/>
   </g>
   <g id="patch_83">
    <path d="M 1189.640894 22.570907 
L 1189.640894 45.200413 
Q 1188.459091 41.260863 1187.332685 39.268184 
Q 1186.209357 37.252601 1185.209133 37.252601 
Q 1183.882682 37.252601 1183.245617 39.978219 
Q 1182.611629 42.680934 1182.611629 48.407023 
Q 1182.611629 52.713043 1183.039417 55.118 
Q 1183.467205 57.500054 1184.593611 59.217881 
L 1186.169348 61.57703 
Q 1188.56373 65.173014 1189.573186 72.479504 
Q 1190.58572 79.76309 1190.58572 93.230853 
Q 1190.58572 110.890114 1189.176174 119.525057 
Q 1187.766628 128.16 1184.870596 128.16 
Q 1183.507214 128.16 1182.131521 126.21313 
Q 1180.755829 124.289163 1179.380137 120.48704 
L 1179.380137 97.239116 
Q 1180.755829 102.667449 1182.039193 105.438876 
Q 1183.322557 108.187399 1184.51667 108.187399 
Q 1185.729249 108.187399 1186.37247 105.186928 
Q 1187.015691 102.163553 1187.015691 96.574889 
Q 1187.015691 91.581739 1186.57867 88.856121 
Q 1186.141649 86.130502 1184.833664 83.977492 
L 1183.399497 81.618343 
Q 1181.245169 78.18269 1180.248023 70.67006 
Q 1179.253955 63.15743 1179.253955 50.422607 
Q 1179.253955 34.458269 1180.63888 25.869134 
Q 1182.023805 17.28 1184.621309 17.28 
Q 1185.80619 17.28 1187.0557 18.608453 
Q 1188.30521 19.936906 1189.640894 22.570907 
z
" clip-path="url(#p7fe667c740)" style="fill: #40ba47"/>
   </g>
   <g id="patch_84">
    <path d="M 1202.513895 118.127891 
Q 1201.371068 123.143945 1200.141894 125.663425 
Q 1198.91272 128.16 1197.602278 128.16 
Q 1194.641086 128.16 1192.911607 113.226358 
Q 1191.182129 98.292716 1191.182129 72.754357 
Q 1191.182129 46.91824 1192.942083 32.09912 
Q 1194.704576 17.28 1197.769893 17.28 
Q 1198.950814 17.28 1200.03269 19.295584 
Q 1201.117106 21.288263 1202.077081 25.227812 
L 1202.077081 47.330518 
Q 1201.086631 42.268655 1200.106339 39.77208 
Q 1199.126047 37.252601 1198.140676 37.252601 
Q 1196.317232 37.252601 1195.329322 46.460153 
Q 1194.341411 55.644801 1194.341411 72.754357 
Q 1194.341411 89.703582 1195.293767 98.956943 
Q 1196.246123 108.187399 1197.998458 108.187399 
Q 1198.475906 108.187399 1198.884784 107.660599 
Q 1199.293662 107.110894 1199.618733 105.965677 
L 1199.618733 85.214328 
L 1197.752115 85.214328 
L 1197.752115 66.73051 
L 1202.513895 66.73051 
L 1202.513895 118.127891 
z
" clip-path="url(#p7fe667c740)" style="fill: #787800"/>
   </g>
   <g id="patch_85">
    <path d="M 1203.110304 17.28 
L 1206.243203 17.28 
L 1208.773806 56.798526 
L 1211.302027 17.28 
L 1214.442069 17.28 
L 1210.209321 81.441166 
L 1210.209321 128.16 
L 1207.345432 128.16 
L 1207.345432 81.441166 
L 1203.110304 17.28 
z
" clip-path="url(#p7fe667c740)" style="fill: #177875"/>
   </g>
   <g id="patch_86">
    <path d="M 1226.370244 120.212188 
Q 1225.422361 124.151737 1224.397392 126.144416 
Q 1223.372422 128.16 1222.25609 128.16 
Q 1218.927081 128.16 1216.982779 113.226358 
Q 1215.038478 98.292716 1215.038478 72.754357 
Q 1215.038478 47.124379 1216.982779 32.213642 
Q 1218.927081 17.28 1222.25609 17.28 
Q 1223.372422 17.28 1224.397392 19.295584 
Q 1225.422361 21.288263 1226.370244 25.227812 
L 1226.370244 47.330518 
Q 1225.413796 42.108325 1224.485899 39.680463 
Q 1223.558002 37.252601 1222.533032 37.252601 
Q 1220.694368 37.252601 1219.640848 46.712101 
Q 1218.590183 56.148697 1218.590183 72.754357 
Q 1218.590183 89.291303 1219.640848 98.750804 
Q 1220.694368 108.187399 1222.533032 108.187399 
Q 1223.558002 108.187399 1224.485899 105.759537 
Q 1225.413796 103.308771 1226.370244 98.086577 
L 1226.370244 120.212188 
z
" clip-path="url(#p7fe667c740)" style="fill: #6b296b"/>
   </g>
   <g id="patch_87">
    <path d="M 1226.966652 17.28 
L 1231.078904 17.28 
L 1231.078904 106.559074 
L 1238.298418 106.559074 
L 1238.298418 128.16 
L 1226.966652 128.16 
L 1226.966652 17.28 
z
" clip-path="url(#p7fe667c740)" style="fill: #21599c"/>
   </g>
   <g id="patch_88">
    <path d="M 1238.894827 17.28 
L 1243.007078 17.28 
L 1243.007078 106.559074 
L 1250.226593 106.559074 
L 1250.226593 128.16 
L 1238.894827 128.16 
L 1238.894827 17.28 
z
" clip-path="url(#p7fe667c740)" style="fill: #21599c"/>
   </g>
   <g id="patch_89">
    <path d="M 1254.432758 17.28 
L 1258.54501 17.28 
L 1258.54501 128.16 
L 1254.432758 128.16 
L 1254.432758 17.28 
z
" clip-path="url(#p7fe667c740)" style="fill: #21599c"/>
   </g>
   <g id="patch_90">
    <path d="M 1268.719239 111.578719 
L 1268.497325 111.578719 
Q 1265.775341 111.578719 1264.262078 99.152512 
Q 1262.751176 86.706798 1262.751176 64.526897 
Q 1262.751176 42.38601 1264.259717 29.842759 
Q 1265.768258 17.28 1268.417059 17.28 
Q 1271.094188 17.28 1272.588565 29.725714 
Q 1274.082941 42.151921 1274.082941 64.526897 
Q 1274.082941 79.879212 1273.289718 90.978916 
Q 1272.496494 102.078621 1271.006839 107.677241 
L 1273.225977 128.16 
L 1270.518157 128.16 
L 1268.719239 111.578719 
z
M 1268.417059 34.290443 
Q 1267.118627 34.290443 1266.403309 42.210443 
Q 1265.687992 50.130443 1265.687992 64.526897 
Q 1265.687992 79.157438 1266.386784 86.940887 
Q 1267.087937 94.704828 1268.417059 94.704828 
Q 1269.722572 94.704828 1270.43789 86.784828 
Q 1271.153208 78.84532 1271.153208 64.526897 
Q 1271.153208 50.130443 1270.43789 42.210443 
Q 1269.722572 34.290443 1268.417059 34.290443 
z
" clip-path="url(#p7fe667c740)" style="fill: #40ba47"/>
   </g>
   <g id="patch_91">
    <path d="M 1274.67935 17.28 
L 1277.939841 17.28 
L 1277.939841 59.531316 
L 1282.750625 59.531316 
L 1282.750625 17.28 
L 1286.011116 17.28 
L 1286.011116 128.16 
L 1282.750625 128.16 
L 1282.750625 81.156005 
L 1277.939841 81.156005 
L 1277.939841 128.16 
L 1274.67935 128.16 
L 1274.67935 17.28 
z
" clip-path="url(#p7fe667c740)" style="fill: #177875"/>
   </g>
   <g id="patch_92">
    <path d="M 1286.607525 17.28 
L 1289.950286 17.28 
L 1292.269041 76.617197 
L 1294.603079 17.28 
L 1297.93929 17.28 
L 1297.93929 128.16 
L 1295.456782 128.16 
L 1295.456782 47.055534 
L 1293.109644 106.844235 
L 1291.443721 106.844235 
L 1289.096583 47.055534 
L 1289.096583 128.16 
L 1286.607525 128.16 
L 1286.607525 17.28 
z
" clip-path="url(#p7fe667c740)" style="fill: #21599c"/>
   </g>
   <g id="patch_93">
    <path d="M 1298.535699 17.28 
L 1301.521923 17.28 
L 1301.521923 57.749061 
L 1305.826257 17.28 
L 1309.29405 17.28 
L 1303.716289 69.797102 
L 1309.867465 128.16 
L 1306.129099 128.16 
L 1301.521923 84.48288 
L 1301.521923 128.16 
L 1298.535699 128.16 
L 1298.535699 17.28 
z
" clip-path="url(#p7fe667c740)" style="fill: #bd2e1f"/>
   </g>
   <g id="patch_94">
    <path d="M 1310.463873 17.28 
L 1321.559774 17.28 
L 1321.559774 38.904689 
L 1314.576125 38.904689 
L 1314.576125 59.531316 
L 1321.146156 59.531316 
L 1321.146156 81.156005 
L 1314.576125 81.156005 
L 1314.576125 106.559074 
L 1321.795639 106.559074 
L 1321.795639 128.16 
L 1310.463873 128.16 
L 1310.463873 17.28 
z
" clip-path="url(#p7fe667c740)" style="fill: #6b296b"/>
   </g>
   <g id="patch_95">
    <path d="M 1322.392048 17.28 
L 1326.031981 17.28 
L 1330.631361 93.322863 
L 1330.631361 17.28 
L 1333.723814 17.28 
L 1333.723814 128.16 
L 1330.08117 128.16 
L 1325.48179 52.117137 
L 1325.48179 128.16 
L 1322.392048 128.16 
L 1322.392048 17.28 
z
" clip-path="url(#p7fe667c740)" style="fill: #40ba47"/>
   </g>
   <g id="patch_96">
    <path d="M 1337.929979 17.28 
L 1342.042231 17.28 
L 1342.042231 128.16 
L 1337.929979 128.16 
L 1337.929979 17.28 
z
" clip-path="url(#p7fe667c740)" style="fill: #21599c"/>
   </g>
   <g id="patch_97">
    <path d="M 1346.248397 17.28 
L 1349.508888 17.28 
L 1349.508888 59.531316 
L 1354.319671 59.531316 
L 1354.319671 17.28 
L 1357.580162 17.28 
L 1357.580162 128.16 
L 1354.319671 128.16 
L 1354.319671 81.156005 
L 1349.508888 81.156005 
L 1349.508888 128.16 
L 1346.248397 128.16 
L 1346.248397 17.28 
z
" clip-path="url(#p7fe667c740)" style="fill: #177875"/>
   </g>
   <g id="patch_98">
    <path d="M 1358.176571 17.28 
L 1360.136008 17.28 
L 1361.505745 97.861672 
L 1362.865285 17.28 
L 1364.834918 17.28 
L 1366.194458 97.861672 
L 1367.565894 17.28 
L 1369.508337 17.28 
L 1367.638969 128.16 
L 1365.281867 128.16 
L 1363.842454 43.871239 
L 1362.420035 128.16 
L 1360.061233 128.16 
L 1358.176571 17.28 
z
" clip-path="url(#p7fe667c740)" style="fill: #21599c"/>
   </g>
   <g id="patch_99">
    <path d="M 1370.104746 17.28 
L 1374.216997 17.28 
L 1374.216997 106.559074 
L 1381.436511 106.559074 
L 1381.436511 128.16 
L 1370.104746 128.16 
L 1370.104746 17.28 
z
" clip-path="url(#p7fe667c740)" style="fill: #21599c"/>
   </g>
   <g id="patch_100">
    <path d="M 1382.03292 17.28 
L 1385.019144 17.28 
L 1385.019144 57.749061 
L 1389.323478 17.28 
L 1392.791271 17.28 
L 1387.21351 69.797102 
L 1393.364686 128.16 
L 1389.62632 128.16 
L 1385.019144 84.48288 
L 1385.019144 128.16 
L 1382.03292 128.16 
L 1382.03292 17.28 
z
" clip-path="url(#p7fe667c740)" style="fill: #bd2e1f"/>
   </g>
   <g id="patch_101">
    <path d="M 1404.348033 22.570907 
L 1404.348033 45.200413 
Q 1403.166231 41.260863 1402.039825 39.268184 
Q 1400.916497 37.252601 1399.916273 37.252601 
Q 1398.589822 37.252601 1397.952757 39.978219 
Q 1397.318769 42.680934 1397.318769 48.407023 
Q 1397.318769 52.713043 1397.746557 55.118 
Q 1398.174345 57.500054 1399.300751 59.217881 
L 1400.876488 61.57703 
Q 1403.270869 65.173014 1404.280326 72.479504 
Q 1405.29286 79.76309 1405.29286 93.230853 
Q 1405.29286 110.890114 1403.883314 119.525057 
Q 1402.473768 128.16 1399.577736 128.16 
Q 1398.214354 128.16 1396.838661 126.21313 
Q 1395.462969 124.289163 1394.087277 120.48704 
L 1394.087277 97.239116 
Q 1395.462969 102.667449 1396.746333 105.438876 
Q 1398.029697 108.187399 1399.22381 108.187399 
Q 1400.436389 108.187399 1401.07961 105.186928 
Q 1401.722831 102.163553 1401.722831 96.574889 
Q 1401.722831 91.581739 1401.28581 88.856121 
Q 1400.848789 86.130502 1399.540804 83.977492 
L 1398.106637 81.618343 
Q 1395.952309 78.18269 1394.955163 70.67006 
Q 1393.961094 63.15743 1393.961094 50.422607 
Q 1393.961094 34.458269 1395.34602 25.869134 
Q 1396.730945 17.28 1399.328449 17.28 
Q 1400.513329 17.28 1401.76284 18.608453 
Q 1403.01235 19.936906 1404.348033 22.570907 
z
" clip-path="url(#p7fe667c740)" style="fill: #40ba47"/>
   </g>
   <g id="patch_102">
    <path d="M 1405.889269 17.28 
L 1416.98517 17.28 
L 1416.98517 38.904689 
L 1410.001521 38.904689 
L 1410.001521 59.531316 
L 1416.571552 59.531316 
L 1416.571552 81.156005 
L 1410.001521 81.156005 
L 1410.001521 106.559074 
L 1417.221035 106.559074 
L 1417.221035 128.16 
L 1405.889269 128.16 
L 1405.889269 17.28 
z
" clip-path="url(#p7fe667c740)" style="fill: #6b296b"/>
   </g>
   <g id="patch_103">
    <path d="M 1417.817443 17.28 
L 1421.457377 17.28 
L 1426.056756 93.322863 
L 1426.056756 17.28 
L 1429.149209 17.28 
L 1429.149209 128.16 
L 1425.506565 128.16 
L 1420.907186 52.117137 
L 1420.907186 128.16 
L 1417.817443 128.16 
L 1417.817443 17.28 
z
" clip-path="url(#p7fe667c740)" style="fill: #40ba47"/>
   </g>
   <g id="patch_104">
    <path d="M 1429.745618 17.28 
L 1440.841519 17.28 
L 1440.841519 38.904689 
L 1433.857869 38.904689 
L 1433.857869 59.531316 
L 1440.427901 59.531316 
L 1440.427901 81.156005 
L 1433.857869 81.156005 
L 1433.857869 106.559074 
L 1441.077383 106.559074 
L 1441.077383 128.16 
L 1429.745618 128.16 
L 1429.745618 17.28 
z
" clip-path="url(#p7fe667c740)" style="fill: #6b296b"/>
   </g>
   <g id="patch_105">
    <path d="M 1446.271605 66.446464 
Q 1447.288558 66.446464 1447.729776 63.119589 
Q 1448.170994 59.76895 1448.170994 52.117137 
Q 1448.170994 44.536614 1447.729776 41.281029 
Q 1447.288558 38.00168 1446.271605 38.00168 
L 1444.910287 38.00168 
L 1444.910287 66.446464 
L 1446.271605 66.446464 
z
M 1444.910287 86.193845 
L 1444.910287 128.16 
L 1441.673792 128.16 
L 1441.673792 17.28 
L 1446.61597 17.28 
Q 1449.096475 17.28 1450.250637 24.646652 
Q 1451.407488 31.989541 1451.407488 47.887252 
Q 1451.407488 58.865941 1450.804849 65.923669 
Q 1450.204901 72.981397 1448.994242 76.332036 
Q 1449.658759 77.662786 1450.183378 82.391702 
Q 1450.710687 87.096854 1451.248758 96.673502 
L 1453.005558 128.16 
L 1449.559216 128.16 
L 1448.028405 100.618225 
Q 1447.565665 92.301037 1447.089472 89.259323 
Q 1446.61597 86.193845 1445.825006 86.193845 
L 1444.910287 86.193845 
z
" clip-path="url(#p7fe667c740)" style="fill: #bd2e1f"/>
   </g>
   <g id="patch_106">
    <path d="M 1453.601967 17.28 
L 1457.714218 17.28 
L 1457.714218 106.559074 
L 1464.933732 106.559074 
L 1464.933732 128.16 
L 1453.601967 128.16 
L 1453.601967 17.28 
z
" clip-path="url(#p7fe667c740)" style="fill: #21599c"/>
   </g>
   <g id="patch_107">
    <path d="M 1465.530141 17.28 
L 1469.642393 17.28 
L 1469.642393 106.559074 
L 1476.861907 106.559074 
L 1476.861907 128.16 
L 1465.530141 128.16 
L 1465.530141 17.28 
z
" clip-path="url(#p7fe667c740)" style="fill: #21599c"/>
   </g>
   <g id="patch_108">
    <path d="M 1480.563581 38.904689 
L 1480.563581 106.559074 
L 1481.676107 106.559074 
Q 1483.578502 106.559074 1484.582615 97.861672 
Q 1485.589309 89.164269 1485.589309 72.601183 
Q 1485.589309 56.13315 1484.587777 47.530802 
Q 1483.588827 38.904689 1481.676107 38.904689 
L 1480.563581 38.904689 
z
M 1477.458316 17.28 
L 1480.731363 17.28 
Q 1483.475251 17.28 1484.81751 20.892036 
Q 1486.159769 24.480309 1487.120001 33.106421 
Q 1487.966657 40.615654 1488.377078 50.429936 
Q 1488.790081 60.220454 1488.790081 72.601183 
Q 1488.790081 85.172019 1488.377078 95.010064 
Q 1487.966657 104.84811 1487.120001 112.333579 
Q 1486.152026 120.959691 1484.79686 124.571727 
Q 1483.441694 128.16 1480.731363 128.16 
L 1477.458316 128.16 
L 1477.458316 17.28 
z
" clip-path="url(#p7fe667c740)" style="fill: #6b296b"/>
   </g>
   <g id="patch_109">
    <path d="M 1489.38649 17.28 
L 1493.498742 17.28 
L 1493.498742 106.559074 
L 1500.718256 106.559074 
L 1500.718256 128.16 
L 1489.38649 128.16 
L 1489.38649 17.28 
z
" clip-path="url(#p7fe667c740)" style="fill: #21599c"/>
   </g>
   <g id="patch_110">
    <path d="M 1504.924421 17.28 
L 1509.036673 17.28 
L 1509.036673 128.16 
L 1504.924421 128.16 
L 1504.924421 17.28 
z
" clip-path="url(#p7fe667c740)" style="fill: #21599c"/>
   </g>
   <g id="patch_111">
    <path d="M 1523.629778 22.570907 
L 1523.629778 45.200413 
Q 1522.447975 41.260863 1521.321569 39.268184 
Q 1520.198241 37.252601 1519.198017 37.252601 
Q 1517.871567 37.252601 1517.234501 39.978219 
Q 1516.600513 42.680934 1516.600513 48.407023 
Q 1516.600513 52.713043 1517.028301 55.118 
Q 1517.456089 57.500054 1518.582495 59.217881 
L 1520.158232 61.57703 
Q 1522.552614 65.173014 1523.56207 72.479504 
Q 1524.574605 79.76309 1524.574605 93.230853 
Q 1524.574605 110.890114 1523.165058 119.525057 
Q 1521.755512 128.16 1518.85948 128.16 
Q 1517.496098 128.16 1516.120406 126.21313 
Q 1514.744713 124.289163 1513.369021 120.48704 
L 1513.369021 97.239116 
Q 1514.744713 102.667449 1516.028077 105.438876 
Q 1517.311441 108.187399 1518.505555 108.187399 
Q 1519.718134 108.187399 1520.361354 105.186928 
Q 1521.004575 102.163553 1521.004575 96.574889 
Q 1521.004575 91.581739 1520.567554 88.856121 
Q 1520.130533 86.130502 1518.822549 83.977492 
L 1517.388382 81.618343 
Q 1515.234053 78.18269 1514.236907 70.67006 
Q 1513.242839 63.15743 1513.242839 50.422607 
Q 1513.242839 34.458269 1514.627764 25.869134 
Q 1516.012689 17.28 1518.610193 17.28 
Q 1519.795074 17.28 1521.044584 18.608453 
Q 1522.294094 19.936906 1523.629778 22.570907 
z
" clip-path="url(#p7fe667c740)" style="fill: #40ba47"/>
   </g>
   <g id="patch_112">
    <path d="M 1529.768826 66.446464 
Q 1530.785779 66.446464 1531.226997 63.119589 
Q 1531.668215 59.76895 1531.668215 52.117137 
Q 1531.668215 44.536614 1531.226997 41.281029 
Q 1530.785779 38.00168 1529.768826 38.00168 
L 1528.407508 38.00168 
L 1528.407508 66.446464 
L 1529.768826 66.446464 
z
M 1528.407508 86.193845 
L 1528.407508 128.16 
L 1525.171013 128.16 
L 1525.171013 17.28 
L 1530.113191 17.28 
Q 1532.593696 17.28 1533.747858 24.646652 
Q 1534.904709 31.989541 1534.904709 47.887252 
Q 1534.904709 58.865941 1534.30207 65.923669 
Q 1533.702122 72.981397 1532.491463 76.332036 
Q 1533.15598 77.662786 1533.680599 82.391702 
Q 1534.207908 87.096854 1534.745979 96.673502 
L 1536.502779 128.16 
L 1533.056437 128.16 
L 1531.525626 100.618225 
Q 1531.062886 92.301037 1530.586693 89.259323 
Q 1530.113191 86.193845 1529.322228 86.193845 
L 1528.407508 86.193845 
z
" clip-path="url(#p7fe667c740)" style="fill: #bd2e1f"/>
   </g>
   <g id="patch_113">
    <path d="M 1537.099188 17.28 
L 1541.211439 17.28 
L 1541.211439 106.559074 
L 1548.430953 106.559074 
L 1548.430953 128.16 
L 1537.099188 128.16 
L 1537.099188 17.28 
z
" clip-path="url(#p7fe667c740)" style="fill: #21599c"/>
   </g>
   <g id="patch_114">
    <path d="M 1559.414301 22.570907 
L 1559.414301 45.200413 
Q 1558.232498 41.260863 1557.106092 39.268184 
Q 1555.982764 37.252601 1554.98254 37.252601 
Q 1553.65609 37.252601 1553.019024 39.978219 
Q 1552.385036 42.680934 1552.385036 48.407023 
Q 1552.385036 52.713043 1552.812824 55.118 
Q 1553.240612 57.500054 1554.367018 59.217881 
L 1555.942755 61.57703 
Q 1558.337137 65.173014 1559.346594 72.479504 
Q 1560.359128 79.76309 1560.359128 93.230853 
Q 1560.359128 110.890114 1558.949582 119.525057 
Q 1557.540036 128.16 1554.644003 128.16 
Q 1553.280621 128.16 1551.904929 126.21313 
Q 1550.529237 124.289163 1549.153544 120.48704 
L 1549.153544 97.239116 
Q 1550.529237 102.667449 1551.812601 105.438876 
Q 1553.095965 108.187399 1554.290078 108.187399 
Q 1555.502657 108.187399 1556.145878 105.186928 
Q 1556.789098 102.163553 1556.789098 96.574889 
Q 1556.789098 91.581739 1556.352078 88.856121 
Q 1555.915057 86.130502 1554.607072 83.977492 
L 1553.172905 81.618343 
Q 1551.018577 78.18269 1550.021431 70.67006 
Q 1549.027362 63.15743 1549.027362 50.422607 
Q 1549.027362 34.458269 1550.412287 25.869134 
Q 1551.797213 17.28 1554.394717 17.28 
Q 1555.579597 17.28 1556.829107 18.608453 
Q 1558.078618 19.936906 1559.414301 22.570907 
z
" clip-path="url(#p7fe667c740)" style="fill: #40ba47"/>
   </g>
   <g id="patch_115">
    <path d="M 1560.955537 17.28 
L 1564.088436 17.28 
L 1566.619039 56.798526 
L 1569.14726 17.28 
L 1572.287302 17.28 
L 1568.054554 81.441166 
L 1568.054554 128.16 
L 1565.190665 128.16 
L 1565.190665 81.441166 
L 1560.955537 17.28 
z
" clip-path="url(#p7fe667c740)" style="fill: #177875"/>
   </g>
   <g id="patch_116">
    <path d="M 1583.27065 22.570907 
L 1583.27065 45.200413 
Q 1582.088847 41.260863 1580.962441 39.268184 
Q 1579.839113 37.252601 1578.838889 37.252601 
Q 1577.512439 37.252601 1576.875373 39.978219 
Q 1576.241385 42.680934 1576.241385 48.407023 
Q 1576.241385 52.713043 1576.669173 55.118 
Q 1577.096961 57.500054 1578.223367 59.217881 
L 1579.799104 61.57703 
Q 1582.193486 65.173014 1583.202943 72.479504 
Q 1584.215477 79.76309 1584.215477 93.230853 
Q 1584.215477 110.890114 1582.805931 119.525057 
Q 1581.396385 128.16 1578.500352 128.16 
Q 1577.13697 128.16 1575.761278 126.21313 
Q 1574.385585 124.289163 1573.009893 120.48704 
L 1573.009893 97.239116 
Q 1574.385585 102.667449 1575.668949 105.438876 
Q 1576.952313 108.187399 1578.146427 108.187399 
Q 1579.359006 108.187399 1580.002226 105.186928 
Q 1580.645447 102.163553 1580.645447 96.574889 
Q 1580.645447 91.581739 1580.208426 88.856121 
Q 1579.771406 86.130502 1578.463421 83.977492 
L 1577.029254 81.618343 
Q 1574.874926 78.18269 1573.87778 70.67006 
Q 1572.883711 63.15743 1572.883711 50.422607 
Q 1572.883711 34.458269 1574.268636 25.869134 
Q 1575.653561 17.28 1578.251066 17.28 
Q 1579.435946 17.28 1580.685456 18.608453 
Q 1581.934967 19.936906 1583.27065 22.570907 
z
" clip-path="url(#p7fe667c740)" style="fill: #40ba47"/>
   </g>
   <g id="patch_117">
    <path d="M 1592.661409 107.961114 
L 1588.303395 107.961114 
L 1587.615287 128.16 
L 1584.811885 128.16 
L 1588.815421 17.28 
L 1592.140116 17.28 
L 1596.143651 128.16 
L 1593.342567 128.16 
L 1592.661409 107.961114 
z
M 1588.998453 87.382015 
L 1591.959401 87.382015 
L 1590.481244 43.277154 
L 1588.998453 87.382015 
z
" clip-path="url(#p7fe667c740)" style="fill: #21599c"/>
   </g>
   <g id="patch_118">
    <path d="M 1596.74006 17.28 
L 1600.000551 17.28 
L 1600.000551 59.531316 
L 1604.811334 59.531316 
L 1604.811334 17.28 
L 1608.071826 17.28 
L 1608.071826 128.16 
L 1604.811334 128.16 
L 1604.811334 81.156005 
L 1600.000551 81.156005 
L 1600.000551 128.16 
L 1596.74006 128.16 
L 1596.74006 17.28 
z
" clip-path="url(#p7fe667c740)" style="fill: #177875"/>
   </g>
   <g id="patch_119">
    <path d="M 1608.668234 17.28 
L 1611.654459 17.28 
L 1611.654459 57.749061 
L 1615.958792 17.28 
L 1619.426585 17.28 
L 1613.848825 69.797102 
L 1620 128.16 
L 1616.261634 128.16 
L 1611.654459 84.48288 
L 1611.654459 128.16 
L 1608.668234 128.16 
L 1608.668234 17.28 
z
" clip-path="url(#p7fe667c740)" style="fill: #bd2e1f"/>
   </g>
   <g id="matplotlib.axis_1">
    <g id="xtick_1">
     <g id="line2d_2">
      <defs>
       <path id="m6c653a0cff" d="M 0 0 
L 0 3.5 
" style="stroke: #000000; stroke-width: 0.8"/>
      </defs>
      <g>
       <use xlink:href="#m6c653a0cff" x="230.665883" y="128.16" style="stroke: #000000; stroke-width: 0.8"/>
      </g>
     </g>
     <g id="text_1">
      <!-- 0 -->
      <g transform="translate(227.484633 142.758438) scale(0.1 -0.1)">
       <defs>
        <path id="DejaVuSans-30" d="M 2034 4250 
Q 1547 4250 1301 3770 
Q 1056 3291 1056 2328 
Q 1056 1369 1301 889 
Q 1547 409 2034 409 
Q 2525 409 2770 889 
Q 3016 1369 3016 2328 
Q 3016 3291 2770 3770 
Q 2525 4250 2034 4250 
z
M 2034 4750 
Q 2819 4750 3233 4129 
Q 3647 3509 3647 2328 
Q 3647 1150 3233 529 
Q 2819 -91 2034 -91 
Q 1250 -91 836 529 
Q 422 1150 422 2328 
Q 422 3509 836 4129 
Q 1250 4750 2034 4750 
z
" transform="scale(0.015625)"/>
       </defs>
       <use xlink:href="#DejaVuSans-30"/>
      </g>
     </g>
    </g>
    <g id="xtick_2">
     <g id="line2d_3">
      <g>
       <use xlink:href="#m6c653a0cff" x="469.229372" y="128.16" style="stroke: #000000; stroke-width: 0.8"/>
      </g>
     </g>
     <g id="text_2">
      <!-- 20 -->
      <g transform="translate(462.866872 142.758438) scale(0.1 -0.1)">
       <defs>
        <path id="DejaVuSans-32" d="M 1228 531 
L 3431 531 
L 3431 0 
L 469 0 
L 469 531 
Q 828 903 1448 1529 
Q 2069 2156 2228 2338 
Q 2531 2678 2651 2914 
Q 2772 3150 2772 3378 
Q 2772 3750 2511 3984 
Q 2250 4219 1831 4219 
Q 1534 4219 1204 4116 
Q 875 4013 500 3803 
L 500 4441 
Q 881 4594 1212 4672 
Q 1544 4750 1819 4750 
Q 2544 4750 2975 4387 
Q 3406 4025 3406 3419 
Q 3406 3131 3298 2873 
Q 3191 2616 2906 2266 
Q 2828 2175 2409 1742 
Q 1991 1309 1228 531 
z
" transform="scale(0.015625)"/>
       </defs>
       <use xlink:href="#DejaVuSans-32"/>
       <use xlink:href="#DejaVuSans-30" x="63.623047"/>
      </g>
     </g>
    </g>
    <g id="xtick_3">
     <g id="line2d_4">
      <g>
       <use xlink:href="#m6c653a0cff" x="707.79286" y="128.16" style="stroke: #000000; stroke-width: 0.8"/>
      </g>
     </g>
     <g id="text_3">
      <!-- 40 -->
      <g transform="translate(701.43036 142.758438) scale(0.1 -0.1)">
       <defs>
        <path id="DejaVuSans-34" d="M 2419 4116 
L 825 1625 
L 2419 1625 
L 2419 4116 
z
M 2253 4666 
L 3047 4666 
L 3047 1625 
L 3713 1625 
L 3713 1100 
L 3047 1100 
L 3047 0 
L 2419 0 
L 2419 1100 
L 313 1100 
L 313 1709 
L 2253 4666 
z
" transform="scale(0.015625)"/>
       </defs>
       <use xlink:href="#DejaVuSans-34"/>
       <use xlink:href="#DejaVuSans-30" x="63.623047"/>
      </g>
     </g>
    </g>
    <g id="xtick_4">
     <g id="line2d_5">
      <g>
       <use xlink:href="#m6c653a0cff" x="946.356349" y="128.16" style="stroke: #000000; stroke-width: 0.8"/>
      </g>
     </g>
     <g id="text_4">
      <!-- 60 -->
      <g transform="translate(939.993849 142.758438) scale(0.1 -0.1)">
       <defs>
        <path id="DejaVuSans-36" d="M 2113 2584 
Q 1688 2584 1439 2293 
Q 1191 2003 1191 1497 
Q 1191 994 1439 701 
Q 1688 409 2113 409 
Q 2538 409 2786 701 
Q 3034 994 3034 1497 
Q 3034 2003 2786 2293 
Q 2538 2584 2113 2584 
z
M 3366 4563 
L 3366 3988 
Q 3128 4100 2886 4159 
Q 2644 4219 2406 4219 
Q 1781 4219 1451 3797 
Q 1122 3375 1075 2522 
Q 1259 2794 1537 2939 
Q 1816 3084 2150 3084 
Q 2853 3084 3261 2657 
Q 3669 2231 3669 1497 
Q 3669 778 3244 343 
Q 2819 -91 2113 -91 
Q 1303 -91 875 529 
Q 447 1150 447 2328 
Q 447 3434 972 4092 
Q 1497 4750 2381 4750 
Q 2619 4750 2861 4703 
Q 3103 4656 3366 4563 
z
" transform="scale(0.015625)"/>
       </defs>
       <use xlink:href="#DejaVuSans-36"/>
       <use xlink:href="#DejaVuSans-30" x="63.623047"/>
      </g>
     </g>
    </g>
    <g id="xtick_5">
     <g id="line2d_6">
      <g>
       <use xlink:href="#m6c653a0cff" x="1184.919838" y="128.16" style="stroke: #000000; stroke-width: 0.8"/>
      </g>
     </g>
     <g id="text_5">
      <!-- 80 -->
      <g transform="translate(1178.557338 142.758438) scale(0.1 -0.1)">
       <defs>
        <path id="DejaVuSans-38" d="M 2034 2216 
Q 1584 2216 1326 1975 
Q 1069 1734 1069 1313 
Q 1069 891 1326 650 
Q 1584 409 2034 409 
Q 2484 409 2743 651 
Q 3003 894 3003 1313 
Q 3003 1734 2745 1975 
Q 2488 2216 2034 2216 
z
M 1403 2484 
Q 997 2584 770 2862 
Q 544 3141 544 3541 
Q 544 4100 942 4425 
Q 1341 4750 2034 4750 
Q 2731 4750 3128 4425 
Q 3525 4100 3525 3541 
Q 3525 3141 3298 2862 
Q 3072 2584 2669 2484 
Q 3125 2378 3379 2068 
Q 3634 1759 3634 1313 
Q 3634 634 3220 271 
Q 2806 -91 2034 -91 
Q 1263 -91 848 271 
Q 434 634 434 1313 
Q 434 1759 690 2068 
Q 947 2378 1403 2484 
z
M 1172 3481 
Q 1172 3119 1398 2916 
Q 1625 2713 2034 2713 
Q 2441 2713 2670 2916 
Q 2900 3119 2900 3481 
Q 2900 3844 2670 4047 
Q 2441 4250 2034 4250 
Q 1625 4250 1398 4047 
Q 1172 3844 1172 3481 
z
" transform="scale(0.015625)"/>
       </defs>
       <use xlink:href="#DejaVuSans-38"/>
       <use xlink:href="#DejaVuSans-30" x="63.623047"/>
      </g>
     </g>
    </g>
    <g id="xtick_6">
     <g id="line2d_7">
      <g>
       <use xlink:href="#m6c653a0cff" x="1423.483326" y="128.16" style="stroke: #000000; stroke-width: 0.8"/>
      </g>
     </g>
     <g id="text_6">
      <!-- 100 -->
      <g transform="translate(1413.939576 142.758438) scale(0.1 -0.1)">
       <defs>
        <path id="DejaVuSans-31" d="M 794 531 
L 1825 531 
L 1825 4091 
L 703 3866 
L 703 4441 
L 1819 4666 
L 2450 4666 
L 2450 531 
L 3481 531 
L 3481 0 
L 794 0 
L 794 531 
z
" transform="scale(0.015625)"/>
       </defs>
       <use xlink:href="#DejaVuSans-31"/>
       <use xlink:href="#DejaVuSans-30" x="63.623047"/>
       <use xlink:href="#DejaVuSans-30" x="127.246094"/>
      </g>
     </g>
    </g>
   </g>
   <g id="matplotlib.axis_2">
    <g id="ytick_1">
     <g id="line2d_8">
      <defs>
       <path id="me338f6916e" d="M 0 0 
L -3.5 0 
" style="stroke: #000000; stroke-width: 0.8"/>
      </defs>
      <g>
       <use xlink:href="#me338f6916e" x="225" y="128.16" style="stroke: #000000; stroke-width: 0.8"/>
      </g>
     </g>
     <g id="text_7">
      <!-- 0.0 -->
      <g transform="translate(202.096875 131.959219) scale(0.1 -0.1)">
       <defs>
        <path id="DejaVuSans-2e" d="M 684 794 
L 1344 794 
L 1344 0 
L 684 0 
L 684 794 
z
" transform="scale(0.015625)"/>
       </defs>
       <use xlink:href="#DejaVuSans-30"/>
       <use xlink:href="#DejaVuSans-2e" x="63.623047"/>
       <use xlink:href="#DejaVuSans-30" x="95.410156"/>
      </g>
     </g>
    </g>
    <g id="ytick_2">
     <g id="line2d_9">
      <g>
       <use xlink:href="#me338f6916e" x="225" y="100.44" style="stroke: #000000; stroke-width: 0.8"/>
      </g>
     </g>
     <g id="text_8">
      <!-- 0.5 -->
      <g transform="translate(202.096875 104.239219) scale(0.1 -0.1)">
       <defs>
        <path id="DejaVuSans-35" d="M 691 4666 
L 3169 4666 
L 3169 4134 
L 1269 4134 
L 1269 2991 
Q 1406 3038 1543 3061 
Q 1681 3084 1819 3084 
Q 2600 3084 3056 2656 
Q 3513 2228 3513 1497 
Q 3513 744 3044 326 
Q 2575 -91 1722 -91 
Q 1428 -91 1123 -41 
Q 819 9 494 109 
L 494 744 
Q 775 591 1075 516 
Q 1375 441 1709 441 
Q 2250 441 2565 725 
Q 2881 1009 2881 1497 
Q 2881 1984 2565 2268 
Q 2250 2553 1709 2553 
Q 1456 2553 1204 2497 
Q 953 2441 691 2322 
L 691 4666 
z
" transform="scale(0.015625)"/>
       </defs>
       <use xlink:href="#DejaVuSans-30"/>
       <use xlink:href="#DejaVuSans-2e" x="63.623047"/>
       <use xlink:href="#DejaVuSans-35" x="95.410156"/>
      </g>
     </g>
    </g>
    <g id="ytick_3">
     <g id="line2d_10">
      <g>
       <use xlink:href="#me338f6916e" x="225" y="72.72" style="stroke: #000000; stroke-width: 0.8"/>
      </g>
     </g>
     <g id="text_9">
      <!-- 1.0 -->
      <g transform="translate(202.096875 76.519219) scale(0.1 -0.1)">
       <use xlink:href="#DejaVuSans-31"/>
       <use xlink:href="#DejaVuSans-2e" x="63.623047"/>
       <use xlink:href="#DejaVuSans-30" x="95.410156"/>
      </g>
     </g>
    </g>
    <g id="ytick_4">
     <g id="line2d_11">
      <g>
       <use xlink:href="#me338f6916e" x="225" y="45" style="stroke: #000000; stroke-width: 0.8"/>
      </g>
     </g>
     <g id="text_10">
      <!-- 1.5 -->
      <g transform="translate(202.096875 48.799219) scale(0.1 -0.1)">
       <use xlink:href="#DejaVuSans-31"/>
       <use xlink:href="#DejaVuSans-2e" x="63.623047"/>
       <use xlink:href="#DejaVuSans-35" x="95.410156"/>
      </g>
     </g>
    </g>
    <g id="ytick_5">
     <g id="line2d_12">
      <g>
       <use xlink:href="#me338f6916e" x="225" y="17.28" style="stroke: #000000; stroke-width: 0.8"/>
      </g>
     </g>
     <g id="text_11">
      <!-- 2.0 -->
      <g transform="translate(202.096875 21.079219) scale(0.1 -0.1)">
       <use xlink:href="#DejaVuSans-32"/>
       <use xlink:href="#DejaVuSans-2e" x="63.623047"/>
       <use xlink:href="#DejaVuSans-30" x="95.410156"/>
      </g>
     </g>
    </g>
   </g>
  </g>
 </g>
 <defs>
  <clipPath id="p7fe667c740">
   <rect x="225" y="17.28" width="1395" height="110.88"/>
  </clipPath>
 </defs>
</svg>
