<?xml version="1.0" encoding="utf-8" standalone="no"?>
<!DOCTYPE svg PUBLIC "-//W3C//DTD SVG 1.1//EN"
  "http://www.w3.org/Graphics/SVG/1.1/DTD/svg11.dtd">
<svg xmlns:xlink="http://www.w3.org/1999/xlink" width="1800pt" height="144pt" viewBox="0 0 1800 144" xmlns="http://www.w3.org/2000/svg" version="1.1">
 <metadata>
  <rdf:RDF xmlns:dc="http://purl.org/dc/elements/1.1/" xmlns:cc="http://creativecommons.org/ns#" xmlns:rdf="http://www.w3.org/1999/02/22-rdf-syntax-ns#">
   <cc:Work>
    <dc:type rdf:resource="http://purl.org/dc/dcmitype/StillImage"/>
    <dc:date>2025-05-09T21:10:10.917439</dc:date>
    <dc:format>image/svg+xml</dc:format>
    <dc:creator>
     <cc:Agent>
      <dc:title>Matplotlib v3.8.0, https://matplotlib.org/</dc:title>
     </cc:Agent>
    </dc:creator>
   </cc:Work>
  </rdf:RDF>
 </metadata>
 <defs>
  <style type="text/css">*{stroke-linejoin: round; stroke-linecap: butt}</style>
 </defs>
 <g id="figure_1">
  <g id="patch_1">
   <path d="M 0 144 
L 1800 144 
L 1800 0 
L 0 0 
z
" style="fill: #ffffff"/>
  </g>
  <g id="axes_1">
   <g id="patch_2">
    <path d="M 225 128.16 
L 1620 128.16 
L 1620 17.28 
L 225 17.28 
z
" style="fill: #ffffff"/>
   </g>
   <g id="line2d_1">
    <path d="M 225 128.16 
L 1620 128.16 
" clip-path="url(#p2706081c99)" style="fill: none; stroke: #000000; stroke-width: 1.5; stroke-linecap: square"/>
   </g>
   <g id="patch_3">
    <path d="M 225 17.28 
L 228.655315 17.28 
L 231.190877 76.617197 
L 233.743152 17.28 
L 237.391304 17.28 
L 237.391304 128.16 
L 234.676678 128.16 
L 234.676678 47.055534 
L 232.110078 106.844235 
L 230.288389 106.844235 
L 227.721789 47.055534 
L 227.721789 128.16 
L 225 128.16 
L 225 17.28 
z
" clip-path="url(#p2706081c99)" style="fill: #21599c"/>
   </g>
   <g id="patch_4">
    <path d="M 238.043478 17.28 
L 241.308919 17.28 
L 241.308919 57.749061 
L 246.015715 17.28 
L 249.807753 17.28 
L 243.708462 69.797102 
L 250.434783 128.16 
L 246.346874 128.16 
L 241.308919 84.48288 
L 241.308919 128.16 
L 238.043478 128.16 
L 238.043478 17.28 
z
" clip-path="url(#p2706081c99)" style="fill: #bd2e1f"/>
   </g>
   <g id="patch_5">
    <path d="M 251.086957 17.28 
L 257.527853 17.28 
Q 260.403023 17.28 261.939029 26.690304 
Q 263.478261 36.076845 263.478261 53.447887 
Q 263.478261 70.913982 261.939029 80.300523 
Q 260.403023 89.687064 257.527853 89.687064 
L 254.96892 89.687064 
L 254.96892 128.16 
L 251.086957 128.16 
L 251.086957 17.28 
z
M 254.96892 38.00168 
L 254.96892 68.965384 
L 257.11481 68.965384 
Q 258.244226 68.965384 258.860564 64.925607 
Q 259.476902 60.885829 259.476902 53.447887 
Q 259.476902 46.033708 258.860564 42.017694 
Q 258.244226 38.00168 257.11481 38.00168 
L 254.96892 38.00168 
z
" clip-path="url(#p2706081c99)" style="fill: #787800"/>
   </g>
   <g id="patch_6">
    <path d="M 264.130435 17.28 
L 276.263821 17.28 
L 276.263821 38.904689 
L 268.627189 38.904689 
L 268.627189 59.531316 
L 275.811529 59.531316 
L 275.811529 81.156005 
L 268.627189 81.156005 
L 268.627189 106.559074 
L 276.521739 106.559074 
L 276.521739 128.16 
L 264.130435 128.16 
L 264.130435 17.28 
z
" clip-path="url(#p2706081c99)" style="fill: #6b296b"/>
   </g>
   <g id="patch_7">
    <path d="M 277.173913 17.28 
L 289.565217 17.28 
L 289.565217 38.904689 
L 285.10723 38.904689 
L 285.10723 128.16 
L 281.640546 128.16 
L 281.640546 38.904689 
L 277.173913 38.904689 
L 277.173913 17.28 
z
" clip-path="url(#p2706081c99)" style="fill: #40ba47"/>
   </g>
   <g id="patch_8">
    <path d="M 290.217391 17.28 
L 293.643223 17.28 
L 296.41044 56.798526 
L 299.175055 17.28 
L 302.608696 17.28 
L 297.980179 81.441166 
L 297.980179 128.16 
L 294.848511 128.16 
L 294.848511 81.441166 
L 290.217391 17.28 
z
" clip-path="url(#p2706081c99)" style="fill: #177875"/>
   </g>
   <g id="patch_9">
    <path d="M 314.619004 22.570907 
L 314.619004 45.200413 
Q 313.326701 41.260863 312.094974 39.268184 
Q 310.866613 37.252601 309.772867 37.252601 
Q 308.322391 37.252601 307.625759 39.978219 
Q 306.932492 42.680934 306.932492 48.407023 
Q 306.932492 52.713043 307.400279 55.118 
Q 307.868066 57.500054 309.099792 59.217881 
L 310.822863 61.57703 
Q 313.441124 65.173014 314.544966 72.479504 
Q 315.652174 79.76309 315.652174 93.230853 
Q 315.652174 110.890114 314.110833 119.525057 
Q 312.569492 128.16 309.402676 128.16 
Q 307.911815 128.16 306.407494 126.21313 
Q 304.903172 124.289163 303.39885 120.48704 
L 303.39885 97.239116 
Q 304.903172 102.667449 306.306532 105.438876 
Q 307.709893 108.187399 309.015658 108.187399 
Q 310.341615 108.187399 311.044978 105.186928 
Q 311.748341 102.163553 311.748341 96.574889 
Q 311.748341 91.581739 311.270458 88.856121 
Q 310.792575 86.130502 309.362291 83.977492 
L 307.794027 81.618343 
Q 305.438266 78.18269 304.347885 70.67006 
Q 303.26087 63.15743 303.26087 50.422607 
Q 303.26087 34.458269 304.775288 25.869134 
Q 306.289706 17.28 309.130081 17.28 
Q 310.425749 17.28 311.792091 18.608453 
Q 313.158432 19.936906 314.619004 22.570907 
z
" clip-path="url(#p2706081c99)" style="fill: #40ba47"/>
   </g>
   <g id="patch_10">
    <path d="M 316.433307 17.28 
L 328.566693 17.28 
L 328.566693 38.904689 
L 320.930061 38.904689 
L 320.930061 59.531316 
L 328.114401 59.531316 
L 328.114401 81.156005 
L 320.930061 81.156005 
L 320.930061 128.16 
L 316.433307 128.16 
L 316.433307 17.28 
z
" clip-path="url(#p2706081c99)" style="fill: #21599c"/>
   </g>
   <g id="patch_11">
    <path d="M 333.295101 17.28 
L 337.791855 17.28 
L 337.791855 128.16 
L 333.295101 128.16 
L 333.295101 17.28 
z
" clip-path="url(#p2706081c99)" style="fill: #21599c"/>
   </g>
   <g id="patch_12">
    <path d="M 342.391304 17.28 
L 346.04662 17.28 
L 348.582181 76.617197 
L 351.134456 17.28 
L 354.782609 17.28 
L 354.782609 128.16 
L 352.067982 128.16 
L 352.067982 47.055534 
L 349.501382 106.844235 
L 347.679693 106.844235 
L 345.113094 47.055534 
L 345.113094 128.16 
L 342.391304 128.16 
L 342.391304 17.28 
z
" clip-path="url(#p2706081c99)" style="fill: #21599c"/>
   </g>
   <g id="patch_13">
    <path d="M 361.96087 111.578719 
L 361.718207 111.578719 
Q 358.741712 111.578719 357.086957 99.152512 
Q 355.434783 86.706798 355.434783 64.526897 
Q 355.434783 42.38601 357.084375 29.842759 
Q 358.733967 17.28 361.630435 17.28 
Q 364.55788 17.28 366.191984 29.725714 
Q 367.826087 42.151921 367.826087 64.526897 
Q 367.826087 79.879212 366.958696 90.978916 
Q 366.091304 102.078621 364.462364 107.677241 
L 366.888995 128.16 
L 363.927989 128.16 
L 361.96087 111.578719 
z
M 361.630435 34.290443 
Q 360.210598 34.290443 359.428397 42.210443 
Q 358.646196 50.130443 358.646196 64.526897 
Q 358.646196 79.157438 359.410326 86.940887 
Q 360.177038 94.704828 361.630435 94.704828 
Q 363.058016 94.704828 363.840217 86.784828 
Q 364.622418 78.84532 364.622418 64.526897 
Q 364.622418 50.130443 363.840217 42.210443 
Q 363.058016 34.290443 361.630435 34.290443 
z
" clip-path="url(#p2706081c99)" style="fill: #40ba47"/>
   </g>
   <g id="patch_14">
    <path d="M 368.478261 17.28 
L 371.543785 17.28 
L 374.677713 99.121132 
L 377.806575 17.28 
L 380.869565 17.28 
L 376.491693 128.16 
L 372.856133 128.16 
L 368.478261 17.28 
z
" clip-path="url(#p2706081c99)" style="fill: #21599c"/>
   </g>
   <g id="patch_15">
    <path d="M 381.650698 17.28 
L 393.784084 17.28 
L 393.784084 38.904689 
L 386.147452 38.904689 
L 386.147452 59.531316 
L 393.331792 59.531316 
L 393.331792 81.156005 
L 386.147452 81.156005 
L 386.147452 128.16 
L 381.650698 128.16 
L 381.650698 17.28 
z
" clip-path="url(#p2706081c99)" style="fill: #21599c"/>
   </g>
   <g id="patch_16">
    <path d="M 397.96083 38.904689 
L 397.96083 106.559074 
L 399.177379 106.559074 
Q 401.257651 106.559074 402.35565 97.861672 
Q 403.456472 89.164269 403.456472 72.601183 
Q 403.456472 56.13315 402.361295 47.530802 
Q 401.268941 38.904689 399.177379 38.904689 
L 397.96083 38.904689 
z
M 394.565217 17.28 
L 398.1443 17.28 
Q 401.144746 17.28 402.612509 20.892036 
Q 404.080271 24.480309 405.130286 33.106421 
Q 406.056106 40.615654 406.504902 50.429936 
Q 406.956522 60.220454 406.956522 72.601183 
Q 406.956522 85.172019 406.504902 95.010064 
Q 406.056106 104.84811 405.130286 112.333579 
Q 404.071804 120.959691 402.589928 124.571727 
Q 401.108052 128.16 398.1443 128.16 
L 394.565217 128.16 
L 394.565217 17.28 
z
" clip-path="url(#p2706081c99)" style="fill: #6b296b"/>
   </g>
   <g id="patch_17">
    <path d="M 407.608696 17.28 
L 412.10545 17.28 
L 412.10545 106.559074 
L 420 106.559074 
L 420 128.16 
L 407.608696 128.16 
L 407.608696 17.28 
z
" clip-path="url(#p2706081c99)" style="fill: #21599c"/>
   </g>
   <g id="patch_18">
    <path d="M 429.235641 107.961114 
L 424.470145 107.961114 
L 423.717698 128.16 
L 420.652174 128.16 
L 425.030046 17.28 
L 428.665606 17.28 
L 433.043478 128.16 
L 429.980488 128.16 
L 429.235641 107.961114 
z
M 425.230192 87.382015 
L 428.467994 87.382015 
L 426.851626 43.277154 
L 425.230192 87.382015 
z
" clip-path="url(#p2706081c99)" style="fill: #21599c"/>
   </g>
   <g id="patch_19">
    <path d="M 438.723368 66.446464 
Q 439.835408 66.446464 440.317881 63.119589 
Q 440.800353 59.76895 440.800353 52.117137 
Q 440.800353 44.536614 440.317881 41.281029 
Q 439.835408 38.00168 438.723368 38.00168 
L 437.234764 38.00168 
L 437.234764 66.446464 
L 438.723368 66.446464 
z
M 437.234764 86.193845 
L 437.234764 128.16 
L 433.695652 128.16 
L 433.695652 17.28 
L 439.099932 17.28 
Q 441.812368 17.28 443.074446 24.646652 
Q 444.339465 31.989541 444.339465 47.887252 
Q 444.339465 58.865941 443.680478 65.923669 
Q 443.024433 72.981397 441.700576 76.332036 
Q 442.427227 77.662786 443.000898 82.391702 
Q 443.577511 87.096854 444.165892 96.673502 
L 446.086957 128.16 
L 442.318376 128.16 
L 440.644432 100.618225 
Q 440.138424 92.301037 439.617707 89.259323 
Q 439.099932 86.193845 438.235012 86.193845 
L 437.234764 86.193845 
z
" clip-path="url(#p2706081c99)" style="fill: #bd2e1f"/>
   </g>
   <g id="patch_20">
    <path d="M 446.73913 17.28 
L 451.235884 17.28 
L 451.235884 106.559074 
L 459.130435 106.559074 
L 459.130435 128.16 
L 446.73913 128.16 
L 446.73913 17.28 
z
" clip-path="url(#p2706081c99)" style="fill: #21599c"/>
   </g>
   <g id="patch_21">
    <path d="M 463.729884 17.28 
L 468.226638 17.28 
L 468.226638 128.16 
L 463.729884 128.16 
L 463.729884 17.28 
z
" clip-path="url(#p2706081c99)" style="fill: #21599c"/>
   </g>
   <g id="patch_22">
    <path d="M 472.826087 17.28 
L 479.266984 17.28 
Q 482.142154 17.28 483.678159 26.690304 
Q 485.217391 36.076845 485.217391 53.447887 
Q 485.217391 70.913982 483.678159 80.300523 
Q 482.142154 89.687064 479.266984 89.687064 
L 476.70805 89.687064 
L 476.70805 128.16 
L 472.826087 128.16 
L 472.826087 17.28 
z
M 476.70805 38.00168 
L 476.70805 68.965384 
L 478.85394 68.965384 
Q 479.983356 68.965384 480.599694 64.925607 
Q 481.216033 60.885829 481.216033 53.447887 
Q 481.216033 46.033708 480.599694 42.017694 
Q 479.983356 38.00168 478.85394 38.00168 
L 476.70805 38.00168 
z
" clip-path="url(#p2706081c99)" style="fill: #787800"/>
   </g>
   <g id="patch_23">
    <path d="M 485.869565 17.28 
L 498.002951 17.28 
L 498.002951 38.904689 
L 490.366319 38.904689 
L 490.366319 59.531316 
L 497.550659 59.531316 
L 497.550659 81.156005 
L 490.366319 81.156005 
L 490.366319 106.559074 
L 498.26087 106.559074 
L 498.26087 128.16 
L 485.869565 128.16 
L 485.869565 17.28 
z
" clip-path="url(#p2706081c99)" style="fill: #6b296b"/>
   </g>
   <g id="patch_24">
    <path d="M 511.304348 118.127891 
Q 510.054665 123.143945 508.710561 125.663425 
Q 507.366457 128.16 505.933487 128.16 
Q 502.695418 128.16 500.804231 113.226358 
Q 498.913043 98.292716 498.913043 72.754357 
Q 498.913043 46.91824 500.837556 32.09912 
Q 502.764845 17.28 506.116774 17.28 
Q 507.408113 17.28 508.591146 19.295584 
Q 509.776957 21.288263 510.826691 25.227812 
L 510.826691 47.330518 
Q 509.743632 42.268655 508.671682 39.77208 
Q 507.599731 37.252601 506.522226 37.252601 
Q 504.528287 37.252601 503.448005 46.460153 
Q 502.367724 55.644801 502.367724 72.754357 
Q 502.367724 89.703582 503.409126 98.956943 
Q 504.450529 108.187399 506.36671 108.187399 
Q 506.8888 108.187399 507.335909 107.660599 
Q 507.783018 107.110894 508.138483 105.965677 
L 508.138483 85.214328 
L 506.097334 85.214328 
L 506.097334 66.73051 
L 511.304348 66.73051 
L 511.304348 118.127891 
z
" clip-path="url(#p2706081c99)" style="fill: #787800"/>
   </g>
   <g id="patch_25">
    <path d="M 516.984238 66.446464 
Q 518.096278 66.446464 518.57875 63.119589 
Q 519.061223 59.76895 519.061223 52.117137 
Q 519.061223 44.536614 518.57875 41.281029 
Q 518.096278 38.00168 516.984238 38.00168 
L 515.495634 38.00168 
L 515.495634 66.446464 
L 516.984238 66.446464 
z
M 515.495634 86.193845 
L 515.495634 128.16 
L 511.956522 128.16 
L 511.956522 17.28 
L 517.360801 17.28 
Q 520.073238 17.28 521.335315 24.646652 
Q 522.600334 31.989541 522.600334 47.887252 
Q 522.600334 58.865941 521.941348 65.923669 
Q 521.285303 72.981397 519.961446 76.332036 
Q 520.688096 77.662786 521.261768 82.391702 
Q 521.838381 87.096854 522.426762 96.673502 
L 524.347826 128.16 
L 520.579246 128.16 
L 518.905302 100.618225 
Q 518.399294 92.301037 517.878577 89.259323 
Q 517.360801 86.193845 516.495881 86.193845 
L 515.495634 86.193845 
z
" clip-path="url(#p2706081c99)" style="fill: #bd2e1f"/>
   </g>
   <g id="patch_26">
    <path d="M 525 17.28 
L 528.065524 17.28 
L 531.199452 99.121132 
L 534.328314 17.28 
L 537.391304 17.28 
L 533.013432 128.16 
L 529.377872 128.16 
L 525 17.28 
z
" clip-path="url(#p2706081c99)" style="fill: #21599c"/>
   </g>
   <g id="patch_27">
    <path d="M 538.043478 17.28 
L 550.434783 17.28 
L 550.434783 38.904689 
L 545.976795 38.904689 
L 545.976795 128.16 
L 542.510111 128.16 
L 542.510111 38.904689 
L 538.043478 38.904689 
L 538.043478 17.28 
z
" clip-path="url(#p2706081c99)" style="fill: #40ba47"/>
   </g>
   <g id="patch_28">
    <path d="M 551.086957 17.28 
L 563.478261 17.28 
L 563.478261 38.904689 
L 559.020273 38.904689 
L 559.020273 128.16 
L 555.553589 128.16 
L 555.553589 38.904689 
L 551.086957 38.904689 
L 551.086957 17.28 
z
" clip-path="url(#p2706081c99)" style="fill: #40ba47"/>
   </g>
   <g id="patch_29">
    <path d="M 564.130435 17.28 
L 567.556266 17.28 
L 570.323484 56.798526 
L 573.088098 17.28 
L 576.521739 17.28 
L 571.893223 81.441166 
L 571.893223 128.16 
L 568.761555 128.16 
L 568.761555 81.441166 
L 564.130435 17.28 
z
" clip-path="url(#p2706081c99)" style="fill: #177875"/>
   </g>
   <g id="patch_30">
    <path d="M 589.565217 118.127891 
Q 588.315534 123.143945 586.97143 125.663425 
Q 585.627326 128.16 584.194356 128.16 
Q 580.956288 128.16 579.0651 113.226358 
Q 577.173913 98.292716 577.173913 72.754357 
Q 577.173913 46.91824 579.098425 32.09912 
Q 581.025715 17.28 584.377643 17.28 
Q 585.668983 17.28 586.852016 19.295584 
Q 588.037827 21.288263 589.087561 25.227812 
L 589.087561 47.330518 
Q 588.004502 42.268655 586.932551 39.77208 
Q 585.860601 37.252601 584.783096 37.252601 
Q 582.789157 37.252601 581.708875 46.460153 
Q 580.628593 55.644801 580.628593 72.754357 
Q 580.628593 89.703582 581.669996 98.956943 
Q 582.711399 108.187399 584.62758 108.187399 
Q 585.14967 108.187399 585.596779 107.660599 
Q 586.043888 107.110894 586.399353 105.965677 
L 586.399353 85.214328 
L 584.358204 85.214328 
L 584.358204 66.73051 
L 589.565217 66.73051 
L 589.565217 118.127891 
z
" clip-path="url(#p2706081c99)" style="fill: #787800"/>
   </g>
   <g id="patch_31">
    <path d="M 590.217391 17.28 
L 602.608696 17.28 
L 602.608696 38.904689 
L 598.150708 38.904689 
L 598.150708 128.16 
L 594.684024 128.16 
L 594.684024 38.904689 
L 590.217391 38.904689 
L 590.217391 17.28 
z
" clip-path="url(#p2706081c99)" style="fill: #40ba47"/>
   </g>
   <g id="patch_32">
    <path d="M 607.208145 17.28 
L 611.704899 17.28 
L 611.704899 128.16 
L 607.208145 128.16 
L 607.208145 17.28 
z
" clip-path="url(#p2706081c99)" style="fill: #21599c"/>
   </g>
   <g id="patch_33">
    <path d="M 624.887815 107.961114 
L 620.122319 107.961114 
L 619.369872 128.16 
L 616.304348 128.16 
L 620.68222 17.28 
L 624.31778 17.28 
L 628.695652 128.16 
L 625.632662 128.16 
L 624.887815 107.961114 
z
M 620.882366 87.382015 
L 624.120167 87.382015 
L 622.5038 43.277154 
L 620.882366 87.382015 
z
" clip-path="url(#p2706081c99)" style="fill: #21599c"/>
   </g>
   <g id="patch_34">
    <path d="M 634.375542 66.446464 
Q 635.487582 66.446464 635.970055 63.119589 
Q 636.452527 59.76895 636.452527 52.117137 
Q 636.452527 44.536614 635.970055 41.281029 
Q 635.487582 38.00168 634.375542 38.00168 
L 632.886938 38.00168 
L 632.886938 66.446464 
L 634.375542 66.446464 
z
M 632.886938 86.193845 
L 632.886938 128.16 
L 629.347826 128.16 
L 629.347826 17.28 
L 634.752106 17.28 
Q 637.464542 17.28 638.72662 24.646652 
Q 639.991639 31.989541 639.991639 47.887252 
Q 639.991639 58.865941 639.332652 65.923669 
Q 638.676607 72.981397 637.35275 76.332036 
Q 638.0794 77.662786 638.653072 82.391702 
Q 639.229685 87.096854 639.818066 96.673502 
L 641.73913 128.16 
L 637.97055 128.16 
L 636.296606 100.618225 
Q 635.790598 92.301037 635.269881 89.259323 
Q 634.752106 86.193845 633.887186 86.193845 
L 632.886938 86.193845 
z
" clip-path="url(#p2706081c99)" style="fill: #bd2e1f"/>
   </g>
   <g id="patch_35">
    <path d="M 650.974772 107.961114 
L 646.209275 107.961114 
L 645.456828 128.16 
L 642.391304 128.16 
L 646.769177 17.28 
L 650.404736 17.28 
L 654.782609 128.16 
L 651.719618 128.16 
L 650.974772 107.961114 
z
M 646.969323 87.382015 
L 650.207124 87.382015 
L 648.590757 43.277154 
L 646.969323 87.382015 
z
" clip-path="url(#p2706081c99)" style="fill: #21599c"/>
   </g>
   <g id="patch_36">
    <path d="M 655.434783 17.28 
L 659.931536 17.28 
L 659.931536 106.559074 
L 667.826087 106.559074 
L 667.826087 128.16 
L 655.434783 128.16 
L 655.434783 17.28 
z
" clip-path="url(#p2706081c99)" style="fill: #21599c"/>
   </g>
   <g id="patch_37">
    <path d="M 680.869565 118.127891 
Q 679.619882 123.143945 678.275778 125.663425 
Q 676.931674 128.16 675.498704 128.16 
Q 672.260636 128.16 670.369448 113.226358 
Q 668.478261 98.292716 668.478261 72.754357 
Q 668.478261 46.91824 670.402773 32.09912 
Q 672.330063 17.28 675.681991 17.28 
Q 676.97333 17.28 678.156364 19.295584 
Q 679.342174 21.288263 680.391908 25.227812 
L 680.391908 47.330518 
Q 679.30885 42.268655 678.236899 39.77208 
Q 677.164948 37.252601 676.087444 37.252601 
Q 674.093505 37.252601 673.013223 46.460153 
Q 671.932941 55.644801 671.932941 72.754357 
Q 671.932941 89.703582 672.974344 98.956943 
Q 674.015746 108.187399 675.931928 108.187399 
Q 676.454018 108.187399 676.901126 107.660599 
Q 677.348235 107.110894 677.703701 105.965677 
L 677.703701 85.214328 
L 675.662551 85.214328 
L 675.662551 66.73051 
L 680.869565 66.73051 
L 680.869565 118.127891 
z
" clip-path="url(#p2706081c99)" style="fill: #787800"/>
   </g>
   <g id="patch_38">
    <path d="M 692.879874 22.570907 
L 692.879874 45.200413 
Q 691.587571 41.260863 690.355844 39.268184 
Q 689.127483 37.252601 688.033736 37.252601 
Q 686.583261 37.252601 685.886628 39.978219 
Q 685.193361 42.680934 685.193361 48.407023 
Q 685.193361 52.713043 685.661148 55.118 
Q 686.128935 57.500054 687.360662 59.217881 
L 689.083733 61.57703 
Q 691.701993 65.173014 692.805836 72.479504 
Q 693.913043 79.76309 693.913043 93.230853 
Q 693.913043 110.890114 692.371703 119.525057 
Q 690.830362 128.16 687.663545 128.16 
Q 686.172685 128.16 684.668363 126.21313 
Q 683.164041 124.289163 681.659719 120.48704 
L 681.659719 97.239116 
Q 683.164041 102.667449 684.567402 105.438876 
Q 685.970763 108.187399 687.276527 108.187399 
Q 688.602484 108.187399 689.305847 105.186928 
Q 690.00921 102.163553 690.00921 96.574889 
Q 690.00921 91.581739 689.531327 88.856121 
Q 689.053444 86.130502 687.623161 83.977492 
L 686.054897 81.618343 
Q 683.699136 78.18269 682.608755 70.67006 
Q 681.521739 63.15743 681.521739 50.422607 
Q 681.521739 34.458269 683.036157 25.869134 
Q 684.550575 17.28 687.39095 17.28 
Q 688.686619 17.28 690.05296 18.608453 
Q 691.419302 19.936906 692.879874 22.570907 
z
" clip-path="url(#p2706081c99)" style="fill: #40ba47"/>
   </g>
   <g id="patch_39">
    <path d="M 703.148685 107.961114 
L 698.383188 107.961114 
L 697.630741 128.16 
L 694.565217 128.16 
L 698.94309 17.28 
L 702.578649 17.28 
L 706.956522 128.16 
L 703.893531 128.16 
L 703.148685 107.961114 
z
M 699.143236 87.382015 
L 702.381037 87.382015 
L 700.76467 43.277154 
L 699.143236 87.382015 
z
" clip-path="url(#p2706081c99)" style="fill: #21599c"/>
   </g>
   <g id="patch_40">
    <path d="M 707.608696 17.28 
L 710.874137 17.28 
L 710.874137 57.749061 
L 715.580932 17.28 
L 719.37297 17.28 
L 713.27368 69.797102 
L 720 128.16 
L 715.912091 128.16 
L 710.874137 84.48288 
L 710.874137 128.16 
L 707.608696 128.16 
L 707.608696 17.28 
z
" clip-path="url(#p2706081c99)" style="fill: #bd2e1f"/>
   </g>
   <g id="patch_41">
    <path d="M 732.010309 22.570907 
L 732.010309 45.200413 
Q 730.718005 41.260863 729.486279 39.268184 
Q 728.257917 37.252601 727.164171 37.252601 
Q 725.713695 37.252601 725.017063 39.978219 
Q 724.323796 42.680934 724.323796 48.407023 
Q 724.323796 52.713043 724.791583 55.118 
Q 725.25937 57.500054 726.491097 59.217881 
L 728.214168 61.57703 
Q 730.832428 65.173014 731.93627 72.479504 
Q 733.043478 79.76309 733.043478 93.230853 
Q 733.043478 110.890114 731.502137 119.525057 
Q 729.960796 128.16 726.79398 128.16 
Q 725.30312 128.16 723.798798 126.21313 
Q 722.294476 124.289163 720.790154 120.48704 
L 720.790154 97.239116 
Q 722.294476 102.667449 723.697837 105.438876 
Q 725.101197 108.187399 726.406962 108.187399 
Q 727.732919 108.187399 728.436282 105.186928 
Q 729.139645 102.163553 729.139645 96.574889 
Q 729.139645 91.581739 728.661762 88.856121 
Q 728.183879 86.130502 726.753596 83.977492 
L 725.185332 81.618343 
Q 722.82957 78.18269 721.739189 70.67006 
Q 720.652174 63.15743 720.652174 50.422607 
Q 720.652174 34.458269 722.166592 25.869134 
Q 723.68101 17.28 726.521385 17.28 
Q 727.817054 17.28 729.183395 18.608453 
Q 730.549737 19.936906 732.010309 22.570907 
z
" clip-path="url(#p2706081c99)" style="fill: #40ba47"/>
   </g>
   <g id="patch_42">
    <path d="M 742.27912 107.961114 
L 737.513623 107.961114 
L 736.761176 128.16 
L 733.695652 128.16 
L 738.073525 17.28 
L 741.709084 17.28 
L 746.086957 128.16 
L 743.023966 128.16 
L 742.27912 107.961114 
z
M 738.27367 87.382015 
L 741.511472 87.382015 
L 739.895105 43.277154 
L 738.27367 87.382015 
z
" clip-path="url(#p2706081c99)" style="fill: #21599c"/>
   </g>
   <g id="patch_43">
    <path d="M 751.766846 66.446464 
Q 752.878886 66.446464 753.361359 63.119589 
Q 753.843831 59.76895 753.843831 52.117137 
Q 753.843831 44.536614 753.361359 41.281029 
Q 752.878886 38.00168 751.766846 38.00168 
L 750.278242 38.00168 
L 750.278242 66.446464 
L 751.766846 66.446464 
z
M 750.278242 86.193845 
L 750.278242 128.16 
L 746.73913 128.16 
L 746.73913 17.28 
L 752.14341 17.28 
Q 754.855847 17.28 756.117924 24.646652 
Q 757.382943 31.989541 757.382943 47.887252 
Q 757.382943 58.865941 756.723956 65.923669 
Q 756.067912 72.981397 754.744054 76.332036 
Q 755.470705 77.662786 756.044376 82.391702 
Q 756.62099 87.096854 757.209371 96.673502 
L 759.130435 128.16 
L 755.361854 128.16 
L 753.68791 100.618225 
Q 753.181903 92.301037 752.661185 89.259323 
Q 752.14341 86.193845 751.27849 86.193845 
L 750.278242 86.193845 
z
" clip-path="url(#p2706081c99)" style="fill: #bd2e1f"/>
   </g>
   <g id="patch_44">
    <path d="M 759.782609 17.28 
L 764.279363 17.28 
L 764.279363 106.559074 
L 772.173913 106.559074 
L 772.173913 128.16 
L 759.782609 128.16 
L 759.782609 17.28 
z
" clip-path="url(#p2706081c99)" style="fill: #21599c"/>
   </g>
   <g id="patch_45">
    <path d="M 772.826087 17.28 
L 775.891611 17.28 
L 779.025539 99.121132 
L 782.154401 17.28 
L 785.217391 17.28 
L 780.839519 128.16 
L 777.203959 128.16 
L 772.826087 17.28 
z
" clip-path="url(#p2706081c99)" style="fill: #21599c"/>
   </g>
   <g id="patch_46">
    <path d="M 798.26087 118.127891 
Q 797.011186 123.143945 795.667082 125.663425 
Q 794.322979 128.16 792.890008 128.16 
Q 789.65194 128.16 787.760753 113.226358 
Q 785.869565 98.292716 785.869565 72.754357 
Q 785.869565 46.91824 787.794078 32.09912 
Q 789.721367 17.28 793.073295 17.28 
Q 794.364635 17.28 795.547668 19.295584 
Q 796.733479 21.288263 797.783213 25.227812 
L 797.783213 47.330518 
Q 796.700154 42.268655 795.628203 39.77208 
Q 794.556253 37.252601 793.478748 37.252601 
Q 791.484809 37.252601 790.404527 46.460153 
Q 789.324245 55.644801 789.324245 72.754357 
Q 789.324245 89.703582 790.365648 98.956943 
Q 791.407051 108.187399 793.323232 108.187399 
Q 793.845322 108.187399 794.292431 107.660599 
Q 794.73954 107.110894 795.095005 105.965677 
L 795.095005 85.214328 
L 793.053856 85.214328 
L 793.053856 66.73051 
L 798.26087 66.73051 
L 798.26087 118.127891 
z
" clip-path="url(#p2706081c99)" style="fill: #787800"/>
   </g>
   <g id="patch_47">
    <path d="M 798.913043 17.28 
L 802.178485 17.28 
L 802.178485 57.749061 
L 806.88528 17.28 
L 810.677318 17.28 
L 804.578028 69.797102 
L 811.304348 128.16 
L 807.216439 128.16 
L 802.178485 84.48288 
L 802.178485 128.16 
L 798.913043 128.16 
L 798.913043 17.28 
z
" clip-path="url(#p2706081c99)" style="fill: #bd2e1f"/>
   </g>
   <g id="patch_48">
    <path d="M 820.539989 107.961114 
L 815.774493 107.961114 
L 815.022046 128.16 
L 811.956522 128.16 
L 816.334394 17.28 
L 819.969954 17.28 
L 824.347826 128.16 
L 821.284836 128.16 
L 820.539989 107.961114 
z
M 816.53454 87.382015 
L 819.772341 87.382015 
L 818.155974 43.277154 
L 816.53454 87.382015 
z
" clip-path="url(#p2706081c99)" style="fill: #21599c"/>
   </g>
   <g id="patch_49">
    <path d="M 825 17.28 
L 828.655315 17.28 
L 831.190877 76.617197 
L 833.743152 17.28 
L 837.391304 17.28 
L 837.391304 128.16 
L 834.676678 128.16 
L 834.676678 47.055534 
L 832.110078 106.844235 
L 830.288389 106.844235 
L 827.721789 47.055534 
L 827.721789 128.16 
L 825 128.16 
L 825 17.28 
z
" clip-path="url(#p2706081c99)" style="fill: #21599c"/>
   </g>
   <g id="patch_50">
    <path d="M 838.043478 17.28 
L 842.023751 17.28 
L 847.053181 93.322863 
L 847.053181 17.28 
L 850.434783 17.28 
L 850.434783 128.16 
L 846.451546 128.16 
L 841.422117 52.117137 
L 841.422117 128.16 
L 838.043478 128.16 
L 838.043478 17.28 
z
" clip-path="url(#p2706081c99)" style="fill: #40ba47"/>
   </g>
   <g id="patch_51">
    <path d="M 851.086957 17.28 
L 854.652309 17.28 
L 854.652309 59.531316 
L 859.912908 59.531316 
L 859.912908 17.28 
L 863.478261 17.28 
L 863.478261 128.16 
L 859.912908 128.16 
L 859.912908 81.156005 
L 854.652309 81.156005 
L 854.652309 128.16 
L 851.086957 128.16 
L 851.086957 17.28 
z
" clip-path="url(#p2706081c99)" style="fill: #177875"/>
   </g>
   <g id="patch_52">
    <path d="M 875.48857 22.570907 
L 875.48857 45.200413 
Q 874.196266 41.260863 872.96454 39.268184 
Q 871.736178 37.252601 870.642432 37.252601 
Q 869.191956 37.252601 868.495324 39.978219 
Q 867.802057 42.680934 867.802057 48.407023 
Q 867.802057 52.713043 868.269844 55.118 
Q 868.737631 57.500054 869.969357 59.217881 
L 871.692429 61.57703 
Q 874.310689 65.173014 875.414531 72.479504 
Q 876.521739 79.76309 876.521739 93.230853 
Q 876.521739 110.890114 874.980398 119.525057 
Q 873.439057 128.16 870.272241 128.16 
Q 868.781381 128.16 867.277059 126.21313 
Q 865.772737 124.289163 864.268415 120.48704 
L 864.268415 97.239116 
Q 865.772737 102.667449 867.176098 105.438876 
Q 868.579458 108.187399 869.885223 108.187399 
Q 871.21118 108.187399 871.914543 105.186928 
Q 872.617906 102.163553 872.617906 96.574889 
Q 872.617906 91.581739 872.140023 88.856121 
Q 871.66214 86.130502 870.231857 83.977492 
L 868.663593 81.618343 
Q 866.307831 78.18269 865.21745 70.67006 
Q 864.130435 63.15743 864.130435 50.422607 
Q 864.130435 34.458269 865.644853 25.869134 
Q 867.159271 17.28 869.999646 17.28 
Q 871.295314 17.28 872.661656 18.608453 
Q 874.027998 19.936906 875.48857 22.570907 
z
" clip-path="url(#p2706081c99)" style="fill: #40ba47"/>
   </g>
   <g id="patch_53">
    <path d="M 877.173913 17.28 
L 880.739266 17.28 
L 880.739266 59.531316 
L 885.999865 59.531316 
L 885.999865 17.28 
L 889.565217 17.28 
L 889.565217 128.16 
L 885.999865 128.16 
L 885.999865 81.156005 
L 880.739266 81.156005 
L 880.739266 128.16 
L 877.173913 128.16 
L 877.173913 17.28 
z
" clip-path="url(#p2706081c99)" style="fill: #177875"/>
   </g>
   <g id="patch_54">
    <path d="M 902.608696 118.127891 
Q 901.359012 123.143945 900.014909 125.663425 
Q 898.670805 128.16 897.237834 128.16 
Q 893.999766 128.16 892.108579 113.226358 
Q 890.217391 98.292716 890.217391 72.754357 
Q 890.217391 46.91824 892.141904 32.09912 
Q 894.069193 17.28 897.421121 17.28 
Q 898.712461 17.28 899.895494 19.295584 
Q 901.081305 21.288263 902.131039 25.227812 
L 902.131039 47.330518 
Q 901.04798 42.268655 899.976029 39.77208 
Q 898.904079 37.252601 897.826574 37.252601 
Q 895.832635 37.252601 894.752353 46.460153 
Q 893.672071 55.644801 893.672071 72.754357 
Q 893.672071 89.703582 894.713474 98.956943 
Q 895.754877 108.187399 897.671058 108.187399 
Q 898.193148 108.187399 898.640257 107.660599 
Q 899.087366 107.110894 899.442831 105.965677 
L 899.442831 85.214328 
L 897.401682 85.214328 
L 897.401682 66.73051 
L 902.608696 66.73051 
L 902.608696 118.127891 
z
" clip-path="url(#p2706081c99)" style="fill: #787800"/>
   </g>
   <g id="patch_55">
    <path d="M 903.26087 17.28 
L 915.652174 17.28 
L 915.652174 38.904689 
L 911.194186 38.904689 
L 911.194186 128.16 
L 907.727503 128.16 
L 907.727503 38.904689 
L 903.26087 38.904689 
L 903.26087 17.28 
z
" clip-path="url(#p2706081c99)" style="fill: #40ba47"/>
   </g>
   <g id="patch_56">
    <path d="M 920.251623 17.28 
L 924.748377 17.28 
L 924.748377 128.16 
L 920.251623 128.16 
L 920.251623 17.28 
z
" clip-path="url(#p2706081c99)" style="fill: #21599c"/>
   </g>
   <g id="patch_57">
    <path d="M 929.347826 17.28 
L 932.773657 17.28 
L 935.540875 56.798526 
L 938.30549 17.28 
L 941.73913 17.28 
L 937.110614 81.441166 
L 937.110614 128.16 
L 933.978946 128.16 
L 933.978946 81.441166 
L 929.347826 17.28 
z
" clip-path="url(#p2706081c99)" style="fill: #177875"/>
   </g>
   <g id="patch_58">
    <path d="M 942.391304 17.28 
L 945.656746 17.28 
L 945.656746 57.749061 
L 950.363541 17.28 
L 954.155579 17.28 
L 948.056288 69.797102 
L 954.782609 128.16 
L 950.6947 128.16 
L 945.656746 84.48288 
L 945.656746 128.16 
L 942.391304 128.16 
L 942.391304 17.28 
z
" clip-path="url(#p2706081c99)" style="fill: #bd2e1f"/>
   </g>
   <g id="patch_59">
    <path d="M 955.434783 17.28 
L 958.500307 17.28 
L 961.634235 99.121132 
L 964.763096 17.28 
L 967.826087 17.28 
L 963.448215 128.16 
L 959.812655 128.16 
L 955.434783 17.28 
z
" clip-path="url(#p2706081c99)" style="fill: #21599c"/>
   </g>
   <g id="patch_60">
    <path d="M 968.478261 17.28 
L 974.919158 17.28 
Q 977.794327 17.28 979.330333 26.690304 
Q 980.869565 36.076845 980.869565 53.447887 
Q 980.869565 70.913982 979.330333 80.300523 
Q 977.794327 89.687064 974.919158 89.687064 
L 972.360224 89.687064 
L 972.360224 128.16 
L 968.478261 128.16 
L 968.478261 17.28 
z
M 972.360224 38.00168 
L 972.360224 68.965384 
L 974.506114 68.965384 
Q 975.63553 68.965384 976.251868 64.925607 
Q 976.868207 60.885829 976.868207 53.447887 
Q 976.868207 46.033708 976.251868 42.017694 
Q 975.63553 38.00168 974.506114 38.00168 
L 972.360224 38.00168 
z
" clip-path="url(#p2706081c99)" style="fill: #787800"/>
   </g>
   <g id="patch_61">
    <path d="M 990.105207 107.961114 
L 985.33971 107.961114 
L 984.587263 128.16 
L 981.521739 128.16 
L 985.899612 17.28 
L 989.535171 17.28 
L 993.913043 128.16 
L 990.850053 128.16 
L 990.105207 107.961114 
z
M 986.099757 87.382015 
L 989.337559 87.382015 
L 987.721192 43.277154 
L 986.099757 87.382015 
z
" clip-path="url(#p2706081c99)" style="fill: #21599c"/>
   </g>
   <g id="patch_62">
    <path d="M 994.565217 17.28 
L 998.13057 17.28 
L 998.13057 59.531316 
L 1003.391169 59.531316 
L 1003.391169 17.28 
L 1006.956522 17.28 
L 1006.956522 128.16 
L 1003.391169 128.16 
L 1003.391169 81.156005 
L 998.13057 81.156005 
L 998.13057 128.16 
L 994.565217 128.16 
L 994.565217 17.28 
z
" clip-path="url(#p2706081c99)" style="fill: #177875"/>
   </g>
   <g id="patch_63">
    <path d="M 1012.636411 66.446464 
Q 1013.748452 66.446464 1014.230924 63.119589 
Q 1014.713397 59.76895 1014.713397 52.117137 
Q 1014.713397 44.536614 1014.230924 41.281029 
Q 1013.748452 38.00168 1012.636411 38.00168 
L 1011.147808 38.00168 
L 1011.147808 66.446464 
L 1012.636411 66.446464 
z
M 1011.147808 86.193845 
L 1011.147808 128.16 
L 1007.608696 128.16 
L 1007.608696 17.28 
L 1013.012975 17.28 
Q 1015.725412 17.28 1016.987489 24.646652 
Q 1018.252508 31.989541 1018.252508 47.887252 
Q 1018.252508 58.865941 1017.593522 65.923669 
Q 1016.937477 72.981397 1015.613619 76.332036 
Q 1016.34027 77.662786 1016.913942 82.391702 
Q 1017.490555 87.096854 1018.078936 96.673502 
L 1020 128.16 
L 1016.23142 128.16 
L 1014.557476 100.618225 
Q 1014.051468 92.301037 1013.530751 89.259323 
Q 1013.012975 86.193845 1012.148055 86.193845 
L 1011.147808 86.193845 
z
" clip-path="url(#p2706081c99)" style="fill: #bd2e1f"/>
   </g>
   <g id="patch_64">
    <path d="M 1020.652174 17.28 
L 1023.717698 17.28 
L 1026.851626 99.121132 
L 1029.980488 17.28 
L 1033.043478 17.28 
L 1028.665606 128.16 
L 1025.030046 128.16 
L 1020.652174 17.28 
z
" clip-path="url(#p2706081c99)" style="fill: #21599c"/>
   </g>
   <g id="patch_65">
    <path d="M 1033.695652 17.28 
L 1036.761176 17.28 
L 1039.895105 99.121132 
L 1043.023966 17.28 
L 1046.086957 17.28 
L 1041.709084 128.16 
L 1038.073525 128.16 
L 1033.695652 17.28 
z
" clip-path="url(#p2706081c99)" style="fill: #21599c"/>
   </g>
   <g id="patch_66">
    <path d="M 1046.73913 17.28 
L 1050.719404 17.28 
L 1055.748833 93.322863 
L 1055.748833 17.28 
L 1059.130435 17.28 
L 1059.130435 128.16 
L 1055.147198 128.16 
L 1050.117769 52.117137 
L 1050.117769 128.16 
L 1046.73913 128.16 
L 1046.73913 17.28 
z
" clip-path="url(#p2706081c99)" style="fill: #40ba47"/>
   </g>
   <g id="patch_67">
    <path d="M 1072.173913 118.127891 
Q 1070.92423 123.143945 1069.580126 125.663425 
Q 1068.236022 128.16 1066.803052 128.16 
Q 1063.564984 128.16 1061.673796 113.226358 
Q 1059.782609 98.292716 1059.782609 72.754357 
Q 1059.782609 46.91824 1061.707121 32.09912 
Q 1063.63441 17.28 1066.986339 17.28 
Q 1068.277678 17.28 1069.460712 19.295584 
Q 1070.646522 21.288263 1071.696256 25.227812 
L 1071.696256 47.330518 
Q 1070.613197 42.268655 1069.541247 39.77208 
Q 1068.469296 37.252601 1067.391792 37.252601 
Q 1065.397852 37.252601 1064.317571 46.460153 
Q 1063.237289 55.644801 1063.237289 72.754357 
Q 1063.237289 89.703582 1064.278692 98.956943 
Q 1065.320094 108.187399 1067.236275 108.187399 
Q 1067.758365 108.187399 1068.205474 107.660599 
Q 1068.652583 107.110894 1069.008049 105.965677 
L 1069.008049 85.214328 
L 1066.966899 85.214328 
L 1066.966899 66.73051 
L 1072.173913 66.73051 
L 1072.173913 118.127891 
z
" clip-path="url(#p2706081c99)" style="fill: #787800"/>
   </g>
   <g id="patch_68">
    <path d="M 1084.184222 22.570907 
L 1084.184222 45.200413 
Q 1082.891918 41.260863 1081.660192 39.268184 
Q 1080.431831 37.252601 1079.338084 37.252601 
Q 1077.887608 37.252601 1077.190976 39.978219 
Q 1076.497709 42.680934 1076.497709 48.407023 
Q 1076.497709 52.713043 1076.965496 55.118 
Q 1077.433283 57.500054 1078.66501 59.217881 
L 1080.388081 61.57703 
Q 1083.006341 65.173014 1084.110184 72.479504 
Q 1085.217391 79.76309 1085.217391 93.230853 
Q 1085.217391 110.890114 1083.67605 119.525057 
Q 1082.134709 128.16 1078.967893 128.16 
Q 1077.477033 128.16 1075.972711 126.21313 
Q 1074.468389 124.289163 1072.964067 120.48704 
L 1072.964067 97.239116 
Q 1074.468389 102.667449 1075.87175 105.438876 
Q 1077.27511 108.187399 1078.580875 108.187399 
Q 1079.906832 108.187399 1080.610195 105.186928 
Q 1081.313558 102.163553 1081.313558 96.574889 
Q 1081.313558 91.581739 1080.835675 88.856121 
Q 1080.357792 86.130502 1078.927509 83.977492 
L 1077.359245 81.618343 
Q 1075.003483 78.18269 1073.913103 70.67006 
Q 1072.826087 63.15743 1072.826087 50.422607 
Q 1072.826087 34.458269 1074.340505 25.869134 
Q 1075.854923 17.28 1078.695298 17.28 
Q 1079.990967 17.28 1081.357308 18.608453 
Q 1082.72365 19.936906 1084.184222 22.570907 
z
" clip-path="url(#p2706081c99)" style="fill: #40ba47"/>
   </g>
   <g id="patch_69">
    <path d="M 1098.26087 118.127891 
Q 1097.011186 123.143945 1095.667082 125.663425 
Q 1094.322979 128.16 1092.890008 128.16 
Q 1089.65194 128.16 1087.760753 113.226358 
Q 1085.869565 98.292716 1085.869565 72.754357 
Q 1085.869565 46.91824 1087.794078 32.09912 
Q 1089.721367 17.28 1093.073295 17.28 
Q 1094.364635 17.28 1095.547668 19.295584 
Q 1096.733479 21.288263 1097.783213 25.227812 
L 1097.783213 47.330518 
Q 1096.700154 42.268655 1095.628203 39.77208 
Q 1094.556253 37.252601 1093.478748 37.252601 
Q 1091.484809 37.252601 1090.404527 46.460153 
Q 1089.324245 55.644801 1089.324245 72.754357 
Q 1089.324245 89.703582 1090.365648 98.956943 
Q 1091.407051 108.187399 1093.323232 108.187399 
Q 1093.845322 108.187399 1094.292431 107.660599 
Q 1094.73954 107.110894 1095.095005 105.965677 
L 1095.095005 85.214328 
L 1093.053856 85.214328 
L 1093.053856 66.73051 
L 1098.26087 66.73051 
L 1098.26087 118.127891 
z
" clip-path="url(#p2706081c99)" style="fill: #787800"/>
   </g>
   <g id="patch_70">
    <path d="M 1098.913043 17.28 
L 1103.409797 17.28 
L 1103.409797 106.559074 
L 1111.304348 106.559074 
L 1111.304348 128.16 
L 1098.913043 128.16 
L 1098.913043 17.28 
z
" clip-path="url(#p2706081c99)" style="fill: #21599c"/>
   </g>
   <g id="patch_71">
    <path d="M 1111.956522 17.28 
L 1116.453276 17.28 
L 1116.453276 106.559074 
L 1124.347826 106.559074 
L 1124.347826 128.16 
L 1111.956522 128.16 
L 1111.956522 17.28 
z
" clip-path="url(#p2706081c99)" style="fill: #21599c"/>
   </g>
   <g id="patch_72">
    <path d="M 1125 17.28 
L 1137.391304 17.28 
L 1137.391304 38.904689 
L 1132.933316 38.904689 
L 1132.933316 128.16 
L 1129.466633 128.16 
L 1129.466633 38.904689 
L 1125 38.904689 
L 1125 17.28 
z
" clip-path="url(#p2706081c99)" style="fill: #40ba47"/>
   </g>
   <g id="patch_73">
    <path d="M 1150.434783 118.127891 
Q 1149.185099 123.143945 1147.840995 125.663425 
Q 1146.496892 128.16 1145.063921 128.16 
Q 1141.825853 128.16 1139.934666 113.226358 
Q 1138.043478 98.292716 1138.043478 72.754357 
Q 1138.043478 46.91824 1139.967991 32.09912 
Q 1141.89528 17.28 1145.247208 17.28 
Q 1146.538548 17.28 1147.721581 19.295584 
Q 1148.907392 21.288263 1149.957126 25.227812 
L 1149.957126 47.330518 
Q 1148.874067 42.268655 1147.802116 39.77208 
Q 1146.730166 37.252601 1145.652661 37.252601 
Q 1143.658722 37.252601 1142.57844 46.460153 
Q 1141.498158 55.644801 1141.498158 72.754357 
Q 1141.498158 89.703582 1142.539561 98.956943 
Q 1143.580964 108.187399 1145.497145 108.187399 
Q 1146.019235 108.187399 1146.466344 107.660599 
Q 1146.913453 107.110894 1147.268918 105.965677 
L 1147.268918 85.214328 
L 1145.227769 85.214328 
L 1145.227769 66.73051 
L 1150.434783 66.73051 
L 1150.434783 118.127891 
z
" clip-path="url(#p2706081c99)" style="fill: #787800"/>
   </g>
   <g id="patch_74">
    <path d="M 1151.086957 17.28 
L 1154.352398 17.28 
L 1154.352398 57.749061 
L 1159.059193 17.28 
L 1162.851231 17.28 
L 1156.751941 69.797102 
L 1163.478261 128.16 
L 1159.390352 128.16 
L 1154.352398 84.48288 
L 1154.352398 128.16 
L 1151.086957 128.16 
L 1151.086957 17.28 
z
" clip-path="url(#p2706081c99)" style="fill: #bd2e1f"/>
   </g>
   <g id="patch_75">
    <path d="M 1164.259394 17.28 
L 1176.39278 17.28 
L 1176.39278 38.904689 
L 1168.756148 38.904689 
L 1168.756148 59.531316 
L 1175.940488 59.531316 
L 1175.940488 81.156005 
L 1168.756148 81.156005 
L 1168.756148 128.16 
L 1164.259394 128.16 
L 1164.259394 17.28 
z
" clip-path="url(#p2706081c99)" style="fill: #21599c"/>
   </g>
   <g id="patch_76">
    <path d="M 1177.173913 17.28 
L 1180.739266 17.28 
L 1180.739266 59.531316 
L 1185.999865 59.531316 
L 1185.999865 17.28 
L 1189.565217 17.28 
L 1189.565217 128.16 
L 1185.999865 128.16 
L 1185.999865 81.156005 
L 1180.739266 81.156005 
L 1180.739266 128.16 
L 1177.173913 128.16 
L 1177.173913 17.28 
z
" clip-path="url(#p2706081c99)" style="fill: #177875"/>
   </g>
   <g id="patch_77">
    <path d="M 1190.217391 17.28 
L 1194.714145 17.28 
L 1194.714145 106.559074 
L 1202.608696 106.559074 
L 1202.608696 128.16 
L 1190.217391 128.16 
L 1190.217391 17.28 
z
" clip-path="url(#p2706081c99)" style="fill: #21599c"/>
   </g>
   <g id="patch_78">
    <path d="M 1203.26087 17.28 
L 1215.652174 17.28 
L 1215.652174 38.904689 
L 1211.194186 38.904689 
L 1211.194186 128.16 
L 1207.727503 128.16 
L 1207.727503 38.904689 
L 1203.26087 38.904689 
L 1203.26087 17.28 
z
" clip-path="url(#p2706081c99)" style="fill: #40ba47"/>
   </g>
   <g id="patch_79">
    <path d="M 1219.69996 38.904689 
L 1219.69996 106.559074 
L 1220.91651 106.559074 
Q 1222.996781 106.559074 1224.094781 97.861672 
Q 1225.195603 89.164269 1225.195603 72.601183 
Q 1225.195603 56.13315 1224.100426 47.530802 
Q 1223.008072 38.904689 1220.91651 38.904689 
L 1219.69996 38.904689 
z
M 1216.304348 17.28 
L 1219.883431 17.28 
Q 1222.883876 17.28 1224.351639 20.892036 
Q 1225.819402 24.480309 1226.869417 33.106421 
Q 1227.795236 40.615654 1228.244033 50.429936 
Q 1228.695652 60.220454 1228.695652 72.601183 
Q 1228.695652 85.172019 1228.244033 95.010064 
Q 1227.795236 104.84811 1226.869417 112.333579 
Q 1225.810934 120.959691 1224.329058 124.571727 
Q 1222.847182 128.16 1219.883431 128.16 
L 1216.304348 128.16 
L 1216.304348 17.28 
z
" clip-path="url(#p2706081c99)" style="fill: #6b296b"/>
   </g>
   <g id="patch_80">
    <path d="M 1229.347826 17.28 
L 1235.788723 17.28 
Q 1238.663893 17.28 1240.199898 26.690304 
Q 1241.73913 36.076845 1241.73913 53.447887 
Q 1241.73913 70.913982 1240.199898 80.300523 
Q 1238.663893 89.687064 1235.788723 89.687064 
L 1233.229789 89.687064 
L 1233.229789 128.16 
L 1229.347826 128.16 
L 1229.347826 17.28 
z
M 1233.229789 38.00168 
L 1233.229789 68.965384 
L 1235.375679 68.965384 
Q 1236.505095 68.965384 1237.121433 64.925607 
Q 1237.737772 60.885829 1237.737772 53.447887 
Q 1237.737772 46.033708 1237.121433 42.017694 
Q 1236.505095 38.00168 1235.375679 38.00168 
L 1233.229789 38.00168 
z
" clip-path="url(#p2706081c99)" style="fill: #787800"/>
   </g>
   <g id="patch_81">
    <path d="M 1245.786917 38.904689 
L 1245.786917 106.559074 
L 1247.003466 106.559074 
Q 1249.083738 106.559074 1250.181737 97.861672 
Q 1251.282559 89.164269 1251.282559 72.601183 
Q 1251.282559 56.13315 1250.187382 47.530802 
Q 1249.095028 38.904689 1247.003466 38.904689 
L 1245.786917 38.904689 
z
M 1242.391304 17.28 
L 1245.970387 17.28 
Q 1248.970833 17.28 1250.438596 20.892036 
Q 1251.906358 24.480309 1252.956373 33.106421 
Q 1253.882193 40.615654 1254.330989 50.429936 
Q 1254.782609 60.220454 1254.782609 72.601183 
Q 1254.782609 85.172019 1254.330989 95.010064 
Q 1253.882193 104.84811 1252.956373 112.333579 
Q 1251.89789 120.959691 1250.416015 124.571727 
Q 1248.934139 128.16 1245.970387 128.16 
L 1242.391304 128.16 
L 1242.391304 17.28 
z
" clip-path="url(#p2706081c99)" style="fill: #6b296b"/>
   </g>
   <g id="patch_82">
    <path d="M 1261.96087 111.578719 
L 1261.718207 111.578719 
Q 1258.741712 111.578719 1257.086957 99.152512 
Q 1255.434783 86.706798 1255.434783 64.526897 
Q 1255.434783 42.38601 1257.084375 29.842759 
Q 1258.733967 17.28 1261.630435 17.28 
Q 1264.55788 17.28 1266.191984 29.725714 
Q 1267.826087 42.151921 1267.826087 64.526897 
Q 1267.826087 79.879212 1266.958696 90.978916 
Q 1266.091304 102.078621 1264.462364 107.677241 
L 1266.888995 128.16 
L 1263.927989 128.16 
L 1261.96087 111.578719 
z
M 1261.630435 34.290443 
Q 1260.210598 34.290443 1259.428397 42.210443 
Q 1258.646196 50.130443 1258.646196 64.526897 
Q 1258.646196 79.157438 1259.410326 86.940887 
Q 1260.177038 94.704828 1261.630435 94.704828 
Q 1263.058016 94.704828 1263.840217 86.784828 
Q 1264.622418 78.84532 1264.622418 64.526897 
Q 1264.622418 50.130443 1263.840217 42.210443 
Q 1263.058016 34.290443 1261.630435 34.290443 
z
" clip-path="url(#p2706081c99)" style="fill: #40ba47"/>
   </g>
   <g id="patch_83">
    <path d="M 1268.478261 17.28 
L 1272.133576 17.28 
L 1274.669138 76.617197 
L 1277.221412 17.28 
L 1280.869565 17.28 
L 1280.869565 128.16 
L 1278.154938 128.16 
L 1278.154938 47.055534 
L 1275.588339 106.844235 
L 1273.76665 106.844235 
L 1271.20005 47.055534 
L 1271.20005 128.16 
L 1268.478261 128.16 
L 1268.478261 17.28 
z
" clip-path="url(#p2706081c99)" style="fill: #21599c"/>
   </g>
   <g id="patch_84">
    <path d="M 1288.047826 111.578719 
L 1287.805163 111.578719 
Q 1284.828668 111.578719 1283.173913 99.152512 
Q 1281.521739 86.706798 1281.521739 64.526897 
Q 1281.521739 42.38601 1283.171332 29.842759 
Q 1284.820924 17.28 1287.717391 17.28 
Q 1290.644837 17.28 1292.27894 29.725714 
Q 1293.913043 42.151921 1293.913043 64.526897 
Q 1293.913043 79.879212 1293.045652 90.978916 
Q 1292.178261 102.078621 1290.549321 107.677241 
L 1292.975951 128.16 
L 1290.014946 128.16 
L 1288.047826 111.578719 
z
M 1287.717391 34.290443 
Q 1286.297554 34.290443 1285.515353 42.210443 
Q 1284.733152 50.130443 1284.733152 64.526897 
Q 1284.733152 79.157438 1285.497283 86.940887 
Q 1286.263995 94.704828 1287.717391 94.704828 
Q 1289.144973 94.704828 1289.927174 86.784828 
Q 1290.709375 78.84532 1290.709375 64.526897 
Q 1290.709375 50.130443 1289.927174 42.210443 
Q 1289.144973 34.290443 1287.717391 34.290443 
z
" clip-path="url(#p2706081c99)" style="fill: #40ba47"/>
   </g>
   <g id="patch_85">
    <path d="M 1305.923352 22.570907 
L 1305.923352 45.200413 
Q 1304.631049 41.260863 1303.399322 39.268184 
Q 1302.170961 37.252601 1301.077215 37.252601 
Q 1299.626739 37.252601 1298.930107 39.978219 
Q 1298.23684 42.680934 1298.23684 48.407023 
Q 1298.23684 52.713043 1298.704627 55.118 
Q 1299.172413 57.500054 1300.40414 59.217881 
L 1302.127211 61.57703 
Q 1304.745472 65.173014 1305.849314 72.479504 
Q 1306.956522 79.76309 1306.956522 93.230853 
Q 1306.956522 110.890114 1305.415181 119.525057 
Q 1303.87384 128.16 1300.707024 128.16 
Q 1299.216163 128.16 1297.711841 126.21313 
Q 1296.20752 124.289163 1294.703198 120.48704 
L 1294.703198 97.239116 
Q 1296.20752 102.667449 1297.61088 105.438876 
Q 1299.014241 108.187399 1300.320006 108.187399 
Q 1301.645963 108.187399 1302.349326 105.186928 
Q 1303.052689 102.163553 1303.052689 96.574889 
Q 1303.052689 91.581739 1302.574806 88.856121 
Q 1302.096923 86.130502 1300.666639 83.977492 
L 1299.098375 81.618343 
Q 1296.742614 78.18269 1295.652233 70.67006 
Q 1294.565217 63.15743 1294.565217 50.422607 
Q 1294.565217 34.458269 1296.079635 25.869134 
Q 1297.594053 17.28 1300.434428 17.28 
Q 1301.730097 17.28 1303.096439 18.608453 
Q 1304.46278 19.936906 1305.923352 22.570907 
z
" clip-path="url(#p2706081c99)" style="fill: #40ba47"/>
   </g>
   <g id="patch_86">
    <path d="M 1307.608696 17.28 
L 1312.10545 17.28 
L 1312.10545 106.559074 
L 1320 106.559074 
L 1320 128.16 
L 1307.608696 128.16 
L 1307.608696 17.28 
z
" clip-path="url(#p2706081c99)" style="fill: #21599c"/>
   </g>
   <g id="patch_87">
    <path d="M 1320.652174 17.28 
L 1325.148928 17.28 
L 1325.148928 106.559074 
L 1333.043478 106.559074 
L 1333.043478 128.16 
L 1320.652174 128.16 
L 1320.652174 17.28 
z
" clip-path="url(#p2706081c99)" style="fill: #21599c"/>
   </g>
   <g id="patch_88">
    <path d="M 1333.695652 17.28 
L 1345.829038 17.28 
L 1345.829038 38.904689 
L 1338.192406 38.904689 
L 1338.192406 59.531316 
L 1345.376746 59.531316 
L 1345.376746 81.156005 
L 1338.192406 81.156005 
L 1338.192406 106.559074 
L 1346.086957 106.559074 
L 1346.086957 128.16 
L 1333.695652 128.16 
L 1333.695652 17.28 
z
" clip-path="url(#p2706081c99)" style="fill: #6b296b"/>
   </g>
   <g id="patch_89">
    <path d="M 1355.322598 107.961114 
L 1350.557101 107.961114 
L 1349.804655 128.16 
L 1346.73913 128.16 
L 1351.117003 17.28 
L 1354.752562 17.28 
L 1359.130435 128.16 
L 1356.067444 128.16 
L 1355.322598 107.961114 
z
M 1351.317149 87.382015 
L 1354.55495 87.382015 
L 1352.938583 43.277154 
L 1351.317149 87.382015 
z
" clip-path="url(#p2706081c99)" style="fill: #21599c"/>
   </g>
   <g id="patch_90">
    <path d="M 1359.782609 17.28 
L 1371.915994 17.28 
L 1371.915994 38.904689 
L 1364.279363 38.904689 
L 1364.279363 59.531316 
L 1371.463703 59.531316 
L 1371.463703 81.156005 
L 1364.279363 81.156005 
L 1364.279363 106.559074 
L 1372.173913 106.559074 
L 1372.173913 128.16 
L 1359.782609 128.16 
L 1359.782609 17.28 
z
" clip-path="url(#p2706081c99)" style="fill: #6b296b"/>
   </g>
   <g id="patch_91">
    <path d="M 1385.217391 118.127891 
Q 1383.967708 123.143945 1382.623604 125.663425 
Q 1381.2795 128.16 1379.84653 128.16 
Q 1376.608462 128.16 1374.717274 113.226358 
Q 1372.826087 98.292716 1372.826087 72.754357 
Q 1372.826087 46.91824 1374.750599 32.09912 
Q 1376.677889 17.28 1380.029817 17.28 
Q 1381.321156 17.28 1382.50419 19.295584 
Q 1383.690001 21.288263 1384.739735 25.227812 
L 1384.739735 47.330518 
Q 1383.656676 42.268655 1382.584725 39.77208 
Q 1381.512775 37.252601 1380.43527 37.252601 
Q 1378.441331 37.252601 1377.361049 46.460153 
Q 1376.280767 55.644801 1376.280767 72.754357 
Q 1376.280767 89.703582 1377.32217 98.956943 
Q 1378.363573 108.187399 1380.279754 108.187399 
Q 1380.801844 108.187399 1381.248953 107.660599 
Q 1381.696061 107.110894 1382.051527 105.965677 
L 1382.051527 85.214328 
L 1380.010377 85.214328 
L 1380.010377 66.73051 
L 1385.217391 66.73051 
L 1385.217391 118.127891 
z
" clip-path="url(#p2706081c99)" style="fill: #787800"/>
   </g>
   <g id="patch_92">
    <path d="M 1389.81684 17.28 
L 1394.313594 17.28 
L 1394.313594 128.16 
L 1389.81684 128.16 
L 1389.81684 17.28 
z
" clip-path="url(#p2706081c99)" style="fill: #21599c"/>
   </g>
   <g id="patch_93">
    <path d="M 1398.913043 17.28 
L 1411.304348 17.28 
L 1411.304348 38.904689 
L 1406.84636 38.904689 
L 1406.84636 128.16 
L 1403.379676 128.16 
L 1403.379676 38.904689 
L 1398.913043 38.904689 
L 1398.913043 17.28 
z
" clip-path="url(#p2706081c99)" style="fill: #40ba47"/>
   </g>
   <g id="patch_94">
    <path d="M 1411.956522 17.28 
L 1415.022046 17.28 
L 1418.155974 99.121132 
L 1421.284836 17.28 
L 1424.347826 17.28 
L 1419.969954 128.16 
L 1416.334394 128.16 
L 1411.956522 17.28 
z
" clip-path="url(#p2706081c99)" style="fill: #21599c"/>
   </g>
   <g id="patch_95">
    <path d="M 1425 17.28 
L 1428.265441 17.28 
L 1428.265441 57.749061 
L 1432.972237 17.28 
L 1436.764274 17.28 
L 1430.664984 69.797102 
L 1437.391304 128.16 
L 1433.303395 128.16 
L 1428.265441 84.48288 
L 1428.265441 128.16 
L 1425 128.16 
L 1425 17.28 
z
" clip-path="url(#p2706081c99)" style="fill: #bd2e1f"/>
   </g>
   <g id="patch_96">
    <path d="M 1441.439091 38.904689 
L 1441.439091 106.559074 
L 1442.65564 106.559074 
Q 1444.735912 106.559074 1445.833911 97.861672 
Q 1446.934733 89.164269 1446.934733 72.601183 
Q 1446.934733 56.13315 1445.839556 47.530802 
Q 1444.747202 38.904689 1442.65564 38.904689 
L 1441.439091 38.904689 
z
M 1438.043478 17.28 
L 1441.622561 17.28 
Q 1444.623007 17.28 1446.09077 20.892036 
Q 1447.558532 24.480309 1448.608547 33.106421 
Q 1449.534367 40.615654 1449.983163 50.429936 
Q 1450.434783 60.220454 1450.434783 72.601183 
Q 1450.434783 85.172019 1449.983163 95.010064 
Q 1449.534367 104.84811 1448.608547 112.333579 
Q 1447.550064 120.959691 1446.068189 124.571727 
Q 1444.586313 128.16 1441.622561 128.16 
L 1438.043478 128.16 
L 1438.043478 17.28 
z
" clip-path="url(#p2706081c99)" style="fill: #6b296b"/>
   </g>
   <g id="patch_97">
    <path d="M 1451.086957 17.28 
L 1455.06723 17.28 
L 1460.096659 93.322863 
L 1460.096659 17.28 
L 1463.478261 17.28 
L 1463.478261 128.16 
L 1459.495024 128.16 
L 1454.465595 52.117137 
L 1454.465595 128.16 
L 1451.086957 128.16 
L 1451.086957 17.28 
z
" clip-path="url(#p2706081c99)" style="fill: #40ba47"/>
   </g>
   <g id="patch_98">
    <path d="M 1470.656522 111.578719 
L 1470.413859 111.578719 
Q 1467.437364 111.578719 1465.782609 99.152512 
Q 1464.130435 86.706798 1464.130435 64.526897 
Q 1464.130435 42.38601 1465.780027 29.842759 
Q 1467.42962 17.28 1470.326087 17.28 
Q 1473.253533 17.28 1474.887636 29.725714 
Q 1476.521739 42.151921 1476.521739 64.526897 
Q 1476.521739 79.879212 1475.654348 90.978916 
Q 1474.786957 102.078621 1473.158016 107.677241 
L 1475.584647 128.16 
L 1472.623641 128.16 
L 1470.656522 111.578719 
z
M 1470.326087 34.290443 
Q 1468.90625 34.290443 1468.124049 42.210443 
Q 1467.341848 50.130443 1467.341848 64.526897 
Q 1467.341848 79.157438 1468.105978 86.940887 
Q 1468.87269 94.704828 1470.326087 94.704828 
Q 1471.753668 94.704828 1472.53587 86.784828 
Q 1473.318071 78.84532 1473.318071 64.526897 
Q 1473.318071 50.130443 1472.53587 42.210443 
Q 1471.753668 34.290443 1470.326087 34.290443 
z
" clip-path="url(#p2706081c99)" style="fill: #40ba47"/>
   </g>
   <g id="patch_99">
    <path d="M 1477.173913 17.28 
L 1480.239437 17.28 
L 1483.373365 99.121132 
L 1486.502227 17.28 
L 1489.565217 17.28 
L 1485.187345 128.16 
L 1481.551785 128.16 
L 1477.173913 17.28 
z
" clip-path="url(#p2706081c99)" style="fill: #21599c"/>
   </g>
   <g id="patch_100">
    <path d="M 1496.743478 111.578719 
L 1496.500815 111.578719 
Q 1493.524321 111.578719 1491.869565 99.152512 
Q 1490.217391 86.706798 1490.217391 64.526897 
Q 1490.217391 42.38601 1491.866984 29.842759 
Q 1493.516576 17.28 1496.413043 17.28 
Q 1499.340489 17.28 1500.974592 29.725714 
Q 1502.608696 42.151921 1502.608696 64.526897 
Q 1502.608696 79.879212 1501.741304 90.978916 
Q 1500.873913 102.078621 1499.244973 107.677241 
L 1501.671603 128.16 
L 1498.710598 128.16 
L 1496.743478 111.578719 
z
M 1496.413043 34.290443 
Q 1494.993207 34.290443 1494.211005 42.210443 
Q 1493.428804 50.130443 1493.428804 64.526897 
Q 1493.428804 79.157438 1494.192935 86.940887 
Q 1494.959647 94.704828 1496.413043 94.704828 
Q 1497.840625 94.704828 1498.622826 86.784828 
Q 1499.405027 78.84532 1499.405027 64.526897 
Q 1499.405027 50.130443 1498.622826 42.210443 
Q 1497.840625 34.290443 1496.413043 34.290443 
z
" clip-path="url(#p2706081c99)" style="fill: #40ba47"/>
   </g>
   <g id="patch_101">
    <path d="M 1503.26087 17.28 
L 1506.686701 17.28 
L 1509.453919 56.798526 
L 1512.218533 17.28 
L 1515.652174 17.28 
L 1511.023657 81.441166 
L 1511.023657 128.16 
L 1507.891989 128.16 
L 1507.891989 81.441166 
L 1503.26087 17.28 
z
" clip-path="url(#p2706081c99)" style="fill: #177875"/>
   </g>
   <g id="patch_102">
    <path d="M 1516.433307 17.28 
L 1528.566693 17.28 
L 1528.566693 38.904689 
L 1520.930061 38.904689 
L 1520.930061 59.531316 
L 1528.114401 59.531316 
L 1528.114401 81.156005 
L 1520.930061 81.156005 
L 1520.930061 128.16 
L 1516.433307 128.16 
L 1516.433307 17.28 
z
" clip-path="url(#p2706081c99)" style="fill: #21599c"/>
   </g>
   <g id="patch_103">
    <path d="M 1529.347826 17.28 
L 1532.613267 17.28 
L 1532.613267 57.749061 
L 1537.320063 17.28 
L 1541.112101 17.28 
L 1535.01281 69.797102 
L 1541.73913 128.16 
L 1537.651221 128.16 
L 1532.613267 84.48288 
L 1532.613267 128.16 
L 1529.347826 128.16 
L 1529.347826 17.28 
z
" clip-path="url(#p2706081c99)" style="fill: #bd2e1f"/>
   </g>
   <g id="patch_104">
    <path d="M 1542.391304 17.28 
L 1545.656746 17.28 
L 1545.656746 57.749061 
L 1550.363541 17.28 
L 1554.155579 17.28 
L 1548.056288 69.797102 
L 1554.782609 128.16 
L 1550.6947 128.16 
L 1545.656746 84.48288 
L 1545.656746 128.16 
L 1542.391304 128.16 
L 1542.391304 17.28 
z
" clip-path="url(#p2706081c99)" style="fill: #bd2e1f"/>
   </g>
   <g id="patch_105">
    <path d="M 1555.434783 17.28 
L 1558.500307 17.28 
L 1561.634235 99.121132 
L 1564.763096 17.28 
L 1567.826087 17.28 
L 1563.448215 128.16 
L 1559.812655 128.16 
L 1555.434783 17.28 
z
" clip-path="url(#p2706081c99)" style="fill: #21599c"/>
   </g>
   <g id="patch_106">
    <path d="M 1568.60722 17.28 
L 1580.740606 17.28 
L 1580.740606 38.904689 
L 1573.103974 38.904689 
L 1573.103974 59.531316 
L 1580.288314 59.531316 
L 1580.288314 81.156005 
L 1573.103974 81.156005 
L 1573.103974 128.16 
L 1568.60722 128.16 
L 1568.60722 17.28 
z
" clip-path="url(#p2706081c99)" style="fill: #21599c"/>
   </g>
   <g id="patch_107">
    <path d="M 1593.913043 120.212188 
Q 1592.876532 124.151737 1591.755726 126.144416 
Q 1590.634921 128.16 1589.41421 128.16 
Q 1585.773933 128.16 1583.647836 113.226358 
Q 1581.521739 98.292716 1581.521739 72.754357 
Q 1581.521739 47.124379 1583.647836 32.213642 
Q 1585.773933 17.28 1589.41421 17.28 
Q 1590.634921 17.28 1591.755726 19.295584 
Q 1592.876532 21.288263 1593.913043 25.227812 
L 1593.913043 47.330518 
Q 1592.867166 42.108325 1591.852509 39.680463 
Q 1590.837852 37.252601 1589.717046 37.252601 
Q 1587.706464 37.252601 1586.554438 46.712101 
Q 1585.405534 56.148697 1585.405534 72.754357 
Q 1585.405534 89.291303 1586.554438 98.750804 
Q 1587.706464 108.187399 1589.717046 108.187399 
Q 1590.837852 108.187399 1591.852509 105.759537 
Q 1592.867166 103.308771 1593.913043 98.086577 
L 1593.913043 120.212188 
z
" clip-path="url(#p2706081c99)" style="fill: #6b296b"/>
   </g>
   <g id="patch_108">
    <path d="M 1594.565217 17.28 
L 1601.006114 17.28 
Q 1603.881284 17.28 1605.417289 26.690304 
Q 1606.956522 36.076845 1606.956522 53.447887 
Q 1606.956522 70.913982 1605.417289 80.300523 
Q 1603.881284 89.687064 1601.006114 89.687064 
L 1598.447181 89.687064 
L 1598.447181 128.16 
L 1594.565217 128.16 
L 1594.565217 17.28 
z
M 1598.447181 38.00168 
L 1598.447181 68.965384 
L 1600.593071 68.965384 
Q 1601.722486 68.965384 1602.338825 64.925607 
Q 1602.955163 60.885829 1602.955163 53.447887 
Q 1602.955163 46.033708 1602.338825 42.017694 
Q 1601.722486 38.00168 1600.593071 38.00168 
L 1598.447181 38.00168 
z
" clip-path="url(#p2706081c99)" style="fill: #787800"/>
   </g>
   <g id="patch_109">
    <path d="M 1607.608696 17.28 
L 1614.049592 17.28 
Q 1616.924762 17.28 1618.460768 26.690304 
Q 1620 36.076845 1620 53.447887 
Q 1620 70.913982 1618.460768 80.300523 
Q 1616.924762 89.687064 1614.049592 89.687064 
L 1611.490659 89.687064 
L 1611.490659 128.16 
L 1607.608696 128.16 
L 1607.608696 17.28 
z
M 1611.490659 38.00168 
L 1611.490659 68.965384 
L 1613.636549 68.965384 
Q 1614.765965 68.965384 1615.382303 64.925607 
Q 1615.998641 60.885829 1615.998641 53.447887 
Q 1615.998641 46.033708 1615.382303 42.017694 
Q 1614.765965 38.00168 1613.636549 38.00168 
L 1611.490659 38.00168 
z
" clip-path="url(#p2706081c99)" style="fill: #787800"/>
   </g>
   <g id="matplotlib.axis_1">
    <g id="xtick_1">
     <g id="line2d_2">
      <defs>
       <path id="m4bb54dc5c6" d="M 0 0 
L 0 3.5 
" style="stroke: #000000; stroke-width: 0.8"/>
      </defs>
      <g>
       <use xlink:href="#m4bb54dc5c6" x="231.195652" y="128.16" style="stroke: #000000; stroke-width: 0.8"/>
      </g>
     </g>
     <g id="text_1">
      <!-- 0 -->
      <g transform="translate(228.014402 142.758438) scale(0.1 -0.1)">
       <defs>
        <path id="DejaVuSans-30" d="M 2034 4250 
Q 1547 4250 1301 3770 
Q 1056 3291 1056 2328 
Q 1056 1369 1301 889 
Q 1547 409 2034 409 
Q 2525 409 2770 889 
Q 3016 1369 3016 2328 
Q 3016 3291 2770 3770 
Q 2525 4250 2034 4250 
z
M 2034 4750 
Q 2819 4750 3233 4129 
Q 3647 3509 3647 2328 
Q 3647 1150 3233 529 
Q 2819 -91 2034 -91 
Q 1250 -91 836 529 
Q 422 1150 422 2328 
Q 422 3509 836 4129 
Q 1250 4750 2034 4750 
z
" transform="scale(0.015625)"/>
       </defs>
       <use xlink:href="#DejaVuSans-30"/>
      </g>
     </g>
    </g>
    <g id="xtick_2">
     <g id="line2d_3">
      <g>
       <use xlink:href="#m4bb54dc5c6" x="492.065217" y="128.16" style="stroke: #000000; stroke-width: 0.8"/>
      </g>
     </g>
     <g id="text_2">
      <!-- 20 -->
      <g transform="translate(485.702717 142.758438) scale(0.1 -0.1)">
       <defs>
        <path id="DejaVuSans-32" d="M 1228 531 
L 3431 531 
L 3431 0 
L 469 0 
L 469 531 
Q 828 903 1448 1529 
Q 2069 2156 2228 2338 
Q 2531 2678 2651 2914 
Q 2772 3150 2772 3378 
Q 2772 3750 2511 3984 
Q 2250 4219 1831 4219 
Q 1534 4219 1204 4116 
Q 875 4013 500 3803 
L 500 4441 
Q 881 4594 1212 4672 
Q 1544 4750 1819 4750 
Q 2544 4750 2975 4387 
Q 3406 4025 3406 3419 
Q 3406 3131 3298 2873 
Q 3191 2616 2906 2266 
Q 2828 2175 2409 1742 
Q 1991 1309 1228 531 
z
" transform="scale(0.015625)"/>
       </defs>
       <use xlink:href="#DejaVuSans-32"/>
       <use xlink:href="#DejaVuSans-30" x="63.623047"/>
      </g>
     </g>
    </g>
    <g id="xtick_3">
     <g id="line2d_4">
      <g>
       <use xlink:href="#m4bb54dc5c6" x="752.934783" y="128.16" style="stroke: #000000; stroke-width: 0.8"/>
      </g>
     </g>
     <g id="text_3">
      <!-- 40 -->
      <g transform="translate(746.572283 142.758438) scale(0.1 -0.1)">
       <defs>
        <path id="DejaVuSans-34" d="M 2419 4116 
L 825 1625 
L 2419 1625 
L 2419 4116 
z
M 2253 4666 
L 3047 4666 
L 3047 1625 
L 3713 1625 
L 3713 1100 
L 3047 1100 
L 3047 0 
L 2419 0 
L 2419 1100 
L 313 1100 
L 313 1709 
L 2253 4666 
z
" transform="scale(0.015625)"/>
       </defs>
       <use xlink:href="#DejaVuSans-34"/>
       <use xlink:href="#DejaVuSans-30" x="63.623047"/>
      </g>
     </g>
    </g>
    <g id="xtick_4">
     <g id="line2d_5">
      <g>
       <use xlink:href="#m4bb54dc5c6" x="1013.804348" y="128.16" style="stroke: #000000; stroke-width: 0.8"/>
      </g>
     </g>
     <g id="text_4">
      <!-- 60 -->
      <g transform="translate(1007.441848 142.758438) scale(0.1 -0.1)">
       <defs>
        <path id="DejaVuSans-36" d="M 2113 2584 
Q 1688 2584 1439 2293 
Q 1191 2003 1191 1497 
Q 1191 994 1439 701 
Q 1688 409 2113 409 
Q 2538 409 2786 701 
Q 3034 994 3034 1497 
Q 3034 2003 2786 2293 
Q 2538 2584 2113 2584 
z
M 3366 4563 
L 3366 3988 
Q 3128 4100 2886 4159 
Q 2644 4219 2406 4219 
Q 1781 4219 1451 3797 
Q 1122 3375 1075 2522 
Q 1259 2794 1537 2939 
Q 1816 3084 2150 3084 
Q 2853 3084 3261 2657 
Q 3669 2231 3669 1497 
Q 3669 778 3244 343 
Q 2819 -91 2113 -91 
Q 1303 -91 875 529 
Q 447 1150 447 2328 
Q 447 3434 972 4092 
Q 1497 4750 2381 4750 
Q 2619 4750 2861 4703 
Q 3103 4656 3366 4563 
z
" transform="scale(0.015625)"/>
       </defs>
       <use xlink:href="#DejaVuSans-36"/>
       <use xlink:href="#DejaVuSans-30" x="63.623047"/>
      </g>
     </g>
    </g>
    <g id="xtick_5">
     <g id="line2d_6">
      <g>
       <use xlink:href="#m4bb54dc5c6" x="1274.673913" y="128.16" style="stroke: #000000; stroke-width: 0.8"/>
      </g>
     </g>
     <g id="text_5">
      <!-- 80 -->
      <g transform="translate(1268.311413 142.758438) scale(0.1 -0.1)">
       <defs>
        <path id="DejaVuSans-38" d="M 2034 2216 
Q 1584 2216 1326 1975 
Q 1069 1734 1069 1313 
Q 1069 891 1326 650 
Q 1584 409 2034 409 
Q 2484 409 2743 651 
Q 3003 894 3003 1313 
Q 3003 1734 2745 1975 
Q 2488 2216 2034 2216 
z
M 1403 2484 
Q 997 2584 770 2862 
Q 544 3141 544 3541 
Q 544 4100 942 4425 
Q 1341 4750 2034 4750 
Q 2731 4750 3128 4425 
Q 3525 4100 3525 3541 
Q 3525 3141 3298 2862 
Q 3072 2584 2669 2484 
Q 3125 2378 3379 2068 
Q 3634 1759 3634 1313 
Q 3634 634 3220 271 
Q 2806 -91 2034 -91 
Q 1263 -91 848 271 
Q 434 634 434 1313 
Q 434 1759 690 2068 
Q 947 2378 1403 2484 
z
M 1172 3481 
Q 1172 3119 1398 2916 
Q 1625 2713 2034 2713 
Q 2441 2713 2670 2916 
Q 2900 3119 2900 3481 
Q 2900 3844 2670 4047 
Q 2441 4250 2034 4250 
Q 1625 4250 1398 4047 
Q 1172 3844 1172 3481 
z
" transform="scale(0.015625)"/>
       </defs>
       <use xlink:href="#DejaVuSans-38"/>
       <use xlink:href="#DejaVuSans-30" x="63.623047"/>
      </g>
     </g>
    </g>
    <g id="xtick_6">
     <g id="line2d_7">
      <g>
       <use xlink:href="#m4bb54dc5c6" x="1535.543478" y="128.16" style="stroke: #000000; stroke-width: 0.8"/>
      </g>
     </g>
     <g id="text_6">
      <!-- 100 -->
      <g transform="translate(1525.999728 142.758438) scale(0.1 -0.1)">
       <defs>
        <path id="DejaVuSans-31" d="M 794 531 
L 1825 531 
L 1825 4091 
L 703 3866 
L 703 4441 
L 1819 4666 
L 2450 4666 
L 2450 531 
L 3481 531 
L 3481 0 
L 794 0 
L 794 531 
z
" transform="scale(0.015625)"/>
       </defs>
       <use xlink:href="#DejaVuSans-31"/>
       <use xlink:href="#DejaVuSans-30" x="63.623047"/>
       <use xlink:href="#DejaVuSans-30" x="127.246094"/>
      </g>
     </g>
    </g>
   </g>
   <g id="matplotlib.axis_2">
    <g id="ytick_1">
     <g id="line2d_8">
      <defs>
       <path id="m0e87f9da63" d="M 0 0 
L -3.5 0 
" style="stroke: #000000; stroke-width: 0.8"/>
      </defs>
      <g>
       <use xlink:href="#m0e87f9da63" x="225" y="128.16" style="stroke: #000000; stroke-width: 0.8"/>
      </g>
     </g>
     <g id="text_7">
      <!-- 0.0 -->
      <g transform="translate(202.096875 131.959219) scale(0.1 -0.1)">
       <defs>
        <path id="DejaVuSans-2e" d="M 684 794 
L 1344 794 
L 1344 0 
L 684 0 
L 684 794 
z
" transform="scale(0.015625)"/>
       </defs>
       <use xlink:href="#DejaVuSans-30"/>
       <use xlink:href="#DejaVuSans-2e" x="63.623047"/>
       <use xlink:href="#DejaVuSans-30" x="95.410156"/>
      </g>
     </g>
    </g>
    <g id="ytick_2">
     <g id="line2d_9">
      <g>
       <use xlink:href="#m0e87f9da63" x="225" y="100.44" style="stroke: #000000; stroke-width: 0.8"/>
      </g>
     </g>
     <g id="text_8">
      <!-- 0.5 -->
      <g transform="translate(202.096875 104.239219) scale(0.1 -0.1)">
       <defs>
        <path id="DejaVuSans-35" d="M 691 4666 
L 3169 4666 
L 3169 4134 
L 1269 4134 
L 1269 2991 
Q 1406 3038 1543 3061 
Q 1681 3084 1819 3084 
Q 2600 3084 3056 2656 
Q 3513 2228 3513 1497 
Q 3513 744 3044 326 
Q 2575 -91 1722 -91 
Q 1428 -91 1123 -41 
Q 819 9 494 109 
L 494 744 
Q 775 591 1075 516 
Q 1375 441 1709 441 
Q 2250 441 2565 725 
Q 2881 1009 2881 1497 
Q 2881 1984 2565 2268 
Q 2250 2553 1709 2553 
Q 1456 2553 1204 2497 
Q 953 2441 691 2322 
L 691 4666 
z
" transform="scale(0.015625)"/>
       </defs>
       <use xlink:href="#DejaVuSans-30"/>
       <use xlink:href="#DejaVuSans-2e" x="63.623047"/>
       <use xlink:href="#DejaVuSans-35" x="95.410156"/>
      </g>
     </g>
    </g>
    <g id="ytick_3">
     <g id="line2d_10">
      <g>
       <use xlink:href="#m0e87f9da63" x="225" y="72.72" style="stroke: #000000; stroke-width: 0.8"/>
      </g>
     </g>
     <g id="text_9">
      <!-- 1.0 -->
      <g transform="translate(202.096875 76.519219) scale(0.1 -0.1)">
       <use xlink:href="#DejaVuSans-31"/>
       <use xlink:href="#DejaVuSans-2e" x="63.623047"/>
       <use xlink:href="#DejaVuSans-30" x="95.410156"/>
      </g>
     </g>
    </g>
    <g id="ytick_4">
     <g id="line2d_11">
      <g>
       <use xlink:href="#m0e87f9da63" x="225" y="45" style="stroke: #000000; stroke-width: 0.8"/>
      </g>
     </g>
     <g id="text_10">
      <!-- 1.5 -->
      <g transform="translate(202.096875 48.799219) scale(0.1 -0.1)">
       <use xlink:href="#DejaVuSans-31"/>
       <use xlink:href="#DejaVuSans-2e" x="63.623047"/>
       <use xlink:href="#DejaVuSans-35" x="95.410156"/>
      </g>
     </g>
    </g>
    <g id="ytick_5">
     <g id="line2d_12">
      <g>
       <use xlink:href="#m0e87f9da63" x="225" y="17.28" style="stroke: #000000; stroke-width: 0.8"/>
      </g>
     </g>
     <g id="text_11">
      <!-- 2.0 -->
      <g transform="translate(202.096875 21.079219) scale(0.1 -0.1)">
       <use xlink:href="#DejaVuSans-32"/>
       <use xlink:href="#DejaVuSans-2e" x="63.623047"/>
       <use xlink:href="#DejaVuSans-30" x="95.410156"/>
      </g>
     </g>
    </g>
   </g>
  </g>
 </g>
 <defs>
  <clipPath id="p2706081c99">
   <rect x="225" y="17.28" width="1395" height="110.88"/>
  </clipPath>
 </defs>
</svg>
