<?xml version="1.0" encoding="utf-8" standalone="no"?>
<!DOCTYPE svg PUBLIC "-//W3C//DTD SVG 1.1//EN"
  "http://www.w3.org/Graphics/SVG/1.1/DTD/svg11.dtd">
<svg xmlns:xlink="http://www.w3.org/1999/xlink" width="1800pt" height="144pt" viewBox="0 0 1800 144" xmlns="http://www.w3.org/2000/svg" version="1.1">
 <metadata>
  <rdf:RDF xmlns:dc="http://purl.org/dc/elements/1.1/" xmlns:cc="http://creativecommons.org/ns#" xmlns:rdf="http://www.w3.org/1999/02/22-rdf-syntax-ns#">
   <cc:Work>
    <dc:type rdf:resource="http://purl.org/dc/dcmitype/StillImage"/>
    <dc:date>2025-05-09T21:10:12.467036</dc:date>
    <dc:format>image/svg+xml</dc:format>
    <dc:creator>
     <cc:Agent>
      <dc:title>Matplotlib v3.8.0, https://matplotlib.org/</dc:title>
     </cc:Agent>
    </dc:creator>
   </cc:Work>
  </rdf:RDF>
 </metadata>
 <defs>
  <style type="text/css">*{stroke-linejoin: round; stroke-linecap: butt}</style>
 </defs>
 <g id="figure_1">
  <g id="patch_1">
   <path d="M 0 144 
L 1800 144 
L 1800 0 
L 0 0 
z
" style="fill: #ffffff"/>
  </g>
  <g id="axes_1">
   <g id="patch_2">
    <path d="M 225 128.16 
L 1620 128.16 
L 1620 17.28 
L 225 17.28 
z
" style="fill: #ffffff"/>
   </g>
   <g id="line2d_1">
    <path d="M 225 128.16 
L 1620 128.16 
" clip-path="url(#pb2ed5f9ef2)" style="fill: none; stroke: #000000; stroke-width: 1.5; stroke-linecap: square"/>
   </g>
   <g id="patch_3">
    <path d="M 225 17.28 
L 230.147281 17.28 
L 233.717766 76.617197 
L 237.311785 17.28 
L 242.44898 17.28 
L 242.44898 128.16 
L 238.626342 128.16 
L 238.626342 47.055534 
L 235.012151 106.844235 
L 232.446915 106.844235 
L 228.832724 47.055534 
L 228.832724 128.16 
L 225 128.16 
L 225 17.28 
z
" clip-path="url(#pb2ed5f9ef2)" style="fill: #21599c"/>
   </g>
   <g id="patch_4">
    <path d="M 252.557143 111.578719 
L 252.215434 111.578719 
Q 248.024043 111.578719 245.693878 99.152512 
Q 243.367347 86.706798 243.367347 64.526897 
Q 243.367347 42.38601 245.690242 29.842759 
Q 248.013138 17.28 252.091837 17.28 
Q 256.214158 17.28 258.515242 29.725714 
Q 260.816327 42.151921 260.816327 64.526897 
Q 260.816327 79.879212 259.594898 90.978916 
Q 258.373469 102.078621 256.079656 107.677241 
L 259.496747 128.16 
L 255.327168 128.16 
L 252.557143 111.578719 
z
M 252.091837 34.290443 
Q 250.092474 34.290443 248.991008 42.210443 
Q 247.889541 50.130443 247.889541 64.526897 
Q 247.889541 79.157438 248.965561 86.940887 
Q 250.045217 94.704828 252.091837 94.704828 
Q 254.102105 94.704828 255.203571 86.784828 
Q 256.305038 78.84532 256.305038 64.526897 
Q 256.305038 50.130443 255.203571 42.210443 
Q 254.102105 34.290443 252.091837 34.290443 
z
" clip-path="url(#pb2ed5f9ef2)" style="fill: #40ba47"/>
   </g>
   <g id="patch_5">
    <path d="M 261.734694 17.28 
L 266.332968 17.28 
L 266.332968 57.749061 
L 272.960905 17.28 
L 278.300713 17.28 
L 269.711916 69.797102 
L 279.183673 128.16 
L 273.42723 128.16 
L 266.332968 84.48288 
L 266.332968 128.16 
L 261.734694 128.16 
L 261.734694 17.28 
z
" clip-path="url(#pb2ed5f9ef2)" style="fill: #bd2e1f"/>
   </g>
   <g id="patch_6">
    <path d="M 280.102041 17.28 
L 286.434204 17.28 
L 286.434204 106.559074 
L 297.55102 106.559074 
L 297.55102 128.16 
L 280.102041 128.16 
L 280.102041 17.28 
z
" clip-path="url(#pb2ed5f9ef2)" style="fill: #21599c"/>
   </g>
   <g id="patch_7">
    <path d="M 298.469388 17.28 
L 304.801551 17.28 
L 304.801551 106.559074 
L 315.918367 106.559074 
L 315.918367 128.16 
L 298.469388 128.16 
L 298.469388 17.28 
z
" clip-path="url(#pb2ed5f9ef2)" style="fill: #21599c"/>
   </g>
   <g id="patch_8">
    <path d="M 326.026531 111.578719 
L 325.684821 111.578719 
Q 321.493431 111.578719 319.163265 99.152512 
Q 316.836735 86.706798 316.836735 64.526897 
Q 316.836735 42.38601 319.15963 29.842759 
Q 321.482526 17.28 325.561224 17.28 
Q 329.683546 17.28 331.98463 29.725714 
Q 334.285714 42.151921 334.285714 64.526897 
Q 334.285714 79.879212 333.064286 90.978916 
Q 331.842857 102.078621 329.549043 107.677241 
L 332.966135 128.16 
L 328.796556 128.16 
L 326.026531 111.578719 
z
M 325.561224 34.290443 
Q 323.561862 34.290443 322.460395 42.210443 
Q 321.358929 50.130443 321.358929 64.526897 
Q 321.358929 79.157438 322.434949 86.940887 
Q 323.514605 94.704828 325.561224 94.704828 
Q 327.571492 94.704828 328.672959 86.784828 
Q 329.774426 78.84532 329.774426 64.526897 
Q 329.774426 50.130443 328.672959 42.210443 
Q 327.571492 34.290443 325.561224 34.290443 
z
" clip-path="url(#pb2ed5f9ef2)" style="fill: #40ba47"/>
   </g>
   <g id="patch_9">
    <path d="M 335.204082 17.28 
L 339.52084 17.28 
L 343.933923 99.121132 
L 348.33987 17.28 
L 352.653061 17.28 
L 346.488302 128.16 
L 341.368841 128.16 
L 335.204082 17.28 
z
" clip-path="url(#pb2ed5f9ef2)" style="fill: #21599c"/>
   </g>
   <g id="patch_10">
    <path d="M 369.565537 22.570907 
L 369.565537 45.200413 
Q 367.745763 41.260863 366.01129 39.268184 
Q 364.281557 37.252601 362.741384 37.252601 
Q 360.698877 37.252601 359.717905 39.978219 
Q 358.741672 42.680934 358.741672 48.407023 
Q 358.741672 52.713043 359.400392 55.118 
Q 360.059113 57.500054 361.793585 59.217881 
L 364.21995 61.57703 
Q 367.906888 65.173014 369.461279 72.479504 
Q 371.020408 79.76309 371.020408 93.230853 
Q 371.020408 110.890114 368.849948 119.525057 
Q 366.679489 128.16 362.220094 128.16 
Q 360.12072 128.16 358.002389 126.21313 
Q 355.884058 124.289163 353.765727 120.48704 
L 353.765727 97.239116 
Q 355.884058 102.667449 357.860219 105.438876 
Q 359.83638 108.187399 361.67511 108.187399 
Q 363.542274 108.187399 364.532724 105.186928 
Q 365.523174 102.163553 365.523174 96.574889 
Q 365.523174 91.581739 364.850237 88.856121 
Q 364.177299 86.130502 362.163227 83.977492 
L 359.954855 81.618343 
Q 356.637558 78.18269 355.102124 70.67006 
Q 353.571429 63.15743 353.571429 50.422607 
Q 353.571429 34.458269 355.703976 25.869134 
Q 357.836524 17.28 361.836236 17.28 
Q 363.660749 17.28 365.584781 18.608453 
Q 367.508813 19.936906 369.565537 22.570907 
z
" clip-path="url(#pb2ed5f9ef2)" style="fill: #40ba47"/>
   </g>
   <g id="patch_11">
    <path d="M 389.387755 118.127891 
Q 387.627997 123.143945 385.735279 125.663425 
Q 383.842562 128.16 381.824706 128.16 
Q 377.264977 128.16 374.601876 113.226358 
Q 371.938776 98.292716 371.938776 72.754357 
Q 371.938776 46.91824 374.648803 32.09912 
Q 377.362741 17.28 382.082804 17.28 
Q 383.90122 17.28 385.567125 19.295584 
Q 387.23694 21.288263 388.715136 25.227812 
L 388.715136 47.330518 
Q 387.190013 42.268655 385.680531 39.77208 
Q 384.17105 37.252601 382.653747 37.252601 
Q 379.845955 37.252601 378.324742 46.460153 
Q 376.803529 55.644801 376.803529 72.754357 
Q 376.803529 89.703582 378.269994 98.956943 
Q 379.736459 108.187399 382.434755 108.187399 
Q 383.169943 108.187399 383.799545 107.660599 
Q 384.429148 107.110894 384.929701 105.965677 
L 384.929701 85.214328 
L 382.05543 85.214328 
L 382.05543 66.73051 
L 389.387755 66.73051 
L 389.387755 118.127891 
z
" clip-path="url(#pb2ed5f9ef2)" style="fill: #787800"/>
   </g>
   <g id="patch_12">
    <path d="M 407.755102 118.127891 
Q 405.995344 123.143945 404.102626 125.663425 
Q 402.209909 128.16 400.192053 128.16 
Q 395.632324 128.16 392.969223 113.226358 
Q 390.306122 98.292716 390.306122 72.754357 
Q 390.306122 46.91824 393.01615 32.09912 
Q 395.730088 17.28 400.45015 17.28 
Q 402.268567 17.28 403.934472 19.295584 
Q 405.604287 21.288263 407.082483 25.227812 
L 407.082483 47.330518 
Q 405.55736 42.268655 404.047878 39.77208 
Q 402.538397 37.252601 401.021094 37.252601 
Q 398.213302 37.252601 396.692089 46.460153 
Q 395.170876 55.644801 395.170876 72.754357 
Q 395.170876 89.703582 396.637341 98.956943 
Q 398.103806 108.187399 400.802102 108.187399 
Q 401.53729 108.187399 402.166892 107.660599 
Q 402.796495 107.110894 403.297048 105.965677 
L 403.297048 85.214328 
L 400.422776 85.214328 
L 400.422776 66.73051 
L 407.755102 66.73051 
L 407.755102 118.127891 
z
" clip-path="url(#pb2ed5f9ef2)" style="fill: #787800"/>
   </g>
   <g id="patch_13">
    <path d="M 408.673469 17.28 
L 413.82075 17.28 
L 417.391235 76.617197 
L 420.985254 17.28 
L 426.122449 17.28 
L 426.122449 128.16 
L 422.299811 128.16 
L 422.299811 47.055534 
L 418.68562 106.844235 
L 416.120385 106.844235 
L 412.506193 47.055534 
L 412.506193 128.16 
L 408.673469 128.16 
L 408.673469 17.28 
z
" clip-path="url(#pb2ed5f9ef2)" style="fill: #21599c"/>
   </g>
   <g id="patch_14">
    <path d="M 427.040816 17.28 
L 432.645691 17.28 
L 439.727948 93.322863 
L 439.727948 17.28 
L 444.489796 17.28 
L 444.489796 128.16 
L 438.880748 128.16 
L 431.798491 52.117137 
L 431.798491 128.16 
L 427.040816 128.16 
L 427.040816 17.28 
z
" clip-path="url(#pb2ed5f9ef2)" style="fill: #40ba47"/>
   </g>
   <g id="patch_15">
    <path d="M 450.966571 17.28 
L 457.298735 17.28 
L 457.298735 128.16 
L 450.966571 128.16 
L 450.966571 17.28 
z
" clip-path="url(#pb2ed5f9ef2)" style="fill: #21599c"/>
   </g>
   <g id="patch_16">
    <path d="M 481.22449 120.212188 
Q 479.764913 124.151737 478.186635 126.144416 
Q 476.608358 128.16 474.889398 128.16 
Q 469.763293 128.16 466.769402 113.226358 
Q 463.77551 98.292716 463.77551 72.754357 
Q 463.77551 47.124379 466.769402 32.213642 
Q 469.763293 17.28 474.889398 17.28 
Q 476.608358 17.28 478.186635 19.295584 
Q 479.764913 21.288263 481.22449 25.227812 
L 481.22449 47.330518 
Q 479.751724 42.108325 478.322921 39.680463 
Q 476.894118 37.252601 475.315841 37.252601 
Q 472.484613 37.252601 470.862372 46.712101 
Q 469.244528 56.148697 469.244528 72.754357 
Q 469.244528 89.291303 470.862372 98.750804 
Q 472.484613 108.187399 475.315841 108.187399 
Q 476.894118 108.187399 478.322921 105.759537 
Q 479.751724 103.308771 481.22449 98.086577 
L 481.22449 120.212188 
z
" clip-path="url(#pb2ed5f9ef2)" style="fill: #6b296b"/>
   </g>
   <g id="patch_17">
    <path d="M 482.142857 17.28 
L 488.475021 17.28 
L 488.475021 106.559074 
L 499.591837 106.559074 
L 499.591837 128.16 
L 482.142857 128.16 
L 482.142857 17.28 
z
" clip-path="url(#pb2ed5f9ef2)" style="fill: #21599c"/>
   </g>
   <g id="patch_18">
    <path d="M 516.504312 22.570907 
L 516.504312 45.200413 
Q 514.684538 41.260863 512.950066 39.268184 
Q 511.220333 37.252601 509.680159 37.252601 
Q 507.637653 37.252601 506.656681 39.978219 
Q 505.680448 42.680934 505.680448 48.407023 
Q 505.680448 52.713043 506.339168 55.118 
Q 506.997888 57.500054 508.73236 59.217881 
L 511.158726 61.57703 
Q 514.845664 65.173014 516.400054 72.479504 
Q 517.959184 79.76309 517.959184 93.230853 
Q 517.959184 110.890114 515.788724 119.525057 
Q 513.618264 128.16 509.15887 128.16 
Q 507.059495 128.16 504.941164 126.21313 
Q 502.822834 124.289163 500.704503 120.48704 
L 500.704503 97.239116 
Q 502.822834 102.667449 504.798995 105.438876 
Q 506.775155 108.187399 508.613886 108.187399 
Q 510.48105 108.187399 511.4715 105.186928 
Q 512.461949 102.163553 512.461949 96.574889 
Q 512.461949 91.581739 511.789012 88.856121 
Q 511.116075 86.130502 509.102002 83.977492 
L 506.89363 81.618343 
Q 503.576334 78.18269 502.040899 70.67006 
Q 500.510204 63.15743 500.510204 50.422607 
Q 500.510204 34.458269 502.642752 25.869134 
Q 504.7753 17.28 508.775011 17.28 
Q 510.599524 17.28 512.523556 18.608453 
Q 514.447588 19.936906 516.504312 22.570907 
z
" clip-path="url(#pb2ed5f9ef2)" style="fill: #40ba47"/>
   </g>
   <g id="patch_19">
    <path d="M 525.957396 66.446464 
Q 527.52333 66.446464 528.20273 63.119589 
Q 528.88213 59.76895 528.88213 52.117137 
Q 528.88213 44.536614 528.20273 41.281029 
Q 527.52333 38.00168 525.957396 38.00168 
L 523.861198 38.00168 
L 523.861198 66.446464 
L 525.957396 66.446464 
z
M 523.861198 86.193845 
L 523.861198 128.16 
L 518.877551 128.16 
L 518.877551 17.28 
L 526.487659 17.28 
Q 530.307213 17.28 532.084424 24.646652 
Q 533.865777 31.989541 533.865777 47.887252 
Q 533.865777 58.865941 532.937816 65.923669 
Q 532.013998 72.981397 530.149791 76.332036 
Q 531.173033 77.662786 531.980856 82.391702 
Q 532.792822 87.096854 533.621359 96.673502 
L 536.326531 128.16 
L 531.019754 128.16 
L 528.662568 100.618225 
Q 527.950026 92.301037 527.216771 89.259323 
Q 526.487659 86.193845 525.26971 86.193845 
L 523.861198 86.193845 
z
" clip-path="url(#pb2ed5f9ef2)" style="fill: #bd2e1f"/>
   </g>
   <g id="patch_20">
    <path d="M 537.244898 17.28 
L 541.561656 17.28 
L 545.974739 99.121132 
L 550.380687 17.28 
L 554.693878 17.28 
L 548.529118 128.16 
L 543.409657 128.16 
L 537.244898 17.28 
z
" clip-path="url(#pb2ed5f9ef2)" style="fill: #21599c"/>
   </g>
   <g id="patch_21">
    <path d="M 555.612245 17.28 
L 560.759526 17.28 
L 564.330011 76.617197 
L 567.92403 17.28 
L 573.061224 17.28 
L 573.061224 128.16 
L 569.238587 128.16 
L 569.238587 47.055534 
L 565.624395 106.844235 
L 563.05916 106.844235 
L 559.444969 47.055534 
L 559.444969 128.16 
L 555.612245 128.16 
L 555.612245 17.28 
z
" clip-path="url(#pb2ed5f9ef2)" style="fill: #21599c"/>
   </g>
   <g id="patch_22">
    <path d="M 589.9737 22.570907 
L 589.9737 45.200413 
Q 588.153926 41.260863 586.419454 39.268184 
Q 584.689721 37.252601 583.149547 37.252601 
Q 581.10704 37.252601 580.126068 39.978219 
Q 579.149835 42.680934 579.149835 48.407023 
Q 579.149835 52.713043 579.808556 55.118 
Q 580.467276 57.500054 582.201748 59.217881 
L 584.628114 61.57703 
Q 588.315052 65.173014 589.869442 72.479504 
Q 591.428571 79.76309 591.428571 93.230853 
Q 591.428571 110.890114 589.258112 119.525057 
Q 587.087652 128.16 582.628258 128.16 
Q 580.528883 128.16 578.410552 126.21313 
Q 576.292221 124.289163 574.173891 120.48704 
L 574.173891 97.239116 
Q 576.292221 102.667449 578.268382 105.438876 
Q 580.244543 108.187399 582.083273 108.187399 
Q 583.950437 108.187399 584.940887 105.186928 
Q 585.931337 102.163553 585.931337 96.574889 
Q 585.931337 91.581739 585.2584 88.856121 
Q 584.585463 86.130502 582.57139 83.977492 
L 580.363018 81.618343 
Q 577.045722 78.18269 575.510287 70.67006 
Q 573.979592 63.15743 573.979592 50.422607 
Q 573.979592 34.458269 576.11214 25.869134 
Q 578.244687 17.28 582.244399 17.28 
Q 584.068912 17.28 585.992944 18.608453 
Q 587.916976 19.936906 589.9737 22.570907 
z
" clip-path="url(#pb2ed5f9ef2)" style="fill: #40ba47"/>
   </g>
   <g id="patch_23">
    <path d="M 608.341047 22.570907 
L 608.341047 45.200413 
Q 606.521273 41.260863 604.786801 39.268184 
Q 603.057067 37.252601 601.516894 37.252601 
Q 599.474387 37.252601 598.493415 39.978219 
Q 597.517182 42.680934 597.517182 48.407023 
Q 597.517182 52.713043 598.175903 55.118 
Q 598.834623 57.500054 600.569095 59.217881 
L 602.995461 61.57703 
Q 606.682399 65.173014 608.236789 72.479504 
Q 609.795918 79.76309 609.795918 93.230853 
Q 609.795918 110.890114 607.625459 119.525057 
Q 605.454999 128.16 600.995605 128.16 
Q 598.89623 128.16 596.777899 126.21313 
Q 594.659568 124.289163 592.541238 120.48704 
L 592.541238 97.239116 
Q 594.659568 102.667449 596.635729 105.438876 
Q 598.61189 108.187399 600.45062 108.187399 
Q 602.317784 108.187399 603.308234 105.186928 
Q 604.298684 102.163553 604.298684 96.574889 
Q 604.298684 91.581739 603.625747 88.856121 
Q 602.95281 86.130502 600.938737 83.977492 
L 598.730365 81.618343 
Q 595.413069 78.18269 593.877634 70.67006 
Q 592.346939 63.15743 592.346939 50.422607 
Q 592.346939 34.458269 594.479487 25.869134 
Q 596.612034 17.28 600.611746 17.28 
Q 602.436259 17.28 604.360291 18.608453 
Q 606.284323 19.936906 608.341047 22.570907 
z
" clip-path="url(#pb2ed5f9ef2)" style="fill: #40ba47"/>
   </g>
   <g id="patch_24">
    <path d="M 610.714286 17.28 
L 628.163265 17.28 
L 628.163265 38.904689 
L 621.885691 38.904689 
L 621.885691 128.16 
L 617.004034 128.16 
L 617.004034 38.904689 
L 610.714286 38.904689 
L 610.714286 17.28 
z
" clip-path="url(#pb2ed5f9ef2)" style="fill: #40ba47"/>
   </g>
   <g id="patch_25">
    <path d="M 629.081633 17.28 
L 634.686507 17.28 
L 641.768764 93.322863 
L 641.768764 17.28 
L 646.530612 17.28 
L 646.530612 128.16 
L 640.921565 128.16 
L 633.839307 52.117137 
L 633.839307 128.16 
L 629.081633 128.16 
L 629.081633 17.28 
z
" clip-path="url(#pb2ed5f9ef2)" style="fill: #40ba47"/>
   </g>
   <g id="patch_26">
    <path d="M 653.007388 17.28 
L 659.339551 17.28 
L 659.339551 128.16 
L 653.007388 128.16 
L 653.007388 17.28 
z
" clip-path="url(#pb2ed5f9ef2)" style="fill: #21599c"/>
   </g>
   <g id="patch_27">
    <path d="M 681.810435 22.570907 
L 681.810435 45.200413 
Q 679.990661 41.260863 678.256188 39.268184 
Q 676.526455 37.252601 674.986282 37.252601 
Q 672.943775 37.252601 671.962803 39.978219 
Q 670.98657 42.680934 670.98657 48.407023 
Q 670.98657 52.713043 671.64529 55.118 
Q 672.304011 57.500054 674.038483 59.217881 
L 676.464848 61.57703 
Q 680.151786 65.173014 681.706177 72.479504 
Q 683.265306 79.76309 683.265306 93.230853 
Q 683.265306 110.890114 681.094846 119.525057 
Q 678.924387 128.16 674.464992 128.16 
Q 672.365618 128.16 670.247287 126.21313 
Q 668.128956 124.289163 666.010625 120.48704 
L 666.010625 97.239116 
Q 668.128956 102.667449 670.105117 105.438876 
Q 672.081278 108.187399 673.920008 108.187399 
Q 675.787172 108.187399 676.777622 105.186928 
Q 677.768072 102.163553 677.768072 96.574889 
Q 677.768072 91.581739 677.095135 88.856121 
Q 676.422197 86.130502 674.408124 83.977492 
L 672.199753 81.618343 
Q 668.882456 78.18269 667.347022 70.67006 
Q 665.816327 63.15743 665.816327 50.422607 
Q 665.816327 34.458269 667.948874 25.869134 
Q 670.081422 17.28 674.081134 17.28 
Q 675.905647 17.28 677.829679 18.608453 
Q 679.753711 19.936906 681.810435 22.570907 
z
" clip-path="url(#pb2ed5f9ef2)" style="fill: #40ba47"/>
   </g>
   <g id="patch_28">
    <path d="M 689.742081 17.28 
L 696.074245 17.28 
L 696.074245 128.16 
L 689.742081 128.16 
L 689.742081 17.28 
z
" clip-path="url(#pb2ed5f9ef2)" style="fill: #21599c"/>
   </g>
   <g id="patch_29">
    <path d="M 702.55102 17.28 
L 708.883184 17.28 
L 708.883184 106.559074 
L 720 106.559074 
L 720 128.16 
L 702.55102 128.16 
L 702.55102 17.28 
z
" clip-path="url(#pb2ed5f9ef2)" style="fill: #21599c"/>
   </g>
   <g id="patch_30">
    <path d="M 720.918367 17.28 
L 725.516642 17.28 
L 725.516642 57.749061 
L 732.144578 17.28 
L 737.484387 17.28 
L 728.89559 69.797102 
L 738.367347 128.16 
L 732.610904 128.16 
L 725.516642 84.48288 
L 725.516642 128.16 
L 720.918367 128.16 
L 720.918367 17.28 
z
" clip-path="url(#pb2ed5f9ef2)" style="fill: #bd2e1f"/>
   </g>
   <g id="patch_31">
    <path d="M 739.285714 17.28 
L 745.617878 17.28 
L 745.617878 106.559074 
L 756.734694 106.559074 
L 756.734694 128.16 
L 739.285714 128.16 
L 739.285714 17.28 
z
" clip-path="url(#pb2ed5f9ef2)" style="fill: #21599c"/>
   </g>
   <g id="patch_32">
    <path d="M 757.653061 17.28 
L 762.800342 17.28 
L 766.370827 76.617197 
L 769.964846 17.28 
L 775.102041 17.28 
L 775.102041 128.16 
L 771.279403 128.16 
L 771.279403 47.055534 
L 767.665212 106.844235 
L 765.099976 106.844235 
L 761.485785 47.055534 
L 761.485785 128.16 
L 757.653061 128.16 
L 757.653061 17.28 
z
" clip-path="url(#pb2ed5f9ef2)" style="fill: #21599c"/>
   </g>
   <g id="patch_33">
    <path d="M 776.020408 17.28 
L 781.625282 17.28 
L 788.70754 93.322863 
L 788.70754 17.28 
L 793.469388 17.28 
L 793.469388 128.16 
L 787.86034 128.16 
L 780.778083 52.117137 
L 780.778083 128.16 
L 776.020408 128.16 
L 776.020408 17.28 
z
" clip-path="url(#pb2ed5f9ef2)" style="fill: #40ba47"/>
   </g>
   <g id="patch_34">
    <path d="M 794.387755 17.28 
L 800.719919 17.28 
L 800.719919 106.559074 
L 811.836735 106.559074 
L 811.836735 128.16 
L 794.387755 128.16 
L 794.387755 17.28 
z
" clip-path="url(#pb2ed5f9ef2)" style="fill: #21599c"/>
   </g>
   <g id="patch_35">
    <path d="M 818.31351 17.28 
L 824.645674 17.28 
L 824.645674 128.16 
L 818.31351 128.16 
L 818.31351 17.28 
z
" clip-path="url(#pb2ed5f9ef2)" style="fill: #21599c"/>
   </g>
   <g id="patch_36">
    <path d="M 831.122449 17.28 
L 835.720723 17.28 
L 835.720723 57.749061 
L 842.34866 17.28 
L 847.688468 17.28 
L 839.099671 69.797102 
L 848.571429 128.16 
L 842.814985 128.16 
L 835.720723 84.48288 
L 835.720723 128.16 
L 831.122449 128.16 
L 831.122449 17.28 
z
" clip-path="url(#pb2ed5f9ef2)" style="fill: #bd2e1f"/>
   </g>
   <g id="patch_37">
    <path d="M 849.489796 17.28 
L 854.08807 17.28 
L 854.08807 57.749061 
L 860.716007 17.28 
L 866.055815 17.28 
L 857.467018 69.797102 
L 866.938776 128.16 
L 861.182332 128.16 
L 854.08807 84.48288 
L 854.08807 128.16 
L 849.489796 128.16 
L 849.489796 17.28 
z
" clip-path="url(#pb2ed5f9ef2)" style="fill: #bd2e1f"/>
   </g>
   <g id="patch_38">
    <path d="M 867.857143 17.28 
L 874.189306 17.28 
L 874.189306 106.559074 
L 885.306122 106.559074 
L 885.306122 128.16 
L 867.857143 128.16 
L 867.857143 17.28 
z
" clip-path="url(#pb2ed5f9ef2)" style="fill: #21599c"/>
   </g>
   <g id="patch_39">
    <path d="M 886.22449 17.28 
L 892.556653 17.28 
L 892.556653 106.559074 
L 903.673469 106.559074 
L 903.673469 128.16 
L 886.22449 128.16 
L 886.22449 17.28 
z
" clip-path="url(#pb2ed5f9ef2)" style="fill: #21599c"/>
   </g>
   <g id="patch_40">
    <path d="M 904.591837 17.28 
L 910.196711 17.28 
L 917.278969 93.322863 
L 917.278969 17.28 
L 922.040816 17.28 
L 922.040816 128.16 
L 916.431769 128.16 
L 909.349511 52.117137 
L 909.349511 128.16 
L 904.591837 128.16 
L 904.591837 17.28 
z
" clip-path="url(#pb2ed5f9ef2)" style="fill: #40ba47"/>
   </g>
   <g id="patch_41">
    <path d="M 940.408163 118.127891 
Q 938.648405 123.143945 936.755687 125.663425 
Q 934.86297 128.16 932.845114 128.16 
Q 928.285385 128.16 925.622284 113.226358 
Q 922.959184 98.292716 922.959184 72.754357 
Q 922.959184 46.91824 925.669211 32.09912 
Q 928.383149 17.28 933.103212 17.28 
Q 934.921628 17.28 936.587533 19.295584 
Q 938.257348 21.288263 939.735545 25.227812 
L 939.735545 47.330518 
Q 938.210421 42.268655 936.700939 39.77208 
Q 935.191458 37.252601 933.674155 37.252601 
Q 930.866364 37.252601 929.34515 46.460153 
Q 927.823937 55.644801 927.823937 72.754357 
Q 927.823937 89.703582 929.290402 98.956943 
Q 930.756868 108.187399 933.455163 108.187399 
Q 934.190351 108.187399 934.819954 107.660599 
Q 935.449556 107.110894 935.950109 105.965677 
L 935.950109 85.214328 
L 933.075838 85.214328 
L 933.075838 66.73051 
L 940.408163 66.73051 
L 940.408163 118.127891 
z
" clip-path="url(#pb2ed5f9ef2)" style="fill: #787800"/>
   </g>
   <g id="patch_42">
    <path d="M 941.326531 17.28 
L 958.412319 17.28 
L 958.412319 38.904689 
L 947.658694 38.904689 
L 947.658694 59.531316 
L 957.775418 59.531316 
L 957.775418 81.156005 
L 947.658694 81.156005 
L 947.658694 106.559074 
L 958.77551 106.559074 
L 958.77551 128.16 
L 941.326531 128.16 
L 941.326531 17.28 
z
" clip-path="url(#pb2ed5f9ef2)" style="fill: #6b296b"/>
   </g>
   <g id="patch_43">
    <path d="M 965.252286 17.28 
L 971.584449 17.28 
L 971.584449 128.16 
L 965.252286 128.16 
L 965.252286 17.28 
z
" clip-path="url(#pb2ed5f9ef2)" style="fill: #21599c"/>
   </g>
   <g id="patch_44">
    <path d="M 978.061224 17.28 
L 995.147013 17.28 
L 995.147013 38.904689 
L 984.393388 38.904689 
L 984.393388 59.531316 
L 994.510112 59.531316 
L 994.510112 81.156005 
L 984.393388 81.156005 
L 984.393388 106.559074 
L 995.510204 106.559074 
L 995.510204 128.16 
L 978.061224 128.16 
L 978.061224 17.28 
z
" clip-path="url(#pb2ed5f9ef2)" style="fill: #6b296b"/>
   </g>
   <g id="patch_45">
    <path d="M 996.428571 17.28 
L 1013.51436 17.28 
L 1013.51436 38.904689 
L 1002.760735 38.904689 
L 1002.760735 59.531316 
L 1012.877459 59.531316 
L 1012.877459 81.156005 
L 1002.760735 81.156005 
L 1002.760735 106.559074 
L 1013.877551 106.559074 
L 1013.877551 128.16 
L 996.428571 128.16 
L 996.428571 17.28 
z
" clip-path="url(#pb2ed5f9ef2)" style="fill: #6b296b"/>
   </g>
   <g id="patch_46">
    <path d="M 1014.795918 17.28 
L 1020.400793 17.28 
L 1027.48305 93.322863 
L 1027.48305 17.28 
L 1032.244898 17.28 
L 1032.244898 128.16 
L 1026.63585 128.16 
L 1019.553593 52.117137 
L 1019.553593 128.16 
L 1014.795918 128.16 
L 1014.795918 17.28 
z
" clip-path="url(#pb2ed5f9ef2)" style="fill: #40ba47"/>
   </g>
   <g id="patch_47">
    <path d="M 1033.163265 17.28 
L 1037.76154 17.28 
L 1037.76154 57.749061 
L 1044.389476 17.28 
L 1049.729284 17.28 
L 1041.140488 69.797102 
L 1050.612245 128.16 
L 1044.855802 128.16 
L 1037.76154 84.48288 
L 1037.76154 128.16 
L 1033.163265 128.16 
L 1033.163265 17.28 
z
" clip-path="url(#pb2ed5f9ef2)" style="fill: #bd2e1f"/>
   </g>
   <g id="patch_48">
    <path d="M 1051.530612 17.28 
L 1056.128887 17.28 
L 1056.128887 57.749061 
L 1062.756823 17.28 
L 1068.096631 17.28 
L 1059.507835 69.797102 
L 1068.979592 128.16 
L 1063.223149 128.16 
L 1056.128887 84.48288 
L 1056.128887 128.16 
L 1051.530612 128.16 
L 1051.530612 17.28 
z
" clip-path="url(#pb2ed5f9ef2)" style="fill: #bd2e1f"/>
   </g>
   <g id="patch_49">
    <path d="M 1079.087755 111.578719 
L 1078.746046 111.578719 
Q 1074.554656 111.578719 1072.22449 99.152512 
Q 1069.897959 86.706798 1069.897959 64.526897 
Q 1069.897959 42.38601 1072.220855 29.842759 
Q 1074.54375 17.28 1078.622449 17.28 
Q 1082.74477 17.28 1085.045855 29.725714 
Q 1087.346939 42.151921 1087.346939 64.526897 
Q 1087.346939 79.879212 1086.12551 90.978916 
Q 1084.904082 102.078621 1082.610268 107.677241 
L 1086.02736 128.16 
L 1081.857781 128.16 
L 1079.087755 111.578719 
z
M 1078.622449 34.290443 
Q 1076.623087 34.290443 1075.52162 42.210443 
Q 1074.420153 50.130443 1074.420153 64.526897 
Q 1074.420153 79.157438 1075.496173 86.940887 
Q 1076.575829 94.704828 1078.622449 94.704828 
Q 1080.632717 94.704828 1081.734184 86.784828 
Q 1082.835651 78.84532 1082.835651 64.526897 
Q 1082.835651 50.130443 1081.734184 42.210443 
Q 1080.632717 34.290443 1078.622449 34.290443 
z
" clip-path="url(#pb2ed5f9ef2)" style="fill: #40ba47"/>
   </g>
   <g id="patch_50">
    <path d="M 1093.046883 38.904689 
L 1093.046883 106.559074 
L 1094.759983 106.559074 
Q 1097.689345 106.559074 1099.235507 97.861672 
Q 1100.785645 89.164269 1100.785645 72.601183 
Q 1100.785645 56.13315 1099.243457 47.530802 
Q 1097.705244 38.904689 1094.759983 38.904689 
L 1093.046883 38.904689 
z
M 1088.265306 17.28 
L 1093.305239 17.28 
Q 1097.530357 17.28 1099.597206 20.892036 
Q 1101.664056 24.480309 1103.142648 33.106421 
Q 1104.446353 40.615654 1105.078332 50.429936 
Q 1105.714286 60.220454 1105.714286 72.601183 
Q 1105.714286 85.172019 1105.078332 95.010064 
Q 1104.446353 104.84811 1103.142648 112.333579 
Q 1101.652131 120.959691 1099.565408 124.571727 
Q 1097.478685 128.16 1093.305239 128.16 
L 1088.265306 128.16 
L 1088.265306 17.28 
z
" clip-path="url(#pb2ed5f9ef2)" style="fill: #6b296b"/>
   </g>
   <g id="patch_51">
    <path d="M 1106.632653 17.28 
L 1109.649851 17.28 
L 1111.75901 97.861672 
L 1113.852469 17.28 
L 1116.885368 17.28 
L 1118.978827 97.861672 
L 1121.090603 17.28 
L 1124.081633 17.28 
L 1121.203127 128.16 
L 1117.573592 128.16 
L 1115.357143 43.871239 
L 1113.166862 128.16 
L 1109.53471 128.16 
L 1106.632653 17.28 
z
" clip-path="url(#pb2ed5f9ef2)" style="fill: #21599c"/>
   </g>
   <g id="patch_52">
    <path d="M 1125 17.28 
L 1142.085788 17.28 
L 1142.085788 38.904689 
L 1131.332164 38.904689 
L 1131.332164 59.531316 
L 1141.448887 59.531316 
L 1141.448887 81.156005 
L 1131.332164 81.156005 
L 1131.332164 106.559074 
L 1142.44898 106.559074 
L 1142.44898 128.16 
L 1125 128.16 
L 1125 17.28 
z
" clip-path="url(#pb2ed5f9ef2)" style="fill: #6b296b"/>
   </g>
   <g id="patch_53">
    <path d="M 1155.45427 107.961114 
L 1148.743673 107.961114 
L 1147.684105 128.16 
L 1143.367347 128.16 
L 1149.532106 17.28 
L 1154.651567 17.28 
L 1160.816327 128.16 
L 1156.503136 128.16 
L 1155.45427 107.961114 
z
M 1149.813944 87.382015 
L 1154.373297 87.382015 
L 1152.097188 43.277154 
L 1149.813944 87.382015 
z
" clip-path="url(#pb2ed5f9ef2)" style="fill: #21599c"/>
   </g>
   <g id="patch_54">
    <path d="M 1168.814539 66.446464 
Q 1170.380473 66.446464 1171.059873 63.119589 
Q 1171.739273 59.76895 1171.739273 52.117137 
Q 1171.739273 44.536614 1171.059873 41.281029 
Q 1170.380473 38.00168 1168.814539 38.00168 
L 1166.718341 38.00168 
L 1166.718341 66.446464 
L 1168.814539 66.446464 
z
M 1166.718341 86.193845 
L 1166.718341 128.16 
L 1161.734694 128.16 
L 1161.734694 17.28 
L 1169.344802 17.28 
Q 1173.164355 17.28 1174.941566 24.646652 
Q 1176.72292 31.989541 1176.72292 47.887252 
Q 1176.72292 58.865941 1175.794959 65.923669 
Q 1174.871141 72.981397 1173.006934 76.332036 
Q 1174.030176 77.662786 1174.837999 82.391702 
Q 1175.649965 87.096854 1176.478502 96.673502 
L 1179.183673 128.16 
L 1173.876897 128.16 
L 1171.51971 100.618225 
Q 1170.807169 92.301037 1170.073914 89.259323 
Q 1169.344802 86.193845 1168.126853 86.193845 
L 1166.718341 86.193845 
z
" clip-path="url(#pb2ed5f9ef2)" style="fill: #bd2e1f"/>
   </g>
   <g id="patch_55">
    <path d="M 1180.102041 17.28 
L 1189.171875 17.28 
Q 1193.220584 17.28 1195.38353 26.690304 
Q 1197.55102 36.076845 1197.55102 53.447887 
Q 1197.55102 70.913982 1195.38353 80.300523 
Q 1193.220584 89.687064 1189.171875 89.687064 
L 1185.568479 89.687064 
L 1185.568479 128.16 
L 1180.102041 128.16 
L 1180.102041 17.28 
z
M 1185.568479 38.00168 
L 1185.568479 68.965384 
L 1188.590242 68.965384 
Q 1190.180644 68.965384 1191.048549 64.925607 
Q 1191.916454 60.885829 1191.916454 53.447887 
Q 1191.916454 46.033708 1191.048549 42.017694 
Q 1190.180644 38.00168 1188.590242 38.00168 
L 1185.568479 38.00168 
z
" clip-path="url(#pb2ed5f9ef2)" style="fill: #787800"/>
   </g>
   <g id="patch_56">
    <path d="M 1198.469388 17.28 
L 1215.555176 17.28 
L 1215.555176 38.904689 
L 1204.801551 38.904689 
L 1204.801551 59.531316 
L 1214.918275 59.531316 
L 1214.918275 81.156005 
L 1204.801551 81.156005 
L 1204.801551 106.559074 
L 1215.918367 106.559074 
L 1215.918367 128.16 
L 1198.469388 128.16 
L 1198.469388 17.28 
z
" clip-path="url(#pb2ed5f9ef2)" style="fill: #6b296b"/>
   </g>
   <g id="patch_57">
    <path d="M 1216.836735 17.28 
L 1221.857333 17.28 
L 1221.857333 59.531316 
L 1229.265116 59.531316 
L 1229.265116 17.28 
L 1234.285714 17.28 
L 1234.285714 128.16 
L 1229.265116 128.16 
L 1229.265116 81.156005 
L 1221.857333 81.156005 
L 1221.857333 128.16 
L 1216.836735 128.16 
L 1216.836735 17.28 
z
" clip-path="url(#pb2ed5f9ef2)" style="fill: #177875"/>
   </g>
   <g id="patch_58">
    <path d="M 1235.204082 17.28 
L 1239.802356 17.28 
L 1239.802356 57.749061 
L 1246.430293 17.28 
L 1251.770101 17.28 
L 1243.181304 69.797102 
L 1252.653061 128.16 
L 1246.896618 128.16 
L 1239.802356 84.48288 
L 1239.802356 128.16 
L 1235.204082 128.16 
L 1235.204082 17.28 
z
" clip-path="url(#pb2ed5f9ef2)" style="fill: #bd2e1f"/>
   </g>
   <g id="patch_59">
    <path d="M 1271.020408 118.127891 
Q 1269.26065 123.143945 1267.367932 125.663425 
Q 1265.475215 128.16 1263.457359 128.16 
Q 1258.89763 128.16 1256.234529 113.226358 
Q 1253.571429 98.292716 1253.571429 72.754357 
Q 1253.571429 46.91824 1256.281456 32.09912 
Q 1258.995394 17.28 1263.715457 17.28 
Q 1265.533873 17.28 1267.199778 19.295584 
Q 1268.869593 21.288263 1270.347789 25.227812 
L 1270.347789 47.330518 
Q 1268.822666 42.268655 1267.313184 39.77208 
Q 1265.803703 37.252601 1264.2864 37.252601 
Q 1261.478608 37.252601 1259.957395 46.460153 
Q 1258.436182 55.644801 1258.436182 72.754357 
Q 1258.436182 89.703582 1259.902647 98.956943 
Q 1261.369112 108.187399 1264.067408 108.187399 
Q 1264.802596 108.187399 1265.432198 107.660599 
Q 1266.061801 107.110894 1266.562354 105.965677 
L 1266.562354 85.214328 
L 1263.688083 85.214328 
L 1263.688083 66.73051 
L 1271.020408 66.73051 
L 1271.020408 118.127891 
z
" clip-path="url(#pb2ed5f9ef2)" style="fill: #787800"/>
   </g>
   <g id="patch_60">
    <path d="M 1271.938776 17.28 
L 1276.53705 17.28 
L 1276.53705 57.749061 
L 1283.164986 17.28 
L 1288.504795 17.28 
L 1279.915998 69.797102 
L 1289.387755 128.16 
L 1283.631312 128.16 
L 1276.53705 84.48288 
L 1276.53705 128.16 
L 1271.938776 128.16 
L 1271.938776 17.28 
z
" clip-path="url(#pb2ed5f9ef2)" style="fill: #bd2e1f"/>
   </g>
   <g id="patch_61">
    <path d="M 1290.306122 17.28 
L 1294.904397 17.28 
L 1294.904397 57.749061 
L 1301.532333 17.28 
L 1306.872142 17.28 
L 1298.283345 69.797102 
L 1307.755102 128.16 
L 1301.998659 128.16 
L 1294.904397 84.48288 
L 1294.904397 128.16 
L 1290.306122 128.16 
L 1290.306122 17.28 
z
" clip-path="url(#pb2ed5f9ef2)" style="fill: #bd2e1f"/>
   </g>
   <g id="patch_62">
    <path d="M 1308.673469 17.28 
L 1313.271744 17.28 
L 1313.271744 57.749061 
L 1319.89968 17.28 
L 1325.239489 17.28 
L 1316.650692 69.797102 
L 1326.122449 128.16 
L 1320.366006 128.16 
L 1313.271744 84.48288 
L 1313.271744 128.16 
L 1308.673469 128.16 
L 1308.673469 17.28 
z
" clip-path="url(#pb2ed5f9ef2)" style="fill: #bd2e1f"/>
   </g>
   <g id="patch_63">
    <path d="M 1344.489796 118.127891 
Q 1342.730038 123.143945 1340.83732 125.663425 
Q 1338.944602 128.16 1336.926746 128.16 
Q 1332.367018 128.16 1329.703917 113.226358 
Q 1327.040816 98.292716 1327.040816 72.754357 
Q 1327.040816 46.91824 1329.750844 32.09912 
Q 1332.464782 17.28 1337.184844 17.28 
Q 1339.003261 17.28 1340.669165 19.295584 
Q 1342.33898 21.288263 1343.817177 25.227812 
L 1343.817177 47.330518 
Q 1342.292054 42.268655 1340.782572 39.77208 
Q 1339.273091 37.252601 1337.755788 37.252601 
Q 1334.947996 37.252601 1333.426783 46.460153 
Q 1331.90557 55.644801 1331.90557 72.754357 
Q 1331.90557 89.703582 1333.372035 98.956943 
Q 1334.8385 108.187399 1337.536796 108.187399 
Q 1338.271984 108.187399 1338.901586 107.660599 
Q 1339.531189 107.110894 1340.031742 105.965677 
L 1340.031742 85.214328 
L 1337.15747 85.214328 
L 1337.15747 66.73051 
L 1344.489796 66.73051 
L 1344.489796 118.127891 
z
" clip-path="url(#pb2ed5f9ef2)" style="fill: #787800"/>
   </g>
   <g id="patch_64">
    <path d="M 1345.408163 17.28 
L 1362.857143 17.28 
L 1362.857143 38.904689 
L 1356.579568 38.904689 
L 1356.579568 128.16 
L 1351.697912 128.16 
L 1351.697912 38.904689 
L 1345.408163 38.904689 
L 1345.408163 17.28 
z
" clip-path="url(#pb2ed5f9ef2)" style="fill: #40ba47"/>
   </g>
   <g id="patch_65">
    <path d="M 1379.769618 22.570907 
L 1379.769618 45.200413 
Q 1377.949844 41.260863 1376.215372 39.268184 
Q 1374.485639 37.252601 1372.945466 37.252601 
Q 1370.902959 37.252601 1369.921987 39.978219 
Q 1368.945754 42.680934 1368.945754 48.407023 
Q 1368.945754 52.713043 1369.604474 55.118 
Q 1370.263194 57.500054 1371.997667 59.217881 
L 1374.424032 61.57703 
Q 1378.11097 65.173014 1379.66536 72.479504 
Q 1381.22449 79.76309 1381.22449 93.230853 
Q 1381.22449 110.890114 1379.05403 119.525057 
Q 1376.88357 128.16 1372.424176 128.16 
Q 1370.324801 128.16 1368.206471 126.21313 
Q 1366.08814 124.289163 1363.969809 120.48704 
L 1363.969809 97.239116 
Q 1366.08814 102.667449 1368.064301 105.438876 
Q 1370.040462 108.187399 1371.879192 108.187399 
Q 1373.746356 108.187399 1374.736806 105.186928 
Q 1375.727256 102.163553 1375.727256 96.574889 
Q 1375.727256 91.581739 1375.054318 88.856121 
Q 1374.381381 86.130502 1372.367308 83.977492 
L 1370.158936 81.618343 
Q 1366.84164 78.18269 1365.306206 70.67006 
Q 1363.77551 63.15743 1363.77551 50.422607 
Q 1363.77551 34.458269 1365.908058 25.869134 
Q 1368.040606 17.28 1372.040317 17.28 
Q 1373.864831 17.28 1375.788863 18.608453 
Q 1377.712895 19.936906 1379.769618 22.570907 
z
" clip-path="url(#pb2ed5f9ef2)" style="fill: #40ba47"/>
   </g>
   <g id="patch_66">
    <path d="M 1382.142857 17.28 
L 1386.741132 17.28 
L 1386.741132 57.749061 
L 1393.369068 17.28 
L 1398.708876 17.28 
L 1390.12008 69.797102 
L 1399.591837 128.16 
L 1393.835394 128.16 
L 1386.741132 84.48288 
L 1386.741132 128.16 
L 1382.142857 128.16 
L 1382.142857 17.28 
z
" clip-path="url(#pb2ed5f9ef2)" style="fill: #bd2e1f"/>
   </g>
   <g id="patch_67">
    <path d="M 1400.510204 17.28 
L 1406.115078 17.28 
L 1413.197336 93.322863 
L 1413.197336 17.28 
L 1417.959184 17.28 
L 1417.959184 128.16 
L 1412.350136 128.16 
L 1405.267878 52.117137 
L 1405.267878 128.16 
L 1400.510204 128.16 
L 1400.510204 17.28 
z
" clip-path="url(#pb2ed5f9ef2)" style="fill: #40ba47"/>
   </g>
   <g id="patch_68">
    <path d="M 1423.659128 38.904689 
L 1423.659128 106.559074 
L 1425.372228 106.559074 
Q 1428.30159 106.559074 1429.847752 97.861672 
Q 1431.397889 89.164269 1431.397889 72.601183 
Q 1431.397889 56.13315 1429.855702 47.530802 
Q 1428.317489 38.904689 1425.372228 38.904689 
L 1423.659128 38.904689 
z
M 1418.877551 17.28 
L 1423.917484 17.28 
Q 1428.142601 17.28 1430.209451 20.892036 
Q 1432.2763 24.480309 1433.754893 33.106421 
Q 1435.058598 40.615654 1435.690577 50.429936 
Q 1436.326531 60.220454 1436.326531 72.601183 
Q 1436.326531 85.172019 1435.690577 95.010064 
Q 1435.058598 104.84811 1433.754893 112.333579 
Q 1432.264376 120.959691 1430.177653 124.571727 
Q 1428.09093 128.16 1423.917484 128.16 
L 1418.877551 128.16 
L 1418.877551 17.28 
z
" clip-path="url(#pb2ed5f9ef2)" style="fill: #6b296b"/>
   </g>
   <g id="patch_69">
    <path d="M 1454.693878 118.127891 
Q 1452.934119 123.143945 1451.041402 125.663425 
Q 1449.148684 128.16 1447.130828 128.16 
Q 1442.571099 128.16 1439.907999 113.226358 
Q 1437.244898 98.292716 1437.244898 72.754357 
Q 1437.244898 46.91824 1439.954925 32.09912 
Q 1442.668864 17.28 1447.388926 17.28 
Q 1449.207343 17.28 1450.873247 19.295584 
Q 1452.543062 21.288263 1454.021259 25.227812 
L 1454.021259 47.330518 
Q 1452.496135 42.268655 1450.986654 39.77208 
Q 1449.477172 37.252601 1447.95987 37.252601 
Q 1445.152078 37.252601 1443.630865 46.460153 
Q 1442.109652 55.644801 1442.109652 72.754357 
Q 1442.109652 89.703582 1443.576117 98.956943 
Q 1445.042582 108.187399 1447.740878 108.187399 
Q 1448.476065 108.187399 1449.105668 107.660599 
Q 1449.73527 107.110894 1450.235824 105.965677 
L 1450.235824 85.214328 
L 1447.361552 85.214328 
L 1447.361552 66.73051 
L 1454.693878 66.73051 
L 1454.693878 118.127891 
z
" clip-path="url(#pb2ed5f9ef2)" style="fill: #787800"/>
   </g>
   <g id="patch_70">
    <path d="M 1455.612245 17.28 
L 1460.210519 17.28 
L 1460.210519 57.749061 
L 1466.838456 17.28 
L 1472.178264 17.28 
L 1463.589467 69.797102 
L 1473.061224 128.16 
L 1467.304781 128.16 
L 1460.210519 84.48288 
L 1460.210519 128.16 
L 1455.612245 128.16 
L 1455.612245 17.28 
z
" clip-path="url(#pb2ed5f9ef2)" style="fill: #bd2e1f"/>
   </g>
   <g id="patch_71">
    <path d="M 1473.979592 17.28 
L 1480.311755 17.28 
L 1480.311755 106.559074 
L 1491.428571 106.559074 
L 1491.428571 128.16 
L 1473.979592 128.16 
L 1473.979592 17.28 
z
" clip-path="url(#pb2ed5f9ef2)" style="fill: #21599c"/>
   </g>
   <g id="patch_72">
    <path d="M 1497.128516 38.904689 
L 1497.128516 106.559074 
L 1498.841616 106.559074 
Q 1501.770978 106.559074 1503.31714 97.861672 
Q 1504.867277 89.164269 1504.867277 72.601183 
Q 1504.867277 56.13315 1503.325089 47.530802 
Q 1501.786876 38.904689 1498.841616 38.904689 
L 1497.128516 38.904689 
z
M 1492.346939 17.28 
L 1497.386872 17.28 
Q 1501.611989 17.28 1503.678839 20.892036 
Q 1505.745688 24.480309 1507.224281 33.106421 
Q 1508.527986 40.615654 1509.159965 50.429936 
Q 1509.795918 60.220454 1509.795918 72.601183 
Q 1509.795918 85.172019 1509.159965 95.010064 
Q 1508.527986 104.84811 1507.224281 112.333579 
Q 1505.733764 120.959691 1503.647041 124.571727 
Q 1501.560318 128.16 1497.386872 128.16 
L 1492.346939 128.16 
L 1492.346939 17.28 
z
" clip-path="url(#pb2ed5f9ef2)" style="fill: #6b296b"/>
   </g>
   <g id="patch_73">
    <path d="M 1510.714286 17.28 
L 1515.861567 17.28 
L 1519.432051 76.617197 
L 1523.026071 17.28 
L 1528.163265 17.28 
L 1528.163265 128.16 
L 1524.340628 128.16 
L 1524.340628 47.055534 
L 1520.726436 106.844235 
L 1518.161201 106.844235 
L 1514.54701 47.055534 
L 1514.54701 128.16 
L 1510.714286 128.16 
L 1510.714286 17.28 
z
" clip-path="url(#pb2ed5f9ef2)" style="fill: #21599c"/>
   </g>
   <g id="patch_74">
    <path d="M 1538.271429 111.578719 
L 1537.929719 111.578719 
Q 1533.738329 111.578719 1531.408163 99.152512 
Q 1529.081633 86.706798 1529.081633 64.526897 
Q 1529.081633 42.38601 1531.404528 29.842759 
Q 1533.727423 17.28 1537.806122 17.28 
Q 1541.928444 17.28 1544.229528 29.725714 
Q 1546.530612 42.151921 1546.530612 64.526897 
Q 1546.530612 79.879212 1545.309184 90.978916 
Q 1544.087755 102.078621 1541.793941 107.677241 
L 1545.211033 128.16 
L 1541.041454 128.16 
L 1538.271429 111.578719 
z
M 1537.806122 34.290443 
Q 1535.80676 34.290443 1534.705293 42.210443 
Q 1533.603827 50.130443 1533.603827 64.526897 
Q 1533.603827 79.157438 1534.679847 86.940887 
Q 1535.759503 94.704828 1537.806122 94.704828 
Q 1539.81639 94.704828 1540.917857 86.784828 
Q 1542.019324 78.84532 1542.019324 64.526897 
Q 1542.019324 50.130443 1540.917857 42.210443 
Q 1539.81639 34.290443 1537.806122 34.290443 
z
" clip-path="url(#pb2ed5f9ef2)" style="fill: #40ba47"/>
   </g>
   <g id="patch_75">
    <path d="M 1547.44898 17.28 
L 1552.047254 17.28 
L 1552.047254 57.749061 
L 1558.675191 17.28 
L 1564.014999 17.28 
L 1555.426202 69.797102 
L 1564.897959 128.16 
L 1559.141516 128.16 
L 1552.047254 84.48288 
L 1552.047254 128.16 
L 1547.44898 128.16 
L 1547.44898 17.28 
z
" clip-path="url(#pb2ed5f9ef2)" style="fill: #bd2e1f"/>
   </g>
   <g id="patch_76">
    <path d="M 1571.374735 17.28 
L 1577.706898 17.28 
L 1577.706898 128.16 
L 1571.374735 128.16 
L 1571.374735 17.28 
z
" clip-path="url(#pb2ed5f9ef2)" style="fill: #21599c"/>
   </g>
   <g id="patch_77">
    <path d="M 1600.177782 22.570907 
L 1600.177782 45.200413 
Q 1598.358008 41.260863 1596.623535 39.268184 
Q 1594.893802 37.252601 1593.353629 37.252601 
Q 1591.311122 37.252601 1590.33015 39.978219 
Q 1589.353917 42.680934 1589.353917 48.407023 
Q 1589.353917 52.713043 1590.012637 55.118 
Q 1590.671358 57.500054 1592.40583 59.217881 
L 1594.832195 61.57703 
Q 1598.519133 65.173014 1600.073524 72.479504 
Q 1601.632653 79.76309 1601.632653 93.230853 
Q 1601.632653 110.890114 1599.462193 119.525057 
Q 1597.291734 128.16 1592.832339 128.16 
Q 1590.732965 128.16 1588.614634 126.21313 
Q 1586.496303 124.289163 1584.377972 120.48704 
L 1584.377972 97.239116 
Q 1586.496303 102.667449 1588.472464 105.438876 
Q 1590.448625 108.187399 1592.287355 108.187399 
Q 1594.154519 108.187399 1595.144969 105.186928 
Q 1596.135419 102.163553 1596.135419 96.574889 
Q 1596.135419 91.581739 1595.462482 88.856121 
Q 1594.789544 86.130502 1592.775471 83.977492 
L 1590.5671 81.618343 
Q 1587.249803 78.18269 1585.714369 70.67006 
Q 1584.183673 63.15743 1584.183673 50.422607 
Q 1584.183673 34.458269 1586.316221 25.869134 
Q 1588.448769 17.28 1592.448481 17.28 
Q 1594.272994 17.28 1596.197026 18.608453 
Q 1598.121058 19.936906 1600.177782 22.570907 
z
" clip-path="url(#pb2ed5f9ef2)" style="fill: #40ba47"/>
   </g>
   <g id="patch_78">
    <path d="M 1602.55102 17.28 
L 1607.37515 17.28 
L 1611.271844 56.798526 
L 1615.164873 17.28 
L 1620 17.28 
L 1613.482293 81.441166 
L 1613.482293 128.16 
L 1609.072393 128.16 
L 1609.072393 81.441166 
L 1602.55102 17.28 
z
" clip-path="url(#pb2ed5f9ef2)" style="fill: #177875"/>
   </g>
   <g id="matplotlib.axis_1">
    <g id="xtick_1">
     <g id="line2d_2">
      <defs>
       <path id="mc2be7544ab" d="M 0 0 
L 0 3.5 
" style="stroke: #000000; stroke-width: 0.8"/>
      </defs>
      <g>
       <use xlink:href="#mc2be7544ab" x="233.72449" y="128.16" style="stroke: #000000; stroke-width: 0.8"/>
      </g>
     </g>
     <g id="text_1">
      <!-- 0 -->
      <g transform="translate(230.54324 142.758438) scale(0.1 -0.1)">
       <defs>
        <path id="DejaVuSans-30" d="M 2034 4250 
Q 1547 4250 1301 3770 
Q 1056 3291 1056 2328 
Q 1056 1369 1301 889 
Q 1547 409 2034 409 
Q 2525 409 2770 889 
Q 3016 1369 3016 2328 
Q 3016 3291 2770 3770 
Q 2525 4250 2034 4250 
z
M 2034 4750 
Q 2819 4750 3233 4129 
Q 3647 3509 3647 2328 
Q 3647 1150 3233 529 
Q 2819 -91 2034 -91 
Q 1250 -91 836 529 
Q 422 1150 422 2328 
Q 422 3509 836 4129 
Q 1250 4750 2034 4750 
z
" transform="scale(0.015625)"/>
       </defs>
       <use xlink:href="#DejaVuSans-30"/>
      </g>
     </g>
    </g>
    <g id="xtick_2">
     <g id="line2d_3">
      <g>
       <use xlink:href="#mc2be7544ab" x="417.397959" y="128.16" style="stroke: #000000; stroke-width: 0.8"/>
      </g>
     </g>
     <g id="text_2">
      <!-- 10 -->
      <g transform="translate(411.035459 142.758438) scale(0.1 -0.1)">
       <defs>
        <path id="DejaVuSans-31" d="M 794 531 
L 1825 531 
L 1825 4091 
L 703 3866 
L 703 4441 
L 1819 4666 
L 2450 4666 
L 2450 531 
L 3481 531 
L 3481 0 
L 794 0 
L 794 531 
z
" transform="scale(0.015625)"/>
       </defs>
       <use xlink:href="#DejaVuSans-31"/>
       <use xlink:href="#DejaVuSans-30" x="63.623047"/>
      </g>
     </g>
    </g>
    <g id="xtick_3">
     <g id="line2d_4">
      <g>
       <use xlink:href="#mc2be7544ab" x="601.071429" y="128.16" style="stroke: #000000; stroke-width: 0.8"/>
      </g>
     </g>
     <g id="text_3">
      <!-- 20 -->
      <g transform="translate(594.708929 142.758438) scale(0.1 -0.1)">
       <defs>
        <path id="DejaVuSans-32" d="M 1228 531 
L 3431 531 
L 3431 0 
L 469 0 
L 469 531 
Q 828 903 1448 1529 
Q 2069 2156 2228 2338 
Q 2531 2678 2651 2914 
Q 2772 3150 2772 3378 
Q 2772 3750 2511 3984 
Q 2250 4219 1831 4219 
Q 1534 4219 1204 4116 
Q 875 4013 500 3803 
L 500 4441 
Q 881 4594 1212 4672 
Q 1544 4750 1819 4750 
Q 2544 4750 2975 4387 
Q 3406 4025 3406 3419 
Q 3406 3131 3298 2873 
Q 3191 2616 2906 2266 
Q 2828 2175 2409 1742 
Q 1991 1309 1228 531 
z
" transform="scale(0.015625)"/>
       </defs>
       <use xlink:href="#DejaVuSans-32"/>
       <use xlink:href="#DejaVuSans-30" x="63.623047"/>
      </g>
     </g>
    </g>
    <g id="xtick_4">
     <g id="line2d_5">
      <g>
       <use xlink:href="#mc2be7544ab" x="784.744898" y="128.16" style="stroke: #000000; stroke-width: 0.8"/>
      </g>
     </g>
     <g id="text_4">
      <!-- 30 -->
      <g transform="translate(778.382398 142.758438) scale(0.1 -0.1)">
       <defs>
        <path id="DejaVuSans-33" d="M 2597 2516 
Q 3050 2419 3304 2112 
Q 3559 1806 3559 1356 
Q 3559 666 3084 287 
Q 2609 -91 1734 -91 
Q 1441 -91 1130 -33 
Q 819 25 488 141 
L 488 750 
Q 750 597 1062 519 
Q 1375 441 1716 441 
Q 2309 441 2620 675 
Q 2931 909 2931 1356 
Q 2931 1769 2642 2001 
Q 2353 2234 1838 2234 
L 1294 2234 
L 1294 2753 
L 1863 2753 
Q 2328 2753 2575 2939 
Q 2822 3125 2822 3475 
Q 2822 3834 2567 4026 
Q 2313 4219 1838 4219 
Q 1578 4219 1281 4162 
Q 984 4106 628 3988 
L 628 4550 
Q 988 4650 1302 4700 
Q 1616 4750 1894 4750 
Q 2613 4750 3031 4423 
Q 3450 4097 3450 3541 
Q 3450 3153 3228 2886 
Q 3006 2619 2597 2516 
z
" transform="scale(0.015625)"/>
       </defs>
       <use xlink:href="#DejaVuSans-33"/>
       <use xlink:href="#DejaVuSans-30" x="63.623047"/>
      </g>
     </g>
    </g>
    <g id="xtick_5">
     <g id="line2d_6">
      <g>
       <use xlink:href="#mc2be7544ab" x="968.418367" y="128.16" style="stroke: #000000; stroke-width: 0.8"/>
      </g>
     </g>
     <g id="text_5">
      <!-- 40 -->
      <g transform="translate(962.055867 142.758438) scale(0.1 -0.1)">
       <defs>
        <path id="DejaVuSans-34" d="M 2419 4116 
L 825 1625 
L 2419 1625 
L 2419 4116 
z
M 2253 4666 
L 3047 4666 
L 3047 1625 
L 3713 1625 
L 3713 1100 
L 3047 1100 
L 3047 0 
L 2419 0 
L 2419 1100 
L 313 1100 
L 313 1709 
L 2253 4666 
z
" transform="scale(0.015625)"/>
       </defs>
       <use xlink:href="#DejaVuSans-34"/>
       <use xlink:href="#DejaVuSans-30" x="63.623047"/>
      </g>
     </g>
    </g>
    <g id="xtick_6">
     <g id="line2d_7">
      <g>
       <use xlink:href="#mc2be7544ab" x="1152.091837" y="128.16" style="stroke: #000000; stroke-width: 0.8"/>
      </g>
     </g>
     <g id="text_6">
      <!-- 50 -->
      <g transform="translate(1145.729337 142.758438) scale(0.1 -0.1)">
       <defs>
        <path id="DejaVuSans-35" d="M 691 4666 
L 3169 4666 
L 3169 4134 
L 1269 4134 
L 1269 2991 
Q 1406 3038 1543 3061 
Q 1681 3084 1819 3084 
Q 2600 3084 3056 2656 
Q 3513 2228 3513 1497 
Q 3513 744 3044 326 
Q 2575 -91 1722 -91 
Q 1428 -91 1123 -41 
Q 819 9 494 109 
L 494 744 
Q 775 591 1075 516 
Q 1375 441 1709 441 
Q 2250 441 2565 725 
Q 2881 1009 2881 1497 
Q 2881 1984 2565 2268 
Q 2250 2553 1709 2553 
Q 1456 2553 1204 2497 
Q 953 2441 691 2322 
L 691 4666 
z
" transform="scale(0.015625)"/>
       </defs>
       <use xlink:href="#DejaVuSans-35"/>
       <use xlink:href="#DejaVuSans-30" x="63.623047"/>
      </g>
     </g>
    </g>
    <g id="xtick_7">
     <g id="line2d_8">
      <g>
       <use xlink:href="#mc2be7544ab" x="1335.765306" y="128.16" style="stroke: #000000; stroke-width: 0.8"/>
      </g>
     </g>
     <g id="text_7">
      <!-- 60 -->
      <g transform="translate(1329.402806 142.758438) scale(0.1 -0.1)">
       <defs>
        <path id="DejaVuSans-36" d="M 2113 2584 
Q 1688 2584 1439 2293 
Q 1191 2003 1191 1497 
Q 1191 994 1439 701 
Q 1688 409 2113 409 
Q 2538 409 2786 701 
Q 3034 994 3034 1497 
Q 3034 2003 2786 2293 
Q 2538 2584 2113 2584 
z
M 3366 4563 
L 3366 3988 
Q 3128 4100 2886 4159 
Q 2644 4219 2406 4219 
Q 1781 4219 1451 3797 
Q 1122 3375 1075 2522 
Q 1259 2794 1537 2939 
Q 1816 3084 2150 3084 
Q 2853 3084 3261 2657 
Q 3669 2231 3669 1497 
Q 3669 778 3244 343 
Q 2819 -91 2113 -91 
Q 1303 -91 875 529 
Q 447 1150 447 2328 
Q 447 3434 972 4092 
Q 1497 4750 2381 4750 
Q 2619 4750 2861 4703 
Q 3103 4656 3366 4563 
z
" transform="scale(0.015625)"/>
       </defs>
       <use xlink:href="#DejaVuSans-36"/>
       <use xlink:href="#DejaVuSans-30" x="63.623047"/>
      </g>
     </g>
    </g>
    <g id="xtick_8">
     <g id="line2d_9">
      <g>
       <use xlink:href="#mc2be7544ab" x="1519.438776" y="128.16" style="stroke: #000000; stroke-width: 0.8"/>
      </g>
     </g>
     <g id="text_8">
      <!-- 70 -->
      <g transform="translate(1513.076276 142.758438) scale(0.1 -0.1)">
       <defs>
        <path id="DejaVuSans-37" d="M 525 4666 
L 3525 4666 
L 3525 4397 
L 1831 0 
L 1172 0 
L 2766 4134 
L 525 4134 
L 525 4666 
z
" transform="scale(0.015625)"/>
       </defs>
       <use xlink:href="#DejaVuSans-37"/>
       <use xlink:href="#DejaVuSans-30" x="63.623047"/>
      </g>
     </g>
    </g>
   </g>
   <g id="matplotlib.axis_2">
    <g id="ytick_1">
     <g id="line2d_10">
      <defs>
       <path id="m443d50c62d" d="M 0 0 
L -3.5 0 
" style="stroke: #000000; stroke-width: 0.8"/>
      </defs>
      <g>
       <use xlink:href="#m443d50c62d" x="225" y="128.16" style="stroke: #000000; stroke-width: 0.8"/>
      </g>
     </g>
     <g id="text_9">
      <!-- 0.0 -->
      <g transform="translate(202.096875 131.959219) scale(0.1 -0.1)">
       <defs>
        <path id="DejaVuSans-2e" d="M 684 794 
L 1344 794 
L 1344 0 
L 684 0 
L 684 794 
z
" transform="scale(0.015625)"/>
       </defs>
       <use xlink:href="#DejaVuSans-30"/>
       <use xlink:href="#DejaVuSans-2e" x="63.623047"/>
       <use xlink:href="#DejaVuSans-30" x="95.410156"/>
      </g>
     </g>
    </g>
    <g id="ytick_2">
     <g id="line2d_11">
      <g>
       <use xlink:href="#m443d50c62d" x="225" y="100.44" style="stroke: #000000; stroke-width: 0.8"/>
      </g>
     </g>
     <g id="text_10">
      <!-- 0.5 -->
      <g transform="translate(202.096875 104.239219) scale(0.1 -0.1)">
       <use xlink:href="#DejaVuSans-30"/>
       <use xlink:href="#DejaVuSans-2e" x="63.623047"/>
       <use xlink:href="#DejaVuSans-35" x="95.410156"/>
      </g>
     </g>
    </g>
    <g id="ytick_3">
     <g id="line2d_12">
      <g>
       <use xlink:href="#m443d50c62d" x="225" y="72.72" style="stroke: #000000; stroke-width: 0.8"/>
      </g>
     </g>
     <g id="text_11">
      <!-- 1.0 -->
      <g transform="translate(202.096875 76.519219) scale(0.1 -0.1)">
       <use xlink:href="#DejaVuSans-31"/>
       <use xlink:href="#DejaVuSans-2e" x="63.623047"/>
       <use xlink:href="#DejaVuSans-30" x="95.410156"/>
      </g>
     </g>
    </g>
    <g id="ytick_4">
     <g id="line2d_13">
      <g>
       <use xlink:href="#m443d50c62d" x="225" y="45" style="stroke: #000000; stroke-width: 0.8"/>
      </g>
     </g>
     <g id="text_12">
      <!-- 1.5 -->
      <g transform="translate(202.096875 48.799219) scale(0.1 -0.1)">
       <use xlink:href="#DejaVuSans-31"/>
       <use xlink:href="#DejaVuSans-2e" x="63.623047"/>
       <use xlink:href="#DejaVuSans-35" x="95.410156"/>
      </g>
     </g>
    </g>
    <g id="ytick_5">
     <g id="line2d_14">
      <g>
       <use xlink:href="#m443d50c62d" x="225" y="17.28" style="stroke: #000000; stroke-width: 0.8"/>
      </g>
     </g>
     <g id="text_13">
      <!-- 2.0 -->
      <g transform="translate(202.096875 21.079219) scale(0.1 -0.1)">
       <use xlink:href="#DejaVuSans-32"/>
       <use xlink:href="#DejaVuSans-2e" x="63.623047"/>
       <use xlink:href="#DejaVuSans-30" x="95.410156"/>
      </g>
     </g>
    </g>
   </g>
  </g>
 </g>
 <defs>
  <clipPath id="pb2ed5f9ef2">
   <rect x="225" y="17.28" width="1395" height="110.88"/>
  </clipPath>
 </defs>
</svg>
