<?xml version="1.0" encoding="utf-8" standalone="no"?>
<!DOCTYPE svg PUBLIC "-//W3C//DTD SVG 1.1//EN"
  "http://www.w3.org/Graphics/SVG/1.1/DTD/svg11.dtd">
<svg xmlns:xlink="http://www.w3.org/1999/xlink" width="1800pt" height="144pt" viewBox="0 0 1800 144" xmlns="http://www.w3.org/2000/svg" version="1.1">
 <metadata>
  <rdf:RDF xmlns:dc="http://purl.org/dc/elements/1.1/" xmlns:cc="http://creativecommons.org/ns#" xmlns:rdf="http://www.w3.org/1999/02/22-rdf-syntax-ns#">
   <cc:Work>
    <dc:type rdf:resource="http://purl.org/dc/dcmitype/StillImage"/>
    <dc:date>2025-05-09T21:10:08.465570</dc:date>
    <dc:format>image/svg+xml</dc:format>
    <dc:creator>
     <cc:Agent>
      <dc:title>Matplotlib v3.8.0, https://matplotlib.org/</dc:title>
     </cc:Agent>
    </dc:creator>
   </cc:Work>
  </rdf:RDF>
 </metadata>
 <defs>
  <style type="text/css">*{stroke-linejoin: round; stroke-linecap: butt}</style>
 </defs>
 <g id="figure_1">
  <g id="patch_1">
   <path d="M 0 144 
L 1800 144 
L 1800 0 
L 0 0 
z
" style="fill: #ffffff"/>
  </g>
  <g id="axes_1">
   <g id="patch_2">
    <path d="M 225 128.16 
L 1620 128.16 
L 1620 17.28 
L 225 17.28 
z
" style="fill: #ffffff"/>
   </g>
   <g id="line2d_1">
    <path d="M 225 128.16 
L 1620 128.16 
" clip-path="url(#pa2affae8c8)" style="fill: none; stroke: #000000; stroke-width: 1.5; stroke-linecap: square"/>
   </g>
   <g id="patch_3">
    <path d="M 229.486235 83.532345 
L 229.486235 117.359537 
L 231.093524 117.359537 
Q 233.841949 117.359537 235.29261 113.010836 
Q 236.747001 108.662135 236.747001 100.380592 
Q 236.747001 92.146575 235.300069 87.845401 
Q 233.856866 83.532345 231.093524 83.532345 
L 229.486235 83.532345 
z
M 225 72.72 
L 229.728634 72.72 
Q 233.69278 72.72 235.631968 74.526018 
Q 237.571155 76.320154 238.95842 80.63321 
Q 240.1816 84.387827 240.774544 89.294968 
Q 241.371217 94.190227 241.371217 100.380592 
Q 241.371217 106.666009 240.774544 111.585032 
Q 240.1816 116.504055 238.95842 120.24679 
Q 237.559968 124.559846 235.602134 126.365864 
Q 233.644301 128.16 229.728634 128.16 
L 225 128.16 
L 225 72.72 
z
" clip-path="url(#pa2affae8c8)" style="fill: #6b296b"/>
   </g>
   <g id="patch_4">
    <path d="M 242.23286 72.72 
L 248.173908 72.72 
L 248.173908 117.359537 
L 258.604077 117.359537 
L 258.604077 128.16 
L 242.23286 128.16 
L 242.23286 72.72 
z
" clip-path="url(#pa2affae8c8)" style="fill: #21599c"/>
   </g>
   <g id="patch_5">
    <path d="M 259.46572 72.72 
L 264.7244 72.72 
L 271.369211 110.741432 
L 271.369211 72.72 
L 275.836936 72.72 
L 275.836936 128.16 
L 270.57434 128.16 
L 263.929529 90.138568 
L 263.929529 128.16 
L 259.46572 128.16 
L 259.46572 72.72 
z
" clip-path="url(#pa2affae8c8)" style="fill: #40ba47"/>
   </g>
   <g id="patch_6">
    <path d="M 281.184815 83.532345 
L 281.184815 117.359537 
L 282.792103 117.359537 
Q 285.540528 117.359537 286.991189 113.010836 
Q 288.44558 108.662135 288.44558 100.380592 
Q 288.44558 92.146575 286.998648 87.845401 
Q 285.555445 83.532345 282.792103 83.532345 
L 281.184815 83.532345 
z
M 276.698579 72.72 
L 281.427213 72.72 
Q 285.39136 72.72 287.330547 74.526018 
Q 289.269735 76.320154 290.657 80.63321 
Q 291.880179 84.387827 292.473123 89.294968 
Q 293.069796 94.190227 293.069796 100.380592 
Q 293.069796 106.666009 292.473123 111.585032 
Q 291.880179 116.504055 290.657 120.24679 
Q 289.258547 124.559846 287.300714 126.365864 
Q 285.34288 128.16 281.427213 128.16 
L 276.698579 128.16 
L 276.698579 72.72 
z
" clip-path="url(#pa2affae8c8)" style="fill: #6b296b"/>
   </g>
   <g id="patch_7">
    <path d="M 293.931439 72.72 
L 302.441061 72.72 
Q 306.239695 72.72 308.269044 77.425152 
Q 310.302656 82.118423 310.302656 90.803943 
Q 310.302656 99.536991 308.269044 104.230261 
Q 306.239695 108.923532 302.441061 108.923532 
L 299.060234 108.923532 
L 299.060234 128.16 
L 293.931439 128.16 
L 293.931439 72.72 
z
M 299.060234 83.08084 
L 299.060234 98.562692 
L 301.895354 98.562692 
Q 303.387522 98.562692 304.20182 96.542803 
Q 305.016117 94.522915 305.016117 90.803943 
Q 305.016117 87.096854 304.20182 85.088847 
Q 303.387522 83.08084 301.895354 83.08084 
L 299.060234 83.08084 
z
" clip-path="url(#pa2affae8c8)" style="fill: #787800"/>
   </g>
   <g id="patch_8">
    <path d="M 311.164299 72.72 
L 327.535516 72.72 
L 327.535516 83.532345 
L 321.645685 83.532345 
L 321.645685 128.16 
L 317.065552 128.16 
L 317.065552 83.532345 
L 311.164299 83.532345 
L 311.164299 72.72 
z
" clip-path="url(#pa2affae8c8)" style="fill: #40ba47"/>
   </g>
   <g id="patch_9">
    <path d="M 328.397159 17.28 
L 332.447286 17.28 
L 336.587788 99.121132 
L 340.721596 17.28 
L 344.768376 17.28 
L 338.984392 128.16 
L 334.181142 128.16 
L 328.397159 17.28 
z
" clip-path="url(#pa2affae8c8)" style="fill: #21599c"/>
   </g>
   <g id="patch_10">
    <path d="M 350.845103 17.28 
L 356.786151 17.28 
L 356.786151 128.16 
L 350.845103 128.16 
L 350.845103 17.28 
z
" clip-path="url(#pa2affae8c8)" style="fill: #21599c"/>
   </g>
   <g id="patch_11">
    <path d="M 362.862878 17.28 
L 368.121559 17.28 
L 374.76637 93.322863 
L 374.76637 17.28 
L 379.234095 17.28 
L 379.234095 128.16 
L 373.971499 128.16 
L 367.326688 52.117137 
L 367.326688 128.16 
L 362.862878 128.16 
L 362.862878 17.28 
z
" clip-path="url(#pa2affae8c8)" style="fill: #40ba47"/>
   </g>
   <g id="patch_12">
    <path d="M 388.717912 111.578719 
L 388.397309 111.578719 
Q 384.464807 111.578719 382.278567 99.152512 
Q 380.095738 86.706798 380.095738 64.526897 
Q 380.095738 42.38601 382.275156 29.842759 
Q 384.454575 17.28 388.281347 17.28 
Q 392.149046 17.28 394.308001 29.725714 
Q 396.466955 42.151921 396.466955 64.526897 
Q 396.466955 79.879212 395.32097 90.978916 
Q 394.174985 102.078621 392.022852 107.677241 
L 395.228882 128.16 
L 391.316843 128.16 
L 388.717912 111.578719 
z
M 388.281347 34.290443 
Q 386.405478 34.290443 385.372045 42.210443 
Q 384.338612 50.130443 384.338612 64.526897 
Q 384.338612 79.157438 385.34817 86.940887 
Q 386.361139 94.704828 388.281347 94.704828 
Q 390.167447 94.704828 391.20088 86.784828 
Q 392.234313 78.84532 392.234313 64.526897 
Q 392.234313 50.130443 391.20088 42.210443 
Q 390.167447 34.290443 388.281347 34.290443 
z
" clip-path="url(#pa2affae8c8)" style="fill: #40ba47"/>
   </g>
   <g id="patch_13">
    <path d="M 408.668954 107.961114 
L 402.372847 107.961114 
L 401.378725 128.16 
L 397.328598 128.16 
L 403.112581 17.28 
L 407.915831 17.28 
L 413.699815 128.16 
L 409.653035 128.16 
L 408.668954 107.961114 
z
M 403.377011 87.382015 
L 407.654749 87.382015 
L 405.519227 43.277154 
L 403.377011 87.382015 
z
" clip-path="url(#pa2affae8c8)" style="fill: #21599c"/>
   </g>
   <g id="patch_14">
    <path d="M 414.561458 17.28 
L 420.502506 17.28 
L 420.502506 106.559074 
L 430.932674 106.559074 
L 430.932674 128.16 
L 414.561458 128.16 
L 414.561458 17.28 
z
" clip-path="url(#pa2affae8c8)" style="fill: #21599c"/>
   </g>
   <g id="patch_15">
    <path d="M 431.794317 17.28 
L 437.052998 17.28 
L 443.697809 93.322863 
L 443.697809 17.28 
L 448.165534 17.28 
L 448.165534 128.16 
L 442.902938 128.16 
L 436.258127 52.117137 
L 436.258127 128.16 
L 431.794317 128.16 
L 431.794317 17.28 
z
" clip-path="url(#pa2affae8c8)" style="fill: #40ba47"/>
   </g>
   <g id="patch_16">
    <path d="M 453.513413 38.904689 
L 453.513413 106.559074 
L 455.120701 106.559074 
Q 457.869126 106.559074 459.319787 97.861672 
Q 460.774178 89.164269 460.774178 72.601183 
Q 460.774178 56.13315 459.327246 47.530802 
Q 457.884043 38.904689 455.120701 38.904689 
L 453.513413 38.904689 
z
M 449.027177 17.28 
L 453.755811 17.28 
Q 457.719958 17.28 459.659145 20.892036 
Q 461.598333 24.480309 462.985597 33.106421 
Q 464.208777 40.615654 464.801721 50.429936 
Q 465.398394 60.220454 465.398394 72.601183 
Q 465.398394 85.172019 464.801721 95.010064 
Q 464.208777 104.84811 462.985597 112.333579 
Q 461.587145 120.959691 459.629312 124.571727 
Q 457.671478 128.16 453.755811 128.16 
L 449.027177 128.16 
L 449.027177 17.28 
z
" clip-path="url(#pa2affae8c8)" style="fill: #6b296b"/>
   </g>
   <g id="patch_17">
    <path d="M 466.260037 17.28 
L 469.090873 17.28 
L 471.069757 97.861672 
L 473.03391 17.28 
L 475.879477 17.28 
L 477.84363 97.861672 
L 479.82497 17.28 
L 482.631254 17.28 
L 479.930543 128.16 
L 476.525193 128.16 
L 474.445645 43.871239 
L 472.39065 128.16 
L 468.982844 128.16 
L 466.260037 17.28 
z
" clip-path="url(#pa2affae8c8)" style="fill: #21599c"/>
   </g>
   <g id="patch_18">
    <path d="M 483.492897 17.28 
L 488.019057 17.28 
L 491.675066 56.798526 
L 495.327636 17.28 
L 499.864114 17.28 
L 493.748983 81.441166 
L 493.748983 128.16 
L 489.611467 128.16 
L 489.611467 81.441166 
L 483.492897 17.28 
z
" clip-path="url(#pa2affae8c8)" style="fill: #177875"/>
   </g>
   <g id="patch_19">
    <path d="M 500.725757 17.28 
L 517.096973 17.28 
L 517.096973 38.904689 
L 511.207143 38.904689 
L 511.207143 128.16 
L 506.627009 128.16 
L 506.627009 38.904689 
L 500.725757 38.904689 
L 500.725757 17.28 
z
" clip-path="url(#pa2affae8c8)" style="fill: #40ba47"/>
   </g>
   <g id="patch_20">
    <path d="M 529.298973 107.961114 
L 523.002866 107.961114 
L 522.008744 128.16 
L 517.958616 128.16 
L 523.7426 17.28 
L 528.54585 17.28 
L 534.329833 128.16 
L 530.283053 128.16 
L 529.298973 107.961114 
z
M 524.00703 87.382015 
L 528.284767 87.382015 
L 526.149246 43.277154 
L 524.00703 87.382015 
z
" clip-path="url(#pa2affae8c8)" style="fill: #21599c"/>
   </g>
   <g id="patch_21">
    <path d="M 535.191476 17.28 
L 539.505731 17.28 
L 539.505731 57.749061 
L 545.724283 17.28 
L 550.73427 17.28 
L 542.675973 69.797102 
L 551.562693 128.16 
L 546.161805 128.16 
L 539.505731 84.48288 
L 539.505731 128.16 
L 535.191476 128.16 
L 535.191476 17.28 
z
" clip-path="url(#pa2affae8c8)" style="fill: #bd2e1f"/>
   </g>
   <g id="patch_22">
    <path d="M 552.424336 17.28 
L 568.454794 17.28 
L 568.454794 38.904689 
L 558.365384 38.904689 
L 558.365384 59.531316 
L 567.857233 59.531316 
L 567.857233 81.156005 
L 558.365384 81.156005 
L 558.365384 106.559074 
L 568.795553 106.559074 
L 568.795553 128.16 
L 552.424336 128.16 
L 552.424336 17.28 
z
" clip-path="url(#pa2affae8c8)" style="fill: #6b296b"/>
   </g>
   <g id="patch_23">
    <path d="M 569.657196 17.28 
L 573.971451 17.28 
L 573.971451 57.749061 
L 580.190003 17.28 
L 585.19999 17.28 
L 577.141693 69.797102 
L 586.028413 128.16 
L 580.627525 128.16 
L 573.971451 84.48288 
L 573.971451 128.16 
L 569.657196 128.16 
L 569.657196 17.28 
z
" clip-path="url(#pa2affae8c8)" style="fill: #bd2e1f"/>
   </g>
   <g id="patch_24">
    <path d="M 586.890056 17.28 
L 592.148736 17.28 
L 598.793547 93.322863 
L 598.793547 17.28 
L 603.261272 17.28 
L 603.261272 128.16 
L 597.998676 128.16 
L 591.353865 52.117137 
L 591.353865 128.16 
L 586.890056 128.16 
L 586.890056 17.28 
z
" clip-path="url(#pa2affae8c8)" style="fill: #40ba47"/>
   </g>
   <g id="patch_25">
    <path d="M 604.122915 17.28 
L 608.649075 17.28 
L 612.305084 56.798526 
L 615.957654 17.28 
L 620.494132 17.28 
L 614.379001 81.441166 
L 614.379001 128.16 
L 610.241486 128.16 
L 610.241486 81.441166 
L 604.122915 17.28 
z
" clip-path="url(#pa2affae8c8)" style="fill: #177875"/>
   </g>
   <g id="patch_26">
    <path d="M 625.842011 38.904689 
L 625.842011 106.559074 
L 627.449299 106.559074 
Q 630.197724 106.559074 631.648385 97.861672 
Q 633.102776 89.164269 633.102776 72.601183 
Q 633.102776 56.13315 631.655844 47.530802 
Q 630.212641 38.904689 627.449299 38.904689 
L 625.842011 38.904689 
z
M 621.355775 17.28 
L 626.084409 17.28 
Q 630.048556 17.28 631.987743 20.892036 
Q 633.92693 24.480309 635.314195 33.106421 
Q 636.537375 40.615654 637.130319 50.429936 
Q 637.726992 60.220454 637.726992 72.601183 
Q 637.726992 85.172019 637.130319 95.010064 
Q 636.537375 104.84811 635.314195 112.333579 
Q 633.915743 120.959691 631.957909 124.571727 
Q 630.000076 128.16 626.084409 128.16 
L 621.355775 128.16 
L 621.355775 17.28 
z
" clip-path="url(#pa2affae8c8)" style="fill: #6b296b"/>
   </g>
   <g id="patch_27">
    <path d="M 645.231182 66.446464 
Q 646.700394 66.446464 647.33783 63.119589 
Q 647.975266 59.76895 647.975266 52.117137 
Q 647.975266 44.536614 647.33783 41.281029 
Q 646.700394 38.00168 645.231182 38.00168 
L 643.26446 38.00168 
L 643.26446 66.446464 
L 645.231182 66.446464 
z
M 643.26446 86.193845 
L 643.26446 128.16 
L 638.588635 128.16 
L 638.588635 17.28 
L 645.728693 17.28 
Q 649.312326 17.28 650.979765 24.646652 
Q 652.65109 31.989541 652.65109 47.887252 
Q 652.65109 58.865941 651.780446 65.923669 
Q 650.913689 72.981397 649.164628 76.332036 
Q 650.124668 77.662786 650.882595 82.391702 
Q 651.644408 87.096854 652.421769 96.673502 
L 654.959852 128.16 
L 649.980856 128.16 
L 647.769265 100.618225 
Q 647.100735 92.301037 646.412771 89.259323 
Q 645.728693 86.193845 644.585973 86.193845 
L 643.26446 86.193845 
z
" clip-path="url(#pa2affae8c8)" style="fill: #bd2e1f"/>
   </g>
   <g id="patch_28">
    <path d="M 655.991874 17.28 
L 672.022332 17.28 
L 672.022332 38.904689 
L 661.932922 38.904689 
L 661.932922 59.531316 
L 671.424771 59.531316 
L 671.424771 81.156005 
L 661.932922 81.156005 
L 661.932922 128.16 
L 655.991874 128.16 
L 655.991874 17.28 
z
" clip-path="url(#pa2affae8c8)" style="fill: #21599c"/>
   </g>
   <g id="patch_29">
    <path d="M 684.394711 107.961114 
L 678.098604 107.961114 
L 677.104482 128.16 
L 673.054355 128.16 
L 678.838338 17.28 
L 683.641588 17.28 
L 689.425571 128.16 
L 685.378791 128.16 
L 684.394711 107.961114 
z
M 679.102768 87.382015 
L 683.380505 87.382015 
L 681.244984 43.277154 
L 679.102768 87.382015 
z
" clip-path="url(#pa2affae8c8)" style="fill: #21599c"/>
   </g>
   <g id="patch_30">
    <path d="M 690.287214 17.28 
L 696.228262 17.28 
L 696.228262 106.559074 
L 706.658431 106.559074 
L 706.658431 128.16 
L 690.287214 128.16 
L 690.287214 17.28 
z
" clip-path="url(#pa2affae8c8)" style="fill: #21599c"/>
   </g>
   <g id="patch_31">
    <path d="M 707.520074 17.28 
L 711.834329 17.28 
L 711.834329 57.749061 
L 718.052881 17.28 
L 723.062868 17.28 
L 715.004571 69.797102 
L 723.891291 128.16 
L 718.490403 128.16 
L 711.834329 84.48288 
L 711.834329 128.16 
L 707.520074 128.16 
L 707.520074 17.28 
z
" clip-path="url(#pa2affae8c8)" style="fill: #bd2e1f"/>
   </g>
   <g id="patch_32">
    <path d="M 724.752934 17.28 
L 729.279094 17.28 
L 732.935103 56.798526 
L 736.587673 17.28 
L 741.124151 17.28 
L 735.00902 81.441166 
L 735.00902 128.16 
L 730.871504 128.16 
L 730.871504 81.441166 
L 724.752934 17.28 
z
" clip-path="url(#pa2affae8c8)" style="fill: #177875"/>
   </g>
   <g id="patch_33">
    <path d="M 741.985794 17.28 
L 750.495416 17.28 
Q 754.29405 17.28 756.323398 26.690304 
Q 758.357011 36.076845 758.357011 53.447887 
Q 758.357011 70.913982 756.323398 80.300523 
Q 754.29405 89.687064 750.495416 89.687064 
L 747.114589 89.687064 
L 747.114589 128.16 
L 741.985794 128.16 
L 741.985794 17.28 
z
M 747.114589 38.00168 
L 747.114589 68.965384 
L 749.949709 68.965384 
Q 751.441877 68.965384 752.256174 64.925607 
Q 753.070472 60.885829 753.070472 53.447887 
Q 753.070472 46.033708 752.256174 42.017694 
Q 751.441877 38.00168 749.949709 38.00168 
L 747.114589 38.00168 
z
" clip-path="url(#pa2affae8c8)" style="fill: #787800"/>
   </g>
   <g id="patch_34">
    <path d="M 759.218653 17.28 
L 765.159701 17.28 
L 765.159701 106.559074 
L 775.58987 106.559074 
L 775.58987 128.16 
L 759.218653 128.16 
L 759.218653 17.28 
z
" clip-path="url(#pa2affae8c8)" style="fill: #21599c"/>
   </g>
   <g id="patch_35">
    <path d="M 792.82273 118.127891 
Q 791.171666 123.143945 789.395855 125.663425 
Q 787.620044 128.16 785.726824 128.16 
Q 781.448734 128.16 778.950123 113.226358 
Q 776.451513 98.292716 776.451513 72.754357 
Q 776.451513 46.91824 778.994152 32.09912 
Q 781.540459 17.28 785.96898 17.28 
Q 787.675079 17.28 789.238087 19.295584 
Q 790.804763 21.288263 792.191657 25.227812 
L 792.191657 47.330518 
Q 790.760735 42.268655 789.344489 39.77208 
Q 787.928243 37.252601 786.504659 37.252601 
Q 783.870294 37.252601 782.443041 46.460153 
Q 781.015788 55.644801 781.015788 72.754357 
Q 781.015788 89.703582 782.391675 98.956943 
Q 783.767561 108.187399 786.299193 108.187399 
Q 786.988971 108.187399 787.579685 107.660599 
Q 788.170399 107.110894 788.640035 105.965677 
L 788.640035 85.214328 
L 785.943297 85.214328 
L 785.943297 66.73051 
L 792.82273 66.73051 
L 792.82273 118.127891 
z
" clip-path="url(#pa2affae8c8)" style="fill: #787800"/>
   </g>
   <g id="patch_36">
    <path d="M 798.170609 38.904689 
L 798.170609 106.559074 
L 799.777897 106.559074 
Q 802.526322 106.559074 803.976983 97.861672 
Q 805.431374 89.164269 805.431374 72.601183 
Q 805.431374 56.13315 803.984442 47.530802 
Q 802.541239 38.904689 799.777897 38.904689 
L 798.170609 38.904689 
z
M 793.684373 17.28 
L 798.413007 17.28 
Q 802.377154 17.28 804.316341 20.892036 
Q 806.255528 24.480309 807.642793 33.106421 
Q 808.865973 40.615654 809.458917 50.429936 
Q 810.05559 60.220454 810.05559 72.601183 
Q 810.05559 85.172019 809.458917 95.010064 
Q 808.865973 104.84811 807.642793 112.333579 
Q 806.244341 120.959691 804.286507 124.571727 
Q 802.328674 128.16 798.413007 128.16 
L 793.684373 128.16 
L 793.684373 17.28 
z
" clip-path="url(#pa2affae8c8)" style="fill: #6b296b"/>
   </g>
   <g id="patch_37">
    <path d="M 810.917233 17.28 
L 826.947691 17.28 
L 826.947691 38.904689 
L 816.858281 38.904689 
L 816.858281 59.531316 
L 826.35013 59.531316 
L 826.35013 81.156005 
L 816.858281 81.156005 
L 816.858281 106.559074 
L 827.28845 106.559074 
L 827.28845 128.16 
L 810.917233 128.16 
L 810.917233 17.28 
z
" clip-path="url(#pa2affae8c8)" style="fill: #6b296b"/>
   </g>
   <g id="patch_38">
    <path d="M 828.150093 17.28 
L 834.091141 17.28 
L 834.091141 106.559074 
L 844.521309 106.559074 
L 844.521309 128.16 
L 828.150093 128.16 
L 828.150093 17.28 
z
" clip-path="url(#pa2affae8c8)" style="fill: #21599c"/>
   </g>
   <g id="patch_39">
    <path d="M 845.382952 17.28 
L 850.641633 17.28 
L 857.286444 93.322863 
L 857.286444 17.28 
L 861.754169 17.28 
L 861.754169 128.16 
L 856.491573 128.16 
L 849.846762 52.117137 
L 849.846762 128.16 
L 845.382952 128.16 
L 845.382952 17.28 
z
" clip-path="url(#pa2affae8c8)" style="fill: #40ba47"/>
   </g>
   <g id="patch_40">
    <path d="M 862.615812 17.28 
L 866.930067 17.28 
L 866.930067 57.749061 
L 873.148619 17.28 
L 878.158606 17.28 
L 870.100309 69.797102 
L 878.987029 128.16 
L 873.586141 128.16 
L 866.930067 84.48288 
L 866.930067 128.16 
L 862.615812 128.16 
L 862.615812 17.28 
z
" clip-path="url(#pa2affae8c8)" style="fill: #bd2e1f"/>
   </g>
   <g id="patch_41">
    <path d="M 888.470846 111.578719 
L 888.150243 111.578719 
Q 884.217741 111.578719 882.031501 99.152512 
Q 879.848672 86.706798 879.848672 64.526897 
Q 879.848672 42.38601 882.02809 29.842759 
Q 884.207508 17.28 888.03428 17.28 
Q 891.90198 17.28 894.060935 29.725714 
Q 896.219889 42.151921 896.219889 64.526897 
Q 896.219889 79.879212 895.073904 90.978916 
Q 893.927918 102.078621 891.775786 107.677241 
L 894.981816 128.16 
L 891.069777 128.16 
L 888.470846 111.578719 
z
M 888.03428 34.290443 
Q 886.158412 34.290443 885.124979 42.210443 
Q 884.091546 50.130443 884.091546 64.526897 
Q 884.091546 79.157438 885.101104 86.940887 
Q 886.114073 94.704828 888.03428 94.704828 
Q 889.920381 94.704828 890.953814 86.784828 
Q 891.987247 78.84532 891.987247 64.526897 
Q 891.987247 50.130443 890.953814 42.210443 
Q 889.920381 34.290443 888.03428 34.290443 
z
" clip-path="url(#pa2affae8c8)" style="fill: #40ba47"/>
   </g>
   <g id="patch_42">
    <path d="M 897.081532 17.28 
L 913.452749 17.28 
L 913.452749 38.904689 
L 907.562918 38.904689 
L 907.562918 128.16 
L 902.982784 128.16 
L 902.982784 38.904689 
L 897.081532 38.904689 
L 897.081532 17.28 
z
" clip-path="url(#pa2affae8c8)" style="fill: #40ba47"/>
   </g>
   <g id="patch_43">
    <path d="M 914.314392 17.28 
L 930.34485 17.28 
L 930.34485 38.904689 
L 920.25544 38.904689 
L 920.25544 59.531316 
L 929.747288 59.531316 
L 929.747288 81.156005 
L 920.25544 81.156005 
L 920.25544 106.559074 
L 930.685608 106.559074 
L 930.685608 128.16 
L 914.314392 128.16 
L 914.314392 17.28 
z
" clip-path="url(#pa2affae8c8)" style="fill: #6b296b"/>
   </g>
   <g id="patch_44">
    <path d="M 931.547251 17.28 
L 935.861506 17.28 
L 935.861506 57.749061 
L 942.080058 17.28 
L 947.090045 17.28 
L 939.031749 69.797102 
L 947.918468 128.16 
L 942.51758 128.16 
L 935.861506 84.48288 
L 935.861506 128.16 
L 931.547251 128.16 
L 931.547251 17.28 
z
" clip-path="url(#pa2affae8c8)" style="fill: #bd2e1f"/>
   </g>
   <g id="patch_45">
    <path d="M 953.995196 17.28 
L 959.936244 17.28 
L 959.936244 128.16 
L 953.995196 128.16 
L 953.995196 17.28 
z
" clip-path="url(#pa2affae8c8)" style="fill: #21599c"/>
   </g>
   <g id="patch_46">
    <path d="M 971.228055 17.28 
L 977.169103 17.28 
L 977.169103 128.16 
L 971.228055 128.16 
L 971.228055 17.28 
z
" clip-path="url(#pa2affae8c8)" style="fill: #21599c"/>
   </g>
   <g id="patch_47">
    <path d="M 994.586187 107.961114 
L 988.29008 107.961114 
L 987.295958 128.16 
L 983.245831 128.16 
L 989.029814 17.28 
L 993.833064 17.28 
L 999.617048 128.16 
L 995.570268 128.16 
L 994.586187 107.961114 
z
M 989.294244 87.382015 
L 993.571982 87.382015 
L 991.43646 43.277154 
L 989.294244 87.382015 
z
" clip-path="url(#pa2affae8c8)" style="fill: #21599c"/>
   </g>
   <g id="patch_48">
    <path d="M 1000.478691 17.28 
L 1005.308042 17.28 
L 1008.65799 76.617197 
L 1012.030019 17.28 
L 1016.849907 17.28 
L 1016.849907 128.16 
L 1013.263381 128.16 
L 1013.263381 47.055534 
L 1009.872425 106.844235 
L 1007.465636 106.844235 
L 1004.07468 47.055534 
L 1004.07468 128.16 
L 1000.478691 128.16 
L 1000.478691 17.28 
z
" clip-path="url(#pa2affae8c8)" style="fill: #21599c"/>
   </g>
   <g id="patch_49">
    <path d="M 1022.197786 38.904689 
L 1022.197786 106.559074 
L 1023.805074 106.559074 
Q 1026.553499 106.559074 1028.00416 97.861672 
Q 1029.458551 89.164269 1029.458551 72.601183 
Q 1029.458551 56.13315 1028.011619 47.530802 
Q 1026.568416 38.904689 1023.805074 38.904689 
L 1022.197786 38.904689 
z
M 1017.71155 17.28 
L 1022.440184 17.28 
Q 1026.404331 17.28 1028.343518 20.892036 
Q 1030.282706 24.480309 1031.66997 33.106421 
Q 1032.89315 40.615654 1033.486094 50.429936 
Q 1034.082767 60.220454 1034.082767 72.601183 
Q 1034.082767 85.172019 1033.486094 95.010064 
Q 1032.89315 104.84811 1031.66997 112.333579 
Q 1030.271518 120.959691 1028.313685 124.571727 
Q 1026.355851 128.16 1022.440184 128.16 
L 1017.71155 128.16 
L 1017.71155 17.28 
z
" clip-path="url(#pa2affae8c8)" style="fill: #6b296b"/>
   </g>
   <g id="patch_50">
    <path d="M 1034.94441 17.28 
L 1039.258665 17.28 
L 1039.258665 57.749061 
L 1045.477217 17.28 
L 1050.487204 17.28 
L 1042.428907 69.797102 
L 1051.315627 128.16 
L 1045.914739 128.16 
L 1039.258665 84.48288 
L 1039.258665 128.16 
L 1034.94441 128.16 
L 1034.94441 17.28 
z
" clip-path="url(#pa2affae8c8)" style="fill: #bd2e1f"/>
   </g>
   <g id="patch_51">
    <path d="M 1052.17727 17.28 
L 1055.008106 17.28 
L 1056.98699 97.861672 
L 1058.951143 17.28 
L 1061.79671 17.28 
L 1063.760863 97.861672 
L 1065.742203 17.28 
L 1068.548487 17.28 
L 1065.847776 128.16 
L 1062.442426 128.16 
L 1060.362878 43.871239 
L 1058.307883 128.16 
L 1054.900077 128.16 
L 1052.17727 17.28 
z
" clip-path="url(#pa2affae8c8)" style="fill: #21599c"/>
   </g>
   <g id="patch_52">
    <path d="M 1085.781347 120.212188 
Q 1084.411922 124.151737 1082.93113 126.144416 
Q 1081.450337 128.16 1079.837551 128.16 
Q 1075.028068 128.16 1072.219099 113.226358 
Q 1069.41013 98.292716 1069.41013 72.754357 
Q 1069.41013 47.124379 1072.219099 32.213642 
Q 1075.028068 17.28 1079.837551 17.28 
Q 1081.450337 17.28 1082.93113 19.295584 
Q 1084.411922 21.288263 1085.781347 25.227812 
L 1085.781347 47.330518 
Q 1084.399548 42.108325 1083.058998 39.680463 
Q 1081.718447 37.252601 1080.237654 37.252601 
Q 1077.581301 37.252601 1076.059261 46.712101 
Q 1074.541345 56.148697 1074.541345 72.754357 
Q 1074.541345 89.291303 1076.059261 98.750804 
Q 1077.581301 108.187399 1080.237654 108.187399 
Q 1081.718447 108.187399 1083.058998 105.759537 
Q 1084.399548 103.308771 1085.781347 98.086577 
L 1085.781347 120.212188 
z
" clip-path="url(#pa2affae8c8)" style="fill: #6b296b"/>
   </g>
   <g id="patch_53">
    <path d="M 1091.129225 38.904689 
L 1091.129225 106.559074 
L 1092.736513 106.559074 
Q 1095.484938 106.559074 1096.9356 97.861672 
Q 1098.38999 89.164269 1098.38999 72.601183 
Q 1098.38999 56.13315 1096.943058 47.530802 
Q 1095.499855 38.904689 1092.736513 38.904689 
L 1091.129225 38.904689 
z
M 1086.642989 17.28 
L 1091.371623 17.28 
Q 1095.33577 17.28 1097.274957 20.892036 
Q 1099.214145 24.480309 1100.60141 33.106421 
Q 1101.824589 40.615654 1102.417533 50.429936 
Q 1103.014206 60.220454 1103.014206 72.601183 
Q 1103.014206 85.172019 1102.417533 95.010064 
Q 1101.824589 104.84811 1100.60141 112.333579 
Q 1099.202957 120.959691 1097.245124 124.571727 
Q 1095.28729 128.16 1091.371623 128.16 
L 1086.642989 128.16 
L 1086.642989 17.28 
z
" clip-path="url(#pa2affae8c8)" style="fill: #6b296b"/>
   </g>
   <g id="patch_54">
    <path d="M 1103.875849 17.28 
L 1109.816897 17.28 
L 1109.816897 106.559074 
L 1120.247066 106.559074 
L 1120.247066 128.16 
L 1103.875849 128.16 
L 1103.875849 17.28 
z
" clip-path="url(#pa2affae8c8)" style="fill: #21599c"/>
   </g>
   <g id="patch_55">
    <path d="M 1121.108709 17.28 
L 1125.93806 17.28 
L 1129.288009 76.617197 
L 1132.660038 17.28 
L 1137.479926 17.28 
L 1137.479926 128.16 
L 1133.893399 128.16 
L 1133.893399 47.055534 
L 1130.502444 106.844235 
L 1128.095654 106.844235 
L 1124.704699 47.055534 
L 1124.704699 128.16 
L 1121.108709 128.16 
L 1121.108709 17.28 
z
" clip-path="url(#pa2affae8c8)" style="fill: #21599c"/>
   </g>
   <g id="patch_56">
    <path d="M 1144.984116 66.446464 
Q 1146.453328 66.446464 1147.090764 63.119589 
Q 1147.7282 59.76895 1147.7282 52.117137 
Q 1147.7282 44.536614 1147.090764 41.281029 
Q 1146.453328 38.00168 1144.984116 38.00168 
L 1143.017394 38.00168 
L 1143.017394 66.446464 
L 1144.984116 66.446464 
z
M 1143.017394 86.193845 
L 1143.017394 128.16 
L 1138.341569 128.16 
L 1138.341569 17.28 
L 1145.481627 17.28 
Q 1149.06526 17.28 1150.732699 24.646652 
Q 1152.404024 31.989541 1152.404024 47.887252 
Q 1152.404024 58.865941 1151.53338 65.923669 
Q 1150.666623 72.981397 1148.917561 76.332036 
Q 1149.877602 77.662786 1150.635529 82.391702 
Q 1151.397342 87.096854 1152.174703 96.673502 
L 1154.712786 128.16 
L 1149.73379 128.16 
L 1147.522199 100.618225 
Q 1146.853669 92.301037 1146.165705 89.259323 
Q 1145.481627 86.193845 1144.338907 86.193845 
L 1143.017394 86.193845 
z
" clip-path="url(#pa2affae8c8)" style="fill: #bd2e1f"/>
   </g>
   <g id="patch_57">
    <path d="M 1160.789513 17.28 
L 1166.730561 17.28 
L 1166.730561 128.16 
L 1160.789513 128.16 
L 1160.789513 17.28 
z
" clip-path="url(#pa2affae8c8)" style="fill: #21599c"/>
   </g>
   <g id="patch_58">
    <path d="M 1179.449836 66.446464 
Q 1180.919048 66.446464 1181.556483 63.119589 
Q 1182.193919 59.76895 1182.193919 52.117137 
Q 1182.193919 44.536614 1181.556483 41.281029 
Q 1180.919048 38.00168 1179.449836 38.00168 
L 1177.483113 38.00168 
L 1177.483113 66.446464 
L 1179.449836 66.446464 
z
M 1177.483113 86.193845 
L 1177.483113 128.16 
L 1172.807288 128.16 
L 1172.807288 17.28 
L 1179.947347 17.28 
Q 1183.53098 17.28 1185.198418 24.646652 
Q 1186.869744 31.989541 1186.869744 47.887252 
Q 1186.869744 58.865941 1185.9991 65.923669 
Q 1185.132343 72.981397 1183.383281 76.332036 
Q 1184.343322 77.662786 1185.101248 82.391702 
Q 1185.863062 87.096854 1186.640422 96.673502 
L 1189.178505 128.16 
L 1184.19951 128.16 
L 1181.987919 100.618225 
Q 1181.319388 92.301037 1180.631424 89.259323 
Q 1179.947347 86.193845 1178.804626 86.193845 
L 1177.483113 86.193845 
z
" clip-path="url(#pa2affae8c8)" style="fill: #bd2e1f"/>
   </g>
   <g id="patch_59">
    <path d="M 1201.380505 107.961114 
L 1195.084398 107.961114 
L 1194.090275 128.16 
L 1190.040148 128.16 
L 1195.824132 17.28 
L 1200.627382 17.28 
L 1206.411365 128.16 
L 1202.364585 128.16 
L 1201.380505 107.961114 
z
M 1196.088561 87.382015 
L 1200.366299 87.382015 
L 1198.230777 43.277154 
L 1196.088561 87.382015 
z
" clip-path="url(#pa2affae8c8)" style="fill: #21599c"/>
   </g>
   <g id="patch_60">
    <path d="M 1207.273008 17.28 
L 1223.644225 17.28 
L 1223.644225 38.904689 
L 1217.754394 38.904689 
L 1217.754394 128.16 
L 1213.174261 128.16 
L 1213.174261 38.904689 
L 1207.273008 38.904689 
L 1207.273008 17.28 
z
" clip-path="url(#pa2affae8c8)" style="fill: #40ba47"/>
   </g>
   <g id="patch_61">
    <path d="M 1224.505868 17.28 
L 1233.01549 17.28 
Q 1236.814124 17.28 1238.843473 26.690304 
Q 1240.877085 36.076845 1240.877085 53.447887 
Q 1240.877085 70.913982 1238.843473 80.300523 
Q 1236.814124 89.687064 1233.01549 89.687064 
L 1229.634663 89.687064 
L 1229.634663 128.16 
L 1224.505868 128.16 
L 1224.505868 17.28 
z
M 1229.634663 38.00168 
L 1229.634663 68.965384 
L 1232.469783 68.965384 
Q 1233.961951 68.965384 1234.776248 64.925607 
Q 1235.590546 60.885829 1235.590546 53.447887 
Q 1235.590546 46.033708 1234.776248 42.017694 
Q 1233.961951 38.00168 1232.469783 38.00168 
L 1229.634663 38.00168 
z
" clip-path="url(#pa2affae8c8)" style="fill: #787800"/>
   </g>
   <g id="patch_62">
    <path d="M 1241.738728 17.28 
L 1258.109944 17.28 
L 1258.109944 38.904689 
L 1252.220114 38.904689 
L 1252.220114 128.16 
L 1247.63998 128.16 
L 1247.63998 38.904689 
L 1241.738728 38.904689 
L 1241.738728 17.28 
z
" clip-path="url(#pa2affae8c8)" style="fill: #40ba47"/>
   </g>
   <g id="patch_63">
    <path d="M 1259.141967 17.28 
L 1275.172425 17.28 
L 1275.172425 38.904689 
L 1265.083014 38.904689 
L 1265.083014 59.531316 
L 1274.574863 59.531316 
L 1274.574863 81.156005 
L 1265.083014 81.156005 
L 1265.083014 128.16 
L 1259.141967 128.16 
L 1259.141967 17.28 
z
" clip-path="url(#pa2affae8c8)" style="fill: #21599c"/>
   </g>
   <g id="patch_64">
    <path d="M 1276.204447 17.28 
L 1280.730607 17.28 
L 1284.386616 56.798526 
L 1288.039186 17.28 
L 1292.575664 17.28 
L 1286.460533 81.441166 
L 1286.460533 128.16 
L 1282.323018 128.16 
L 1282.323018 81.441166 
L 1276.204447 17.28 
z
" clip-path="url(#pa2affae8c8)" style="fill: #177875"/>
   </g>
   <g id="patch_65">
    <path d="M 1298.652391 17.28 
L 1304.593439 17.28 
L 1304.593439 128.16 
L 1298.652391 128.16 
L 1298.652391 17.28 
z
" clip-path="url(#pa2affae8c8)" style="fill: #21599c"/>
   </g>
   <g id="patch_66">
    <path d="M 1310.670167 17.28 
L 1315.928848 17.28 
L 1322.573659 93.322863 
L 1322.573659 17.28 
L 1327.041384 17.28 
L 1327.041384 128.16 
L 1321.778787 128.16 
L 1315.133976 52.117137 
L 1315.133976 128.16 
L 1310.670167 128.16 
L 1310.670167 17.28 
z
" clip-path="url(#pa2affae8c8)" style="fill: #40ba47"/>
   </g>
   <g id="patch_67">
    <path d="M 1344.274243 118.127891 
Q 1342.623179 123.143945 1340.847368 125.663425 
Q 1339.071557 128.16 1337.178337 128.16 
Q 1332.900247 128.16 1330.401637 113.226358 
Q 1327.903027 98.292716 1327.903027 72.754357 
Q 1327.903027 46.91824 1330.445665 32.09912 
Q 1332.991973 17.28 1337.420493 17.28 
Q 1339.126593 17.28 1340.6896 19.295584 
Q 1342.256276 21.288263 1343.64317 25.227812 
L 1343.64317 47.330518 
Q 1342.212248 42.268655 1340.796002 39.77208 
Q 1339.379756 37.252601 1337.956172 37.252601 
Q 1335.321807 37.252601 1333.894554 46.460153 
Q 1332.467301 55.644801 1332.467301 72.754357 
Q 1332.467301 89.703582 1333.843188 98.956943 
Q 1335.219075 108.187399 1337.750706 108.187399 
Q 1338.440484 108.187399 1339.031198 107.660599 
Q 1339.621912 107.110894 1340.091548 105.965677 
L 1340.091548 85.214328 
L 1337.39481 85.214328 
L 1337.39481 66.73051 
L 1344.274243 66.73051 
L 1344.274243 118.127891 
z
" clip-path="url(#pa2affae8c8)" style="fill: #787800"/>
   </g>
   <g id="patch_68">
    <path d="M 1345.306266 17.28 
L 1361.336724 17.28 
L 1361.336724 38.904689 
L 1351.247313 38.904689 
L 1351.247313 59.531316 
L 1360.739162 59.531316 
L 1360.739162 81.156005 
L 1351.247313 81.156005 
L 1351.247313 128.16 
L 1345.306266 128.16 
L 1345.306266 17.28 
z
" clip-path="url(#pa2affae8c8)" style="fill: #21599c"/>
   </g>
   <g id="patch_69">
    <path d="M 1362.368746 17.28 
L 1378.399205 17.28 
L 1378.399205 38.904689 
L 1368.309794 38.904689 
L 1368.309794 59.531316 
L 1377.801643 59.531316 
L 1377.801643 81.156005 
L 1368.309794 81.156005 
L 1368.309794 106.559074 
L 1378.739963 106.559074 
L 1378.739963 128.16 
L 1362.368746 128.16 
L 1362.368746 17.28 
z
" clip-path="url(#pa2affae8c8)" style="fill: #6b296b"/>
   </g>
   <g id="patch_70">
    <path d="M 1379.601606 17.28 
L 1385.542654 17.28 
L 1385.542654 106.559074 
L 1395.972823 106.559074 
L 1395.972823 128.16 
L 1379.601606 128.16 
L 1379.601606 17.28 
z
" clip-path="url(#pa2affae8c8)" style="fill: #21599c"/>
   </g>
   <g id="patch_71">
    <path d="M 1396.834466 17.28 
L 1405.344088 17.28 
Q 1409.142722 17.28 1411.17207 26.690304 
Q 1413.205683 36.076845 1413.205683 53.447887 
Q 1413.205683 70.913982 1411.17207 80.300523 
Q 1409.142722 89.687064 1405.344088 89.687064 
L 1401.963261 89.687064 
L 1401.963261 128.16 
L 1396.834466 128.16 
L 1396.834466 17.28 
z
M 1401.963261 38.00168 
L 1401.963261 68.965384 
L 1404.798381 68.965384 
Q 1406.290549 68.965384 1407.104846 64.925607 
Q 1407.919144 60.885829 1407.919144 53.447887 
Q 1407.919144 46.033708 1407.104846 42.017694 
Q 1406.290549 38.00168 1404.798381 38.00168 
L 1401.963261 38.00168 
z
" clip-path="url(#pa2affae8c8)" style="fill: #787800"/>
   </g>
   <g id="patch_72">
    <path d="M 1418.553561 38.904689 
L 1418.553561 106.559074 
L 1420.160849 106.559074 
Q 1422.909274 106.559074 1424.359936 97.861672 
Q 1425.814326 89.164269 1425.814326 72.601183 
Q 1425.814326 56.13315 1424.367394 47.530802 
Q 1422.924191 38.904689 1420.160849 38.904689 
L 1418.553561 38.904689 
z
M 1414.067326 17.28 
L 1418.795959 17.28 
Q 1422.760106 17.28 1424.699293 20.892036 
Q 1426.638481 24.480309 1428.025746 33.106421 
Q 1429.248925 40.615654 1429.841869 50.429936 
Q 1430.438542 60.220454 1430.438542 72.601183 
Q 1430.438542 85.172019 1429.841869 95.010064 
Q 1429.248925 104.84811 1428.025746 112.333579 
Q 1426.627293 120.959691 1424.66946 124.571727 
Q 1422.711626 128.16 1418.795959 128.16 
L 1414.067326 128.16 
L 1414.067326 17.28 
z
" clip-path="url(#pa2affae8c8)" style="fill: #6b296b"/>
   </g>
   <g id="patch_73">
    <path d="M 1446.306393 22.570907 
L 1446.306393 45.200413 
Q 1444.59902 41.260863 1442.97168 39.268184 
Q 1441.348787 37.252601 1439.903744 37.252601 
Q 1437.987396 37.252601 1437.067015 39.978219 
Q 1436.151081 42.680934 1436.151081 48.407023 
Q 1436.151081 52.713043 1436.769114 55.118 
Q 1437.387148 57.500054 1439.014488 59.217881 
L 1441.290985 61.57703 
Q 1444.750194 65.173014 1446.208575 72.479504 
Q 1447.671402 79.76309 1447.671402 93.230853 
Q 1447.671402 110.890114 1445.635004 119.525057 
Q 1443.598606 128.16 1439.414653 128.16 
Q 1437.444949 128.16 1435.457461 126.21313 
Q 1433.469972 124.289163 1431.482483 120.48704 
L 1431.482483 97.239116 
Q 1433.469972 102.667449 1435.324072 105.438876 
Q 1437.178172 108.187399 1438.903331 108.187399 
Q 1440.655166 108.187399 1441.58444 105.186928 
Q 1442.513713 102.163553 1442.513713 96.574889 
Q 1442.513713 91.581739 1441.882341 88.856121 
Q 1441.250968 86.130502 1439.361298 83.977492 
L 1437.28933 81.618343 
Q 1434.176931 78.18269 1432.736335 70.67006 
Q 1431.300185 63.15743 1431.300185 50.422607 
Q 1431.300185 34.458269 1433.301013 25.869134 
Q 1435.301841 17.28 1439.054504 17.28 
Q 1440.766323 17.28 1442.571515 18.608453 
Q 1444.376706 19.936906 1446.306393 22.570907 
z
" clip-path="url(#pa2affae8c8)" style="fill: #40ba47"/>
   </g>
   <g id="patch_74">
    <path d="M 1448.533045 17.28 
L 1453.059205 17.28 
L 1456.715214 56.798526 
L 1460.367784 17.28 
L 1464.904262 17.28 
L 1458.789131 81.441166 
L 1458.789131 128.16 
L 1454.651615 128.16 
L 1454.651615 81.441166 
L 1448.533045 17.28 
z
" clip-path="url(#pa2affae8c8)" style="fill: #177875"/>
   </g>
   <g id="patch_75">
    <path d="M 1465.765905 17.28 
L 1471.024586 17.28 
L 1477.669397 93.322863 
L 1477.669397 17.28 
L 1482.137122 17.28 
L 1482.137122 128.16 
L 1476.874525 128.16 
L 1470.229714 52.117137 
L 1470.229714 128.16 
L 1465.765905 128.16 
L 1465.765905 17.28 
z
" clip-path="url(#pa2affae8c8)" style="fill: #40ba47"/>
   </g>
   <g id="patch_76">
    <path d="M 1482.998765 17.28 
L 1487.048892 17.28 
L 1491.189394 99.121132 
L 1495.323201 17.28 
L 1499.369981 17.28 
L 1493.585998 128.16 
L 1488.782748 128.16 
L 1482.998765 17.28 
z
" clip-path="url(#pa2affae8c8)" style="fill: #21599c"/>
   </g>
   <g id="patch_77">
    <path d="M 1515.237832 22.570907 
L 1515.237832 45.200413 
Q 1513.530459 41.260863 1511.903119 39.268184 
Q 1510.280226 37.252601 1508.835184 37.252601 
Q 1506.918835 37.252601 1505.998454 39.978219 
Q 1505.08252 42.680934 1505.08252 48.407023 
Q 1505.08252 52.713043 1505.700553 55.118 
Q 1506.318587 57.500054 1507.945927 59.217881 
L 1510.222424 61.57703 
Q 1513.681633 65.173014 1515.140014 72.479504 
Q 1516.602841 79.76309 1516.602841 93.230853 
Q 1516.602841 110.890114 1514.566443 119.525057 
Q 1512.530045 128.16 1508.346092 128.16 
Q 1506.376389 128.16 1504.3889 126.21313 
Q 1502.401411 124.289163 1500.413922 120.48704 
L 1500.413922 97.239116 
Q 1502.401411 102.667449 1504.255511 105.438876 
Q 1506.109612 108.187399 1507.83477 108.187399 
Q 1509.586605 108.187399 1510.515879 105.186928 
Q 1511.445152 102.163553 1511.445152 96.574889 
Q 1511.445152 91.581739 1510.81378 88.856121 
Q 1510.182408 86.130502 1508.292737 83.977492 
L 1506.220769 81.618343 
Q 1503.10837 78.18269 1501.667774 70.67006 
Q 1500.231624 63.15743 1500.231624 50.422607 
Q 1500.231624 34.458269 1502.232452 25.869134 
Q 1504.23328 17.28 1507.985943 17.28 
Q 1509.697763 17.28 1511.502954 18.608453 
Q 1513.308145 19.936906 1515.237832 22.570907 
z
" clip-path="url(#pa2affae8c8)" style="fill: #40ba47"/>
   </g>
   <g id="patch_78">
    <path d="M 1517.464484 17.28 
L 1533.494943 17.28 
L 1533.494943 38.904689 
L 1523.405532 38.904689 
L 1523.405532 59.531316 
L 1532.897381 59.531316 
L 1532.897381 81.156005 
L 1523.405532 81.156005 
L 1523.405532 106.559074 
L 1533.835701 106.559074 
L 1533.835701 128.16 
L 1517.464484 128.16 
L 1517.464484 17.28 
z
" clip-path="url(#pa2affae8c8)" style="fill: #6b296b"/>
   </g>
   <g id="patch_79">
    <path d="M 1534.697344 17.28 
L 1540.638392 17.28 
L 1540.638392 106.559074 
L 1551.068561 106.559074 
L 1551.068561 128.16 
L 1534.697344 128.16 
L 1534.697344 17.28 
z
" clip-path="url(#pa2affae8c8)" style="fill: #21599c"/>
   </g>
   <g id="patch_80">
    <path d="M 1551.930204 17.28 
L 1556.244459 17.28 
L 1556.244459 57.749061 
L 1562.463011 17.28 
L 1567.472998 17.28 
L 1559.414701 69.797102 
L 1568.301421 128.16 
L 1562.900533 128.16 
L 1556.244459 84.48288 
L 1556.244459 128.16 
L 1551.930204 128.16 
L 1551.930204 17.28 
z
" clip-path="url(#pa2affae8c8)" style="fill: #bd2e1f"/>
   </g>
   <g id="patch_81">
    <path d="M 1569.163064 17.28 
L 1573.689224 17.28 
L 1577.345233 56.798526 
L 1580.997802 17.28 
L 1585.53428 17.28 
L 1579.419149 81.441166 
L 1579.419149 128.16 
L 1575.281634 128.16 
L 1575.281634 81.441166 
L 1569.163064 17.28 
z
" clip-path="url(#pa2affae8c8)" style="fill: #177875"/>
   </g>
   <g id="patch_82">
    <path d="M 1586.395923 17.28 
L 1590.446051 17.28 
L 1594.586553 99.121132 
L 1598.72036 17.28 
L 1602.76714 17.28 
L 1596.983157 128.16 
L 1592.179907 128.16 
L 1586.395923 17.28 
z
" clip-path="url(#pa2affae8c8)" style="fill: #21599c"/>
   </g>
   <g id="patch_83">
    <path d="M 1603.628783 17.28 
L 1609.569831 17.28 
L 1609.569831 106.559074 
L 1620 106.559074 
L 1620 128.16 
L 1603.628783 128.16 
L 1603.628783 17.28 
z
" clip-path="url(#pa2affae8c8)" style="fill: #21599c"/>
   </g>
   <g id="matplotlib.axis_1">
    <g id="xtick_1">
     <g id="line2d_2">
      <defs>
       <path id="m0a30c9d85c" d="M 0 0 
L 0 3.5 
" style="stroke: #000000; stroke-width: 0.8"/>
      </defs>
      <g>
       <use xlink:href="#m0a30c9d85c" x="233.185608" y="128.16" style="stroke: #000000; stroke-width: 0.8"/>
      </g>
     </g>
     <g id="text_1">
      <!-- 0 -->
      <g transform="translate(230.004358 142.758438) scale(0.1 -0.1)">
       <defs>
        <path id="DejaVuSans-30" d="M 2034 4250 
Q 1547 4250 1301 3770 
Q 1056 3291 1056 2328 
Q 1056 1369 1301 889 
Q 1547 409 2034 409 
Q 2525 409 2770 889 
Q 3016 1369 3016 2328 
Q 3016 3291 2770 3770 
Q 2525 4250 2034 4250 
z
M 2034 4750 
Q 2819 4750 3233 4129 
Q 3647 3509 3647 2328 
Q 3647 1150 3233 529 
Q 2819 -91 2034 -91 
Q 1250 -91 836 529 
Q 422 1150 422 2328 
Q 422 3509 836 4129 
Q 1250 4750 2034 4750 
z
" transform="scale(0.015625)"/>
       </defs>
       <use xlink:href="#DejaVuSans-30"/>
      </g>
     </g>
    </g>
    <g id="xtick_2">
     <g id="line2d_3">
      <g>
       <use xlink:href="#m0a30c9d85c" x="405.514206" y="128.16" style="stroke: #000000; stroke-width: 0.8"/>
      </g>
     </g>
     <g id="text_2">
      <!-- 10 -->
      <g transform="translate(399.151706 142.758438) scale(0.1 -0.1)">
       <defs>
        <path id="DejaVuSans-31" d="M 794 531 
L 1825 531 
L 1825 4091 
L 703 3866 
L 703 4441 
L 1819 4666 
L 2450 4666 
L 2450 531 
L 3481 531 
L 3481 0 
L 794 0 
L 794 531 
z
" transform="scale(0.015625)"/>
       </defs>
       <use xlink:href="#DejaVuSans-31"/>
       <use xlink:href="#DejaVuSans-30" x="63.623047"/>
      </g>
     </g>
    </g>
    <g id="xtick_3">
     <g id="line2d_4">
      <g>
       <use xlink:href="#m0a30c9d85c" x="577.842804" y="128.16" style="stroke: #000000; stroke-width: 0.8"/>
      </g>
     </g>
     <g id="text_3">
      <!-- 20 -->
      <g transform="translate(571.480304 142.758438) scale(0.1 -0.1)">
       <defs>
        <path id="DejaVuSans-32" d="M 1228 531 
L 3431 531 
L 3431 0 
L 469 0 
L 469 531 
Q 828 903 1448 1529 
Q 2069 2156 2228 2338 
Q 2531 2678 2651 2914 
Q 2772 3150 2772 3378 
Q 2772 3750 2511 3984 
Q 2250 4219 1831 4219 
Q 1534 4219 1204 4116 
Q 875 4013 500 3803 
L 500 4441 
Q 881 4594 1212 4672 
Q 1544 4750 1819 4750 
Q 2544 4750 2975 4387 
Q 3406 4025 3406 3419 
Q 3406 3131 3298 2873 
Q 3191 2616 2906 2266 
Q 2828 2175 2409 1742 
Q 1991 1309 1228 531 
z
" transform="scale(0.015625)"/>
       </defs>
       <use xlink:href="#DejaVuSans-32"/>
       <use xlink:href="#DejaVuSans-30" x="63.623047"/>
      </g>
     </g>
    </g>
    <g id="xtick_4">
     <g id="line2d_5">
      <g>
       <use xlink:href="#m0a30c9d85c" x="750.171402" y="128.16" style="stroke: #000000; stroke-width: 0.8"/>
      </g>
     </g>
     <g id="text_4">
      <!-- 30 -->
      <g transform="translate(743.808902 142.758438) scale(0.1 -0.1)">
       <defs>
        <path id="DejaVuSans-33" d="M 2597 2516 
Q 3050 2419 3304 2112 
Q 3559 1806 3559 1356 
Q 3559 666 3084 287 
Q 2609 -91 1734 -91 
Q 1441 -91 1130 -33 
Q 819 25 488 141 
L 488 750 
Q 750 597 1062 519 
Q 1375 441 1716 441 
Q 2309 441 2620 675 
Q 2931 909 2931 1356 
Q 2931 1769 2642 2001 
Q 2353 2234 1838 2234 
L 1294 2234 
L 1294 2753 
L 1863 2753 
Q 2328 2753 2575 2939 
Q 2822 3125 2822 3475 
Q 2822 3834 2567 4026 
Q 2313 4219 1838 4219 
Q 1578 4219 1281 4162 
Q 984 4106 628 3988 
L 628 4550 
Q 988 4650 1302 4700 
Q 1616 4750 1894 4750 
Q 2613 4750 3031 4423 
Q 3450 4097 3450 3541 
Q 3450 3153 3228 2886 
Q 3006 2619 2597 2516 
z
" transform="scale(0.015625)"/>
       </defs>
       <use xlink:href="#DejaVuSans-33"/>
       <use xlink:href="#DejaVuSans-30" x="63.623047"/>
      </g>
     </g>
    </g>
    <g id="xtick_5">
     <g id="line2d_6">
      <g>
       <use xlink:href="#m0a30c9d85c" x="922.5" y="128.16" style="stroke: #000000; stroke-width: 0.8"/>
      </g>
     </g>
     <g id="text_5">
      <!-- 40 -->
      <g transform="translate(916.1375 142.758438) scale(0.1 -0.1)">
       <defs>
        <path id="DejaVuSans-34" d="M 2419 4116 
L 825 1625 
L 2419 1625 
L 2419 4116 
z
M 2253 4666 
L 3047 4666 
L 3047 1625 
L 3713 1625 
L 3713 1100 
L 3047 1100 
L 3047 0 
L 2419 0 
L 2419 1100 
L 313 1100 
L 313 1709 
L 2253 4666 
z
" transform="scale(0.015625)"/>
       </defs>
       <use xlink:href="#DejaVuSans-34"/>
       <use xlink:href="#DejaVuSans-30" x="63.623047"/>
      </g>
     </g>
    </g>
    <g id="xtick_6">
     <g id="line2d_7">
      <g>
       <use xlink:href="#m0a30c9d85c" x="1094.828598" y="128.16" style="stroke: #000000; stroke-width: 0.8"/>
      </g>
     </g>
     <g id="text_6">
      <!-- 50 -->
      <g transform="translate(1088.466098 142.758438) scale(0.1 -0.1)">
       <defs>
        <path id="DejaVuSans-35" d="M 691 4666 
L 3169 4666 
L 3169 4134 
L 1269 4134 
L 1269 2991 
Q 1406 3038 1543 3061 
Q 1681 3084 1819 3084 
Q 2600 3084 3056 2656 
Q 3513 2228 3513 1497 
Q 3513 744 3044 326 
Q 2575 -91 1722 -91 
Q 1428 -91 1123 -41 
Q 819 9 494 109 
L 494 744 
Q 775 591 1075 516 
Q 1375 441 1709 441 
Q 2250 441 2565 725 
Q 2881 1009 2881 1497 
Q 2881 1984 2565 2268 
Q 2250 2553 1709 2553 
Q 1456 2553 1204 2497 
Q 953 2441 691 2322 
L 691 4666 
z
" transform="scale(0.015625)"/>
       </defs>
       <use xlink:href="#DejaVuSans-35"/>
       <use xlink:href="#DejaVuSans-30" x="63.623047"/>
      </g>
     </g>
    </g>
    <g id="xtick_7">
     <g id="line2d_8">
      <g>
       <use xlink:href="#m0a30c9d85c" x="1267.157196" y="128.16" style="stroke: #000000; stroke-width: 0.8"/>
      </g>
     </g>
     <g id="text_7">
      <!-- 60 -->
      <g transform="translate(1260.794696 142.758438) scale(0.1 -0.1)">
       <defs>
        <path id="DejaVuSans-36" d="M 2113 2584 
Q 1688 2584 1439 2293 
Q 1191 2003 1191 1497 
Q 1191 994 1439 701 
Q 1688 409 2113 409 
Q 2538 409 2786 701 
Q 3034 994 3034 1497 
Q 3034 2003 2786 2293 
Q 2538 2584 2113 2584 
z
M 3366 4563 
L 3366 3988 
Q 3128 4100 2886 4159 
Q 2644 4219 2406 4219 
Q 1781 4219 1451 3797 
Q 1122 3375 1075 2522 
Q 1259 2794 1537 2939 
Q 1816 3084 2150 3084 
Q 2853 3084 3261 2657 
Q 3669 2231 3669 1497 
Q 3669 778 3244 343 
Q 2819 -91 2113 -91 
Q 1303 -91 875 529 
Q 447 1150 447 2328 
Q 447 3434 972 4092 
Q 1497 4750 2381 4750 
Q 2619 4750 2861 4703 
Q 3103 4656 3366 4563 
z
" transform="scale(0.015625)"/>
       </defs>
       <use xlink:href="#DejaVuSans-36"/>
       <use xlink:href="#DejaVuSans-30" x="63.623047"/>
      </g>
     </g>
    </g>
    <g id="xtick_8">
     <g id="line2d_9">
      <g>
       <use xlink:href="#m0a30c9d85c" x="1439.485794" y="128.16" style="stroke: #000000; stroke-width: 0.8"/>
      </g>
     </g>
     <g id="text_8">
      <!-- 70 -->
      <g transform="translate(1433.123294 142.758438) scale(0.1 -0.1)">
       <defs>
        <path id="DejaVuSans-37" d="M 525 4666 
L 3525 4666 
L 3525 4397 
L 1831 0 
L 1172 0 
L 2766 4134 
L 525 4134 
L 525 4666 
z
" transform="scale(0.015625)"/>
       </defs>
       <use xlink:href="#DejaVuSans-37"/>
       <use xlink:href="#DejaVuSans-30" x="63.623047"/>
      </g>
     </g>
    </g>
    <g id="xtick_9">
     <g id="line2d_10">
      <g>
       <use xlink:href="#m0a30c9d85c" x="1611.814392" y="128.16" style="stroke: #000000; stroke-width: 0.8"/>
      </g>
     </g>
     <g id="text_9">
      <!-- 80 -->
      <g transform="translate(1605.451892 142.758438) scale(0.1 -0.1)">
       <defs>
        <path id="DejaVuSans-38" d="M 2034 2216 
Q 1584 2216 1326 1975 
Q 1069 1734 1069 1313 
Q 1069 891 1326 650 
Q 1584 409 2034 409 
Q 2484 409 2743 651 
Q 3003 894 3003 1313 
Q 3003 1734 2745 1975 
Q 2488 2216 2034 2216 
z
M 1403 2484 
Q 997 2584 770 2862 
Q 544 3141 544 3541 
Q 544 4100 942 4425 
Q 1341 4750 2034 4750 
Q 2731 4750 3128 4425 
Q 3525 4100 3525 3541 
Q 3525 3141 3298 2862 
Q 3072 2584 2669 2484 
Q 3125 2378 3379 2068 
Q 3634 1759 3634 1313 
Q 3634 634 3220 271 
Q 2806 -91 2034 -91 
Q 1263 -91 848 271 
Q 434 634 434 1313 
Q 434 1759 690 2068 
Q 947 2378 1403 2484 
z
M 1172 3481 
Q 1172 3119 1398 2916 
Q 1625 2713 2034 2713 
Q 2441 2713 2670 2916 
Q 2900 3119 2900 3481 
Q 2900 3844 2670 4047 
Q 2441 4250 2034 4250 
Q 1625 4250 1398 4047 
Q 1172 3844 1172 3481 
z
" transform="scale(0.015625)"/>
       </defs>
       <use xlink:href="#DejaVuSans-38"/>
       <use xlink:href="#DejaVuSans-30" x="63.623047"/>
      </g>
     </g>
    </g>
   </g>
   <g id="matplotlib.axis_2">
    <g id="ytick_1">
     <g id="line2d_11">
      <defs>
       <path id="m8309f63e78" d="M 0 0 
L -3.5 0 
" style="stroke: #000000; stroke-width: 0.8"/>
      </defs>
      <g>
       <use xlink:href="#m8309f63e78" x="225" y="128.16" style="stroke: #000000; stroke-width: 0.8"/>
      </g>
     </g>
     <g id="text_10">
      <!-- 0.0 -->
      <g transform="translate(202.096875 131.959219) scale(0.1 -0.1)">
       <defs>
        <path id="DejaVuSans-2e" d="M 684 794 
L 1344 794 
L 1344 0 
L 684 0 
L 684 794 
z
" transform="scale(0.015625)"/>
       </defs>
       <use xlink:href="#DejaVuSans-30"/>
       <use xlink:href="#DejaVuSans-2e" x="63.623047"/>
       <use xlink:href="#DejaVuSans-30" x="95.410156"/>
      </g>
     </g>
    </g>
    <g id="ytick_2">
     <g id="line2d_12">
      <g>
       <use xlink:href="#m8309f63e78" x="225" y="100.44" style="stroke: #000000; stroke-width: 0.8"/>
      </g>
     </g>
     <g id="text_11">
      <!-- 0.5 -->
      <g transform="translate(202.096875 104.239219) scale(0.1 -0.1)">
       <use xlink:href="#DejaVuSans-30"/>
       <use xlink:href="#DejaVuSans-2e" x="63.623047"/>
       <use xlink:href="#DejaVuSans-35" x="95.410156"/>
      </g>
     </g>
    </g>
    <g id="ytick_3">
     <g id="line2d_13">
      <g>
       <use xlink:href="#m8309f63e78" x="225" y="72.72" style="stroke: #000000; stroke-width: 0.8"/>
      </g>
     </g>
     <g id="text_12">
      <!-- 1.0 -->
      <g transform="translate(202.096875 76.519219) scale(0.1 -0.1)">
       <use xlink:href="#DejaVuSans-31"/>
       <use xlink:href="#DejaVuSans-2e" x="63.623047"/>
       <use xlink:href="#DejaVuSans-30" x="95.410156"/>
      </g>
     </g>
    </g>
    <g id="ytick_4">
     <g id="line2d_14">
      <g>
       <use xlink:href="#m8309f63e78" x="225" y="45" style="stroke: #000000; stroke-width: 0.8"/>
      </g>
     </g>
     <g id="text_13">
      <!-- 1.5 -->
      <g transform="translate(202.096875 48.799219) scale(0.1 -0.1)">
       <use xlink:href="#DejaVuSans-31"/>
       <use xlink:href="#DejaVuSans-2e" x="63.623047"/>
       <use xlink:href="#DejaVuSans-35" x="95.410156"/>
      </g>
     </g>
    </g>
    <g id="ytick_5">
     <g id="line2d_15">
      <g>
       <use xlink:href="#m8309f63e78" x="225" y="17.28" style="stroke: #000000; stroke-width: 0.8"/>
      </g>
     </g>
     <g id="text_14">
      <!-- 2.0 -->
      <g transform="translate(202.096875 21.079219) scale(0.1 -0.1)">
       <use xlink:href="#DejaVuSans-32"/>
       <use xlink:href="#DejaVuSans-2e" x="63.623047"/>
       <use xlink:href="#DejaVuSans-30" x="95.410156"/>
      </g>
     </g>
    </g>
   </g>
  </g>
 </g>
 <defs>
  <clipPath id="pa2affae8c8">
   <rect x="225" y="17.28" width="1395" height="110.88"/>
  </clipPath>
 </defs>
</svg>
