<?xml version="1.0" encoding="utf-8" standalone="no"?>
<!DOCTYPE svg PUBLIC "-//W3C//DTD SVG 1.1//EN"
  "http://www.w3.org/Graphics/SVG/1.1/DTD/svg11.dtd">
<svg xmlns:xlink="http://www.w3.org/1999/xlink" width="1800pt" height="144pt" viewBox="0 0 1800 144" xmlns="http://www.w3.org/2000/svg" version="1.1">
 <metadata>
  <rdf:RDF xmlns:dc="http://purl.org/dc/elements/1.1/" xmlns:cc="http://creativecommons.org/ns#" xmlns:rdf="http://www.w3.org/1999/02/22-rdf-syntax-ns#">
   <cc:Work>
    <dc:type rdf:resource="http://purl.org/dc/dcmitype/StillImage"/>
    <dc:date>2025-05-09T21:10:09.803940</dc:date>
    <dc:format>image/svg+xml</dc:format>
    <dc:creator>
     <cc:Agent>
      <dc:title>Matplotlib v3.8.0, https://matplotlib.org/</dc:title>
     </cc:Agent>
    </dc:creator>
   </cc:Work>
  </rdf:RDF>
 </metadata>
 <defs>
  <style type="text/css">*{stroke-linejoin: round; stroke-linecap: butt}</style>
 </defs>
 <g id="figure_1">
  <g id="patch_1">
   <path d="M 0 144 
L 1800 144 
L 1800 0 
L 0 0 
z
" style="fill: #ffffff"/>
  </g>
  <g id="axes_1">
   <g id="patch_2">
    <path d="M 225 128.16 
L 1620 128.16 
L 1620 17.28 
L 225 17.28 
z
" style="fill: #ffffff"/>
   </g>
   <g id="line2d_1">
    <path d="M 225 128.16 
L 1620 128.16 
" clip-path="url(#p98d8b5b281)" style="fill: none; stroke: #000000; stroke-width: 1.5; stroke-linecap: square"/>
   </g>
   <g id="patch_3">
    <path d="M 225 17.28 
L 227.804814 17.28 
L 227.804814 59.531316 
L 231.943255 59.531316 
L 231.943255 17.28 
L 234.748069 17.28 
L 234.748069 128.16 
L 231.943255 128.16 
L 231.943255 81.156005 
L 227.804814 81.156005 
L 227.804814 128.16 
L 225 128.16 
L 225 17.28 
z
" clip-path="url(#p98d8b5b281)" style="fill: #177875"/>
   </g>
   <g id="patch_4">
    <path d="M 245.009195 118.127891 
Q 244.026086 123.143945 242.968698 125.663425 
Q 241.91131 128.16 240.784012 128.16 
Q 238.236668 128.16 236.748897 113.226358 
Q 235.261125 98.292716 235.261125 72.754357 
Q 235.261125 46.91824 236.775113 32.09912 
Q 238.291285 17.28 240.928201 17.28 
Q 241.94408 17.28 242.874756 19.295584 
Q 243.807617 21.288263 244.633429 25.227812 
L 244.633429 47.330518 
Q 243.781401 42.268655 242.938112 39.77208 
Q 242.094823 37.252601 241.247165 37.252601 
Q 239.678561 37.252601 238.828718 46.460153 
Q 237.978875 55.644801 237.978875 72.754357 
Q 237.978875 89.703582 238.798132 98.956943 
Q 239.617389 108.187399 241.124823 108.187399 
Q 241.535544 108.187399 241.887278 107.660599 
Q 242.239013 107.110894 242.518652 105.965677 
L 242.518652 85.214328 
L 240.912908 85.214328 
L 240.912908 66.73051 
L 245.009195 66.73051 
L 245.009195 118.127891 
z
" clip-path="url(#p98d8b5b281)" style="fill: #787800"/>
   </g>
   <g id="patch_5">
    <path d="M 248.627518 17.28 
L 252.165053 17.28 
L 252.165053 128.16 
L 248.627518 128.16 
L 248.627518 17.28 
z
" clip-path="url(#p98d8b5b281)" style="fill: #21599c"/>
   </g>
   <g id="patch_6">
    <path d="M 255.783376 17.28 
L 259.320911 17.28 
L 259.320911 106.559074 
L 265.531445 106.559074 
L 265.531445 128.16 
L 255.783376 128.16 
L 255.783376 17.28 
z
" clip-path="url(#p98d8b5b281)" style="fill: #21599c"/>
   </g>
   <g id="patch_7">
    <path d="M 266.044502 17.28 
L 275.792571 17.28 
L 275.792571 38.904689 
L 272.285533 38.904689 
L 272.285533 128.16 
L 269.558341 128.16 
L 269.558341 38.904689 
L 266.044502 38.904689 
L 266.044502 17.28 
z
" clip-path="url(#p98d8b5b281)" style="fill: #40ba47"/>
   </g>
   <g id="patch_8">
    <path d="M 281.43961 111.578719 
L 281.24871 111.578719 
Q 278.907143 111.578719 277.60537 99.152512 
Q 276.305627 86.706798 276.305627 64.526897 
Q 276.305627 42.38601 277.603339 29.842759 
Q 278.90105 17.28 281.179662 17.28 
Q 283.482643 17.28 284.76817 29.725714 
Q 286.053696 42.151921 286.053696 64.526897 
Q 286.053696 79.879212 285.371331 90.978916 
Q 284.688967 102.078621 283.407502 107.677241 
L 285.316498 128.16 
L 282.987116 128.16 
L 281.43961 111.578719 
z
M 281.179662 34.290443 
Q 280.062695 34.290443 279.447349 42.210443 
Q 278.832002 50.130443 278.832002 64.526897 
Q 278.832002 79.157438 279.433133 86.940887 
Q 280.036294 94.704828 281.179662 94.704828 
Q 282.30272 94.704828 282.918067 86.784828 
Q 283.533414 78.84532 283.533414 64.526897 
Q 283.533414 50.130443 282.918067 42.210443 
Q 282.30272 34.290443 281.179662 34.290443 
z
" clip-path="url(#p98d8b5b281)" style="fill: #40ba47"/>
   </g>
   <g id="patch_9">
    <path d="M 286.566752 17.28 
L 296.314822 17.28 
L 296.314822 38.904689 
L 292.807784 38.904689 
L 292.807784 128.16 
L 290.080591 128.16 
L 290.080591 38.904689 
L 286.566752 38.904689 
L 286.566752 17.28 
z
" clip-path="url(#p98d8b5b281)" style="fill: #40ba47"/>
   </g>
   <g id="patch_10">
    <path d="M 296.827878 17.28 
L 306.373046 17.28 
L 306.373046 38.904689 
L 300.365412 38.904689 
L 300.365412 59.531316 
L 306.017234 59.531316 
L 306.017234 81.156005 
L 300.365412 81.156005 
L 300.365412 106.559074 
L 306.575947 106.559074 
L 306.575947 128.16 
L 296.827878 128.16 
L 296.827878 17.28 
z
" clip-path="url(#p98d8b5b281)" style="fill: #6b296b"/>
   </g>
   <g id="patch_11">
    <path d="M 312.222986 111.578719 
L 312.032087 111.578719 
Q 309.690519 111.578719 308.388746 99.152512 
Q 307.089003 86.706798 307.089003 64.526897 
Q 307.089003 42.38601 308.386715 29.842759 
Q 309.684427 17.28 311.963038 17.28 
Q 314.266019 17.28 315.551546 29.725714 
Q 316.837072 42.151921 316.837072 64.526897 
Q 316.837072 79.879212 316.154708 90.978916 
Q 315.472343 102.078621 314.190878 107.677241 
L 316.099875 128.16 
L 313.770492 128.16 
L 312.222986 111.578719 
z
M 311.963038 34.290443 
Q 310.846072 34.290443 310.230725 42.210443 
Q 309.615378 50.130443 309.615378 64.526897 
Q 309.615378 79.157438 310.216509 86.940887 
Q 310.819671 94.704828 311.963038 94.704828 
Q 313.086097 94.704828 313.701444 86.784828 
Q 314.31679 78.84532 314.31679 64.526897 
Q 314.31679 50.130443 313.701444 42.210443 
Q 313.086097 34.290443 311.963038 34.290443 
z
" clip-path="url(#p98d8b5b281)" style="fill: #40ba47"/>
   </g>
   <g id="patch_12">
    <path d="M 324.102625 107.961114 
L 320.353674 107.961114 
L 319.761734 128.16 
L 317.350129 128.16 
L 320.794141 17.28 
L 323.654186 17.28 
L 327.098198 128.16 
L 324.688585 128.16 
L 324.102625 107.961114 
z
M 320.951593 87.382015 
L 323.498727 87.382015 
L 322.227153 43.277154 
L 320.951593 87.382015 
z
" clip-path="url(#p98d8b5b281)" style="fill: #21599c"/>
   </g>
   <g id="patch_13">
    <path d="M 327.611254 17.28 
L 330.180132 17.28 
L 330.180132 57.749061 
L 333.882903 17.28 
L 336.866047 17.28 
L 332.067819 69.797102 
L 337.359323 128.16 
L 334.143421 128.16 
L 330.180132 84.48288 
L 330.180132 128.16 
L 327.611254 128.16 
L 327.611254 17.28 
z
" clip-path="url(#p98d8b5b281)" style="fill: #bd2e1f"/>
   </g>
   <g id="patch_14">
    <path d="M 341.827615 66.446464 
Q 342.702441 66.446464 343.081996 63.119589 
Q 343.46155 59.76895 343.46155 52.117137 
Q 343.46155 44.536614 343.081996 41.281029 
Q 342.702441 38.00168 341.827615 38.00168 
L 340.65655 38.00168 
L 340.65655 66.446464 
L 341.827615 66.446464 
z
M 340.65655 86.193845 
L 340.65655 128.16 
L 337.87238 128.16 
L 337.87238 17.28 
L 342.123852 17.28 
Q 344.257689 17.28 345.250548 24.646652 
Q 346.245721 31.989541 346.245721 47.887252 
Q 346.245721 58.865941 345.727305 65.923669 
Q 345.211204 72.981397 344.169743 76.332036 
Q 344.741389 77.662786 345.192689 82.391702 
Q 345.646303 87.096854 346.109174 96.673502 
L 347.620449 128.16 
L 344.655758 128.16 
L 343.338889 100.618225 
Q 342.94082 92.301037 342.531179 89.259323 
Q 342.123852 86.193845 341.443431 86.193845 
L 340.65655 86.193845 
z
" clip-path="url(#p98d8b5b281)" style="fill: #bd2e1f"/>
   </g>
   <g id="patch_15">
    <path d="M 348.133505 17.28 
L 351.009091 17.28 
L 353.003783 76.617197 
L 355.011622 17.28 
L 357.881574 17.28 
L 357.881574 128.16 
L 355.746014 128.16 
L 355.746014 47.055534 
L 353.726906 106.844235 
L 352.293808 106.844235 
L 350.274699 47.055534 
L 350.274699 128.16 
L 348.133505 128.16 
L 348.133505 17.28 
z
" clip-path="url(#p98d8b5b281)" style="fill: #21599c"/>
   </g>
   <g id="patch_16">
    <path d="M 368.1427 118.127891 
Q 367.159591 123.143945 366.102203 125.663425 
Q 365.044815 128.16 363.917517 128.16 
Q 361.370173 128.16 359.882402 113.226358 
Q 358.39463 98.292716 358.39463 72.754357 
Q 358.39463 46.91824 359.908618 32.09912 
Q 361.42479 17.28 364.061706 17.28 
Q 365.077585 17.28 366.008261 19.295584 
Q 366.941122 21.288263 367.766934 25.227812 
L 367.766934 47.330518 
Q 366.914906 42.268655 366.071617 39.77208 
Q 365.228328 37.252601 364.38067 37.252601 
Q 362.812066 37.252601 361.962223 46.460153 
Q 361.11238 55.644801 361.11238 72.754357 
Q 361.11238 89.703582 361.931637 98.956943 
Q 362.750894 108.187399 364.258328 108.187399 
Q 364.669049 108.187399 365.020783 107.660599 
Q 365.372518 107.110894 365.652157 105.965677 
L 365.652157 85.214328 
L 364.046413 85.214328 
L 364.046413 66.73051 
L 368.1427 66.73051 
L 368.1427 118.127891 
z
" clip-path="url(#p98d8b5b281)" style="fill: #787800"/>
   </g>
   <g id="patch_17">
    <path d="M 368.655756 17.28 
L 371.224634 17.28 
L 371.224634 57.749061 
L 374.927405 17.28 
L 377.910549 17.28 
L 373.112321 69.797102 
L 378.403825 128.16 
L 375.187923 128.16 
L 371.224634 84.48288 
L 371.224634 128.16 
L 368.655756 128.16 
L 368.655756 17.28 
z
" clip-path="url(#p98d8b5b281)" style="fill: #bd2e1f"/>
   </g>
   <g id="patch_18">
    <path d="M 387.85217 22.570907 
L 387.85217 45.200413 
Q 386.835533 41.260863 385.86655 39.268184 
Q 384.900215 37.252601 384.03978 37.252601 
Q 382.898711 37.252601 382.35068 39.978219 
Q 381.805296 42.680934 381.805296 48.407023 
Q 381.805296 52.713043 382.173298 55.118 
Q 382.541299 57.500054 383.510282 59.217881 
L 384.865798 61.57703 
Q 386.925547 65.173014 387.793925 72.479504 
Q 388.66495 79.76309 388.66495 93.230853 
Q 388.66495 110.890114 387.452399 119.525057 
Q 386.239847 128.16 383.748556 128.16 
Q 382.575717 128.16 381.392287 126.21313 
Q 380.208858 124.289163 379.025428 120.48704 
L 379.025428 97.239116 
Q 380.208858 102.667449 381.312862 105.438876 
Q 382.416867 108.187399 383.444094 108.187399 
Q 384.487206 108.187399 385.040532 105.186928 
Q 385.593858 102.163553 385.593858 96.574889 
Q 385.593858 91.581739 385.217914 88.856121 
Q 384.84197 86.130502 383.716786 83.977492 
L 382.483054 81.618343 
Q 380.629809 78.18269 379.772021 70.67006 
Q 378.916881 63.15743 378.916881 50.422607 
Q 378.916881 34.458269 380.108253 25.869134 
Q 381.299625 17.28 383.534109 17.28 
Q 384.553394 17.28 385.628276 18.608453 
Q 386.703158 19.936906 387.85217 22.570907 
z
" clip-path="url(#p98d8b5b281)" style="fill: #40ba47"/>
   </g>
   <g id="patch_19">
    <path d="M 391.849288 38.904689 
L 391.849288 106.559074 
L 392.806331 106.559074 
Q 394.442852 106.559074 395.306633 97.861672 
Q 396.172635 89.164269 396.172635 72.601183 
Q 396.172635 56.13315 395.311074 47.530802 
Q 394.451734 38.904689 392.806331 38.904689 
L 391.849288 38.904689 
z
M 389.178007 17.28 
L 391.993622 17.28 
Q 394.354031 17.28 395.5087 20.892036 
Q 396.663369 24.480309 397.489401 33.106421 
Q 398.217731 40.615654 398.570793 50.429936 
Q 398.926076 60.220454 398.926076 72.601183 
Q 398.926076 85.172019 398.570793 95.010064 
Q 398.217731 104.84811 397.489401 112.333579 
Q 396.656708 120.959691 395.490936 124.571727 
Q 394.325165 128.16 391.993622 128.16 
L 389.178007 128.16 
L 389.178007 17.28 
z
" clip-path="url(#p98d8b5b281)" style="fill: #6b296b"/>
   </g>
   <g id="patch_20">
    <path d="M 399.439132 17.28 
L 401.850738 17.28 
L 404.316156 99.121132 
L 406.777589 17.28 
L 409.187201 17.28 
L 405.743189 128.16 
L 402.883144 128.16 
L 399.439132 17.28 
z
" clip-path="url(#p98d8b5b281)" style="fill: #21599c"/>
   </g>
   <g id="patch_21">
    <path d="M 409.700257 17.28 
L 419.245426 17.28 
L 419.245426 38.904689 
L 413.237792 38.904689 
L 413.237792 59.531316 
L 418.889614 59.531316 
L 418.889614 81.156005 
L 413.237792 81.156005 
L 413.237792 106.559074 
L 419.448327 106.559074 
L 419.448327 128.16 
L 409.700257 128.16 
L 409.700257 17.28 
z
" clip-path="url(#p98d8b5b281)" style="fill: #6b296b"/>
   </g>
   <g id="patch_22">
    <path d="M 419.961383 17.28 
L 423.498917 17.28 
L 423.498917 106.559074 
L 429.709452 106.559074 
L 429.709452 128.16 
L 419.961383 128.16 
L 419.961383 17.28 
z
" clip-path="url(#p98d8b5b281)" style="fill: #21599c"/>
   </g>
   <g id="patch_23">
    <path d="M 432.89379 38.904689 
L 432.89379 106.559074 
L 433.850833 106.559074 
Q 435.487354 106.559074 436.351135 97.861672 
Q 437.217136 89.164269 437.217136 72.601183 
Q 437.217136 56.13315 436.355576 47.530802 
Q 435.496236 38.904689 433.850833 38.904689 
L 432.89379 38.904689 
z
M 430.222508 17.28 
L 433.038124 17.28 
Q 435.398533 17.28 436.553202 20.892036 
Q 437.707871 24.480309 438.533903 33.106421 
Q 439.262233 40.615654 439.615295 50.429936 
Q 439.970577 60.220454 439.970577 72.601183 
Q 439.970577 85.172019 439.615295 95.010064 
Q 439.262233 104.84811 438.533903 112.333579 
Q 437.701209 120.959691 436.535438 124.571727 
Q 435.369666 128.16 433.038124 128.16 
L 430.222508 128.16 
L 430.222508 17.28 
z
" clip-path="url(#p98d8b5b281)" style="fill: #6b296b"/>
   </g>
   <g id="patch_24">
    <path d="M 449.418922 22.570907 
L 449.418922 45.200413 
Q 448.402285 41.260863 447.433303 39.268184 
Q 446.466968 37.252601 445.606533 37.252601 
Q 444.465463 37.252601 443.917432 39.978219 
Q 443.372049 42.680934 443.372049 48.407023 
Q 443.372049 52.713043 443.74005 55.118 
Q 444.108052 57.500054 445.077034 59.217881 
L 446.43255 61.57703 
Q 448.4923 65.173014 449.360678 72.479504 
Q 450.231703 79.76309 450.231703 93.230853 
Q 450.231703 110.890114 449.019151 119.525057 
Q 447.806599 128.16 445.315308 128.16 
Q 444.142469 128.16 442.95904 126.21313 
Q 441.77561 124.289163 440.592181 120.48704 
L 440.592181 97.239116 
Q 441.77561 102.667449 442.879615 105.438876 
Q 443.983619 108.187399 445.010847 108.187399 
Q 446.053959 108.187399 446.607285 105.186928 
Q 447.160611 102.163553 447.160611 96.574889 
Q 447.160611 91.581739 446.784667 88.856121 
Q 446.408723 86.130502 445.283538 83.977492 
L 444.049807 81.618343 
Q 442.196562 78.18269 441.338774 70.67006 
Q 440.483634 63.15743 440.483634 50.422607 
Q 440.483634 34.458269 441.675006 25.869134 
Q 442.866377 17.28 445.100861 17.28 
Q 446.120146 17.28 447.195028 18.608453 
Q 448.269911 19.936906 449.418922 22.570907 
z
" clip-path="url(#p98d8b5b281)" style="fill: #40ba47"/>
   </g>
   <g id="patch_25">
    <path d="M 453.850026 17.28 
L 457.387561 17.28 
L 457.387561 128.16 
L 453.850026 128.16 
L 453.850026 17.28 
z
" clip-path="url(#p98d8b5b281)" style="fill: #21599c"/>
   </g>
   <g id="patch_26">
    <path d="M 461.005885 17.28 
L 463.41749 17.28 
L 465.882909 99.121132 
L 468.344341 17.28 
L 470.753954 17.28 
L 467.309941 128.16 
L 464.449897 128.16 
L 461.005885 17.28 
z
" clip-path="url(#p98d8b5b281)" style="fill: #21599c"/>
   </g>
   <g id="patch_27">
    <path d="M 471.26701 17.28 
L 473.678616 17.28 
L 476.144034 99.121132 
L 478.605466 17.28 
L 481.015079 17.28 
L 477.571067 128.16 
L 474.711022 128.16 
L 471.26701 17.28 
z
" clip-path="url(#p98d8b5b281)" style="fill: #21599c"/>
   </g>
   <g id="patch_28">
    <path d="M 481.528135 17.28 
L 483.939741 17.28 
L 486.40516 99.121132 
L 488.866592 17.28 
L 491.276204 17.28 
L 487.832192 128.16 
L 484.972148 128.16 
L 481.528135 17.28 
z
" clip-path="url(#p98d8b5b281)" style="fill: #21599c"/>
   </g>
   <g id="patch_29">
    <path d="M 501.53733 118.127891 
Q 500.554221 123.143945 499.496833 125.663425 
Q 498.439445 128.16 497.312147 128.16 
Q 494.764803 128.16 493.277032 113.226358 
Q 491.789261 98.292716 491.789261 72.754357 
Q 491.789261 46.91824 493.303248 32.09912 
Q 494.81942 17.28 497.456336 17.28 
Q 498.472215 17.28 499.402892 19.295584 
Q 500.335753 21.288263 501.161564 25.227812 
L 501.161564 47.330518 
Q 500.309536 42.268655 499.466248 39.77208 
Q 498.622959 37.252601 497.775301 37.252601 
Q 496.206696 37.252601 495.356853 46.460153 
Q 494.50701 55.644801 494.50701 72.754357 
Q 494.50701 89.703582 495.326267 98.956943 
Q 496.145525 108.187399 497.652958 108.187399 
Q 498.063679 108.187399 498.415414 107.660599 
Q 498.767148 107.110894 499.046788 105.965677 
L 499.046788 85.214328 
L 497.441044 85.214328 
L 497.441044 66.73051 
L 501.53733 66.73051 
L 501.53733 118.127891 
z
" clip-path="url(#p98d8b5b281)" style="fill: #787800"/>
   </g>
   <g id="patch_30">
    <path d="M 505.155653 17.28 
L 508.693188 17.28 
L 508.693188 128.16 
L 505.155653 128.16 
L 505.155653 17.28 
z
" clip-path="url(#p98d8b5b281)" style="fill: #21599c"/>
   </g>
   <g id="patch_31">
    <path d="M 512.311512 17.28 
L 514.880389 17.28 
L 514.880389 57.749061 
L 518.583161 17.28 
L 521.566305 17.28 
L 516.768077 69.797102 
L 522.059581 128.16 
L 518.843679 128.16 
L 514.880389 84.48288 
L 514.880389 128.16 
L 512.311512 128.16 
L 512.311512 17.28 
z
" clip-path="url(#p98d8b5b281)" style="fill: #bd2e1f"/>
   </g>
   <g id="patch_32">
    <path d="M 522.572637 17.28 
L 525.141515 17.28 
L 525.141515 57.749061 
L 528.844286 17.28 
L 531.82743 17.28 
L 527.029202 69.797102 
L 532.320706 128.16 
L 529.104804 128.16 
L 525.141515 84.48288 
L 525.141515 128.16 
L 522.572637 128.16 
L 522.572637 17.28 
z
" clip-path="url(#p98d8b5b281)" style="fill: #bd2e1f"/>
   </g>
   <g id="patch_33">
    <path d="M 539.586258 107.961114 
L 535.837308 107.961114 
L 535.245368 128.16 
L 532.833762 128.16 
L 536.277775 17.28 
L 539.137819 17.28 
L 542.581832 128.16 
L 540.172219 128.16 
L 539.586258 107.961114 
z
M 536.435227 87.382015 
L 538.982361 87.382015 
L 537.710787 43.277154 
L 536.435227 87.382015 
z
" clip-path="url(#p98d8b5b281)" style="fill: #21599c"/>
   </g>
   <g id="patch_34">
    <path d="M 543.094888 17.28 
L 545.663766 17.28 
L 545.663766 57.749061 
L 549.366537 17.28 
L 552.349681 17.28 
L 547.551453 69.797102 
L 552.842957 128.16 
L 549.627055 128.16 
L 545.663766 84.48288 
L 545.663766 128.16 
L 543.094888 128.16 
L 543.094888 17.28 
z
" clip-path="url(#p98d8b5b281)" style="fill: #bd2e1f"/>
   </g>
   <g id="patch_35">
    <path d="M 553.356013 17.28 
L 556.893548 17.28 
L 556.893548 106.559074 
L 563.104082 106.559074 
L 563.104082 128.16 
L 553.356013 128.16 
L 553.356013 17.28 
z
" clip-path="url(#p98d8b5b281)" style="fill: #21599c"/>
   </g>
   <g id="patch_36">
    <path d="M 570.369635 107.961114 
L 566.620684 107.961114 
L 566.028744 128.16 
L 563.617139 128.16 
L 567.061151 17.28 
L 569.921196 17.28 
L 573.365208 128.16 
L 570.955595 128.16 
L 570.369635 107.961114 
z
M 567.218603 87.382015 
L 569.765737 87.382015 
L 568.494163 43.277154 
L 567.218603 87.382015 
z
" clip-path="url(#p98d8b5b281)" style="fill: #21599c"/>
   </g>
   <g id="patch_37">
    <path d="M 583.626333 118.127891 
Q 582.643224 123.143945 581.585836 125.663425 
Q 580.528448 128.16 579.40115 128.16 
Q 576.853806 128.16 575.366035 113.226358 
Q 573.878264 98.292716 573.878264 72.754357 
Q 573.878264 46.91824 575.392251 32.09912 
Q 576.908424 17.28 579.54534 17.28 
Q 580.561219 17.28 581.491895 19.295584 
Q 582.424756 21.288263 583.250567 25.227812 
L 583.250567 47.330518 
Q 582.39854 42.268655 581.555251 39.77208 
Q 580.711962 37.252601 579.864304 37.252601 
Q 578.295699 37.252601 577.445856 46.460153 
Q 576.596014 55.644801 576.596014 72.754357 
Q 576.596014 89.703582 577.415271 98.956943 
Q 578.234528 108.187399 579.741961 108.187399 
Q 580.152682 108.187399 580.504417 107.660599 
Q 580.856151 107.110894 581.135791 105.965677 
L 581.135791 85.214328 
L 579.530047 85.214328 
L 579.530047 66.73051 
L 583.626333 66.73051 
L 583.626333 118.127891 
z
" clip-path="url(#p98d8b5b281)" style="fill: #787800"/>
   </g>
   <g id="patch_38">
    <path d="M 584.24084 17.28 
L 593.786008 17.28 
L 593.786008 38.904689 
L 587.778375 38.904689 
L 587.778375 59.531316 
L 593.430196 59.531316 
L 593.430196 81.156005 
L 587.778375 81.156005 
L 587.778375 128.16 
L 584.24084 128.16 
L 584.24084 17.28 
z
" clip-path="url(#p98d8b5b281)" style="fill: #21599c"/>
   </g>
   <g id="patch_39">
    <path d="M 594.400515 17.28 
L 596.969393 17.28 
L 596.969393 57.749061 
L 600.672164 17.28 
L 603.655308 17.28 
L 598.85708 69.797102 
L 604.148584 128.16 
L 600.932682 128.16 
L 596.969393 84.48288 
L 596.969393 128.16 
L 594.400515 128.16 
L 594.400515 17.28 
z
" clip-path="url(#p98d8b5b281)" style="fill: #bd2e1f"/>
   </g>
   <g id="patch_40">
    <path d="M 614.409709 118.127891 
Q 613.426601 123.143945 612.369213 125.663425 
Q 611.311825 128.16 610.184527 128.16 
Q 607.637183 128.16 606.149412 113.226358 
Q 604.66164 98.292716 604.66164 72.754357 
Q 604.66164 46.91824 606.175628 32.09912 
Q 607.6918 17.28 610.328716 17.28 
Q 611.344595 17.28 612.275271 19.295584 
Q 613.208132 21.288263 614.033943 25.227812 
L 614.033943 47.330518 
Q 613.181916 42.268655 612.338627 39.77208 
Q 611.495338 37.252601 610.64768 37.252601 
Q 609.079075 37.252601 608.229233 46.460153 
Q 607.37939 55.644801 607.37939 72.754357 
Q 607.37939 89.703582 608.198647 98.956943 
Q 609.017904 108.187399 610.525338 108.187399 
Q 610.936059 108.187399 611.287793 107.660599 
Q 611.639528 107.110894 611.919167 105.965677 
L 611.919167 85.214328 
L 610.313423 85.214328 
L 610.313423 66.73051 
L 614.409709 66.73051 
L 614.409709 118.127891 
z
" clip-path="url(#p98d8b5b281)" style="fill: #787800"/>
   </g>
   <g id="patch_41">
    <path d="M 618.028033 17.28 
L 621.565568 17.28 
L 621.565568 128.16 
L 618.028033 128.16 
L 618.028033 17.28 
z
" clip-path="url(#p98d8b5b281)" style="fill: #21599c"/>
   </g>
   <g id="patch_42">
    <path d="M 625.183891 17.28 
L 630.250856 17.28 
Q 632.512713 17.28 633.721067 26.690304 
Q 634.93196 36.076845 634.93196 53.447887 
Q 634.93196 70.913982 633.721067 80.300523 
Q 632.512713 89.687064 630.250856 89.687064 
L 628.237778 89.687064 
L 628.237778 128.16 
L 625.183891 128.16 
L 625.183891 17.28 
z
M 628.237778 38.00168 
L 628.237778 68.965384 
L 629.925921 68.965384 
Q 630.814416 68.965384 631.299281 64.925607 
Q 631.784146 60.885829 631.784146 53.447887 
Q 631.784146 46.033708 631.299281 42.017694 
Q 630.814416 38.00168 629.925921 38.00168 
L 628.237778 38.00168 
z
" clip-path="url(#p98d8b5b281)" style="fill: #787800"/>
   </g>
   <g id="patch_43">
    <path d="M 635.445017 17.28 
L 644.990185 17.28 
L 644.990185 38.904689 
L 638.982551 38.904689 
L 638.982551 59.531316 
L 644.634373 59.531316 
L 644.634373 81.156005 
L 638.982551 81.156005 
L 638.982551 106.559074 
L 645.193086 106.559074 
L 645.193086 128.16 
L 635.445017 128.16 
L 635.445017 17.28 
z
" clip-path="url(#p98d8b5b281)" style="fill: #6b296b"/>
   </g>
   <g id="patch_44">
    <path d="M 648.377424 38.904689 
L 648.377424 106.559074 
L 649.334467 106.559074 
Q 650.970988 106.559074 651.834769 97.861672 
Q 652.70077 89.164269 652.70077 72.601183 
Q 652.70077 56.13315 651.83921 47.530802 
Q 650.97987 38.904689 649.334467 38.904689 
L 648.377424 38.904689 
z
M 645.706142 17.28 
L 648.521757 17.28 
Q 650.882167 17.28 652.036836 20.892036 
Q 653.191504 24.480309 654.017537 33.106421 
Q 654.745866 40.615654 655.098928 50.429936 
Q 655.454211 60.220454 655.454211 72.601183 
Q 655.454211 85.172019 655.098928 95.010064 
Q 654.745866 104.84811 654.017537 112.333579 
Q 653.184843 120.959691 652.019071 124.571727 
Q 650.8533 128.16 648.521757 128.16 
L 645.706142 128.16 
L 645.706142 17.28 
z
" clip-path="url(#p98d8b5b281)" style="fill: #6b296b"/>
   </g>
   <g id="patch_45">
    <path d="M 659.072535 17.28 
L 662.610069 17.28 
L 662.610069 128.16 
L 659.072535 128.16 
L 659.072535 17.28 
z
" clip-path="url(#p98d8b5b281)" style="fill: #21599c"/>
   </g>
   <g id="patch_46">
    <path d="M 669.33366 17.28 
L 672.871195 17.28 
L 672.871195 128.16 
L 669.33366 128.16 
L 669.33366 17.28 
z
" clip-path="url(#p98d8b5b281)" style="fill: #21599c"/>
   </g>
   <g id="patch_47">
    <path d="M 681.623501 111.578719 
L 681.432602 111.578719 
Q 679.091034 111.578719 677.789261 99.152512 
Q 676.489518 86.706798 676.489518 64.526897 
Q 676.489518 42.38601 677.78723 29.842759 
Q 679.084942 17.28 681.363553 17.28 
Q 683.666534 17.28 684.952061 29.725714 
Q 686.237587 42.151921 686.237587 64.526897 
Q 686.237587 79.879212 685.555223 90.978916 
Q 684.872858 102.078621 683.591393 107.677241 
L 685.50039 128.16 
L 683.171007 128.16 
L 681.623501 111.578719 
z
M 681.363553 34.290443 
Q 680.246587 34.290443 679.63124 42.210443 
Q 679.015893 50.130443 679.015893 64.526897 
Q 679.015893 79.157438 679.617024 86.940887 
Q 680.220186 94.704828 681.363553 94.704828 
Q 682.486612 94.704828 683.101958 86.784828 
Q 683.717305 78.84532 683.717305 64.526897 
Q 683.717305 50.130443 683.101958 42.210443 
Q 682.486612 34.290443 681.363553 34.290443 
z
" clip-path="url(#p98d8b5b281)" style="fill: #40ba47"/>
   </g>
   <g id="patch_48">
    <path d="M 686.852094 17.28 
L 696.397262 17.28 
L 696.397262 38.904689 
L 690.389629 38.904689 
L 690.389629 59.531316 
L 696.04145 59.531316 
L 696.04145 81.156005 
L 690.389629 81.156005 
L 690.389629 128.16 
L 686.852094 128.16 
L 686.852094 17.28 
z
" clip-path="url(#p98d8b5b281)" style="fill: #21599c"/>
   </g>
   <g id="patch_49">
    <path d="M 705.947058 22.570907 
L 705.947058 45.200413 
Q 704.930421 41.260863 703.961438 39.268184 
Q 702.995103 37.252601 702.134668 37.252601 
Q 700.993598 37.252601 700.445567 39.978219 
Q 699.900184 42.680934 699.900184 48.407023 
Q 699.900184 52.713043 700.268185 55.118 
Q 700.636187 57.500054 701.605169 59.217881 
L 702.960686 61.57703 
Q 705.020435 65.173014 705.888813 72.479504 
Q 706.759838 79.76309 706.759838 93.230853 
Q 706.759838 110.890114 705.547286 119.525057 
Q 704.334735 128.16 701.843444 128.16 
Q 700.670604 128.16 699.487175 126.21313 
Q 698.303746 124.289163 697.120316 120.48704 
L 697.120316 97.239116 
Q 698.303746 102.667449 699.40775 105.438876 
Q 700.511755 108.187399 701.538982 108.187399 
Q 702.582094 108.187399 703.13542 105.186928 
Q 703.688746 102.163553 703.688746 96.574889 
Q 703.688746 91.581739 703.312802 88.856121 
Q 702.936858 86.130502 701.811674 83.977492 
L 700.577942 81.618343 
Q 698.724697 78.18269 697.866909 70.67006 
Q 697.011769 63.15743 697.011769 50.422607 
Q 697.011769 34.458269 698.203141 25.869134 
Q 699.394513 17.28 701.628997 17.28 
Q 702.648282 17.28 703.723164 18.608453 
Q 704.798046 19.936906 705.947058 22.570907 
z
" clip-path="url(#p98d8b5b281)" style="fill: #40ba47"/>
   </g>
   <g id="patch_50">
    <path d="M 707.272894 17.28 
L 709.6845 17.28 
L 712.149919 99.121132 
L 714.611351 17.28 
L 717.020964 17.28 
L 713.576951 128.16 
L 710.716907 128.16 
L 707.272894 17.28 
z
" clip-path="url(#p98d8b5b281)" style="fill: #21599c"/>
   </g>
   <g id="patch_51">
    <path d="M 717.53402 17.28 
L 727.079188 17.28 
L 727.079188 38.904689 
L 721.071554 38.904689 
L 721.071554 59.531316 
L 726.723376 59.531316 
L 726.723376 81.156005 
L 721.071554 81.156005 
L 721.071554 106.559074 
L 727.282089 106.559074 
L 727.282089 128.16 
L 717.53402 128.16 
L 717.53402 17.28 
z
" clip-path="url(#p98d8b5b281)" style="fill: #6b296b"/>
   </g>
   <g id="patch_52">
    <path d="M 727.795145 17.28 
L 730.206751 17.28 
L 732.672169 99.121132 
L 735.133602 17.28 
L 737.543214 17.28 
L 734.099202 128.16 
L 731.239157 128.16 
L 727.795145 17.28 
z
" clip-path="url(#p98d8b5b281)" style="fill: #21599c"/>
   </g>
   <g id="patch_53">
    <path d="M 738.056271 17.28 
L 740.861085 17.28 
L 740.861085 59.531316 
L 744.999526 59.531316 
L 744.999526 17.28 
L 747.80434 17.28 
L 747.80434 128.16 
L 744.999526 128.16 
L 744.999526 81.156005 
L 740.861085 81.156005 
L 740.861085 128.16 
L 738.056271 128.16 
L 738.056271 17.28 
z
" clip-path="url(#p98d8b5b281)" style="fill: #177875"/>
   </g>
   <g id="patch_54">
    <path d="M 748.317396 17.28 
L 750.886274 17.28 
L 750.886274 57.749061 
L 754.589045 17.28 
L 757.572189 17.28 
L 752.773961 69.797102 
L 758.065465 128.16 
L 754.849563 128.16 
L 750.886274 84.48288 
L 750.886274 128.16 
L 748.317396 128.16 
L 748.317396 17.28 
z
" clip-path="url(#p98d8b5b281)" style="fill: #bd2e1f"/>
   </g>
   <g id="patch_55">
    <path d="M 758.578522 17.28 
L 762.116056 17.28 
L 762.116056 106.559074 
L 768.326591 106.559074 
L 768.326591 128.16 
L 758.578522 128.16 
L 758.578522 17.28 
z
" clip-path="url(#p98d8b5b281)" style="fill: #21599c"/>
   </g>
   <g id="patch_56">
    <path d="M 771.944914 17.28 
L 775.482449 17.28 
L 775.482449 128.16 
L 771.944914 128.16 
L 771.944914 17.28 
z
" clip-path="url(#p98d8b5b281)" style="fill: #21599c"/>
   </g>
   <g id="patch_57">
    <path d="M 788.036061 22.570907 
L 788.036061 45.200413 
Q 787.019424 41.260863 786.050441 39.268184 
Q 785.084106 37.252601 784.223671 37.252601 
Q 783.082602 37.252601 782.534571 39.978219 
Q 781.989187 42.680934 781.989187 48.407023 
Q 781.989187 52.713043 782.357189 55.118 
Q 782.72519 57.500054 783.694173 59.217881 
L 785.049689 61.57703 
Q 787.109439 65.173014 787.977816 72.479504 
Q 788.848841 79.76309 788.848841 93.230853 
Q 788.848841 110.890114 787.63629 119.525057 
Q 786.423738 128.16 783.932447 128.16 
Q 782.759608 128.16 781.576178 126.21313 
Q 780.392749 124.289163 779.20932 120.48704 
L 779.20932 97.239116 
Q 780.392749 102.667449 781.496753 105.438876 
Q 782.600758 108.187399 783.627985 108.187399 
Q 784.671098 108.187399 785.224424 105.186928 
Q 785.77775 102.163553 785.77775 96.574889 
Q 785.77775 91.581739 785.401806 88.856121 
Q 785.025862 86.130502 783.900677 83.977492 
L 782.666945 81.618343 
Q 780.8137 78.18269 779.955913 70.67006 
Q 779.100772 63.15743 779.100772 50.422607 
Q 779.100772 34.458269 780.292144 25.869134 
Q 781.483516 17.28 783.718 17.28 
Q 784.737285 17.28 785.812167 18.608453 
Q 786.887049 19.936906 788.036061 22.570907 
z
" clip-path="url(#p98d8b5b281)" style="fill: #40ba47"/>
   </g>
   <g id="patch_58">
    <path d="M 794.495881 111.578719 
L 794.304981 111.578719 
Q 791.963414 111.578719 790.66164 99.152512 
Q 789.361898 86.706798 789.361898 64.526897 
Q 789.361898 42.38601 790.659609 29.842759 
Q 791.957321 17.28 794.235932 17.28 
Q 796.538914 17.28 797.82444 29.725714 
Q 799.109967 42.151921 799.109967 64.526897 
Q 799.109967 79.879212 798.427602 90.978916 
Q 797.745237 102.078621 796.463772 107.677241 
L 798.372769 128.16 
L 796.043387 128.16 
L 794.495881 111.578719 
z
M 794.235932 34.290443 
Q 793.118966 34.290443 792.503619 42.210443 
Q 791.888272 50.130443 791.888272 64.526897 
Q 791.888272 79.157438 792.489403 86.940887 
Q 793.092565 94.704828 794.235932 94.704828 
Q 795.358991 94.704828 795.974338 86.784828 
Q 796.589685 78.84532 796.589685 64.526897 
Q 796.589685 50.130443 795.974338 42.210443 
Q 795.358991 34.290443 794.235932 34.290443 
z
" clip-path="url(#p98d8b5b281)" style="fill: #40ba47"/>
   </g>
   <g id="patch_59">
    <path d="M 799.623023 17.28 
L 802.034629 17.28 
L 804.500047 99.121132 
L 806.96148 17.28 
L 809.371092 17.28 
L 805.92708 128.16 
L 803.067035 128.16 
L 799.623023 17.28 
z
" clip-path="url(#p98d8b5b281)" style="fill: #21599c"/>
   </g>
   <g id="patch_60">
    <path d="M 819.632218 118.127891 
Q 818.649109 123.143945 817.591721 125.663425 
Q 816.534333 128.16 815.407035 128.16 
Q 812.859691 128.16 811.37192 113.226358 
Q 809.884149 98.292716 809.884149 72.754357 
Q 809.884149 46.91824 811.398136 32.09912 
Q 812.914308 17.28 815.551224 17.28 
Q 816.567103 17.28 817.497779 19.295584 
Q 818.43064 21.288263 819.256452 25.227812 
L 819.256452 47.330518 
Q 818.404424 42.268655 817.561135 39.77208 
Q 816.717847 37.252601 815.870188 37.252601 
Q 814.301584 37.252601 813.451741 46.460153 
Q 812.601898 55.644801 812.601898 72.754357 
Q 812.601898 89.703582 813.421155 98.956943 
Q 814.240413 108.187399 815.747846 108.187399 
Q 816.158567 108.187399 816.510301 107.660599 
Q 816.862036 107.110894 817.141676 105.965677 
L 817.141676 85.214328 
L 815.535931 85.214328 
L 815.535931 66.73051 
L 819.632218 66.73051 
L 819.632218 118.127891 
z
" clip-path="url(#p98d8b5b281)" style="fill: #787800"/>
   </g>
   <g id="patch_61">
    <path d="M 820.145274 17.28 
L 823.2765 17.28 
L 827.233083 93.322863 
L 827.233083 17.28 
L 829.893343 17.28 
L 829.893343 128.16 
L 826.759785 128.16 
L 822.803202 52.117137 
L 822.803202 128.16 
L 820.145274 128.16 
L 820.145274 17.28 
z
" clip-path="url(#p98d8b5b281)" style="fill: #40ba47"/>
   </g>
   <g id="patch_62">
    <path d="M 830.406399 17.28 
L 832.091991 17.28 
L 833.270297 97.861672 
L 834.439831 17.28 
L 836.134194 17.28 
L 837.303728 97.861672 
L 838.483496 17.28 
L 840.154469 17.28 
L 838.546359 128.16 
L 836.518679 128.16 
L 835.280434 43.871239 
L 834.056809 128.16 
L 832.027666 128.16 
L 830.406399 17.28 
z
" clip-path="url(#p98d8b5b281)" style="fill: #21599c"/>
   </g>
   <g id="patch_63">
    <path d="M 840.667525 17.28 
L 843.472339 17.28 
L 843.472339 59.531316 
L 847.61078 59.531316 
L 847.61078 17.28 
L 850.415594 17.28 
L 850.415594 128.16 
L 847.61078 128.16 
L 847.61078 81.156005 
L 843.472339 81.156005 
L 843.472339 128.16 
L 840.667525 128.16 
L 840.667525 17.28 
z
" clip-path="url(#p98d8b5b281)" style="fill: #177875"/>
   </g>
   <g id="patch_64">
    <path d="M 850.92865 17.28 
L 853.733464 17.28 
L 853.733464 59.531316 
L 857.871905 59.531316 
L 857.871905 17.28 
L 860.676719 17.28 
L 860.676719 128.16 
L 857.871905 128.16 
L 857.871905 81.156005 
L 853.733464 81.156005 
L 853.733464 128.16 
L 850.92865 128.16 
L 850.92865 17.28 
z
" clip-path="url(#p98d8b5b281)" style="fill: #177875"/>
   </g>
   <g id="patch_65">
    <path d="M 861.189776 17.28 
L 863.601381 17.28 
L 866.0668 99.121132 
L 868.528232 17.28 
L 870.937845 17.28 
L 867.493833 128.16 
L 864.633788 128.16 
L 861.189776 17.28 
z
" clip-path="url(#p98d8b5b281)" style="fill: #21599c"/>
   </g>
   <g id="patch_66">
    <path d="M 871.450901 17.28 
L 873.862507 17.28 
L 876.327925 99.121132 
L 878.789358 17.28 
L 881.19897 17.28 
L 877.754958 128.16 
L 874.894913 128.16 
L 871.450901 17.28 
z
" clip-path="url(#p98d8b5b281)" style="fill: #21599c"/>
   </g>
   <g id="patch_67">
    <path d="M 881.712026 17.28 
L 885.249561 17.28 
L 885.249561 106.559074 
L 891.460096 106.559074 
L 891.460096 128.16 
L 881.712026 128.16 
L 881.712026 17.28 
z
" clip-path="url(#p98d8b5b281)" style="fill: #21599c"/>
   </g>
   <g id="patch_68">
    <path d="M 894.644434 38.904689 
L 894.644434 106.559074 
L 895.601476 106.559074 
Q 897.237997 106.559074 898.101779 97.861672 
Q 898.96778 89.164269 898.96778 72.601183 
Q 898.96778 56.13315 898.10622 47.530802 
Q 897.24688 38.904689 895.601476 38.904689 
L 894.644434 38.904689 
z
M 891.973152 17.28 
L 894.788767 17.28 
Q 897.149177 17.28 898.303846 20.892036 
Q 899.458514 24.480309 900.284547 33.106421 
Q 901.012876 40.615654 901.365938 50.429936 
Q 901.721221 60.220454 901.721221 72.601183 
Q 901.721221 85.172019 901.365938 95.010064 
Q 901.012876 104.84811 900.284547 112.333579 
Q 899.451853 120.959691 898.286081 124.571727 
Q 897.12031 128.16 894.788767 128.16 
L 891.973152 128.16 
L 891.973152 17.28 
z
" clip-path="url(#p98d8b5b281)" style="fill: #6b296b"/>
   </g>
   <g id="patch_69">
    <path d="M 902.234277 17.28 
L 905.109864 17.28 
L 907.104555 76.617197 
L 909.112395 17.28 
L 911.982346 17.28 
L 911.982346 128.16 
L 909.846787 128.16 
L 909.846787 47.055534 
L 907.827678 106.844235 
L 906.39458 106.844235 
L 904.375472 47.055534 
L 904.375472 128.16 
L 902.234277 128.16 
L 902.234277 17.28 
z
" clip-path="url(#p98d8b5b281)" style="fill: #21599c"/>
   </g>
   <g id="patch_70">
    <path d="M 912.495403 17.28 
L 914.907008 17.28 
L 917.372427 99.121132 
L 919.833859 17.28 
L 922.243472 17.28 
L 918.79946 128.16 
L 915.939415 128.16 
L 912.495403 17.28 
z
" clip-path="url(#p98d8b5b281)" style="fill: #21599c"/>
   </g>
   <g id="patch_71">
    <path d="M 929.509024 107.961114 
L 925.760073 107.961114 
L 925.168134 128.16 
L 922.756528 128.16 
L 926.20054 17.28 
L 929.060585 17.28 
L 932.504597 128.16 
L 930.094985 128.16 
L 929.509024 107.961114 
z
M 926.357992 87.382015 
L 928.905126 87.382015 
L 927.633552 43.277154 
L 926.357992 87.382015 
z
" clip-path="url(#p98d8b5b281)" style="fill: #21599c"/>
   </g>
   <g id="patch_72">
    <path d="M 933.017654 17.28 
L 938.084619 17.28 
Q 940.346475 17.28 941.55483 26.690304 
Q 942.765723 36.076845 942.765723 53.447887 
Q 942.765723 70.913982 941.55483 80.300523 
Q 940.346475 89.687064 938.084619 89.687064 
L 936.071541 89.687064 
L 936.071541 128.16 
L 933.017654 128.16 
L 933.017654 17.28 
z
M 936.071541 38.00168 
L 936.071541 68.965384 
L 937.759683 68.965384 
Q 938.648179 68.965384 939.133044 64.925607 
Q 939.617909 60.885829 939.617909 53.447887 
Q 939.617909 46.033708 939.133044 42.017694 
Q 938.648179 38.00168 937.759683 38.00168 
L 936.071541 38.00168 
z
" clip-path="url(#p98d8b5b281)" style="fill: #787800"/>
   </g>
   <g id="patch_73">
    <path d="M 943.278779 17.28 
L 945.847657 17.28 
L 945.847657 57.749061 
L 949.550428 17.28 
L 952.533572 17.28 
L 947.735344 69.797102 
L 953.026848 128.16 
L 949.810946 128.16 
L 945.847657 84.48288 
L 945.847657 128.16 
L 943.278779 128.16 
L 943.278779 17.28 
z
" clip-path="url(#p98d8b5b281)" style="fill: #bd2e1f"/>
   </g>
   <g id="patch_74">
    <path d="M 962.475193 22.570907 
L 962.475193 45.200413 
Q 961.458556 41.260863 960.489573 39.268184 
Q 959.523239 37.252601 958.662803 37.252601 
Q 957.521734 37.252601 956.973703 39.978219 
Q 956.428319 42.680934 956.428319 48.407023 
Q 956.428319 52.713043 956.796321 55.118 
Q 957.164322 57.500054 958.133305 59.217881 
L 959.488821 61.57703 
Q 961.548571 65.173014 962.416948 72.479504 
Q 963.287974 79.76309 963.287974 93.230853 
Q 963.287974 110.890114 962.075422 119.525057 
Q 960.86287 128.16 958.371579 128.16 
Q 957.19874 128.16 956.01531 126.21313 
Q 954.831881 124.289163 953.648452 120.48704 
L 953.648452 97.239116 
Q 954.831881 102.667449 955.935886 105.438876 
Q 957.03989 108.187399 958.067117 108.187399 
Q 959.11023 108.187399 959.663556 105.186928 
Q 960.216882 102.163553 960.216882 96.574889 
Q 960.216882 91.581739 959.840938 88.856121 
Q 959.464994 86.130502 958.339809 83.977492 
L 957.106077 81.618343 
Q 955.252832 78.18269 954.395045 70.67006 
Q 953.539904 63.15743 953.539904 50.422607 
Q 953.539904 34.458269 954.731276 25.869134 
Q 955.922648 17.28 958.157132 17.28 
Q 959.176417 17.28 960.251299 18.608453 
Q 961.326181 19.936906 962.475193 22.570907 
z
" clip-path="url(#p98d8b5b281)" style="fill: #40ba47"/>
   </g>
   <g id="patch_75">
    <path d="M 963.80103 17.28 
L 967.338564 17.28 
L 967.338564 106.559074 
L 973.549099 106.559074 
L 973.549099 128.16 
L 963.80103 128.16 
L 963.80103 17.28 
z
" clip-path="url(#p98d8b5b281)" style="fill: #21599c"/>
   </g>
   <g id="patch_76">
    <path d="M 974.062155 17.28 
L 983.607323 17.28 
L 983.607323 38.904689 
L 977.59969 38.904689 
L 977.59969 59.531316 
L 983.251511 59.531316 
L 983.251511 81.156005 
L 977.59969 81.156005 
L 977.59969 106.559074 
L 983.810224 106.559074 
L 983.810224 128.16 
L 974.062155 128.16 
L 974.062155 17.28 
z
" clip-path="url(#p98d8b5b281)" style="fill: #6b296b"/>
   </g>
   <g id="patch_77">
    <path d="M 994.07135 118.127891 
Q 993.088241 123.143945 992.030853 125.663425 
Q 990.973465 128.16 989.846167 128.16 
Q 987.298823 128.16 985.811052 113.226358 
Q 984.323281 98.292716 984.323281 72.754357 
Q 984.323281 46.91824 985.837268 32.09912 
Q 987.35344 17.28 989.990356 17.28 
Q 991.006235 17.28 991.936911 19.295584 
Q 992.869772 21.288263 993.695584 25.227812 
L 993.695584 47.330518 
Q 992.843556 42.268655 992.000267 39.77208 
Q 991.156979 37.252601 990.30932 37.252601 
Q 988.740716 37.252601 987.890873 46.460153 
Q 987.04103 55.644801 987.04103 72.754357 
Q 987.04103 89.703582 987.860287 98.956943 
Q 988.679545 108.187399 990.186978 108.187399 
Q 990.597699 108.187399 990.949433 107.660599 
Q 991.301168 107.110894 991.580808 105.965677 
L 991.580808 85.214328 
L 989.975063 85.214328 
L 989.975063 66.73051 
L 994.07135 66.73051 
L 994.07135 118.127891 
z
" clip-path="url(#p98d8b5b281)" style="fill: #787800"/>
   </g>
   <g id="patch_78">
    <path d="M 1003.519695 22.570907 
L 1003.519695 45.200413 
Q 1002.503058 41.260863 1001.534075 39.268184 
Q 1000.56774 37.252601 999.707305 37.252601 
Q 998.566235 37.252601 998.018204 39.978219 
Q 997.472821 42.680934 997.472821 48.407023 
Q 997.472821 52.713043 997.840822 55.118 
Q 998.208824 57.500054 999.177806 59.217881 
L 1000.533323 61.57703 
Q 1002.593072 65.173014 1003.46145 72.479504 
Q 1004.332475 79.76309 1004.332475 93.230853 
Q 1004.332475 110.890114 1003.119923 119.525057 
Q 1001.907372 128.16 999.416081 128.16 
Q 998.243241 128.16 997.059812 126.21313 
Q 995.876383 124.289163 994.692953 120.48704 
L 994.692953 97.239116 
Q 995.876383 102.667449 996.980387 105.438876 
Q 998.084392 108.187399 999.111619 108.187399 
Q 1000.154731 108.187399 1000.708057 105.186928 
Q 1001.261383 102.163553 1001.261383 96.574889 
Q 1001.261383 91.581739 1000.885439 88.856121 
Q 1000.509495 86.130502 999.384311 83.977492 
L 998.150579 81.618343 
Q 996.297334 78.18269 995.439546 70.67006 
Q 994.584406 63.15743 994.584406 50.422607 
Q 994.584406 34.458269 995.775778 25.869134 
Q 996.96715 17.28 999.201634 17.28 
Q 1000.220919 17.28 1001.295801 18.608453 
Q 1002.370683 19.936906 1003.519695 22.570907 
z
" clip-path="url(#p98d8b5b281)" style="fill: #40ba47"/>
   </g>
   <g id="patch_79">
    <path d="M 1004.845531 17.28 
L 1008.383066 17.28 
L 1008.383066 106.559074 
L 1014.593601 106.559074 
L 1014.593601 128.16 
L 1004.845531 128.16 
L 1004.845531 17.28 
z
" clip-path="url(#p98d8b5b281)" style="fill: #21599c"/>
   </g>
   <g id="patch_80">
    <path d="M 1015.106657 17.28 
L 1024.854726 17.28 
L 1024.854726 38.904689 
L 1021.347688 38.904689 
L 1021.347688 128.16 
L 1018.620496 128.16 
L 1018.620496 38.904689 
L 1015.106657 38.904689 
L 1015.106657 17.28 
z
" clip-path="url(#p98d8b5b281)" style="fill: #40ba47"/>
   </g>
   <g id="patch_81">
    <path d="M 1025.367782 17.28 
L 1035.115851 17.28 
L 1035.115851 38.904689 
L 1031.608814 38.904689 
L 1031.608814 128.16 
L 1028.881621 128.16 
L 1028.881621 38.904689 
L 1025.367782 38.904689 
L 1025.367782 17.28 
z
" clip-path="url(#p98d8b5b281)" style="fill: #40ba47"/>
   </g>
   <g id="patch_82">
    <path d="M 1039.584143 66.446464 
Q 1040.458969 66.446464 1040.838524 63.119589 
Q 1041.218078 59.76895 1041.218078 52.117137 
Q 1041.218078 44.536614 1040.838524 41.281029 
Q 1040.458969 38.00168 1039.584143 38.00168 
L 1038.413078 38.00168 
L 1038.413078 66.446464 
L 1039.584143 66.446464 
z
M 1038.413078 86.193845 
L 1038.413078 128.16 
L 1035.628908 128.16 
L 1035.628908 17.28 
L 1039.88038 17.28 
Q 1042.014217 17.28 1043.007076 24.646652 
Q 1044.002249 31.989541 1044.002249 47.887252 
Q 1044.002249 58.865941 1043.483833 65.923669 
Q 1042.967732 72.981397 1041.926271 76.332036 
Q 1042.497917 77.662786 1042.949217 82.391702 
Q 1043.402831 87.096854 1043.865702 96.673502 
L 1045.376977 128.16 
L 1042.412286 128.16 
L 1041.095417 100.618225 
Q 1040.697348 92.301037 1040.287707 89.259323 
Q 1039.88038 86.193845 1039.19996 86.193845 
L 1038.413078 86.193845 
z
" clip-path="url(#p98d8b5b281)" style="fill: #bd2e1f"/>
   </g>
   <g id="patch_83">
    <path d="M 1048.9953 17.28 
L 1052.532835 17.28 
L 1052.532835 128.16 
L 1048.9953 128.16 
L 1048.9953 17.28 
z
" clip-path="url(#p98d8b5b281)" style="fill: #21599c"/>
   </g>
   <g id="patch_84">
    <path d="M 1061.285142 111.578719 
L 1061.094242 111.578719 
Q 1058.752674 111.578719 1057.450901 99.152512 
Q 1056.151159 86.706798 1056.151159 64.526897 
Q 1056.151159 42.38601 1057.44887 29.842759 
Q 1058.746582 17.28 1061.025193 17.28 
Q 1063.328174 17.28 1064.613701 29.725714 
Q 1065.899228 42.151921 1065.899228 64.526897 
Q 1065.899228 79.879212 1065.216863 90.978916 
Q 1064.534498 102.078621 1063.253033 107.677241 
L 1065.16203 128.16 
L 1062.832648 128.16 
L 1061.285142 111.578719 
z
M 1061.025193 34.290443 
Q 1059.908227 34.290443 1059.29288 42.210443 
Q 1058.677533 50.130443 1058.677533 64.526897 
Q 1058.677533 79.157438 1059.278664 86.940887 
Q 1059.881826 94.704828 1061.025193 94.704828 
Q 1062.148252 94.704828 1062.763599 86.784828 
Q 1063.378946 78.84532 1063.378946 64.526897 
Q 1063.378946 50.130443 1062.763599 42.210443 
Q 1062.148252 34.290443 1061.025193 34.290443 
z
" clip-path="url(#p98d8b5b281)" style="fill: #40ba47"/>
   </g>
   <g id="patch_85">
    <path d="M 1071.546267 111.578719 
L 1071.355367 111.578719 
Q 1069.0138 111.578719 1067.712026 99.152512 
Q 1066.412284 86.706798 1066.412284 64.526897 
Q 1066.412284 42.38601 1067.709996 29.842759 
Q 1069.007707 17.28 1071.286318 17.28 
Q 1073.5893 17.28 1074.874826 29.725714 
Q 1076.160353 42.151921 1076.160353 64.526897 
Q 1076.160353 79.879212 1075.477988 90.978916 
Q 1074.795623 102.078621 1073.514158 107.677241 
L 1075.423155 128.16 
L 1073.093773 128.16 
L 1071.546267 111.578719 
z
M 1071.286318 34.290443 
Q 1070.169352 34.290443 1069.554005 42.210443 
Q 1068.938659 50.130443 1068.938659 64.526897 
Q 1068.938659 79.157438 1069.539789 86.940887 
Q 1070.142951 94.704828 1071.286318 94.704828 
Q 1072.409377 94.704828 1073.024724 86.784828 
Q 1073.640071 78.84532 1073.640071 64.526897 
Q 1073.640071 50.130443 1073.024724 42.210443 
Q 1072.409377 34.290443 1071.286318 34.290443 
z
" clip-path="url(#p98d8b5b281)" style="fill: #40ba47"/>
   </g>
   <g id="patch_86">
    <path d="M 1076.673409 17.28 
L 1079.548996 17.28 
L 1081.543687 76.617197 
L 1083.551527 17.28 
L 1086.421478 17.28 
L 1086.421478 128.16 
L 1084.285919 128.16 
L 1084.285919 47.055534 
L 1082.26681 106.844235 
L 1080.833712 106.844235 
L 1078.814604 47.055534 
L 1078.814604 128.16 
L 1076.673409 128.16 
L 1076.673409 17.28 
z
" clip-path="url(#p98d8b5b281)" style="fill: #21599c"/>
   </g>
   <g id="patch_87">
    <path d="M 1095.869824 22.570907 
L 1095.869824 45.200413 
Q 1094.853186 41.260863 1093.884204 39.268184 
Q 1092.917869 37.252601 1092.057434 37.252601 
Q 1090.916364 37.252601 1090.368333 39.978219 
Q 1089.82295 42.680934 1089.82295 48.407023 
Q 1089.82295 52.713043 1090.190951 55.118 
Q 1090.558953 57.500054 1091.527935 59.217881 
L 1092.883451 61.57703 
Q 1094.943201 65.173014 1095.811579 72.479504 
Q 1096.682604 79.76309 1096.682604 93.230853 
Q 1096.682604 110.890114 1095.470052 119.525057 
Q 1094.2575 128.16 1091.766209 128.16 
Q 1090.59337 128.16 1089.409941 126.21313 
Q 1088.226511 124.289163 1087.043082 120.48704 
L 1087.043082 97.239116 
Q 1088.226511 102.667449 1089.330516 105.438876 
Q 1090.43452 108.187399 1091.461748 108.187399 
Q 1092.50486 108.187399 1093.058186 105.186928 
Q 1093.611512 102.163553 1093.611512 96.574889 
Q 1093.611512 91.581739 1093.235568 88.856121 
Q 1092.859624 86.130502 1091.73444 83.977492 
L 1090.500708 81.618343 
Q 1088.647463 78.18269 1087.789675 70.67006 
Q 1086.934535 63.15743 1086.934535 50.422607 
Q 1086.934535 34.458269 1088.125907 25.869134 
Q 1089.317278 17.28 1091.551763 17.28 
Q 1092.571047 17.28 1093.645929 18.608453 
Q 1094.720812 19.936906 1095.869824 22.570907 
z
" clip-path="url(#p98d8b5b281)" style="fill: #40ba47"/>
   </g>
   <g id="patch_88">
    <path d="M 1097.19566 17.28 
L 1106.943729 17.28 
L 1106.943729 38.904689 
L 1103.436691 38.904689 
L 1103.436691 128.16 
L 1100.709499 128.16 
L 1100.709499 38.904689 
L 1097.19566 38.904689 
L 1097.19566 17.28 
z
" clip-path="url(#p98d8b5b281)" style="fill: #40ba47"/>
   </g>
   <g id="patch_89">
    <path d="M 1107.456786 17.28 
L 1117.001954 17.28 
L 1117.001954 38.904689 
L 1110.99432 38.904689 
L 1110.99432 59.531316 
L 1116.646142 59.531316 
L 1116.646142 81.156005 
L 1110.99432 81.156005 
L 1110.99432 106.559074 
L 1117.204855 106.559074 
L 1117.204855 128.16 
L 1107.456786 128.16 
L 1107.456786 17.28 
z
" clip-path="url(#p98d8b5b281)" style="fill: #6b296b"/>
   </g>
   <g id="patch_90">
    <path d="M 1126.6532 22.570907 
L 1126.6532 45.200413 
Q 1125.636562 41.260863 1124.66758 39.268184 
Q 1123.701245 37.252601 1122.84081 37.252601 
Q 1121.69974 37.252601 1121.151709 39.978219 
Q 1120.606326 42.680934 1120.606326 48.407023 
Q 1120.606326 52.713043 1120.974327 55.118 
Q 1121.342329 57.500054 1122.311311 59.217881 
L 1123.666828 61.57703 
Q 1125.726577 65.173014 1126.594955 72.479504 
Q 1127.46598 79.76309 1127.46598 93.230853 
Q 1127.46598 110.890114 1126.253428 119.525057 
Q 1125.040877 128.16 1122.549586 128.16 
Q 1121.376746 128.16 1120.193317 126.21313 
Q 1119.009888 124.289163 1117.826458 120.48704 
L 1117.826458 97.239116 
Q 1119.009888 102.667449 1120.113892 105.438876 
Q 1121.217897 108.187399 1122.245124 108.187399 
Q 1123.288236 108.187399 1123.841562 105.186928 
Q 1124.394888 102.163553 1124.394888 96.574889 
Q 1124.394888 91.581739 1124.018944 88.856121 
Q 1123.643 86.130502 1122.517816 83.977492 
L 1121.284084 81.618343 
Q 1119.430839 78.18269 1118.573051 70.67006 
Q 1117.717911 63.15743 1117.717911 50.422607 
Q 1117.717911 34.458269 1118.909283 25.869134 
Q 1120.100655 17.28 1122.335139 17.28 
Q 1123.354424 17.28 1124.429306 18.608453 
Q 1125.504188 19.936906 1126.6532 22.570907 
z
" clip-path="url(#p98d8b5b281)" style="fill: #40ba47"/>
   </g>
   <g id="patch_91">
    <path d="M 1136.914325 22.570907 
L 1136.914325 45.200413 
Q 1135.897688 41.260863 1134.928705 39.268184 
Q 1133.962371 37.252601 1133.101935 37.252601 
Q 1131.960866 37.252601 1131.412835 39.978219 
Q 1130.867451 42.680934 1130.867451 48.407023 
Q 1130.867451 52.713043 1131.235453 55.118 
Q 1131.603454 57.500054 1132.572437 59.217881 
L 1133.927953 61.57703 
Q 1135.987703 65.173014 1136.85608 72.479504 
Q 1137.727106 79.76309 1137.727106 93.230853 
Q 1137.727106 110.890114 1136.514554 119.525057 
Q 1135.302002 128.16 1132.810711 128.16 
Q 1131.637872 128.16 1130.454442 126.21313 
Q 1129.271013 124.289163 1128.087584 120.48704 
L 1128.087584 97.239116 
Q 1129.271013 102.667449 1130.375018 105.438876 
Q 1131.479022 108.187399 1132.506249 108.187399 
Q 1133.549362 108.187399 1134.102688 105.186928 
Q 1134.656014 102.163553 1134.656014 96.574889 
Q 1134.656014 91.581739 1134.28007 88.856121 
Q 1133.904126 86.130502 1132.778941 83.977492 
L 1131.545209 81.618343 
Q 1129.691964 78.18269 1128.834177 70.67006 
Q 1127.979036 63.15743 1127.979036 50.422607 
Q 1127.979036 34.458269 1129.170408 25.869134 
Q 1130.36178 17.28 1132.596264 17.28 
Q 1133.615549 17.28 1134.690431 18.608453 
Q 1135.765313 19.936906 1136.914325 22.570907 
z
" clip-path="url(#p98d8b5b281)" style="fill: #40ba47"/>
   </g>
   <g id="patch_92">
    <path d="M 1138.240162 17.28 
L 1140.651768 17.28 
L 1143.117186 99.121132 
L 1145.578618 17.28 
L 1147.988231 17.28 
L 1144.544219 128.16 
L 1141.684174 128.16 
L 1138.240162 17.28 
z
" clip-path="url(#p98d8b5b281)" style="fill: #21599c"/>
   </g>
   <g id="patch_93">
    <path d="M 1151.606555 17.28 
L 1155.144089 17.28 
L 1155.144089 128.16 
L 1151.606555 128.16 
L 1151.606555 17.28 
z
" clip-path="url(#p98d8b5b281)" style="fill: #21599c"/>
   </g>
   <g id="patch_94">
    <path d="M 1162.717648 66.446464 
Q 1163.592474 66.446464 1163.972029 63.119589 
Q 1164.351583 59.76895 1164.351583 52.117137 
Q 1164.351583 44.536614 1163.972029 41.281029 
Q 1163.592474 38.00168 1162.717648 38.00168 
L 1161.546583 38.00168 
L 1161.546583 66.446464 
L 1162.717648 66.446464 
z
M 1161.546583 86.193845 
L 1161.546583 128.16 
L 1158.762413 128.16 
L 1158.762413 17.28 
L 1163.013885 17.28 
Q 1165.147722 17.28 1166.140581 24.646652 
Q 1167.135754 31.989541 1167.135754 47.887252 
Q 1167.135754 58.865941 1166.617338 65.923669 
Q 1166.101237 72.981397 1165.059776 76.332036 
Q 1165.631422 77.662786 1166.082722 82.391702 
Q 1166.536336 87.096854 1166.999207 96.673502 
L 1168.510482 128.16 
L 1165.545791 128.16 
L 1164.228922 100.618225 
Q 1163.830853 92.301037 1163.421212 89.259323 
Q 1163.013885 86.193845 1162.333465 86.193845 
L 1161.546583 86.193845 
z
" clip-path="url(#p98d8b5b281)" style="fill: #bd2e1f"/>
   </g>
   <g id="patch_95">
    <path d="M 1171.69482 38.904689 
L 1171.69482 106.559074 
L 1172.651863 106.559074 
Q 1174.288384 106.559074 1175.152165 97.861672 
Q 1176.018166 89.164269 1176.018166 72.601183 
Q 1176.018166 56.13315 1175.156606 47.530802 
Q 1174.297266 38.904689 1172.651863 38.904689 
L 1171.69482 38.904689 
z
M 1169.023538 17.28 
L 1171.839153 17.28 
Q 1174.199563 17.28 1175.354232 20.892036 
Q 1176.5089 24.480309 1177.334933 33.106421 
Q 1178.063262 40.615654 1178.416325 50.429936 
Q 1178.771607 60.220454 1178.771607 72.601183 
Q 1178.771607 85.172019 1178.416325 95.010064 
Q 1178.063262 104.84811 1177.334933 112.333579 
Q 1176.502239 120.959691 1175.336468 124.571727 
Q 1174.170696 128.16 1171.839153 128.16 
L 1169.023538 128.16 
L 1169.023538 17.28 
z
" clip-path="url(#p98d8b5b281)" style="fill: #6b296b"/>
   </g>
   <g id="patch_96">
    <path d="M 1183.239899 66.446464 
Q 1184.114725 66.446464 1184.49428 63.119589 
Q 1184.873834 59.76895 1184.873834 52.117137 
Q 1184.873834 44.536614 1184.49428 41.281029 
Q 1184.114725 38.00168 1183.239899 38.00168 
L 1182.068834 38.00168 
L 1182.068834 66.446464 
L 1183.239899 66.446464 
z
M 1182.068834 86.193845 
L 1182.068834 128.16 
L 1179.284663 128.16 
L 1179.284663 17.28 
L 1183.536136 17.28 
Q 1185.669973 17.28 1186.662832 24.646652 
Q 1187.658005 31.989541 1187.658005 47.887252 
Q 1187.658005 58.865941 1187.139589 65.923669 
Q 1186.623488 72.981397 1185.582027 76.332036 
Q 1186.153673 77.662786 1186.604973 82.391702 
Q 1187.058587 87.096854 1187.521458 96.673502 
L 1189.032733 128.16 
L 1186.068042 128.16 
L 1184.751173 100.618225 
Q 1184.353104 92.301037 1183.943463 89.259323 
Q 1183.536136 86.193845 1182.855715 86.193845 
L 1182.068834 86.193845 
z
" clip-path="url(#p98d8b5b281)" style="fill: #bd2e1f"/>
   </g>
   <g id="patch_97">
    <path d="M 1189.545789 17.28 
L 1192.240843 17.28 
L 1194.417776 56.798526 
L 1196.59266 17.28 
L 1199.293858 17.28 
L 1195.652668 81.441166 
L 1195.652668 128.16 
L 1193.189027 128.16 
L 1193.189027 81.441166 
L 1189.545789 17.28 
z
" clip-path="url(#p98d8b5b281)" style="fill: #177875"/>
   </g>
   <g id="patch_98">
    <path d="M 1199.806914 17.28 
L 1202.682501 17.28 
L 1204.677192 76.617197 
L 1206.685032 17.28 
L 1209.554983 17.28 
L 1209.554983 128.16 
L 1207.419424 128.16 
L 1207.419424 47.055534 
L 1205.400315 106.844235 
L 1203.967217 106.844235 
L 1201.948109 47.055534 
L 1201.948109 128.16 
L 1199.806914 128.16 
L 1199.806914 17.28 
z
" clip-path="url(#p98d8b5b281)" style="fill: #21599c"/>
   </g>
   <g id="patch_99">
    <path d="M 1210.06804 17.28 
L 1213.605574 17.28 
L 1213.605574 106.559074 
L 1219.816109 106.559074 
L 1219.816109 128.16 
L 1210.06804 128.16 
L 1210.06804 17.28 
z
" clip-path="url(#p98d8b5b281)" style="fill: #21599c"/>
   </g>
   <g id="patch_100">
    <path d="M 1220.329165 17.28 
L 1230.077234 17.28 
L 1230.077234 38.904689 
L 1226.570196 38.904689 
L 1226.570196 128.16 
L 1223.843004 128.16 
L 1223.843004 38.904689 
L 1220.329165 38.904689 
L 1220.329165 17.28 
z
" clip-path="url(#p98d8b5b281)" style="fill: #40ba47"/>
   </g>
   <g id="patch_101">
    <path d="M 1230.590291 17.28 
L 1233.465877 17.28 
L 1235.460569 76.617197 
L 1237.468408 17.28 
L 1240.33836 17.28 
L 1240.33836 128.16 
L 1238.2028 128.16 
L 1238.2028 47.055534 
L 1236.183691 106.844235 
L 1234.750594 106.844235 
L 1232.731485 47.055534 
L 1232.731485 128.16 
L 1230.590291 128.16 
L 1230.590291 17.28 
z
" clip-path="url(#p98d8b5b281)" style="fill: #21599c"/>
   </g>
   <g id="patch_102">
    <path d="M 1240.851416 17.28 
L 1244.388951 17.28 
L 1244.388951 106.559074 
L 1250.599485 106.559074 
L 1250.599485 128.16 
L 1240.851416 128.16 
L 1240.851416 17.28 
z
" clip-path="url(#p98d8b5b281)" style="fill: #21599c"/>
   </g>
   <g id="patch_103">
    <path d="M 1251.112541 17.28 
L 1254.650076 17.28 
L 1254.650076 106.559074 
L 1260.860611 106.559074 
L 1260.860611 128.16 
L 1251.112541 128.16 
L 1251.112541 17.28 
z
" clip-path="url(#p98d8b5b281)" style="fill: #21599c"/>
   </g>
   <g id="patch_104">
    <path d="M 1261.373667 17.28 
L 1271.121736 17.28 
L 1271.121736 38.904689 
L 1267.614698 38.904689 
L 1267.614698 128.16 
L 1264.887506 128.16 
L 1264.887506 38.904689 
L 1261.373667 38.904689 
L 1261.373667 17.28 
z
" clip-path="url(#p98d8b5b281)" style="fill: #40ba47"/>
   </g>
   <g id="patch_105">
    <path d="M 1271.634792 17.28 
L 1281.17996 17.28 
L 1281.17996 38.904689 
L 1275.172327 38.904689 
L 1275.172327 59.531316 
L 1280.824148 59.531316 
L 1280.824148 81.156005 
L 1275.172327 81.156005 
L 1275.172327 106.559074 
L 1281.382861 106.559074 
L 1281.382861 128.16 
L 1271.634792 128.16 
L 1271.634792 17.28 
z
" clip-path="url(#p98d8b5b281)" style="fill: #6b296b"/>
   </g>
   <g id="patch_106">
    <path d="M 1281.895918 17.28 
L 1284.307523 17.28 
L 1286.772942 99.121132 
L 1289.234374 17.28 
L 1291.643987 17.28 
L 1288.199975 128.16 
L 1285.33993 128.16 
L 1281.895918 17.28 
z
" clip-path="url(#p98d8b5b281)" style="fill: #21599c"/>
   </g>
   <g id="patch_107">
    <path d="M 1298.909539 107.961114 
L 1295.160588 107.961114 
L 1294.568649 128.16 
L 1292.157043 128.16 
L 1295.601055 17.28 
L 1298.4611 17.28 
L 1301.905112 128.16 
L 1299.495499 128.16 
L 1298.909539 107.961114 
z
M 1295.758507 87.382015 
L 1298.305641 87.382015 
L 1297.034067 43.277154 
L 1295.758507 87.382015 
z
" clip-path="url(#p98d8b5b281)" style="fill: #21599c"/>
   </g>
   <g id="patch_108">
    <path d="M 1302.418168 17.28 
L 1304.987046 17.28 
L 1304.987046 57.749061 
L 1308.689818 17.28 
L 1311.672962 17.28 
L 1306.874734 69.797102 
L 1312.166238 128.16 
L 1308.950336 128.16 
L 1304.987046 84.48288 
L 1304.987046 128.16 
L 1302.418168 128.16 
L 1302.418168 17.28 
z
" clip-path="url(#p98d8b5b281)" style="fill: #bd2e1f"/>
   </g>
   <g id="patch_109">
    <path d="M 1322.427363 118.127891 
Q 1321.444254 123.143945 1320.386866 125.663425 
Q 1319.329478 128.16 1318.20218 128.16 
Q 1315.654836 128.16 1314.167065 113.226358 
Q 1312.679294 98.292716 1312.679294 72.754357 
Q 1312.679294 46.91824 1314.193281 32.09912 
Q 1315.709453 17.28 1318.346369 17.28 
Q 1319.362248 17.28 1320.292925 19.295584 
Q 1321.225786 21.288263 1322.051597 25.227812 
L 1322.051597 47.330518 
Q 1321.199569 42.268655 1320.356281 39.77208 
Q 1319.512992 37.252601 1318.665334 37.252601 
Q 1317.096729 37.252601 1316.246886 46.460153 
Q 1315.397043 55.644801 1315.397043 72.754357 
Q 1315.397043 89.703582 1316.216301 98.956943 
Q 1317.035558 108.187399 1318.542991 108.187399 
Q 1318.953712 108.187399 1319.305447 107.660599 
Q 1319.657181 107.110894 1319.936821 105.965677 
L 1319.936821 85.214328 
L 1318.331077 85.214328 
L 1318.331077 66.73051 
L 1322.427363 66.73051 
L 1322.427363 118.127891 
z
" clip-path="url(#p98d8b5b281)" style="fill: #787800"/>
   </g>
   <g id="patch_110">
    <path d="M 1322.940419 17.28 
L 1325.509297 17.28 
L 1325.509297 57.749061 
L 1329.212069 17.28 
L 1332.195213 17.28 
L 1327.396985 69.797102 
L 1332.688488 128.16 
L 1329.472587 128.16 
L 1325.509297 84.48288 
L 1325.509297 128.16 
L 1322.940419 128.16 
L 1322.940419 17.28 
z
" clip-path="url(#p98d8b5b281)" style="fill: #bd2e1f"/>
   </g>
   <g id="patch_111">
    <path d="M 1333.201545 17.28 
L 1335.770422 17.28 
L 1335.770422 57.749061 
L 1339.473194 17.28 
L 1342.456338 17.28 
L 1337.65811 69.797102 
L 1342.949614 128.16 
L 1339.733712 128.16 
L 1335.770422 84.48288 
L 1335.770422 128.16 
L 1333.201545 128.16 
L 1333.201545 17.28 
z
" clip-path="url(#p98d8b5b281)" style="fill: #bd2e1f"/>
   </g>
   <g id="patch_112">
    <path d="M 1343.46267 17.28 
L 1345.874276 17.28 
L 1348.339694 99.121132 
L 1350.801127 17.28 
L 1353.210739 17.28 
L 1349.766727 128.16 
L 1346.906682 128.16 
L 1343.46267 17.28 
z
" clip-path="url(#p98d8b5b281)" style="fill: #21599c"/>
   </g>
   <g id="patch_113">
    <path d="M 1353.825246 17.28 
L 1363.370414 17.28 
L 1363.370414 38.904689 
L 1357.362781 38.904689 
L 1357.362781 59.531316 
L 1363.014602 59.531316 
L 1363.014602 81.156005 
L 1357.362781 81.156005 
L 1357.362781 128.16 
L 1353.825246 128.16 
L 1353.825246 17.28 
z
" clip-path="url(#p98d8b5b281)" style="fill: #21599c"/>
   </g>
   <g id="patch_114">
    <path d="M 1370.737417 107.961114 
L 1366.988466 107.961114 
L 1366.396527 128.16 
L 1363.984921 128.16 
L 1367.428933 17.28 
L 1370.288978 17.28 
L 1373.73299 128.16 
L 1371.323377 128.16 
L 1370.737417 107.961114 
z
M 1367.586385 87.382015 
L 1370.133519 87.382015 
L 1368.861945 43.277154 
L 1367.586385 87.382015 
z
" clip-path="url(#p98d8b5b281)" style="fill: #21599c"/>
   </g>
   <g id="patch_115">
    <path d="M 1374.246046 17.28 
L 1376.657652 17.28 
L 1379.123071 99.121132 
L 1381.584503 17.28 
L 1383.994115 17.28 
L 1380.550103 128.16 
L 1377.690059 128.16 
L 1374.246046 17.28 
z
" clip-path="url(#p98d8b5b281)" style="fill: #21599c"/>
   </g>
   <g id="patch_116">
    <path d="M 1384.507172 17.28 
L 1386.918777 17.28 
L 1389.384196 99.121132 
L 1391.845628 17.28 
L 1394.255241 17.28 
L 1390.811229 128.16 
L 1387.951184 128.16 
L 1384.507172 17.28 
z
" clip-path="url(#p98d8b5b281)" style="fill: #21599c"/>
   </g>
   <g id="patch_117">
    <path d="M 1404.516366 118.127891 
Q 1403.533258 123.143945 1402.47587 125.663425 
Q 1401.418481 128.16 1400.291183 128.16 
Q 1397.74384 128.16 1396.256068 113.226358 
Q 1394.768297 98.292716 1394.768297 72.754357 
Q 1394.768297 46.91824 1396.282285 32.09912 
Q 1397.798457 17.28 1400.435373 17.28 
Q 1401.451252 17.28 1402.381928 19.295584 
Q 1403.314789 21.288263 1404.1406 25.227812 
L 1404.1406 47.330518 
Q 1403.288573 42.268655 1402.445284 39.77208 
Q 1401.601995 37.252601 1400.754337 37.252601 
Q 1399.185732 37.252601 1398.335889 46.460153 
Q 1397.486047 55.644801 1397.486047 72.754357 
Q 1397.486047 89.703582 1398.305304 98.956943 
Q 1399.124561 108.187399 1400.631995 108.187399 
Q 1401.042715 108.187399 1401.39445 107.660599 
Q 1401.746184 107.110894 1402.025824 105.965677 
L 1402.025824 85.214328 
L 1400.42008 85.214328 
L 1400.42008 66.73051 
L 1404.516366 66.73051 
L 1404.516366 118.127891 
z
" clip-path="url(#p98d8b5b281)" style="fill: #787800"/>
   </g>
   <g id="patch_118">
    <path d="M 1411.781919 107.961114 
L 1408.032968 107.961114 
L 1407.441028 128.16 
L 1405.029423 128.16 
L 1408.473435 17.28 
L 1411.33348 17.28 
L 1414.777492 128.16 
L 1412.367879 128.16 
L 1411.781919 107.961114 
z
M 1408.630887 87.382015 
L 1411.178021 87.382015 
L 1409.906447 43.277154 
L 1408.630887 87.382015 
z
" clip-path="url(#p98d8b5b281)" style="fill: #21599c"/>
   </g>
   <g id="patch_119">
    <path d="M 1415.290548 17.28 
L 1420.357513 17.28 
Q 1422.61937 17.28 1423.827724 26.690304 
Q 1425.038617 36.076845 1425.038617 53.447887 
Q 1425.038617 70.913982 1423.827724 80.300523 
Q 1422.61937 89.687064 1420.357513 89.687064 
L 1418.344435 89.687064 
L 1418.344435 128.16 
L 1415.290548 128.16 
L 1415.290548 17.28 
z
M 1418.344435 38.00168 
L 1418.344435 68.965384 
L 1420.032577 68.965384 
Q 1420.921073 68.965384 1421.405938 64.925607 
Q 1421.890803 60.885829 1421.890803 53.447887 
Q 1421.890803 46.033708 1421.405938 42.017694 
Q 1420.921073 38.00168 1420.032577 38.00168 
L 1418.344435 38.00168 
z
" clip-path="url(#p98d8b5b281)" style="fill: #787800"/>
   </g>
   <g id="patch_120">
    <path d="M 1425.551673 17.28 
L 1428.356487 17.28 
L 1428.356487 59.531316 
L 1432.494929 59.531316 
L 1432.494929 17.28 
L 1435.299743 17.28 
L 1435.299743 128.16 
L 1432.494929 128.16 
L 1432.494929 81.156005 
L 1428.356487 81.156005 
L 1428.356487 128.16 
L 1425.551673 128.16 
L 1425.551673 17.28 
z
" clip-path="url(#p98d8b5b281)" style="fill: #177875"/>
   </g>
   <g id="patch_121">
    <path d="M 1435.812799 17.28 
L 1438.224405 17.28 
L 1440.689823 99.121132 
L 1443.151255 17.28 
L 1445.560868 17.28 
L 1442.116856 128.16 
L 1439.256811 128.16 
L 1435.812799 17.28 
z
" clip-path="url(#p98d8b5b281)" style="fill: #21599c"/>
   </g>
   <g id="patch_122">
    <path d="M 1449.179192 17.28 
L 1452.716726 17.28 
L 1452.716726 128.16 
L 1449.179192 128.16 
L 1449.179192 17.28 
z
" clip-path="url(#p98d8b5b281)" style="fill: #21599c"/>
   </g>
   <g id="patch_123">
    <path d="M 1456.33505 17.28 
L 1459.210636 17.28 
L 1461.205328 76.617197 
L 1463.213167 17.28 
L 1466.083119 17.28 
L 1466.083119 128.16 
L 1463.947559 128.16 
L 1463.947559 47.055534 
L 1461.92845 106.844235 
L 1460.495353 106.844235 
L 1458.476244 47.055534 
L 1458.476244 128.16 
L 1456.33505 128.16 
L 1456.33505 17.28 
z
" clip-path="url(#p98d8b5b281)" style="fill: #21599c"/>
   </g>
   <g id="patch_124">
    <path d="M 1471.730158 111.578719 
L 1471.539258 111.578719 
Q 1469.197691 111.578719 1467.895918 99.152512 
Q 1466.596175 86.706798 1466.596175 64.526897 
Q 1466.596175 42.38601 1467.893887 29.842759 
Q 1469.191598 17.28 1471.47021 17.28 
Q 1473.773191 17.28 1475.058718 29.725714 
Q 1476.344244 42.151921 1476.344244 64.526897 
Q 1476.344244 79.879212 1475.661879 90.978916 
Q 1474.979515 102.078621 1473.69805 107.677241 
L 1475.607046 128.16 
L 1473.277664 128.16 
L 1471.730158 111.578719 
z
M 1471.47021 34.290443 
Q 1470.353243 34.290443 1469.737897 42.210443 
Q 1469.12255 50.130443 1469.12255 64.526897 
Q 1469.12255 79.157438 1469.723681 86.940887 
Q 1470.326842 94.704828 1471.47021 94.704828 
Q 1472.593268 94.704828 1473.208615 86.784828 
Q 1473.823962 78.84532 1473.823962 64.526897 
Q 1473.823962 50.130443 1473.208615 42.210443 
Q 1472.593268 34.290443 1471.47021 34.290443 
z
" clip-path="url(#p98d8b5b281)" style="fill: #40ba47"/>
   </g>
   <g id="patch_125">
    <path d="M 1476.8573 17.28 
L 1486.402469 17.28 
L 1486.402469 38.904689 
L 1480.394835 38.904689 
L 1480.394835 59.531316 
L 1486.046657 59.531316 
L 1486.046657 81.156005 
L 1480.394835 81.156005 
L 1480.394835 106.559074 
L 1486.60537 106.559074 
L 1486.60537 128.16 
L 1476.8573 128.16 
L 1476.8573 17.28 
z
" clip-path="url(#p98d8b5b281)" style="fill: #6b296b"/>
   </g>
   <g id="patch_126">
    <path d="M 1487.118426 17.28 
L 1492.185391 17.28 
Q 1494.447248 17.28 1495.655602 26.690304 
Q 1496.866495 36.076845 1496.866495 53.447887 
Q 1496.866495 70.913982 1495.655602 80.300523 
Q 1494.447248 89.687064 1492.185391 89.687064 
L 1490.172313 89.687064 
L 1490.172313 128.16 
L 1487.118426 128.16 
L 1487.118426 17.28 
z
M 1490.172313 38.00168 
L 1490.172313 68.965384 
L 1491.860455 68.965384 
Q 1492.748951 68.965384 1493.233816 64.925607 
Q 1493.718681 60.885829 1493.718681 53.447887 
Q 1493.718681 46.033708 1493.233816 42.017694 
Q 1492.748951 38.00168 1491.860455 38.00168 
L 1490.172313 38.00168 
z
" clip-path="url(#p98d8b5b281)" style="fill: #787800"/>
   </g>
   <g id="patch_127">
    <path d="M 1507.12762 118.127891 
Q 1506.144512 123.143945 1505.087124 125.663425 
Q 1504.029736 128.16 1502.902438 128.16 
Q 1500.355094 128.16 1498.867323 113.226358 
Q 1497.379551 98.292716 1497.379551 72.754357 
Q 1497.379551 46.91824 1498.893539 32.09912 
Q 1500.409711 17.28 1503.046627 17.28 
Q 1504.062506 17.28 1504.993182 19.295584 
Q 1505.926043 21.288263 1506.751854 25.227812 
L 1506.751854 47.330518 
Q 1505.899827 42.268655 1505.056538 39.77208 
Q 1504.213249 37.252601 1503.365591 37.252601 
Q 1501.796986 37.252601 1500.947144 46.460153 
Q 1500.097301 55.644801 1500.097301 72.754357 
Q 1500.097301 89.703582 1500.916558 98.956943 
Q 1501.735815 108.187399 1503.243249 108.187399 
Q 1503.65397 108.187399 1504.005704 107.660599 
Q 1504.357439 107.110894 1504.637078 105.965677 
L 1504.637078 85.214328 
L 1503.031334 85.214328 
L 1503.031334 66.73051 
L 1507.12762 66.73051 
L 1507.12762 118.127891 
z
" clip-path="url(#p98d8b5b281)" style="fill: #787800"/>
   </g>
   <g id="patch_128">
    <path d="M 1507.640677 17.28 
L 1511.178211 17.28 
L 1511.178211 106.559074 
L 1517.388746 106.559074 
L 1517.388746 128.16 
L 1507.640677 128.16 
L 1507.640677 17.28 
z
" clip-path="url(#p98d8b5b281)" style="fill: #21599c"/>
   </g>
   <g id="patch_129">
    <path d="M 1527.649871 120.212188 
Q 1526.834462 124.151737 1525.95274 126.144416 
Q 1525.071017 128.16 1524.110701 128.16 
Q 1521.246945 128.16 1519.574373 113.226358 
Q 1517.901802 98.292716 1517.901802 72.754357 
Q 1517.901802 47.124379 1519.574373 32.213642 
Q 1521.246945 17.28 1524.110701 17.28 
Q 1525.071017 17.28 1525.95274 19.295584 
Q 1526.834462 21.288263 1527.649871 25.227812 
L 1527.649871 47.330518 
Q 1526.827094 42.108325 1526.028877 39.680463 
Q 1525.23066 37.252601 1524.348938 37.252601 
Q 1522.767241 37.252601 1521.860957 46.712101 
Q 1520.95713 56.148697 1520.95713 72.754357 
Q 1520.95713 89.291303 1521.860957 98.750804 
Q 1522.767241 108.187399 1524.348938 108.187399 
Q 1525.23066 108.187399 1526.028877 105.759537 
Q 1526.827094 103.308771 1527.649871 98.086577 
L 1527.649871 120.212188 
z
" clip-path="url(#p98d8b5b281)" style="fill: #6b296b"/>
   </g>
   <g id="patch_130">
    <path d="M 1528.162928 17.28 
L 1537.708096 17.28 
L 1537.708096 38.904689 
L 1531.700462 38.904689 
L 1531.700462 59.531316 
L 1537.352284 59.531316 
L 1537.352284 81.156005 
L 1531.700462 81.156005 
L 1531.700462 106.559074 
L 1537.910997 106.559074 
L 1537.910997 128.16 
L 1528.162928 128.16 
L 1528.162928 17.28 
z
" clip-path="url(#p98d8b5b281)" style="fill: #6b296b"/>
   </g>
   <g id="patch_131">
    <path d="M 1538.525503 17.28 
L 1548.070672 17.28 
L 1548.070672 38.904689 
L 1542.063038 38.904689 
L 1542.063038 59.531316 
L 1547.71486 59.531316 
L 1547.71486 81.156005 
L 1542.063038 81.156005 
L 1542.063038 128.16 
L 1538.525503 128.16 
L 1538.525503 17.28 
z
" clip-path="url(#p98d8b5b281)" style="fill: #21599c"/>
   </g>
   <g id="patch_132">
    <path d="M 1548.786629 17.28 
L 1558.331797 17.28 
L 1558.331797 38.904689 
L 1552.324163 38.904689 
L 1552.324163 59.531316 
L 1557.975985 59.531316 
L 1557.975985 81.156005 
L 1552.324163 81.156005 
L 1552.324163 128.16 
L 1548.786629 128.16 
L 1548.786629 17.28 
z
" clip-path="url(#p98d8b5b281)" style="fill: #21599c"/>
   </g>
   <g id="patch_133">
    <path d="M 1558.946304 17.28 
L 1562.07753 17.28 
L 1566.034113 93.322863 
L 1566.034113 17.28 
L 1568.694373 17.28 
L 1568.694373 128.16 
L 1565.560815 128.16 
L 1561.604232 52.117137 
L 1561.604232 128.16 
L 1558.946304 128.16 
L 1558.946304 17.28 
z
" clip-path="url(#p98d8b5b281)" style="fill: #40ba47"/>
   </g>
   <g id="patch_134">
    <path d="M 1569.207429 17.28 
L 1572.338655 17.28 
L 1576.295238 93.322863 
L 1576.295238 17.28 
L 1578.955498 17.28 
L 1578.955498 128.16 
L 1575.821941 128.16 
L 1571.865358 52.117137 
L 1571.865358 128.16 
L 1569.207429 128.16 
L 1569.207429 17.28 
z
" clip-path="url(#p98d8b5b281)" style="fill: #40ba47"/>
   </g>
   <g id="patch_135">
    <path d="M 1579.468555 17.28 
L 1582.037432 17.28 
L 1582.037432 57.749061 
L 1585.740204 17.28 
L 1588.723348 17.28 
L 1583.92512 69.797102 
L 1589.216624 128.16 
L 1586.000722 128.16 
L 1582.037432 84.48288 
L 1582.037432 128.16 
L 1579.468555 128.16 
L 1579.468555 17.28 
z
" clip-path="url(#p98d8b5b281)" style="fill: #bd2e1f"/>
   </g>
   <g id="patch_136">
    <path d="M 1589.72968 17.28 
L 1592.424734 17.28 
L 1594.601667 56.798526 
L 1596.776551 17.28 
L 1599.477749 17.28 
L 1595.836559 81.441166 
L 1595.836559 128.16 
L 1593.372918 128.16 
L 1593.372918 81.441166 
L 1589.72968 17.28 
z
" clip-path="url(#p98d8b5b281)" style="fill: #177875"/>
   </g>
   <g id="patch_137">
    <path d="M 1599.990805 17.28 
L 1602.559683 17.28 
L 1602.559683 57.749061 
L 1606.262455 17.28 
L 1609.245599 17.28 
L 1604.447371 69.797102 
L 1609.738875 128.16 
L 1606.522973 128.16 
L 1602.559683 84.48288 
L 1602.559683 128.16 
L 1599.990805 128.16 
L 1599.990805 17.28 
z
" clip-path="url(#p98d8b5b281)" style="fill: #bd2e1f"/>
   </g>
   <g id="patch_138">
    <path d="M 1610.251931 17.28 
L 1613.383157 17.28 
L 1617.33974 93.322863 
L 1617.33974 17.28 
L 1620 17.28 
L 1620 128.16 
L 1616.866442 128.16 
L 1612.909859 52.117137 
L 1612.909859 128.16 
L 1610.251931 128.16 
L 1610.251931 17.28 
z
" clip-path="url(#p98d8b5b281)" style="fill: #40ba47"/>
   </g>
   <g id="matplotlib.axis_1">
    <g id="xtick_1">
     <g id="line2d_2">
      <defs>
       <path id="mc89f5f1efa" d="M 0 0 
L 0 3.5 
" style="stroke: #000000; stroke-width: 0.8"/>
      </defs>
      <g>
       <use xlink:href="#mc89f5f1efa" x="229.874035" y="128.16" style="stroke: #000000; stroke-width: 0.8"/>
      </g>
     </g>
     <g id="text_1">
      <!-- 0 -->
      <g transform="translate(226.692785 142.758438) scale(0.1 -0.1)">
       <defs>
        <path id="DejaVuSans-30" d="M 2034 4250 
Q 1547 4250 1301 3770 
Q 1056 3291 1056 2328 
Q 1056 1369 1301 889 
Q 1547 409 2034 409 
Q 2525 409 2770 889 
Q 3016 1369 3016 2328 
Q 3016 3291 2770 3770 
Q 2525 4250 2034 4250 
z
M 2034 4750 
Q 2819 4750 3233 4129 
Q 3647 3509 3647 2328 
Q 3647 1150 3233 529 
Q 2819 -91 2034 -91 
Q 1250 -91 836 529 
Q 422 1150 422 2328 
Q 422 3509 836 4129 
Q 1250 4750 2034 4750 
z
" transform="scale(0.015625)"/>
       </defs>
       <use xlink:href="#DejaVuSans-30"/>
      </g>
     </g>
    </g>
    <g id="xtick_2">
     <g id="line2d_3">
      <g>
       <use xlink:href="#mc89f5f1efa" x="435.096543" y="128.16" style="stroke: #000000; stroke-width: 0.8"/>
      </g>
     </g>
     <g id="text_2">
      <!-- 20 -->
      <g transform="translate(428.734043 142.758438) scale(0.1 -0.1)">
       <defs>
        <path id="DejaVuSans-32" d="M 1228 531 
L 3431 531 
L 3431 0 
L 469 0 
L 469 531 
Q 828 903 1448 1529 
Q 2069 2156 2228 2338 
Q 2531 2678 2651 2914 
Q 2772 3150 2772 3378 
Q 2772 3750 2511 3984 
Q 2250 4219 1831 4219 
Q 1534 4219 1204 4116 
Q 875 4013 500 3803 
L 500 4441 
Q 881 4594 1212 4672 
Q 1544 4750 1819 4750 
Q 2544 4750 2975 4387 
Q 3406 4025 3406 3419 
Q 3406 3131 3298 2873 
Q 3191 2616 2906 2266 
Q 2828 2175 2409 1742 
Q 1991 1309 1228 531 
z
" transform="scale(0.015625)"/>
       </defs>
       <use xlink:href="#DejaVuSans-32"/>
       <use xlink:href="#DejaVuSans-30" x="63.623047"/>
      </g>
     </g>
    </g>
    <g id="xtick_3">
     <g id="line2d_4">
      <g>
       <use xlink:href="#mc89f5f1efa" x="640.319051" y="128.16" style="stroke: #000000; stroke-width: 0.8"/>
      </g>
     </g>
     <g id="text_3">
      <!-- 40 -->
      <g transform="translate(633.956551 142.758438) scale(0.1 -0.1)">
       <defs>
        <path id="DejaVuSans-34" d="M 2419 4116 
L 825 1625 
L 2419 1625 
L 2419 4116 
z
M 2253 4666 
L 3047 4666 
L 3047 1625 
L 3713 1625 
L 3713 1100 
L 3047 1100 
L 3047 0 
L 2419 0 
L 2419 1100 
L 313 1100 
L 313 1709 
L 2253 4666 
z
" transform="scale(0.015625)"/>
       </defs>
       <use xlink:href="#DejaVuSans-34"/>
       <use xlink:href="#DejaVuSans-30" x="63.623047"/>
      </g>
     </g>
    </g>
    <g id="xtick_4">
     <g id="line2d_5">
      <g>
       <use xlink:href="#mc89f5f1efa" x="845.541559" y="128.16" style="stroke: #000000; stroke-width: 0.8"/>
      </g>
     </g>
     <g id="text_4">
      <!-- 60 -->
      <g transform="translate(839.179059 142.758438) scale(0.1 -0.1)">
       <defs>
        <path id="DejaVuSans-36" d="M 2113 2584 
Q 1688 2584 1439 2293 
Q 1191 2003 1191 1497 
Q 1191 994 1439 701 
Q 1688 409 2113 409 
Q 2538 409 2786 701 
Q 3034 994 3034 1497 
Q 3034 2003 2786 2293 
Q 2538 2584 2113 2584 
z
M 3366 4563 
L 3366 3988 
Q 3128 4100 2886 4159 
Q 2644 4219 2406 4219 
Q 1781 4219 1451 3797 
Q 1122 3375 1075 2522 
Q 1259 2794 1537 2939 
Q 1816 3084 2150 3084 
Q 2853 3084 3261 2657 
Q 3669 2231 3669 1497 
Q 3669 778 3244 343 
Q 2819 -91 2113 -91 
Q 1303 -91 875 529 
Q 447 1150 447 2328 
Q 447 3434 972 4092 
Q 1497 4750 2381 4750 
Q 2619 4750 2861 4703 
Q 3103 4656 3366 4563 
z
" transform="scale(0.015625)"/>
       </defs>
       <use xlink:href="#DejaVuSans-36"/>
       <use xlink:href="#DejaVuSans-30" x="63.623047"/>
      </g>
     </g>
    </g>
    <g id="xtick_5">
     <g id="line2d_6">
      <g>
       <use xlink:href="#mc89f5f1efa" x="1050.764068" y="128.16" style="stroke: #000000; stroke-width: 0.8"/>
      </g>
     </g>
     <g id="text_5">
      <!-- 80 -->
      <g transform="translate(1044.401568 142.758438) scale(0.1 -0.1)">
       <defs>
        <path id="DejaVuSans-38" d="M 2034 2216 
Q 1584 2216 1326 1975 
Q 1069 1734 1069 1313 
Q 1069 891 1326 650 
Q 1584 409 2034 409 
Q 2484 409 2743 651 
Q 3003 894 3003 1313 
Q 3003 1734 2745 1975 
Q 2488 2216 2034 2216 
z
M 1403 2484 
Q 997 2584 770 2862 
Q 544 3141 544 3541 
Q 544 4100 942 4425 
Q 1341 4750 2034 4750 
Q 2731 4750 3128 4425 
Q 3525 4100 3525 3541 
Q 3525 3141 3298 2862 
Q 3072 2584 2669 2484 
Q 3125 2378 3379 2068 
Q 3634 1759 3634 1313 
Q 3634 634 3220 271 
Q 2806 -91 2034 -91 
Q 1263 -91 848 271 
Q 434 634 434 1313 
Q 434 1759 690 2068 
Q 947 2378 1403 2484 
z
M 1172 3481 
Q 1172 3119 1398 2916 
Q 1625 2713 2034 2713 
Q 2441 2713 2670 2916 
Q 2900 3119 2900 3481 
Q 2900 3844 2670 4047 
Q 2441 4250 2034 4250 
Q 1625 4250 1398 4047 
Q 1172 3844 1172 3481 
z
" transform="scale(0.015625)"/>
       </defs>
       <use xlink:href="#DejaVuSans-38"/>
       <use xlink:href="#DejaVuSans-30" x="63.623047"/>
      </g>
     </g>
    </g>
    <g id="xtick_6">
     <g id="line2d_7">
      <g>
       <use xlink:href="#mc89f5f1efa" x="1255.986576" y="128.16" style="stroke: #000000; stroke-width: 0.8"/>
      </g>
     </g>
     <g id="text_6">
      <!-- 100 -->
      <g transform="translate(1246.442826 142.758438) scale(0.1 -0.1)">
       <defs>
        <path id="DejaVuSans-31" d="M 794 531 
L 1825 531 
L 1825 4091 
L 703 3866 
L 703 4441 
L 1819 4666 
L 2450 4666 
L 2450 531 
L 3481 531 
L 3481 0 
L 794 0 
L 794 531 
z
" transform="scale(0.015625)"/>
       </defs>
       <use xlink:href="#DejaVuSans-31"/>
       <use xlink:href="#DejaVuSans-30" x="63.623047"/>
       <use xlink:href="#DejaVuSans-30" x="127.246094"/>
      </g>
     </g>
    </g>
    <g id="xtick_7">
     <g id="line2d_8">
      <g>
       <use xlink:href="#mc89f5f1efa" x="1461.209084" y="128.16" style="stroke: #000000; stroke-width: 0.8"/>
      </g>
     </g>
     <g id="text_7">
      <!-- 120 -->
      <g transform="translate(1451.665334 142.758438) scale(0.1 -0.1)">
       <use xlink:href="#DejaVuSans-31"/>
       <use xlink:href="#DejaVuSans-32" x="63.623047"/>
       <use xlink:href="#DejaVuSans-30" x="127.246094"/>
      </g>
     </g>
    </g>
   </g>
   <g id="matplotlib.axis_2">
    <g id="ytick_1">
     <g id="line2d_9">
      <defs>
       <path id="md6c673ec4f" d="M 0 0 
L -3.5 0 
" style="stroke: #000000; stroke-width: 0.8"/>
      </defs>
      <g>
       <use xlink:href="#md6c673ec4f" x="225" y="128.16" style="stroke: #000000; stroke-width: 0.8"/>
      </g>
     </g>
     <g id="text_8">
      <!-- 0.0 -->
      <g transform="translate(202.096875 131.959219) scale(0.1 -0.1)">
       <defs>
        <path id="DejaVuSans-2e" d="M 684 794 
L 1344 794 
L 1344 0 
L 684 0 
L 684 794 
z
" transform="scale(0.015625)"/>
       </defs>
       <use xlink:href="#DejaVuSans-30"/>
       <use xlink:href="#DejaVuSans-2e" x="63.623047"/>
       <use xlink:href="#DejaVuSans-30" x="95.410156"/>
      </g>
     </g>
    </g>
    <g id="ytick_2">
     <g id="line2d_10">
      <g>
       <use xlink:href="#md6c673ec4f" x="225" y="100.44" style="stroke: #000000; stroke-width: 0.8"/>
      </g>
     </g>
     <g id="text_9">
      <!-- 0.5 -->
      <g transform="translate(202.096875 104.239219) scale(0.1 -0.1)">
       <defs>
        <path id="DejaVuSans-35" d="M 691 4666 
L 3169 4666 
L 3169 4134 
L 1269 4134 
L 1269 2991 
Q 1406 3038 1543 3061 
Q 1681 3084 1819 3084 
Q 2600 3084 3056 2656 
Q 3513 2228 3513 1497 
Q 3513 744 3044 326 
Q 2575 -91 1722 -91 
Q 1428 -91 1123 -41 
Q 819 9 494 109 
L 494 744 
Q 775 591 1075 516 
Q 1375 441 1709 441 
Q 2250 441 2565 725 
Q 2881 1009 2881 1497 
Q 2881 1984 2565 2268 
Q 2250 2553 1709 2553 
Q 1456 2553 1204 2497 
Q 953 2441 691 2322 
L 691 4666 
z
" transform="scale(0.015625)"/>
       </defs>
       <use xlink:href="#DejaVuSans-30"/>
       <use xlink:href="#DejaVuSans-2e" x="63.623047"/>
       <use xlink:href="#DejaVuSans-35" x="95.410156"/>
      </g>
     </g>
    </g>
    <g id="ytick_3">
     <g id="line2d_11">
      <g>
       <use xlink:href="#md6c673ec4f" x="225" y="72.72" style="stroke: #000000; stroke-width: 0.8"/>
      </g>
     </g>
     <g id="text_10">
      <!-- 1.0 -->
      <g transform="translate(202.096875 76.519219) scale(0.1 -0.1)">
       <use xlink:href="#DejaVuSans-31"/>
       <use xlink:href="#DejaVuSans-2e" x="63.623047"/>
       <use xlink:href="#DejaVuSans-30" x="95.410156"/>
      </g>
     </g>
    </g>
    <g id="ytick_4">
     <g id="line2d_12">
      <g>
       <use xlink:href="#md6c673ec4f" x="225" y="45" style="stroke: #000000; stroke-width: 0.8"/>
      </g>
     </g>
     <g id="text_11">
      <!-- 1.5 -->
      <g transform="translate(202.096875 48.799219) scale(0.1 -0.1)">
       <use xlink:href="#DejaVuSans-31"/>
       <use xlink:href="#DejaVuSans-2e" x="63.623047"/>
       <use xlink:href="#DejaVuSans-35" x="95.410156"/>
      </g>
     </g>
    </g>
    <g id="ytick_5">
     <g id="line2d_13">
      <g>
       <use xlink:href="#md6c673ec4f" x="225" y="17.28" style="stroke: #000000; stroke-width: 0.8"/>
      </g>
     </g>
     <g id="text_12">
      <!-- 2.0 -->
      <g transform="translate(202.096875 21.079219) scale(0.1 -0.1)">
       <use xlink:href="#DejaVuSans-32"/>
       <use xlink:href="#DejaVuSans-2e" x="63.623047"/>
       <use xlink:href="#DejaVuSans-30" x="95.410156"/>
      </g>
     </g>
    </g>
   </g>
  </g>
 </g>
 <defs>
  <clipPath id="p98d8b5b281">
   <rect x="225" y="17.28" width="1395" height="110.88"/>
  </clipPath>
 </defs>
</svg>
