<?xml version="1.0" encoding="utf-8" standalone="no"?>
<!DOCTYPE svg PUBLIC "-//W3C//DTD SVG 1.1//EN"
  "http://www.w3.org/Graphics/SVG/1.1/DTD/svg11.dtd">
<svg xmlns:xlink="http://www.w3.org/1999/xlink" width="1800pt" height="144pt" viewBox="0 0 1800 144" xmlns="http://www.w3.org/2000/svg" version="1.1">
 <metadata>
  <rdf:RDF xmlns:dc="http://purl.org/dc/elements/1.1/" xmlns:cc="http://creativecommons.org/ns#" xmlns:rdf="http://www.w3.org/1999/02/22-rdf-syntax-ns#">
   <cc:Work>
    <dc:type rdf:resource="http://purl.org/dc/dcmitype/StillImage"/>
    <dc:date>2025-05-09T21:10:11.632923</dc:date>
    <dc:format>image/svg+xml</dc:format>
    <dc:creator>
     <cc:Agent>
      <dc:title>Matplotlib v3.8.0, https://matplotlib.org/</dc:title>
     </cc:Agent>
    </dc:creator>
   </cc:Work>
  </rdf:RDF>
 </metadata>
 <defs>
  <style type="text/css">*{stroke-linejoin: round; stroke-linecap: butt}</style>
 </defs>
 <g id="figure_1">
  <g id="patch_1">
   <path d="M 0 144 
L 1800 144 
L 1800 0 
L 0 0 
z
" style="fill: #ffffff"/>
  </g>
  <g id="axes_1">
   <g id="patch_2">
    <path d="M 225 128.16 
L 1620 128.16 
L 1620 17.28 
L 225 17.28 
z
" style="fill: #ffffff"/>
   </g>
   <g id="line2d_1">
    <path d="M 225 128.16 
L 1620 128.16 
" clip-path="url(#ped20700980)" style="fill: none; stroke: #000000; stroke-width: 1.5; stroke-linecap: square"/>
   </g>
   <g id="patch_3">
    <path d="M 225 17.28 
L 230.927763 17.28 
L 235.039641 76.617197 
L 239.178621 17.28 
L 245.094769 17.28 
L 245.094769 128.16 
L 240.692504 128.16 
L 240.692504 47.055534 
L 236.530293 106.844235 
L 233.576091 106.844235 
L 229.41388 47.055534 
L 229.41388 128.16 
L 225 128.16 
L 225 17.28 
z
" clip-path="url(#ped20700980)" style="fill: #21599c"/>
   </g>
   <g id="patch_4">
    <path d="M 246.152388 17.28 
L 256.597482 17.28 
Q 261.260096 17.28 263.75101 26.690304 
Q 266.247157 36.076845 266.247157 53.447887 
Q 266.247157 70.913982 263.75101 80.300523 
Q 261.260096 89.687064 256.597482 89.687064 
L 252.447702 89.687064 
L 252.447702 128.16 
L 246.152388 128.16 
L 246.152388 17.28 
z
M 252.447702 38.00168 
L 252.447702 68.965384 
L 255.927656 68.965384 
Q 257.75921 68.965384 258.758716 64.925607 
Q 259.758221 60.885829 259.758221 53.447887 
Q 259.758221 46.033708 258.758716 42.017694 
Q 257.75921 38.00168 255.927656 38.00168 
L 252.447702 38.00168 
z
" clip-path="url(#ped20700980)" style="fill: #787800"/>
   </g>
   <g id="patch_5">
    <path d="M 273.706006 17.28 
L 280.998316 17.28 
L 280.998316 128.16 
L 273.706006 128.16 
L 273.706006 17.28 
z
" clip-path="url(#ped20700980)" style="fill: #21599c"/>
   </g>
   <g id="patch_6">
    <path d="M 288.457165 17.28 
L 293.428473 17.28 
L 298.510712 99.121132 
L 303.584733 17.28 
L 308.551933 17.28 
L 301.452412 128.16 
L 295.556686 128.16 
L 288.457165 17.28 
z
" clip-path="url(#ped20700980)" style="fill: #21599c"/>
   </g>
   <g id="patch_7">
    <path d="M 316.010782 17.28 
L 323.303092 17.28 
L 323.303092 128.16 
L 316.010782 128.16 
L 316.010782 17.28 
z
" clip-path="url(#ped20700980)" style="fill: #21599c"/>
   </g>
   <g id="patch_8">
    <path d="M 330.761941 17.28 
L 337.216682 17.28 
L 345.372823 93.322863 
L 345.372823 17.28 
L 350.85671 17.28 
L 350.85671 128.16 
L 344.397162 128.16 
L 336.241022 52.117137 
L 336.241022 128.16 
L 330.761941 128.16 
L 330.761941 17.28 
z
" clip-path="url(#ped20700980)" style="fill: #40ba47"/>
   </g>
   <g id="patch_9">
    <path d="M 351.914329 17.28 
L 359.206639 17.28 
L 359.206639 106.559074 
L 372.009098 106.559074 
L 372.009098 128.16 
L 351.914329 128.16 
L 351.914329 17.28 
z
" clip-path="url(#ped20700980)" style="fill: #21599c"/>
   </g>
   <g id="patch_10">
    <path d="M 378.573325 38.904689 
L 378.573325 106.559074 
L 380.546182 106.559074 
Q 383.919723 106.559074 385.70033 97.861672 
Q 387.485515 89.164269 387.485515 72.601183 
Q 387.485515 56.13315 385.709485 47.530802 
Q 383.938033 38.904689 380.546182 38.904689 
L 378.573325 38.904689 
z
M 373.066717 17.28 
L 378.870855 17.28 
Q 383.736627 17.28 386.116873 20.892036 
Q 388.497119 24.480309 390.199911 33.106421 
Q 391.701297 40.615654 392.429103 50.429936 
Q 393.161486 60.220454 393.161486 72.601183 
Q 393.161486 85.172019 392.429103 95.010064 
Q 391.701297 104.84811 390.199911 112.333579 
Q 388.483387 120.959691 386.080254 124.571727 
Q 383.677121 128.16 378.870855 128.16 
L 373.066717 128.16 
L 373.066717 17.28 
z
" clip-path="url(#ped20700980)" style="fill: #6b296b"/>
   </g>
   <g id="patch_11">
    <path d="M 400.620335 17.28 
L 407.912645 17.28 
L 407.912645 128.16 
L 400.620335 128.16 
L 400.620335 17.28 
z
" clip-path="url(#ped20700980)" style="fill: #21599c"/>
   </g>
   <g id="patch_12">
    <path d="M 415.371494 17.28 
L 421.299257 17.28 
L 425.411134 76.617197 
L 429.550115 17.28 
L 435.466262 17.28 
L 435.466262 128.16 
L 431.063998 128.16 
L 431.063998 47.055534 
L 426.901787 106.844235 
L 423.947585 106.844235 
L 419.785373 47.055534 
L 419.785373 128.16 
L 415.371494 128.16 
L 415.371494 17.28 
z
" clip-path="url(#ped20700980)" style="fill: #21599c"/>
   </g>
   <g id="patch_13">
    <path d="M 436.523882 17.28 
L 443.816191 17.28 
L 443.816191 106.559074 
L 456.61865 106.559074 
L 456.61865 128.16 
L 436.523882 128.16 
L 436.523882 17.28 
z
" clip-path="url(#ped20700980)" style="fill: #21599c"/>
   </g>
   <g id="patch_14">
    <path d="M 471.595934 107.961114 
L 463.867809 107.961114 
L 462.647578 128.16 
L 457.67627 128.16 
L 464.775792 17.28 
L 470.671517 17.28 
L 477.771039 128.16 
L 472.803839 128.16 
L 471.595934 107.961114 
z
M 465.100365 87.382015 
L 470.351052 87.382015 
L 467.729817 43.277154 
L 465.100365 87.382015 
z
" clip-path="url(#ped20700980)" style="fill: #21599c"/>
   </g>
   <g id="patch_15">
    <path d="M 478.828658 17.28 
L 484.124169 17.28 
L 484.124169 57.749061 
L 491.7571 17.28 
L 497.906583 17.28 
L 488.015467 69.797102 
L 498.923427 128.16 
L 492.294134 128.16 
L 484.124169 84.48288 
L 484.124169 128.16 
L 478.828658 128.16 
L 478.828658 17.28 
z
" clip-path="url(#ped20700980)" style="fill: #bd2e1f"/>
   </g>
   <g id="patch_16">
    <path d="M 508.134408 66.446464 
Q 509.937785 66.446464 510.720202 63.119589 
Q 511.50262 59.76895 511.50262 52.117137 
Q 511.50262 44.536614 510.720202 41.281029 
Q 509.937785 38.00168 508.134408 38.00168 
L 505.720364 38.00168 
L 505.720364 66.446464 
L 508.134408 66.446464 
z
M 505.720364 86.193845 
L 505.720364 128.16 
L 499.981046 128.16 
L 499.981046 17.28 
L 508.745075 17.28 
Q 513.143788 17.28 515.190477 24.646652 
Q 517.241937 31.989541 517.241937 47.887252 
Q 517.241937 58.865941 516.17327 65.923669 
Q 515.109373 72.981397 512.962496 76.332036 
Q 514.140893 77.662786 515.071206 82.391702 
Q 516.00629 87.096854 516.960458 96.673502 
L 520.075815 128.16 
L 513.964372 128.16 
L 511.249765 100.618225 
Q 510.429181 92.301037 509.584743 89.259323 
Q 508.745075 86.193845 507.342449 86.193845 
L 505.720364 86.193845 
z
" clip-path="url(#ped20700980)" style="fill: #bd2e1f"/>
   </g>
   <g id="patch_17">
    <path d="M 521.133434 17.28 
L 526.428945 17.28 
L 526.428945 57.749061 
L 534.061876 17.28 
L 540.211359 17.28 
L 530.320243 69.797102 
L 541.228203 128.16 
L 534.59891 128.16 
L 526.428945 84.48288 
L 526.428945 128.16 
L 521.133434 128.16 
L 521.133434 17.28 
z
" clip-path="url(#ped20700980)" style="fill: #bd2e1f"/>
   </g>
   <g id="patch_18">
    <path d="M 542.285823 17.28 
L 548.213586 17.28 
L 552.325463 76.617197 
L 556.464444 17.28 
L 562.380591 17.28 
L 562.380591 128.16 
L 557.978327 128.16 
L 557.978327 47.055534 
L 553.816116 106.844235 
L 550.861914 106.844235 
L 546.699702 47.055534 
L 546.699702 128.16 
L 542.285823 128.16 
L 542.285823 17.28 
z
" clip-path="url(#ped20700980)" style="fill: #21599c"/>
   </g>
   <g id="patch_19">
    <path d="M 581.857506 22.570907 
L 581.857506 45.200413 
Q 579.761799 41.260863 577.764329 39.268184 
Q 575.772317 37.252601 573.998607 37.252601 
Q 571.646394 37.252601 570.516678 39.978219 
Q 569.392418 42.680934 569.392418 48.407023 
Q 569.392418 52.713043 570.151021 55.118 
Q 570.909623 57.500054 572.907093 59.217881 
L 575.701368 61.57703 
Q 579.947357 65.173014 581.737439 72.479504 
Q 583.53298 79.76309 583.53298 93.230853 
Q 583.53298 110.890114 581.033413 119.525057 
Q 578.533846 128.16 573.398274 128.16 
Q 570.980571 128.16 568.541038 126.21313 
Q 566.101504 124.289163 563.661971 120.48704 
L 563.661971 97.239116 
Q 566.101504 102.667449 568.377311 105.438876 
Q 570.653117 108.187399 572.770654 108.187399 
Q 574.920936 108.187399 576.061568 105.186928 
Q 577.2022 102.163553 577.2022 96.574889 
Q 577.2022 91.581739 576.427225 88.856121 
Q 575.65225 86.130502 573.332783 83.977492 
L 570.789556 81.618343 
Q 566.969258 78.18269 565.201006 70.67006 
Q 563.438211 63.15743 563.438211 50.422607 
Q 563.438211 34.458269 565.894117 25.869134 
Q 568.350023 17.28 572.956211 17.28 
Q 575.057375 17.28 577.273148 18.608453 
Q 579.488921 19.936906 581.857506 22.570907 
z
" clip-path="url(#ped20700980)" style="fill: #40ba47"/>
   </g>
   <g id="patch_20">
    <path d="M 584.590599 17.28 
L 591.882909 17.28 
L 591.882909 106.559074 
L 604.685368 106.559074 
L 604.685368 128.16 
L 584.590599 128.16 
L 584.590599 17.28 
z
" clip-path="url(#ped20700980)" style="fill: #21599c"/>
   </g>
   <g id="patch_21">
    <path d="M 605.742987 17.28 
L 625.837756 17.28 
L 625.837756 38.904689 
L 618.608312 38.904689 
L 618.608312 128.16 
L 612.98645 128.16 
L 612.98645 38.904689 
L 605.742987 38.904689 
L 605.742987 17.28 
z
" clip-path="url(#ped20700980)" style="fill: #40ba47"/>
   </g>
   <g id="patch_22">
    <path d="M 626.895375 17.28 
L 646.571882 17.28 
L 646.571882 38.904689 
L 634.187685 38.904689 
L 634.187685 59.531316 
L 645.838408 59.531316 
L 645.838408 81.156005 
L 634.187685 81.156005 
L 634.187685 106.559074 
L 646.990144 106.559074 
L 646.990144 128.16 
L 626.895375 128.16 
L 626.895375 17.28 
z
" clip-path="url(#ped20700980)" style="fill: #6b296b"/>
   </g>
   <g id="patch_23">
    <path d="M 648.047763 17.28 
L 655.340073 17.28 
L 655.340073 106.559074 
L 668.142532 106.559074 
L 668.142532 128.16 
L 648.047763 128.16 
L 648.047763 17.28 
z
" clip-path="url(#ped20700980)" style="fill: #21599c"/>
   </g>
   <g id="patch_24">
    <path d="M 687.619447 22.570907 
L 687.619447 45.200413 
Q 685.52374 41.260863 683.52627 39.268184 
Q 681.534257 37.252601 679.760547 37.252601 
Q 677.408335 37.252601 676.278619 39.978219 
Q 675.154359 42.680934 675.154359 48.407023 
Q 675.154359 52.713043 675.912961 55.118 
Q 676.671563 57.500054 678.669034 59.217881 
L 681.463309 61.57703 
Q 685.709298 65.173014 687.49938 72.479504 
Q 689.29492 79.76309 689.29492 93.230853 
Q 689.29492 110.890114 686.795354 119.525057 
Q 684.295787 128.16 679.160215 128.16 
Q 676.742512 128.16 674.302979 126.21313 
Q 671.863445 124.289163 669.423912 120.48704 
L 669.423912 97.239116 
Q 671.863445 102.667449 674.139252 105.438876 
Q 676.415058 108.187399 678.532594 108.187399 
Q 680.682877 108.187399 681.823509 105.186928 
Q 682.96414 102.163553 682.96414 96.574889 
Q 682.96414 91.581739 682.189166 88.856121 
Q 681.414191 86.130502 679.094724 83.977492 
L 676.551497 81.618343 
Q 672.731199 78.18269 670.962946 70.67006 
Q 669.200152 63.15743 669.200152 50.422607 
Q 669.200152 34.458269 671.656058 25.869134 
Q 674.111964 17.28 678.718152 17.28 
Q 680.819316 17.28 683.035089 18.608453 
Q 685.250862 19.936906 687.619447 22.570907 
z
" clip-path="url(#ped20700980)" style="fill: #40ba47"/>
   </g>
   <g id="patch_25">
    <path d="M 690.35254 17.28 
L 710.029046 17.28 
L 710.029046 38.904689 
L 697.64485 38.904689 
L 697.64485 59.531316 
L 709.295572 59.531316 
L 709.295572 81.156005 
L 697.64485 81.156005 
L 697.64485 106.559074 
L 710.447309 106.559074 
L 710.447309 128.16 
L 690.35254 128.16 
L 690.35254 17.28 
z
" clip-path="url(#ped20700980)" style="fill: #6b296b"/>
   </g>
   <g id="patch_26">
    <path d="M 711.504928 17.28 
L 716.800439 17.28 
L 716.800439 57.749061 
L 724.43337 17.28 
L 730.582853 17.28 
L 720.691737 69.797102 
L 731.599697 128.16 
L 724.970404 128.16 
L 716.800439 84.48288 
L 716.800439 128.16 
L 711.504928 128.16 
L 711.504928 17.28 
z
" clip-path="url(#ped20700980)" style="fill: #bd2e1f"/>
   </g>
   <g id="patch_27">
    <path d="M 732.657316 17.28 
L 737.628625 17.28 
L 742.710863 99.121132 
L 747.784885 17.28 
L 752.752085 17.28 
L 745.652563 128.16 
L 739.756838 128.16 
L 732.657316 17.28 
z
" clip-path="url(#ped20700980)" style="fill: #21599c"/>
   </g>
   <g id="patch_28">
    <path d="M 773.904473 118.127891 
Q 771.877883 123.143945 769.698172 125.663425 
Q 767.518462 128.16 765.194638 128.16 
Q 759.943518 128.16 756.876611 113.226358 
Q 753.809704 98.292716 753.809704 72.754357 
Q 753.809704 46.91824 756.930653 32.09912 
Q 760.056106 17.28 765.491872 17.28 
Q 767.586015 17.28 769.50452 19.295584 
Q 771.427529 21.288263 773.129865 25.227812 
L 773.129865 47.330518 
Q 771.373487 42.268655 769.635123 39.77208 
Q 767.896759 37.252601 766.149388 37.252601 
Q 762.91585 37.252601 761.163975 46.460153 
Q 759.412101 55.644801 759.412101 72.754357 
Q 759.412101 89.703582 761.100926 98.956943 
Q 762.789751 108.187399 765.89719 108.187399 
Q 766.743854 108.187399 767.468923 107.660599 
Q 768.193992 107.110894 768.770444 105.965677 
L 768.770444 85.214328 
L 765.460347 85.214328 
L 765.460347 66.73051 
L 773.904473 66.73051 
L 773.904473 118.127891 
z
" clip-path="url(#ped20700980)" style="fill: #787800"/>
   </g>
   <g id="patch_29">
    <path d="M 774.962092 17.28 
L 782.254402 17.28 
L 782.254402 106.559074 
L 795.056861 106.559074 
L 795.056861 128.16 
L 774.962092 128.16 
L 774.962092 17.28 
z
" clip-path="url(#ped20700980)" style="fill: #21599c"/>
   </g>
   <g id="patch_30">
    <path d="M 796.114481 17.28 
L 816.209249 17.28 
L 816.209249 38.904689 
L 808.979806 38.904689 
L 808.979806 128.16 
L 803.357944 128.16 
L 803.357944 38.904689 
L 796.114481 38.904689 
L 796.114481 17.28 
z
" clip-path="url(#ped20700980)" style="fill: #40ba47"/>
   </g>
   <g id="patch_31">
    <path d="M 823.668098 17.28 
L 830.960408 17.28 
L 830.960408 128.16 
L 823.668098 128.16 
L 823.668098 17.28 
z
" clip-path="url(#ped20700980)" style="fill: #21599c"/>
   </g>
   <g id="patch_32">
    <path d="M 838.419257 17.28 
L 843.390566 17.28 
L 848.472804 99.121132 
L 853.546826 17.28 
L 858.514026 17.28 
L 851.414504 128.16 
L 845.518779 128.16 
L 838.419257 17.28 
z
" clip-path="url(#ped20700980)" style="fill: #21599c"/>
   </g>
   <g id="patch_33">
    <path d="M 859.571645 17.28 
L 866.026387 17.28 
L 874.182527 93.322863 
L 874.182527 17.28 
L 879.666414 17.28 
L 879.666414 128.16 
L 873.206866 128.16 
L 865.050726 52.117137 
L 865.050726 128.16 
L 859.571645 128.16 
L 859.571645 17.28 
z
" clip-path="url(#ped20700980)" style="fill: #40ba47"/>
   </g>
   <g id="patch_34">
    <path d="M 880.724033 17.28 
L 888.016343 17.28 
L 888.016343 106.559074 
L 900.818802 106.559074 
L 900.818802 128.16 
L 880.724033 128.16 
L 880.724033 17.28 
z
" clip-path="url(#ped20700980)" style="fill: #21599c"/>
   </g>
   <g id="patch_35">
    <path d="M 920.295717 22.570907 
L 920.295717 45.200413 
Q 918.20001 41.260863 916.20254 39.268184 
Q 914.210527 37.252601 912.436817 37.252601 
Q 910.084605 37.252601 908.954888 39.978219 
Q 907.830629 42.680934 907.830629 48.407023 
Q 907.830629 52.713043 908.589231 55.118 
Q 909.347833 57.500054 911.345304 59.217881 
L 914.139579 61.57703 
Q 918.385568 65.173014 920.17565 72.479504 
Q 921.97119 79.76309 921.97119 93.230853 
Q 921.97119 110.890114 919.471624 119.525057 
Q 916.972057 128.16 911.836485 128.16 
Q 909.418782 128.16 906.979248 126.21313 
Q 904.539715 124.289163 902.100182 120.48704 
L 902.100182 97.239116 
Q 904.539715 102.667449 906.815521 105.438876 
Q 909.091328 108.187399 911.208864 108.187399 
Q 913.359147 108.187399 914.499778 105.186928 
Q 915.64041 102.163553 915.64041 96.574889 
Q 915.64041 91.581739 914.865436 88.856121 
Q 914.090461 86.130502 911.770994 83.977492 
L 909.227767 81.618343 
Q 905.407469 78.18269 903.639216 70.67006 
Q 901.876422 63.15743 901.876422 50.422607 
Q 901.876422 34.458269 904.332328 25.869134 
Q 906.788234 17.28 911.394422 17.28 
Q 913.495586 17.28 915.711359 18.608453 
Q 917.927132 19.936906 920.295717 22.570907 
z
" clip-path="url(#ped20700980)" style="fill: #40ba47"/>
   </g>
   <g id="patch_36">
    <path d="M 929.430039 17.28 
L 936.722349 17.28 
L 936.722349 128.16 
L 929.430039 128.16 
L 929.430039 17.28 
z
" clip-path="url(#ped20700980)" style="fill: #21599c"/>
   </g>
   <g id="patch_37">
    <path d="M 944.181198 17.28 
L 951.473508 17.28 
L 951.473508 106.559074 
L 964.275967 106.559074 
L 964.275967 128.16 
L 944.181198 128.16 
L 944.181198 17.28 
z
" clip-path="url(#ped20700980)" style="fill: #21599c"/>
   </g>
   <g id="patch_38">
    <path d="M 965.333586 17.28 
L 970.629097 17.28 
L 970.629097 57.749061 
L 978.262028 17.28 
L 984.411511 17.28 
L 974.520395 69.797102 
L 985.428355 128.16 
L 978.799062 128.16 
L 970.629097 84.48288 
L 970.629097 128.16 
L 965.333586 128.16 
L 965.333586 17.28 
z
" clip-path="url(#ped20700980)" style="fill: #bd2e1f"/>
   </g>
   <g id="patch_39">
    <path d="M 986.485974 17.28 
L 1006.580743 17.28 
L 1006.580743 38.904689 
L 999.351299 38.904689 
L 999.351299 128.16 
L 993.729437 128.16 
L 993.729437 38.904689 
L 986.485974 38.904689 
L 986.485974 17.28 
z
" clip-path="url(#ped20700980)" style="fill: #40ba47"/>
   </g>
   <g id="patch_40">
    <path d="M 1027.733131 118.127891 
Q 1025.706541 123.143945 1023.52683 125.663425 
Q 1021.34712 128.16 1019.023296 128.16 
Q 1013.772176 128.16 1010.705269 113.226358 
Q 1007.638362 98.292716 1007.638362 72.754357 
Q 1007.638362 46.91824 1010.759311 32.09912 
Q 1013.884764 17.28 1019.32053 17.28 
Q 1021.414673 17.28 1023.333178 19.295584 
Q 1025.256187 21.288263 1026.958523 25.227812 
L 1026.958523 47.330518 
Q 1025.202145 42.268655 1023.463781 39.77208 
Q 1021.725417 37.252601 1019.978046 37.252601 
Q 1016.744508 37.252601 1014.992633 46.460153 
Q 1013.240759 55.644801 1013.240759 72.754357 
Q 1013.240759 89.703582 1014.929584 98.956943 
Q 1016.618409 108.187399 1019.725848 108.187399 
Q 1020.572512 108.187399 1021.297581 107.660599 
Q 1022.02265 107.110894 1022.599102 105.965677 
L 1022.599102 85.214328 
L 1019.289005 85.214328 
L 1019.289005 66.73051 
L 1027.733131 66.73051 
L 1027.733131 118.127891 
z
" clip-path="url(#ped20700980)" style="fill: #787800"/>
   </g>
   <g id="patch_41">
    <path d="M 1036.944112 66.446464 
Q 1038.747489 66.446464 1039.529906 63.119589 
Q 1040.312324 59.76895 1040.312324 52.117137 
Q 1040.312324 44.536614 1039.529906 41.281029 
Q 1038.747489 38.00168 1036.944112 38.00168 
L 1034.530068 38.00168 
L 1034.530068 66.446464 
L 1036.944112 66.446464 
z
M 1034.530068 86.193845 
L 1034.530068 128.16 
L 1028.790751 128.16 
L 1028.790751 17.28 
L 1037.55478 17.28 
Q 1041.953492 17.28 1044.000181 24.646652 
Q 1046.051642 31.989541 1046.051642 47.887252 
Q 1046.051642 58.865941 1044.982974 65.923669 
Q 1043.919077 72.981397 1041.7722 76.332036 
Q 1042.950597 77.662786 1043.88091 82.391702 
Q 1044.815995 87.096854 1045.770162 96.673502 
L 1048.885519 128.16 
L 1042.774076 128.16 
L 1040.059469 100.618225 
Q 1039.238885 92.301037 1038.394447 89.259323 
Q 1037.55478 86.193845 1036.152153 86.193845 
L 1034.530068 86.193845 
z
" clip-path="url(#ped20700980)" style="fill: #bd2e1f"/>
   </g>
   <g id="patch_42">
    <path d="M 1063.862803 107.961114 
L 1056.134678 107.961114 
L 1054.914447 128.16 
L 1049.943139 128.16 
L 1057.04266 17.28 
L 1062.938386 17.28 
L 1070.037908 128.16 
L 1065.070707 128.16 
L 1063.862803 107.961114 
z
M 1057.367233 87.382015 
L 1062.617921 87.382015 
L 1059.996686 43.277154 
L 1057.367233 87.382015 
z
" clip-path="url(#ped20700980)" style="fill: #21599c"/>
   </g>
   <g id="patch_43">
    <path d="M 1071.095527 17.28 
L 1076.391038 17.28 
L 1076.391038 57.749061 
L 1084.023969 17.28 
L 1090.173452 17.28 
L 1080.282336 69.797102 
L 1091.190296 128.16 
L 1084.561003 128.16 
L 1076.391038 84.48288 
L 1076.391038 128.16 
L 1071.095527 128.16 
L 1071.095527 17.28 
z
" clip-path="url(#ped20700980)" style="fill: #bd2e1f"/>
   </g>
   <g id="patch_44">
    <path d="M 1112.342684 118.127891 
Q 1110.316094 123.143945 1108.136383 125.663425 
Q 1105.956673 128.16 1103.632849 128.16 
Q 1098.381728 128.16 1095.314822 113.226358 
Q 1092.247915 98.292716 1092.247915 72.754357 
Q 1092.247915 46.91824 1095.368864 32.09912 
Q 1098.494317 17.28 1103.930082 17.28 
Q 1106.024226 17.28 1107.942731 19.295584 
Q 1109.86574 21.288263 1111.568076 25.227812 
L 1111.568076 47.330518 
Q 1109.811698 42.268655 1108.073334 39.77208 
Q 1106.334969 37.252601 1104.587598 37.252601 
Q 1101.354061 37.252601 1099.602186 46.460153 
Q 1097.850311 55.644801 1097.850311 72.754357 
Q 1097.850311 89.703582 1099.539137 98.956943 
Q 1101.227962 108.187399 1104.3354 108.187399 
Q 1105.182065 108.187399 1105.907134 107.660599 
Q 1106.632203 107.110894 1107.208655 105.965677 
L 1107.208655 85.214328 
L 1103.898558 85.214328 
L 1103.898558 66.73051 
L 1112.342684 66.73051 
L 1112.342684 118.127891 
z
" clip-path="url(#ped20700980)" style="fill: #787800"/>
   </g>
   <g id="patch_45">
    <path d="M 1113.400303 17.28 
L 1118.371612 17.28 
L 1123.45385 99.121132 
L 1128.527872 17.28 
L 1133.495072 17.28 
L 1126.39555 128.16 
L 1120.499825 128.16 
L 1113.400303 17.28 
z
" clip-path="url(#ped20700980)" style="fill: #21599c"/>
   </g>
   <g id="patch_46">
    <path d="M 1142.706053 66.446464 
Q 1144.50943 66.446464 1145.291847 63.119589 
Q 1146.074265 59.76895 1146.074265 52.117137 
Q 1146.074265 44.536614 1145.291847 41.281029 
Q 1144.50943 38.00168 1142.706053 38.00168 
L 1140.292009 38.00168 
L 1140.292009 66.446464 
L 1142.706053 66.446464 
z
M 1140.292009 86.193845 
L 1140.292009 128.16 
L 1134.552691 128.16 
L 1134.552691 17.28 
L 1143.31672 17.28 
Q 1147.715433 17.28 1149.762122 24.646652 
Q 1151.813583 31.989541 1151.813583 47.887252 
Q 1151.813583 58.865941 1150.744915 65.923669 
Q 1149.681018 72.981397 1147.534141 76.332036 
Q 1148.712538 77.662786 1149.642851 82.391702 
Q 1150.577936 87.096854 1151.532103 96.673502 
L 1154.64746 128.16 
L 1148.536017 128.16 
L 1145.82141 100.618225 
Q 1145.000826 92.301037 1144.156388 89.259323 
Q 1143.31672 86.193845 1141.914094 86.193845 
L 1140.292009 86.193845 
z
" clip-path="url(#ped20700980)" style="fill: #bd2e1f"/>
   </g>
   <g id="patch_47">
    <path d="M 1155.914211 17.28 
L 1175.590717 17.28 
L 1175.590717 38.904689 
L 1163.20652 38.904689 
L 1163.20652 59.531316 
L 1174.857243 59.531316 
L 1174.857243 81.156005 
L 1163.20652 81.156005 
L 1163.20652 128.16 
L 1155.914211 128.16 
L 1155.914211 17.28 
z
" clip-path="url(#ped20700980)" style="fill: #21599c"/>
   </g>
   <g id="patch_48">
    <path d="M 1182.364075 38.904689 
L 1182.364075 106.559074 
L 1184.336933 106.559074 
Q 1187.710474 106.559074 1189.491081 97.861672 
Q 1191.276265 89.164269 1191.276265 72.601183 
Q 1191.276265 56.13315 1189.500236 47.530802 
Q 1187.728783 38.904689 1184.336933 38.904689 
L 1182.364075 38.904689 
z
M 1176.857468 17.28 
L 1182.661606 17.28 
Q 1187.527378 17.28 1189.907624 20.892036 
Q 1192.28787 24.480309 1193.990661 33.106421 
Q 1195.492047 40.615654 1196.219853 50.429936 
Q 1196.952237 60.220454 1196.952237 72.601183 
Q 1196.952237 85.172019 1196.219853 95.010064 
Q 1195.492047 104.84811 1193.990661 112.333579 
Q 1192.274138 120.959691 1189.871005 124.571727 
Q 1187.467872 128.16 1182.661606 128.16 
L 1176.857468 128.16 
L 1176.857468 17.28 
z
" clip-path="url(#ped20700980)" style="fill: #6b296b"/>
   </g>
   <g id="patch_49">
    <path d="M 1198.009856 17.28 
L 1218.104625 17.28 
L 1218.104625 38.904689 
L 1210.875181 38.904689 
L 1210.875181 128.16 
L 1205.253319 128.16 
L 1205.253319 38.904689 
L 1198.009856 38.904689 
L 1198.009856 17.28 
z
" clip-path="url(#ped20700980)" style="fill: #40ba47"/>
   </g>
   <g id="patch_50">
    <path d="M 1219.162244 17.28 
L 1226.454554 17.28 
L 1226.454554 106.559074 
L 1239.257013 106.559074 
L 1239.257013 128.16 
L 1219.162244 128.16 
L 1219.162244 17.28 
z
" clip-path="url(#ped20700980)" style="fill: #21599c"/>
   </g>
   <g id="patch_51">
    <path d="M 1240.314632 17.28 
L 1259.991139 17.28 
L 1259.991139 38.904689 
L 1247.606942 38.904689 
L 1247.606942 59.531316 
L 1259.257665 59.531316 
L 1259.257665 81.156005 
L 1247.606942 81.156005 
L 1247.606942 106.559074 
L 1260.409401 106.559074 
L 1260.409401 128.16 
L 1240.314632 128.16 
L 1240.314632 17.28 
z
" clip-path="url(#ped20700980)" style="fill: #6b296b"/>
   </g>
   <g id="patch_52">
    <path d="M 1275.386684 107.961114 
L 1267.658559 107.961114 
L 1266.438329 128.16 
L 1261.46702 128.16 
L 1268.566542 17.28 
L 1274.462268 17.28 
L 1281.561789 128.16 
L 1276.594589 128.16 
L 1275.386684 107.961114 
z
M 1268.891115 87.382015 
L 1274.141803 87.382015 
L 1271.520568 43.277154 
L 1268.891115 87.382015 
z
" clip-path="url(#ped20700980)" style="fill: #21599c"/>
   </g>
   <g id="patch_53">
    <path d="M 1282.619409 17.28 
L 1287.590717 17.28 
L 1292.672956 99.121132 
L 1297.746977 17.28 
L 1302.714177 17.28 
L 1295.614656 128.16 
L 1289.71893 128.16 
L 1282.619409 17.28 
z
" clip-path="url(#ped20700980)" style="fill: #21599c"/>
   </g>
   <g id="patch_54">
    <path d="M 1323.866566 120.212188 
Q 1322.185673 124.151737 1320.368081 126.144416 
Q 1318.550489 128.16 1316.570884 128.16 
Q 1310.667507 128.16 1307.219652 113.226358 
Q 1303.771797 98.292716 1303.771797 72.754357 
Q 1303.771797 47.124379 1307.219652 32.213642 
Q 1310.667507 17.28 1316.570884 17.28 
Q 1318.550489 17.28 1320.368081 19.295584 
Q 1322.185673 21.288263 1323.866566 25.227812 
L 1323.866566 47.330518 
Q 1322.170484 42.108325 1320.525032 39.680463 
Q 1318.87958 37.252601 1317.061988 37.252601 
Q 1313.801461 37.252601 1311.93324 46.712101 
Q 1310.070082 56.148697 1310.070082 72.754357 
Q 1310.070082 89.291303 1311.93324 98.750804 
Q 1313.801461 108.187399 1317.061988 108.187399 
Q 1318.87958 108.187399 1320.525032 105.759537 
Q 1322.170484 103.308771 1323.866566 98.086577 
L 1323.866566 120.212188 
z
" clip-path="url(#ped20700980)" style="fill: #6b296b"/>
   </g>
   <g id="patch_55">
    <path d="M 1333.077547 66.446464 
Q 1334.880923 66.446464 1335.663341 63.119589 
Q 1336.445758 59.76895 1336.445758 52.117137 
Q 1336.445758 44.536614 1335.663341 41.281029 
Q 1334.880923 38.00168 1333.077547 38.00168 
L 1330.663503 38.00168 
L 1330.663503 66.446464 
L 1333.077547 66.446464 
z
M 1330.663503 86.193845 
L 1330.663503 128.16 
L 1324.924185 128.16 
L 1324.924185 17.28 
L 1333.688214 17.28 
Q 1338.086926 17.28 1340.133616 24.646652 
Q 1342.185076 31.989541 1342.185076 47.887252 
Q 1342.185076 58.865941 1341.116408 65.923669 
Q 1340.052512 72.981397 1337.905635 76.332036 
Q 1339.084032 77.662786 1340.014345 82.391702 
Q 1340.949429 87.096854 1341.903597 96.673502 
L 1345.018954 128.16 
L 1338.907511 128.16 
L 1336.192904 100.618225 
Q 1335.37232 92.301037 1334.527881 89.259323 
Q 1333.688214 86.193845 1332.285588 86.193845 
L 1330.663503 86.193845 
z
" clip-path="url(#ped20700980)" style="fill: #bd2e1f"/>
   </g>
   <g id="patch_56">
    <path d="M 1346.076573 17.28 
L 1351.047882 17.28 
L 1356.13012 99.121132 
L 1361.204142 17.28 
L 1366.171342 17.28 
L 1359.07182 128.16 
L 1353.176095 128.16 
L 1346.076573 17.28 
z
" clip-path="url(#ped20700980)" style="fill: #21599c"/>
   </g>
   <g id="patch_57">
    <path d="M 1367.228961 17.28 
L 1374.521271 17.28 
L 1374.521271 106.559074 
L 1387.32373 106.559074 
L 1387.32373 128.16 
L 1367.228961 128.16 
L 1367.228961 17.28 
z
" clip-path="url(#ped20700980)" style="fill: #21599c"/>
   </g>
   <g id="patch_58">
    <path d="M 1393.887957 38.904689 
L 1393.887957 106.559074 
L 1395.860815 106.559074 
Q 1399.234356 106.559074 1401.014963 97.861672 
Q 1402.800147 89.164269 1402.800147 72.601183 
Q 1402.800147 56.13315 1401.024117 47.530802 
Q 1399.252665 38.904689 1395.860815 38.904689 
L 1393.887957 38.904689 
z
M 1388.38135 17.28 
L 1394.185488 17.28 
Q 1399.05126 17.28 1401.431506 20.892036 
Q 1403.811752 24.480309 1405.514543 33.106421 
Q 1407.015929 40.615654 1407.743735 50.429936 
Q 1408.476118 60.220454 1408.476118 72.601183 
Q 1408.476118 85.172019 1407.743735 95.010064 
Q 1407.015929 104.84811 1405.514543 112.333579 
Q 1403.798019 120.959691 1401.394887 124.571727 
Q 1398.991754 128.16 1394.185488 128.16 
L 1388.38135 128.16 
L 1388.38135 17.28 
z
" clip-path="url(#ped20700980)" style="fill: #6b296b"/>
   </g>
   <g id="patch_59">
    <path d="M 1429.628506 120.212188 
Q 1427.947614 124.151737 1426.130022 126.144416 
Q 1424.31243 128.16 1422.332824 128.16 
Q 1416.429448 128.16 1412.981593 113.226358 
Q 1409.533738 98.292716 1409.533738 72.754357 
Q 1409.533738 47.124379 1412.981593 32.213642 
Q 1416.429448 17.28 1422.332824 17.28 
Q 1424.31243 17.28 1426.130022 19.295584 
Q 1427.947614 21.288263 1429.628506 25.227812 
L 1429.628506 47.330518 
Q 1427.932425 42.108325 1426.286973 39.680463 
Q 1424.64152 37.252601 1422.823929 37.252601 
Q 1419.563402 37.252601 1417.695181 46.712101 
Q 1415.832022 56.148697 1415.832022 72.754357 
Q 1415.832022 89.291303 1417.695181 98.750804 
Q 1419.563402 108.187399 1422.823929 108.187399 
Q 1424.64152 108.187399 1426.286973 105.759537 
Q 1427.932425 103.308771 1429.628506 98.086577 
L 1429.628506 120.212188 
z
" clip-path="url(#ped20700980)" style="fill: #6b296b"/>
   </g>
   <g id="patch_60">
    <path d="M 1430.686126 17.28 
L 1435.981637 17.28 
L 1435.981637 57.749061 
L 1443.614567 17.28 
L 1449.764051 17.28 
L 1439.872935 69.797102 
L 1450.780895 128.16 
L 1444.151602 128.16 
L 1435.981637 84.48288 
L 1435.981637 128.16 
L 1430.686126 128.16 
L 1430.686126 17.28 
z
" clip-path="url(#ped20700980)" style="fill: #bd2e1f"/>
   </g>
   <g id="patch_61">
    <path d="M 1451.838514 17.28 
L 1462.283607 17.28 
Q 1466.946222 17.28 1469.437136 26.690304 
Q 1471.933283 36.076845 1471.933283 53.447887 
Q 1471.933283 70.913982 1469.437136 80.300523 
Q 1466.946222 89.687064 1462.283607 89.687064 
L 1458.133828 89.687064 
L 1458.133828 128.16 
L 1451.838514 128.16 
L 1451.838514 17.28 
z
M 1458.133828 38.00168 
L 1458.133828 68.965384 
L 1461.613782 68.965384 
Q 1463.445336 68.965384 1464.444842 64.925607 
Q 1465.444347 60.885829 1465.444347 53.447887 
Q 1465.444347 46.033708 1464.444842 42.017694 
Q 1463.445336 38.00168 1461.613782 38.00168 
L 1458.133828 38.00168 
z
" clip-path="url(#ped20700980)" style="fill: #787800"/>
   </g>
   <g id="patch_62">
    <path d="M 1493.085671 118.127891 
Q 1491.059081 123.143945 1488.87937 125.663425 
Q 1486.69966 128.16 1484.375836 128.16 
Q 1479.124716 128.16 1476.057809 113.226358 
Q 1472.990902 98.292716 1472.990902 72.754357 
Q 1472.990902 46.91824 1476.111851 32.09912 
Q 1479.237304 17.28 1484.673069 17.28 
Q 1486.767213 17.28 1488.685718 19.295584 
Q 1490.608727 21.288263 1492.311063 25.227812 
L 1492.311063 47.330518 
Q 1490.554685 42.268655 1488.816321 39.77208 
Q 1487.077957 37.252601 1485.330585 37.252601 
Q 1482.097048 37.252601 1480.345173 46.460153 
Q 1478.593299 55.644801 1478.593299 72.754357 
Q 1478.593299 89.703582 1480.282124 98.956943 
Q 1481.970949 108.187399 1485.078387 108.187399 
Q 1485.925052 108.187399 1486.650121 107.660599 
Q 1487.37519 107.110894 1487.951642 105.965677 
L 1487.951642 85.214328 
L 1484.641545 85.214328 
L 1484.641545 66.73051 
L 1493.085671 66.73051 
L 1493.085671 118.127891 
z
" clip-path="url(#ped20700980)" style="fill: #787800"/>
   </g>
   <g id="patch_63">
    <path d="M 1499.649898 38.904689 
L 1499.649898 106.559074 
L 1501.622756 106.559074 
Q 1504.996296 106.559074 1506.776904 97.861672 
Q 1508.562088 89.164269 1508.562088 72.601183 
Q 1508.562088 56.13315 1506.786058 47.530802 
Q 1505.014606 38.904689 1501.622756 38.904689 
L 1499.649898 38.904689 
z
M 1494.14329 17.28 
L 1499.947429 17.28 
Q 1504.813201 17.28 1507.193447 20.892036 
Q 1509.573693 24.480309 1511.276484 33.106421 
Q 1512.77787 40.615654 1513.505676 50.429936 
Q 1514.238059 60.220454 1514.238059 72.601183 
Q 1514.238059 85.172019 1513.505676 95.010064 
Q 1512.77787 104.84811 1511.276484 112.333579 
Q 1509.55996 120.959691 1507.156827 124.571727 
Q 1504.753694 128.16 1499.947429 128.16 
L 1494.14329 128.16 
L 1494.14329 17.28 
z
" clip-path="url(#ped20700980)" style="fill: #6b296b"/>
   </g>
   <g id="patch_64">
    <path d="M 1521.696908 17.28 
L 1528.989218 17.28 
L 1528.989218 128.16 
L 1521.696908 128.16 
L 1521.696908 17.28 
z
" clip-path="url(#ped20700980)" style="fill: #21599c"/>
   </g>
   <g id="patch_65">
    <path d="M 1542.849296 17.28 
L 1550.141606 17.28 
L 1550.141606 128.16 
L 1542.849296 128.16 
L 1542.849296 17.28 
z
" clip-path="url(#ped20700980)" style="fill: #21599c"/>
   </g>
   <g id="patch_66">
    <path d="M 1563.107062 38.904689 
L 1563.107062 106.559074 
L 1565.07992 106.559074 
Q 1568.453461 106.559074 1570.234068 97.861672 
Q 1572.019253 89.164269 1572.019253 72.601183 
Q 1572.019253 56.13315 1570.243223 47.530802 
Q 1568.471771 38.904689 1565.07992 38.904689 
L 1563.107062 38.904689 
z
M 1557.600455 17.28 
L 1563.404593 17.28 
Q 1568.270365 17.28 1570.650611 20.892036 
Q 1573.030857 24.480309 1574.733648 33.106421 
Q 1576.235034 40.615654 1576.96284 50.429936 
Q 1577.695224 60.220454 1577.695224 72.601183 
Q 1577.695224 85.172019 1576.96284 95.010064 
Q 1576.235034 104.84811 1574.733648 112.333579 
Q 1573.017125 120.959691 1570.613992 124.571727 
Q 1568.210859 128.16 1563.404593 128.16 
L 1557.600455 128.16 
L 1557.600455 17.28 
z
" clip-path="url(#ped20700980)" style="fill: #6b296b"/>
   </g>
   <g id="patch_67">
    <path d="M 1585.154073 17.28 
L 1592.446382 17.28 
L 1592.446382 128.16 
L 1585.154073 128.16 
L 1585.154073 17.28 
z
" clip-path="url(#ped20700980)" style="fill: #21599c"/>
   </g>
   <g id="patch_68">
    <path d="M 1605.411839 38.904689 
L 1605.411839 106.559074 
L 1607.384696 106.559074 
Q 1610.758237 106.559074 1612.538844 97.861672 
Q 1614.324029 89.164269 1614.324029 72.601183 
Q 1614.324029 56.13315 1612.547999 47.530802 
Q 1610.776547 38.904689 1607.384696 38.904689 
L 1605.411839 38.904689 
z
M 1599.905231 17.28 
L 1605.709369 17.28 
Q 1610.575141 17.28 1612.955387 20.892036 
Q 1615.335633 24.480309 1617.038425 33.106421 
Q 1618.539811 40.615654 1619.267617 50.429936 
Q 1620 60.220454 1620 72.601183 
Q 1620 85.172019 1619.267617 95.010064 
Q 1618.539811 104.84811 1617.038425 112.333579 
Q 1615.321901 120.959691 1612.918768 124.571727 
Q 1610.515635 128.16 1605.709369 128.16 
L 1599.905231 128.16 
L 1599.905231 17.28 
z
" clip-path="url(#ped20700980)" style="fill: #6b296b"/>
   </g>
   <g id="matplotlib.axis_1">
    <g id="xtick_1">
     <g id="line2d_2">
      <defs>
       <path id="m8877a2ef56" d="M 0 0 
L 0 3.5 
" style="stroke: #000000; stroke-width: 0.8"/>
      </defs>
      <g>
       <use xlink:href="#m8877a2ef56" x="235.047384" y="128.16" style="stroke: #000000; stroke-width: 0.8"/>
      </g>
     </g>
     <g id="text_1">
      <!-- 0 -->
      <g transform="translate(231.866134 142.758438) scale(0.1 -0.1)">
       <defs>
        <path id="DejaVuSans-30" d="M 2034 4250 
Q 1547 4250 1301 3770 
Q 1056 3291 1056 2328 
Q 1056 1369 1301 889 
Q 1547 409 2034 409 
Q 2525 409 2770 889 
Q 3016 1369 3016 2328 
Q 3016 3291 2770 3770 
Q 2525 4250 2034 4250 
z
M 2034 4750 
Q 2819 4750 3233 4129 
Q 3647 3509 3647 2328 
Q 3647 1150 3233 529 
Q 2819 -91 2034 -91 
Q 1250 -91 836 529 
Q 422 1150 422 2328 
Q 422 3509 836 4129 
Q 1250 4750 2034 4750 
z
" transform="scale(0.015625)"/>
       </defs>
       <use xlink:href="#DejaVuSans-30"/>
      </g>
     </g>
    </g>
    <g id="xtick_2">
     <g id="line2d_3">
      <g>
       <use xlink:href="#m8877a2ef56" x="446.571266" y="128.16" style="stroke: #000000; stroke-width: 0.8"/>
      </g>
     </g>
     <g id="text_2">
      <!-- 10 -->
      <g transform="translate(440.208766 142.758438) scale(0.1 -0.1)">
       <defs>
        <path id="DejaVuSans-31" d="M 794 531 
L 1825 531 
L 1825 4091 
L 703 3866 
L 703 4441 
L 1819 4666 
L 2450 4666 
L 2450 531 
L 3481 531 
L 3481 0 
L 794 0 
L 794 531 
z
" transform="scale(0.015625)"/>
       </defs>
       <use xlink:href="#DejaVuSans-31"/>
       <use xlink:href="#DejaVuSans-30" x="63.623047"/>
      </g>
     </g>
    </g>
    <g id="xtick_3">
     <g id="line2d_4">
      <g>
       <use xlink:href="#m8877a2ef56" x="658.095148" y="128.16" style="stroke: #000000; stroke-width: 0.8"/>
      </g>
     </g>
     <g id="text_3">
      <!-- 20 -->
      <g transform="translate(651.732648 142.758438) scale(0.1 -0.1)">
       <defs>
        <path id="DejaVuSans-32" d="M 1228 531 
L 3431 531 
L 3431 0 
L 469 0 
L 469 531 
Q 828 903 1448 1529 
Q 2069 2156 2228 2338 
Q 2531 2678 2651 2914 
Q 2772 3150 2772 3378 
Q 2772 3750 2511 3984 
Q 2250 4219 1831 4219 
Q 1534 4219 1204 4116 
Q 875 4013 500 3803 
L 500 4441 
Q 881 4594 1212 4672 
Q 1544 4750 1819 4750 
Q 2544 4750 2975 4387 
Q 3406 4025 3406 3419 
Q 3406 3131 3298 2873 
Q 3191 2616 2906 2266 
Q 2828 2175 2409 1742 
Q 1991 1309 1228 531 
z
" transform="scale(0.015625)"/>
       </defs>
       <use xlink:href="#DejaVuSans-32"/>
       <use xlink:href="#DejaVuSans-30" x="63.623047"/>
      </g>
     </g>
    </g>
    <g id="xtick_4">
     <g id="line2d_5">
      <g>
       <use xlink:href="#m8877a2ef56" x="869.61903" y="128.16" style="stroke: #000000; stroke-width: 0.8"/>
      </g>
     </g>
     <g id="text_4">
      <!-- 30 -->
      <g transform="translate(863.25653 142.758438) scale(0.1 -0.1)">
       <defs>
        <path id="DejaVuSans-33" d="M 2597 2516 
Q 3050 2419 3304 2112 
Q 3559 1806 3559 1356 
Q 3559 666 3084 287 
Q 2609 -91 1734 -91 
Q 1441 -91 1130 -33 
Q 819 25 488 141 
L 488 750 
Q 750 597 1062 519 
Q 1375 441 1716 441 
Q 2309 441 2620 675 
Q 2931 909 2931 1356 
Q 2931 1769 2642 2001 
Q 2353 2234 1838 2234 
L 1294 2234 
L 1294 2753 
L 1863 2753 
Q 2328 2753 2575 2939 
Q 2822 3125 2822 3475 
Q 2822 3834 2567 4026 
Q 2313 4219 1838 4219 
Q 1578 4219 1281 4162 
Q 984 4106 628 3988 
L 628 4550 
Q 988 4650 1302 4700 
Q 1616 4750 1894 4750 
Q 2613 4750 3031 4423 
Q 3450 4097 3450 3541 
Q 3450 3153 3228 2886 
Q 3006 2619 2597 2516 
z
" transform="scale(0.015625)"/>
       </defs>
       <use xlink:href="#DejaVuSans-33"/>
       <use xlink:href="#DejaVuSans-30" x="63.623047"/>
      </g>
     </g>
    </g>
    <g id="xtick_5">
     <g id="line2d_6">
      <g>
       <use xlink:href="#m8877a2ef56" x="1081.142911" y="128.16" style="stroke: #000000; stroke-width: 0.8"/>
      </g>
     </g>
     <g id="text_5">
      <!-- 40 -->
      <g transform="translate(1074.780411 142.758438) scale(0.1 -0.1)">
       <defs>
        <path id="DejaVuSans-34" d="M 2419 4116 
L 825 1625 
L 2419 1625 
L 2419 4116 
z
M 2253 4666 
L 3047 4666 
L 3047 1625 
L 3713 1625 
L 3713 1100 
L 3047 1100 
L 3047 0 
L 2419 0 
L 2419 1100 
L 313 1100 
L 313 1709 
L 2253 4666 
z
" transform="scale(0.015625)"/>
       </defs>
       <use xlink:href="#DejaVuSans-34"/>
       <use xlink:href="#DejaVuSans-30" x="63.623047"/>
      </g>
     </g>
    </g>
    <g id="xtick_6">
     <g id="line2d_7">
      <g>
       <use xlink:href="#m8877a2ef56" x="1292.666793" y="128.16" style="stroke: #000000; stroke-width: 0.8"/>
      </g>
     </g>
     <g id="text_6">
      <!-- 50 -->
      <g transform="translate(1286.304293 142.758438) scale(0.1 -0.1)">
       <defs>
        <path id="DejaVuSans-35" d="M 691 4666 
L 3169 4666 
L 3169 4134 
L 1269 4134 
L 1269 2991 
Q 1406 3038 1543 3061 
Q 1681 3084 1819 3084 
Q 2600 3084 3056 2656 
Q 3513 2228 3513 1497 
Q 3513 744 3044 326 
Q 2575 -91 1722 -91 
Q 1428 -91 1123 -41 
Q 819 9 494 109 
L 494 744 
Q 775 591 1075 516 
Q 1375 441 1709 441 
Q 2250 441 2565 725 
Q 2881 1009 2881 1497 
Q 2881 1984 2565 2268 
Q 2250 2553 1709 2553 
Q 1456 2553 1204 2497 
Q 953 2441 691 2322 
L 691 4666 
z
" transform="scale(0.015625)"/>
       </defs>
       <use xlink:href="#DejaVuSans-35"/>
       <use xlink:href="#DejaVuSans-30" x="63.623047"/>
      </g>
     </g>
    </g>
    <g id="xtick_7">
     <g id="line2d_8">
      <g>
       <use xlink:href="#m8877a2ef56" x="1504.190675" y="128.16" style="stroke: #000000; stroke-width: 0.8"/>
      </g>
     </g>
     <g id="text_7">
      <!-- 60 -->
      <g transform="translate(1497.828175 142.758438) scale(0.1 -0.1)">
       <defs>
        <path id="DejaVuSans-36" d="M 2113 2584 
Q 1688 2584 1439 2293 
Q 1191 2003 1191 1497 
Q 1191 994 1439 701 
Q 1688 409 2113 409 
Q 2538 409 2786 701 
Q 3034 994 3034 1497 
Q 3034 2003 2786 2293 
Q 2538 2584 2113 2584 
z
M 3366 4563 
L 3366 3988 
Q 3128 4100 2886 4159 
Q 2644 4219 2406 4219 
Q 1781 4219 1451 3797 
Q 1122 3375 1075 2522 
Q 1259 2794 1537 2939 
Q 1816 3084 2150 3084 
Q 2853 3084 3261 2657 
Q 3669 2231 3669 1497 
Q 3669 778 3244 343 
Q 2819 -91 2113 -91 
Q 1303 -91 875 529 
Q 447 1150 447 2328 
Q 447 3434 972 4092 
Q 1497 4750 2381 4750 
Q 2619 4750 2861 4703 
Q 3103 4656 3366 4563 
z
" transform="scale(0.015625)"/>
       </defs>
       <use xlink:href="#DejaVuSans-36"/>
       <use xlink:href="#DejaVuSans-30" x="63.623047"/>
      </g>
     </g>
    </g>
   </g>
   <g id="matplotlib.axis_2">
    <g id="ytick_1">
     <g id="line2d_9">
      <defs>
       <path id="m4b9814ce26" d="M 0 0 
L -3.5 0 
" style="stroke: #000000; stroke-width: 0.8"/>
      </defs>
      <g>
       <use xlink:href="#m4b9814ce26" x="225" y="128.16" style="stroke: #000000; stroke-width: 0.8"/>
      </g>
     </g>
     <g id="text_8">
      <!-- 0.0 -->
      <g transform="translate(202.096875 131.959219) scale(0.1 -0.1)">
       <defs>
        <path id="DejaVuSans-2e" d="M 684 794 
L 1344 794 
L 1344 0 
L 684 0 
L 684 794 
z
" transform="scale(0.015625)"/>
       </defs>
       <use xlink:href="#DejaVuSans-30"/>
       <use xlink:href="#DejaVuSans-2e" x="63.623047"/>
       <use xlink:href="#DejaVuSans-30" x="95.410156"/>
      </g>
     </g>
    </g>
    <g id="ytick_2">
     <g id="line2d_10">
      <g>
       <use xlink:href="#m4b9814ce26" x="225" y="100.44" style="stroke: #000000; stroke-width: 0.8"/>
      </g>
     </g>
     <g id="text_9">
      <!-- 0.5 -->
      <g transform="translate(202.096875 104.239219) scale(0.1 -0.1)">
       <use xlink:href="#DejaVuSans-30"/>
       <use xlink:href="#DejaVuSans-2e" x="63.623047"/>
       <use xlink:href="#DejaVuSans-35" x="95.410156"/>
      </g>
     </g>
    </g>
    <g id="ytick_3">
     <g id="line2d_11">
      <g>
       <use xlink:href="#m4b9814ce26" x="225" y="72.72" style="stroke: #000000; stroke-width: 0.8"/>
      </g>
     </g>
     <g id="text_10">
      <!-- 1.0 -->
      <g transform="translate(202.096875 76.519219) scale(0.1 -0.1)">
       <use xlink:href="#DejaVuSans-31"/>
       <use xlink:href="#DejaVuSans-2e" x="63.623047"/>
       <use xlink:href="#DejaVuSans-30" x="95.410156"/>
      </g>
     </g>
    </g>
    <g id="ytick_4">
     <g id="line2d_12">
      <g>
       <use xlink:href="#m4b9814ce26" x="225" y="45" style="stroke: #000000; stroke-width: 0.8"/>
      </g>
     </g>
     <g id="text_11">
      <!-- 1.5 -->
      <g transform="translate(202.096875 48.799219) scale(0.1 -0.1)">
       <use xlink:href="#DejaVuSans-31"/>
       <use xlink:href="#DejaVuSans-2e" x="63.623047"/>
       <use xlink:href="#DejaVuSans-35" x="95.410156"/>
      </g>
     </g>
    </g>
    <g id="ytick_5">
     <g id="line2d_13">
      <g>
       <use xlink:href="#m4b9814ce26" x="225" y="17.28" style="stroke: #000000; stroke-width: 0.8"/>
      </g>
     </g>
     <g id="text_12">
      <!-- 2.0 -->
      <g transform="translate(202.096875 21.079219) scale(0.1 -0.1)">
       <use xlink:href="#DejaVuSans-32"/>
       <use xlink:href="#DejaVuSans-2e" x="63.623047"/>
       <use xlink:href="#DejaVuSans-30" x="95.410156"/>
      </g>
     </g>
    </g>
   </g>
  </g>
 </g>
 <defs>
  <clipPath id="ped20700980">
   <rect x="225" y="17.28" width="1395" height="110.88"/>
  </clipPath>
 </defs>
</svg>
