<?xml version="1.0" encoding="utf-8" standalone="no"?>
<!DOCTYPE svg PUBLIC "-//W3C//DTD SVG 1.1//EN"
  "http://www.w3.org/Graphics/SVG/1.1/DTD/svg11.dtd">
<svg xmlns:xlink="http://www.w3.org/1999/xlink" width="1800pt" height="144pt" viewBox="0 0 1800 144" xmlns="http://www.w3.org/2000/svg" version="1.1">
 <metadata>
  <rdf:RDF xmlns:dc="http://purl.org/dc/elements/1.1/" xmlns:cc="http://creativecommons.org/ns#" xmlns:rdf="http://www.w3.org/1999/02/22-rdf-syntax-ns#">
   <cc:Work>
    <dc:type rdf:resource="http://purl.org/dc/dcmitype/StillImage"/>
    <dc:date>2025-05-09T21:10:21.045452</dc:date>
    <dc:format>image/svg+xml</dc:format>
    <dc:creator>
     <cc:Agent>
      <dc:title>Matplotlib v3.8.0, https://matplotlib.org/</dc:title>
     </cc:Agent>
    </dc:creator>
   </cc:Work>
  </rdf:RDF>
 </metadata>
 <defs>
  <style type="text/css">*{stroke-linejoin: round; stroke-linecap: butt}</style>
 </defs>
 <g id="figure_1">
  <g id="patch_1">
   <path d="M 0 144 
L 1800 144 
L 1800 0 
L 0 0 
z
" style="fill: #ffffff"/>
  </g>
  <g id="axes_1">
   <g id="patch_2">
    <path d="M 225 128.16 
L 1620 128.16 
L 1620 17.28 
L 225 17.28 
z
" style="fill: #ffffff"/>
   </g>
   <g id="line2d_1">
    <path d="M 225 128.16 
L 1620 128.16 
" clip-path="url(#p8cc4393b52)" style="fill: none; stroke: #000000; stroke-width: 1.5; stroke-linecap: square"/>
   </g>
   <g id="patch_3">
    <path d="M 225 17.28 
L 229.601954 17.28 
L 232.794165 76.617197 
L 236.007417 17.28 
L 240.600353 17.28 
L 240.600353 128.16 
L 237.182704 128.16 
L 237.182704 47.055534 
L 233.951417 106.844235 
L 231.657954 106.844235 
L 228.426667 47.055534 
L 228.426667 128.16 
L 225 128.16 
L 225 17.28 
z
" clip-path="url(#p8cc4393b52)" style="fill: #21599c"/>
   </g>
   <g id="patch_4">
    <path d="M 241.421424 17.28 
L 245.532536 17.28 
L 245.532536 57.749061 
L 251.458278 17.28 
L 256.232362 17.28 
L 248.553503 69.797102 
L 257.021778 128.16 
L 251.875199 128.16 
L 245.532536 84.48288 
L 245.532536 128.16 
L 241.421424 128.16 
L 241.421424 17.28 
z
" clip-path="url(#p8cc4393b52)" style="fill: #bd2e1f"/>
   </g>
   <g id="patch_5">
    <path d="M 272.142466 22.570907 
L 272.142466 45.200413 
Q 270.515488 41.260863 268.964774 39.268184 
Q 267.418296 37.252601 266.041296 37.252601 
Q 264.215182 37.252601 263.338139 39.978219 
Q 262.465333 42.680934 262.465333 48.407023 
Q 262.465333 52.713043 263.054265 55.118 
Q 263.643197 57.500054 265.193911 59.217881 
L 267.363216 61.57703 
Q 270.659543 65.173014 272.049254 72.479504 
Q 273.443202 79.76309 273.443202 93.230853 
Q 273.443202 110.890114 271.502691 119.525057 
Q 269.56218 128.16 265.575235 128.16 
Q 263.698277 128.16 261.804372 126.21313 
Q 259.910468 124.289163 258.016563 120.48704 
L 258.016563 97.239116 
Q 259.910468 102.667449 261.677265 105.438876 
Q 263.444062 108.187399 265.087988 108.187399 
Q 266.757336 108.187399 267.642853 105.186928 
Q 268.52837 102.163553 268.52837 96.574889 
Q 268.52837 91.581739 267.926727 88.856121 
Q 267.325084 86.130502 265.524391 83.977492 
L 263.549985 81.618343 
Q 260.584138 78.18269 259.211375 70.67006 
Q 257.842849 63.15743 257.842849 50.422607 
Q 257.842849 34.458269 259.749464 25.869134 
Q 261.65608 17.28 265.232044 17.28 
Q 266.863259 17.28 268.58345 18.608453 
Q 270.303641 19.936906 272.142466 22.570907 
z
" clip-path="url(#p8cc4393b52)" style="fill: #40ba47"/>
   </g>
   <g id="patch_6">
    <path d="M 274.264273 17.28 
L 279.275341 17.28 
L 285.607271 93.322863 
L 285.607271 17.28 
L 289.864626 17.28 
L 289.864626 128.16 
L 284.849827 128.16 
L 278.517897 52.117137 
L 278.517897 128.16 
L 274.264273 128.16 
L 274.264273 17.28 
z
" clip-path="url(#p8cc4393b52)" style="fill: #40ba47"/>
   </g>
   <g id="patch_7">
    <path d="M 290.685697 17.28 
L 294.545118 17.28 
L 298.490658 99.121132 
L 302.429819 17.28 
L 306.286051 17.28 
L 300.774415 128.16 
L 296.197333 128.16 
L 290.685697 17.28 
z
" clip-path="url(#p8cc4393b52)" style="fill: #21599c"/>
   </g>
   <g id="patch_8">
    <path d="M 311.382116 38.904689 
L 311.382116 106.559074 
L 312.913723 106.559074 
Q 315.532734 106.559074 316.915089 97.861672 
Q 318.300997 89.164269 318.300997 72.601183 
Q 318.300997 56.13315 316.922196 47.530802 
Q 315.546948 38.904689 312.913723 38.904689 
L 311.382116 38.904689 
z
M 307.107122 17.28 
L 311.613101 17.28 
Q 315.39059 17.28 317.238467 20.892036 
Q 319.086345 24.480309 320.408289 33.106421 
Q 321.573873 40.615654 322.138897 50.429936 
Q 322.707475 60.220454 322.707475 72.601183 
Q 322.707475 85.172019 322.138897 95.010064 
Q 321.573873 104.84811 320.408289 112.333579 
Q 319.075684 120.959691 317.210038 124.571727 
Q 315.344393 128.16 311.613101 128.16 
L 307.107122 128.16 
L 307.107122 17.28 
z
" clip-path="url(#p8cc4393b52)" style="fill: #6b296b"/>
   </g>
   <g id="patch_9">
    <path d="M 328.49807 17.28 
L 334.159375 17.28 
L 334.159375 128.16 
L 328.49807 128.16 
L 328.49807 17.28 
z
" clip-path="url(#p8cc4393b52)" style="fill: #21599c"/>
   </g>
   <g id="patch_10">
    <path d="M 339.949971 17.28 
L 345.611275 17.28 
L 345.611275 106.559074 
L 355.550324 106.559074 
L 355.550324 128.16 
L 339.949971 128.16 
L 339.949971 17.28 
z
" clip-path="url(#p8cc4393b52)" style="fill: #21599c"/>
   </g>
   <g id="patch_11">
    <path d="M 356.371395 17.28 
L 361.382463 17.28 
L 367.714393 93.322863 
L 367.714393 17.28 
L 371.971748 17.28 
L 371.971748 128.16 
L 366.956949 128.16 
L 360.625019 52.117137 
L 360.625019 128.16 
L 356.371395 128.16 
L 356.371395 17.28 
z
" clip-path="url(#p8cc4393b52)" style="fill: #40ba47"/>
   </g>
   <g id="patch_12">
    <path d="M 383.599198 107.961114 
L 377.599553 107.961114 
L 376.65224 128.16 
L 372.792819 128.16 
L 378.304455 17.28 
L 382.881537 17.28 
L 388.393172 128.16 
L 384.536941 128.16 
L 383.599198 107.961114 
z
M 378.556434 87.382015 
L 382.632748 87.382015 
L 380.59778 43.277154 
L 378.556434 87.382015 
z
" clip-path="url(#p8cc4393b52)" style="fill: #21599c"/>
   </g>
   <g id="patch_13">
    <path d="M 394.183768 17.28 
L 399.845073 17.28 
L 399.845073 128.16 
L 394.183768 128.16 
L 394.183768 17.28 
z
" clip-path="url(#p8cc4393b52)" style="fill: #21599c"/>
   </g>
   <g id="patch_14">
    <path d="M 405.635668 17.28 
L 411.296973 17.28 
L 411.296973 106.559074 
L 421.236021 106.559074 
L 421.236021 128.16 
L 405.635668 128.16 
L 405.635668 17.28 
z
" clip-path="url(#p8cc4393b52)" style="fill: #21599c"/>
   </g>
   <g id="patch_15">
    <path d="M 432.863471 107.961114 
L 426.863826 107.961114 
L 425.916513 128.16 
L 422.057092 128.16 
L 427.568728 17.28 
L 432.14581 17.28 
L 437.657446 128.16 
L 433.801214 128.16 
L 432.863471 107.961114 
z
M 427.820707 87.382015 
L 431.897021 87.382015 
L 429.862053 43.277154 
L 427.820707 87.382015 
z
" clip-path="url(#p8cc4393b52)" style="fill: #21599c"/>
   </g>
   <g id="patch_16">
    <path d="M 449.284895 107.961114 
L 443.28525 107.961114 
L 442.337938 128.16 
L 438.478517 128.16 
L 443.990152 17.28 
L 448.567234 17.28 
L 454.07887 128.16 
L 450.222639 128.16 
L 449.284895 107.961114 
z
M 444.242131 87.382015 
L 448.318445 87.382015 
L 446.283478 43.277154 
L 444.242131 87.382015 
z
" clip-path="url(#p8cc4393b52)" style="fill: #21599c"/>
   </g>
   <g id="patch_17">
    <path d="M 454.899941 17.28 
L 470.500294 17.28 
L 470.500294 38.904689 
L 464.887795 38.904689 
L 464.887795 128.16 
L 460.523324 128.16 
L 460.523324 38.904689 
L 454.899941 38.904689 
L 454.899941 17.28 
z
" clip-path="url(#p8cc4393b52)" style="fill: #40ba47"/>
   </g>
   <g id="patch_18">
    <path d="M 482.127744 107.961114 
L 476.128099 107.961114 
L 475.180786 128.16 
L 471.321366 128.16 
L 476.833001 17.28 
L 481.410083 17.28 
L 486.921719 128.16 
L 483.065487 128.16 
L 482.127744 107.961114 
z
M 477.08498 87.382015 
L 481.161294 87.382015 
L 479.126326 43.277154 
L 477.08498 87.382015 
z
" clip-path="url(#p8cc4393b52)" style="fill: #21599c"/>
   </g>
   <g id="patch_19">
    <path d="M 502.042407 22.570907 
L 502.042407 45.200413 
Q 500.415429 41.260863 498.864715 39.268184 
Q 497.318237 37.252601 495.941237 37.252601 
Q 494.115123 37.252601 493.23808 39.978219 
Q 492.365274 42.680934 492.365274 48.407023 
Q 492.365274 52.713043 492.954206 55.118 
Q 493.543138 57.500054 495.093853 59.217881 
L 497.263157 61.57703 
Q 500.559484 65.173014 501.949195 72.479504 
Q 503.343143 79.76309 503.343143 93.230853 
Q 503.343143 110.890114 501.402632 119.525057 
Q 499.462121 128.16 495.475176 128.16 
Q 493.598218 128.16 491.704314 126.21313 
Q 489.810409 124.289163 487.916504 120.48704 
L 487.916504 97.239116 
Q 489.810409 102.667449 491.577206 105.438876 
Q 493.344003 108.187399 494.987929 108.187399 
Q 496.657277 108.187399 497.542794 105.186928 
Q 498.428312 102.163553 498.428312 96.574889 
Q 498.428312 91.581739 497.826668 88.856121 
Q 497.225025 86.130502 495.424333 83.977492 
L 493.449926 81.618343 
Q 490.48408 78.18269 489.111316 70.67006 
Q 487.74279 63.15743 487.74279 50.422607 
Q 487.74279 34.458269 489.649406 25.869134 
Q 491.556021 17.28 495.131985 17.28 
Q 496.7632 17.28 498.483392 18.608453 
Q 500.203583 19.936906 502.042407 22.570907 
z
" clip-path="url(#p8cc4393b52)" style="fill: #40ba47"/>
   </g>
   <g id="patch_20">
    <path d="M 510.493987 66.446464 
Q 511.894019 66.446464 512.50144 63.119589 
Q 513.108861 59.76895 513.108861 52.117137 
Q 513.108861 44.536614 512.50144 41.281029 
Q 511.894019 38.00168 510.493987 38.00168 
L 508.619871 38.00168 
L 508.619871 66.446464 
L 510.493987 66.446464 
z
M 508.619871 86.193845 
L 508.619871 128.16 
L 504.164214 128.16 
L 504.164214 17.28 
L 510.968072 17.28 
Q 514.382964 17.28 515.971889 24.646652 
Q 517.564518 31.989541 517.564518 47.887252 
Q 517.564518 58.865941 516.734869 65.923669 
Q 515.908925 72.981397 514.24222 76.332036 
Q 515.157056 77.662786 515.879294 82.391702 
Q 516.605237 87.096854 517.345994 96.673502 
L 519.764567 128.16 
L 515.020016 128.16 
L 512.91256 100.618225 
Q 512.275509 92.301037 511.619939 89.259323 
Q 510.968072 86.193845 509.879158 86.193845 
L 508.619871 86.193845 
z
" clip-path="url(#p8cc4393b52)" style="fill: #bd2e1f"/>
   </g>
   <g id="patch_21">
    <path d="M 536.185992 118.127891 
Q 534.612671 123.143945 532.920476 125.663425 
Q 531.228282 128.16 529.424207 128.16 
Q 525.347557 128.16 522.966598 113.226358 
Q 520.585639 98.292716 520.585639 72.754357 
Q 520.585639 46.91824 523.008553 32.09912 
Q 525.434964 17.28 529.654961 17.28 
Q 531.280726 17.28 532.770137 19.295584 
Q 534.263044 21.288263 535.584633 25.227812 
L 535.584633 47.330518 
Q 534.221088 42.268655 532.871529 39.77208 
Q 531.521969 37.252601 530.165416 37.252601 
Q 527.655095 37.252601 526.295046 46.460153 
Q 524.934997 55.644801 524.934997 72.754357 
Q 524.934997 89.703582 526.246098 98.956943 
Q 527.557199 108.187399 529.969625 108.187399 
Q 530.626924 108.187399 531.189823 107.660599 
Q 531.752722 107.110894 532.200245 105.965677 
L 532.200245 85.214328 
L 529.630487 85.214328 
L 529.630487 66.73051 
L 536.185992 66.73051 
L 536.185992 118.127891 
z
" clip-path="url(#p8cc4393b52)" style="fill: #787800"/>
   </g>
   <g id="patch_22">
    <path d="M 551.306681 22.570907 
L 551.306681 45.200413 
Q 549.679702 41.260863 548.128988 39.268184 
Q 546.582511 37.252601 545.20551 37.252601 
Q 543.379396 37.252601 542.502353 39.978219 
Q 541.629547 42.680934 541.629547 48.407023 
Q 541.629547 52.713043 542.218479 55.118 
Q 542.807412 57.500054 544.358126 59.217881 
L 546.527431 61.57703 
Q 549.823757 65.173014 551.213468 72.479504 
Q 552.607416 79.76309 552.607416 93.230853 
Q 552.607416 110.890114 550.666905 119.525057 
Q 548.726394 128.16 544.739449 128.16 
Q 542.862492 128.16 540.968587 126.21313 
Q 539.074682 124.289163 537.180777 120.48704 
L 537.180777 97.239116 
Q 539.074682 102.667449 540.841479 105.438876 
Q 542.608276 108.187399 544.252203 108.187399 
Q 545.92155 108.187399 546.807068 105.186928 
Q 547.692585 102.163553 547.692585 96.574889 
Q 547.692585 91.581739 547.090941 88.856121 
Q 546.489298 86.130502 544.688606 83.977492 
L 542.714199 81.618343 
Q 539.748353 78.18269 538.375589 70.67006 
Q 537.007063 63.15743 537.007063 50.422607 
Q 537.007063 34.458269 538.913679 25.869134 
Q 540.820294 17.28 544.396258 17.28 
Q 546.027474 17.28 547.747665 18.608453 
Q 549.467856 19.936906 551.306681 22.570907 
z
" clip-path="url(#p8cc4393b52)" style="fill: #40ba47"/>
   </g>
   <g id="patch_23">
    <path d="M 561.644673 111.578719 
L 561.339166 111.578719 
Q 557.591832 111.578719 555.508534 99.152512 
Q 553.428487 86.706798 553.428487 64.526897 
Q 553.428487 42.38601 555.505284 29.842759 
Q 557.582081 17.28 561.228664 17.28 
Q 564.914247 17.28 566.971544 29.725714 
Q 569.02884 42.151921 569.02884 64.526897 
Q 569.02884 79.879212 567.936816 90.978916 
Q 566.844791 102.078621 564.793995 107.677241 
L 567.849064 128.16 
L 564.121229 128.16 
L 561.644673 111.578719 
z
M 561.228664 34.290443 
Q 559.441123 34.290443 558.456351 42.210443 
Q 557.471579 50.130443 557.471579 64.526897 
Q 557.471579 79.157438 558.433601 86.940887 
Q 559.398872 94.704828 561.228664 94.704828 
Q 563.025955 94.704828 564.010727 86.784828 
Q 564.995499 78.84532 564.995499 64.526897 
Q 564.995499 50.130443 564.010727 42.210443 
Q 563.025955 34.290443 561.228664 34.290443 
z
" clip-path="url(#p8cc4393b52)" style="fill: #40ba47"/>
   </g>
   <g id="patch_24">
    <path d="M 569.849912 17.28 
L 573.961023 17.28 
L 573.961023 57.749061 
L 579.886765 17.28 
L 584.660849 17.28 
L 576.98199 69.797102 
L 585.450265 128.16 
L 580.303686 128.16 
L 573.961023 84.48288 
L 573.961023 128.16 
L 569.849912 128.16 
L 569.849912 17.28 
z
" clip-path="url(#p8cc4393b52)" style="fill: #bd2e1f"/>
   </g>
   <g id="patch_25">
    <path d="M 600.570954 22.570907 
L 600.570954 45.200413 
Q 598.943975 41.260863 597.393261 39.268184 
Q 595.846784 37.252601 594.469783 37.252601 
Q 592.643669 37.252601 591.766626 39.978219 
Q 590.89382 42.680934 590.89382 48.407023 
Q 590.89382 52.713043 591.482752 55.118 
Q 592.071685 57.500054 593.622399 59.217881 
L 595.791704 61.57703 
Q 599.08803 65.173014 600.477741 72.479504 
Q 601.871689 79.76309 601.871689 93.230853 
Q 601.871689 110.890114 599.931178 119.525057 
Q 597.990667 128.16 594.003722 128.16 
Q 592.126765 128.16 590.23286 126.21313 
Q 588.338955 124.289163 586.44505 120.48704 
L 586.44505 97.239116 
Q 588.338955 102.667449 590.105752 105.438876 
Q 591.872549 108.187399 593.516476 108.187399 
Q 595.185824 108.187399 596.071341 105.186928 
Q 596.956858 102.163553 596.956858 96.574889 
Q 596.956858 91.581739 596.355215 88.856121 
Q 595.753571 86.130502 593.952879 83.977492 
L 591.978472 81.618343 
Q 589.012626 78.18269 587.639862 70.67006 
Q 586.271336 63.15743 586.271336 50.422607 
Q 586.271336 34.458269 588.177952 25.869134 
Q 590.084567 17.28 593.660531 17.28 
Q 595.291747 17.28 597.011938 18.608453 
Q 598.732129 19.936906 600.570954 22.570907 
z
" clip-path="url(#p8cc4393b52)" style="fill: #40ba47"/>
   </g>
   <g id="patch_26">
    <path d="M 602.69276 17.28 
L 618.293114 17.28 
L 618.293114 38.904689 
L 612.680614 38.904689 
L 612.680614 128.16 
L 608.316144 128.16 
L 608.316144 38.904689 
L 602.69276 38.904689 
L 602.69276 17.28 
z
" clip-path="url(#p8cc4393b52)" style="fill: #40ba47"/>
   </g>
   <g id="patch_27">
    <path d="M 634.714538 120.212188 
Q 633.409595 124.151737 631.998528 126.144416 
Q 630.58746 128.16 629.050615 128.16 
Q 624.467594 128.16 621.790889 113.226358 
Q 619.114185 98.292716 619.114185 72.754357 
Q 619.114185 47.124379 621.790889 32.213642 
Q 624.467594 17.28 629.050615 17.28 
Q 630.58746 17.28 631.998528 19.295584 
Q 633.409595 21.288263 634.714538 25.227812 
L 634.714538 47.330518 
Q 633.397804 42.108325 632.120375 39.680463 
Q 630.842946 37.252601 629.431879 37.252601 
Q 626.900604 37.252601 625.450231 46.712101 
Q 624.003789 56.148697 624.003789 72.754357 
Q 624.003789 89.291303 625.450231 98.750804 
Q 626.900604 108.187399 629.431879 108.187399 
Q 630.842946 108.187399 632.120375 105.759537 
Q 633.397804 103.308771 634.714538 98.086577 
L 634.714538 120.212188 
z
" clip-path="url(#p8cc4393b52)" style="fill: #6b296b"/>
   </g>
   <g id="patch_28">
    <path d="M 635.535609 17.28 
L 643.644543 17.28 
Q 647.264312 17.28 649.198106 26.690304 
Q 651.135962 36.076845 651.135962 53.447887 
Q 651.135962 70.913982 649.198106 80.300523 
Q 647.264312 89.687064 643.644543 89.687064 
L 640.422907 89.687064 
L 640.422907 128.16 
L 635.535609 128.16 
L 635.535609 17.28 
z
M 640.422907 38.00168 
L 640.422907 68.965384 
L 643.124531 68.965384 
Q 644.546438 68.965384 645.322393 64.925607 
Q 646.098348 60.885829 646.098348 53.447887 
Q 646.098348 46.033708 645.322393 42.017694 
Q 644.546438 38.00168 643.124531 38.00168 
L 640.422907 38.00168 
z
" clip-path="url(#p8cc4393b52)" style="fill: #787800"/>
   </g>
   <g id="patch_29">
    <path d="M 666.256651 22.570907 
L 666.256651 45.200413 
Q 664.629672 41.260863 663.078958 39.268184 
Q 661.532481 37.252601 660.155481 37.252601 
Q 658.329367 37.252601 657.452324 39.978219 
Q 656.579517 42.680934 656.579517 48.407023 
Q 656.579517 52.713043 657.16845 55.118 
Q 657.757382 57.500054 659.308096 59.217881 
L 661.477401 61.57703 
Q 664.773728 65.173014 666.163439 72.479504 
Q 667.557387 79.76309 667.557387 93.230853 
Q 667.557387 110.890114 665.616876 119.525057 
Q 663.676365 128.16 659.689419 128.16 
Q 657.812462 128.16 655.918557 126.21313 
Q 654.024652 124.289163 652.130747 120.48704 
L 652.130747 97.239116 
Q 654.024652 102.667449 655.79145 105.438876 
Q 657.558247 108.187399 659.202173 108.187399 
Q 660.871521 108.187399 661.757038 105.186928 
Q 662.642555 102.163553 662.642555 96.574889 
Q 662.642555 91.581739 662.040912 88.856121 
Q 661.439269 86.130502 659.638576 83.977492 
L 657.66417 81.618343 
Q 654.698323 78.18269 653.32556 70.67006 
Q 651.957034 63.15743 651.957034 50.422607 
Q 651.957034 34.458269 653.863649 25.869134 
Q 655.770265 17.28 659.346229 17.28 
Q 660.977444 17.28 662.697635 18.608453 
Q 664.417826 19.936906 666.256651 22.570907 
z
" clip-path="url(#p8cc4393b52)" style="fill: #40ba47"/>
   </g>
   <g id="patch_30">
    <path d="M 668.378458 17.28 
L 683.654098 17.28 
L 683.654098 38.904689 
L 674.039763 38.904689 
L 674.039763 59.531316 
L 683.084673 59.531316 
L 683.084673 81.156005 
L 674.039763 81.156005 
L 674.039763 106.559074 
L 683.978811 106.559074 
L 683.978811 128.16 
L 668.378458 128.16 
L 668.378458 17.28 
z
" clip-path="url(#p8cc4393b52)" style="fill: #6b296b"/>
   </g>
   <g id="patch_31">
    <path d="M 689.769407 17.28 
L 695.430711 17.28 
L 695.430711 128.16 
L 689.769407 128.16 
L 689.769407 17.28 
z
" clip-path="url(#p8cc4393b52)" style="fill: #21599c"/>
   </g>
   <g id="patch_32">
    <path d="M 712.027685 107.961114 
L 706.02804 107.961114 
L 705.080727 128.16 
L 701.221307 128.16 
L 706.732942 17.28 
L 711.310024 17.28 
L 716.82166 128.16 
L 712.965429 128.16 
L 712.027685 107.961114 
z
M 706.984921 87.382015 
L 711.061235 87.382015 
L 709.026268 43.277154 
L 706.984921 87.382015 
z
" clip-path="url(#p8cc4393b52)" style="fill: #21599c"/>
   </g>
   <g id="patch_33">
    <path d="M 723.972504 66.446464 
Q 725.372536 66.446464 725.979957 63.119589 
Q 726.587378 59.76895 726.587378 52.117137 
Q 726.587378 44.536614 725.979957 41.281029 
Q 725.372536 38.00168 723.972504 38.00168 
L 722.098387 38.00168 
L 722.098387 66.446464 
L 723.972504 66.446464 
z
M 722.098387 86.193845 
L 722.098387 128.16 
L 717.642731 128.16 
L 717.642731 17.28 
L 724.446589 17.28 
Q 727.861481 17.28 729.450406 24.646652 
Q 731.043034 31.989541 731.043034 47.887252 
Q 731.043034 58.865941 730.213386 65.923669 
Q 729.387441 72.981397 727.720737 76.332036 
Q 728.635572 77.662786 729.357811 82.391702 
Q 730.083753 87.096854 730.824511 96.673502 
L 733.243084 128.16 
L 728.498532 128.16 
L 726.391077 100.618225 
Q 725.754026 92.301037 725.098455 89.259323 
Q 724.446589 86.193845 723.357675 86.193845 
L 722.098387 86.193845 
z
" clip-path="url(#p8cc4393b52)" style="fill: #bd2e1f"/>
   </g>
   <g id="patch_34">
    <path d="M 734.064155 17.28 
L 749.339795 17.28 
L 749.339795 38.904689 
L 739.72546 38.904689 
L 739.72546 59.531316 
L 748.770371 59.531316 
L 748.770371 81.156005 
L 739.72546 81.156005 
L 739.72546 106.559074 
L 749.664509 106.559074 
L 749.664509 128.16 
L 734.064155 128.16 
L 734.064155 17.28 
z
" clip-path="url(#p8cc4393b52)" style="fill: #6b296b"/>
   </g>
   <g id="patch_35">
    <path d="M 750.48558 17.28 
L 756.146884 17.28 
L 756.146884 106.559074 
L 766.085933 106.559074 
L 766.085933 128.16 
L 750.48558 128.16 
L 750.48558 17.28 
z
" clip-path="url(#p8cc4393b52)" style="fill: #21599c"/>
   </g>
   <g id="patch_36">
    <path d="M 767.069361 17.28 
L 782.345001 17.28 
L 782.345001 38.904689 
L 772.730665 38.904689 
L 772.730665 59.531316 
L 781.775576 59.531316 
L 781.775576 81.156005 
L 772.730665 81.156005 
L 772.730665 128.16 
L 767.069361 128.16 
L 767.069361 17.28 
z
" clip-path="url(#p8cc4393b52)" style="fill: #21599c"/>
   </g>
   <g id="patch_37">
    <path d="M 783.328428 17.28 
L 791.437362 17.28 
Q 795.057131 17.28 796.990925 26.690304 
Q 798.928782 36.076845 798.928782 53.447887 
Q 798.928782 70.913982 796.990925 80.300523 
Q 795.057131 89.687064 791.437362 89.687064 
L 788.215727 89.687064 
L 788.215727 128.16 
L 783.328428 128.16 
L 783.328428 17.28 
z
M 788.215727 38.00168 
L 788.215727 68.965384 
L 790.91735 68.965384 
Q 792.339257 68.965384 793.115213 64.925607 
Q 793.891168 60.885829 793.891168 53.447887 
Q 793.891168 46.033708 793.115213 42.017694 
Q 792.339257 38.00168 790.91735 38.00168 
L 788.215727 38.00168 
z
" clip-path="url(#p8cc4393b52)" style="fill: #787800"/>
   </g>
   <g id="patch_38">
    <path d="M 799.749853 17.28 
L 815.350206 17.28 
L 815.350206 38.904689 
L 809.737707 38.904689 
L 809.737707 128.16 
L 805.373236 128.16 
L 805.373236 38.904689 
L 799.749853 38.904689 
L 799.749853 17.28 
z
" clip-path="url(#p8cc4393b52)" style="fill: #40ba47"/>
   </g>
   <g id="patch_39">
    <path d="M 831.77163 118.127891 
Q 830.198309 123.143945 828.506115 125.663425 
Q 826.813921 128.16 825.009846 128.16 
Q 820.933196 128.16 818.552237 113.226358 
Q 816.171277 98.292716 816.171277 72.754357 
Q 816.171277 46.91824 818.594192 32.09912 
Q 821.020603 17.28 825.2406 17.28 
Q 826.866365 17.28 828.355775 19.295584 
Q 829.848682 21.288263 831.170272 25.227812 
L 831.170272 47.330518 
Q 829.806727 42.268655 828.457167 39.77208 
Q 827.107607 37.252601 825.751055 37.252601 
Q 823.240734 37.252601 821.880685 46.460153 
Q 820.520636 55.644801 820.520636 72.754357 
Q 820.520636 89.703582 821.831737 98.956943 
Q 823.142838 108.187399 825.555264 108.187399 
Q 826.212562 108.187399 826.775462 107.660599 
Q 827.338361 107.110894 827.785883 105.965677 
L 827.785883 85.214328 
L 825.216126 85.214328 
L 825.216126 66.73051 
L 831.77163 66.73051 
L 831.77163 118.127891 
z
" clip-path="url(#p8cc4393b52)" style="fill: #787800"/>
   </g>
   <g id="patch_40">
    <path d="M 832.592702 17.28 
L 835.290243 17.28 
L 837.175949 97.861672 
L 839.047617 17.28 
L 841.759196 17.28 
L 843.630864 97.861672 
L 845.518909 17.28 
L 848.193055 17.28 
L 845.619511 128.16 
L 842.374507 128.16 
L 840.392878 43.871239 
L 838.434645 128.16 
L 835.187301 128.16 
L 832.592702 17.28 
z
" clip-path="url(#p8cc4393b52)" style="fill: #21599c"/>
   </g>
   <g id="patch_41">
    <path d="M 855.343899 66.446464 
Q 856.743931 66.446464 857.351352 63.119589 
Q 857.958773 59.76895 857.958773 52.117137 
Q 857.958773 44.536614 857.351352 41.281029 
Q 856.743931 38.00168 855.343899 38.00168 
L 853.469782 38.00168 
L 853.469782 66.446464 
L 855.343899 66.446464 
z
M 853.469782 86.193845 
L 853.469782 128.16 
L 849.014126 128.16 
L 849.014126 17.28 
L 855.817984 17.28 
Q 859.232876 17.28 860.821801 24.646652 
Q 862.414429 31.989541 862.414429 47.887252 
Q 862.414429 58.865941 861.584781 65.923669 
Q 860.758836 72.981397 859.092132 76.332036 
Q 860.006967 77.662786 860.729206 82.391702 
Q 861.455148 87.096854 862.195906 96.673502 
L 864.614479 128.16 
L 859.869927 128.16 
L 857.762472 100.618225 
Q 857.125421 92.301037 856.46985 89.259323 
Q 855.817984 86.193845 854.72907 86.193845 
L 853.469782 86.193845 
z
" clip-path="url(#p8cc4393b52)" style="fill: #bd2e1f"/>
   </g>
   <g id="patch_42">
    <path d="M 865.43555 17.28 
L 870.446618 17.28 
L 876.778548 93.322863 
L 876.778548 17.28 
L 881.035903 17.28 
L 881.035903 128.16 
L 876.021104 128.16 
L 869.689174 52.117137 
L 869.689174 128.16 
L 865.43555 128.16 
L 865.43555 17.28 
z
" clip-path="url(#p8cc4393b52)" style="fill: #40ba47"/>
   </g>
   <g id="patch_43">
    <path d="M 881.856975 17.28 
L 886.345668 17.28 
L 886.345668 59.531316 
L 892.968635 59.531316 
L 892.968635 17.28 
L 897.457328 17.28 
L 897.457328 128.16 
L 892.968635 128.16 
L 892.968635 81.156005 
L 886.345668 81.156005 
L 886.345668 128.16 
L 881.856975 128.16 
L 881.856975 17.28 
z
" clip-path="url(#p8cc4393b52)" style="fill: #177875"/>
   </g>
   <g id="patch_44">
    <path d="M 898.278399 17.28 
L 902.880353 17.28 
L 906.072564 76.617197 
L 909.285816 17.28 
L 913.878752 17.28 
L 913.878752 128.16 
L 910.461103 128.16 
L 910.461103 47.055534 
L 907.229816 106.844235 
L 904.936353 106.844235 
L 901.705066 47.055534 
L 901.705066 128.16 
L 898.278399 128.16 
L 898.278399 17.28 
z
" clip-path="url(#p8cc4393b52)" style="fill: #21599c"/>
   </g>
   <g id="patch_45">
    <path d="M 922.916009 111.578719 
L 922.610503 111.578719 
Q 918.863168 111.578719 916.779871 99.152512 
Q 914.699823 86.706798 914.699823 64.526897 
Q 914.699823 42.38601 916.77662 29.842759 
Q 918.853417 17.28 922.5 17.28 
Q 926.185583 17.28 928.24288 29.725714 
Q 930.300177 42.151921 930.300177 64.526897 
Q 930.300177 79.879212 929.208152 90.978916 
Q 928.116127 102.078621 926.065331 107.677241 
L 929.1204 128.16 
L 925.392565 128.16 
L 922.916009 111.578719 
z
M 922.5 34.290443 
Q 920.71246 34.290443 919.727687 42.210443 
Q 918.742915 50.130443 918.742915 64.526897 
Q 918.742915 79.157438 919.704937 86.940887 
Q 920.670209 94.704828 922.5 94.704828 
Q 924.297291 94.704828 925.282063 86.784828 
Q 926.266835 78.84532 926.266835 64.526897 
Q 926.266835 50.130443 925.282063 42.210443 
Q 924.297291 34.290443 922.5 34.290443 
z
" clip-path="url(#p8cc4393b52)" style="fill: #40ba47"/>
   </g>
   <g id="patch_46">
    <path d="M 931.121248 17.28 
L 946.396888 17.28 
L 946.396888 38.904689 
L 936.782552 38.904689 
L 936.782552 59.531316 
L 945.827463 59.531316 
L 945.827463 81.156005 
L 936.782552 81.156005 
L 936.782552 106.559074 
L 946.721601 106.559074 
L 946.721601 128.16 
L 931.121248 128.16 
L 931.121248 17.28 
z
" clip-path="url(#p8cc4393b52)" style="fill: #6b296b"/>
   </g>
   <g id="patch_47">
    <path d="M 952.512196 17.28 
L 958.173501 17.28 
L 958.173501 128.16 
L 952.512196 128.16 
L 952.512196 17.28 
z
" clip-path="url(#p8cc4393b52)" style="fill: #21599c"/>
   </g>
   <g id="patch_48">
    <path d="M 970.293869 66.446464 
Q 971.693901 66.446464 972.301322 63.119589 
Q 972.908743 59.76895 972.908743 52.117137 
Q 972.908743 44.536614 972.301322 41.281029 
Q 971.693901 38.00168 970.293869 38.00168 
L 968.419753 38.00168 
L 968.419753 66.446464 
L 970.293869 66.446464 
z
M 968.419753 86.193845 
L 968.419753 128.16 
L 963.964097 128.16 
L 963.964097 17.28 
L 970.767954 17.28 
Q 974.182846 17.28 975.771771 24.646652 
Q 977.3644 31.989541 977.3644 47.887252 
Q 977.3644 58.865941 976.534751 65.923669 
Q 975.708807 72.981397 974.042102 76.332036 
Q 974.956938 77.662786 975.679177 82.391702 
Q 976.405119 87.096854 977.145876 96.673502 
L 979.56445 128.16 
L 974.819898 128.16 
L 972.712443 100.618225 
Q 972.075391 92.301037 971.419821 89.259323 
Q 970.767954 86.193845 969.679041 86.193845 
L 968.419753 86.193845 
z
" clip-path="url(#p8cc4393b52)" style="fill: #bd2e1f"/>
   </g>
   <g id="patch_49">
    <path d="M 984.660515 38.904689 
L 984.660515 106.559074 
L 986.192122 106.559074 
Q 988.811133 106.559074 990.193488 97.861672 
Q 991.579396 89.164269 991.579396 72.601183 
Q 991.579396 56.13315 990.200595 47.530802 
Q 988.825347 38.904689 986.192122 38.904689 
L 984.660515 38.904689 
z
M 980.385521 17.28 
L 984.8915 17.28 
Q 988.668989 17.28 990.516866 20.892036 
Q 992.364744 24.480309 993.686688 33.106421 
Q 994.852272 40.615654 995.417296 50.429936 
Q 995.985874 60.220454 995.985874 72.601183 
Q 995.985874 85.172019 995.417296 95.010064 
Q 994.852272 104.84811 993.686688 112.333579 
Q 992.354083 120.959691 990.488438 124.571727 
Q 988.622792 128.16 984.8915 128.16 
L 980.385521 128.16 
L 980.385521 17.28 
z
" clip-path="url(#p8cc4393b52)" style="fill: #6b296b"/>
   </g>
   <g id="patch_50">
    <path d="M 1007.613324 107.961114 
L 1001.613678 107.961114 
L 1000.666366 128.16 
L 996.806945 128.16 
L 1002.318581 17.28 
L 1006.895663 17.28 
L 1012.407298 128.16 
L 1008.551067 128.16 
L 1007.613324 107.961114 
z
M 1002.57056 87.382015 
L 1006.646874 87.382015 
L 1004.611906 43.277154 
L 1002.57056 87.382015 
z
" clip-path="url(#p8cc4393b52)" style="fill: #21599c"/>
   </g>
   <g id="patch_51">
    <path d="M 1024.034748 107.961114 
L 1018.035103 107.961114 
L 1017.08779 128.16 
L 1013.22837 128.16 
L 1018.740005 17.28 
L 1023.317087 17.28 
L 1028.828723 128.16 
L 1024.972492 128.16 
L 1024.034748 107.961114 
z
M 1018.991984 87.382015 
L 1023.068298 87.382015 
L 1021.033331 43.277154 
L 1018.991984 87.382015 
z
" clip-path="url(#p8cc4393b52)" style="fill: #21599c"/>
   </g>
   <g id="patch_52">
    <path d="M 1034.619318 17.28 
L 1040.280623 17.28 
L 1040.280623 128.16 
L 1034.619318 128.16 
L 1034.619318 17.28 
z
" clip-path="url(#p8cc4393b52)" style="fill: #21599c"/>
   </g>
   <g id="patch_53">
    <path d="M 1052.400991 66.446464 
Q 1053.801023 66.446464 1054.408444 63.119589 
Q 1055.015865 59.76895 1055.015865 52.117137 
Q 1055.015865 44.536614 1054.408444 41.281029 
Q 1053.801023 38.00168 1052.400991 38.00168 
L 1050.526875 38.00168 
L 1050.526875 66.446464 
L 1052.400991 66.446464 
z
M 1050.526875 86.193845 
L 1050.526875 128.16 
L 1046.071218 128.16 
L 1046.071218 17.28 
L 1052.875076 17.28 
Q 1056.289968 17.28 1057.878893 24.646652 
Q 1059.471522 31.989541 1059.471522 47.887252 
Q 1059.471522 58.865941 1058.641873 65.923669 
Q 1057.815929 72.981397 1056.149224 76.332036 
Q 1057.06406 77.662786 1057.786298 82.391702 
Q 1058.512241 87.096854 1059.252998 96.673502 
L 1061.671572 128.16 
L 1056.92702 128.16 
L 1054.819565 100.618225 
Q 1054.182513 92.301037 1053.526943 89.259323 
Q 1052.875076 86.193845 1051.786163 86.193845 
L 1050.526875 86.193845 
z
" clip-path="url(#p8cc4393b52)" style="fill: #bd2e1f"/>
   </g>
   <g id="patch_54">
    <path d="M 1062.492643 17.28 
L 1068.153947 17.28 
L 1068.153947 106.559074 
L 1078.092996 106.559074 
L 1078.092996 128.16 
L 1062.492643 128.16 
L 1062.492643 17.28 
z
" clip-path="url(#p8cc4393b52)" style="fill: #21599c"/>
   </g>
   <g id="patch_55">
    <path d="M 1078.914067 17.28 
L 1083.40276 17.28 
L 1083.40276 59.531316 
L 1090.025727 59.531316 
L 1090.025727 17.28 
L 1094.51442 17.28 
L 1094.51442 128.16 
L 1090.025727 128.16 
L 1090.025727 81.156005 
L 1083.40276 81.156005 
L 1083.40276 128.16 
L 1078.914067 128.16 
L 1078.914067 17.28 
z
" clip-path="url(#p8cc4393b52)" style="fill: #177875"/>
   </g>
   <g id="patch_56">
    <path d="M 1095.335491 17.28 
L 1099.446603 17.28 
L 1099.446603 57.749061 
L 1105.372345 17.28 
L 1110.146429 17.28 
L 1102.46757 69.797102 
L 1110.935845 128.16 
L 1105.789266 128.16 
L 1099.446603 84.48288 
L 1099.446603 128.16 
L 1095.335491 128.16 
L 1095.335491 17.28 
z
" clip-path="url(#p8cc4393b52)" style="fill: #bd2e1f"/>
   </g>
   <g id="patch_57">
    <path d="M 1119.973102 111.578719 
L 1119.667595 111.578719 
Q 1115.92026 111.578719 1113.836963 99.152512 
Q 1111.756916 86.706798 1111.756916 64.526897 
Q 1111.756916 42.38601 1113.833713 29.842759 
Q 1115.91051 17.28 1119.557092 17.28 
Q 1123.242676 17.28 1125.299972 29.725714 
Q 1127.357269 42.151921 1127.357269 64.526897 
Q 1127.357269 79.879212 1126.265244 90.978916 
Q 1125.17322 102.078621 1123.122423 107.677241 
L 1126.177492 128.16 
L 1122.449658 128.16 
L 1119.973102 111.578719 
z
M 1119.557092 34.290443 
Q 1117.769552 34.290443 1116.78478 42.210443 
Q 1115.800007 50.130443 1115.800007 64.526897 
Q 1115.800007 79.157438 1116.762029 86.940887 
Q 1117.727301 94.704828 1119.557092 94.704828 
Q 1121.354383 94.704828 1122.339155 86.784828 
Q 1123.323928 78.84532 1123.323928 64.526897 
Q 1123.323928 50.130443 1122.339155 42.210443 
Q 1121.354383 34.290443 1119.557092 34.290443 
z
" clip-path="url(#p8cc4393b52)" style="fill: #40ba47"/>
   </g>
   <g id="patch_58">
    <path d="M 1143.778693 118.127891 
Q 1142.205372 123.143945 1140.513178 125.663425 
Q 1138.820984 128.16 1137.016909 128.16 
Q 1132.940259 128.16 1130.5593 113.226358 
Q 1128.17834 98.292716 1128.17834 72.754357 
Q 1128.17834 46.91824 1130.601255 32.09912 
Q 1133.027666 17.28 1137.247662 17.28 
Q 1138.873428 17.28 1140.362838 19.295584 
Q 1141.855745 21.288263 1143.177335 25.227812 
L 1143.177335 47.330518 
Q 1141.81379 42.268655 1140.46423 39.77208 
Q 1139.11467 37.252601 1137.758118 37.252601 
Q 1135.247797 37.252601 1133.887748 46.460153 
Q 1132.527699 55.644801 1132.527699 72.754357 
Q 1132.527699 89.703582 1133.8388 98.956943 
Q 1135.149901 108.187399 1137.562327 108.187399 
Q 1138.219625 108.187399 1138.782525 107.660599 
Q 1139.345424 107.110894 1139.792946 105.965677 
L 1139.792946 85.214328 
L 1137.223189 85.214328 
L 1137.223189 66.73051 
L 1143.778693 66.73051 
L 1143.778693 118.127891 
z
" clip-path="url(#p8cc4393b52)" style="fill: #787800"/>
   </g>
   <g id="patch_59">
    <path d="M 1150.929537 66.446464 
Q 1152.329569 66.446464 1152.93699 63.119589 
Q 1153.544411 59.76895 1153.544411 52.117137 
Q 1153.544411 44.536614 1152.93699 41.281029 
Q 1152.329569 38.00168 1150.929537 38.00168 
L 1149.055421 38.00168 
L 1149.055421 66.446464 
L 1150.929537 66.446464 
z
M 1149.055421 86.193845 
L 1149.055421 128.16 
L 1144.599765 128.16 
L 1144.599765 17.28 
L 1151.403622 17.28 
Q 1154.818514 17.28 1156.407439 24.646652 
Q 1158.000068 31.989541 1158.000068 47.887252 
Q 1158.000068 58.865941 1157.17042 65.923669 
Q 1156.344475 72.981397 1154.67777 76.332036 
Q 1155.592606 77.662786 1156.314845 82.391702 
Q 1157.040787 87.096854 1157.781544 96.673502 
L 1160.200118 128.16 
L 1155.455566 128.16 
L 1153.348111 100.618225 
Q 1152.711059 92.301037 1152.055489 89.259323 
Q 1151.403622 86.193845 1150.314709 86.193845 
L 1149.055421 86.193845 
z
" clip-path="url(#p8cc4393b52)" style="fill: #bd2e1f"/>
   </g>
   <g id="patch_60">
    <path d="M 1161.021189 17.28 
L 1164.88061 17.28 
L 1168.82615 99.121132 
L 1172.765311 17.28 
L 1176.621542 17.28 
L 1171.109906 128.16 
L 1166.532825 128.16 
L 1161.021189 17.28 
z
" clip-path="url(#p8cc4393b52)" style="fill: #21599c"/>
   </g>
   <g id="patch_61">
    <path d="M 1177.442613 17.28 
L 1181.302034 17.28 
L 1185.247574 99.121132 
L 1189.186735 17.28 
L 1193.042966 17.28 
L 1187.531331 128.16 
L 1182.954249 128.16 
L 1177.442613 17.28 
z
" clip-path="url(#p8cc4393b52)" style="fill: #21599c"/>
   </g>
   <g id="patch_62">
    <path d="M 1198.833562 17.28 
L 1204.494867 17.28 
L 1204.494867 128.16 
L 1198.833562 128.16 
L 1198.833562 17.28 
z
" clip-path="url(#p8cc4393b52)" style="fill: #21599c"/>
   </g>
   <g id="patch_63">
    <path d="M 1210.285462 17.28 
L 1225.885815 17.28 
L 1225.885815 38.904689 
L 1220.273316 38.904689 
L 1220.273316 128.16 
L 1215.908845 128.16 
L 1215.908845 38.904689 
L 1210.285462 38.904689 
L 1210.285462 17.28 
z
" clip-path="url(#p8cc4393b52)" style="fill: #40ba47"/>
   </g>
   <g id="patch_64">
    <path d="M 1234.923072 111.578719 
L 1234.617565 111.578719 
Q 1230.870231 111.578719 1228.786933 99.152512 
Q 1226.706886 86.706798 1226.706886 64.526897 
Q 1226.706886 42.38601 1228.783683 29.842759 
Q 1230.86048 17.28 1234.507063 17.28 
Q 1238.192646 17.28 1240.249943 29.725714 
Q 1242.30724 42.151921 1242.30724 64.526897 
Q 1242.30724 79.879212 1241.215215 90.978916 
Q 1240.12319 102.078621 1238.072394 107.677241 
L 1241.127463 128.16 
L 1237.399628 128.16 
L 1234.923072 111.578719 
z
M 1234.507063 34.290443 
Q 1232.719523 34.290443 1231.73475 42.210443 
Q 1230.749978 50.130443 1230.749978 64.526897 
Q 1230.749978 79.157438 1231.712 86.940887 
Q 1232.677272 94.704828 1234.507063 94.704828 
Q 1236.304354 94.704828 1237.289126 86.784828 
Q 1238.273898 78.84532 1238.273898 64.526897 
Q 1238.273898 50.130443 1237.289126 42.210443 
Q 1236.304354 34.290443 1234.507063 34.290443 
z
" clip-path="url(#p8cc4393b52)" style="fill: #40ba47"/>
   </g>
   <g id="patch_65">
    <path d="M 1258.728664 118.127891 
Q 1257.155343 123.143945 1255.463148 125.663425 
Q 1253.770954 128.16 1251.966879 128.16 
Q 1247.890229 128.16 1245.50927 113.226358 
Q 1243.128311 98.292716 1243.128311 72.754357 
Q 1243.128311 46.91824 1245.551225 32.09912 
Q 1247.977636 17.28 1252.197633 17.28 
Q 1253.823398 17.28 1255.312809 19.295584 
Q 1256.805716 21.288263 1258.127306 25.227812 
L 1258.127306 47.330518 
Q 1256.763761 42.268655 1255.414201 39.77208 
Q 1254.064641 37.252601 1252.708088 37.252601 
Q 1250.197767 37.252601 1248.837718 46.460153 
Q 1247.47767 55.644801 1247.47767 72.754357 
Q 1247.47767 89.703582 1248.788771 98.956943 
Q 1250.099872 108.187399 1252.512297 108.187399 
Q 1253.169596 108.187399 1253.732495 107.660599 
Q 1254.295395 107.110894 1254.742917 105.965677 
L 1254.742917 85.214328 
L 1252.173159 85.214328 
L 1252.173159 66.73051 
L 1258.728664 66.73051 
L 1258.728664 118.127891 
z
" clip-path="url(#p8cc4393b52)" style="fill: #787800"/>
   </g>
   <g id="patch_66">
    <path d="M 1275.150088 118.127891 
Q 1273.576767 123.143945 1271.884573 125.663425 
Q 1270.192379 128.16 1268.388304 128.16 
Q 1264.311654 128.16 1261.930694 113.226358 
Q 1259.549735 98.292716 1259.549735 72.754357 
Q 1259.549735 46.91824 1261.97265 32.09912 
Q 1264.399061 17.28 1268.619057 17.28 
Q 1270.244823 17.28 1271.734233 19.295584 
Q 1273.22714 21.288263 1274.54873 25.227812 
L 1274.54873 47.330518 
Q 1273.185185 42.268655 1271.835625 39.77208 
Q 1270.486065 37.252601 1269.129513 37.252601 
Q 1266.619191 37.252601 1265.259143 46.460153 
Q 1263.899094 55.644801 1263.899094 72.754357 
Q 1263.899094 89.703582 1265.210195 98.956943 
Q 1266.521296 108.187399 1268.933722 108.187399 
Q 1269.59102 108.187399 1270.15392 107.660599 
Q 1270.716819 107.110894 1271.164341 105.965677 
L 1271.164341 85.214328 
L 1268.594584 85.214328 
L 1268.594584 66.73051 
L 1275.150088 66.73051 
L 1275.150088 118.127891 
z
" clip-path="url(#p8cc4393b52)" style="fill: #787800"/>
   </g>
   <g id="patch_67">
    <path d="M 1284.187345 111.578719 
L 1283.881839 111.578719 
Q 1280.134504 111.578719 1278.051207 99.152512 
Q 1275.97116 86.706798 1275.97116 64.526897 
Q 1275.97116 42.38601 1278.047957 29.842759 
Q 1280.124754 17.28 1283.771336 17.28 
Q 1287.45692 17.28 1289.514216 29.725714 
Q 1291.571513 42.151921 1291.571513 64.526897 
Q 1291.571513 79.879212 1290.479488 90.978916 
Q 1289.387463 102.078621 1287.336667 107.677241 
L 1290.391736 128.16 
L 1286.663902 128.16 
L 1284.187345 111.578719 
z
M 1283.771336 34.290443 
Q 1281.983796 34.290443 1280.999023 42.210443 
Q 1280.014251 50.130443 1280.014251 64.526897 
Q 1280.014251 79.157438 1280.976273 86.940887 
Q 1281.941545 94.704828 1283.771336 94.704828 
Q 1285.568627 94.704828 1286.553399 86.784828 
Q 1287.538171 78.84532 1287.538171 64.526897 
Q 1287.538171 50.130443 1286.553399 42.210443 
Q 1285.568627 34.290443 1283.771336 34.290443 
z
" clip-path="url(#p8cc4393b52)" style="fill: #40ba47"/>
   </g>
   <g id="patch_68">
    <path d="M 1292.392584 17.28 
L 1300.501517 17.28 
Q 1304.121287 17.28 1306.055081 26.690304 
Q 1307.992937 36.076845 1307.992937 53.447887 
Q 1307.992937 70.913982 1306.055081 80.300523 
Q 1304.121287 89.687064 1300.501517 89.687064 
L 1297.279882 89.687064 
L 1297.279882 128.16 
L 1292.392584 128.16 
L 1292.392584 17.28 
z
M 1297.279882 38.00168 
L 1297.279882 68.965384 
L 1299.981506 68.965384 
Q 1301.403413 68.965384 1302.179368 64.925607 
Q 1302.955323 60.885829 1302.955323 53.447887 
Q 1302.955323 46.033708 1302.179368 42.017694 
Q 1301.403413 38.00168 1299.981506 38.00168 
L 1297.279882 38.00168 
z
" clip-path="url(#p8cc4393b52)" style="fill: #787800"/>
   </g>
   <g id="patch_69">
    <path d="M 1308.814008 17.28 
L 1312.673429 17.28 
L 1316.618969 99.121132 
L 1320.55813 17.28 
L 1324.414361 17.28 
L 1318.902726 128.16 
L 1314.325644 128.16 
L 1308.814008 17.28 
z
" clip-path="url(#p8cc4393b52)" style="fill: #21599c"/>
   </g>
   <g id="patch_70">
    <path d="M 1329.510427 38.904689 
L 1329.510427 106.559074 
L 1331.042033 106.559074 
Q 1333.661045 106.559074 1335.0434 97.861672 
Q 1336.429308 89.164269 1336.429308 72.601183 
Q 1336.429308 56.13315 1335.050507 47.530802 
Q 1333.675259 38.904689 1331.042033 38.904689 
L 1329.510427 38.904689 
z
M 1325.235433 17.28 
L 1329.741412 17.28 
Q 1333.5189 17.28 1335.366778 20.892036 
Q 1337.214656 24.480309 1338.536599 33.106421 
Q 1339.702184 40.615654 1340.267208 50.429936 
Q 1340.835786 60.220454 1340.835786 72.601183 
Q 1340.835786 85.172019 1340.267208 95.010064 
Q 1339.702184 104.84811 1338.536599 112.333579 
Q 1337.203995 120.959691 1335.338349 124.571727 
Q 1333.472703 128.16 1329.741412 128.16 
L 1325.235433 128.16 
L 1325.235433 17.28 
z
" clip-path="url(#p8cc4393b52)" style="fill: #6b296b"/>
   </g>
   <g id="patch_71">
    <path d="M 1341.656857 17.28 
L 1349.765791 17.28 
Q 1353.38556 17.28 1355.319354 26.690304 
Q 1357.25721 36.076845 1357.25721 53.447887 
Q 1357.25721 70.913982 1355.319354 80.300523 
Q 1353.38556 89.687064 1349.765791 89.687064 
L 1346.544155 89.687064 
L 1346.544155 128.16 
L 1341.656857 128.16 
L 1341.656857 17.28 
z
M 1346.544155 38.00168 
L 1346.544155 68.965384 
L 1349.245779 68.965384 
Q 1350.667686 68.965384 1351.443641 64.925607 
Q 1352.219596 60.885829 1352.219596 53.447887 
Q 1352.219596 46.033708 1351.443641 42.017694 
Q 1350.667686 38.00168 1349.245779 38.00168 
L 1346.544155 38.00168 
z
" clip-path="url(#p8cc4393b52)" style="fill: #787800"/>
   </g>
   <g id="patch_72">
    <path d="M 1362.353276 38.904689 
L 1362.353276 106.559074 
L 1363.884882 106.559074 
Q 1366.503893 106.559074 1367.886248 97.861672 
Q 1369.272157 89.164269 1369.272157 72.601183 
Q 1369.272157 56.13315 1367.893355 47.530802 
Q 1366.518108 38.904689 1363.884882 38.904689 
L 1362.353276 38.904689 
z
M 1358.078281 17.28 
L 1362.58426 17.28 
Q 1366.361749 17.28 1368.209627 20.892036 
Q 1370.057505 24.480309 1371.379448 33.106421 
Q 1372.545033 40.615654 1373.110057 50.429936 
Q 1373.678634 60.220454 1373.678634 72.601183 
Q 1373.678634 85.172019 1373.110057 95.010064 
Q 1372.545033 104.84811 1371.379448 112.333579 
Q 1370.046844 120.959691 1368.181198 124.571727 
Q 1366.315552 128.16 1362.58426 128.16 
L 1358.078281 128.16 
L 1358.078281 17.28 
z
" clip-path="url(#p8cc4393b52)" style="fill: #6b296b"/>
   </g>
   <g id="patch_73">
    <path d="M 1378.7747 38.904689 
L 1378.7747 106.559074 
L 1380.306306 106.559074 
Q 1382.925318 106.559074 1384.307673 97.861672 
Q 1385.693581 89.164269 1385.693581 72.601183 
Q 1385.693581 56.13315 1384.31478 47.530802 
Q 1382.939532 38.904689 1380.306306 38.904689 
L 1378.7747 38.904689 
z
M 1374.499706 17.28 
L 1379.005685 17.28 
Q 1382.783173 17.28 1384.631051 20.892036 
Q 1386.478929 24.480309 1387.800872 33.106421 
Q 1388.966457 40.615654 1389.531481 50.429936 
Q 1390.100059 60.220454 1390.100059 72.601183 
Q 1390.100059 85.172019 1389.531481 95.010064 
Q 1388.966457 104.84811 1387.800872 112.333579 
Q 1386.468268 120.959691 1384.602622 124.571727 
Q 1382.736976 128.16 1379.005685 128.16 
L 1374.499706 128.16 
L 1374.499706 17.28 
z
" clip-path="url(#p8cc4393b52)" style="fill: #6b296b"/>
   </g>
   <g id="patch_74">
    <path d="M 1391.083487 17.28 
L 1406.359127 17.28 
L 1406.359127 38.904689 
L 1396.744791 38.904689 
L 1396.744791 59.531316 
L 1405.789702 59.531316 
L 1405.789702 81.156005 
L 1396.744791 81.156005 
L 1396.744791 128.16 
L 1391.083487 128.16 
L 1391.083487 17.28 
z
" clip-path="url(#p8cc4393b52)" style="fill: #21599c"/>
   </g>
   <g id="patch_75">
    <path d="M 1407.342554 17.28 
L 1411.453666 17.28 
L 1411.453666 57.749061 
L 1417.379408 17.28 
L 1422.153492 17.28 
L 1414.474633 69.797102 
L 1422.942908 128.16 
L 1417.796329 128.16 
L 1411.453666 84.48288 
L 1411.453666 128.16 
L 1407.342554 128.16 
L 1407.342554 17.28 
z
" clip-path="url(#p8cc4393b52)" style="fill: #bd2e1f"/>
   </g>
   <g id="patch_76">
    <path d="M 1439.364332 118.127891 
Q 1437.791011 123.143945 1436.098817 125.663425 
Q 1434.406622 128.16 1432.602547 128.16 
Q 1428.525897 128.16 1426.144938 113.226358 
Q 1423.763979 98.292716 1423.763979 72.754357 
Q 1423.763979 46.91824 1426.186893 32.09912 
Q 1428.613304 17.28 1432.833301 17.28 
Q 1434.459066 17.28 1435.948477 19.295584 
Q 1437.441384 21.288263 1438.762974 25.227812 
L 1438.762974 47.330518 
Q 1437.399429 42.268655 1436.049869 39.77208 
Q 1434.700309 37.252601 1433.343756 37.252601 
Q 1430.833435 37.252601 1429.473386 46.460153 
Q 1428.113338 55.644801 1428.113338 72.754357 
Q 1428.113338 89.703582 1429.424439 98.956943 
Q 1430.73554 108.187399 1433.147965 108.187399 
Q 1433.805264 108.187399 1434.368163 107.660599 
Q 1434.931063 107.110894 1435.378585 105.965677 
L 1435.378585 85.214328 
L 1432.808827 85.214328 
L 1432.808827 66.73051 
L 1439.364332 66.73051 
L 1439.364332 118.127891 
z
" clip-path="url(#p8cc4393b52)" style="fill: #787800"/>
   </g>
   <g id="patch_77">
    <path d="M 1440.185403 17.28 
L 1448.294337 17.28 
Q 1451.914106 17.28 1453.8479 26.690304 
Q 1455.785756 36.076845 1455.785756 53.447887 
Q 1455.785756 70.913982 1453.8479 80.300523 
Q 1451.914106 89.687064 1448.294337 89.687064 
L 1445.072701 89.687064 
L 1445.072701 128.16 
L 1440.185403 128.16 
L 1440.185403 17.28 
z
M 1445.072701 38.00168 
L 1445.072701 68.965384 
L 1447.774325 68.965384 
Q 1449.196232 68.965384 1449.972187 64.925607 
Q 1450.748142 60.885829 1450.748142 53.447887 
Q 1450.748142 46.033708 1449.972187 42.017694 
Q 1449.196232 38.00168 1447.774325 38.00168 
L 1445.072701 38.00168 
z
" clip-path="url(#p8cc4393b52)" style="fill: #787800"/>
   </g>
   <g id="patch_78">
    <path d="M 1461.576352 17.28 
L 1467.237656 17.28 
L 1467.237656 128.16 
L 1461.576352 128.16 
L 1461.576352 17.28 
z
" clip-path="url(#p8cc4393b52)" style="fill: #21599c"/>
   </g>
   <g id="patch_79">
    <path d="M 1479.358025 66.446464 
Q 1480.758057 66.446464 1481.365478 63.119589 
Q 1481.972899 59.76895 1481.972899 52.117137 
Q 1481.972899 44.536614 1481.365478 41.281029 
Q 1480.758057 38.00168 1479.358025 38.00168 
L 1477.483908 38.00168 
L 1477.483908 66.446464 
L 1479.358025 66.446464 
z
M 1477.483908 86.193845 
L 1477.483908 128.16 
L 1473.028252 128.16 
L 1473.028252 17.28 
L 1479.83211 17.28 
Q 1483.247002 17.28 1484.835927 24.646652 
Q 1486.428555 31.989541 1486.428555 47.887252 
Q 1486.428555 58.865941 1485.598907 65.923669 
Q 1484.772962 72.981397 1483.106258 76.332036 
Q 1484.021093 77.662786 1484.743332 82.391702 
Q 1485.469274 87.096854 1486.210032 96.673502 
L 1488.628605 128.16 
L 1483.884053 128.16 
L 1481.776598 100.618225 
Q 1481.139547 92.301037 1480.483976 89.259323 
Q 1479.83211 86.193845 1478.743196 86.193845 
L 1477.483908 86.193845 
z
" clip-path="url(#p8cc4393b52)" style="fill: #bd2e1f"/>
   </g>
   <g id="patch_80">
    <path d="M 1494.419201 17.28 
L 1500.080505 17.28 
L 1500.080505 128.16 
L 1494.419201 128.16 
L 1494.419201 17.28 
z
" clip-path="url(#p8cc4393b52)" style="fill: #21599c"/>
   </g>
   <g id="patch_81">
    <path d="M 1505.871101 17.28 
L 1521.471454 17.28 
L 1521.471454 38.904689 
L 1515.858955 38.904689 
L 1515.858955 128.16 
L 1511.494484 128.16 
L 1511.494484 38.904689 
L 1505.871101 38.904689 
L 1505.871101 17.28 
z
" clip-path="url(#p8cc4393b52)" style="fill: #40ba47"/>
   </g>
   <g id="patch_82">
    <path d="M 1522.292525 17.28 
L 1537.892878 17.28 
L 1537.892878 38.904689 
L 1532.280379 38.904689 
L 1532.280379 128.16 
L 1527.915908 128.16 
L 1527.915908 38.904689 
L 1522.292525 38.904689 
L 1522.292525 17.28 
z
" clip-path="url(#p8cc4393b52)" style="fill: #40ba47"/>
   </g>
   <g id="patch_83">
    <path d="M 1538.713949 17.28 
L 1546.822883 17.28 
Q 1550.442652 17.28 1552.376446 26.690304 
Q 1554.314303 36.076845 1554.314303 53.447887 
Q 1554.314303 70.913982 1552.376446 80.300523 
Q 1550.442652 89.687064 1546.822883 89.687064 
L 1543.601248 89.687064 
L 1543.601248 128.16 
L 1538.713949 128.16 
L 1538.713949 17.28 
z
M 1543.601248 38.00168 
L 1543.601248 68.965384 
L 1546.302871 68.965384 
Q 1547.724778 68.965384 1548.500733 64.925607 
Q 1549.276688 60.885829 1549.276688 53.447887 
Q 1549.276688 46.033708 1548.500733 42.017694 
Q 1547.724778 38.00168 1546.302871 38.00168 
L 1543.601248 38.00168 
z
" clip-path="url(#p8cc4393b52)" style="fill: #787800"/>
   </g>
   <g id="patch_84">
    <path d="M 1555.135374 17.28 
L 1563.244307 17.28 
Q 1566.864077 17.28 1568.797871 26.690304 
Q 1570.735727 36.076845 1570.735727 53.447887 
Q 1570.735727 70.913982 1568.797871 80.300523 
Q 1566.864077 89.687064 1563.244307 89.687064 
L 1560.022672 89.687064 
L 1560.022672 128.16 
L 1555.135374 128.16 
L 1555.135374 17.28 
z
M 1560.022672 38.00168 
L 1560.022672 68.965384 
L 1562.724296 68.965384 
Q 1564.146203 68.965384 1564.922158 64.925607 
Q 1565.698113 60.885829 1565.698113 53.447887 
Q 1565.698113 46.033708 1564.922158 42.017694 
Q 1564.146203 38.00168 1562.724296 38.00168 
L 1560.022672 38.00168 
z
" clip-path="url(#p8cc4393b52)" style="fill: #787800"/>
   </g>
   <g id="patch_85">
    <path d="M 1571.556798 17.28 
L 1586.832438 17.28 
L 1586.832438 38.904689 
L 1577.218103 38.904689 
L 1577.218103 59.531316 
L 1586.263013 59.531316 
L 1586.263013 81.156005 
L 1577.218103 81.156005 
L 1577.218103 106.559074 
L 1587.157151 106.559074 
L 1587.157151 128.16 
L 1571.556798 128.16 
L 1571.556798 17.28 
z
" clip-path="url(#p8cc4393b52)" style="fill: #6b296b"/>
   </g>
   <g id="patch_86">
    <path d="M 1587.978222 17.28 
L 1592.089334 17.28 
L 1592.089334 57.749061 
L 1598.015076 17.28 
L 1602.78916 17.28 
L 1595.110301 69.797102 
L 1603.578576 128.16 
L 1598.431997 128.16 
L 1592.089334 84.48288 
L 1592.089334 128.16 
L 1587.978222 128.16 
L 1587.978222 17.28 
z
" clip-path="url(#p8cc4393b52)" style="fill: #bd2e1f"/>
   </g>
   <g id="patch_87">
    <path d="M 1608.674641 38.904689 
L 1608.674641 106.559074 
L 1610.206248 106.559074 
Q 1612.825259 106.559074 1614.207614 97.861672 
Q 1615.593522 89.164269 1615.593522 72.601183 
Q 1615.593522 56.13315 1614.214721 47.530802 
Q 1612.839473 38.904689 1610.206248 38.904689 
L 1608.674641 38.904689 
z
M 1604.399647 17.28 
L 1608.905626 17.28 
Q 1612.683115 17.28 1614.530992 20.892036 
Q 1616.37887 24.480309 1617.700814 33.106421 
Q 1618.866398 40.615654 1619.431422 50.429936 
Q 1620 60.220454 1620 72.601183 
Q 1620 85.172019 1619.431422 95.010064 
Q 1618.866398 104.84811 1617.700814 112.333579 
Q 1616.368209 120.959691 1614.502563 124.571727 
Q 1612.636918 128.16 1608.905626 128.16 
L 1604.399647 128.16 
L 1604.399647 17.28 
z
" clip-path="url(#p8cc4393b52)" style="fill: #6b296b"/>
   </g>
   <g id="matplotlib.axis_1">
    <g id="xtick_1">
     <g id="line2d_2">
      <defs>
       <path id="mdb35e9a5ca" d="M 0 0 
L 0 3.5 
" style="stroke: #000000; stroke-width: 0.8"/>
      </defs>
      <g>
       <use xlink:href="#mdb35e9a5ca" x="232.800177" y="128.16" style="stroke: #000000; stroke-width: 0.8"/>
      </g>
     </g>
     <g id="text_1">
      <!-- 0 -->
      <g transform="translate(229.618927 142.758438) scale(0.1 -0.1)">
       <defs>
        <path id="DejaVuSans-30" d="M 2034 4250 
Q 1547 4250 1301 3770 
Q 1056 3291 1056 2328 
Q 1056 1369 1301 889 
Q 1547 409 2034 409 
Q 2525 409 2770 889 
Q 3016 1369 3016 2328 
Q 3016 3291 2770 3770 
Q 2525 4250 2034 4250 
z
M 2034 4750 
Q 2819 4750 3233 4129 
Q 3647 3509 3647 2328 
Q 3647 1150 3233 529 
Q 2819 -91 2034 -91 
Q 1250 -91 836 529 
Q 422 1150 422 2328 
Q 422 3509 836 4129 
Q 1250 4750 2034 4750 
z
" transform="scale(0.015625)"/>
       </defs>
       <use xlink:href="#DejaVuSans-30"/>
      </g>
     </g>
    </g>
    <g id="xtick_2">
     <g id="line2d_3">
      <g>
       <use xlink:href="#mdb35e9a5ca" x="397.01442" y="128.16" style="stroke: #000000; stroke-width: 0.8"/>
      </g>
     </g>
     <g id="text_2">
      <!-- 10 -->
      <g transform="translate(390.65192 142.758438) scale(0.1 -0.1)">
       <defs>
        <path id="DejaVuSans-31" d="M 794 531 
L 1825 531 
L 1825 4091 
L 703 3866 
L 703 4441 
L 1819 4666 
L 2450 4666 
L 2450 531 
L 3481 531 
L 3481 0 
L 794 0 
L 794 531 
z
" transform="scale(0.015625)"/>
       </defs>
       <use xlink:href="#DejaVuSans-31"/>
       <use xlink:href="#DejaVuSans-30" x="63.623047"/>
      </g>
     </g>
    </g>
    <g id="xtick_3">
     <g id="line2d_4">
      <g>
       <use xlink:href="#mdb35e9a5ca" x="561.228664" y="128.16" style="stroke: #000000; stroke-width: 0.8"/>
      </g>
     </g>
     <g id="text_3">
      <!-- 20 -->
      <g transform="translate(554.866164 142.758438) scale(0.1 -0.1)">
       <defs>
        <path id="DejaVuSans-32" d="M 1228 531 
L 3431 531 
L 3431 0 
L 469 0 
L 469 531 
Q 828 903 1448 1529 
Q 2069 2156 2228 2338 
Q 2531 2678 2651 2914 
Q 2772 3150 2772 3378 
Q 2772 3750 2511 3984 
Q 2250 4219 1831 4219 
Q 1534 4219 1204 4116 
Q 875 4013 500 3803 
L 500 4441 
Q 881 4594 1212 4672 
Q 1544 4750 1819 4750 
Q 2544 4750 2975 4387 
Q 3406 4025 3406 3419 
Q 3406 3131 3298 2873 
Q 3191 2616 2906 2266 
Q 2828 2175 2409 1742 
Q 1991 1309 1228 531 
z
" transform="scale(0.015625)"/>
       </defs>
       <use xlink:href="#DejaVuSans-32"/>
       <use xlink:href="#DejaVuSans-30" x="63.623047"/>
      </g>
     </g>
    </g>
    <g id="xtick_4">
     <g id="line2d_5">
      <g>
       <use xlink:href="#mdb35e9a5ca" x="725.442908" y="128.16" style="stroke: #000000; stroke-width: 0.8"/>
      </g>
     </g>
     <g id="text_4">
      <!-- 30 -->
      <g transform="translate(719.080408 142.758438) scale(0.1 -0.1)">
       <defs>
        <path id="DejaVuSans-33" d="M 2597 2516 
Q 3050 2419 3304 2112 
Q 3559 1806 3559 1356 
Q 3559 666 3084 287 
Q 2609 -91 1734 -91 
Q 1441 -91 1130 -33 
Q 819 25 488 141 
L 488 750 
Q 750 597 1062 519 
Q 1375 441 1716 441 
Q 2309 441 2620 675 
Q 2931 909 2931 1356 
Q 2931 1769 2642 2001 
Q 2353 2234 1838 2234 
L 1294 2234 
L 1294 2753 
L 1863 2753 
Q 2328 2753 2575 2939 
Q 2822 3125 2822 3475 
Q 2822 3834 2567 4026 
Q 2313 4219 1838 4219 
Q 1578 4219 1281 4162 
Q 984 4106 628 3988 
L 628 4550 
Q 988 4650 1302 4700 
Q 1616 4750 1894 4750 
Q 2613 4750 3031 4423 
Q 3450 4097 3450 3541 
Q 3450 3153 3228 2886 
Q 3006 2619 2597 2516 
z
" transform="scale(0.015625)"/>
       </defs>
       <use xlink:href="#DejaVuSans-33"/>
       <use xlink:href="#DejaVuSans-30" x="63.623047"/>
      </g>
     </g>
    </g>
    <g id="xtick_5">
     <g id="line2d_6">
      <g>
       <use xlink:href="#mdb35e9a5ca" x="889.657151" y="128.16" style="stroke: #000000; stroke-width: 0.8"/>
      </g>
     </g>
     <g id="text_5">
      <!-- 40 -->
      <g transform="translate(883.294651 142.758438) scale(0.1 -0.1)">
       <defs>
        <path id="DejaVuSans-34" d="M 2419 4116 
L 825 1625 
L 2419 1625 
L 2419 4116 
z
M 2253 4666 
L 3047 4666 
L 3047 1625 
L 3713 1625 
L 3713 1100 
L 3047 1100 
L 3047 0 
L 2419 0 
L 2419 1100 
L 313 1100 
L 313 1709 
L 2253 4666 
z
" transform="scale(0.015625)"/>
       </defs>
       <use xlink:href="#DejaVuSans-34"/>
       <use xlink:href="#DejaVuSans-30" x="63.623047"/>
      </g>
     </g>
    </g>
    <g id="xtick_6">
     <g id="line2d_7">
      <g>
       <use xlink:href="#mdb35e9a5ca" x="1053.871395" y="128.16" style="stroke: #000000; stroke-width: 0.8"/>
      </g>
     </g>
     <g id="text_6">
      <!-- 50 -->
      <g transform="translate(1047.508895 142.758438) scale(0.1 -0.1)">
       <defs>
        <path id="DejaVuSans-35" d="M 691 4666 
L 3169 4666 
L 3169 4134 
L 1269 4134 
L 1269 2991 
Q 1406 3038 1543 3061 
Q 1681 3084 1819 3084 
Q 2600 3084 3056 2656 
Q 3513 2228 3513 1497 
Q 3513 744 3044 326 
Q 2575 -91 1722 -91 
Q 1428 -91 1123 -41 
Q 819 9 494 109 
L 494 744 
Q 775 591 1075 516 
Q 1375 441 1709 441 
Q 2250 441 2565 725 
Q 2881 1009 2881 1497 
Q 2881 1984 2565 2268 
Q 2250 2553 1709 2553 
Q 1456 2553 1204 2497 
Q 953 2441 691 2322 
L 691 4666 
z
" transform="scale(0.015625)"/>
       </defs>
       <use xlink:href="#DejaVuSans-35"/>
       <use xlink:href="#DejaVuSans-30" x="63.623047"/>
      </g>
     </g>
    </g>
    <g id="xtick_7">
     <g id="line2d_8">
      <g>
       <use xlink:href="#mdb35e9a5ca" x="1218.085639" y="128.16" style="stroke: #000000; stroke-width: 0.8"/>
      </g>
     </g>
     <g id="text_7">
      <!-- 60 -->
      <g transform="translate(1211.723139 142.758438) scale(0.1 -0.1)">
       <defs>
        <path id="DejaVuSans-36" d="M 2113 2584 
Q 1688 2584 1439 2293 
Q 1191 2003 1191 1497 
Q 1191 994 1439 701 
Q 1688 409 2113 409 
Q 2538 409 2786 701 
Q 3034 994 3034 1497 
Q 3034 2003 2786 2293 
Q 2538 2584 2113 2584 
z
M 3366 4563 
L 3366 3988 
Q 3128 4100 2886 4159 
Q 2644 4219 2406 4219 
Q 1781 4219 1451 3797 
Q 1122 3375 1075 2522 
Q 1259 2794 1537 2939 
Q 1816 3084 2150 3084 
Q 2853 3084 3261 2657 
Q 3669 2231 3669 1497 
Q 3669 778 3244 343 
Q 2819 -91 2113 -91 
Q 1303 -91 875 529 
Q 447 1150 447 2328 
Q 447 3434 972 4092 
Q 1497 4750 2381 4750 
Q 2619 4750 2861 4703 
Q 3103 4656 3366 4563 
z
" transform="scale(0.015625)"/>
       </defs>
       <use xlink:href="#DejaVuSans-36"/>
       <use xlink:href="#DejaVuSans-30" x="63.623047"/>
      </g>
     </g>
    </g>
    <g id="xtick_8">
     <g id="line2d_9">
      <g>
       <use xlink:href="#mdb35e9a5ca" x="1382.299882" y="128.16" style="stroke: #000000; stroke-width: 0.8"/>
      </g>
     </g>
     <g id="text_8">
      <!-- 70 -->
      <g transform="translate(1375.937382 142.758438) scale(0.1 -0.1)">
       <defs>
        <path id="DejaVuSans-37" d="M 525 4666 
L 3525 4666 
L 3525 4397 
L 1831 0 
L 1172 0 
L 2766 4134 
L 525 4134 
L 525 4666 
z
" transform="scale(0.015625)"/>
       </defs>
       <use xlink:href="#DejaVuSans-37"/>
       <use xlink:href="#DejaVuSans-30" x="63.623047"/>
      </g>
     </g>
    </g>
    <g id="xtick_9">
     <g id="line2d_10">
      <g>
       <use xlink:href="#mdb35e9a5ca" x="1546.514126" y="128.16" style="stroke: #000000; stroke-width: 0.8"/>
      </g>
     </g>
     <g id="text_9">
      <!-- 80 -->
      <g transform="translate(1540.151626 142.758438) scale(0.1 -0.1)">
       <defs>
        <path id="DejaVuSans-38" d="M 2034 2216 
Q 1584 2216 1326 1975 
Q 1069 1734 1069 1313 
Q 1069 891 1326 650 
Q 1584 409 2034 409 
Q 2484 409 2743 651 
Q 3003 894 3003 1313 
Q 3003 1734 2745 1975 
Q 2488 2216 2034 2216 
z
M 1403 2484 
Q 997 2584 770 2862 
Q 544 3141 544 3541 
Q 544 4100 942 4425 
Q 1341 4750 2034 4750 
Q 2731 4750 3128 4425 
Q 3525 4100 3525 3541 
Q 3525 3141 3298 2862 
Q 3072 2584 2669 2484 
Q 3125 2378 3379 2068 
Q 3634 1759 3634 1313 
Q 3634 634 3220 271 
Q 2806 -91 2034 -91 
Q 1263 -91 848 271 
Q 434 634 434 1313 
Q 434 1759 690 2068 
Q 947 2378 1403 2484 
z
M 1172 3481 
Q 1172 3119 1398 2916 
Q 1625 2713 2034 2713 
Q 2441 2713 2670 2916 
Q 2900 3119 2900 3481 
Q 2900 3844 2670 4047 
Q 2441 4250 2034 4250 
Q 1625 4250 1398 4047 
Q 1172 3844 1172 3481 
z
" transform="scale(0.015625)"/>
       </defs>
       <use xlink:href="#DejaVuSans-38"/>
       <use xlink:href="#DejaVuSans-30" x="63.623047"/>
      </g>
     </g>
    </g>
   </g>
   <g id="matplotlib.axis_2">
    <g id="ytick_1">
     <g id="line2d_11">
      <defs>
       <path id="m5f4b3d4a89" d="M 0 0 
L -3.5 0 
" style="stroke: #000000; stroke-width: 0.8"/>
      </defs>
      <g>
       <use xlink:href="#m5f4b3d4a89" x="225" y="128.16" style="stroke: #000000; stroke-width: 0.8"/>
      </g>
     </g>
     <g id="text_10">
      <!-- 0.0 -->
      <g transform="translate(202.096875 131.959219) scale(0.1 -0.1)">
       <defs>
        <path id="DejaVuSans-2e" d="M 684 794 
L 1344 794 
L 1344 0 
L 684 0 
L 684 794 
z
" transform="scale(0.015625)"/>
       </defs>
       <use xlink:href="#DejaVuSans-30"/>
       <use xlink:href="#DejaVuSans-2e" x="63.623047"/>
       <use xlink:href="#DejaVuSans-30" x="95.410156"/>
      </g>
     </g>
    </g>
    <g id="ytick_2">
     <g id="line2d_12">
      <g>
       <use xlink:href="#m5f4b3d4a89" x="225" y="100.44" style="stroke: #000000; stroke-width: 0.8"/>
      </g>
     </g>
     <g id="text_11">
      <!-- 0.5 -->
      <g transform="translate(202.096875 104.239219) scale(0.1 -0.1)">
       <use xlink:href="#DejaVuSans-30"/>
       <use xlink:href="#DejaVuSans-2e" x="63.623047"/>
       <use xlink:href="#DejaVuSans-35" x="95.410156"/>
      </g>
     </g>
    </g>
    <g id="ytick_3">
     <g id="line2d_13">
      <g>
       <use xlink:href="#m5f4b3d4a89" x="225" y="72.72" style="stroke: #000000; stroke-width: 0.8"/>
      </g>
     </g>
     <g id="text_12">
      <!-- 1.0 -->
      <g transform="translate(202.096875 76.519219) scale(0.1 -0.1)">
       <use xlink:href="#DejaVuSans-31"/>
       <use xlink:href="#DejaVuSans-2e" x="63.623047"/>
       <use xlink:href="#DejaVuSans-30" x="95.410156"/>
      </g>
     </g>
    </g>
    <g id="ytick_4">
     <g id="line2d_14">
      <g>
       <use xlink:href="#m5f4b3d4a89" x="225" y="45" style="stroke: #000000; stroke-width: 0.8"/>
      </g>
     </g>
     <g id="text_13">
      <!-- 1.5 -->
      <g transform="translate(202.096875 48.799219) scale(0.1 -0.1)">
       <use xlink:href="#DejaVuSans-31"/>
       <use xlink:href="#DejaVuSans-2e" x="63.623047"/>
       <use xlink:href="#DejaVuSans-35" x="95.410156"/>
      </g>
     </g>
    </g>
    <g id="ytick_5">
     <g id="line2d_15">
      <g>
       <use xlink:href="#m5f4b3d4a89" x="225" y="17.28" style="stroke: #000000; stroke-width: 0.8"/>
      </g>
     </g>
     <g id="text_14">
      <!-- 2.0 -->
      <g transform="translate(202.096875 21.079219) scale(0.1 -0.1)">
       <use xlink:href="#DejaVuSans-32"/>
       <use xlink:href="#DejaVuSans-2e" x="63.623047"/>
       <use xlink:href="#DejaVuSans-30" x="95.410156"/>
      </g>
     </g>
    </g>
   </g>
  </g>
 </g>
 <defs>
  <clipPath id="p8cc4393b52">
   <rect x="225" y="17.28" width="1395" height="110.88"/>
  </clipPath>
 </defs>
</svg>
