<?xml version="1.0" encoding="utf-8" standalone="no"?>
<!DOCTYPE svg PUBLIC "-//W3C//DTD SVG 1.1//EN"
  "http://www.w3.org/Graphics/SVG/1.1/DTD/svg11.dtd">
<svg xmlns:xlink="http://www.w3.org/1999/xlink" width="1800pt" height="144pt" viewBox="0 0 1800 144" xmlns="http://www.w3.org/2000/svg" version="1.1">
 <metadata>
  <rdf:RDF xmlns:dc="http://purl.org/dc/elements/1.1/" xmlns:cc="http://creativecommons.org/ns#" xmlns:rdf="http://www.w3.org/1999/02/22-rdf-syntax-ns#">
   <cc:Work>
    <dc:type rdf:resource="http://purl.org/dc/dcmitype/StillImage"/>
    <dc:date>2025-05-09T21:10:15.201823</dc:date>
    <dc:format>image/svg+xml</dc:format>
    <dc:creator>
     <cc:Agent>
      <dc:title>Matplotlib v3.8.0, https://matplotlib.org/</dc:title>
     </cc:Agent>
    </dc:creator>
   </cc:Work>
  </rdf:RDF>
 </metadata>
 <defs>
  <style type="text/css">*{stroke-linejoin: round; stroke-linecap: butt}</style>
 </defs>
 <g id="figure_1">
  <g id="patch_1">
   <path d="M 0 144 
L 1800 144 
L 1800 0 
L 0 0 
z
" style="fill: #ffffff"/>
  </g>
  <g id="axes_1">
   <g id="patch_2">
    <path d="M 225 128.16 
L 1620 128.16 
L 1620 17.28 
L 225 17.28 
z
" style="fill: #ffffff"/>
   </g>
   <g id="line2d_1">
    <path d="M 225 128.16 
L 1620 128.16 
" clip-path="url(#pce34ccaecd)" style="fill: none; stroke: #000000; stroke-width: 1.5; stroke-linecap: square"/>
   </g>
   <g id="patch_3">
    <path d="M 225 17.28 
L 228.911315 17.28 
L 231.624455 76.617197 
L 234.355478 17.28 
L 238.25913 17.28 
L 238.25913 128.16 
L 235.354384 128.16 
L 235.354384 47.055534 
L 232.608032 106.844235 
L 230.658761 106.844235 
L 227.91241 47.055534 
L 227.91241 128.16 
L 225 128.16 
L 225 17.28 
z
" clip-path="url(#pce34ccaecd)" style="fill: #21599c"/>
   </g>
   <g id="patch_4">
    <path d="M 238.956978 17.28 
L 245.848964 17.28 
Q 248.925496 17.28 250.569076 26.690304 
Q 252.216108 36.076845 252.216108 53.447887 
Q 252.216108 70.913982 250.569076 80.300523 
Q 248.925496 89.687064 245.848964 89.687064 
L 243.110815 89.687064 
L 243.110815 128.16 
L 238.956978 128.16 
L 238.956978 17.28 
z
M 243.110815 38.00168 
L 243.110815 68.965384 
L 245.406993 68.965384 
Q 246.615507 68.965384 247.275011 64.925607 
Q 247.934514 60.885829 247.934514 53.447887 
Q 247.934514 46.033708 247.275011 42.017694 
Q 246.615507 38.00168 245.406993 38.00168 
L 243.110815 38.00168 
z
" clip-path="url(#pce34ccaecd)" style="fill: #787800"/>
   </g>
   <g id="patch_5">
    <path d="M 252.913957 17.28 
L 259.805942 17.28 
Q 262.882474 17.28 264.526054 26.690304 
Q 266.173087 36.076845 266.173087 53.447887 
Q 266.173087 70.913982 264.526054 80.300523 
Q 262.882474 89.687064 259.805942 89.687064 
L 257.067794 89.687064 
L 257.067794 128.16 
L 252.913957 128.16 
L 252.913957 17.28 
z
M 257.067794 38.00168 
L 257.067794 68.965384 
L 259.363971 68.965384 
Q 260.572485 68.965384 261.231989 64.925607 
Q 261.891493 60.885829 261.891493 53.447887 
Q 261.891493 46.033708 261.231989 42.017694 
Q 260.572485 38.00168 259.363971 38.00168 
L 257.067794 38.00168 
z
" clip-path="url(#pce34ccaecd)" style="fill: #787800"/>
   </g>
   <g id="patch_6">
    <path d="M 266.870935 17.28 
L 270.685988 17.28 
L 270.685988 59.531316 
L 276.315013 59.531316 
L 276.315013 17.28 
L 280.130065 17.28 
L 280.130065 128.16 
L 276.315013 128.16 
L 276.315013 81.156005 
L 270.685988 81.156005 
L 270.685988 128.16 
L 266.870935 128.16 
L 266.870935 17.28 
z
" clip-path="url(#pce34ccaecd)" style="fill: #177875"/>
   </g>
   <g id="patch_7">
    <path d="M 280.827914 17.28 
L 294.087044 17.28 
L 294.087044 38.904689 
L 289.31684 38.904689 
L 289.31684 128.16 
L 285.607368 128.16 
L 285.607368 38.904689 
L 280.827914 38.904689 
L 280.827914 17.28 
z
" clip-path="url(#pce34ccaecd)" style="fill: #40ba47"/>
   </g>
   <g id="patch_8">
    <path d="M 299.008615 17.28 
L 303.820299 17.28 
L 303.820299 128.16 
L 299.008615 128.16 
L 299.008615 17.28 
z
" clip-path="url(#pce34ccaecd)" style="fill: #21599c"/>
   </g>
   <g id="patch_9">
    <path d="M 308.741871 17.28 
L 315.633856 17.28 
Q 318.710388 17.28 320.353968 26.690304 
Q 322.001001 36.076845 322.001001 53.447887 
Q 322.001001 70.913982 320.353968 80.300523 
Q 318.710388 89.687064 315.633856 89.687064 
L 312.895708 89.687064 
L 312.895708 128.16 
L 308.741871 128.16 
L 308.741871 17.28 
z
M 312.895708 38.00168 
L 312.895708 68.965384 
L 315.191885 68.965384 
Q 316.400399 68.965384 317.059903 64.925607 
Q 317.719407 60.885829 317.719407 53.447887 
Q 317.719407 46.033708 317.059903 42.017694 
Q 316.400399 38.00168 315.191885 38.00168 
L 312.895708 38.00168 
z
" clip-path="url(#pce34ccaecd)" style="fill: #787800"/>
   </g>
   <g id="patch_10">
    <path d="M 322.698849 17.28 
L 335.957979 17.28 
L 335.957979 38.904689 
L 331.187776 38.904689 
L 331.187776 128.16 
L 327.478303 128.16 
L 327.478303 38.904689 
L 322.698849 38.904689 
L 322.698849 17.28 
z
" clip-path="url(#pce34ccaecd)" style="fill: #40ba47"/>
   </g>
   <g id="patch_11">
    <path d="M 336.655828 17.28 
L 340.914859 17.28 
L 346.296525 93.322863 
L 346.296525 17.28 
L 349.914957 17.28 
L 349.914957 128.16 
L 345.652755 128.16 
L 340.271089 52.117137 
L 340.271089 128.16 
L 336.655828 128.16 
L 336.655828 17.28 
z
" clip-path="url(#pce34ccaecd)" style="fill: #40ba47"/>
   </g>
   <g id="patch_12">
    <path d="M 350.612806 17.28 
L 355.424491 17.28 
L 355.424491 106.559074 
L 363.871936 106.559074 
L 363.871936 128.16 
L 350.612806 128.16 
L 350.612806 17.28 
z
" clip-path="url(#pce34ccaecd)" style="fill: #21599c"/>
   </g>
   <g id="patch_13">
    <path d="M 364.569785 17.28 
L 368.828816 17.28 
L 374.210482 93.322863 
L 374.210482 17.28 
L 377.828914 17.28 
L 377.828914 128.16 
L 373.566712 128.16 
L 368.185046 52.117137 
L 368.185046 128.16 
L 364.569785 128.16 
L 364.569785 17.28 
z
" clip-path="url(#pce34ccaecd)" style="fill: #40ba47"/>
   </g>
   <g id="patch_14">
    <path d="M 382.750486 17.28 
L 387.56217 17.28 
L 387.56217 128.16 
L 382.750486 128.16 
L 382.750486 17.28 
z
" clip-path="url(#pce34ccaecd)" style="fill: #21599c"/>
   </g>
   <g id="patch_15">
    <path d="M 404.637344 22.570907 
L 404.637344 45.200413 
Q 403.254534 41.260863 401.936543 39.268184 
Q 400.622154 37.252601 399.451807 37.252601 
Q 397.899747 37.252601 397.154326 39.978219 
Q 396.412506 42.680934 396.412506 48.407023 
Q 396.412506 52.713043 396.913055 55.118 
Q 397.413603 57.500054 398.731594 59.217881 
L 400.57534 61.57703 
Q 403.37697 65.173014 404.55812 72.479504 
Q 405.742871 79.76309 405.742871 93.230853 
Q 405.742871 110.890114 404.093583 119.525057 
Q 402.444294 128.16 399.05569 128.16 
Q 397.460417 128.16 395.85074 126.21313 
Q 394.241063 124.289163 392.631386 120.48704 
L 392.631386 97.239116 
Q 394.241063 102.667449 395.742708 105.438876 
Q 397.244353 108.187399 398.641567 108.187399 
Q 400.060387 108.187399 400.81301 105.186928 
Q 401.565633 102.163553 401.565633 96.574889 
Q 401.565633 91.581739 401.054282 88.856121 
Q 400.54293 86.130502 399.012477 83.977492 
L 397.334379 81.618343 
Q 394.813632 78.18269 393.646887 70.67006 
Q 392.483742 63.15743 392.483742 50.422607 
Q 392.483742 34.458269 394.104222 25.869134 
Q 395.724702 17.28 398.764003 17.28 
Q 400.150414 17.28 401.612447 18.608453 
Q 403.074481 19.936906 404.637344 22.570907 
z
" clip-path="url(#pce34ccaecd)" style="fill: #40ba47"/>
   </g>
   <g id="patch_16">
    <path d="M 413.423862 111.578719 
L 413.164204 111.578719 
Q 409.979251 111.578719 408.208604 99.152512 
Q 406.44072 86.706798 406.44072 64.526897 
Q 406.44072 42.38601 408.205842 29.842759 
Q 409.970964 17.28 413.070285 17.28 
Q 416.202755 17.28 417.951302 29.725714 
Q 419.69985 42.151921 419.69985 64.526897 
Q 419.69985 79.879212 418.771711 90.978916 
Q 417.843572 102.078621 416.100549 107.677241 
L 418.697128 128.16 
L 415.528749 128.16 
L 413.423862 111.578719 
z
M 413.070285 34.290443 
Q 411.55101 34.290443 410.714027 42.210443 
Q 409.877045 50.130443 409.877045 64.526897 
Q 409.877045 79.157438 410.694691 86.940887 
Q 411.5151 94.704828 413.070285 94.704828 
Q 414.597847 94.704828 415.43483 86.784828 
Q 416.271812 78.84532 416.271812 64.526897 
Q 416.271812 50.130443 415.43483 42.210443 
Q 414.597847 34.290443 413.070285 34.290443 
z
" clip-path="url(#pce34ccaecd)" style="fill: #40ba47"/>
   </g>
   <g id="patch_17">
    <path d="M 424.621422 17.28 
L 429.433106 17.28 
L 429.433106 128.16 
L 424.621422 128.16 
L 424.621422 17.28 
z
" clip-path="url(#pce34ccaecd)" style="fill: #21599c"/>
   </g>
   <g id="patch_18">
    <path d="M 439.734509 66.446464 
Q 440.924431 66.446464 441.440694 63.119589 
Q 441.956956 59.76895 441.956956 52.117137 
Q 441.956956 44.536614 441.440694 41.281029 
Q 440.924431 38.00168 439.734509 38.00168 
L 438.141651 38.00168 
L 438.141651 66.446464 
L 439.734509 66.446464 
z
M 438.141651 86.193845 
L 438.141651 128.16 
L 434.354677 128.16 
L 434.354677 17.28 
L 440.137446 17.28 
Q 443.039848 17.28 444.390315 24.646652 
Q 445.74393 31.989541 445.74393 47.887252 
Q 445.74393 58.865941 445.038791 65.923669 
Q 444.3368 72.981397 442.920226 76.332036 
Q 443.697768 77.662786 444.311616 82.391702 
Q 444.928613 87.096854 445.558201 96.673502 
L 447.613807 128.16 
L 443.581294 128.16 
L 441.790115 100.618225 
Q 441.248669 92.301037 440.691484 89.259323 
Q 440.137446 86.193845 439.211951 86.193845 
L 438.141651 86.193845 
z
" clip-path="url(#pce34ccaecd)" style="fill: #bd2e1f"/>
   </g>
   <g id="patch_19">
    <path d="M 452.535379 17.28 
L 457.347063 17.28 
L 457.347063 128.16 
L 452.535379 128.16 
L 452.535379 17.28 
z
" clip-path="url(#pce34ccaecd)" style="fill: #21599c"/>
   </g>
   <g id="patch_20">
    <path d="M 462.268634 17.28 
L 475.251782 17.28 
L 475.251782 38.904689 
L 467.080318 38.904689 
L 467.080318 59.531316 
L 474.767814 59.531316 
L 474.767814 81.156005 
L 467.080318 81.156005 
L 467.080318 106.559074 
L 475.527764 106.559074 
L 475.527764 128.16 
L 462.268634 128.16 
L 462.268634 17.28 
z
" clip-path="url(#pce34ccaecd)" style="fill: #6b296b"/>
   </g>
   <g id="patch_21">
    <path d="M 476.225613 17.28 
L 489.484742 17.28 
L 489.484742 38.904689 
L 484.714539 38.904689 
L 484.714539 128.16 
L 481.005066 128.16 
L 481.005066 38.904689 
L 476.225613 38.904689 
L 476.225613 17.28 
z
" clip-path="url(#pce34ccaecd)" style="fill: #40ba47"/>
   </g>
   <g id="patch_22">
    <path d="M 503.441721 118.127891 
Q 502.104516 123.143945 500.666278 125.663425 
Q 499.22804 128.16 497.694711 128.16 
Q 494.229865 128.16 492.206228 113.226358 
Q 490.182591 98.292716 490.182591 72.754357 
Q 490.182591 46.91824 492.241887 32.09912 
Q 494.304154 17.28 497.890835 17.28 
Q 499.272613 17.28 500.5385 19.295584 
Q 501.807359 21.288263 502.930611 25.227812 
L 502.930611 47.330518 
Q 501.771701 42.268655 500.624676 39.77208 
Q 499.477651 37.252601 498.324683 37.252601 
Q 496.191099 37.252601 495.035159 46.460153 
Q 493.87922 55.644801 493.87922 72.754357 
Q 493.87922 89.703582 494.993557 98.956943 
Q 496.107895 108.187399 498.158276 108.187399 
Q 498.71693 108.187399 499.195352 107.660599 
Q 499.673775 107.110894 500.054135 105.965677 
L 500.054135 85.214328 
L 497.870034 85.214328 
L 497.870034 66.73051 
L 503.441721 66.73051 
L 503.441721 118.127891 
z
" clip-path="url(#pce34ccaecd)" style="fill: #787800"/>
   </g>
   <g id="patch_23">
    <path d="M 504.13957 17.28 
L 508.951254 17.28 
L 508.951254 106.559074 
L 517.398699 106.559074 
L 517.398699 128.16 
L 504.13957 128.16 
L 504.13957 17.28 
z
" clip-path="url(#pce34ccaecd)" style="fill: #21599c"/>
   </g>
   <g id="patch_24">
    <path d="M 521.729973 38.904689 
L 521.729973 106.559074 
L 523.031723 106.559074 
Q 525.257686 106.559074 526.432584 97.861672 
Q 527.610502 89.164269 527.610502 72.601183 
Q 527.610502 56.13315 526.438625 47.530802 
Q 525.269768 38.904689 523.031723 38.904689 
L 521.729973 38.904689 
z
M 518.096548 17.28 
L 521.926292 17.28 
Q 525.136874 17.28 526.707432 20.892036 
Q 528.277989 24.480309 529.401542 33.106421 
Q 530.392201 40.615654 530.872429 50.429936 
Q 531.355678 60.220454 531.355678 72.601183 
Q 531.355678 85.172019 530.872429 95.010064 
Q 530.392201 104.84811 529.401542 112.333579 
Q 528.268928 120.959691 526.683269 124.571727 
Q 525.09761 128.16 521.926292 128.16 
L 518.096548 128.16 
L 518.096548 17.28 
z
" clip-path="url(#pce34ccaecd)" style="fill: #6b296b"/>
   </g>
   <g id="patch_25">
    <path d="M 537.433359 66.446464 
Q 538.623281 66.446464 539.139543 63.119589 
Q 539.655805 59.76895 539.655805 52.117137 
Q 539.655805 44.536614 539.139543 41.281029 
Q 538.623281 38.00168 537.433359 38.00168 
L 535.8405 38.00168 
L 535.8405 66.446464 
L 537.433359 66.446464 
z
M 535.8405 86.193845 
L 535.8405 128.16 
L 532.053527 128.16 
L 532.053527 17.28 
L 537.836295 17.28 
Q 540.738697 17.28 542.089164 24.646652 
Q 543.442779 31.989541 543.442779 47.887252 
Q 543.442779 58.865941 542.73764 65.923669 
Q 542.035649 72.981397 540.619076 76.332036 
Q 541.396617 77.662786 542.010466 82.391702 
Q 542.627462 87.096854 543.257051 96.673502 
L 545.312656 128.16 
L 541.280143 128.16 
L 539.488965 100.618225 
Q 538.947519 92.301037 538.390333 89.259323 
Q 537.836295 86.193845 536.9108 86.193845 
L 535.8405 86.193845 
z
" clip-path="url(#pce34ccaecd)" style="fill: #bd2e1f"/>
   </g>
   <g id="patch_26">
    <path d="M 559.269635 118.127891 
Q 557.93243 123.143945 556.494192 125.663425 
Q 555.055954 128.16 553.522625 128.16 
Q 550.057779 128.16 548.034142 113.226358 
Q 546.010505 98.292716 546.010505 72.754357 
Q 546.010505 46.91824 548.069801 32.09912 
Q 550.132068 17.28 553.718749 17.28 
Q 555.100527 17.28 556.366414 19.295584 
Q 557.635273 21.288263 558.758525 25.227812 
L 558.758525 47.330518 
Q 557.599614 42.268655 556.45259 39.77208 
Q 555.305565 37.252601 554.152597 37.252601 
Q 552.019013 37.252601 550.863073 46.460153 
Q 549.707134 55.644801 549.707134 72.754357 
Q 549.707134 89.703582 550.821471 98.956943 
Q 551.935809 108.187399 553.98619 108.187399 
Q 554.544844 108.187399 555.023266 107.660599 
Q 555.501689 107.110894 555.882049 105.965677 
L 555.882049 85.214328 
L 553.697948 85.214328 
L 553.697948 66.73051 
L 559.269635 66.73051 
L 559.269635 118.127891 
z
" clip-path="url(#pce34ccaecd)" style="fill: #787800"/>
   </g>
   <g id="patch_27">
    <path d="M 559.967484 17.28 
L 573.226613 17.28 
L 573.226613 38.904689 
L 568.45641 38.904689 
L 568.45641 128.16 
L 564.746937 128.16 
L 564.746937 38.904689 
L 559.967484 38.904689 
L 559.967484 17.28 
z
" clip-path="url(#pce34ccaecd)" style="fill: #40ba47"/>
   </g>
   <g id="patch_28">
    <path d="M 578.148185 17.28 
L 582.959869 17.28 
L 582.959869 128.16 
L 578.148185 128.16 
L 578.148185 17.28 
z
" clip-path="url(#pce34ccaecd)" style="fill: #21599c"/>
   </g>
   <g id="patch_29">
    <path d="M 593.261273 66.446464 
Q 594.451195 66.446464 594.967457 63.119589 
Q 595.483719 59.76895 595.483719 52.117137 
Q 595.483719 44.536614 594.967457 41.281029 
Q 594.451195 38.00168 593.261273 38.00168 
L 591.668414 38.00168 
L 591.668414 66.446464 
L 593.261273 66.446464 
z
M 591.668414 86.193845 
L 591.668414 128.16 
L 587.881441 128.16 
L 587.881441 17.28 
L 593.664209 17.28 
Q 596.566611 17.28 597.917078 24.646652 
Q 599.270693 31.989541 599.270693 47.887252 
Q 599.270693 58.865941 598.565554 65.923669 
Q 597.863563 72.981397 596.44699 76.332036 
Q 597.224531 77.662786 597.83838 82.391702 
Q 598.455376 87.096854 599.084964 96.673502 
L 601.14057 128.16 
L 597.108057 128.16 
L 595.316879 100.618225 
Q 594.775433 92.301037 594.218247 89.259323 
Q 593.664209 86.193845 592.738714 86.193845 
L 591.668414 86.193845 
z
" clip-path="url(#pce34ccaecd)" style="fill: #bd2e1f"/>
   </g>
   <g id="patch_30">
    <path d="M 601.838419 17.28 
L 605.332556 17.28 
L 605.332556 57.749061 
L 610.368992 17.28 
L 614.426605 17.28 
L 607.900151 69.797102 
L 615.097549 128.16 
L 610.723343 128.16 
L 605.332556 84.48288 
L 605.332556 128.16 
L 601.838419 128.16 
L 601.838419 17.28 
z
" clip-path="url(#pce34ccaecd)" style="fill: #bd2e1f"/>
   </g>
   <g id="patch_31">
    <path d="M 615.795398 17.28 
L 619.461157 17.28 
L 622.422177 56.798526 
L 625.380411 17.28 
L 629.054527 17.28 
L 624.101852 81.441166 
L 624.101852 128.16 
L 620.750858 128.16 
L 620.750858 81.441166 
L 615.795398 17.28 
z
" clip-path="url(#pce34ccaecd)" style="fill: #177875"/>
   </g>
   <g id="patch_32">
    <path d="M 635.132208 66.446464 
Q 636.32213 66.446464 636.838392 63.119589 
Q 637.354655 59.76895 637.354655 52.117137 
Q 637.354655 44.536614 636.838392 41.281029 
Q 636.32213 38.00168 635.132208 38.00168 
L 633.53935 38.00168 
L 633.53935 66.446464 
L 635.132208 66.446464 
z
M 633.53935 86.193845 
L 633.53935 128.16 
L 629.752376 128.16 
L 629.752376 17.28 
L 635.535145 17.28 
Q 638.437547 17.28 639.788014 24.646652 
Q 641.141629 31.989541 641.141629 47.887252 
Q 641.141629 58.865941 640.43649 65.923669 
Q 639.734499 72.981397 638.317925 76.332036 
Q 639.095467 77.662786 639.709315 82.391702 
Q 640.326312 87.096854 640.9559 96.673502 
L 643.011506 128.16 
L 638.978993 128.16 
L 637.187814 100.618225 
Q 636.646368 92.301037 636.089182 89.259323 
Q 635.535145 86.193845 634.60965 86.193845 
L 633.53935 86.193845 
z
" clip-path="url(#pce34ccaecd)" style="fill: #bd2e1f"/>
   </g>
   <g id="patch_33">
    <path d="M 655.862957 22.570907 
L 655.862957 45.200413 
Q 654.480147 41.260863 653.162156 39.268184 
Q 651.847767 37.252601 650.67742 37.252601 
Q 649.12536 37.252601 648.379939 39.978219 
Q 647.638119 42.680934 647.638119 48.407023 
Q 647.638119 52.713043 648.138667 55.118 
Q 648.639216 57.500054 649.957206 59.217881 
L 651.800953 61.57703 
Q 654.602583 65.173014 655.783733 72.479504 
Q 656.968484 79.76309 656.968484 93.230853 
Q 656.968484 110.890114 655.319195 119.525057 
Q 653.669907 128.16 650.281302 128.16 
Q 648.68603 128.16 647.076353 126.21313 
Q 645.466675 124.289163 643.856998 120.48704 
L 643.856998 97.239116 
Q 645.466675 102.667449 646.968321 105.438876 
Q 648.469966 108.187399 649.86718 108.187399 
Q 651.286 108.187399 652.038623 105.186928 
Q 652.791246 102.163553 652.791246 96.574889 
Q 652.791246 91.581739 652.279895 88.856121 
Q 651.768543 86.130502 650.23809 83.977492 
L 648.559992 81.618343 
Q 646.039245 78.18269 644.872499 70.67006 
Q 643.709355 63.15743 643.709355 50.422607 
Q 643.709355 34.458269 645.329835 25.869134 
Q 646.950315 17.28 649.989616 17.28 
Q 651.376027 17.28 652.83806 18.608453 
Q 654.300093 19.936906 655.862957 22.570907 
z
" clip-path="url(#pce34ccaecd)" style="fill: #40ba47"/>
   </g>
   <g id="patch_34">
    <path d="M 657.666333 17.28 
L 662.478017 17.28 
L 662.478017 106.559074 
L 670.925463 106.559074 
L 670.925463 128.16 
L 657.666333 128.16 
L 657.666333 17.28 
z
" clip-path="url(#pce34ccaecd)" style="fill: #21599c"/>
   </g>
   <g id="patch_35">
    <path d="M 683.776914 22.570907 
L 683.776914 45.200413 
Q 682.394104 41.260863 681.076113 39.268184 
Q 679.761724 37.252601 678.591377 37.252601 
Q 677.039317 37.252601 676.293896 39.978219 
Q 675.552076 42.680934 675.552076 48.407023 
Q 675.552076 52.713043 676.052624 55.118 
Q 676.553173 57.500054 677.871163 59.217881 
L 679.71491 61.57703 
Q 682.51654 65.173014 683.69769 72.479504 
Q 684.882441 79.76309 684.882441 93.230853 
Q 684.882441 110.890114 683.233152 119.525057 
Q 681.583864 128.16 678.195259 128.16 
Q 676.599987 128.16 674.99031 126.21313 
Q 673.380632 124.289163 671.770955 120.48704 
L 671.770955 97.239116 
Q 673.380632 102.667449 674.882278 105.438876 
Q 676.383923 108.187399 677.781137 108.187399 
Q 679.199957 108.187399 679.95258 105.186928 
Q 680.705203 102.163553 680.705203 96.574889 
Q 680.705203 91.581739 680.193852 88.856121 
Q 679.6825 86.130502 678.152047 83.977492 
L 676.473949 81.618343 
Q 673.953202 78.18269 672.786456 70.67006 
Q 671.623312 63.15743 671.623312 50.422607 
Q 671.623312 34.458269 673.243792 25.869134 
Q 674.864272 17.28 677.903573 17.28 
Q 679.289984 17.28 680.752017 18.608453 
Q 682.21405 19.936906 683.776914 22.570907 
z
" clip-path="url(#pce34ccaecd)" style="fill: #40ba47"/>
   </g>
   <g id="patch_36">
    <path d="M 685.58029 17.28 
L 698.563438 17.28 
L 698.563438 38.904689 
L 690.391974 38.904689 
L 690.391974 59.531316 
L 698.07947 59.531316 
L 698.07947 81.156005 
L 690.391974 81.156005 
L 690.391974 106.559074 
L 698.83942 106.559074 
L 698.83942 128.16 
L 685.58029 128.16 
L 685.58029 17.28 
z
" clip-path="url(#pce34ccaecd)" style="fill: #6b296b"/>
   </g>
   <g id="patch_37">
    <path d="M 699.537269 17.28 
L 703.031405 17.28 
L 703.031405 57.749061 
L 708.067841 17.28 
L 712.125454 17.28 
L 705.599 69.797102 
L 712.796398 128.16 
L 708.422192 128.16 
L 703.031405 84.48288 
L 703.031405 128.16 
L 699.537269 128.16 
L 699.537269 17.28 
z
" clip-path="url(#pce34ccaecd)" style="fill: #bd2e1f"/>
   </g>
   <g id="patch_38">
    <path d="M 726.753377 118.127891 
Q 725.416172 123.143945 723.977934 125.663425 
Q 722.539695 128.16 721.006367 128.16 
Q 717.541521 128.16 715.517884 113.226358 
Q 713.494247 98.292716 713.494247 72.754357 
Q 713.494247 46.91824 715.553543 32.09912 
Q 717.61581 17.28 721.202491 17.28 
Q 722.584269 17.28 723.850156 19.295584 
Q 725.119015 21.288263 726.242267 25.227812 
L 726.242267 47.330518 
Q 725.083356 42.268655 723.936332 39.77208 
Q 722.789307 37.252601 721.636339 37.252601 
Q 719.502755 37.252601 718.346815 46.460153 
Q 717.190876 55.644801 717.190876 72.754357 
Q 717.190876 89.703582 718.305213 98.956943 
Q 719.419551 108.187399 721.469932 108.187399 
Q 722.028586 108.187399 722.507008 107.660599 
Q 722.98543 107.110894 723.365791 105.965677 
L 723.365791 85.214328 
L 721.18169 85.214328 
L 721.18169 66.73051 
L 726.753377 66.73051 
L 726.753377 118.127891 
z
" clip-path="url(#pce34ccaecd)" style="fill: #787800"/>
   </g>
   <g id="patch_39">
    <path d="M 727.589217 17.28 
L 740.572364 17.28 
L 740.572364 38.904689 
L 732.400901 38.904689 
L 732.400901 59.531316 
L 740.088396 59.531316 
L 740.088396 81.156005 
L 732.400901 81.156005 
L 732.400901 128.16 
L 727.589217 128.16 
L 727.589217 17.28 
z
" clip-path="url(#pce34ccaecd)" style="fill: #21599c"/>
   </g>
   <g id="patch_40">
    <path d="M 741.408204 17.28 
L 745.223256 17.28 
L 745.223256 59.531316 
L 750.852282 59.531316 
L 750.852282 17.28 
L 754.667334 17.28 
L 754.667334 128.16 
L 750.852282 128.16 
L 750.852282 81.156005 
L 745.223256 81.156005 
L 745.223256 128.16 
L 741.408204 128.16 
L 741.408204 17.28 
z
" clip-path="url(#pce34ccaecd)" style="fill: #177875"/>
   </g>
   <g id="patch_41">
    <path d="M 758.998607 38.904689 
L 758.998607 106.559074 
L 760.300357 106.559074 
Q 762.526321 106.559074 763.701218 97.861672 
Q 764.879137 89.164269 764.879137 72.601183 
Q 764.879137 56.13315 763.707259 47.530802 
Q 762.538402 38.904689 760.300357 38.904689 
L 758.998607 38.904689 
z
M 755.365183 17.28 
L 759.194927 17.28 
Q 762.405509 17.28 763.976066 20.892036 
Q 765.546624 24.480309 766.670176 33.106421 
Q 767.660836 40.615654 768.141064 50.429936 
Q 768.624312 60.220454 768.624312 72.601183 
Q 768.624312 85.172019 768.141064 95.010064 
Q 767.660836 104.84811 766.670176 112.333579 
Q 765.537563 120.959691 763.951904 124.571727 
Q 762.366245 128.16 759.194927 128.16 
L 755.365183 128.16 
L 755.365183 17.28 
z
" clip-path="url(#pce34ccaecd)" style="fill: #6b296b"/>
   </g>
   <g id="patch_42">
    <path d="M 769.322161 17.28 
L 771.614869 17.28 
L 773.217577 97.861672 
L 774.808355 17.28 
L 777.112993 17.28 
L 778.703771 97.861672 
L 780.308467 17.28 
L 782.581291 17.28 
L 780.393972 128.16 
L 777.635961 128.16 
L 775.951726 43.871239 
L 774.287375 128.16 
L 771.527376 128.16 
L 769.322161 17.28 
z
" clip-path="url(#pce34ccaecd)" style="fill: #21599c"/>
   </g>
   <g id="patch_43">
    <path d="M 787.502862 17.28 
L 792.314546 17.28 
L 792.314546 128.16 
L 787.502862 128.16 
L 787.502862 17.28 
z
" clip-path="url(#pce34ccaecd)" style="fill: #21599c"/>
   </g>
   <g id="patch_44">
    <path d="M 809.38972 22.570907 
L 809.38972 45.200413 
Q 808.00691 41.260863 806.68892 39.268184 
Q 805.37453 37.252601 804.204183 37.252601 
Q 802.652123 37.252601 801.906702 39.978219 
Q 801.164882 42.680934 801.164882 48.407023 
Q 801.164882 52.713043 801.665431 55.118 
Q 802.165979 57.500054 803.48397 59.217881 
L 805.327716 61.57703 
Q 808.129346 65.173014 809.310497 72.479504 
Q 810.495248 79.76309 810.495248 93.230853 
Q 810.495248 110.890114 808.845959 119.525057 
Q 807.19667 128.16 803.808066 128.16 
Q 802.212793 128.16 800.603116 126.21313 
Q 798.993439 124.289163 797.383762 120.48704 
L 797.383762 97.239116 
Q 798.993439 102.667449 800.495084 105.438876 
Q 801.996729 108.187399 803.393943 108.187399 
Q 804.812764 108.187399 805.565387 105.186928 
Q 806.31801 102.163553 806.31801 96.574889 
Q 806.31801 91.581739 805.806658 88.856121 
Q 805.295307 86.130502 803.764853 83.977492 
L 802.086756 81.618343 
Q 799.566009 78.18269 798.399263 70.67006 
Q 797.236118 63.15743 797.236118 50.422607 
Q 797.236118 34.458269 798.856598 25.869134 
Q 800.477079 17.28 803.516379 17.28 
Q 804.90279 17.28 806.364824 18.608453 
Q 807.826857 19.936906 809.38972 22.570907 
z
" clip-path="url(#pce34ccaecd)" style="fill: #40ba47"/>
   </g>
   <g id="patch_45">
    <path d="M 816.572929 66.446464 
Q 817.76285 66.446464 818.279113 63.119589 
Q 818.795375 59.76895 818.795375 52.117137 
Q 818.795375 44.536614 818.279113 41.281029 
Q 817.76285 38.00168 816.572929 38.00168 
L 814.98007 38.00168 
L 814.98007 66.446464 
L 816.572929 66.446464 
z
M 814.98007 86.193845 
L 814.98007 128.16 
L 811.193097 128.16 
L 811.193097 17.28 
L 816.975865 17.28 
Q 819.878267 17.28 821.228734 24.646652 
Q 822.582349 31.989541 822.582349 47.887252 
Q 822.582349 58.865941 821.87721 65.923669 
Q 821.175219 72.981397 819.758645 76.332036 
Q 820.536187 77.662786 821.150035 82.391702 
Q 821.767032 87.096854 822.39662 96.673502 
L 824.452226 128.16 
L 820.419713 128.16 
L 818.628534 100.618225 
Q 818.087088 92.301037 817.529903 89.259323 
Q 816.975865 86.193845 816.05037 86.193845 
L 814.98007 86.193845 
z
" clip-path="url(#pce34ccaecd)" style="fill: #bd2e1f"/>
   </g>
   <g id="patch_46">
    <path d="M 825.150075 17.28 
L 832.04206 17.28 
Q 835.118592 17.28 836.762172 26.690304 
Q 838.409205 36.076845 838.409205 53.447887 
Q 838.409205 70.913982 836.762172 80.300523 
Q 835.118592 89.687064 832.04206 89.687064 
L 829.303912 89.687064 
L 829.303912 128.16 
L 825.150075 128.16 
L 825.150075 17.28 
z
M 829.303912 38.00168 
L 829.303912 68.965384 
L 831.600089 68.965384 
Q 832.808604 68.965384 833.468107 64.925607 
Q 834.127611 60.885829 834.127611 53.447887 
Q 834.127611 46.033708 833.468107 42.017694 
Q 832.808604 38.00168 831.600089 38.00168 
L 829.303912 38.00168 
z
" clip-path="url(#pce34ccaecd)" style="fill: #787800"/>
   </g>
   <g id="patch_47">
    <path d="M 844.486886 66.446464 
Q 845.676807 66.446464 846.19307 63.119589 
Q 846.709332 59.76895 846.709332 52.117137 
Q 846.709332 44.536614 846.19307 41.281029 
Q 845.676807 38.00168 844.486886 38.00168 
L 842.894027 38.00168 
L 842.894027 66.446464 
L 844.486886 66.446464 
z
M 842.894027 86.193845 
L 842.894027 128.16 
L 839.107054 128.16 
L 839.107054 17.28 
L 844.889822 17.28 
Q 847.792224 17.28 849.142691 24.646652 
Q 850.496306 31.989541 850.496306 47.887252 
Q 850.496306 58.865941 849.791167 65.923669 
Q 849.089176 72.981397 847.672602 76.332036 
Q 848.450144 77.662786 849.063992 82.391702 
Q 849.680989 87.096854 850.310577 96.673502 
L 852.366183 128.16 
L 848.33367 128.16 
L 846.542491 100.618225 
Q 846.001045 92.301037 845.44386 89.259323 
Q 844.889822 86.193845 843.964327 86.193845 
L 842.894027 86.193845 
z
" clip-path="url(#pce34ccaecd)" style="fill: #bd2e1f"/>
   </g>
   <g id="patch_48">
    <path d="M 853.064032 17.28 
L 857.323064 17.28 
L 862.704729 93.322863 
L 862.704729 17.28 
L 866.323162 17.28 
L 866.323162 128.16 
L 862.060959 128.16 
L 856.679293 52.117137 
L 856.679293 128.16 
L 853.064032 128.16 
L 853.064032 17.28 
z
" clip-path="url(#pce34ccaecd)" style="fill: #40ba47"/>
   </g>
   <g id="patch_49">
    <path d="M 867.021011 17.28 
L 871.832695 17.28 
L 871.832695 106.559074 
L 880.28014 106.559074 
L 880.28014 128.16 
L 867.021011 128.16 
L 867.021011 17.28 
z
" clip-path="url(#pce34ccaecd)" style="fill: #21599c"/>
   </g>
   <g id="patch_50">
    <path d="M 880.977989 17.28 
L 887.869974 17.28 
Q 890.946506 17.28 892.590086 26.690304 
Q 894.237119 36.076845 894.237119 53.447887 
Q 894.237119 70.913982 892.590086 80.300523 
Q 890.946506 89.687064 887.869974 89.687064 
L 885.131826 89.687064 
L 885.131826 128.16 
L 880.977989 128.16 
L 880.977989 17.28 
z
M 885.131826 38.00168 
L 885.131826 68.965384 
L 887.428003 68.965384 
Q 888.636517 68.965384 889.296021 64.925607 
Q 889.955525 60.885829 889.955525 53.447887 
Q 889.955525 46.033708 889.296021 42.017694 
Q 888.636517 38.00168 887.428003 38.00168 
L 885.131826 38.00168 
z
" clip-path="url(#pce34ccaecd)" style="fill: #787800"/>
   </g>
   <g id="patch_51">
    <path d="M 894.934967 17.28 
L 898.429104 17.28 
L 898.429104 57.749061 
L 903.46554 17.28 
L 907.523153 17.28 
L 900.996699 69.797102 
L 908.194097 128.16 
L 903.819891 128.16 
L 898.429104 84.48288 
L 898.429104 128.16 
L 894.934967 128.16 
L 894.934967 17.28 
z
" clip-path="url(#pce34ccaecd)" style="fill: #bd2e1f"/>
   </g>
   <g id="patch_52">
    <path d="M 908.891946 17.28 
L 912.386082 17.28 
L 912.386082 57.749061 
L 917.422518 17.28 
L 921.480132 17.28 
L 914.953677 69.797102 
L 922.151076 128.16 
L 917.77687 128.16 
L 912.386082 84.48288 
L 912.386082 128.16 
L 908.891946 128.16 
L 908.891946 17.28 
z
" clip-path="url(#pce34ccaecd)" style="fill: #bd2e1f"/>
   </g>
   <g id="patch_53">
    <path d="M 922.848924 17.28 
L 927.660609 17.28 
L 927.660609 106.559074 
L 936.108054 106.559074 
L 936.108054 128.16 
L 922.848924 128.16 
L 922.848924 17.28 
z
" clip-path="url(#pce34ccaecd)" style="fill: #21599c"/>
   </g>
   <g id="patch_54">
    <path d="M 950.065033 118.127891 
Q 948.727828 123.143945 947.289589 125.663425 
Q 945.851351 128.16 944.318023 128.16 
Q 940.853176 128.16 938.82954 113.226358 
Q 936.805903 98.292716 936.805903 72.754357 
Q 936.805903 46.91824 938.865199 32.09912 
Q 940.927466 17.28 944.514146 17.28 
Q 945.895925 17.28 947.161812 19.295584 
Q 948.430671 21.288263 949.553923 25.227812 
L 949.553923 47.330518 
Q 948.395012 42.268655 947.247988 39.77208 
Q 946.100963 37.252601 944.947995 37.252601 
Q 942.81441 37.252601 941.658471 46.460153 
Q 940.502532 55.644801 940.502532 72.754357 
Q 940.502532 89.703582 941.616869 98.956943 
Q 942.731206 108.187399 944.781587 108.187399 
Q 945.340242 108.187399 945.818664 107.660599 
Q 946.297086 107.110894 946.677447 105.965677 
L 946.677447 85.214328 
L 944.493345 85.214328 
L 944.493345 66.73051 
L 950.065033 66.73051 
L 950.065033 118.127891 
z
" clip-path="url(#pce34ccaecd)" style="fill: #787800"/>
   </g>
   <g id="patch_55">
    <path d="M 954.986604 17.28 
L 959.798288 17.28 
L 959.798288 128.16 
L 954.986604 128.16 
L 954.986604 17.28 
z
" clip-path="url(#pce34ccaecd)" style="fill: #21599c"/>
   </g>
   <g id="patch_56">
    <path d="M 964.71986 17.28 
L 968.385619 17.28 
L 971.346639 56.798526 
L 974.304874 17.28 
L 977.978989 17.28 
L 973.026315 81.441166 
L 973.026315 128.16 
L 969.67532 128.16 
L 969.67532 81.441166 
L 964.71986 17.28 
z
" clip-path="url(#pce34ccaecd)" style="fill: #177875"/>
   </g>
   <g id="patch_57">
    <path d="M 978.676838 17.28 
L 982.342598 17.28 
L 985.303618 56.798526 
L 988.261852 17.28 
L 991.935968 17.28 
L 986.983293 81.441166 
L 986.983293 128.16 
L 983.632299 128.16 
L 983.632299 81.441166 
L 978.676838 17.28 
z
" clip-path="url(#pce34ccaecd)" style="fill: #177875"/>
   </g>
   <g id="patch_58">
    <path d="M 1004.787419 22.570907 
L 1004.787419 45.200413 
Q 1003.404609 41.260863 1002.086618 39.268184 
Q 1000.772229 37.252601 999.601882 37.252601 
Q 998.049822 37.252601 997.304401 39.978219 
Q 996.562581 42.680934 996.562581 48.407023 
Q 996.562581 52.713043 997.06313 55.118 
Q 997.563678 57.500054 998.881669 59.217881 
L 1000.725415 61.57703 
Q 1003.527045 65.173014 1004.708195 72.479504 
Q 1005.892946 79.76309 1005.892946 93.230853 
Q 1005.892946 110.890114 1004.243658 119.525057 
Q 1002.594369 128.16 999.205765 128.16 
Q 997.610492 128.16 996.000815 126.21313 
Q 994.391138 124.289163 992.781461 120.48704 
L 992.781461 97.239116 
Q 994.391138 102.667449 995.892783 105.438876 
Q 997.394428 108.187399 998.791642 108.187399 
Q 1000.210462 108.187399 1000.963085 105.186928 
Q 1001.715708 102.163553 1001.715708 96.574889 
Q 1001.715708 91.581739 1001.204357 88.856121 
Q 1000.693005 86.130502 999.162552 83.977492 
L 997.484454 81.618343 
Q 994.963707 78.18269 993.796962 70.67006 
Q 992.633817 63.15743 992.633817 50.422607 
Q 992.633817 34.458269 994.254297 25.869134 
Q 995.874777 17.28 998.914078 17.28 
Q 1000.300489 17.28 1001.762522 18.608453 
Q 1003.224556 19.936906 1004.787419 22.570907 
z
" clip-path="url(#pce34ccaecd)" style="fill: #40ba47"/>
   </g>
   <g id="patch_59">
    <path d="M 1006.728786 17.28 
L 1019.711934 17.28 
L 1019.711934 38.904689 
L 1011.54047 38.904689 
L 1011.54047 59.531316 
L 1019.227966 59.531316 
L 1019.227966 81.156005 
L 1011.54047 81.156005 
L 1011.54047 128.16 
L 1006.728786 128.16 
L 1006.728786 17.28 
z
" clip-path="url(#pce34ccaecd)" style="fill: #21599c"/>
   </g>
   <g id="patch_60">
    <path d="M 1020.547774 17.28 
L 1023.827992 17.28 
L 1027.181405 99.121132 
L 1030.529396 17.28 
L 1033.806903 17.28 
L 1029.122427 128.16 
L 1025.232251 128.16 
L 1020.547774 17.28 
z
" clip-path="url(#pce34ccaecd)" style="fill: #21599c"/>
   </g>
   <g id="patch_61">
    <path d="M 1034.504752 17.28 
L 1037.998889 17.28 
L 1037.998889 57.749061 
L 1043.035325 17.28 
L 1047.092938 17.28 
L 1040.566484 69.797102 
L 1047.763882 128.16 
L 1043.389676 128.16 
L 1037.998889 84.48288 
L 1037.998889 128.16 
L 1034.504752 128.16 
L 1034.504752 17.28 
z
" clip-path="url(#pce34ccaecd)" style="fill: #bd2e1f"/>
   </g>
   <g id="patch_62">
    <path d="M 1048.461731 17.28 
L 1061.444879 17.28 
L 1061.444879 38.904689 
L 1053.273415 38.904689 
L 1053.273415 59.531316 
L 1060.96091 59.531316 
L 1060.96091 81.156005 
L 1053.273415 81.156005 
L 1053.273415 106.559074 
L 1061.72086 106.559074 
L 1061.72086 128.16 
L 1048.461731 128.16 
L 1048.461731 17.28 
z
" clip-path="url(#pce34ccaecd)" style="fill: #6b296b"/>
   </g>
   <g id="patch_63">
    <path d="M 1062.418709 17.28 
L 1066.233761 17.28 
L 1066.233761 59.531316 
L 1071.862787 59.531316 
L 1071.862787 17.28 
L 1075.677839 17.28 
L 1075.677839 128.16 
L 1071.862787 128.16 
L 1071.862787 81.156005 
L 1066.233761 81.156005 
L 1066.233761 128.16 
L 1062.418709 128.16 
L 1062.418709 17.28 
z
" clip-path="url(#pce34ccaecd)" style="fill: #177875"/>
   </g>
   <g id="patch_64">
    <path d="M 1076.375688 17.28 
L 1081.187372 17.28 
L 1081.187372 106.559074 
L 1089.634817 106.559074 
L 1089.634817 128.16 
L 1076.375688 128.16 
L 1076.375688 17.28 
z
" clip-path="url(#pce34ccaecd)" style="fill: #21599c"/>
   </g>
   <g id="patch_65">
    <path d="M 1090.332666 17.28 
L 1103.315814 17.28 
L 1103.315814 38.904689 
L 1095.14435 38.904689 
L 1095.14435 59.531316 
L 1102.831846 59.531316 
L 1102.831846 81.156005 
L 1095.14435 81.156005 
L 1095.14435 106.559074 
L 1103.591796 106.559074 
L 1103.591796 128.16 
L 1090.332666 128.16 
L 1090.332666 17.28 
z
" clip-path="url(#pce34ccaecd)" style="fill: #6b296b"/>
   </g>
   <g id="patch_66">
    <path d="M 1104.289645 17.28 
L 1109.101329 17.28 
L 1109.101329 106.559074 
L 1117.548774 106.559074 
L 1117.548774 128.16 
L 1104.289645 128.16 
L 1104.289645 17.28 
z
" clip-path="url(#pce34ccaecd)" style="fill: #21599c"/>
   </g>
   <g id="patch_67">
    <path d="M 1125.229765 111.578719 
L 1124.970107 111.578719 
Q 1121.785154 111.578719 1120.014507 99.152512 
Q 1118.246623 86.706798 1118.246623 64.526897 
Q 1118.246623 42.38601 1120.011745 29.842759 
Q 1121.776867 17.28 1124.876188 17.28 
Q 1128.008657 17.28 1129.757205 29.725714 
Q 1131.505753 42.151921 1131.505753 64.526897 
Q 1131.505753 79.879212 1130.577614 90.978916 
Q 1129.649475 102.078621 1127.906452 107.677241 
L 1130.503031 128.16 
L 1127.334652 128.16 
L 1125.229765 111.578719 
z
M 1124.876188 34.290443 
Q 1123.356913 34.290443 1122.51993 42.210443 
Q 1121.682948 50.130443 1121.682948 64.526897 
Q 1121.682948 79.157438 1122.500594 86.940887 
Q 1123.321003 94.704828 1124.876188 94.704828 
Q 1126.40375 94.704828 1127.240733 86.784828 
Q 1128.077715 78.84532 1128.077715 64.526897 
Q 1128.077715 50.130443 1127.240733 42.210443 
Q 1126.40375 34.290443 1124.876188 34.290443 
z
" clip-path="url(#pce34ccaecd)" style="fill: #40ba47"/>
   </g>
   <g id="patch_68">
    <path d="M 1132.203602 17.28 
L 1139.095587 17.28 
Q 1142.172119 17.28 1143.815699 26.690304 
Q 1145.462731 36.076845 1145.462731 53.447887 
Q 1145.462731 70.913982 1143.815699 80.300523 
Q 1142.172119 89.687064 1139.095587 89.687064 
L 1136.357438 89.687064 
L 1136.357438 128.16 
L 1132.203602 128.16 
L 1132.203602 17.28 
z
M 1136.357438 38.00168 
L 1136.357438 68.965384 
L 1138.653616 68.965384 
Q 1139.86213 68.965384 1140.521634 64.925607 
Q 1141.181137 60.885829 1141.181137 53.447887 
Q 1141.181137 46.033708 1140.521634 42.017694 
Q 1139.86213 38.00168 1138.653616 38.00168 
L 1136.357438 38.00168 
z
" clip-path="url(#pce34ccaecd)" style="fill: #787800"/>
   </g>
   <g id="patch_69">
    <path d="M 1146.16058 17.28 
L 1149.82634 17.28 
L 1152.78736 56.798526 
L 1155.745594 17.28 
L 1159.41971 17.28 
L 1154.467035 81.441166 
L 1154.467035 128.16 
L 1151.116041 128.16 
L 1151.116041 81.441166 
L 1146.16058 17.28 
z
" clip-path="url(#pce34ccaecd)" style="fill: #177875"/>
   </g>
   <g id="patch_70">
    <path d="M 1160.117559 17.28 
L 1164.929243 17.28 
L 1164.929243 106.559074 
L 1173.376688 106.559074 
L 1173.376688 128.16 
L 1160.117559 128.16 
L 1160.117559 17.28 
z
" clip-path="url(#pce34ccaecd)" style="fill: #21599c"/>
   </g>
   <g id="patch_71">
    <path d="M 1186.228139 22.570907 
L 1186.228139 45.200413 
Q 1184.845329 41.260863 1183.527339 39.268184 
Q 1182.212949 37.252601 1181.042602 37.252601 
Q 1179.490542 37.252601 1178.745121 39.978219 
Q 1178.003302 42.680934 1178.003302 48.407023 
Q 1178.003302 52.713043 1178.50385 55.118 
Q 1179.004398 57.500054 1180.322389 59.217881 
L 1182.166135 61.57703 
Q 1184.967766 65.173014 1186.148916 72.479504 
Q 1187.333667 79.76309 1187.333667 93.230853 
Q 1187.333667 110.890114 1185.684378 119.525057 
Q 1184.035089 128.16 1180.646485 128.16 
Q 1179.051212 128.16 1177.441535 126.21313 
Q 1175.831858 124.289163 1174.222181 120.48704 
L 1174.222181 97.239116 
Q 1175.831858 102.667449 1177.333503 105.438876 
Q 1178.835148 108.187399 1180.232362 108.187399 
Q 1181.651183 108.187399 1182.403806 105.186928 
Q 1183.156429 102.163553 1183.156429 96.574889 
Q 1183.156429 91.581739 1182.645077 88.856121 
Q 1182.133726 86.130502 1180.603272 83.977492 
L 1178.925175 81.618343 
Q 1176.404428 78.18269 1175.237682 70.67006 
Q 1174.074537 63.15743 1174.074537 50.422607 
Q 1174.074537 34.458269 1175.695018 25.869134 
Q 1177.315498 17.28 1180.354799 17.28 
Q 1181.741209 17.28 1183.203243 18.608453 
Q 1184.665276 19.936906 1186.228139 22.570907 
z
" clip-path="url(#pce34ccaecd)" style="fill: #40ba47"/>
   </g>
   <g id="patch_72">
    <path d="M 1200.185118 22.570907 
L 1200.185118 45.200413 
Q 1198.802308 41.260863 1197.484317 39.268184 
Q 1196.169928 37.252601 1194.999581 37.252601 
Q 1193.447521 37.252601 1192.7021 39.978219 
Q 1191.96028 42.680934 1191.96028 48.407023 
Q 1191.96028 52.713043 1192.460828 55.118 
Q 1192.961377 57.500054 1194.279367 59.217881 
L 1196.123114 61.57703 
Q 1198.924744 65.173014 1200.105894 72.479504 
Q 1201.290645 79.76309 1201.290645 93.230853 
Q 1201.290645 110.890114 1199.641357 119.525057 
Q 1197.992068 128.16 1194.603463 128.16 
Q 1193.008191 128.16 1191.398514 126.21313 
Q 1189.788837 124.289163 1188.17916 120.48704 
L 1188.17916 97.239116 
Q 1189.788837 102.667449 1191.290482 105.438876 
Q 1192.792127 108.187399 1194.189341 108.187399 
Q 1195.608161 108.187399 1196.360784 105.186928 
Q 1197.113407 102.163553 1197.113407 96.574889 
Q 1197.113407 91.581739 1196.602056 88.856121 
Q 1196.090704 86.130502 1194.560251 83.977492 
L 1192.882153 81.618343 
Q 1190.361406 78.18269 1189.19466 70.67006 
Q 1188.031516 63.15743 1188.031516 50.422607 
Q 1188.031516 34.458269 1189.651996 25.869134 
Q 1191.272476 17.28 1194.311777 17.28 
Q 1195.698188 17.28 1197.160221 18.608453 
Q 1198.622255 19.936906 1200.185118 22.570907 
z
" clip-path="url(#pce34ccaecd)" style="fill: #40ba47"/>
   </g>
   <g id="patch_73">
    <path d="M 1201.988494 17.28 
L 1205.268712 17.28 
L 1208.622125 99.121132 
L 1211.970117 17.28 
L 1215.247624 17.28 
L 1210.563147 128.16 
L 1206.672971 128.16 
L 1201.988494 17.28 
z
" clip-path="url(#pce34ccaecd)" style="fill: #21599c"/>
   </g>
   <g id="patch_74">
    <path d="M 1222.928614 111.578719 
L 1222.668956 111.578719 
Q 1219.484003 111.578719 1217.713357 99.152512 
Q 1215.945473 86.706798 1215.945473 64.526897 
Q 1215.945473 42.38601 1217.710594 29.842759 
Q 1219.475716 17.28 1222.575038 17.28 
Q 1225.707507 17.28 1227.456055 29.725714 
Q 1229.204602 42.151921 1229.204602 64.526897 
Q 1229.204602 79.879212 1228.276463 90.978916 
Q 1227.348324 102.078621 1225.605301 107.677241 
L 1228.201881 128.16 
L 1225.033501 128.16 
L 1222.928614 111.578719 
z
M 1222.575038 34.290443 
Q 1221.055762 34.290443 1220.21878 42.210443 
Q 1219.381797 50.130443 1219.381797 64.526897 
Q 1219.381797 79.157438 1220.199443 86.940887 
Q 1221.019852 94.704828 1222.575038 94.704828 
Q 1224.1026 94.704828 1224.939582 86.784828 
Q 1225.776565 78.84532 1225.776565 64.526897 
Q 1225.776565 50.130443 1224.939582 42.210443 
Q 1224.1026 34.290443 1222.575038 34.290443 
z
" clip-path="url(#pce34ccaecd)" style="fill: #40ba47"/>
   </g>
   <g id="patch_75">
    <path d="M 1234.126174 17.28 
L 1238.937858 17.28 
L 1238.937858 128.16 
L 1234.126174 128.16 
L 1234.126174 17.28 
z
" clip-path="url(#pce34ccaecd)" style="fill: #21599c"/>
   </g>
   <g id="patch_76">
    <path d="M 1243.85943 17.28 
L 1256.842577 17.28 
L 1256.842577 38.904689 
L 1248.671114 38.904689 
L 1248.671114 59.531316 
L 1256.358609 59.531316 
L 1256.358609 81.156005 
L 1248.671114 81.156005 
L 1248.671114 106.559074 
L 1257.118559 106.559074 
L 1257.118559 128.16 
L 1243.85943 128.16 
L 1243.85943 17.28 
z
" clip-path="url(#pce34ccaecd)" style="fill: #6b296b"/>
   </g>
   <g id="patch_77">
    <path d="M 1261.449833 38.904689 
L 1261.449833 106.559074 
L 1262.751583 106.559074 
Q 1264.977546 106.559074 1266.152444 97.861672 
Q 1267.330362 89.164269 1267.330362 72.601183 
Q 1267.330362 56.13315 1266.158485 47.530802 
Q 1264.989628 38.904689 1262.751583 38.904689 
L 1261.449833 38.904689 
z
M 1257.816408 17.28 
L 1261.646152 17.28 
Q 1264.856734 17.28 1266.427292 20.892036 
Q 1267.997849 24.480309 1269.121402 33.106421 
Q 1270.112061 40.615654 1270.592289 50.429936 
Q 1271.075538 60.220454 1271.075538 72.601183 
Q 1271.075538 85.172019 1270.592289 95.010064 
Q 1270.112061 104.84811 1269.121402 112.333579 
Q 1267.988788 120.959691 1266.403129 124.571727 
Q 1264.81747 128.16 1261.646152 128.16 
L 1257.816408 128.16 
L 1257.816408 17.28 
z
" clip-path="url(#pce34ccaecd)" style="fill: #6b296b"/>
   </g>
   <g id="patch_78">
    <path d="M 1277.153219 66.446464 
Q 1278.343141 66.446464 1278.859403 63.119589 
Q 1279.375665 59.76895 1279.375665 52.117137 
Q 1279.375665 44.536614 1278.859403 41.281029 
Q 1278.343141 38.00168 1277.153219 38.00168 
L 1275.56036 38.00168 
L 1275.56036 66.446464 
L 1277.153219 66.446464 
z
M 1275.56036 86.193845 
L 1275.56036 128.16 
L 1271.773387 128.16 
L 1271.773387 17.28 
L 1277.556155 17.28 
Q 1280.458557 17.28 1281.809024 24.646652 
Q 1283.162639 31.989541 1283.162639 47.887252 
Q 1283.162639 58.865941 1282.4575 65.923669 
Q 1281.755509 72.981397 1280.338935 76.332036 
Q 1281.116477 77.662786 1281.730326 82.391702 
Q 1282.347322 87.096854 1282.97691 96.673502 
L 1285.032516 128.16 
L 1281.000003 128.16 
L 1279.208824 100.618225 
Q 1278.667379 92.301037 1278.110193 89.259323 
Q 1277.556155 86.193845 1276.63066 86.193845 
L 1275.56036 86.193845 
z
" clip-path="url(#pce34ccaecd)" style="fill: #bd2e1f"/>
   </g>
   <g id="patch_79">
    <path d="M 1285.730365 17.28 
L 1290.542049 17.28 
L 1290.542049 106.559074 
L 1298.989495 106.559074 
L 1298.989495 128.16 
L 1285.730365 128.16 
L 1285.730365 17.28 
z
" clip-path="url(#pce34ccaecd)" style="fill: #21599c"/>
   </g>
   <g id="patch_80">
    <path d="M 1299.687344 17.28 
L 1303.598659 17.28 
L 1306.311799 76.617197 
L 1309.042822 17.28 
L 1312.946473 17.28 
L 1312.946473 128.16 
L 1310.041728 128.16 
L 1310.041728 47.055534 
L 1307.295376 106.844235 
L 1305.346105 106.844235 
L 1302.599754 47.055534 
L 1302.599754 128.16 
L 1299.687344 128.16 
L 1299.687344 17.28 
z
" clip-path="url(#pce34ccaecd)" style="fill: #21599c"/>
   </g>
   <g id="patch_81">
    <path d="M 1313.644322 17.28 
L 1326.62747 17.28 
L 1326.62747 38.904689 
L 1318.456006 38.904689 
L 1318.456006 59.531316 
L 1326.143502 59.531316 
L 1326.143502 81.156005 
L 1318.456006 81.156005 
L 1318.456006 106.559074 
L 1326.903452 106.559074 
L 1326.903452 128.16 
L 1313.644322 128.16 
L 1313.644322 17.28 
z
" clip-path="url(#pce34ccaecd)" style="fill: #6b296b"/>
   </g>
   <g id="patch_82">
    <path d="M 1332.981133 66.446464 
Q 1334.171055 66.446464 1334.687317 63.119589 
Q 1335.203579 59.76895 1335.203579 52.117137 
Q 1335.203579 44.536614 1334.687317 41.281029 
Q 1334.171055 38.00168 1332.981133 38.00168 
L 1331.388274 38.00168 
L 1331.388274 66.446464 
L 1332.981133 66.446464 
z
M 1331.388274 86.193845 
L 1331.388274 128.16 
L 1327.601301 128.16 
L 1327.601301 17.28 
L 1333.384069 17.28 
Q 1336.286471 17.28 1337.636938 24.646652 
Q 1338.990553 31.989541 1338.990553 47.887252 
Q 1338.990553 58.865941 1338.285414 65.923669 
Q 1337.583423 72.981397 1336.166849 76.332036 
Q 1336.944391 77.662786 1337.55824 82.391702 
Q 1338.175236 87.096854 1338.804824 96.673502 
L 1340.86043 128.16 
L 1336.827917 128.16 
L 1335.036738 100.618225 
Q 1334.495293 92.301037 1333.938107 89.259323 
Q 1333.384069 86.193845 1332.458574 86.193845 
L 1331.388274 86.193845 
z
" clip-path="url(#pce34ccaecd)" style="fill: #bd2e1f"/>
   </g>
   <g id="patch_83">
    <path d="M 1341.69627 17.28 
L 1354.679418 17.28 
L 1354.679418 38.904689 
L 1346.507954 38.904689 
L 1346.507954 59.531316 
L 1354.19545 59.531316 
L 1354.19545 81.156005 
L 1346.507954 81.156005 
L 1346.507954 128.16 
L 1341.69627 128.16 
L 1341.69627 17.28 
z
" clip-path="url(#pce34ccaecd)" style="fill: #21599c"/>
   </g>
   <g id="patch_84">
    <path d="M 1355.515258 17.28 
L 1368.774387 17.28 
L 1368.774387 38.904689 
L 1364.004184 38.904689 
L 1364.004184 128.16 
L 1360.294711 128.16 
L 1360.294711 38.904689 
L 1355.515258 38.904689 
L 1355.515258 17.28 
z
" clip-path="url(#pce34ccaecd)" style="fill: #40ba47"/>
   </g>
   <g id="patch_85">
    <path d="M 1373.10566 38.904689 
L 1373.10566 106.559074 
L 1374.407411 106.559074 
Q 1376.633374 106.559074 1377.808272 97.861672 
Q 1378.98619 89.164269 1378.98619 72.601183 
Q 1378.98619 56.13315 1377.814313 47.530802 
Q 1376.645455 38.904689 1374.407411 38.904689 
L 1373.10566 38.904689 
z
M 1369.472236 17.28 
L 1373.30198 17.28 
Q 1376.512562 17.28 1378.08312 20.892036 
Q 1379.653677 24.480309 1380.77723 33.106421 
Q 1381.767889 40.615654 1382.248117 50.429936 
Q 1382.731366 60.220454 1382.731366 72.601183 
Q 1382.731366 85.172019 1382.248117 95.010064 
Q 1381.767889 104.84811 1380.77723 112.333579 
Q 1379.644616 120.959691 1378.058957 124.571727 
Q 1376.473298 128.16 1373.30198 128.16 
L 1369.472236 128.16 
L 1369.472236 17.28 
z
" clip-path="url(#pce34ccaecd)" style="fill: #6b296b"/>
   </g>
   <g id="patch_86">
    <path d="M 1383.429215 17.28 
L 1388.240899 17.28 
L 1388.240899 106.559074 
L 1396.688344 106.559074 
L 1396.688344 128.16 
L 1383.429215 128.16 
L 1383.429215 17.28 
z
" clip-path="url(#pce34ccaecd)" style="fill: #21599c"/>
   </g>
   <g id="patch_87">
    <path d="M 1397.386193 17.28 
L 1404.278178 17.28 
Q 1407.354711 17.28 1408.99829 26.690304 
Q 1410.645323 36.076845 1410.645323 53.447887 
Q 1410.645323 70.913982 1408.99829 80.300523 
Q 1407.354711 89.687064 1404.278178 89.687064 
L 1401.54003 89.687064 
L 1401.54003 128.16 
L 1397.386193 128.16 
L 1397.386193 17.28 
z
M 1401.54003 38.00168 
L 1401.54003 68.965384 
L 1403.836207 68.965384 
Q 1405.044722 68.965384 1405.704225 64.925607 
Q 1406.363729 60.885829 1406.363729 53.447887 
Q 1406.363729 46.033708 1405.704225 42.017694 
Q 1405.044722 38.00168 1403.836207 38.00168 
L 1401.54003 38.00168 
z
" clip-path="url(#pce34ccaecd)" style="fill: #787800"/>
   </g>
   <g id="patch_88">
    <path d="M 1411.343172 17.28 
L 1424.326319 17.28 
L 1424.326319 38.904689 
L 1416.154856 38.904689 
L 1416.154856 59.531316 
L 1423.842351 59.531316 
L 1423.842351 81.156005 
L 1416.154856 81.156005 
L 1416.154856 106.559074 
L 1424.602301 106.559074 
L 1424.602301 128.16 
L 1411.343172 128.16 
L 1411.343172 17.28 
z
" clip-path="url(#pce34ccaecd)" style="fill: #6b296b"/>
   </g>
   <g id="patch_89">
    <path d="M 1425.30015 17.28 
L 1428.580368 17.28 
L 1431.933781 99.121132 
L 1435.281772 17.28 
L 1438.55928 17.28 
L 1433.874803 128.16 
L 1429.984627 128.16 
L 1425.30015 17.28 
z
" clip-path="url(#pce34ccaecd)" style="fill: #21599c"/>
   </g>
   <g id="patch_90">
    <path d="M 1439.257129 17.28 
L 1443.072181 17.28 
L 1443.072181 59.531316 
L 1448.701206 59.531316 
L 1448.701206 17.28 
L 1452.516258 17.28 
L 1452.516258 128.16 
L 1448.701206 128.16 
L 1448.701206 81.156005 
L 1443.072181 81.156005 
L 1443.072181 128.16 
L 1439.257129 128.16 
L 1439.257129 17.28 
z
" clip-path="url(#pce34ccaecd)" style="fill: #177875"/>
   </g>
   <g id="patch_91">
    <path d="M 1465.367709 22.570907 
L 1465.367709 45.200413 
Q 1463.984899 41.260863 1462.666909 39.268184 
Q 1461.352519 37.252601 1460.182172 37.252601 
Q 1458.630112 37.252601 1457.884691 39.978219 
Q 1457.142871 42.680934 1457.142871 48.407023 
Q 1457.142871 52.713043 1457.64342 55.118 
Q 1458.143968 57.500054 1459.461959 59.217881 
L 1461.305705 61.57703 
Q 1464.107335 65.173014 1465.288485 72.479504 
Q 1466.473237 79.76309 1466.473237 93.230853 
Q 1466.473237 110.890114 1464.823948 119.525057 
Q 1463.174659 128.16 1459.786055 128.16 
Q 1458.190782 128.16 1456.581105 126.21313 
Q 1454.971428 124.289163 1453.361751 120.48704 
L 1453.361751 97.239116 
Q 1454.971428 102.667449 1456.473073 105.438876 
Q 1457.974718 108.187399 1459.371932 108.187399 
Q 1460.790753 108.187399 1461.543376 105.186928 
Q 1462.295999 102.163553 1462.295999 96.574889 
Q 1462.295999 91.581739 1461.784647 88.856121 
Q 1461.273296 86.130502 1459.742842 83.977492 
L 1458.064745 81.618343 
Q 1455.543998 78.18269 1454.377252 70.67006 
Q 1453.214107 63.15743 1453.214107 50.422607 
Q 1453.214107 34.458269 1454.834587 25.869134 
Q 1456.455068 17.28 1459.494368 17.28 
Q 1460.880779 17.28 1462.342812 18.608453 
Q 1463.804846 19.936906 1465.367709 22.570907 
z
" clip-path="url(#pce34ccaecd)" style="fill: #40ba47"/>
   </g>
   <g id="patch_92">
    <path d="M 1467.171086 17.28 
L 1470.665222 17.28 
L 1470.665222 57.749061 
L 1475.701658 17.28 
L 1479.759271 17.28 
L 1473.232817 69.797102 
L 1480.430215 128.16 
L 1476.056009 128.16 
L 1470.665222 84.48288 
L 1470.665222 128.16 
L 1467.171086 128.16 
L 1467.171086 17.28 
z
" clip-path="url(#pce34ccaecd)" style="fill: #bd2e1f"/>
   </g>
   <g id="patch_93">
    <path d="M 1481.128064 17.28 
L 1494.387194 17.28 
L 1494.387194 38.904689 
L 1489.61699 38.904689 
L 1489.61699 128.16 
L 1485.907518 128.16 
L 1485.907518 38.904689 
L 1481.128064 38.904689 
L 1481.128064 17.28 
z
" clip-path="url(#pce34ccaecd)" style="fill: #40ba47"/>
   </g>
   <g id="patch_94">
    <path d="M 1499.308765 17.28 
L 1504.120449 17.28 
L 1504.120449 128.16 
L 1499.308765 128.16 
L 1499.308765 17.28 
z
" clip-path="url(#pce34ccaecd)" style="fill: #21599c"/>
   </g>
   <g id="patch_95">
    <path d="M 1509.042021 17.28 
L 1512.70778 17.28 
L 1515.6688 56.798526 
L 1518.627035 17.28 
L 1522.301151 17.28 
L 1517.348476 81.441166 
L 1517.348476 128.16 
L 1513.997481 128.16 
L 1513.997481 81.441166 
L 1509.042021 17.28 
z
" clip-path="url(#pce34ccaecd)" style="fill: #177875"/>
   </g>
   <g id="patch_96">
    <path d="M 1522.998999 17.28 
L 1527.258031 17.28 
L 1532.639696 93.322863 
L 1532.639696 17.28 
L 1536.258129 17.28 
L 1536.258129 128.16 
L 1531.995926 128.16 
L 1526.614261 52.117137 
L 1526.614261 128.16 
L 1522.998999 128.16 
L 1522.998999 17.28 
z
" clip-path="url(#pce34ccaecd)" style="fill: #40ba47"/>
   </g>
   <g id="patch_97">
    <path d="M 1537.093969 17.28 
L 1550.077117 17.28 
L 1550.077117 38.904689 
L 1541.905653 38.904689 
L 1541.905653 59.531316 
L 1549.593148 59.531316 
L 1549.593148 81.156005 
L 1541.905653 81.156005 
L 1541.905653 128.16 
L 1537.093969 128.16 
L 1537.093969 17.28 
z
" clip-path="url(#pce34ccaecd)" style="fill: #21599c"/>
   </g>
   <g id="patch_98">
    <path d="M 1550.912956 17.28 
L 1554.193175 17.28 
L 1557.546588 99.121132 
L 1560.894579 17.28 
L 1564.172086 17.28 
L 1559.487609 128.16 
L 1555.597433 128.16 
L 1550.912956 17.28 
z
" clip-path="url(#pce34ccaecd)" style="fill: #21599c"/>
   </g>
   <g id="patch_99">
    <path d="M 1564.869935 17.28 
L 1568.364071 17.28 
L 1568.364071 57.749061 
L 1573.400507 17.28 
L 1577.458121 17.28 
L 1570.931666 69.797102 
L 1578.129065 128.16 
L 1573.754859 128.16 
L 1568.364071 84.48288 
L 1568.364071 128.16 
L 1564.869935 128.16 
L 1564.869935 17.28 
z
" clip-path="url(#pce34ccaecd)" style="fill: #bd2e1f"/>
   </g>
   <g id="patch_100">
    <path d="M 1578.826913 17.28 
L 1592.086043 17.28 
L 1592.086043 38.904689 
L 1587.31584 38.904689 
L 1587.31584 128.16 
L 1583.606367 128.16 
L 1583.606367 38.904689 
L 1578.826913 38.904689 
L 1578.826913 17.28 
z
" clip-path="url(#pce34ccaecd)" style="fill: #40ba47"/>
   </g>
   <g id="patch_101">
    <path d="M 1604.937494 22.570907 
L 1604.937494 45.200413 
Q 1603.554684 41.260863 1602.236693 39.268184 
Q 1600.922304 37.252601 1599.751957 37.252601 
Q 1598.199897 37.252601 1597.454476 39.978219 
Q 1596.712656 42.680934 1596.712656 48.407023 
Q 1596.712656 52.713043 1597.213205 55.118 
Q 1597.713753 57.500054 1599.031744 59.217881 
L 1600.87549 61.57703 
Q 1603.67712 65.173014 1604.85827 72.479504 
Q 1606.043022 79.76309 1606.043022 93.230853 
Q 1606.043022 110.890114 1604.393733 119.525057 
Q 1602.744444 128.16 1599.35584 128.16 
Q 1597.760567 128.16 1596.15089 126.21313 
Q 1594.541213 124.289163 1592.931536 120.48704 
L 1592.931536 97.239116 
Q 1594.541213 102.667449 1596.042858 105.438876 
Q 1597.544503 108.187399 1598.941717 108.187399 
Q 1600.360537 108.187399 1601.11316 105.186928 
Q 1601.865784 102.163553 1601.865784 96.574889 
Q 1601.865784 91.581739 1601.354432 88.856121 
Q 1600.84308 86.130502 1599.312627 83.977492 
L 1597.63453 81.618343 
Q 1595.113782 78.18269 1593.947037 70.67006 
Q 1592.783892 63.15743 1592.783892 50.422607 
Q 1592.783892 34.458269 1594.404372 25.869134 
Q 1596.024852 17.28 1599.064153 17.28 
Q 1600.450564 17.28 1601.912597 18.608453 
Q 1603.374631 19.936906 1604.937494 22.570907 
z
" clip-path="url(#pce34ccaecd)" style="fill: #40ba47"/>
   </g>
   <g id="patch_102">
    <path d="M 1620 118.127891 
Q 1618.662795 123.143945 1617.224557 125.663425 
Q 1615.786319 128.16 1614.25299 128.16 
Q 1610.788144 128.16 1608.764507 113.226358 
Q 1606.74087 98.292716 1606.74087 72.754357 
Q 1606.74087 46.91824 1608.800166 32.09912 
Q 1610.862433 17.28 1614.449114 17.28 
Q 1615.830892 17.28 1617.09678 19.295584 
Q 1618.365638 21.288263 1619.488891 25.227812 
L 1619.488891 47.330518 
Q 1618.32998 42.268655 1617.182955 39.77208 
Q 1616.03593 37.252601 1614.882963 37.252601 
Q 1612.749378 37.252601 1611.593438 46.460153 
Q 1610.437499 55.644801 1610.437499 72.754357 
Q 1610.437499 89.703582 1611.551837 98.956943 
Q 1612.666174 108.187399 1614.716555 108.187399 
Q 1615.275209 108.187399 1615.753632 107.660599 
Q 1616.232054 107.110894 1616.612414 105.965677 
L 1616.612414 85.214328 
L 1614.428313 85.214328 
L 1614.428313 66.73051 
L 1620 66.73051 
L 1620 118.127891 
z
" clip-path="url(#pce34ccaecd)" style="fill: #787800"/>
   </g>
   <g id="matplotlib.axis_1">
    <g id="xtick_1">
     <g id="line2d_2">
      <defs>
       <path id="m2cbe1ff99e" d="M 0 0 
L 0 3.5 
" style="stroke: #000000; stroke-width: 0.8"/>
      </defs>
      <g>
       <use xlink:href="#m2cbe1ff99e" x="231.629565" y="128.16" style="stroke: #000000; stroke-width: 0.8"/>
      </g>
     </g>
     <g id="text_1">
      <!-- 0 -->
      <g transform="translate(228.448315 142.758438) scale(0.1 -0.1)">
       <defs>
        <path id="DejaVuSans-30" d="M 2034 4250 
Q 1547 4250 1301 3770 
Q 1056 3291 1056 2328 
Q 1056 1369 1301 889 
Q 1547 409 2034 409 
Q 2525 409 2770 889 
Q 3016 1369 3016 2328 
Q 3016 3291 2770 3770 
Q 2525 4250 2034 4250 
z
M 2034 4750 
Q 2819 4750 3233 4129 
Q 3647 3509 3647 2328 
Q 3647 1150 3233 529 
Q 2819 -91 2034 -91 
Q 1250 -91 836 529 
Q 422 1150 422 2328 
Q 422 3509 836 4129 
Q 1250 4750 2034 4750 
z
" transform="scale(0.015625)"/>
       </defs>
       <use xlink:href="#DejaVuSans-30"/>
      </g>
     </g>
    </g>
    <g id="xtick_2">
     <g id="line2d_3">
      <g>
       <use xlink:href="#m2cbe1ff99e" x="510.769135" y="128.16" style="stroke: #000000; stroke-width: 0.8"/>
      </g>
     </g>
     <g id="text_2">
      <!-- 20 -->
      <g transform="translate(504.406635 142.758438) scale(0.1 -0.1)">
       <defs>
        <path id="DejaVuSans-32" d="M 1228 531 
L 3431 531 
L 3431 0 
L 469 0 
L 469 531 
Q 828 903 1448 1529 
Q 2069 2156 2228 2338 
Q 2531 2678 2651 2914 
Q 2772 3150 2772 3378 
Q 2772 3750 2511 3984 
Q 2250 4219 1831 4219 
Q 1534 4219 1204 4116 
Q 875 4013 500 3803 
L 500 4441 
Q 881 4594 1212 4672 
Q 1544 4750 1819 4750 
Q 2544 4750 2975 4387 
Q 3406 4025 3406 3419 
Q 3406 3131 3298 2873 
Q 3191 2616 2906 2266 
Q 2828 2175 2409 1742 
Q 1991 1309 1228 531 
z
" transform="scale(0.015625)"/>
       </defs>
       <use xlink:href="#DejaVuSans-32"/>
       <use xlink:href="#DejaVuSans-30" x="63.623047"/>
      </g>
     </g>
    </g>
    <g id="xtick_3">
     <g id="line2d_4">
      <g>
       <use xlink:href="#m2cbe1ff99e" x="789.908704" y="128.16" style="stroke: #000000; stroke-width: 0.8"/>
      </g>
     </g>
     <g id="text_3">
      <!-- 40 -->
      <g transform="translate(783.546204 142.758438) scale(0.1 -0.1)">
       <defs>
        <path id="DejaVuSans-34" d="M 2419 4116 
L 825 1625 
L 2419 1625 
L 2419 4116 
z
M 2253 4666 
L 3047 4666 
L 3047 1625 
L 3713 1625 
L 3713 1100 
L 3047 1100 
L 3047 0 
L 2419 0 
L 2419 1100 
L 313 1100 
L 313 1709 
L 2253 4666 
z
" transform="scale(0.015625)"/>
       </defs>
       <use xlink:href="#DejaVuSans-34"/>
       <use xlink:href="#DejaVuSans-30" x="63.623047"/>
      </g>
     </g>
    </g>
    <g id="xtick_4">
     <g id="line2d_5">
      <g>
       <use xlink:href="#m2cbe1ff99e" x="1069.048274" y="128.16" style="stroke: #000000; stroke-width: 0.8"/>
      </g>
     </g>
     <g id="text_4">
      <!-- 60 -->
      <g transform="translate(1062.685774 142.758438) scale(0.1 -0.1)">
       <defs>
        <path id="DejaVuSans-36" d="M 2113 2584 
Q 1688 2584 1439 2293 
Q 1191 2003 1191 1497 
Q 1191 994 1439 701 
Q 1688 409 2113 409 
Q 2538 409 2786 701 
Q 3034 994 3034 1497 
Q 3034 2003 2786 2293 
Q 2538 2584 2113 2584 
z
M 3366 4563 
L 3366 3988 
Q 3128 4100 2886 4159 
Q 2644 4219 2406 4219 
Q 1781 4219 1451 3797 
Q 1122 3375 1075 2522 
Q 1259 2794 1537 2939 
Q 1816 3084 2150 3084 
Q 2853 3084 3261 2657 
Q 3669 2231 3669 1497 
Q 3669 778 3244 343 
Q 2819 -91 2113 -91 
Q 1303 -91 875 529 
Q 447 1150 447 2328 
Q 447 3434 972 4092 
Q 1497 4750 2381 4750 
Q 2619 4750 2861 4703 
Q 3103 4656 3366 4563 
z
" transform="scale(0.015625)"/>
       </defs>
       <use xlink:href="#DejaVuSans-36"/>
       <use xlink:href="#DejaVuSans-30" x="63.623047"/>
      </g>
     </g>
    </g>
    <g id="xtick_5">
     <g id="line2d_6">
      <g>
       <use xlink:href="#m2cbe1ff99e" x="1348.187844" y="128.16" style="stroke: #000000; stroke-width: 0.8"/>
      </g>
     </g>
     <g id="text_5">
      <!-- 80 -->
      <g transform="translate(1341.825344 142.758438) scale(0.1 -0.1)">
       <defs>
        <path id="DejaVuSans-38" d="M 2034 2216 
Q 1584 2216 1326 1975 
Q 1069 1734 1069 1313 
Q 1069 891 1326 650 
Q 1584 409 2034 409 
Q 2484 409 2743 651 
Q 3003 894 3003 1313 
Q 3003 1734 2745 1975 
Q 2488 2216 2034 2216 
z
M 1403 2484 
Q 997 2584 770 2862 
Q 544 3141 544 3541 
Q 544 4100 942 4425 
Q 1341 4750 2034 4750 
Q 2731 4750 3128 4425 
Q 3525 4100 3525 3541 
Q 3525 3141 3298 2862 
Q 3072 2584 2669 2484 
Q 3125 2378 3379 2068 
Q 3634 1759 3634 1313 
Q 3634 634 3220 271 
Q 2806 -91 2034 -91 
Q 1263 -91 848 271 
Q 434 634 434 1313 
Q 434 1759 690 2068 
Q 947 2378 1403 2484 
z
M 1172 3481 
Q 1172 3119 1398 2916 
Q 1625 2713 2034 2713 
Q 2441 2713 2670 2916 
Q 2900 3119 2900 3481 
Q 2900 3844 2670 4047 
Q 2441 4250 2034 4250 
Q 1625 4250 1398 4047 
Q 1172 3844 1172 3481 
z
" transform="scale(0.015625)"/>
       </defs>
       <use xlink:href="#DejaVuSans-38"/>
       <use xlink:href="#DejaVuSans-30" x="63.623047"/>
      </g>
     </g>
    </g>
   </g>
   <g id="matplotlib.axis_2">
    <g id="ytick_1">
     <g id="line2d_7">
      <defs>
       <path id="mb6ae74cc84" d="M 0 0 
L -3.5 0 
" style="stroke: #000000; stroke-width: 0.8"/>
      </defs>
      <g>
       <use xlink:href="#mb6ae74cc84" x="225" y="128.16" style="stroke: #000000; stroke-width: 0.8"/>
      </g>
     </g>
     <g id="text_6">
      <!-- 0.0 -->
      <g transform="translate(202.096875 131.959219) scale(0.1 -0.1)">
       <defs>
        <path id="DejaVuSans-2e" d="M 684 794 
L 1344 794 
L 1344 0 
L 684 0 
L 684 794 
z
" transform="scale(0.015625)"/>
       </defs>
       <use xlink:href="#DejaVuSans-30"/>
       <use xlink:href="#DejaVuSans-2e" x="63.623047"/>
       <use xlink:href="#DejaVuSans-30" x="95.410156"/>
      </g>
     </g>
    </g>
    <g id="ytick_2">
     <g id="line2d_8">
      <g>
       <use xlink:href="#mb6ae74cc84" x="225" y="100.44" style="stroke: #000000; stroke-width: 0.8"/>
      </g>
     </g>
     <g id="text_7">
      <!-- 0.5 -->
      <g transform="translate(202.096875 104.239219) scale(0.1 -0.1)">
       <defs>
        <path id="DejaVuSans-35" d="M 691 4666 
L 3169 4666 
L 3169 4134 
L 1269 4134 
L 1269 2991 
Q 1406 3038 1543 3061 
Q 1681 3084 1819 3084 
Q 2600 3084 3056 2656 
Q 3513 2228 3513 1497 
Q 3513 744 3044 326 
Q 2575 -91 1722 -91 
Q 1428 -91 1123 -41 
Q 819 9 494 109 
L 494 744 
Q 775 591 1075 516 
Q 1375 441 1709 441 
Q 2250 441 2565 725 
Q 2881 1009 2881 1497 
Q 2881 1984 2565 2268 
Q 2250 2553 1709 2553 
Q 1456 2553 1204 2497 
Q 953 2441 691 2322 
L 691 4666 
z
" transform="scale(0.015625)"/>
       </defs>
       <use xlink:href="#DejaVuSans-30"/>
       <use xlink:href="#DejaVuSans-2e" x="63.623047"/>
       <use xlink:href="#DejaVuSans-35" x="95.410156"/>
      </g>
     </g>
    </g>
    <g id="ytick_3">
     <g id="line2d_9">
      <g>
       <use xlink:href="#mb6ae74cc84" x="225" y="72.72" style="stroke: #000000; stroke-width: 0.8"/>
      </g>
     </g>
     <g id="text_8">
      <!-- 1.0 -->
      <g transform="translate(202.096875 76.519219) scale(0.1 -0.1)">
       <defs>
        <path id="DejaVuSans-31" d="M 794 531 
L 1825 531 
L 1825 4091 
L 703 3866 
L 703 4441 
L 1819 4666 
L 2450 4666 
L 2450 531 
L 3481 531 
L 3481 0 
L 794 0 
L 794 531 
z
" transform="scale(0.015625)"/>
       </defs>
       <use xlink:href="#DejaVuSans-31"/>
       <use xlink:href="#DejaVuSans-2e" x="63.623047"/>
       <use xlink:href="#DejaVuSans-30" x="95.410156"/>
      </g>
     </g>
    </g>
    <g id="ytick_4">
     <g id="line2d_10">
      <g>
       <use xlink:href="#mb6ae74cc84" x="225" y="45" style="stroke: #000000; stroke-width: 0.8"/>
      </g>
     </g>
     <g id="text_9">
      <!-- 1.5 -->
      <g transform="translate(202.096875 48.799219) scale(0.1 -0.1)">
       <use xlink:href="#DejaVuSans-31"/>
       <use xlink:href="#DejaVuSans-2e" x="63.623047"/>
       <use xlink:href="#DejaVuSans-35" x="95.410156"/>
      </g>
     </g>
    </g>
    <g id="ytick_5">
     <g id="line2d_11">
      <g>
       <use xlink:href="#mb6ae74cc84" x="225" y="17.28" style="stroke: #000000; stroke-width: 0.8"/>
      </g>
     </g>
     <g id="text_10">
      <!-- 2.0 -->
      <g transform="translate(202.096875 21.079219) scale(0.1 -0.1)">
       <use xlink:href="#DejaVuSans-32"/>
       <use xlink:href="#DejaVuSans-2e" x="63.623047"/>
       <use xlink:href="#DejaVuSans-30" x="95.410156"/>
      </g>
     </g>
    </g>
   </g>
  </g>
 </g>
 <defs>
  <clipPath id="pce34ccaecd">
   <rect x="225" y="17.28" width="1395" height="110.88"/>
  </clipPath>
 </defs>
</svg>
