<?xml version="1.0" encoding="utf-8" standalone="no"?>
<!DOCTYPE svg PUBLIC "-//W3C//DTD SVG 1.1//EN"
  "http://www.w3.org/Graphics/SVG/1.1/DTD/svg11.dtd">
<svg xmlns:xlink="http://www.w3.org/1999/xlink" width="1800pt" height="144pt" viewBox="0 0 1800 144" xmlns="http://www.w3.org/2000/svg" version="1.1">
 <metadata>
  <rdf:RDF xmlns:dc="http://purl.org/dc/elements/1.1/" xmlns:cc="http://creativecommons.org/ns#" xmlns:rdf="http://www.w3.org/1999/02/22-rdf-syntax-ns#">
   <cc:Work>
    <dc:type rdf:resource="http://purl.org/dc/dcmitype/StillImage"/>
    <dc:date>2025-05-09T21:10:17.960255</dc:date>
    <dc:format>image/svg+xml</dc:format>
    <dc:creator>
     <cc:Agent>
      <dc:title>Matplotlib v3.8.0, https://matplotlib.org/</dc:title>
     </cc:Agent>
    </dc:creator>
   </cc:Work>
  </rdf:RDF>
 </metadata>
 <defs>
  <style type="text/css">*{stroke-linejoin: round; stroke-linecap: butt}</style>
 </defs>
 <g id="figure_1">
  <g id="patch_1">
   <path d="M 0 144 
L 1800 144 
L 1800 0 
L 0 0 
z
" style="fill: #ffffff"/>
  </g>
  <g id="axes_1">
   <g id="patch_2">
    <path d="M 225 128.16 
L 1620 128.16 
L 1620 17.28 
L 225 17.28 
z
" style="fill: #ffffff"/>
   </g>
   <g id="line2d_1">
    <path d="M 225 128.16 
L 1620 128.16 
" clip-path="url(#peb3bfc820d)" style="fill: none; stroke: #000000; stroke-width: 1.5; stroke-linecap: square"/>
   </g>
   <g id="patch_3">
    <path d="M 225 17.28 
L 228.031687 17.28 
L 230.134659 76.617197 
L 232.251493 17.28 
L 235.277239 17.28 
L 235.277239 128.16 
L 233.025752 128.16 
L 233.025752 47.055534 
L 230.897036 106.844235 
L 229.386144 106.844235 
L 227.257428 47.055534 
L 227.257428 128.16 
L 225 128.16 
L 225 17.28 
z
" clip-path="url(#peb3bfc820d)" style="fill: #21599c"/>
   </g>
   <g id="patch_4">
    <path d="M 235.818147 17.28 
L 238.526475 17.28 
L 238.526475 57.749061 
L 242.43025 17.28 
L 245.575333 17.28 
L 240.516635 69.797102 
L 246.095386 128.16 
L 242.70491 128.16 
L 238.526475 84.48288 
L 238.526475 128.16 
L 235.818147 128.16 
L 235.818147 17.28 
z
" clip-path="url(#peb3bfc820d)" style="fill: #bd2e1f"/>
   </g>
   <g id="patch_5">
    <path d="M 246.636293 17.28 
L 249.344621 17.28 
L 249.344621 57.749061 
L 253.248396 17.28 
L 256.393479 17.28 
L 251.334781 69.797102 
L 256.913532 128.16 
L 253.523057 128.16 
L 249.344621 84.48288 
L 249.344621 128.16 
L 246.636293 128.16 
L 246.636293 17.28 
z
" clip-path="url(#peb3bfc820d)" style="fill: #bd2e1f"/>
   </g>
   <g id="patch_6">
    <path d="M 257.45444 17.28 
L 261.184008 17.28 
L 261.184008 106.559074 
L 267.731679 106.559074 
L 267.731679 128.16 
L 257.45444 128.16 
L 257.45444 17.28 
z
" clip-path="url(#peb3bfc820d)" style="fill: #21599c"/>
   </g>
   <g id="patch_7">
    <path d="M 268.272586 17.28 
L 272.002155 17.28 
L 272.002155 106.559074 
L 278.549826 106.559074 
L 278.549826 128.16 
L 268.272586 128.16 
L 268.272586 17.28 
z
" clip-path="url(#peb3bfc820d)" style="fill: #21599c"/>
   </g>
   <g id="patch_8">
    <path d="M 279.090733 17.28 
L 282.820301 17.28 
L 282.820301 106.559074 
L 289.367972 106.559074 
L 289.367972 128.16 
L 279.090733 128.16 
L 279.090733 17.28 
z
" clip-path="url(#peb3bfc820d)" style="fill: #21599c"/>
   </g>
   <g id="patch_9">
    <path d="M 289.908879 17.28 
L 293.638448 17.28 
L 293.638448 106.559074 
L 300.186119 106.559074 
L 300.186119 128.16 
L 289.908879 128.16 
L 289.908879 17.28 
z
" clip-path="url(#peb3bfc820d)" style="fill: #21599c"/>
   </g>
   <g id="patch_10">
    <path d="M 300.833984 17.28 
L 310.897308 17.28 
L 310.897308 38.904689 
L 304.563552 38.904689 
L 304.563552 59.531316 
L 310.522181 59.531316 
L 310.522181 81.156005 
L 304.563552 81.156005 
L 304.563552 128.16 
L 300.833984 128.16 
L 300.833984 17.28 
z
" clip-path="url(#peb3bfc820d)" style="fill: #21599c"/>
   </g>
   <g id="patch_11">
    <path d="M 311.545173 17.28 
L 321.822412 17.28 
L 321.822412 38.904689 
L 318.124996 38.904689 
L 318.124996 128.16 
L 315.249759 128.16 
L 315.249759 38.904689 
L 311.545173 38.904689 
L 311.545173 17.28 
z
" clip-path="url(#peb3bfc820d)" style="fill: #40ba47"/>
   </g>
   <g id="patch_12">
    <path d="M 322.363319 17.28 
L 326.092887 17.28 
L 326.092887 106.559074 
L 332.640558 106.559074 
L 332.640558 128.16 
L 322.363319 128.16 
L 322.363319 17.28 
z
" clip-path="url(#peb3bfc820d)" style="fill: #21599c"/>
   </g>
   <g id="patch_13">
    <path d="M 336.455301 17.28 
L 340.184869 17.28 
L 340.184869 128.16 
L 336.455301 128.16 
L 336.455301 17.28 
z
" clip-path="url(#peb3bfc820d)" style="fill: #21599c"/>
   </g>
   <g id="patch_14">
    <path d="M 343.999612 17.28 
L 347.729181 17.28 
L 347.729181 106.559074 
L 354.276851 106.559074 
L 354.276851 128.16 
L 343.999612 128.16 
L 343.999612 17.28 
z
" clip-path="url(#peb3bfc820d)" style="fill: #21599c"/>
   </g>
   <g id="patch_15">
    <path d="M 365.094998 118.127891 
Q 364.058522 123.143945 362.943734 125.663425 
Q 361.828946 128.16 360.640453 128.16 
Q 357.954827 128.16 356.386293 113.226358 
Q 354.817759 98.292716 354.817759 72.754357 
Q 354.817759 46.91824 356.413932 32.09912 
Q 358.012409 17.28 360.792469 17.28 
Q 361.863495 17.28 362.844693 19.295584 
Q 363.828194 21.288263 364.698834 25.227812 
L 364.698834 47.330518 
Q 363.800554 42.268655 362.911488 39.77208 
Q 362.022421 37.252601 361.128748 37.252601 
Q 359.474993 37.252601 358.579016 46.460153 
Q 357.68304 55.644801 357.68304 72.754357 
Q 357.68304 89.703582 358.546771 98.956943 
Q 359.410501 108.187399 360.999765 108.187399 
Q 361.432781 108.187399 361.80361 107.660599 
Q 362.174438 107.110894 362.469258 105.965677 
L 362.469258 85.214328 
L 360.776346 85.214328 
L 360.776346 66.73051 
L 365.094998 66.73051 
L 365.094998 118.127891 
z
" clip-path="url(#peb3bfc820d)" style="fill: #787800"/>
   </g>
   <g id="patch_16">
    <path d="M 368.909741 17.28 
L 372.639309 17.28 
L 372.639309 128.16 
L 368.909741 128.16 
L 368.909741 17.28 
z
" clip-path="url(#peb3bfc820d)" style="fill: #21599c"/>
   </g>
   <g id="patch_17">
    <path d="M 385.874389 22.570907 
L 385.874389 45.200413 
Q 384.802564 41.260863 383.780981 39.268184 
Q 382.762189 37.252601 381.855045 37.252601 
Q 380.652033 37.252601 380.074253 39.978219 
Q 379.499263 42.680934 379.499263 48.407023 
Q 379.499263 52.713043 379.887242 55.118 
Q 380.27522 57.500054 381.296803 59.217881 
L 382.725903 61.57703 
Q 384.897466 65.173014 385.812983 72.479504 
Q 386.731291 79.76309 386.731291 93.230853 
Q 386.731291 110.890114 385.452917 119.525057 
Q 384.174542 128.16 381.548012 128.16 
Q 380.311506 128.16 379.063834 126.21313 
Q 377.816163 124.289163 376.568492 120.48704 
L 376.568492 97.239116 
Q 377.816163 102.667449 378.980098 105.438876 
Q 380.144033 108.187399 381.227023 108.187399 
Q 382.32676 108.187399 382.910123 105.186928 
Q 383.493486 102.163553 383.493486 96.574889 
Q 383.493486 91.581739 383.097134 88.856121 
Q 382.700782 86.130502 381.514518 83.977492 
L 380.213813 81.618343 
Q 378.259966 78.18269 377.355613 70.67006 
Q 376.454052 63.15743 376.454052 50.422607 
Q 376.454052 34.458269 377.710097 25.869134 
Q 378.966142 17.28 381.321924 17.28 
Q 382.39654 17.28 383.529772 18.608453 
Q 384.663004 19.936906 385.874389 22.570907 
z
" clip-path="url(#peb3bfc820d)" style="fill: #40ba47"/>
   </g>
   <g id="patch_18">
    <path d="M 387.272199 17.28 
L 389.814717 17.28 
L 392.41397 99.121132 
L 395.00902 17.28 
L 397.549438 17.28 
L 393.918469 128.16 
L 390.903168 128.16 
L 387.272199 17.28 
z
" clip-path="url(#peb3bfc820d)" style="fill: #21599c"/>
   </g>
   <g id="patch_19">
    <path d="M 405.209398 107.961114 
L 401.256937 107.961114 
L 400.632864 128.16 
L 398.090345 128.16 
L 401.721314 17.28 
L 404.736615 17.28 
L 408.367584 128.16 
L 405.827167 128.16 
L 405.209398 107.961114 
z
M 401.887313 87.382015 
L 404.572717 87.382015 
L 403.232117 43.277154 
L 401.887313 87.382015 
z
" clip-path="url(#peb3bfc820d)" style="fill: #21599c"/>
   </g>
   <g id="patch_20">
    <path d="M 418.328829 22.570907 
L 418.328829 45.200413 
Q 417.257004 41.260863 416.235421 39.268184 
Q 415.216629 37.252601 414.309485 37.252601 
Q 413.106473 37.252601 412.528692 39.978219 
Q 411.953703 42.680934 411.953703 48.407023 
Q 411.953703 52.713043 412.341681 55.118 
Q 412.72966 57.500054 413.751243 59.217881 
L 415.180343 61.57703 
Q 417.351905 65.173014 418.267422 72.479504 
Q 419.185731 79.76309 419.185731 93.230853 
Q 419.185731 110.890114 417.907356 119.525057 
Q 416.628982 128.16 414.002452 128.16 
Q 412.765945 128.16 411.518274 126.21313 
Q 410.270603 124.289163 409.022931 120.48704 
L 409.022931 97.239116 
Q 410.270603 102.667449 411.434538 105.438876 
Q 412.598473 108.187399 413.681463 108.187399 
Q 414.7812 108.187399 415.364563 105.186928 
Q 415.947926 102.163553 415.947926 96.574889 
Q 415.947926 91.581739 415.551574 88.856121 
Q 415.155222 86.130502 413.968957 83.977492 
L 412.668253 81.618343 
Q 410.714405 78.18269 409.810053 70.67006 
Q 408.908492 63.15743 408.908492 50.422607 
Q 408.908492 34.458269 410.164537 25.869134 
Q 411.420582 17.28 413.776364 17.28 
Q 414.85098 17.28 415.984212 18.608453 
Q 417.117443 19.936906 418.328829 22.570907 
z
" clip-path="url(#peb3bfc820d)" style="fill: #40ba47"/>
   </g>
   <g id="patch_21">
    <path d="M 419.726638 17.28 
L 423.027842 17.28 
L 427.199206 93.322863 
L 427.199206 17.28 
L 430.003877 17.28 
L 430.003877 128.16 
L 426.700216 128.16 
L 422.528851 52.117137 
L 422.528851 128.16 
L 419.726638 128.16 
L 419.726638 17.28 
z
" clip-path="url(#peb3bfc820d)" style="fill: #40ba47"/>
   </g>
   <g id="patch_22">
    <path d="M 437.663837 107.961114 
L 433.711376 107.961114 
L 433.087304 128.16 
L 430.544785 128.16 
L 434.175754 17.28 
L 437.191055 17.28 
L 440.822024 128.16 
L 438.281606 128.16 
L 437.663837 107.961114 
z
M 434.341753 87.382015 
L 437.027157 87.382015 
L 435.686556 43.277154 
L 434.341753 87.382015 
z
" clip-path="url(#peb3bfc820d)" style="fill: #21599c"/>
   </g>
   <g id="patch_23">
    <path d="M 446.775611 111.578719 
L 446.574348 111.578719 
Q 444.10567 111.578719 442.73323 99.152512 
Q 441.362931 86.706798 441.362931 64.526897 
Q 441.362931 42.38601 442.731089 29.842759 
Q 444.099246 17.28 446.501551 17.28 
Q 448.929549 17.28 450.28486 29.725714 
Q 451.640171 42.151921 451.640171 64.526897 
Q 451.640171 79.879212 450.920764 90.978916 
Q 450.201357 102.078621 448.850328 107.677241 
L 450.862954 128.16 
L 448.407122 128.16 
L 446.775611 111.578719 
z
M 446.501551 34.290443 
Q 445.323951 34.290443 444.6752 42.210443 
Q 444.026449 50.130443 444.026449 64.526897 
Q 444.026449 79.157438 444.660212 86.940887 
Q 445.296116 94.704828 446.501551 94.704828 
Q 447.685575 94.704828 448.334325 86.784828 
Q 448.983076 78.84532 448.983076 64.526897 
Q 448.983076 50.130443 448.334325 42.210443 
Q 447.685575 34.290443 446.501551 34.290443 
z
" clip-path="url(#peb3bfc820d)" style="fill: #40ba47"/>
   </g>
   <g id="patch_24">
    <path d="M 461.601415 22.570907 
L 461.601415 45.200413 
Q 460.52959 41.260863 459.508007 39.268184 
Q 458.489215 37.252601 457.582071 37.252601 
Q 456.379059 37.252601 455.801279 39.978219 
Q 455.226289 42.680934 455.226289 48.407023 
Q 455.226289 52.713043 455.614268 55.118 
Q 456.002246 57.500054 457.023829 59.217881 
L 458.452929 61.57703 
Q 460.624491 65.173014 461.540009 72.479504 
Q 462.458317 79.76309 462.458317 93.230853 
Q 462.458317 110.890114 461.179942 119.525057 
Q 459.901568 128.16 457.275038 128.16 
Q 456.038532 128.16 454.79086 126.21313 
Q 453.543189 124.289163 452.295518 120.48704 
L 452.295518 97.239116 
Q 453.543189 102.667449 454.707124 105.438876 
Q 455.871059 108.187399 456.954049 108.187399 
Q 458.053786 108.187399 458.637149 105.186928 
Q 459.220512 102.163553 459.220512 96.574889 
Q 459.220512 91.581739 458.82416 88.856121 
Q 458.427808 86.130502 457.241544 83.977492 
L 455.940839 81.618343 
Q 453.986992 78.18269 453.082639 70.67006 
Q 452.181078 63.15743 452.181078 50.422607 
Q 452.181078 34.458269 453.437123 25.869134 
Q 454.693168 17.28 457.04895 17.28 
Q 458.123566 17.28 459.256798 18.608453 
Q 460.39003 19.936906 461.601415 22.570907 
z
" clip-path="url(#peb3bfc820d)" style="fill: #40ba47"/>
   </g>
   <g id="patch_25">
    <path d="M 462.999225 17.28 
L 465.707553 17.28 
L 465.707553 57.749061 
L 469.611328 17.28 
L 472.756411 17.28 
L 467.697713 69.797102 
L 473.276464 128.16 
L 469.885988 128.16 
L 465.707553 84.48288 
L 465.707553 128.16 
L 462.999225 128.16 
L 462.999225 17.28 
z
" clip-path="url(#peb3bfc820d)" style="fill: #bd2e1f"/>
   </g>
   <g id="patch_26">
    <path d="M 473.817371 17.28 
L 479.159394 17.28 
Q 481.544035 17.28 482.817985 26.690304 
Q 484.09461 36.076845 484.09461 53.447887 
Q 484.09461 70.913982 482.817985 80.300523 
Q 481.544035 89.687064 479.159394 89.687064 
L 477.037037 89.687064 
L 477.037037 128.16 
L 473.817371 128.16 
L 473.817371 17.28 
z
M 477.037037 38.00168 
L 477.037037 68.965384 
L 478.81682 68.965384 
Q 479.753547 68.965384 480.264733 64.925607 
Q 480.775918 60.885829 480.775918 53.447887 
Q 480.775918 46.033708 480.264733 42.017694 
Q 479.753547 38.00168 478.81682 38.00168 
L 477.037037 38.00168 
z
" clip-path="url(#peb3bfc820d)" style="fill: #787800"/>
   </g>
   <g id="patch_27">
    <path d="M 491.75457 107.961114 
L 487.802109 107.961114 
L 487.178036 128.16 
L 484.635518 128.16 
L 488.266487 17.28 
L 491.281788 17.28 
L 494.912757 128.16 
L 492.372339 128.16 
L 491.75457 107.961114 
z
M 488.432486 87.382015 
L 491.11789 87.382015 
L 489.777289 43.277154 
L 488.432486 87.382015 
z
" clip-path="url(#peb3bfc820d)" style="fill: #21599c"/>
   </g>
   <g id="patch_28">
    <path d="M 495.453664 17.28 
L 505.516988 17.28 
L 505.516988 38.904689 
L 499.183232 38.904689 
L 499.183232 59.531316 
L 505.141861 59.531316 
L 505.141861 81.156005 
L 499.183232 81.156005 
L 499.183232 106.559074 
L 505.730903 106.559074 
L 505.730903 128.16 
L 495.453664 128.16 
L 495.453664 17.28 
z
" clip-path="url(#peb3bfc820d)" style="fill: #6b296b"/>
   </g>
   <g id="patch_29">
    <path d="M 506.378768 17.28 
L 516.442092 17.28 
L 516.442092 38.904689 
L 510.108337 38.904689 
L 510.108337 59.531316 
L 516.066965 59.531316 
L 516.066965 81.156005 
L 510.108337 81.156005 
L 510.108337 128.16 
L 506.378768 128.16 
L 506.378768 17.28 
z
" clip-path="url(#peb3bfc820d)" style="fill: #21599c"/>
   </g>
   <g id="patch_30">
    <path d="M 517.089957 17.28 
L 519.798286 17.28 
L 519.798286 57.749061 
L 523.702061 17.28 
L 526.847144 17.28 
L 521.788445 69.797102 
L 527.367197 128.16 
L 523.976721 128.16 
L 519.798286 84.48288 
L 519.798286 128.16 
L 517.089957 128.16 
L 517.089957 17.28 
z
" clip-path="url(#peb3bfc820d)" style="fill: #bd2e1f"/>
   </g>
   <g id="patch_31">
    <path d="M 528.015062 17.28 
L 538.078385 17.28 
L 538.078385 38.904689 
L 531.74463 38.904689 
L 531.74463 59.531316 
L 537.703258 59.531316 
L 537.703258 81.156005 
L 531.74463 81.156005 
L 531.74463 128.16 
L 528.015062 128.16 
L 528.015062 17.28 
z
" clip-path="url(#peb3bfc820d)" style="fill: #21599c"/>
   </g>
   <g id="patch_32">
    <path d="M 541.542542 38.904689 
L 541.542542 106.559074 
L 542.551537 106.559074 
Q 544.276896 106.559074 545.187567 97.861672 
Q 546.100579 89.164269 546.100579 72.601183 
Q 546.100579 56.13315 545.192249 47.530802 
Q 544.28626 38.904689 542.551537 38.904689 
L 541.542542 38.904689 
z
M 538.72625 17.28 
L 541.69471 17.28 
Q 544.183254 17.28 545.400603 20.892036 
Q 546.617953 24.480309 547.488826 33.106421 
Q 548.256693 40.615654 548.628921 50.429936 
Q 549.00349 60.220454 549.00349 72.601183 
Q 549.00349 85.172019 548.628921 95.010064 
Q 548.256693 104.84811 547.488826 112.333579 
Q 546.61093 120.959691 545.381875 124.571727 
Q 544.15282 128.16 541.69471 128.16 
L 538.72625 128.16 
L 538.72625 17.28 
z
" clip-path="url(#peb3bfc820d)" style="fill: #6b296b"/>
   </g>
   <g id="patch_33">
    <path d="M 549.544397 17.28 
L 552.252725 17.28 
L 552.252725 57.749061 
L 556.1565 17.28 
L 559.301583 17.28 
L 554.242885 69.797102 
L 559.821636 128.16 
L 556.43116 128.16 
L 552.252725 84.48288 
L 552.252725 128.16 
L 549.544397 128.16 
L 549.544397 17.28 
z
" clip-path="url(#peb3bfc820d)" style="fill: #bd2e1f"/>
   </g>
   <g id="patch_34">
    <path d="M 560.362544 17.28 
L 570.425867 17.28 
L 570.425867 38.904689 
L 564.092112 38.904689 
L 564.092112 59.531316 
L 570.05074 59.531316 
L 570.05074 81.156005 
L 564.092112 81.156005 
L 564.092112 106.559074 
L 570.639783 106.559074 
L 570.639783 128.16 
L 560.362544 128.16 
L 560.362544 17.28 
z
" clip-path="url(#peb3bfc820d)" style="fill: #6b296b"/>
   </g>
   <g id="patch_35">
    <path d="M 571.18069 17.28 
L 581.457929 17.28 
L 581.457929 38.904689 
L 577.760513 38.904689 
L 577.760513 128.16 
L 574.885276 128.16 
L 574.885276 38.904689 
L 571.18069 38.904689 
L 571.18069 17.28 
z
" clip-path="url(#peb3bfc820d)" style="fill: #40ba47"/>
   </g>
   <g id="patch_36">
    <path d="M 581.998837 17.28 
L 584.840191 17.28 
L 587.135297 56.798526 
L 589.428244 17.28 
L 592.276076 17.28 
L 588.437225 81.441166 
L 588.437225 128.16 
L 585.839847 128.16 
L 585.839847 81.441166 
L 581.998837 17.28 
z
" clip-path="url(#peb3bfc820d)" style="fill: #177875"/>
   </g>
   <g id="patch_37">
    <path d="M 595.633275 38.904689 
L 595.633275 106.559074 
L 596.64227 106.559074 
Q 598.367629 106.559074 599.2783 97.861672 
Q 600.191312 89.164269 600.191312 72.601183 
Q 600.191312 56.13315 599.282982 47.530802 
Q 598.376993 38.904689 596.64227 38.904689 
L 595.633275 38.904689 
z
M 592.816983 17.28 
L 595.785443 17.28 
Q 598.273987 17.28 599.491336 20.892036 
Q 600.708686 24.480309 601.579559 33.106421 
Q 602.347425 40.615654 602.719653 50.429936 
Q 603.094223 60.220454 603.094223 72.601183 
Q 603.094223 85.172019 602.719653 95.010064 
Q 602.347425 104.84811 601.579559 112.333579 
Q 600.701663 120.959691 599.472608 124.571727 
Q 598.243553 128.16 595.785443 128.16 
L 592.816983 128.16 
L 592.816983 17.28 
z
" clip-path="url(#peb3bfc820d)" style="fill: #6b296b"/>
   </g>
   <g id="patch_38">
    <path d="M 603.742088 17.28 
L 613.805411 17.28 
L 613.805411 38.904689 
L 607.471656 38.904689 
L 607.471656 59.531316 
L 613.430284 59.531316 
L 613.430284 81.156005 
L 607.471656 81.156005 
L 607.471656 128.16 
L 603.742088 128.16 
L 603.742088 17.28 
z
" clip-path="url(#peb3bfc820d)" style="fill: #21599c"/>
   </g>
   <g id="patch_39">
    <path d="M 624.730516 118.127891 
Q 623.694039 123.143945 622.579251 125.663425 
Q 621.464463 128.16 620.275971 128.16 
Q 617.590345 128.16 616.021811 113.226358 
Q 614.453276 98.292716 614.453276 72.754357 
Q 614.453276 46.91824 616.04945 32.09912 
Q 617.647927 17.28 620.427987 17.28 
Q 621.499013 17.28 622.48021 19.295584 
Q 623.463711 21.288263 624.334351 25.227812 
L 624.334351 47.330518 
Q 623.436072 42.268655 622.547005 39.77208 
Q 621.657939 37.252601 620.764266 37.252601 
Q 619.11051 37.252601 618.214534 46.460153 
Q 617.318558 55.644801 617.318558 72.754357 
Q 617.318558 89.703582 618.182288 98.956943 
Q 619.046019 108.187399 620.635282 108.187399 
Q 621.068299 108.187399 621.439127 107.660599 
Q 621.809956 107.110894 622.104776 105.965677 
L 622.104776 85.214328 
L 620.411864 85.214328 
L 620.411864 66.73051 
L 624.730516 66.73051 
L 624.730516 118.127891 
z
" clip-path="url(#peb3bfc820d)" style="fill: #787800"/>
   </g>
   <g id="patch_40">
    <path d="M 625.271423 17.28 
L 627.979751 17.28 
L 627.979751 57.749061 
L 631.883526 17.28 
L 635.028609 17.28 
L 629.969911 69.797102 
L 635.548662 128.16 
L 632.158186 128.16 
L 627.979751 84.48288 
L 627.979751 128.16 
L 625.271423 128.16 
L 625.271423 17.28 
z
" clip-path="url(#peb3bfc820d)" style="fill: #bd2e1f"/>
   </g>
   <g id="patch_41">
    <path d="M 639.363405 17.28 
L 643.092973 17.28 
L 643.092973 128.16 
L 639.363405 128.16 
L 639.363405 17.28 
z
" clip-path="url(#peb3bfc820d)" style="fill: #21599c"/>
   </g>
   <g id="patch_42">
    <path d="M 646.907716 17.28 
L 652.249739 17.28 
Q 654.63438 17.28 655.90833 26.690304 
Q 657.184955 36.076845 657.184955 53.447887 
Q 657.184955 70.913982 655.90833 80.300523 
Q 654.63438 89.687064 652.249739 89.687064 
L 650.127383 89.687064 
L 650.127383 128.16 
L 646.907716 128.16 
L 646.907716 17.28 
z
M 650.127383 38.00168 
L 650.127383 68.965384 
L 651.907165 68.965384 
Q 652.843892 68.965384 653.355078 64.925607 
Q 653.866264 60.885829 653.866264 53.447887 
Q 653.866264 46.033708 653.355078 42.017694 
Q 652.843892 38.00168 651.907165 38.00168 
L 650.127383 38.00168 
z
" clip-path="url(#peb3bfc820d)" style="fill: #787800"/>
   </g>
   <g id="patch_43">
    <path d="M 657.725863 17.28 
L 661.455431 17.28 
L 661.455431 106.559074 
L 668.003102 106.559074 
L 668.003102 128.16 
L 657.725863 128.16 
L 657.725863 17.28 
z
" clip-path="url(#peb3bfc820d)" style="fill: #21599c"/>
   </g>
   <g id="patch_44">
    <path d="M 668.544009 17.28 
L 671.845213 17.28 
L 676.016577 93.322863 
L 676.016577 17.28 
L 678.821249 17.28 
L 678.821249 128.16 
L 675.517587 128.16 
L 671.346222 52.117137 
L 671.346222 128.16 
L 668.544009 128.16 
L 668.544009 17.28 
z
" clip-path="url(#peb3bfc820d)" style="fill: #40ba47"/>
   </g>
   <g id="patch_45">
    <path d="M 679.362156 17.28 
L 682.070484 17.28 
L 682.070484 57.749061 
L 685.974259 17.28 
L 689.119342 17.28 
L 684.060644 69.797102 
L 689.639395 128.16 
L 686.248919 128.16 
L 682.070484 84.48288 
L 682.070484 128.16 
L 679.362156 128.16 
L 679.362156 17.28 
z
" clip-path="url(#peb3bfc820d)" style="fill: #bd2e1f"/>
   </g>
   <g id="patch_46">
    <path d="M 690.180302 17.28 
L 695.522326 17.28 
Q 697.906966 17.28 699.180916 26.690304 
Q 700.457542 36.076845 700.457542 53.447887 
Q 700.457542 70.913982 699.180916 80.300523 
Q 697.906966 89.687064 695.522326 89.687064 
L 693.399969 89.687064 
L 693.399969 128.16 
L 690.180302 128.16 
L 690.180302 17.28 
z
M 693.399969 38.00168 
L 693.399969 68.965384 
L 695.179751 68.965384 
Q 696.116479 68.965384 696.627664 64.925607 
Q 697.13885 60.885829 697.13885 53.447887 
Q 697.13885 46.033708 696.627664 42.017694 
Q 696.116479 38.00168 695.179751 38.00168 
L 693.399969 38.00168 
z
" clip-path="url(#peb3bfc820d)" style="fill: #787800"/>
   </g>
   <g id="patch_47">
    <path d="M 708.117502 107.961114 
L 704.165041 107.961114 
L 703.540968 128.16 
L 700.998449 128.16 
L 704.629418 17.28 
L 707.644719 17.28 
L 711.275688 128.16 
L 708.735271 128.16 
L 708.117502 107.961114 
z
M 704.795417 87.382015 
L 707.480821 87.382015 
L 706.140221 43.277154 
L 704.795417 87.382015 
z
" clip-path="url(#peb3bfc820d)" style="fill: #21599c"/>
   </g>
   <g id="patch_48">
    <path d="M 721.236933 22.570907 
L 721.236933 45.200413 
Q 720.165108 41.260863 719.143525 39.268184 
Q 718.124733 37.252601 717.217589 37.252601 
Q 716.014577 37.252601 715.436796 39.978219 
Q 714.861807 42.680934 714.861807 48.407023 
Q 714.861807 52.713043 715.249785 55.118 
Q 715.637764 57.500054 716.659347 59.217881 
L 718.088447 61.57703 
Q 720.260009 65.173014 721.175526 72.479504 
Q 722.093835 79.76309 722.093835 93.230853 
Q 722.093835 110.890114 720.81546 119.525057 
Q 719.537085 128.16 716.910556 128.16 
Q 715.674049 128.16 714.426378 126.21313 
Q 713.178707 124.289163 711.931035 120.48704 
L 711.931035 97.239116 
Q 713.178707 102.667449 714.342642 105.438876 
Q 715.506577 108.187399 716.589567 108.187399 
Q 717.689304 108.187399 718.272667 105.186928 
Q 718.85603 102.163553 718.85603 96.574889 
Q 718.85603 91.581739 718.459678 88.856121 
Q 718.063326 86.130502 716.877061 83.977492 
L 715.576357 81.618343 
Q 713.622509 78.18269 712.718157 70.67006 
Q 711.816596 63.15743 711.816596 50.422607 
Q 711.816596 34.458269 713.072641 25.869134 
Q 714.328686 17.28 716.684468 17.28 
Q 717.759084 17.28 718.892316 18.608453 
Q 720.025547 19.936906 721.236933 22.570907 
z
" clip-path="url(#peb3bfc820d)" style="fill: #40ba47"/>
   </g>
   <g id="patch_49">
    <path d="M 722.634742 17.28 
L 725.177261 17.28 
L 727.776514 99.121132 
L 730.371564 17.28 
L 732.911981 17.28 
L 729.281012 128.16 
L 726.265711 128.16 
L 722.634742 17.28 
z
" clip-path="url(#peb3bfc820d)" style="fill: #21599c"/>
   </g>
   <g id="patch_50">
    <path d="M 736.26918 38.904689 
L 736.26918 106.559074 
L 737.278175 106.559074 
Q 739.003534 106.559074 739.914205 97.861672 
Q 740.827218 89.164269 740.827218 72.601183 
Q 740.827218 56.13315 739.918888 47.530802 
Q 739.012899 38.904689 737.278175 38.904689 
L 736.26918 38.904689 
z
M 733.452889 17.28 
L 736.421349 17.28 
Q 738.909892 17.28 740.127242 20.892036 
Q 741.344591 24.480309 742.215464 33.106421 
Q 742.983331 40.615654 743.355559 50.429936 
Q 743.730128 60.220454 743.730128 72.601183 
Q 743.730128 85.172019 743.355559 95.010064 
Q 742.983331 104.84811 742.215464 112.333579 
Q 741.337568 120.959691 740.108513 124.571727 
Q 738.879458 128.16 736.421349 128.16 
L 733.452889 128.16 
L 733.452889 17.28 
z
" clip-path="url(#peb3bfc820d)" style="fill: #6b296b"/>
   </g>
   <g id="patch_51">
    <path d="M 744.377993 17.28 
L 754.441317 17.28 
L 754.441317 38.904689 
L 748.107561 38.904689 
L 748.107561 59.531316 
L 754.06619 59.531316 
L 754.06619 81.156005 
L 748.107561 81.156005 
L 748.107561 128.16 
L 744.377993 128.16 
L 744.377993 17.28 
z
" clip-path="url(#peb3bfc820d)" style="fill: #21599c"/>
   </g>
   <g id="patch_52">
    <path d="M 755.089182 17.28 
L 757.79751 17.28 
L 757.79751 57.749061 
L 761.701285 17.28 
L 764.846368 17.28 
L 759.78767 69.797102 
L 765.366421 128.16 
L 761.975945 128.16 
L 757.79751 84.48288 
L 757.79751 128.16 
L 755.089182 128.16 
L 755.089182 17.28 
z
" clip-path="url(#peb3bfc820d)" style="fill: #bd2e1f"/>
   </g>
   <g id="patch_53">
    <path d="M 766.014286 17.28 
L 776.07761 17.28 
L 776.07761 38.904689 
L 769.743854 38.904689 
L 769.743854 59.531316 
L 775.702483 59.531316 
L 775.702483 81.156005 
L 769.743854 81.156005 
L 769.743854 128.16 
L 766.014286 128.16 
L 766.014286 17.28 
z
" clip-path="url(#peb3bfc820d)" style="fill: #21599c"/>
   </g>
   <g id="patch_54">
    <path d="M 776.725475 17.28 
L 787.002714 17.28 
L 787.002714 38.904689 
L 783.305298 38.904689 
L 783.305298 128.16 
L 780.430061 128.16 
L 780.430061 38.904689 
L 776.725475 38.904689 
L 776.725475 17.28 
z
" clip-path="url(#peb3bfc820d)" style="fill: #40ba47"/>
   </g>
   <g id="patch_55">
    <path d="M 787.543622 17.28 
L 790.844825 17.28 
L 795.01619 93.322863 
L 795.01619 17.28 
L 797.820861 17.28 
L 797.820861 128.16 
L 794.517199 128.16 
L 790.345835 52.117137 
L 790.345835 128.16 
L 787.543622 128.16 
L 787.543622 17.28 
z
" clip-path="url(#peb3bfc820d)" style="fill: #40ba47"/>
   </g>
   <g id="patch_56">
    <path d="M 801.635604 17.28 
L 805.365172 17.28 
L 805.365172 128.16 
L 801.635604 128.16 
L 801.635604 17.28 
z
" clip-path="url(#peb3bfc820d)" style="fill: #21599c"/>
   </g>
   <g id="patch_57">
    <path d="M 819.457154 118.127891 
Q 818.420678 123.143945 817.30589 125.663425 
Q 816.191102 128.16 815.002609 128.16 
Q 812.316983 128.16 810.748449 113.226358 
Q 809.179915 98.292716 809.179915 72.754357 
Q 809.179915 46.91824 810.776088 32.09912 
Q 812.374565 17.28 815.154625 17.28 
Q 816.225651 17.28 817.206849 19.295584 
Q 818.190349 21.288263 819.06099 25.227812 
L 819.06099 47.330518 
Q 818.16271 42.268655 817.273644 39.77208 
Q 816.384577 37.252601 815.490904 37.252601 
Q 813.837149 37.252601 812.941172 46.460153 
Q 812.045196 55.644801 812.045196 72.754357 
Q 812.045196 89.703582 812.908926 98.956943 
Q 813.772657 108.187399 815.361921 108.187399 
Q 815.794937 108.187399 816.165766 107.660599 
Q 816.536594 107.110894 816.831414 105.965677 
L 816.831414 85.214328 
L 815.138502 85.214328 
L 815.138502 66.73051 
L 819.457154 66.73051 
L 819.457154 118.127891 
z
" clip-path="url(#peb3bfc820d)" style="fill: #787800"/>
   </g>
   <g id="patch_58">
    <path d="M 822.814353 38.904689 
L 822.814353 106.559074 
L 823.823348 106.559074 
Q 825.548707 106.559074 826.459378 97.861672 
Q 827.37239 89.164269 827.37239 72.601183 
Q 827.37239 56.13315 826.46406 47.530802 
Q 825.558071 38.904689 823.823348 38.904689 
L 822.814353 38.904689 
z
M 819.998061 17.28 
L 822.966521 17.28 
Q 825.455065 17.28 826.672414 20.892036 
Q 827.889764 24.480309 828.760637 33.106421 
Q 829.528503 40.615654 829.900731 50.429936 
Q 830.275301 60.220454 830.275301 72.601183 
Q 830.275301 85.172019 829.900731 95.010064 
Q 829.528503 104.84811 828.760637 112.333579 
Q 827.88274 120.959691 826.653686 124.571727 
Q 825.424631 128.16 822.966521 128.16 
L 819.998061 128.16 
L 819.998061 17.28 
z
" clip-path="url(#peb3bfc820d)" style="fill: #6b296b"/>
   </g>
   <g id="patch_59">
    <path d="M 836.228887 111.578719 
L 836.027625 111.578719 
Q 833.558946 111.578719 832.186506 99.152512 
Q 830.816208 86.706798 830.816208 64.526897 
Q 830.816208 42.38601 832.184365 29.842759 
Q 833.552523 17.28 835.954827 17.28 
Q 838.382825 17.28 839.738136 29.725714 
Q 841.093447 42.151921 841.093447 64.526897 
Q 841.093447 79.879212 840.37404 90.978916 
Q 839.654634 102.078621 838.303605 107.677241 
L 840.316231 128.16 
L 837.860399 128.16 
L 836.228887 111.578719 
z
M 835.954827 34.290443 
Q 834.777227 34.290443 834.128476 42.210443 
Q 833.479726 50.130443 833.479726 64.526897 
Q 833.479726 79.157438 834.113489 86.940887 
Q 834.749393 94.704828 835.954827 94.704828 
Q 837.138851 94.704828 837.787602 86.784828 
Q 838.436353 78.84532 838.436353 64.526897 
Q 838.436353 50.130443 837.787602 42.210443 
Q 837.138851 34.290443 835.954827 34.290443 
z
" clip-path="url(#peb3bfc820d)" style="fill: #40ba47"/>
   </g>
   <g id="patch_60">
    <path d="M 841.634354 17.28 
L 846.976378 17.28 
Q 849.361018 17.28 850.634968 26.690304 
Q 851.911594 36.076845 851.911594 53.447887 
Q 851.911594 70.913982 850.634968 80.300523 
Q 849.361018 89.687064 846.976378 89.687064 
L 844.854021 89.687064 
L 844.854021 128.16 
L 841.634354 128.16 
L 841.634354 17.28 
z
M 844.854021 38.00168 
L 844.854021 68.965384 
L 846.633803 68.965384 
Q 847.570531 68.965384 848.081716 64.925607 
Q 848.592902 60.885829 848.592902 53.447887 
Q 848.592902 46.033708 848.081716 42.017694 
Q 847.570531 38.00168 846.633803 38.00168 
L 844.854021 38.00168 
z
" clip-path="url(#peb3bfc820d)" style="fill: #787800"/>
   </g>
   <g id="patch_61">
    <path d="M 852.452501 17.28 
L 856.182069 17.28 
L 856.182069 106.559074 
L 862.72974 106.559074 
L 862.72974 128.16 
L 852.452501 128.16 
L 852.452501 17.28 
z
" clip-path="url(#peb3bfc820d)" style="fill: #21599c"/>
   </g>
   <g id="patch_62">
    <path d="M 866.544483 17.28 
L 870.274051 17.28 
L 870.274051 128.16 
L 866.544483 128.16 
L 866.544483 17.28 
z
" clip-path="url(#peb3bfc820d)" style="fill: #21599c"/>
   </g>
   <g id="patch_63">
    <path d="M 874.088794 17.28 
L 877.818362 17.28 
L 877.818362 106.559074 
L 884.366033 106.559074 
L 884.366033 128.16 
L 874.088794 128.16 
L 874.088794 17.28 
z
" clip-path="url(#peb3bfc820d)" style="fill: #21599c"/>
   </g>
   <g id="patch_64">
    <path d="M 894.327278 22.570907 
L 894.327278 45.200413 
Q 893.255453 41.260863 892.23387 39.268184 
Q 891.215078 37.252601 890.307934 37.252601 
Q 889.104922 37.252601 888.527141 39.978219 
Q 887.952152 42.680934 887.952152 48.407023 
Q 887.952152 52.713043 888.34013 55.118 
Q 888.728109 57.500054 889.749692 59.217881 
L 891.178792 61.57703 
Q 893.350354 65.173014 894.265871 72.479504 
Q 895.18418 79.76309 895.18418 93.230853 
Q 895.18418 110.890114 893.905805 119.525057 
Q 892.627431 128.16 890.000901 128.16 
Q 888.764394 128.16 887.516723 126.21313 
Q 886.269052 124.289163 885.02138 120.48704 
L 885.02138 97.239116 
Q 886.269052 102.667449 887.432987 105.438876 
Q 888.596922 108.187399 889.679912 108.187399 
Q 890.779649 108.187399 891.363012 105.186928 
Q 891.946375 102.163553 891.946375 96.574889 
Q 891.946375 91.581739 891.550023 88.856121 
Q 891.153671 86.130502 889.967406 83.977492 
L 888.666702 81.618343 
Q 886.712854 78.18269 885.808502 70.67006 
Q 884.906941 63.15743 884.906941 50.422607 
Q 884.906941 34.458269 886.162986 25.869134 
Q 887.419031 17.28 889.774813 17.28 
Q 890.849429 17.28 891.982661 18.608453 
Q 893.115892 19.936906 894.327278 22.570907 
z
" clip-path="url(#peb3bfc820d)" style="fill: #40ba47"/>
   </g>
   <g id="patch_65">
    <path d="M 895.725087 17.28 
L 898.433416 17.28 
L 898.433416 57.749061 
L 902.337191 17.28 
L 905.482273 17.28 
L 900.423575 69.797102 
L 906.002326 128.16 
L 902.611851 128.16 
L 898.433416 84.48288 
L 898.433416 128.16 
L 895.725087 128.16 
L 895.725087 17.28 
z
" clip-path="url(#peb3bfc820d)" style="fill: #bd2e1f"/>
   </g>
   <g id="patch_66">
    <path d="M 906.543234 17.28 
L 909.085753 17.28 
L 911.685005 99.121132 
L 914.280056 17.28 
L 916.820473 17.28 
L 913.189504 128.16 
L 910.174203 128.16 
L 906.543234 17.28 
z
" clip-path="url(#peb3bfc820d)" style="fill: #21599c"/>
   </g>
   <g id="patch_67">
    <path d="M 917.36138 17.28 
L 927.424704 17.28 
L 927.424704 38.904689 
L 921.090949 38.904689 
L 921.090949 59.531316 
L 927.049577 59.531316 
L 927.049577 81.156005 
L 921.090949 81.156005 
L 921.090949 106.559074 
L 927.63862 106.559074 
L 927.63862 128.16 
L 917.36138 128.16 
L 917.36138 17.28 
z
" clip-path="url(#peb3bfc820d)" style="fill: #6b296b"/>
   </g>
   <g id="patch_68">
    <path d="M 928.179527 17.28 
L 938.456766 17.28 
L 938.456766 38.904689 
L 934.75935 38.904689 
L 934.75935 128.16 
L 931.884113 128.16 
L 931.884113 38.904689 
L 928.179527 38.904689 
L 928.179527 17.28 
z
" clip-path="url(#peb3bfc820d)" style="fill: #40ba47"/>
   </g>
   <g id="patch_69">
    <path d="M 938.997674 17.28 
L 949.274913 17.28 
L 949.274913 38.904689 
L 945.577497 38.904689 
L 945.577497 128.16 
L 942.70226 128.16 
L 942.70226 38.904689 
L 938.997674 38.904689 
L 938.997674 17.28 
z
" clip-path="url(#peb3bfc820d)" style="fill: #40ba47"/>
   </g>
   <g id="patch_70">
    <path d="M 960.093059 120.212188 
Q 959.233386 124.151737 958.303799 126.144416 
Q 957.374213 128.16 956.361766 128.16 
Q 953.342552 128.16 951.579186 113.226358 
Q 949.81582 98.292716 949.81582 72.754357 
Q 949.81582 47.124379 951.579186 32.213642 
Q 953.342552 17.28 956.361766 17.28 
Q 957.374213 17.28 958.303799 19.295584 
Q 959.233386 21.288263 960.093059 25.227812 
L 960.093059 47.330518 
Q 959.225618 42.108325 958.38407 39.680463 
Q 957.542523 37.252601 956.612936 37.252601 
Q 954.945377 37.252601 953.989897 46.712101 
Q 953.037006 56.148697 953.037006 72.754357 
Q 953.037006 89.291303 953.989897 98.750804 
Q 954.945377 108.187399 956.612936 108.187399 
Q 957.542523 108.187399 958.38407 105.759537 
Q 959.225618 103.308771 960.093059 98.086577 
L 960.093059 120.212188 
z
" clip-path="url(#peb3bfc820d)" style="fill: #6b296b"/>
   </g>
   <g id="patch_71">
    <path d="M 970.911206 118.127891 
Q 969.87473 123.143945 968.759942 125.663425 
Q 967.645154 128.16 966.456661 128.16 
Q 963.771035 128.16 962.202501 113.226358 
Q 960.633967 98.292716 960.633967 72.754357 
Q 960.633967 46.91824 962.23014 32.09912 
Q 963.828617 17.28 966.608677 17.28 
Q 967.679703 17.28 968.6609 19.295584 
Q 969.644401 21.288263 970.515042 25.227812 
L 970.515042 47.330518 
Q 969.616762 42.268655 968.727696 39.77208 
Q 967.838629 37.252601 966.944956 37.252601 
Q 965.291201 37.252601 964.395224 46.460153 
Q 963.499248 55.644801 963.499248 72.754357 
Q 963.499248 89.703582 964.362978 98.956943 
Q 965.226709 108.187399 966.815973 108.187399 
Q 967.248989 108.187399 967.619818 107.660599 
Q 967.990646 107.110894 968.285466 105.965677 
L 968.285466 85.214328 
L 966.592554 85.214328 
L 966.592554 66.73051 
L 970.911206 66.73051 
L 970.911206 118.127891 
z
" clip-path="url(#peb3bfc820d)" style="fill: #787800"/>
   </g>
   <g id="patch_72">
    <path d="M 981.729352 120.212188 
Q 980.869679 124.151737 979.940093 126.144416 
Q 979.010506 128.16 977.99806 128.16 
Q 974.978845 128.16 973.215479 113.226358 
Q 971.452113 98.292716 971.452113 72.754357 
Q 971.452113 47.124379 973.215479 32.213642 
Q 974.978845 17.28 977.99806 17.28 
Q 979.010506 17.28 979.940093 19.295584 
Q 980.869679 21.288263 981.729352 25.227812 
L 981.729352 47.330518 
Q 980.861911 42.108325 980.020363 39.680463 
Q 979.178816 37.252601 978.249229 37.252601 
Q 976.58167 37.252601 975.62619 46.712101 
Q 974.673299 56.148697 974.673299 72.754357 
Q 974.673299 89.291303 975.62619 98.750804 
Q 976.58167 108.187399 978.249229 108.187399 
Q 979.178816 108.187399 980.020363 105.759537 
Q 980.861911 103.308771 981.729352 98.086577 
L 981.729352 120.212188 
z
" clip-path="url(#peb3bfc820d)" style="fill: #6b296b"/>
   </g>
   <g id="patch_73">
    <path d="M 982.27026 17.28 
L 992.547499 17.28 
L 992.547499 38.904689 
L 988.850083 38.904689 
L 988.850083 128.16 
L 985.974846 128.16 
L 985.974846 38.904689 
L 982.27026 38.904689 
L 982.27026 17.28 
z
" clip-path="url(#peb3bfc820d)" style="fill: #40ba47"/>
   </g>
   <g id="patch_74">
    <path d="M 993.088406 17.28 
L 995.630925 17.28 
L 998.230178 99.121132 
L 1000.825228 17.28 
L 1003.365646 17.28 
L 999.734677 128.16 
L 996.719375 128.16 
L 993.088406 17.28 
z
" clip-path="url(#peb3bfc820d)" style="fill: #21599c"/>
   </g>
   <g id="patch_75">
    <path d="M 1003.906553 17.28 
L 1009.248576 17.28 
Q 1011.633217 17.28 1012.907166 26.690304 
Q 1014.183792 36.076845 1014.183792 53.447887 
Q 1014.183792 70.913982 1012.907166 80.300523 
Q 1011.633217 89.687064 1009.248576 89.687064 
L 1007.126219 89.687064 
L 1007.126219 128.16 
L 1003.906553 128.16 
L 1003.906553 17.28 
z
M 1007.126219 38.00168 
L 1007.126219 68.965384 
L 1008.906002 68.965384 
Q 1009.842729 68.965384 1010.353915 64.925607 
Q 1010.8651 60.885829 1010.8651 53.447887 
Q 1010.8651 46.033708 1010.353915 42.017694 
Q 1009.842729 38.00168 1008.906002 38.00168 
L 1007.126219 38.00168 
z
" clip-path="url(#peb3bfc820d)" style="fill: #787800"/>
   </g>
   <g id="patch_76">
    <path d="M 1014.724699 17.28 
L 1024.788023 17.28 
L 1024.788023 38.904689 
L 1018.454268 38.904689 
L 1018.454268 59.531316 
L 1024.412896 59.531316 
L 1024.412896 81.156005 
L 1018.454268 81.156005 
L 1018.454268 106.559074 
L 1025.001939 106.559074 
L 1025.001939 128.16 
L 1014.724699 128.16 
L 1014.724699 17.28 
z
" clip-path="url(#peb3bfc820d)" style="fill: #6b296b"/>
   </g>
   <g id="patch_77">
    <path d="M 1025.542846 17.28 
L 1028.3842 17.28 
L 1030.679307 56.798526 
L 1032.972254 17.28 
L 1035.820085 17.28 
L 1031.981234 81.441166 
L 1031.981234 128.16 
L 1029.383856 128.16 
L 1029.383856 81.441166 
L 1025.542846 17.28 
z
" clip-path="url(#peb3bfc820d)" style="fill: #177875"/>
   </g>
   <g id="patch_78">
    <path d="M 1036.360993 17.28 
L 1046.638232 17.28 
L 1046.638232 38.904689 
L 1042.940816 38.904689 
L 1042.940816 128.16 
L 1040.065579 128.16 
L 1040.065579 38.904689 
L 1036.360993 38.904689 
L 1036.360993 17.28 
z
" clip-path="url(#peb3bfc820d)" style="fill: #40ba47"/>
   </g>
   <g id="patch_79">
    <path d="M 1047.179139 17.28 
L 1049.887468 17.28 
L 1049.887468 57.749061 
L 1053.791243 17.28 
L 1056.936325 17.28 
L 1051.877627 69.797102 
L 1057.456378 128.16 
L 1054.065903 128.16 
L 1049.887468 84.48288 
L 1049.887468 128.16 
L 1047.179139 128.16 
L 1047.179139 17.28 
z
" clip-path="url(#peb3bfc820d)" style="fill: #bd2e1f"/>
   </g>
   <g id="patch_80">
    <path d="M 1057.997286 17.28 
L 1068.274525 17.28 
L 1068.274525 38.904689 
L 1064.577109 38.904689 
L 1064.577109 128.16 
L 1061.701872 128.16 
L 1061.701872 38.904689 
L 1057.997286 38.904689 
L 1057.997286 17.28 
z
" clip-path="url(#peb3bfc820d)" style="fill: #40ba47"/>
   </g>
   <g id="patch_81">
    <path d="M 1068.815432 17.28 
L 1074.157456 17.28 
Q 1076.542096 17.28 1077.816046 26.690304 
Q 1079.092672 36.076845 1079.092672 53.447887 
Q 1079.092672 70.913982 1077.816046 80.300523 
Q 1076.542096 89.687064 1074.157456 89.687064 
L 1072.035099 89.687064 
L 1072.035099 128.16 
L 1068.815432 128.16 
L 1068.815432 17.28 
z
M 1072.035099 38.00168 
L 1072.035099 68.965384 
L 1073.814881 68.965384 
Q 1074.751609 68.965384 1075.262794 64.925607 
Q 1075.77398 60.885829 1075.77398 53.447887 
Q 1075.77398 46.033708 1075.262794 42.017694 
Q 1074.751609 38.00168 1073.814881 38.00168 
L 1072.035099 38.00168 
z
" clip-path="url(#peb3bfc820d)" style="fill: #787800"/>
   </g>
   <g id="patch_82">
    <path d="M 1082.907414 17.28 
L 1086.636983 17.28 
L 1086.636983 128.16 
L 1082.907414 128.16 
L 1082.907414 17.28 
z
" clip-path="url(#peb3bfc820d)" style="fill: #21599c"/>
   </g>
   <g id="patch_83">
    <path d="M 1090.451725 17.28 
L 1093.160054 17.28 
L 1093.160054 57.749061 
L 1097.063829 17.28 
L 1100.208912 17.28 
L 1095.150214 69.797102 
L 1100.728965 128.16 
L 1097.338489 128.16 
L 1093.160054 84.48288 
L 1093.160054 128.16 
L 1090.451725 128.16 
L 1090.451725 17.28 
z
" clip-path="url(#peb3bfc820d)" style="fill: #bd2e1f"/>
   </g>
   <g id="patch_84">
    <path d="M 1101.269872 17.28 
L 1103.9782 17.28 
L 1103.9782 57.749061 
L 1107.881975 17.28 
L 1111.027058 17.28 
L 1105.96836 69.797102 
L 1111.547111 128.16 
L 1108.156635 128.16 
L 1103.9782 84.48288 
L 1103.9782 128.16 
L 1101.269872 128.16 
L 1101.269872 17.28 
z
" clip-path="url(#peb3bfc820d)" style="fill: #bd2e1f"/>
   </g>
   <g id="patch_85">
    <path d="M 1122.365258 118.127891 
Q 1121.328781 123.143945 1120.213994 125.663425 
Q 1119.099206 128.16 1117.910713 128.16 
Q 1115.225087 128.16 1113.656553 113.226358 
Q 1112.088019 98.292716 1112.088019 72.754357 
Q 1112.088019 46.91824 1113.684192 32.09912 
Q 1115.282669 17.28 1118.062729 17.28 
Q 1119.133755 17.28 1120.114952 19.295584 
Q 1121.098453 21.288263 1121.969094 25.227812 
L 1121.969094 47.330518 
Q 1121.070814 42.268655 1120.181748 39.77208 
Q 1119.292681 37.252601 1118.399008 37.252601 
Q 1116.745253 37.252601 1115.849276 46.460153 
Q 1114.9533 55.644801 1114.9533 72.754357 
Q 1114.9533 89.703582 1115.81703 98.956943 
Q 1116.680761 108.187399 1118.270024 108.187399 
Q 1118.703041 108.187399 1119.073869 107.660599 
Q 1119.444698 107.110894 1119.739518 105.965677 
L 1119.739518 85.214328 
L 1118.046606 85.214328 
L 1118.046606 66.73051 
L 1122.365258 66.73051 
L 1122.365258 118.127891 
z
" clip-path="url(#peb3bfc820d)" style="fill: #787800"/>
   </g>
   <g id="patch_86">
    <path d="M 1122.906165 17.28 
L 1132.969489 17.28 
L 1132.969489 38.904689 
L 1126.635733 38.904689 
L 1126.635733 59.531316 
L 1132.594362 59.531316 
L 1132.594362 81.156005 
L 1126.635733 81.156005 
L 1126.635733 106.559074 
L 1133.183404 106.559074 
L 1133.183404 128.16 
L 1122.906165 128.16 
L 1122.906165 17.28 
z
" clip-path="url(#peb3bfc820d)" style="fill: #6b296b"/>
   </g>
   <g id="patch_87">
    <path d="M 1133.724312 17.28 
L 1144.001551 17.28 
L 1144.001551 38.904689 
L 1140.304135 38.904689 
L 1140.304135 128.16 
L 1137.428898 128.16 
L 1137.428898 38.904689 
L 1133.724312 38.904689 
L 1133.724312 17.28 
z
" clip-path="url(#peb3bfc820d)" style="fill: #40ba47"/>
   </g>
   <g id="patch_88">
    <path d="M 1154.819698 118.127891 
Q 1153.783221 123.143945 1152.668433 125.663425 
Q 1151.553645 128.16 1150.365152 128.16 
Q 1147.679527 128.16 1146.110993 113.226358 
Q 1144.542458 98.292716 1144.542458 72.754357 
Q 1144.542458 46.91824 1146.138632 32.09912 
Q 1147.737109 17.28 1150.517169 17.28 
Q 1151.588194 17.28 1152.569392 19.295584 
Q 1153.552893 21.288263 1154.423533 25.227812 
L 1154.423533 47.330518 
Q 1153.525254 42.268655 1152.636187 39.77208 
Q 1151.747121 37.252601 1150.853448 37.252601 
Q 1149.199692 37.252601 1148.303716 46.460153 
Q 1147.40774 55.644801 1147.40774 72.754357 
Q 1147.40774 89.703582 1148.27147 98.956943 
Q 1149.1352 108.187399 1150.724464 108.187399 
Q 1151.157481 108.187399 1151.528309 107.660599 
Q 1151.899137 107.110894 1152.193957 105.965677 
L 1152.193957 85.214328 
L 1150.501046 85.214328 
L 1150.501046 66.73051 
L 1154.819698 66.73051 
L 1154.819698 118.127891 
z
" clip-path="url(#peb3bfc820d)" style="fill: #787800"/>
   </g>
   <g id="patch_89">
    <path d="M 1155.360605 17.28 
L 1165.637844 17.28 
L 1165.637844 38.904689 
L 1161.940428 38.904689 
L 1161.940428 128.16 
L 1159.065191 128.16 
L 1159.065191 38.904689 
L 1155.360605 38.904689 
L 1155.360605 17.28 
z
" clip-path="url(#peb3bfc820d)" style="fill: #40ba47"/>
   </g>
   <g id="patch_90">
    <path d="M 1169.452587 17.28 
L 1173.182155 17.28 
L 1173.182155 128.16 
L 1169.452587 128.16 
L 1169.452587 17.28 
z
" clip-path="url(#peb3bfc820d)" style="fill: #21599c"/>
   </g>
   <g id="patch_91">
    <path d="M 1176.996898 17.28 
L 1179.705226 17.28 
L 1179.705226 57.749061 
L 1183.609001 17.28 
L 1186.754084 17.28 
L 1181.695386 69.797102 
L 1187.274137 128.16 
L 1183.883661 128.16 
L 1179.705226 84.48288 
L 1179.705226 128.16 
L 1176.996898 128.16 
L 1176.996898 17.28 
z
" clip-path="url(#peb3bfc820d)" style="fill: #bd2e1f"/>
   </g>
   <g id="patch_92">
    <path d="M 1187.815045 17.28 
L 1190.357563 17.28 
L 1192.956816 99.121132 
L 1195.551866 17.28 
L 1198.092284 17.28 
L 1194.461315 128.16 
L 1191.446014 128.16 
L 1187.815045 17.28 
z
" clip-path="url(#peb3bfc820d)" style="fill: #21599c"/>
   </g>
   <g id="patch_93">
    <path d="M 1198.633191 17.28 
L 1208.91043 17.28 
L 1208.91043 38.904689 
L 1205.213014 38.904689 
L 1205.213014 128.16 
L 1202.337777 128.16 
L 1202.337777 38.904689 
L 1198.633191 38.904689 
L 1198.633191 17.28 
z
" clip-path="url(#peb3bfc820d)" style="fill: #40ba47"/>
   </g>
   <g id="patch_94">
    <path d="M 1209.451338 17.28 
L 1212.292692 17.28 
L 1214.587798 56.798526 
L 1216.880745 17.28 
L 1219.728577 17.28 
L 1215.889726 81.441166 
L 1215.889726 128.16 
L 1213.292348 128.16 
L 1213.292348 81.441166 
L 1209.451338 17.28 
z
" clip-path="url(#peb3bfc820d)" style="fill: #177875"/>
   </g>
   <g id="patch_95">
    <path d="M 1220.269484 17.28 
L 1223.570688 17.28 
L 1227.742052 93.322863 
L 1227.742052 17.28 
L 1230.546724 17.28 
L 1230.546724 128.16 
L 1227.243062 128.16 
L 1223.071697 52.117137 
L 1223.071697 128.16 
L 1220.269484 128.16 
L 1220.269484 17.28 
z
" clip-path="url(#peb3bfc820d)" style="fill: #40ba47"/>
   </g>
   <g id="patch_96">
    <path d="M 1231.087631 17.28 
L 1236.429654 17.28 
Q 1238.814295 17.28 1240.088244 26.690304 
Q 1241.36487 36.076845 1241.36487 53.447887 
Q 1241.36487 70.913982 1240.088244 80.300523 
Q 1238.814295 89.687064 1236.429654 89.687064 
L 1234.307297 89.687064 
L 1234.307297 128.16 
L 1231.087631 128.16 
L 1231.087631 17.28 
z
M 1234.307297 38.00168 
L 1234.307297 68.965384 
L 1236.08708 68.965384 
Q 1237.023807 68.965384 1237.534993 64.925607 
Q 1238.046178 60.885829 1238.046178 53.447887 
Q 1238.046178 46.033708 1237.534993 42.017694 
Q 1237.023807 38.00168 1236.08708 38.00168 
L 1234.307297 38.00168 
z
" clip-path="url(#peb3bfc820d)" style="fill: #787800"/>
   </g>
   <g id="patch_97">
    <path d="M 1241.905777 17.28 
L 1252.183017 17.28 
L 1252.183017 38.904689 
L 1248.485601 38.904689 
L 1248.485601 128.16 
L 1245.610364 128.16 
L 1245.610364 38.904689 
L 1241.905777 38.904689 
L 1241.905777 17.28 
z
" clip-path="url(#peb3bfc820d)" style="fill: #40ba47"/>
   </g>
   <g id="patch_98">
    <path d="M 1259.842977 107.961114 
L 1255.890516 107.961114 
L 1255.266443 128.16 
L 1252.723924 128.16 
L 1256.354893 17.28 
L 1259.370194 17.28 
L 1263.001163 128.16 
L 1260.460746 128.16 
L 1259.842977 107.961114 
z
M 1256.520892 87.382015 
L 1259.206296 87.382015 
L 1257.865696 43.277154 
L 1256.520892 87.382015 
z
" clip-path="url(#peb3bfc820d)" style="fill: #21599c"/>
   </g>
   <g id="patch_99">
    <path d="M 1270.661123 107.961114 
L 1266.708662 107.961114 
L 1266.084589 128.16 
L 1263.542071 128.16 
L 1267.17304 17.28 
L 1270.188341 17.28 
L 1273.81931 128.16 
L 1271.278892 128.16 
L 1270.661123 107.961114 
z
M 1267.339039 87.382015 
L 1270.024443 87.382015 
L 1268.683842 43.277154 
L 1267.339039 87.382015 
z
" clip-path="url(#peb3bfc820d)" style="fill: #21599c"/>
   </g>
   <g id="patch_100">
    <path d="M 1274.360217 17.28 
L 1278.089785 17.28 
L 1278.089785 106.559074 
L 1284.637456 106.559074 
L 1284.637456 128.16 
L 1274.360217 128.16 
L 1274.360217 17.28 
z
" clip-path="url(#peb3bfc820d)" style="fill: #21599c"/>
   </g>
   <g id="patch_101">
    <path d="M 1285.178364 17.28 
L 1290.520387 17.28 
Q 1292.905028 17.28 1294.178977 26.690304 
Q 1295.455603 36.076845 1295.455603 53.447887 
Q 1295.455603 70.913982 1294.178977 80.300523 
Q 1292.905028 89.687064 1290.520387 89.687064 
L 1288.39803 89.687064 
L 1288.39803 128.16 
L 1285.178364 128.16 
L 1285.178364 17.28 
z
M 1288.39803 38.00168 
L 1288.39803 68.965384 
L 1290.177812 68.965384 
Q 1291.11454 68.965384 1291.625726 64.925607 
Q 1292.136911 60.885829 1292.136911 53.447887 
Q 1292.136911 46.033708 1291.625726 42.017694 
Q 1291.11454 38.00168 1290.177812 38.00168 
L 1288.39803 38.00168 
z
" clip-path="url(#peb3bfc820d)" style="fill: #787800"/>
   </g>
   <g id="patch_102">
    <path d="M 1296.103468 17.28 
L 1306.166792 17.28 
L 1306.166792 38.904689 
L 1299.833036 38.904689 
L 1299.833036 59.531316 
L 1305.791665 59.531316 
L 1305.791665 81.156005 
L 1299.833036 81.156005 
L 1299.833036 128.16 
L 1296.103468 128.16 
L 1296.103468 17.28 
z
" clip-path="url(#peb3bfc820d)" style="fill: #21599c"/>
   </g>
   <g id="patch_103">
    <path d="M 1316.234994 22.570907 
L 1316.234994 45.200413 
Q 1315.163169 41.260863 1314.141586 39.268184 
Q 1313.122794 37.252601 1312.21565 37.252601 
Q 1311.012638 37.252601 1310.434858 39.978219 
Q 1309.859868 42.680934 1309.859868 48.407023 
Q 1309.859868 52.713043 1310.247846 55.118 
Q 1310.635825 57.500054 1311.657408 59.217881 
L 1313.086508 61.57703 
Q 1315.25807 65.173014 1316.173588 72.479504 
Q 1317.091896 79.76309 1317.091896 93.230853 
Q 1317.091896 110.890114 1315.813521 119.525057 
Q 1314.535147 128.16 1311.908617 128.16 
Q 1310.672111 128.16 1309.424439 126.21313 
Q 1308.176768 124.289163 1306.929096 120.48704 
L 1306.929096 97.239116 
Q 1308.176768 102.667449 1309.340703 105.438876 
Q 1310.504638 108.187399 1311.587628 108.187399 
Q 1312.687365 108.187399 1313.270728 105.186928 
Q 1313.854091 102.163553 1313.854091 96.574889 
Q 1313.854091 91.581739 1313.457739 88.856121 
Q 1313.061387 86.130502 1311.875123 83.977492 
L 1310.574418 81.618343 
Q 1308.62057 78.18269 1307.716218 70.67006 
Q 1306.814657 63.15743 1306.814657 50.422607 
Q 1306.814657 34.458269 1308.070702 25.869134 
Q 1309.326747 17.28 1311.682529 17.28 
Q 1312.757145 17.28 1313.890377 18.608453 
Q 1315.023609 19.936906 1316.234994 22.570907 
z
" clip-path="url(#peb3bfc820d)" style="fill: #40ba47"/>
   </g>
   <g id="patch_104">
    <path d="M 1317.632803 17.28 
L 1320.341132 17.28 
L 1320.341132 57.749061 
L 1324.244907 17.28 
L 1327.38999 17.28 
L 1322.331292 69.797102 
L 1327.910043 128.16 
L 1324.519567 128.16 
L 1320.341132 84.48288 
L 1320.341132 128.16 
L 1317.632803 128.16 
L 1317.632803 17.28 
z
" clip-path="url(#peb3bfc820d)" style="fill: #bd2e1f"/>
   </g>
   <g id="patch_105">
    <path d="M 1337.871287 22.570907 
L 1337.871287 45.200413 
Q 1336.799462 41.260863 1335.777879 39.268184 
Q 1334.759087 37.252601 1333.851943 37.252601 
Q 1332.648931 37.252601 1332.071151 39.978219 
Q 1331.496161 42.680934 1331.496161 48.407023 
Q 1331.496161 52.713043 1331.88414 55.118 
Q 1332.272118 57.500054 1333.293701 59.217881 
L 1334.722801 61.57703 
Q 1336.894364 65.173014 1337.809881 72.479504 
Q 1338.728189 79.76309 1338.728189 93.230853 
Q 1338.728189 110.890114 1337.449815 119.525057 
Q 1336.17144 128.16 1333.54491 128.16 
Q 1332.308404 128.16 1331.060732 126.21313 
Q 1329.813061 124.289163 1328.56539 120.48704 
L 1328.56539 97.239116 
Q 1329.813061 102.667449 1330.976996 105.438876 
Q 1332.140931 108.187399 1333.223921 108.187399 
Q 1334.323658 108.187399 1334.907021 105.186928 
Q 1335.490384 102.163553 1335.490384 96.574889 
Q 1335.490384 91.581739 1335.094032 88.856121 
Q 1334.69768 86.130502 1333.511416 83.977492 
L 1332.210711 81.618343 
Q 1330.256864 78.18269 1329.352511 70.67006 
Q 1328.45095 63.15743 1328.45095 50.422607 
Q 1328.45095 34.458269 1329.706995 25.869134 
Q 1330.96304 17.28 1333.318822 17.28 
Q 1334.393438 17.28 1335.52667 18.608453 
Q 1336.659902 19.936906 1337.871287 22.570907 
z
" clip-path="url(#peb3bfc820d)" style="fill: #40ba47"/>
   </g>
   <g id="patch_106">
    <path d="M 1342.542932 17.28 
L 1346.2725 17.28 
L 1346.2725 128.16 
L 1342.542932 128.16 
L 1342.542932 17.28 
z
" clip-path="url(#peb3bfc820d)" style="fill: #21599c"/>
   </g>
   <g id="patch_107">
    <path d="M 1350.087243 17.28 
L 1360.364482 17.28 
L 1360.364482 38.904689 
L 1356.667066 38.904689 
L 1356.667066 128.16 
L 1353.791829 128.16 
L 1353.791829 38.904689 
L 1350.087243 38.904689 
L 1350.087243 17.28 
z
" clip-path="url(#peb3bfc820d)" style="fill: #40ba47"/>
   </g>
   <g id="patch_108">
    <path d="M 1364.179225 17.28 
L 1367.908793 17.28 
L 1367.908793 128.16 
L 1364.179225 128.16 
L 1364.179225 17.28 
z
" clip-path="url(#peb3bfc820d)" style="fill: #21599c"/>
   </g>
   <g id="patch_109">
    <path d="M 1371.723536 17.28 
L 1382.000775 17.28 
L 1382.000775 38.904689 
L 1378.303359 38.904689 
L 1378.303359 128.16 
L 1375.428122 128.16 
L 1375.428122 38.904689 
L 1371.723536 38.904689 
L 1371.723536 17.28 
z
" clip-path="url(#peb3bfc820d)" style="fill: #40ba47"/>
   </g>
   <g id="patch_110">
    <path d="M 1391.96202 22.570907 
L 1391.96202 45.200413 
Q 1390.890195 41.260863 1389.868612 39.268184 
Q 1388.84982 37.252601 1387.942676 37.252601 
Q 1386.739664 37.252601 1386.161884 39.978219 
Q 1385.586894 42.680934 1385.586894 48.407023 
Q 1385.586894 52.713043 1385.974872 55.118 
Q 1386.362851 57.500054 1387.384434 59.217881 
L 1388.813534 61.57703 
Q 1390.985096 65.173014 1391.900614 72.479504 
Q 1392.818922 79.76309 1392.818922 93.230853 
Q 1392.818922 110.890114 1391.540547 119.525057 
Q 1390.262173 128.16 1387.635643 128.16 
Q 1386.399137 128.16 1385.151465 126.21313 
Q 1383.903794 124.289163 1382.656122 120.48704 
L 1382.656122 97.239116 
Q 1383.903794 102.667449 1385.067729 105.438876 
Q 1386.231664 108.187399 1387.314654 108.187399 
Q 1388.414391 108.187399 1388.997754 105.186928 
Q 1389.581117 102.163553 1389.581117 96.574889 
Q 1389.581117 91.581739 1389.184765 88.856121 
Q 1388.788413 86.130502 1387.602149 83.977492 
L 1386.301444 81.618343 
Q 1384.347596 78.18269 1383.443244 70.67006 
Q 1382.541683 63.15743 1382.541683 50.422607 
Q 1382.541683 34.458269 1383.797728 25.869134 
Q 1385.053773 17.28 1387.409555 17.28 
Q 1388.484171 17.28 1389.617403 18.608453 
Q 1390.750635 19.936906 1391.96202 22.570907 
z
" clip-path="url(#peb3bfc820d)" style="fill: #40ba47"/>
   </g>
   <g id="patch_111">
    <path d="M 1393.359829 17.28 
L 1396.661033 17.28 
L 1400.832398 93.322863 
L 1400.832398 17.28 
L 1403.637069 17.28 
L 1403.637069 128.16 
L 1400.333407 128.16 
L 1396.162042 52.117137 
L 1396.162042 128.16 
L 1393.359829 128.16 
L 1393.359829 17.28 
z
" clip-path="url(#peb3bfc820d)" style="fill: #40ba47"/>
   </g>
   <g id="patch_112">
    <path d="M 1411.297029 107.961114 
L 1407.344568 107.961114 
L 1406.720495 128.16 
L 1404.177976 128.16 
L 1407.808945 17.28 
L 1410.824246 17.28 
L 1414.455215 128.16 
L 1411.914798 128.16 
L 1411.297029 107.961114 
z
M 1407.974944 87.382015 
L 1410.660348 87.382015 
L 1409.319747 43.277154 
L 1407.974944 87.382015 
z
" clip-path="url(#peb3bfc820d)" style="fill: #21599c"/>
   </g>
   <g id="patch_113">
    <path d="M 1414.996123 17.28 
L 1417.704451 17.28 
L 1417.704451 57.749061 
L 1421.608226 17.28 
L 1424.753309 17.28 
L 1419.694611 69.797102 
L 1425.273362 128.16 
L 1421.882886 128.16 
L 1417.704451 84.48288 
L 1417.704451 128.16 
L 1414.996123 128.16 
L 1414.996123 17.28 
z
" clip-path="url(#peb3bfc820d)" style="fill: #bd2e1f"/>
   </g>
   <g id="patch_114">
    <path d="M 1425.814269 17.28 
L 1436.091508 17.28 
L 1436.091508 38.904689 
L 1432.394092 38.904689 
L 1432.394092 128.16 
L 1429.518855 128.16 
L 1429.518855 38.904689 
L 1425.814269 38.904689 
L 1425.814269 17.28 
z
" clip-path="url(#peb3bfc820d)" style="fill: #40ba47"/>
   </g>
   <g id="patch_115">
    <path d="M 1436.632416 17.28 
L 1446.909655 17.28 
L 1446.909655 38.904689 
L 1443.212239 38.904689 
L 1443.212239 128.16 
L 1440.337002 128.16 
L 1440.337002 38.904689 
L 1436.632416 38.904689 
L 1436.632416 17.28 
z
" clip-path="url(#peb3bfc820d)" style="fill: #40ba47"/>
   </g>
   <g id="patch_116">
    <path d="M 1447.450562 17.28 
L 1457.727801 17.28 
L 1457.727801 38.904689 
L 1454.030385 38.904689 
L 1454.030385 128.16 
L 1451.155148 128.16 
L 1451.155148 38.904689 
L 1447.450562 38.904689 
L 1447.450562 17.28 
z
" clip-path="url(#peb3bfc820d)" style="fill: #40ba47"/>
   </g>
   <g id="patch_117">
    <path d="M 1458.268709 17.28 
L 1460.977037 17.28 
L 1460.977037 57.749061 
L 1464.880812 17.28 
L 1468.025895 17.28 
L 1462.967197 69.797102 
L 1468.545948 128.16 
L 1465.155472 128.16 
L 1460.977037 84.48288 
L 1460.977037 128.16 
L 1458.268709 128.16 
L 1458.268709 17.28 
z
" clip-path="url(#peb3bfc820d)" style="fill: #bd2e1f"/>
   </g>
   <g id="patch_118">
    <path d="M 1469.086855 17.28 
L 1471.629374 17.28 
L 1474.228627 99.121132 
L 1476.823677 17.28 
L 1479.364095 17.28 
L 1475.733126 128.16 
L 1472.717824 128.16 
L 1469.086855 17.28 
z
" clip-path="url(#peb3bfc820d)" style="fill: #21599c"/>
   </g>
   <g id="patch_119">
    <path d="M 1479.905002 17.28 
L 1483.63457 17.28 
L 1483.63457 106.559074 
L 1490.182241 106.559074 
L 1490.182241 128.16 
L 1479.905002 128.16 
L 1479.905002 17.28 
z
" clip-path="url(#peb3bfc820d)" style="fill: #21599c"/>
   </g>
   <g id="patch_120">
    <path d="M 1490.723149 17.28 
L 1493.564503 17.28 
L 1495.859609 56.798526 
L 1498.152556 17.28 
L 1501.000388 17.28 
L 1497.161537 81.441166 
L 1497.161537 128.16 
L 1494.564159 128.16 
L 1494.564159 81.441166 
L 1490.723149 17.28 
z
" clip-path="url(#peb3bfc820d)" style="fill: #177875"/>
   </g>
   <g id="patch_121">
    <path d="M 1504.815131 17.28 
L 1508.544699 17.28 
L 1508.544699 128.16 
L 1504.815131 128.16 
L 1504.815131 17.28 
z
" clip-path="url(#peb3bfc820d)" style="fill: #21599c"/>
   </g>
   <g id="patch_122">
    <path d="M 1512.359442 17.28 
L 1515.06777 17.28 
L 1515.06777 57.749061 
L 1518.971545 17.28 
L 1522.116628 17.28 
L 1517.05793 69.797102 
L 1522.636681 128.16 
L 1519.246205 128.16 
L 1515.06777 84.48288 
L 1515.06777 128.16 
L 1512.359442 128.16 
L 1512.359442 17.28 
z
" clip-path="url(#peb3bfc820d)" style="fill: #bd2e1f"/>
   </g>
   <g id="patch_123">
    <path d="M 1533.454827 118.127891 
Q 1532.418351 123.143945 1531.303563 125.663425 
Q 1530.188775 128.16 1529.000282 128.16 
Q 1526.314657 128.16 1524.746122 113.226358 
Q 1523.177588 98.292716 1523.177588 72.754357 
Q 1523.177588 46.91824 1524.773762 32.09912 
Q 1526.372239 17.28 1529.152299 17.28 
Q 1530.223324 17.28 1531.204522 19.295584 
Q 1532.188023 21.288263 1533.058663 25.227812 
L 1533.058663 47.330518 
Q 1532.160384 42.268655 1531.271317 39.77208 
Q 1530.382251 37.252601 1529.488578 37.252601 
Q 1527.834822 37.252601 1526.938846 46.460153 
Q 1526.04287 55.644801 1526.04287 72.754357 
Q 1526.04287 89.703582 1526.9066 98.956943 
Q 1527.77033 108.187399 1529.359594 108.187399 
Q 1529.792611 108.187399 1530.163439 107.660599 
Q 1530.534267 107.110894 1530.829087 105.965677 
L 1530.829087 85.214328 
L 1529.136176 85.214328 
L 1529.136176 66.73051 
L 1533.454827 66.73051 
L 1533.454827 118.127891 
z
" clip-path="url(#peb3bfc820d)" style="fill: #787800"/>
   </g>
   <g id="patch_124">
    <path d="M 1533.995735 17.28 
L 1544.059059 17.28 
L 1544.059059 38.904689 
L 1537.725303 38.904689 
L 1537.725303 59.531316 
L 1543.683932 59.531316 
L 1543.683932 81.156005 
L 1537.725303 81.156005 
L 1537.725303 106.559074 
L 1544.272974 106.559074 
L 1544.272974 128.16 
L 1533.995735 128.16 
L 1533.995735 17.28 
z
" clip-path="url(#peb3bfc820d)" style="fill: #6b296b"/>
   </g>
   <g id="patch_125">
    <path d="M 1544.813881 17.28 
L 1555.091121 17.28 
L 1555.091121 38.904689 
L 1551.393705 38.904689 
L 1551.393705 128.16 
L 1548.518468 128.16 
L 1548.518468 38.904689 
L 1544.813881 38.904689 
L 1544.813881 17.28 
z
" clip-path="url(#peb3bfc820d)" style="fill: #40ba47"/>
   </g>
   <g id="patch_126">
    <path d="M 1555.632028 17.28 
L 1558.174547 17.28 
L 1560.773799 99.121132 
L 1563.36885 17.28 
L 1565.909267 17.28 
L 1562.278298 128.16 
L 1559.262997 128.16 
L 1555.632028 17.28 
z
" clip-path="url(#peb3bfc820d)" style="fill: #21599c"/>
   </g>
   <g id="patch_127">
    <path d="M 1573.569227 107.961114 
L 1569.616766 107.961114 
L 1568.992693 128.16 
L 1566.450174 128.16 
L 1570.081143 17.28 
L 1573.096445 17.28 
L 1576.727414 128.16 
L 1574.186996 128.16 
L 1573.569227 107.961114 
z
M 1570.247143 87.382015 
L 1572.932547 87.382015 
L 1571.591946 43.277154 
L 1570.247143 87.382015 
z
" clip-path="url(#peb3bfc820d)" style="fill: #21599c"/>
   </g>
   <g id="patch_128">
    <path d="M 1587.54556 118.127891 
Q 1586.509084 123.143945 1585.394296 125.663425 
Q 1584.279508 128.16 1583.091015 128.16 
Q 1580.40539 128.16 1578.836855 113.226358 
Q 1577.268321 98.292716 1577.268321 72.754357 
Q 1577.268321 46.91824 1578.864495 32.09912 
Q 1580.462972 17.28 1583.243032 17.28 
Q 1584.314057 17.28 1585.295255 19.295584 
Q 1586.278756 21.288263 1587.149396 25.227812 
L 1587.149396 47.330518 
Q 1586.251116 42.268655 1585.36205 39.77208 
Q 1584.472984 37.252601 1583.579311 37.252601 
Q 1581.925555 37.252601 1581.029579 46.460153 
Q 1580.133602 55.644801 1580.133602 72.754357 
Q 1580.133602 89.703582 1580.997333 98.956943 
Q 1581.861063 108.187399 1583.450327 108.187399 
Q 1583.883344 108.187399 1584.254172 107.660599 
Q 1584.625 107.110894 1584.91982 105.965677 
L 1584.91982 85.214328 
L 1583.226909 85.214328 
L 1583.226909 66.73051 
L 1587.54556 66.73051 
L 1587.54556 118.127891 
z
" clip-path="url(#peb3bfc820d)" style="fill: #787800"/>
   </g>
   <g id="patch_129">
    <path d="M 1597.506805 22.570907 
L 1597.506805 45.200413 
Q 1596.43498 41.260863 1595.413397 39.268184 
Q 1594.394605 37.252601 1593.487461 37.252601 
Q 1592.284449 37.252601 1591.706668 39.978219 
Q 1591.131679 42.680934 1591.131679 48.407023 
Q 1591.131679 52.713043 1591.519657 55.118 
Q 1591.907636 57.500054 1592.929219 59.217881 
L 1594.358319 61.57703 
Q 1596.529881 65.173014 1597.445398 72.479504 
Q 1598.363707 79.76309 1598.363707 93.230853 
Q 1598.363707 110.890114 1597.085332 119.525057 
Q 1595.806958 128.16 1593.180428 128.16 
Q 1591.943921 128.16 1590.69625 126.21313 
Q 1589.448579 124.289163 1588.200907 120.48704 
L 1588.200907 97.239116 
Q 1589.448579 102.667449 1590.612514 105.438876 
Q 1591.776449 108.187399 1592.859439 108.187399 
Q 1593.959176 108.187399 1594.542539 105.186928 
Q 1595.125902 102.163553 1595.125902 96.574889 
Q 1595.125902 91.581739 1594.72955 88.856121 
Q 1594.333198 86.130502 1593.146933 83.977492 
L 1591.846229 81.618343 
Q 1589.892381 78.18269 1588.988029 70.67006 
Q 1588.086468 63.15743 1588.086468 50.422607 
Q 1588.086468 34.458269 1589.342513 25.869134 
Q 1590.598558 17.28 1592.95434 17.28 
Q 1594.028956 17.28 1595.162188 18.608453 
Q 1596.295419 19.936906 1597.506805 22.570907 
z
" clip-path="url(#peb3bfc820d)" style="fill: #40ba47"/>
   </g>
   <g id="patch_130">
    <path d="M 1598.904614 17.28 
L 1609.181853 17.28 
L 1609.181853 38.904689 
L 1605.484437 38.904689 
L 1605.484437 128.16 
L 1602.6092 128.16 
L 1602.6092 38.904689 
L 1598.904614 38.904689 
L 1598.904614 17.28 
z
" clip-path="url(#peb3bfc820d)" style="fill: #40ba47"/>
   </g>
   <g id="patch_131">
    <path d="M 1609.722761 17.28 
L 1612.431089 17.28 
L 1612.431089 57.749061 
L 1616.334864 17.28 
L 1619.479947 17.28 
L 1614.421249 69.797102 
L 1620 128.16 
L 1616.609524 128.16 
L 1612.431089 84.48288 
L 1612.431089 128.16 
L 1609.722761 128.16 
L 1609.722761 17.28 
z
" clip-path="url(#peb3bfc820d)" style="fill: #bd2e1f"/>
   </g>
   <g id="matplotlib.axis_1">
    <g id="xtick_1">
     <g id="line2d_2">
      <defs>
       <path id="m58f0d4f95d" d="M 0 0 
L 0 3.5 
" style="stroke: #000000; stroke-width: 0.8"/>
      </defs>
      <g>
       <use xlink:href="#m58f0d4f95d" x="230.13862" y="128.16" style="stroke: #000000; stroke-width: 0.8"/>
      </g>
     </g>
     <g id="text_1">
      <!-- 0 -->
      <g transform="translate(226.95737 142.758438) scale(0.1 -0.1)">
       <defs>
        <path id="DejaVuSans-30" d="M 2034 4250 
Q 1547 4250 1301 3770 
Q 1056 3291 1056 2328 
Q 1056 1369 1301 889 
Q 1547 409 2034 409 
Q 2525 409 2770 889 
Q 3016 1369 3016 2328 
Q 3016 3291 2770 3770 
Q 2525 4250 2034 4250 
z
M 2034 4750 
Q 2819 4750 3233 4129 
Q 3647 3509 3647 2328 
Q 3647 1150 3233 529 
Q 2819 -91 2034 -91 
Q 1250 -91 836 529 
Q 422 1150 422 2328 
Q 422 3509 836 4129 
Q 1250 4750 2034 4750 
z
" transform="scale(0.015625)"/>
       </defs>
       <use xlink:href="#DejaVuSans-30"/>
      </g>
     </g>
    </g>
    <g id="xtick_2">
     <g id="line2d_3">
      <g>
       <use xlink:href="#m58f0d4f95d" x="446.501551" y="128.16" style="stroke: #000000; stroke-width: 0.8"/>
      </g>
     </g>
     <g id="text_2">
      <!-- 20 -->
      <g transform="translate(440.139051 142.758438) scale(0.1 -0.1)">
       <defs>
        <path id="DejaVuSans-32" d="M 1228 531 
L 3431 531 
L 3431 0 
L 469 0 
L 469 531 
Q 828 903 1448 1529 
Q 2069 2156 2228 2338 
Q 2531 2678 2651 2914 
Q 2772 3150 2772 3378 
Q 2772 3750 2511 3984 
Q 2250 4219 1831 4219 
Q 1534 4219 1204 4116 
Q 875 4013 500 3803 
L 500 4441 
Q 881 4594 1212 4672 
Q 1544 4750 1819 4750 
Q 2544 4750 2975 4387 
Q 3406 4025 3406 3419 
Q 3406 3131 3298 2873 
Q 3191 2616 2906 2266 
Q 2828 2175 2409 1742 
Q 1991 1309 1228 531 
z
" transform="scale(0.015625)"/>
       </defs>
       <use xlink:href="#DejaVuSans-32"/>
       <use xlink:href="#DejaVuSans-30" x="63.623047"/>
      </g>
     </g>
    </g>
    <g id="xtick_3">
     <g id="line2d_4">
      <g>
       <use xlink:href="#m58f0d4f95d" x="662.864482" y="128.16" style="stroke: #000000; stroke-width: 0.8"/>
      </g>
     </g>
     <g id="text_3">
      <!-- 40 -->
      <g transform="translate(656.501982 142.758438) scale(0.1 -0.1)">
       <defs>
        <path id="DejaVuSans-34" d="M 2419 4116 
L 825 1625 
L 2419 1625 
L 2419 4116 
z
M 2253 4666 
L 3047 4666 
L 3047 1625 
L 3713 1625 
L 3713 1100 
L 3047 1100 
L 3047 0 
L 2419 0 
L 2419 1100 
L 313 1100 
L 313 1709 
L 2253 4666 
z
" transform="scale(0.015625)"/>
       </defs>
       <use xlink:href="#DejaVuSans-34"/>
       <use xlink:href="#DejaVuSans-30" x="63.623047"/>
      </g>
     </g>
    </g>
    <g id="xtick_4">
     <g id="line2d_5">
      <g>
       <use xlink:href="#m58f0d4f95d" x="879.227414" y="128.16" style="stroke: #000000; stroke-width: 0.8"/>
      </g>
     </g>
     <g id="text_4">
      <!-- 60 -->
      <g transform="translate(872.864914 142.758438) scale(0.1 -0.1)">
       <defs>
        <path id="DejaVuSans-36" d="M 2113 2584 
Q 1688 2584 1439 2293 
Q 1191 2003 1191 1497 
Q 1191 994 1439 701 
Q 1688 409 2113 409 
Q 2538 409 2786 701 
Q 3034 994 3034 1497 
Q 3034 2003 2786 2293 
Q 2538 2584 2113 2584 
z
M 3366 4563 
L 3366 3988 
Q 3128 4100 2886 4159 
Q 2644 4219 2406 4219 
Q 1781 4219 1451 3797 
Q 1122 3375 1075 2522 
Q 1259 2794 1537 2939 
Q 1816 3084 2150 3084 
Q 2853 3084 3261 2657 
Q 3669 2231 3669 1497 
Q 3669 778 3244 343 
Q 2819 -91 2113 -91 
Q 1303 -91 875 529 
Q 447 1150 447 2328 
Q 447 3434 972 4092 
Q 1497 4750 2381 4750 
Q 2619 4750 2861 4703 
Q 3103 4656 3366 4563 
z
" transform="scale(0.015625)"/>
       </defs>
       <use xlink:href="#DejaVuSans-36"/>
       <use xlink:href="#DejaVuSans-30" x="63.623047"/>
      </g>
     </g>
    </g>
    <g id="xtick_5">
     <g id="line2d_6">
      <g>
       <use xlink:href="#m58f0d4f95d" x="1095.590345" y="128.16" style="stroke: #000000; stroke-width: 0.8"/>
      </g>
     </g>
     <g id="text_5">
      <!-- 80 -->
      <g transform="translate(1089.227845 142.758438) scale(0.1 -0.1)">
       <defs>
        <path id="DejaVuSans-38" d="M 2034 2216 
Q 1584 2216 1326 1975 
Q 1069 1734 1069 1313 
Q 1069 891 1326 650 
Q 1584 409 2034 409 
Q 2484 409 2743 651 
Q 3003 894 3003 1313 
Q 3003 1734 2745 1975 
Q 2488 2216 2034 2216 
z
M 1403 2484 
Q 997 2584 770 2862 
Q 544 3141 544 3541 
Q 544 4100 942 4425 
Q 1341 4750 2034 4750 
Q 2731 4750 3128 4425 
Q 3525 4100 3525 3541 
Q 3525 3141 3298 2862 
Q 3072 2584 2669 2484 
Q 3125 2378 3379 2068 
Q 3634 1759 3634 1313 
Q 3634 634 3220 271 
Q 2806 -91 2034 -91 
Q 1263 -91 848 271 
Q 434 634 434 1313 
Q 434 1759 690 2068 
Q 947 2378 1403 2484 
z
M 1172 3481 
Q 1172 3119 1398 2916 
Q 1625 2713 2034 2713 
Q 2441 2713 2670 2916 
Q 2900 3119 2900 3481 
Q 2900 3844 2670 4047 
Q 2441 4250 2034 4250 
Q 1625 4250 1398 4047 
Q 1172 3844 1172 3481 
z
" transform="scale(0.015625)"/>
       </defs>
       <use xlink:href="#DejaVuSans-38"/>
       <use xlink:href="#DejaVuSans-30" x="63.623047"/>
      </g>
     </g>
    </g>
    <g id="xtick_6">
     <g id="line2d_7">
      <g>
       <use xlink:href="#m58f0d4f95d" x="1311.953276" y="128.16" style="stroke: #000000; stroke-width: 0.8"/>
      </g>
     </g>
     <g id="text_6">
      <!-- 100 -->
      <g transform="translate(1302.409526 142.758438) scale(0.1 -0.1)">
       <defs>
        <path id="DejaVuSans-31" d="M 794 531 
L 1825 531 
L 1825 4091 
L 703 3866 
L 703 4441 
L 1819 4666 
L 2450 4666 
L 2450 531 
L 3481 531 
L 3481 0 
L 794 0 
L 794 531 
z
" transform="scale(0.015625)"/>
       </defs>
       <use xlink:href="#DejaVuSans-31"/>
       <use xlink:href="#DejaVuSans-30" x="63.623047"/>
       <use xlink:href="#DejaVuSans-30" x="127.246094"/>
      </g>
     </g>
    </g>
    <g id="xtick_7">
     <g id="line2d_8">
      <g>
       <use xlink:href="#m58f0d4f95d" x="1528.316208" y="128.16" style="stroke: #000000; stroke-width: 0.8"/>
      </g>
     </g>
     <g id="text_7">
      <!-- 120 -->
      <g transform="translate(1518.772458 142.758438) scale(0.1 -0.1)">
       <use xlink:href="#DejaVuSans-31"/>
       <use xlink:href="#DejaVuSans-32" x="63.623047"/>
       <use xlink:href="#DejaVuSans-30" x="127.246094"/>
      </g>
     </g>
    </g>
   </g>
   <g id="matplotlib.axis_2">
    <g id="ytick_1">
     <g id="line2d_9">
      <defs>
       <path id="m1663fa06f9" d="M 0 0 
L -3.5 0 
" style="stroke: #000000; stroke-width: 0.8"/>
      </defs>
      <g>
       <use xlink:href="#m1663fa06f9" x="225" y="128.16" style="stroke: #000000; stroke-width: 0.8"/>
      </g>
     </g>
     <g id="text_8">
      <!-- 0.0 -->
      <g transform="translate(202.096875 131.959219) scale(0.1 -0.1)">
       <defs>
        <path id="DejaVuSans-2e" d="M 684 794 
L 1344 794 
L 1344 0 
L 684 0 
L 684 794 
z
" transform="scale(0.015625)"/>
       </defs>
       <use xlink:href="#DejaVuSans-30"/>
       <use xlink:href="#DejaVuSans-2e" x="63.623047"/>
       <use xlink:href="#DejaVuSans-30" x="95.410156"/>
      </g>
     </g>
    </g>
    <g id="ytick_2">
     <g id="line2d_10">
      <g>
       <use xlink:href="#m1663fa06f9" x="225" y="100.44" style="stroke: #000000; stroke-width: 0.8"/>
      </g>
     </g>
     <g id="text_9">
      <!-- 0.5 -->
      <g transform="translate(202.096875 104.239219) scale(0.1 -0.1)">
       <defs>
        <path id="DejaVuSans-35" d="M 691 4666 
L 3169 4666 
L 3169 4134 
L 1269 4134 
L 1269 2991 
Q 1406 3038 1543 3061 
Q 1681 3084 1819 3084 
Q 2600 3084 3056 2656 
Q 3513 2228 3513 1497 
Q 3513 744 3044 326 
Q 2575 -91 1722 -91 
Q 1428 -91 1123 -41 
Q 819 9 494 109 
L 494 744 
Q 775 591 1075 516 
Q 1375 441 1709 441 
Q 2250 441 2565 725 
Q 2881 1009 2881 1497 
Q 2881 1984 2565 2268 
Q 2250 2553 1709 2553 
Q 1456 2553 1204 2497 
Q 953 2441 691 2322 
L 691 4666 
z
" transform="scale(0.015625)"/>
       </defs>
       <use xlink:href="#DejaVuSans-30"/>
       <use xlink:href="#DejaVuSans-2e" x="63.623047"/>
       <use xlink:href="#DejaVuSans-35" x="95.410156"/>
      </g>
     </g>
    </g>
    <g id="ytick_3">
     <g id="line2d_11">
      <g>
       <use xlink:href="#m1663fa06f9" x="225" y="72.72" style="stroke: #000000; stroke-width: 0.8"/>
      </g>
     </g>
     <g id="text_10">
      <!-- 1.0 -->
      <g transform="translate(202.096875 76.519219) scale(0.1 -0.1)">
       <use xlink:href="#DejaVuSans-31"/>
       <use xlink:href="#DejaVuSans-2e" x="63.623047"/>
       <use xlink:href="#DejaVuSans-30" x="95.410156"/>
      </g>
     </g>
    </g>
    <g id="ytick_4">
     <g id="line2d_12">
      <g>
       <use xlink:href="#m1663fa06f9" x="225" y="45" style="stroke: #000000; stroke-width: 0.8"/>
      </g>
     </g>
     <g id="text_11">
      <!-- 1.5 -->
      <g transform="translate(202.096875 48.799219) scale(0.1 -0.1)">
       <use xlink:href="#DejaVuSans-31"/>
       <use xlink:href="#DejaVuSans-2e" x="63.623047"/>
       <use xlink:href="#DejaVuSans-35" x="95.410156"/>
      </g>
     </g>
    </g>
    <g id="ytick_5">
     <g id="line2d_13">
      <g>
       <use xlink:href="#m1663fa06f9" x="225" y="17.28" style="stroke: #000000; stroke-width: 0.8"/>
      </g>
     </g>
     <g id="text_12">
      <!-- 2.0 -->
      <g transform="translate(202.096875 21.079219) scale(0.1 -0.1)">
       <use xlink:href="#DejaVuSans-32"/>
       <use xlink:href="#DejaVuSans-2e" x="63.623047"/>
       <use xlink:href="#DejaVuSans-30" x="95.410156"/>
      </g>
     </g>
    </g>
   </g>
  </g>
 </g>
 <defs>
  <clipPath id="peb3bfc820d">
   <rect x="225" y="17.28" width="1395" height="110.88"/>
  </clipPath>
 </defs>
</svg>
