<?xml version="1.0" encoding="utf-8" standalone="no"?>
<!DOCTYPE svg PUBLIC "-//W3C//DTD SVG 1.1//EN"
  "http://www.w3.org/Graphics/SVG/1.1/DTD/svg11.dtd">
<svg xmlns:xlink="http://www.w3.org/1999/xlink" width="1800pt" height="144pt" viewBox="0 0 1800 144" xmlns="http://www.w3.org/2000/svg" version="1.1">
 <metadata>
  <rdf:RDF xmlns:dc="http://purl.org/dc/elements/1.1/" xmlns:cc="http://creativecommons.org/ns#" xmlns:rdf="http://www.w3.org/1999/02/22-rdf-syntax-ns#">
   <cc:Work>
    <dc:type rdf:resource="http://purl.org/dc/dcmitype/StillImage"/>
    <dc:date>2025-05-09T21:10:18.690777</dc:date>
    <dc:format>image/svg+xml</dc:format>
    <dc:creator>
     <cc:Agent>
      <dc:title>Matplotlib v3.8.0, https://matplotlib.org/</dc:title>
     </cc:Agent>
    </dc:creator>
   </cc:Work>
  </rdf:RDF>
 </metadata>
 <defs>
  <style type="text/css">*{stroke-linejoin: round; stroke-linecap: butt}</style>
 </defs>
 <g id="figure_1">
  <g id="patch_1">
   <path d="M 0 144 
L 1800 144 
L 1800 0 
L 0 0 
z
" style="fill: #ffffff"/>
  </g>
  <g id="axes_1">
   <g id="patch_2">
    <path d="M 225 128.16 
L 1620 128.16 
L 1620 17.28 
L 225 17.28 
z
" style="fill: #ffffff"/>
   </g>
   <g id="line2d_1">
    <path d="M 225 128.16 
L 1620 128.16 
" clip-path="url(#pbc2823ec58)" style="fill: none; stroke: #000000; stroke-width: 1.5; stroke-linecap: square"/>
   </g>
   <g id="patch_3">
    <path d="M 225 17.28 
L 230.753289 17.28 
L 234.74414 76.617197 
L 238.761296 17.28 
L 244.503311 17.28 
L 244.503311 128.16 
L 240.230621 128.16 
L 240.230621 47.055534 
L 236.190917 106.844235 
L 233.323668 106.844235 
L 229.283964 47.055534 
L 229.283964 128.16 
L 225 128.16 
L 225 17.28 
z
" clip-path="url(#pbc2823ec58)" style="fill: #21599c"/>
   </g>
   <g id="patch_4">
    <path d="M 251.742621 17.28 
L 258.820293 17.28 
L 258.820293 128.16 
L 251.742621 128.16 
L 251.742621 17.28 
z
" clip-path="url(#pbc2823ec58)" style="fill: #21599c"/>
   </g>
   <g id="patch_5">
    <path d="M 276.331347 111.578719 
L 275.949407 111.578719 
Q 271.264549 111.578719 268.660044 99.152512 
Q 266.059603 86.706798 266.059603 64.526897 
Q 266.059603 42.38601 268.655981 29.842759 
Q 271.252359 17.28 275.811258 17.28 
Q 280.418916 17.28 282.990915 29.725714 
Q 285.562914 42.151921 285.562914 64.526897 
Q 285.562914 79.879212 284.197682 90.978916 
Q 282.83245 102.078621 280.268578 107.677241 
L 284.087976 128.16 
L 279.427497 128.16 
L 276.331347 111.578719 
z
M 275.811258 34.290443 
Q 273.576504 34.290443 272.345357 42.210443 
Q 271.114211 50.130443 271.114211 64.526897 
Q 271.114211 79.157438 272.316915 86.940887 
Q 273.523682 94.704828 275.811258 94.704828 
Q 278.058202 94.704828 279.289349 86.784828 
Q 280.520495 78.84532 280.520495 64.526897 
Q 280.520495 50.130443 279.289349 42.210443 
Q 278.058202 34.290443 275.811258 34.290443 
z
" clip-path="url(#pbc2823ec58)" style="fill: #40ba47"/>
   </g>
   <g id="patch_6">
    <path d="M 286.79238 17.28 
L 305.88974 17.28 
L 305.88974 38.904689 
L 293.870052 38.904689 
L 293.870052 59.531316 
L 305.177854 59.531316 
L 305.177854 81.156005 
L 293.870052 81.156005 
L 293.870052 128.16 
L 286.79238 128.16 
L 286.79238 17.28 
z
" clip-path="url(#pbc2823ec58)" style="fill: #21599c"/>
   </g>
   <g id="patch_7">
    <path d="M 307.119205 17.28 
L 312.258851 17.28 
L 312.258851 57.749061 
L 319.667119 17.28 
L 325.635602 17.28 
L 316.035615 69.797102 
L 326.622517 128.16 
L 320.188346 128.16 
L 312.258851 84.48288 
L 312.258851 128.16 
L 307.119205 128.16 
L 307.119205 17.28 
z
" clip-path="url(#pbc2823ec58)" style="fill: #bd2e1f"/>
   </g>
   <g id="patch_8">
    <path d="M 327.649007 17.28 
L 334.726679 17.28 
L 334.726679 106.559074 
L 347.152318 106.559074 
L 347.152318 128.16 
L 327.649007 128.16 
L 327.649007 17.28 
z
" clip-path="url(#pbc2823ec58)" style="fill: #21599c"/>
   </g>
   <g id="patch_9">
    <path d="M 348.178808 17.28 
L 367.276168 17.28 
L 367.276168 38.904689 
L 355.25648 38.904689 
L 355.25648 59.531316 
L 366.564282 59.531316 
L 366.564282 81.156005 
L 355.25648 81.156005 
L 355.25648 106.559074 
L 367.682119 106.559074 
L 367.682119 128.16 
L 348.178808 128.16 
L 348.178808 17.28 
z
" clip-path="url(#pbc2823ec58)" style="fill: #6b296b"/>
   </g>
   <g id="patch_10">
    <path d="M 388.211921 118.127891 
Q 386.24498 123.143945 384.129426 125.663425 
Q 382.013871 128.16 379.758446 128.16 
Q 374.661884 128.16 371.685246 113.226358 
Q 368.708609 98.292716 368.708609 72.754357 
Q 368.708609 46.91824 371.737698 32.09912 
Q 374.771158 17.28 380.046931 17.28 
Q 382.079436 17.28 383.941473 19.295584 
Q 385.807882 21.288263 387.460112 25.227812 
L 387.460112 47.330518 
Q 385.75543 42.268655 384.068232 39.77208 
Q 382.381034 37.252601 380.685094 37.252601 
Q 377.54673 37.252601 375.846419 46.460153 
Q 374.146108 55.644801 374.146108 72.754357 
Q 374.146108 89.703582 375.785225 98.956943 
Q 377.424343 108.187399 380.440319 108.187399 
Q 381.262063 108.187399 381.965791 107.660599 
Q 382.669518 107.110894 383.229004 105.965677 
L 383.229004 85.214328 
L 380.016334 85.214328 
L 380.016334 66.73051 
L 388.211921 66.73051 
L 388.211921 118.127891 
z
" clip-path="url(#pbc2823ec58)" style="fill: #787800"/>
   </g>
   <g id="patch_11">
    <path d="M 389.238411 17.28 
L 408.335771 17.28 
L 408.335771 38.904689 
L 396.316083 38.904689 
L 396.316083 59.531316 
L 407.623885 59.531316 
L 407.623885 81.156005 
L 396.316083 81.156005 
L 396.316083 106.559074 
L 408.741722 106.559074 
L 408.741722 128.16 
L 389.238411 128.16 
L 389.238411 17.28 
z
" clip-path="url(#pbc2823ec58)" style="fill: #6b296b"/>
   </g>
   <g id="patch_12">
    <path d="M 409.971188 17.28 
L 429.068548 17.28 
L 429.068548 38.904689 
L 417.04886 38.904689 
L 417.04886 59.531316 
L 428.356662 59.531316 
L 428.356662 81.156005 
L 417.04886 81.156005 
L 417.04886 128.16 
L 409.971188 128.16 
L 409.971188 17.28 
z
" clip-path="url(#pbc2823ec58)" style="fill: #21599c"/>
   </g>
   <g id="patch_13">
    <path d="M 436.510833 17.28 
L 443.588505 17.28 
L 443.588505 128.16 
L 436.510833 128.16 
L 436.510833 17.28 
z
" clip-path="url(#pbc2823ec58)" style="fill: #21599c"/>
   </g>
   <g id="patch_14">
    <path d="M 450.827815 17.28 
L 460.965473 17.28 
Q 465.490851 17.28 467.908449 26.690304 
Q 470.331126 36.076845 470.331126 53.447887 
Q 470.331126 70.913982 467.908449 80.300523 
Q 465.490851 89.687064 460.965473 89.687064 
L 456.937836 89.687064 
L 456.937836 128.16 
L 450.827815 128.16 
L 450.827815 17.28 
z
M 456.937836 38.00168 
L 456.937836 68.965384 
L 460.315363 68.965384 
Q 462.093008 68.965384 463.063095 64.925607 
Q 464.033182 60.885829 464.033182 53.447887 
Q 464.033182 46.033708 463.063095 42.017694 
Q 462.093008 38.00168 460.315363 38.00168 
L 456.937836 38.00168 
z
" clip-path="url(#pbc2823ec58)" style="fill: #787800"/>
   </g>
   <g id="patch_15">
    <path d="M 471.357616 17.28 
L 478.435288 17.28 
L 478.435288 106.559074 
L 490.860927 106.559074 
L 490.860927 128.16 
L 471.357616 128.16 
L 471.357616 17.28 
z
" clip-path="url(#pbc2823ec58)" style="fill: #21599c"/>
   </g>
   <g id="patch_16">
    <path d="M 498.100237 17.28 
L 505.177909 17.28 
L 505.177909 128.16 
L 498.100237 128.16 
L 498.100237 17.28 
z
" clip-path="url(#pbc2823ec58)" style="fill: #21599c"/>
   </g>
   <g id="patch_17">
    <path d="M 522.688962 111.578719 
L 522.307023 111.578719 
Q 517.622165 111.578719 515.01766 99.152512 
Q 512.417219 86.706798 512.417219 64.526897 
Q 512.417219 42.38601 515.013597 29.842759 
Q 517.609975 17.28 522.168874 17.28 
Q 526.776531 17.28 529.348531 29.725714 
Q 531.92053 42.151921 531.92053 64.526897 
Q 531.92053 79.879212 530.555298 90.978916 
Q 529.190066 102.078621 526.626193 107.677241 
L 530.445592 128.16 
L 525.785113 128.16 
L 522.688962 111.578719 
z
M 522.168874 34.290443 
Q 519.93412 34.290443 518.702973 42.210443 
Q 517.471827 50.130443 517.471827 64.526897 
Q 517.471827 79.157438 518.674531 86.940887 
Q 519.881298 94.704828 522.168874 94.704828 
Q 524.415818 94.704828 525.646965 86.784828 
Q 526.878111 78.84532 526.878111 64.526897 
Q 526.878111 50.130443 525.646965 42.210443 
Q 524.415818 34.290443 522.168874 34.290443 
z
" clip-path="url(#pbc2823ec58)" style="fill: #40ba47"/>
   </g>
   <g id="patch_18">
    <path d="M 532.94702 17.28 
L 540.024692 17.28 
L 540.024692 106.559074 
L 552.450331 106.559074 
L 552.450331 128.16 
L 532.94702 128.16 
L 532.94702 17.28 
z
" clip-path="url(#pbc2823ec58)" style="fill: #21599c"/>
   </g>
   <g id="patch_19">
    <path d="M 553.476821 17.28 
L 560.554493 17.28 
L 560.554493 106.559074 
L 572.980132 106.559074 
L 572.980132 128.16 
L 553.476821 128.16 
L 553.476821 17.28 
z
" clip-path="url(#pbc2823ec58)" style="fill: #21599c"/>
   </g>
   <g id="patch_20">
    <path d="M 574.006623 17.28 
L 579.146268 17.28 
L 579.146268 57.749061 
L 586.554536 17.28 
L 592.523019 17.28 
L 582.923032 69.797102 
L 593.509934 128.16 
L 587.075764 128.16 
L 579.146268 84.48288 
L 579.146268 128.16 
L 574.006623 128.16 
L 574.006623 17.28 
z
" clip-path="url(#pbc2823ec58)" style="fill: #bd2e1f"/>
   </g>
   <g id="patch_21">
    <path d="M 608.046385 107.961114 
L 600.545725 107.961114 
L 599.36141 128.16 
L 594.536424 128.16 
L 601.426982 17.28 
L 607.149177 17.28 
L 614.039735 128.16 
L 609.218737 128.16 
L 608.046385 107.961114 
z
M 601.742002 87.382015 
L 606.838144 87.382015 
L 604.294061 43.277154 
L 601.742002 87.382015 
z
" clip-path="url(#pbc2823ec58)" style="fill: #21599c"/>
   </g>
   <g id="patch_22">
    <path d="M 615.066225 17.28 
L 634.569536 17.28 
L 634.569536 38.904689 
L 627.55288 38.904689 
L 627.55288 128.16 
L 622.096489 128.16 
L 622.096489 38.904689 
L 615.066225 38.904689 
L 615.066225 17.28 
z
" clip-path="url(#pbc2823ec58)" style="fill: #40ba47"/>
   </g>
   <g id="patch_23">
    <path d="M 649.105987 107.961114 
L 641.605327 107.961114 
L 640.421013 128.16 
L 635.596026 128.16 
L 642.486585 17.28 
L 648.208779 17.28 
L 655.099338 128.16 
L 650.278339 128.16 
L 649.105987 107.961114 
z
M 642.801605 87.382015 
L 647.897747 87.382015 
L 645.353664 43.277154 
L 642.801605 87.382015 
z
" clip-path="url(#pbc2823ec58)" style="fill: #21599c"/>
   </g>
   <g id="patch_24">
    <path d="M 656.125828 17.28 
L 663.2035 17.28 
L 663.2035 106.559074 
L 675.629139 106.559074 
L 675.629139 128.16 
L 656.125828 128.16 
L 656.125828 17.28 
z
" clip-path="url(#pbc2823ec58)" style="fill: #21599c"/>
   </g>
   <g id="patch_25">
    <path d="M 676.655629 17.28 
L 681.480615 17.28 
L 686.413266 99.121132 
L 691.337942 17.28 
L 696.15894 17.28 
L 689.268382 128.16 
L 683.546188 128.16 
L 676.655629 17.28 
z
" clip-path="url(#pbc2823ec58)" style="fill: #21599c"/>
   </g>
   <g id="patch_26">
    <path d="M 707.457174 111.578719 
L 707.075235 111.578719 
Q 702.390377 111.578719 699.785872 99.152512 
Q 697.18543 86.706798 697.18543 64.526897 
Q 697.18543 42.38601 699.781809 29.842759 
Q 702.378187 17.28 706.937086 17.28 
Q 711.544743 17.28 714.116743 29.725714 
Q 716.688742 42.151921 716.688742 64.526897 
Q 716.688742 79.879212 715.32351 90.978916 
Q 713.958278 102.078621 711.394405 107.677241 
L 715.213804 128.16 
L 710.553325 128.16 
L 707.457174 111.578719 
z
M 706.937086 34.290443 
Q 704.702332 34.290443 703.471185 42.210443 
Q 702.240039 50.130443 702.240039 64.526897 
Q 702.240039 79.157438 703.442743 86.940887 
Q 704.64951 94.704828 706.937086 94.704828 
Q 709.18403 94.704828 710.415177 86.784828 
Q 711.646323 78.84532 711.646323 64.526897 
Q 711.646323 50.130443 710.415177 42.210443 
Q 709.18403 34.290443 706.937086 34.290443 
z
" clip-path="url(#pbc2823ec58)" style="fill: #40ba47"/>
   </g>
   <g id="patch_27">
    <path d="M 735.592384 22.570907 
L 735.592384 45.200413 
Q 733.558362 41.260863 731.619684 39.268184 
Q 729.686303 37.252601 727.964799 37.252601 
Q 725.681821 37.252601 724.585355 39.978219 
Q 723.494187 42.680934 723.494187 48.407023 
Q 723.494187 52.713043 724.230461 55.118 
Q 724.966735 57.500054 726.905412 59.217881 
L 729.617443 61.57703 
Q 733.738457 65.173014 735.475852 72.479504 
Q 737.218543 79.76309 737.218543 93.230853 
Q 737.218543 110.890114 734.792547 119.525057 
Q 732.366551 128.16 727.382136 128.16 
Q 725.035595 128.16 722.667865 126.21313 
Q 720.300136 124.289163 717.932406 120.48704 
L 717.932406 97.239116 
Q 720.300136 102.667449 722.508957 105.438876 
Q 724.717779 108.187399 726.772989 108.187399 
Q 728.859981 108.187399 729.96704 105.186928 
Q 731.0741 102.163553 731.0741 96.574889 
Q 731.0741 91.581739 730.321935 88.856121 
Q 729.56977 86.130502 727.318573 83.977492 
L 724.850202 81.618343 
Q 721.142348 78.18269 719.426141 70.67006 
Q 717.715232 63.15743 717.715232 50.422607 
Q 717.715232 34.458269 720.098852 25.869134 
Q 722.482472 17.28 726.953085 17.28 
Q 728.992404 17.28 731.14296 18.608453 
Q 733.293515 19.936906 735.592384 22.570907 
z
" clip-path="url(#pbc2823ec58)" style="fill: #40ba47"/>
   </g>
   <g id="patch_28">
    <path d="M 757.748344 118.127891 
Q 755.781404 123.143945 753.665849 125.663425 
Q 751.550295 128.16 749.29487 128.16 
Q 744.198307 128.16 741.22167 113.226358 
Q 738.245033 98.292716 738.245033 72.754357 
Q 738.245033 46.91824 741.274122 32.09912 
Q 744.307582 17.28 749.583354 17.28 
Q 751.61586 17.28 753.477897 19.295584 
Q 755.344306 21.288263 756.996536 25.227812 
L 756.996536 47.330518 
Q 755.291854 42.268655 753.604656 39.77208 
Q 751.917457 37.252601 750.221517 37.252601 
Q 747.083154 37.252601 745.382843 46.460153 
Q 743.682532 55.644801 743.682532 72.754357 
Q 743.682532 89.703582 745.321649 98.956943 
Q 746.960767 108.187399 749.976743 108.187399 
Q 750.798487 108.187399 751.502214 107.660599 
Q 752.205942 107.110894 752.765428 105.965677 
L 752.765428 85.214328 
L 749.552758 85.214328 
L 749.552758 66.73051 
L 757.748344 66.73051 
L 757.748344 118.127891 
z
" clip-path="url(#pbc2823ec58)" style="fill: #787800"/>
   </g>
   <g id="patch_29">
    <path d="M 778.278146 118.127891 
Q 776.311205 123.143945 774.195651 125.663425 
Q 772.080097 128.16 769.824671 128.16 
Q 764.728109 128.16 761.751472 113.226358 
Q 758.774834 98.292716 758.774834 72.754357 
Q 758.774834 46.91824 761.803923 32.09912 
Q 764.837383 17.28 770.113156 17.28 
Q 772.145661 17.28 774.007699 19.295584 
Q 775.874107 21.288263 777.526337 25.227812 
L 777.526337 47.330518 
Q 775.821655 42.268655 774.134457 39.77208 
Q 772.447259 37.252601 770.751319 37.252601 
Q 767.612955 37.252601 765.912644 46.460153 
Q 764.212333 55.644801 764.212333 72.754357 
Q 764.212333 89.703582 765.851451 98.956943 
Q 767.490568 108.187399 770.506544 108.187399 
Q 771.328288 108.187399 772.032016 107.660599 
Q 772.735743 107.110894 773.295229 105.965677 
L 773.295229 85.214328 
L 770.082559 85.214328 
L 770.082559 66.73051 
L 778.278146 66.73051 
L 778.278146 118.127891 
z
" clip-path="url(#pbc2823ec58)" style="fill: #787800"/>
   </g>
   <g id="patch_30">
    <path d="M 779.304636 17.28 
L 798.401996 17.28 
L 798.401996 38.904689 
L 786.382308 38.904689 
L 786.382308 59.531316 
L 797.69011 59.531316 
L 797.69011 81.156005 
L 786.382308 81.156005 
L 786.382308 106.559074 
L 798.807947 106.559074 
L 798.807947 128.16 
L 779.304636 128.16 
L 779.304636 17.28 
z
" clip-path="url(#pbc2823ec58)" style="fill: #6b296b"/>
   </g>
   <g id="patch_31">
    <path d="M 813.344398 107.961114 
L 805.843738 107.961114 
L 804.659423 128.16 
L 799.834437 128.16 
L 806.724996 17.28 
L 812.44719 17.28 
L 819.337748 128.16 
L 814.51675 128.16 
L 813.344398 107.961114 
z
M 807.040015 87.382015 
L 812.136158 87.382015 
L 809.592074 43.277154 
L 807.040015 87.382015 
z
" clip-path="url(#pbc2823ec58)" style="fill: #21599c"/>
   </g>
   <g id="patch_32">
    <path d="M 830.635982 111.578719 
L 830.254042 111.578719 
Q 825.569185 111.578719 822.96468 99.152512 
Q 820.364238 86.706798 820.364238 64.526897 
Q 820.364238 42.38601 822.960617 29.842759 
Q 825.556995 17.28 830.115894 17.28 
Q 834.723551 17.28 837.29555 29.725714 
Q 839.86755 42.151921 839.86755 64.526897 
Q 839.86755 79.879212 838.502318 90.978916 
Q 837.137086 102.078621 834.573213 107.677241 
L 838.392612 128.16 
L 833.732133 128.16 
L 830.635982 111.578719 
z
M 830.115894 34.290443 
Q 827.88114 34.290443 826.649993 42.210443 
Q 825.418847 50.130443 825.418847 64.526897 
Q 825.418847 79.157438 826.621551 86.940887 
Q 827.828318 94.704828 830.115894 94.704828 
Q 832.362838 94.704828 833.593985 86.784828 
Q 834.825131 78.84532 834.825131 64.526897 
Q 834.825131 50.130443 833.593985 42.210443 
Q 832.362838 34.290443 830.115894 34.290443 
z
" clip-path="url(#pbc2823ec58)" style="fill: #40ba47"/>
   </g>
   <g id="patch_33">
    <path d="M 840.89404 17.28 
L 860.397351 17.28 
L 860.397351 38.904689 
L 853.380695 38.904689 
L 853.380695 128.16 
L 847.924303 128.16 
L 847.924303 38.904689 
L 840.89404 38.904689 
L 840.89404 17.28 
z
" clip-path="url(#pbc2823ec58)" style="fill: #40ba47"/>
   </g>
   <g id="patch_34">
    <path d="M 861.423841 17.28 
L 866.248827 17.28 
L 871.181478 99.121132 
L 876.106154 17.28 
L 880.927152 17.28 
L 874.036594 128.16 
L 868.3144 128.16 
L 861.423841 17.28 
z
" clip-path="url(#pbc2823ec58)" style="fill: #21599c"/>
   </g>
   <g id="patch_35">
    <path d="M 881.953642 17.28 
L 886.778628 17.28 
L 891.711279 99.121132 
L 896.635955 17.28 
L 901.456954 17.28 
L 894.566395 128.16 
L 888.844201 128.16 
L 881.953642 17.28 
z
" clip-path="url(#pbc2823ec58)" style="fill: #21599c"/>
   </g>
   <g id="patch_36">
    <path d="M 902.483444 17.28 
L 921.580804 17.28 
L 921.580804 38.904689 
L 909.561116 38.904689 
L 909.561116 59.531316 
L 920.868918 59.531316 
L 920.868918 81.156005 
L 909.561116 81.156005 
L 909.561116 106.559074 
L 921.986755 106.559074 
L 921.986755 128.16 
L 902.483444 128.16 
L 902.483444 17.28 
z
" clip-path="url(#pbc2823ec58)" style="fill: #6b296b"/>
   </g>
   <g id="patch_37">
    <path d="M 928.357774 38.904689 
L 928.357774 106.559074 
L 930.272564 106.559074 
Q 933.54681 106.559074 935.275008 97.861672 
Q 937.007648 89.164269 937.007648 72.601183 
Q 937.007648 56.13315 935.283893 47.530802 
Q 933.564581 38.904689 930.272564 38.904689 
L 928.357774 38.904689 
z
M 923.013245 17.28 
L 928.646548 17.28 
Q 933.369103 17.28 935.679291 20.892036 
Q 937.989478 24.480309 939.64215 33.106421 
Q 941.099345 40.615654 941.805729 50.429936 
Q 942.516556 60.220454 942.516556 72.601183 
Q 942.516556 85.172019 941.805729 95.010064 
Q 941.099345 104.84811 939.64215 112.333579 
Q 937.97615 120.959691 935.643749 124.571727 
Q 933.311349 128.16 928.646548 128.16 
L 923.013245 128.16 
L 923.013245 17.28 
z
" clip-path="url(#pbc2823ec58)" style="fill: #6b296b"/>
   </g>
   <g id="patch_38">
    <path d="M 963.046358 118.127891 
Q 961.079417 123.143945 958.963863 125.663425 
Q 956.848308 128.16 954.592883 128.16 
Q 949.496321 128.16 946.519684 113.226358 
Q 943.543046 98.292716 943.543046 72.754357 
Q 943.543046 46.91824 946.572135 32.09912 
Q 949.605595 17.28 954.881368 17.28 
Q 956.913873 17.28 958.77591 19.295584 
Q 960.642319 21.288263 962.294549 25.227812 
L 962.294549 47.330518 
Q 960.589867 42.268655 958.902669 39.77208 
Q 957.215471 37.252601 955.519531 37.252601 
Q 952.381167 37.252601 950.680856 46.460153 
Q 948.980545 55.644801 948.980545 72.754357 
Q 948.980545 89.703582 950.619662 98.956943 
Q 952.25878 108.187399 955.274756 108.187399 
Q 956.0965 108.187399 956.800228 107.660599 
Q 957.503955 107.110894 958.063441 105.965677 
L 958.063441 85.214328 
L 954.850771 85.214328 
L 954.850771 66.73051 
L 963.046358 66.73051 
L 963.046358 118.127891 
z
" clip-path="url(#pbc2823ec58)" style="fill: #787800"/>
   </g>
   <g id="patch_39">
    <path d="M 964.072848 17.28 
L 971.15052 17.28 
L 971.15052 106.559074 
L 983.576159 106.559074 
L 983.576159 128.16 
L 964.072848 128.16 
L 964.072848 17.28 
z
" clip-path="url(#pbc2823ec58)" style="fill: #21599c"/>
   </g>
   <g id="patch_40">
    <path d="M 984.602649 17.28 
L 989.427635 17.28 
L 994.360286 99.121132 
L 999.284962 17.28 
L 1004.10596 17.28 
L 997.215402 128.16 
L 991.493208 128.16 
L 984.602649 17.28 
z
" clip-path="url(#pbc2823ec58)" style="fill: #21599c"/>
   </g>
   <g id="patch_41">
    <path d="M 1005.13245 17.28 
L 1010.272096 17.28 
L 1010.272096 57.749061 
L 1017.680364 17.28 
L 1023.648847 17.28 
L 1014.04886 69.797102 
L 1024.635762 128.16 
L 1018.201591 128.16 
L 1010.272096 84.48288 
L 1010.272096 128.16 
L 1005.13245 128.16 
L 1005.13245 17.28 
z
" clip-path="url(#pbc2823ec58)" style="fill: #bd2e1f"/>
   </g>
   <g id="patch_42">
    <path d="M 1025.662252 17.28 
L 1031.054344 17.28 
L 1035.40981 56.798526 
L 1039.761179 17.28 
L 1045.165563 17.28 
L 1037.880503 81.441166 
L 1037.880503 128.16 
L 1032.951409 128.16 
L 1032.951409 81.441166 
L 1025.662252 17.28 
z
" clip-path="url(#pbc2823ec58)" style="fill: #177875"/>
   </g>
   <g id="patch_43">
    <path d="M 1046.192053 17.28 
L 1052.45681 17.28 
L 1060.372887 93.322863 
L 1060.372887 17.28 
L 1065.695364 17.28 
L 1065.695364 128.16 
L 1059.425943 128.16 
L 1051.509866 52.117137 
L 1051.509866 128.16 
L 1046.192053 128.16 
L 1046.192053 17.28 
z
" clip-path="url(#pbc2823ec58)" style="fill: #40ba47"/>
   </g>
   <g id="patch_44">
    <path d="M 1086.225166 118.127891 
Q 1084.258225 123.143945 1082.142671 125.663425 
Q 1080.027116 128.16 1077.771691 128.16 
Q 1072.675129 128.16 1069.698491 113.226358 
Q 1066.721854 98.292716 1066.721854 72.754357 
Q 1066.721854 46.91824 1069.750943 32.09912 
Q 1072.784403 17.28 1078.060176 17.28 
Q 1080.092681 17.28 1081.954718 19.295584 
Q 1083.821127 21.288263 1085.473357 25.227812 
L 1085.473357 47.330518 
Q 1083.768675 42.268655 1082.081477 39.77208 
Q 1080.394279 37.252601 1078.698339 37.252601 
Q 1075.559975 37.252601 1073.859664 46.460153 
Q 1072.159353 55.644801 1072.159353 72.754357 
Q 1072.159353 89.703582 1073.79847 98.956943 
Q 1075.437588 108.187399 1078.453564 108.187399 
Q 1079.275308 108.187399 1079.979036 107.660599 
Q 1080.682763 107.110894 1081.242249 105.965677 
L 1081.242249 85.214328 
L 1078.029579 85.214328 
L 1078.029579 66.73051 
L 1086.225166 66.73051 
L 1086.225166 118.127891 
z
" clip-path="url(#pbc2823ec58)" style="fill: #787800"/>
   </g>
   <g id="patch_45">
    <path d="M 1087.251656 17.28 
L 1092.391302 17.28 
L 1092.391302 57.749061 
L 1099.799569 17.28 
L 1105.768052 17.28 
L 1096.168065 69.797102 
L 1106.754967 128.16 
L 1100.320797 128.16 
L 1092.391302 84.48288 
L 1092.391302 128.16 
L 1087.251656 128.16 
L 1087.251656 17.28 
z
" clip-path="url(#pbc2823ec58)" style="fill: #bd2e1f"/>
   </g>
   <g id="patch_46">
    <path d="M 1107.781457 17.28 
L 1112.606443 17.28 
L 1117.539094 99.121132 
L 1122.46377 17.28 
L 1127.284768 17.28 
L 1120.39421 128.16 
L 1114.672016 128.16 
L 1107.781457 17.28 
z
" clip-path="url(#pbc2823ec58)" style="fill: #21599c"/>
   </g>
   <g id="patch_47">
    <path d="M 1133.655788 38.904689 
L 1133.655788 106.559074 
L 1135.570577 106.559074 
Q 1138.844823 106.559074 1140.573021 97.861672 
Q 1142.305662 89.164269 1142.305662 72.601183 
Q 1142.305662 56.13315 1140.581907 47.530802 
Q 1138.862594 38.904689 1135.570577 38.904689 
L 1133.655788 38.904689 
z
M 1128.311258 17.28 
L 1133.944561 17.28 
Q 1138.667117 17.28 1140.977304 20.892036 
Q 1143.287491 24.480309 1144.940164 33.106421 
Q 1146.397359 40.615654 1147.103743 50.429936 
Q 1147.81457 60.220454 1147.81457 72.601183 
Q 1147.81457 85.172019 1147.103743 95.010064 
Q 1146.397359 104.84811 1144.940164 112.333579 
Q 1143.274163 120.959691 1140.941763 124.571727 
Q 1138.609362 128.16 1133.944561 128.16 
L 1128.311258 128.16 
L 1128.311258 17.28 
z
" clip-path="url(#pbc2823ec58)" style="fill: #6b296b"/>
   </g>
   <g id="patch_48">
    <path d="M 1148.84106 17.28 
L 1154.233152 17.28 
L 1158.588618 56.798526 
L 1162.939987 17.28 
L 1168.344371 17.28 
L 1161.05931 81.441166 
L 1161.05931 128.16 
L 1156.130217 128.16 
L 1156.130217 81.441166 
L 1148.84106 17.28 
z
" clip-path="url(#pbc2823ec58)" style="fill: #177875"/>
   </g>
   <g id="patch_49">
    <path d="M 1177.284241 66.446464 
Q 1179.034539 66.446464 1179.793927 63.119589 
Q 1180.553315 59.76895 1180.553315 52.117137 
Q 1180.553315 44.536614 1179.793927 41.281029 
Q 1179.034539 38.00168 1177.284241 38.00168 
L 1174.941251 38.00168 
L 1174.941251 66.446464 
L 1177.284241 66.446464 
z
M 1174.941251 86.193845 
L 1174.941251 128.16 
L 1169.370861 128.16 
L 1169.370861 17.28 
L 1177.876935 17.28 
Q 1182.146178 17.28 1184.132626 24.646652 
Q 1186.123705 31.989541 1186.123705 47.887252 
Q 1186.123705 58.865941 1185.086492 65.923669 
Q 1184.053909 72.981397 1181.970222 76.332036 
Q 1183.113935 77.662786 1184.016866 82.391702 
Q 1184.924428 87.096854 1185.850511 96.673502 
L 1188.874172 128.16 
L 1182.94261 128.16 
L 1180.307903 100.618225 
Q 1179.511471 92.301037 1178.691888 89.259323 
Q 1177.876935 86.193845 1176.515592 86.193845 
L 1174.941251 86.193845 
z
" clip-path="url(#pbc2823ec58)" style="fill: #bd2e1f"/>
   </g>
   <g id="patch_50">
    <path d="M 1189.900662 17.28 
L 1195.040308 17.28 
L 1195.040308 57.749061 
L 1202.448576 17.28 
L 1208.417059 17.28 
L 1198.817072 69.797102 
L 1209.403974 128.16 
L 1202.969803 128.16 
L 1195.040308 84.48288 
L 1195.040308 128.16 
L 1189.900662 128.16 
L 1189.900662 17.28 
z
" clip-path="url(#pbc2823ec58)" style="fill: #bd2e1f"/>
   </g>
   <g id="patch_51">
    <path d="M 1218.343844 66.446464 
Q 1220.094141 66.446464 1220.853529 63.119589 
Q 1221.612918 59.76895 1221.612918 52.117137 
Q 1221.612918 44.536614 1220.853529 41.281029 
Q 1220.094141 38.00168 1218.343844 38.00168 
L 1216.000854 38.00168 
L 1216.000854 66.446464 
L 1218.343844 66.446464 
z
M 1216.000854 86.193845 
L 1216.000854 128.16 
L 1210.430464 128.16 
L 1210.430464 17.28 
L 1218.936537 17.28 
Q 1223.205781 17.28 1225.192229 24.646652 
Q 1227.183308 31.989541 1227.183308 47.887252 
Q 1227.183308 58.865941 1226.146095 65.923669 
Q 1225.113512 72.981397 1223.029825 76.332036 
Q 1224.173538 77.662786 1225.076469 82.391702 
Q 1225.98403 87.096854 1226.910113 96.673502 
L 1229.933775 128.16 
L 1224.002212 128.16 
L 1221.367506 100.618225 
Q 1220.571074 92.301037 1219.751491 89.259323 
Q 1218.936537 86.193845 1217.575195 86.193845 
L 1216.000854 86.193845 
z
" clip-path="url(#pbc2823ec58)" style="fill: #bd2e1f"/>
   </g>
   <g id="patch_52">
    <path d="M 1230.960265 17.28 
L 1238.037937 17.28 
L 1238.037937 106.559074 
L 1250.463576 106.559074 
L 1250.463576 128.16 
L 1230.960265 128.16 
L 1230.960265 17.28 
z
" clip-path="url(#pbc2823ec58)" style="fill: #21599c"/>
   </g>
   <g id="patch_53">
    <path d="M 1251.490066 17.28 
L 1256.629712 17.28 
L 1256.629712 57.749061 
L 1264.03798 17.28 
L 1270.006463 17.28 
L 1260.406476 69.797102 
L 1270.993377 128.16 
L 1264.559207 128.16 
L 1256.629712 84.48288 
L 1256.629712 128.16 
L 1251.490066 128.16 
L 1251.490066 17.28 
z
" clip-path="url(#pbc2823ec58)" style="fill: #bd2e1f"/>
   </g>
   <g id="patch_54">
    <path d="M 1272.019868 17.28 
L 1276.844854 17.28 
L 1281.777505 99.121132 
L 1286.70218 17.28 
L 1291.523179 17.28 
L 1284.63262 128.16 
L 1278.910426 128.16 
L 1272.019868 17.28 
z
" clip-path="url(#pbc2823ec58)" style="fill: #21599c"/>
   </g>
   <g id="patch_55">
    <path d="M 1300.463049 66.446464 
Q 1302.213347 66.446464 1302.972735 63.119589 
Q 1303.732123 59.76895 1303.732123 52.117137 
Q 1303.732123 44.536614 1302.972735 41.281029 
Q 1302.213347 38.00168 1300.463049 38.00168 
L 1298.120059 38.00168 
L 1298.120059 66.446464 
L 1300.463049 66.446464 
z
M 1298.120059 86.193845 
L 1298.120059 128.16 
L 1292.549669 128.16 
L 1292.549669 17.28 
L 1301.055743 17.28 
Q 1305.324986 17.28 1307.311434 24.646652 
Q 1309.302513 31.989541 1309.302513 47.887252 
Q 1309.302513 58.865941 1308.2653 65.923669 
Q 1307.232717 72.981397 1305.14903 76.332036 
Q 1306.292743 77.662786 1307.195674 82.391702 
Q 1308.103235 87.096854 1309.029319 96.673502 
L 1312.05298 128.16 
L 1306.121418 128.16 
L 1303.486711 100.618225 
Q 1302.690279 92.301037 1301.870696 89.259323 
Q 1301.055743 86.193845 1299.6944 86.193845 
L 1298.120059 86.193845 
z
" clip-path="url(#pbc2823ec58)" style="fill: #bd2e1f"/>
   </g>
   <g id="patch_56">
    <path d="M 1313.07947 17.28 
L 1317.904456 17.28 
L 1322.837107 99.121132 
L 1327.761783 17.28 
L 1332.582781 17.28 
L 1325.692223 128.16 
L 1319.970029 128.16 
L 1313.07947 17.28 
z
" clip-path="url(#pbc2823ec58)" style="fill: #21599c"/>
   </g>
   <g id="patch_57">
    <path d="M 1353.112583 118.127891 
Q 1351.145642 123.143945 1349.030088 125.663425 
Q 1346.914534 128.16 1344.659108 128.16 
Q 1339.562546 128.16 1336.585909 113.226358 
Q 1333.609272 98.292716 1333.609272 72.754357 
Q 1333.609272 46.91824 1336.63836 32.09912 
Q 1339.67182 17.28 1344.947593 17.28 
Q 1346.980098 17.28 1348.842136 19.295584 
Q 1350.708544 21.288263 1352.360774 25.227812 
L 1352.360774 47.330518 
Q 1350.656092 42.268655 1348.968894 39.77208 
Q 1347.281696 37.252601 1345.585756 37.252601 
Q 1342.447392 37.252601 1340.747081 46.460153 
Q 1339.04677 55.644801 1339.04677 72.754357 
Q 1339.04677 89.703582 1340.685888 98.956943 
Q 1342.325005 108.187399 1345.340981 108.187399 
Q 1346.162725 108.187399 1346.866453 107.660599 
Q 1347.570181 107.110894 1348.129666 105.965677 
L 1348.129666 85.214328 
L 1344.916996 85.214328 
L 1344.916996 66.73051 
L 1353.112583 66.73051 
L 1353.112583 118.127891 
z
" clip-path="url(#pbc2823ec58)" style="fill: #787800"/>
   </g>
   <g id="patch_58">
    <path d="M 1359.483602 38.904689 
L 1359.483602 106.559074 
L 1361.398392 106.559074 
Q 1364.672638 106.559074 1366.400836 97.861672 
Q 1368.133476 89.164269 1368.133476 72.601183 
Q 1368.133476 56.13315 1366.409721 47.530802 
Q 1364.690409 38.904689 1361.398392 38.904689 
L 1359.483602 38.904689 
z
M 1354.139073 17.28 
L 1359.772376 17.28 
Q 1364.494931 17.28 1366.805118 20.892036 
Q 1369.115306 24.480309 1370.767978 33.106421 
Q 1372.225173 40.615654 1372.931557 50.429936 
Q 1373.642384 60.220454 1373.642384 72.601183 
Q 1373.642384 85.172019 1372.931557 95.010064 
Q 1372.225173 104.84811 1370.767978 112.333579 
Q 1369.101978 120.959691 1366.769577 124.571727 
Q 1364.437177 128.16 1359.772376 128.16 
L 1354.139073 128.16 
L 1354.139073 17.28 
z
" clip-path="url(#pbc2823ec58)" style="fill: #6b296b"/>
   </g>
   <g id="patch_59">
    <path d="M 1374.668874 17.28 
L 1379.49386 17.28 
L 1384.426511 99.121132 
L 1389.351187 17.28 
L 1394.172185 17.28 
L 1387.281627 128.16 
L 1381.559433 128.16 
L 1374.668874 17.28 
z
" clip-path="url(#pbc2823ec58)" style="fill: #21599c"/>
   </g>
   <g id="patch_60">
    <path d="M 1401.411495 17.28 
L 1408.489167 17.28 
L 1408.489167 128.16 
L 1401.411495 128.16 
L 1401.411495 17.28 
z
" clip-path="url(#pbc2823ec58)" style="fill: #21599c"/>
   </g>
   <g id="patch_61">
    <path d="M 1421.073006 38.904689 
L 1421.073006 106.559074 
L 1422.987796 106.559074 
Q 1426.262042 106.559074 1427.99024 97.861672 
Q 1429.72288 89.164269 1429.72288 72.601183 
Q 1429.72288 56.13315 1427.999125 47.530802 
Q 1426.279813 38.904689 1422.987796 38.904689 
L 1421.073006 38.904689 
z
M 1415.728477 17.28 
L 1421.361779 17.28 
Q 1426.084335 17.28 1428.394522 20.892036 
Q 1430.70471 24.480309 1432.357382 33.106421 
Q 1433.814577 40.615654 1434.520961 50.429936 
Q 1435.231788 60.220454 1435.231788 72.601183 
Q 1435.231788 85.172019 1434.520961 95.010064 
Q 1433.814577 104.84811 1432.357382 112.333579 
Q 1430.691382 120.959691 1428.358981 124.571727 
Q 1426.026581 128.16 1421.361779 128.16 
L 1415.728477 128.16 
L 1415.728477 17.28 
z
" clip-path="url(#pbc2823ec58)" style="fill: #6b296b"/>
   </g>
   <g id="patch_62">
    <path d="M 1436.461254 17.28 
L 1455.558614 17.28 
L 1455.558614 38.904689 
L 1443.538926 38.904689 
L 1443.538926 59.531316 
L 1454.846728 59.531316 
L 1454.846728 81.156005 
L 1443.538926 81.156005 
L 1443.538926 128.16 
L 1436.461254 128.16 
L 1436.461254 17.28 
z
" clip-path="url(#pbc2823ec58)" style="fill: #21599c"/>
   </g>
   <g id="patch_63">
    <path d="M 1456.788079 17.28 
L 1462.541368 17.28 
L 1466.532219 76.617197 
L 1470.549375 17.28 
L 1476.291391 17.28 
L 1476.291391 128.16 
L 1472.0187 128.16 
L 1472.0187 47.055534 
L 1467.978997 106.844235 
L 1465.111747 106.844235 
L 1461.072044 47.055534 
L 1461.072044 128.16 
L 1456.788079 128.16 
L 1456.788079 17.28 
z
" clip-path="url(#pbc2823ec58)" style="fill: #21599c"/>
   </g>
   <g id="patch_64">
    <path d="M 1496.821192 118.127891 
Q 1494.854251 123.143945 1492.738697 125.663425 
Q 1490.623143 128.16 1488.367717 128.16 
Q 1483.271155 128.16 1480.294518 113.226358 
Q 1477.317881 98.292716 1477.317881 72.754357 
Q 1477.317881 46.91824 1480.34697 32.09912 
Q 1483.38043 17.28 1488.656202 17.28 
Q 1490.688708 17.28 1492.550745 19.295584 
Q 1494.417153 21.288263 1496.069384 25.227812 
L 1496.069384 47.330518 
Q 1494.364701 42.268655 1492.677503 39.77208 
Q 1490.990305 37.252601 1489.294365 37.252601 
Q 1486.156002 37.252601 1484.455691 46.460153 
Q 1482.755379 55.644801 1482.755379 72.754357 
Q 1482.755379 89.703582 1484.394497 98.956943 
Q 1486.033614 108.187399 1489.04959 108.187399 
Q 1489.871334 108.187399 1490.575062 107.660599 
Q 1491.27879 107.110894 1491.838275 105.965677 
L 1491.838275 85.214328 
L 1488.625605 85.214328 
L 1488.625605 66.73051 
L 1496.821192 66.73051 
L 1496.821192 118.127891 
z
" clip-path="url(#pbc2823ec58)" style="fill: #787800"/>
   </g>
   <g id="patch_65">
    <path d="M 1508.119426 111.578719 
L 1507.737486 111.578719 
Q 1503.052628 111.578719 1500.448124 99.152512 
Q 1497.847682 86.706798 1497.847682 64.526897 
Q 1497.847682 42.38601 1500.44406 29.842759 
Q 1503.040439 17.28 1507.599338 17.28 
Q 1512.206995 17.28 1514.778994 29.725714 
Q 1517.350993 42.151921 1517.350993 64.526897 
Q 1517.350993 79.879212 1515.985762 90.978916 
Q 1514.62053 102.078621 1512.056657 107.677241 
L 1515.876055 128.16 
L 1511.215577 128.16 
L 1508.119426 111.578719 
z
M 1507.599338 34.290443 
Q 1505.364583 34.290443 1504.133437 42.210443 
Q 1502.90229 50.130443 1502.90229 64.526897 
Q 1502.90229 79.157438 1504.104994 86.940887 
Q 1505.311762 94.704828 1507.599338 94.704828 
Q 1509.846282 94.704828 1511.077428 86.784828 
Q 1512.308575 78.84532 1512.308575 64.526897 
Q 1512.308575 50.130443 1511.077428 42.210443 
Q 1509.846282 34.290443 1507.599338 34.290443 
z
" clip-path="url(#pbc2823ec58)" style="fill: #40ba47"/>
   </g>
   <g id="patch_66">
    <path d="M 1518.377483 17.28 
L 1523.517129 17.28 
L 1523.517129 57.749061 
L 1530.925397 17.28 
L 1536.89388 17.28 
L 1527.293893 69.797102 
L 1537.880795 128.16 
L 1531.446625 128.16 
L 1523.517129 84.48288 
L 1523.517129 128.16 
L 1518.377483 128.16 
L 1518.377483 17.28 
z
" clip-path="url(#pbc2823ec58)" style="fill: #bd2e1f"/>
   </g>
   <g id="patch_67">
    <path d="M 1545.120104 17.28 
L 1552.197777 17.28 
L 1552.197777 128.16 
L 1545.120104 128.16 
L 1545.120104 17.28 
z
" clip-path="url(#pbc2823ec58)" style="fill: #21599c"/>
   </g>
   <g id="patch_68">
    <path d="M 1559.437086 17.28 
L 1578.940397 17.28 
L 1578.940397 38.904689 
L 1571.923741 38.904689 
L 1571.923741 128.16 
L 1566.467349 128.16 
L 1566.467349 38.904689 
L 1559.437086 38.904689 
L 1559.437086 17.28 
z
" clip-path="url(#pbc2823ec58)" style="fill: #40ba47"/>
   </g>
   <g id="patch_69">
    <path d="M 1586.179707 17.28 
L 1593.257379 17.28 
L 1593.257379 128.16 
L 1586.179707 128.16 
L 1586.179707 17.28 
z
" clip-path="url(#pbc2823ec58)" style="fill: #21599c"/>
   </g>
   <g id="patch_70">
    <path d="M 1606.709508 17.28 
L 1613.78718 17.28 
L 1613.78718 128.16 
L 1606.709508 128.16 
L 1606.709508 17.28 
z
" clip-path="url(#pbc2823ec58)" style="fill: #21599c"/>
   </g>
   <g id="matplotlib.axis_1">
    <g id="xtick_1">
     <g id="line2d_2">
      <defs>
       <path id="m422696d0b0" d="M 0 0 
L 0 3.5 
" style="stroke: #000000; stroke-width: 0.8"/>
      </defs>
      <g>
       <use xlink:href="#m422696d0b0" x="234.751656" y="128.16" style="stroke: #000000; stroke-width: 0.8"/>
      </g>
     </g>
     <g id="text_1">
      <!-- 0 -->
      <g transform="translate(231.570406 142.758438) scale(0.1 -0.1)">
       <defs>
        <path id="DejaVuSans-30" d="M 2034 4250 
Q 1547 4250 1301 3770 
Q 1056 3291 1056 2328 
Q 1056 1369 1301 889 
Q 1547 409 2034 409 
Q 2525 409 2770 889 
Q 3016 1369 3016 2328 
Q 3016 3291 2770 3770 
Q 2525 4250 2034 4250 
z
M 2034 4750 
Q 2819 4750 3233 4129 
Q 3647 3509 3647 2328 
Q 3647 1150 3233 529 
Q 2819 -91 2034 -91 
Q 1250 -91 836 529 
Q 422 1150 422 2328 
Q 422 3509 836 4129 
Q 1250 4750 2034 4750 
z
" transform="scale(0.015625)"/>
       </defs>
       <use xlink:href="#DejaVuSans-30"/>
      </g>
     </g>
    </g>
    <g id="xtick_2">
     <g id="line2d_3">
      <g>
       <use xlink:href="#m422696d0b0" x="440.049669" y="128.16" style="stroke: #000000; stroke-width: 0.8"/>
      </g>
     </g>
     <g id="text_2">
      <!-- 10 -->
      <g transform="translate(433.687169 142.758438) scale(0.1 -0.1)">
       <defs>
        <path id="DejaVuSans-31" d="M 794 531 
L 1825 531 
L 1825 4091 
L 703 3866 
L 703 4441 
L 1819 4666 
L 2450 4666 
L 2450 531 
L 3481 531 
L 3481 0 
L 794 0 
L 794 531 
z
" transform="scale(0.015625)"/>
       </defs>
       <use xlink:href="#DejaVuSans-31"/>
       <use xlink:href="#DejaVuSans-30" x="63.623047"/>
      </g>
     </g>
    </g>
    <g id="xtick_3">
     <g id="line2d_4">
      <g>
       <use xlink:href="#m422696d0b0" x="645.347682" y="128.16" style="stroke: #000000; stroke-width: 0.8"/>
      </g>
     </g>
     <g id="text_3">
      <!-- 20 -->
      <g transform="translate(638.985182 142.758438) scale(0.1 -0.1)">
       <defs>
        <path id="DejaVuSans-32" d="M 1228 531 
L 3431 531 
L 3431 0 
L 469 0 
L 469 531 
Q 828 903 1448 1529 
Q 2069 2156 2228 2338 
Q 2531 2678 2651 2914 
Q 2772 3150 2772 3378 
Q 2772 3750 2511 3984 
Q 2250 4219 1831 4219 
Q 1534 4219 1204 4116 
Q 875 4013 500 3803 
L 500 4441 
Q 881 4594 1212 4672 
Q 1544 4750 1819 4750 
Q 2544 4750 2975 4387 
Q 3406 4025 3406 3419 
Q 3406 3131 3298 2873 
Q 3191 2616 2906 2266 
Q 2828 2175 2409 1742 
Q 1991 1309 1228 531 
z
" transform="scale(0.015625)"/>
       </defs>
       <use xlink:href="#DejaVuSans-32"/>
       <use xlink:href="#DejaVuSans-30" x="63.623047"/>
      </g>
     </g>
    </g>
    <g id="xtick_4">
     <g id="line2d_5">
      <g>
       <use xlink:href="#m422696d0b0" x="850.645695" y="128.16" style="stroke: #000000; stroke-width: 0.8"/>
      </g>
     </g>
     <g id="text_4">
      <!-- 30 -->
      <g transform="translate(844.283195 142.758438) scale(0.1 -0.1)">
       <defs>
        <path id="DejaVuSans-33" d="M 2597 2516 
Q 3050 2419 3304 2112 
Q 3559 1806 3559 1356 
Q 3559 666 3084 287 
Q 2609 -91 1734 -91 
Q 1441 -91 1130 -33 
Q 819 25 488 141 
L 488 750 
Q 750 597 1062 519 
Q 1375 441 1716 441 
Q 2309 441 2620 675 
Q 2931 909 2931 1356 
Q 2931 1769 2642 2001 
Q 2353 2234 1838 2234 
L 1294 2234 
L 1294 2753 
L 1863 2753 
Q 2328 2753 2575 2939 
Q 2822 3125 2822 3475 
Q 2822 3834 2567 4026 
Q 2313 4219 1838 4219 
Q 1578 4219 1281 4162 
Q 984 4106 628 3988 
L 628 4550 
Q 988 4650 1302 4700 
Q 1616 4750 1894 4750 
Q 2613 4750 3031 4423 
Q 3450 4097 3450 3541 
Q 3450 3153 3228 2886 
Q 3006 2619 2597 2516 
z
" transform="scale(0.015625)"/>
       </defs>
       <use xlink:href="#DejaVuSans-33"/>
       <use xlink:href="#DejaVuSans-30" x="63.623047"/>
      </g>
     </g>
    </g>
    <g id="xtick_5">
     <g id="line2d_6">
      <g>
       <use xlink:href="#m422696d0b0" x="1055.943709" y="128.16" style="stroke: #000000; stroke-width: 0.8"/>
      </g>
     </g>
     <g id="text_5">
      <!-- 40 -->
      <g transform="translate(1049.581209 142.758438) scale(0.1 -0.1)">
       <defs>
        <path id="DejaVuSans-34" d="M 2419 4116 
L 825 1625 
L 2419 1625 
L 2419 4116 
z
M 2253 4666 
L 3047 4666 
L 3047 1625 
L 3713 1625 
L 3713 1100 
L 3047 1100 
L 3047 0 
L 2419 0 
L 2419 1100 
L 313 1100 
L 313 1709 
L 2253 4666 
z
" transform="scale(0.015625)"/>
       </defs>
       <use xlink:href="#DejaVuSans-34"/>
       <use xlink:href="#DejaVuSans-30" x="63.623047"/>
      </g>
     </g>
    </g>
    <g id="xtick_6">
     <g id="line2d_7">
      <g>
       <use xlink:href="#m422696d0b0" x="1261.241722" y="128.16" style="stroke: #000000; stroke-width: 0.8"/>
      </g>
     </g>
     <g id="text_6">
      <!-- 50 -->
      <g transform="translate(1254.879222 142.758438) scale(0.1 -0.1)">
       <defs>
        <path id="DejaVuSans-35" d="M 691 4666 
L 3169 4666 
L 3169 4134 
L 1269 4134 
L 1269 2991 
Q 1406 3038 1543 3061 
Q 1681 3084 1819 3084 
Q 2600 3084 3056 2656 
Q 3513 2228 3513 1497 
Q 3513 744 3044 326 
Q 2575 -91 1722 -91 
Q 1428 -91 1123 -41 
Q 819 9 494 109 
L 494 744 
Q 775 591 1075 516 
Q 1375 441 1709 441 
Q 2250 441 2565 725 
Q 2881 1009 2881 1497 
Q 2881 1984 2565 2268 
Q 2250 2553 1709 2553 
Q 1456 2553 1204 2497 
Q 953 2441 691 2322 
L 691 4666 
z
" transform="scale(0.015625)"/>
       </defs>
       <use xlink:href="#DejaVuSans-35"/>
       <use xlink:href="#DejaVuSans-30" x="63.623047"/>
      </g>
     </g>
    </g>
    <g id="xtick_7">
     <g id="line2d_8">
      <g>
       <use xlink:href="#m422696d0b0" x="1466.539735" y="128.16" style="stroke: #000000; stroke-width: 0.8"/>
      </g>
     </g>
     <g id="text_7">
      <!-- 60 -->
      <g transform="translate(1460.177235 142.758438) scale(0.1 -0.1)">
       <defs>
        <path id="DejaVuSans-36" d="M 2113 2584 
Q 1688 2584 1439 2293 
Q 1191 2003 1191 1497 
Q 1191 994 1439 701 
Q 1688 409 2113 409 
Q 2538 409 2786 701 
Q 3034 994 3034 1497 
Q 3034 2003 2786 2293 
Q 2538 2584 2113 2584 
z
M 3366 4563 
L 3366 3988 
Q 3128 4100 2886 4159 
Q 2644 4219 2406 4219 
Q 1781 4219 1451 3797 
Q 1122 3375 1075 2522 
Q 1259 2794 1537 2939 
Q 1816 3084 2150 3084 
Q 2853 3084 3261 2657 
Q 3669 2231 3669 1497 
Q 3669 778 3244 343 
Q 2819 -91 2113 -91 
Q 1303 -91 875 529 
Q 447 1150 447 2328 
Q 447 3434 972 4092 
Q 1497 4750 2381 4750 
Q 2619 4750 2861 4703 
Q 3103 4656 3366 4563 
z
" transform="scale(0.015625)"/>
       </defs>
       <use xlink:href="#DejaVuSans-36"/>
       <use xlink:href="#DejaVuSans-30" x="63.623047"/>
      </g>
     </g>
    </g>
   </g>
   <g id="matplotlib.axis_2">
    <g id="ytick_1">
     <g id="line2d_9">
      <defs>
       <path id="m3a698beb69" d="M 0 0 
L -3.5 0 
" style="stroke: #000000; stroke-width: 0.8"/>
      </defs>
      <g>
       <use xlink:href="#m3a698beb69" x="225" y="128.16" style="stroke: #000000; stroke-width: 0.8"/>
      </g>
     </g>
     <g id="text_8">
      <!-- 0.0 -->
      <g transform="translate(202.096875 131.959219) scale(0.1 -0.1)">
       <defs>
        <path id="DejaVuSans-2e" d="M 684 794 
L 1344 794 
L 1344 0 
L 684 0 
L 684 794 
z
" transform="scale(0.015625)"/>
       </defs>
       <use xlink:href="#DejaVuSans-30"/>
       <use xlink:href="#DejaVuSans-2e" x="63.623047"/>
       <use xlink:href="#DejaVuSans-30" x="95.410156"/>
      </g>
     </g>
    </g>
    <g id="ytick_2">
     <g id="line2d_10">
      <g>
       <use xlink:href="#m3a698beb69" x="225" y="100.44" style="stroke: #000000; stroke-width: 0.8"/>
      </g>
     </g>
     <g id="text_9">
      <!-- 0.5 -->
      <g transform="translate(202.096875 104.239219) scale(0.1 -0.1)">
       <use xlink:href="#DejaVuSans-30"/>
       <use xlink:href="#DejaVuSans-2e" x="63.623047"/>
       <use xlink:href="#DejaVuSans-35" x="95.410156"/>
      </g>
     </g>
    </g>
    <g id="ytick_3">
     <g id="line2d_11">
      <g>
       <use xlink:href="#m3a698beb69" x="225" y="72.72" style="stroke: #000000; stroke-width: 0.8"/>
      </g>
     </g>
     <g id="text_10">
      <!-- 1.0 -->
      <g transform="translate(202.096875 76.519219) scale(0.1 -0.1)">
       <use xlink:href="#DejaVuSans-31"/>
       <use xlink:href="#DejaVuSans-2e" x="63.623047"/>
       <use xlink:href="#DejaVuSans-30" x="95.410156"/>
      </g>
     </g>
    </g>
    <g id="ytick_4">
     <g id="line2d_12">
      <g>
       <use xlink:href="#m3a698beb69" x="225" y="45" style="stroke: #000000; stroke-width: 0.8"/>
      </g>
     </g>
     <g id="text_11">
      <!-- 1.5 -->
      <g transform="translate(202.096875 48.799219) scale(0.1 -0.1)">
       <use xlink:href="#DejaVuSans-31"/>
       <use xlink:href="#DejaVuSans-2e" x="63.623047"/>
       <use xlink:href="#DejaVuSans-35" x="95.410156"/>
      </g>
     </g>
    </g>
    <g id="ytick_5">
     <g id="line2d_13">
      <g>
       <use xlink:href="#m3a698beb69" x="225" y="17.28" style="stroke: #000000; stroke-width: 0.8"/>
      </g>
     </g>
     <g id="text_12">
      <!-- 2.0 -->
      <g transform="translate(202.096875 21.079219) scale(0.1 -0.1)">
       <use xlink:href="#DejaVuSans-32"/>
       <use xlink:href="#DejaVuSans-2e" x="63.623047"/>
       <use xlink:href="#DejaVuSans-30" x="95.410156"/>
      </g>
     </g>
    </g>
   </g>
  </g>
 </g>
 <defs>
  <clipPath id="pbc2823ec58">
   <rect x="225" y="17.28" width="1395" height="110.88"/>
  </clipPath>
 </defs>
</svg>
