<?xml version="1.0" encoding="utf-8" standalone="no"?>
<!DOCTYPE svg PUBLIC "-//W3C//DTD SVG 1.1//EN"
  "http://www.w3.org/Graphics/SVG/1.1/DTD/svg11.dtd">
<svg xmlns:xlink="http://www.w3.org/1999/xlink" width="1800pt" height="144pt" viewBox="0 0 1800 144" xmlns="http://www.w3.org/2000/svg" version="1.1">
 <metadata>
  <rdf:RDF xmlns:dc="http://purl.org/dc/elements/1.1/" xmlns:cc="http://creativecommons.org/ns#" xmlns:rdf="http://www.w3.org/1999/02/22-rdf-syntax-ns#">
   <cc:Work>
    <dc:type rdf:resource="http://purl.org/dc/dcmitype/StillImage"/>
    <dc:date>2025-05-09T21:10:20.088679</dc:date>
    <dc:format>image/svg+xml</dc:format>
    <dc:creator>
     <cc:Agent>
      <dc:title>Matplotlib v3.8.0, https://matplotlib.org/</dc:title>
     </cc:Agent>
    </dc:creator>
   </cc:Work>
  </rdf:RDF>
 </metadata>
 <defs>
  <style type="text/css">*{stroke-linejoin: round; stroke-linecap: butt}</style>
 </defs>
 <g id="figure_1">
  <g id="patch_1">
   <path d="M 0 144 
L 1800 144 
L 1800 0 
L 0 0 
z
" style="fill: #ffffff"/>
  </g>
  <g id="axes_1">
   <g id="patch_2">
    <path d="M 225 128.16 
L 1620 128.16 
L 1620 17.28 
L 225 17.28 
z
" style="fill: #ffffff"/>
   </g>
   <g id="line2d_1">
    <path d="M 225 128.16 
L 1620 128.16 
" clip-path="url(#padc4fc5711)" style="fill: none; stroke: #000000; stroke-width: 1.5; stroke-linecap: square"/>
   </g>
   <g id="patch_3">
    <path d="M 225 17.28 
L 237.958773 17.28 
L 237.958773 57.749061 
L 256.637504 17.28 
L 271.686054 17.28 
L 247.481263 69.797102 
L 274.174397 128.16 
L 257.951693 128.16 
L 237.958773 84.48288 
L 237.958773 128.16 
L 225 128.16 
L 225 17.28 
z
" clip-path="url(#padc4fc5711)" style="fill: #bd2e1f"/>
   </g>
   <g id="patch_4">
    <path d="M 302.661039 111.578719 
L 301.69804 111.578719 
Q 289.88594 111.578719 283.319109 99.152512 
Q 276.762523 86.706798 276.762523 64.526897 
Q 276.762523 42.38601 283.308865 29.842759 
Q 289.855206 17.28 301.349722 17.28 
Q 312.967173 17.28 319.452047 29.725714 
Q 325.93692 42.151921 325.93692 64.526897 
Q 325.93692 79.879212 322.494712 90.978916 
Q 319.052505 102.078621 312.58812 107.677241 
L 322.218106 128.16 
L 310.467474 128.16 
L 302.661039 111.578719 
z
M 301.349722 34.290443 
Q 295.715155 34.290443 292.611022 42.210443 
Q 289.506888 50.130443 289.506888 64.526897 
Q 289.506888 79.157438 292.539309 86.940887 
Q 295.581975 94.704828 301.349722 94.704828 
Q 307.015022 94.704828 310.119156 86.784828 
Q 313.22329 78.84532 313.22329 64.526897 
Q 313.22329 50.130443 310.119156 42.210443 
Q 307.015022 34.290443 301.349722 34.290443 
z
" clip-path="url(#padc4fc5711)" style="fill: #40ba47"/>
   </g>
   <g id="patch_5">
    <path d="M 362.588194 107.961114 
L 343.676512 107.961114 
L 340.690456 128.16 
L 328.525046 128.16 
L 345.898458 17.28 
L 360.326031 17.28 
L 377.699443 128.16 
L 365.544087 128.16 
L 362.588194 107.961114 
z
M 346.692729 87.382015 
L 359.541815 87.382015 
L 353.127326 43.277154 
L 346.692729 87.382015 
z
" clip-path="url(#padc4fc5711)" style="fill: #21599c"/>
   </g>
   <g id="patch_6">
    <path d="M 429.461967 118.127891 
Q 424.502648 123.143945 419.168626 125.663425 
Q 413.834603 128.16 408.147918 128.16 
Q 395.297773 128.16 387.792671 113.226358 
Q 380.28757 98.292716 380.28757 72.754357 
Q 380.28757 46.91824 387.92492 32.09912 
Q 395.573291 17.28 408.875285 17.28 
Q 413.999914 17.28 418.694735 19.295584 
Q 423.400577 21.288263 427.566405 25.227812 
L 427.566405 47.330518 
Q 423.268329 42.268655 419.014336 39.77208 
Q 414.760343 37.252601 410.484308 37.252601 
Q 402.57144 37.252601 398.284385 46.460153 
Q 393.99733 55.644801 393.99733 72.754357 
Q 393.99733 89.703582 398.130095 98.956943 
Q 402.26286 108.187399 409.867149 108.187399 
Q 411.939042 108.187399 413.713376 107.660599 
Q 415.487709 107.110894 416.89836 105.965677 
L 416.89836 85.214328 
L 408.79814 85.214328 
L 408.79814 66.73051 
L 429.461967 66.73051 
L 429.461967 118.127891 
z
" clip-path="url(#padc4fc5711)" style="fill: #787800"/>
   </g>
   <g id="patch_7">
    <path d="M 432.050093 17.28 
L 449.895281 17.28 
L 449.895281 106.559074 
L 481.22449 106.559074 
L 481.22449 128.16 
L 432.050093 128.16 
L 432.050093 17.28 
z
" clip-path="url(#padc4fc5711)" style="fill: #21599c"/>
   </g>
   <g id="patch_8">
    <path d="M 483.812616 17.28 
L 499.608171 17.28 
L 519.56726 93.322863 
L 519.56726 17.28 
L 532.987013 17.28 
L 532.987013 128.16 
L 517.179697 128.16 
L 497.220607 52.117137 
L 497.220607 128.16 
L 483.812616 128.16 
L 483.812616 17.28 
z
" clip-path="url(#padc4fc5711)" style="fill: #40ba47"/>
   </g>
   <g id="patch_9">
    <path d="M 535.575139 17.28 
L 584.749536 17.28 
L 584.749536 38.904689 
L 567.058189 38.904689 
L 567.058189 128.16 
L 553.300794 128.16 
L 553.300794 38.904689 
L 535.575139 38.904689 
L 535.575139 17.28 
z
" clip-path="url(#padc4fc5711)" style="fill: #40ba47"/>
   </g>
   <g id="patch_10">
    <path d="M 587.337662 17.28 
L 605.182851 17.28 
L 605.182851 106.559074 
L 636.512059 106.559074 
L 636.512059 128.16 
L 587.337662 128.16 
L 587.337662 17.28 
z
" clip-path="url(#padc4fc5711)" style="fill: #21599c"/>
   </g>
   <g id="patch_11">
    <path d="M 639.100186 17.28 
L 656.945374 17.28 
L 656.945374 106.559074 
L 688.274583 106.559074 
L 688.274583 128.16 
L 639.100186 128.16 
L 639.100186 17.28 
z
" clip-path="url(#padc4fc5711)" style="fill: #21599c"/>
   </g>
   <g id="patch_12">
    <path d="M 690.862709 17.28 
L 705.368682 17.28 
L 715.430958 76.617197 
L 725.559557 17.28 
L 740.037106 17.28 
L 740.037106 128.16 
L 729.264218 128.16 
L 729.264218 47.055534 
L 719.078769 106.844235 
L 711.84947 106.844235 
L 701.664021 47.055534 
L 701.664021 128.16 
L 690.862709 128.16 
L 690.862709 17.28 
z
" clip-path="url(#padc4fc5711)" style="fill: #21599c"/>
   </g>
   <g id="patch_13">
    <path d="M 756.100585 38.904689 
L 756.100585 106.559074 
L 760.928413 106.559074 
Q 769.183887 106.559074 773.541254 97.861672 
Q 777.909822 89.164269 777.909822 72.601183 
Q 777.909822 56.13315 773.563657 47.530802 
Q 769.228693 38.904689 760.928413 38.904689 
L 756.100585 38.904689 
z
M 742.625232 17.28 
L 756.82868 17.28 
Q 768.735829 17.28 774.560586 20.892036 
Q 780.385344 24.480309 784.552286 33.106421 
Q 788.226364 40.615654 790.007396 50.429936 
Q 791.799629 60.220454 791.799629 72.601183 
Q 791.799629 85.172019 790.007396 95.010064 
Q 788.226364 104.84811 784.552286 112.333579 
Q 780.35174 120.959691 774.470975 124.571727 
Q 768.59021 128.16 756.82868 128.16 
L 742.625232 128.16 
L 742.625232 17.28 
z
" clip-path="url(#padc4fc5711)" style="fill: #6b296b"/>
   </g>
   <g id="patch_14">
    <path d="M 794.387755 17.28 
L 807.346528 17.28 
L 807.346528 57.749061 
L 826.025259 17.28 
L 841.073809 17.28 
L 816.869018 69.797102 
L 843.562152 128.16 
L 827.339449 128.16 
L 807.346528 84.48288 
L 807.346528 128.16 
L 794.387755 128.16 
L 794.387755 17.28 
z
" clip-path="url(#padc4fc5711)" style="fill: #bd2e1f"/>
   </g>
   <g id="patch_15">
    <path d="M 846.150278 17.28 
L 860.299238 17.28 
L 860.299238 59.531316 
L 881.175716 59.531316 
L 881.175716 17.28 
L 895.324675 17.28 
L 895.324675 128.16 
L 881.175716 128.16 
L 881.175716 81.156005 
L 860.299238 81.156005 
L 860.299238 128.16 
L 846.150278 128.16 
L 846.150278 17.28 
z
" clip-path="url(#padc4fc5711)" style="fill: #177875"/>
   </g>
   <g id="patch_16">
    <path d="M 897.912801 17.28 
L 923.473243 17.28 
Q 934.88324 17.28 940.978816 26.690304 
Q 947.087199 36.076845 947.087199 53.447887 
Q 947.087199 70.913982 940.978816 80.300523 
Q 934.88324 89.687064 923.473243 89.687064 
L 913.318218 89.687064 
L 913.318218 128.16 
L 897.912801 128.16 
L 897.912801 17.28 
z
M 913.318218 38.00168 
L 913.318218 68.965384 
L 921.834097 68.965384 
Q 926.316138 68.965384 928.762052 64.925607 
Q 931.207966 60.885829 931.207966 53.447887 
Q 931.207966 46.033708 928.762052 42.017694 
Q 926.316138 38.00168 921.834097 38.00168 
L 913.318218 38.00168 
z
" clip-path="url(#padc4fc5711)" style="fill: #787800"/>
   </g>
   <g id="patch_17">
    <path d="M 949.675325 17.28 
L 962.634098 17.28 
L 962.634098 57.749061 
L 981.312828 17.28 
L 996.361379 17.28 
L 972.156588 69.797102 
L 998.849722 128.16 
L 982.627018 128.16 
L 962.634098 84.48288 
L 962.634098 128.16 
L 949.675325 128.16 
L 949.675325 17.28 
z
" clip-path="url(#padc4fc5711)" style="fill: #bd2e1f"/>
   </g>
   <g id="patch_18">
    <path d="M 1014.913201 38.904689 
L 1014.913201 106.559074 
L 1019.741029 106.559074 
Q 1027.996503 106.559074 1032.35387 97.861672 
Q 1036.722438 89.164269 1036.722438 72.601183 
Q 1036.722438 56.13315 1032.376273 47.530802 
Q 1028.041309 38.904689 1019.741029 38.904689 
L 1014.913201 38.904689 
z
M 1001.437848 17.28 
L 1015.641296 17.28 
Q 1027.548445 17.28 1033.373202 20.892036 
Q 1039.19796 24.480309 1043.364902 33.106421 
Q 1047.03898 40.615654 1048.820012 50.429936 
Q 1050.612245 60.220454 1050.612245 72.601183 
Q 1050.612245 85.172019 1048.820012 95.010064 
Q 1047.03898 104.84811 1043.364902 112.333579 
Q 1039.164356 120.959691 1033.283591 124.571727 
Q 1027.402826 128.16 1015.641296 128.16 
L 1001.437848 128.16 
L 1001.437848 17.28 
z
" clip-path="url(#padc4fc5711)" style="fill: #6b296b"/>
   </g>
   <g id="patch_19">
    <path d="M 1053.200371 17.28 
L 1071.045559 17.28 
L 1071.045559 106.559074 
L 1102.374768 106.559074 
L 1102.374768 128.16 
L 1053.200371 128.16 
L 1053.200371 17.28 
z
" clip-path="url(#padc4fc5711)" style="fill: #21599c"/>
   </g>
   <g id="patch_20">
    <path d="M 1104.962894 17.28 
L 1153.113752 17.28 
L 1153.113752 38.904689 
L 1122.808083 38.904689 
L 1122.808083 59.531316 
L 1151.318849 59.531316 
L 1151.318849 81.156005 
L 1122.808083 81.156005 
L 1122.808083 106.559074 
L 1154.137291 106.559074 
L 1154.137291 128.16 
L 1104.962894 128.16 
L 1104.962894 17.28 
z
" clip-path="url(#padc4fc5711)" style="fill: #6b296b"/>
   </g>
   <g id="patch_21">
    <path d="M 1182.623933 111.578719 
L 1181.660935 111.578719 
Q 1169.848835 111.578719 1163.282004 99.152512 
Q 1156.725417 86.706798 1156.725417 64.526897 
Q 1156.725417 42.38601 1163.271759 29.842759 
Q 1169.818101 17.28 1181.312616 17.28 
Q 1192.930067 17.28 1199.414941 29.725714 
Q 1205.899814 42.151921 1205.899814 64.526897 
Q 1205.899814 79.879212 1202.457607 90.978916 
Q 1199.015399 102.078621 1192.551015 107.677241 
L 1202.181001 128.16 
L 1190.430369 128.16 
L 1182.623933 111.578719 
z
M 1181.312616 34.290443 
Q 1175.67805 34.290443 1172.573916 42.210443 
Q 1169.469782 50.130443 1169.469782 64.526897 
Q 1169.469782 79.157438 1172.502203 86.940887 
Q 1175.544869 94.704828 1181.312616 94.704828 
Q 1186.977916 94.704828 1190.08205 86.784828 
Q 1193.186184 78.84532 1193.186184 64.526897 
Q 1193.186184 50.130443 1190.08205 42.210443 
Q 1186.977916 34.290443 1181.312616 34.290443 
z
" clip-path="url(#padc4fc5711)" style="fill: #40ba47"/>
   </g>
   <g id="patch_22">
    <path d="M 1208.99971 17.28 
L 1257.150568 17.28 
L 1257.150568 38.904689 
L 1226.844899 38.904689 
L 1226.844899 59.531316 
L 1255.355665 59.531316 
L 1255.355665 81.156005 
L 1226.844899 81.156005 
L 1226.844899 128.16 
L 1208.99971 128.16 
L 1208.99971 17.28 
z
" clip-path="url(#padc4fc5711)" style="fill: #21599c"/>
   </g>
   <g id="patch_23">
    <path d="M 1260.250464 17.28 
L 1278.095652 17.28 
L 1278.095652 106.559074 
L 1309.424861 106.559074 
L 1309.424861 128.16 
L 1260.250464 128.16 
L 1260.250464 17.28 
z
" clip-path="url(#padc4fc5711)" style="fill: #21599c"/>
   </g>
   <g id="patch_24">
    <path d="M 1327.677591 17.28 
L 1345.52278 17.28 
L 1345.52278 128.16 
L 1327.677591 128.16 
L 1327.677591 17.28 
z
" clip-path="url(#padc4fc5711)" style="fill: #21599c"/>
   </g>
   <g id="patch_25">
    <path d="M 1377.250863 38.904689 
L 1377.250863 106.559074 
L 1382.078691 106.559074 
Q 1390.334165 106.559074 1394.691532 97.861672 
Q 1399.0601 89.164269 1399.0601 72.601183 
Q 1399.0601 56.13315 1394.713935 47.530802 
Q 1390.378971 38.904689 1382.078691 38.904689 
L 1377.250863 38.904689 
z
M 1363.77551 17.28 
L 1377.978958 17.28 
Q 1389.886107 17.28 1395.710865 20.892036 
Q 1401.535622 24.480309 1405.702564 33.106421 
Q 1409.376642 40.615654 1411.157674 50.429936 
Q 1412.949907 60.220454 1412.949907 72.601183 
Q 1412.949907 85.172019 1411.157674 95.010064 
Q 1409.376642 104.84811 1405.702564 112.333579 
Q 1401.502018 120.959691 1395.621253 124.571727 
Q 1389.740488 128.16 1377.978958 128.16 
L 1363.77551 128.16 
L 1363.77551 17.28 
z
" clip-path="url(#padc4fc5711)" style="fill: #6b296b"/>
   </g>
   <g id="patch_26">
    <path d="M 1415.538033 17.28 
L 1429.686993 17.28 
L 1429.686993 59.531316 
L 1450.563471 59.531316 
L 1450.563471 17.28 
L 1464.71243 17.28 
L 1464.71243 128.16 
L 1450.563471 128.16 
L 1450.563471 81.156005 
L 1429.686993 81.156005 
L 1429.686993 128.16 
L 1415.538033 128.16 
L 1415.538033 17.28 
z
" clip-path="url(#padc4fc5711)" style="fill: #177875"/>
   </g>
   <g id="patch_27">
    <path d="M 1467.300557 17.28 
L 1481.449516 17.28 
L 1481.449516 59.531316 
L 1502.325994 59.531316 
L 1502.325994 17.28 
L 1516.474954 17.28 
L 1516.474954 128.16 
L 1502.325994 128.16 
L 1502.325994 81.156005 
L 1481.449516 81.156005 
L 1481.449516 128.16 
L 1467.300557 128.16 
L 1467.300557 17.28 
z
" clip-path="url(#padc4fc5711)" style="fill: #177875"/>
   </g>
   <g id="patch_28">
    <path d="M 1534.727684 17.28 
L 1552.572873 17.28 
L 1552.572873 128.16 
L 1534.727684 128.16 
L 1534.727684 17.28 
z
" clip-path="url(#padc4fc5711)" style="fill: #21599c"/>
   </g>
   <g id="patch_29">
    <path d="M 1570.825603 17.28 
L 1588.670791 17.28 
L 1588.670791 106.559074 
L 1620 106.559074 
L 1620 128.16 
L 1570.825603 128.16 
L 1570.825603 17.28 
z
" clip-path="url(#padc4fc5711)" style="fill: #21599c"/>
   </g>
   <g id="matplotlib.axis_1">
    <g id="xtick_1">
     <g id="line2d_2">
      <defs>
       <path id="m122bc097e1" d="M 0 0 
L 0 3.5 
" style="stroke: #000000; stroke-width: 0.8"/>
      </defs>
      <g>
       <use xlink:href="#m122bc097e1" x="249.587199" y="128.16" style="stroke: #000000; stroke-width: 0.8"/>
      </g>
     </g>
     <g id="text_1">
      <!-- 0 -->
      <g transform="translate(246.405949 142.758438) scale(0.1 -0.1)">
       <defs>
        <path id="DejaVuSans-30" d="M 2034 4250 
Q 1547 4250 1301 3770 
Q 1056 3291 1056 2328 
Q 1056 1369 1301 889 
Q 1547 409 2034 409 
Q 2525 409 2770 889 
Q 3016 1369 3016 2328 
Q 3016 3291 2770 3770 
Q 2525 4250 2034 4250 
z
M 2034 4750 
Q 2819 4750 3233 4129 
Q 3647 3509 3647 2328 
Q 3647 1150 3233 529 
Q 2819 -91 2034 -91 
Q 1250 -91 836 529 
Q 422 1150 422 2328 
Q 422 3509 836 4129 
Q 1250 4750 2034 4750 
z
" transform="scale(0.015625)"/>
       </defs>
       <use xlink:href="#DejaVuSans-30"/>
      </g>
     </g>
    </g>
    <g id="xtick_2">
     <g id="line2d_3">
      <g>
       <use xlink:href="#m122bc097e1" x="508.399814" y="128.16" style="stroke: #000000; stroke-width: 0.8"/>
      </g>
     </g>
     <g id="text_2">
      <!-- 5 -->
      <g transform="translate(505.218564 142.758438) scale(0.1 -0.1)">
       <defs>
        <path id="DejaVuSans-35" d="M 691 4666 
L 3169 4666 
L 3169 4134 
L 1269 4134 
L 1269 2991 
Q 1406 3038 1543 3061 
Q 1681 3084 1819 3084 
Q 2600 3084 3056 2656 
Q 3513 2228 3513 1497 
Q 3513 744 3044 326 
Q 2575 -91 1722 -91 
Q 1428 -91 1123 -41 
Q 819 9 494 109 
L 494 744 
Q 775 591 1075 516 
Q 1375 441 1709 441 
Q 2250 441 2565 725 
Q 2881 1009 2881 1497 
Q 2881 1984 2565 2268 
Q 2250 2553 1709 2553 
Q 1456 2553 1204 2497 
Q 953 2441 691 2322 
L 691 4666 
z
" transform="scale(0.015625)"/>
       </defs>
       <use xlink:href="#DejaVuSans-35"/>
      </g>
     </g>
    </g>
    <g id="xtick_3">
     <g id="line2d_4">
      <g>
       <use xlink:href="#m122bc097e1" x="767.21243" y="128.16" style="stroke: #000000; stroke-width: 0.8"/>
      </g>
     </g>
     <g id="text_3">
      <!-- 10 -->
      <g transform="translate(760.84993 142.758438) scale(0.1 -0.1)">
       <defs>
        <path id="DejaVuSans-31" d="M 794 531 
L 1825 531 
L 1825 4091 
L 703 3866 
L 703 4441 
L 1819 4666 
L 2450 4666 
L 2450 531 
L 3481 531 
L 3481 0 
L 794 0 
L 794 531 
z
" transform="scale(0.015625)"/>
       </defs>
       <use xlink:href="#DejaVuSans-31"/>
       <use xlink:href="#DejaVuSans-30" x="63.623047"/>
      </g>
     </g>
    </g>
    <g id="xtick_4">
     <g id="line2d_5">
      <g>
       <use xlink:href="#m122bc097e1" x="1026.025046" y="128.16" style="stroke: #000000; stroke-width: 0.8"/>
      </g>
     </g>
     <g id="text_4">
      <!-- 15 -->
      <g transform="translate(1019.662546 142.758438) scale(0.1 -0.1)">
       <use xlink:href="#DejaVuSans-31"/>
       <use xlink:href="#DejaVuSans-35" x="63.623047"/>
      </g>
     </g>
    </g>
    <g id="xtick_5">
     <g id="line2d_6">
      <g>
       <use xlink:href="#m122bc097e1" x="1284.837662" y="128.16" style="stroke: #000000; stroke-width: 0.8"/>
      </g>
     </g>
     <g id="text_5">
      <!-- 20 -->
      <g transform="translate(1278.475162 142.758438) scale(0.1 -0.1)">
       <defs>
        <path id="DejaVuSans-32" d="M 1228 531 
L 3431 531 
L 3431 0 
L 469 0 
L 469 531 
Q 828 903 1448 1529 
Q 2069 2156 2228 2338 
Q 2531 2678 2651 2914 
Q 2772 3150 2772 3378 
Q 2772 3750 2511 3984 
Q 2250 4219 1831 4219 
Q 1534 4219 1204 4116 
Q 875 4013 500 3803 
L 500 4441 
Q 881 4594 1212 4672 
Q 1544 4750 1819 4750 
Q 2544 4750 2975 4387 
Q 3406 4025 3406 3419 
Q 3406 3131 3298 2873 
Q 3191 2616 2906 2266 
Q 2828 2175 2409 1742 
Q 1991 1309 1228 531 
z
" transform="scale(0.015625)"/>
       </defs>
       <use xlink:href="#DejaVuSans-32"/>
       <use xlink:href="#DejaVuSans-30" x="63.623047"/>
      </g>
     </g>
    </g>
    <g id="xtick_6">
     <g id="line2d_7">
      <g>
       <use xlink:href="#m122bc097e1" x="1543.650278" y="128.16" style="stroke: #000000; stroke-width: 0.8"/>
      </g>
     </g>
     <g id="text_6">
      <!-- 25 -->
      <g transform="translate(1537.287778 142.758438) scale(0.1 -0.1)">
       <use xlink:href="#DejaVuSans-32"/>
       <use xlink:href="#DejaVuSans-35" x="63.623047"/>
      </g>
     </g>
    </g>
   </g>
   <g id="matplotlib.axis_2">
    <g id="ytick_1">
     <g id="line2d_8">
      <defs>
       <path id="m3a1ef1abdc" d="M 0 0 
L -3.5 0 
" style="stroke: #000000; stroke-width: 0.8"/>
      </defs>
      <g>
       <use xlink:href="#m3a1ef1abdc" x="225" y="128.16" style="stroke: #000000; stroke-width: 0.8"/>
      </g>
     </g>
     <g id="text_7">
      <!-- 0.0 -->
      <g transform="translate(202.096875 131.959219) scale(0.1 -0.1)">
       <defs>
        <path id="DejaVuSans-2e" d="M 684 794 
L 1344 794 
L 1344 0 
L 684 0 
L 684 794 
z
" transform="scale(0.015625)"/>
       </defs>
       <use xlink:href="#DejaVuSans-30"/>
       <use xlink:href="#DejaVuSans-2e" x="63.623047"/>
       <use xlink:href="#DejaVuSans-30" x="95.410156"/>
      </g>
     </g>
    </g>
    <g id="ytick_2">
     <g id="line2d_9">
      <g>
       <use xlink:href="#m3a1ef1abdc" x="225" y="100.44" style="stroke: #000000; stroke-width: 0.8"/>
      </g>
     </g>
     <g id="text_8">
      <!-- 0.5 -->
      <g transform="translate(202.096875 104.239219) scale(0.1 -0.1)">
       <use xlink:href="#DejaVuSans-30"/>
       <use xlink:href="#DejaVuSans-2e" x="63.623047"/>
       <use xlink:href="#DejaVuSans-35" x="95.410156"/>
      </g>
     </g>
    </g>
    <g id="ytick_3">
     <g id="line2d_10">
      <g>
       <use xlink:href="#m3a1ef1abdc" x="225" y="72.72" style="stroke: #000000; stroke-width: 0.8"/>
      </g>
     </g>
     <g id="text_9">
      <!-- 1.0 -->
      <g transform="translate(202.096875 76.519219) scale(0.1 -0.1)">
       <use xlink:href="#DejaVuSans-31"/>
       <use xlink:href="#DejaVuSans-2e" x="63.623047"/>
       <use xlink:href="#DejaVuSans-30" x="95.410156"/>
      </g>
     </g>
    </g>
    <g id="ytick_4">
     <g id="line2d_11">
      <g>
       <use xlink:href="#m3a1ef1abdc" x="225" y="45" style="stroke: #000000; stroke-width: 0.8"/>
      </g>
     </g>
     <g id="text_10">
      <!-- 1.5 -->
      <g transform="translate(202.096875 48.799219) scale(0.1 -0.1)">
       <use xlink:href="#DejaVuSans-31"/>
       <use xlink:href="#DejaVuSans-2e" x="63.623047"/>
       <use xlink:href="#DejaVuSans-35" x="95.410156"/>
      </g>
     </g>
    </g>
    <g id="ytick_5">
     <g id="line2d_12">
      <g>
       <use xlink:href="#m3a1ef1abdc" x="225" y="17.28" style="stroke: #000000; stroke-width: 0.8"/>
      </g>
     </g>
     <g id="text_11">
      <!-- 2.0 -->
      <g transform="translate(202.096875 21.079219) scale(0.1 -0.1)">
       <use xlink:href="#DejaVuSans-32"/>
       <use xlink:href="#DejaVuSans-2e" x="63.623047"/>
       <use xlink:href="#DejaVuSans-30" x="95.410156"/>
      </g>
     </g>
    </g>
   </g>
  </g>
 </g>
 <defs>
  <clipPath id="padc4fc5711">
   <rect x="225" y="17.28" width="1395" height="110.88"/>
  </clipPath>
 </defs>
</svg>
