<?xml version="1.0" encoding="utf-8" standalone="no"?>
<!DOCTYPE svg PUBLIC "-//W3C//DTD SVG 1.1//EN"
  "http://www.w3.org/Graphics/SVG/1.1/DTD/svg11.dtd">
<svg xmlns:xlink="http://www.w3.org/1999/xlink" width="1800pt" height="144pt" viewBox="0 0 1800 144" xmlns="http://www.w3.org/2000/svg" version="1.1">
 <metadata>
  <rdf:RDF xmlns:dc="http://purl.org/dc/elements/1.1/" xmlns:cc="http://creativecommons.org/ns#" xmlns:rdf="http://www.w3.org/1999/02/22-rdf-syntax-ns#">
   <cc:Work>
    <dc:type rdf:resource="http://purl.org/dc/dcmitype/StillImage"/>
    <dc:date>2025-05-09T21:10:14.214647</dc:date>
    <dc:format>image/svg+xml</dc:format>
    <dc:creator>
     <cc:Agent>
      <dc:title>Matplotlib v3.8.0, https://matplotlib.org/</dc:title>
     </cc:Agent>
    </dc:creator>
   </cc:Work>
  </rdf:RDF>
 </metadata>
 <defs>
  <style type="text/css">*{stroke-linejoin: round; stroke-linecap: butt}</style>
 </defs>
 <g id="figure_1">
  <g id="patch_1">
   <path d="M 0 144 
L 1800 144 
L 1800 0 
L 0 0 
z
" style="fill: #ffffff"/>
  </g>
  <g id="axes_1">
   <g id="patch_2">
    <path d="M 225 128.16 
L 1620 128.16 
L 1620 17.28 
L 225 17.28 
z
" style="fill: #ffffff"/>
   </g>
   <g id="line2d_1">
    <path d="M 225 128.16 
L 1620 128.16 
" clip-path="url(#pc8dcaa806f)" style="fill: none; stroke: #000000; stroke-width: 1.5; stroke-linecap: square"/>
   </g>
   <g id="patch_3">
    <path d="M 225 17.28 
L 235.301343 17.28 
L 242.447017 76.617197 
L 249.639791 17.28 
L 259.920949 17.28 
L 259.920949 128.16 
L 252.270637 128.16 
L 252.270637 47.055534 
L 245.037492 106.844235 
L 239.903642 106.844235 
L 232.670497 47.055534 
L 232.670497 128.16 
L 225 128.16 
L 225 17.28 
z
" clip-path="url(#pc8dcaa806f)" style="fill: #21599c"/>
   </g>
   <g id="patch_4">
    <path d="M 296.679842 120.212188 
Q 293.758765 124.151737 290.60013 126.144416 
Q 287.441496 128.16 284.001312 128.16 
Q 273.742348 128.16 267.750621 113.226358 
Q 261.758893 98.292716 261.758893 72.754357 
Q 261.758893 47.124379 267.750621 32.213642 
Q 273.742348 17.28 284.001312 17.28 
Q 287.441496 17.28 290.60013 19.295584 
Q 293.758765 21.288263 296.679842 25.227812 
L 296.679842 47.330518 
Q 293.73237 42.108325 290.872881 39.680463 
Q 288.013393 37.252601 284.854759 37.252601 
Q 279.188573 37.252601 275.941954 46.712101 
Q 272.704134 56.148697 272.704134 72.754357 
Q 272.704134 89.291303 275.941954 98.750804 
Q 279.188573 108.187399 284.854759 108.187399 
Q 288.013393 108.187399 290.872881 105.759537 
Q 293.73237 103.308771 296.679842 98.086577 
L 296.679842 120.212188 
z
" clip-path="url(#pc8dcaa806f)" style="fill: #6b296b"/>
   </g>
   <g id="patch_5">
    <path d="M 333.438735 118.127891 
Q 329.9169 123.143945 326.128971 125.663425 
Q 322.341042 128.16 318.302672 128.16 
Q 309.177207 128.16 303.847497 113.226358 
Q 298.517787 98.292716 298.517787 72.754357 
Q 298.517787 46.91824 303.941412 32.09912 
Q 309.372864 17.28 318.819208 17.28 
Q 322.458437 17.28 325.792441 19.295584 
Q 329.13427 21.288263 332.092612 25.227812 
L 332.092612 47.330518 
Q 329.040355 42.268655 326.019403 39.77208 
Q 322.998452 37.252601 319.961847 37.252601 
Q 314.342564 37.252601 311.298134 46.460153 
Q 308.253703 55.644801 308.253703 72.754357 
Q 308.253703 89.703582 311.188566 98.956943 
Q 314.123428 108.187399 319.523575 108.187399 
Q 320.994919 108.187399 322.254953 107.660599 
Q 323.514987 107.110894 324.516754 105.965677 
L 324.516754 85.214328 
L 318.764424 85.214328 
L 318.764424 66.73051 
L 333.438735 66.73051 
L 333.438735 118.127891 
z
" clip-path="url(#pc8dcaa806f)" style="fill: #787800"/>
   </g>
   <g id="patch_6">
    <path d="M 370.197628 120.212188 
Q 367.276551 124.151737 364.117917 126.144416 
Q 360.959282 128.16 357.519098 128.16 
Q 347.260135 128.16 341.268407 113.226358 
Q 335.27668 98.292716 335.27668 72.754357 
Q 335.27668 47.124379 341.268407 32.213642 
Q 347.260135 17.28 357.519098 17.28 
Q 360.959282 17.28 364.117917 19.295584 
Q 367.276551 21.288263 370.197628 25.227812 
L 370.197628 47.330518 
Q 367.250156 42.108325 364.390668 39.680463 
Q 361.53118 37.252601 358.372545 37.252601 
Q 352.70636 37.252601 349.459741 46.712101 
Q 346.22192 56.148697 346.22192 72.754357 
Q 346.22192 89.291303 349.459741 98.750804 
Q 352.70636 108.187399 358.372545 108.187399 
Q 361.53118 108.187399 364.390668 105.759537 
Q 367.250156 103.308771 370.197628 98.086577 
L 370.197628 120.212188 
z
" clip-path="url(#pc8dcaa806f)" style="fill: #6b296b"/>
   </g>
   <g id="patch_7">
    <path d="M 404.044862 22.570907 
L 404.044862 45.200413 
Q 400.402916 41.260863 396.931687 39.268184 
Q 393.469941 37.252601 390.387565 37.252601 
Q 386.299861 37.252601 384.336624 39.978219 
Q 382.382872 42.680934 382.382872 48.407023 
Q 382.382872 52.713043 383.701181 55.118 
Q 385.019489 57.500054 388.490719 59.217881 
L 393.346646 61.57703 
Q 400.72538 65.173014 403.836209 72.479504 
Q 406.956522 79.76309 406.956522 93.230853 
Q 406.956522 110.890114 402.612743 119.525057 
Q 398.268964 128.16 389.3443 128.16 
Q 385.142784 128.16 380.903332 126.21313 
Q 376.663879 124.289163 372.424427 120.48704 
L 372.424427 97.239116 
Q 376.663879 102.667449 380.618805 105.438876 
Q 384.57373 108.187399 388.253613 108.187399 
Q 391.990401 108.187399 393.972606 105.186928 
Q 395.954811 102.163553 395.954811 96.574889 
Q 395.954811 91.581739 394.608049 88.856121 
Q 393.261288 86.130502 389.230489 83.977492 
L 384.810836 81.618343 
Q 378.171872 78.18269 375.098981 70.67006 
Q 372.035573 63.15743 372.035573 50.422607 
Q 372.035573 34.458269 376.303478 25.869134 
Q 380.571383 17.28 388.576077 17.28 
Q 392.227507 17.28 396.078106 18.608453 
Q 399.928705 19.936906 404.044862 22.570907 
z
" clip-path="url(#pc8dcaa806f)" style="fill: #40ba47"/>
   </g>
   <g id="patch_8">
    <path d="M 408.794466 17.28 
L 420.0116 17.28 
L 434.185446 93.322863 
L 434.185446 17.28 
L 443.715415 17.28 
L 443.715415 128.16 
L 432.48993 128.16 
L 418.316084 52.117137 
L 418.316084 128.16 
L 408.794466 128.16 
L 408.794466 17.28 
z
" clip-path="url(#pc8dcaa806f)" style="fill: #40ba47"/>
   </g>
   <g id="patch_9">
    <path d="M 445.55336 17.28 
L 479.747447 17.28 
L 479.747447 38.904689 
L 458.22603 38.904689 
L 458.22603 59.531316 
L 478.472806 59.531316 
L 478.472806 81.156005 
L 458.22603 81.156005 
L 458.22603 106.559074 
L 480.474308 106.559074 
L 480.474308 128.16 
L 445.55336 128.16 
L 445.55336 17.28 
z
" clip-path="url(#pc8dcaa806f)" style="fill: #6b296b"/>
   </g>
   <g id="patch_10">
    <path d="M 482.312253 17.28 
L 491.51486 17.28 
L 491.51486 57.749061 
L 504.779466 17.28 
L 515.466117 17.28 
L 498.277208 69.797102 
L 517.233202 128.16 
L 505.712731 128.16 
L 491.51486 84.48288 
L 491.51486 128.16 
L 482.312253 128.16 
L 482.312253 17.28 
z
" clip-path="url(#pc8dcaa806f)" style="fill: #bd2e1f"/>
   </g>
   <g id="patch_11">
    <path d="M 519.071146 17.28 
L 530.288279 17.28 
L 544.462125 93.322863 
L 544.462125 17.28 
L 553.992095 17.28 
L 553.992095 128.16 
L 542.766609 128.16 
L 528.592763 52.117137 
L 528.592763 128.16 
L 519.071146 128.16 
L 519.071146 17.28 
z
" clip-path="url(#pc8dcaa806f)" style="fill: #40ba47"/>
   </g>
   <g id="patch_12">
    <path d="M 555.83004 17.28 
L 567.047173 17.28 
L 581.221019 93.322863 
L 581.221019 17.28 
L 590.750988 17.28 
L 590.750988 128.16 
L 579.525503 128.16 
L 565.351657 52.117137 
L 565.351657 128.16 
L 555.83004 128.16 
L 555.83004 17.28 
z
" clip-path="url(#pc8dcaa806f)" style="fill: #40ba47"/>
   </g>
   <g id="patch_13">
    <path d="M 624.598222 22.570907 
L 624.598222 45.200413 
Q 620.956276 41.260863 617.485046 39.268184 
Q 614.023301 37.252601 610.940925 37.252601 
Q 606.85322 37.252601 604.889984 39.978219 
Q 602.936232 42.680934 602.936232 48.407023 
Q 602.936232 52.713043 604.25454 55.118 
Q 605.572849 57.500054 609.044078 59.217881 
L 613.900006 61.57703 
Q 621.27874 65.173014 624.389569 72.479504 
Q 627.509881 79.76309 627.509881 93.230853 
Q 627.509881 110.890114 623.166102 119.525057 
Q 618.822323 128.16 609.897659 128.16 
Q 605.696144 128.16 601.456691 126.21313 
Q 597.217239 124.289163 592.977786 120.48704 
L 592.977786 97.239116 
Q 597.217239 102.667449 601.172164 105.438876 
Q 605.12709 108.187399 608.806972 108.187399 
Q 612.543761 108.187399 614.525965 105.186928 
Q 616.50817 102.163553 616.50817 96.574889 
Q 616.50817 91.581739 615.161409 88.856121 
Q 613.814648 86.130502 609.783849 83.977492 
L 605.364196 81.618343 
Q 598.725232 78.18269 595.65234 70.67006 
Q 592.588933 63.15743 592.588933 50.422607 
Q 592.588933 34.458269 596.856838 25.869134 
Q 601.124743 17.28 609.129436 17.28 
Q 612.780866 17.28 616.631465 18.608453 
Q 620.482064 19.936906 624.598222 22.570907 
z
" clip-path="url(#pc8dcaa806f)" style="fill: #40ba47"/>
   </g>
   <g id="patch_14">
    <path d="M 629.347826 17.28 
L 642.020496 17.28 
L 642.020496 106.559074 
L 664.268775 106.559074 
L 664.268775 128.16 
L 629.347826 128.16 
L 629.347826 17.28 
z
" clip-path="url(#pc8dcaa806f)" style="fill: #21599c"/>
   </g>
   <g id="patch_15">
    <path d="M 666.106719 17.28 
L 675.761335 17.28 
L 683.559857 56.798526 
L 691.351044 17.28 
L 701.027668 17.28 
L 687.983667 81.441166 
L 687.983667 128.16 
L 679.158057 128.16 
L 679.158057 81.441166 
L 666.106719 17.28 
z
" clip-path="url(#pc8dcaa806f)" style="fill: #177875"/>
   </g>
   <g id="patch_16">
    <path d="M 703.229043 17.28 
L 737.423131 17.28 
L 737.423131 38.904689 
L 715.901713 38.904689 
L 715.901713 59.531316 
L 736.14849 59.531316 
L 736.14849 81.156005 
L 715.901713 81.156005 
L 715.901713 128.16 
L 703.229043 128.16 
L 703.229043 17.28 
z
" clip-path="url(#pc8dcaa806f)" style="fill: #21599c"/>
   </g>
   <g id="patch_17">
    <path d="M 739.624506 17.28 
L 748.827113 17.28 
L 748.827113 57.749061 
L 762.091719 17.28 
L 772.77837 17.28 
L 755.589461 69.797102 
L 774.545455 128.16 
L 763.024984 128.16 
L 748.827113 84.48288 
L 748.827113 128.16 
L 739.624506 128.16 
L 739.624506 17.28 
z
" clip-path="url(#pc8dcaa806f)" style="fill: #bd2e1f"/>
   </g>
   <g id="patch_18">
    <path d="M 776.383399 17.28 
L 785.586006 17.28 
L 785.586006 57.749061 
L 798.850612 17.28 
L 809.537264 17.28 
L 792.348354 69.797102 
L 811.304348 128.16 
L 799.783877 128.16 
L 785.586006 84.48288 
L 785.586006 128.16 
L 776.383399 128.16 
L 776.383399 17.28 
z
" clip-path="url(#pc8dcaa806f)" style="fill: #bd2e1f"/>
   </g>
   <g id="patch_19">
    <path d="M 848.063241 118.127891 
Q 844.541406 123.143945 840.753477 125.663425 
Q 836.965548 128.16 832.927178 128.16 
Q 823.801712 128.16 818.472002 113.226358 
Q 813.142292 98.292716 813.142292 72.754357 
Q 813.142292 46.91824 818.565918 32.09912 
Q 823.99737 17.28 833.443714 17.28 
Q 837.082943 17.28 840.416946 19.295584 
Q 843.758776 21.288263 846.717118 25.227812 
L 846.717118 47.330518 
Q 843.664861 42.268655 840.643909 39.77208 
Q 837.622957 37.252601 834.586353 37.252601 
Q 828.96707 37.252601 825.92264 46.460153 
Q 822.878209 55.644801 822.878209 72.754357 
Q 822.878209 89.703582 825.813071 98.956943 
Q 828.747934 108.187399 834.14808 108.187399 
Q 835.619425 108.187399 836.879459 107.660599 
Q 838.139493 107.110894 839.14126 105.965677 
L 839.14126 85.214328 
L 833.388929 85.214328 
L 833.388929 66.73051 
L 848.063241 66.73051 
L 848.063241 118.127891 
z
" clip-path="url(#pc8dcaa806f)" style="fill: #787800"/>
   </g>
   <g id="patch_20">
    <path d="M 849.901186 17.28 
L 859.555801 17.28 
L 867.354324 56.798526 
L 875.14551 17.28 
L 884.822134 17.28 
L 871.778133 81.441166 
L 871.778133 128.16 
L 862.952523 128.16 
L 862.952523 81.441166 
L 849.901186 17.28 
z
" clip-path="url(#pc8dcaa806f)" style="fill: #177875"/>
   </g>
   <g id="patch_21">
    <path d="M 886.660079 17.28 
L 895.299283 17.28 
L 904.131263 99.121132 
L 912.948963 17.28 
L 921.581028 17.28 
L 909.243387 128.16 
L 898.997719 128.16 
L 886.660079 17.28 
z
" clip-path="url(#pc8dcaa806f)" style="fill: #21599c"/>
   </g>
   <g id="patch_22">
    <path d="M 934.543112 17.28 
L 947.215782 17.28 
L 947.215782 128.16 
L 934.543112 128.16 
L 934.543112 17.28 
z
" clip-path="url(#pc8dcaa806f)" style="fill: #21599c"/>
   </g>
   <g id="patch_23">
    <path d="M 960.541296 17.28 
L 994.735384 17.28 
L 994.735384 38.904689 
L 973.213966 38.904689 
L 973.213966 59.531316 
L 993.460743 59.531316 
L 993.460743 81.156005 
L 973.213966 81.156005 
L 973.213966 128.16 
L 960.541296 128.16 
L 960.541296 17.28 
z
" clip-path="url(#pc8dcaa806f)" style="fill: #21599c"/>
   </g>
   <g id="patch_24">
    <path d="M 996.936759 17.28 
L 1008.153892 17.28 
L 1022.327738 93.322863 
L 1022.327738 17.28 
L 1031.857708 17.28 
L 1031.857708 128.16 
L 1020.632222 128.16 
L 1006.458376 52.117137 
L 1006.458376 128.16 
L 996.936759 128.16 
L 996.936759 17.28 
z
" clip-path="url(#pc8dcaa806f)" style="fill: #40ba47"/>
   </g>
   <g id="patch_25">
    <path d="M 1034.059083 17.28 
L 1068.25317 17.28 
L 1068.25317 38.904689 
L 1046.731753 38.904689 
L 1046.731753 59.531316 
L 1066.978529 59.531316 
L 1066.978529 81.156005 
L 1046.731753 81.156005 
L 1046.731753 128.16 
L 1034.059083 128.16 
L 1034.059083 17.28 
z
" clip-path="url(#pc8dcaa806f)" style="fill: #21599c"/>
   </g>
   <g id="patch_26">
    <path d="M 1081.578685 17.28 
L 1094.251355 17.28 
L 1094.251355 128.16 
L 1081.578685 128.16 
L 1081.578685 17.28 
z
" clip-path="url(#pc8dcaa806f)" style="fill: #21599c"/>
   </g>
   <g id="patch_27">
    <path d="M 1142.134387 118.127891 
Q 1138.612553 123.143945 1134.824624 125.663425 
Q 1131.036695 128.16 1126.998324 128.16 
Q 1117.872859 128.16 1112.543149 113.226358 
Q 1107.213439 98.292716 1107.213439 72.754357 
Q 1107.213439 46.91824 1112.637064 32.09912 
Q 1118.068516 17.28 1127.51486 17.28 
Q 1131.154089 17.28 1134.488093 19.295584 
Q 1137.829923 21.288263 1140.788264 25.227812 
L 1140.788264 47.330518 
Q 1137.736007 42.268655 1134.715055 39.77208 
Q 1131.694104 37.252601 1128.6575 37.252601 
Q 1123.038216 37.252601 1119.993786 46.460153 
Q 1116.949355 55.644801 1116.949355 72.754357 
Q 1116.949355 89.703582 1119.884218 98.956943 
Q 1122.81908 108.187399 1128.219227 108.187399 
Q 1129.690571 108.187399 1130.950605 107.660599 
Q 1132.21064 107.110894 1133.212406 105.965677 
L 1133.212406 85.214328 
L 1127.460076 85.214328 
L 1127.460076 66.73051 
L 1142.134387 66.73051 
L 1142.134387 118.127891 
z
" clip-path="url(#pc8dcaa806f)" style="fill: #787800"/>
   </g>
   <g id="patch_28">
    <path d="M 1143.972332 17.28 
L 1153.174939 17.28 
L 1153.174939 57.749061 
L 1166.439545 17.28 
L 1177.126196 17.28 
L 1159.937287 69.797102 
L 1178.893281 128.16 
L 1167.37281 128.16 
L 1153.174939 84.48288 
L 1153.174939 128.16 
L 1143.972332 128.16 
L 1143.972332 17.28 
z
" clip-path="url(#pc8dcaa806f)" style="fill: #bd2e1f"/>
   </g>
   <g id="patch_29">
    <path d="M 1199.122925 111.578719 
L 1198.439056 111.578719 
Q 1190.050753 111.578719 1185.387352 99.152512 
Q 1180.731225 86.706798 1180.731225 64.526897 
Q 1180.731225 42.38601 1185.380077 29.842759 
Q 1190.028928 17.28 1198.1917 17.28 
Q 1206.441774 17.28 1211.046974 29.725714 
Q 1215.652174 42.151921 1215.652174 64.526897 
Q 1215.652174 79.879212 1213.207708 90.978916 
Q 1210.763241 102.078621 1206.172591 107.677241 
L 1213.011277 128.16 
L 1204.666625 128.16 
L 1199.122925 111.578719 
z
M 1198.1917 34.290443 
Q 1194.190341 34.290443 1191.985956 42.210443 
Q 1189.781571 50.130443 1189.781571 64.526897 
Q 1189.781571 79.157438 1191.93503 86.940887 
Q 1194.095763 94.704828 1198.1917 94.704828 
Q 1202.214884 94.704828 1204.419269 86.784828 
Q 1206.623654 78.84532 1206.623654 64.526897 
Q 1206.623654 50.130443 1204.419269 42.210443 
Q 1202.214884 34.290443 1198.1917 34.290443 
z
" clip-path="url(#pc8dcaa806f)" style="fill: #40ba47"/>
   </g>
   <g id="patch_30">
    <path d="M 1228.614258 17.28 
L 1241.286928 17.28 
L 1241.286928 128.16 
L 1228.614258 128.16 
L 1228.614258 17.28 
z
" clip-path="url(#pc8dcaa806f)" style="fill: #21599c"/>
   </g>
   <g id="patch_31">
    <path d="M 1254.612443 17.28 
L 1288.80653 17.28 
L 1288.80653 38.904689 
L 1267.285113 38.904689 
L 1267.285113 59.531316 
L 1287.531889 59.531316 
L 1287.531889 81.156005 
L 1267.285113 81.156005 
L 1267.285113 128.16 
L 1254.612443 128.16 
L 1254.612443 17.28 
z
" clip-path="url(#pc8dcaa806f)" style="fill: #21599c"/>
   </g>
   <g id="patch_32">
    <path d="M 1291.007905 17.28 
L 1325.201992 17.28 
L 1325.201992 38.904689 
L 1303.680575 38.904689 
L 1303.680575 59.531316 
L 1323.927351 59.531316 
L 1323.927351 81.156005 
L 1303.680575 81.156005 
L 1303.680575 106.559074 
L 1325.928854 106.559074 
L 1325.928854 128.16 
L 1291.007905 128.16 
L 1291.007905 17.28 
z
" clip-path="url(#pc8dcaa806f)" style="fill: #6b296b"/>
   </g>
   <g id="patch_33">
    <path d="M 1327.766798 17.28 
L 1336.969405 17.28 
L 1336.969405 57.749061 
L 1350.234011 17.28 
L 1360.920663 17.28 
L 1343.731753 69.797102 
L 1362.687747 128.16 
L 1351.167276 128.16 
L 1336.969405 84.48288 
L 1336.969405 128.16 
L 1327.766798 128.16 
L 1327.766798 17.28 
z
" clip-path="url(#pc8dcaa806f)" style="fill: #bd2e1f"/>
   </g>
   <g id="patch_34">
    <path d="M 1364.525692 17.28 
L 1373.728299 17.28 
L 1373.728299 57.749061 
L 1386.992904 17.28 
L 1397.679556 17.28 
L 1380.490647 69.797102 
L 1399.44664 128.16 
L 1387.92617 128.16 
L 1373.728299 84.48288 
L 1373.728299 128.16 
L 1364.525692 128.16 
L 1364.525692 17.28 
z
" clip-path="url(#pc8dcaa806f)" style="fill: #bd2e1f"/>
   </g>
   <g id="patch_35">
    <path d="M 1401.284585 17.28 
L 1411.332397 17.28 
L 1411.332397 59.531316 
L 1426.157722 59.531316 
L 1426.157722 17.28 
L 1436.205534 17.28 
L 1436.205534 128.16 
L 1426.157722 128.16 
L 1426.157722 81.156005 
L 1411.332397 81.156005 
L 1411.332397 128.16 
L 1401.284585 128.16 
L 1401.284585 17.28 
z
" clip-path="url(#pc8dcaa806f)" style="fill: #177875"/>
   </g>
   <g id="patch_36">
    <path d="M 1438.406909 17.28 
L 1472.600996 17.28 
L 1472.600996 38.904689 
L 1451.079579 38.904689 
L 1451.079579 59.531316 
L 1471.326355 59.531316 
L 1471.326355 81.156005 
L 1451.079579 81.156005 
L 1451.079579 128.16 
L 1438.406909 128.16 
L 1438.406909 17.28 
z
" clip-path="url(#pc8dcaa806f)" style="fill: #21599c"/>
   </g>
   <g id="patch_37">
    <path d="M 1474.802372 17.28 
L 1485.103715 17.28 
L 1492.249389 76.617197 
L 1499.442162 17.28 
L 1509.72332 17.28 
L 1509.72332 128.16 
L 1502.073008 128.16 
L 1502.073008 47.055534 
L 1494.839864 106.844235 
L 1489.706013 106.844235 
L 1482.472869 47.055534 
L 1482.472869 128.16 
L 1474.802372 128.16 
L 1474.802372 17.28 
z
" clip-path="url(#pc8dcaa806f)" style="fill: #21599c"/>
   </g>
   <g id="patch_38">
    <path d="M 1525.730282 66.446464 
Q 1528.864213 66.446464 1530.223909 63.119589 
Q 1531.583604 59.76895 1531.583604 52.117137 
Q 1531.583604 44.536614 1530.223909 41.281029 
Q 1528.864213 38.00168 1525.730282 38.00168 
L 1521.535126 38.00168 
L 1521.535126 66.446464 
L 1525.730282 66.446464 
z
M 1521.535126 86.193845 
L 1521.535126 128.16 
L 1511.561265 128.16 
L 1511.561265 17.28 
L 1526.791508 17.28 
Q 1534.435647 17.28 1537.99241 24.646652 
Q 1541.557464 31.989541 1541.557464 47.887252 
Q 1541.557464 58.865941 1539.70032 65.923669 
Q 1537.851466 72.981397 1534.120596 76.332036 
Q 1536.168429 77.662786 1537.78514 82.391702 
Q 1539.410141 87.096854 1541.068306 96.673502 
L 1546.482213 128.16 
L 1535.861669 128.16 
L 1531.14419 100.618225 
Q 1529.718168 92.301037 1528.250693 89.259323 
Q 1526.791508 86.193845 1524.354005 86.193845 
L 1521.535126 86.193845 
z
" clip-path="url(#pc8dcaa806f)" style="fill: #bd2e1f"/>
   </g>
   <g id="patch_39">
    <path d="M 1559.444297 17.28 
L 1572.116967 17.28 
L 1572.116967 128.16 
L 1559.444297 128.16 
L 1559.444297 17.28 
z
" clip-path="url(#pc8dcaa806f)" style="fill: #21599c"/>
   </g>
   <g id="patch_40">
    <path d="M 1585.079051 17.28 
L 1595.380395 17.28 
L 1602.526069 76.617197 
L 1609.718842 17.28 
L 1620 17.28 
L 1620 128.16 
L 1612.349688 128.16 
L 1612.349688 47.055534 
L 1605.116544 106.844235 
L 1599.982693 106.844235 
L 1592.749549 47.055534 
L 1592.749549 128.16 
L 1585.079051 128.16 
L 1585.079051 17.28 
z
" clip-path="url(#pc8dcaa806f)" style="fill: #21599c"/>
   </g>
   <g id="matplotlib.axis_1">
    <g id="xtick_1">
     <g id="line2d_2">
      <defs>
       <path id="m0a9be4601f" d="M 0 0 
L 0 3.5 
" style="stroke: #000000; stroke-width: 0.8"/>
      </defs>
      <g>
       <use xlink:href="#m0a9be4601f" x="242.460474" y="128.16" style="stroke: #000000; stroke-width: 0.8"/>
      </g>
     </g>
     <g id="text_1">
      <!-- 0 -->
      <g transform="translate(239.279224 142.758438) scale(0.1 -0.1)">
       <defs>
        <path id="DejaVuSans-30" d="M 2034 4250 
Q 1547 4250 1301 3770 
Q 1056 3291 1056 2328 
Q 1056 1369 1301 889 
Q 1547 409 2034 409 
Q 2525 409 2770 889 
Q 3016 1369 3016 2328 
Q 3016 3291 2770 3770 
Q 2525 4250 2034 4250 
z
M 2034 4750 
Q 2819 4750 3233 4129 
Q 3647 3509 3647 2328 
Q 3647 1150 3233 529 
Q 2819 -91 2034 -91 
Q 1250 -91 836 529 
Q 422 1150 422 2328 
Q 422 3509 836 4129 
Q 1250 4750 2034 4750 
z
" transform="scale(0.015625)"/>
       </defs>
       <use xlink:href="#DejaVuSans-30"/>
      </g>
     </g>
    </g>
    <g id="xtick_2">
     <g id="line2d_3">
      <g>
       <use xlink:href="#m0a9be4601f" x="426.254941" y="128.16" style="stroke: #000000; stroke-width: 0.8"/>
      </g>
     </g>
     <g id="text_2">
      <!-- 5 -->
      <g transform="translate(423.073691 142.758438) scale(0.1 -0.1)">
       <defs>
        <path id="DejaVuSans-35" d="M 691 4666 
L 3169 4666 
L 3169 4134 
L 1269 4134 
L 1269 2991 
Q 1406 3038 1543 3061 
Q 1681 3084 1819 3084 
Q 2600 3084 3056 2656 
Q 3513 2228 3513 1497 
Q 3513 744 3044 326 
Q 2575 -91 1722 -91 
Q 1428 -91 1123 -41 
Q 819 9 494 109 
L 494 744 
Q 775 591 1075 516 
Q 1375 441 1709 441 
Q 2250 441 2565 725 
Q 2881 1009 2881 1497 
Q 2881 1984 2565 2268 
Q 2250 2553 1709 2553 
Q 1456 2553 1204 2497 
Q 953 2441 691 2322 
L 691 4666 
z
" transform="scale(0.015625)"/>
       </defs>
       <use xlink:href="#DejaVuSans-35"/>
      </g>
     </g>
    </g>
    <g id="xtick_3">
     <g id="line2d_4">
      <g>
       <use xlink:href="#m0a9be4601f" x="610.049407" y="128.16" style="stroke: #000000; stroke-width: 0.8"/>
      </g>
     </g>
     <g id="text_3">
      <!-- 10 -->
      <g transform="translate(603.686907 142.758438) scale(0.1 -0.1)">
       <defs>
        <path id="DejaVuSans-31" d="M 794 531 
L 1825 531 
L 1825 4091 
L 703 3866 
L 703 4441 
L 1819 4666 
L 2450 4666 
L 2450 531 
L 3481 531 
L 3481 0 
L 794 0 
L 794 531 
z
" transform="scale(0.015625)"/>
       </defs>
       <use xlink:href="#DejaVuSans-31"/>
       <use xlink:href="#DejaVuSans-30" x="63.623047"/>
      </g>
     </g>
    </g>
    <g id="xtick_4">
     <g id="line2d_5">
      <g>
       <use xlink:href="#m0a9be4601f" x="793.843874" y="128.16" style="stroke: #000000; stroke-width: 0.8"/>
      </g>
     </g>
     <g id="text_4">
      <!-- 15 -->
      <g transform="translate(787.481374 142.758438) scale(0.1 -0.1)">
       <use xlink:href="#DejaVuSans-31"/>
       <use xlink:href="#DejaVuSans-35" x="63.623047"/>
      </g>
     </g>
    </g>
    <g id="xtick_5">
     <g id="line2d_6">
      <g>
       <use xlink:href="#m0a9be4601f" x="977.63834" y="128.16" style="stroke: #000000; stroke-width: 0.8"/>
      </g>
     </g>
     <g id="text_5">
      <!-- 20 -->
      <g transform="translate(971.27584 142.758438) scale(0.1 -0.1)">
       <defs>
        <path id="DejaVuSans-32" d="M 1228 531 
L 3431 531 
L 3431 0 
L 469 0 
L 469 531 
Q 828 903 1448 1529 
Q 2069 2156 2228 2338 
Q 2531 2678 2651 2914 
Q 2772 3150 2772 3378 
Q 2772 3750 2511 3984 
Q 2250 4219 1831 4219 
Q 1534 4219 1204 4116 
Q 875 4013 500 3803 
L 500 4441 
Q 881 4594 1212 4672 
Q 1544 4750 1819 4750 
Q 2544 4750 2975 4387 
Q 3406 4025 3406 3419 
Q 3406 3131 3298 2873 
Q 3191 2616 2906 2266 
Q 2828 2175 2409 1742 
Q 1991 1309 1228 531 
z
" transform="scale(0.015625)"/>
       </defs>
       <use xlink:href="#DejaVuSans-32"/>
       <use xlink:href="#DejaVuSans-30" x="63.623047"/>
      </g>
     </g>
    </g>
    <g id="xtick_6">
     <g id="line2d_7">
      <g>
       <use xlink:href="#m0a9be4601f" x="1161.432806" y="128.16" style="stroke: #000000; stroke-width: 0.8"/>
      </g>
     </g>
     <g id="text_6">
      <!-- 25 -->
      <g transform="translate(1155.070306 142.758438) scale(0.1 -0.1)">
       <use xlink:href="#DejaVuSans-32"/>
       <use xlink:href="#DejaVuSans-35" x="63.623047"/>
      </g>
     </g>
    </g>
    <g id="xtick_7">
     <g id="line2d_8">
      <g>
       <use xlink:href="#m0a9be4601f" x="1345.227273" y="128.16" style="stroke: #000000; stroke-width: 0.8"/>
      </g>
     </g>
     <g id="text_7">
      <!-- 30 -->
      <g transform="translate(1338.864773 142.758438) scale(0.1 -0.1)">
       <defs>
        <path id="DejaVuSans-33" d="M 2597 2516 
Q 3050 2419 3304 2112 
Q 3559 1806 3559 1356 
Q 3559 666 3084 287 
Q 2609 -91 1734 -91 
Q 1441 -91 1130 -33 
Q 819 25 488 141 
L 488 750 
Q 750 597 1062 519 
Q 1375 441 1716 441 
Q 2309 441 2620 675 
Q 2931 909 2931 1356 
Q 2931 1769 2642 2001 
Q 2353 2234 1838 2234 
L 1294 2234 
L 1294 2753 
L 1863 2753 
Q 2328 2753 2575 2939 
Q 2822 3125 2822 3475 
Q 2822 3834 2567 4026 
Q 2313 4219 1838 4219 
Q 1578 4219 1281 4162 
Q 984 4106 628 3988 
L 628 4550 
Q 988 4650 1302 4700 
Q 1616 4750 1894 4750 
Q 2613 4750 3031 4423 
Q 3450 4097 3450 3541 
Q 3450 3153 3228 2886 
Q 3006 2619 2597 2516 
z
" transform="scale(0.015625)"/>
       </defs>
       <use xlink:href="#DejaVuSans-33"/>
       <use xlink:href="#DejaVuSans-30" x="63.623047"/>
      </g>
     </g>
    </g>
    <g id="xtick_8">
     <g id="line2d_9">
      <g>
       <use xlink:href="#m0a9be4601f" x="1529.021739" y="128.16" style="stroke: #000000; stroke-width: 0.8"/>
      </g>
     </g>
     <g id="text_8">
      <!-- 35 -->
      <g transform="translate(1522.659239 142.758438) scale(0.1 -0.1)">
       <use xlink:href="#DejaVuSans-33"/>
       <use xlink:href="#DejaVuSans-35" x="63.623047"/>
      </g>
     </g>
    </g>
   </g>
   <g id="matplotlib.axis_2">
    <g id="ytick_1">
     <g id="line2d_10">
      <defs>
       <path id="m4f564b1c27" d="M 0 0 
L -3.5 0 
" style="stroke: #000000; stroke-width: 0.8"/>
      </defs>
      <g>
       <use xlink:href="#m4f564b1c27" x="225" y="128.16" style="stroke: #000000; stroke-width: 0.8"/>
      </g>
     </g>
     <g id="text_9">
      <!-- 0.0 -->
      <g transform="translate(202.096875 131.959219) scale(0.1 -0.1)">
       <defs>
        <path id="DejaVuSans-2e" d="M 684 794 
L 1344 794 
L 1344 0 
L 684 0 
L 684 794 
z
" transform="scale(0.015625)"/>
       </defs>
       <use xlink:href="#DejaVuSans-30"/>
       <use xlink:href="#DejaVuSans-2e" x="63.623047"/>
       <use xlink:href="#DejaVuSans-30" x="95.410156"/>
      </g>
     </g>
    </g>
    <g id="ytick_2">
     <g id="line2d_11">
      <g>
       <use xlink:href="#m4f564b1c27" x="225" y="100.44" style="stroke: #000000; stroke-width: 0.8"/>
      </g>
     </g>
     <g id="text_10">
      <!-- 0.5 -->
      <g transform="translate(202.096875 104.239219) scale(0.1 -0.1)">
       <use xlink:href="#DejaVuSans-30"/>
       <use xlink:href="#DejaVuSans-2e" x="63.623047"/>
       <use xlink:href="#DejaVuSans-35" x="95.410156"/>
      </g>
     </g>
    </g>
    <g id="ytick_3">
     <g id="line2d_12">
      <g>
       <use xlink:href="#m4f564b1c27" x="225" y="72.72" style="stroke: #000000; stroke-width: 0.8"/>
      </g>
     </g>
     <g id="text_11">
      <!-- 1.0 -->
      <g transform="translate(202.096875 76.519219) scale(0.1 -0.1)">
       <use xlink:href="#DejaVuSans-31"/>
       <use xlink:href="#DejaVuSans-2e" x="63.623047"/>
       <use xlink:href="#DejaVuSans-30" x="95.410156"/>
      </g>
     </g>
    </g>
    <g id="ytick_4">
     <g id="line2d_13">
      <g>
       <use xlink:href="#m4f564b1c27" x="225" y="45" style="stroke: #000000; stroke-width: 0.8"/>
      </g>
     </g>
     <g id="text_12">
      <!-- 1.5 -->
      <g transform="translate(202.096875 48.799219) scale(0.1 -0.1)">
       <use xlink:href="#DejaVuSans-31"/>
       <use xlink:href="#DejaVuSans-2e" x="63.623047"/>
       <use xlink:href="#DejaVuSans-35" x="95.410156"/>
      </g>
     </g>
    </g>
    <g id="ytick_5">
     <g id="line2d_14">
      <g>
       <use xlink:href="#m4f564b1c27" x="225" y="17.28" style="stroke: #000000; stroke-width: 0.8"/>
      </g>
     </g>
     <g id="text_13">
      <!-- 2.0 -->
      <g transform="translate(202.096875 21.079219) scale(0.1 -0.1)">
       <use xlink:href="#DejaVuSans-32"/>
       <use xlink:href="#DejaVuSans-2e" x="63.623047"/>
       <use xlink:href="#DejaVuSans-30" x="95.410156"/>
      </g>
     </g>
    </g>
   </g>
  </g>
 </g>
 <defs>
  <clipPath id="pc8dcaa806f">
   <rect x="225" y="17.28" width="1395" height="110.88"/>
  </clipPath>
 </defs>
</svg>
