<?xml version="1.0" encoding="utf-8" standalone="no"?>
<!DOCTYPE svg PUBLIC "-//W3C//DTD SVG 1.1//EN"
  "http://www.w3.org/Graphics/SVG/1.1/DTD/svg11.dtd">
<svg xmlns:xlink="http://www.w3.org/1999/xlink" width="1800pt" height="144pt" viewBox="0 0 1800 144" xmlns="http://www.w3.org/2000/svg" version="1.1">
 <metadata>
  <rdf:RDF xmlns:dc="http://purl.org/dc/elements/1.1/" xmlns:cc="http://creativecommons.org/ns#" xmlns:rdf="http://www.w3.org/1999/02/22-rdf-syntax-ns#">
   <cc:Work>
    <dc:type rdf:resource="http://purl.org/dc/dcmitype/StillImage"/>
    <dc:date>2025-05-09T21:10:19.670815</dc:date>
    <dc:format>image/svg+xml</dc:format>
    <dc:creator>
     <cc:Agent>
      <dc:title>Matplotlib v3.8.0, https://matplotlib.org/</dc:title>
     </cc:Agent>
    </dc:creator>
   </cc:Work>
  </rdf:RDF>
 </metadata>
 <defs>
  <style type="text/css">*{stroke-linejoin: round; stroke-linecap: butt}</style>
 </defs>
 <g id="figure_1">
  <g id="patch_1">
   <path d="M 0 144 
L 1800 144 
L 1800 0 
L 0 0 
z
" style="fill: #ffffff"/>
  </g>
  <g id="axes_1">
   <g id="patch_2">
    <path d="M 225 128.16 
L 1620 128.16 
L 1620 17.28 
L 225 17.28 
z
" style="fill: #ffffff"/>
   </g>
   <g id="line2d_1">
    <path d="M 225 128.16 
L 1620 128.16 
" clip-path="url(#p5473fe0984)" style="fill: none; stroke: #000000; stroke-width: 1.5; stroke-linecap: square"/>
   </g>
   <g id="patch_3">
    <path d="M 225 17.28 
L 228.689816 17.28 
L 231.249309 76.617197 
L 233.825673 17.28 
L 237.508259 17.28 
L 237.508259 128.16 
L 234.76801 128.16 
L 234.76801 47.055534 
L 232.177186 106.844235 
L 230.338303 106.844235 
L 227.747479 47.055534 
L 227.747479 128.16 
L 225 128.16 
L 225 17.28 
z
" clip-path="url(#p5473fe0984)" style="fill: #21599c"/>
   </g>
   <g id="patch_4">
    <path d="M 238.166588 17.28 
L 250.674847 17.28 
L 250.674847 38.904689 
L 246.174782 38.904689 
L 246.174782 128.16 
L 242.675379 128.16 
L 242.675379 38.904689 
L 238.166588 38.904689 
L 238.166588 17.28 
z
" clip-path="url(#p5473fe0984)" style="fill: #40ba47"/>
   </g>
   <g id="patch_5">
    <path d="M 251.333176 17.28 
L 263.581082 17.28 
L 263.581082 38.904689 
L 255.872372 38.904689 
L 255.872372 59.531316 
L 263.124521 59.531316 
L 263.124521 81.156005 
L 255.872372 81.156005 
L 255.872372 106.559074 
L 263.841435 106.559074 
L 263.841435 128.16 
L 251.333176 128.16 
L 251.333176 17.28 
z
" clip-path="url(#p5473fe0984)" style="fill: #6b296b"/>
   </g>
   <g id="patch_6">
    <path d="M 264.499764 17.28 
L 267.796026 17.28 
L 267.796026 57.749061 
L 272.547246 17.28 
L 276.375075 17.28 
L 270.218217 69.797102 
L 277.008023 128.16 
L 272.88153 128.16 
L 267.796026 84.48288 
L 267.796026 128.16 
L 264.499764 128.16 
L 264.499764 17.28 
z
" clip-path="url(#p5473fe0984)" style="fill: #bd2e1f"/>
   </g>
   <g id="patch_7">
    <path d="M 282.741522 66.446464 
Q 283.864058 66.446464 284.351084 63.119589 
Q 284.83811 59.76895 284.83811 52.117137 
Q 284.83811 44.536614 284.351084 41.281029 
Q 283.864058 38.00168 282.741522 38.00168 
L 281.238868 38.00168 
L 281.238868 66.446464 
L 282.741522 66.446464 
z
M 281.238868 86.193845 
L 281.238868 128.16 
L 277.666352 128.16 
L 277.666352 17.28 
L 283.12164 17.28 
Q 285.859677 17.28 287.133667 24.646652 
Q 288.410625 31.989541 288.410625 47.887252 
Q 288.410625 58.865941 287.745419 65.923669 
Q 287.083182 72.981397 285.74683 76.332036 
Q 286.480339 77.662786 287.059425 82.391702 
Q 287.64148 87.096854 288.235415 96.673502 
L 290.174611 128.16 
L 286.370461 128.16 
L 284.680717 100.618225 
Q 284.169934 92.301037 283.644302 89.259323 
Q 283.12164 86.193845 282.248556 86.193845 
L 281.238868 86.193845 
z
" clip-path="url(#p5473fe0984)" style="fill: #bd2e1f"/>
   </g>
   <g id="patch_8">
    <path d="M 290.963117 17.28 
L 303.211022 17.28 
L 303.211022 38.904689 
L 295.502313 38.904689 
L 295.502313 59.531316 
L 302.754461 59.531316 
L 302.754461 81.156005 
L 295.502313 81.156005 
L 295.502313 128.16 
L 290.963117 128.16 
L 290.963117 17.28 
z
" clip-path="url(#p5473fe0984)" style="fill: #21599c"/>
   </g>
   <g id="patch_9">
    <path d="M 303.999528 17.28 
L 307.29579 17.28 
L 307.29579 57.749061 
L 312.04701 17.28 
L 315.874839 17.28 
L 309.717981 69.797102 
L 316.507787 128.16 
L 312.381294 128.16 
L 307.29579 84.48288 
L 307.29579 128.16 
L 303.999528 128.16 
L 303.999528 17.28 
z
" clip-path="url(#p5473fe0984)" style="fill: #bd2e1f"/>
   </g>
   <g id="patch_10">
    <path d="M 328.631454 22.570907 
L 328.631454 45.200413 
Q 327.326953 41.260863 326.083601 39.268184 
Q 324.843646 37.252601 323.739576 37.252601 
Q 322.27541 37.252601 321.572203 39.978219 
Q 320.872393 42.680934 320.872393 48.407023 
Q 320.872393 52.713043 321.344595 55.118 
Q 321.816797 57.500054 323.060149 59.217881 
L 324.799483 61.57703 
Q 327.442456 65.173014 328.556717 72.479504 
Q 329.674375 79.76309 329.674375 93.230853 
Q 329.674375 110.890114 328.118486 119.525057 
Q 326.562597 128.16 323.365891 128.16 
Q 321.860959 128.16 320.342439 126.21313 
Q 318.823919 124.289163 317.305399 120.48704 
L 317.305399 97.239116 
Q 318.823919 102.667449 320.240525 105.438876 
Q 321.657131 108.187399 322.97522 108.187399 
Q 324.313692 108.187399 325.023694 105.186928 
Q 325.733696 102.163553 325.733696 96.574889 
Q 325.733696 91.581739 325.251302 88.856121 
Q 324.768909 86.130502 323.325126 83.977492 
L 321.74206 81.618343 
Q 319.364064 78.18269 318.263391 70.67006 
Q 317.166116 63.15743 317.166116 50.422607 
Q 317.166116 34.458269 318.694828 25.869134 
Q 320.223539 17.28 323.090723 17.28 
Q 324.398621 17.28 325.777859 18.608453 
Q 327.157096 19.936906 328.631454 22.570907 
z
" clip-path="url(#p5473fe0984)" style="fill: #40ba47"/>
   </g>
   <g id="patch_11">
    <path d="M 330.332704 17.28 
L 334.8719 17.28 
L 334.8719 106.559074 
L 342.840963 106.559074 
L 342.840963 128.16 
L 330.332704 128.16 
L 330.332704 17.28 
z
" clip-path="url(#p5473fe0984)" style="fill: #21599c"/>
   </g>
   <g id="patch_12">
    <path d="M 343.499292 17.28 
L 346.795554 17.28 
L 346.795554 57.749061 
L 351.546774 17.28 
L 355.374603 17.28 
L 349.217745 69.797102 
L 356.007551 128.16 
L 351.881058 128.16 
L 346.795554 84.48288 
L 346.795554 128.16 
L 343.499292 128.16 
L 343.499292 17.28 
z
" clip-path="url(#p5473fe0984)" style="fill: #bd2e1f"/>
   </g>
   <g id="patch_13">
    <path d="M 356.66588 17.28 
L 368.913786 17.28 
L 368.913786 38.904689 
L 361.205076 38.904689 
L 361.205076 59.531316 
L 368.457225 59.531316 
L 368.457225 81.156005 
L 361.205076 81.156005 
L 361.205076 106.559074 
L 369.174139 106.559074 
L 369.174139 128.16 
L 356.66588 128.16 
L 356.66588 17.28 
z
" clip-path="url(#p5473fe0984)" style="fill: #6b296b"/>
   </g>
   <g id="patch_14">
    <path d="M 369.962645 17.28 
L 382.21055 17.28 
L 382.21055 38.904689 
L 374.501841 38.904689 
L 374.501841 59.531316 
L 381.753989 59.531316 
L 381.753989 81.156005 
L 374.501841 81.156005 
L 374.501841 128.16 
L 369.962645 128.16 
L 369.962645 17.28 
z
" clip-path="url(#p5473fe0984)" style="fill: #21599c"/>
   </g>
   <g id="patch_15">
    <path d="M 382.999056 17.28 
L 386.457222 17.28 
L 389.250558 56.798526 
L 392.041266 17.28 
L 395.507315 17.28 
L 390.835112 81.441166 
L 390.835112 128.16 
L 387.673886 128.16 
L 387.673886 81.441166 
L 382.999056 17.28 
z
" clip-path="url(#p5473fe0984)" style="fill: #177875"/>
   </g>
   <g id="patch_16">
    <path d="M 396.165644 17.28 
L 402.667333 17.28 
Q 405.56964 17.28 407.120143 26.690304 
Q 408.673903 36.076845 408.673903 53.447887 
Q 408.673903 70.913982 407.120143 80.300523 
Q 405.56964 89.687064 402.667333 89.687064 
L 400.084247 89.687064 
L 400.084247 128.16 
L 396.165644 128.16 
L 396.165644 17.28 
z
M 400.084247 38.00168 
L 400.084247 68.965384 
L 402.250391 68.965384 
Q 403.390466 68.965384 404.012622 64.925607 
Q 404.634778 60.885829 404.634778 53.447887 
Q 404.634778 46.033708 404.012622 42.017694 
Q 403.390466 38.00168 402.250391 38.00168 
L 400.084247 38.00168 
z
" clip-path="url(#p5473fe0984)" style="fill: #787800"/>
   </g>
   <g id="patch_17">
    <path d="M 409.462409 17.28 
L 421.710314 17.28 
L 421.710314 38.904689 
L 414.001605 38.904689 
L 414.001605 59.531316 
L 421.253753 59.531316 
L 421.253753 81.156005 
L 414.001605 81.156005 
L 414.001605 128.16 
L 409.462409 128.16 
L 409.462409 17.28 
z
" clip-path="url(#p5473fe0984)" style="fill: #21599c"/>
   </g>
   <g id="patch_18">
    <path d="M 422.49882 17.28 
L 425.956986 17.28 
L 428.750322 56.798526 
L 431.54103 17.28 
L 435.007079 17.28 
L 430.334876 81.441166 
L 430.334876 128.16 
L 427.17365 128.16 
L 427.17365 81.441166 
L 422.49882 17.28 
z
" clip-path="url(#p5473fe0984)" style="fill: #177875"/>
   </g>
   <g id="patch_19">
    <path d="M 435.665408 17.28 
L 440.204604 17.28 
L 440.204604 106.559074 
L 448.173667 106.559074 
L 448.173667 128.16 
L 435.665408 128.16 
L 435.665408 17.28 
z
" clip-path="url(#p5473fe0984)" style="fill: #21599c"/>
   </g>
   <g id="patch_20">
    <path d="M 460.297334 22.570907 
L 460.297334 45.200413 
Q 458.992833 41.260863 457.749481 39.268184 
Q 456.509526 37.252601 455.405456 37.252601 
Q 453.94129 37.252601 453.238083 39.978219 
Q 452.538273 42.680934 452.538273 48.407023 
Q 452.538273 52.713043 453.010475 55.118 
Q 453.482677 57.500054 454.726029 59.217881 
L 456.465363 61.57703 
Q 459.108336 65.173014 460.222597 72.479504 
Q 461.340255 79.76309 461.340255 93.230853 
Q 461.340255 110.890114 459.784366 119.525057 
Q 458.228477 128.16 455.031771 128.16 
Q 453.52684 128.16 452.008319 126.21313 
Q 450.489799 124.289163 448.971279 120.48704 
L 448.971279 97.239116 
Q 450.489799 102.667449 451.906405 105.438876 
Q 453.323011 108.187399 454.641101 108.187399 
Q 455.979573 108.187399 456.689574 105.186928 
Q 457.399576 102.163553 457.399576 96.574889 
Q 457.399576 91.581739 456.917182 88.856121 
Q 456.434789 86.130502 454.991006 83.977492 
L 453.40794 81.618343 
Q 451.029944 78.18269 449.929271 70.67006 
Q 448.831996 63.15743 448.831996 50.422607 
Q 448.831996 34.458269 450.360708 25.869134 
Q 451.88942 17.28 454.756603 17.28 
Q 456.064501 17.28 457.443739 18.608453 
Q 458.822976 19.936906 460.297334 22.570907 
z
" clip-path="url(#p5473fe0984)" style="fill: #40ba47"/>
   </g>
   <g id="patch_21">
    <path d="M 461.998584 17.28 
L 474.24649 17.28 
L 474.24649 38.904689 
L 466.53778 38.904689 
L 466.53778 59.531316 
L 473.789929 59.531316 
L 473.789929 81.156005 
L 466.53778 81.156005 
L 466.53778 106.559074 
L 474.506843 106.559074 
L 474.506843 128.16 
L 461.998584 128.16 
L 461.998584 17.28 
z
" clip-path="url(#p5473fe0984)" style="fill: #6b296b"/>
   </g>
   <g id="patch_22">
    <path d="M 475.165172 17.28 
L 478.764176 17.28 
L 478.764176 59.531316 
L 484.074427 59.531316 
L 484.074427 17.28 
L 487.673431 17.28 
L 487.673431 128.16 
L 484.074427 128.16 
L 484.074427 81.156005 
L 478.764176 81.156005 
L 478.764176 128.16 
L 475.165172 128.16 
L 475.165172 17.28 
z
" clip-path="url(#p5473fe0984)" style="fill: #177875"/>
   </g>
   <g id="patch_23">
    <path d="M 499.797098 22.570907 
L 499.797098 45.200413 
Q 498.492597 41.260863 497.249245 39.268184 
Q 496.00929 37.252601 494.90522 37.252601 
Q 493.441054 37.252601 492.737847 39.978219 
Q 492.038037 42.680934 492.038037 48.407023 
Q 492.038037 52.713043 492.510239 55.118 
Q 492.982441 57.500054 494.225793 59.217881 
L 495.965127 61.57703 
Q 498.6081 65.173014 499.722361 72.479504 
Q 500.840019 79.76309 500.840019 93.230853 
Q 500.840019 110.890114 499.28413 119.525057 
Q 497.728241 128.16 494.531535 128.16 
Q 493.026604 128.16 491.508083 126.21313 
Q 489.989563 124.289163 488.471043 120.48704 
L 488.471043 97.239116 
Q 489.989563 102.667449 491.406169 105.438876 
Q 492.822775 108.187399 494.140865 108.187399 
Q 495.479337 108.187399 496.189338 105.186928 
Q 496.89934 102.163553 496.89934 96.574889 
Q 496.89934 91.581739 496.416946 88.856121 
Q 495.934553 86.130502 494.49077 83.977492 
L 492.907704 81.618343 
Q 490.529708 78.18269 489.429036 70.67006 
Q 488.33176 63.15743 488.33176 50.422607 
Q 488.33176 34.458269 489.860472 25.869134 
Q 491.389184 17.28 494.256367 17.28 
Q 495.564265 17.28 496.943503 18.608453 
Q 498.32274 19.936906 499.797098 22.570907 
z
" clip-path="url(#p5473fe0984)" style="fill: #40ba47"/>
   </g>
   <g id="patch_24">
    <path d="M 501.498348 17.28 
L 505.516189 17.28 
L 510.593088 93.322863 
L 510.593088 17.28 
L 514.006607 17.28 
L 514.006607 128.16 
L 509.985775 128.16 
L 504.908876 52.117137 
L 504.908876 128.16 
L 501.498348 128.16 
L 501.498348 17.28 
z
" clip-path="url(#p5473fe0984)" style="fill: #40ba47"/>
   </g>
   <g id="patch_25">
    <path d="M 514.664936 17.28 
L 519.204132 17.28 
L 519.204132 106.559074 
L 527.173195 106.559074 
L 527.173195 128.16 
L 514.664936 128.16 
L 514.664936 17.28 
z
" clip-path="url(#p5473fe0984)" style="fill: #21599c"/>
   </g>
   <g id="patch_26">
    <path d="M 527.831524 17.28 
L 540.339783 17.28 
L 540.339783 38.904689 
L 535.839719 38.904689 
L 535.839719 128.16 
L 532.340315 128.16 
L 532.340315 38.904689 
L 527.831524 38.904689 
L 527.831524 17.28 
z
" clip-path="url(#p5473fe0984)" style="fill: #40ba47"/>
   </g>
   <g id="patch_27">
    <path d="M 552.46345 22.570907 
L 552.46345 45.200413 
Q 551.158949 41.260863 549.915597 39.268184 
Q 548.675642 37.252601 547.571573 37.252601 
Q 546.107406 37.252601 545.404199 39.978219 
Q 544.704389 42.680934 544.704389 48.407023 
Q 544.704389 52.713043 545.176591 55.118 
Q 545.648793 57.500054 546.892145 59.217881 
L 548.631479 61.57703 
Q 551.274452 65.173014 552.388713 72.479504 
Q 553.506371 79.76309 553.506371 93.230853 
Q 553.506371 110.890114 551.950482 119.525057 
Q 550.394593 128.16 547.197887 128.16 
Q 545.692956 128.16 544.174435 126.21313 
Q 542.655915 124.289163 541.137395 120.48704 
L 541.137395 97.239116 
Q 542.655915 102.667449 544.072521 105.438876 
Q 545.489127 108.187399 546.807217 108.187399 
Q 548.145689 108.187399 548.85569 105.186928 
Q 549.565692 102.163553 549.565692 96.574889 
Q 549.565692 91.581739 549.083298 88.856121 
Q 548.600905 86.130502 547.157122 83.977492 
L 545.574056 81.618343 
Q 543.19606 78.18269 542.095388 70.67006 
Q 540.998112 63.15743 540.998112 50.422607 
Q 540.998112 34.458269 542.526824 25.869134 
Q 544.055536 17.28 546.922719 17.28 
Q 548.230617 17.28 549.609855 18.608453 
Q 550.989092 19.936906 552.46345 22.570907 
z
" clip-path="url(#p5473fe0984)" style="fill: #40ba47"/>
   </g>
   <g id="patch_28">
    <path d="M 559.23987 66.446464 
Q 560.362406 66.446464 560.849432 63.119589 
Q 561.336458 59.76895 561.336458 52.117137 
Q 561.336458 44.536614 560.849432 41.281029 
Q 560.362406 38.00168 559.23987 38.00168 
L 557.737216 38.00168 
L 557.737216 66.446464 
L 559.23987 66.446464 
z
M 557.737216 86.193845 
L 557.737216 128.16 
L 554.1647 128.16 
L 554.1647 17.28 
L 559.619988 17.28 
Q 562.358025 17.28 563.632015 24.646652 
Q 564.908974 31.989541 564.908974 47.887252 
Q 564.908974 58.865941 564.243767 65.923669 
Q 563.58153 72.981397 562.245178 76.332036 
Q 562.978687 77.662786 563.557773 82.391702 
Q 564.139829 87.096854 564.733763 96.673502 
L 566.672959 128.16 
L 562.868809 128.16 
L 561.179066 100.618225 
Q 560.668282 92.301037 560.14265 89.259323 
Q 559.619988 86.193845 558.746904 86.193845 
L 557.737216 86.193845 
z
" clip-path="url(#p5473fe0984)" style="fill: #bd2e1f"/>
   </g>
   <g id="patch_29">
    <path d="M 571.31582 17.28 
L 575.855016 17.28 
L 575.855016 128.16 
L 571.31582 128.16 
L 571.31582 17.28 
z
" clip-path="url(#p5473fe0984)" style="fill: #21599c"/>
   </g>
   <g id="patch_30">
    <path d="M 580.497876 17.28 
L 585.037072 17.28 
L 585.037072 106.559074 
L 593.006135 106.559074 
L 593.006135 128.16 
L 580.497876 128.16 
L 580.497876 17.28 
z
" clip-path="url(#p5473fe0984)" style="fill: #21599c"/>
   </g>
   <g id="patch_31">
    <path d="M 593.664464 17.28 
L 597.263468 17.28 
L 597.263468 59.531316 
L 602.573719 59.531316 
L 602.573719 17.28 
L 606.172723 17.28 
L 606.172723 128.16 
L 602.573719 128.16 
L 602.573719 81.156005 
L 597.263468 81.156005 
L 597.263468 128.16 
L 593.664464 128.16 
L 593.664464 17.28 
z
" clip-path="url(#p5473fe0984)" style="fill: #177875"/>
   </g>
   <g id="patch_32">
    <path d="M 606.961229 17.28 
L 619.209135 17.28 
L 619.209135 38.904689 
L 611.500425 38.904689 
L 611.500425 59.531316 
L 618.752574 59.531316 
L 618.752574 81.156005 
L 611.500425 81.156005 
L 611.500425 128.16 
L 606.961229 128.16 
L 606.961229 17.28 
z
" clip-path="url(#p5473fe0984)" style="fill: #21599c"/>
   </g>
   <g id="patch_33">
    <path d="M 623.982172 17.28 
L 628.521368 17.28 
L 628.521368 128.16 
L 623.982172 128.16 
L 623.982172 17.28 
z
" clip-path="url(#p5473fe0984)" style="fill: #21599c"/>
   </g>
   <g id="patch_34">
    <path d="M 645.672487 118.127891 
Q 644.411009 123.143945 643.054219 125.663425 
Q 641.697429 128.16 640.250933 128.16 
Q 636.982303 128.16 635.073266 113.226358 
Q 633.164228 98.292716 633.164228 72.754357 
Q 633.164228 46.91824 635.106905 32.09912 
Q 637.052385 17.28 640.43595 17.28 
Q 641.739478 17.28 642.933677 19.295584 
Q 644.13068 21.288263 645.190322 25.227812 
L 645.190322 47.330518 
Q 644.097041 42.268655 643.014973 39.77208 
Q 641.932905 37.252601 640.84523 37.252601 
Q 638.832471 37.252601 637.741993 46.460153 
Q 636.651515 55.644801 636.651515 72.754357 
Q 636.651515 89.703582 637.702747 98.956943 
Q 638.753979 108.187399 640.688246 108.187399 
Q 641.215264 108.187399 641.666592 107.660599 
Q 642.117921 107.110894 642.476742 105.965677 
L 642.476742 85.214328 
L 640.416327 85.214328 
L 640.416327 66.73051 
L 645.672487 66.73051 
L 645.672487 118.127891 
z
" clip-path="url(#p5473fe0984)" style="fill: #787800"/>
   </g>
   <g id="patch_35">
    <path d="M 657.796154 22.570907 
L 657.796154 45.200413 
Q 656.491653 41.260863 655.248301 39.268184 
Q 654.008346 37.252601 652.904277 37.252601 
Q 651.440111 37.252601 650.736903 39.978219 
Q 650.037093 42.680934 650.037093 48.407023 
Q 650.037093 52.713043 650.509295 55.118 
Q 650.981497 57.500054 652.224849 59.217881 
L 653.964183 61.57703 
Q 656.607156 65.173014 657.721417 72.479504 
Q 658.839075 79.76309 658.839075 93.230853 
Q 658.839075 110.890114 657.283186 119.525057 
Q 655.727297 128.16 652.530592 128.16 
Q 651.02566 128.16 649.50714 126.21313 
Q 647.988619 124.289163 646.470099 120.48704 
L 646.470099 97.239116 
Q 647.988619 102.667449 649.405225 105.438876 
Q 650.821832 108.187399 652.139921 108.187399 
Q 653.478393 108.187399 654.188394 105.186928 
Q 654.898396 102.163553 654.898396 96.574889 
Q 654.898396 91.581739 654.416003 88.856121 
Q 653.933609 86.130502 652.489826 83.977492 
L 650.90676 81.618343 
Q 648.528764 78.18269 647.428092 70.67006 
Q 646.330816 63.15743 646.330816 50.422607 
Q 646.330816 34.458269 647.859528 25.869134 
Q 649.38824 17.28 652.255423 17.28 
Q 653.563321 17.28 654.942559 18.608453 
Q 656.321796 19.936906 657.796154 22.570907 
z
" clip-path="url(#p5473fe0984)" style="fill: #40ba47"/>
   </g>
   <g id="patch_36">
    <path d="M 659.497404 17.28 
L 664.036601 17.28 
L 664.036601 106.559074 
L 672.005663 106.559074 
L 672.005663 128.16 
L 659.497404 128.16 
L 659.497404 17.28 
z
" clip-path="url(#p5473fe0984)" style="fill: #21599c"/>
   </g>
   <g id="patch_37">
    <path d="M 672.663992 17.28 
L 677.203189 17.28 
L 677.203189 106.559074 
L 685.172251 106.559074 
L 685.172251 128.16 
L 672.663992 128.16 
L 672.663992 17.28 
z
" clip-path="url(#p5473fe0984)" style="fill: #21599c"/>
   </g>
   <g id="patch_38">
    <path d="M 694.495062 107.961114 
L 689.684587 107.961114 
L 688.925038 128.16 
L 685.83058 128.16 
L 690.249773 17.28 
L 693.919647 17.28 
L 698.338839 128.16 
L 695.246939 128.16 
L 694.495062 107.961114 
z
M 690.451808 87.382015 
L 693.720169 87.382015 
L 692.088546 43.277154 
L 690.451808 87.382015 
z
" clip-path="url(#p5473fe0984)" style="fill: #21599c"/>
   </g>
   <g id="patch_39">
    <path d="M 698.997168 17.28 
L 702.091626 17.28 
L 705.255134 99.121132 
L 708.413527 17.28 
L 711.505427 17.28 
L 707.086235 128.16 
L 703.416361 128.16 
L 698.997168 17.28 
z
" clip-path="url(#p5473fe0984)" style="fill: #21599c"/>
   </g>
   <g id="patch_40">
    <path d="M 712.163756 17.28 
L 716.702953 17.28 
L 716.702953 106.559074 
L 724.672015 106.559074 
L 724.672015 128.16 
L 712.163756 128.16 
L 712.163756 17.28 
z
" clip-path="url(#p5473fe0984)" style="fill: #21599c"/>
   </g>
   <g id="patch_41">
    <path d="M 725.330345 17.28 
L 729.869541 17.28 
L 729.869541 106.559074 
L 737.838603 106.559074 
L 737.838603 128.16 
L 725.330345 128.16 
L 725.330345 17.28 
z
" clip-path="url(#p5473fe0984)" style="fill: #21599c"/>
   </g>
   <g id="patch_42">
    <path d="M 738.496933 17.28 
L 743.036129 17.28 
L 743.036129 106.559074 
L 751.005191 106.559074 
L 751.005191 128.16 
L 738.496933 128.16 
L 738.496933 17.28 
z
" clip-path="url(#p5473fe0984)" style="fill: #21599c"/>
   </g>
   <g id="patch_43">
    <path d="M 751.793697 17.28 
L 764.041603 17.28 
L 764.041603 38.904689 
L 756.332893 38.904689 
L 756.332893 59.531316 
L 763.585042 59.531316 
L 763.585042 81.156005 
L 756.332893 81.156005 
L 756.332893 128.16 
L 751.793697 128.16 
L 751.793697 17.28 
z
" clip-path="url(#p5473fe0984)" style="fill: #21599c"/>
   </g>
   <g id="patch_44">
    <path d="M 764.830109 17.28 
L 777.338367 17.28 
L 777.338367 38.904689 
L 772.838303 38.904689 
L 772.838303 128.16 
L 769.338899 128.16 
L 769.338899 38.904689 
L 764.830109 38.904689 
L 764.830109 17.28 
z
" clip-path="url(#p5473fe0984)" style="fill: #40ba47"/>
   </g>
   <g id="patch_45">
    <path d="M 786.661178 107.961114 
L 781.850703 107.961114 
L 781.091154 128.16 
L 777.996697 128.16 
L 782.415889 17.28 
L 786.085763 17.28 
L 790.504955 128.16 
L 787.413055 128.16 
L 786.661178 107.961114 
z
M 782.617924 87.382015 
L 785.886285 87.382015 
L 784.254662 43.277154 
L 782.617924 87.382015 
z
" clip-path="url(#p5473fe0984)" style="fill: #21599c"/>
   </g>
   <g id="patch_46">
    <path d="M 791.163285 17.28 
L 794.257742 17.28 
L 797.42125 99.121132 
L 800.579643 17.28 
L 803.671543 17.28 
L 799.252351 128.16 
L 795.582477 128.16 
L 791.163285 17.28 
z
" clip-path="url(#p5473fe0984)" style="fill: #21599c"/>
   </g>
   <g id="patch_47">
    <path d="M 804.329873 17.28 
L 808.869069 17.28 
L 808.869069 106.559074 
L 816.838131 106.559074 
L 816.838131 128.16 
L 804.329873 128.16 
L 804.329873 17.28 
z
" clip-path="url(#p5473fe0984)" style="fill: #21599c"/>
   </g>
   <g id="patch_48">
    <path d="M 817.626637 17.28 
L 829.874543 17.28 
L 829.874543 38.904689 
L 822.165833 38.904689 
L 822.165833 59.531316 
L 829.417982 59.531316 
L 829.417982 81.156005 
L 822.165833 81.156005 
L 822.165833 128.16 
L 817.626637 128.16 
L 817.626637 17.28 
z
" clip-path="url(#p5473fe0984)" style="fill: #21599c"/>
   </g>
   <g id="patch_49">
    <path d="M 830.663049 17.28 
L 834.262052 17.28 
L 834.262052 59.531316 
L 839.572303 59.531316 
L 839.572303 17.28 
L 843.171307 17.28 
L 843.171307 128.16 
L 839.572303 128.16 
L 839.572303 81.156005 
L 834.262052 81.156005 
L 834.262052 128.16 
L 830.663049 128.16 
L 830.663049 17.28 
z
" clip-path="url(#p5473fe0984)" style="fill: #177875"/>
   </g>
   <g id="patch_50">
    <path d="M 847.257298 38.904689 
L 847.257298 106.559074 
L 848.48533 106.559074 
Q 850.585236 106.559074 851.693599 97.861672 
Q 852.804811 89.164269 852.804811 72.601183 
Q 852.804811 56.13315 851.699297 47.530802 
Q 850.596633 38.904689 848.48533 38.904689 
L 847.257298 38.904689 
z
M 843.829637 17.28 
L 847.4425 17.28 
Q 850.471266 17.28 851.952882 20.892036 
Q 853.434498 24.480309 854.494423 33.106421 
Q 855.428981 40.615654 855.882013 50.429936 
Q 856.337895 60.220454 856.337895 72.601183 
Q 856.337895 85.172019 855.882013 95.010064 
Q 855.428981 104.84811 854.494423 112.333579 
Q 853.42595 120.959691 851.930087 124.571727 
Q 850.434225 128.16 847.4425 128.16 
L 843.829637 128.16 
L 843.829637 17.28 
z
" clip-path="url(#p5473fe0984)" style="fill: #6b296b"/>
   </g>
   <g id="patch_51">
    <path d="M 856.996225 17.28 
L 861.535421 17.28 
L 861.535421 106.559074 
L 869.504483 106.559074 
L 869.504483 128.16 
L 856.996225 128.16 
L 856.996225 17.28 
z
" clip-path="url(#p5473fe0984)" style="fill: #21599c"/>
   </g>
   <g id="patch_52">
    <path d="M 875.237982 66.446464 
Q 876.360518 66.446464 876.847544 63.119589 
Q 877.334571 59.76895 877.334571 52.117137 
Q 877.334571 44.536614 876.847544 41.281029 
Q 876.360518 38.00168 875.237982 38.00168 
L 873.735328 38.00168 
L 873.735328 66.446464 
L 875.237982 66.446464 
z
M 873.735328 86.193845 
L 873.735328 128.16 
L 870.162813 128.16 
L 870.162813 17.28 
L 875.6181 17.28 
Q 878.356138 17.28 879.630127 24.646652 
Q 880.907086 31.989541 880.907086 47.887252 
Q 880.907086 58.865941 880.24188 65.923669 
Q 879.579643 72.981397 878.24329 76.332036 
Q 878.976799 77.662786 879.555885 82.391702 
Q 880.137941 87.096854 880.731875 96.673502 
L 882.671071 128.16 
L 878.866921 128.16 
L 877.177178 100.618225 
Q 876.666394 92.301037 876.140762 89.259323 
Q 875.6181 86.193845 874.745017 86.193845 
L 873.735328 86.193845 
z
" clip-path="url(#p5473fe0984)" style="fill: #bd2e1f"/>
   </g>
   <g id="patch_53">
    <path d="M 883.459577 17.28 
L 895.707483 17.28 
L 895.707483 38.904689 
L 887.998773 38.904689 
L 887.998773 59.531316 
L 895.250922 59.531316 
L 895.250922 81.156005 
L 887.998773 81.156005 
L 887.998773 128.16 
L 883.459577 128.16 
L 883.459577 17.28 
z
" clip-path="url(#p5473fe0984)" style="fill: #21599c"/>
   </g>
   <g id="patch_54">
    <path d="M 900.48052 17.28 
L 905.019716 17.28 
L 905.019716 128.16 
L 900.48052 128.16 
L 900.48052 17.28 
z
" clip-path="url(#p5473fe0984)" style="fill: #21599c"/>
   </g>
   <g id="patch_55">
    <path d="M 913.647108 17.28 
L 918.186304 17.28 
L 918.186304 128.16 
L 913.647108 128.16 
L 913.647108 17.28 
z
" clip-path="url(#p5473fe0984)" style="fill: #21599c"/>
   </g>
   <g id="patch_56">
    <path d="M 935.337423 118.127891 
Q 934.075945 123.143945 932.719155 125.663425 
Q 931.362365 128.16 929.91587 128.16 
Q 926.647239 128.16 924.738202 113.226358 
Q 922.829165 98.292716 922.829165 72.754357 
Q 922.829165 46.91824 924.771841 32.09912 
Q 926.717321 17.28 930.100887 17.28 
Q 931.404414 17.28 932.598614 19.295584 
Q 933.795616 21.288263 934.855258 25.227812 
L 934.855258 47.330518 
Q 933.761977 42.268655 932.679909 39.77208 
Q 931.597841 37.252601 930.510166 37.252601 
Q 928.497407 37.252601 927.406929 46.460153 
Q 926.316452 55.644801 926.316452 72.754357 
Q 926.316452 89.703582 927.367683 98.956943 
Q 928.418915 108.187399 930.353182 108.187399 
Q 930.8802 108.187399 931.331529 107.660599 
Q 931.782858 107.110894 932.141678 105.965677 
L 932.141678 85.214328 
L 930.081264 85.214328 
L 930.081264 66.73051 
L 935.337423 66.73051 
L 935.337423 118.127891 
z
" clip-path="url(#p5473fe0984)" style="fill: #787800"/>
   </g>
   <g id="patch_57">
    <path d="M 939.980284 17.28 
L 944.51948 17.28 
L 944.51948 128.16 
L 939.980284 128.16 
L 939.980284 17.28 
z
" clip-path="url(#p5473fe0984)" style="fill: #21599c"/>
   </g>
   <g id="patch_58">
    <path d="M 949.162341 17.28 
L 955.664029 17.28 
Q 958.566336 17.28 960.116839 26.690304 
Q 961.670599 36.076845 961.670599 53.447887 
Q 961.670599 70.913982 960.116839 80.300523 
Q 958.566336 89.687064 955.664029 89.687064 
L 953.080944 89.687064 
L 953.080944 128.16 
L 949.162341 128.16 
L 949.162341 17.28 
z
M 953.080944 38.00168 
L 953.080944 68.965384 
L 955.247087 68.965384 
Q 956.387163 68.965384 957.009319 64.925607 
Q 957.631474 60.885829 957.631474 53.447887 
Q 957.631474 46.033708 957.009319 42.017694 
Q 956.387163 38.00168 955.247087 38.00168 
L 953.080944 38.00168 
z
" clip-path="url(#p5473fe0984)" style="fill: #787800"/>
   </g>
   <g id="patch_59">
    <path d="M 966.31346 17.28 
L 970.852656 17.28 
L 970.852656 128.16 
L 966.31346 128.16 
L 966.31346 17.28 
z
" clip-path="url(#p5473fe0984)" style="fill: #21599c"/>
   </g>
   <g id="patch_60">
    <path d="M 975.495517 17.28 
L 978.589975 17.28 
L 981.753482 99.121132 
L 984.911875 17.28 
L 988.003775 17.28 
L 983.584583 128.16 
L 979.914709 128.16 
L 975.495517 17.28 
z
" clip-path="url(#p5473fe0984)" style="fill: #21599c"/>
   </g>
   <g id="patch_61">
    <path d="M 1001.170363 118.127891 
Q 999.908885 123.143945 998.552095 125.663425 
Q 997.195305 128.16 995.74881 128.16 
Q 992.480179 128.16 990.571142 113.226358 
Q 988.662105 98.292716 988.662105 72.754357 
Q 988.662105 46.91824 990.604781 32.09912 
Q 992.550261 17.28 995.933827 17.28 
Q 997.237354 17.28 998.431554 19.295584 
Q 999.628557 21.288263 1000.688198 25.227812 
L 1000.688198 47.330518 
Q 999.594917 42.268655 998.512849 39.77208 
Q 997.430781 37.252601 996.343106 37.252601 
Q 994.330347 37.252601 993.23987 46.460153 
Q 992.149392 55.644801 992.149392 72.754357 
Q 992.149392 89.703582 993.200624 98.956943 
Q 994.251855 108.187399 996.186122 108.187399 
Q 996.71314 108.187399 997.164469 107.660599 
Q 997.615798 107.110894 997.974618 105.965677 
L 997.974618 85.214328 
L 995.914204 85.214328 
L 995.914204 66.73051 
L 1001.170363 66.73051 
L 1001.170363 118.127891 
z
" clip-path="url(#p5473fe0984)" style="fill: #787800"/>
   </g>
   <g id="patch_62">
    <path d="M 1001.828693 17.28 
L 1005.286858 17.28 
L 1008.080194 56.798526 
L 1010.870902 17.28 
L 1014.336951 17.28 
L 1009.664749 81.441166 
L 1009.664749 128.16 
L 1006.503523 128.16 
L 1006.503523 81.441166 
L 1001.828693 17.28 
z
" clip-path="url(#p5473fe0984)" style="fill: #177875"/>
   </g>
   <g id="patch_63">
    <path d="M 1027.503539 118.127891 
Q 1026.242061 123.143945 1024.885271 125.663425 
Q 1023.528481 128.16 1022.081986 128.16 
Q 1018.813355 128.16 1016.904318 113.226358 
Q 1014.995281 98.292716 1014.995281 72.754357 
Q 1014.995281 46.91824 1016.937957 32.09912 
Q 1018.883437 17.28 1022.267003 17.28 
Q 1023.57053 17.28 1024.76473 19.295584 
Q 1025.961733 21.288263 1027.021374 25.227812 
L 1027.021374 47.330518 
Q 1025.928093 42.268655 1024.846025 39.77208 
Q 1023.763957 37.252601 1022.676282 37.252601 
Q 1020.663523 37.252601 1019.573046 46.460153 
Q 1018.482568 55.644801 1018.482568 72.754357 
Q 1018.482568 89.703582 1019.5338 98.956943 
Q 1020.585032 108.187399 1022.519298 108.187399 
Q 1023.046316 108.187399 1023.497645 107.660599 
Q 1023.948974 107.110894 1024.307794 105.965677 
L 1024.307794 85.214328 
L 1022.24738 85.214328 
L 1022.24738 66.73051 
L 1027.503539 66.73051 
L 1027.503539 118.127891 
z
" clip-path="url(#p5473fe0984)" style="fill: #787800"/>
   </g>
   <g id="patch_64">
    <path d="M 1028.292045 17.28 
L 1040.539951 17.28 
L 1040.539951 38.904689 
L 1032.831241 38.904689 
L 1032.831241 59.531316 
L 1040.08339 59.531316 
L 1040.08339 81.156005 
L 1032.831241 81.156005 
L 1032.831241 128.16 
L 1028.292045 128.16 
L 1028.292045 17.28 
z
" clip-path="url(#p5473fe0984)" style="fill: #21599c"/>
   </g>
   <g id="patch_65">
    <path d="M 1049.992939 107.961114 
L 1045.182463 107.961114 
L 1044.422915 128.16 
L 1041.328457 128.16 
L 1045.747649 17.28 
L 1049.417523 17.28 
L 1053.836715 128.16 
L 1050.744815 128.16 
L 1049.992939 107.961114 
z
M 1045.949684 87.382015 
L 1049.218045 87.382015 
L 1047.586422 43.277154 
L 1045.949684 87.382015 
z
" clip-path="url(#p5473fe0984)" style="fill: #21599c"/>
   </g>
   <g id="patch_66">
    <path d="M 1054.495045 17.28 
L 1056.657916 17.28 
L 1058.169862 97.861672 
L 1059.670553 17.28 
L 1061.844678 17.28 
L 1063.345369 97.861672 
L 1064.859191 17.28 
L 1067.003303 17.28 
L 1064.939853 128.16 
L 1062.338031 128.16 
L 1060.749174 43.871239 
L 1059.179076 128.16 
L 1056.575378 128.16 
L 1054.495045 17.28 
z
" clip-path="url(#p5473fe0984)" style="fill: #21599c"/>
   </g>
   <g id="patch_67">
    <path d="M 1067.661633 17.28 
L 1070.756091 17.28 
L 1073.919598 99.121132 
L 1077.077991 17.28 
L 1080.169891 17.28 
L 1075.750699 128.16 
L 1072.080825 128.16 
L 1067.661633 17.28 
z
" clip-path="url(#p5473fe0984)" style="fill: #21599c"/>
   </g>
   <g id="patch_68">
    <path d="M 1093.336479 118.127891 
Q 1092.075001 123.143945 1090.718211 125.663425 
Q 1089.361421 128.16 1087.914926 128.16 
Q 1084.646295 128.16 1082.737258 113.226358 
Q 1080.828221 98.292716 1080.828221 72.754357 
Q 1080.828221 46.91824 1082.770898 32.09912 
Q 1084.716377 17.28 1088.099943 17.28 
Q 1089.40347 17.28 1090.59767 19.295584 
Q 1091.794673 21.288263 1092.854314 25.227812 
L 1092.854314 47.330518 
Q 1091.761033 42.268655 1090.678965 39.77208 
Q 1089.596897 37.252601 1088.509222 37.252601 
Q 1086.496464 37.252601 1085.405986 46.460153 
Q 1084.315508 55.644801 1084.315508 72.754357 
Q 1084.315508 89.703582 1085.36674 98.956943 
Q 1086.417972 108.187399 1088.352238 108.187399 
Q 1088.879256 108.187399 1089.330585 107.660599 
Q 1089.781914 107.110894 1090.140734 105.965677 
L 1090.140734 85.214328 
L 1088.08032 85.214328 
L 1088.08032 66.73051 
L 1093.336479 66.73051 
L 1093.336479 118.127891 
z
" clip-path="url(#p5473fe0984)" style="fill: #787800"/>
   </g>
   <g id="patch_69">
    <path d="M 1093.994809 17.28 
L 1097.593813 17.28 
L 1097.593813 59.531316 
L 1102.904064 59.531316 
L 1102.904064 17.28 
L 1106.503067 17.28 
L 1106.503067 128.16 
L 1102.904064 128.16 
L 1102.904064 81.156005 
L 1097.593813 81.156005 
L 1097.593813 128.16 
L 1093.994809 128.16 
L 1093.994809 17.28 
z
" clip-path="url(#p5473fe0984)" style="fill: #177875"/>
   </g>
   <g id="patch_70">
    <path d="M 1107.291573 17.28 
L 1119.539479 17.28 
L 1119.539479 38.904689 
L 1111.830769 38.904689 
L 1111.830769 59.531316 
L 1119.082918 59.531316 
L 1119.082918 81.156005 
L 1111.830769 81.156005 
L 1111.830769 128.16 
L 1107.291573 128.16 
L 1107.291573 17.28 
z
" clip-path="url(#p5473fe0984)" style="fill: #21599c"/>
   </g>
   <g id="patch_71">
    <path d="M 1120.458161 17.28 
L 1132.706067 17.28 
L 1132.706067 38.904689 
L 1124.997357 38.904689 
L 1124.997357 59.531316 
L 1132.249506 59.531316 
L 1132.249506 81.156005 
L 1124.997357 81.156005 
L 1124.997357 128.16 
L 1120.458161 128.16 
L 1120.458161 17.28 
z
" clip-path="url(#p5473fe0984)" style="fill: #21599c"/>
   </g>
   <g id="patch_72">
    <path d="M 1133.624749 17.28 
L 1145.872655 17.28 
L 1145.872655 38.904689 
L 1138.163945 38.904689 
L 1138.163945 59.531316 
L 1145.416094 59.531316 
L 1145.416094 81.156005 
L 1138.163945 81.156005 
L 1138.163945 128.16 
L 1133.624749 128.16 
L 1133.624749 17.28 
z
" clip-path="url(#p5473fe0984)" style="fill: #21599c"/>
   </g>
   <g id="patch_73">
    <path d="M 1146.661161 17.28 
L 1158.909067 17.28 
L 1158.909067 38.904689 
L 1151.200357 38.904689 
L 1151.200357 59.531316 
L 1158.452506 59.531316 
L 1158.452506 81.156005 
L 1151.200357 81.156005 
L 1151.200357 106.559074 
L 1159.16942 106.559074 
L 1159.16942 128.16 
L 1146.661161 128.16 
L 1146.661161 17.28 
z
" clip-path="url(#p5473fe0984)" style="fill: #6b296b"/>
   </g>
   <g id="patch_74">
    <path d="M 1159.827749 17.28 
L 1163.124011 17.28 
L 1163.124011 57.749061 
L 1167.875231 17.28 
L 1171.70306 17.28 
L 1165.546201 69.797102 
L 1172.336008 128.16 
L 1168.209515 128.16 
L 1163.124011 84.48288 
L 1163.124011 128.16 
L 1159.827749 128.16 
L 1159.827749 17.28 
z
" clip-path="url(#p5473fe0984)" style="fill: #bd2e1f"/>
   </g>
   <g id="patch_75">
    <path d="M 1172.994337 17.28 
L 1177.012177 17.28 
L 1182.089077 93.322863 
L 1182.089077 17.28 
L 1185.502596 17.28 
L 1185.502596 128.16 
L 1181.481763 128.16 
L 1176.404864 52.117137 
L 1176.404864 128.16 
L 1172.994337 128.16 
L 1172.994337 17.28 
z
" clip-path="url(#p5473fe0984)" style="fill: #40ba47"/>
   </g>
   <g id="patch_76">
    <path d="M 1186.160925 17.28 
L 1189.457187 17.28 
L 1189.457187 57.749061 
L 1194.208407 17.28 
L 1198.036236 17.28 
L 1191.879377 69.797102 
L 1198.669184 128.16 
L 1194.542691 128.16 
L 1189.457187 84.48288 
L 1189.457187 128.16 
L 1186.160925 128.16 
L 1186.160925 17.28 
z
" clip-path="url(#p5473fe0984)" style="fill: #bd2e1f"/>
   </g>
   <g id="patch_77">
    <path d="M 1199.327513 17.28 
L 1205.829202 17.28 
Q 1208.731508 17.28 1210.282011 26.690304 
Q 1211.835772 36.076845 1211.835772 53.447887 
Q 1211.835772 70.913982 1210.282011 80.300523 
Q 1208.731508 89.687064 1205.829202 89.687064 
L 1203.246116 89.687064 
L 1203.246116 128.16 
L 1199.327513 128.16 
L 1199.327513 17.28 
z
M 1203.246116 38.00168 
L 1203.246116 68.965384 
L 1205.41226 68.965384 
Q 1206.552335 68.965384 1207.174491 64.925607 
Q 1207.796646 60.885829 1207.796646 53.447887 
Q 1207.796646 46.033708 1207.174491 42.017694 
Q 1206.552335 38.00168 1205.41226 38.00168 
L 1203.246116 38.00168 
z
" clip-path="url(#p5473fe0984)" style="fill: #787800"/>
   </g>
   <g id="patch_78">
    <path d="M 1221.158583 107.961114 
L 1216.348107 107.961114 
L 1215.588559 128.16 
L 1212.494101 128.16 
L 1216.913294 17.28 
L 1220.583167 17.28 
L 1225.00236 128.16 
L 1221.910459 128.16 
L 1221.158583 107.961114 
z
M 1217.115328 87.382015 
L 1220.38369 87.382015 
L 1218.752066 43.277154 
L 1217.115328 87.382015 
z
" clip-path="url(#p5473fe0984)" style="fill: #21599c"/>
   </g>
   <g id="patch_79">
    <path d="M 1225.660689 17.28 
L 1238.168948 17.28 
L 1238.168948 38.904689 
L 1233.668883 38.904689 
L 1233.668883 128.16 
L 1230.16948 128.16 
L 1230.16948 38.904689 
L 1225.660689 38.904689 
L 1225.660689 17.28 
z
" clip-path="url(#p5473fe0984)" style="fill: #40ba47"/>
   </g>
   <g id="patch_80">
    <path d="M 1238.957453 17.28 
L 1251.205359 17.28 
L 1251.205359 38.904689 
L 1243.49665 38.904689 
L 1243.49665 59.531316 
L 1250.748798 59.531316 
L 1250.748798 81.156005 
L 1243.49665 81.156005 
L 1243.49665 128.16 
L 1238.957453 128.16 
L 1238.957453 17.28 
z
" clip-path="url(#p5473fe0984)" style="fill: #21599c"/>
   </g>
   <g id="patch_81">
    <path d="M 1258.581548 111.578719 
L 1258.336595 111.578719 
Q 1255.332007 111.578719 1253.661633 99.152512 
Q 1251.993865 86.706798 1251.993865 64.526897 
Q 1251.993865 42.38601 1253.659027 29.842759 
Q 1255.324189 17.28 1258.247994 17.28 
Q 1261.20307 17.28 1262.852597 29.725714 
Q 1264.502124 42.151921 1264.502124 64.526897 
Q 1264.502124 79.879212 1263.626546 90.978916 
Q 1262.750967 102.078621 1261.106653 107.677241 
L 1263.556187 128.16 
L 1260.567234 128.16 
L 1258.581548 111.578719 
z
M 1258.247994 34.290443 
Q 1256.814756 34.290443 1256.025173 42.210443 
Q 1255.235589 50.130443 1255.235589 64.526897 
Q 1255.235589 79.157438 1256.006931 86.940887 
Q 1256.78088 94.704828 1258.247994 94.704828 
Q 1259.68905 94.704828 1260.478634 86.784828 
Q 1261.268218 78.84532 1261.268218 64.526897 
Q 1261.268218 50.130443 1260.478634 42.210443 
Q 1259.68905 34.290443 1258.247994 34.290443 
z
" clip-path="url(#p5473fe0984)" style="fill: #40ba47"/>
   </g>
   <g id="patch_82">
    <path d="M 1265.160453 17.28 
L 1268.618619 17.28 
L 1271.411955 56.798526 
L 1274.202663 17.28 
L 1277.668712 17.28 
L 1272.996509 81.441166 
L 1272.996509 128.16 
L 1269.835283 128.16 
L 1269.835283 81.441166 
L 1265.160453 17.28 
z
" clip-path="url(#p5473fe0984)" style="fill: #177875"/>
   </g>
   <g id="patch_83">
    <path d="M 1278.327041 17.28 
L 1284.82873 17.28 
Q 1287.731037 17.28 1289.281539 26.690304 
Q 1290.8353 36.076845 1290.8353 53.447887 
Q 1290.8353 70.913982 1289.281539 80.300523 
Q 1287.731037 89.687064 1284.82873 89.687064 
L 1282.245644 89.687064 
L 1282.245644 128.16 
L 1278.327041 128.16 
L 1278.327041 17.28 
z
M 1282.245644 38.00168 
L 1282.245644 68.965384 
L 1284.411788 68.965384 
Q 1285.551863 68.965384 1286.174019 64.925607 
Q 1286.796174 60.885829 1286.796174 53.447887 
Q 1286.796174 46.033708 1286.174019 42.017694 
Q 1285.551863 38.00168 1284.411788 38.00168 
L 1282.245644 38.00168 
z
" clip-path="url(#p5473fe0984)" style="fill: #787800"/>
   </g>
   <g id="patch_84">
    <path d="M 1300.158111 107.961114 
L 1295.347636 107.961114 
L 1294.588087 128.16 
L 1291.493629 128.16 
L 1295.912822 17.28 
L 1299.582695 17.28 
L 1304.001888 128.16 
L 1300.909987 128.16 
L 1300.158111 107.961114 
z
M 1296.114856 87.382015 
L 1299.383218 87.382015 
L 1297.751594 43.277154 
L 1296.114856 87.382015 
z
" clip-path="url(#p5473fe0984)" style="fill: #21599c"/>
   </g>
   <g id="patch_85">
    <path d="M 1304.660217 17.28 
L 1308.118383 17.28 
L 1310.911719 56.798526 
L 1313.702427 17.28 
L 1317.168476 17.28 
L 1312.496273 81.441166 
L 1312.496273 128.16 
L 1309.335047 128.16 
L 1309.335047 81.441166 
L 1304.660217 17.28 
z
" clip-path="url(#p5473fe0984)" style="fill: #177875"/>
   </g>
   <g id="patch_86">
    <path d="M 1329.292143 22.570907 
L 1329.292143 45.200413 
Q 1327.987642 41.260863 1326.74429 39.268184 
Q 1325.504335 37.252601 1324.400265 37.252601 
Q 1322.936099 37.252601 1322.232892 39.978219 
Q 1321.533082 42.680934 1321.533082 48.407023 
Q 1321.533082 52.713043 1322.005284 55.118 
Q 1322.477486 57.500054 1323.720838 59.217881 
L 1325.460172 61.57703 
Q 1328.103145 65.173014 1329.217406 72.479504 
Q 1330.335064 79.76309 1330.335064 93.230853 
Q 1330.335064 110.890114 1328.779175 119.525057 
Q 1327.223286 128.16 1324.02658 128.16 
Q 1322.521648 128.16 1321.003128 126.21313 
Q 1319.484608 124.289163 1317.966088 120.48704 
L 1317.966088 97.239116 
Q 1319.484608 102.667449 1320.901214 105.438876 
Q 1322.31782 108.187399 1323.635909 108.187399 
Q 1324.974381 108.187399 1325.684383 105.186928 
Q 1326.394385 102.163553 1326.394385 96.574889 
Q 1326.394385 91.581739 1325.911991 88.856121 
Q 1325.429598 86.130502 1323.985815 83.977492 
L 1322.402749 81.618343 
Q 1320.024753 78.18269 1318.92408 70.67006 
Q 1317.826805 63.15743 1317.826805 50.422607 
Q 1317.826805 34.458269 1319.355517 25.869134 
Q 1320.884228 17.28 1323.751412 17.28 
Q 1325.05931 17.28 1326.438548 18.608453 
Q 1327.817785 19.936906 1329.292143 22.570907 
z
" clip-path="url(#p5473fe0984)" style="fill: #40ba47"/>
   </g>
   <g id="patch_87">
    <path d="M 1330.993393 17.28 
L 1335.532589 17.28 
L 1335.532589 106.559074 
L 1343.501652 106.559074 
L 1343.501652 128.16 
L 1330.993393 128.16 
L 1330.993393 17.28 
z
" clip-path="url(#p5473fe0984)" style="fill: #21599c"/>
   </g>
   <g id="patch_88">
    <path d="M 1352.824463 107.961114 
L 1348.013988 107.961114 
L 1347.254439 128.16 
L 1344.159981 128.16 
L 1348.579174 17.28 
L 1352.249047 17.28 
L 1356.66824 128.16 
L 1353.576339 128.16 
L 1352.824463 107.961114 
z
M 1348.781209 87.382015 
L 1352.04957 87.382015 
L 1350.417947 43.277154 
L 1348.781209 87.382015 
z
" clip-path="url(#p5473fe0984)" style="fill: #21599c"/>
   </g>
   <g id="patch_89">
    <path d="M 1369.834828 120.212188 
Q 1368.788534 124.151737 1367.657149 126.144416 
Q 1366.525765 128.16 1365.293533 128.16 
Q 1361.618897 128.16 1359.472733 113.226358 
Q 1357.326569 98.292716 1357.326569 72.754357 
Q 1357.326569 47.124379 1359.472733 32.213642 
Q 1361.618897 17.28 1365.293533 17.28 
Q 1366.525765 17.28 1367.657149 19.295584 
Q 1368.788534 21.288263 1369.834828 25.227812 
L 1369.834828 47.330518 
Q 1368.779079 42.108325 1367.754845 39.680463 
Q 1366.730611 37.252601 1365.599227 37.252601 
Q 1363.569668 37.252601 1362.406769 46.712101 
Q 1361.247021 56.148697 1361.247021 72.754357 
Q 1361.247021 89.291303 1362.406769 98.750804 
Q 1363.569668 108.187399 1365.599227 108.187399 
Q 1366.730611 108.187399 1367.754845 105.759537 
Q 1368.779079 103.308771 1369.834828 98.086577 
L 1369.834828 120.212188 
z
" clip-path="url(#p5473fe0984)" style="fill: #6b296b"/>
   </g>
   <g id="patch_90">
    <path d="M 1373.920819 38.904689 
L 1373.920819 106.559074 
L 1375.148851 106.559074 
Q 1377.248757 106.559074 1378.357119 97.861672 
Q 1379.468331 89.164269 1379.468331 72.601183 
Q 1379.468331 56.13315 1378.362818 47.530802 
Q 1377.260154 38.904689 1375.148851 38.904689 
L 1373.920819 38.904689 
z
M 1370.493157 17.28 
L 1374.106021 17.28 
Q 1377.134786 17.28 1378.616402 20.892036 
Q 1380.098018 24.480309 1381.157943 33.106421 
Q 1382.092501 40.615654 1382.545534 50.429936 
Q 1383.001416 60.220454 1383.001416 72.601183 
Q 1383.001416 85.172019 1382.545534 95.010064 
Q 1382.092501 104.84811 1381.157943 112.333579 
Q 1380.08947 120.959691 1378.593608 124.571727 
Q 1377.097746 128.16 1374.106021 128.16 
L 1370.493157 128.16 
L 1370.493157 17.28 
z
" clip-path="url(#p5473fe0984)" style="fill: #6b296b"/>
   </g>
   <g id="patch_91">
    <path d="M 1383.789922 17.28 
L 1396.037827 17.28 
L 1396.037827 38.904689 
L 1388.329118 38.904689 
L 1388.329118 59.531316 
L 1395.581266 59.531316 
L 1395.581266 81.156005 
L 1388.329118 81.156005 
L 1388.329118 128.16 
L 1383.789922 128.16 
L 1383.789922 17.28 
z
" clip-path="url(#p5473fe0984)" style="fill: #21599c"/>
   </g>
   <g id="patch_92">
    <path d="M 1400.810864 17.28 
L 1405.350061 17.28 
L 1405.350061 128.16 
L 1400.810864 128.16 
L 1400.810864 17.28 
z
" clip-path="url(#p5473fe0984)" style="fill: #21599c"/>
   </g>
   <g id="patch_93">
    <path d="M 1409.992921 17.28 
L 1414.532117 17.28 
L 1414.532117 106.559074 
L 1422.50118 106.559074 
L 1422.50118 128.16 
L 1409.992921 128.16 
L 1409.992921 17.28 
z
" clip-path="url(#p5473fe0984)" style="fill: #21599c"/>
   </g>
   <g id="patch_94">
    <path d="M 1423.289686 17.28 
L 1435.537591 17.28 
L 1435.537591 38.904689 
L 1427.828882 38.904689 
L 1427.828882 59.531316 
L 1435.08103 59.531316 
L 1435.08103 81.156005 
L 1427.828882 81.156005 
L 1427.828882 128.16 
L 1423.289686 128.16 
L 1423.289686 17.28 
z
" clip-path="url(#p5473fe0984)" style="fill: #21599c"/>
   </g>
   <g id="patch_95">
    <path d="M 1436.326097 17.28 
L 1438.488968 17.28 
L 1440.000914 97.861672 
L 1441.501605 17.28 
L 1443.675731 17.28 
L 1445.176422 97.861672 
L 1446.690244 17.28 
L 1448.834356 17.28 
L 1446.770906 128.16 
L 1444.169083 128.16 
L 1442.580227 43.871239 
L 1441.010129 128.16 
L 1438.40643 128.16 
L 1436.326097 17.28 
z
" clip-path="url(#p5473fe0984)" style="fill: #21599c"/>
   </g>
   <g id="patch_96">
    <path d="M 1449.492685 17.28 
L 1461.740591 17.28 
L 1461.740591 38.904689 
L 1454.031881 38.904689 
L 1454.031881 59.531316 
L 1461.28403 59.531316 
L 1461.28403 81.156005 
L 1454.031881 81.156005 
L 1454.031881 106.559074 
L 1462.000944 106.559074 
L 1462.000944 128.16 
L 1449.492685 128.16 
L 1449.492685 17.28 
z
" clip-path="url(#p5473fe0984)" style="fill: #6b296b"/>
   </g>
   <g id="patch_97">
    <path d="M 1462.659273 17.28 
L 1467.198469 17.28 
L 1467.198469 106.559074 
L 1475.167532 106.559074 
L 1475.167532 128.16 
L 1462.659273 128.16 
L 1462.659273 17.28 
z
" clip-path="url(#p5473fe0984)" style="fill: #21599c"/>
   </g>
   <g id="patch_98">
    <path d="M 1475.825861 17.28 
L 1480.365057 17.28 
L 1480.365057 106.559074 
L 1488.33412 106.559074 
L 1488.33412 128.16 
L 1475.825861 128.16 
L 1475.825861 17.28 
z
" clip-path="url(#p5473fe0984)" style="fill: #21599c"/>
   </g>
   <g id="patch_99">
    <path d="M 1488.992449 17.28 
L 1501.500708 17.28 
L 1501.500708 38.904689 
L 1497.000644 38.904689 
L 1497.000644 128.16 
L 1493.50124 128.16 
L 1493.50124 38.904689 
L 1488.992449 38.904689 
L 1488.992449 17.28 
z
" clip-path="url(#p5473fe0984)" style="fill: #40ba47"/>
   </g>
   <g id="patch_100">
    <path d="M 1514.667296 118.127891 
Q 1513.405818 123.143945 1512.049028 125.663425 
Q 1510.692237 128.16 1509.245742 128.16 
Q 1505.977112 128.16 1504.068075 113.226358 
Q 1502.159037 98.292716 1502.159037 72.754357 
Q 1502.159037 46.91824 1504.101714 32.09912 
Q 1506.047194 17.28 1509.430759 17.28 
Q 1510.734287 17.28 1511.928486 19.295584 
Q 1513.125489 21.288263 1514.185131 25.227812 
L 1514.185131 47.330518 
Q 1513.09185 42.268655 1512.009782 39.77208 
Q 1510.927713 37.252601 1509.840039 37.252601 
Q 1507.82728 37.252601 1506.736802 46.460153 
Q 1505.646324 55.644801 1505.646324 72.754357 
Q 1505.646324 89.703582 1506.697556 98.956943 
Q 1507.748788 108.187399 1509.683055 108.187399 
Q 1510.210072 108.187399 1510.661401 107.660599 
Q 1511.11273 107.110894 1511.471551 105.965677 
L 1511.471551 85.214328 
L 1509.411136 85.214328 
L 1509.411136 66.73051 
L 1514.667296 66.73051 
L 1514.667296 118.127891 
z
" clip-path="url(#p5473fe0984)" style="fill: #787800"/>
   </g>
   <g id="patch_101">
    <path d="M 1526.790963 22.570907 
L 1526.790963 45.200413 
Q 1525.486462 41.260863 1524.24311 39.268184 
Q 1523.003155 37.252601 1521.899085 37.252601 
Q 1520.434919 37.252601 1519.731712 39.978219 
Q 1519.031902 42.680934 1519.031902 48.407023 
Q 1519.031902 52.713043 1519.504104 55.118 
Q 1519.976306 57.500054 1521.219658 59.217881 
L 1522.958992 61.57703 
Q 1525.601965 65.173014 1526.716226 72.479504 
Q 1527.833884 79.76309 1527.833884 93.230853 
Q 1527.833884 110.890114 1526.277995 119.525057 
Q 1524.722106 128.16 1521.5254 128.16 
Q 1520.020469 128.16 1518.501948 126.21313 
Q 1516.983428 124.289163 1515.464908 120.48704 
L 1515.464908 97.239116 
Q 1516.983428 102.667449 1518.400034 105.438876 
Q 1519.81664 108.187399 1521.13473 108.187399 
Q 1522.473202 108.187399 1523.183203 105.186928 
Q 1523.893205 102.163553 1523.893205 96.574889 
Q 1523.893205 91.581739 1523.410811 88.856121 
Q 1522.928418 86.130502 1521.484635 83.977492 
L 1519.901569 81.618343 
Q 1517.523573 78.18269 1516.422901 70.67006 
Q 1515.325625 63.15743 1515.325625 50.422607 
Q 1515.325625 34.458269 1516.854337 25.869134 
Q 1518.383049 17.28 1521.250232 17.28 
Q 1522.55813 17.28 1523.937368 18.608453 
Q 1525.316605 19.936906 1526.790963 22.570907 
z
" clip-path="url(#p5473fe0984)" style="fill: #40ba47"/>
   </g>
   <g id="patch_102">
    <path d="M 1535.079896 111.578719 
L 1534.834943 111.578719 
Q 1531.830355 111.578719 1530.159981 99.152512 
Q 1528.492213 86.706798 1528.492213 64.526897 
Q 1528.492213 42.38601 1530.157375 29.842759 
Q 1531.822537 17.28 1534.746343 17.28 
Q 1537.701419 17.28 1539.350945 29.725714 
Q 1541.000472 42.151921 1541.000472 64.526897 
Q 1541.000472 79.879212 1540.124894 90.978916 
Q 1539.249316 102.078621 1537.605001 107.677241 
L 1540.054535 128.16 
L 1537.065582 128.16 
L 1535.079896 111.578719 
z
M 1534.746343 34.290443 
Q 1533.313105 34.290443 1532.523521 42.210443 
Q 1531.733937 50.130443 1531.733937 64.526897 
Q 1531.733937 79.157438 1532.50528 86.940887 
Q 1533.279228 94.704828 1534.746343 94.704828 
Q 1536.187398 94.704828 1536.976982 86.784828 
Q 1537.766566 78.84532 1537.766566 64.526897 
Q 1537.766566 50.130443 1536.976982 42.210443 
Q 1536.187398 34.290443 1534.746343 34.290443 
z
" clip-path="url(#p5473fe0984)" style="fill: #40ba47"/>
   </g>
   <g id="patch_103">
    <path d="M 1541.658801 17.28 
L 1548.16049 17.28 
Q 1551.062797 17.28 1552.6133 26.690304 
Q 1554.16706 36.076845 1554.16706 53.447887 
Q 1554.16706 70.913982 1552.6133 80.300523 
Q 1551.062797 89.687064 1548.16049 89.687064 
L 1545.577404 89.687064 
L 1545.577404 128.16 
L 1541.658801 128.16 
L 1541.658801 17.28 
z
M 1545.577404 38.00168 
L 1545.577404 68.965384 
L 1547.743548 68.965384 
Q 1548.883624 68.965384 1549.505779 64.925607 
Q 1550.127935 60.885829 1550.127935 53.447887 
Q 1550.127935 46.033708 1549.505779 42.017694 
Q 1548.883624 38.00168 1547.743548 38.00168 
L 1545.577404 38.00168 
z
" clip-path="url(#p5473fe0984)" style="fill: #787800"/>
   </g>
   <g id="patch_104">
    <path d="M 1554.955566 17.28 
L 1567.203472 17.28 
L 1567.203472 38.904689 
L 1559.494762 38.904689 
L 1559.494762 59.531316 
L 1566.746911 59.531316 
L 1566.746911 81.156005 
L 1559.494762 81.156005 
L 1559.494762 128.16 
L 1554.955566 128.16 
L 1554.955566 17.28 
z
" clip-path="url(#p5473fe0984)" style="fill: #21599c"/>
   </g>
   <g id="patch_105">
    <path d="M 1567.991977 17.28 
L 1571.288239 17.28 
L 1571.288239 57.749061 
L 1576.039459 17.28 
L 1579.867288 17.28 
L 1573.71043 69.797102 
L 1580.500236 128.16 
L 1576.373744 128.16 
L 1571.288239 84.48288 
L 1571.288239 128.16 
L 1567.991977 128.16 
L 1567.991977 17.28 
z
" clip-path="url(#p5473fe0984)" style="fill: #bd2e1f"/>
   </g>
   <g id="patch_106">
    <path d="M 1581.158565 17.28 
L 1584.253023 17.28 
L 1587.416531 99.121132 
L 1590.574924 17.28 
L 1593.666824 17.28 
L 1589.247631 128.16 
L 1585.577758 128.16 
L 1581.158565 17.28 
z
" clip-path="url(#p5473fe0984)" style="fill: #21599c"/>
   </g>
   <g id="patch_107">
    <path d="M 1594.325153 17.28 
L 1597.621415 17.28 
L 1597.621415 57.749061 
L 1602.372635 17.28 
L 1606.200464 17.28 
L 1600.043606 69.797102 
L 1606.833412 128.16 
L 1602.70692 128.16 
L 1597.621415 84.48288 
L 1597.621415 128.16 
L 1594.325153 128.16 
L 1594.325153 17.28 
z
" clip-path="url(#p5473fe0984)" style="fill: #bd2e1f"/>
   </g>
   <g id="patch_108">
    <path d="M 1607.491741 17.28 
L 1610.788003 17.28 
L 1610.788003 57.749061 
L 1615.539223 17.28 
L 1619.367052 17.28 
L 1613.210194 69.797102 
L 1620 128.16 
L 1615.873508 128.16 
L 1610.788003 84.48288 
L 1610.788003 128.16 
L 1607.491741 128.16 
L 1607.491741 17.28 
z
" clip-path="url(#p5473fe0984)" style="fill: #bd2e1f"/>
   </g>
   <g id="matplotlib.axis_1">
    <g id="xtick_1">
     <g id="line2d_2">
      <defs>
       <path id="md3b4070fa1" d="M 0 0 
L 0 3.5 
" style="stroke: #000000; stroke-width: 0.8"/>
      </defs>
      <g>
       <use xlink:href="#md3b4070fa1" x="231.254129" y="128.16" style="stroke: #000000; stroke-width: 0.8"/>
      </g>
     </g>
     <g id="text_1">
      <!-- 0 -->
      <g transform="translate(228.072879 142.758438) scale(0.1 -0.1)">
       <defs>
        <path id="DejaVuSans-30" d="M 2034 4250 
Q 1547 4250 1301 3770 
Q 1056 3291 1056 2328 
Q 1056 1369 1301 889 
Q 1547 409 2034 409 
Q 2525 409 2770 889 
Q 3016 1369 3016 2328 
Q 3016 3291 2770 3770 
Q 2525 4250 2034 4250 
z
M 2034 4750 
Q 2819 4750 3233 4129 
Q 3647 3509 3647 2328 
Q 3647 1150 3233 529 
Q 2819 -91 2034 -91 
Q 1250 -91 836 529 
Q 422 1150 422 2328 
Q 422 3509 836 4129 
Q 1250 4750 2034 4750 
z
" transform="scale(0.015625)"/>
       </defs>
       <use xlink:href="#DejaVuSans-30"/>
      </g>
     </g>
    </g>
    <g id="xtick_2">
     <g id="line2d_3">
      <g>
       <use xlink:href="#md3b4070fa1" x="494.58589" y="128.16" style="stroke: #000000; stroke-width: 0.8"/>
      </g>
     </g>
     <g id="text_2">
      <!-- 20 -->
      <g transform="translate(488.22339 142.758438) scale(0.1 -0.1)">
       <defs>
        <path id="DejaVuSans-32" d="M 1228 531 
L 3431 531 
L 3431 0 
L 469 0 
L 469 531 
Q 828 903 1448 1529 
Q 2069 2156 2228 2338 
Q 2531 2678 2651 2914 
Q 2772 3150 2772 3378 
Q 2772 3750 2511 3984 
Q 2250 4219 1831 4219 
Q 1534 4219 1204 4116 
Q 875 4013 500 3803 
L 500 4441 
Q 881 4594 1212 4672 
Q 1544 4750 1819 4750 
Q 2544 4750 2975 4387 
Q 3406 4025 3406 3419 
Q 3406 3131 3298 2873 
Q 3191 2616 2906 2266 
Q 2828 2175 2409 1742 
Q 1991 1309 1228 531 
z
" transform="scale(0.015625)"/>
       </defs>
       <use xlink:href="#DejaVuSans-32"/>
       <use xlink:href="#DejaVuSans-30" x="63.623047"/>
      </g>
     </g>
    </g>
    <g id="xtick_3">
     <g id="line2d_4">
      <g>
       <use xlink:href="#md3b4070fa1" x="757.91765" y="128.16" style="stroke: #000000; stroke-width: 0.8"/>
      </g>
     </g>
     <g id="text_3">
      <!-- 40 -->
      <g transform="translate(751.55515 142.758438) scale(0.1 -0.1)">
       <defs>
        <path id="DejaVuSans-34" d="M 2419 4116 
L 825 1625 
L 2419 1625 
L 2419 4116 
z
M 2253 4666 
L 3047 4666 
L 3047 1625 
L 3713 1625 
L 3713 1100 
L 3047 1100 
L 3047 0 
L 2419 0 
L 2419 1100 
L 313 1100 
L 313 1709 
L 2253 4666 
z
" transform="scale(0.015625)"/>
       </defs>
       <use xlink:href="#DejaVuSans-34"/>
       <use xlink:href="#DejaVuSans-30" x="63.623047"/>
      </g>
     </g>
    </g>
    <g id="xtick_4">
     <g id="line2d_5">
      <g>
       <use xlink:href="#md3b4070fa1" x="1021.24941" y="128.16" style="stroke: #000000; stroke-width: 0.8"/>
      </g>
     </g>
     <g id="text_4">
      <!-- 60 -->
      <g transform="translate(1014.88691 142.758438) scale(0.1 -0.1)">
       <defs>
        <path id="DejaVuSans-36" d="M 2113 2584 
Q 1688 2584 1439 2293 
Q 1191 2003 1191 1497 
Q 1191 994 1439 701 
Q 1688 409 2113 409 
Q 2538 409 2786 701 
Q 3034 994 3034 1497 
Q 3034 2003 2786 2293 
Q 2538 2584 2113 2584 
z
M 3366 4563 
L 3366 3988 
Q 3128 4100 2886 4159 
Q 2644 4219 2406 4219 
Q 1781 4219 1451 3797 
Q 1122 3375 1075 2522 
Q 1259 2794 1537 2939 
Q 1816 3084 2150 3084 
Q 2853 3084 3261 2657 
Q 3669 2231 3669 1497 
Q 3669 778 3244 343 
Q 2819 -91 2113 -91 
Q 1303 -91 875 529 
Q 447 1150 447 2328 
Q 447 3434 972 4092 
Q 1497 4750 2381 4750 
Q 2619 4750 2861 4703 
Q 3103 4656 3366 4563 
z
" transform="scale(0.015625)"/>
       </defs>
       <use xlink:href="#DejaVuSans-36"/>
       <use xlink:href="#DejaVuSans-30" x="63.623047"/>
      </g>
     </g>
    </g>
    <g id="xtick_5">
     <g id="line2d_6">
      <g>
       <use xlink:href="#md3b4070fa1" x="1284.58117" y="128.16" style="stroke: #000000; stroke-width: 0.8"/>
      </g>
     </g>
     <g id="text_5">
      <!-- 80 -->
      <g transform="translate(1278.21867 142.758438) scale(0.1 -0.1)">
       <defs>
        <path id="DejaVuSans-38" d="M 2034 2216 
Q 1584 2216 1326 1975 
Q 1069 1734 1069 1313 
Q 1069 891 1326 650 
Q 1584 409 2034 409 
Q 2484 409 2743 651 
Q 3003 894 3003 1313 
Q 3003 1734 2745 1975 
Q 2488 2216 2034 2216 
z
M 1403 2484 
Q 997 2584 770 2862 
Q 544 3141 544 3541 
Q 544 4100 942 4425 
Q 1341 4750 2034 4750 
Q 2731 4750 3128 4425 
Q 3525 4100 3525 3541 
Q 3525 3141 3298 2862 
Q 3072 2584 2669 2484 
Q 3125 2378 3379 2068 
Q 3634 1759 3634 1313 
Q 3634 634 3220 271 
Q 2806 -91 2034 -91 
Q 1263 -91 848 271 
Q 434 634 434 1313 
Q 434 1759 690 2068 
Q 947 2378 1403 2484 
z
M 1172 3481 
Q 1172 3119 1398 2916 
Q 1625 2713 2034 2713 
Q 2441 2713 2670 2916 
Q 2900 3119 2900 3481 
Q 2900 3844 2670 4047 
Q 2441 4250 2034 4250 
Q 1625 4250 1398 4047 
Q 1172 3844 1172 3481 
z
" transform="scale(0.015625)"/>
       </defs>
       <use xlink:href="#DejaVuSans-38"/>
       <use xlink:href="#DejaVuSans-30" x="63.623047"/>
      </g>
     </g>
    </g>
    <g id="xtick_6">
     <g id="line2d_7">
      <g>
       <use xlink:href="#md3b4070fa1" x="1547.912931" y="128.16" style="stroke: #000000; stroke-width: 0.8"/>
      </g>
     </g>
     <g id="text_6">
      <!-- 100 -->
      <g transform="translate(1538.369181 142.758438) scale(0.1 -0.1)">
       <defs>
        <path id="DejaVuSans-31" d="M 794 531 
L 1825 531 
L 1825 4091 
L 703 3866 
L 703 4441 
L 1819 4666 
L 2450 4666 
L 2450 531 
L 3481 531 
L 3481 0 
L 794 0 
L 794 531 
z
" transform="scale(0.015625)"/>
       </defs>
       <use xlink:href="#DejaVuSans-31"/>
       <use xlink:href="#DejaVuSans-30" x="63.623047"/>
       <use xlink:href="#DejaVuSans-30" x="127.246094"/>
      </g>
     </g>
    </g>
   </g>
   <g id="matplotlib.axis_2">
    <g id="ytick_1">
     <g id="line2d_8">
      <defs>
       <path id="maf08ab10d4" d="M 0 0 
L -3.5 0 
" style="stroke: #000000; stroke-width: 0.8"/>
      </defs>
      <g>
       <use xlink:href="#maf08ab10d4" x="225" y="128.16" style="stroke: #000000; stroke-width: 0.8"/>
      </g>
     </g>
     <g id="text_7">
      <!-- 0.0 -->
      <g transform="translate(202.096875 131.959219) scale(0.1 -0.1)">
       <defs>
        <path id="DejaVuSans-2e" d="M 684 794 
L 1344 794 
L 1344 0 
L 684 0 
L 684 794 
z
" transform="scale(0.015625)"/>
       </defs>
       <use xlink:href="#DejaVuSans-30"/>
       <use xlink:href="#DejaVuSans-2e" x="63.623047"/>
       <use xlink:href="#DejaVuSans-30" x="95.410156"/>
      </g>
     </g>
    </g>
    <g id="ytick_2">
     <g id="line2d_9">
      <g>
       <use xlink:href="#maf08ab10d4" x="225" y="100.44" style="stroke: #000000; stroke-width: 0.8"/>
      </g>
     </g>
     <g id="text_8">
      <!-- 0.5 -->
      <g transform="translate(202.096875 104.239219) scale(0.1 -0.1)">
       <defs>
        <path id="DejaVuSans-35" d="M 691 4666 
L 3169 4666 
L 3169 4134 
L 1269 4134 
L 1269 2991 
Q 1406 3038 1543 3061 
Q 1681 3084 1819 3084 
Q 2600 3084 3056 2656 
Q 3513 2228 3513 1497 
Q 3513 744 3044 326 
Q 2575 -91 1722 -91 
Q 1428 -91 1123 -41 
Q 819 9 494 109 
L 494 744 
Q 775 591 1075 516 
Q 1375 441 1709 441 
Q 2250 441 2565 725 
Q 2881 1009 2881 1497 
Q 2881 1984 2565 2268 
Q 2250 2553 1709 2553 
Q 1456 2553 1204 2497 
Q 953 2441 691 2322 
L 691 4666 
z
" transform="scale(0.015625)"/>
       </defs>
       <use xlink:href="#DejaVuSans-30"/>
       <use xlink:href="#DejaVuSans-2e" x="63.623047"/>
       <use xlink:href="#DejaVuSans-35" x="95.410156"/>
      </g>
     </g>
    </g>
    <g id="ytick_3">
     <g id="line2d_10">
      <g>
       <use xlink:href="#maf08ab10d4" x="225" y="72.72" style="stroke: #000000; stroke-width: 0.8"/>
      </g>
     </g>
     <g id="text_9">
      <!-- 1.0 -->
      <g transform="translate(202.096875 76.519219) scale(0.1 -0.1)">
       <use xlink:href="#DejaVuSans-31"/>
       <use xlink:href="#DejaVuSans-2e" x="63.623047"/>
       <use xlink:href="#DejaVuSans-30" x="95.410156"/>
      </g>
     </g>
    </g>
    <g id="ytick_4">
     <g id="line2d_11">
      <g>
       <use xlink:href="#maf08ab10d4" x="225" y="45" style="stroke: #000000; stroke-width: 0.8"/>
      </g>
     </g>
     <g id="text_10">
      <!-- 1.5 -->
      <g transform="translate(202.096875 48.799219) scale(0.1 -0.1)">
       <use xlink:href="#DejaVuSans-31"/>
       <use xlink:href="#DejaVuSans-2e" x="63.623047"/>
       <use xlink:href="#DejaVuSans-35" x="95.410156"/>
      </g>
     </g>
    </g>
    <g id="ytick_5">
     <g id="line2d_12">
      <g>
       <use xlink:href="#maf08ab10d4" x="225" y="17.28" style="stroke: #000000; stroke-width: 0.8"/>
      </g>
     </g>
     <g id="text_11">
      <!-- 2.0 -->
      <g transform="translate(202.096875 21.079219) scale(0.1 -0.1)">
       <use xlink:href="#DejaVuSans-32"/>
       <use xlink:href="#DejaVuSans-2e" x="63.623047"/>
       <use xlink:href="#DejaVuSans-30" x="95.410156"/>
      </g>
     </g>
    </g>
   </g>
  </g>
 </g>
 <defs>
  <clipPath id="p5473fe0984">
   <rect x="225" y="17.28" width="1395" height="110.88"/>
  </clipPath>
 </defs>
</svg>
