<?xml version="1.0" encoding="utf-8" standalone="no"?>
<!DOCTYPE svg PUBLIC "-//W3C//DTD SVG 1.1//EN"
  "http://www.w3.org/Graphics/SVG/1.1/DTD/svg11.dtd">
<svg xmlns:xlink="http://www.w3.org/1999/xlink" width="1800pt" height="144pt" viewBox="0 0 1800 144" xmlns="http://www.w3.org/2000/svg" version="1.1">
 <metadata>
  <rdf:RDF xmlns:dc="http://purl.org/dc/elements/1.1/" xmlns:cc="http://creativecommons.org/ns#" xmlns:rdf="http://www.w3.org/1999/02/22-rdf-syntax-ns#">
   <cc:Work>
    <dc:type rdf:resource="http://purl.org/dc/dcmitype/StillImage"/>
    <dc:date>2025-05-09T21:10:16.054532</dc:date>
    <dc:format>image/svg+xml</dc:format>
    <dc:creator>
     <cc:Agent>
      <dc:title>Matplotlib v3.8.0, https://matplotlib.org/</dc:title>
     </cc:Agent>
    </dc:creator>
   </cc:Work>
  </rdf:RDF>
 </metadata>
 <defs>
  <style type="text/css">*{stroke-linejoin: round; stroke-linecap: butt}</style>
 </defs>
 <g id="figure_1">
  <g id="patch_1">
   <path d="M 0 144 
L 1800 144 
L 1800 0 
L 0 0 
z
" style="fill: #ffffff"/>
  </g>
  <g id="axes_1">
   <g id="patch_2">
    <path d="M 225 128.16 
L 1620 128.16 
L 1620 17.28 
L 225 17.28 
z
" style="fill: #ffffff"/>
   </g>
   <g id="line2d_1">
    <path d="M 225 128.16 
L 1620 128.16 
" clip-path="url(#p50480f4f71)" style="fill: none; stroke: #000000; stroke-width: 1.5; stroke-linecap: square"/>
   </g>
   <g id="patch_3">
    <path d="M 225 17.28 
L 230.588792 17.28 
L 234.465537 76.617197 
L 238.367835 17.28 
L 243.945675 17.28 
L 243.945675 128.16 
L 239.795149 128.16 
L 239.795149 47.055534 
L 235.870948 106.844235 
L 233.085678 106.844235 
L 229.161478 47.055534 
L 229.161478 128.16 
L 225 128.16 
L 225 17.28 
z
" clip-path="url(#p50480f4f71)" style="fill: #21599c"/>
   </g>
   <g id="patch_4">
    <path d="M 244.942816 17.28 
L 249.93551 17.28 
L 249.93551 57.749061 
L 257.131962 17.28 
L 262.929795 17.28 
L 253.604289 69.797102 
L 263.888492 128.16 
L 257.638286 128.16 
L 249.93551 84.48288 
L 249.93551 128.16 
L 244.942816 128.16 
L 244.942816 17.28 
z
" clip-path="url(#p50480f4f71)" style="fill: #bd2e1f"/>
   </g>
   <g id="patch_5">
    <path d="M 264.885633 17.28 
L 269.878326 17.28 
L 269.878326 57.749061 
L 277.074778 17.28 
L 282.872611 17.28 
L 273.547106 69.797102 
L 283.831308 128.16 
L 277.581103 128.16 
L 269.878326 84.48288 
L 269.878326 128.16 
L 264.885633 128.16 
L 264.885633 17.28 
z
" clip-path="url(#p50480f4f71)" style="fill: #bd2e1f"/>
   </g>
   <g id="patch_6">
    <path d="M 284.828449 17.28 
L 291.703757 17.28 
L 291.703757 106.559074 
L 303.774124 106.559074 
L 303.774124 128.16 
L 284.828449 128.16 
L 284.828449 17.28 
z
" clip-path="url(#p50480f4f71)" style="fill: #21599c"/>
   </g>
   <g id="patch_7">
    <path d="M 304.771265 17.28 
L 309.763959 17.28 
L 309.763959 57.749061 
L 316.960411 17.28 
L 322.758244 17.28 
L 313.432738 69.797102 
L 323.716941 128.16 
L 317.466735 128.16 
L 309.763959 84.48288 
L 309.763959 128.16 
L 304.771265 128.16 
L 304.771265 17.28 
z
" clip-path="url(#p50480f4f71)" style="fill: #bd2e1f"/>
   </g>
   <g id="patch_8">
    <path d="M 324.714081 17.28 
L 331.58939 17.28 
L 331.58939 106.559074 
L 343.659757 106.559074 
L 343.659757 128.16 
L 324.714081 128.16 
L 324.714081 17.28 
z
" clip-path="url(#p50480f4f71)" style="fill: #21599c"/>
   </g>
   <g id="patch_9">
    <path d="M 362.022909 22.570907 
L 362.022909 45.200413 
Q 360.047043 41.260863 358.163796 39.268184 
Q 356.285694 37.252601 354.613411 37.252601 
Q 352.395707 37.252601 351.330592 39.978219 
Q 350.270622 42.680934 350.270622 48.407023 
Q 350.270622 52.713043 350.985844 55.118 
Q 351.701067 57.500054 353.584314 59.217881 
L 356.218802 61.57703 
Q 360.22199 65.173014 361.909709 72.479504 
Q 363.602573 79.76309 363.602573 93.230853 
Q 363.602573 110.890114 361.245941 119.525057 
Q 358.889309 128.16 354.047408 128.16 
Q 351.767958 128.16 349.467926 126.21313 
Q 347.167894 124.289163 344.867863 120.48704 
L 344.867863 97.239116 
Q 347.167894 102.667449 349.313562 105.438876 
Q 351.459229 108.187399 353.455677 108.187399 
Q 355.482998 108.187399 356.558404 105.186928 
Q 357.633811 102.163553 357.633811 96.574889 
Q 357.633811 91.581739 356.903152 88.856121 
Q 356.172493 86.130502 353.985662 83.977492 
L 351.587866 81.618343 
Q 347.986027 78.18269 346.318889 70.67006 
Q 344.656898 63.15743 344.656898 50.422607 
Q 344.656898 34.458269 346.972366 25.869134 
Q 349.287834 17.28 353.630623 17.28 
Q 355.611635 17.28 357.700702 18.608453 
Q 359.789769 19.936906 362.022909 22.570907 
z
" clip-path="url(#p50480f4f71)" style="fill: #40ba47"/>
   </g>
   <g id="patch_10">
    <path d="M 364.599714 17.28 
L 369.592408 17.28 
L 369.592408 57.749061 
L 376.78886 17.28 
L 382.586693 17.28 
L 373.261187 69.797102 
L 383.54539 128.16 
L 377.295184 128.16 
L 369.592408 84.48288 
L 369.592408 128.16 
L 364.599714 128.16 
L 364.599714 17.28 
z
" clip-path="url(#p50480f4f71)" style="fill: #bd2e1f"/>
   </g>
   <g id="patch_11">
    <path d="M 384.54253 17.28 
L 389.780452 17.28 
L 394.011388 56.798526 
L 398.238343 17.28 
L 403.488206 17.28 
L 396.411439 81.441166 
L 396.411439 128.16 
L 391.623278 128.16 
L 391.623278 81.441166 
L 384.54253 17.28 
z
" clip-path="url(#p50480f4f71)" style="fill: #177875"/>
   </g>
   <g id="patch_12">
    <path d="M 404.682519 17.28 
L 423.23385 17.28 
L 423.23385 38.904689 
L 411.557827 38.904689 
L 411.557827 59.531316 
L 422.542319 59.531316 
L 422.542319 81.156005 
L 411.557827 81.156005 
L 411.557827 128.16 
L 404.682519 128.16 
L 404.682519 17.28 
z
" clip-path="url(#p50480f4f71)" style="fill: #21599c"/>
   </g>
   <g id="patch_13">
    <path d="M 443.373838 118.127891 
Q 441.463136 123.143945 439.40807 125.663425 
Q 437.353003 128.16 435.162064 128.16 
Q 430.211222 128.16 427.319693 113.226358 
Q 424.428163 98.292716 424.428163 72.754357 
Q 424.428163 46.91824 427.370645 32.09912 
Q 430.317372 17.28 435.442301 17.28 
Q 437.416693 17.28 439.225491 19.295584 
Q 441.038536 21.288263 442.643526 25.227812 
L 442.643526 47.330518 
Q 440.987583 42.268655 439.348625 39.77208 
Q 437.709667 37.252601 436.062217 37.252601 
Q 433.013586 37.252601 431.36189 46.460153 
Q 429.710194 55.644801 429.710194 72.754357 
Q 429.710194 89.703582 431.302445 98.956943 
Q 432.894697 108.187399 435.824441 108.187399 
Q 436.62269 108.187399 437.306297 107.660599 
Q 437.989904 107.110894 438.533392 105.965677 
L 438.533392 85.214328 
L 435.412579 85.214328 
L 435.412579 66.73051 
L 443.373838 66.73051 
L 443.373838 118.127891 
z
" clip-path="url(#p50480f4f71)" style="fill: #787800"/>
   </g>
   <g id="patch_14">
    <path d="M 454.349035 111.578719 
L 453.978016 111.578719 
Q 449.427106 111.578719 446.897069 99.152512 
Q 444.370979 86.706798 444.370979 64.526897 
Q 444.370979 42.38601 446.893122 29.842759 
Q 449.415265 17.28 453.843817 17.28 
Q 458.319733 17.28 460.818194 29.725714 
Q 463.316655 42.151921 463.316655 64.526897 
Q 463.316655 79.879212 461.990457 90.978916 
Q 460.66426 102.078621 458.173693 107.677241 
L 461.883888 128.16 
L 457.356661 128.16 
L 454.349035 111.578719 
z
M 453.843817 34.290443 
Q 451.672958 34.290443 450.477013 42.210443 
Q 449.281067 50.130443 449.281067 64.526897 
Q 449.281067 79.157438 450.449383 86.940887 
Q 451.621647 94.704828 453.843817 94.704828 
Q 456.026517 94.704828 457.222462 86.784828 
Q 458.418408 78.84532 458.418408 64.526897 
Q 458.418408 50.130443 457.222462 42.210443 
Q 456.026517 34.290443 453.843817 34.290443 
z
" clip-path="url(#p50480f4f71)" style="fill: #40ba47"/>
   </g>
   <g id="patch_15">
    <path d="M 464.313796 17.28 
L 471.189104 17.28 
L 471.189104 106.559074 
L 483.259471 106.559074 
L 483.259471 128.16 
L 464.313796 128.16 
L 464.313796 17.28 
z
" clip-path="url(#p50480f4f71)" style="fill: #21599c"/>
   </g>
   <g id="patch_16">
    <path d="M 484.256612 17.28 
L 489.249306 17.28 
L 489.249306 57.749061 
L 496.445757 17.28 
L 502.243591 17.28 
L 492.918085 69.797102 
L 503.202287 128.16 
L 496.952082 128.16 
L 489.249306 84.48288 
L 489.249306 128.16 
L 484.256612 128.16 
L 484.256612 17.28 
z
" clip-path="url(#p50480f4f71)" style="fill: #bd2e1f"/>
   </g>
   <g id="patch_17">
    <path d="M 504.199428 17.28 
L 509.192122 17.28 
L 509.192122 57.749061 
L 516.388574 17.28 
L 522.186407 17.28 
L 512.860901 69.797102 
L 523.145104 128.16 
L 516.894898 128.16 
L 509.192122 84.48288 
L 509.192122 128.16 
L 504.199428 128.16 
L 504.199428 17.28 
z
" clip-path="url(#p50480f4f71)" style="fill: #bd2e1f"/>
   </g>
   <g id="patch_18">
    <path d="M 534.1203 111.578719 
L 533.749281 111.578719 
Q 529.198372 111.578719 526.668335 99.152512 
Q 524.142244 86.706798 524.142244 64.526897 
Q 524.142244 42.38601 526.664388 29.842759 
Q 529.186531 17.28 533.615082 17.28 
Q 538.090998 17.28 540.589459 29.725714 
Q 543.08792 42.151921 543.08792 64.526897 
Q 543.08792 79.879212 541.761723 90.978916 
Q 540.435525 102.078621 537.944958 107.677241 
L 541.655153 128.16 
L 537.127926 128.16 
L 534.1203 111.578719 
z
M 533.615082 34.290443 
Q 531.444224 34.290443 530.248278 42.210443 
Q 529.052332 50.130443 529.052332 64.526897 
Q 529.052332 79.157438 530.220649 86.940887 
Q 531.392912 94.704828 533.615082 94.704828 
Q 535.797782 94.704828 536.993728 86.784828 
Q 538.189673 78.84532 538.189673 64.526897 
Q 538.189673 50.130443 536.993728 42.210443 
Q 535.797782 34.290443 533.615082 34.290443 
z
" clip-path="url(#p50480f4f71)" style="fill: #40ba47"/>
   </g>
   <g id="patch_19">
    <path d="M 549.27678 38.904689 
L 549.27678 106.559074 
L 551.136822 106.559074 
Q 554.317452 106.559074 555.996237 97.861672 
Q 557.679338 89.164269 557.679338 72.601183 
Q 557.679338 56.13315 556.004868 47.530802 
Q 554.334714 38.904689 551.136822 38.904689 
L 549.27678 38.904689 
z
M 544.085061 17.28 
L 549.557297 17.28 
Q 554.144826 17.28 556.388961 20.892036 
Q 558.633095 24.480309 560.238515 33.106421 
Q 561.654046 40.615654 562.340233 50.429936 
Q 563.030736 60.220454 563.030736 72.601183 
Q 563.030736 85.172019 562.340233 95.010064 
Q 561.654046 104.84811 560.238515 112.333579 
Q 558.620148 120.959691 556.354436 124.571727 
Q 554.088723 128.16 549.557297 128.16 
L 544.085061 128.16 
L 544.085061 17.28 
z
" clip-path="url(#p50480f4f71)" style="fill: #6b296b"/>
   </g>
   <g id="patch_20">
    <path d="M 570.063061 17.28 
L 576.938369 17.28 
L 576.938369 128.16 
L 570.063061 128.16 
L 570.063061 17.28 
z
" clip-path="url(#p50480f4f71)" style="fill: #21599c"/>
   </g>
   <g id="patch_21">
    <path d="M 583.970693 17.28 
L 602.522024 17.28 
L 602.522024 38.904689 
L 590.846002 38.904689 
L 590.846002 59.531316 
L 601.830493 59.531316 
L 601.830493 81.156005 
L 590.846002 81.156005 
L 590.846002 106.559074 
L 602.916369 106.559074 
L 602.916369 128.16 
L 583.970693 128.16 
L 583.970693 17.28 
z
" clip-path="url(#p50480f4f71)" style="fill: #6b296b"/>
   </g>
   <g id="patch_22">
    <path d="M 603.91351 17.28 
L 609.999145 17.28 
L 617.688887 93.322863 
L 617.688887 17.28 
L 622.859185 17.28 
L 622.859185 128.16 
L 616.769018 128.16 
L 609.079276 52.117137 
L 609.079276 128.16 
L 603.91351 128.16 
L 603.91351 17.28 
z
" clip-path="url(#p50480f4f71)" style="fill: #40ba47"/>
   </g>
   <g id="patch_23">
    <path d="M 623.856326 17.28 
L 630.731634 17.28 
L 630.731634 106.559074 
L 642.802001 106.559074 
L 642.802001 128.16 
L 623.856326 128.16 
L 623.856326 17.28 
z
" clip-path="url(#p50480f4f71)" style="fill: #21599c"/>
   </g>
   <g id="patch_24">
    <path d="M 661.165154 22.570907 
L 661.165154 45.200413 
Q 659.189288 41.260863 657.30604 39.268184 
Q 655.427938 37.252601 653.755656 37.252601 
Q 651.537952 37.252601 650.472836 39.978219 
Q 649.412866 42.680934 649.412866 48.407023 
Q 649.412866 52.713043 650.128089 55.118 
Q 650.843311 57.500054 652.726559 59.217881 
L 655.361047 61.57703 
Q 659.364234 65.173014 661.051953 72.479504 
Q 662.744818 79.76309 662.744818 93.230853 
Q 662.744818 110.890114 660.388186 119.525057 
Q 658.031554 128.16 653.189652 128.16 
Q 650.910202 128.16 648.610171 126.21313 
Q 646.310139 124.289163 644.010107 120.48704 
L 644.010107 97.239116 
Q 646.310139 102.667449 648.455806 105.438876 
Q 650.601473 108.187399 652.597921 108.187399 
Q 654.625243 108.187399 655.700649 105.186928 
Q 656.776055 102.163553 656.776055 96.574889 
Q 656.776055 91.581739 656.045396 88.856121 
Q 655.314737 86.130502 653.127906 83.977492 
L 650.73011 81.618343 
Q 647.128271 78.18269 645.461134 70.67006 
Q 643.799142 63.15743 643.799142 50.422607 
Q 643.799142 34.458269 646.11461 25.869134 
Q 648.430079 17.28 652.772868 17.28 
Q 654.75388 17.28 656.842947 18.608453 
Q 658.932013 19.936906 661.165154 22.570907 
z
" clip-path="url(#p50480f4f71)" style="fill: #40ba47"/>
   </g>
   <g id="patch_25">
    <path d="M 669.777142 17.28 
L 676.652451 17.28 
L 676.652451 128.16 
L 669.777142 128.16 
L 669.777142 17.28 
z
" clip-path="url(#p50480f4f71)" style="fill: #21599c"/>
   </g>
   <g id="patch_26">
    <path d="M 688.876494 38.904689 
L 688.876494 106.559074 
L 690.736537 106.559074 
Q 693.917166 106.559074 695.595951 97.861672 
Q 697.279052 89.164269 697.279052 72.601183 
Q 697.279052 56.13315 695.604583 47.530802 
Q 693.934428 38.904689 690.736537 38.904689 
L 688.876494 38.904689 
z
M 683.684775 17.28 
L 689.157011 17.28 
Q 693.74454 17.28 695.988675 20.892036 
Q 698.232809 24.480309 699.838229 33.106421 
Q 701.25376 40.615654 701.939947 50.429936 
Q 702.63045 60.220454 702.63045 72.601183 
Q 702.63045 85.172019 701.939947 95.010064 
Q 701.25376 104.84811 699.838229 112.333579 
Q 698.219863 120.959691 695.95415 124.571727 
Q 693.688437 128.16 689.157011 128.16 
L 683.684775 128.16 
L 683.684775 17.28 
z
" clip-path="url(#p50480f4f71)" style="fill: #6b296b"/>
   </g>
   <g id="patch_27">
    <path d="M 703.627591 17.28 
L 722.178922 17.28 
L 722.178922 38.904689 
L 710.5029 38.904689 
L 710.5029 59.531316 
L 721.487391 59.531316 
L 721.487391 81.156005 
L 710.5029 81.156005 
L 710.5029 106.559074 
L 722.573267 106.559074 
L 722.573267 128.16 
L 703.627591 128.16 
L 703.627591 17.28 
z
" clip-path="url(#p50480f4f71)" style="fill: #6b296b"/>
   </g>
   <g id="patch_28">
    <path d="M 723.570407 17.28 
L 729.159199 17.28 
L 733.035944 76.617197 
L 736.938242 17.28 
L 742.516083 17.28 
L 742.516083 128.16 
L 738.365556 128.16 
L 738.365556 47.055534 
L 734.441356 106.844235 
L 731.656086 106.844235 
L 727.731885 47.055534 
L 727.731885 128.16 
L 723.570407 128.16 
L 723.570407 17.28 
z
" clip-path="url(#p50480f4f71)" style="fill: #21599c"/>
   </g>
   <g id="patch_29">
    <path d="M 743.513224 17.28 
L 748.505918 17.28 
L 748.505918 57.749061 
L 755.702369 17.28 
L 761.500202 17.28 
L 752.174697 69.797102 
L 762.458899 128.16 
L 756.208694 128.16 
L 748.505918 84.48288 
L 748.505918 128.16 
L 743.513224 128.16 
L 743.513224 17.28 
z
" clip-path="url(#p50480f4f71)" style="fill: #bd2e1f"/>
   </g>
   <g id="patch_30">
    <path d="M 763.45604 17.28 
L 769.541676 17.28 
L 777.231418 93.322863 
L 777.231418 17.28 
L 782.401716 17.28 
L 782.401716 128.16 
L 776.311549 128.16 
L 768.621807 52.117137 
L 768.621807 128.16 
L 763.45604 128.16 
L 763.45604 17.28 
z
" clip-path="url(#p50480f4f71)" style="fill: #40ba47"/>
   </g>
   <g id="patch_31">
    <path d="M 783.596029 17.28 
L 802.14736 17.28 
L 802.14736 38.904689 
L 790.471337 38.904689 
L 790.471337 59.531316 
L 801.455828 59.531316 
L 801.455828 81.156005 
L 790.471337 81.156005 
L 790.471337 128.16 
L 783.596029 128.16 
L 783.596029 17.28 
z
" clip-path="url(#p50480f4f71)" style="fill: #21599c"/>
   </g>
   <g id="patch_32">
    <path d="M 803.538845 17.28 
L 822.090176 17.28 
L 822.090176 38.904689 
L 810.414153 38.904689 
L 810.414153 59.531316 
L 821.398644 59.531316 
L 821.398644 81.156005 
L 810.414153 81.156005 
L 810.414153 128.16 
L 803.538845 128.16 
L 803.538845 17.28 
z
" clip-path="url(#p50480f4f71)" style="fill: #21599c"/>
   </g>
   <g id="patch_33">
    <path d="M 842.230164 118.127891 
Q 840.319462 123.143945 838.264395 125.663425 
Q 836.209329 128.16 834.01839 128.16 
Q 829.067548 128.16 826.176019 113.226358 
Q 823.284489 98.292716 823.284489 72.754357 
Q 823.284489 46.91824 826.226971 32.09912 
Q 829.173698 17.28 834.298627 17.28 
Q 836.273019 17.28 838.081817 19.295584 
Q 839.894862 21.288263 841.499851 25.227812 
L 841.499851 47.330518 
Q 839.843909 42.268655 838.204951 39.77208 
Q 836.565993 37.252601 834.918543 37.252601 
Q 831.869912 37.252601 830.218216 46.460153 
Q 828.566519 55.644801 828.566519 72.754357 
Q 828.566519 89.703582 830.158771 98.956943 
Q 831.751023 108.187399 834.680767 108.187399 
Q 835.479016 108.187399 836.162623 107.660599 
Q 836.84623 107.110894 837.389718 105.965677 
L 837.389718 85.214328 
L 834.268905 85.214328 
L 834.268905 66.73051 
L 842.230164 66.73051 
L 842.230164 118.127891 
z
" clip-path="url(#p50480f4f71)" style="fill: #787800"/>
   </g>
   <g id="patch_34">
    <path d="M 862.172981 118.127891 
Q 860.262278 123.143945 858.207212 125.663425 
Q 856.152145 128.16 853.961207 128.16 
Q 849.010364 128.16 846.118835 113.226358 
Q 843.227305 98.292716 843.227305 72.754357 
Q 843.227305 46.91824 846.169787 32.09912 
Q 849.116515 17.28 854.241443 17.28 
Q 856.215835 17.28 858.024634 19.295584 
Q 859.837678 21.288263 861.442668 25.227812 
L 861.442668 47.330518 
Q 859.786726 42.268655 858.147768 39.77208 
Q 856.50881 37.252601 854.86136 37.252601 
Q 851.812728 37.252601 850.161032 46.460153 
Q 848.509336 55.644801 848.509336 72.754357 
Q 848.509336 89.703582 850.101588 98.956943 
Q 851.69384 108.187399 854.623583 108.187399 
Q 855.421832 108.187399 856.105439 107.660599 
Q 856.789046 107.110894 857.332535 105.965677 
L 857.332535 85.214328 
L 854.211721 85.214328 
L 854.211721 66.73051 
L 862.172981 66.73051 
L 862.172981 118.127891 
z
" clip-path="url(#p50480f4f71)" style="fill: #787800"/>
   </g>
   <g id="patch_35">
    <path d="M 868.361841 38.904689 
L 868.361841 106.559074 
L 870.221883 106.559074 
Q 873.402513 106.559074 875.081298 97.861672 
Q 876.764399 89.164269 876.764399 72.601183 
Q 876.764399 56.13315 875.089929 47.530802 
Q 873.419775 38.904689 870.221883 38.904689 
L 868.361841 38.904689 
z
M 863.170122 17.28 
L 868.642358 17.28 
Q 873.229887 17.28 875.474021 20.892036 
Q 877.718156 24.480309 879.323576 33.106421 
Q 880.739107 40.615654 881.425294 50.429936 
Q 882.115797 60.220454 882.115797 72.601183 
Q 882.115797 85.172019 881.425294 95.010064 
Q 880.739107 104.84811 879.323576 112.333579 
Q 877.705209 120.959691 875.439496 124.571727 
Q 873.173783 128.16 868.642358 128.16 
L 863.170122 128.16 
L 863.170122 17.28 
z
" clip-path="url(#p50480f4f71)" style="fill: #6b296b"/>
   </g>
   <g id="patch_36">
    <path d="M 888.304657 38.904689 
L 888.304657 106.559074 
L 890.164699 106.559074 
Q 893.345329 106.559074 895.024114 97.861672 
Q 896.707215 89.164269 896.707215 72.601183 
Q 896.707215 56.13315 895.032745 47.530802 
Q 893.362591 38.904689 890.164699 38.904689 
L 888.304657 38.904689 
z
M 883.112938 17.28 
L 888.585174 17.28 
Q 893.172703 17.28 895.416838 20.892036 
Q 897.660972 24.480309 899.266392 33.106421 
Q 900.681923 40.615654 901.36811 50.429936 
Q 902.058613 60.220454 902.058613 72.601183 
Q 902.058613 85.172019 901.36811 95.010064 
Q 900.681923 104.84811 899.266392 112.333579 
Q 897.648026 120.959691 895.382313 124.571727 
Q 893.1166 128.16 888.585174 128.16 
L 883.112938 128.16 
L 883.112938 17.28 
z
" clip-path="url(#p50480f4f71)" style="fill: #6b296b"/>
   </g>
   <g id="patch_37">
    <path d="M 903.252926 17.28 
L 921.804257 17.28 
L 921.804257 38.904689 
L 910.128235 38.904689 
L 910.128235 59.531316 
L 921.112726 59.531316 
L 921.112726 81.156005 
L 910.128235 81.156005 
L 910.128235 128.16 
L 903.252926 128.16 
L 903.252926 17.28 
z
" clip-path="url(#p50480f4f71)" style="fill: #21599c"/>
   </g>
   <g id="patch_38">
    <path d="M 941.944246 118.127891 
Q 940.033544 123.143945 937.978477 125.663425 
Q 935.92341 128.16 933.732472 128.16 
Q 928.78163 128.16 925.8901 113.226358 
Q 922.99857 98.292716 922.99857 72.754357 
Q 922.99857 46.91824 925.941052 32.09912 
Q 928.88778 17.28 934.012708 17.28 
Q 935.987101 17.28 937.795899 19.295584 
Q 939.608943 21.288263 941.213933 25.227812 
L 941.213933 47.330518 
Q 939.557991 42.268655 937.919033 39.77208 
Q 936.280075 37.252601 934.632625 37.252601 
Q 931.583993 37.252601 929.932297 46.460153 
Q 928.280601 55.644801 928.280601 72.754357 
Q 928.280601 89.703582 929.872853 98.956943 
Q 931.465105 108.187399 934.394849 108.187399 
Q 935.193098 108.187399 935.876704 107.660599 
Q 936.560311 107.110894 937.1038 105.965677 
L 937.1038 85.214328 
L 933.982986 85.214328 
L 933.982986 66.73051 
L 941.944246 66.73051 
L 941.944246 118.127891 
z
" clip-path="url(#p50480f4f71)" style="fill: #787800"/>
   </g>
   <g id="patch_39">
    <path d="M 943.138559 17.28 
L 961.68989 17.28 
L 961.68989 38.904689 
L 950.013867 38.904689 
L 950.013867 59.531316 
L 960.998359 59.531316 
L 960.998359 81.156005 
L 950.013867 81.156005 
L 950.013867 128.16 
L 943.138559 128.16 
L 943.138559 17.28 
z
" clip-path="url(#p50480f4f71)" style="fill: #21599c"/>
   </g>
   <g id="patch_40">
    <path d="M 962.884203 17.28 
L 968.122125 17.28 
L 972.353061 56.798526 
L 976.580016 17.28 
L 981.829878 17.28 
L 974.753111 81.441166 
L 974.753111 128.16 
L 969.96495 128.16 
L 969.96495 81.441166 
L 962.884203 17.28 
z
" clip-path="url(#p50480f4f71)" style="fill: #177875"/>
   </g>
   <g id="patch_41">
    <path d="M 982.827019 17.28 
L 989.702328 17.28 
L 989.702328 106.559074 
L 1001.772695 106.559074 
L 1001.772695 128.16 
L 982.827019 128.16 
L 982.827019 17.28 
z
" clip-path="url(#p50480f4f71)" style="fill: #21599c"/>
   </g>
   <g id="patch_42">
    <path d="M 1021.715511 118.127891 
Q 1019.804809 123.143945 1017.749742 125.663425 
Q 1015.694676 128.16 1013.503737 128.16 
Q 1008.552895 128.16 1005.661365 113.226358 
Q 1002.769836 98.292716 1002.769836 72.754357 
Q 1002.769836 46.91824 1005.712317 32.09912 
Q 1008.659045 17.28 1013.783973 17.28 
Q 1015.758366 17.28 1017.567164 19.295584 
Q 1019.380208 21.288263 1020.985198 25.227812 
L 1020.985198 47.330518 
Q 1019.329256 42.268655 1017.690298 39.77208 
Q 1016.05134 37.252601 1014.40389 37.252601 
Q 1011.355258 37.252601 1009.703562 46.460153 
Q 1008.051866 55.644801 1008.051866 72.754357 
Q 1008.051866 89.703582 1009.644118 98.956943 
Q 1011.23637 108.187399 1014.166114 108.187399 
Q 1014.964363 108.187399 1015.64797 107.660599 
Q 1016.331576 107.110894 1016.875065 105.965677 
L 1016.875065 85.214328 
L 1013.754251 85.214328 
L 1013.754251 66.73051 
L 1021.715511 66.73051 
L 1021.715511 118.127891 
z
" clip-path="url(#p50480f4f71)" style="fill: #787800"/>
   </g>
   <g id="patch_43">
    <path d="M 1040.078664 22.570907 
L 1040.078664 45.200413 
Q 1038.102797 41.260863 1036.21955 39.268184 
Q 1034.341448 37.252601 1032.669165 37.252601 
Q 1030.451461 37.252601 1029.386346 39.978219 
Q 1028.326376 42.680934 1028.326376 48.407023 
Q 1028.326376 52.713043 1029.041598 55.118 
Q 1029.756821 57.500054 1031.640068 59.217881 
L 1034.274557 61.57703 
Q 1038.277744 65.173014 1039.965463 72.479504 
Q 1041.658327 79.76309 1041.658327 93.230853 
Q 1041.658327 110.890114 1039.301695 119.525057 
Q 1036.945063 128.16 1032.103162 128.16 
Q 1029.823712 128.16 1027.52368 126.21313 
Q 1025.223649 124.289163 1022.923617 120.48704 
L 1022.923617 97.239116 
Q 1025.223649 102.667449 1027.369316 105.438876 
Q 1029.514983 108.187399 1031.511431 108.187399 
Q 1033.538752 108.187399 1034.614159 105.186928 
Q 1035.689565 102.163553 1035.689565 96.574889 
Q 1035.689565 91.581739 1034.958906 88.856121 
Q 1034.228247 86.130502 1032.041416 83.977492 
L 1029.64362 81.618343 
Q 1026.041781 78.18269 1024.374644 70.67006 
Q 1022.712652 63.15743 1022.712652 50.422607 
Q 1022.712652 34.458269 1025.02812 25.869134 
Q 1027.343588 17.28 1031.686378 17.28 
Q 1033.667389 17.28 1035.756456 18.608453 
Q 1037.845523 19.936906 1040.078664 22.570907 
z
" clip-path="url(#p50480f4f71)" style="fill: #40ba47"/>
   </g>
   <g id="patch_44">
    <path d="M 1042.655468 17.28 
L 1052.503272 17.28 
Q 1056.899261 17.28 1059.247736 26.690304 
Q 1061.601144 36.076845 1061.601144 53.447887 
Q 1061.601144 70.913982 1059.247736 80.300523 
Q 1056.899261 89.687064 1052.503272 89.687064 
L 1048.590793 89.687064 
L 1048.590793 128.16 
L 1042.655468 128.16 
L 1042.655468 17.28 
z
M 1048.590793 38.00168 
L 1048.590793 68.965384 
L 1051.87175 68.965384 
Q 1053.598569 68.965384 1054.540919 64.925607 
Q 1055.483269 60.885829 1055.483269 53.447887 
Q 1055.483269 46.033708 1054.540919 42.017694 
Q 1053.598569 38.00168 1051.87175 38.00168 
L 1048.590793 38.00168 
z
" clip-path="url(#p50480f4f71)" style="fill: #787800"/>
   </g>
   <g id="patch_45">
    <path d="M 1081.54396 118.127891 
Q 1079.633258 123.143945 1077.578191 125.663425 
Q 1075.523125 128.16 1073.332186 128.16 
Q 1068.381344 128.16 1065.489814 113.226358 
Q 1062.598284 98.292716 1062.598284 72.754357 
Q 1062.598284 46.91824 1065.540766 32.09912 
Q 1068.487494 17.28 1073.612422 17.28 
Q 1075.586815 17.28 1077.395613 19.295584 
Q 1079.208657 21.288263 1080.813647 25.227812 
L 1080.813647 47.330518 
Q 1079.157705 42.268655 1077.518747 39.77208 
Q 1075.879789 37.252601 1074.232339 37.252601 
Q 1071.183707 37.252601 1069.532011 46.460153 
Q 1067.880315 55.644801 1067.880315 72.754357 
Q 1067.880315 89.703582 1069.472567 98.956943 
Q 1071.064819 108.187399 1073.994563 108.187399 
Q 1074.792812 108.187399 1075.476418 107.660599 
Q 1076.160025 107.110894 1076.703514 105.965677 
L 1076.703514 85.214328 
L 1073.5827 85.214328 
L 1073.5827 66.73051 
L 1081.54396 66.73051 
L 1081.54396 118.127891 
z
" clip-path="url(#p50480f4f71)" style="fill: #787800"/>
   </g>
   <g id="patch_46">
    <path d="M 1099.907112 22.570907 
L 1099.907112 45.200413 
Q 1097.931246 41.260863 1096.047999 39.268184 
Q 1094.169897 37.252601 1092.497614 37.252601 
Q 1090.27991 37.252601 1089.214795 39.978219 
Q 1088.154825 42.680934 1088.154825 48.407023 
Q 1088.154825 52.713043 1088.870047 55.118 
Q 1089.58527 57.500054 1091.468517 59.217881 
L 1094.103005 61.57703 
Q 1098.106193 65.173014 1099.793912 72.479504 
Q 1101.486776 79.76309 1101.486776 93.230853 
Q 1101.486776 110.890114 1099.130144 119.525057 
Q 1096.773512 128.16 1091.931611 128.16 
Q 1089.652161 128.16 1087.352129 126.21313 
Q 1085.052097 124.289163 1082.752066 120.48704 
L 1082.752066 97.239116 
Q 1085.052097 102.667449 1087.197765 105.438876 
Q 1089.343432 108.187399 1091.33988 108.187399 
Q 1093.367201 108.187399 1094.442607 105.186928 
Q 1095.518014 102.163553 1095.518014 96.574889 
Q 1095.518014 91.581739 1094.787355 88.856121 
Q 1094.056696 86.130502 1091.869865 83.977492 
L 1089.472069 81.618343 
Q 1085.87023 78.18269 1084.203092 70.67006 
Q 1082.541101 63.15743 1082.541101 50.422607 
Q 1082.541101 34.458269 1084.856569 25.869134 
Q 1087.172037 17.28 1091.514826 17.28 
Q 1093.495838 17.28 1095.584905 18.608453 
Q 1097.673972 19.936906 1099.907112 22.570907 
z
" clip-path="url(#p50480f4f71)" style="fill: #40ba47"/>
   </g>
   <g id="patch_47">
    <path d="M 1102.483917 17.28 
L 1112.331721 17.28 
Q 1116.72771 17.28 1119.076184 26.690304 
Q 1121.429593 36.076845 1121.429593 53.447887 
Q 1121.429593 70.913982 1119.076184 80.300523 
Q 1116.72771 89.687064 1112.331721 89.687064 
L 1108.419242 89.687064 
L 1108.419242 128.16 
L 1102.483917 128.16 
L 1102.483917 17.28 
z
M 1108.419242 38.00168 
L 1108.419242 68.965384 
L 1111.700199 68.965384 
Q 1113.427018 68.965384 1114.369368 64.925607 
Q 1115.311718 60.885829 1115.311718 53.447887 
Q 1115.311718 46.033708 1114.369368 42.017694 
Q 1113.427018 38.00168 1111.700199 38.00168 
L 1108.419242 38.00168 
z
" clip-path="url(#p50480f4f71)" style="fill: #787800"/>
   </g>
   <g id="patch_48">
    <path d="M 1122.426733 17.28 
L 1141.372409 17.28 
L 1141.372409 38.904689 
L 1134.556372 38.904689 
L 1134.556372 128.16 
L 1129.255988 128.16 
L 1129.255988 38.904689 
L 1122.426733 38.904689 
L 1122.426733 17.28 
z
" clip-path="url(#p50480f4f71)" style="fill: #40ba47"/>
   </g>
   <g id="patch_49">
    <path d="M 1142.36955 17.28 
L 1147.958341 17.28 
L 1151.835087 76.617197 
L 1155.737385 17.28 
L 1161.315225 17.28 
L 1161.315225 128.16 
L 1157.164699 128.16 
L 1157.164699 47.055534 
L 1153.240498 106.844235 
L 1150.455228 106.844235 
L 1146.531028 47.055534 
L 1146.531028 128.16 
L 1142.36955 128.16 
L 1142.36955 17.28 
z
" clip-path="url(#p50480f4f71)" style="fill: #21599c"/>
   </g>
   <g id="patch_50">
    <path d="M 1175.436052 107.961114 
L 1168.14985 107.961114 
L 1166.999397 128.16 
L 1162.312366 128.16 
L 1169.005911 17.28 
L 1174.564497 17.28 
L 1181.258041 128.16 
L 1176.574884 128.16 
L 1175.436052 107.961114 
z
M 1169.311923 87.382015 
L 1174.262358 87.382015 
L 1171.791014 43.277154 
L 1169.311923 87.382015 
z
" clip-path="url(#p50480f4f71)" style="fill: #21599c"/>
   </g>
   <g id="patch_51">
    <path d="M 1199.621194 22.570907 
L 1199.621194 45.200413 
Q 1197.645328 41.260863 1195.76208 39.268184 
Q 1193.883978 37.252601 1192.211696 37.252601 
Q 1189.993992 37.252601 1188.928876 39.978219 
Q 1187.868906 42.680934 1187.868906 48.407023 
Q 1187.868906 52.713043 1188.584129 55.118 
Q 1189.299351 57.500054 1191.182599 59.217881 
L 1193.817087 61.57703 
Q 1197.820274 65.173014 1199.507993 72.479504 
Q 1201.200858 79.76309 1201.200858 93.230853 
Q 1201.200858 110.890114 1198.844226 119.525057 
Q 1196.487594 128.16 1191.645692 128.16 
Q 1189.366242 128.16 1187.066211 126.21313 
Q 1184.766179 124.289163 1182.466147 120.48704 
L 1182.466147 97.239116 
Q 1184.766179 102.667449 1186.911846 105.438876 
Q 1189.057513 108.187399 1191.053961 108.187399 
Q 1193.081283 108.187399 1194.156689 105.186928 
Q 1195.232095 102.163553 1195.232095 96.574889 
Q 1195.232095 91.581739 1194.501436 88.856121 
Q 1193.770778 86.130502 1191.583946 83.977492 
L 1189.18615 81.618343 
Q 1185.584311 78.18269 1183.917174 70.67006 
Q 1182.255182 63.15743 1182.255182 50.422607 
Q 1182.255182 34.458269 1184.57065 25.869134 
Q 1186.886119 17.28 1191.228908 17.28 
Q 1193.20992 17.28 1195.298987 18.608453 
Q 1197.388053 19.936906 1199.621194 22.570907 
z
" clip-path="url(#p50480f4f71)" style="fill: #40ba47"/>
   </g>
   <g id="patch_52">
    <path d="M 1221.143674 118.127891 
Q 1219.232972 123.143945 1217.177905 125.663425 
Q 1215.122839 128.16 1212.9319 128.16 
Q 1207.981058 128.16 1205.089528 113.226358 
Q 1202.197999 98.292716 1202.197999 72.754357 
Q 1202.197999 46.91824 1205.14048 32.09912 
Q 1208.087208 17.28 1213.212136 17.28 
Q 1215.186529 17.28 1216.995327 19.295584 
Q 1218.808371 21.288263 1220.413361 25.227812 
L 1220.413361 47.330518 
Q 1218.757419 42.268655 1217.118461 39.77208 
Q 1215.479503 37.252601 1213.832053 37.252601 
Q 1210.783421 37.252601 1209.131725 46.460153 
Q 1207.480029 55.644801 1207.480029 72.754357 
Q 1207.480029 89.703582 1209.072281 98.956943 
Q 1210.664533 108.187399 1213.594277 108.187399 
Q 1214.392526 108.187399 1215.076133 107.660599 
Q 1215.759739 107.110894 1216.303228 105.965677 
L 1216.303228 85.214328 
L 1213.182414 85.214328 
L 1213.182414 66.73051 
L 1221.143674 66.73051 
L 1221.143674 118.127891 
z
" clip-path="url(#p50480f4f71)" style="fill: #787800"/>
   </g>
   <g id="patch_53">
    <path d="M 1241.08649 120.212188 
Q 1239.501717 124.151737 1237.788062 126.144416 
Q 1236.074407 128.16 1234.208002 128.16 
Q 1228.642203 128.16 1225.391509 113.226358 
Q 1222.140815 98.292716 1222.140815 72.754357 
Q 1222.140815 47.124379 1225.391509 32.213642 
Q 1228.642203 17.28 1234.208002 17.28 
Q 1236.074407 17.28 1237.788062 19.295584 
Q 1239.501717 21.288263 1241.08649 25.227812 
L 1241.08649 47.330518 
Q 1239.487397 42.108325 1237.936038 39.680463 
Q 1236.384679 37.252601 1234.671024 37.252601 
Q 1231.596946 37.252601 1229.835556 46.712101 
Q 1228.07894 56.148697 1228.07894 72.754357 
Q 1228.07894 89.291303 1229.835556 98.750804 
Q 1231.596946 108.187399 1234.671024 108.187399 
Q 1236.384679 108.187399 1237.936038 105.759537 
Q 1239.487397 103.308771 1241.08649 98.086577 
L 1241.08649 120.212188 
z
" clip-path="url(#p50480f4f71)" style="fill: #6b296b"/>
   </g>
   <g id="patch_54">
    <path d="M 1261.029307 118.127891 
Q 1259.118604 123.143945 1257.063538 125.663425 
Q 1255.008471 128.16 1252.817532 128.16 
Q 1247.86669 128.16 1244.975161 113.226358 
Q 1242.083631 98.292716 1242.083631 72.754357 
Q 1242.083631 46.91824 1245.026113 32.09912 
Q 1247.97284 17.28 1253.097769 17.28 
Q 1255.072161 17.28 1256.88096 19.295584 
Q 1258.694004 21.288263 1260.298994 25.227812 
L 1260.298994 47.330518 
Q 1258.643052 42.268655 1257.004094 39.77208 
Q 1255.365136 37.252601 1253.717686 37.252601 
Q 1250.669054 37.252601 1249.017358 46.460153 
Q 1247.365662 55.644801 1247.365662 72.754357 
Q 1247.365662 89.703582 1248.957914 98.956943 
Q 1250.550166 108.187399 1253.479909 108.187399 
Q 1254.278158 108.187399 1254.961765 107.660599 
Q 1255.645372 107.110894 1256.188861 105.965677 
L 1256.188861 85.214328 
L 1253.068047 85.214328 
L 1253.068047 66.73051 
L 1261.029307 66.73051 
L 1261.029307 118.127891 
z
" clip-path="url(#p50480f4f71)" style="fill: #787800"/>
   </g>
   <g id="patch_55">
    <path d="M 1262.026447 17.28 
L 1280.972123 17.28 
L 1280.972123 38.904689 
L 1274.156086 38.904689 
L 1274.156086 128.16 
L 1268.855703 128.16 
L 1268.855703 38.904689 
L 1262.026447 38.904689 
L 1262.026447 17.28 
z
" clip-path="url(#p50480f4f71)" style="fill: #40ba47"/>
   </g>
   <g id="patch_56">
    <path d="M 1300.914939 120.212188 
Q 1299.330166 124.151737 1297.616511 126.144416 
Q 1295.902856 128.16 1294.036451 128.16 
Q 1288.470652 128.16 1285.219958 113.226358 
Q 1281.969264 98.292716 1281.969264 72.754357 
Q 1281.969264 47.124379 1285.219958 32.213642 
Q 1288.470652 17.28 1294.036451 17.28 
Q 1295.902856 17.28 1297.616511 19.295584 
Q 1299.330166 21.288263 1300.914939 25.227812 
L 1300.914939 47.330518 
Q 1299.315846 42.108325 1297.764487 39.680463 
Q 1296.213128 37.252601 1294.499472 37.252601 
Q 1291.425395 37.252601 1289.664005 46.712101 
Q 1287.907389 56.148697 1287.907389 72.754357 
Q 1287.907389 89.291303 1289.664005 98.750804 
Q 1291.425395 108.187399 1294.499472 108.187399 
Q 1296.213128 108.187399 1297.764487 105.759537 
Q 1299.315846 103.308771 1300.914939 98.086577 
L 1300.914939 120.212188 
z
" clip-path="url(#p50480f4f71)" style="fill: #6b296b"/>
   </g>
   <g id="patch_57">
    <path d="M 1301.91208 17.28 
L 1320.857756 17.28 
L 1320.857756 38.904689 
L 1314.041718 38.904689 
L 1314.041718 128.16 
L 1308.741335 128.16 
L 1308.741335 38.904689 
L 1301.91208 38.904689 
L 1301.91208 17.28 
z
" clip-path="url(#p50480f4f71)" style="fill: #40ba47"/>
   </g>
   <g id="patch_58">
    <path d="M 1331.832952 111.578719 
L 1331.461933 111.578719 
Q 1326.911023 111.578719 1324.380986 99.152512 
Q 1321.854896 86.706798 1321.854896 64.526897 
Q 1321.854896 42.38601 1324.377039 29.842759 
Q 1326.899182 17.28 1331.327734 17.28 
Q 1335.80365 17.28 1338.302111 29.725714 
Q 1340.800572 42.151921 1340.800572 64.526897 
Q 1340.800572 79.879212 1339.474375 90.978916 
Q 1338.148177 102.078621 1335.65761 107.677241 
L 1339.367805 128.16 
L 1334.840578 128.16 
L 1331.832952 111.578719 
z
M 1331.327734 34.290443 
Q 1329.156875 34.290443 1327.96093 42.210443 
Q 1326.764984 50.130443 1326.764984 64.526897 
Q 1326.764984 79.157438 1327.933301 86.940887 
Q 1329.105564 94.704828 1331.327734 94.704828 
Q 1333.510434 94.704828 1334.70638 86.784828 
Q 1335.902325 78.84532 1335.902325 64.526897 
Q 1335.902325 50.130443 1334.70638 42.210443 
Q 1333.510434 34.290443 1331.327734 34.290443 
z
" clip-path="url(#p50480f4f71)" style="fill: #40ba47"/>
   </g>
   <g id="patch_59">
    <path d="M 1346.989432 38.904689 
L 1346.989432 106.559074 
L 1348.849474 106.559074 
Q 1352.030104 106.559074 1353.708889 97.861672 
Q 1355.39199 89.164269 1355.39199 72.601183 
Q 1355.39199 56.13315 1353.71752 47.530802 
Q 1352.047366 38.904689 1348.849474 38.904689 
L 1346.989432 38.904689 
z
M 1341.797713 17.28 
L 1347.269949 17.28 
Q 1351.857478 17.28 1354.101613 20.892036 
Q 1356.345747 24.480309 1357.951167 33.106421 
Q 1359.366698 40.615654 1360.052885 50.429936 
Q 1360.743388 60.220454 1360.743388 72.601183 
Q 1360.743388 85.172019 1360.052885 95.010064 
Q 1359.366698 104.84811 1357.951167 112.333579 
Q 1356.3328 120.959691 1354.067087 124.571727 
Q 1351.801375 128.16 1347.269949 128.16 
L 1341.797713 128.16 
L 1341.797713 17.28 
z
" clip-path="url(#p50480f4f71)" style="fill: #6b296b"/>
   </g>
   <g id="patch_60">
    <path d="M 1361.740529 17.28 
L 1380.686204 17.28 
L 1380.686204 38.904689 
L 1373.870167 38.904689 
L 1373.870167 128.16 
L 1368.569784 128.16 
L 1368.569784 38.904689 
L 1361.740529 38.904689 
L 1361.740529 17.28 
z
" clip-path="url(#p50480f4f71)" style="fill: #40ba47"/>
   </g>
   <g id="patch_61">
    <path d="M 1400.629021 120.212188 
Q 1399.044248 124.151737 1397.330592 126.144416 
Q 1395.616937 128.16 1393.750533 128.16 
Q 1388.184734 128.16 1384.934039 113.226358 
Q 1381.683345 98.292716 1381.683345 72.754357 
Q 1381.683345 47.124379 1384.934039 32.213642 
Q 1388.184734 17.28 1393.750533 17.28 
Q 1395.616937 17.28 1397.330592 19.295584 
Q 1399.044248 21.288263 1400.629021 25.227812 
L 1400.629021 47.330518 
Q 1399.029927 42.108325 1397.478568 39.680463 
Q 1395.927209 37.252601 1394.213554 37.252601 
Q 1391.139476 37.252601 1389.378087 46.712101 
Q 1387.621471 56.148697 1387.621471 72.754357 
Q 1387.621471 89.291303 1389.378087 98.750804 
Q 1391.139476 108.187399 1394.213554 108.187399 
Q 1395.927209 108.187399 1397.478568 105.759537 
Q 1399.029927 103.308771 1400.629021 98.086577 
L 1400.629021 120.212188 
z
" clip-path="url(#p50480f4f71)" style="fill: #6b296b"/>
   </g>
   <g id="patch_62">
    <path d="M 1401.626162 17.28 
L 1411.473966 17.28 
Q 1415.869955 17.28 1418.218429 26.690304 
Q 1420.571837 36.076845 1420.571837 53.447887 
Q 1420.571837 70.913982 1418.218429 80.300523 
Q 1415.869955 89.687064 1411.473966 89.687064 
L 1407.561486 89.687064 
L 1407.561486 128.16 
L 1401.626162 128.16 
L 1401.626162 17.28 
z
M 1407.561486 38.00168 
L 1407.561486 68.965384 
L 1410.842443 68.965384 
Q 1412.569263 68.965384 1413.511613 64.925607 
Q 1414.453963 60.885829 1414.453963 53.447887 
Q 1414.453963 46.033708 1413.511613 42.017694 
Q 1412.569263 38.00168 1410.842443 38.00168 
L 1407.561486 38.00168 
z
" clip-path="url(#p50480f4f71)" style="fill: #787800"/>
   </g>
   <g id="patch_63">
    <path d="M 1421.568978 17.28 
L 1431.416782 17.28 
Q 1435.812771 17.28 1438.161245 26.690304 
Q 1440.514653 36.076845 1440.514653 53.447887 
Q 1440.514653 70.913982 1438.161245 80.300523 
Q 1435.812771 89.687064 1431.416782 89.687064 
L 1427.504303 89.687064 
L 1427.504303 128.16 
L 1421.568978 128.16 
L 1421.568978 17.28 
z
M 1427.504303 38.00168 
L 1427.504303 68.965384 
L 1430.78526 68.965384 
Q 1432.512079 68.965384 1433.454429 64.925607 
Q 1434.396779 60.885829 1434.396779 53.447887 
Q 1434.396779 46.033708 1433.454429 42.017694 
Q 1432.512079 38.00168 1430.78526 38.00168 
L 1427.504303 38.00168 
z
" clip-path="url(#p50480f4f71)" style="fill: #787800"/>
   </g>
   <g id="patch_64">
    <path d="M 1441.511794 17.28 
L 1451.359598 17.28 
Q 1455.755587 17.28 1458.104061 26.690304 
Q 1460.45747 36.076845 1460.45747 53.447887 
Q 1460.45747 70.913982 1458.104061 80.300523 
Q 1455.755587 89.687064 1451.359598 89.687064 
L 1447.447119 89.687064 
L 1447.447119 128.16 
L 1441.511794 128.16 
L 1441.511794 17.28 
z
M 1447.447119 38.00168 
L 1447.447119 68.965384 
L 1450.728076 68.965384 
Q 1452.454895 68.965384 1453.397245 64.925607 
Q 1454.339595 60.885829 1454.339595 53.447887 
Q 1454.339595 46.033708 1453.397245 42.017694 
Q 1452.454895 38.00168 1450.728076 38.00168 
L 1447.447119 38.00168 
z
" clip-path="url(#p50480f4f71)" style="fill: #787800"/>
   </g>
   <g id="patch_65">
    <path d="M 1461.45461 17.28 
L 1471.302415 17.28 
Q 1475.698403 17.28 1478.046878 26.690304 
Q 1480.400286 36.076845 1480.400286 53.447887 
Q 1480.400286 70.913982 1478.046878 80.300523 
Q 1475.698403 89.687064 1471.302415 89.687064 
L 1467.389935 89.687064 
L 1467.389935 128.16 
L 1461.45461 128.16 
L 1461.45461 17.28 
z
M 1467.389935 38.00168 
L 1467.389935 68.965384 
L 1470.670892 68.965384 
Q 1472.397712 68.965384 1473.340062 64.925607 
Q 1474.282412 60.885829 1474.282412 53.447887 
Q 1474.282412 46.033708 1473.340062 42.017694 
Q 1472.397712 38.00168 1470.670892 38.00168 
L 1467.389935 38.00168 
z
" clip-path="url(#p50480f4f71)" style="fill: #787800"/>
   </g>
   <g id="patch_66">
    <path d="M 1491.375482 111.578719 
L 1491.004463 111.578719 
Q 1486.453554 111.578719 1483.923517 99.152512 
Q 1481.397427 86.706798 1481.397427 64.526897 
Q 1481.397427 42.38601 1483.91957 29.842759 
Q 1486.441713 17.28 1490.870264 17.28 
Q 1495.34618 17.28 1497.844641 29.725714 
Q 1500.343102 42.151921 1500.343102 64.526897 
Q 1500.343102 79.879212 1499.016905 90.978916 
Q 1497.690708 102.078621 1495.200141 107.677241 
L 1498.910336 128.16 
L 1494.383108 128.16 
L 1491.375482 111.578719 
z
M 1490.870264 34.290443 
Q 1488.699406 34.290443 1487.50346 42.210443 
Q 1486.307514 50.130443 1486.307514 64.526897 
Q 1486.307514 79.157438 1487.475831 86.940887 
Q 1488.648095 94.704828 1490.870264 94.704828 
Q 1493.052964 94.704828 1494.24891 86.784828 
Q 1495.444856 78.84532 1495.444856 64.526897 
Q 1495.444856 50.130443 1494.24891 42.210443 
Q 1493.052964 34.290443 1490.870264 34.290443 
z
" clip-path="url(#p50480f4f71)" style="fill: #40ba47"/>
   </g>
   <g id="patch_67">
    <path d="M 1501.340243 17.28 
L 1504.616242 17.28 
L 1506.906317 97.861672 
L 1509.179343 17.28 
L 1512.47239 17.28 
L 1514.745417 97.861672 
L 1517.038332 17.28 
L 1520.285919 17.28 
L 1517.160507 128.16 
L 1513.219648 128.16 
L 1510.813081 43.871239 
L 1508.434927 128.16 
L 1504.491226 128.16 
L 1501.340243 17.28 
z
" clip-path="url(#p50480f4f71)" style="fill: #21599c"/>
   </g>
   <g id="patch_68">
    <path d="M 1538.649071 22.570907 
L 1538.649071 45.200413 
Q 1536.673205 41.260863 1534.789957 39.268184 
Q 1532.911855 37.252601 1531.239573 37.252601 
Q 1529.021869 37.252601 1527.956753 39.978219 
Q 1526.896783 42.680934 1526.896783 48.407023 
Q 1526.896783 52.713043 1527.612006 55.118 
Q 1528.327228 57.500054 1530.210476 59.217881 
L 1532.844964 61.57703 
Q 1536.848151 65.173014 1538.53587 72.479504 
Q 1540.228735 79.76309 1540.228735 93.230853 
Q 1540.228735 110.890114 1537.872103 119.525057 
Q 1535.515471 128.16 1530.673569 128.16 
Q 1528.394119 128.16 1526.094088 126.21313 
Q 1523.794056 124.289163 1521.494024 120.48704 
L 1521.494024 97.239116 
Q 1523.794056 102.667449 1525.939723 105.438876 
Q 1528.08539 108.187399 1530.081839 108.187399 
Q 1532.10916 108.187399 1533.184566 105.186928 
Q 1534.259972 102.163553 1534.259972 96.574889 
Q 1534.259972 91.581739 1533.529313 88.856121 
Q 1532.798655 86.130502 1530.611823 83.977492 
L 1528.214028 81.618343 
Q 1524.612188 78.18269 1522.945051 70.67006 
Q 1521.283059 63.15743 1521.283059 50.422607 
Q 1521.283059 34.458269 1523.598528 25.869134 
Q 1525.913996 17.28 1530.256785 17.28 
Q 1532.237797 17.28 1534.326864 18.608453 
Q 1536.41593 19.936906 1538.649071 22.570907 
z
" clip-path="url(#p50480f4f71)" style="fill: #40ba47"/>
   </g>
   <g id="patch_69">
    <path d="M 1541.225876 17.28 
L 1545.912906 17.28 
L 1550.704524 99.121132 
L 1555.488394 17.28 
L 1560.171551 17.28 
L 1553.478006 128.16 
L 1547.91942 128.16 
L 1541.225876 17.28 
z
" clip-path="url(#p50480f4f71)" style="fill: #21599c"/>
   </g>
   <g id="patch_70">
    <path d="M 1578.534704 22.570907 
L 1578.534704 45.200413 
Q 1576.558837 41.260863 1574.67559 39.268184 
Q 1572.797488 37.252601 1571.125205 37.252601 
Q 1568.907501 37.252601 1567.842386 39.978219 
Q 1566.782416 42.680934 1566.782416 48.407023 
Q 1566.782416 52.713043 1567.497638 55.118 
Q 1568.212861 57.500054 1570.096108 59.217881 
L 1572.730597 61.57703 
Q 1576.733784 65.173014 1578.421503 72.479504 
Q 1580.114367 79.76309 1580.114367 93.230853 
Q 1580.114367 110.890114 1577.757735 119.525057 
Q 1575.401103 128.16 1570.559202 128.16 
Q 1568.279752 128.16 1565.97972 126.21313 
Q 1563.679689 124.289163 1561.379657 120.48704 
L 1561.379657 97.239116 
Q 1563.679689 102.667449 1565.825356 105.438876 
Q 1567.971023 108.187399 1569.967471 108.187399 
Q 1571.994792 108.187399 1573.070199 105.186928 
Q 1574.145605 102.163553 1574.145605 96.574889 
Q 1574.145605 91.581739 1573.414946 88.856121 
Q 1572.684287 86.130502 1570.497456 83.977492 
L 1568.09966 81.618343 
Q 1564.497821 78.18269 1562.830684 70.67006 
Q 1561.168692 63.15743 1561.168692 50.422607 
Q 1561.168692 34.458269 1563.48416 25.869134 
Q 1565.799628 17.28 1570.142418 17.28 
Q 1572.123429 17.28 1574.212496 18.608453 
Q 1576.301563 19.936906 1578.534704 22.570907 
z
" clip-path="url(#p50480f4f71)" style="fill: #40ba47"/>
   </g>
   <g id="patch_71">
    <path d="M 1581.111508 17.28 
L 1600.057184 17.28 
L 1600.057184 38.904689 
L 1593.241146 38.904689 
L 1593.241146 128.16 
L 1587.940763 128.16 
L 1587.940763 38.904689 
L 1581.111508 38.904689 
L 1581.111508 17.28 
z
" clip-path="url(#p50480f4f71)" style="fill: #40ba47"/>
   </g>
   <g id="patch_72">
    <path d="M 1601.054325 17.28 
L 1619.605656 17.28 
L 1619.605656 38.904689 
L 1607.929633 38.904689 
L 1607.929633 59.531316 
L 1618.914124 59.531316 
L 1618.914124 81.156005 
L 1607.929633 81.156005 
L 1607.929633 106.559074 
L 1620 106.559074 
L 1620 128.16 
L 1601.054325 128.16 
L 1601.054325 17.28 
z
" clip-path="url(#p50480f4f71)" style="fill: #6b296b"/>
   </g>
   <g id="matplotlib.axis_1">
    <g id="xtick_1">
     <g id="line2d_2">
      <defs>
       <path id="m4fa3b05e19" d="M 0 0 
L 0 3.5 
" style="stroke: #000000; stroke-width: 0.8"/>
      </defs>
      <g>
       <use xlink:href="#m4fa3b05e19" x="234.472838" y="128.16" style="stroke: #000000; stroke-width: 0.8"/>
      </g>
     </g>
     <g id="text_1">
      <!-- 0 -->
      <g transform="translate(231.291588 142.758438) scale(0.1 -0.1)">
       <defs>
        <path id="DejaVuSans-30" d="M 2034 4250 
Q 1547 4250 1301 3770 
Q 1056 3291 1056 2328 
Q 1056 1369 1301 889 
Q 1547 409 2034 409 
Q 2525 409 2770 889 
Q 3016 1369 3016 2328 
Q 3016 3291 2770 3770 
Q 2525 4250 2034 4250 
z
M 2034 4750 
Q 2819 4750 3233 4129 
Q 3647 3509 3647 2328 
Q 3647 1150 3233 529 
Q 2819 -91 2034 -91 
Q 1250 -91 836 529 
Q 422 1150 422 2328 
Q 422 3509 836 4129 
Q 1250 4750 2034 4750 
z
" transform="scale(0.015625)"/>
       </defs>
       <use xlink:href="#DejaVuSans-30"/>
      </g>
     </g>
    </g>
    <g id="xtick_2">
     <g id="line2d_3">
      <g>
       <use xlink:href="#m4fa3b05e19" x="433.901001" y="128.16" style="stroke: #000000; stroke-width: 0.8"/>
      </g>
     </g>
     <g id="text_2">
      <!-- 10 -->
      <g transform="translate(427.538501 142.758438) scale(0.1 -0.1)">
       <defs>
        <path id="DejaVuSans-31" d="M 794 531 
L 1825 531 
L 1825 4091 
L 703 3866 
L 703 4441 
L 1819 4666 
L 2450 4666 
L 2450 531 
L 3481 531 
L 3481 0 
L 794 0 
L 794 531 
z
" transform="scale(0.015625)"/>
       </defs>
       <use xlink:href="#DejaVuSans-31"/>
       <use xlink:href="#DejaVuSans-30" x="63.623047"/>
      </g>
     </g>
    </g>
    <g id="xtick_3">
     <g id="line2d_4">
      <g>
       <use xlink:href="#m4fa3b05e19" x="633.329164" y="128.16" style="stroke: #000000; stroke-width: 0.8"/>
      </g>
     </g>
     <g id="text_3">
      <!-- 20 -->
      <g transform="translate(626.966664 142.758438) scale(0.1 -0.1)">
       <defs>
        <path id="DejaVuSans-32" d="M 1228 531 
L 3431 531 
L 3431 0 
L 469 0 
L 469 531 
Q 828 903 1448 1529 
Q 2069 2156 2228 2338 
Q 2531 2678 2651 2914 
Q 2772 3150 2772 3378 
Q 2772 3750 2511 3984 
Q 2250 4219 1831 4219 
Q 1534 4219 1204 4116 
Q 875 4013 500 3803 
L 500 4441 
Q 881 4594 1212 4672 
Q 1544 4750 1819 4750 
Q 2544 4750 2975 4387 
Q 3406 4025 3406 3419 
Q 3406 3131 3298 2873 
Q 3191 2616 2906 2266 
Q 2828 2175 2409 1742 
Q 1991 1309 1228 531 
z
" transform="scale(0.015625)"/>
       </defs>
       <use xlink:href="#DejaVuSans-32"/>
       <use xlink:href="#DejaVuSans-30" x="63.623047"/>
      </g>
     </g>
    </g>
    <g id="xtick_4">
     <g id="line2d_5">
      <g>
       <use xlink:href="#m4fa3b05e19" x="832.757327" y="128.16" style="stroke: #000000; stroke-width: 0.8"/>
      </g>
     </g>
     <g id="text_4">
      <!-- 30 -->
      <g transform="translate(826.394827 142.758438) scale(0.1 -0.1)">
       <defs>
        <path id="DejaVuSans-33" d="M 2597 2516 
Q 3050 2419 3304 2112 
Q 3559 1806 3559 1356 
Q 3559 666 3084 287 
Q 2609 -91 1734 -91 
Q 1441 -91 1130 -33 
Q 819 25 488 141 
L 488 750 
Q 750 597 1062 519 
Q 1375 441 1716 441 
Q 2309 441 2620 675 
Q 2931 909 2931 1356 
Q 2931 1769 2642 2001 
Q 2353 2234 1838 2234 
L 1294 2234 
L 1294 2753 
L 1863 2753 
Q 2328 2753 2575 2939 
Q 2822 3125 2822 3475 
Q 2822 3834 2567 4026 
Q 2313 4219 1838 4219 
Q 1578 4219 1281 4162 
Q 984 4106 628 3988 
L 628 4550 
Q 988 4650 1302 4700 
Q 1616 4750 1894 4750 
Q 2613 4750 3031 4423 
Q 3450 4097 3450 3541 
Q 3450 3153 3228 2886 
Q 3006 2619 2597 2516 
z
" transform="scale(0.015625)"/>
       </defs>
       <use xlink:href="#DejaVuSans-33"/>
       <use xlink:href="#DejaVuSans-30" x="63.623047"/>
      </g>
     </g>
    </g>
    <g id="xtick_5">
     <g id="line2d_6">
      <g>
       <use xlink:href="#m4fa3b05e19" x="1032.18549" y="128.16" style="stroke: #000000; stroke-width: 0.8"/>
      </g>
     </g>
     <g id="text_5">
      <!-- 40 -->
      <g transform="translate(1025.82299 142.758438) scale(0.1 -0.1)">
       <defs>
        <path id="DejaVuSans-34" d="M 2419 4116 
L 825 1625 
L 2419 1625 
L 2419 4116 
z
M 2253 4666 
L 3047 4666 
L 3047 1625 
L 3713 1625 
L 3713 1100 
L 3047 1100 
L 3047 0 
L 2419 0 
L 2419 1100 
L 313 1100 
L 313 1709 
L 2253 4666 
z
" transform="scale(0.015625)"/>
       </defs>
       <use xlink:href="#DejaVuSans-34"/>
       <use xlink:href="#DejaVuSans-30" x="63.623047"/>
      </g>
     </g>
    </g>
    <g id="xtick_6">
     <g id="line2d_7">
      <g>
       <use xlink:href="#m4fa3b05e19" x="1231.613653" y="128.16" style="stroke: #000000; stroke-width: 0.8"/>
      </g>
     </g>
     <g id="text_6">
      <!-- 50 -->
      <g transform="translate(1225.251153 142.758438) scale(0.1 -0.1)">
       <defs>
        <path id="DejaVuSans-35" d="M 691 4666 
L 3169 4666 
L 3169 4134 
L 1269 4134 
L 1269 2991 
Q 1406 3038 1543 3061 
Q 1681 3084 1819 3084 
Q 2600 3084 3056 2656 
Q 3513 2228 3513 1497 
Q 3513 744 3044 326 
Q 2575 -91 1722 -91 
Q 1428 -91 1123 -41 
Q 819 9 494 109 
L 494 744 
Q 775 591 1075 516 
Q 1375 441 1709 441 
Q 2250 441 2565 725 
Q 2881 1009 2881 1497 
Q 2881 1984 2565 2268 
Q 2250 2553 1709 2553 
Q 1456 2553 1204 2497 
Q 953 2441 691 2322 
L 691 4666 
z
" transform="scale(0.015625)"/>
       </defs>
       <use xlink:href="#DejaVuSans-35"/>
       <use xlink:href="#DejaVuSans-30" x="63.623047"/>
      </g>
     </g>
    </g>
    <g id="xtick_7">
     <g id="line2d_8">
      <g>
       <use xlink:href="#m4fa3b05e19" x="1431.041816" y="128.16" style="stroke: #000000; stroke-width: 0.8"/>
      </g>
     </g>
     <g id="text_7">
      <!-- 60 -->
      <g transform="translate(1424.679316 142.758438) scale(0.1 -0.1)">
       <defs>
        <path id="DejaVuSans-36" d="M 2113 2584 
Q 1688 2584 1439 2293 
Q 1191 2003 1191 1497 
Q 1191 994 1439 701 
Q 1688 409 2113 409 
Q 2538 409 2786 701 
Q 3034 994 3034 1497 
Q 3034 2003 2786 2293 
Q 2538 2584 2113 2584 
z
M 3366 4563 
L 3366 3988 
Q 3128 4100 2886 4159 
Q 2644 4219 2406 4219 
Q 1781 4219 1451 3797 
Q 1122 3375 1075 2522 
Q 1259 2794 1537 2939 
Q 1816 3084 2150 3084 
Q 2853 3084 3261 2657 
Q 3669 2231 3669 1497 
Q 3669 778 3244 343 
Q 2819 -91 2113 -91 
Q 1303 -91 875 529 
Q 447 1150 447 2328 
Q 447 3434 972 4092 
Q 1497 4750 2381 4750 
Q 2619 4750 2861 4703 
Q 3103 4656 3366 4563 
z
" transform="scale(0.015625)"/>
       </defs>
       <use xlink:href="#DejaVuSans-36"/>
       <use xlink:href="#DejaVuSans-30" x="63.623047"/>
      </g>
     </g>
    </g>
   </g>
   <g id="matplotlib.axis_2">
    <g id="ytick_1">
     <g id="line2d_9">
      <defs>
       <path id="m663d50ac0d" d="M 0 0 
L -3.5 0 
" style="stroke: #000000; stroke-width: 0.8"/>
      </defs>
      <g>
       <use xlink:href="#m663d50ac0d" x="225" y="128.16" style="stroke: #000000; stroke-width: 0.8"/>
      </g>
     </g>
     <g id="text_8">
      <!-- 0.0 -->
      <g transform="translate(202.096875 131.959219) scale(0.1 -0.1)">
       <defs>
        <path id="DejaVuSans-2e" d="M 684 794 
L 1344 794 
L 1344 0 
L 684 0 
L 684 794 
z
" transform="scale(0.015625)"/>
       </defs>
       <use xlink:href="#DejaVuSans-30"/>
       <use xlink:href="#DejaVuSans-2e" x="63.623047"/>
       <use xlink:href="#DejaVuSans-30" x="95.410156"/>
      </g>
     </g>
    </g>
    <g id="ytick_2">
     <g id="line2d_10">
      <g>
       <use xlink:href="#m663d50ac0d" x="225" y="100.44" style="stroke: #000000; stroke-width: 0.8"/>
      </g>
     </g>
     <g id="text_9">
      <!-- 0.5 -->
      <g transform="translate(202.096875 104.239219) scale(0.1 -0.1)">
       <use xlink:href="#DejaVuSans-30"/>
       <use xlink:href="#DejaVuSans-2e" x="63.623047"/>
       <use xlink:href="#DejaVuSans-35" x="95.410156"/>
      </g>
     </g>
    </g>
    <g id="ytick_3">
     <g id="line2d_11">
      <g>
       <use xlink:href="#m663d50ac0d" x="225" y="72.72" style="stroke: #000000; stroke-width: 0.8"/>
      </g>
     </g>
     <g id="text_10">
      <!-- 1.0 -->
      <g transform="translate(202.096875 76.519219) scale(0.1 -0.1)">
       <use xlink:href="#DejaVuSans-31"/>
       <use xlink:href="#DejaVuSans-2e" x="63.623047"/>
       <use xlink:href="#DejaVuSans-30" x="95.410156"/>
      </g>
     </g>
    </g>
    <g id="ytick_4">
     <g id="line2d_12">
      <g>
       <use xlink:href="#m663d50ac0d" x="225" y="45" style="stroke: #000000; stroke-width: 0.8"/>
      </g>
     </g>
     <g id="text_11">
      <!-- 1.5 -->
      <g transform="translate(202.096875 48.799219) scale(0.1 -0.1)">
       <use xlink:href="#DejaVuSans-31"/>
       <use xlink:href="#DejaVuSans-2e" x="63.623047"/>
       <use xlink:href="#DejaVuSans-35" x="95.410156"/>
      </g>
     </g>
    </g>
    <g id="ytick_5">
     <g id="line2d_13">
      <g>
       <use xlink:href="#m663d50ac0d" x="225" y="17.28" style="stroke: #000000; stroke-width: 0.8"/>
      </g>
     </g>
     <g id="text_12">
      <!-- 2.0 -->
      <g transform="translate(202.096875 21.079219) scale(0.1 -0.1)">
       <use xlink:href="#DejaVuSans-32"/>
       <use xlink:href="#DejaVuSans-2e" x="63.623047"/>
       <use xlink:href="#DejaVuSans-30" x="95.410156"/>
      </g>
     </g>
    </g>
   </g>
  </g>
 </g>
 <defs>
  <clipPath id="p50480f4f71">
   <rect x="225" y="17.28" width="1395" height="110.88"/>
  </clipPath>
 </defs>
</svg>
