<?xml version="1.0" encoding="utf-8" standalone="no"?>
<!DOCTYPE svg PUBLIC "-//W3C//DTD SVG 1.1//EN"
  "http://www.w3.org/Graphics/SVG/1.1/DTD/svg11.dtd">
<svg xmlns:xlink="http://www.w3.org/1999/xlink" width="1800pt" height="144pt" viewBox="0 0 1800 144" xmlns="http://www.w3.org/2000/svg" version="1.1">
 <metadata>
  <rdf:RDF xmlns:dc="http://purl.org/dc/elements/1.1/" xmlns:cc="http://creativecommons.org/ns#" xmlns:rdf="http://www.w3.org/1999/02/22-rdf-syntax-ns#">
   <cc:Work>
    <dc:type rdf:resource="http://purl.org/dc/dcmitype/StillImage"/>
    <dc:date>2025-05-09T21:10:21.745338</dc:date>
    <dc:format>image/svg+xml</dc:format>
    <dc:creator>
     <cc:Agent>
      <dc:title>Matplotlib v3.8.0, https://matplotlib.org/</dc:title>
     </cc:Agent>
    </dc:creator>
   </cc:Work>
  </rdf:RDF>
 </metadata>
 <defs>
  <style type="text/css">*{stroke-linejoin: round; stroke-linecap: butt}</style>
 </defs>
 <g id="figure_1">
  <g id="patch_1">
   <path d="M 0 144 
L 1800 144 
L 1800 0 
L 0 0 
z
" style="fill: #ffffff"/>
  </g>
  <g id="axes_1">
   <g id="patch_2">
    <path d="M 225 128.16 
L 1620 128.16 
L 1620 17.28 
L 225 17.28 
z
" style="fill: #ffffff"/>
   </g>
   <g id="line2d_1">
    <path d="M 225 128.16 
L 1620 128.16 
" clip-path="url(#p6600c6852d)" style="fill: none; stroke: #000000; stroke-width: 1.5; stroke-linecap: square"/>
   </g>
   <g id="patch_3">
    <path d="M 225 17.28 
L 231.987238 17.28 
L 236.834036 76.617197 
L 241.71278 17.28 
L 248.686327 17.28 
L 248.686327 128.16 
L 243.497242 128.16 
L 243.497242 47.055534 
L 238.591114 106.844235 
L 235.108905 106.844235 
L 230.202777 47.055534 
L 230.202777 128.16 
L 225 128.16 
L 225 17.28 
z
" clip-path="url(#p6600c6852d)" style="fill: #21599c"/>
   </g>
   <g id="patch_4">
    <path d="M 273.619303 118.127891 
Q 271.230498 123.143945 268.661206 125.663425 
Q 266.091913 128.16 263.352751 128.16 
Q 257.163092 128.16 253.548034 113.226358 
Q 249.932976 98.292716 249.932976 72.754357 
Q 249.932976 46.91824 253.611735 32.09912 
Q 257.295803 17.28 263.703109 17.28 
Q 266.17154 17.28 268.432942 19.295584 
Q 270.699653 21.288263 272.706249 25.227812 
L 272.706249 47.330518 
Q 270.635951 42.268655 268.586887 39.77208 
Q 266.537824 37.252601 264.478143 37.252601 
Q 260.666672 37.252601 258.601683 46.460153 
Q 256.536694 55.644801 256.536694 72.754357 
Q 256.536694 89.703582 258.527365 98.956943 
Q 260.518036 108.187399 264.18087 108.187399 
Q 265.178859 108.187399 266.03352 107.660599 
Q 266.888182 107.110894 267.567664 105.965677 
L 267.567664 85.214328 
L 263.665949 85.214328 
L 263.665949 66.73051 
L 273.619303 66.73051 
L 273.619303 118.127891 
z
" clip-path="url(#p6600c6852d)" style="fill: #787800"/>
   </g>
   <g id="patch_5">
    <path d="M 281.356761 38.904689 
L 281.356761 106.559074 
L 283.682229 106.559074 
Q 287.658727 106.559074 289.757583 97.861672 
Q 291.861836 89.164269 291.861836 72.601183 
Q 291.861836 56.13315 289.768374 47.530802 
Q 287.680309 38.904689 283.682229 38.904689 
L 281.356761 38.904689 
z
M 274.865952 17.28 
L 281.707469 17.28 
Q 287.442906 17.28 290.248576 20.892036 
Q 293.054245 24.480309 295.061378 33.106421 
Q 296.831108 40.615654 297.688996 50.429936 
Q 298.552279 60.220454 298.552279 72.601183 
Q 298.552279 85.172019 297.688996 95.010064 
Q 296.831108 104.84811 295.061378 112.333579 
Q 293.038059 120.959691 290.205411 124.571727 
Q 287.372764 128.16 281.707469 128.16 
L 274.865952 128.16 
L 274.865952 17.28 
z
" clip-path="url(#p6600c6852d)" style="fill: #6b296b"/>
   </g>
   <g id="patch_6">
    <path d="M 299.798928 17.28 
L 306.04091 17.28 
L 306.04091 57.749061 
L 315.038083 17.28 
L 322.286669 17.28 
L 310.627704 69.797102 
L 323.485255 128.16 
L 315.671102 128.16 
L 306.04091 84.48288 
L 306.04091 128.16 
L 299.798928 128.16 
L 299.798928 17.28 
z
" clip-path="url(#p6600c6852d)" style="fill: #bd2e1f"/>
   </g>
   <g id="patch_7">
    <path d="M 324.731903 17.28 
L 333.327575 17.28 
L 333.327575 106.559074 
L 348.418231 106.559074 
L 348.418231 128.16 
L 324.731903 128.16 
L 324.731903 17.28 
z
" clip-path="url(#p6600c6852d)" style="fill: #21599c"/>
   </g>
   <g id="patch_8">
    <path d="M 349.664879 17.28 
L 355.906862 17.28 
L 355.906862 57.749061 
L 364.904034 17.28 
L 372.152621 17.28 
L 360.493656 69.797102 
L 373.351206 128.16 
L 365.537053 128.16 
L 355.906862 84.48288 
L 355.906862 128.16 
L 349.664879 128.16 
L 349.664879 17.28 
z
" clip-path="url(#p6600c6852d)" style="fill: #bd2e1f"/>
   </g>
   <g id="patch_9">
    <path d="M 374.597855 17.28 
L 382.206259 17.28 
L 391.820155 93.322863 
L 391.820155 17.28 
L 398.284182 17.28 
L 398.284182 128.16 
L 390.670113 128.16 
L 381.056218 52.117137 
L 381.056218 128.16 
L 374.597855 128.16 
L 374.597855 17.28 
z
" clip-path="url(#p6600c6852d)" style="fill: #40ba47"/>
   </g>
   <g id="patch_10">
    <path d="M 399.530831 17.28 
L 408.126503 17.28 
L 408.126503 106.559074 
L 423.217158 106.559074 
L 423.217158 128.16 
L 399.530831 128.16 
L 399.530831 17.28 
z
" clip-path="url(#p6600c6852d)" style="fill: #21599c"/>
   </g>
   <g id="patch_11">
    <path d="M 432.009135 17.28 
L 440.604806 17.28 
L 440.604806 128.16 
L 432.009135 128.16 
L 432.009135 17.28 
z
" clip-path="url(#p6600c6852d)" style="fill: #21599c"/>
   </g>
   <g id="patch_12">
    <path d="M 449.643292 17.28 
L 472.836601 17.28 
L 472.836601 38.904689 
L 458.238964 38.904689 
L 458.238964 59.531316 
L 471.972032 59.531316 
L 471.972032 81.156005 
L 458.238964 81.156005 
L 458.238964 128.16 
L 449.643292 128.16 
L 449.643292 17.28 
z
" clip-path="url(#p6600c6852d)" style="fill: #21599c"/>
   </g>
   <g id="patch_13">
    <path d="M 496.041153 22.570907 
L 496.041153 45.200413 
Q 493.570879 41.260863 491.216399 39.268184 
Q 488.868352 37.252601 486.777625 37.252601 
Q 484.004999 37.252601 482.673367 39.978219 
Q 481.348168 42.680934 481.348168 48.407023 
Q 481.348168 52.713043 482.242356 55.118 
Q 483.136544 57.500054 485.491024 59.217881 
L 488.784723 61.57703 
Q 493.789601 65.173014 495.899627 72.479504 
Q 498.016086 79.76309 498.016086 93.230853 
Q 498.016086 110.890114 495.069769 119.525057 
Q 492.123453 128.16 486.069994 128.16 
Q 483.220173 128.16 480.344619 126.21313 
Q 477.469066 124.289163 474.593512 120.48704 
L 474.593512 97.239116 
Q 477.469066 102.667449 480.151629 105.438876 
Q 482.834192 108.187399 485.330199 108.187399 
Q 487.864803 108.187399 489.209301 105.186928 
Q 490.553799 102.163553 490.553799 96.574889 
Q 490.553799 91.581739 489.640312 88.856121 
Q 488.726826 86.130502 485.992798 83.977492 
L 482.995017 81.618343 
Q 478.491913 78.18269 476.40762 70.67006 
Q 474.329759 63.15743 474.329759 50.422607 
Q 474.329759 34.458269 477.224611 25.869134 
Q 480.119464 17.28 485.548921 17.28 
Q 488.025628 17.28 490.637428 18.608453 
Q 493.249229 19.936906 496.041153 22.570907 
z
" clip-path="url(#p6600c6852d)" style="fill: #40ba47"/>
   </g>
   <g id="patch_14">
    <path d="M 515.670274 107.961114 
L 506.560893 107.961114 
L 505.12257 128.16 
L 499.262735 128.16 
L 507.631161 17.28 
L 514.580635 17.28 
L 522.949062 128.16 
L 517.094069 128.16 
L 515.670274 107.961114 
z
M 508.013745 87.382015 
L 514.202894 87.382015 
L 511.113162 43.277154 
L 508.013745 87.382015 
z
" clip-path="url(#p6600c6852d)" style="fill: #21599c"/>
   </g>
   <g id="patch_15">
    <path d="M 524.19571 17.28 
L 547.882038 17.28 
L 547.882038 38.904689 
L 539.360468 38.904689 
L 539.360468 128.16 
L 532.733805 128.16 
L 532.733805 38.904689 
L 524.19571 38.904689 
L 524.19571 17.28 
z
" clip-path="url(#p6600c6852d)" style="fill: #40ba47"/>
   </g>
   <g id="patch_16">
    <path d="M 549.375196 17.28 
L 572.568504 17.28 
L 572.568504 38.904689 
L 557.970867 38.904689 
L 557.970867 59.531316 
L 571.703935 59.531316 
L 571.703935 81.156005 
L 557.970867 81.156005 
L 557.970867 128.16 
L 549.375196 128.16 
L 549.375196 17.28 
z
" clip-path="url(#p6600c6852d)" style="fill: #21599c"/>
   </g>
   <g id="patch_17">
    <path d="M 574.061662 17.28 
L 597.747989 17.28 
L 597.747989 38.904689 
L 589.22642 38.904689 
L 589.22642 128.16 
L 582.599757 128.16 
L 582.599757 38.904689 
L 574.061662 38.904689 
L 574.061662 17.28 
z
" clip-path="url(#p6600c6852d)" style="fill: #40ba47"/>
   </g>
   <g id="patch_18">
    <path d="M 598.994638 17.28 
L 622.680965 17.28 
L 622.680965 38.904689 
L 614.159396 38.904689 
L 614.159396 128.16 
L 607.532733 128.16 
L 607.532733 38.904689 
L 598.994638 38.904689 
L 598.994638 17.28 
z
" clip-path="url(#p6600c6852d)" style="fill: #40ba47"/>
   </g>
   <g id="patch_19">
    <path d="M 633.538234 66.446464 
Q 635.66393 66.446464 636.58619 63.119589 
Q 637.50845 59.76895 637.50845 52.117137 
Q 637.50845 44.536614 636.58619 41.281029 
Q 635.66393 38.00168 633.538234 38.00168 
L 630.692726 38.00168 
L 630.692726 66.446464 
L 633.538234 66.446464 
z
M 630.692726 86.193845 
L 630.692726 128.16 
L 623.927614 128.16 
L 623.927614 17.28 
L 634.258047 17.28 
Q 639.442945 17.28 641.855442 24.646652 
Q 644.273562 31.989541 644.273562 47.887252 
Q 644.273562 58.865941 643.01389 65.923669 
Q 641.759842 72.981397 639.229251 76.332036 
Q 640.618264 77.662786 641.714853 82.391702 
Q 642.817066 87.096854 643.941773 96.673502 
L 647.613941 128.16 
L 640.410193 128.16 
L 637.210402 100.618225 
Q 636.243154 92.301037 635.247789 89.259323 
Q 634.258047 86.193845 632.604728 86.193845 
L 630.692726 86.193845 
z
" clip-path="url(#p6600c6852d)" style="fill: #bd2e1f"/>
   </g>
   <g id="patch_20">
    <path d="M 648.86059 17.28 
L 657.456261 17.28 
L 657.456261 106.559074 
L 672.546917 106.559074 
L 672.546917 128.16 
L 648.86059 128.16 
L 648.86059 17.28 
z
" clip-path="url(#p6600c6852d)" style="fill: #21599c"/>
   </g>
   <g id="patch_21">
    <path d="M 673.793566 17.28 
L 686.105521 17.28 
Q 691.601489 17.28 694.537607 26.690304 
Q 697.479893 36.076845 697.479893 53.447887 
Q 697.479893 70.913982 694.537607 80.300523 
Q 691.601489 89.687064 686.105521 89.687064 
L 681.214048 89.687064 
L 681.214048 128.16 
L 673.793566 128.16 
L 673.793566 17.28 
z
M 681.214048 38.00168 
L 681.214048 68.965384 
L 685.315977 68.965384 
Q 687.474887 68.965384 688.653035 64.925607 
Q 689.831183 60.885829 689.831183 53.447887 
Q 689.831183 46.033708 688.653035 42.017694 
Q 687.474887 38.00168 685.315977 38.00168 
L 681.214048 38.00168 
z
" clip-path="url(#p6600c6852d)" style="fill: #787800"/>
   </g>
   <g id="patch_22">
    <path d="M 720.437936 22.570907 
L 720.437936 45.200413 
Q 717.967662 41.260863 715.613182 39.268184 
Q 713.265134 37.252601 711.174408 37.252601 
Q 708.401782 37.252601 707.07015 39.978219 
Q 705.744951 42.680934 705.744951 48.407023 
Q 705.744951 52.713043 706.639139 55.118 
Q 707.533326 57.500054 709.887806 59.217881 
L 713.181505 61.57703 
Q 718.186384 65.173014 720.29641 72.479504 
Q 722.412869 79.76309 722.412869 93.230853 
Q 722.412869 110.890114 719.466552 119.525057 
Q 716.520235 128.16 710.466777 128.16 
Q 707.616955 128.16 704.741402 126.21313 
Q 701.865848 124.289163 698.990295 120.48704 
L 698.990295 97.239116 
Q 701.865848 102.667449 704.548412 105.438876 
Q 707.230975 108.187399 709.726981 108.187399 
Q 712.261586 108.187399 713.606084 105.186928 
Q 714.950582 102.163553 714.950582 96.574889 
Q 714.950582 91.581739 714.037095 88.856121 
Q 713.123608 86.130502 710.389581 83.977492 
L 707.3918 81.618343 
Q 702.888696 78.18269 700.804402 70.67006 
Q 698.726542 63.15743 698.726542 50.422607 
Q 698.726542 34.458269 701.621394 25.869134 
Q 704.516247 17.28 709.945704 17.28 
Q 712.422411 17.28 715.034211 18.608453 
Q 717.646011 19.936906 720.437936 22.570907 
z
" clip-path="url(#p6600c6852d)" style="fill: #40ba47"/>
   </g>
   <g id="patch_23">
    <path d="M 733.270138 66.446464 
Q 735.395834 66.446464 736.318093 63.119589 
Q 737.240353 59.76895 737.240353 52.117137 
Q 737.240353 44.536614 736.318093 41.281029 
Q 735.395834 38.00168 733.270138 38.00168 
L 730.424629 38.00168 
L 730.424629 66.446464 
L 733.270138 66.446464 
z
M 730.424629 86.193845 
L 730.424629 128.16 
L 723.659517 128.16 
L 723.659517 17.28 
L 733.98995 17.28 
Q 739.174849 17.28 741.587345 24.646652 
Q 744.005465 31.989541 744.005465 47.887252 
Q 744.005465 58.865941 742.745793 65.923669 
Q 741.491745 72.981397 738.961155 76.332036 
Q 740.350168 77.662786 741.446757 82.391702 
Q 742.54897 87.096854 743.673677 96.673502 
L 747.345845 128.16 
L 740.142097 128.16 
L 736.942306 100.618225 
Q 735.975058 92.301037 734.979692 89.259323 
Q 733.98995 86.193845 732.336631 86.193845 
L 730.424629 86.193845 
z
" clip-path="url(#p6600c6852d)" style="fill: #bd2e1f"/>
   </g>
   <g id="patch_24">
    <path d="M 748.839003 17.28 
L 772.032311 17.28 
L 772.032311 38.904689 
L 757.434674 38.904689 
L 757.434674 59.531316 
L 771.167742 59.531316 
L 771.167742 81.156005 
L 757.434674 81.156005 
L 757.434674 128.16 
L 748.839003 128.16 
L 748.839003 17.28 
z
" clip-path="url(#p6600c6852d)" style="fill: #21599c"/>
   </g>
   <g id="patch_25">
    <path d="M 795.236863 22.570907 
L 795.236863 45.200413 
Q 792.766589 41.260863 790.412109 39.268184 
Q 788.064062 37.252601 785.973335 37.252601 
Q 783.20071 37.252601 781.869078 39.978219 
Q 780.543878 42.680934 780.543878 48.407023 
Q 780.543878 52.713043 781.438066 55.118 
Q 782.332254 57.500054 784.686734 59.217881 
L 787.980433 61.57703 
Q 792.985311 65.173014 795.095337 72.479504 
Q 797.211796 79.76309 797.211796 93.230853 
Q 797.211796 110.890114 794.26548 119.525057 
Q 791.319163 128.16 785.265705 128.16 
Q 782.415883 128.16 779.54033 126.21313 
Q 776.664776 124.289163 773.789222 120.48704 
L 773.789222 97.239116 
Q 776.664776 102.667449 779.347339 105.438876 
Q 782.029903 108.187399 784.525909 108.187399 
Q 787.060513 108.187399 788.405011 105.186928 
Q 789.74951 102.163553 789.74951 96.574889 
Q 789.74951 91.581739 788.836023 88.856121 
Q 787.922536 86.130502 785.188509 83.977492 
L 782.190728 81.618343 
Q 777.687624 78.18269 775.60333 70.67006 
Q 773.525469 63.15743 773.525469 50.422607 
Q 773.525469 34.458269 776.420322 25.869134 
Q 779.315174 17.28 784.744631 17.28 
Q 787.221338 17.28 789.833139 18.608453 
Q 792.444939 19.936906 795.236863 22.570907 
z
" clip-path="url(#p6600c6852d)" style="fill: #40ba47"/>
   </g>
   <g id="patch_26">
    <path d="M 810.933244 111.578719 
L 810.469387 111.578719 
Q 804.779734 111.578719 801.616622 99.152512 
Q 798.458445 86.706798 798.458445 64.526897 
Q 798.458445 42.38601 801.611687 29.842759 
Q 804.76493 17.28 810.301609 17.28 
Q 815.897503 17.28 819.021138 29.725714 
Q 822.144772 42.151921 822.144772 64.526897 
Q 822.144772 79.879212 820.486729 90.978916 
Q 818.828686 102.078621 815.714921 107.677241 
L 820.353494 128.16 
L 814.693448 128.16 
L 810.933244 111.578719 
z
M 810.301609 34.290443 
Q 807.58755 34.290443 806.092351 42.210443 
Q 804.597151 50.130443 804.597151 64.526897 
Q 804.597151 79.157438 806.057808 86.940887 
Q 807.5234 94.704828 810.301609 94.704828 
Q 813.030471 94.704828 814.52567 86.784828 
Q 816.02087 78.84532 816.02087 64.526897 
Q 816.02087 50.130443 814.52567 42.210443 
Q 813.030471 34.290443 810.301609 34.290443 
z
" clip-path="url(#p6600c6852d)" style="fill: #40ba47"/>
   </g>
   <g id="patch_27">
    <path d="M 833.002041 66.446464 
Q 835.127737 66.446464 836.049997 63.119589 
Q 836.972257 59.76895 836.972257 52.117137 
Q 836.972257 44.536614 836.049997 41.281029 
Q 835.127737 38.00168 833.002041 38.00168 
L 830.156533 38.00168 
L 830.156533 66.446464 
L 833.002041 66.446464 
z
M 830.156533 86.193845 
L 830.156533 128.16 
L 823.391421 128.16 
L 823.391421 17.28 
L 833.721854 17.28 
Q 838.906752 17.28 841.319249 24.646652 
Q 843.737369 31.989541 843.737369 47.887252 
Q 843.737369 58.865941 842.477697 65.923669 
Q 841.223649 72.981397 838.693058 76.332036 
Q 840.082071 77.662786 841.17866 82.391702 
Q 842.280873 87.096854 843.40558 96.673502 
L 847.077748 128.16 
L 839.874 128.16 
L 836.674209 100.618225 
Q 835.706961 92.301037 834.711596 89.259323 
Q 833.721854 86.193845 832.068535 86.193845 
L 830.156533 86.193845 
z
" clip-path="url(#p6600c6852d)" style="fill: #bd2e1f"/>
   </g>
   <g id="patch_28">
    <path d="M 855.869725 17.28 
L 864.465396 17.28 
L 864.465396 128.16 
L 855.869725 128.16 
L 855.869725 17.28 
z
" clip-path="url(#p6600c6852d)" style="fill: #21599c"/>
   </g>
   <g id="patch_29">
    <path d="M 889.664912 107.961114 
L 880.555531 107.961114 
L 879.117208 128.16 
L 873.257373 128.16 
L 881.625799 17.28 
L 888.575273 17.28 
L 896.9437 128.16 
L 891.088707 128.16 
L 889.664912 107.961114 
z
M 882.008383 87.382015 
L 888.197532 87.382015 
L 885.1078 43.277154 
L 882.008383 87.382015 
z
" clip-path="url(#p6600c6852d)" style="fill: #21599c"/>
   </g>
   <g id="patch_30">
    <path d="M 898.436858 17.28 
L 921.630166 17.28 
L 921.630166 38.904689 
L 907.032529 38.904689 
L 907.032529 59.531316 
L 920.765598 59.531316 
L 920.765598 81.156005 
L 907.032529 81.156005 
L 907.032529 128.16 
L 898.436858 128.16 
L 898.436858 17.28 
z
" clip-path="url(#p6600c6852d)" style="fill: #21599c"/>
   </g>
   <g id="patch_31">
    <path d="M 923.123324 17.28 
L 928.98316 17.28 
L 934.973752 99.121132 
L 940.954659 17.28 
L 946.809651 17.28 
L 938.441225 128.16 
L 931.491751 128.16 
L 923.123324 17.28 
z
" clip-path="url(#p6600c6852d)" style="fill: #21599c"/>
   </g>
   <g id="patch_32">
    <path d="M 948.0563 17.28 
L 971.742627 17.28 
L 971.742627 38.904689 
L 963.221058 38.904689 
L 963.221058 128.16 
L 956.594395 128.16 
L 956.594395 38.904689 
L 948.0563 38.904689 
L 948.0563 17.28 
z
" clip-path="url(#p6600c6852d)" style="fill: #40ba47"/>
   </g>
   <g id="patch_33">
    <path d="M 972.989276 17.28 
L 978.849112 17.28 
L 984.839704 99.121132 
L 990.82061 17.28 
L 996.675603 17.28 
L 988.307177 128.16 
L 981.357702 128.16 
L 972.989276 17.28 
z
" clip-path="url(#p6600c6852d)" style="fill: #21599c"/>
   </g>
   <g id="patch_34">
    <path d="M 997.922252 17.28 
L 1004.90949 17.28 
L 1009.756288 76.617197 
L 1014.635032 17.28 
L 1021.608579 17.28 
L 1021.608579 128.16 
L 1016.419494 128.16 
L 1016.419494 47.055534 
L 1011.513366 106.844235 
L 1008.031157 106.844235 
L 1003.125029 47.055534 
L 1003.125029 128.16 
L 997.922252 128.16 
L 997.922252 17.28 
z
" clip-path="url(#p6600c6852d)" style="fill: #21599c"/>
   </g>
   <g id="patch_35">
    <path d="M 1046.541555 118.127891 
Q 1044.15275 123.143945 1041.583458 125.663425 
Q 1039.014165 128.16 1036.275003 128.16 
Q 1030.085344 128.16 1026.470286 113.226358 
Q 1022.855228 98.292716 1022.855228 72.754357 
Q 1022.855228 46.91824 1026.533987 32.09912 
Q 1030.218055 17.28 1036.625361 17.28 
Q 1039.093792 17.28 1041.355194 19.295584 
Q 1043.621905 21.288263 1045.628501 25.227812 
L 1045.628501 47.330518 
Q 1043.558203 42.268655 1041.509139 39.77208 
Q 1039.460076 37.252601 1037.400395 37.252601 
Q 1033.588924 37.252601 1031.523935 46.460153 
Q 1029.458946 55.644801 1029.458946 72.754357 
Q 1029.458946 89.703582 1031.449617 98.956943 
Q 1033.440288 108.187399 1037.103122 108.187399 
Q 1038.101111 108.187399 1038.955772 107.660599 
Q 1039.810434 107.110894 1040.489916 105.965677 
L 1040.489916 85.214328 
L 1036.588201 85.214328 
L 1036.588201 66.73051 
L 1046.541555 66.73051 
L 1046.541555 118.127891 
z
" clip-path="url(#p6600c6852d)" style="fill: #787800"/>
   </g>
   <g id="patch_36">
    <path d="M 1047.788204 17.28 
L 1053.648039 17.28 
L 1059.638632 99.121132 
L 1065.619538 17.28 
L 1071.474531 17.28 
L 1063.106104 128.16 
L 1056.15663 128.16 
L 1047.788204 17.28 
z
" clip-path="url(#p6600c6852d)" style="fill: #21599c"/>
   </g>
   <g id="patch_37">
    <path d="M 1094.432574 22.570907 
L 1094.432574 45.200413 
Q 1091.9623 41.260863 1089.60782 39.268184 
Q 1087.259773 37.252601 1085.169046 37.252601 
Q 1082.39642 37.252601 1081.064788 39.978219 
Q 1079.739589 42.680934 1079.739589 48.407023 
Q 1079.739589 52.713043 1080.633777 55.118 
Q 1081.527964 57.500054 1083.882445 59.217881 
L 1087.176143 61.57703 
Q 1092.181022 65.173014 1094.291048 72.479504 
Q 1096.407507 79.76309 1096.407507 93.230853 
Q 1096.407507 110.890114 1093.46119 119.525057 
Q 1090.514873 128.16 1084.461415 128.16 
Q 1081.611594 128.16 1078.73604 126.21313 
Q 1075.860486 124.289163 1072.984933 120.48704 
L 1072.984933 97.239116 
Q 1075.860486 102.667449 1078.54305 105.438876 
Q 1081.225613 108.187399 1083.721619 108.187399 
Q 1086.256224 108.187399 1087.600722 105.186928 
Q 1088.94522 102.163553 1088.94522 96.574889 
Q 1088.94522 91.581739 1088.031733 88.856121 
Q 1087.118246 86.130502 1084.384219 83.977492 
L 1081.386438 81.618343 
Q 1076.883334 78.18269 1074.79904 70.67006 
Q 1072.72118 63.15743 1072.72118 50.422607 
Q 1072.72118 34.458269 1075.616032 25.869134 
Q 1078.510885 17.28 1083.940342 17.28 
Q 1086.417049 17.28 1089.028849 18.608453 
Q 1091.640649 19.936906 1094.432574 22.570907 
z
" clip-path="url(#p6600c6852d)" style="fill: #40ba47"/>
   </g>
   <g id="patch_38">
    <path d="M 1104.144964 38.904689 
L 1104.144964 106.559074 
L 1106.470433 106.559074 
Q 1110.44693 106.559074 1112.545787 97.861672 
Q 1114.650039 89.164269 1114.650039 72.601183 
Q 1114.650039 56.13315 1112.556578 47.530802 
Q 1110.468512 38.904689 1106.470433 38.904689 
L 1104.144964 38.904689 
z
M 1097.654155 17.28 
L 1104.495673 17.28 
Q 1110.23111 17.28 1113.036779 20.892036 
Q 1115.842449 24.480309 1117.849582 33.106421 
Q 1119.619312 40.615654 1120.4772 50.429936 
Q 1121.340483 60.220454 1121.340483 72.601183 
Q 1121.340483 85.172019 1120.4772 95.010064 
Q 1119.619312 104.84811 1117.849582 112.333579 
Q 1115.826262 120.959691 1112.993615 124.571727 
Q 1110.160968 128.16 1104.495673 128.16 
L 1097.654155 128.16 
L 1097.654155 17.28 
z
" clip-path="url(#p6600c6852d)" style="fill: #6b296b"/>
   </g>
   <g id="patch_39">
    <path d="M 1122.833641 17.28 
L 1146.026949 17.28 
L 1146.026949 38.904689 
L 1131.429312 38.904689 
L 1131.429312 59.531316 
L 1145.16238 59.531316 
L 1145.16238 81.156005 
L 1131.429312 81.156005 
L 1131.429312 128.16 
L 1122.833641 128.16 
L 1122.833641 17.28 
z
" clip-path="url(#p6600c6852d)" style="fill: #21599c"/>
   </g>
   <g id="patch_40">
    <path d="M 1147.520107 17.28 
L 1153.379943 17.28 
L 1159.370535 99.121132 
L 1165.351442 17.28 
L 1171.206434 17.28 
L 1162.838008 128.16 
L 1155.888534 128.16 
L 1147.520107 17.28 
z
" clip-path="url(#p6600c6852d)" style="fill: #21599c"/>
   </g>
   <g id="patch_41">
    <path d="M 1172.453083 17.28 
L 1178.695066 17.28 
L 1178.695066 57.749061 
L 1187.692238 17.28 
L 1194.940825 17.28 
L 1183.28186 69.797102 
L 1196.13941 128.16 
L 1188.325257 128.16 
L 1178.695066 84.48288 
L 1178.695066 128.16 
L 1172.453083 128.16 
L 1172.453083 17.28 
z
" clip-path="url(#p6600c6852d)" style="fill: #bd2e1f"/>
   </g>
   <g id="patch_42">
    <path d="M 1197.386059 17.28 
L 1221.072386 17.28 
L 1221.072386 38.904689 
L 1212.550817 38.904689 
L 1212.550817 128.16 
L 1205.924154 128.16 
L 1205.924154 38.904689 
L 1197.386059 38.904689 
L 1197.386059 17.28 
z
" clip-path="url(#p6600c6852d)" style="fill: #40ba47"/>
   </g>
   <g id="patch_43">
    <path d="M 1222.319035 17.28 
L 1228.867608 17.28 
L 1234.157222 56.798526 
L 1239.441861 17.28 
L 1246.005362 17.28 
L 1237.157822 81.441166 
L 1237.157822 128.16 
L 1231.171551 128.16 
L 1231.171551 81.441166 
L 1222.319035 17.28 
z
" clip-path="url(#p6600c6852d)" style="fill: #177875"/>
   </g>
   <g id="patch_44">
    <path d="M 1247.252011 17.28 
L 1255.847682 17.28 
L 1255.847682 106.559074 
L 1270.938338 106.559074 
L 1270.938338 128.16 
L 1247.252011 128.16 
L 1247.252011 17.28 
z
" clip-path="url(#p6600c6852d)" style="fill: #21599c"/>
   </g>
   <g id="patch_45">
    <path d="M 1272.184987 17.28 
L 1284.496942 17.28 
Q 1289.99291 17.28 1292.929028 26.690304 
Q 1295.871314 36.076845 1295.871314 53.447887 
Q 1295.871314 70.913982 1292.929028 80.300523 
Q 1289.99291 89.687064 1284.496942 89.687064 
L 1279.605469 89.687064 
L 1279.605469 128.16 
L 1272.184987 128.16 
L 1272.184987 17.28 
z
M 1279.605469 38.00168 
L 1279.605469 68.965384 
L 1283.707398 68.965384 
Q 1285.866308 68.965384 1287.044456 64.925607 
Q 1288.222604 60.885829 1288.222604 53.447887 
Q 1288.222604 46.033708 1287.044456 42.017694 
Q 1285.866308 38.00168 1283.707398 38.00168 
L 1279.605469 38.00168 
z
" clip-path="url(#p6600c6852d)" style="fill: #787800"/>
   </g>
   <g id="patch_46">
    <path d="M 1297.364472 17.28 
L 1320.55778 17.28 
L 1320.55778 38.904689 
L 1305.960143 38.904689 
L 1305.960143 59.531316 
L 1319.693211 59.531316 
L 1319.693211 81.156005 
L 1305.960143 81.156005 
L 1305.960143 128.16 
L 1297.364472 128.16 
L 1297.364472 17.28 
z
" clip-path="url(#p6600c6852d)" style="fill: #21599c"/>
   </g>
   <g id="patch_47">
    <path d="M 1322.050938 17.28 
L 1328.599511 17.28 
L 1333.889126 56.798526 
L 1339.173764 17.28 
L 1345.737265 17.28 
L 1336.889726 81.441166 
L 1336.889726 128.16 
L 1330.903454 128.16 
L 1330.903454 81.441166 
L 1322.050938 17.28 
z
" clip-path="url(#p6600c6852d)" style="fill: #177875"/>
   </g>
   <g id="patch_48">
    <path d="M 1346.983914 17.28 
L 1359.29587 17.28 
Q 1364.791838 17.28 1367.727955 26.690304 
Q 1370.670241 36.076845 1370.670241 53.447887 
Q 1370.670241 70.913982 1367.727955 80.300523 
Q 1364.791838 89.687064 1359.29587 89.687064 
L 1354.404396 89.687064 
L 1354.404396 128.16 
L 1346.983914 128.16 
L 1346.983914 17.28 
z
M 1354.404396 38.00168 
L 1354.404396 68.965384 
L 1358.506325 68.965384 
Q 1360.665235 68.965384 1361.843383 64.925607 
Q 1363.021532 60.885829 1363.021532 53.447887 
Q 1363.021532 46.033708 1361.843383 42.017694 
Q 1360.665235 38.00168 1358.506325 38.00168 
L 1354.404396 38.00168 
z
" clip-path="url(#p6600c6852d)" style="fill: #787800"/>
   </g>
   <g id="patch_49">
    <path d="M 1384.391689 111.578719 
L 1383.927832 111.578719 
Q 1378.238179 111.578719 1375.075067 99.152512 
Q 1371.91689 86.706798 1371.91689 64.526897 
Q 1371.91689 42.38601 1375.070132 29.842759 
Q 1378.223375 17.28 1383.760054 17.28 
Q 1389.355948 17.28 1392.479583 29.725714 
Q 1395.603217 42.151921 1395.603217 64.526897 
Q 1395.603217 79.879212 1393.945174 90.978916 
Q 1392.287131 102.078621 1389.173366 107.677241 
L 1393.811939 128.16 
L 1388.151893 128.16 
L 1384.391689 111.578719 
z
M 1383.760054 34.290443 
Q 1381.045995 34.290443 1379.550796 42.210443 
Q 1378.055597 50.130443 1378.055597 64.526897 
Q 1378.055597 79.157438 1379.516253 86.940887 
Q 1380.981845 94.704828 1383.760054 94.704828 
Q 1386.488916 94.704828 1387.984115 86.784828 
Q 1389.479315 78.84532 1389.479315 64.526897 
Q 1389.479315 50.130443 1387.984115 42.210443 
Q 1386.488916 34.290443 1383.760054 34.290443 
z
" clip-path="url(#p6600c6852d)" style="fill: #40ba47"/>
   </g>
   <g id="patch_50">
    <path d="M 1404.395194 17.28 
L 1412.990865 17.28 
L 1412.990865 128.16 
L 1404.395194 128.16 
L 1404.395194 17.28 
z
" clip-path="url(#p6600c6852d)" style="fill: #21599c"/>
   </g>
   <g id="patch_51">
    <path d="M 1443.494236 22.570907 
L 1443.494236 45.200413 
Q 1441.023962 41.260863 1438.669482 39.268184 
Q 1436.321435 37.252601 1434.230708 37.252601 
Q 1431.458082 37.252601 1430.12645 39.978219 
Q 1428.801251 42.680934 1428.801251 48.407023 
Q 1428.801251 52.713043 1429.695439 55.118 
Q 1430.589627 57.500054 1432.944107 59.217881 
L 1436.237806 61.57703 
Q 1441.242684 65.173014 1443.35271 72.479504 
Q 1445.469169 79.76309 1445.469169 93.230853 
Q 1445.469169 110.890114 1442.522852 119.525057 
Q 1439.576536 128.16 1433.523077 128.16 
Q 1430.673256 128.16 1427.797702 126.21313 
Q 1424.922149 124.289163 1422.046595 120.48704 
L 1422.046595 97.239116 
Q 1424.922149 102.667449 1427.604712 105.438876 
Q 1430.287275 108.187399 1432.783282 108.187399 
Q 1435.317886 108.187399 1436.662384 105.186928 
Q 1438.006882 102.163553 1438.006882 96.574889 
Q 1438.006882 91.581739 1437.093395 88.856121 
Q 1436.179909 86.130502 1433.445881 83.977492 
L 1430.448101 81.618343 
Q 1425.944997 78.18269 1423.860703 70.67006 
Q 1421.782842 63.15743 1421.782842 50.422607 
Q 1421.782842 34.458269 1424.677694 25.869134 
Q 1427.572547 17.28 1433.002004 17.28 
Q 1435.478711 17.28 1438.090511 18.608453 
Q 1440.702312 19.936906 1443.494236 22.570907 
z
" clip-path="url(#p6600c6852d)" style="fill: #40ba47"/>
   </g>
   <g id="patch_52">
    <path d="M 1446.715818 17.28 
L 1459.027773 17.28 
Q 1464.523741 17.28 1467.459859 26.690304 
Q 1470.402145 36.076845 1470.402145 53.447887 
Q 1470.402145 70.913982 1467.459859 80.300523 
Q 1464.523741 89.687064 1459.027773 89.687064 
L 1454.1363 89.687064 
L 1454.1363 128.16 
L 1446.715818 128.16 
L 1446.715818 17.28 
z
M 1454.1363 38.00168 
L 1454.1363 68.965384 
L 1458.238229 68.965384 
Q 1460.397139 68.965384 1461.575287 64.925607 
Q 1462.753435 60.885829 1462.753435 53.447887 
Q 1462.753435 46.033708 1461.575287 42.017694 
Q 1460.397139 38.00168 1458.238229 38.00168 
L 1454.1363 38.00168 
z
" clip-path="url(#p6600c6852d)" style="fill: #787800"/>
   </g>
   <g id="patch_53">
    <path d="M 1471.895303 17.28 
L 1495.088611 17.28 
L 1495.088611 38.904689 
L 1480.490974 38.904689 
L 1480.490974 59.531316 
L 1494.224043 59.531316 
L 1494.224043 81.156005 
L 1480.490974 81.156005 
L 1480.490974 128.16 
L 1471.895303 128.16 
L 1471.895303 17.28 
z
" clip-path="url(#p6600c6852d)" style="fill: #21599c"/>
   </g>
   <g id="patch_54">
    <path d="M 1504.127097 17.28 
L 1512.722769 17.28 
L 1512.722769 128.16 
L 1504.127097 128.16 
L 1504.127097 17.28 
z
" clip-path="url(#p6600c6852d)" style="fill: #21599c"/>
   </g>
   <g id="patch_55">
    <path d="M 1521.514745 17.28 
L 1533.826701 17.28 
Q 1539.322669 17.28 1542.258786 26.690304 
Q 1545.201072 36.076845 1545.201072 53.447887 
Q 1545.201072 70.913982 1542.258786 80.300523 
Q 1539.322669 89.687064 1533.826701 89.687064 
L 1528.935227 89.687064 
L 1528.935227 128.16 
L 1521.514745 128.16 
L 1521.514745 17.28 
z
M 1528.935227 38.00168 
L 1528.935227 68.965384 
L 1533.037157 68.965384 
Q 1535.196067 68.965384 1536.374215 64.925607 
Q 1537.552363 60.885829 1537.552363 53.447887 
Q 1537.552363 46.033708 1536.374215 42.017694 
Q 1535.196067 38.00168 1533.037157 38.00168 
L 1528.935227 38.00168 
z
" clip-path="url(#p6600c6852d)" style="fill: #787800"/>
   </g>
   <g id="patch_56">
    <path d="M 1546.447721 17.28 
L 1555.043393 17.28 
L 1555.043393 106.559074 
L 1570.134048 106.559074 
L 1570.134048 128.16 
L 1546.447721 128.16 
L 1546.447721 17.28 
z
" clip-path="url(#p6600c6852d)" style="fill: #21599c"/>
   </g>
   <g id="patch_57">
    <path d="M 1571.380697 17.28 
L 1595.067024 17.28 
L 1595.067024 38.904689 
L 1586.545455 38.904689 
L 1586.545455 128.16 
L 1579.918792 128.16 
L 1579.918792 38.904689 
L 1571.380697 38.904689 
L 1571.380697 17.28 
z
" clip-path="url(#p6600c6852d)" style="fill: #40ba47"/>
   </g>
   <g id="patch_58">
    <path d="M 1596.313673 17.28 
L 1603.300911 17.28 
L 1608.147709 76.617197 
L 1613.026453 17.28 
L 1620 17.28 
L 1620 128.16 
L 1614.810914 128.16 
L 1614.810914 47.055534 
L 1609.904787 106.844235 
L 1606.422577 106.844235 
L 1601.51645 47.055534 
L 1601.51645 128.16 
L 1596.313673 128.16 
L 1596.313673 17.28 
z
" clip-path="url(#p6600c6852d)" style="fill: #21599c"/>
   </g>
   <g id="matplotlib.axis_1">
    <g id="xtick_1">
     <g id="line2d_2">
      <defs>
       <path id="m6a19a76925" d="M 0 0 
L 0 3.5 
" style="stroke: #000000; stroke-width: 0.8"/>
      </defs>
      <g>
       <use xlink:href="#m6a19a76925" x="236.843164" y="128.16" style="stroke: #000000; stroke-width: 0.8"/>
      </g>
     </g>
     <g id="text_1">
      <!-- 0 -->
      <g transform="translate(233.661914 142.758438) scale(0.1 -0.1)">
       <defs>
        <path id="DejaVuSans-30" d="M 2034 4250 
Q 1547 4250 1301 3770 
Q 1056 3291 1056 2328 
Q 1056 1369 1301 889 
Q 1547 409 2034 409 
Q 2525 409 2770 889 
Q 3016 1369 3016 2328 
Q 3016 3291 2770 3770 
Q 2525 4250 2034 4250 
z
M 2034 4750 
Q 2819 4750 3233 4129 
Q 3647 3509 3647 2328 
Q 3647 1150 3233 529 
Q 2819 -91 2034 -91 
Q 1250 -91 836 529 
Q 422 1150 422 2328 
Q 422 3509 836 4129 
Q 1250 4750 2034 4750 
z
" transform="scale(0.015625)"/>
       </defs>
       <use xlink:href="#DejaVuSans-30"/>
      </g>
     </g>
    </g>
    <g id="xtick_2">
     <g id="line2d_3">
      <g>
       <use xlink:href="#m6a19a76925" x="486.172922" y="128.16" style="stroke: #000000; stroke-width: 0.8"/>
      </g>
     </g>
     <g id="text_2">
      <!-- 10 -->
      <g transform="translate(479.810422 142.758438) scale(0.1 -0.1)">
       <defs>
        <path id="DejaVuSans-31" d="M 794 531 
L 1825 531 
L 1825 4091 
L 703 3866 
L 703 4441 
L 1819 4666 
L 2450 4666 
L 2450 531 
L 3481 531 
L 3481 0 
L 794 0 
L 794 531 
z
" transform="scale(0.015625)"/>
       </defs>
       <use xlink:href="#DejaVuSans-31"/>
       <use xlink:href="#DejaVuSans-30" x="63.623047"/>
      </g>
     </g>
    </g>
    <g id="xtick_3">
     <g id="line2d_4">
      <g>
       <use xlink:href="#m6a19a76925" x="735.502681" y="128.16" style="stroke: #000000; stroke-width: 0.8"/>
      </g>
     </g>
     <g id="text_3">
      <!-- 20 -->
      <g transform="translate(729.140181 142.758438) scale(0.1 -0.1)">
       <defs>
        <path id="DejaVuSans-32" d="M 1228 531 
L 3431 531 
L 3431 0 
L 469 0 
L 469 531 
Q 828 903 1448 1529 
Q 2069 2156 2228 2338 
Q 2531 2678 2651 2914 
Q 2772 3150 2772 3378 
Q 2772 3750 2511 3984 
Q 2250 4219 1831 4219 
Q 1534 4219 1204 4116 
Q 875 4013 500 3803 
L 500 4441 
Q 881 4594 1212 4672 
Q 1544 4750 1819 4750 
Q 2544 4750 2975 4387 
Q 3406 4025 3406 3419 
Q 3406 3131 3298 2873 
Q 3191 2616 2906 2266 
Q 2828 2175 2409 1742 
Q 1991 1309 1228 531 
z
" transform="scale(0.015625)"/>
       </defs>
       <use xlink:href="#DejaVuSans-32"/>
       <use xlink:href="#DejaVuSans-30" x="63.623047"/>
      </g>
     </g>
    </g>
    <g id="xtick_4">
     <g id="line2d_5">
      <g>
       <use xlink:href="#m6a19a76925" x="984.83244" y="128.16" style="stroke: #000000; stroke-width: 0.8"/>
      </g>
     </g>
     <g id="text_4">
      <!-- 30 -->
      <g transform="translate(978.46994 142.758438) scale(0.1 -0.1)">
       <defs>
        <path id="DejaVuSans-33" d="M 2597 2516 
Q 3050 2419 3304 2112 
Q 3559 1806 3559 1356 
Q 3559 666 3084 287 
Q 2609 -91 1734 -91 
Q 1441 -91 1130 -33 
Q 819 25 488 141 
L 488 750 
Q 750 597 1062 519 
Q 1375 441 1716 441 
Q 2309 441 2620 675 
Q 2931 909 2931 1356 
Q 2931 1769 2642 2001 
Q 2353 2234 1838 2234 
L 1294 2234 
L 1294 2753 
L 1863 2753 
Q 2328 2753 2575 2939 
Q 2822 3125 2822 3475 
Q 2822 3834 2567 4026 
Q 2313 4219 1838 4219 
Q 1578 4219 1281 4162 
Q 984 4106 628 3988 
L 628 4550 
Q 988 4650 1302 4700 
Q 1616 4750 1894 4750 
Q 2613 4750 3031 4423 
Q 3450 4097 3450 3541 
Q 3450 3153 3228 2886 
Q 3006 2619 2597 2516 
z
" transform="scale(0.015625)"/>
       </defs>
       <use xlink:href="#DejaVuSans-33"/>
       <use xlink:href="#DejaVuSans-30" x="63.623047"/>
      </g>
     </g>
    </g>
    <g id="xtick_5">
     <g id="line2d_6">
      <g>
       <use xlink:href="#m6a19a76925" x="1234.162198" y="128.16" style="stroke: #000000; stroke-width: 0.8"/>
      </g>
     </g>
     <g id="text_5">
      <!-- 40 -->
      <g transform="translate(1227.799698 142.758438) scale(0.1 -0.1)">
       <defs>
        <path id="DejaVuSans-34" d="M 2419 4116 
L 825 1625 
L 2419 1625 
L 2419 4116 
z
M 2253 4666 
L 3047 4666 
L 3047 1625 
L 3713 1625 
L 3713 1100 
L 3047 1100 
L 3047 0 
L 2419 0 
L 2419 1100 
L 313 1100 
L 313 1709 
L 2253 4666 
z
" transform="scale(0.015625)"/>
       </defs>
       <use xlink:href="#DejaVuSans-34"/>
       <use xlink:href="#DejaVuSans-30" x="63.623047"/>
      </g>
     </g>
    </g>
    <g id="xtick_6">
     <g id="line2d_7">
      <g>
       <use xlink:href="#m6a19a76925" x="1483.491957" y="128.16" style="stroke: #000000; stroke-width: 0.8"/>
      </g>
     </g>
     <g id="text_6">
      <!-- 50 -->
      <g transform="translate(1477.129457 142.758438) scale(0.1 -0.1)">
       <defs>
        <path id="DejaVuSans-35" d="M 691 4666 
L 3169 4666 
L 3169 4134 
L 1269 4134 
L 1269 2991 
Q 1406 3038 1543 3061 
Q 1681 3084 1819 3084 
Q 2600 3084 3056 2656 
Q 3513 2228 3513 1497 
Q 3513 744 3044 326 
Q 2575 -91 1722 -91 
Q 1428 -91 1123 -41 
Q 819 9 494 109 
L 494 744 
Q 775 591 1075 516 
Q 1375 441 1709 441 
Q 2250 441 2565 725 
Q 2881 1009 2881 1497 
Q 2881 1984 2565 2268 
Q 2250 2553 1709 2553 
Q 1456 2553 1204 2497 
Q 953 2441 691 2322 
L 691 4666 
z
" transform="scale(0.015625)"/>
       </defs>
       <use xlink:href="#DejaVuSans-35"/>
       <use xlink:href="#DejaVuSans-30" x="63.623047"/>
      </g>
     </g>
    </g>
   </g>
   <g id="matplotlib.axis_2">
    <g id="ytick_1">
     <g id="line2d_8">
      <defs>
       <path id="m0d947d61aa" d="M 0 0 
L -3.5 0 
" style="stroke: #000000; stroke-width: 0.8"/>
      </defs>
      <g>
       <use xlink:href="#m0d947d61aa" x="225" y="128.16" style="stroke: #000000; stroke-width: 0.8"/>
      </g>
     </g>
     <g id="text_7">
      <!-- 0.0 -->
      <g transform="translate(202.096875 131.959219) scale(0.1 -0.1)">
       <defs>
        <path id="DejaVuSans-2e" d="M 684 794 
L 1344 794 
L 1344 0 
L 684 0 
L 684 794 
z
" transform="scale(0.015625)"/>
       </defs>
       <use xlink:href="#DejaVuSans-30"/>
       <use xlink:href="#DejaVuSans-2e" x="63.623047"/>
       <use xlink:href="#DejaVuSans-30" x="95.410156"/>
      </g>
     </g>
    </g>
    <g id="ytick_2">
     <g id="line2d_9">
      <g>
       <use xlink:href="#m0d947d61aa" x="225" y="100.44" style="stroke: #000000; stroke-width: 0.8"/>
      </g>
     </g>
     <g id="text_8">
      <!-- 0.5 -->
      <g transform="translate(202.096875 104.239219) scale(0.1 -0.1)">
       <use xlink:href="#DejaVuSans-30"/>
       <use xlink:href="#DejaVuSans-2e" x="63.623047"/>
       <use xlink:href="#DejaVuSans-35" x="95.410156"/>
      </g>
     </g>
    </g>
    <g id="ytick_3">
     <g id="line2d_10">
      <g>
       <use xlink:href="#m0d947d61aa" x="225" y="72.72" style="stroke: #000000; stroke-width: 0.8"/>
      </g>
     </g>
     <g id="text_9">
      <!-- 1.0 -->
      <g transform="translate(202.096875 76.519219) scale(0.1 -0.1)">
       <use xlink:href="#DejaVuSans-31"/>
       <use xlink:href="#DejaVuSans-2e" x="63.623047"/>
       <use xlink:href="#DejaVuSans-30" x="95.410156"/>
      </g>
     </g>
    </g>
    <g id="ytick_4">
     <g id="line2d_11">
      <g>
       <use xlink:href="#m0d947d61aa" x="225" y="45" style="stroke: #000000; stroke-width: 0.8"/>
      </g>
     </g>
     <g id="text_10">
      <!-- 1.5 -->
      <g transform="translate(202.096875 48.799219) scale(0.1 -0.1)">
       <use xlink:href="#DejaVuSans-31"/>
       <use xlink:href="#DejaVuSans-2e" x="63.623047"/>
       <use xlink:href="#DejaVuSans-35" x="95.410156"/>
      </g>
     </g>
    </g>
    <g id="ytick_5">
     <g id="line2d_12">
      <g>
       <use xlink:href="#m0d947d61aa" x="225" y="17.28" style="stroke: #000000; stroke-width: 0.8"/>
      </g>
     </g>
     <g id="text_11">
      <!-- 2.0 -->
      <g transform="translate(202.096875 21.079219) scale(0.1 -0.1)">
       <use xlink:href="#DejaVuSans-32"/>
       <use xlink:href="#DejaVuSans-2e" x="63.623047"/>
       <use xlink:href="#DejaVuSans-30" x="95.410156"/>
      </g>
     </g>
    </g>
   </g>
  </g>
 </g>
 <defs>
  <clipPath id="p6600c6852d">
   <rect x="225" y="17.28" width="1395" height="110.88"/>
  </clipPath>
 </defs>
</svg>
